<svg xmlns="http://www.w3.org/2000/svg" width="917.9" height="545" font-family="DejaVu Sans, Liberation Sans, Arial, sans-serif" fill="black"><rect width="100%" height="100%" fill="white" /><defs><clipPath id="kuva-clip-0"><rect x="59" y="44" width="600" height="450"/></clipPath></defs><line x1="144.71" y1="44" x2="144.71" y2="494" stroke="#cccccc" stroke-width="1" /><line x1="230.43" y1="44" x2="230.43" y2="494" stroke="#cccccc" stroke-width="1" /><line x1="316.14" y1="44" x2="316.14" y2="494" stroke="#cccccc" stroke-width="1" /><line x1="401.86" y1="44" x2="401.86" y2="494" stroke="#cccccc" stroke-width="1" /><line x1="487.57" y1="44" x2="487.57" y2="494" stroke="#cccccc" stroke-width="1" /><line x1="573.29" y1="44" x2="573.29" y2="494" stroke="#cccccc" stroke-width="1" /><line x1="659" y1="44" x2="659" y2="494" stroke="#cccccc" stroke-width="1" /><line x1="59" y1="404" x2="659" y2="404" stroke="#cccccc" stroke-width="1" /><line x1="59" y1="314" x2="659" y2="314" stroke="#cccccc" stroke-width="1" /><line x1="59" y1="224" x2="659" y2="224" stroke="#cccccc" stroke-width="1" /><line x1="59" y1="134" x2="659" y2="134" stroke="#cccccc" stroke-width="1" /><line x1="59" y1="44" x2="659" y2="44" stroke="#cccccc" stroke-width="1" /><line x1="59" y1="494" x2="659" y2="494" stroke="#000000" stroke-width="1" /><line x1="59" y1="44" x2="59" y2="494" stroke="#000000" stroke-width="1" /><line x1="59" y1="494" x2="59" y2="499" stroke="#000000" stroke-width="1" /><text x="59" y="511" font-size="12" text-anchor="middle">0</text><line x1="144.71" y1="494" x2="144.71" y2="499" stroke="#000000" stroke-width="1" /><text x="144.71" y="511" font-size="12" text-anchor="middle">1</text><line x1="230.43" y1="494" x2="230.43" y2="499" stroke="#000000" stroke-width="1" /><text x="230.43" y="511" font-size="12" text-anchor="middle">2</text><line x1="316.14" y1="494" x2="316.14" y2="499" stroke="#000000" stroke-width="1" /><text x="316.14" y="511" font-size="12" text-anchor="middle">3</text><line x1="401.86" y1="494" x2="401.86" y2="499" stroke="#000000" stroke-width="1" /><text x="401.86" y="511" font-size="12" text-anchor="middle">4</text><line x1="487.57" y1="494" x2="487.57" y2="499" stroke="#000000" stroke-width="1" /><text x="487.57" y="511" font-size="12" text-anchor="middle">5</text><line x1="573.29" y1="494" x2="573.29" y2="499" stroke="#000000" stroke-width="1" /><text x="573.29" y="511" font-size="12" text-anchor="middle">6</text><line x1="659" y1="494" x2="659" y2="499" stroke="#000000" stroke-width="1" /><text x="659" y="511" font-size="12" text-anchor="middle">7</text><line x1="54" y1="494" x2="59" y2="494" stroke="#000000" stroke-width="1" /><text x="51" y="498.2" font-size="12" text-anchor="end">0</text><line x1="54" y1="404" x2="59" y2="404" stroke="#000000" stroke-width="1" /><text x="51" y="408.2" font-size="12" text-anchor="end">5</text><line x1="54" y1="314" x2="59" y2="314" stroke="#000000" stroke-width="1" /><text x="51" y="318.2" font-size="12" text-anchor="end">10</text><line x1="54" y1="224" x2="59" y2="224" stroke="#000000" stroke-width="1" /><text x="51" y="228.20000000000002" font-size="12" text-anchor="end">15</text><line x1="54" y1="134" x2="59" y2="134" stroke="#000000" stroke-width="1" /><text x="51" y="138.20000000000002" font-size="12" text-anchor="end">20</text><line x1="54" y1="44" x2="59" y2="44" stroke="#000000" stroke-width="1" /><text x="51" y="48.2" font-size="12" text-anchor="end">25</text><line x1="659" y1="44" x2="659" y2="494" stroke="#000000" stroke-width="1" /><line x1="659" y1="494" x2="664" y2="494" stroke="#000000" stroke-width="1" /><text x="667" y="498.2" font-size="12" text-anchor="start">0</text><line x1="659" y1="404" x2="664" y2="404" stroke="#000000" stroke-width="1" /><text x="667" y="408.2" font-size="12" text-anchor="start">20</text><line x1="659" y1="314" x2="664" y2="314" stroke="#000000" stroke-width="1" /><text x="667" y="318.2" font-size="12" text-anchor="start">40</text><line x1="659" y1="224" x2="664" y2="224" stroke="#000000" stroke-width="1" /><text x="667" y="228.20000000000002" font-size="12" text-anchor="start">60</text><line x1="659" y1="134" x2="664" y2="134" stroke="#000000" stroke-width="1" /><text x="667" y="138.20000000000002" font-size="12" text-anchor="start">80</text><line x1="659" y1="44" x2="664" y2="44" stroke="#000000" stroke-width="1" /><text x="667" y="48.2" font-size="12" text-anchor="start">100</text><text x="717" y="272.5" font-size="14" text-anchor="middle" transform="rotate(90,717,272.5)">Rainfall (mm)</text><text x="359" y="538" font-size="14" text-anchor="middle">Month</text><text x="15" y="272.5" font-size="14" text-anchor="middle" transform="rotate(-90,15,272.5)">Temperature (°C)</text><text x="359" y="22" font-size="18" text-anchor="middle">Temperature &amp; Rainfall</text><g clip-path="url(#kuva-clip-0)"><path d="M 144.71 404.0 L 230.43 350.0 L 316.14 242.0 L 401.86 134.0 L 487.57 62.0 L 573.29 98.0 " stroke="#e69f00" stroke-width="2" fill="none" /><path d="M 144.71 134.0 L 230.43 224.0 L 316.14 291.5 L 401.86 359.0 L 487.57 404.0 L 573.29 336.5 " stroke="#56b4e9" stroke-width="2" fill="none" /></g><rect x="729" y="34" width="179.5" height="56" fill="#ffffff" /><rect x="729" y="34" width="179.5" height="56" fill="none" stroke="#000000" stroke-width="1" /><text x="759" y="53.2" font-size="12" text-anchor="start">Temperature (°C)</text><line x1="739" y1="49" x2="751" y2="49" stroke="#e69f00" stroke-width="2" /><text x="759" y="71.2" font-size="12" text-anchor="start">Rainfall (mm)</text><line x1="739" y1="67" x2="751" y2="67" stroke="#56b4e9" stroke-width="2" /></svg>