<svg xmlns="http://www.w3.org/2000/svg" width="875" height="545" font-family="DejaVu Sans, Liberation Sans, Arial, sans-serif" fill="black"><rect width="100%" height="100%" fill="white" /><defs><clipPath id="kuva-clip-3"><rect x="59" y="44" width="600" height="450"/></clipPath></defs><line x1="359" y1="44" x2="359" y2="494" stroke="#cccccc" stroke-width="1" /><line x1="659" y1="44" x2="659" y2="494" stroke="#cccccc" stroke-width="1" /><line x1="59" y1="404" x2="659" y2="404" stroke="#cccccc" stroke-width="1" /><line x1="59" y1="314" x2="659" y2="314" stroke="#cccccc" stroke-width="1" /><line x1="59" y1="224" x2="659" y2="224" stroke="#cccccc" stroke-width="1" /><line x1="59" y1="134" x2="659" y2="134" stroke="#cccccc" stroke-width="1" /><line x1="59" y1="44" x2="659" y2="44" stroke="#cccccc" stroke-width="1" /><line x1="59" y1="494" x2="659" y2="494" stroke="#000000" stroke-width="1" /><line x1="59" y1="44" x2="59" y2="494" stroke="#000000" stroke-width="1" /><line x1="59" y1="494" x2="59" y2="499" stroke="#000000" stroke-width="1" /><text x="59" y="511" font-size="12" text-anchor="middle">0</text><line x1="359" y1="494" x2="359" y2="499" stroke="#000000" stroke-width="1" /><text x="359" y="511" font-size="12" text-anchor="middle">50</text><line x1="659" y1="494" x2="659" y2="499" stroke="#000000" stroke-width="1" /><text x="659" y="511" font-size="12" text-anchor="middle">100</text><line x1="54" y1="494" x2="59" y2="494" stroke="#000000" stroke-width="1" /><text x="51" y="498.2" font-size="12" text-anchor="end">0</text><line x1="54" y1="404" x2="59" y2="404" stroke="#000000" stroke-width="1" /><text x="51" y="408.2" font-size="12" text-anchor="end">0.5</text><line x1="54" y1="314" x2="59" y2="314" stroke="#000000" stroke-width="1" /><text x="51" y="318.2" font-size="12" text-anchor="end">1</text><line x1="54" y1="224" x2="59" y2="224" stroke="#000000" stroke-width="1" /><text x="51" y="228.20000000000002" font-size="12" text-anchor="end">1.5</text><line x1="54" y1="134" x2="59" y2="134" stroke="#000000" stroke-width="1" /><text x="51" y="138.20000000000002" font-size="12" text-anchor="end">2</text><line x1="54" y1="44" x2="59" y2="44" stroke="#000000" stroke-width="1" /><text x="51" y="48.2" font-size="12" text-anchor="end">2.5</text><line x1="659" y1="44" x2="659" y2="494" stroke="#000000" stroke-width="1" /><line x1="659" y1="494" x2="664" y2="494" stroke="#000000" stroke-width="1" /><text x="667" y="498.2" font-size="12" text-anchor="start">0</text><line x1="659" y1="419" x2="664" y2="419" stroke="#000000" stroke-width="1" /><text x="667" y="423.2" font-size="12" text-anchor="start">5</text><line x1="659" y1="344" x2="664" y2="344" stroke="#000000" stroke-width="1" /><text x="667" y="348.2" font-size="12" text-anchor="start">10</text><line x1="659" y1="269" x2="664" y2="269" stroke="#000000" stroke-width="1" /><text x="667" y="273.2" font-size="12" text-anchor="start">15</text><line x1="659" y1="194" x2="664" y2="194" stroke="#000000" stroke-width="1" /><text x="667" y="198.20000000000002" font-size="12" text-anchor="start">20</text><line x1="659" y1="119" x2="664" y2="119" stroke="#000000" stroke-width="1" /><text x="667" y="123.2" font-size="12" text-anchor="start">25</text><line x1="659" y1="44" x2="664" y2="44" stroke="#000000" stroke-width="1" /><text x="667" y="48.2" font-size="12" text-anchor="start">30</text><text x="717" y="272.5" font-size="14" text-anchor="middle" transform="rotate(90,717,272.5)">Base Quality</text><text x="359" y="538" font-size="14" text-anchor="middle">GC%</text><text x="15" y="272.5" font-size="14" text-anchor="middle" transform="rotate(-90,15,272.5)">Normalized Coverage</text><text x="359" y="22" font-size="18" text-anchor="middle">GC Bias</text><g clip-path="url(#kuva-clip-3)"><rect x="59" y="491.26" width="12" height="2.74" fill="#a8d8f0" /><rect x="71" y="490.05" width="12" height="3.95" fill="#a8d8f0" /><rect x="83" y="488.41" width="12" height="5.59" fill="#a8d8f0" /><rect x="95" y="486.25" width="12" height="7.75" fill="#a8d8f0" /><rect x="107" y="483.47" width="12" height="10.53" fill="#a8d8f0" /><rect x="119" y="479.99" width="12" height="14.01" fill="#a8d8f0" /><rect x="131" y="475.73" width="12" height="18.27" fill="#a8d8f0" /><rect x="143" y="470.66" width="12" height="23.34" fill="#a8d8f0" /><rect x="155" y="464.78000000000003" width="12" height="29.22" fill="#a8d8f0" /><rect x="167" y="458.17" width="12" height="35.83" fill="#a8d8f0" /><rect x="179" y="450.94" width="12" height="43.06" fill="#a8d8f0" /><rect x="191" y="443.3" width="12" height="50.7" fill="#a8d8f0" /><rect x="203" y="435.52" width="12" height="58.480000000000004" fill="#a8d8f0" /><rect x="215" y="427.90000000000003" width="12" height="66.1" fill="#a8d8f0" /><rect x="227" y="420.8" width="12" height="73.2" fill="#a8d8f0" /><rect x="239" y="414.58" width="12" height="79.42" fill="#a8d8f0" /><rect x="251" y="409.56" width="12" height="84.44" fill="#a8d8f0" /><rect x="263" y="406.04" width="12" height="87.96000000000001" fill="#a8d8f0" /><rect x="275" y="404.23" width="12" height="89.77" fill="#a8d8f0" /><rect x="287" y="404.23" width="12" height="89.77" fill="#a8d8f0" /><rect x="299" y="406.04" width="12" height="87.96000000000001" fill="#a8d8f0" /><rect x="311" y="409.56" width="12" height="84.44" fill="#a8d8f0" /><rect x="323" y="414.58" width="12" height="79.42" fill="#a8d8f0" /><rect x="335" y="420.8" width="12" height="73.2" fill="#a8d8f0" /><rect x="347" y="427.90000000000003" width="12" height="66.1" fill="#a8d8f0" /><rect x="359" y="435.52" width="12" height="58.480000000000004" fill="#a8d8f0" /><rect x="371" y="443.3" width="12" height="50.7" fill="#a8d8f0" /><rect x="383" y="450.94" width="12" height="43.06" fill="#a8d8f0" /><rect x="395" y="458.17" width="12" height="35.83" fill="#a8d8f0" /><rect x="407" y="464.78000000000003" width="12" height="29.22" fill="#a8d8f0" /><rect x="419" y="470.66" width="12" height="23.34" fill="#a8d8f0" /><rect x="431" y="475.73" width="12" height="18.27" fill="#a8d8f0" /><rect x="443" y="479.99" width="12" height="14.01" fill="#a8d8f0" /><rect x="455" y="483.47" width="12" height="10.53" fill="#a8d8f0" /><rect x="467" y="486.25" width="12" height="7.75" fill="#a8d8f0" /><rect x="479" y="488.41" width="12" height="5.59" fill="#a8d8f0" /><rect x="491" y="490.05" width="12" height="3.95" fill="#a8d8f0" /><rect x="503" y="491.26" width="12" height="2.74" fill="#a8d8f0" /><rect x="515" y="492.14" width="12" height="1.86" fill="#a8d8f0" /><rect x="527" y="492.76" width="12" height="1.24" fill="#a8d8f0" /><rect x="539" y="493.2" width="12" height="0.8" fill="#a8d8f0" /><rect x="551" y="493.49" width="12" height="0.51" fill="#a8d8f0" /><rect x="563" y="493.68" width="12" height="0.32" fill="#a8d8f0" /><rect x="575" y="493.8" width="12" height="0.2" fill="#a8d8f0" /><rect x="587" y="493.88" width="12" height="0.12" fill="#a8d8f0" /><rect x="599" y="493.93" width="12" height="0.07" fill="#a8d8f0" /><rect x="611" y="493.96000000000004" width="12" height="0.04" fill="#a8d8f0" /><rect x="623" y="493.98" width="12" height="0.02" fill="#a8d8f0" /><rect x="635" y="493.99" width="12" height="0.01" fill="#a8d8f0" /><rect x="647" y="493.99" width="12" height="0.01" fill="#a8d8f0" /><circle cx="71" cy="134" r="5" fill="#4e90d9" /><circle cx="83" cy="134" r="5" fill="#4e90d9" /><circle cx="95" cy="134" r="5" fill="#4e90d9" /><circle cx="107" cy="134" r="5" fill="#4e90d9" /><circle cx="119" cy="134" r="5" fill="#4e90d9" /><circle cx="131" cy="188" r="5" fill="#4e90d9" /><circle cx="143" cy="233" r="5" fill="#4e90d9" /><circle cx="155" cy="251" r="5" fill="#4e90d9" /><circle cx="167" cy="269" r="5" fill="#4e90d9" /><circle cx="179" cy="287" r="5" fill="#4e90d9" /><circle cx="191" cy="291.68" r="5" fill="#4e90d9" /><circle cx="203" cy="297.23" r="5" fill="#4e90d9" /><circle cx="215" cy="302.38" r="5" fill="#4e90d9" /><circle cx="227" cy="307.11" r="5" fill="#4e90d9" /><circle cx="239" cy="311.43" r="5" fill="#4e90d9" /><circle cx="251" cy="315.34000000000003" r="5" fill="#4e90d9" /><circle cx="263" cy="318.83" r="5" fill="#4e90d9" /><circle cx="275" cy="321.92" r="5" fill="#4e90d9" /><circle cx="287" cy="324.59000000000003" r="5" fill="#4e90d9" /><circle cx="299" cy="326.86" r="5" fill="#4e90d9" /><circle cx="311" cy="328.71" r="5" fill="#4e90d9" /><circle cx="323" cy="330.15000000000003" r="5" fill="#4e90d9" /><circle cx="335" cy="331.18" r="5" fill="#4e90d9" /><circle cx="347" cy="331.79" r="5" fill="#4e90d9" /><circle cx="359" cy="332" r="5" fill="#4e90d9" /><circle cx="371" cy="331.79" r="5" fill="#4e90d9" /><circle cx="383" cy="331.18" r="5" fill="#4e90d9" /><circle cx="395" cy="330.15000000000003" r="5" fill="#4e90d9" /><circle cx="407" cy="328.71" r="5" fill="#4e90d9" /><circle cx="419" cy="326.86" r="5" fill="#4e90d9" /><circle cx="431" cy="324.59000000000003" r="5" fill="#4e90d9" /><circle cx="443" cy="321.92" r="5" fill="#4e90d9" /><circle cx="455" cy="318.83" r="5" fill="#4e90d9" /><circle cx="467" cy="315.34000000000003" r="5" fill="#4e90d9" /><circle cx="479" cy="311.43" r="5" fill="#4e90d9" /><circle cx="491" cy="305" r="5" fill="#4e90d9" /><circle cx="503" cy="296" r="5" fill="#4e90d9" /><circle cx="515" cy="278" r="5" fill="#4e90d9" /><circle cx="527" cy="260" r="5" fill="#4e90d9" /><circle cx="539" cy="233" r="5" fill="#4e90d9" /><circle cx="551" cy="206" r="5" fill="#4e90d9" /><circle cx="563" cy="179" r="5" fill="#4e90d9" /><circle cx="575" cy="170" r="5" fill="#4e90d9" /><circle cx="587" cy="134" r="5" fill="#4e90d9" /><circle cx="599" cy="134" r="5" fill="#4e90d9" /><circle cx="611" cy="134" r="5" fill="#4e90d9" /><circle cx="623" cy="134" r="5" fill="#4e90d9" /><circle cx="635" cy="134" r="5" fill="#4e90d9" /><circle cx="647" cy="134" r="5" fill="#4e90d9" /><path d="M 89.0 366.5 L 119.0 344.0 L 149.0 64.63 L 179.0 62.75 L 209.0 60.88 L 239.0 59.0 L 269.0 57.13 L 299.0 55.25 L 329.0 53.38 L 359.0 51.5 L 389.0 53.38 L 419.0 55.25 L 449.0 57.13 L 479.0 59.0 L 509.0 60.88 L 539.0 62.75 L 569.0 64.63 L 599.0 344.0 L 629.0 366.5 L 659.0 374.0 " stroke="#2ca02c" stroke-width="2" fill="none" /><path d="M 89.0 411.5 L 119.0 404.0 L 149.0 274.25 L 179.0 273.5 L 209.0 272.75 L 239.0 272.0 L 269.0 271.25 L 299.0 270.5 L 329.0 269.75 L 359.0 269.0 L 389.0 269.75 L 419.0 270.5 L 449.0 271.25 L 479.0 272.0 L 509.0 272.75 L 539.0 273.5 L 569.0 274.25 L 599.0 404.0 L 629.0 411.5 L 659.0 419.0 " stroke="#17becf" stroke-width="2" fill="none" /></g><rect x="729" y="34" width="137" height="92" fill="#ffffff" /><rect x="729" y="34" width="137" height="92" fill="none" stroke="#000000" stroke-width="1" /><text x="759" y="53.2" font-size="12" text-anchor="start">Genome GC</text><rect x="739" y="43" width="12" height="12" fill="#a8d8f0" /><text x="759" y="71.2" font-size="12" text-anchor="start">Coverage</text><circle cx="744" cy="67" r="5" fill="#4e90d9" /><text x="759" y="89.2" font-size="12" text-anchor="start">Reported BQ</text><line x1="739" y1="85" x2="751" y2="85" stroke="#2ca02c" stroke-width="2" /><text x="759" y="107.2" font-size="12" text-anchor="start">Empirical BQ</text><line x1="739" y1="103" x2="751" y2="103" stroke="#17becf" stroke-width="2" /></svg>