<svg xmlns="http://www.w3.org/2000/svg" width="738.4" height="545" font-family="DejaVu Sans, Liberation Sans, Arial, sans-serif" fill="black"><rect width="100%" height="100%" fill="white" /><defs><clipPath id="kuva-clip-2"><rect x="59" y="44" width="600" height="450"/></clipPath></defs><line x1="159" y1="44" x2="159" y2="494" stroke="#cccccc" stroke-width="1" /><line x1="259" y1="44" x2="259" y2="494" stroke="#cccccc" stroke-width="1" /><line x1="359" y1="44" x2="359" y2="494" stroke="#cccccc" stroke-width="1" /><line x1="459" y1="44" x2="459" y2="494" stroke="#cccccc" stroke-width="1" /><line x1="559" y1="44" x2="559" y2="494" stroke="#cccccc" stroke-width="1" /><line x1="659" y1="44" x2="659" y2="494" stroke="#cccccc" stroke-width="1" /><line x1="59" y1="419" x2="659" y2="419" stroke="#cccccc" stroke-width="1" /><line x1="59" y1="344" x2="659" y2="344" stroke="#cccccc" stroke-width="1" /><line x1="59" y1="269" x2="659" y2="269" stroke="#cccccc" stroke-width="1" /><line x1="59" y1="194" x2="659" y2="194" stroke="#cccccc" stroke-width="1" /><line x1="59" y1="119" x2="659" y2="119" stroke="#cccccc" stroke-width="1" /><line x1="59" y1="44" x2="659" y2="44" stroke="#cccccc" stroke-width="1" /><line x1="59" y1="494" x2="659" y2="494" stroke="#000000" stroke-width="1" /><line x1="59" y1="44" x2="59" y2="494" stroke="#000000" stroke-width="1" /><line x1="59" y1="494" x2="59" y2="499" stroke="#000000" stroke-width="1" /><text x="59" y="511" font-size="12" text-anchor="middle">0</text><line x1="159" y1="494" x2="159" y2="499" stroke="#000000" stroke-width="1" /><text x="159" y="511" font-size="12" text-anchor="middle">1</text><line x1="259" y1="494" x2="259" y2="499" stroke="#000000" stroke-width="1" /><text x="259" y="511" font-size="12" text-anchor="middle">2</text><line x1="359" y1="494" x2="359" y2="499" stroke="#000000" stroke-width="1" /><text x="359" y="511" font-size="12" text-anchor="middle">3</text><line x1="459" y1="494" x2="459" y2="499" stroke="#000000" stroke-width="1" /><text x="459" y="511" font-size="12" text-anchor="middle">4</text><line x1="559" y1="494" x2="559" y2="499" stroke="#000000" stroke-width="1" /><text x="559" y="511" font-size="12" text-anchor="middle">5</text><line x1="659" y1="494" x2="659" y2="499" stroke="#000000" stroke-width="1" /><text x="659" y="511" font-size="12" text-anchor="middle">6</text><line x1="54" y1="494" x2="59" y2="494" stroke="#000000" stroke-width="1" /><text x="51" y="498.2" font-size="12" text-anchor="end">0</text><line x1="54" y1="419" x2="59" y2="419" stroke="#000000" stroke-width="1" /><text x="51" y="423.2" font-size="12" text-anchor="end">10</text><line x1="54" y1="344" x2="59" y2="344" stroke="#000000" stroke-width="1" /><text x="51" y="348.2" font-size="12" text-anchor="end">20</text><line x1="54" y1="269" x2="59" y2="269" stroke="#000000" stroke-width="1" /><text x="51" y="273.2" font-size="12" text-anchor="end">30</text><line x1="54" y1="194" x2="59" y2="194" stroke="#000000" stroke-width="1" /><text x="51" y="198.20000000000002" font-size="12" text-anchor="end">40</text><line x1="54" y1="119" x2="59" y2="119" stroke="#000000" stroke-width="1" /><text x="51" y="123.2" font-size="12" text-anchor="end">50</text><line x1="54" y1="44" x2="59" y2="44" stroke="#000000" stroke-width="1" /><text x="51" y="48.2" font-size="12" text-anchor="end">60</text><line x1="659" y1="44" x2="659" y2="494" stroke="#000000" stroke-width="1" /><line x1="659" y1="494" x2="664" y2="494" stroke="#000000" stroke-width="1" /><text x="667" y="498.2" font-size="12" text-anchor="start">1</text><line x1="659" y1="381.5" x2="664" y2="381.5" stroke="#000000" stroke-width="1" /><text x="667" y="385.7" font-size="12" text-anchor="start">10</text><line x1="659" y1="269" x2="664" y2="269" stroke="#000000" stroke-width="1" /><text x="667" y="273.2" font-size="12" text-anchor="start">100</text><line x1="659" y1="156.5" x2="664" y2="156.5" stroke="#000000" stroke-width="1" /><text x="667" y="160.70000000000002" font-size="12" text-anchor="start">1000</text><line x1="659" y1="44" x2="664" y2="44" stroke="#000000" stroke-width="1" /><text x="667" y="48.2" font-size="12" text-anchor="start">10000</text><text x="717" y="272.5" font-size="14" text-anchor="middle" transform="rotate(90,717,272.5)">Exponential value (log scale)</text><text x="359" y="538" font-size="14" text-anchor="middle">X</text><text x="15" y="272.5" font-size="14" text-anchor="middle" transform="rotate(-90,15,272.5)">Linear value</text><text x="359" y="22" font-size="18" text-anchor="middle">Linear vs. Exponential — Log Y2</text><g clip-path="url(#kuva-clip-2)"><path d="M 159.0 419.0 L 259.0 344.0 L 359.0 269.0 L 459.0 194.0 L 559.0 119.0 " stroke="#e69f00" stroke-width="2" fill="none" /><path d="M 159.0 494.0 L 259.0 381.5 L 359.0 269.0 L 459.0 156.5 L 559.0 44.0 " stroke="#cc79a7" stroke-width="2" fill="none" /></g><rect x="67" y="52" width="128.5" height="56" fill="#ffffff" /><rect x="67" y="52" width="128.5" height="56" fill="none" stroke="#000000" stroke-width="1" /><text x="97" y="71.2" font-size="12" text-anchor="start">Linear</text><line x1="77" y1="67" x2="89" y2="67" stroke="#e69f00" stroke-width="2" /><text x="97" y="89.2" font-size="12" text-anchor="start">Exponential</text><line x1="77" y1="85" x2="89" y2="85" stroke="#cc79a7" stroke-width="2" /></svg>