<svg xmlns="http://www.w3.org/2000/svg" width="400" height="380" font-family="DejaVu Sans, Liberation Sans, Arial, sans-serif" fill="black"><rect width="100%" height="100%" fill="white" /><text x="200" y="27.400000000000002" font-size="18" text-anchor="middle">Project Task Status</text><rect x="64.77" y="90.57000000000001" width="17.44" height="17.44" fill="#4dac26" /><rect x="84.15" y="90.57000000000001" width="17.44" height="17.44" fill="#4dac26" /><rect x="103.53" y="90.57000000000001" width="17.44" height="17.44" fill="#4dac26" /><rect x="122.91" y="90.57000000000001" width="17.44" height="17.44" fill="#4dac26" /><rect x="142.29" y="90.57000000000001" width="17.44" height="17.44" fill="#4dac26" /><rect x="161.67000000000002" y="90.57000000000001" width="17.44" height="17.44" fill="#4dac26" /><rect x="181.05" y="90.57000000000001" width="17.44" height="17.44" fill="#4dac26" /><rect x="200.43" y="90.57000000000001" width="17.44" height="17.44" fill="#4dac26" /><rect x="219.81" y="90.57000000000001" width="17.44" height="17.44" fill="#4dac26" /><rect x="239.19" y="90.57000000000001" width="17.44" height="17.44" fill="#4dac26" /><rect x="64.77" y="109.95" width="17.44" height="17.44" fill="#4dac26" /><rect x="84.15" y="109.95" width="17.44" height="17.44" fill="#4dac26" /><rect x="103.53" y="109.95" width="17.44" height="17.44" fill="#4dac26" /><rect x="122.91" y="109.95" width="17.44" height="17.44" fill="#4dac26" /><rect x="142.29" y="109.95" width="17.44" height="17.44" fill="#4dac26" /><rect x="161.67000000000002" y="109.95" width="17.44" height="17.44" fill="#4dac26" /><rect x="181.05" y="109.95" width="17.44" height="17.44" fill="#4dac26" /><rect x="200.43" y="109.95" width="17.44" height="17.44" fill="#4dac26" /><rect x="219.81" y="109.95" width="17.44" height="17.44" fill="#4dac26" /><rect x="239.19" y="109.95" width="17.44" height="17.44" fill="#4dac26" /><rect x="64.77" y="129.33" width="17.44" height="17.44" fill="#4dac26" /><rect x="84.15" y="129.33" width="17.44" height="17.44" fill="#4dac26" /><rect x="103.53" y="129.33" width="17.44" height="17.44" fill="#4dac26" /><rect x="122.91" y="129.33" width="17.44" height="17.44" fill="#4dac26" /><rect x="142.29" y="129.33" width="17.44" height="17.44" fill="#4dac26" /><rect x="161.67000000000002" y="129.33" width="17.44" height="17.44" fill="#4dac26" /><rect x="181.05" y="129.33" width="17.44" height="17.44" fill="#4dac26" /><rect x="200.43" y="129.33" width="17.44" height="17.44" fill="#4dac26" /><rect x="219.81" y="129.33" width="17.44" height="17.44" fill="#4dac26" /><rect x="239.19" y="129.33" width="17.44" height="17.44" fill="#4dac26" /><rect x="64.77" y="148.71" width="17.44" height="17.44" fill="#4dac26" /><rect x="84.15" y="148.71" width="17.44" height="17.44" fill="#4dac26" /><rect x="103.53" y="148.71" width="17.44" height="17.44" fill="#4dac26" /><rect x="122.91" y="148.71" width="17.44" height="17.44" fill="#4dac26" /><rect x="142.29" y="148.71" width="17.44" height="17.44" fill="#4dac26" /><rect x="161.67000000000002" y="148.71" width="17.44" height="17.44" fill="#4dac26" /><rect x="181.05" y="148.71" width="17.44" height="17.44" fill="#4dac26" /><rect x="200.43" y="148.71" width="17.44" height="17.44" fill="#4dac26" /><rect x="219.81" y="148.71" width="17.44" height="17.44" fill="#4dac26" /><rect x="239.19" y="148.71" width="17.44" height="17.44" fill="#4dac26" /><rect x="64.77" y="168.09" width="17.44" height="17.44" fill="#4dac26" /><rect x="84.15" y="168.09" width="17.44" height="17.44" fill="#4dac26" /><rect x="103.53" y="168.09" width="17.44" height="17.44" fill="#4dac26" /><rect x="122.91" y="168.09" width="17.44" height="17.44" fill="#4dac26" /><rect x="142.29" y="168.09" width="17.44" height="17.44" fill="#4dac26" /><rect x="161.67000000000002" y="168.09" width="17.44" height="17.44" fill="#4dac26" /><rect x="181.05" y="168.09" width="17.44" height="17.44" fill="#4dac26" /><rect x="200.43" y="168.09" width="17.44" height="17.44" fill="#4dac26" /><rect x="219.81" y="168.09" width="17.44" height="17.44" fill="#4dac26" /><rect x="239.19" y="168.09" width="17.44" height="17.44" fill="#4dac26" /><rect x="64.77" y="187.47" width="17.44" height="17.44" fill="#4dac26" /><rect x="84.15" y="187.47" width="17.44" height="17.44" fill="#4dac26" /><rect x="103.53" y="187.47" width="17.44" height="17.44" fill="#4dac26" /><rect x="122.91" y="187.47" width="17.44" height="17.44" fill="#d01c8b" /><rect x="142.29" y="187.47" width="17.44" height="17.44" fill="#d01c8b" /><rect x="161.67000000000002" y="187.47" width="17.44" height="17.44" fill="#d01c8b" /><rect x="181.05" y="187.47" width="17.44" height="17.44" fill="#d01c8b" /><rect x="200.43" y="187.47" width="17.44" height="17.44" fill="#d01c8b" /><rect x="219.81" y="187.47" width="17.44" height="17.44" fill="#d01c8b" /><rect x="239.19" y="187.47" width="17.44" height="17.44" fill="#d01c8b" /><rect x="64.77" y="206.85" width="17.44" height="17.44" fill="#d01c8b" /><rect x="84.15" y="206.85" width="17.44" height="17.44" fill="#d01c8b" /><rect x="103.53" y="206.85" width="17.44" height="17.44" fill="#d01c8b" /><rect x="122.91" y="206.85" width="17.44" height="17.44" fill="#d01c8b" /><rect x="142.29" y="206.85" width="17.44" height="17.44" fill="#d01c8b" /><rect x="161.67000000000002" y="206.85" width="17.44" height="17.44" fill="#d01c8b" /><rect x="181.05" y="206.85" width="17.44" height="17.44" fill="#d01c8b" /><rect x="200.43" y="206.85" width="17.44" height="17.44" fill="#d01c8b" /><rect x="219.81" y="206.85" width="17.44" height="17.44" fill="#d01c8b" /><rect x="239.19" y="206.85" width="17.44" height="17.44" fill="#d01c8b" /><rect x="64.77" y="226.23000000000002" width="17.44" height="17.44" fill="#d01c8b" /><rect x="84.15" y="226.23000000000002" width="17.44" height="17.44" fill="#d01c8b" /><rect x="103.53" y="226.23000000000002" width="17.44" height="17.44" fill="#d01c8b" /><rect x="122.91" y="226.23000000000002" width="17.44" height="17.44" fill="#d01c8b" /><rect x="142.29" y="226.23000000000002" width="17.44" height="17.44" fill="#d01c8b" /><rect x="161.67000000000002" y="226.23000000000002" width="17.44" height="17.44" fill="#d01c8b" /><rect x="181.05" y="226.23000000000002" width="17.44" height="17.44" fill="#d01c8b" /><rect x="200.43" y="226.23000000000002" width="17.44" height="17.44" fill="#d01c8b" /><rect x="219.81" y="226.23000000000002" width="17.44" height="17.44" fill="#d01c8b" /><rect x="239.19" y="226.23000000000002" width="17.44" height="17.44" fill="#d01c8b" /><rect x="64.77" y="245.61" width="17.44" height="17.44" fill="#b8b8b8" /><rect x="84.15" y="245.61" width="17.44" height="17.44" fill="#b8b8b8" /><rect x="103.53" y="245.61" width="17.44" height="17.44" fill="#b8b8b8" /><rect x="122.91" y="245.61" width="17.44" height="17.44" fill="#b8b8b8" /><rect x="142.29" y="245.61" width="17.44" height="17.44" fill="#b8b8b8" /><rect x="161.67000000000002" y="245.61" width="17.44" height="17.44" fill="#b8b8b8" /><rect x="181.05" y="245.61" width="17.44" height="17.44" fill="#b8b8b8" /><rect x="200.43" y="245.61" width="17.44" height="17.44" fill="#b8b8b8" /><rect x="219.81" y="245.61" width="17.44" height="17.44" fill="#b8b8b8" /><rect x="239.19" y="245.61" width="17.44" height="17.44" fill="#b8b8b8" /><rect x="64.77" y="264.99" width="17.44" height="17.44" fill="#b8b8b8" /><rect x="84.15" y="264.99" width="17.44" height="17.44" fill="#b8b8b8" /><rect x="103.53" y="264.99" width="17.44" height="17.44" fill="#b8b8b8" /><rect x="122.91" y="264.99" width="17.44" height="17.44" fill="#b8b8b8" /><rect x="142.29" y="264.99" width="17.44" height="17.44" fill="#b8b8b8" /><rect x="161.67000000000002" y="264.99" width="17.44" height="17.44" fill="#b8b8b8" /><rect x="181.05" y="264.99" width="17.44" height="17.44" fill="#b8b8b8" /><rect x="200.43" y="264.99" width="17.44" height="17.44" fill="#b8b8b8" /><rect x="219.81" y="264.99" width="17.44" height="17.44" fill="#b8b8b8" /><rect x="239.19" y="264.99" width="17.44" height="17.44" fill="#b8b8b8" /><rect x="262.6" y="34" width="128" height="74" fill="#ffffff" /><rect x="262.6" y="34" width="128" height="74" fill="none" stroke="#000000" stroke-width="1" /><text x="292.6" y="53.2" font-size="12" text-anchor="start">Completed</text><rect x="272.6" y="43" width="12" height="12" fill="#4dac26" /><text x="292.6" y="71.2" font-size="12" text-anchor="start">In Progress</text><rect x="272.6" y="61" width="12" height="12" fill="#d01c8b" /><text x="292.6" y="89.2" font-size="12" text-anchor="start">Pending</text><rect x="272.6" y="79" width="12" height="12" fill="#b8b8b8" /></svg>