<svg xmlns="http://www.w3.org/2000/svg" width="400" height="380" font-family="DejaVu Sans, Liberation Sans, Arial, sans-serif" fill="black"><rect width="100%" height="100%" fill="white" /><text x="200" y="27.400000000000002" font-size="18" text-anchor="middle">Vaccination Coverage</text><circle cx="73.09" cy="102.89" r="8.36" fill="#1f77b4" /><circle cx="91.67" cy="102.89" r="8.36" fill="#1f77b4" /><circle cx="110.25" cy="102.89" r="8.36" fill="#1f77b4" /><circle cx="128.83" cy="102.89" r="8.36" fill="#1f77b4" /><circle cx="147.41" cy="102.89" r="8.36" fill="#1f77b4" /><circle cx="165.99" cy="102.89" r="8.36" fill="#1f77b4" /><circle cx="184.57" cy="102.89" r="8.36" fill="#1f77b4" /><circle cx="203.15" cy="102.89" r="8.36" fill="#1f77b4" /><circle cx="221.73000000000002" cy="102.89" r="8.36" fill="#1f77b4" /><circle cx="240.31" cy="102.89" r="8.36" fill="#1f77b4" /><circle cx="73.09" cy="121.47" r="8.36" fill="#1f77b4" /><circle cx="91.67" cy="121.47" r="8.36" fill="#1f77b4" /><circle cx="110.25" cy="121.47" r="8.36" fill="#1f77b4" /><circle cx="128.83" cy="121.47" r="8.36" fill="#1f77b4" /><circle cx="147.41" cy="121.47" r="8.36" fill="#1f77b4" /><circle cx="165.99" cy="121.47" r="8.36" fill="#1f77b4" /><circle cx="184.57" cy="121.47" r="8.36" fill="#1f77b4" /><circle cx="203.15" cy="121.47" r="8.36" fill="#1f77b4" /><circle cx="221.73000000000002" cy="121.47" r="8.36" fill="#1f77b4" /><circle cx="240.31" cy="121.47" r="8.36" fill="#1f77b4" /><circle cx="73.09" cy="140.05" r="8.36" fill="#1f77b4" /><circle cx="91.67" cy="140.05" r="8.36" fill="#1f77b4" /><circle cx="110.25" cy="140.05" r="8.36" fill="#1f77b4" /><circle cx="128.83" cy="140.05" r="8.36" fill="#1f77b4" /><circle cx="147.41" cy="140.05" r="8.36" fill="#1f77b4" /><circle cx="165.99" cy="140.05" r="8.36" fill="#1f77b4" /><circle cx="184.57" cy="140.05" r="8.36" fill="#1f77b4" /><circle cx="203.15" cy="140.05" r="8.36" fill="#1f77b4" /><circle cx="221.73000000000002" cy="140.05" r="8.36" fill="#1f77b4" /><circle cx="240.31" cy="140.05" r="8.36" fill="#1f77b4" /><circle cx="73.09" cy="158.63" r="8.36" fill="#1f77b4" /><circle cx="91.67" cy="158.63" r="8.36" fill="#1f77b4" /><circle cx="110.25" cy="158.63" r="8.36" fill="#1f77b4" /><circle cx="128.83" cy="158.63" r="8.36" fill="#1f77b4" /><circle cx="147.41" cy="158.63" r="8.36" fill="#1f77b4" /><circle cx="165.99" cy="158.63" r="8.36" fill="#1f77b4" /><circle cx="184.57" cy="158.63" r="8.36" fill="#1f77b4" /><circle cx="203.15" cy="158.63" r="8.36" fill="#1f77b4" /><circle cx="221.73000000000002" cy="158.63" r="8.36" fill="#1f77b4" /><circle cx="240.31" cy="158.63" r="8.36" fill="#1f77b4" /><circle cx="73.09" cy="177.21" r="8.36" fill="#1f77b4" /><circle cx="91.67" cy="177.21" r="8.36" fill="#1f77b4" /><circle cx="110.25" cy="177.21" r="8.36" fill="#1f77b4" /><circle cx="128.83" cy="177.21" r="8.36" fill="#1f77b4" /><circle cx="147.41" cy="177.21" r="8.36" fill="#1f77b4" /><circle cx="165.99" cy="177.21" r="8.36" fill="#1f77b4" /><circle cx="184.57" cy="177.21" r="8.36" fill="#1f77b4" /><circle cx="203.15" cy="177.21" r="8.36" fill="#1f77b4" /><circle cx="221.73000000000002" cy="177.21" r="8.36" fill="#1f77b4" /><circle cx="240.31" cy="177.21" r="8.36" fill="#1f77b4" /><circle cx="73.09" cy="195.79" r="8.36" fill="#1f77b4" /><circle cx="91.67" cy="195.79" r="8.36" fill="#1f77b4" /><circle cx="110.25" cy="195.79" r="8.36" fill="#1f77b4" /><circle cx="128.83" cy="195.79" r="8.36" fill="#1f77b4" /><circle cx="147.41" cy="195.79" r="8.36" fill="#1f77b4" /><circle cx="165.99" cy="195.79" r="8.36" fill="#1f77b4" /><circle cx="184.57" cy="195.79" r="8.36" fill="#1f77b4" /><circle cx="203.15" cy="195.79" r="8.36" fill="#1f77b4" /><circle cx="221.73000000000002" cy="195.79" r="8.36" fill="#1f77b4" /><circle cx="240.31" cy="195.79" r="8.36" fill="#1f77b4" /><circle cx="73.09" cy="214.37" r="8.36" fill="#1f77b4" /><circle cx="91.67" cy="214.37" r="8.36" fill="#1f77b4" /><circle cx="110.25" cy="214.37" r="8.36" fill="#1f77b4" /><circle cx="128.83" cy="214.37" r="8.36" fill="#1f77b4" /><circle cx="147.41" cy="214.37" r="8.36" fill="#1f77b4" /><circle cx="165.99" cy="214.37" r="8.36" fill="#1f77b4" /><circle cx="184.57" cy="214.37" r="8.36" fill="#1f77b4" /><circle cx="203.15" cy="214.37" r="8.36" fill="#1f77b4" /><circle cx="221.73000000000002" cy="214.37" r="8.36" fill="#aec7e8" /><circle cx="240.31" cy="214.37" r="8.36" fill="#aec7e8" /><circle cx="73.09" cy="232.95000000000002" r="8.36" fill="#aec7e8" /><circle cx="91.67" cy="232.95000000000002" r="8.36" fill="#aec7e8" /><circle cx="110.25" cy="232.95000000000002" r="8.36" fill="#aec7e8" /><circle cx="128.83" cy="232.95000000000002" r="8.36" fill="#aec7e8" /><circle cx="147.41" cy="232.95000000000002" r="8.36" fill="#aec7e8" /><circle cx="165.99" cy="232.95000000000002" r="8.36" fill="#aec7e8" /><circle cx="184.57" cy="232.95000000000002" r="8.36" fill="#aec7e8" /><circle cx="203.15" cy="232.95000000000002" r="8.36" fill="#aec7e8" /><circle cx="221.73000000000002" cy="232.95000000000002" r="8.36" fill="#aec7e8" /><circle cx="240.31" cy="232.95000000000002" r="8.36" fill="#aec7e8" /><circle cx="73.09" cy="251.53" r="8.36" fill="#aec7e8" /><circle cx="91.67" cy="251.53" r="8.36" fill="#aec7e8" /><circle cx="110.25" cy="251.53" r="8.36" fill="#aec7e8" /><circle cx="128.83" cy="251.53" r="8.36" fill="#ff7f0e" /><circle cx="147.41" cy="251.53" r="8.36" fill="#ff7f0e" /><circle cx="165.99" cy="251.53" r="8.36" fill="#ff7f0e" /><circle cx="184.57" cy="251.53" r="8.36" fill="#ff7f0e" /><circle cx="203.15" cy="251.53" r="8.36" fill="#ff7f0e" /><circle cx="221.73000000000002" cy="251.53" r="8.36" fill="#ff7f0e" /><circle cx="240.31" cy="251.53" r="8.36" fill="#ff7f0e" /><circle cx="73.09" cy="270.11" r="8.36" fill="#ff7f0e" /><circle cx="91.67" cy="270.11" r="8.36" fill="#ff7f0e" /><circle cx="110.25" cy="270.11" r="8.36" fill="#ff7f0e" /><circle cx="128.83" cy="270.11" r="8.36" fill="#ff7f0e" /><circle cx="147.41" cy="270.11" r="8.36" fill="#ff7f0e" /><circle cx="165.99" cy="270.11" r="8.36" fill="#ff7f0e" /><circle cx="184.57" cy="270.11" r="8.36" fill="#ff7f0e" /><circle cx="203.15" cy="270.11" r="8.36" fill="#ff7f0e" /><circle cx="221.73000000000002" cy="270.11" r="8.36" fill="#ff7f0e" /><circle cx="240.31" cy="270.11" r="8.36" fill="#ff7f0e" /><rect x="254.6" y="34" width="136" height="74" fill="#ffffff" /><rect x="254.6" y="34" width="136" height="74" fill="none" stroke="#000000" stroke-width="1" /><text x="284.6" y="53.2" font-size="12" text-anchor="start">Vaccinated</text><rect x="264.6" y="43" width="12" height="12" fill="#1f77b4" /><text x="284.6" y="71.2" font-size="12" text-anchor="start">Partial</text><rect x="264.6" y="61" width="12" height="12" fill="#aec7e8" /><text x="284.6" y="89.2" font-size="12" text-anchor="start">Unvaccinated</text><rect x="264.6" y="79" width="12" height="12" fill="#ff7f0e" /></svg>