<svg xmlns="http://www.w3.org/2000/svg" width="400" height="380" font-family="DejaVu Sans, Liberation Sans, Arial, sans-serif" fill="black"><rect width="100%" height="100%" fill="white" /><text x="200" y="27.400000000000002" font-size="18" text-anchor="middle">Population Distribution</text><rect x="64.55" y="112.25" width="13.5" height="13.5" fill="#e377c2" /><rect x="79.55" y="112.25" width="13.5" height="13.5" fill="#e377c2" /><rect x="94.55" y="112.25" width="13.5" height="13.5" fill="#e377c2" /><rect x="109.55" y="112.25" width="13.5" height="13.5" fill="#e377c2" /><rect x="124.55" y="112.25" width="13.5" height="13.5" fill="#e377c2" /><rect x="139.55" y="112.25" width="13.5" height="13.5" fill="#e377c2" /><rect x="154.55" y="112.25" width="13.5" height="13.5" fill="#e377c2" /><rect x="169.55" y="112.25" width="13.5" height="13.5" fill="#e377c2" /><rect x="184.55" y="112.25" width="13.5" height="13.5" fill="#e377c2" /><rect x="199.55" y="112.25" width="13.5" height="13.5" fill="#e377c2" /><rect x="64.55" y="127.25" width="13.5" height="13.5" fill="#e377c2" /><rect x="79.55" y="127.25" width="13.5" height="13.5" fill="#e377c2" /><rect x="94.55" y="127.25" width="13.5" height="13.5" fill="#e377c2" /><rect x="109.55" y="127.25" width="13.5" height="13.5" fill="#e377c2" /><rect x="124.55" y="127.25" width="13.5" height="13.5" fill="#e377c2" /><rect x="139.55" y="127.25" width="13.5" height="13.5" fill="#e377c2" /><rect x="154.55" y="127.25" width="13.5" height="13.5" fill="#e377c2" /><rect x="169.55" y="127.25" width="13.5" height="13.5" fill="#e377c2" /><rect x="184.55" y="127.25" width="13.5" height="13.5" fill="#e377c2" /><rect x="199.55" y="127.25" width="13.5" height="13.5" fill="#e377c2" /><rect x="64.55" y="142.25" width="13.5" height="13.5" fill="#e377c2" /><rect x="79.55" y="142.25" width="13.5" height="13.5" fill="#e377c2" /><rect x="94.55" y="142.25" width="13.5" height="13.5" fill="#e377c2" /><rect x="109.55" y="142.25" width="13.5" height="13.5" fill="#e377c2" /><rect x="124.55" y="142.25" width="13.5" height="13.5" fill="#e377c2" /><rect x="139.55" y="142.25" width="13.5" height="13.5" fill="#e377c2" /><rect x="154.55" y="142.25" width="13.5" height="13.5" fill="#e377c2" /><rect x="169.55" y="142.25" width="13.5" height="13.5" fill="#e377c2" /><rect x="184.55" y="142.25" width="13.5" height="13.5" fill="#e377c2" /><rect x="199.55" y="142.25" width="13.5" height="13.5" fill="#e377c2" /><rect x="64.55" y="157.25" width="13.5" height="13.5" fill="#e377c2" /><rect x="79.55" y="157.25" width="13.5" height="13.5" fill="#e377c2" /><rect x="94.55" y="157.25" width="13.5" height="13.5" fill="#e377c2" /><rect x="109.55" y="157.25" width="13.5" height="13.5" fill="#e377c2" /><rect x="124.55" y="157.25" width="13.5" height="13.5" fill="#e377c2" /><rect x="139.55" y="157.25" width="13.5" height="13.5" fill="#e377c2" /><rect x="154.55" y="157.25" width="13.5" height="13.5" fill="#e377c2" /><rect x="169.55" y="157.25" width="13.5" height="13.5" fill="#e377c2" /><rect x="184.55" y="157.25" width="13.5" height="13.5" fill="#e377c2" /><rect x="199.55" y="157.25" width="13.5" height="13.5" fill="#e377c2" /><rect x="64.55" y="172.25" width="13.5" height="13.5" fill="#e377c2" /><rect x="79.55" y="172.25" width="13.5" height="13.5" fill="#e377c2" /><rect x="94.55" y="172.25" width="13.5" height="13.5" fill="#e377c2" /><rect x="109.55" y="172.25" width="13.5" height="13.5" fill="#e377c2" /><rect x="124.55" y="172.25" width="13.5" height="13.5" fill="#e377c2" /><rect x="139.55" y="172.25" width="13.5" height="13.5" fill="#e377c2" /><rect x="154.55" y="172.25" width="13.5" height="13.5" fill="#e377c2" /><rect x="169.55" y="172.25" width="13.5" height="13.5" fill="#e377c2" /><rect x="184.55" y="172.25" width="13.5" height="13.5" fill="#e377c2" /><rect x="199.55" y="172.25" width="13.5" height="13.5" fill="#e377c2" /><rect x="64.55" y="187.25" width="13.5" height="13.5" fill="#e377c2" /><rect x="79.55" y="187.25" width="13.5" height="13.5" fill="#e377c2" /><rect x="94.55" y="187.25" width="13.5" height="13.5" fill="#e377c2" /><rect x="109.55" y="187.25" width="13.5" height="13.5" fill="#e377c2" /><rect x="124.55" y="187.25" width="13.5" height="13.5" fill="#e377c2" /><rect x="139.55" y="187.25" width="13.5" height="13.5" fill="#e377c2" /><rect x="154.55" y="187.25" width="13.5" height="13.5" fill="#7f7f7f" /><rect x="169.55" y="187.25" width="13.5" height="13.5" fill="#7f7f7f" /><rect x="184.55" y="187.25" width="13.5" height="13.5" fill="#7f7f7f" /><rect x="199.55" y="187.25" width="13.5" height="13.5" fill="#7f7f7f" /><rect x="64.55" y="202.25" width="13.5" height="13.5" fill="#7f7f7f" /><rect x="79.55" y="202.25" width="13.5" height="13.5" fill="#7f7f7f" /><rect x="94.55" y="202.25" width="13.5" height="13.5" fill="#7f7f7f" /><rect x="109.55" y="202.25" width="13.5" height="13.5" fill="#7f7f7f" /><rect x="124.55" y="202.25" width="13.5" height="13.5" fill="#7f7f7f" /><rect x="139.55" y="202.25" width="13.5" height="13.5" fill="#7f7f7f" /><rect x="154.55" y="202.25" width="13.5" height="13.5" fill="#7f7f7f" /><rect x="169.55" y="202.25" width="13.5" height="13.5" fill="#7f7f7f" /><rect x="184.55" y="202.25" width="13.5" height="13.5" fill="#7f7f7f" /><rect x="199.55" y="202.25" width="13.5" height="13.5" fill="#7f7f7f" /><rect x="64.55" y="217.25" width="13.5" height="13.5" fill="#7f7f7f" /><rect x="79.55" y="217.25" width="13.5" height="13.5" fill="#7f7f7f" /><rect x="94.55" y="217.25" width="13.5" height="13.5" fill="#7f7f7f" /><rect x="109.55" y="217.25" width="13.5" height="13.5" fill="#7f7f7f" /><rect x="124.55" y="217.25" width="13.5" height="13.5" fill="#7f7f7f" /><rect x="139.55" y="217.25" width="13.5" height="13.5" fill="#7f7f7f" /><rect x="154.55" y="217.25" width="13.5" height="13.5" fill="#7f7f7f" /><rect x="169.55" y="217.25" width="13.5" height="13.5" fill="#7f7f7f" /><rect x="184.55" y="217.25" width="13.5" height="13.5" fill="#7f7f7f" /><rect x="199.55" y="217.25" width="13.5" height="13.5" fill="#7f7f7f" /><rect x="64.55" y="232.25" width="13.5" height="13.5" fill="#7f7f7f" /><rect x="79.55" y="232.25" width="13.5" height="13.5" fill="#7f7f7f" /><rect x="94.55" y="232.25" width="13.5" height="13.5" fill="#7f7f7f" /><rect x="109.55" y="232.25" width="13.5" height="13.5" fill="#7f7f7f" /><rect x="124.55" y="232.25" width="13.5" height="13.5" fill="#bcbd22" /><rect x="139.55" y="232.25" width="13.5" height="13.5" fill="#bcbd22" /><rect x="154.55" y="232.25" width="13.5" height="13.5" fill="#bcbd22" /><rect x="169.55" y="232.25" width="13.5" height="13.5" fill="#bcbd22" /><rect x="184.55" y="232.25" width="13.5" height="13.5" fill="#bcbd22" /><rect x="199.55" y="232.25" width="13.5" height="13.5" fill="#bcbd22" /><rect x="64.55" y="247.25" width="13.5" height="13.5" fill="#bcbd22" /><rect x="79.55" y="247.25" width="13.5" height="13.5" fill="#bcbd22" /><rect x="94.55" y="247.25" width="13.5" height="13.5" fill="#bcbd22" /><rect x="109.55" y="247.25" width="13.5" height="13.5" fill="#bcbd22" /><rect x="124.55" y="247.25" width="13.5" height="13.5" fill="#bcbd22" /><rect x="139.55" y="247.25" width="13.5" height="13.5" fill="#bcbd22" /><rect x="154.55" y="247.25" width="13.5" height="13.5" fill="#bcbd22" /><rect x="169.55" y="247.25" width="13.5" height="13.5" fill="#bcbd22" /><rect x="184.55" y="247.25" width="13.5" height="13.5" fill="#bcbd22" /><rect x="199.55" y="247.25" width="13.5" height="13.5" fill="#bcbd22" /><text x="138.8" y="277.5" font-size="12" text-anchor="middle" fill="#888888">= 1M people</text><rect x="218.8" y="34" width="192" height="74" fill="#ffffff" /><rect x="218.8" y="34" width="192" height="74" fill="none" stroke="#000000" stroke-width="1" /><text x="248.8" y="53.2" font-size="12" text-anchor="start">Urban (56 cells)</text><rect x="228.8" y="43" width="12" height="12" fill="#e377c2" /><text x="248.8" y="71.2" font-size="12" text-anchor="start">Suburban (28 cells)</text><rect x="228.8" y="61" width="12" height="12" fill="#7f7f7f" /><text x="248.8" y="89.2" font-size="12" text-anchor="start">Rural (16 cells)</text><rect x="228.8" y="79" width="12" height="12" fill="#bcbd22" /></svg>