<svg xmlns="http://www.w3.org/2000/svg" width="560" height="280" font-family="DejaVu Sans, Liberation Sans, Arial, sans-serif" fill="black"><rect width="100%" height="100%" fill="white" /><text x="280" y="27.400000000000002" font-size="18" text-anchor="middle">Test Suite Results</text><rect x="64.8" y="87.28" width="18.080000000000002" height="18.080000000000002" fill="#2ca02c" /><rect x="84.89" y="87.28" width="18.080000000000002" height="18.080000000000002" fill="#2ca02c" /><rect x="104.98" y="87.28" width="18.080000000000002" height="18.080000000000002" fill="#2ca02c" /><rect x="125.07000000000001" y="87.28" width="18.080000000000002" height="18.080000000000002" fill="#2ca02c" /><rect x="145.16" y="87.28" width="18.080000000000002" height="18.080000000000002" fill="#2ca02c" /><rect x="165.25" y="87.28" width="18.080000000000002" height="18.080000000000002" fill="#2ca02c" /><rect x="185.34" y="87.28" width="18.080000000000002" height="18.080000000000002" fill="#2ca02c" /><rect x="205.43" y="87.28" width="18.080000000000002" height="18.080000000000002" fill="#2ca02c" /><rect x="225.52" y="87.28" width="18.080000000000002" height="18.080000000000002" fill="#2ca02c" /><rect x="245.61" y="87.28" width="18.080000000000002" height="18.080000000000002" fill="#2ca02c" /><rect x="265.7" y="87.28" width="18.080000000000002" height="18.080000000000002" fill="#2ca02c" /><rect x="285.79" y="87.28" width="18.080000000000002" height="18.080000000000002" fill="#2ca02c" /><rect x="305.88" y="87.28" width="18.080000000000002" height="18.080000000000002" fill="#2ca02c" /><rect x="325.97" y="87.28" width="18.080000000000002" height="18.080000000000002" fill="#2ca02c" /><rect x="346.06" y="87.28" width="18.080000000000002" height="18.080000000000002" fill="#2ca02c" /><rect x="366.15000000000003" y="87.28" width="18.080000000000002" height="18.080000000000002" fill="#2ca02c" /><rect x="386.24" y="87.28" width="18.080000000000002" height="18.080000000000002" fill="#2ca02c" /><rect x="406.33" y="87.28" width="18.080000000000002" height="18.080000000000002" fill="#2ca02c" /><rect x="426.42" y="87.28" width="18.080000000000002" height="18.080000000000002" fill="#2ca02c" /><rect x="446.51" y="87.28" width="18.080000000000002" height="18.080000000000002" fill="#2ca02c" /><rect x="64.8" y="107.37" width="18.080000000000002" height="18.080000000000002" fill="#2ca02c" /><rect x="84.89" y="107.37" width="18.080000000000002" height="18.080000000000002" fill="#2ca02c" /><rect x="104.98" y="107.37" width="18.080000000000002" height="18.080000000000002" fill="#2ca02c" /><rect x="125.07000000000001" y="107.37" width="18.080000000000002" height="18.080000000000002" fill="#2ca02c" /><rect x="145.16" y="107.37" width="18.080000000000002" height="18.080000000000002" fill="#2ca02c" /><rect x="165.25" y="107.37" width="18.080000000000002" height="18.080000000000002" fill="#2ca02c" /><rect x="185.34" y="107.37" width="18.080000000000002" height="18.080000000000002" fill="#2ca02c" /><rect x="205.43" y="107.37" width="18.080000000000002" height="18.080000000000002" fill="#2ca02c" /><rect x="225.52" y="107.37" width="18.080000000000002" height="18.080000000000002" fill="#2ca02c" /><rect x="245.61" y="107.37" width="18.080000000000002" height="18.080000000000002" fill="#2ca02c" /><rect x="265.7" y="107.37" width="18.080000000000002" height="18.080000000000002" fill="#2ca02c" /><rect x="285.79" y="107.37" width="18.080000000000002" height="18.080000000000002" fill="#2ca02c" /><rect x="305.88" y="107.37" width="18.080000000000002" height="18.080000000000002" fill="#2ca02c" /><rect x="325.97" y="107.37" width="18.080000000000002" height="18.080000000000002" fill="#2ca02c" /><rect x="346.06" y="107.37" width="18.080000000000002" height="18.080000000000002" fill="#2ca02c" /><rect x="366.15000000000003" y="107.37" width="18.080000000000002" height="18.080000000000002" fill="#2ca02c" /><rect x="386.24" y="107.37" width="18.080000000000002" height="18.080000000000002" fill="#2ca02c" /><rect x="406.33" y="107.37" width="18.080000000000002" height="18.080000000000002" fill="#2ca02c" /><rect x="426.42" y="107.37" width="18.080000000000002" height="18.080000000000002" fill="#2ca02c" /><rect x="446.51" y="107.37" width="18.080000000000002" height="18.080000000000002" fill="#2ca02c" /><rect x="64.8" y="127.46000000000001" width="18.080000000000002" height="18.080000000000002" fill="#2ca02c" /><rect x="84.89" y="127.46000000000001" width="18.080000000000002" height="18.080000000000002" fill="#2ca02c" /><rect x="104.98" y="127.46000000000001" width="18.080000000000002" height="18.080000000000002" fill="#2ca02c" /><rect x="125.07000000000001" y="127.46000000000001" width="18.080000000000002" height="18.080000000000002" fill="#2ca02c" /><rect x="145.16" y="127.46000000000001" width="18.080000000000002" height="18.080000000000002" fill="#2ca02c" /><rect x="165.25" y="127.46000000000001" width="18.080000000000002" height="18.080000000000002" fill="#2ca02c" /><rect x="185.34" y="127.46000000000001" width="18.080000000000002" height="18.080000000000002" fill="#2ca02c" /><rect x="205.43" y="127.46000000000001" width="18.080000000000002" height="18.080000000000002" fill="#2ca02c" /><rect x="225.52" y="127.46000000000001" width="18.080000000000002" height="18.080000000000002" fill="#2ca02c" /><rect x="245.61" y="127.46000000000001" width="18.080000000000002" height="18.080000000000002" fill="#2ca02c" /><rect x="265.7" y="127.46000000000001" width="18.080000000000002" height="18.080000000000002" fill="#2ca02c" /><rect x="285.79" y="127.46000000000001" width="18.080000000000002" height="18.080000000000002" fill="#2ca02c" /><rect x="305.88" y="127.46000000000001" width="18.080000000000002" height="18.080000000000002" fill="#2ca02c" /><rect x="325.97" y="127.46000000000001" width="18.080000000000002" height="18.080000000000002" fill="#2ca02c" /><rect x="346.06" y="127.46000000000001" width="18.080000000000002" height="18.080000000000002" fill="#2ca02c" /><rect x="366.15000000000003" y="127.46000000000001" width="18.080000000000002" height="18.080000000000002" fill="#2ca02c" /><rect x="386.24" y="127.46000000000001" width="18.080000000000002" height="18.080000000000002" fill="#2ca02c" /><rect x="406.33" y="127.46000000000001" width="18.080000000000002" height="18.080000000000002" fill="#2ca02c" /><rect x="426.42" y="127.46000000000001" width="18.080000000000002" height="18.080000000000002" fill="#2ca02c" /><rect x="446.51" y="127.46000000000001" width="18.080000000000002" height="18.080000000000002" fill="#2ca02c" /><rect x="64.8" y="147.55" width="18.080000000000002" height="18.080000000000002" fill="#2ca02c" /><rect x="84.89" y="147.55" width="18.080000000000002" height="18.080000000000002" fill="#2ca02c" /><rect x="104.98" y="147.55" width="18.080000000000002" height="18.080000000000002" fill="#2ca02c" /><rect x="125.07000000000001" y="147.55" width="18.080000000000002" height="18.080000000000002" fill="#2ca02c" /><rect x="145.16" y="147.55" width="18.080000000000002" height="18.080000000000002" fill="#2ca02c" /><rect x="165.25" y="147.55" width="18.080000000000002" height="18.080000000000002" fill="#2ca02c" /><rect x="185.34" y="147.55" width="18.080000000000002" height="18.080000000000002" fill="#2ca02c" /><rect x="205.43" y="147.55" width="18.080000000000002" height="18.080000000000002" fill="#2ca02c" /><rect x="225.52" y="147.55" width="18.080000000000002" height="18.080000000000002" fill="#2ca02c" /><rect x="245.61" y="147.55" width="18.080000000000002" height="18.080000000000002" fill="#2ca02c" /><rect x="265.7" y="147.55" width="18.080000000000002" height="18.080000000000002" fill="#2ca02c" /><rect x="285.79" y="147.55" width="18.080000000000002" height="18.080000000000002" fill="#2ca02c" /><rect x="305.88" y="147.55" width="18.080000000000002" height="18.080000000000002" fill="#d62728" /><rect x="325.97" y="147.55" width="18.080000000000002" height="18.080000000000002" fill="#d62728" /><rect x="346.06" y="147.55" width="18.080000000000002" height="18.080000000000002" fill="#d62728" /><rect x="366.15000000000003" y="147.55" width="18.080000000000002" height="18.080000000000002" fill="#d62728" /><rect x="386.24" y="147.55" width="18.080000000000002" height="18.080000000000002" fill="#d62728" /><rect x="406.33" y="147.55" width="18.080000000000002" height="18.080000000000002" fill="#d62728" /><rect x="426.42" y="147.55" width="18.080000000000002" height="18.080000000000002" fill="#d62728" /><rect x="446.51" y="147.55" width="18.080000000000002" height="18.080000000000002" fill="#d62728" /><rect x="64.8" y="167.64000000000001" width="18.080000000000002" height="18.080000000000002" fill="#d62728" /><rect x="84.89" y="167.64000000000001" width="18.080000000000002" height="18.080000000000002" fill="#d62728" /><rect x="104.98" y="167.64000000000001" width="18.080000000000002" height="18.080000000000002" fill="#d62728" /><rect x="125.07000000000001" y="167.64000000000001" width="18.080000000000002" height="18.080000000000002" fill="#d62728" /><rect x="145.16" y="167.64000000000001" width="18.080000000000002" height="18.080000000000002" fill="#d62728" /><rect x="165.25" y="167.64000000000001" width="18.080000000000002" height="18.080000000000002" fill="#d62728" /><rect x="185.34" y="167.64000000000001" width="18.080000000000002" height="18.080000000000002" fill="#d62728" /><rect x="205.43" y="167.64000000000001" width="18.080000000000002" height="18.080000000000002" fill="#d62728" /><rect x="225.52" y="167.64000000000001" width="18.080000000000002" height="18.080000000000002" fill="#d62728" /><rect x="245.61" y="167.64000000000001" width="18.080000000000002" height="18.080000000000002" fill="#d62728" /><rect x="265.7" y="167.64000000000001" width="18.080000000000002" height="18.080000000000002" fill="#aec7e8" /><rect x="285.79" y="167.64000000000001" width="18.080000000000002" height="18.080000000000002" fill="#aec7e8" /><rect x="305.88" y="167.64000000000001" width="18.080000000000002" height="18.080000000000002" fill="#aec7e8" /><rect x="325.97" y="167.64000000000001" width="18.080000000000002" height="18.080000000000002" fill="#aec7e8" /><rect x="346.06" y="167.64000000000001" width="18.080000000000002" height="18.080000000000002" fill="#aec7e8" /><rect x="366.15000000000003" y="167.64000000000001" width="18.080000000000002" height="18.080000000000002" fill="#aec7e8" /><rect x="386.24" y="167.64000000000001" width="18.080000000000002" height="18.080000000000002" fill="#aec7e8" /><rect x="406.33" y="167.64000000000001" width="18.080000000000002" height="18.080000000000002" fill="#aec7e8" /><rect x="426.42" y="167.64000000000001" width="18.080000000000002" height="18.080000000000002" fill="#aec7e8" /><rect x="446.51" y="167.64000000000001" width="18.080000000000002" height="18.080000000000002" fill="#aec7e8" /><rect x="470.6" y="34" width="80" height="74" fill="#ffffff" /><rect x="470.6" y="34" width="80" height="74" fill="none" stroke="#000000" stroke-width="1" /><text x="500.6" y="53.2" font-size="12" text-anchor="start">Pass</text><rect x="480.6" y="43" width="12" height="12" fill="#2ca02c" /><text x="500.6" y="71.2" font-size="12" text-anchor="start">Fail</text><rect x="480.6" y="61" width="12" height="12" fill="#d62728" /><text x="500.6" y="89.2" font-size="12" text-anchor="start">Skip</text><rect x="480.6" y="79" width="12" height="12" fill="#aec7e8" /></svg>