<svg xmlns="http://www.w3.org/2000/svg" width="771.2" height="545" font-family="DejaVu Sans, Liberation Sans, Arial, sans-serif" fill="black"><rect width="100%" height="100%" fill="white" /><line x1="72.2" y1="494" x2="672.2" y2="494" stroke="#000000" stroke-width="1" /><line x1="72.2" y1="44" x2="72.2" y2="494" stroke="#000000" stroke-width="1" /><line x1="172.20000000000002" y1="44" x2="172.20000000000002" y2="494" stroke="#cccccc" stroke-width="1" /><line x1="272.2" y1="44" x2="272.2" y2="494" stroke="#cccccc" stroke-width="1" /><line x1="372.2" y1="44" x2="372.2" y2="494" stroke="#cccccc" stroke-width="1" /><line x1="472.2" y1="44" x2="472.2" y2="494" stroke="#cccccc" stroke-width="1" /><line x1="572.2" y1="44" x2="572.2" y2="494" stroke="#cccccc" stroke-width="1" /><line x1="672.2" y1="44" x2="672.2" y2="494" stroke="#cccccc" stroke-width="1" /><line x1="72.2" y1="419" x2="672.2" y2="419" stroke="#cccccc" stroke-width="1" /><line x1="72.2" y1="344" x2="672.2" y2="344" stroke="#cccccc" stroke-width="1" /><line x1="72.2" y1="269" x2="672.2" y2="269" stroke="#cccccc" stroke-width="1" /><line x1="72.2" y1="194" x2="672.2" y2="194" stroke="#cccccc" stroke-width="1" /><line x1="72.2" y1="119" x2="672.2" y2="119" stroke="#cccccc" stroke-width="1" /><line x1="72.2" y1="44" x2="672.2" y2="44" stroke="#cccccc" stroke-width="1" /><line x1="72.2" y1="494" x2="72.2" y2="499" stroke="#000000" stroke-width="1" /><text x="72.2" y="511" font-size="12" text-anchor="middle">0</text><line x1="172.20000000000002" y1="494" x2="172.20000000000002" y2="499" stroke="#000000" stroke-width="1" /><text x="172.20000000000002" y="511" font-size="12" text-anchor="middle">5</text><line x1="272.2" y1="494" x2="272.2" y2="499" stroke="#000000" stroke-width="1" /><text x="272.2" y="511" font-size="12" text-anchor="middle">10</text><line x1="372.2" y1="494" x2="372.2" y2="499" stroke="#000000" stroke-width="1" /><text x="372.2" y="511" font-size="12" text-anchor="middle">15</text><line x1="472.2" y1="494" x2="472.2" y2="499" stroke="#000000" stroke-width="1" /><text x="472.2" y="511" font-size="12" text-anchor="middle">20</text><line x1="572.2" y1="494" x2="572.2" y2="499" stroke="#000000" stroke-width="1" /><text x="572.2" y="511" font-size="12" text-anchor="middle">25</text><line x1="672.2" y1="494" x2="672.2" y2="499" stroke="#000000" stroke-width="1" /><text x="672.2" y="511" font-size="12" text-anchor="middle">30</text><line x1="67.2" y1="494" x2="72.2" y2="494" stroke="#000000" stroke-width="1" /><text x="64.2" y="498.2" font-size="12" text-anchor="end">0</text><line x1="67.2" y1="419" x2="72.2" y2="419" stroke="#000000" stroke-width="1" /><text x="64.2" y="423.2" font-size="12" text-anchor="end">5</text><line x1="67.2" y1="344" x2="72.2" y2="344" stroke="#000000" stroke-width="1" /><text x="64.2" y="348.2" font-size="12" text-anchor="end">10</text><line x1="67.2" y1="269" x2="72.2" y2="269" stroke="#000000" stroke-width="1" /><text x="64.2" y="273.2" font-size="12" text-anchor="end">15</text><line x1="67.2" y1="194" x2="72.2" y2="194" stroke="#000000" stroke-width="1" /><text x="64.2" y="198.20000000000002" font-size="12" text-anchor="end">20</text><line x1="67.2" y1="119" x2="72.2" y2="119" stroke="#000000" stroke-width="1" /><text x="64.2" y="123.2" font-size="12" text-anchor="end">25</text><line x1="67.2" y1="44" x2="72.2" y2="44" stroke="#000000" stroke-width="1" /><text x="64.2" y="48.2" font-size="12" text-anchor="end">30</text><text x="372.2" y="538" font-size="14" text-anchor="middle">X</text><text x="7" y="272.5" font-size="14" text-anchor="middle" transform="rotate(-90,7,272.5)">Y</text><text x="372.2" y="22" font-size="18" text-anchor="middle">2D Histogram — Viridis</text><rect x="392.2" y="434" width="20" height="15" fill="#450458" /><rect x="312.2" y="419" width="20" height="15" fill="#450458" /><rect x="372.2" y="419" width="20" height="15" fill="#450458" /><rect x="412.2" y="419" width="20" height="15" fill="#450458" /><rect x="352.2" y="404" width="20" height="15" fill="#450458" /><rect x="372.2" y="404" width="20" height="15" fill="#450458" /><rect x="412.2" y="404" width="20" height="15" fill="#450458" /><rect x="252.20000000000002" y="389" width="20" height="15" fill="#450458" /><rect x="332.2" y="389" width="20" height="15" fill="#460d60" /><rect x="352.2" y="389" width="20" height="15" fill="#45085c" /><rect x="372.2" y="389" width="20" height="15" fill="#471063" /><rect x="392.2" y="389" width="20" height="15" fill="#45085c" /><rect x="412.2" y="389" width="20" height="15" fill="#450458" /><rect x="452.2" y="389" width="20" height="15" fill="#450458" /><rect x="492.2" y="389" width="20" height="15" fill="#450458" /><rect x="252.20000000000002" y="374" width="20" height="15" fill="#450458" /><rect x="272.2" y="374" width="20" height="15" fill="#45085c" /><rect x="312.2" y="374" width="20" height="15" fill="#450458" /><rect x="332.2" y="374" width="20" height="15" fill="#471063" /><rect x="352.2" y="374" width="20" height="15" fill="#460d60" /><rect x="372.2" y="374" width="20" height="15" fill="#460d60" /><rect x="392.2" y="374" width="20" height="15" fill="#48186a" /><rect x="432.2" y="374" width="20" height="15" fill="#45085c" /><rect x="452.2" y="374" width="20" height="15" fill="#450458" /><rect x="472.2" y="374" width="20" height="15" fill="#450458" /><rect x="532.2" y="374" width="20" height="15" fill="#450458" /><rect x="212.20000000000002" y="359" width="20" height="15" fill="#450458" /><rect x="232.20000000000002" y="359" width="20" height="15" fill="#450458" /><rect x="252.20000000000002" y="359" width="20" height="15" fill="#45085c" /><rect x="272.2" y="359" width="20" height="15" fill="#460d60" /><rect x="292.2" y="359" width="20" height="15" fill="#48186a" /><rect x="312.2" y="359" width="20" height="15" fill="#471b6d" /><rect x="332.2" y="359" width="20" height="15" fill="#48186a" /><rect x="352.2" y="359" width="20" height="15" fill="#48186a" /><rect x="372.2" y="359" width="20" height="15" fill="#472979" /><rect x="392.2" y="359" width="20" height="15" fill="#482677" /><rect x="412.2" y="359" width="20" height="15" fill="#472979" /><rect x="432.2" y="359" width="20" height="15" fill="#48186a" /><rect x="472.2" y="359" width="20" height="15" fill="#450458" /><rect x="252.20000000000002" y="344" width="20" height="15" fill="#450458" /><rect x="272.2" y="344" width="20" height="15" fill="#460d60" /><rect x="292.2" y="344" width="20" height="15" fill="#471b6d" /><rect x="312.2" y="344" width="20" height="15" fill="#481f70" /><rect x="332.2" y="344" width="20" height="15" fill="#404487" /><rect x="352.2" y="344" width="20" height="15" fill="#423e84" /><rect x="372.2" y="344" width="20" height="15" fill="#45337f" /><rect x="392.2" y="344" width="20" height="15" fill="#423e84" /><rect x="412.2" y="344" width="20" height="15" fill="#423e84" /><rect x="432.2" y="344" width="20" height="15" fill="#482374" /><rect x="452.2" y="344" width="20" height="15" fill="#471b6d" /><rect x="472.2" y="344" width="20" height="15" fill="#45085c" /><rect x="492.2" y="344" width="20" height="15" fill="#450458" /><rect x="512.2" y="344" width="20" height="15" fill="#45085c" /><rect x="172.20000000000002" y="329" width="20" height="15" fill="#45085c" /><rect x="212.20000000000002" y="329" width="20" height="15" fill="#450458" /><rect x="232.20000000000002" y="329" width="20" height="15" fill="#471063" /><rect x="252.20000000000002" y="329" width="20" height="15" fill="#48186a" /><rect x="272.2" y="329" width="20" height="15" fill="#471567" /><rect x="292.2" y="329" width="20" height="15" fill="#423e84" /><rect x="312.2" y="329" width="20" height="15" fill="#3f4788" /><rect x="332.2" y="329" width="20" height="15" fill="#345e8d" /><rect x="352.2" y="329" width="20" height="15" fill="#30678e" /><rect x="372.2" y="329" width="20" height="15" fill="#3c4d8a" /><rect x="392.2" y="329" width="20" height="15" fill="#37598c" /><rect x="412.2" y="329" width="20" height="15" fill="#443781" /><rect x="432.2" y="329" width="20" height="15" fill="#482677" /><rect x="452.2" y="329" width="20" height="15" fill="#482374" /><rect x="472.2" y="329" width="20" height="15" fill="#471b6d" /><rect x="492.2" y="329" width="20" height="15" fill="#460d60" /><rect x="512.2" y="329" width="20" height="15" fill="#460d60" /><rect x="532.2" y="329" width="20" height="15" fill="#450458" /><rect x="212.20000000000002" y="314" width="20" height="15" fill="#450458" /><rect x="232.20000000000002" y="314" width="20" height="15" fill="#45085c" /><rect x="252.20000000000002" y="314" width="20" height="15" fill="#482677" /><rect x="272.2" y="314" width="20" height="15" fill="#404487" /><rect x="292.2" y="314" width="20" height="15" fill="#46307d" /><rect x="312.2" y="314" width="20" height="15" fill="#2c718d" /><rect x="332.2" y="314" width="20" height="15" fill="#1f978a" /><rect x="352.2" y="314" width="20" height="15" fill="#1fa187" /><rect x="372.2" y="314" width="20" height="15" fill="#29798e" /><rect x="392.2" y="314" width="20" height="15" fill="#30678e" /><rect x="412.2" y="314" width="20" height="15" fill="#3a538b" /><rect x="432.2" y="314" width="20" height="15" fill="#3a538b" /><rect x="452.2" y="314" width="20" height="15" fill="#471b6d" /><rect x="472.2" y="314" width="20" height="15" fill="#48186a" /><rect x="492.2" y="314" width="20" height="15" fill="#471567" /><rect x="512.2" y="314" width="20" height="15" fill="#45085c" /><rect x="532.2" y="314" width="20" height="15" fill="#45085c" /><rect x="552.2" y="314" width="20" height="15" fill="#450458" /><rect x="192.20000000000002" y="299" width="20" height="15" fill="#460d60" /><rect x="212.20000000000002" y="299" width="20" height="15" fill="#471567" /><rect x="232.20000000000002" y="299" width="20" height="15" fill="#471063" /><rect x="252.20000000000002" y="299" width="20" height="15" fill="#471b6d" /><rect x="272.2" y="299" width="20" height="15" fill="#433a83" /><rect x="292.2" y="299" width="20" height="15" fill="#2f698e" /><rect x="312.2" y="299" width="20" height="15" fill="#1f978a" /><rect x="332.2" y="299" width="20" height="15" fill="#54c567" /><rect x="352.2" y="299" width="20" height="15" fill="#85d449" /><rect x="372.2" y="299" width="20" height="15" fill="#1f948b" /><rect x="392.2" y="299" width="20" height="15" fill="#20a485" /><rect x="412.2" y="299" width="20" height="15" fill="#1f948b" /><rect x="432.2" y="299" width="20" height="15" fill="#2a768e" /><rect x="452.2" y="299" width="20" height="15" fill="#404487" /><rect x="472.2" y="299" width="20" height="15" fill="#471567" /><rect x="492.2" y="299" width="20" height="15" fill="#471063" /><rect x="512.2" y="299" width="20" height="15" fill="#450458" /><rect x="532.2" y="299" width="20" height="15" fill="#450458" /><rect x="552.2" y="299" width="20" height="15" fill="#450458" /><rect x="192.20000000000002" y="284" width="20" height="15" fill="#45085c" /><rect x="212.20000000000002" y="284" width="20" height="15" fill="#460d60" /><rect x="232.20000000000002" y="284" width="20" height="15" fill="#460d60" /><rect x="252.20000000000002" y="284" width="20" height="15" fill="#472979" /><rect x="272.2" y="284" width="20" height="15" fill="#37598c" /><rect x="292.2" y="284" width="20" height="15" fill="#32648d" /><rect x="312.2" y="284" width="20" height="15" fill="#1fa187" /><rect x="332.2" y="284" width="20" height="15" fill="#44bf6f" /><rect x="352.2" y="284" width="20" height="15" fill="#65cb5d" /><rect x="372.2" y="284" width="20" height="15" fill="#9ad83c" /><rect x="392.2" y="284" width="20" height="15" fill="#23a982" /><rect x="412.2" y="284" width="20" height="15" fill="#3aba75" /><rect x="432.2" y="284" width="20" height="15" fill="#29798e" /><rect x="452.2" y="284" width="20" height="15" fill="#33618d" /><rect x="472.2" y="284" width="20" height="15" fill="#3f4788" /><rect x="492.2" y="284" width="20" height="15" fill="#481f70" /><rect x="532.2" y="284" width="20" height="15" fill="#450458" /><rect x="572.2" y="284" width="20" height="15" fill="#450458" /><rect x="192.20000000000002" y="269" width="20" height="15" fill="#460d60" /><rect x="232.20000000000002" y="269" width="20" height="15" fill="#462d7b" /><rect x="252.20000000000002" y="269" width="20" height="15" fill="#482677" /><rect x="272.2" y="269" width="20" height="15" fill="#3a538b" /><rect x="292.2" y="269" width="20" height="15" fill="#25828e" /><rect x="312.2" y="269" width="20" height="15" fill="#44bf6f" /><rect x="332.2" y="269" width="20" height="15" fill="#bede25" /><rect x="352.2" y="269" width="20" height="15" fill="#a1da37" /><rect x="372.2" y="269" width="20" height="15" fill="#f6e620" /><rect x="392.2" y="269" width="20" height="15" fill="#9ad83c" /><rect x="412.2" y="269" width="20" height="15" fill="#20a485" /><rect x="432.2" y="269" width="20" height="15" fill="#2a768e" /><rect x="452.2" y="269" width="20" height="15" fill="#30678e" /><rect x="472.2" y="269" width="20" height="15" fill="#443781" /><rect x="492.2" y="269" width="20" height="15" fill="#471567" /><rect x="512.2" y="269" width="20" height="15" fill="#45085c" /><rect x="532.2" y="269" width="20" height="15" fill="#45085c" /><rect x="192.20000000000002" y="254" width="20" height="15" fill="#450458" /><rect x="212.20000000000002" y="254" width="20" height="15" fill="#45085c" /><rect x="232.20000000000002" y="254" width="20" height="15" fill="#471b6d" /><rect x="252.20000000000002" y="254" width="20" height="15" fill="#3b508a" /><rect x="272.2" y="254" width="20" height="15" fill="#3b508a" /><rect x="292.2" y="254" width="20" height="15" fill="#1f928c" /><rect x="312.2" y="254" width="20" height="15" fill="#44bf6f" /><rect x="332.2" y="254" width="20" height="15" fill="#85d449" /><rect x="352.2" y="254" width="20" height="15" fill="#54c567" /><rect x="372.2" y="254" width="20" height="15" fill="#fde725" /><rect x="392.2" y="254" width="20" height="15" fill="#a1da37" /><rect x="412.2" y="254" width="20" height="15" fill="#2eb37c" /><rect x="432.2" y="254" width="20" height="15" fill="#277e8e" /><rect x="452.2" y="254" width="20" height="15" fill="#38558b" /><rect x="472.2" y="254" width="20" height="15" fill="#414086" /><rect x="492.2" y="254" width="20" height="15" fill="#462d7b" /><rect x="512.2" y="254" width="20" height="15" fill="#460d60" /><rect x="532.2" y="254" width="20" height="15" fill="#450458" /><rect x="552.2" y="254" width="20" height="15" fill="#450458" /><rect x="592.2" y="254" width="20" height="15" fill="#450458" /><rect x="112.2" y="239" width="20" height="15" fill="#450458" /><rect x="192.20000000000002" y="239" width="20" height="15" fill="#450458" /><rect x="212.20000000000002" y="239" width="20" height="15" fill="#471063" /><rect x="232.20000000000002" y="239" width="20" height="15" fill="#482374" /><rect x="252.20000000000002" y="239" width="20" height="15" fill="#482374" /><rect x="272.2" y="239" width="20" height="15" fill="#30678e" /><rect x="292.2" y="239" width="20" height="15" fill="#1f948b" /><rect x="312.2" y="239" width="20" height="15" fill="#1f978a" /><rect x="332.2" y="239" width="20" height="15" fill="#36b778" /><rect x="352.2" y="239" width="20" height="15" fill="#dbe218" /><rect x="372.2" y="239" width="20" height="15" fill="#36b778" /><rect x="392.2" y="239" width="20" height="15" fill="#54c567" /><rect x="412.2" y="239" width="20" height="15" fill="#32b579" /><rect x="432.2" y="239" width="20" height="15" fill="#1e9d88" /><rect x="452.2" y="239" width="20" height="15" fill="#38558b" /><rect x="472.2" y="239" width="20" height="15" fill="#3f4788" /><rect x="492.2" y="239" width="20" height="15" fill="#471b6d" /><rect x="512.2" y="239" width="20" height="15" fill="#460d60" /><rect x="532.2" y="239" width="20" height="15" fill="#450458" /><rect x="552.2" y="239" width="20" height="15" fill="#450458" /><rect x="192.20000000000002" y="224" width="20" height="15" fill="#450458" /><rect x="212.20000000000002" y="224" width="20" height="15" fill="#460d60" /><rect x="232.20000000000002" y="224" width="20" height="15" fill="#471063" /><rect x="252.20000000000002" y="224" width="20" height="15" fill="#462d7b" /><rect x="272.2" y="224" width="20" height="15" fill="#414086" /><rect x="292.2" y="224" width="20" height="15" fill="#2d6f8e" /><rect x="312.2" y="224" width="20" height="15" fill="#277e8e" /><rect x="332.2" y="224" width="20" height="15" fill="#24858e" /><rect x="352.2" y="224" width="20" height="15" fill="#3fbc72" /><rect x="372.2" y="224" width="20" height="15" fill="#78d052" /><rect x="392.2" y="224" width="20" height="15" fill="#228b8d" /><rect x="412.2" y="224" width="20" height="15" fill="#28ae7f" /><rect x="432.2" y="224" width="20" height="15" fill="#32648d" /><rect x="452.2" y="224" width="20" height="15" fill="#345e8d" /><rect x="472.2" y="224" width="20" height="15" fill="#481f70" /><rect x="492.2" y="224" width="20" height="15" fill="#471063" /><rect x="512.2" y="224" width="20" height="15" fill="#460d60" /><rect x="532.2" y="224" width="20" height="15" fill="#460d60" /><rect x="552.2" y="224" width="20" height="15" fill="#450458" /><rect x="192.20000000000002" y="209" width="20" height="15" fill="#450458" /><rect x="212.20000000000002" y="209" width="20" height="15" fill="#450458" /><rect x="232.20000000000002" y="209" width="20" height="15" fill="#471567" /><rect x="252.20000000000002" y="209" width="20" height="15" fill="#481f70" /><rect x="272.2" y="209" width="20" height="15" fill="#472979" /><rect x="292.2" y="209" width="20" height="15" fill="#3c4d8a" /><rect x="312.2" y="209" width="20" height="15" fill="#3a538b" /><rect x="332.2" y="209" width="20" height="15" fill="#25828e" /><rect x="352.2" y="209" width="20" height="15" fill="#1f948b" /><rect x="372.2" y="209" width="20" height="15" fill="#24858e" /><rect x="392.2" y="209" width="20" height="15" fill="#345e8d" /><rect x="412.2" y="209" width="20" height="15" fill="#33618d" /><rect x="432.2" y="209" width="20" height="15" fill="#37598c" /><rect x="452.2" y="209" width="20" height="15" fill="#46307d" /><rect x="472.2" y="209" width="20" height="15" fill="#482374" /><rect x="492.2" y="209" width="20" height="15" fill="#460d60" /><rect x="512.2" y="209" width="20" height="15" fill="#45085c" /><rect x="552.2" y="209" width="20" height="15" fill="#45085c" /><rect x="232.20000000000002" y="194" width="20" height="15" fill="#450458" /><rect x="252.20000000000002" y="194" width="20" height="15" fill="#471b6d" /><rect x="272.2" y="194" width="20" height="15" fill="#481f70" /><rect x="292.2" y="194" width="20" height="15" fill="#414086" /><rect x="312.2" y="194" width="20" height="15" fill="#3b508a" /><rect x="332.2" y="194" width="20" height="15" fill="#3a538b" /><rect x="352.2" y="194" width="20" height="15" fill="#37598c" /><rect x="372.2" y="194" width="20" height="15" fill="#3a538b" /><rect x="392.2" y="194" width="20" height="15" fill="#3a538b" /><rect x="412.2" y="194" width="20" height="15" fill="#404487" /><rect x="432.2" y="194" width="20" height="15" fill="#3f4788" /><rect x="452.2" y="194" width="20" height="15" fill="#48186a" /><rect x="472.2" y="194" width="20" height="15" fill="#460d60" /><rect x="492.2" y="194" width="20" height="15" fill="#471567" /><rect x="512.2" y="194" width="20" height="15" fill="#471063" /><rect x="212.20000000000002" y="179" width="20" height="15" fill="#45085c" /><rect x="232.20000000000002" y="179" width="20" height="15" fill="#450458" /><rect x="252.20000000000002" y="179" width="20" height="15" fill="#460d60" /><rect x="272.2" y="179" width="20" height="15" fill="#481f70" /><rect x="292.2" y="179" width="20" height="15" fill="#471b6d" /><rect x="312.2" y="179" width="20" height="15" fill="#46307d" /><rect x="332.2" y="179" width="20" height="15" fill="#433a83" /><rect x="352.2" y="179" width="20" height="15" fill="#423e84" /><rect x="372.2" y="179" width="20" height="15" fill="#3f4788" /><rect x="392.2" y="179" width="20" height="15" fill="#3f4788" /><rect x="412.2" y="179" width="20" height="15" fill="#481f70" /><rect x="432.2" y="179" width="20" height="15" fill="#414086" /><rect x="452.2" y="179" width="20" height="15" fill="#460d60" /><rect x="472.2" y="179" width="20" height="15" fill="#450458" /><rect x="512.2" y="179" width="20" height="15" fill="#450458" /><rect x="232.20000000000002" y="164" width="20" height="15" fill="#450458" /><rect x="252.20000000000002" y="164" width="20" height="15" fill="#45085c" /><rect x="272.2" y="164" width="20" height="15" fill="#471567" /><rect x="292.2" y="164" width="20" height="15" fill="#481f70" /><rect x="312.2" y="164" width="20" height="15" fill="#48186a" /><rect x="332.2" y="164" width="20" height="15" fill="#482677" /><rect x="352.2" y="164" width="20" height="15" fill="#45337f" /><rect x="372.2" y="164" width="20" height="15" fill="#471567" /><rect x="392.2" y="164" width="20" height="15" fill="#471567" /><rect x="412.2" y="164" width="20" height="15" fill="#471b6d" /><rect x="432.2" y="164" width="20" height="15" fill="#471567" /><rect x="452.2" y="164" width="20" height="15" fill="#450458" /><rect x="572.2" y="164" width="20" height="15" fill="#450458" /><rect x="252.20000000000002" y="149" width="20" height="15" fill="#450458" /><rect x="272.2" y="149" width="20" height="15" fill="#460d60" /><rect x="292.2" y="149" width="20" height="15" fill="#45085c" /><rect x="312.2" y="149" width="20" height="15" fill="#45085c" /><rect x="332.2" y="149" width="20" height="15" fill="#45085c" /><rect x="352.2" y="149" width="20" height="15" fill="#460d60" /><rect x="372.2" y="149" width="20" height="15" fill="#471567" /><rect x="392.2" y="149" width="20" height="15" fill="#481f70" /><rect x="412.2" y="149" width="20" height="15" fill="#460d60" /><rect x="432.2" y="149" width="20" height="15" fill="#45085c" /><rect x="452.2" y="149" width="20" height="15" fill="#450458" /><rect x="472.2" y="149" width="20" height="15" fill="#45085c" /><rect x="492.2" y="149" width="20" height="15" fill="#450458" /><rect x="252.20000000000002" y="134" width="20" height="15" fill="#450458" /><rect x="312.2" y="134" width="20" height="15" fill="#450458" /><rect x="332.2" y="134" width="20" height="15" fill="#45085c" /><rect x="352.2" y="134" width="20" height="15" fill="#460d60" /><rect x="372.2" y="134" width="20" height="15" fill="#450458" /><rect x="412.2" y="134" width="20" height="15" fill="#450458" /><rect x="432.2" y="134" width="20" height="15" fill="#450458" /><rect x="452.2" y="134" width="20" height="15" fill="#45085c" /><rect x="472.2" y="134" width="20" height="15" fill="#45085c" /><rect x="312.2" y="119" width="20" height="15" fill="#450458" /><rect x="372.2" y="119" width="20" height="15" fill="#45085c" /><rect x="392.2" y="119" width="20" height="15" fill="#450458" /><rect x="412.2" y="119" width="20" height="15" fill="#450458" /><rect x="332.2" y="104" width="20" height="15" fill="#450458" /><rect x="432.2" y="104" width="20" height="15" fill="#450458" /><rect x="701.2" y="89" width="20" height="7.7" fill="#fde725" /><rect x="701.2" y="96.2" width="20" height="7.7" fill="#f0e51c" /><rect x="701.2" y="103.4" width="20" height="7.7" fill="#e3e318" /><rect x="701.2" y="110.60000000000001" width="20" height="7.7" fill="#d6e219" /><rect x="701.2" y="117.8" width="20" height="7.7" fill="#c8e01f" /><rect x="701.2" y="125" width="20" height="7.7" fill="#bade27" /><rect x="701.2" y="132.2" width="20" height="7.7" fill="#acdc30" /><rect x="701.2" y="139.4" width="20" height="7.7" fill="#9ed939" /><rect x="701.2" y="146.6" width="20" height="7.7" fill="#91d642" /><rect x="701.2" y="153.8" width="20" height="7.7" fill="#84d44a" /><rect x="701.2" y="161" width="20" height="7.7" fill="#77d052" /><rect x="701.2" y="168.20000000000002" width="20" height="7.7" fill="#6bcd5a" /><rect x="701.2" y="175.4" width="20" height="7.7" fill="#5fc960" /><rect x="701.2" y="182.6" width="20" height="7.7" fill="#54c567" /><rect x="701.2" y="189.8" width="20" height="7.7" fill="#4ac16c" /><rect x="701.2" y="197" width="20" height="7.7" fill="#40bc72" /><rect x="701.2" y="204.20000000000002" width="20" height="7.7" fill="#37b877" /><rect x="701.2" y="211.4" width="20" height="7.7" fill="#30b47b" /><rect x="701.2" y="218.6" width="20" height="7.7" fill="#29af7f" /><rect x="701.2" y="225.8" width="20" height="7.7" fill="#24ab82" /><rect x="701.2" y="233" width="20" height="7.7" fill="#21a585" /><rect x="701.2" y="240.20000000000002" width="20" height="7.7" fill="#1fa187" /><rect x="701.2" y="247.4" width="20" height="7.7" fill="#1e9c89" /><rect x="701.2" y="254.6" width="20" height="7.7" fill="#1f978a" /><rect x="701.2" y="261.8" width="20" height="7.7" fill="#1f928c" /><rect x="701.2" y="269" width="20" height="7.7" fill="#218d8d" /><rect x="701.2" y="276.2" width="20" height="7.7" fill="#23888d" /><rect x="701.2" y="283.40000000000003" width="20" height="7.7" fill="#25838e" /><rect x="701.2" y="290.6" width="20" height="7.7" fill="#267f8d" /><rect x="701.2" y="297.8" width="20" height="7.7" fill="#287a8e" /><rect x="701.2" y="305" width="20" height="7.7" fill="#2a748d" /><rect x="701.2" y="312.2" width="20" height="7.7" fill="#2c708e" /><rect x="701.2" y="319.40000000000003" width="20" height="7.7" fill="#2f6b8e" /><rect x="701.2" y="326.6" width="20" height="7.7" fill="#31668e" /><rect x="701.2" y="333.8" width="20" height="7.7" fill="#33618c" /><rect x="701.2" y="341" width="20" height="7.7" fill="#365b8c" /><rect x="701.2" y="348.2" width="20" height="7.7" fill="#38558c" /><rect x="701.2" y="355.40000000000003" width="20" height="7.7" fill="#3b508a" /><rect x="701.2" y="362.6" width="20" height="7.7" fill="#3d4a89" /><rect x="701.2" y="369.8" width="20" height="7.7" fill="#404587" /><rect x="701.2" y="377" width="20" height="7.7" fill="#423e85" /><rect x="701.2" y="384.2" width="20" height="7.7" fill="#443882" /><rect x="701.2" y="391.40000000000003" width="20" height="7.7" fill="#46327e" /><rect x="701.2" y="398.6" width="20" height="7.7" fill="#472c7a" /><rect x="701.2" y="405.8" width="20" height="7.7" fill="#482576" /><rect x="701.2" y="413" width="20" height="7.7" fill="#471e6f" /><rect x="701.2" y="420.2" width="20" height="7.7" fill="#481769" /><rect x="701.2" y="427.40000000000003" width="20" height="7.7" fill="#471063" /><rect x="701.2" y="434.6" width="20" height="7.7" fill="#46085c" /><rect x="701.2" y="441.8" width="20" height="7.7" fill="#440154" /><rect x="701.2" y="89" width="20" height="360" fill="none" stroke="#000000" stroke-width="1" /><line x1="721.2" y1="449" x2="725.2" y2="449" stroke="#000000" stroke-width="1" /><text x="727.2" y="453" font-size="12" text-anchor="start">0.0</text><line x1="721.2" y1="372.40000000000003" x2="725.2" y2="372.40000000000003" stroke="#000000" stroke-width="1" /><text x="727.2" y="376.40000000000003" font-size="12" text-anchor="start">20.0</text><line x1="721.2" y1="295.81" x2="725.2" y2="295.81" stroke="#000000" stroke-width="1" /><text x="727.2" y="299.81" font-size="12" text-anchor="start">40.0</text><line x1="721.2" y1="219.21" x2="725.2" y2="219.21" stroke="#000000" stroke-width="1" /><text x="727.2" y="223.21" font-size="12" text-anchor="start">60.0</text><line x1="721.2" y1="142.62" x2="725.2" y2="142.62" stroke="#000000" stroke-width="1" /><text x="727.2" y="146.62" font-size="12" text-anchor="start">80.0</text><text x="711.2" y="83" font-size="12" text-anchor="middle">Count</text></svg>