<svg xmlns="http://www.w3.org/2000/svg" width="771.2" height="545" font-family="DejaVu Sans, Liberation Sans, Arial, sans-serif" fill="black"><rect width="100%" height="100%" fill="white" /><line x1="72.2" y1="494" x2="672.2" y2="494" stroke="#000000" stroke-width="1" /><line x1="72.2" y1="44" x2="72.2" y2="494" stroke="#000000" stroke-width="1" /><line x1="172.20000000000002" y1="44" x2="172.20000000000002" y2="494" stroke="#cccccc" stroke-width="1" /><line x1="272.2" y1="44" x2="272.2" y2="494" stroke="#cccccc" stroke-width="1" /><line x1="372.2" y1="44" x2="372.2" y2="494" stroke="#cccccc" stroke-width="1" /><line x1="472.2" y1="44" x2="472.2" y2="494" stroke="#cccccc" stroke-width="1" /><line x1="572.2" y1="44" x2="572.2" y2="494" stroke="#cccccc" stroke-width="1" /><line x1="672.2" y1="44" x2="672.2" y2="494" stroke="#cccccc" stroke-width="1" /><line x1="72.2" y1="419" x2="672.2" y2="419" stroke="#cccccc" stroke-width="1" /><line x1="72.2" y1="344" x2="672.2" y2="344" stroke="#cccccc" stroke-width="1" /><line x1="72.2" y1="269" x2="672.2" y2="269" stroke="#cccccc" stroke-width="1" /><line x1="72.2" y1="194" x2="672.2" y2="194" stroke="#cccccc" stroke-width="1" /><line x1="72.2" y1="119" x2="672.2" y2="119" stroke="#cccccc" stroke-width="1" /><line x1="72.2" y1="44" x2="672.2" y2="44" stroke="#cccccc" stroke-width="1" /><line x1="72.2" y1="494" x2="72.2" y2="499" stroke="#000000" stroke-width="1" /><text x="72.2" y="511" font-size="12" text-anchor="middle">0</text><line x1="172.20000000000002" y1="494" x2="172.20000000000002" y2="499" stroke="#000000" stroke-width="1" /><text x="172.20000000000002" y="511" font-size="12" text-anchor="middle">5</text><line x1="272.2" y1="494" x2="272.2" y2="499" stroke="#000000" stroke-width="1" /><text x="272.2" y="511" font-size="12" text-anchor="middle">10</text><line x1="372.2" y1="494" x2="372.2" y2="499" stroke="#000000" stroke-width="1" /><text x="372.2" y="511" font-size="12" text-anchor="middle">15</text><line x1="472.2" y1="494" x2="472.2" y2="499" stroke="#000000" stroke-width="1" /><text x="472.2" y="511" font-size="12" text-anchor="middle">20</text><line x1="572.2" y1="494" x2="572.2" y2="499" stroke="#000000" stroke-width="1" /><text x="572.2" y="511" font-size="12" text-anchor="middle">25</text><line x1="672.2" y1="494" x2="672.2" y2="499" stroke="#000000" stroke-width="1" /><text x="672.2" y="511" font-size="12" text-anchor="middle">30</text><line x1="67.2" y1="494" x2="72.2" y2="494" stroke="#000000" stroke-width="1" /><text x="64.2" y="498.2" font-size="12" text-anchor="end">0</text><line x1="67.2" y1="419" x2="72.2" y2="419" stroke="#000000" stroke-width="1" /><text x="64.2" y="423.2" font-size="12" text-anchor="end">5</text><line x1="67.2" y1="344" x2="72.2" y2="344" stroke="#000000" stroke-width="1" /><text x="64.2" y="348.2" font-size="12" text-anchor="end">10</text><line x1="67.2" y1="269" x2="72.2" y2="269" stroke="#000000" stroke-width="1" /><text x="64.2" y="273.2" font-size="12" text-anchor="end">15</text><line x1="67.2" y1="194" x2="72.2" y2="194" stroke="#000000" stroke-width="1" /><text x="64.2" y="198.20000000000002" font-size="12" text-anchor="end">20</text><line x1="67.2" y1="119" x2="72.2" y2="119" stroke="#000000" stroke-width="1" /><text x="64.2" y="123.2" font-size="12" text-anchor="end">25</text><line x1="67.2" y1="44" x2="72.2" y2="44" stroke="#000000" stroke-width="1" /><text x="64.2" y="48.2" font-size="12" text-anchor="end">30</text><text x="372.2" y="538" font-size="14" text-anchor="middle">X</text><text x="7" y="272.5" font-size="14" text-anchor="middle" transform="rotate(-90,7,272.5)">Y</text><text x="372.2" y="22" font-size="18" text-anchor="middle">Bimodal — Inferno</text><rect x="292.2" y="479" width="20" height="15" fill="#000005" /><rect x="132.2" y="449" width="20" height="15" fill="#000005" /><rect x="172.20000000000002" y="449" width="20" height="15" fill="#000005" /><rect x="252.20000000000002" y="449" width="20" height="15" fill="#000005" /><rect x="272.2" y="449" width="20" height="15" fill="#010109" /><rect x="172.20000000000002" y="434" width="20" height="15" fill="#000005" /><rect x="192.20000000000002" y="434" width="20" height="15" fill="#010109" /><rect x="212.20000000000002" y="434" width="20" height="15" fill="#02010c" /><rect x="232.20000000000002" y="434" width="20" height="15" fill="#02010c" /><rect x="252.20000000000002" y="434" width="20" height="15" fill="#040313" /><rect x="272.2" y="434" width="20" height="15" fill="#000005" /><rect x="312.2" y="434" width="20" height="15" fill="#000005" /><rect x="352.2" y="434" width="20" height="15" fill="#000005" /><rect x="152.20000000000002" y="419" width="20" height="15" fill="#010109" /><rect x="172.20000000000002" y="419" width="20" height="15" fill="#010109" /><rect x="192.20000000000002" y="419" width="20" height="15" fill="#000005" /><rect x="212.20000000000002" y="419" width="20" height="15" fill="#0f092c" /><rect x="232.20000000000002" y="419" width="20" height="15" fill="#07041b" /><rect x="252.20000000000002" y="419" width="20" height="15" fill="#0b0724" /><rect x="272.2" y="419" width="20" height="15" fill="#160b39" /><rect x="292.2" y="419" width="20" height="15" fill="#040313" /><rect x="332.2" y="419" width="20" height="15" fill="#000005" /><rect x="132.2" y="404" width="20" height="15" fill="#000005" /><rect x="152.20000000000002" y="404" width="20" height="15" fill="#010109" /><rect x="172.20000000000002" y="404" width="20" height="15" fill="#040313" /><rect x="192.20000000000002" y="404" width="20" height="15" fill="#1b0c42" /><rect x="212.20000000000002" y="404" width="20" height="15" fill="#1b0c42" /><rect x="232.20000000000002" y="404" width="20" height="15" fill="#3d0965" /><rect x="252.20000000000002" y="404" width="20" height="15" fill="#390963" /><rect x="272.2" y="404" width="20" height="15" fill="#140a34" /><rect x="292.2" y="404" width="20" height="15" fill="#07041b" /><rect x="312.2" y="404" width="20" height="15" fill="#050418" /><rect x="352.2" y="404" width="20" height="15" fill="#000005" /><rect x="372.2" y="404" width="20" height="15" fill="#000005" /><rect x="132.2" y="389" width="20" height="15" fill="#010109" /><rect x="152.20000000000002" y="389" width="20" height="15" fill="#050418" /><rect x="172.20000000000002" y="389" width="20" height="15" fill="#0b0724" /><rect x="192.20000000000002" y="389" width="20" height="15" fill="#3d0965" /><rect x="212.20000000000002" y="389" width="20" height="15" fill="#5c126d" /><rect x="232.20000000000002" y="389" width="20" height="15" fill="#60136e" /><rect x="252.20000000000002" y="389" width="20" height="15" fill="#6b176e" /><rect x="272.2" y="389" width="20" height="15" fill="#71196e" /><rect x="292.2" y="389" width="20" height="15" fill="#370961" /><rect x="312.2" y="389" width="20" height="15" fill="#180b3d" /><rect x="332.2" y="389" width="20" height="15" fill="#040313" /><rect x="352.2" y="389" width="20" height="15" fill="#000005" /><rect x="132.2" y="374" width="20" height="15" fill="#000005" /><rect x="152.20000000000002" y="374" width="20" height="15" fill="#09061f" /><rect x="172.20000000000002" y="374" width="20" height="15" fill="#33095e" /><rect x="192.20000000000002" y="374" width="20" height="15" fill="#68166e" /><rect x="212.20000000000002" y="374" width="20" height="15" fill="#a32b60" /><rect x="232.20000000000002" y="374" width="20" height="15" fill="#cd4247" /><rect x="252.20000000000002" y="374" width="20" height="15" fill="#d64b3f" /><rect x="272.2" y="374" width="20" height="15" fill="#9e2963" /><rect x="292.2" y="374" width="20" height="15" fill="#65156e" /><rect x="312.2" y="374" width="20" height="15" fill="#300a5c" /><rect x="332.2" y="374" width="20" height="15" fill="#0c0828" /><rect x="352.2" y="374" width="20" height="15" fill="#010109" /><rect x="372.2" y="374" width="20" height="15" fill="#000005" /><rect x="132.2" y="359" width="20" height="15" fill="#040313" /><rect x="152.20000000000002" y="359" width="20" height="15" fill="#0c0828" /><rect x="172.20000000000002" y="359" width="20" height="15" fill="#3d0965" /><rect x="192.20000000000002" y="359" width="20" height="15" fill="#71196e" /><rect x="212.20000000000002" y="359" width="20" height="15" fill="#e65d2e" /><rect x="232.20000000000002" y="359" width="20" height="15" fill="#fcb014" /><rect x="252.20000000000002" y="359" width="20" height="15" fill="#f8cc36" /><rect x="272.2" y="359" width="20" height="15" fill="#ee6a23" /><rect x="292.2" y="359" width="20" height="15" fill="#71196e" /><rect x="312.2" y="359" width="20" height="15" fill="#390963" /><rect x="332.2" y="359" width="20" height="15" fill="#180b3d" /><rect x="352.2" y="359" width="20" height="15" fill="#000005" /><rect x="372.2" y="359" width="20" height="15" fill="#010109" /><rect x="112.2" y="344" width="20" height="15" fill="#000005" /><rect x="132.2" y="344" width="20" height="15" fill="#000005" /><rect x="152.20000000000002" y="344" width="20" height="15" fill="#07041b" /><rect x="172.20000000000002" y="344" width="20" height="15" fill="#33095e" /><rect x="192.20000000000002" y="344" width="20" height="15" fill="#5a106d" /><rect x="212.20000000000002" y="344" width="20" height="15" fill="#d64b3f" /><rect x="232.20000000000002" y="344" width="20" height="15" fill="#fcffa4" /><rect x="252.20000000000002" y="344" width="20" height="15" fill="#f2761a" /><rect x="272.2" y="344" width="20" height="15" fill="#c13a50" /><rect x="292.2" y="344" width="20" height="15" fill="#9e2963" /><rect x="312.2" y="344" width="20" height="15" fill="#370961" /><rect x="332.2" y="344" width="20" height="15" fill="#0f092c" /><rect x="352.2" y="344" width="20" height="15" fill="#030210" /><rect x="372.2" y="344" width="20" height="15" fill="#000005" /><rect x="92.2" y="329" width="20" height="15" fill="#000005" /><rect x="132.2" y="329" width="20" height="15" fill="#030210" /><rect x="152.20000000000002" y="329" width="20" height="15" fill="#0c0828" /><rect x="172.20000000000002" y="329" width="20" height="15" fill="#1e0c45" /><rect x="192.20000000000002" y="329" width="20" height="15" fill="#60136e" /><rect x="212.20000000000002" y="329" width="20" height="15" fill="#a32b60" /><rect x="232.20000000000002" y="329" width="20" height="15" fill="#cf4445" /><rect x="252.20000000000002" y="329" width="20" height="15" fill="#e05535" /><rect x="272.2" y="329" width="20" height="15" fill="#d84c3d" /><rect x="292.2" y="329" width="20" height="15" fill="#7f1e6c" /><rect x="312.2" y="329" width="20" height="15" fill="#1e0c45" /><rect x="332.2" y="329" width="20" height="15" fill="#0b0724" /><rect x="352.2" y="329" width="20" height="15" fill="#010109" /><rect x="152.20000000000002" y="314" width="20" height="15" fill="#000005" /><rect x="172.20000000000002" y="314" width="20" height="15" fill="#0c0828" /><rect x="192.20000000000002" y="314" width="20" height="15" fill="#370961" /><rect x="212.20000000000002" y="314" width="20" height="15" fill="#3d0965" /><rect x="232.20000000000002" y="314" width="20" height="15" fill="#811f6b" /><rect x="252.20000000000002" y="314" width="20" height="15" fill="#87216a" /><rect x="272.2" y="314" width="20" height="15" fill="#761b6d" /><rect x="292.2" y="314" width="20" height="15" fill="#290b55" /><rect x="312.2" y="314" width="20" height="15" fill="#160b39" /><rect x="332.2" y="314" width="20" height="15" fill="#02010c" /><rect x="132.2" y="299" width="20" height="15" fill="#010109" /><rect x="152.20000000000002" y="299" width="20" height="15" fill="#010109" /><rect x="172.20000000000002" y="299" width="20" height="15" fill="#050418" /><rect x="192.20000000000002" y="299" width="20" height="15" fill="#110930" /><rect x="212.20000000000002" y="299" width="20" height="15" fill="#290b55" /><rect x="232.20000000000002" y="299" width="20" height="15" fill="#510e6c" /><rect x="252.20000000000002" y="299" width="20" height="15" fill="#4e0d6b" /><rect x="272.2" y="299" width="20" height="15" fill="#1e0c45" /><rect x="292.2" y="299" width="20" height="15" fill="#1b0c42" /><rect x="312.2" y="299" width="20" height="15" fill="#07041b" /><rect x="332.2" y="299" width="20" height="15" fill="#000005" /><rect x="552.2" y="299" width="20" height="15" fill="#000005" /><rect x="172.20000000000002" y="284" width="20" height="15" fill="#010109" /><rect x="192.20000000000002" y="284" width="20" height="15" fill="#030210" /><rect x="212.20000000000002" y="284" width="20" height="15" fill="#010109" /><rect x="232.20000000000002" y="284" width="20" height="15" fill="#110930" /><rect x="252.20000000000002" y="284" width="20" height="15" fill="#0c0828" /><rect x="272.2" y="284" width="20" height="15" fill="#040313" /><rect x="292.2" y="284" width="20" height="15" fill="#0b0724" /><rect x="312.2" y="284" width="20" height="15" fill="#010109" /><rect x="332.2" y="284" width="20" height="15" fill="#000005" /><rect x="512.2" y="284" width="20" height="15" fill="#000005" /><rect x="132.2" y="269" width="20" height="15" fill="#000005" /><rect x="152.20000000000002" y="269" width="20" height="15" fill="#000005" /><rect x="172.20000000000002" y="269" width="20" height="15" fill="#000005" /><rect x="192.20000000000002" y="269" width="20" height="15" fill="#000005" /><rect x="212.20000000000002" y="269" width="20" height="15" fill="#010109" /><rect x="232.20000000000002" y="269" width="20" height="15" fill="#010109" /><rect x="252.20000000000002" y="269" width="20" height="15" fill="#030210" /><rect x="272.2" y="269" width="20" height="15" fill="#000005" /><rect x="292.2" y="269" width="20" height="15" fill="#000005" /><rect x="332.2" y="269" width="20" height="15" fill="#000005" /><rect x="252.20000000000002" y="254" width="20" height="15" fill="#010109" /><rect x="372.2" y="254" width="20" height="15" fill="#000005" /><rect x="452.2" y="254" width="20" height="15" fill="#030210" /><rect x="472.2" y="254" width="20" height="15" fill="#040313" /><rect x="492.2" y="254" width="20" height="15" fill="#030210" /><rect x="512.2" y="254" width="20" height="15" fill="#02010c" /><rect x="532.2" y="254" width="20" height="15" fill="#02010c" /><rect x="412.2" y="239" width="20" height="15" fill="#010109" /><rect x="432.2" y="239" width="20" height="15" fill="#02010c" /><rect x="452.2" y="239" width="20" height="15" fill="#000005" /><rect x="472.2" y="239" width="20" height="15" fill="#0f092c" /><rect x="492.2" y="239" width="20" height="15" fill="#09061f" /><rect x="512.2" y="239" width="20" height="15" fill="#02010c" /><rect x="532.2" y="239" width="20" height="15" fill="#050418" /><rect x="552.2" y="239" width="20" height="15" fill="#040313" /><rect x="372.2" y="224" width="20" height="15" fill="#000005" /><rect x="392.2" y="224" width="20" height="15" fill="#02010c" /><rect x="412.2" y="224" width="20" height="15" fill="#07041b" /><rect x="432.2" y="224" width="20" height="15" fill="#09061f" /><rect x="452.2" y="224" width="20" height="15" fill="#270b52" /><rect x="472.2" y="224" width="20" height="15" fill="#33095e" /><rect x="492.2" y="224" width="20" height="15" fill="#230c4e" /><rect x="512.2" y="224" width="20" height="15" fill="#180b3d" /><rect x="532.2" y="224" width="20" height="15" fill="#110930" /><rect x="552.2" y="224" width="20" height="15" fill="#07041b" /><rect x="572.2" y="224" width="20" height="15" fill="#000005" /><rect x="372.2" y="209" width="20" height="15" fill="#000005" /><rect x="392.2" y="209" width="20" height="15" fill="#040313" /><rect x="412.2" y="209" width="20" height="15" fill="#180b3d" /><rect x="432.2" y="209" width="20" height="15" fill="#290b55" /><rect x="452.2" y="209" width="20" height="15" fill="#5a106d" /><rect x="472.2" y="209" width="20" height="15" fill="#6d186e" /><rect x="492.2" y="209" width="20" height="15" fill="#761b6d" /><rect x="512.2" y="209" width="20" height="15" fill="#62146e" /><rect x="532.2" y="209" width="20" height="15" fill="#490b6a" /><rect x="552.2" y="209" width="20" height="15" fill="#160b39" /><rect x="572.2" y="209" width="20" height="15" fill="#040313" /><rect x="592.2" y="209" width="20" height="15" fill="#000005" /><rect x="612.2" y="209" width="20" height="15" fill="#000005" /><rect x="372.2" y="194" width="20" height="15" fill="#030210" /><rect x="392.2" y="194" width="20" height="15" fill="#050418" /><rect x="412.2" y="194" width="20" height="15" fill="#180b3d" /><rect x="432.2" y="194" width="20" height="15" fill="#68166e" /><rect x="452.2" y="194" width="20" height="15" fill="#ac2f5d" /><rect x="472.2" y="194" width="20" height="15" fill="#f88b0a" /><rect x="492.2" y="194" width="20" height="15" fill="#dd5139" /><rect x="512.2" y="194" width="20" height="15" fill="#9e2963" /><rect x="532.2" y="194" width="20" height="15" fill="#7c1d6c" /><rect x="552.2" y="194" width="20" height="15" fill="#210c4a" /><rect x="572.2" y="194" width="20" height="15" fill="#030210" /><rect x="592.2" y="194" width="20" height="15" fill="#000005" /><rect x="612.2" y="194" width="20" height="15" fill="#000005" /><rect x="352.2" y="179" width="20" height="15" fill="#010109" /><rect x="372.2" y="179" width="20" height="15" fill="#040313" /><rect x="392.2" y="179" width="20" height="15" fill="#030210" /><rect x="412.2" y="179" width="20" height="15" fill="#370961" /><rect x="432.2" y="179" width="20" height="15" fill="#982765" /><rect x="452.2" y="179" width="20" height="15" fill="#d44841" /><rect x="472.2" y="179" width="20" height="15" fill="#f4da4b" /><rect x="492.2" y="179" width="20" height="15" fill="#fbb71c" /><rect x="512.2" y="179" width="20" height="15" fill="#c83f4a" /><rect x="532.2" y="179" width="20" height="15" fill="#84206b" /><rect x="552.2" y="179" width="20" height="15" fill="#460a69" /><rect x="572.2" y="179" width="20" height="15" fill="#110930" /><rect x="592.2" y="179" width="20" height="15" fill="#010109" /><rect x="632.2" y="179" width="20" height="15" fill="#000005" /><rect x="352.2" y="164" width="20" height="15" fill="#000005" /><rect x="372.2" y="164" width="20" height="15" fill="#02010c" /><rect x="392.2" y="164" width="20" height="15" fill="#07041b" /><rect x="412.2" y="164" width="20" height="15" fill="#290b55" /><rect x="432.2" y="164" width="20" height="15" fill="#761b6d" /><rect x="452.2" y="164" width="20" height="15" fill="#f0701f" /><rect x="472.2" y="164" width="20" height="15" fill="#ec6725" /><rect x="492.2" y="164" width="20" height="15" fill="#f7850e" /><rect x="512.2" y="164" width="20" height="15" fill="#f67f13" /><rect x="532.2" y="164" width="20" height="15" fill="#8a2269" /><rect x="552.2" y="164" width="20" height="15" fill="#3f0966" /><rect x="572.2" y="164" width="20" height="15" fill="#09061f" /><rect x="592.2" y="164" width="20" height="15" fill="#07041b" /><rect x="612.2" y="164" width="20" height="15" fill="#010109" /><rect x="372.2" y="149" width="20" height="15" fill="#040313" /><rect x="392.2" y="149" width="20" height="15" fill="#0b0724" /><rect x="412.2" y="149" width="20" height="15" fill="#390963" /><rect x="432.2" y="149" width="20" height="15" fill="#6d186e" /><rect x="452.2" y="149" width="20" height="15" fill="#811f6b" /><rect x="472.2" y="149" width="20" height="15" fill="#cb4148" /><rect x="492.2" y="149" width="20" height="15" fill="#f57c15" /><rect x="512.2" y="149" width="20" height="15" fill="#b1315a" /><rect x="532.2" y="149" width="20" height="15" fill="#65156e" /><rect x="552.2" y="149" width="20" height="15" fill="#1b0c42" /><rect x="572.2" y="149" width="20" height="15" fill="#0c0828" /><rect x="592.2" y="149" width="20" height="15" fill="#02010c" /><rect x="392.2" y="134" width="20" height="15" fill="#040313" /><rect x="412.2" y="134" width="20" height="15" fill="#0f092c" /><rect x="432.2" y="134" width="20" height="15" fill="#390963" /><rect x="452.2" y="134" width="20" height="15" fill="#5c126d" /><rect x="472.2" y="134" width="20" height="15" fill="#952666" /><rect x="492.2" y="134" width="20" height="15" fill="#9e2963" /><rect x="512.2" y="134" width="20" height="15" fill="#65156e" /><rect x="532.2" y="134" width="20" height="15" fill="#1b0c42" /><rect x="552.2" y="134" width="20" height="15" fill="#230c4e" /><rect x="572.2" y="134" width="20" height="15" fill="#09061f" /><rect x="592.2" y="134" width="20" height="15" fill="#000005" /><rect x="612.2" y="134" width="20" height="15" fill="#000005" /><rect x="392.2" y="119" width="20" height="15" fill="#010109" /><rect x="412.2" y="119" width="20" height="15" fill="#040313" /><rect x="432.2" y="119" width="20" height="15" fill="#1b0c42" /><rect x="452.2" y="119" width="20" height="15" fill="#460a69" /><rect x="472.2" y="119" width="20" height="15" fill="#290b55" /><rect x="492.2" y="119" width="20" height="15" fill="#140a34" /><rect x="512.2" y="119" width="20" height="15" fill="#210c4a" /><rect x="532.2" y="119" width="20" height="15" fill="#140a34" /><rect x="552.2" y="119" width="20" height="15" fill="#040313" /><rect x="592.2" y="119" width="20" height="15" fill="#02010c" /><rect x="632.2" y="119" width="20" height="15" fill="#000005" /><rect x="412.2" y="104" width="20" height="15" fill="#010109" /><rect x="432.2" y="104" width="20" height="15" fill="#050418" /><rect x="452.2" y="104" width="20" height="15" fill="#050418" /><rect x="472.2" y="104" width="20" height="15" fill="#0c0828" /><rect x="492.2" y="104" width="20" height="15" fill="#09061f" /><rect x="512.2" y="104" width="20" height="15" fill="#02010c" /><rect x="532.2" y="104" width="20" height="15" fill="#010109" /><rect x="552.2" y="104" width="20" height="15" fill="#030210" /><rect x="572.2" y="104" width="20" height="15" fill="#000005" /><rect x="452.2" y="89" width="20" height="15" fill="#000005" /><rect x="472.2" y="89" width="20" height="15" fill="#02010c" /><rect x="492.2" y="89" width="20" height="15" fill="#000005" /><rect x="512.2" y="89" width="20" height="15" fill="#030210" /><rect x="432.2" y="74" width="20" height="15" fill="#000005" /><rect x="492.2" y="74" width="20" height="15" fill="#000005" /><rect x="532.2" y="74" width="20" height="15" fill="#000005" /><rect x="452.2" y="59" width="20" height="15" fill="#000005" /><rect x="512.2" y="59" width="20" height="15" fill="#000005" /><rect x="701.2" y="89" width="20" height="7.7" fill="#fcffa4" /><rect x="701.2" y="96.2" width="20" height="7.7" fill="#f4f891" /><rect x="701.2" y="103.4" width="20" height="7.7" fill="#f1f17b" /><rect x="701.2" y="110.60000000000001" width="20" height="7.7" fill="#f1e866" /><rect x="701.2" y="117.8" width="20" height="7.7" fill="#f3df53" /><rect x="701.2" y="125" width="20" height="7.7" fill="#f6d442" /><rect x="701.2" y="132.2" width="20" height="7.7" fill="#f8ca34" /><rect x="701.2" y="139.4" width="20" height="7.7" fill="#fac127" /><rect x="701.2" y="146.6" width="20" height="7.7" fill="#fbb61b" /><rect x="701.2" y="153.8" width="20" height="7.7" fill="#fcac11" /><rect x="701.2" y="161" width="20" height="7.7" fill="#fca208" /><rect x="701.2" y="168.20000000000002" width="20" height="7.7" fill="#fb9806" /><rect x="701.2" y="175.4" width="20" height="7.7" fill="#f98f08" /><rect x="701.2" y="182.6" width="20" height="7.7" fill="#f7850e" /><rect x="701.2" y="189.8" width="20" height="7.7" fill="#f57d14" /><rect x="701.2" y="197" width="20" height="7.7" fill="#f1741c" /><rect x="701.2" y="204.20000000000002" width="20" height="7.7" fill="#ee6b23" /><rect x="701.2" y="211.4" width="20" height="7.7" fill="#ea6329" /><rect x="701.2" y="218.6" width="20" height="7.7" fill="#e55c2f" /><rect x="701.2" y="225.8" width="20" height="7.7" fill="#e05535" /><rect x="701.2" y="233" width="20" height="7.7" fill="#d94e3c" /><rect x="701.2" y="240.20000000000002" width="20" height="7.7" fill="#d34742" /><rect x="701.2" y="247.4" width="20" height="7.7" fill="#cd4247" /><rect x="701.2" y="254.6" width="20" height="7.7" fill="#c63d4c" /><rect x="701.2" y="261.8" width="20" height="7.7" fill="#be3951" /><rect x="701.2" y="269" width="20" height="7.7" fill="#b73457" /><rect x="701.2" y="276.2" width="20" height="7.7" fill="#af305b" /><rect x="701.2" y="283.40000000000003" width="20" height="7.7" fill="#a62d5f" /><rect x="701.2" y="290.6" width="20" height="7.7" fill="#9f2963" /><rect x="701.2" y="297.8" width="20" height="7.7" fill="#962666" /><rect x="701.2" y="305" width="20" height="7.7" fill="#8e2368" /><rect x="701.2" y="312.2" width="20" height="7.7" fill="#86216a" /><rect x="701.2" y="319.40000000000003" width="20" height="7.7" fill="#7d1d6c" /><rect x="701.2" y="326.6" width="20" height="7.7" fill="#751b6d" /><rect x="701.2" y="333.8" width="20" height="7.7" fill="#6d186e" /><rect x="701.2" y="341" width="20" height="7.7" fill="#64156e" /><rect x="701.2" y="348.2" width="20" height="7.7" fill="#5c126d" /><rect x="701.2" y="355.40000000000003" width="20" height="7.7" fill="#540e6d" /><rect x="701.2" y="362.6" width="20" height="7.7" fill="#4c0c6b" /><rect x="701.2" y="369.8" width="20" height="7.7" fill="#430a68" /><rect x="701.2" y="377" width="20" height="7.7" fill="#3a0963" /><rect x="701.2" y="384.2" width="20" height="7.7" fill="#310a5d" /><rect x="701.2" y="391.40000000000003" width="20" height="7.7" fill="#280b53" /><rect x="701.2" y="398.6" width="20" height="7.7" fill="#1f0c48" /><rect x="701.2" y="405.8" width="20" height="7.7" fill="#170b3b" /><rect x="701.2" y="413" width="20" height="7.7" fill="#10092f" /><rect x="701.2" y="420.2" width="20" height="7.7" fill="#0a0723" /><rect x="701.2" y="427.40000000000003" width="20" height="7.7" fill="#050317" /><rect x="701.2" y="434.6" width="20" height="7.7" fill="#02010c" /><rect x="701.2" y="441.8" width="20" height="7.7" fill="#000004" /><rect x="701.2" y="89" width="20" height="360" fill="none" stroke="#000000" stroke-width="1" /><line x1="721.2" y1="449" x2="725.2" y2="449" stroke="#000000" stroke-width="1" /><text x="727.2" y="453" font-size="12" text-anchor="start">0.0</text><line x1="721.2" y1="386.06" x2="725.2" y2="386.06" stroke="#000000" stroke-width="1" /><text x="727.2" y="390.06" font-size="12" text-anchor="start">25.0</text><line x1="721.2" y1="323.13" x2="725.2" y2="323.13" stroke="#000000" stroke-width="1" /><text x="727.2" y="327.13" font-size="12" text-anchor="start">50.0</text><line x1="721.2" y1="260.19" x2="725.2" y2="260.19" stroke="#000000" stroke-width="1" /><text x="727.2" y="264.19" font-size="12" text-anchor="start">75.0</text><line x1="721.2" y1="197.25" x2="725.2" y2="197.25" stroke="#000000" stroke-width="1" /><text x="727.2" y="201.25" font-size="12" text-anchor="start">100.0</text><line x1="721.2" y1="134.31" x2="725.2" y2="134.31" stroke="#000000" stroke-width="1" /><text x="727.2" y="138.31" font-size="12" text-anchor="start">125.0</text><text x="711.2" y="83" font-size="12" text-anchor="middle">Count</text></svg>