<svg xmlns="http://www.w3.org/2000/svg" width="758" height="545" font-family="DejaVu Sans, Liberation Sans, Arial, sans-serif" fill="black"><rect width="100%" height="100%" fill="white" /><line x1="159" y1="44" x2="159" y2="494" stroke="#cccccc" stroke-width="1" /><line x1="259" y1="44" x2="259" y2="494" stroke="#cccccc" stroke-width="1" /><line x1="359" y1="44" x2="359" y2="494" stroke="#cccccc" stroke-width="1" /><line x1="459" y1="44" x2="459" y2="494" stroke="#cccccc" stroke-width="1" /><line x1="559" y1="44" x2="559" y2="494" stroke="#cccccc" stroke-width="1" /><line x1="659" y1="44" x2="659" y2="494" stroke="#cccccc" stroke-width="1" /><line x1="59" y1="419" x2="659" y2="419" stroke="#cccccc" stroke-width="1" /><line x1="59" y1="344" x2="659" y2="344" stroke="#cccccc" stroke-width="1" /><line x1="59" y1="269" x2="659" y2="269" stroke="#cccccc" stroke-width="1" /><line x1="59" y1="194" x2="659" y2="194" stroke="#cccccc" stroke-width="1" /><line x1="59" y1="119" x2="659" y2="119" stroke="#cccccc" stroke-width="1" /><line x1="59" y1="44" x2="659" y2="44" stroke="#cccccc" stroke-width="1" /><line x1="59" y1="494" x2="659" y2="494" stroke="#000000" stroke-width="1" /><line x1="59" y1="44" x2="59" y2="494" stroke="#000000" stroke-width="1" /><line x1="59" y1="494" x2="59" y2="499" stroke="#000000" stroke-width="1" /><text x="59" y="511" font-size="12" text-anchor="middle">0</text><line x1="159" y1="494" x2="159" y2="499" stroke="#000000" stroke-width="1" /><text x="159" y="511" font-size="12" text-anchor="middle">5</text><line x1="259" y1="494" x2="259" y2="499" stroke="#000000" stroke-width="1" /><text x="259" y="511" font-size="12" text-anchor="middle">10</text><line x1="359" y1="494" x2="359" y2="499" stroke="#000000" stroke-width="1" /><text x="359" y="511" font-size="12" text-anchor="middle">15</text><line x1="459" y1="494" x2="459" y2="499" stroke="#000000" stroke-width="1" /><text x="459" y="511" font-size="12" text-anchor="middle">20</text><line x1="559" y1="494" x2="559" y2="499" stroke="#000000" stroke-width="1" /><text x="559" y="511" font-size="12" text-anchor="middle">25</text><line x1="659" y1="494" x2="659" y2="499" stroke="#000000" stroke-width="1" /><text x="659" y="511" font-size="12" text-anchor="middle">30</text><line x1="54" y1="494" x2="59" y2="494" stroke="#000000" stroke-width="1" /><text x="51" y="498.2" font-size="12" text-anchor="end">0</text><line x1="54" y1="419" x2="59" y2="419" stroke="#000000" stroke-width="1" /><text x="51" y="423.2" font-size="12" text-anchor="end">5</text><line x1="54" y1="344" x2="59" y2="344" stroke="#000000" stroke-width="1" /><text x="51" y="348.2" font-size="12" text-anchor="end">10</text><line x1="54" y1="269" x2="59" y2="269" stroke="#000000" stroke-width="1" /><text x="51" y="273.2" font-size="12" text-anchor="end">15</text><line x1="54" y1="194" x2="59" y2="194" stroke="#000000" stroke-width="1" /><text x="51" y="198.20000000000002" font-size="12" text-anchor="end">20</text><line x1="54" y1="119" x2="59" y2="119" stroke="#000000" stroke-width="1" /><text x="51" y="123.2" font-size="12" text-anchor="end">25</text><line x1="54" y1="44" x2="59" y2="44" stroke="#000000" stroke-width="1" /><text x="51" y="48.2" font-size="12" text-anchor="end">30</text><text x="359" y="538" font-size="14" text-anchor="middle">X</text><text x="15" y="272.5" font-size="14" text-anchor="middle" transform="rotate(-90,15,272.5)">Y</text><text x="359" y="22" font-size="18" text-anchor="middle">Grayscale — 10×10 bins</text><rect x="419" y="449" width="60" height="45" fill="#fefefe" /><rect x="119" y="404" width="60" height="45" fill="#fefefe" /><rect x="179" y="404" width="60" height="45" fill="#fefefe" /><rect x="239" y="404" width="60" height="45" fill="#fefefe" /><rect x="299" y="404" width="60" height="45" fill="#fdfdfd" /><rect x="359" y="404" width="60" height="45" fill="#fdfdfd" /><rect x="419" y="404" width="60" height="45" fill="#fefefe" /><rect x="479" y="404" width="60" height="45" fill="#fefefe" /><rect x="179" y="359" width="60" height="45" fill="#fdfdfd" /><rect x="239" y="359" width="60" height="45" fill="#f5f5f5" /><rect x="299" y="359" width="60" height="45" fill="#ececec" /><rect x="359" y="359" width="60" height="45" fill="#f0f0f0" /><rect x="419" y="359" width="60" height="45" fill="#f7f7f7" /><rect x="479" y="359" width="60" height="45" fill="#fcfcfc" /><rect x="539" y="359" width="60" height="45" fill="#fefefe" /><rect x="119" y="314" width="60" height="45" fill="#fefefe" /><rect x="179" y="314" width="60" height="45" fill="#f7f7f7" /><rect x="239" y="314" width="60" height="45" fill="#e0e0e0" /><rect x="299" y="314" width="60" height="45" fill="#979797" /><rect x="359" y="314" width="60" height="45" fill="#9e9e9e" /><rect x="419" y="314" width="60" height="45" fill="#dcdcdc" /><rect x="479" y="314" width="60" height="45" fill="#f7f7f7" /><rect x="539" y="314" width="60" height="45" fill="#fdfdfd" /><rect x="59" y="269" width="60" height="45" fill="#fefefe" /><rect x="119" y="269" width="60" height="45" fill="#fcfcfc" /><rect x="179" y="269" width="60" height="45" fill="#eeeeee" /><rect x="239" y="269" width="60" height="45" fill="#909090" /><rect x="299" y="269" width="60" height="45" fill="#191919" /><rect x="359" y="269" width="60" height="45" fill="#000000" /><rect x="419" y="269" width="60" height="45" fill="#969696" /><rect x="479" y="269" width="60" height="45" fill="#ebebeb" /><rect x="539" y="269" width="60" height="45" fill="#fcfcfc" /><rect x="119" y="224" width="60" height="45" fill="#fcfcfc" /><rect x="179" y="224" width="60" height="45" fill="#ededed" /><rect x="239" y="224" width="60" height="45" fill="#949494" /><rect x="299" y="224" width="60" height="45" fill="#070707" /><rect x="359" y="224" width="60" height="45" fill="#0b0b0b" /><rect x="419" y="224" width="60" height="45" fill="#8e8e8e" /><rect x="479" y="224" width="60" height="45" fill="#f0f0f0" /><rect x="539" y="224" width="60" height="45" fill="#fcfcfc" /><rect x="599" y="224" width="60" height="45" fill="#fefefe" /><rect x="59" y="179" width="60" height="45" fill="#fefefe" /><rect x="119" y="179" width="60" height="45" fill="#fdfdfd" /><rect x="179" y="179" width="60" height="45" fill="#f6f6f6" /><rect x="239" y="179" width="60" height="45" fill="#d5d5d5" /><rect x="299" y="179" width="60" height="45" fill="#888888" /><rect x="359" y="179" width="60" height="45" fill="#9c9c9c" /><rect x="419" y="179" width="60" height="45" fill="#e1e1e1" /><rect x="479" y="179" width="60" height="45" fill="#f7f7f7" /><rect x="539" y="179" width="60" height="45" fill="#fefefe" /><rect x="179" y="134" width="60" height="45" fill="#fcfcfc" /><rect x="239" y="134" width="60" height="45" fill="#f6f6f6" /><rect x="299" y="134" width="60" height="45" fill="#ededed" /><rect x="359" y="134" width="60" height="45" fill="#eaeaea" /><rect x="419" y="134" width="60" height="45" fill="#f6f6f6" /><rect x="479" y="134" width="60" height="45" fill="#fcfcfc" /><rect x="539" y="134" width="60" height="45" fill="#fefefe" /><rect x="119" y="89" width="60" height="45" fill="#fefefe" /><rect x="239" y="89" width="60" height="45" fill="#fefefe" /><rect x="299" y="89" width="60" height="45" fill="#fdfdfd" /><rect x="359" y="89" width="60" height="45" fill="#fdfdfd" /><rect x="419" y="89" width="60" height="45" fill="#fefefe" /><rect x="479" y="89" width="60" height="45" fill="#fefefe" /><rect x="239" y="44" width="60" height="45" fill="#fefefe" /><rect x="299" y="44" width="60" height="45" fill="#fefefe" /><rect x="359" y="44" width="60" height="45" fill="#fefefe" /><rect x="688" y="89" width="20" height="7.7" fill="#000000" /><rect x="688" y="96.2" width="20" height="7.7" fill="#060606" /><rect x="688" y="103.4" width="20" height="7.7" fill="#0c0c0c" /><rect x="688" y="110.60000000000001" width="20" height="7.7" fill="#121212" /><rect x="688" y="117.8" width="20" height="7.7" fill="#181818" /><rect x="688" y="125" width="20" height="7.7" fill="#1e1e1e" /><rect x="688" y="132.2" width="20" height="7.7" fill="#252525" /><rect x="688" y="139.4" width="20" height="7.7" fill="#2c2c2c" /><rect x="688" y="146.6" width="20" height="7.7" fill="#333333" /><rect x="688" y="153.8" width="20" height="7.7" fill="#3a3a3a" /><rect x="688" y="161" width="20" height="7.7" fill="#414141" /><rect x="688" y="168.20000000000002" width="20" height="7.7" fill="#474747" /><rect x="688" y="175.4" width="20" height="7.7" fill="#4e4e4e" /><rect x="688" y="182.6" width="20" height="7.7" fill="#545454" /><rect x="688" y="189.8" width="20" height="7.7" fill="#5a5a5a" /><rect x="688" y="197" width="20" height="7.7" fill="#606060" /><rect x="688" y="204.20000000000002" width="20" height="7.7" fill="#666666" /><rect x="688" y="211.4" width="20" height="7.7" fill="#6b6b6b" /><rect x="688" y="218.6" width="20" height="7.7" fill="#717171" /><rect x="688" y="225.8" width="20" height="7.7" fill="#767676" /><rect x="688" y="233" width="20" height="7.7" fill="#7c7c7c" /><rect x="688" y="240.20000000000002" width="20" height="7.7" fill="#828282" /><rect x="688" y="247.4" width="20" height="7.7" fill="#878787" /><rect x="688" y="254.6" width="20" height="7.7" fill="#8d8d8d" /><rect x="688" y="261.8" width="20" height="7.7" fill="#939393" /><rect x="688" y="269" width="20" height="7.7" fill="#999999" /><rect x="688" y="276.2" width="20" height="7.7" fill="#9f9f9f" /><rect x="688" y="283.40000000000003" width="20" height="7.7" fill="#a5a5a5" /><rect x="688" y="290.6" width="20" height="7.7" fill="#ababab" /><rect x="688" y="297.8" width="20" height="7.7" fill="#b1b1b1" /><rect x="688" y="305" width="20" height="7.7" fill="#b7b7b7" /><rect x="688" y="312.2" width="20" height="7.7" fill="#bdbdbd" /><rect x="688" y="319.40000000000003" width="20" height="7.7" fill="#c2c2c2" /><rect x="688" y="326.6" width="20" height="7.7" fill="#c7c7c7" /><rect x="688" y="333.8" width="20" height="7.7" fill="#cccccc" /><rect x="688" y="341" width="20" height="7.7" fill="#d0d0d0" /><rect x="688" y="348.2" width="20" height="7.7" fill="#d5d5d5" /><rect x="688" y="355.40000000000003" width="20" height="7.7" fill="#d9d9d9" /><rect x="688" y="362.6" width="20" height="7.7" fill="#dddddd" /><rect x="688" y="369.8" width="20" height="7.7" fill="#e1e1e1" /><rect x="688" y="377" width="20" height="7.7" fill="#e4e4e4" /><rect x="688" y="384.2" width="20" height="7.7" fill="#e8e8e8" /><rect x="688" y="391.40000000000003" width="20" height="7.7" fill="#ebebeb" /><rect x="688" y="398.6" width="20" height="7.7" fill="#efefef" /><rect x="688" y="405.8" width="20" height="7.7" fill="#f2f2f2" /><rect x="688" y="413" width="20" height="7.7" fill="#f4f4f4" /><rect x="688" y="420.2" width="20" height="7.7" fill="#f7f7f7" /><rect x="688" y="427.40000000000003" width="20" height="7.7" fill="#fafafa" /><rect x="688" y="434.6" width="20" height="7.7" fill="#fcfcfc" /><rect x="688" y="441.8" width="20" height="7.7" fill="#ffffff" /><rect x="688" y="89" width="20" height="360" fill="none" stroke="#000000" stroke-width="1" /><line x1="708" y1="449" x2="712" y2="449" stroke="#000000" stroke-width="1" /><text x="713" y="453" font-size="12" text-anchor="start">0</text><line x1="708" y1="400.94" x2="712" y2="400.94" stroke="#000000" stroke-width="1" /><text x="713" y="404.94" font-size="12" text-anchor="start">100</text><line x1="708" y1="352.87" x2="712" y2="352.87" stroke="#000000" stroke-width="1" /><text x="713" y="356.87" font-size="12" text-anchor="start">200</text><line x1="708" y1="304.81" x2="712" y2="304.81" stroke="#000000" stroke-width="1" /><text x="713" y="308.81" font-size="12" text-anchor="start">300</text><line x1="708" y1="256.74" x2="712" y2="256.74" stroke="#000000" stroke-width="1" /><text x="713" y="260.74" font-size="12" text-anchor="start">400</text><line x1="708" y1="208.68" x2="712" y2="208.68" stroke="#000000" stroke-width="1" /><text x="713" y="212.68" font-size="12" text-anchor="start">500</text><line x1="708" y1="160.62" x2="712" y2="160.62" stroke="#000000" stroke-width="1" /><text x="713" y="164.62" font-size="12" text-anchor="start">600</text><line x1="708" y1="112.55" x2="712" y2="112.55" stroke="#000000" stroke-width="1" /><text x="713" y="116.55" font-size="12" text-anchor="start">700</text><text x="698" y="83" font-size="12" text-anchor="middle">Count</text></svg>