<svg xmlns="http://www.w3.org/2000/svg" width="758" height="545" font-family="DejaVu Sans, Liberation Sans, Arial, sans-serif" fill="black"><rect width="100%" height="100%" fill="white" /><line x1="159" y1="44" x2="159" y2="494" stroke="#cccccc" stroke-width="1" /><line x1="259" y1="44" x2="259" y2="494" stroke="#cccccc" stroke-width="1" /><line x1="359" y1="44" x2="359" y2="494" stroke="#cccccc" stroke-width="1" /><line x1="459" y1="44" x2="459" y2="494" stroke="#cccccc" stroke-width="1" /><line x1="559" y1="44" x2="559" y2="494" stroke="#cccccc" stroke-width="1" /><line x1="659" y1="44" x2="659" y2="494" stroke="#cccccc" stroke-width="1" /><line x1="59" y1="419" x2="659" y2="419" stroke="#cccccc" stroke-width="1" /><line x1="59" y1="344" x2="659" y2="344" stroke="#cccccc" stroke-width="1" /><line x1="59" y1="269" x2="659" y2="269" stroke="#cccccc" stroke-width="1" /><line x1="59" y1="194" x2="659" y2="194" stroke="#cccccc" stroke-width="1" /><line x1="59" y1="119" x2="659" y2="119" stroke="#cccccc" stroke-width="1" /><line x1="59" y1="44" x2="659" y2="44" stroke="#cccccc" stroke-width="1" /><line x1="59" y1="494" x2="659" y2="494" stroke="#000000" stroke-width="1" /><line x1="59" y1="44" x2="59" y2="494" stroke="#000000" stroke-width="1" /><line x1="59" y1="494" x2="59" y2="499" stroke="#000000" stroke-width="1" /><text x="59" y="511" font-size="12" text-anchor="middle">0</text><line x1="159" y1="494" x2="159" y2="499" stroke="#000000" stroke-width="1" /><text x="159" y="511" font-size="12" text-anchor="middle">5</text><line x1="259" y1="494" x2="259" y2="499" stroke="#000000" stroke-width="1" /><text x="259" y="511" font-size="12" text-anchor="middle">10</text><line x1="359" y1="494" x2="359" y2="499" stroke="#000000" stroke-width="1" /><text x="359" y="511" font-size="12" text-anchor="middle">15</text><line x1="459" y1="494" x2="459" y2="499" stroke="#000000" stroke-width="1" /><text x="459" y="511" font-size="12" text-anchor="middle">20</text><line x1="559" y1="494" x2="559" y2="499" stroke="#000000" stroke-width="1" /><text x="559" y="511" font-size="12" text-anchor="middle">25</text><line x1="659" y1="494" x2="659" y2="499" stroke="#000000" stroke-width="1" /><text x="659" y="511" font-size="12" text-anchor="middle">30</text><line x1="54" y1="494" x2="59" y2="494" stroke="#000000" stroke-width="1" /><text x="51" y="498.2" font-size="12" text-anchor="end">0</text><line x1="54" y1="419" x2="59" y2="419" stroke="#000000" stroke-width="1" /><text x="51" y="423.2" font-size="12" text-anchor="end">5</text><line x1="54" y1="344" x2="59" y2="344" stroke="#000000" stroke-width="1" /><text x="51" y="348.2" font-size="12" text-anchor="end">10</text><line x1="54" y1="269" x2="59" y2="269" stroke="#000000" stroke-width="1" /><text x="51" y="273.2" font-size="12" text-anchor="end">15</text><line x1="54" y1="194" x2="59" y2="194" stroke="#000000" stroke-width="1" /><text x="51" y="198.20000000000002" font-size="12" text-anchor="end">20</text><line x1="54" y1="119" x2="59" y2="119" stroke="#000000" stroke-width="1" /><text x="51" y="123.2" font-size="12" text-anchor="end">25</text><line x1="54" y1="44" x2="59" y2="44" stroke="#000000" stroke-width="1" /><text x="51" y="48.2" font-size="12" text-anchor="end">30</text><text x="359" y="538" font-size="14" text-anchor="middle">X</text><text x="15" y="272.5" font-size="14" text-anchor="middle" transform="rotate(-90,15,272.5)">Y</text><text x="359" y="22" font-size="18" text-anchor="middle">Colorbar: Sci Format</text><rect x="339" y="404" width="20" height="15" fill="#440154" /><rect x="419" y="389" width="20" height="15" fill="#440154" /><rect x="319" y="374" width="20" height="15" fill="#440154" /><rect x="339" y="374" width="20" height="15" fill="#440154" /><rect x="379" y="374" width="20" height="15" fill="#440154" /><rect x="399" y="374" width="20" height="15" fill="#440154" /><rect x="259" y="359" width="20" height="15" fill="#440154" /><rect x="279" y="359" width="20" height="15" fill="#440154" /><rect x="299" y="359" width="20" height="15" fill="#440155" /><rect x="319" y="359" width="20" height="15" fill="#440255" /><rect x="339" y="359" width="20" height="15" fill="#440256" /><rect x="359" y="359" width="20" height="15" fill="#440357" /><rect x="379" y="359" width="20" height="15" fill="#440155" /><rect x="399" y="359" width="20" height="15" fill="#440155" /><rect x="419" y="359" width="20" height="15" fill="#440154" /><rect x="439" y="359" width="20" height="15" fill="#440154" /><rect x="459" y="359" width="20" height="15" fill="#440154" /><rect x="219" y="344" width="20" height="15" fill="#440154" /><rect x="239" y="344" width="20" height="15" fill="#440154" /><rect x="259" y="344" width="20" height="15" fill="#440155" /><rect x="279" y="344" width="20" height="15" fill="#440457" /><rect x="299" y="344" width="20" height="15" fill="#450458" /><rect x="319" y="344" width="20" height="15" fill="#450559" /><rect x="339" y="344" width="20" height="15" fill="#460a5d" /><rect x="359" y="344" width="20" height="15" fill="#460a5d" /><rect x="379" y="344" width="20" height="15" fill="#46085c" /><rect x="399" y="344" width="20" height="15" fill="#450458" /><rect x="419" y="344" width="20" height="15" fill="#440256" /><rect x="439" y="344" width="20" height="15" fill="#440154" /><rect x="479" y="344" width="20" height="15" fill="#440154" /><rect x="219" y="329" width="20" height="15" fill="#440154" /><rect x="239" y="329" width="20" height="15" fill="#440154" /><rect x="259" y="329" width="20" height="15" fill="#440457" /><rect x="279" y="329" width="20" height="15" fill="#45075b" /><rect x="299" y="329" width="20" height="15" fill="#470f62" /><rect x="319" y="329" width="20" height="15" fill="#481a6c" /><rect x="339" y="329" width="20" height="15" fill="#481e6f" /><rect x="359" y="329" width="20" height="15" fill="#481f70" /><rect x="379" y="329" width="20" height="15" fill="#481c6e" /><rect x="399" y="329" width="20" height="15" fill="#471063" /><rect x="419" y="329" width="20" height="15" fill="#46085c" /><rect x="439" y="329" width="20" height="15" fill="#440356" /><rect x="459" y="329" width="20" height="15" fill="#440155" /><rect x="479" y="329" width="20" height="15" fill="#440154" /><rect x="179" y="314" width="20" height="15" fill="#440154" /><rect x="199" y="314" width="20" height="15" fill="#440154" /><rect x="219" y="314" width="20" height="15" fill="#440154" /><rect x="239" y="314" width="20" height="15" fill="#440357" /><rect x="259" y="314" width="20" height="15" fill="#450659" /><rect x="279" y="314" width="20" height="15" fill="#471467" /><rect x="299" y="314" width="20" height="15" fill="#482576" /><rect x="319" y="314" width="20" height="15" fill="#423d84" /><rect x="339" y="314" width="20" height="15" fill="#3d4c89" /><rect x="359" y="314" width="20" height="15" fill="#3f4587" /><rect x="379" y="314" width="20" height="15" fill="#433c84" /><rect x="399" y="314" width="20" height="15" fill="#482173" /><rect x="419" y="314" width="20" height="15" fill="#481769" /><rect x="439" y="314" width="20" height="15" fill="#45075b" /><rect x="459" y="314" width="20" height="15" fill="#440256" /><rect x="479" y="314" width="20" height="15" fill="#440154" /><rect x="199" y="299" width="20" height="15" fill="#440154" /><rect x="219" y="299" width="20" height="15" fill="#440155" /><rect x="239" y="299" width="20" height="15" fill="#450559" /><rect x="259" y="299" width="20" height="15" fill="#470e61" /><rect x="279" y="299" width="20" height="15" fill="#482777" /><rect x="299" y="299" width="20" height="15" fill="#3c4f8a" /><rect x="319" y="299" width="20" height="15" fill="#2a758e" /><rect x="339" y="299" width="20" height="15" fill="#218c8d" /><rect x="359" y="299" width="20" height="15" fill="#218d8d" /><rect x="379" y="299" width="20" height="15" fill="#2d708e" /><rect x="399" y="299" width="20" height="15" fill="#3e4989" /><rect x="419" y="299" width="20" height="15" fill="#482576" /><rect x="439" y="299" width="20" height="15" fill="#470e61" /><rect x="459" y="299" width="20" height="15" fill="#450458" /><rect x="479" y="299" width="20" height="15" fill="#440154" /><rect x="499" y="299" width="20" height="15" fill="#440154" /><rect x="519" y="299" width="20" height="15" fill="#440154" /><rect x="179" y="284" width="20" height="15" fill="#440154" /><rect x="199" y="284" width="20" height="15" fill="#440154" /><rect x="219" y="284" width="20" height="15" fill="#440255" /><rect x="239" y="284" width="20" height="15" fill="#450659" /><rect x="259" y="284" width="20" height="15" fill="#481a6c" /><rect x="279" y="284" width="20" height="15" fill="#423e85" /><rect x="299" y="284" width="20" height="15" fill="#2d6e8e" /><rect x="319" y="284" width="20" height="15" fill="#27ad80" /><rect x="339" y="284" width="20" height="15" fill="#74d054" /><rect x="359" y="284" width="20" height="15" fill="#6dcd58" /><rect x="379" y="284" width="20" height="15" fill="#22a883" /><rect x="399" y="284" width="20" height="15" fill="#29778e" /><rect x="419" y="284" width="20" height="15" fill="#423e85" /><rect x="439" y="284" width="20" height="15" fill="#48196b" /><rect x="459" y="284" width="20" height="15" fill="#45075b" /><rect x="479" y="284" width="20" height="15" fill="#440256" /><rect x="499" y="284" width="20" height="15" fill="#440154" /><rect x="179" y="269" width="20" height="15" fill="#440154" /><rect x="199" y="269" width="20" height="15" fill="#440154" /><rect x="219" y="269" width="20" height="15" fill="#440256" /><rect x="239" y="269" width="20" height="15" fill="#470e61" /><rect x="259" y="269" width="20" height="15" fill="#481e6f" /><rect x="279" y="269" width="20" height="15" fill="#3e4889" /><rect x="299" y="269" width="20" height="15" fill="#218c8d" /><rect x="319" y="269" width="20" height="15" fill="#5ac763" /><rect x="339" y="269" width="20" height="15" fill="#fde725" /><rect x="359" y="269" width="20" height="15" fill="#eae41a" /><rect x="379" y="269" width="20" height="15" fill="#52c468" /><rect x="399" y="269" width="20" height="15" fill="#23868d" /><rect x="419" y="269" width="20" height="15" fill="#3e4888" /><rect x="439" y="269" width="20" height="15" fill="#482071" /><rect x="459" y="269" width="20" height="15" fill="#46095c" /><rect x="479" y="269" width="20" height="15" fill="#440357" /><rect x="499" y="269" width="20" height="15" fill="#440154" /><rect x="519" y="269" width="20" height="15" fill="#440154" /><rect x="199" y="254" width="20" height="15" fill="#440154" /><rect x="219" y="254" width="20" height="15" fill="#440255" /><rect x="239" y="254" width="20" height="15" fill="#460a5d" /><rect x="259" y="254" width="20" height="15" fill="#481e6f" /><rect x="279" y="254" width="20" height="15" fill="#3d4c8a" /><rect x="299" y="254" width="20" height="15" fill="#22898d" /><rect x="319" y="254" width="20" height="15" fill="#58c764" /><rect x="339" y="254" width="20" height="15" fill="#e3e318" /><rect x="359" y="254" width="20" height="15" fill="#e2e318" /><rect x="379" y="254" width="20" height="15" fill="#75d053" /><rect x="399" y="254" width="20" height="15" fill="#228b8d" /><rect x="419" y="254" width="20" height="15" fill="#3e4a89" /><rect x="439" y="254" width="20" height="15" fill="#482071" /><rect x="459" y="254" width="20" height="15" fill="#460a5d" /><rect x="479" y="254" width="20" height="15" fill="#440356" /><rect x="499" y="254" width="20" height="15" fill="#440155" /><rect x="199" y="239" width="20" height="15" fill="#440154" /><rect x="219" y="239" width="20" height="15" fill="#440255" /><rect x="239" y="239" width="20" height="15" fill="#45085c" /><rect x="259" y="239" width="20" height="15" fill="#481c6e" /><rect x="279" y="239" width="20" height="15" fill="#423d84" /><rect x="299" y="239" width="20" height="15" fill="#2c708e" /><rect x="319" y="239" width="20" height="15" fill="#22a883" /><rect x="339" y="239" width="20" height="15" fill="#64cb5e" /><rect x="359" y="239" width="20" height="15" fill="#70cf56" /><rect x="379" y="239" width="20" height="15" fill="#26ac81" /><rect x="399" y="239" width="20" height="15" fill="#2d6e8e" /><rect x="419" y="239" width="20" height="15" fill="#423f85" /><rect x="439" y="239" width="20" height="15" fill="#48186a" /><rect x="459" y="239" width="20" height="15" fill="#45085c" /><rect x="479" y="239" width="20" height="15" fill="#440256" /><rect x="499" y="239" width="20" height="15" fill="#440154" /><rect x="179" y="224" width="20" height="15" fill="#440154" /><rect x="199" y="224" width="20" height="15" fill="#440154" /><rect x="219" y="224" width="20" height="15" fill="#440155" /><rect x="239" y="224" width="20" height="15" fill="#450458" /><rect x="259" y="224" width="20" height="15" fill="#471264" /><rect x="279" y="224" width="20" height="15" fill="#472b7a" /><rect x="299" y="224" width="20" height="15" fill="#3d4b89" /><rect x="319" y="224" width="20" height="15" fill="#29788d" /><rect x="339" y="224" width="20" height="15" fill="#23878e" /><rect x="359" y="224" width="20" height="15" fill="#218c8d" /><rect x="379" y="224" width="20" height="15" fill="#2e6c8e" /><rect x="399" y="224" width="20" height="15" fill="#3d4c89" /><rect x="419" y="224" width="20" height="15" fill="#472b7a" /><rect x="439" y="224" width="20" height="15" fill="#460d60" /><rect x="459" y="224" width="20" height="15" fill="#450659" /><rect x="479" y="224" width="20" height="15" fill="#440155" /><rect x="499" y="224" width="20" height="15" fill="#440154" /><rect x="219" y="209" width="20" height="15" fill="#440154" /><rect x="239" y="209" width="20" height="15" fill="#450458" /><rect x="259" y="209" width="20" height="15" fill="#45085b" /><rect x="279" y="209" width="20" height="15" fill="#481668" /><rect x="299" y="209" width="20" height="15" fill="#482777" /><rect x="319" y="209" width="20" height="15" fill="#423f85" /><rect x="339" y="209" width="20" height="15" fill="#3e4888" /><rect x="359" y="209" width="20" height="15" fill="#3e4888" /><rect x="379" y="209" width="20" height="15" fill="#414186" /><rect x="399" y="209" width="20" height="15" fill="#482576" /><rect x="419" y="209" width="20" height="15" fill="#471365" /><rect x="439" y="209" width="20" height="15" fill="#46095c" /><rect x="459" y="209" width="20" height="15" fill="#440356" /><rect x="479" y="209" width="20" height="15" fill="#440154" /><rect x="499" y="209" width="20" height="15" fill="#440154" /><rect x="219" y="194" width="20" height="15" fill="#440154" /><rect x="239" y="194" width="20" height="15" fill="#440155" /><rect x="259" y="194" width="20" height="15" fill="#440356" /><rect x="279" y="194" width="20" height="15" fill="#45075b" /><rect x="299" y="194" width="20" height="15" fill="#470e61" /><rect x="319" y="194" width="20" height="15" fill="#481b6d" /><rect x="339" y="194" width="20" height="15" fill="#471f70" /><rect x="359" y="194" width="20" height="15" fill="#481f70" /><rect x="379" y="194" width="20" height="15" fill="#481b6d" /><rect x="399" y="194" width="20" height="15" fill="#470e61" /><rect x="419" y="194" width="20" height="15" fill="#46085b" /><rect x="439" y="194" width="20" height="15" fill="#450558" /><rect x="459" y="194" width="20" height="15" fill="#440154" /><rect x="239" y="179" width="20" height="15" fill="#440154" /><rect x="259" y="179" width="20" height="15" fill="#440255" /><rect x="279" y="179" width="20" height="15" fill="#440356" /><rect x="299" y="179" width="20" height="15" fill="#450559" /><rect x="319" y="179" width="20" height="15" fill="#45085b" /><rect x="339" y="179" width="20" height="15" fill="#45075a" /><rect x="359" y="179" width="20" height="15" fill="#460a5d" /><rect x="379" y="179" width="20" height="15" fill="#46085c" /><rect x="399" y="179" width="20" height="15" fill="#450458" /><rect x="419" y="179" width="20" height="15" fill="#440356" /><rect x="439" y="179" width="20" height="15" fill="#440155" /><rect x="459" y="179" width="20" height="15" fill="#440154" /><rect x="259" y="164" width="20" height="15" fill="#440154" /><rect x="299" y="164" width="20" height="15" fill="#440154" /><rect x="319" y="164" width="20" height="15" fill="#440155" /><rect x="339" y="164" width="20" height="15" fill="#440356" /><rect x="359" y="164" width="20" height="15" fill="#440256" /><rect x="379" y="164" width="20" height="15" fill="#440255" /><rect x="399" y="164" width="20" height="15" fill="#440154" /><rect x="419" y="164" width="20" height="15" fill="#440154" /><rect x="439" y="164" width="20" height="15" fill="#440154" /><rect x="459" y="164" width="20" height="15" fill="#440154" /><rect x="279" y="149" width="20" height="15" fill="#440154" /><rect x="299" y="149" width="20" height="15" fill="#440154" /><rect x="319" y="149" width="20" height="15" fill="#440154" /><rect x="339" y="149" width="20" height="15" fill="#440154" /><rect x="359" y="149" width="20" height="15" fill="#440154" /><rect x="379" y="149" width="20" height="15" fill="#440154" /><rect x="439" y="149" width="20" height="15" fill="#440154" /><rect x="339" y="134" width="20" height="15" fill="#440154" /><rect x="359" y="134" width="20" height="15" fill="#440154" /><rect x="399" y="134" width="20" height="15" fill="#440154" /><rect x="419" y="134" width="20" height="15" fill="#440154" /><rect x="688" y="89" width="20" height="7.7" fill="#fde725" /><rect x="688" y="96.2" width="20" height="7.7" fill="#f0e51c" /><rect x="688" y="103.4" width="20" height="7.7" fill="#e3e318" /><rect x="688" y="110.60000000000001" width="20" height="7.7" fill="#d6e219" /><rect x="688" y="117.8" width="20" height="7.7" fill="#c8e01f" /><rect x="688" y="125" width="20" height="7.7" fill="#bade27" /><rect x="688" y="132.2" width="20" height="7.7" fill="#acdc30" /><rect x="688" y="139.4" width="20" height="7.7" fill="#9ed939" /><rect x="688" y="146.6" width="20" height="7.7" fill="#91d642" /><rect x="688" y="153.8" width="20" height="7.7" fill="#84d44a" /><rect x="688" y="161" width="20" height="7.7" fill="#77d052" /><rect x="688" y="168.20000000000002" width="20" height="7.7" fill="#6bcd5a" /><rect x="688" y="175.4" width="20" height="7.7" fill="#5fc960" /><rect x="688" y="182.6" width="20" height="7.7" fill="#54c567" /><rect x="688" y="189.8" width="20" height="7.7" fill="#4ac16c" /><rect x="688" y="197" width="20" height="7.7" fill="#40bc72" /><rect x="688" y="204.20000000000002" width="20" height="7.7" fill="#37b877" /><rect x="688" y="211.4" width="20" height="7.7" fill="#30b47b" /><rect x="688" y="218.6" width="20" height="7.7" fill="#29af7f" /><rect x="688" y="225.8" width="20" height="7.7" fill="#24ab82" /><rect x="688" y="233" width="20" height="7.7" fill="#21a585" /><rect x="688" y="240.20000000000002" width="20" height="7.7" fill="#1fa187" /><rect x="688" y="247.4" width="20" height="7.7" fill="#1e9c89" /><rect x="688" y="254.6" width="20" height="7.7" fill="#1f978a" /><rect x="688" y="261.8" width="20" height="7.7" fill="#1f928c" /><rect x="688" y="269" width="20" height="7.7" fill="#218d8d" /><rect x="688" y="276.2" width="20" height="7.7" fill="#23888d" /><rect x="688" y="283.40000000000003" width="20" height="7.7" fill="#25838e" /><rect x="688" y="290.6" width="20" height="7.7" fill="#267f8d" /><rect x="688" y="297.8" width="20" height="7.7" fill="#287a8e" /><rect x="688" y="305" width="20" height="7.7" fill="#2a748d" /><rect x="688" y="312.2" width="20" height="7.7" fill="#2c708e" /><rect x="688" y="319.40000000000003" width="20" height="7.7" fill="#2f6b8e" /><rect x="688" y="326.6" width="20" height="7.7" fill="#31668e" /><rect x="688" y="333.8" width="20" height="7.7" fill="#33618c" /><rect x="688" y="341" width="20" height="7.7" fill="#365b8c" /><rect x="688" y="348.2" width="20" height="7.7" fill="#38558c" /><rect x="688" y="355.40000000000003" width="20" height="7.7" fill="#3b508a" /><rect x="688" y="362.6" width="20" height="7.7" fill="#3d4a89" /><rect x="688" y="369.8" width="20" height="7.7" fill="#404587" /><rect x="688" y="377" width="20" height="7.7" fill="#423e85" /><rect x="688" y="384.2" width="20" height="7.7" fill="#443882" /><rect x="688" y="391.40000000000003" width="20" height="7.7" fill="#46327e" /><rect x="688" y="398.6" width="20" height="7.7" fill="#472c7a" /><rect x="688" y="405.8" width="20" height="7.7" fill="#482576" /><rect x="688" y="413" width="20" height="7.7" fill="#471e6f" /><rect x="688" y="420.2" width="20" height="7.7" fill="#481769" /><rect x="688" y="427.40000000000003" width="20" height="7.7" fill="#471063" /><rect x="688" y="434.6" width="20" height="7.7" fill="#46085c" /><rect x="688" y="441.8" width="20" height="7.7" fill="#440154" /><rect x="688" y="89" width="20" height="360" fill="none" stroke="#000000" stroke-width="1" /><line x1="708" y1="449" x2="712" y2="449" stroke="#000000" stroke-width="1" /><text x="713" y="453" font-size="12" text-anchor="start">0</text><line x1="708" y1="352.17" x2="712" y2="352.17" stroke="#000000" stroke-width="1" /><text x="713" y="356.17" font-size="12" text-anchor="start">5e2</text><line x1="708" y1="255.35" x2="712" y2="255.35" stroke="#000000" stroke-width="1" /><text x="713" y="259.35" font-size="12" text-anchor="start">1e3</text><line x1="708" y1="158.52" x2="712" y2="158.52" stroke="#000000" stroke-width="1" /><text x="713" y="162.52" font-size="12" text-anchor="start">1.5e3</text><text x="698" y="83" font-size="12" text-anchor="middle">Count</text></svg>