<svg xmlns="http://www.w3.org/2000/svg" width="771.2" height="545" font-family="DejaVu Sans, Liberation Sans, Arial, sans-serif" fill="black"><rect width="100%" height="100%" fill="white" /><line x1="72.2" y1="494" x2="672.2" y2="494" stroke="#000000" stroke-width="1" /><line x1="72.2" y1="44" x2="72.2" y2="494" stroke="#000000" stroke-width="1" /><line x1="222.20000000000002" y1="44" x2="222.20000000000002" y2="494" stroke="#cccccc" stroke-width="1" /><line x1="372.2" y1="44" x2="372.2" y2="494" stroke="#cccccc" stroke-width="1" /><line x1="522.2" y1="44" x2="522.2" y2="494" stroke="#cccccc" stroke-width="1" /><line x1="672.2" y1="44" x2="672.2" y2="494" stroke="#cccccc" stroke-width="1" /><line x1="72.2" y1="381.5" x2="672.2" y2="381.5" stroke="#cccccc" stroke-width="1" /><line x1="72.2" y1="269" x2="672.2" y2="269" stroke="#cccccc" stroke-width="1" /><line x1="72.2" y1="156.5" x2="672.2" y2="156.5" stroke="#cccccc" stroke-width="1" /><line x1="72.2" y1="44" x2="672.2" y2="44" stroke="#cccccc" stroke-width="1" /><line x1="72.2" y1="494" x2="72.2" y2="499" stroke="#000000" stroke-width="1" /><text x="72.2" y="511" font-size="12" text-anchor="middle">0</text><line x1="222.20000000000002" y1="494" x2="222.20000000000002" y2="499" stroke="#000000" stroke-width="1" /><text x="222.20000000000002" y="511" font-size="12" text-anchor="middle">5</text><line x1="372.2" y1="494" x2="372.2" y2="499" stroke="#000000" stroke-width="1" /><text x="372.2" y="511" font-size="12" text-anchor="middle">10</text><line x1="522.2" y1="494" x2="522.2" y2="499" stroke="#000000" stroke-width="1" /><text x="522.2" y="511" font-size="12" text-anchor="middle">15</text><line x1="672.2" y1="494" x2="672.2" y2="499" stroke="#000000" stroke-width="1" /><text x="672.2" y="511" font-size="12" text-anchor="middle">20</text><line x1="67.2" y1="494" x2="72.2" y2="494" stroke="#000000" stroke-width="1" /><text x="64.2" y="498.2" font-size="12" text-anchor="end">0</text><line x1="67.2" y1="381.5" x2="72.2" y2="381.5" stroke="#000000" stroke-width="1" /><text x="64.2" y="385.7" font-size="12" text-anchor="end">5</text><line x1="67.2" y1="269" x2="72.2" y2="269" stroke="#000000" stroke-width="1" /><text x="64.2" y="273.2" font-size="12" text-anchor="end">10</text><line x1="67.2" y1="156.5" x2="72.2" y2="156.5" stroke="#000000" stroke-width="1" /><text x="64.2" y="160.70000000000002" font-size="12" text-anchor="end">15</text><line x1="67.2" y1="44" x2="72.2" y2="44" stroke="#000000" stroke-width="1" /><text x="64.2" y="48.2" font-size="12" text-anchor="end">20</text><text x="372.2" y="538" font-size="14" text-anchor="middle">X</text><text x="7" y="272.5" font-size="14" text-anchor="middle" transform="rotate(-90,7,272.5)">Y</text><text x="372.2" y="22" font-size="18" text-anchor="middle">Correlated Variables (r ≈ 0.85)</text><rect x="168.20000000000002" y="422" width="24" height="18" fill="#450558" /><rect x="192.20000000000002" y="404" width="24" height="18" fill="#440256" /><rect x="240.20000000000002" y="404" width="24" height="18" fill="#450558" /><rect x="144.20000000000002" y="386" width="24" height="18" fill="#440256" /><rect x="192.20000000000002" y="386" width="24" height="18" fill="#45075a" /><rect x="216.20000000000002" y="386" width="24" height="18" fill="#440256" /><rect x="240.20000000000002" y="386" width="24" height="18" fill="#440256" /><rect x="264.2" y="386" width="24" height="18" fill="#46095c" /><rect x="168.20000000000002" y="368" width="24" height="18" fill="#450558" /><rect x="192.20000000000002" y="368" width="24" height="18" fill="#450558" /><rect x="216.20000000000002" y="368" width="24" height="18" fill="#471467" /><rect x="240.20000000000002" y="368" width="24" height="18" fill="#481a6c" /><rect x="264.2" y="368" width="24" height="18" fill="#471467" /><rect x="288.2" y="368" width="24" height="18" fill="#440256" /><rect x="312.2" y="368" width="24" height="18" fill="#450558" /><rect x="192.20000000000002" y="350" width="24" height="18" fill="#450558" /><rect x="216.20000000000002" y="350" width="24" height="18" fill="#48186a" /><rect x="240.20000000000002" y="350" width="24" height="18" fill="#453681" /><rect x="264.2" y="350" width="24" height="18" fill="#3b4f8a" /><rect x="288.2" y="350" width="24" height="18" fill="#482777" /><rect x="312.2" y="350" width="24" height="18" fill="#460b5e" /><rect x="336.2" y="350" width="24" height="18" fill="#450558" /><rect x="192.20000000000002" y="332" width="24" height="18" fill="#450558" /><rect x="216.20000000000002" y="332" width="24" height="18" fill="#460d60" /><rect x="240.20000000000002" y="332" width="24" height="18" fill="#472979" /><rect x="264.2" y="332" width="24" height="18" fill="#3b4f8a" /><rect x="288.2" y="332" width="24" height="18" fill="#38578b" /><rect x="312.2" y="332" width="24" height="18" fill="#453480" /><rect x="336.2" y="332" width="24" height="18" fill="#481a6c" /><rect x="360.2" y="332" width="24" height="18" fill="#46095c" /><rect x="216.20000000000002" y="314" width="24" height="18" fill="#450558" /><rect x="240.20000000000002" y="314" width="24" height="18" fill="#481e6f" /><rect x="264.2" y="314" width="24" height="18" fill="#365c8d" /><rect x="288.2" y="314" width="24" height="18" fill="#1fa087" /><rect x="312.2" y="314" width="24" height="18" fill="#26ac81" /><rect x="336.2" y="314" width="24" height="18" fill="#30698e" /><rect x="360.2" y="314" width="24" height="18" fill="#471c6e" /><rect x="384.2" y="314" width="24" height="18" fill="#46095c" /><rect x="216.20000000000002" y="296" width="24" height="18" fill="#450558" /><rect x="240.20000000000002" y="296" width="24" height="18" fill="#471264" /><rect x="264.2" y="296" width="24" height="18" fill="#39558c" /><rect x="288.2" y="296" width="24" height="18" fill="#20a485" /><rect x="312.2" y="296" width="24" height="18" fill="#27ad80" /><rect x="336.2" y="296" width="24" height="18" fill="#40bd71" /><rect x="360.2" y="296" width="24" height="18" fill="#29778e" /><rect x="384.2" y="296" width="24" height="18" fill="#46307d" /><rect x="408.2" y="296" width="24" height="18" fill="#471264" /><rect x="240.20000000000002" y="278" width="24" height="18" fill="#45075a" /><rect x="264.2" y="278" width="24" height="18" fill="#482777" /><rect x="288.2" y="278" width="24" height="18" fill="#39558c" /><rect x="312.2" y="278" width="24" height="18" fill="#64cb5d" /><rect x="336.2" y="278" width="24" height="18" fill="#9ad83c" /><rect x="360.2" y="278" width="24" height="18" fill="#4cc26b" /><rect x="384.2" y="278" width="24" height="18" fill="#29788e" /><rect x="408.2" y="278" width="24" height="18" fill="#46327e" /><rect x="432.2" y="278" width="24" height="18" fill="#450558" /><rect x="456.2" y="278" width="24" height="18" fill="#440256" /><rect x="264.2" y="260" width="24" height="18" fill="#45075a" /><rect x="288.2" y="260" width="24" height="18" fill="#462e7c" /><rect x="312.2" y="260" width="24" height="18" fill="#32638d" /><rect x="336.2" y="260" width="24" height="18" fill="#92d741" /><rect x="360.2" y="260" width="24" height="18" fill="#fde725" /><rect x="384.2" y="260" width="24" height="18" fill="#92d741" /><rect x="408.2" y="260" width="24" height="18" fill="#345f8d" /><rect x="432.2" y="260" width="24" height="18" fill="#471c6e" /><rect x="456.2" y="260" width="24" height="18" fill="#450558" /><rect x="288.2" y="242" width="24" height="18" fill="#46095c" /><rect x="312.2" y="242" width="24" height="18" fill="#453681" /><rect x="336.2" y="242" width="24" height="18" fill="#287a8e" /><rect x="360.2" y="242" width="24" height="18" fill="#64cb5d" /><rect x="384.2" y="242" width="24" height="18" fill="#e7e419" /><rect x="408.2" y="242" width="24" height="18" fill="#39b976" /><rect x="432.2" y="242" width="24" height="18" fill="#31658e" /><rect x="456.2" y="242" width="24" height="18" fill="#48186a" /><rect x="480.2" y="242" width="24" height="18" fill="#440256" /><rect x="312.2" y="224" width="24" height="18" fill="#460d60" /><rect x="336.2" y="224" width="24" height="18" fill="#481e6f" /><rect x="360.2" y="224" width="24" height="18" fill="#29778e" /><rect x="384.2" y="224" width="24" height="18" fill="#43be70" /><rect x="408.2" y="224" width="24" height="18" fill="#9ed93a" /><rect x="432.2" y="224" width="24" height="18" fill="#218c8c" /><rect x="456.2" y="224" width="24" height="18" fill="#472d7b" /><rect x="480.2" y="224" width="24" height="18" fill="#48186a" /><rect x="504.2" y="224" width="24" height="18" fill="#440256" /><rect x="336.2" y="206" width="24" height="18" fill="#45075a" /><rect x="360.2" y="206" width="24" height="18" fill="#472979" /><rect x="384.2" y="206" width="24" height="18" fill="#355d8d" /><rect x="408.2" y="206" width="24" height="18" fill="#26818e" /><rect x="432.2" y="206" width="24" height="18" fill="#228a8d" /><rect x="456.2" y="206" width="24" height="18" fill="#345f8d" /><rect x="480.2" y="206" width="24" height="18" fill="#481f71" /><rect x="504.2" y="206" width="24" height="18" fill="#460b5e" /><rect x="528.2" y="206" width="24" height="18" fill="#440256" /><rect x="360.2" y="188" width="24" height="18" fill="#450558" /><rect x="384.2" y="188" width="24" height="18" fill="#48186a" /><rect x="408.2" y="188" width="24" height="18" fill="#433b83" /><rect x="432.2" y="188" width="24" height="18" fill="#3f4788" /><rect x="456.2" y="188" width="24" height="18" fill="#39558c" /><rect x="480.2" y="188" width="24" height="18" fill="#423e85" /><rect x="504.2" y="188" width="24" height="18" fill="#46095c" /><rect x="384.2" y="170" width="24" height="18" fill="#46095c" /><rect x="408.2" y="170" width="24" height="18" fill="#46095c" /><rect x="432.2" y="170" width="24" height="18" fill="#481e6f" /><rect x="456.2" y="170" width="24" height="18" fill="#46307d" /><rect x="480.2" y="170" width="24" height="18" fill="#482173" /><rect x="504.2" y="170" width="24" height="18" fill="#471668" /><rect x="528.2" y="170" width="24" height="18" fill="#450558" /><rect x="552.2" y="170" width="24" height="18" fill="#440256" /><rect x="408.2" y="152" width="24" height="18" fill="#450558" /><rect x="432.2" y="152" width="24" height="18" fill="#450558" /><rect x="456.2" y="152" width="24" height="18" fill="#471264" /><rect x="480.2" y="152" width="24" height="18" fill="#481a6c" /><rect x="504.2" y="152" width="24" height="18" fill="#46095c" /><rect x="528.2" y="152" width="24" height="18" fill="#45075a" /><rect x="552.2" y="152" width="24" height="18" fill="#450558" /><rect x="456.2" y="134" width="24" height="18" fill="#46095c" /><rect x="480.2" y="134" width="24" height="18" fill="#450558" /><rect x="504.2" y="134" width="24" height="18" fill="#46095c" /><rect x="528.2" y="134" width="24" height="18" fill="#440256" /><rect x="552.2" y="134" width="24" height="18" fill="#440256" /><rect x="528.2" y="116" width="24" height="18" fill="#450558" /><text x="651.2" y="64" font-size="12" text-anchor="end">r = 0.84</text><rect x="701.2" y="89" width="20" height="7.7" fill="#fde725" /><rect x="701.2" y="96.2" width="20" height="7.7" fill="#f0e51c" /><rect x="701.2" y="103.4" width="20" height="7.7" fill="#e3e318" /><rect x="701.2" y="110.60000000000001" width="20" height="7.7" fill="#d6e219" /><rect x="701.2" y="117.8" width="20" height="7.7" fill="#c8e01f" /><rect x="701.2" y="125" width="20" height="7.7" fill="#bade27" /><rect x="701.2" y="132.2" width="20" height="7.7" fill="#acdc30" /><rect x="701.2" y="139.4" width="20" height="7.7" fill="#9ed939" /><rect x="701.2" y="146.6" width="20" height="7.7" fill="#91d642" /><rect x="701.2" y="153.8" width="20" height="7.7" fill="#84d44a" /><rect x="701.2" y="161" width="20" height="7.7" fill="#77d052" /><rect x="701.2" y="168.20000000000002" width="20" height="7.7" fill="#6bcd5a" /><rect x="701.2" y="175.4" width="20" height="7.7" fill="#5fc960" /><rect x="701.2" y="182.6" width="20" height="7.7" fill="#54c567" /><rect x="701.2" y="189.8" width="20" height="7.7" fill="#4ac16c" /><rect x="701.2" y="197" width="20" height="7.7" fill="#40bc72" /><rect x="701.2" y="204.20000000000002" width="20" height="7.7" fill="#37b877" /><rect x="701.2" y="211.4" width="20" height="7.7" fill="#30b47b" /><rect x="701.2" y="218.6" width="20" height="7.7" fill="#29af7f" /><rect x="701.2" y="225.8" width="20" height="7.7" fill="#24ab82" /><rect x="701.2" y="233" width="20" height="7.7" fill="#21a585" /><rect x="701.2" y="240.20000000000002" width="20" height="7.7" fill="#1fa187" /><rect x="701.2" y="247.4" width="20" height="7.7" fill="#1e9c89" /><rect x="701.2" y="254.6" width="20" height="7.7" fill="#1f978a" /><rect x="701.2" y="261.8" width="20" height="7.7" fill="#1f928c" /><rect x="701.2" y="269" width="20" height="7.7" fill="#218d8d" /><rect x="701.2" y="276.2" width="20" height="7.7" fill="#23888d" /><rect x="701.2" y="283.40000000000003" width="20" height="7.7" fill="#25838e" /><rect x="701.2" y="290.6" width="20" height="7.7" fill="#267f8d" /><rect x="701.2" y="297.8" width="20" height="7.7" fill="#287a8e" /><rect x="701.2" y="305" width="20" height="7.7" fill="#2a748d" /><rect x="701.2" y="312.2" width="20" height="7.7" fill="#2c708e" /><rect x="701.2" y="319.40000000000003" width="20" height="7.7" fill="#2f6b8e" /><rect x="701.2" y="326.6" width="20" height="7.7" fill="#31668e" /><rect x="701.2" y="333.8" width="20" height="7.7" fill="#33618c" /><rect x="701.2" y="341" width="20" height="7.7" fill="#365b8c" /><rect x="701.2" y="348.2" width="20" height="7.7" fill="#38558c" /><rect x="701.2" y="355.40000000000003" width="20" height="7.7" fill="#3b508a" /><rect x="701.2" y="362.6" width="20" height="7.7" fill="#3d4a89" /><rect x="701.2" y="369.8" width="20" height="7.7" fill="#404587" /><rect x="701.2" y="377" width="20" height="7.7" fill="#423e85" /><rect x="701.2" y="384.2" width="20" height="7.7" fill="#443882" /><rect x="701.2" y="391.40000000000003" width="20" height="7.7" fill="#46327e" /><rect x="701.2" y="398.6" width="20" height="7.7" fill="#472c7a" /><rect x="701.2" y="405.8" width="20" height="7.7" fill="#482576" /><rect x="701.2" y="413" width="20" height="7.7" fill="#471e6f" /><rect x="701.2" y="420.2" width="20" height="7.7" fill="#481769" /><rect x="701.2" y="427.40000000000003" width="20" height="7.7" fill="#471063" /><rect x="701.2" y="434.6" width="20" height="7.7" fill="#46085c" /><rect x="701.2" y="441.8" width="20" height="7.7" fill="#440154" /><rect x="701.2" y="89" width="20" height="360" fill="none" stroke="#000000" stroke-width="1" /><line x1="721.2" y1="449" x2="725.2" y2="449" stroke="#000000" stroke-width="1" /><text x="727.2" y="453" font-size="12" text-anchor="start">0.0</text><line x1="721.2" y1="397.28000000000003" x2="725.2" y2="397.28000000000003" stroke="#000000" stroke-width="1" /><text x="727.2" y="401.28000000000003" font-size="12" text-anchor="start">25.0</text><line x1="721.2" y1="345.55" x2="725.2" y2="345.55" stroke="#000000" stroke-width="1" /><text x="727.2" y="349.55" font-size="12" text-anchor="start">50.0</text><line x1="721.2" y1="293.83" x2="725.2" y2="293.83" stroke="#000000" stroke-width="1" /><text x="727.2" y="297.83" font-size="12" text-anchor="start">75.0</text><line x1="721.2" y1="242.1" x2="725.2" y2="242.1" stroke="#000000" stroke-width="1" /><text x="727.2" y="246.1" font-size="12" text-anchor="start">100.0</text><line x1="721.2" y1="190.38" x2="725.2" y2="190.38" stroke="#000000" stroke-width="1" /><text x="727.2" y="194.38" font-size="12" text-anchor="start">125.0</text><line x1="721.2" y1="138.66" x2="725.2" y2="138.66" stroke="#000000" stroke-width="1" /><text x="727.2" y="142.66" font-size="12" text-anchor="start">150.0</text><text x="711.2" y="83" font-size="12" text-anchor="middle">Count</text></svg>