<svg xmlns="http://www.w3.org/2000/svg" width="763" height="545" font-family="DejaVu Sans, Liberation Sans, Arial, sans-serif" fill="black"><rect width="100%" height="100%" fill="white" /><defs><clipPath id="kuva-clip-6"><rect x="59" y="44" width="600" height="450"/></clipPath></defs><line x1="159" y1="44" x2="159" y2="494" stroke="#cccccc" stroke-width="1" /><line x1="259" y1="44" x2="259" y2="494" stroke="#cccccc" stroke-width="1" /><line x1="359" y1="44" x2="359" y2="494" stroke="#cccccc" stroke-width="1" /><line x1="459" y1="44" x2="459" y2="494" stroke="#cccccc" stroke-width="1" /><line x1="559" y1="44" x2="559" y2="494" stroke="#cccccc" stroke-width="1" /><line x1="659" y1="44" x2="659" y2="494" stroke="#cccccc" stroke-width="1" /><line x1="59" y1="419" x2="659" y2="419" stroke="#cccccc" stroke-width="1" /><line x1="59" y1="344" x2="659" y2="344" stroke="#cccccc" stroke-width="1" /><line x1="59" y1="269" x2="659" y2="269" stroke="#cccccc" stroke-width="1" /><line x1="59" y1="194" x2="659" y2="194" stroke="#cccccc" stroke-width="1" /><line x1="59" y1="119" x2="659" y2="119" stroke="#cccccc" stroke-width="1" /><line x1="59" y1="44" x2="659" y2="44" stroke="#cccccc" stroke-width="1" /><line x1="59" y1="494" x2="659" y2="494" stroke="#000000" stroke-width="1" /><line x1="59" y1="44" x2="59" y2="494" stroke="#000000" stroke-width="1" /><line x1="59" y1="494" x2="59" y2="499" stroke="#000000" stroke-width="1" /><text x="59" y="511" font-size="12" text-anchor="middle">0</text><line x1="159" y1="494" x2="159" y2="499" stroke="#000000" stroke-width="1" /><text x="159" y="511" font-size="12" text-anchor="middle">5</text><line x1="259" y1="494" x2="259" y2="499" stroke="#000000" stroke-width="1" /><text x="259" y="511" font-size="12" text-anchor="middle">10</text><line x1="359" y1="494" x2="359" y2="499" stroke="#000000" stroke-width="1" /><text x="359" y="511" font-size="12" text-anchor="middle">15</text><line x1="459" y1="494" x2="459" y2="499" stroke="#000000" stroke-width="1" /><text x="459" y="511" font-size="12" text-anchor="middle">20</text><line x1="559" y1="494" x2="559" y2="499" stroke="#000000" stroke-width="1" /><text x="559" y="511" font-size="12" text-anchor="middle">25</text><line x1="659" y1="494" x2="659" y2="499" stroke="#000000" stroke-width="1" /><text x="659" y="511" font-size="12" text-anchor="middle">30</text><line x1="54" y1="494" x2="59" y2="494" stroke="#000000" stroke-width="1" /><text x="51" y="498.2" font-size="12" text-anchor="end">0</text><line x1="54" y1="419" x2="59" y2="419" stroke="#000000" stroke-width="1" /><text x="51" y="423.2" font-size="12" text-anchor="end">5</text><line x1="54" y1="344" x2="59" y2="344" stroke="#000000" stroke-width="1" /><text x="51" y="348.2" font-size="12" text-anchor="end">10</text><line x1="54" y1="269" x2="59" y2="269" stroke="#000000" stroke-width="1" /><text x="51" y="273.2" font-size="12" text-anchor="end">15</text><line x1="54" y1="194" x2="59" y2="194" stroke="#000000" stroke-width="1" /><text x="51" y="198.20000000000002" font-size="12" text-anchor="end">20</text><line x1="54" y1="119" x2="59" y2="119" stroke="#000000" stroke-width="1" /><text x="51" y="123.2" font-size="12" text-anchor="end">25</text><line x1="54" y1="44" x2="59" y2="44" stroke="#000000" stroke-width="1" /><text x="51" y="48.2" font-size="12" text-anchor="end">30</text><text x="359" y="538" font-size="14" text-anchor="middle">X</text><text x="15" y="272.5" font-size="14" text-anchor="middle" transform="rotate(-90,15,272.5)">Y</text><text x="359" y="22" font-size="18" text-anchor="middle">Log Color Scale</text><g clip-path="url(#kuva-clip-6)"><rect x="139" y="479" width="20" height="15" fill="#170b3a" /><rect x="259" y="479" width="20" height="15" fill="#170b3a" /><rect x="419" y="479" width="20" height="15" fill="#170b3a" /><rect x="479" y="479" width="20" height="15" fill="#170b3a" /><rect x="339" y="464" width="20" height="15" fill="#170b3a" /><rect x="359" y="464" width="20" height="15" fill="#170b3a" /><rect x="199" y="449" width="20" height="15" fill="#300a5b" /><rect x="299" y="449" width="20" height="15" fill="#170b3a" /><rect x="359" y="449" width="20" height="15" fill="#170b3a" /><rect x="399" y="449" width="20" height="15" fill="#170b3a" /><rect x="419" y="449" width="20" height="15" fill="#170b3a" /><rect x="239" y="434" width="20" height="15" fill="#170b3a" /><rect x="259" y="434" width="20" height="15" fill="#170b3a" /><rect x="279" y="434" width="20" height="15" fill="#300a5b" /><rect x="299" y="434" width="20" height="15" fill="#170b3a" /><rect x="359" y="434" width="20" height="15" fill="#300a5b" /><rect x="399" y="434" width="20" height="15" fill="#300a5b" /><rect x="119" y="419" width="20" height="15" fill="#170b3a" /><rect x="179" y="419" width="20" height="15" fill="#170b3a" /><rect x="199" y="419" width="20" height="15" fill="#170b3a" /><rect x="259" y="419" width="20" height="15" fill="#300a5b" /><rect x="279" y="419" width="20" height="15" fill="#300a5b" /><rect x="299" y="419" width="20" height="15" fill="#420a67" /><rect x="319" y="419" width="20" height="15" fill="#300a5b" /><rect x="359" y="419" width="20" height="15" fill="#300a5b" /><rect x="379" y="419" width="20" height="15" fill="#300a5b" /><rect x="399" y="419" width="20" height="15" fill="#170b3a" /><rect x="419" y="419" width="20" height="15" fill="#170b3a" /><rect x="479" y="419" width="20" height="15" fill="#170b3a" /><rect x="579" y="419" width="20" height="15" fill="#170b3a" /><rect x="179" y="404" width="20" height="15" fill="#170b3a" /><rect x="259" y="404" width="20" height="15" fill="#170b3a" /><rect x="279" y="404" width="20" height="15" fill="#170b3a" /><rect x="299" y="404" width="20" height="15" fill="#5a116e" /><rect x="319" y="404" width="20" height="15" fill="#420a67" /><rect x="339" y="404" width="20" height="15" fill="#63146e" /><rect x="359" y="404" width="20" height="15" fill="#170b3a" /><rect x="399" y="404" width="20" height="15" fill="#420a67" /><rect x="439" y="404" width="20" height="15" fill="#300a5b" /><rect x="479" y="404" width="20" height="15" fill="#170b3a" /><rect x="559" y="404" width="20" height="15" fill="#170b3a" /><rect x="159" y="389" width="20" height="15" fill="#170b3a" /><rect x="199" y="389" width="20" height="15" fill="#170b3a" /><rect x="219" y="389" width="20" height="15" fill="#170b3a" /><rect x="239" y="389" width="20" height="15" fill="#420a67" /><rect x="259" y="389" width="20" height="15" fill="#300a5b" /><rect x="279" y="389" width="20" height="15" fill="#300a5b" /><rect x="299" y="389" width="20" height="15" fill="#170b3a" /><rect x="319" y="389" width="20" height="15" fill="#420a67" /><rect x="339" y="389" width="20" height="15" fill="#300a5b" /><rect x="359" y="389" width="20" height="15" fill="#300a5b" /><rect x="379" y="389" width="20" height="15" fill="#63146e" /><rect x="399" y="389" width="20" height="15" fill="#300a5b" /><rect x="419" y="389" width="20" height="15" fill="#300a5b" /><rect x="439" y="389" width="20" height="15" fill="#170b3a" /><rect x="459" y="389" width="20" height="15" fill="#500d6c" /><rect x="479" y="389" width="20" height="15" fill="#300a5b" /><rect x="499" y="389" width="20" height="15" fill="#500d6c" /><rect x="559" y="389" width="20" height="15" fill="#170b3a" /><rect x="99" y="374" width="20" height="15" fill="#170b3a" /><rect x="219" y="374" width="20" height="15" fill="#300a5b" /><rect x="239" y="374" width="20" height="15" fill="#300a5b" /><rect x="259" y="374" width="20" height="15" fill="#420a67" /><rect x="279" y="374" width="20" height="15" fill="#300a5b" /><rect x="299" y="374" width="20" height="15" fill="#420a67" /><rect x="319" y="374" width="20" height="15" fill="#500d6c" /><rect x="339" y="374" width="20" height="15" fill="#170b3a" /><rect x="359" y="374" width="20" height="15" fill="#6b176e" /><rect x="379" y="374" width="20" height="15" fill="#300a5b" /><rect x="399" y="374" width="20" height="15" fill="#500d6c" /><rect x="419" y="374" width="20" height="15" fill="#420a67" /><rect x="439" y="374" width="20" height="15" fill="#170b3a" /><rect x="479" y="374" width="20" height="15" fill="#170b3a" /><rect x="499" y="374" width="20" height="15" fill="#500d6c" /><rect x="519" y="374" width="20" height="15" fill="#170b3a" /><rect x="539" y="374" width="20" height="15" fill="#170b3a" /><rect x="559" y="374" width="20" height="15" fill="#170b3a" /><rect x="599" y="374" width="20" height="15" fill="#170b3a" /><rect x="619" y="374" width="20" height="15" fill="#170b3a" /><rect x="159" y="359" width="20" height="15" fill="#170b3a" /><rect x="179" y="359" width="20" height="15" fill="#300a5b" /><rect x="199" y="359" width="20" height="15" fill="#500d6c" /><rect x="239" y="359" width="20" height="15" fill="#300a5b" /><rect x="259" y="359" width="20" height="15" fill="#72196e" /><rect x="279" y="359" width="20" height="15" fill="#5a116e" /><rect x="299" y="359" width="20" height="15" fill="#420a67" /><rect x="319" y="359" width="20" height="15" fill="#63146e" /><rect x="339" y="359" width="20" height="15" fill="#63146e" /><rect x="359" y="359" width="20" height="15" fill="#63146e" /><rect x="379" y="359" width="20" height="15" fill="#500d6c" /><rect x="399" y="359" width="20" height="15" fill="#500d6c" /><rect x="419" y="359" width="20" height="15" fill="#500d6c" /><rect x="439" y="359" width="20" height="15" fill="#500d6c" /><rect x="459" y="359" width="20" height="15" fill="#500d6c" /><rect x="479" y="359" width="20" height="15" fill="#500d6c" /><rect x="499" y="359" width="20" height="15" fill="#300a5b" /><rect x="539" y="359" width="20" height="15" fill="#300a5b" /><rect x="559" y="359" width="20" height="15" fill="#170b3a" /><rect x="599" y="359" width="20" height="15" fill="#170b3a" /><rect x="119" y="344" width="20" height="15" fill="#170b3a" /><rect x="139" y="344" width="20" height="15" fill="#170b3a" /><rect x="159" y="344" width="20" height="15" fill="#170b3a" /><rect x="179" y="344" width="20" height="15" fill="#300a5b" /><rect x="199" y="344" width="20" height="15" fill="#170b3a" /><rect x="219" y="344" width="20" height="15" fill="#300a5b" /><rect x="239" y="344" width="20" height="15" fill="#6b176e" /><rect x="259" y="344" width="20" height="15" fill="#5a116e" /><rect x="279" y="344" width="20" height="15" fill="#420a67" /><rect x="299" y="344" width="20" height="15" fill="#5a116e" /><rect x="319" y="344" width="20" height="15" fill="#63146e" /><rect x="339" y="344" width="20" height="15" fill="#63146e" /><rect x="359" y="344" width="20" height="15" fill="#63146e" /><rect x="379" y="344" width="20" height="15" fill="#781c6d" /><rect x="399" y="344" width="20" height="15" fill="#500d6c" /><rect x="419" y="344" width="20" height="15" fill="#300a5b" /><rect x="439" y="344" width="20" height="15" fill="#420a67" /><rect x="459" y="344" width="20" height="15" fill="#420a67" /><rect x="479" y="344" width="20" height="15" fill="#170b3a" /><rect x="519" y="344" width="20" height="15" fill="#420a67" /><rect x="539" y="344" width="20" height="15" fill="#420a67" /><rect x="619" y="344" width="20" height="15" fill="#170b3a" /><rect x="139" y="329" width="20" height="15" fill="#420a67" /><rect x="159" y="329" width="20" height="15" fill="#300a5b" /><rect x="179" y="329" width="20" height="15" fill="#420a67" /><rect x="199" y="329" width="20" height="15" fill="#420a67" /><rect x="219" y="329" width="20" height="15" fill="#500d6c" /><rect x="239" y="329" width="20" height="15" fill="#63146e" /><rect x="259" y="329" width="20" height="15" fill="#63146e" /><rect x="279" y="329" width="20" height="15" fill="#500d6c" /><rect x="299" y="329" width="20" height="15" fill="#6b176e" /><rect x="319" y="329" width="20" height="15" fill="#7e1e6c" /><rect x="339" y="329" width="20" height="15" fill="#6b176e" /><rect x="359" y="329" width="20" height="15" fill="#83206b" /><rect x="379" y="329" width="20" height="15" fill="#87216a" /><rect x="399" y="329" width="20" height="15" fill="#63146e" /><rect x="419" y="329" width="20" height="15" fill="#72196e" /><rect x="439" y="329" width="20" height="15" fill="#170b3a" /><rect x="459" y="329" width="20" height="15" fill="#5a116e" /><rect x="479" y="329" width="20" height="15" fill="#170b3a" /><rect x="499" y="329" width="20" height="15" fill="#300a5b" /><rect x="519" y="329" width="20" height="15" fill="#170b3a" /><rect x="559" y="329" width="20" height="15" fill="#300a5b" /><rect x="79" y="314" width="20" height="15" fill="#170b3a" /><rect x="99" y="314" width="20" height="15" fill="#170b3a" /><rect x="139" y="314" width="20" height="15" fill="#170b3a" /><rect x="179" y="314" width="20" height="15" fill="#420a67" /><rect x="199" y="314" width="20" height="15" fill="#5a116e" /><rect x="219" y="314" width="20" height="15" fill="#500d6c" /><rect x="239" y="314" width="20" height="15" fill="#63146e" /><rect x="259" y="314" width="20" height="15" fill="#6b176e" /><rect x="279" y="314" width="20" height="15" fill="#420a67" /><rect x="299" y="314" width="20" height="15" fill="#781c6d" /><rect x="319" y="314" width="20" height="15" fill="#6b176e" /><rect x="339" y="314" width="20" height="15" fill="#902468" /><rect x="359" y="314" width="20" height="15" fill="#87216a" /><rect x="379" y="314" width="20" height="15" fill="#781c6d" /><rect x="399" y="314" width="20" height="15" fill="#63146e" /><rect x="419" y="314" width="20" height="15" fill="#6b176e" /><rect x="439" y="314" width="20" height="15" fill="#87216a" /><rect x="459" y="314" width="20" height="15" fill="#63146e" /><rect x="479" y="314" width="20" height="15" fill="#5a116e" /><rect x="499" y="314" width="20" height="15" fill="#500d6c" /><rect x="519" y="314" width="20" height="15" fill="#420a67" /><rect x="539" y="314" width="20" height="15" fill="#420a67" /><rect x="559" y="314" width="20" height="15" fill="#300a5b" /><rect x="99" y="299" width="20" height="15" fill="#170b3a" /><rect x="139" y="299" width="20" height="15" fill="#170b3a" /><rect x="159" y="299" width="20" height="15" fill="#420a67" /><rect x="179" y="299" width="20" height="15" fill="#500d6c" /><rect x="199" y="299" width="20" height="15" fill="#420a67" /><rect x="219" y="299" width="20" height="15" fill="#5a116e" /><rect x="239" y="299" width="20" height="15" fill="#72196e" /><rect x="259" y="299" width="20" height="15" fill="#781c6d" /><rect x="279" y="299" width="20" height="15" fill="#500d6c" /><rect x="299" y="299" width="20" height="15" fill="#8c2369" /><rect x="319" y="299" width="20" height="15" fill="#b23259" /><rect x="339" y="299" width="20" height="15" fill="#e8602b" /><rect x="359" y="299" width="20" height="15" fill="#de5337" /><rect x="379" y="299" width="20" height="15" fill="#bd3852" /><rect x="399" y="299" width="20" height="15" fill="#87216a" /><rect x="419" y="299" width="20" height="15" fill="#83206b" /><rect x="439" y="299" width="20" height="15" fill="#83206b" /><rect x="459" y="299" width="20" height="15" fill="#500d6c" /><rect x="479" y="299" width="20" height="15" fill="#6b176e" /><rect x="499" y="299" width="20" height="15" fill="#300a5b" /><rect x="519" y="299" width="20" height="15" fill="#170b3a" /><rect x="539" y="299" width="20" height="15" fill="#170b3a" /><rect x="559" y="299" width="20" height="15" fill="#170b3a" /><rect x="599" y="299" width="20" height="15" fill="#170b3a" /><rect x="119" y="284" width="20" height="15" fill="#170b3a" /><rect x="139" y="284" width="20" height="15" fill="#170b3a" /><rect x="159" y="284" width="20" height="15" fill="#300a5b" /><rect x="179" y="284" width="20" height="15" fill="#420a67" /><rect x="199" y="284" width="20" height="15" fill="#170b3a" /><rect x="219" y="284" width="20" height="15" fill="#63146e" /><rect x="239" y="284" width="20" height="15" fill="#6b176e" /><rect x="259" y="284" width="20" height="15" fill="#7e1e6c" /><rect x="279" y="284" width="20" height="15" fill="#942666" /><rect x="299" y="284" width="20" height="15" fill="#ce4346" /><rect x="319" y="284" width="20" height="15" fill="#f78310" /><rect x="339" y="284" width="20" height="15" fill="#fac228" /><rect x="359" y="284" width="20" height="15" fill="#f9c72f" /><rect x="379" y="284" width="20" height="15" fill="#f7850f" /><rect x="399" y="284" width="20" height="15" fill="#cb4148" /><rect x="419" y="284" width="20" height="15" fill="#72196e" /><rect x="439" y="284" width="20" height="15" fill="#72196e" /><rect x="459" y="284" width="20" height="15" fill="#6b176e" /><rect x="479" y="284" width="20" height="15" fill="#300a5b" /><rect x="499" y="284" width="20" height="15" fill="#420a67" /><rect x="539" y="284" width="20" height="15" fill="#300a5b" /><rect x="559" y="284" width="20" height="15" fill="#170b3a" /><rect x="639" y="284" width="20" height="15" fill="#170b3a" /><rect x="139" y="269" width="20" height="15" fill="#170b3a" /><rect x="159" y="269" width="20" height="15" fill="#170b3a" /><rect x="179" y="269" width="20" height="15" fill="#420a67" /><rect x="199" y="269" width="20" height="15" fill="#300a5b" /><rect x="219" y="269" width="20" height="15" fill="#5a116e" /><rect x="239" y="269" width="20" height="15" fill="#72196e" /><rect x="259" y="269" width="20" height="15" fill="#63146e" /><rect x="279" y="269" width="20" height="15" fill="#9b2864" /><rect x="299" y="269" width="20" height="15" fill="#e15634" /><rect x="319" y="269" width="20" height="15" fill="#f9c52c" /><rect x="339" y="269" width="20" height="15" fill="#f7fa98" /><rect x="359" y="269" width="20" height="15" fill="#fcffa4" /><rect x="379" y="269" width="20" height="15" fill="#fac127" /><rect x="399" y="269" width="20" height="15" fill="#e65d2e" /><rect x="419" y="269" width="20" height="15" fill="#9b2864" /><rect x="439" y="269" width="20" height="15" fill="#72196e" /><rect x="459" y="269" width="20" height="15" fill="#63146e" /><rect x="479" y="269" width="20" height="15" fill="#63146e" /><rect x="499" y="269" width="20" height="15" fill="#500d6c" /><rect x="519" y="269" width="20" height="15" fill="#420a67" /><rect x="539" y="269" width="20" height="15" fill="#300a5b" /><rect x="559" y="269" width="20" height="15" fill="#420a67" /><rect x="579" y="269" width="20" height="15" fill="#170b3a" /><rect x="99" y="254" width="20" height="15" fill="#170b3a" /><rect x="119" y="254" width="20" height="15" fill="#420a67" /><rect x="139" y="254" width="20" height="15" fill="#170b3a" /><rect x="159" y="254" width="20" height="15" fill="#300a5b" /><rect x="179" y="254" width="20" height="15" fill="#420a67" /><rect x="199" y="254" width="20" height="15" fill="#500d6c" /><rect x="219" y="254" width="20" height="15" fill="#63146e" /><rect x="239" y="254" width="20" height="15" fill="#6b176e" /><rect x="259" y="254" width="20" height="15" fill="#63146e" /><rect x="279" y="254" width="20" height="15" fill="#7e1e6c" /><rect x="299" y="254" width="20" height="15" fill="#e45a30" /><rect x="319" y="254" width="20" height="15" fill="#f9c52c" /><rect x="339" y="254" width="20" height="15" fill="#f8fb9a" /><rect x="359" y="254" width="20" height="15" fill="#f7fb99" /><rect x="379" y="254" width="20" height="15" fill="#fabe23" /><rect x="399" y="254" width="20" height="15" fill="#e05435" /><rect x="419" y="254" width="20" height="15" fill="#8c2369" /><rect x="439" y="254" width="20" height="15" fill="#5a116e" /><rect x="459" y="254" width="20" height="15" fill="#902468" /><rect x="479" y="254" width="20" height="15" fill="#500d6c" /><rect x="499" y="254" width="20" height="15" fill="#6b176e" /><rect x="519" y="254" width="20" height="15" fill="#420a67" /><rect x="539" y="254" width="20" height="15" fill="#420a67" /><rect x="559" y="254" width="20" height="15" fill="#300a5b" /><rect x="579" y="254" width="20" height="15" fill="#420a67" /><rect x="639" y="254" width="20" height="15" fill="#170b3a" /><rect x="59" y="239" width="20" height="15" fill="#170b3a" /><rect x="79" y="239" width="20" height="15" fill="#170b3a" /><rect x="119" y="239" width="20" height="15" fill="#300a5b" /><rect x="139" y="239" width="20" height="15" fill="#420a67" /><rect x="179" y="239" width="20" height="15" fill="#5a116e" /><rect x="199" y="239" width="20" height="15" fill="#500d6c" /><rect x="219" y="239" width="20" height="15" fill="#6b176e" /><rect x="239" y="239" width="20" height="15" fill="#87216a" /><rect x="259" y="239" width="20" height="15" fill="#83206b" /><rect x="279" y="239" width="20" height="15" fill="#7e1e6c" /><rect x="299" y="239" width="20" height="15" fill="#c73e4b" /><rect x="319" y="239" width="20" height="15" fill="#f8870d" /><rect x="339" y="239" width="20" height="15" fill="#f9c72f" /><rect x="359" y="239" width="20" height="15" fill="#f9c62e" /><rect x="379" y="239" width="20" height="15" fill="#f7850f" /><rect x="399" y="239" width="20" height="15" fill="#bd3852" /><rect x="419" y="239" width="20" height="15" fill="#72196e" /><rect x="439" y="239" width="20" height="15" fill="#7e1e6c" /><rect x="459" y="239" width="20" height="15" fill="#7e1e6c" /><rect x="479" y="239" width="20" height="15" fill="#5a116e" /><rect x="499" y="239" width="20" height="15" fill="#5a116e" /><rect x="519" y="239" width="20" height="15" fill="#300a5b" /><rect x="539" y="239" width="20" height="15" fill="#170b3a" /><rect x="579" y="239" width="20" height="15" fill="#300a5b" /><rect x="599" y="239" width="20" height="15" fill="#170b3a" /><rect x="79" y="224" width="20" height="15" fill="#300a5b" /><rect x="159" y="224" width="20" height="15" fill="#420a67" /><rect x="179" y="224" width="20" height="15" fill="#420a67" /><rect x="199" y="224" width="20" height="15" fill="#7e1e6c" /><rect x="219" y="224" width="20" height="15" fill="#781c6d" /><rect x="239" y="224" width="20" height="15" fill="#63146e" /><rect x="259" y="224" width="20" height="15" fill="#902468" /><rect x="279" y="224" width="20" height="15" fill="#87216a" /><rect x="299" y="224" width="20" height="15" fill="#902468" /><rect x="319" y="224" width="20" height="15" fill="#b43358" /><rect x="339" y="224" width="20" height="15" fill="#e55b2f" /><rect x="359" y="224" width="20" height="15" fill="#e35931" /><rect x="379" y="224" width="20" height="15" fill="#b63457" /><rect x="399" y="224" width="20" height="15" fill="#83206b" /><rect x="419" y="224" width="20" height="15" fill="#87216a" /><rect x="439" y="224" width="20" height="15" fill="#63146e" /><rect x="459" y="224" width="20" height="15" fill="#83206b" /><rect x="479" y="224" width="20" height="15" fill="#63146e" /><rect x="499" y="224" width="20" height="15" fill="#5a116e" /><rect x="519" y="224" width="20" height="15" fill="#5a116e" /><rect x="539" y="224" width="20" height="15" fill="#420a67" /><rect x="559" y="224" width="20" height="15" fill="#170b3a" /><rect x="579" y="224" width="20" height="15" fill="#170b3a" /><rect x="599" y="224" width="20" height="15" fill="#170b3a" /><rect x="99" y="209" width="20" height="15" fill="#170b3a" /><rect x="139" y="209" width="20" height="15" fill="#170b3a" /><rect x="159" y="209" width="20" height="15" fill="#500d6c" /><rect x="179" y="209" width="20" height="15" fill="#170b3a" /><rect x="199" y="209" width="20" height="15" fill="#170b3a" /><rect x="219" y="209" width="20" height="15" fill="#500d6c" /><rect x="239" y="209" width="20" height="15" fill="#5a116e" /><rect x="259" y="209" width="20" height="15" fill="#420a67" /><rect x="279" y="209" width="20" height="15" fill="#83206b" /><rect x="299" y="209" width="20" height="15" fill="#72196e" /><rect x="319" y="209" width="20" height="15" fill="#902468" /><rect x="339" y="209" width="20" height="15" fill="#83206b" /><rect x="359" y="209" width="20" height="15" fill="#a92e5e" /><rect x="379" y="209" width="20" height="15" fill="#972765" /><rect x="399" y="209" width="20" height="15" fill="#83206b" /><rect x="419" y="209" width="20" height="15" fill="#63146e" /><rect x="439" y="209" width="20" height="15" fill="#5a116e" /><rect x="459" y="209" width="20" height="15" fill="#63146e" /><rect x="479" y="209" width="20" height="15" fill="#300a5b" /><rect x="499" y="209" width="20" height="15" fill="#5a116e" /><rect x="519" y="209" width="20" height="15" fill="#300a5b" /><rect x="539" y="209" width="20" height="15" fill="#500d6c" /><rect x="599" y="209" width="20" height="15" fill="#170b3a" /><rect x="619" y="209" width="20" height="15" fill="#170b3a" /><rect x="639" y="209" width="20" height="15" fill="#170b3a" /><rect x="99" y="194" width="20" height="15" fill="#300a5b" /><rect x="139" y="194" width="20" height="15" fill="#170b3a" /><rect x="159" y="194" width="20" height="15" fill="#300a5b" /><rect x="179" y="194" width="20" height="15" fill="#6b176e" /><rect x="199" y="194" width="20" height="15" fill="#6b176e" /><rect x="219" y="194" width="20" height="15" fill="#500d6c" /><rect x="239" y="194" width="20" height="15" fill="#6b176e" /><rect x="259" y="194" width="20" height="15" fill="#500d6c" /><rect x="279" y="194" width="20" height="15" fill="#781c6d" /><rect x="299" y="194" width="20" height="15" fill="#300a5b" /><rect x="319" y="194" width="20" height="15" fill="#72196e" /><rect x="339" y="194" width="20" height="15" fill="#781c6d" /><rect x="359" y="194" width="20" height="15" fill="#500d6c" /><rect x="379" y="194" width="20" height="15" fill="#420a67" /><rect x="399" y="194" width="20" height="15" fill="#6b176e" /><rect x="419" y="194" width="20" height="15" fill="#72196e" /><rect x="439" y="194" width="20" height="15" fill="#6b176e" /><rect x="459" y="194" width="20" height="15" fill="#6b176e" /><rect x="479" y="194" width="20" height="15" fill="#420a67" /><rect x="499" y="194" width="20" height="15" fill="#170b3a" /><rect x="519" y="194" width="20" height="15" fill="#500d6c" /><rect x="539" y="194" width="20" height="15" fill="#420a67" /><rect x="579" y="194" width="20" height="15" fill="#300a5b" /><rect x="99" y="179" width="20" height="15" fill="#170b3a" /><rect x="119" y="179" width="20" height="15" fill="#170b3a" /><rect x="139" y="179" width="20" height="15" fill="#170b3a" /><rect x="159" y="179" width="20" height="15" fill="#300a5b" /><rect x="179" y="179" width="20" height="15" fill="#420a67" /><rect x="199" y="179" width="20" height="15" fill="#420a67" /><rect x="219" y="179" width="20" height="15" fill="#300a5b" /><rect x="239" y="179" width="20" height="15" fill="#420a67" /><rect x="259" y="179" width="20" height="15" fill="#6b176e" /><rect x="279" y="179" width="20" height="15" fill="#420a67" /><rect x="299" y="179" width="20" height="15" fill="#5a116e" /><rect x="319" y="179" width="20" height="15" fill="#6b176e" /><rect x="339" y="179" width="20" height="15" fill="#500d6c" /><rect x="359" y="179" width="20" height="15" fill="#5a116e" /><rect x="379" y="179" width="20" height="15" fill="#500d6c" /><rect x="399" y="179" width="20" height="15" fill="#500d6c" /><rect x="419" y="179" width="20" height="15" fill="#72196e" /><rect x="439" y="179" width="20" height="15" fill="#300a5b" /><rect x="459" y="179" width="20" height="15" fill="#5a116e" /><rect x="479" y="179" width="20" height="15" fill="#5a116e" /><rect x="499" y="179" width="20" height="15" fill="#500d6c" /><rect x="519" y="179" width="20" height="15" fill="#500d6c" /><rect x="539" y="179" width="20" height="15" fill="#170b3a" /><rect x="59" y="164" width="20" height="15" fill="#170b3a" /><rect x="159" y="164" width="20" height="15" fill="#170b3a" /><rect x="199" y="164" width="20" height="15" fill="#420a67" /><rect x="219" y="164" width="20" height="15" fill="#300a5b" /><rect x="239" y="164" width="20" height="15" fill="#170b3a" /><rect x="259" y="164" width="20" height="15" fill="#300a5b" /><rect x="279" y="164" width="20" height="15" fill="#420a67" /><rect x="299" y="164" width="20" height="15" fill="#63146e" /><rect x="319" y="164" width="20" height="15" fill="#500d6c" /><rect x="339" y="164" width="20" height="15" fill="#6b176e" /><rect x="359" y="164" width="20" height="15" fill="#500d6c" /><rect x="379" y="164" width="20" height="15" fill="#500d6c" /><rect x="419" y="164" width="20" height="15" fill="#300a5b" /><rect x="439" y="164" width="20" height="15" fill="#5a116e" /><rect x="459" y="164" width="20" height="15" fill="#420a67" /><rect x="479" y="164" width="20" height="15" fill="#420a67" /><rect x="499" y="164" width="20" height="15" fill="#170b3a" /><rect x="519" y="164" width="20" height="15" fill="#300a5b" /><rect x="579" y="164" width="20" height="15" fill="#170b3a" /><rect x="619" y="164" width="20" height="15" fill="#170b3a" /><rect x="159" y="149" width="20" height="15" fill="#300a5b" /><rect x="179" y="149" width="20" height="15" fill="#300a5b" /><rect x="239" y="149" width="20" height="15" fill="#500d6c" /><rect x="259" y="149" width="20" height="15" fill="#500d6c" /><rect x="279" y="149" width="20" height="15" fill="#5a116e" /><rect x="299" y="149" width="20" height="15" fill="#420a67" /><rect x="319" y="149" width="20" height="15" fill="#170b3a" /><rect x="339" y="149" width="20" height="15" fill="#63146e" /><rect x="359" y="149" width="20" height="15" fill="#500d6c" /><rect x="379" y="149" width="20" height="15" fill="#170b3a" /><rect x="399" y="149" width="20" height="15" fill="#420a67" /><rect x="419" y="149" width="20" height="15" fill="#170b3a" /><rect x="459" y="149" width="20" height="15" fill="#420a67" /><rect x="479" y="149" width="20" height="15" fill="#170b3a" /><rect x="499" y="149" width="20" height="15" fill="#300a5b" /><rect x="519" y="149" width="20" height="15" fill="#300a5b" /><rect x="539" y="149" width="20" height="15" fill="#300a5b" /><rect x="559" y="149" width="20" height="15" fill="#170b3a" /><rect x="139" y="134" width="20" height="15" fill="#170b3a" /><rect x="159" y="134" width="20" height="15" fill="#170b3a" /><rect x="179" y="134" width="20" height="15" fill="#170b3a" /><rect x="199" y="134" width="20" height="15" fill="#170b3a" /><rect x="219" y="134" width="20" height="15" fill="#420a67" /><rect x="239" y="134" width="20" height="15" fill="#170b3a" /><rect x="259" y="134" width="20" height="15" fill="#300a5b" /><rect x="279" y="134" width="20" height="15" fill="#500d6c" /><rect x="299" y="134" width="20" height="15" fill="#500d6c" /><rect x="319" y="134" width="20" height="15" fill="#500d6c" /><rect x="339" y="134" width="20" height="15" fill="#300a5b" /><rect x="379" y="134" width="20" height="15" fill="#420a67" /><rect x="399" y="134" width="20" height="15" fill="#420a67" /><rect x="419" y="134" width="20" height="15" fill="#170b3a" /><rect x="439" y="134" width="20" height="15" fill="#500d6c" /><rect x="459" y="134" width="20" height="15" fill="#300a5b" /><rect x="479" y="134" width="20" height="15" fill="#170b3a" /><rect x="499" y="134" width="20" height="15" fill="#170b3a" /><rect x="539" y="134" width="20" height="15" fill="#170b3a" /><rect x="559" y="134" width="20" height="15" fill="#170b3a" /><rect x="219" y="119" width="20" height="15" fill="#170b3a" /><rect x="239" y="119" width="20" height="15" fill="#420a67" /><rect x="259" y="119" width="20" height="15" fill="#170b3a" /><rect x="299" y="119" width="20" height="15" fill="#300a5b" /><rect x="319" y="119" width="20" height="15" fill="#500d6c" /><rect x="339" y="119" width="20" height="15" fill="#500d6c" /><rect x="359" y="119" width="20" height="15" fill="#170b3a" /><rect x="379" y="119" width="20" height="15" fill="#500d6c" /><rect x="399" y="119" width="20" height="15" fill="#170b3a" /><rect x="419" y="119" width="20" height="15" fill="#300a5b" /><rect x="439" y="119" width="20" height="15" fill="#170b3a" /><rect x="459" y="119" width="20" height="15" fill="#170b3a" /><rect x="479" y="119" width="20" height="15" fill="#300a5b" /><rect x="499" y="119" width="20" height="15" fill="#300a5b" /><rect x="519" y="119" width="20" height="15" fill="#300a5b" /><rect x="539" y="119" width="20" height="15" fill="#300a5b" /><rect x="579" y="119" width="20" height="15" fill="#300a5b" /><rect x="599" y="119" width="20" height="15" fill="#170b3a" /><rect x="199" y="104" width="20" height="15" fill="#170b3a" /><rect x="239" y="104" width="20" height="15" fill="#170b3a" /><rect x="259" y="104" width="20" height="15" fill="#170b3a" /><rect x="339" y="104" width="20" height="15" fill="#170b3a" /><rect x="359" y="104" width="20" height="15" fill="#170b3a" /><rect x="379" y="104" width="20" height="15" fill="#170b3a" /><rect x="399" y="104" width="20" height="15" fill="#170b3a" /><rect x="419" y="104" width="20" height="15" fill="#170b3a" /><rect x="439" y="104" width="20" height="15" fill="#300a5b" /><rect x="479" y="104" width="20" height="15" fill="#170b3a" /><rect x="539" y="104" width="20" height="15" fill="#420a67" /><rect x="139" y="89" width="20" height="15" fill="#300a5b" /><rect x="159" y="89" width="20" height="15" fill="#170b3a" /><rect x="279" y="89" width="20" height="15" fill="#170b3a" /><rect x="299" y="89" width="20" height="15" fill="#170b3a" /><rect x="339" y="89" width="20" height="15" fill="#170b3a" /><rect x="359" y="89" width="20" height="15" fill="#170b3a" /><rect x="399" y="89" width="20" height="15" fill="#170b3a" /><rect x="419" y="89" width="20" height="15" fill="#300a5b" /><rect x="459" y="89" width="20" height="15" fill="#170b3a" /><rect x="199" y="74" width="20" height="15" fill="#170b3a" /><rect x="299" y="74" width="20" height="15" fill="#170b3a" /><rect x="459" y="74" width="20" height="15" fill="#170b3a" /><rect x="299" y="59" width="20" height="15" fill="#170b3a" /><rect x="359" y="59" width="20" height="15" fill="#170b3a" /><rect x="459" y="59" width="20" height="15" fill="#170b3a" /><rect x="519" y="59" width="20" height="15" fill="#170b3a" /><rect x="219" y="44" width="20" height="15" fill="#170b3a" /><rect x="499" y="44" width="20" height="15" fill="#170b3a" /></g><rect x="698" y="89" width="20" height="7.7" fill="#fcffa4" /><rect x="698" y="96.2" width="20" height="7.7" fill="#f4f891" /><rect x="698" y="103.4" width="20" height="7.7" fill="#f1f17b" /><rect x="698" y="110.60000000000001" width="20" height="7.7" fill="#f1e866" /><rect x="698" y="117.8" width="20" height="7.7" fill="#f3df53" /><rect x="698" y="125" width="20" height="7.7" fill="#f6d442" /><rect x="698" y="132.2" width="20" height="7.7" fill="#f8ca34" /><rect x="698" y="139.4" width="20" height="7.7" fill="#fac127" /><rect x="698" y="146.6" width="20" height="7.7" fill="#fbb61b" /><rect x="698" y="153.8" width="20" height="7.7" fill="#fcac11" /><rect x="698" y="161" width="20" height="7.7" fill="#fca208" /><rect x="698" y="168.20000000000002" width="20" height="7.7" fill="#fb9806" /><rect x="698" y="175.4" width="20" height="7.7" fill="#f98f08" /><rect x="698" y="182.6" width="20" height="7.7" fill="#f7850e" /><rect x="698" y="189.8" width="20" height="7.7" fill="#f57d14" /><rect x="698" y="197" width="20" height="7.7" fill="#f1741c" /><rect x="698" y="204.20000000000002" width="20" height="7.7" fill="#ee6b23" /><rect x="698" y="211.4" width="20" height="7.7" fill="#ea6329" /><rect x="698" y="218.6" width="20" height="7.7" fill="#e55c2f" /><rect x="698" y="225.8" width="20" height="7.7" fill="#e05535" /><rect x="698" y="233" width="20" height="7.7" fill="#d94e3c" /><rect x="698" y="240.20000000000002" width="20" height="7.7" fill="#d34742" /><rect x="698" y="247.4" width="20" height="7.7" fill="#cd4247" /><rect x="698" y="254.6" width="20" height="7.7" fill="#c63d4c" /><rect x="698" y="261.8" width="20" height="7.7" fill="#be3951" /><rect x="698" y="269" width="20" height="7.7" fill="#b73457" /><rect x="698" y="276.2" width="20" height="7.7" fill="#af305b" /><rect x="698" y="283.40000000000003" width="20" height="7.7" fill="#a62d5f" /><rect x="698" y="290.6" width="20" height="7.7" fill="#9f2963" /><rect x="698" y="297.8" width="20" height="7.7" fill="#962666" /><rect x="698" y="305" width="20" height="7.7" fill="#8e2368" /><rect x="698" y="312.2" width="20" height="7.7" fill="#86216a" /><rect x="698" y="319.40000000000003" width="20" height="7.7" fill="#7d1d6c" /><rect x="698" y="326.6" width="20" height="7.7" fill="#751b6d" /><rect x="698" y="333.8" width="20" height="7.7" fill="#6d186e" /><rect x="698" y="341" width="20" height="7.7" fill="#64156e" /><rect x="698" y="348.2" width="20" height="7.7" fill="#5c126d" /><rect x="698" y="355.40000000000003" width="20" height="7.7" fill="#540e6d" /><rect x="698" y="362.6" width="20" height="7.7" fill="#4c0c6b" /><rect x="698" y="369.8" width="20" height="7.7" fill="#430a68" /><rect x="698" y="377" width="20" height="7.7" fill="#3a0963" /><rect x="698" y="384.2" width="20" height="7.7" fill="#310a5d" /><rect x="698" y="391.40000000000003" width="20" height="7.7" fill="#280b53" /><rect x="698" y="398.6" width="20" height="7.7" fill="#1f0c48" /><rect x="698" y="405.8" width="20" height="7.7" fill="#170b3b" /><rect x="698" y="413" width="20" height="7.7" fill="#10092f" /><rect x="698" y="420.2" width="20" height="7.7" fill="#0a0723" /><rect x="698" y="427.40000000000003" width="20" height="7.7" fill="#050317" /><rect x="698" y="434.6" width="20" height="7.7" fill="#02010c" /><rect x="698" y="441.8" width="20" height="7.7" fill="#000004" /><rect x="698" y="89" width="20" height="360" fill="none" stroke="#000000" stroke-width="1" /><line x1="718" y1="449" x2="722" y2="449" stroke="#000000" stroke-width="1" /><text x="723" y="453" font-size="12" text-anchor="start">0</text><line x1="718" y1="412.81" x2="722" y2="412.81" stroke="#000000" stroke-width="1" /><text x="723" y="416.81" font-size="12" text-anchor="start">1</text><line x1="718" y1="323.81" x2="722" y2="323.81" stroke="#000000" stroke-width="1" /><text x="723" y="327.81" font-size="12" text-anchor="start">10</text><line x1="718" y1="208.06" x2="722" y2="208.06" stroke="#000000" stroke-width="1" /><text x="723" y="212.06" font-size="12" text-anchor="start">100</text><line x1="718" y1="89" x2="722" y2="89" stroke="#000000" stroke-width="1" /><text x="723" y="93" font-size="12" text-anchor="start">987</text><text x="688" y="269" font-size="12" text-anchor="middle" transform="rotate(-90,688,269)">log₁₀(Count + 1)</text></svg>