<svg xmlns="http://www.w3.org/2000/svg" width="1035" height="400" font-family="DejaVu Sans, Liberation Sans, Arial, sans-serif" fill="black"><rect width="100%" height="100%" fill="white" /><g transform="translate(10,10)"><line x1="72.2" y1="329" x2="486" y2="329" stroke="#000000" stroke-width="1" /><line x1="72.2" y1="44" x2="72.2" y2="329" stroke="#000000" stroke-width="1" /><line x1="154.96" y1="44" x2="154.96" y2="329" stroke="#cccccc" stroke-width="1" /><line x1="237.72" y1="44" x2="237.72" y2="329" stroke="#cccccc" stroke-width="1" /><line x1="320.48" y1="44" x2="320.48" y2="329" stroke="#cccccc" stroke-width="1" /><line x1="403.24" y1="44" x2="403.24" y2="329" stroke="#cccccc" stroke-width="1" /><line x1="486" y1="44" x2="486" y2="329" stroke="#cccccc" stroke-width="1" /><line x1="72.2" y1="272" x2="486" y2="272" stroke="#cccccc" stroke-width="1" /><line x1="72.2" y1="215" x2="486" y2="215" stroke="#cccccc" stroke-width="1" /><line x1="72.2" y1="158" x2="486" y2="158" stroke="#cccccc" stroke-width="1" /><line x1="72.2" y1="101" x2="486" y2="101" stroke="#cccccc" stroke-width="1" /><line x1="72.2" y1="44" x2="486" y2="44" stroke="#cccccc" stroke-width="1" /><line x1="72.2" y1="329" x2="72.2" y2="334" stroke="#000000" stroke-width="1" /><text x="72.2" y="346" font-size="12" text-anchor="middle">0</text><line x1="154.96" y1="329" x2="154.96" y2="334" stroke="#000000" stroke-width="1" /><text x="154.96" y="346" font-size="12" text-anchor="middle">2</text><line x1="237.72" y1="329" x2="237.72" y2="334" stroke="#000000" stroke-width="1" /><text x="237.72" y="346" font-size="12" text-anchor="middle">4</text><line x1="320.48" y1="329" x2="320.48" y2="334" stroke="#000000" stroke-width="1" /><text x="320.48" y="346" font-size="12" text-anchor="middle">6</text><line x1="403.24" y1="329" x2="403.24" y2="334" stroke="#000000" stroke-width="1" /><text x="403.24" y="346" font-size="12" text-anchor="middle">8</text><line x1="486" y1="329" x2="486" y2="334" stroke="#000000" stroke-width="1" /><text x="486" y="346" font-size="12" text-anchor="middle">10</text><line x1="67.2" y1="329" x2="72.2" y2="329" stroke="#000000" stroke-width="1" /><text x="64.2" y="333.2" font-size="12" text-anchor="end">0</text><line x1="67.2" y1="272" x2="72.2" y2="272" stroke="#000000" stroke-width="1" /><text x="64.2" y="276.2" font-size="12" text-anchor="end">2</text><line x1="67.2" y1="215" x2="72.2" y2="215" stroke="#000000" stroke-width="1" /><text x="64.2" y="219.20000000000002" font-size="12" text-anchor="end">4</text><line x1="67.2" y1="158" x2="72.2" y2="158" stroke="#000000" stroke-width="1" /><text x="64.2" y="162.20000000000002" font-size="12" text-anchor="end">6</text><line x1="67.2" y1="101" x2="72.2" y2="101" stroke="#000000" stroke-width="1" /><text x="64.2" y="105.2" font-size="12" text-anchor="end">8</text><line x1="67.2" y1="44" x2="72.2" y2="44" stroke="#000000" stroke-width="1" /><text x="64.2" y="48.2" font-size="12" text-anchor="end">10</text><text x="279.1" y="373" font-size="14" text-anchor="middle">X</text><text x="7" y="190" font-size="14" text-anchor="middle" transform="rotate(-90,7,190)">Y</text><text x="279.1" y="22" font-size="18" text-anchor="middle">Scatter</text><circle cx="113.58" cy="263.45" r="4.5" fill="#4682b4" /><circle cx="159.1" cy="212.15" r="4.5" fill="#4682b4" /><circle cx="212.89000000000001" cy="237.8" r="4.5" fill="#4682b4" /><circle cx="246" cy="163.70000000000002" r="4.5" fill="#4682b4" /><circle cx="279.1" cy="183.65" r="4.5" fill="#4682b4" /><circle cx="332.89" cy="123.8" r="4.5" fill="#4682b4" /><circle cx="366" cy="132.35" r="4.5" fill="#4682b4" /><circle cx="423.93" cy="78.2" r="4.5" fill="#4682b4" /></g><text x="18" y="28" font-size="16" text-anchor="start" font-weight="bold">A</text><g transform="translate(525,10)"><line x1="72.2" y1="329" x2="486" y2="329" stroke="#000000" stroke-width="1" /><line x1="72.2" y1="44" x2="72.2" y2="329" stroke="#000000" stroke-width="1" /><line x1="158.41" y1="44" x2="158.41" y2="329" stroke="#cccccc" stroke-width="1" /><line x1="244.62" y1="44" x2="244.62" y2="329" stroke="#cccccc" stroke-width="1" /><line x1="330.83" y1="44" x2="330.83" y2="329" stroke="#cccccc" stroke-width="1" /><line x1="417.03000000000003" y1="44" x2="417.03000000000003" y2="329" stroke="#cccccc" stroke-width="1" /><line x1="72.2" y1="288.29" x2="486" y2="288.29" stroke="#cccccc" stroke-width="1" /><line x1="72.2" y1="247.57" x2="486" y2="247.57" stroke="#cccccc" stroke-width="1" /><line x1="72.2" y1="206.86" x2="486" y2="206.86" stroke="#cccccc" stroke-width="1" /><line x1="72.2" y1="166.14000000000001" x2="486" y2="166.14000000000001" stroke="#cccccc" stroke-width="1" /><line x1="72.2" y1="125.43" x2="486" y2="125.43" stroke="#cccccc" stroke-width="1" /><line x1="72.2" y1="84.71000000000001" x2="486" y2="84.71000000000001" stroke="#cccccc" stroke-width="1" /><line x1="72.2" y1="44" x2="486" y2="44" stroke="#cccccc" stroke-width="1" /><line x1="72.2" y1="329" x2="72.2" y2="334" stroke="#000000" stroke-width="1" /><text x="72.2" y="346" font-size="12" text-anchor="middle">0</text><line x1="158.41" y1="329" x2="158.41" y2="334" stroke="#000000" stroke-width="1" /><text x="158.41" y="346" font-size="12" text-anchor="middle">2.5</text><line x1="244.62" y1="329" x2="244.62" y2="334" stroke="#000000" stroke-width="1" /><text x="244.62" y="346" font-size="12" text-anchor="middle">5</text><line x1="330.83" y1="329" x2="330.83" y2="334" stroke="#000000" stroke-width="1" /><text x="330.83" y="346" font-size="12" text-anchor="middle">7.5</text><line x1="417.03000000000003" y1="329" x2="417.03000000000003" y2="334" stroke="#000000" stroke-width="1" /><text x="417.03000000000003" y="346" font-size="12" text-anchor="middle">10</text><line x1="67.2" y1="329" x2="72.2" y2="329" stroke="#000000" stroke-width="1" /><text x="64.2" y="333.2" font-size="12" text-anchor="end">0</text><line x1="67.2" y1="288.29" x2="72.2" y2="288.29" stroke="#000000" stroke-width="1" /><text x="64.2" y="292.49" font-size="12" text-anchor="end">1</text><line x1="67.2" y1="247.57" x2="72.2" y2="247.57" stroke="#000000" stroke-width="1" /><text x="64.2" y="251.77" font-size="12" text-anchor="end">2</text><line x1="67.2" y1="206.86" x2="72.2" y2="206.86" stroke="#000000" stroke-width="1" /><text x="64.2" y="211.06" font-size="12" text-anchor="end">3</text><line x1="67.2" y1="166.14000000000001" x2="72.2" y2="166.14000000000001" stroke="#000000" stroke-width="1" /><text x="64.2" y="170.34" font-size="12" text-anchor="end">4</text><line x1="67.2" y1="125.43" x2="72.2" y2="125.43" stroke="#000000" stroke-width="1" /><text x="64.2" y="129.63" font-size="12" text-anchor="end">5</text><line x1="67.2" y1="84.71000000000001" x2="72.2" y2="84.71000000000001" stroke="#000000" stroke-width="1" /><text x="64.2" y="88.91" font-size="12" text-anchor="end">6</text><line x1="67.2" y1="44" x2="72.2" y2="44" stroke="#000000" stroke-width="1" /><text x="64.2" y="48.2" font-size="12" text-anchor="end">7</text><text x="279.1" y="373" font-size="14" text-anchor="middle">Time</text><text x="7" y="190" font-size="14" text-anchor="middle" transform="rotate(-90,7,190)">Value</text><text x="279.1" y="22" font-size="18" text-anchor="middle">Line</text><path d="M 72.2 329.0 L 89.44 300.58 L 106.68 272.65 L 123.92 245.66 L 141.17000000000002 220.05 L 158.41 196.18 L 175.65 174.36 L 192.89000000000001 154.82 L 210.13 137.67000000000002 L 227.38 122.95 L 244.62 110.61 L 261.86 100.48 L 279.1 92.32000000000001 L 296.34000000000003 85.8 L 313.58 80.54 L 330.83 76.10000000000001 L 348.07 71.99 L 365.31 67.75 L 382.55 62.88 L 399.79 56.94 L 417.03000000000003 49.5 " stroke="#dc143c" stroke-width="2" fill="none" /></g><text x="533" y="28" font-size="16" text-anchor="start" font-weight="bold">B</text></svg>