<svg xmlns="http://www.w3.org/2000/svg" width="1035" height="400" font-family="DejaVu Sans, Liberation Sans, Arial, sans-serif" fill="black"><rect width="100%" height="100%" fill="white" /><defs><clipPath id="kuva-clip-0"><rect x="59" y="44" width="423" height="285"/></clipPath><clipPath id="kuva-clip-1"><rect x="59" y="44" width="426.6" height="285"/></clipPath></defs><g transform="translate(10,10)"><line x1="143.6" y1="44" x2="143.6" y2="329" stroke="#cccccc" stroke-width="1" /><line x1="228.20000000000002" y1="44" x2="228.20000000000002" y2="329" stroke="#cccccc" stroke-width="1" /><line x1="312.8" y1="44" x2="312.8" y2="329" stroke="#cccccc" stroke-width="1" /><line x1="397.40000000000003" y1="44" x2="397.40000000000003" y2="329" stroke="#cccccc" stroke-width="1" /><line x1="482" y1="44" x2="482" y2="329" stroke="#cccccc" stroke-width="1" /><line x1="59" y1="272" x2="482" y2="272" stroke="#cccccc" stroke-width="1" /><line x1="59" y1="215" x2="482" y2="215" stroke="#cccccc" stroke-width="1" /><line x1="59" y1="158" x2="482" y2="158" stroke="#cccccc" stroke-width="1" /><line x1="59" y1="101" x2="482" y2="101" stroke="#cccccc" stroke-width="1" /><line x1="59" y1="44" x2="482" y2="44" stroke="#cccccc" stroke-width="1" /><line x1="59" y1="329" x2="482" y2="329" stroke="#000000" stroke-width="1" /><line x1="59" y1="44" x2="59" y2="329" stroke="#000000" stroke-width="1" /><line x1="59" y1="329" x2="59" y2="334" stroke="#000000" stroke-width="1" /><text x="59" y="346" font-size="12" text-anchor="middle">0</text><line x1="143.6" y1="329" x2="143.6" y2="334" stroke="#000000" stroke-width="1" /><text x="143.6" y="346" font-size="12" text-anchor="middle">2</text><line x1="228.20000000000002" y1="329" x2="228.20000000000002" y2="334" stroke="#000000" stroke-width="1" /><text x="228.20000000000002" y="346" font-size="12" text-anchor="middle">4</text><line x1="312.8" y1="329" x2="312.8" y2="334" stroke="#000000" stroke-width="1" /><text x="312.8" y="346" font-size="12" text-anchor="middle">6</text><line x1="397.40000000000003" y1="329" x2="397.40000000000003" y2="334" stroke="#000000" stroke-width="1" /><text x="397.40000000000003" y="346" font-size="12" text-anchor="middle">8</text><line x1="482" y1="329" x2="482" y2="334" stroke="#000000" stroke-width="1" /><text x="482" y="346" font-size="12" text-anchor="middle">10</text><line x1="54" y1="329" x2="59" y2="329" stroke="#000000" stroke-width="1" /><text x="51" y="333.2" font-size="12" text-anchor="end">0</text><line x1="54" y1="272" x2="59" y2="272" stroke="#000000" stroke-width="1" /><text x="51" y="276.2" font-size="12" text-anchor="end">2</text><line x1="54" y1="215" x2="59" y2="215" stroke="#000000" stroke-width="1" /><text x="51" y="219.20000000000002" font-size="12" text-anchor="end">4</text><line x1="54" y1="158" x2="59" y2="158" stroke="#000000" stroke-width="1" /><text x="51" y="162.20000000000002" font-size="12" text-anchor="end">6</text><line x1="54" y1="101" x2="59" y2="101" stroke="#000000" stroke-width="1" /><text x="51" y="105.2" font-size="12" text-anchor="end">8</text><line x1="54" y1="44" x2="59" y2="44" stroke="#000000" stroke-width="1" /><text x="51" y="48.2" font-size="12" text-anchor="end">10</text><text x="270.5" y="373" font-size="14" text-anchor="middle">X</text><text x="15" y="190" font-size="14" text-anchor="middle" transform="rotate(-90,15,190)">Y</text><text x="270.5" y="22" font-size="18" text-anchor="middle">Scatter</text><g clip-path="url(#kuva-clip-0)"><circle cx="101.3" cy="263.45" r="4.5" fill="#4682b4" /><circle cx="147.83" cy="212.15" r="4.5" fill="#4682b4" /><circle cx="202.82" cy="237.8" r="4.5" fill="#4682b4" /><circle cx="236.66" cy="163.70000000000002" r="4.5" fill="#4682b4" /><circle cx="270.5" cy="183.65" r="4.5" fill="#4682b4" /><circle cx="325.49" cy="123.8" r="4.5" fill="#4682b4" /><circle cx="359.33" cy="132.35" r="4.5" fill="#4682b4" /><circle cx="418.55" cy="78.2" r="4.5" fill="#4682b4" /></g></g><text x="18" y="28" font-size="16" text-anchor="start" font-weight="bold">A</text><g transform="translate(525,10)"><line x1="147.88" y1="44" x2="147.88" y2="329" stroke="#cccccc" stroke-width="1" /><line x1="236.75" y1="44" x2="236.75" y2="329" stroke="#cccccc" stroke-width="1" /><line x1="325.63" y1="44" x2="325.63" y2="329" stroke="#cccccc" stroke-width="1" /><line x1="414.5" y1="44" x2="414.5" y2="329" stroke="#cccccc" stroke-width="1" /><line x1="59" y1="288.29" x2="485.6" y2="288.29" stroke="#cccccc" stroke-width="1" /><line x1="59" y1="247.57" x2="485.6" y2="247.57" stroke="#cccccc" stroke-width="1" /><line x1="59" y1="206.86" x2="485.6" y2="206.86" stroke="#cccccc" stroke-width="1" /><line x1="59" y1="166.14000000000001" x2="485.6" y2="166.14000000000001" stroke="#cccccc" stroke-width="1" /><line x1="59" y1="125.43" x2="485.6" y2="125.43" stroke="#cccccc" stroke-width="1" /><line x1="59" y1="84.71000000000001" x2="485.6" y2="84.71000000000001" stroke="#cccccc" stroke-width="1" /><line x1="59" y1="44" x2="485.6" y2="44" stroke="#cccccc" stroke-width="1" /><line x1="59" y1="329" x2="485.6" y2="329" stroke="#000000" stroke-width="1" /><line x1="59" y1="44" x2="59" y2="329" stroke="#000000" stroke-width="1" /><line x1="59" y1="329" x2="59" y2="334" stroke="#000000" stroke-width="1" /><text x="59" y="346" font-size="12" text-anchor="middle">0</text><line x1="147.88" y1="329" x2="147.88" y2="334" stroke="#000000" stroke-width="1" /><text x="147.88" y="346" font-size="12" text-anchor="middle">2.5</text><line x1="236.75" y1="329" x2="236.75" y2="334" stroke="#000000" stroke-width="1" /><text x="236.75" y="346" font-size="12" text-anchor="middle">5</text><line x1="325.63" y1="329" x2="325.63" y2="334" stroke="#000000" stroke-width="1" /><text x="325.63" y="346" font-size="12" text-anchor="middle">7.5</text><line x1="414.5" y1="329" x2="414.5" y2="334" stroke="#000000" stroke-width="1" /><text x="414.5" y="346" font-size="12" text-anchor="middle">10</text><line x1="54" y1="329" x2="59" y2="329" stroke="#000000" stroke-width="1" /><text x="51" y="333.2" font-size="12" text-anchor="end">0</text><line x1="54" y1="288.29" x2="59" y2="288.29" stroke="#000000" stroke-width="1" /><text x="51" y="292.49" font-size="12" text-anchor="end">1</text><line x1="54" y1="247.57" x2="59" y2="247.57" stroke="#000000" stroke-width="1" /><text x="51" y="251.77" font-size="12" text-anchor="end">2</text><line x1="54" y1="206.86" x2="59" y2="206.86" stroke="#000000" stroke-width="1" /><text x="51" y="211.06" font-size="12" text-anchor="end">3</text><line x1="54" y1="166.14000000000001" x2="59" y2="166.14000000000001" stroke="#000000" stroke-width="1" /><text x="51" y="170.34" font-size="12" text-anchor="end">4</text><line x1="54" y1="125.43" x2="59" y2="125.43" stroke="#000000" stroke-width="1" /><text x="51" y="129.63" font-size="12" text-anchor="end">5</text><line x1="54" y1="84.71000000000001" x2="59" y2="84.71000000000001" stroke="#000000" stroke-width="1" /><text x="51" y="88.91" font-size="12" text-anchor="end">6</text><line x1="54" y1="44" x2="59" y2="44" stroke="#000000" stroke-width="1" /><text x="51" y="48.2" font-size="12" text-anchor="end">7</text><text x="272.3" y="373" font-size="14" text-anchor="middle">Time</text><text x="15" y="190" font-size="14" text-anchor="middle" transform="rotate(-90,15,190)">Value</text><text x="272.3" y="22" font-size="18" text-anchor="middle">Line</text><g clip-path="url(#kuva-clip-1)"><path d="M 59.0 329.0 L 76.78 300.58 L 94.55 272.65 L 112.33 245.66 L 130.1 220.05 L 147.88 196.18 L 165.65 174.36 L 183.43 154.82 L 201.20000000000002 137.67000000000002 L 218.98000000000002 122.95 L 236.75 110.61 L 254.53 100.48 L 272.3 92.32000000000001 L 290.08 85.8 L 307.85 80.54 L 325.63 76.10000000000001 L 343.40000000000003 71.99 L 361.18 67.75 L 378.95 62.88 L 396.73 56.94 L 414.5 49.5 " stroke="#dc143c" stroke-width="2" fill="none" /></g></g><text x="533" y="28" font-size="16" text-anchor="start" font-weight="bold">B</text></svg>