<svg xmlns="http://www.w3.org/2000/svg" width="900" height="560" font-family="DejaVu Sans, Liberation Sans, Arial, sans-serif" fill="black"><rect width="100%" height="100%" fill="white" /><defs><clipPath id="kuva-clip-15"><rect x="59" y="44" width="209.93" height="152.5"/></clipPath><clipPath id="kuva-clip-16"><rect x="59" y="44" width="209.93" height="152.5"/></clipPath><clipPath id="kuva-clip-17"><rect x="59" y="44" width="209.93" height="152.5"/></clipPath><clipPath id="kuva-clip-18"><rect x="59" y="44" width="209.93" height="152.5"/></clipPath><clipPath id="kuva-clip-19"><rect x="59" y="44" width="209.93" height="152.5"/></clipPath><clipPath id="kuva-clip-20"><rect x="59" y="44" width="209.93" height="152.5"/></clipPath></defs><g transform="translate(10,40)"><line x1="100.99000000000001" y1="44" x2="100.99000000000001" y2="196.5" stroke="#cccccc" stroke-width="1" /><line x1="142.97" y1="44" x2="142.97" y2="196.5" stroke="#cccccc" stroke-width="1" /><line x1="184.96" y1="44" x2="184.96" y2="196.5" stroke="#cccccc" stroke-width="1" /><line x1="226.95000000000002" y1="44" x2="226.95000000000002" y2="196.5" stroke="#cccccc" stroke-width="1" /><line x1="268.93" y1="44" x2="268.93" y2="196.5" stroke="#cccccc" stroke-width="1" /><line x1="59" y1="166" x2="268.93" y2="166" stroke="#cccccc" stroke-width="1" /><line x1="59" y1="135.5" x2="268.93" y2="135.5" stroke="#cccccc" stroke-width="1" /><line x1="59" y1="105" x2="268.93" y2="105" stroke="#cccccc" stroke-width="1" /><line x1="59" y1="74.5" x2="268.93" y2="74.5" stroke="#cccccc" stroke-width="1" /><line x1="59" y1="44" x2="268.93" y2="44" stroke="#cccccc" stroke-width="1" /><line x1="59" y1="196.5" x2="268.93" y2="196.5" stroke="#000000" stroke-width="1" /><line x1="59" y1="44" x2="59" y2="196.5" stroke="#000000" stroke-width="1" /><line x1="59" y1="196.5" x2="59" y2="201.5" stroke="#000000" stroke-width="1" /><text x="59" y="213.5" font-size="12" text-anchor="middle">0</text><line x1="100.99000000000001" y1="196.5" x2="100.99000000000001" y2="201.5" stroke="#000000" stroke-width="1" /><text x="100.99000000000001" y="213.5" font-size="12" text-anchor="middle">2</text><line x1="142.97" y1="196.5" x2="142.97" y2="201.5" stroke="#000000" stroke-width="1" /><text x="142.97" y="213.5" font-size="12" text-anchor="middle">4</text><line x1="184.96" y1="196.5" x2="184.96" y2="201.5" stroke="#000000" stroke-width="1" /><text x="184.96" y="213.5" font-size="12" text-anchor="middle">6</text><line x1="226.95000000000002" y1="196.5" x2="226.95000000000002" y2="201.5" stroke="#000000" stroke-width="1" /><text x="226.95000000000002" y="213.5" font-size="12" text-anchor="middle">8</text><line x1="268.93" y1="196.5" x2="268.93" y2="201.5" stroke="#000000" stroke-width="1" /><text x="268.93" y="213.5" font-size="12" text-anchor="middle">10</text><line x1="54" y1="196.5" x2="59" y2="196.5" stroke="#000000" stroke-width="1" /><text x="51" y="200.70000000000002" font-size="12" text-anchor="end">-2</text><line x1="54" y1="166" x2="59" y2="166" stroke="#000000" stroke-width="1" /><text x="51" y="170.20000000000002" font-size="12" text-anchor="end">0</text><line x1="54" y1="135.5" x2="59" y2="135.5" stroke="#000000" stroke-width="1" /><text x="51" y="139.70000000000002" font-size="12" text-anchor="end">2</text><line x1="54" y1="105" x2="59" y2="105" stroke="#000000" stroke-width="1" /><text x="51" y="109.2" font-size="12" text-anchor="end">4</text><line x1="54" y1="74.5" x2="59" y2="74.5" stroke="#000000" stroke-width="1" /><text x="51" y="78.7" font-size="12" text-anchor="end">6</text><line x1="54" y1="44" x2="59" y2="44" stroke="#000000" stroke-width="1" /><text x="51" y="48.2" font-size="12" text-anchor="end">8</text><text x="163.97" y="22" font-size="18" text-anchor="middle">Alpha</text><g clip-path="url(#kuva-clip-15)"><circle cx="59" cy="195.25" r="4.5" fill="#4682b4" /><circle cx="79.99" cy="173.05" r="4.5" fill="#4682b4" /><circle cx="100.99000000000001" cy="144.13" r="4.5" fill="#4682b4" /><circle cx="121.98" cy="114.33" r="4.5" fill="#4682b4" /><circle cx="142.97" cy="89.79" r="4.5" fill="#4682b4" /><circle cx="163.97" cy="74.82000000000001" r="4.5" fill="#4682b4" /><circle cx="184.96" cy="70.4" r="4.5" fill="#4682b4" /><circle cx="205.95000000000002" cy="73.8" r="4.5" fill="#4682b4" /><circle cx="226.95000000000002" cy="79.58" r="4.5" fill="#4682b4" /><circle cx="247.94" cy="81.45" r="4.5" fill="#4682b4" /></g></g><text x="18" y="58" font-size="16" text-anchor="start" font-weight="bold">A</text><g transform="translate(308.3333333333333,40)"><line x1="100.99000000000001" y1="44" x2="100.99000000000001" y2="196.5" stroke="#cccccc" stroke-width="1" /><line x1="142.97" y1="44" x2="142.97" y2="196.5" stroke="#cccccc" stroke-width="1" /><line x1="184.96" y1="44" x2="184.96" y2="196.5" stroke="#cccccc" stroke-width="1" /><line x1="226.95000000000002" y1="44" x2="226.95000000000002" y2="196.5" stroke="#cccccc" stroke-width="1" /><line x1="268.93" y1="44" x2="268.93" y2="196.5" stroke="#cccccc" stroke-width="1" /><line x1="59" y1="166" x2="268.93" y2="166" stroke="#cccccc" stroke-width="1" /><line x1="59" y1="135.5" x2="268.93" y2="135.5" stroke="#cccccc" stroke-width="1" /><line x1="59" y1="105" x2="268.93" y2="105" stroke="#cccccc" stroke-width="1" /><line x1="59" y1="74.5" x2="268.93" y2="74.5" stroke="#cccccc" stroke-width="1" /><line x1="59" y1="44" x2="268.93" y2="44" stroke="#cccccc" stroke-width="1" /><line x1="59" y1="196.5" x2="268.93" y2="196.5" stroke="#000000" stroke-width="1" /><line x1="59" y1="44" x2="59" y2="196.5" stroke="#000000" stroke-width="1" /><line x1="59" y1="196.5" x2="59" y2="201.5" stroke="#000000" stroke-width="1" /><text x="59" y="213.5" font-size="12" text-anchor="middle">0</text><line x1="100.99000000000001" y1="196.5" x2="100.99000000000001" y2="201.5" stroke="#000000" stroke-width="1" /><text x="100.99000000000001" y="213.5" font-size="12" text-anchor="middle">2</text><line x1="142.97" y1="196.5" x2="142.97" y2="201.5" stroke="#000000" stroke-width="1" /><text x="142.97" y="213.5" font-size="12" text-anchor="middle">4</text><line x1="184.96" y1="196.5" x2="184.96" y2="201.5" stroke="#000000" stroke-width="1" /><text x="184.96" y="213.5" font-size="12" text-anchor="middle">6</text><line x1="226.95000000000002" y1="196.5" x2="226.95000000000002" y2="201.5" stroke="#000000" stroke-width="1" /><text x="226.95000000000002" y="213.5" font-size="12" text-anchor="middle">8</text><line x1="268.93" y1="196.5" x2="268.93" y2="201.5" stroke="#000000" stroke-width="1" /><text x="268.93" y="213.5" font-size="12" text-anchor="middle">10</text><line x1="54" y1="196.5" x2="59" y2="196.5" stroke="#000000" stroke-width="1" /><text x="51" y="200.70000000000002" font-size="12" text-anchor="end">-2</text><line x1="54" y1="166" x2="59" y2="166" stroke="#000000" stroke-width="1" /><text x="51" y="170.20000000000002" font-size="12" text-anchor="end">0</text><line x1="54" y1="135.5" x2="59" y2="135.5" stroke="#000000" stroke-width="1" /><text x="51" y="139.70000000000002" font-size="12" text-anchor="end">2</text><line x1="54" y1="105" x2="59" y2="105" stroke="#000000" stroke-width="1" /><text x="51" y="109.2" font-size="12" text-anchor="end">4</text><line x1="54" y1="74.5" x2="59" y2="74.5" stroke="#000000" stroke-width="1" /><text x="51" y="78.7" font-size="12" text-anchor="end">6</text><line x1="54" y1="44" x2="59" y2="44" stroke="#000000" stroke-width="1" /><text x="51" y="48.2" font-size="12" text-anchor="end">8</text><text x="163.97" y="22" font-size="18" text-anchor="middle">Beta</text><g clip-path="url(#kuva-clip-16)"><circle cx="59" cy="189.08" r="4.5" fill="#dc143c" /><circle cx="79.99" cy="184.11" r="4.5" fill="#dc143c" /><circle cx="100.99000000000001" cy="168.55" r="4.5" fill="#dc143c" /><circle cx="121.98" cy="143.57" r="4.5" fill="#dc143c" /><circle cx="142.97" cy="113.65" r="4.5" fill="#dc143c" /><circle cx="163.97" cy="84.96000000000001" r="4.5" fill="#dc143c" /><circle cx="184.96" cy="63.28" r="4.5" fill="#dc143c" /><circle cx="205.95000000000002" cy="51.910000000000004" r="4.5" fill="#dc143c" /><circle cx="226.95000000000002" cy="50.56" r="4.5" fill="#dc143c" /><circle cx="247.94" cy="55.44" r="4.5" fill="#dc143c" /></g></g><text x="316.33" y="58" font-size="16" text-anchor="start" font-weight="bold">B</text><g transform="translate(606.6666666666666,40)"><line x1="100.99000000000001" y1="44" x2="100.99000000000001" y2="196.5" stroke="#cccccc" stroke-width="1" /><line x1="142.97" y1="44" x2="142.97" y2="196.5" stroke="#cccccc" stroke-width="1" /><line x1="184.96" y1="44" x2="184.96" y2="196.5" stroke="#cccccc" stroke-width="1" /><line x1="226.95000000000002" y1="44" x2="226.95000000000002" y2="196.5" stroke="#cccccc" stroke-width="1" /><line x1="268.93" y1="44" x2="268.93" y2="196.5" stroke="#cccccc" stroke-width="1" /><line x1="59" y1="166" x2="268.93" y2="166" stroke="#cccccc" stroke-width="1" /><line x1="59" y1="135.5" x2="268.93" y2="135.5" stroke="#cccccc" stroke-width="1" /><line x1="59" y1="105" x2="268.93" y2="105" stroke="#cccccc" stroke-width="1" /><line x1="59" y1="74.5" x2="268.93" y2="74.5" stroke="#cccccc" stroke-width="1" /><line x1="59" y1="44" x2="268.93" y2="44" stroke="#cccccc" stroke-width="1" /><line x1="59" y1="196.5" x2="268.93" y2="196.5" stroke="#000000" stroke-width="1" /><line x1="59" y1="44" x2="59" y2="196.5" stroke="#000000" stroke-width="1" /><line x1="59" y1="196.5" x2="59" y2="201.5" stroke="#000000" stroke-width="1" /><text x="59" y="213.5" font-size="12" text-anchor="middle">0</text><line x1="100.99000000000001" y1="196.5" x2="100.99000000000001" y2="201.5" stroke="#000000" stroke-width="1" /><text x="100.99000000000001" y="213.5" font-size="12" text-anchor="middle">2</text><line x1="142.97" y1="196.5" x2="142.97" y2="201.5" stroke="#000000" stroke-width="1" /><text x="142.97" y="213.5" font-size="12" text-anchor="middle">4</text><line x1="184.96" y1="196.5" x2="184.96" y2="201.5" stroke="#000000" stroke-width="1" /><text x="184.96" y="213.5" font-size="12" text-anchor="middle">6</text><line x1="226.95000000000002" y1="196.5" x2="226.95000000000002" y2="201.5" stroke="#000000" stroke-width="1" /><text x="226.95000000000002" y="213.5" font-size="12" text-anchor="middle">8</text><line x1="268.93" y1="196.5" x2="268.93" y2="201.5" stroke="#000000" stroke-width="1" /><text x="268.93" y="213.5" font-size="12" text-anchor="middle">10</text><line x1="54" y1="196.5" x2="59" y2="196.5" stroke="#000000" stroke-width="1" /><text x="51" y="200.70000000000002" font-size="12" text-anchor="end">-2</text><line x1="54" y1="166" x2="59" y2="166" stroke="#000000" stroke-width="1" /><text x="51" y="170.20000000000002" font-size="12" text-anchor="end">0</text><line x1="54" y1="135.5" x2="59" y2="135.5" stroke="#000000" stroke-width="1" /><text x="51" y="139.70000000000002" font-size="12" text-anchor="end">2</text><line x1="54" y1="105" x2="59" y2="105" stroke="#000000" stroke-width="1" /><text x="51" y="109.2" font-size="12" text-anchor="end">4</text><line x1="54" y1="74.5" x2="59" y2="74.5" stroke="#000000" stroke-width="1" /><text x="51" y="78.7" font-size="12" text-anchor="end">6</text><line x1="54" y1="44" x2="59" y2="44" stroke="#000000" stroke-width="1" /><text x="51" y="48.2" font-size="12" text-anchor="end">8</text><text x="163.97" y="22" font-size="18" text-anchor="middle">Gamma</text><g clip-path="url(#kuva-clip-17)"><circle cx="59" cy="195.25" r="4.5" fill="seagreen" /><circle cx="79.99" cy="173.05" r="4.5" fill="seagreen" /><circle cx="100.99000000000001" cy="144.13" r="4.5" fill="seagreen" /><circle cx="121.98" cy="114.33" r="4.5" fill="seagreen" /><circle cx="142.97" cy="89.79" r="4.5" fill="seagreen" /><circle cx="163.97" cy="74.82000000000001" r="4.5" fill="seagreen" /><circle cx="184.96" cy="70.4" r="4.5" fill="seagreen" /><circle cx="205.95000000000002" cy="73.8" r="4.5" fill="seagreen" /><circle cx="226.95000000000002" cy="79.58" r="4.5" fill="seagreen" /><circle cx="247.94" cy="81.45" r="4.5" fill="seagreen" /></g></g><text x="614.67" y="58" font-size="16" text-anchor="start" font-weight="bold">C</text><g transform="translate(10,302.5)"><line x1="100.99000000000001" y1="44" x2="100.99000000000001" y2="196.5" stroke="#cccccc" stroke-width="1" /><line x1="142.97" y1="44" x2="142.97" y2="196.5" stroke="#cccccc" stroke-width="1" /><line x1="184.96" y1="44" x2="184.96" y2="196.5" stroke="#cccccc" stroke-width="1" /><line x1="226.95000000000002" y1="44" x2="226.95000000000002" y2="196.5" stroke="#cccccc" stroke-width="1" /><line x1="268.93" y1="44" x2="268.93" y2="196.5" stroke="#cccccc" stroke-width="1" /><line x1="59" y1="166" x2="268.93" y2="166" stroke="#cccccc" stroke-width="1" /><line x1="59" y1="135.5" x2="268.93" y2="135.5" stroke="#cccccc" stroke-width="1" /><line x1="59" y1="105" x2="268.93" y2="105" stroke="#cccccc" stroke-width="1" /><line x1="59" y1="74.5" x2="268.93" y2="74.5" stroke="#cccccc" stroke-width="1" /><line x1="59" y1="44" x2="268.93" y2="44" stroke="#cccccc" stroke-width="1" /><line x1="59" y1="196.5" x2="268.93" y2="196.5" stroke="#000000" stroke-width="1" /><line x1="59" y1="44" x2="59" y2="196.5" stroke="#000000" stroke-width="1" /><line x1="59" y1="196.5" x2="59" y2="201.5" stroke="#000000" stroke-width="1" /><text x="59" y="213.5" font-size="12" text-anchor="middle">0</text><line x1="100.99000000000001" y1="196.5" x2="100.99000000000001" y2="201.5" stroke="#000000" stroke-width="1" /><text x="100.99000000000001" y="213.5" font-size="12" text-anchor="middle">2</text><line x1="142.97" y1="196.5" x2="142.97" y2="201.5" stroke="#000000" stroke-width="1" /><text x="142.97" y="213.5" font-size="12" text-anchor="middle">4</text><line x1="184.96" y1="196.5" x2="184.96" y2="201.5" stroke="#000000" stroke-width="1" /><text x="184.96" y="213.5" font-size="12" text-anchor="middle">6</text><line x1="226.95000000000002" y1="196.5" x2="226.95000000000002" y2="201.5" stroke="#000000" stroke-width="1" /><text x="226.95000000000002" y="213.5" font-size="12" text-anchor="middle">8</text><line x1="268.93" y1="196.5" x2="268.93" y2="201.5" stroke="#000000" stroke-width="1" /><text x="268.93" y="213.5" font-size="12" text-anchor="middle">10</text><line x1="54" y1="196.5" x2="59" y2="196.5" stroke="#000000" stroke-width="1" /><text x="51" y="200.70000000000002" font-size="12" text-anchor="end">-2</text><line x1="54" y1="166" x2="59" y2="166" stroke="#000000" stroke-width="1" /><text x="51" y="170.20000000000002" font-size="12" text-anchor="end">0</text><line x1="54" y1="135.5" x2="59" y2="135.5" stroke="#000000" stroke-width="1" /><text x="51" y="139.70000000000002" font-size="12" text-anchor="end">2</text><line x1="54" y1="105" x2="59" y2="105" stroke="#000000" stroke-width="1" /><text x="51" y="109.2" font-size="12" text-anchor="end">4</text><line x1="54" y1="74.5" x2="59" y2="74.5" stroke="#000000" stroke-width="1" /><text x="51" y="78.7" font-size="12" text-anchor="end">6</text><line x1="54" y1="44" x2="59" y2="44" stroke="#000000" stroke-width="1" /><text x="51" y="48.2" font-size="12" text-anchor="end">8</text><text x="163.97" y="22" font-size="18" text-anchor="middle">Delta</text><g clip-path="url(#kuva-clip-18)"><circle cx="59" cy="195.25" r="4.5" fill="#ff8c00" /><circle cx="79.99" cy="173.05" r="4.5" fill="#ff8c00" /><circle cx="100.99000000000001" cy="144.13" r="4.5" fill="#ff8c00" /><circle cx="121.98" cy="114.33" r="4.5" fill="#ff8c00" /><circle cx="142.97" cy="89.79" r="4.5" fill="#ff8c00" /><circle cx="163.97" cy="74.82000000000001" r="4.5" fill="#ff8c00" /><circle cx="184.96" cy="70.4" r="4.5" fill="#ff8c00" /><circle cx="205.95000000000002" cy="73.8" r="4.5" fill="#ff8c00" /><circle cx="226.95000000000002" cy="79.58" r="4.5" fill="#ff8c00" /><circle cx="247.94" cy="81.45" r="4.5" fill="#ff8c00" /></g></g><text x="18" y="320.5" font-size="16" text-anchor="start" font-weight="bold">D</text><g transform="translate(308.3333333333333,302.5)"><line x1="100.99000000000001" y1="44" x2="100.99000000000001" y2="196.5" stroke="#cccccc" stroke-width="1" /><line x1="142.97" y1="44" x2="142.97" y2="196.5" stroke="#cccccc" stroke-width="1" /><line x1="184.96" y1="44" x2="184.96" y2="196.5" stroke="#cccccc" stroke-width="1" /><line x1="226.95000000000002" y1="44" x2="226.95000000000002" y2="196.5" stroke="#cccccc" stroke-width="1" /><line x1="268.93" y1="44" x2="268.93" y2="196.5" stroke="#cccccc" stroke-width="1" /><line x1="59" y1="174.71" x2="268.93" y2="174.71" stroke="#cccccc" stroke-width="1" /><line x1="59" y1="152.93" x2="268.93" y2="152.93" stroke="#cccccc" stroke-width="1" /><line x1="59" y1="131.14000000000001" x2="268.93" y2="131.14000000000001" stroke="#cccccc" stroke-width="1" /><line x1="59" y1="109.36" x2="268.93" y2="109.36" stroke="#cccccc" stroke-width="1" /><line x1="59" y1="87.57000000000001" x2="268.93" y2="87.57000000000001" stroke="#cccccc" stroke-width="1" /><line x1="59" y1="65.79" x2="268.93" y2="65.79" stroke="#cccccc" stroke-width="1" /><line x1="59" y1="44" x2="268.93" y2="44" stroke="#cccccc" stroke-width="1" /><line x1="59" y1="196.5" x2="268.93" y2="196.5" stroke="#000000" stroke-width="1" /><line x1="59" y1="44" x2="59" y2="196.5" stroke="#000000" stroke-width="1" /><line x1="59" y1="196.5" x2="59" y2="201.5" stroke="#000000" stroke-width="1" /><text x="59" y="213.5" font-size="12" text-anchor="middle">0</text><line x1="100.99000000000001" y1="196.5" x2="100.99000000000001" y2="201.5" stroke="#000000" stroke-width="1" /><text x="100.99000000000001" y="213.5" font-size="12" text-anchor="middle">2</text><line x1="142.97" y1="196.5" x2="142.97" y2="201.5" stroke="#000000" stroke-width="1" /><text x="142.97" y="213.5" font-size="12" text-anchor="middle">4</text><line x1="184.96" y1="196.5" x2="184.96" y2="201.5" stroke="#000000" stroke-width="1" /><text x="184.96" y="213.5" font-size="12" text-anchor="middle">6</text><line x1="226.95000000000002" y1="196.5" x2="226.95000000000002" y2="201.5" stroke="#000000" stroke-width="1" /><text x="226.95000000000002" y="213.5" font-size="12" text-anchor="middle">8</text><line x1="268.93" y1="196.5" x2="268.93" y2="201.5" stroke="#000000" stroke-width="1" /><text x="268.93" y="213.5" font-size="12" text-anchor="middle">10</text><line x1="54" y1="196.5" x2="59" y2="196.5" stroke="#000000" stroke-width="1" /><text x="51" y="200.70000000000002" font-size="12" text-anchor="end">0</text><line x1="54" y1="174.71" x2="59" y2="174.71" stroke="#000000" stroke-width="1" /><text x="51" y="178.91" font-size="12" text-anchor="end">1</text><line x1="54" y1="152.93" x2="59" y2="152.93" stroke="#000000" stroke-width="1" /><text x="51" y="157.13" font-size="12" text-anchor="end">2</text><line x1="54" y1="131.14000000000001" x2="59" y2="131.14000000000001" stroke="#000000" stroke-width="1" /><text x="51" y="135.34" font-size="12" text-anchor="end">3</text><line x1="54" y1="109.36" x2="59" y2="109.36" stroke="#000000" stroke-width="1" /><text x="51" y="113.56" font-size="12" text-anchor="end">4</text><line x1="54" y1="87.57000000000001" x2="59" y2="87.57000000000001" stroke="#000000" stroke-width="1" /><text x="51" y="91.77" font-size="12" text-anchor="end">5</text><line x1="54" y1="65.79" x2="59" y2="65.79" stroke="#000000" stroke-width="1" /><text x="51" y="69.99" font-size="12" text-anchor="end">6</text><line x1="54" y1="44" x2="59" y2="44" stroke="#000000" stroke-width="1" /><text x="51" y="48.2" font-size="12" text-anchor="end">7</text><text x="163.97" y="22" font-size="18" text-anchor="middle">Epsilon</text><g clip-path="url(#kuva-clip-19)"><circle cx="59" cy="167.87" r="4.5" fill="mediumpurple" /><circle cx="79.99" cy="136.9" r="4.5" fill="mediumpurple" /><circle cx="100.99000000000001" cy="120.65" r="4.5" fill="mediumpurple" /><circle cx="121.98" cy="118.73" r="4.5" fill="mediumpurple" /><circle cx="142.97" cy="125.71000000000001" r="4.5" fill="mediumpurple" /><circle cx="163.97" cy="133.06" r="4.5" fill="mediumpurple" /><circle cx="184.96" cy="132.14000000000001" r="4.5" fill="mediumpurple" /><circle cx="205.95000000000002" cy="117.16" r="4.5" fill="mediumpurple" /><circle cx="226.95000000000002" cy="87.29" r="4.5" fill="mediumpurple" /><circle cx="247.94" cy="46.86" r="4.5" fill="mediumpurple" /></g></g><text x="316.33" y="320.5" font-size="16" text-anchor="start" font-weight="bold">E</text><g transform="translate(606.6666666666666,302.5)"><line x1="100.99000000000001" y1="44" x2="100.99000000000001" y2="196.5" stroke="#cccccc" stroke-width="1" /><line x1="142.97" y1="44" x2="142.97" y2="196.5" stroke="#cccccc" stroke-width="1" /><line x1="184.96" y1="44" x2="184.96" y2="196.5" stroke="#cccccc" stroke-width="1" /><line x1="226.95000000000002" y1="44" x2="226.95000000000002" y2="196.5" stroke="#cccccc" stroke-width="1" /><line x1="268.93" y1="44" x2="268.93" y2="196.5" stroke="#cccccc" stroke-width="1" /><line x1="59" y1="166" x2="268.93" y2="166" stroke="#cccccc" stroke-width="1" /><line x1="59" y1="135.5" x2="268.93" y2="135.5" stroke="#cccccc" stroke-width="1" /><line x1="59" y1="105" x2="268.93" y2="105" stroke="#cccccc" stroke-width="1" /><line x1="59" y1="74.5" x2="268.93" y2="74.5" stroke="#cccccc" stroke-width="1" /><line x1="59" y1="44" x2="268.93" y2="44" stroke="#cccccc" stroke-width="1" /><line x1="59" y1="196.5" x2="268.93" y2="196.5" stroke="#000000" stroke-width="1" /><line x1="59" y1="44" x2="59" y2="196.5" stroke="#000000" stroke-width="1" /><line x1="59" y1="196.5" x2="59" y2="201.5" stroke="#000000" stroke-width="1" /><text x="59" y="213.5" font-size="12" text-anchor="middle">0</text><line x1="100.99000000000001" y1="196.5" x2="100.99000000000001" y2="201.5" stroke="#000000" stroke-width="1" /><text x="100.99000000000001" y="213.5" font-size="12" text-anchor="middle">2</text><line x1="142.97" y1="196.5" x2="142.97" y2="201.5" stroke="#000000" stroke-width="1" /><text x="142.97" y="213.5" font-size="12" text-anchor="middle">4</text><line x1="184.96" y1="196.5" x2="184.96" y2="201.5" stroke="#000000" stroke-width="1" /><text x="184.96" y="213.5" font-size="12" text-anchor="middle">6</text><line x1="226.95000000000002" y1="196.5" x2="226.95000000000002" y2="201.5" stroke="#000000" stroke-width="1" /><text x="226.95000000000002" y="213.5" font-size="12" text-anchor="middle">8</text><line x1="268.93" y1="196.5" x2="268.93" y2="201.5" stroke="#000000" stroke-width="1" /><text x="268.93" y="213.5" font-size="12" text-anchor="middle">10</text><line x1="54" y1="196.5" x2="59" y2="196.5" stroke="#000000" stroke-width="1" /><text x="51" y="200.70000000000002" font-size="12" text-anchor="end">-2</text><line x1="54" y1="166" x2="59" y2="166" stroke="#000000" stroke-width="1" /><text x="51" y="170.20000000000002" font-size="12" text-anchor="end">0</text><line x1="54" y1="135.5" x2="59" y2="135.5" stroke="#000000" stroke-width="1" /><text x="51" y="139.70000000000002" font-size="12" text-anchor="end">2</text><line x1="54" y1="105" x2="59" y2="105" stroke="#000000" stroke-width="1" /><text x="51" y="109.2" font-size="12" text-anchor="end">4</text><line x1="54" y1="74.5" x2="59" y2="74.5" stroke="#000000" stroke-width="1" /><text x="51" y="78.7" font-size="12" text-anchor="end">6</text><line x1="54" y1="44" x2="59" y2="44" stroke="#000000" stroke-width="1" /><text x="51" y="48.2" font-size="12" text-anchor="end">8</text><text x="163.97" y="22" font-size="18" text-anchor="middle">Zeta</text><g clip-path="url(#kuva-clip-20)"><circle cx="59" cy="189.08" r="4.5" fill="#008080" /><circle cx="79.99" cy="184.11" r="4.5" fill="#008080" /><circle cx="100.99000000000001" cy="168.55" r="4.5" fill="#008080" /><circle cx="121.98" cy="143.57" r="4.5" fill="#008080" /><circle cx="142.97" cy="113.65" r="4.5" fill="#008080" /><circle cx="163.97" cy="84.96000000000001" r="4.5" fill="#008080" /><circle cx="184.96" cy="63.28" r="4.5" fill="#008080" /><circle cx="205.95000000000002" cy="51.910000000000004" r="4.5" fill="#008080" /><circle cx="226.95000000000002" cy="50.56" r="4.5" fill="#008080" /><circle cx="247.94" cy="55.44" r="4.5" fill="#008080" /></g></g><text x="614.67" y="320.5" font-size="16" text-anchor="start" font-weight="bold">F</text><text x="450" y="22" font-size="20" text-anchor="middle">Fixed 900 × 560 figure — cells auto-sized</text></svg>