<svg xmlns="http://www.w3.org/2000/svg" width="900" height="560" font-family="DejaVu Sans, Liberation Sans, Arial, sans-serif" fill="black"><rect width="100%" height="100%" fill="white" /><g transform="translate(10,40)"><line x1="72.2" y1="196.5" x2="269.33" y2="196.5" stroke="#000000" stroke-width="1" /><line x1="72.2" y1="44" x2="72.2" y2="196.5" stroke="#000000" stroke-width="1" /><line x1="111.63" y1="44" x2="111.63" y2="196.5" stroke="#cccccc" stroke-width="1" /><line x1="151.05" y1="44" x2="151.05" y2="196.5" stroke="#cccccc" stroke-width="1" /><line x1="190.48" y1="44" x2="190.48" y2="196.5" stroke="#cccccc" stroke-width="1" /><line x1="229.91" y1="44" x2="229.91" y2="196.5" stroke="#cccccc" stroke-width="1" /><line x1="269.33" y1="44" x2="269.33" y2="196.5" stroke="#cccccc" stroke-width="1" /><line x1="72.2" y1="166" x2="269.33" y2="166" stroke="#cccccc" stroke-width="1" /><line x1="72.2" y1="135.5" x2="269.33" y2="135.5" stroke="#cccccc" stroke-width="1" /><line x1="72.2" y1="105" x2="269.33" y2="105" stroke="#cccccc" stroke-width="1" /><line x1="72.2" y1="74.5" x2="269.33" y2="74.5" stroke="#cccccc" stroke-width="1" /><line x1="72.2" y1="44" x2="269.33" y2="44" stroke="#cccccc" stroke-width="1" /><line x1="72.2" y1="196.5" x2="72.2" y2="201.5" stroke="#000000" stroke-width="1" /><text x="72.2" y="213.5" font-size="12" text-anchor="middle">0</text><line x1="111.63" y1="196.5" x2="111.63" y2="201.5" stroke="#000000" stroke-width="1" /><text x="111.63" y="213.5" font-size="12" text-anchor="middle">2</text><line x1="151.05" y1="196.5" x2="151.05" y2="201.5" stroke="#000000" stroke-width="1" /><text x="151.05" y="213.5" font-size="12" text-anchor="middle">4</text><line x1="190.48" y1="196.5" x2="190.48" y2="201.5" stroke="#000000" stroke-width="1" /><text x="190.48" y="213.5" font-size="12" text-anchor="middle">6</text><line x1="229.91" y1="196.5" x2="229.91" y2="201.5" stroke="#000000" stroke-width="1" /><text x="229.91" y="213.5" font-size="12" text-anchor="middle">8</text><line x1="269.33" y1="196.5" x2="269.33" y2="201.5" stroke="#000000" stroke-width="1" /><text x="269.33" y="213.5" font-size="12" text-anchor="middle">10</text><line x1="67.2" y1="196.5" x2="72.2" y2="196.5" stroke="#000000" stroke-width="1" /><text x="64.2" y="200.70000000000002" font-size="12" text-anchor="end">-2</text><line x1="67.2" y1="166" x2="72.2" y2="166" stroke="#000000" stroke-width="1" /><text x="64.2" y="170.20000000000002" font-size="12" text-anchor="end">0</text><line x1="67.2" y1="135.5" x2="72.2" y2="135.5" stroke="#000000" stroke-width="1" /><text x="64.2" y="139.70000000000002" font-size="12" text-anchor="end">2</text><line x1="67.2" y1="105" x2="72.2" y2="105" stroke="#000000" stroke-width="1" /><text x="64.2" y="109.2" font-size="12" text-anchor="end">4</text><line x1="67.2" y1="74.5" x2="72.2" y2="74.5" stroke="#000000" stroke-width="1" /><text x="64.2" y="78.7" font-size="12" text-anchor="end">6</text><line x1="67.2" y1="44" x2="72.2" y2="44" stroke="#000000" stroke-width="1" /><text x="64.2" y="48.2" font-size="12" text-anchor="end">8</text><text x="170.77" y="22" font-size="18" text-anchor="middle">Alpha</text><circle cx="72.2" cy="195.25" r="4.5" fill="#4682b4" /><circle cx="91.91" cy="173.05" r="4.5" fill="#4682b4" /><circle cx="111.63" cy="144.13" r="4.5" fill="#4682b4" /><circle cx="131.34" cy="114.33" r="4.5" fill="#4682b4" /><circle cx="151.05" cy="89.79" r="4.5" fill="#4682b4" /><circle cx="170.77" cy="74.82000000000001" r="4.5" fill="#4682b4" /><circle cx="190.48" cy="70.4" r="4.5" fill="#4682b4" /><circle cx="210.19" cy="73.8" r="4.5" fill="#4682b4" /><circle cx="229.91" cy="79.58" r="4.5" fill="#4682b4" /><circle cx="249.62" cy="81.45" r="4.5" fill="#4682b4" /></g><text x="18" y="58" font-size="16" text-anchor="start" font-weight="bold">A</text><g transform="translate(308.3333333333333,40)"><line x1="72.2" y1="196.5" x2="269.33" y2="196.5" stroke="#000000" stroke-width="1" /><line x1="72.2" y1="44" x2="72.2" y2="196.5" stroke="#000000" stroke-width="1" /><line x1="111.63" y1="44" x2="111.63" y2="196.5" stroke="#cccccc" stroke-width="1" /><line x1="151.05" y1="44" x2="151.05" y2="196.5" stroke="#cccccc" stroke-width="1" /><line x1="190.48" y1="44" x2="190.48" y2="196.5" stroke="#cccccc" stroke-width="1" /><line x1="229.91" y1="44" x2="229.91" y2="196.5" stroke="#cccccc" stroke-width="1" /><line x1="269.33" y1="44" x2="269.33" y2="196.5" stroke="#cccccc" stroke-width="1" /><line x1="72.2" y1="166" x2="269.33" y2="166" stroke="#cccccc" stroke-width="1" /><line x1="72.2" y1="135.5" x2="269.33" y2="135.5" stroke="#cccccc" stroke-width="1" /><line x1="72.2" y1="105" x2="269.33" y2="105" stroke="#cccccc" stroke-width="1" /><line x1="72.2" y1="74.5" x2="269.33" y2="74.5" stroke="#cccccc" stroke-width="1" /><line x1="72.2" y1="44" x2="269.33" y2="44" stroke="#cccccc" stroke-width="1" /><line x1="72.2" y1="196.5" x2="72.2" y2="201.5" stroke="#000000" stroke-width="1" /><text x="72.2" y="213.5" font-size="12" text-anchor="middle">0</text><line x1="111.63" y1="196.5" x2="111.63" y2="201.5" stroke="#000000" stroke-width="1" /><text x="111.63" y="213.5" font-size="12" text-anchor="middle">2</text><line x1="151.05" y1="196.5" x2="151.05" y2="201.5" stroke="#000000" stroke-width="1" /><text x="151.05" y="213.5" font-size="12" text-anchor="middle">4</text><line x1="190.48" y1="196.5" x2="190.48" y2="201.5" stroke="#000000" stroke-width="1" /><text x="190.48" y="213.5" font-size="12" text-anchor="middle">6</text><line x1="229.91" y1="196.5" x2="229.91" y2="201.5" stroke="#000000" stroke-width="1" /><text x="229.91" y="213.5" font-size="12" text-anchor="middle">8</text><line x1="269.33" y1="196.5" x2="269.33" y2="201.5" stroke="#000000" stroke-width="1" /><text x="269.33" y="213.5" font-size="12" text-anchor="middle">10</text><line x1="67.2" y1="196.5" x2="72.2" y2="196.5" stroke="#000000" stroke-width="1" /><text x="64.2" y="200.70000000000002" font-size="12" text-anchor="end">-2</text><line x1="67.2" y1="166" x2="72.2" y2="166" stroke="#000000" stroke-width="1" /><text x="64.2" y="170.20000000000002" font-size="12" text-anchor="end">0</text><line x1="67.2" y1="135.5" x2="72.2" y2="135.5" stroke="#000000" stroke-width="1" /><text x="64.2" y="139.70000000000002" font-size="12" text-anchor="end">2</text><line x1="67.2" y1="105" x2="72.2" y2="105" stroke="#000000" stroke-width="1" /><text x="64.2" y="109.2" font-size="12" text-anchor="end">4</text><line x1="67.2" y1="74.5" x2="72.2" y2="74.5" stroke="#000000" stroke-width="1" /><text x="64.2" y="78.7" font-size="12" text-anchor="end">6</text><line x1="67.2" y1="44" x2="72.2" y2="44" stroke="#000000" stroke-width="1" /><text x="64.2" y="48.2" font-size="12" text-anchor="end">8</text><text x="170.77" y="22" font-size="18" text-anchor="middle">Beta</text><circle cx="72.2" cy="189.08" r="4.5" fill="#dc143c" /><circle cx="91.91" cy="184.11" r="4.5" fill="#dc143c" /><circle cx="111.63" cy="168.55" r="4.5" fill="#dc143c" /><circle cx="131.34" cy="143.57" r="4.5" fill="#dc143c" /><circle cx="151.05" cy="113.65" r="4.5" fill="#dc143c" /><circle cx="170.77" cy="84.96000000000001" r="4.5" fill="#dc143c" /><circle cx="190.48" cy="63.28" r="4.5" fill="#dc143c" /><circle cx="210.19" cy="51.910000000000004" r="4.5" fill="#dc143c" /><circle cx="229.91" cy="50.56" r="4.5" fill="#dc143c" /><circle cx="249.62" cy="55.44" r="4.5" fill="#dc143c" /></g><text x="316.33" y="58" font-size="16" text-anchor="start" font-weight="bold">B</text><g transform="translate(606.6666666666666,40)"><line x1="72.2" y1="196.5" x2="269.33" y2="196.5" stroke="#000000" stroke-width="1" /><line x1="72.2" y1="44" x2="72.2" y2="196.5" stroke="#000000" stroke-width="1" /><line x1="111.63" y1="44" x2="111.63" y2="196.5" stroke="#cccccc" stroke-width="1" /><line x1="151.05" y1="44" x2="151.05" y2="196.5" stroke="#cccccc" stroke-width="1" /><line x1="190.48" y1="44" x2="190.48" y2="196.5" stroke="#cccccc" stroke-width="1" /><line x1="229.91" y1="44" x2="229.91" y2="196.5" stroke="#cccccc" stroke-width="1" /><line x1="269.33" y1="44" x2="269.33" y2="196.5" stroke="#cccccc" stroke-width="1" /><line x1="72.2" y1="166" x2="269.33" y2="166" stroke="#cccccc" stroke-width="1" /><line x1="72.2" y1="135.5" x2="269.33" y2="135.5" stroke="#cccccc" stroke-width="1" /><line x1="72.2" y1="105" x2="269.33" y2="105" stroke="#cccccc" stroke-width="1" /><line x1="72.2" y1="74.5" x2="269.33" y2="74.5" stroke="#cccccc" stroke-width="1" /><line x1="72.2" y1="44" x2="269.33" y2="44" stroke="#cccccc" stroke-width="1" /><line x1="72.2" y1="196.5" x2="72.2" y2="201.5" stroke="#000000" stroke-width="1" /><text x="72.2" y="213.5" font-size="12" text-anchor="middle">0</text><line x1="111.63" y1="196.5" x2="111.63" y2="201.5" stroke="#000000" stroke-width="1" /><text x="111.63" y="213.5" font-size="12" text-anchor="middle">2</text><line x1="151.05" y1="196.5" x2="151.05" y2="201.5" stroke="#000000" stroke-width="1" /><text x="151.05" y="213.5" font-size="12" text-anchor="middle">4</text><line x1="190.48" y1="196.5" x2="190.48" y2="201.5" stroke="#000000" stroke-width="1" /><text x="190.48" y="213.5" font-size="12" text-anchor="middle">6</text><line x1="229.91" y1="196.5" x2="229.91" y2="201.5" stroke="#000000" stroke-width="1" /><text x="229.91" y="213.5" font-size="12" text-anchor="middle">8</text><line x1="269.33" y1="196.5" x2="269.33" y2="201.5" stroke="#000000" stroke-width="1" /><text x="269.33" y="213.5" font-size="12" text-anchor="middle">10</text><line x1="67.2" y1="196.5" x2="72.2" y2="196.5" stroke="#000000" stroke-width="1" /><text x="64.2" y="200.70000000000002" font-size="12" text-anchor="end">-2</text><line x1="67.2" y1="166" x2="72.2" y2="166" stroke="#000000" stroke-width="1" /><text x="64.2" y="170.20000000000002" font-size="12" text-anchor="end">0</text><line x1="67.2" y1="135.5" x2="72.2" y2="135.5" stroke="#000000" stroke-width="1" /><text x="64.2" y="139.70000000000002" font-size="12" text-anchor="end">2</text><line x1="67.2" y1="105" x2="72.2" y2="105" stroke="#000000" stroke-width="1" /><text x="64.2" y="109.2" font-size="12" text-anchor="end">4</text><line x1="67.2" y1="74.5" x2="72.2" y2="74.5" stroke="#000000" stroke-width="1" /><text x="64.2" y="78.7" font-size="12" text-anchor="end">6</text><line x1="67.2" y1="44" x2="72.2" y2="44" stroke="#000000" stroke-width="1" /><text x="64.2" y="48.2" font-size="12" text-anchor="end">8</text><text x="170.77" y="22" font-size="18" text-anchor="middle">Gamma</text><circle cx="72.2" cy="195.25" r="4.5" fill="seagreen" /><circle cx="91.91" cy="173.05" r="4.5" fill="seagreen" /><circle cx="111.63" cy="144.13" r="4.5" fill="seagreen" /><circle cx="131.34" cy="114.33" r="4.5" fill="seagreen" /><circle cx="151.05" cy="89.79" r="4.5" fill="seagreen" /><circle cx="170.77" cy="74.82000000000001" r="4.5" fill="seagreen" /><circle cx="190.48" cy="70.4" r="4.5" fill="seagreen" /><circle cx="210.19" cy="73.8" r="4.5" fill="seagreen" /><circle cx="229.91" cy="79.58" r="4.5" fill="seagreen" /><circle cx="249.62" cy="81.45" r="4.5" fill="seagreen" /></g><text x="614.67" y="58" font-size="16" text-anchor="start" font-weight="bold">C</text><g transform="translate(10,302.5)"><line x1="72.2" y1="196.5" x2="269.33" y2="196.5" stroke="#000000" stroke-width="1" /><line x1="72.2" y1="44" x2="72.2" y2="196.5" stroke="#000000" stroke-width="1" /><line x1="111.63" y1="44" x2="111.63" y2="196.5" stroke="#cccccc" stroke-width="1" /><line x1="151.05" y1="44" x2="151.05" y2="196.5" stroke="#cccccc" stroke-width="1" /><line x1="190.48" y1="44" x2="190.48" y2="196.5" stroke="#cccccc" stroke-width="1" /><line x1="229.91" y1="44" x2="229.91" y2="196.5" stroke="#cccccc" stroke-width="1" /><line x1="269.33" y1="44" x2="269.33" y2="196.5" stroke="#cccccc" stroke-width="1" /><line x1="72.2" y1="166" x2="269.33" y2="166" stroke="#cccccc" stroke-width="1" /><line x1="72.2" y1="135.5" x2="269.33" y2="135.5" stroke="#cccccc" stroke-width="1" /><line x1="72.2" y1="105" x2="269.33" y2="105" stroke="#cccccc" stroke-width="1" /><line x1="72.2" y1="74.5" x2="269.33" y2="74.5" stroke="#cccccc" stroke-width="1" /><line x1="72.2" y1="44" x2="269.33" y2="44" stroke="#cccccc" stroke-width="1" /><line x1="72.2" y1="196.5" x2="72.2" y2="201.5" stroke="#000000" stroke-width="1" /><text x="72.2" y="213.5" font-size="12" text-anchor="middle">0</text><line x1="111.63" y1="196.5" x2="111.63" y2="201.5" stroke="#000000" stroke-width="1" /><text x="111.63" y="213.5" font-size="12" text-anchor="middle">2</text><line x1="151.05" y1="196.5" x2="151.05" y2="201.5" stroke="#000000" stroke-width="1" /><text x="151.05" y="213.5" font-size="12" text-anchor="middle">4</text><line x1="190.48" y1="196.5" x2="190.48" y2="201.5" stroke="#000000" stroke-width="1" /><text x="190.48" y="213.5" font-size="12" text-anchor="middle">6</text><line x1="229.91" y1="196.5" x2="229.91" y2="201.5" stroke="#000000" stroke-width="1" /><text x="229.91" y="213.5" font-size="12" text-anchor="middle">8</text><line x1="269.33" y1="196.5" x2="269.33" y2="201.5" stroke="#000000" stroke-width="1" /><text x="269.33" y="213.5" font-size="12" text-anchor="middle">10</text><line x1="67.2" y1="196.5" x2="72.2" y2="196.5" stroke="#000000" stroke-width="1" /><text x="64.2" y="200.70000000000002" font-size="12" text-anchor="end">-2</text><line x1="67.2" y1="166" x2="72.2" y2="166" stroke="#000000" stroke-width="1" /><text x="64.2" y="170.20000000000002" font-size="12" text-anchor="end">0</text><line x1="67.2" y1="135.5" x2="72.2" y2="135.5" stroke="#000000" stroke-width="1" /><text x="64.2" y="139.70000000000002" font-size="12" text-anchor="end">2</text><line x1="67.2" y1="105" x2="72.2" y2="105" stroke="#000000" stroke-width="1" /><text x="64.2" y="109.2" font-size="12" text-anchor="end">4</text><line x1="67.2" y1="74.5" x2="72.2" y2="74.5" stroke="#000000" stroke-width="1" /><text x="64.2" y="78.7" font-size="12" text-anchor="end">6</text><line x1="67.2" y1="44" x2="72.2" y2="44" stroke="#000000" stroke-width="1" /><text x="64.2" y="48.2" font-size="12" text-anchor="end">8</text><text x="170.77" y="22" font-size="18" text-anchor="middle">Delta</text><circle cx="72.2" cy="195.25" r="4.5" fill="#ff8c00" /><circle cx="91.91" cy="173.05" r="4.5" fill="#ff8c00" /><circle cx="111.63" cy="144.13" r="4.5" fill="#ff8c00" /><circle cx="131.34" cy="114.33" r="4.5" fill="#ff8c00" /><circle cx="151.05" cy="89.79" r="4.5" fill="#ff8c00" /><circle cx="170.77" cy="74.82000000000001" r="4.5" fill="#ff8c00" /><circle cx="190.48" cy="70.4" r="4.5" fill="#ff8c00" /><circle cx="210.19" cy="73.8" r="4.5" fill="#ff8c00" /><circle cx="229.91" cy="79.58" r="4.5" fill="#ff8c00" /><circle cx="249.62" cy="81.45" r="4.5" fill="#ff8c00" /></g><text x="18" y="320.5" font-size="16" text-anchor="start" font-weight="bold">D</text><g transform="translate(308.3333333333333,302.5)"><line x1="72.2" y1="196.5" x2="269.33" y2="196.5" stroke="#000000" stroke-width="1" /><line x1="72.2" y1="44" x2="72.2" y2="196.5" stroke="#000000" stroke-width="1" /><line x1="111.63" y1="44" x2="111.63" y2="196.5" stroke="#cccccc" stroke-width="1" /><line x1="151.05" y1="44" x2="151.05" y2="196.5" stroke="#cccccc" stroke-width="1" /><line x1="190.48" y1="44" x2="190.48" y2="196.5" stroke="#cccccc" stroke-width="1" /><line x1="229.91" y1="44" x2="229.91" y2="196.5" stroke="#cccccc" stroke-width="1" /><line x1="269.33" y1="44" x2="269.33" y2="196.5" stroke="#cccccc" stroke-width="1" /><line x1="72.2" y1="174.71" x2="269.33" y2="174.71" stroke="#cccccc" stroke-width="1" /><line x1="72.2" y1="152.93" x2="269.33" y2="152.93" stroke="#cccccc" stroke-width="1" /><line x1="72.2" y1="131.14000000000001" x2="269.33" y2="131.14000000000001" stroke="#cccccc" stroke-width="1" /><line x1="72.2" y1="109.36" x2="269.33" y2="109.36" stroke="#cccccc" stroke-width="1" /><line x1="72.2" y1="87.57000000000001" x2="269.33" y2="87.57000000000001" stroke="#cccccc" stroke-width="1" /><line x1="72.2" y1="65.79" x2="269.33" y2="65.79" stroke="#cccccc" stroke-width="1" /><line x1="72.2" y1="44" x2="269.33" y2="44" stroke="#cccccc" stroke-width="1" /><line x1="72.2" y1="196.5" x2="72.2" y2="201.5" stroke="#000000" stroke-width="1" /><text x="72.2" y="213.5" font-size="12" text-anchor="middle">0</text><line x1="111.63" y1="196.5" x2="111.63" y2="201.5" stroke="#000000" stroke-width="1" /><text x="111.63" y="213.5" font-size="12" text-anchor="middle">2</text><line x1="151.05" y1="196.5" x2="151.05" y2="201.5" stroke="#000000" stroke-width="1" /><text x="151.05" y="213.5" font-size="12" text-anchor="middle">4</text><line x1="190.48" y1="196.5" x2="190.48" y2="201.5" stroke="#000000" stroke-width="1" /><text x="190.48" y="213.5" font-size="12" text-anchor="middle">6</text><line x1="229.91" y1="196.5" x2="229.91" y2="201.5" stroke="#000000" stroke-width="1" /><text x="229.91" y="213.5" font-size="12" text-anchor="middle">8</text><line x1="269.33" y1="196.5" x2="269.33" y2="201.5" stroke="#000000" stroke-width="1" /><text x="269.33" y="213.5" font-size="12" text-anchor="middle">10</text><line x1="67.2" y1="196.5" x2="72.2" y2="196.5" stroke="#000000" stroke-width="1" /><text x="64.2" y="200.70000000000002" font-size="12" text-anchor="end">0</text><line x1="67.2" y1="174.71" x2="72.2" y2="174.71" stroke="#000000" stroke-width="1" /><text x="64.2" y="178.91" font-size="12" text-anchor="end">1</text><line x1="67.2" y1="152.93" x2="72.2" y2="152.93" stroke="#000000" stroke-width="1" /><text x="64.2" y="157.13" font-size="12" text-anchor="end">2</text><line x1="67.2" y1="131.14000000000001" x2="72.2" y2="131.14000000000001" stroke="#000000" stroke-width="1" /><text x="64.2" y="135.34" font-size="12" text-anchor="end">3</text><line x1="67.2" y1="109.36" x2="72.2" y2="109.36" stroke="#000000" stroke-width="1" /><text x="64.2" y="113.56" font-size="12" text-anchor="end">4</text><line x1="67.2" y1="87.57000000000001" x2="72.2" y2="87.57000000000001" stroke="#000000" stroke-width="1" /><text x="64.2" y="91.77" font-size="12" text-anchor="end">5</text><line x1="67.2" y1="65.79" x2="72.2" y2="65.79" stroke="#000000" stroke-width="1" /><text x="64.2" y="69.99" font-size="12" text-anchor="end">6</text><line x1="67.2" y1="44" x2="72.2" y2="44" stroke="#000000" stroke-width="1" /><text x="64.2" y="48.2" font-size="12" text-anchor="end">7</text><text x="170.77" y="22" font-size="18" text-anchor="middle">Epsilon</text><circle cx="72.2" cy="167.87" r="4.5" fill="mediumpurple" /><circle cx="91.91" cy="136.9" r="4.5" fill="mediumpurple" /><circle cx="111.63" cy="120.65" r="4.5" fill="mediumpurple" /><circle cx="131.34" cy="118.73" r="4.5" fill="mediumpurple" /><circle cx="151.05" cy="125.71000000000001" r="4.5" fill="mediumpurple" /><circle cx="170.77" cy="133.06" r="4.5" fill="mediumpurple" /><circle cx="190.48" cy="132.14000000000001" r="4.5" fill="mediumpurple" /><circle cx="210.19" cy="117.16" r="4.5" fill="mediumpurple" /><circle cx="229.91" cy="87.29" r="4.5" fill="mediumpurple" /><circle cx="249.62" cy="46.86" r="4.5" fill="mediumpurple" /></g><text x="316.33" y="320.5" font-size="16" text-anchor="start" font-weight="bold">E</text><g transform="translate(606.6666666666666,302.5)"><line x1="72.2" y1="196.5" x2="269.33" y2="196.5" stroke="#000000" stroke-width="1" /><line x1="72.2" y1="44" x2="72.2" y2="196.5" stroke="#000000" stroke-width="1" /><line x1="111.63" y1="44" x2="111.63" y2="196.5" stroke="#cccccc" stroke-width="1" /><line x1="151.05" y1="44" x2="151.05" y2="196.5" stroke="#cccccc" stroke-width="1" /><line x1="190.48" y1="44" x2="190.48" y2="196.5" stroke="#cccccc" stroke-width="1" /><line x1="229.91" y1="44" x2="229.91" y2="196.5" stroke="#cccccc" stroke-width="1" /><line x1="269.33" y1="44" x2="269.33" y2="196.5" stroke="#cccccc" stroke-width="1" /><line x1="72.2" y1="166" x2="269.33" y2="166" stroke="#cccccc" stroke-width="1" /><line x1="72.2" y1="135.5" x2="269.33" y2="135.5" stroke="#cccccc" stroke-width="1" /><line x1="72.2" y1="105" x2="269.33" y2="105" stroke="#cccccc" stroke-width="1" /><line x1="72.2" y1="74.5" x2="269.33" y2="74.5" stroke="#cccccc" stroke-width="1" /><line x1="72.2" y1="44" x2="269.33" y2="44" stroke="#cccccc" stroke-width="1" /><line x1="72.2" y1="196.5" x2="72.2" y2="201.5" stroke="#000000" stroke-width="1" /><text x="72.2" y="213.5" font-size="12" text-anchor="middle">0</text><line x1="111.63" y1="196.5" x2="111.63" y2="201.5" stroke="#000000" stroke-width="1" /><text x="111.63" y="213.5" font-size="12" text-anchor="middle">2</text><line x1="151.05" y1="196.5" x2="151.05" y2="201.5" stroke="#000000" stroke-width="1" /><text x="151.05" y="213.5" font-size="12" text-anchor="middle">4</text><line x1="190.48" y1="196.5" x2="190.48" y2="201.5" stroke="#000000" stroke-width="1" /><text x="190.48" y="213.5" font-size="12" text-anchor="middle">6</text><line x1="229.91" y1="196.5" x2="229.91" y2="201.5" stroke="#000000" stroke-width="1" /><text x="229.91" y="213.5" font-size="12" text-anchor="middle">8</text><line x1="269.33" y1="196.5" x2="269.33" y2="201.5" stroke="#000000" stroke-width="1" /><text x="269.33" y="213.5" font-size="12" text-anchor="middle">10</text><line x1="67.2" y1="196.5" x2="72.2" y2="196.5" stroke="#000000" stroke-width="1" /><text x="64.2" y="200.70000000000002" font-size="12" text-anchor="end">-2</text><line x1="67.2" y1="166" x2="72.2" y2="166" stroke="#000000" stroke-width="1" /><text x="64.2" y="170.20000000000002" font-size="12" text-anchor="end">0</text><line x1="67.2" y1="135.5" x2="72.2" y2="135.5" stroke="#000000" stroke-width="1" /><text x="64.2" y="139.70000000000002" font-size="12" text-anchor="end">2</text><line x1="67.2" y1="105" x2="72.2" y2="105" stroke="#000000" stroke-width="1" /><text x="64.2" y="109.2" font-size="12" text-anchor="end">4</text><line x1="67.2" y1="74.5" x2="72.2" y2="74.5" stroke="#000000" stroke-width="1" /><text x="64.2" y="78.7" font-size="12" text-anchor="end">6</text><line x1="67.2" y1="44" x2="72.2" y2="44" stroke="#000000" stroke-width="1" /><text x="64.2" y="48.2" font-size="12" text-anchor="end">8</text><text x="170.77" y="22" font-size="18" text-anchor="middle">Zeta</text><circle cx="72.2" cy="189.08" r="4.5" fill="#008080" /><circle cx="91.91" cy="184.11" r="4.5" fill="#008080" /><circle cx="111.63" cy="168.55" r="4.5" fill="#008080" /><circle cx="131.34" cy="143.57" r="4.5" fill="#008080" /><circle cx="151.05" cy="113.65" r="4.5" fill="#008080" /><circle cx="170.77" cy="84.96000000000001" r="4.5" fill="#008080" /><circle cx="190.48" cy="63.28" r="4.5" fill="#008080" /><circle cx="210.19" cy="51.910000000000004" r="4.5" fill="#008080" /><circle cx="229.91" cy="50.56" r="4.5" fill="#008080" /><circle cx="249.62" cy="55.44" r="4.5" fill="#008080" /></g><text x="614.67" y="320.5" font-size="16" text-anchor="start" font-weight="bold">F</text><text x="450" y="22" font-size="20" text-anchor="middle">Fixed 900 × 560 figure — cells auto-sized</text></svg>