<svg xmlns="http://www.w3.org/2000/svg" width="1190" height="635" font-family="DejaVu Sans, Liberation Sans, Arial, sans-serif" fill="black"><rect width="100%" height="100%" fill="white" /><defs><clipPath id="kuva-clip-2"><rect x="59" y="44" width="200" height="205"/></clipPath><clipPath id="kuva-clip-3"><rect x="59" y="44" width="200" height="205"/></clipPath><clipPath id="kuva-clip-4"><rect x="59" y="44" width="200" height="205"/></clipPath><clipPath id="kuva-clip-5"><rect x="59" y="44" width="1093" height="205"/></clipPath></defs><g transform="translate(10,10)"><line x1="100.67" y1="44" x2="100.67" y2="249" stroke="#cccccc" stroke-width="1" /><line x1="142.33" y1="44" x2="142.33" y2="249" stroke="#cccccc" stroke-width="1" /><line x1="184" y1="44" x2="184" y2="249" stroke="#cccccc" stroke-width="1" /><line x1="225.67000000000002" y1="44" x2="225.67000000000002" y2="249" stroke="#cccccc" stroke-width="1" /><line x1="59" y1="208" x2="259" y2="208" stroke="#cccccc" stroke-width="1" /><line x1="59" y1="167" x2="259" y2="167" stroke="#cccccc" stroke-width="1" /><line x1="59" y1="126" x2="259" y2="126" stroke="#cccccc" stroke-width="1" /><line x1="59" y1="85" x2="259" y2="85" stroke="#cccccc" stroke-width="1" /><line x1="59" y1="44" x2="259" y2="44" stroke="#cccccc" stroke-width="1" /><line x1="59" y1="249" x2="259" y2="249" stroke="#000000" stroke-width="1" /><line x1="59" y1="44" x2="59" y2="249" stroke="#000000" stroke-width="1" /><line x1="59" y1="249" x2="59" y2="254" stroke="#000000" stroke-width="1" /><text x="59" y="266" font-size="12" text-anchor="middle">0</text><line x1="100.67" y1="249" x2="100.67" y2="254" stroke="#000000" stroke-width="1" /><text x="100.67" y="266" font-size="12" text-anchor="middle">2.5</text><line x1="142.33" y1="249" x2="142.33" y2="254" stroke="#000000" stroke-width="1" /><text x="142.33" y="266" font-size="12" text-anchor="middle">5</text><line x1="184" y1="249" x2="184" y2="254" stroke="#000000" stroke-width="1" /><text x="184" y="266" font-size="12" text-anchor="middle">7.5</text><line x1="225.67000000000002" y1="249" x2="225.67000000000002" y2="254" stroke="#000000" stroke-width="1" /><text x="225.67000000000002" y="266" font-size="12" text-anchor="middle">10</text><line x1="54" y1="249" x2="59" y2="249" stroke="#000000" stroke-width="1" /><text x="51" y="253.20000000000002" font-size="12" text-anchor="end">0</text><line x1="54" y1="208" x2="59" y2="208" stroke="#000000" stroke-width="1" /><text x="51" y="212.20000000000002" font-size="12" text-anchor="end">2.5</text><line x1="54" y1="167" x2="59" y2="167" stroke="#000000" stroke-width="1" /><text x="51" y="171.20000000000002" font-size="12" text-anchor="end">5</text><line x1="54" y1="126" x2="59" y2="126" stroke="#000000" stroke-width="1" /><text x="51" y="130.2" font-size="12" text-anchor="end">7.5</text><line x1="54" y1="85" x2="59" y2="85" stroke="#000000" stroke-width="1" /><text x="51" y="89.2" font-size="12" text-anchor="end">10</text><line x1="54" y1="44" x2="59" y2="44" stroke="#000000" stroke-width="1" /><text x="51" y="48.2" font-size="12" text-anchor="end">12.5</text><text x="159" y="22" font-size="18" text-anchor="middle">Sample A</text><g clip-path="url(#kuva-clip-2)"><path d="M 59.0 249.0 L 75.67 213.11 L 92.33 187.16 L 109.0 176.41 L 125.67 178.97 L 142.33 186.71 L 159.0 189.03 L 175.67000000000002 177.9 L 192.33 151.63 L 209.0 115.61 L 225.67000000000002 79.85000000000001 L 242.33 54.230000000000004 " stroke="#4682b4" stroke-width="2" fill="none" /></g><rect x="264" y="34" width="103" height="38" fill="#ffffff" /><rect x="264" y="34" width="103" height="38" fill="none" stroke="#000000" stroke-width="1" /><text x="294" y="53.2" font-size="12" text-anchor="start">Sample A</text><line x1="274" y1="49" x2="286" y2="49" stroke="#4682b4" stroke-width="2" /></g><text x="18" y="28" font-size="16" text-anchor="start" font-weight="bold">A</text><g transform="translate(405,10)"><line x1="100.67" y1="44" x2="100.67" y2="249" stroke="#cccccc" stroke-width="1" /><line x1="142.33" y1="44" x2="142.33" y2="249" stroke="#cccccc" stroke-width="1" /><line x1="184" y1="44" x2="184" y2="249" stroke="#cccccc" stroke-width="1" /><line x1="225.67000000000002" y1="44" x2="225.67000000000002" y2="249" stroke="#cccccc" stroke-width="1" /><line x1="59" y1="208" x2="259" y2="208" stroke="#cccccc" stroke-width="1" /><line x1="59" y1="167" x2="259" y2="167" stroke="#cccccc" stroke-width="1" /><line x1="59" y1="126" x2="259" y2="126" stroke="#cccccc" stroke-width="1" /><line x1="59" y1="85" x2="259" y2="85" stroke="#cccccc" stroke-width="1" /><line x1="59" y1="44" x2="259" y2="44" stroke="#cccccc" stroke-width="1" /><line x1="59" y1="249" x2="259" y2="249" stroke="#000000" stroke-width="1" /><line x1="59" y1="44" x2="59" y2="249" stroke="#000000" stroke-width="1" /><line x1="59" y1="249" x2="59" y2="254" stroke="#000000" stroke-width="1" /><text x="59" y="266" font-size="12" text-anchor="middle">0</text><line x1="100.67" y1="249" x2="100.67" y2="254" stroke="#000000" stroke-width="1" /><text x="100.67" y="266" font-size="12" text-anchor="middle">2.5</text><line x1="142.33" y1="249" x2="142.33" y2="254" stroke="#000000" stroke-width="1" /><text x="142.33" y="266" font-size="12" text-anchor="middle">5</text><line x1="184" y1="249" x2="184" y2="254" stroke="#000000" stroke-width="1" /><text x="184" y="266" font-size="12" text-anchor="middle">7.5</text><line x1="225.67000000000002" y1="249" x2="225.67000000000002" y2="254" stroke="#000000" stroke-width="1" /><text x="225.67000000000002" y="266" font-size="12" text-anchor="middle">10</text><line x1="54" y1="249" x2="59" y2="249" stroke="#000000" stroke-width="1" /><text x="51" y="253.20000000000002" font-size="12" text-anchor="end">0</text><line x1="54" y1="208" x2="59" y2="208" stroke="#000000" stroke-width="1" /><text x="51" y="212.20000000000002" font-size="12" text-anchor="end">2.5</text><line x1="54" y1="167" x2="59" y2="167" stroke="#000000" stroke-width="1" /><text x="51" y="171.20000000000002" font-size="12" text-anchor="end">5</text><line x1="54" y1="126" x2="59" y2="126" stroke="#000000" stroke-width="1" /><text x="51" y="130.2" font-size="12" text-anchor="end">7.5</text><line x1="54" y1="85" x2="59" y2="85" stroke="#000000" stroke-width="1" /><text x="51" y="89.2" font-size="12" text-anchor="end">10</text><line x1="54" y1="44" x2="59" y2="44" stroke="#000000" stroke-width="1" /><text x="51" y="48.2" font-size="12" text-anchor="end">12.5</text><text x="159" y="22" font-size="18" text-anchor="middle">Sample B</text><g clip-path="url(#kuva-clip-3)"><path d="M 59.0 249.0 L 75.67 213.11 L 92.33 187.16 L 109.0 176.41 L 125.67 178.97 L 142.33 186.71 L 159.0 189.03 L 175.67000000000002 177.9 L 192.33 151.63 L 209.0 115.61 L 225.67000000000002 79.85000000000001 L 242.33 54.230000000000004 " stroke="#dc143c" stroke-width="2" fill="none" /></g><rect x="264" y="34" width="103" height="38" fill="#ffffff" /><rect x="264" y="34" width="103" height="38" fill="none" stroke="#000000" stroke-width="1" /><text x="294" y="53.2" font-size="12" text-anchor="start">Sample B</text><line x1="274" y1="49" x2="286" y2="49" stroke="#dc143c" stroke-width="2" /></g><text x="413" y="28" font-size="16" text-anchor="start" font-weight="bold">B</text><g transform="translate(800,10)"><line x1="100.67" y1="44" x2="100.67" y2="249" stroke="#cccccc" stroke-width="1" /><line x1="142.33" y1="44" x2="142.33" y2="249" stroke="#cccccc" stroke-width="1" /><line x1="184" y1="44" x2="184" y2="249" stroke="#cccccc" stroke-width="1" /><line x1="225.67000000000002" y1="44" x2="225.67000000000002" y2="249" stroke="#cccccc" stroke-width="1" /><line x1="59" y1="208" x2="259" y2="208" stroke="#cccccc" stroke-width="1" /><line x1="59" y1="167" x2="259" y2="167" stroke="#cccccc" stroke-width="1" /><line x1="59" y1="126" x2="259" y2="126" stroke="#cccccc" stroke-width="1" /><line x1="59" y1="85" x2="259" y2="85" stroke="#cccccc" stroke-width="1" /><line x1="59" y1="44" x2="259" y2="44" stroke="#cccccc" stroke-width="1" /><line x1="59" y1="249" x2="259" y2="249" stroke="#000000" stroke-width="1" /><line x1="59" y1="44" x2="59" y2="249" stroke="#000000" stroke-width="1" /><line x1="59" y1="249" x2="59" y2="254" stroke="#000000" stroke-width="1" /><text x="59" y="266" font-size="12" text-anchor="middle">0</text><line x1="100.67" y1="249" x2="100.67" y2="254" stroke="#000000" stroke-width="1" /><text x="100.67" y="266" font-size="12" text-anchor="middle">2.5</text><line x1="142.33" y1="249" x2="142.33" y2="254" stroke="#000000" stroke-width="1" /><text x="142.33" y="266" font-size="12" text-anchor="middle">5</text><line x1="184" y1="249" x2="184" y2="254" stroke="#000000" stroke-width="1" /><text x="184" y="266" font-size="12" text-anchor="middle">7.5</text><line x1="225.67000000000002" y1="249" x2="225.67000000000002" y2="254" stroke="#000000" stroke-width="1" /><text x="225.67000000000002" y="266" font-size="12" text-anchor="middle">10</text><line x1="54" y1="249" x2="59" y2="249" stroke="#000000" stroke-width="1" /><text x="51" y="253.20000000000002" font-size="12" text-anchor="end">0</text><line x1="54" y1="208" x2="59" y2="208" stroke="#000000" stroke-width="1" /><text x="51" y="212.20000000000002" font-size="12" text-anchor="end">2.5</text><line x1="54" y1="167" x2="59" y2="167" stroke="#000000" stroke-width="1" /><text x="51" y="171.20000000000002" font-size="12" text-anchor="end">5</text><line x1="54" y1="126" x2="59" y2="126" stroke="#000000" stroke-width="1" /><text x="51" y="130.2" font-size="12" text-anchor="end">7.5</text><line x1="54" y1="85" x2="59" y2="85" stroke="#000000" stroke-width="1" /><text x="51" y="89.2" font-size="12" text-anchor="end">10</text><line x1="54" y1="44" x2="59" y2="44" stroke="#000000" stroke-width="1" /><text x="51" y="48.2" font-size="12" text-anchor="end">12.5</text><text x="159" y="22" font-size="18" text-anchor="middle">Sample C</text><g clip-path="url(#kuva-clip-4)"><path d="M 59.0 249.0 L 75.67 213.11 L 92.33 187.16 L 109.0 176.41 L 125.67 178.97 L 142.33 186.71 L 159.0 189.03 L 175.67000000000002 177.9 L 192.33 151.63 L 209.0 115.61 L 225.67000000000002 79.85000000000001 L 242.33 54.230000000000004 " stroke="seagreen" stroke-width="2" fill="none" /></g><rect x="264" y="34" width="103" height="38" fill="#ffffff" /><rect x="264" y="34" width="103" height="38" fill="none" stroke="#000000" stroke-width="1" /><text x="294" y="53.2" font-size="12" text-anchor="start">Sample C</text><line x1="274" y1="49" x2="286" y2="49" stroke="seagreen" stroke-width="2" /></g><text x="808" y="28" font-size="16" text-anchor="start" font-weight="bold">C</text><g transform="translate(10,325)"><line x1="277.6" y1="44" x2="277.6" y2="249" stroke="#cccccc" stroke-width="1" /><line x1="496.2" y1="44" x2="496.2" y2="249" stroke="#cccccc" stroke-width="1" /><line x1="714.8000000000001" y1="44" x2="714.8000000000001" y2="249" stroke="#cccccc" stroke-width="1" /><line x1="933.4" y1="44" x2="933.4" y2="249" stroke="#cccccc" stroke-width="1" /><line x1="1152" y1="44" x2="1152" y2="249" stroke="#cccccc" stroke-width="1" /><line x1="59" y1="214.83" x2="1152" y2="214.83" stroke="#cccccc" stroke-width="1" /><line x1="59" y1="180.67000000000002" x2="1152" y2="180.67000000000002" stroke="#cccccc" stroke-width="1" /><line x1="59" y1="146.5" x2="1152" y2="146.5" stroke="#cccccc" stroke-width="1" /><line x1="59" y1="112.33" x2="1152" y2="112.33" stroke="#cccccc" stroke-width="1" /><line x1="59" y1="78.17" x2="1152" y2="78.17" stroke="#cccccc" stroke-width="1" /><line x1="59" y1="44" x2="1152" y2="44" stroke="#cccccc" stroke-width="1" /><line x1="59" y1="249" x2="1152" y2="249" stroke="#000000" stroke-width="1" /><line x1="59" y1="44" x2="59" y2="249" stroke="#000000" stroke-width="1" /><line x1="59" y1="249" x2="59" y2="254" stroke="#000000" stroke-width="1" /><text x="59" y="266" font-size="12" text-anchor="middle">0</text><line x1="277.6" y1="249" x2="277.6" y2="254" stroke="#000000" stroke-width="1" /><text x="277.6" y="266" font-size="12" text-anchor="middle">2</text><line x1="496.2" y1="249" x2="496.2" y2="254" stroke="#000000" stroke-width="1" /><text x="496.2" y="266" font-size="12" text-anchor="middle">4</text><line x1="714.8000000000001" y1="249" x2="714.8000000000001" y2="254" stroke="#000000" stroke-width="1" /><text x="714.8000000000001" y="266" font-size="12" text-anchor="middle">6</text><line x1="933.4" y1="249" x2="933.4" y2="254" stroke="#000000" stroke-width="1" /><text x="933.4" y="266" font-size="12" text-anchor="middle">8</text><line x1="1152" y1="249" x2="1152" y2="254" stroke="#000000" stroke-width="1" /><text x="1152" y="266" font-size="12" text-anchor="middle">10</text><line x1="54" y1="249" x2="59" y2="249" stroke="#000000" stroke-width="1" /><text x="51" y="253.20000000000002" font-size="12" text-anchor="end">-1</text><line x1="54" y1="214.83" x2="59" y2="214.83" stroke="#000000" stroke-width="1" /><text x="51" y="219.03" font-size="12" text-anchor="end">0</text><line x1="54" y1="180.67000000000002" x2="59" y2="180.67000000000002" stroke="#000000" stroke-width="1" /><text x="51" y="184.87" font-size="12" text-anchor="end">1</text><line x1="54" y1="146.5" x2="59" y2="146.5" stroke="#000000" stroke-width="1" /><text x="51" y="150.70000000000002" font-size="12" text-anchor="end">2</text><line x1="54" y1="112.33" x2="59" y2="112.33" stroke="#000000" stroke-width="1" /><text x="51" y="116.53" font-size="12" text-anchor="end">3</text><line x1="54" y1="78.17" x2="59" y2="78.17" stroke="#000000" stroke-width="1" /><text x="51" y="82.37" font-size="12" text-anchor="end">4</text><line x1="54" y1="44" x2="59" y2="44" stroke="#000000" stroke-width="1" /><text x="51" y="48.2" font-size="12" text-anchor="end">5</text><text x="605.5" y="293" font-size="14" text-anchor="middle">Time</text><text x="15" y="150" font-size="14" text-anchor="middle" transform="rotate(-90,15,150)">Value</text><text x="605.5" y="22" font-size="18" text-anchor="middle">Combined</text><g clip-path="url(#kuva-clip-5)"><path d="M 59.0 214.83 L 86.33 199.49 L 113.65 184.35 L 140.98 169.6 L 168.3 155.44 L 195.63 142.05 L 222.95000000000002 129.59 L 250.28 118.22 L 277.6 108.08 L 304.92 99.29 L 332.25 91.94 L 359.58 86.10000000000001 L 386.90000000000003 81.84 L 414.23 79.17 L 441.55 78.10000000000001 L 468.88 78.60000000000001 L 496.2 80.63 L 523.53 84.11 L 550.85 88.96000000000001 L 578.17 95.04 L 605.5 102.24000000000001 L 632.82 110.39 L 660.15 119.34 L 687.48 128.89000000000001 L 714.8000000000001 138.87 L 742.13 149.07 L 769.45 159.3 L 796.78 169.35 L 824.1 179.04 L 851.4300000000001 188.16 L 878.75 196.54 L 906.08 204.01 L 933.4 210.41 L 960.73 215.59 L 988.0500000000001 219.44 L 1015.38 221.87 L 1042.7 222.78 L 1070.03 222.13 L 1097.3500000000001 219.89000000000001 L 1124.68 216.04 " stroke="#ff8c00" stroke-width="2" fill="none" /></g></g><text x="18" y="343" font-size="16" text-anchor="start" font-weight="bold">D</text></svg>