<svg xmlns="http://www.w3.org/2000/svg" width="1190" height="635" font-family="DejaVu Sans, Liberation Sans, Arial, sans-serif" fill="black"><rect width="100%" height="100%" fill="white" /><g transform="translate(10,10)"><line x1="72.2" y1="249" x2="263" y2="249" stroke="#000000" stroke-width="1" /><line x1="72.2" y1="44" x2="72.2" y2="249" stroke="#000000" stroke-width="1" /><line x1="111.95" y1="44" x2="111.95" y2="249" stroke="#cccccc" stroke-width="1" /><line x1="151.70000000000002" y1="44" x2="151.70000000000002" y2="249" stroke="#cccccc" stroke-width="1" /><line x1="191.45000000000002" y1="44" x2="191.45000000000002" y2="249" stroke="#cccccc" stroke-width="1" /><line x1="231.20000000000002" y1="44" x2="231.20000000000002" y2="249" stroke="#cccccc" stroke-width="1" /><line x1="72.2" y1="208" x2="263" y2="208" stroke="#cccccc" stroke-width="1" /><line x1="72.2" y1="167" x2="263" y2="167" stroke="#cccccc" stroke-width="1" /><line x1="72.2" y1="126" x2="263" y2="126" stroke="#cccccc" stroke-width="1" /><line x1="72.2" y1="85" x2="263" y2="85" stroke="#cccccc" stroke-width="1" /><line x1="72.2" y1="44" x2="263" y2="44" stroke="#cccccc" stroke-width="1" /><line x1="72.2" y1="249" x2="72.2" y2="254" stroke="#000000" stroke-width="1" /><text x="72.2" y="266" font-size="12" text-anchor="middle">0</text><line x1="111.95" y1="249" x2="111.95" y2="254" stroke="#000000" stroke-width="1" /><text x="111.95" y="266" font-size="12" text-anchor="middle">2.5</text><line x1="151.70000000000002" y1="249" x2="151.70000000000002" y2="254" stroke="#000000" stroke-width="1" /><text x="151.70000000000002" y="266" font-size="12" text-anchor="middle">5</text><line x1="191.45000000000002" y1="249" x2="191.45000000000002" y2="254" stroke="#000000" stroke-width="1" /><text x="191.45000000000002" y="266" font-size="12" text-anchor="middle">7.5</text><line x1="231.20000000000002" y1="249" x2="231.20000000000002" y2="254" stroke="#000000" stroke-width="1" /><text x="231.20000000000002" y="266" font-size="12" text-anchor="middle">10</text><line x1="67.2" y1="249" x2="72.2" y2="249" stroke="#000000" stroke-width="1" /><text x="64.2" y="253.20000000000002" font-size="12" text-anchor="end">0</text><line x1="67.2" y1="208" x2="72.2" y2="208" stroke="#000000" stroke-width="1" /><text x="64.2" y="212.20000000000002" font-size="12" text-anchor="end">2.5</text><line x1="67.2" y1="167" x2="72.2" y2="167" stroke="#000000" stroke-width="1" /><text x="64.2" y="171.20000000000002" font-size="12" text-anchor="end">5</text><line x1="67.2" y1="126" x2="72.2" y2="126" stroke="#000000" stroke-width="1" /><text x="64.2" y="130.2" font-size="12" text-anchor="end">7.5</text><line x1="67.2" y1="85" x2="72.2" y2="85" stroke="#000000" stroke-width="1" /><text x="64.2" y="89.2" font-size="12" text-anchor="end">10</text><line x1="67.2" y1="44" x2="72.2" y2="44" stroke="#000000" stroke-width="1" /><text x="64.2" y="48.2" font-size="12" text-anchor="end">12.5</text><text x="167.6" y="22" font-size="18" text-anchor="middle">Sample A</text><path d="M 72.2 249.0 L 88.10000000000001 213.11 L 104.0 187.16 L 119.9 176.41 L 135.8 178.97 L 151.70000000000002 186.71 L 167.6 189.03 L 183.5 177.9 L 199.4 151.63 L 215.3 115.61 L 231.20000000000002 79.85000000000001 L 247.1 54.230000000000004 " stroke="#4682b4" stroke-width="2" fill="none" /><rect x="268" y="34" width="103" height="38" fill="#ffffff" /><rect x="268" y="34" width="103" height="38" fill="none" stroke="#000000" stroke-width="1" /><text x="298" y="53.2" font-size="12" text-anchor="start">Sample A</text><line x1="278" y1="49" x2="290" y2="49" stroke="#4682b4" stroke-width="2" /></g><text x="18" y="28" font-size="16" text-anchor="start" font-weight="bold">A</text><g transform="translate(405,10)"><line x1="72.2" y1="249" x2="263" y2="249" stroke="#000000" stroke-width="1" /><line x1="72.2" y1="44" x2="72.2" y2="249" stroke="#000000" stroke-width="1" /><line x1="111.95" y1="44" x2="111.95" y2="249" stroke="#cccccc" stroke-width="1" /><line x1="151.70000000000002" y1="44" x2="151.70000000000002" y2="249" stroke="#cccccc" stroke-width="1" /><line x1="191.45000000000002" y1="44" x2="191.45000000000002" y2="249" stroke="#cccccc" stroke-width="1" /><line x1="231.20000000000002" y1="44" x2="231.20000000000002" y2="249" stroke="#cccccc" stroke-width="1" /><line x1="72.2" y1="208" x2="263" y2="208" stroke="#cccccc" stroke-width="1" /><line x1="72.2" y1="167" x2="263" y2="167" stroke="#cccccc" stroke-width="1" /><line x1="72.2" y1="126" x2="263" y2="126" stroke="#cccccc" stroke-width="1" /><line x1="72.2" y1="85" x2="263" y2="85" stroke="#cccccc" stroke-width="1" /><line x1="72.2" y1="44" x2="263" y2="44" stroke="#cccccc" stroke-width="1" /><line x1="72.2" y1="249" x2="72.2" y2="254" stroke="#000000" stroke-width="1" /><text x="72.2" y="266" font-size="12" text-anchor="middle">0</text><line x1="111.95" y1="249" x2="111.95" y2="254" stroke="#000000" stroke-width="1" /><text x="111.95" y="266" font-size="12" text-anchor="middle">2.5</text><line x1="151.70000000000002" y1="249" x2="151.70000000000002" y2="254" stroke="#000000" stroke-width="1" /><text x="151.70000000000002" y="266" font-size="12" text-anchor="middle">5</text><line x1="191.45000000000002" y1="249" x2="191.45000000000002" y2="254" stroke="#000000" stroke-width="1" /><text x="191.45000000000002" y="266" font-size="12" text-anchor="middle">7.5</text><line x1="231.20000000000002" y1="249" x2="231.20000000000002" y2="254" stroke="#000000" stroke-width="1" /><text x="231.20000000000002" y="266" font-size="12" text-anchor="middle">10</text><line x1="67.2" y1="249" x2="72.2" y2="249" stroke="#000000" stroke-width="1" /><text x="64.2" y="253.20000000000002" font-size="12" text-anchor="end">0</text><line x1="67.2" y1="208" x2="72.2" y2="208" stroke="#000000" stroke-width="1" /><text x="64.2" y="212.20000000000002" font-size="12" text-anchor="end">2.5</text><line x1="67.2" y1="167" x2="72.2" y2="167" stroke="#000000" stroke-width="1" /><text x="64.2" y="171.20000000000002" font-size="12" text-anchor="end">5</text><line x1="67.2" y1="126" x2="72.2" y2="126" stroke="#000000" stroke-width="1" /><text x="64.2" y="130.2" font-size="12" text-anchor="end">7.5</text><line x1="67.2" y1="85" x2="72.2" y2="85" stroke="#000000" stroke-width="1" /><text x="64.2" y="89.2" font-size="12" text-anchor="end">10</text><line x1="67.2" y1="44" x2="72.2" y2="44" stroke="#000000" stroke-width="1" /><text x="64.2" y="48.2" font-size="12" text-anchor="end">12.5</text><text x="167.6" y="22" font-size="18" text-anchor="middle">Sample B</text><path d="M 72.2 249.0 L 88.10000000000001 213.11 L 104.0 187.16 L 119.9 176.41 L 135.8 178.97 L 151.70000000000002 186.71 L 167.6 189.03 L 183.5 177.9 L 199.4 151.63 L 215.3 115.61 L 231.20000000000002 79.85000000000001 L 247.1 54.230000000000004 " stroke="#dc143c" stroke-width="2" fill="none" /><rect x="268" y="34" width="103" height="38" fill="#ffffff" /><rect x="268" y="34" width="103" height="38" fill="none" stroke="#000000" stroke-width="1" /><text x="298" y="53.2" font-size="12" text-anchor="start">Sample B</text><line x1="278" y1="49" x2="290" y2="49" stroke="#dc143c" stroke-width="2" /></g><text x="413" y="28" font-size="16" text-anchor="start" font-weight="bold">B</text><g transform="translate(800,10)"><line x1="72.2" y1="249" x2="263" y2="249" stroke="#000000" stroke-width="1" /><line x1="72.2" y1="44" x2="72.2" y2="249" stroke="#000000" stroke-width="1" /><line x1="111.95" y1="44" x2="111.95" y2="249" stroke="#cccccc" stroke-width="1" /><line x1="151.70000000000002" y1="44" x2="151.70000000000002" y2="249" stroke="#cccccc" stroke-width="1" /><line x1="191.45000000000002" y1="44" x2="191.45000000000002" y2="249" stroke="#cccccc" stroke-width="1" /><line x1="231.20000000000002" y1="44" x2="231.20000000000002" y2="249" stroke="#cccccc" stroke-width="1" /><line x1="72.2" y1="208" x2="263" y2="208" stroke="#cccccc" stroke-width="1" /><line x1="72.2" y1="167" x2="263" y2="167" stroke="#cccccc" stroke-width="1" /><line x1="72.2" y1="126" x2="263" y2="126" stroke="#cccccc" stroke-width="1" /><line x1="72.2" y1="85" x2="263" y2="85" stroke="#cccccc" stroke-width="1" /><line x1="72.2" y1="44" x2="263" y2="44" stroke="#cccccc" stroke-width="1" /><line x1="72.2" y1="249" x2="72.2" y2="254" stroke="#000000" stroke-width="1" /><text x="72.2" y="266" font-size="12" text-anchor="middle">0</text><line x1="111.95" y1="249" x2="111.95" y2="254" stroke="#000000" stroke-width="1" /><text x="111.95" y="266" font-size="12" text-anchor="middle">2.5</text><line x1="151.70000000000002" y1="249" x2="151.70000000000002" y2="254" stroke="#000000" stroke-width="1" /><text x="151.70000000000002" y="266" font-size="12" text-anchor="middle">5</text><line x1="191.45000000000002" y1="249" x2="191.45000000000002" y2="254" stroke="#000000" stroke-width="1" /><text x="191.45000000000002" y="266" font-size="12" text-anchor="middle">7.5</text><line x1="231.20000000000002" y1="249" x2="231.20000000000002" y2="254" stroke="#000000" stroke-width="1" /><text x="231.20000000000002" y="266" font-size="12" text-anchor="middle">10</text><line x1="67.2" y1="249" x2="72.2" y2="249" stroke="#000000" stroke-width="1" /><text x="64.2" y="253.20000000000002" font-size="12" text-anchor="end">0</text><line x1="67.2" y1="208" x2="72.2" y2="208" stroke="#000000" stroke-width="1" /><text x="64.2" y="212.20000000000002" font-size="12" text-anchor="end">2.5</text><line x1="67.2" y1="167" x2="72.2" y2="167" stroke="#000000" stroke-width="1" /><text x="64.2" y="171.20000000000002" font-size="12" text-anchor="end">5</text><line x1="67.2" y1="126" x2="72.2" y2="126" stroke="#000000" stroke-width="1" /><text x="64.2" y="130.2" font-size="12" text-anchor="end">7.5</text><line x1="67.2" y1="85" x2="72.2" y2="85" stroke="#000000" stroke-width="1" /><text x="64.2" y="89.2" font-size="12" text-anchor="end">10</text><line x1="67.2" y1="44" x2="72.2" y2="44" stroke="#000000" stroke-width="1" /><text x="64.2" y="48.2" font-size="12" text-anchor="end">12.5</text><text x="167.6" y="22" font-size="18" text-anchor="middle">Sample C</text><path d="M 72.2 249.0 L 88.10000000000001 213.11 L 104.0 187.16 L 119.9 176.41 L 135.8 178.97 L 151.70000000000002 186.71 L 167.6 189.03 L 183.5 177.9 L 199.4 151.63 L 215.3 115.61 L 231.20000000000002 79.85000000000001 L 247.1 54.230000000000004 " stroke="seagreen" stroke-width="2" fill="none" /><rect x="268" y="34" width="103" height="38" fill="#ffffff" /><rect x="268" y="34" width="103" height="38" fill="none" stroke="#000000" stroke-width="1" /><text x="298" y="53.2" font-size="12" text-anchor="start">Sample C</text><line x1="278" y1="49" x2="290" y2="49" stroke="seagreen" stroke-width="2" /></g><text x="808" y="28" font-size="16" text-anchor="start" font-weight="bold">C</text><g transform="translate(10,325)"><line x1="72.2" y1="249" x2="1156" y2="249" stroke="#000000" stroke-width="1" /><line x1="72.2" y1="44" x2="72.2" y2="249" stroke="#000000" stroke-width="1" /><line x1="288.96" y1="44" x2="288.96" y2="249" stroke="#cccccc" stroke-width="1" /><line x1="505.72" y1="44" x2="505.72" y2="249" stroke="#cccccc" stroke-width="1" /><line x1="722.48" y1="44" x2="722.48" y2="249" stroke="#cccccc" stroke-width="1" /><line x1="939.24" y1="44" x2="939.24" y2="249" stroke="#cccccc" stroke-width="1" /><line x1="1156" y1="44" x2="1156" y2="249" stroke="#cccccc" stroke-width="1" /><line x1="72.2" y1="214.83" x2="1156" y2="214.83" stroke="#cccccc" stroke-width="1" /><line x1="72.2" y1="180.67000000000002" x2="1156" y2="180.67000000000002" stroke="#cccccc" stroke-width="1" /><line x1="72.2" y1="146.5" x2="1156" y2="146.5" stroke="#cccccc" stroke-width="1" /><line x1="72.2" y1="112.33" x2="1156" y2="112.33" stroke="#cccccc" stroke-width="1" /><line x1="72.2" y1="78.17" x2="1156" y2="78.17" stroke="#cccccc" stroke-width="1" /><line x1="72.2" y1="44" x2="1156" y2="44" stroke="#cccccc" stroke-width="1" /><line x1="72.2" y1="249" x2="72.2" y2="254" stroke="#000000" stroke-width="1" /><text x="72.2" y="266" font-size="12" text-anchor="middle">0</text><line x1="288.96" y1="249" x2="288.96" y2="254" stroke="#000000" stroke-width="1" /><text x="288.96" y="266" font-size="12" text-anchor="middle">2</text><line x1="505.72" y1="249" x2="505.72" y2="254" stroke="#000000" stroke-width="1" /><text x="505.72" y="266" font-size="12" text-anchor="middle">4</text><line x1="722.48" y1="249" x2="722.48" y2="254" stroke="#000000" stroke-width="1" /><text x="722.48" y="266" font-size="12" text-anchor="middle">6</text><line x1="939.24" y1="249" x2="939.24" y2="254" stroke="#000000" stroke-width="1" /><text x="939.24" y="266" font-size="12" text-anchor="middle">8</text><line x1="1156" y1="249" x2="1156" y2="254" stroke="#000000" stroke-width="1" /><text x="1156" y="266" font-size="12" text-anchor="middle">10</text><line x1="67.2" y1="249" x2="72.2" y2="249" stroke="#000000" stroke-width="1" /><text x="64.2" y="253.20000000000002" font-size="12" text-anchor="end">-1</text><line x1="67.2" y1="214.83" x2="72.2" y2="214.83" stroke="#000000" stroke-width="1" /><text x="64.2" y="219.03" font-size="12" text-anchor="end">0</text><line x1="67.2" y1="180.67000000000002" x2="72.2" y2="180.67000000000002" stroke="#000000" stroke-width="1" /><text x="64.2" y="184.87" font-size="12" text-anchor="end">1</text><line x1="67.2" y1="146.5" x2="72.2" y2="146.5" stroke="#000000" stroke-width="1" /><text x="64.2" y="150.70000000000002" font-size="12" text-anchor="end">2</text><line x1="67.2" y1="112.33" x2="72.2" y2="112.33" stroke="#000000" stroke-width="1" /><text x="64.2" y="116.53" font-size="12" text-anchor="end">3</text><line x1="67.2" y1="78.17" x2="72.2" y2="78.17" stroke="#000000" stroke-width="1" /><text x="64.2" y="82.37" font-size="12" text-anchor="end">4</text><line x1="67.2" y1="44" x2="72.2" y2="44" stroke="#000000" stroke-width="1" /><text x="64.2" y="48.2" font-size="12" text-anchor="end">5</text><text x="614.1" y="293" font-size="14" text-anchor="middle">Time</text><text x="7" y="150" font-size="14" text-anchor="middle" transform="rotate(-90,7,150)">Value</text><text x="614.1" y="22" font-size="18" text-anchor="middle">Combined</text><path d="M 72.2 214.83 L 99.29 199.49 L 126.39 184.35 L 153.48 169.6 L 180.58 155.44 L 207.68 142.05 L 234.77 129.59 L 261.87 118.22 L 288.96 108.08 L 316.05 99.29 L 343.15000000000003 91.94 L 370.24 86.10000000000001 L 397.34000000000003 81.84 L 424.44 79.17 L 451.53000000000003 78.10000000000001 L 478.62 78.60000000000001 L 505.72 80.63 L 532.82 84.11 L 559.91 88.96000000000001 L 587.0 95.04 L 614.1 102.24000000000001 L 641.19 110.39 L 668.29 119.34 L 695.39 128.89000000000001 L 722.48 138.87 L 749.58 149.07 L 776.6700000000001 159.3 L 803.76 169.35 L 830.86 179.04 L 857.96 188.16 L 885.0500000000001 196.54 L 912.15 204.01 L 939.24 210.41 L 966.34 215.59 L 993.4300000000001 219.44 L 1020.52 221.87 L 1047.6200000000001 222.78 L 1074.71 222.13 L 1101.81 219.89000000000001 L 1128.91 216.04 " stroke="#ff8c00" stroke-width="2" fill="none" /></g><text x="18" y="343" font-size="16" text-anchor="start" font-weight="bold">D</text></svg>