<svg xmlns="http://www.w3.org/2000/svg" width="885" height="900" font-family="DejaVu Sans, Liberation Sans, Arial, sans-serif" fill="black"><rect width="100%" height="100%" fill="white" /><defs><clipPath id="kuva-clip-21"><rect x="59" y="44" width="173" height="285"/></clipPath><clipPath id="kuva-clip-22"><rect x="59" y="44" width="523" height="285"/></clipPath><clipPath id="kuva-clip-23"><rect x="59" y="44" width="173" height="285"/></clipPath><clipPath id="kuva-clip-24"><rect x="59" y="44" width="523" height="285"/></clipPath></defs><g transform="translate(10,10)"><line x1="95.04" y1="44" x2="95.04" y2="329" stroke="#cccccc" stroke-width="1" /><line x1="131.08" y1="44" x2="131.08" y2="329" stroke="#cccccc" stroke-width="1" /><line x1="167.13" y1="44" x2="167.13" y2="329" stroke="#cccccc" stroke-width="1" /><line x1="203.17000000000002" y1="44" x2="203.17000000000002" y2="329" stroke="#cccccc" stroke-width="1" /><line x1="59" y1="272" x2="232" y2="272" stroke="#cccccc" stroke-width="1" /><line x1="59" y1="215" x2="232" y2="215" stroke="#cccccc" stroke-width="1" /><line x1="59" y1="158" x2="232" y2="158" stroke="#cccccc" stroke-width="1" /><line x1="59" y1="101" x2="232" y2="101" stroke="#cccccc" stroke-width="1" /><line x1="59" y1="44" x2="232" y2="44" stroke="#cccccc" stroke-width="1" /><line x1="59" y1="329" x2="232" y2="329" stroke="#000000" stroke-width="1" /><line x1="59" y1="44" x2="59" y2="329" stroke="#000000" stroke-width="1" /><line x1="59" y1="329" x2="59" y2="334" stroke="#000000" stroke-width="1" /><text x="59" y="346" font-size="12" text-anchor="middle">0</text><line x1="95.04" y1="329" x2="95.04" y2="334" stroke="#000000" stroke-width="1" /><text x="95.04" y="346" font-size="12" text-anchor="middle">2.5</text><line x1="131.08" y1="329" x2="131.08" y2="334" stroke="#000000" stroke-width="1" /><text x="131.08" y="346" font-size="12" text-anchor="middle">5</text><line x1="167.13" y1="329" x2="167.13" y2="334" stroke="#000000" stroke-width="1" /><text x="167.13" y="346" font-size="12" text-anchor="middle">7.5</text><line x1="203.17000000000002" y1="329" x2="203.17000000000002" y2="334" stroke="#000000" stroke-width="1" /><text x="203.17000000000002" y="346" font-size="12" text-anchor="middle">10</text><line x1="54" y1="329" x2="59" y2="329" stroke="#000000" stroke-width="1" /><text x="51" y="333.2" font-size="12" text-anchor="end">0</text><line x1="54" y1="272" x2="59" y2="272" stroke="#000000" stroke-width="1" /><text x="51" y="276.2" font-size="12" text-anchor="end">2.5</text><line x1="54" y1="215" x2="59" y2="215" stroke="#000000" stroke-width="1" /><text x="51" y="219.20000000000002" font-size="12" text-anchor="end">5</text><line x1="54" y1="158" x2="59" y2="158" stroke="#000000" stroke-width="1" /><text x="51" y="162.20000000000002" font-size="12" text-anchor="end">7.5</text><line x1="54" y1="101" x2="59" y2="101" stroke="#000000" stroke-width="1" /><text x="51" y="105.2" font-size="12" text-anchor="end">10</text><line x1="54" y1="44" x2="59" y2="44" stroke="#000000" stroke-width="1" /><text x="51" y="48.2" font-size="12" text-anchor="end">12.5</text><text x="15" y="190" font-size="14" text-anchor="middle" transform="rotate(-90,15,190)">Value</text><text x="125" y="27.400000000000002" font-size="18" text-anchor="middle">Scatter A</text><g clip-path="url(#kuva-clip-21)"><circle cx="59" cy="329" r="4.5" fill="#4682b4" /><circle cx="73.42" cy="286.45" r="4.5" fill="#4682b4" /><circle cx="87.83" cy="254.26000000000002" r="4.5" fill="#4682b4" /><circle cx="102.25" cy="237.92000000000002" r="4.5" fill="#4682b4" /><circle cx="116.67" cy="235.46" r="4.5" fill="#4682b4" /><circle cx="131.08" cy="238.4" r="4.5" fill="#4682b4" /><circle cx="145.5" cy="235.69" r="4.5" fill="#4682b4" /><circle cx="159.92000000000002" cy="218.96" r="4.5" fill="#4682b4" /><circle cx="174.33" cy="186.43" r="4.5" fill="#4682b4" /><circle cx="188.75" cy="143.74" r="4.5" fill="#4682b4" /><circle cx="203.17000000000002" cy="101.33" r="4.5" fill="#4682b4" /><circle cx="217.58" cy="69.48" r="4.5" fill="#4682b4" /></g></g><g transform="translate(275,10)"><line x1="167.96" y1="44" x2="167.96" y2="329" stroke="#cccccc" stroke-width="1" /><line x1="276.92" y1="44" x2="276.92" y2="329" stroke="#cccccc" stroke-width="1" /><line x1="385.88" y1="44" x2="385.88" y2="329" stroke="#cccccc" stroke-width="1" /><line x1="494.83" y1="44" x2="494.83" y2="329" stroke="#cccccc" stroke-width="1" /><line x1="59" y1="293.38" x2="582" y2="293.38" stroke="#cccccc" stroke-width="1" /><line x1="59" y1="222.13" x2="582" y2="222.13" stroke="#cccccc" stroke-width="1" /><line x1="59" y1="150.88" x2="582" y2="150.88" stroke="#cccccc" stroke-width="1" /><line x1="59" y1="79.63" x2="582" y2="79.63" stroke="#cccccc" stroke-width="1" /><line x1="59" y1="329" x2="582" y2="329" stroke="#000000" stroke-width="1" /><line x1="59" y1="44" x2="59" y2="329" stroke="#000000" stroke-width="1" /><line x1="59" y1="329" x2="59" y2="334" stroke="#000000" stroke-width="1" /><text x="59" y="346" font-size="12" text-anchor="middle">0</text><line x1="167.96" y1="329" x2="167.96" y2="334" stroke="#000000" stroke-width="1" /><text x="167.96" y="346" font-size="12" text-anchor="middle">2.5</text><line x1="276.92" y1="329" x2="276.92" y2="334" stroke="#000000" stroke-width="1" /><text x="276.92" y="346" font-size="12" text-anchor="middle">5</text><line x1="385.88" y1="329" x2="385.88" y2="334" stroke="#000000" stroke-width="1" /><text x="385.88" y="346" font-size="12" text-anchor="middle">7.5</text><line x1="494.83" y1="329" x2="494.83" y2="334" stroke="#000000" stroke-width="1" /><text x="494.83" y="346" font-size="12" text-anchor="middle">10</text><line x1="54" y1="293.38" x2="59" y2="293.38" stroke="#000000" stroke-width="1" /><text x="51" y="297.58" font-size="12" text-anchor="end">2</text><line x1="54" y1="222.13" x2="59" y2="222.13" stroke="#000000" stroke-width="1" /><text x="51" y="226.33" font-size="12" text-anchor="end">4</text><line x1="54" y1="150.88" x2="59" y2="150.88" stroke="#000000" stroke-width="1" /><text x="51" y="155.07" font-size="12" text-anchor="end">6</text><line x1="54" y1="79.63" x2="59" y2="79.63" stroke="#000000" stroke-width="1" /><text x="51" y="83.83" font-size="12" text-anchor="end">8</text><text x="300" y="27.400000000000002" font-size="18" text-anchor="middle">Scatter B</text><g clip-path="url(#kuva-clip-22)"><circle cx="59" cy="293.38" r="4.5" fill="#dc143c" /><circle cx="102.58" cy="280.72" r="4.5" fill="#dc143c" /><circle cx="146.17000000000002" cy="283.38" r="4.5" fill="#dc143c" /><circle cx="189.75" cy="295.46" r="4.5" fill="#dc143c" /><circle cx="233.33" cy="308.78000000000003" r="4.5" fill="#dc143c" /><circle cx="276.92" cy="314.83" r="4.5" fill="#dc143c" /><circle cx="320.5" cy="306.91" r="4.5" fill="#dc143c" /><circle cx="364.08" cy="281.72" r="4.5" fill="#dc143c" /><circle cx="407.67" cy="240.20000000000002" r="4.5" fill="#dc143c" /><circle cx="451.25" cy="187.27" r="4.5" fill="#dc143c" /><circle cx="494.83" cy="130.66" r="4.5" fill="#dc143c" /><circle cx="538.42" cy="79.01" r="4.5" fill="#dc143c" /></g></g><g transform="translate(10,405)"><rect x="54" y="0" width="802" height="56" fill="#ffffff" /><rect x="54" y="0" width="802" height="56" fill="none" stroke="#000000" stroke-width="1" /><text x="84" y="19.2" font-size="12" text-anchor="start">Control A</text><circle cx="69" cy="15" r="5" fill="#4682b4" /><text x="216" y="19.2" font-size="12" text-anchor="start">Treatment A</text><circle cx="201" cy="15" r="5" fill="#dc143c" /><text x="348" y="19.2" font-size="12" text-anchor="start">Control B</text><circle cx="333" cy="15" r="5" fill="seagreen" /><text x="480" y="19.2" font-size="12" text-anchor="start">Treatment B</text><circle cx="465" cy="15" r="5" fill="#ff8c00" /><text x="612" y="19.2" font-size="12" text-anchor="start">Control C</text><circle cx="597" cy="15" r="5" fill="mediumpurple" /><text x="744" y="19.2" font-size="12" text-anchor="start">Treatment C</text><circle cx="729" cy="15" r="5" fill="#008080" /><text x="84" y="37.2" font-size="12" text-anchor="start">Reference</text><circle cx="69" cy="33" r="5" fill="#888888" /><text x="216" y="37.2" font-size="12" text-anchor="start">Baseline</text><circle cx="201" cy="33" r="5" fill="#333333" /></g><g transform="translate(10,510)"><line x1="95.04" y1="44" x2="95.04" y2="329" stroke="#cccccc" stroke-width="1" /><line x1="131.08" y1="44" x2="131.08" y2="329" stroke="#cccccc" stroke-width="1" /><line x1="167.13" y1="44" x2="167.13" y2="329" stroke="#cccccc" stroke-width="1" /><line x1="203.17000000000002" y1="44" x2="203.17000000000002" y2="329" stroke="#cccccc" stroke-width="1" /><line x1="59" y1="272" x2="232" y2="272" stroke="#cccccc" stroke-width="1" /><line x1="59" y1="215" x2="232" y2="215" stroke="#cccccc" stroke-width="1" /><line x1="59" y1="158" x2="232" y2="158" stroke="#cccccc" stroke-width="1" /><line x1="59" y1="101" x2="232" y2="101" stroke="#cccccc" stroke-width="1" /><line x1="59" y1="44" x2="232" y2="44" stroke="#cccccc" stroke-width="1" /><line x1="59" y1="329" x2="232" y2="329" stroke="#000000" stroke-width="1" /><line x1="59" y1="44" x2="59" y2="329" stroke="#000000" stroke-width="1" /><line x1="59" y1="329" x2="59" y2="334" stroke="#000000" stroke-width="1" /><text x="59" y="346" font-size="12" text-anchor="middle">0</text><line x1="95.04" y1="329" x2="95.04" y2="334" stroke="#000000" stroke-width="1" /><text x="95.04" y="346" font-size="12" text-anchor="middle">2.5</text><line x1="131.08" y1="329" x2="131.08" y2="334" stroke="#000000" stroke-width="1" /><text x="131.08" y="346" font-size="12" text-anchor="middle">5</text><line x1="167.13" y1="329" x2="167.13" y2="334" stroke="#000000" stroke-width="1" /><text x="167.13" y="346" font-size="12" text-anchor="middle">7.5</text><line x1="203.17000000000002" y1="329" x2="203.17000000000002" y2="334" stroke="#000000" stroke-width="1" /><text x="203.17000000000002" y="346" font-size="12" text-anchor="middle">10</text><line x1="54" y1="329" x2="59" y2="329" stroke="#000000" stroke-width="1" /><text x="51" y="333.2" font-size="12" text-anchor="end">0</text><line x1="54" y1="272" x2="59" y2="272" stroke="#000000" stroke-width="1" /><text x="51" y="276.2" font-size="12" text-anchor="end">2.5</text><line x1="54" y1="215" x2="59" y2="215" stroke="#000000" stroke-width="1" /><text x="51" y="219.20000000000002" font-size="12" text-anchor="end">5</text><line x1="54" y1="158" x2="59" y2="158" stroke="#000000" stroke-width="1" /><text x="51" y="162.20000000000002" font-size="12" text-anchor="end">7.5</text><line x1="54" y1="101" x2="59" y2="101" stroke="#000000" stroke-width="1" /><text x="51" y="105.2" font-size="12" text-anchor="end">10</text><line x1="54" y1="44" x2="59" y2="44" stroke="#000000" stroke-width="1" /><text x="51" y="48.2" font-size="12" text-anchor="end">12.5</text><text x="145.5" y="373" font-size="14" text-anchor="middle">X</text><text x="15" y="190" font-size="14" text-anchor="middle" transform="rotate(-90,15,190)">Value</text><text x="125" y="27.400000000000002" font-size="18" text-anchor="middle">Scatter C</text><g clip-path="url(#kuva-clip-23)"><circle cx="59" cy="329" r="4.5" fill="seagreen" /><circle cx="73.42" cy="286.45" r="4.5" fill="seagreen" /><circle cx="87.83" cy="254.26000000000002" r="4.5" fill="seagreen" /><circle cx="102.25" cy="237.92000000000002" r="4.5" fill="seagreen" /><circle cx="116.67" cy="235.46" r="4.5" fill="seagreen" /><circle cx="131.08" cy="238.4" r="4.5" fill="seagreen" /><circle cx="145.5" cy="235.69" r="4.5" fill="seagreen" /><circle cx="159.92000000000002" cy="218.96" r="4.5" fill="seagreen" /><circle cx="174.33" cy="186.43" r="4.5" fill="seagreen" /><circle cx="188.75" cy="143.74" r="4.5" fill="seagreen" /><circle cx="203.17000000000002" cy="101.33" r="4.5" fill="seagreen" /><circle cx="217.58" cy="69.48" r="4.5" fill="seagreen" /></g></g><g transform="translate(275,510)"><line x1="167.96" y1="44" x2="167.96" y2="329" stroke="#cccccc" stroke-width="1" /><line x1="276.92" y1="44" x2="276.92" y2="329" stroke="#cccccc" stroke-width="1" /><line x1="385.88" y1="44" x2="385.88" y2="329" stroke="#cccccc" stroke-width="1" /><line x1="494.83" y1="44" x2="494.83" y2="329" stroke="#cccccc" stroke-width="1" /><line x1="59" y1="293.38" x2="582" y2="293.38" stroke="#cccccc" stroke-width="1" /><line x1="59" y1="222.13" x2="582" y2="222.13" stroke="#cccccc" stroke-width="1" /><line x1="59" y1="150.88" x2="582" y2="150.88" stroke="#cccccc" stroke-width="1" /><line x1="59" y1="79.63" x2="582" y2="79.63" stroke="#cccccc" stroke-width="1" /><line x1="59" y1="329" x2="582" y2="329" stroke="#000000" stroke-width="1" /><line x1="59" y1="44" x2="59" y2="329" stroke="#000000" stroke-width="1" /><line x1="59" y1="329" x2="59" y2="334" stroke="#000000" stroke-width="1" /><text x="59" y="346" font-size="12" text-anchor="middle">0</text><line x1="167.96" y1="329" x2="167.96" y2="334" stroke="#000000" stroke-width="1" /><text x="167.96" y="346" font-size="12" text-anchor="middle">2.5</text><line x1="276.92" y1="329" x2="276.92" y2="334" stroke="#000000" stroke-width="1" /><text x="276.92" y="346" font-size="12" text-anchor="middle">5</text><line x1="385.88" y1="329" x2="385.88" y2="334" stroke="#000000" stroke-width="1" /><text x="385.88" y="346" font-size="12" text-anchor="middle">7.5</text><line x1="494.83" y1="329" x2="494.83" y2="334" stroke="#000000" stroke-width="1" /><text x="494.83" y="346" font-size="12" text-anchor="middle">10</text><line x1="54" y1="293.38" x2="59" y2="293.38" stroke="#000000" stroke-width="1" /><text x="51" y="297.58" font-size="12" text-anchor="end">2</text><line x1="54" y1="222.13" x2="59" y2="222.13" stroke="#000000" stroke-width="1" /><text x="51" y="226.33" font-size="12" text-anchor="end">4</text><line x1="54" y1="150.88" x2="59" y2="150.88" stroke="#000000" stroke-width="1" /><text x="51" y="155.07" font-size="12" text-anchor="end">6</text><line x1="54" y1="79.63" x2="59" y2="79.63" stroke="#000000" stroke-width="1" /><text x="51" y="83.83" font-size="12" text-anchor="end">8</text><text x="320.5" y="373" font-size="14" text-anchor="middle">X</text><text x="300" y="27.400000000000002" font-size="18" text-anchor="middle">Scatter D</text><g clip-path="url(#kuva-clip-24)"><circle cx="59" cy="293.38" r="4.5" fill="#ff8c00" /><circle cx="102.58" cy="280.72" r="4.5" fill="#ff8c00" /><circle cx="146.17000000000002" cy="283.38" r="4.5" fill="#ff8c00" /><circle cx="189.75" cy="295.46" r="4.5" fill="#ff8c00" /><circle cx="233.33" cy="308.78000000000003" r="4.5" fill="#ff8c00" /><circle cx="276.92" cy="314.83" r="4.5" fill="#ff8c00" /><circle cx="320.5" cy="306.91" r="4.5" fill="#ff8c00" /><circle cx="364.08" cy="281.72" r="4.5" fill="#ff8c00" /><circle cx="407.67" cy="240.20000000000002" r="4.5" fill="#ff8c00" /><circle cx="451.25" cy="187.27" r="4.5" fill="#ff8c00" /><circle cx="494.83" cy="130.66" r="4.5" fill="#ff8c00" /><circle cx="538.42" cy="79.01" r="4.5" fill="#ff8c00" /></g></g></svg>