<svg xmlns="http://www.w3.org/2000/svg" width="875" height="675" font-family="DejaVu Sans, Liberation Sans, Arial, sans-serif" fill="black"><rect width="100%" height="100%" fill="white" /><defs><clipPath id="kuva-clip-9"><rect x="59" y="44" width="346.6" height="225"/></clipPath><clipPath id="kuva-clip-10"><rect x="10" y="44" width="395.6" height="225"/></clipPath><clipPath id="kuva-clip-11"><rect x="59" y="44" width="346.6" height="225"/></clipPath><clipPath id="kuva-clip-12"><rect x="10" y="44" width="395.6" height="225"/></clipPath></defs><g transform="translate(10,10)"><line x1="128.32" y1="44" x2="128.32" y2="269" stroke="#cccccc" stroke-width="1" /><line x1="197.64000000000001" y1="44" x2="197.64000000000001" y2="269" stroke="#cccccc" stroke-width="1" /><line x1="266.96" y1="44" x2="266.96" y2="269" stroke="#cccccc" stroke-width="1" /><line x1="336.28000000000003" y1="44" x2="336.28000000000003" y2="269" stroke="#cccccc" stroke-width="1" /><line x1="405.6" y1="44" x2="405.6" y2="269" stroke="#cccccc" stroke-width="1" /><line x1="59" y1="222.13" x2="405.6" y2="222.13" stroke="#cccccc" stroke-width="1" /><line x1="59" y1="175.25" x2="405.6" y2="175.25" stroke="#cccccc" stroke-width="1" /><line x1="59" y1="128.38" x2="405.6" y2="128.38" stroke="#cccccc" stroke-width="1" /><line x1="59" y1="81.5" x2="405.6" y2="81.5" stroke="#cccccc" stroke-width="1" /><line x1="59" y1="269" x2="405.6" y2="269" stroke="#000000" stroke-width="1" /><line x1="59" y1="44" x2="59" y2="269" stroke="#000000" stroke-width="1" /><line x1="59" y1="269" x2="59" y2="274" stroke="#000000" stroke-width="1" /><text x="59" y="286" font-size="12" text-anchor="middle">0</text><line x1="128.32" y1="269" x2="128.32" y2="274" stroke="#000000" stroke-width="1" /><text x="128.32" y="286" font-size="12" text-anchor="middle">2</text><line x1="197.64000000000001" y1="269" x2="197.64000000000001" y2="274" stroke="#000000" stroke-width="1" /><text x="197.64000000000001" y="286" font-size="12" text-anchor="middle">4</text><line x1="266.96" y1="269" x2="266.96" y2="274" stroke="#000000" stroke-width="1" /><text x="266.96" y="286" font-size="12" text-anchor="middle">6</text><line x1="336.28000000000003" y1="269" x2="336.28000000000003" y2="274" stroke="#000000" stroke-width="1" /><text x="336.28000000000003" y="286" font-size="12" text-anchor="middle">8</text><line x1="405.6" y1="269" x2="405.6" y2="274" stroke="#000000" stroke-width="1" /><text x="405.6" y="286" font-size="12" text-anchor="middle">10</text><line x1="54" y1="269" x2="59" y2="269" stroke="#000000" stroke-width="1" /><text x="51" y="273.2" font-size="12" text-anchor="end">0</text><line x1="54" y1="222.13" x2="59" y2="222.13" stroke="#000000" stroke-width="1" /><text x="51" y="226.33" font-size="12" text-anchor="end">2.5</text><line x1="54" y1="175.25" x2="59" y2="175.25" stroke="#000000" stroke-width="1" /><text x="51" y="179.45000000000002" font-size="12" text-anchor="end">5</text><line x1="54" y1="128.38" x2="59" y2="128.38" stroke="#000000" stroke-width="1" /><text x="51" y="132.57" font-size="12" text-anchor="end">7.5</text><line x1="54" y1="81.5" x2="59" y2="81.5" stroke="#000000" stroke-width="1" /><text x="51" y="85.7" font-size="12" text-anchor="end">10</text><text x="15" y="160" font-size="14" text-anchor="middle" transform="rotate(-90,15,160)">Value</text><text x="210" y="27.400000000000002" font-size="18" text-anchor="middle">Group A — rep 1</text><g clip-path="url(#kuva-clip-9)"><circle cx="59" cy="269" r="4.5" fill="#4682b4" /><circle cx="93.66" cy="239.39000000000001" r="4.5" fill="#4682b4" /><circle cx="128.32" cy="211.97" r="4.5" fill="#4682b4" /><circle cx="162.98" cy="188.42000000000002" r="4.5" fill="#4682b4" /><circle cx="197.64000000000001" cy="169.45000000000002" r="4.5" fill="#4682b4" /><circle cx="232.3" cy="154.65" r="4.5" fill="#4682b4" /><circle cx="266.96" cy="142.6" r="4.5" fill="#4682b4" /><circle cx="301.62" cy="131.2" r="4.5" fill="#4682b4" /><circle cx="336.28000000000003" cy="118.19" r="4.5" fill="#4682b4" /><circle cx="370.94" cy="101.7" r="4.5" fill="#4682b4" /></g></g><g transform="translate(445,10)"><line x1="89.12" y1="44" x2="89.12" y2="269" stroke="#cccccc" stroke-width="1" /><line x1="168.24" y1="44" x2="168.24" y2="269" stroke="#cccccc" stroke-width="1" /><line x1="247.36" y1="44" x2="247.36" y2="269" stroke="#cccccc" stroke-width="1" /><line x1="326.48" y1="44" x2="326.48" y2="269" stroke="#cccccc" stroke-width="1" /><line x1="405.6" y1="44" x2="405.6" y2="269" stroke="#cccccc" stroke-width="1" /><line x1="10" y1="222.13" x2="405.6" y2="222.13" stroke="#cccccc" stroke-width="1" /><line x1="10" y1="175.25" x2="405.6" y2="175.25" stroke="#cccccc" stroke-width="1" /><line x1="10" y1="128.38" x2="405.6" y2="128.38" stroke="#cccccc" stroke-width="1" /><line x1="10" y1="81.5" x2="405.6" y2="81.5" stroke="#cccccc" stroke-width="1" /><line x1="10" y1="269" x2="405.6" y2="269" stroke="#000000" stroke-width="1" /><line x1="10" y1="44" x2="10" y2="269" stroke="#000000" stroke-width="1" /><line x1="10" y1="269" x2="10" y2="274" stroke="#000000" stroke-width="1" /><text x="10" y="286" font-size="12" text-anchor="middle">0</text><line x1="89.12" y1="269" x2="89.12" y2="274" stroke="#000000" stroke-width="1" /><text x="89.12" y="286" font-size="12" text-anchor="middle">2</text><line x1="168.24" y1="269" x2="168.24" y2="274" stroke="#000000" stroke-width="1" /><text x="168.24" y="286" font-size="12" text-anchor="middle">4</text><line x1="247.36" y1="269" x2="247.36" y2="274" stroke="#000000" stroke-width="1" /><text x="247.36" y="286" font-size="12" text-anchor="middle">6</text><line x1="326.48" y1="269" x2="326.48" y2="274" stroke="#000000" stroke-width="1" /><text x="326.48" y="286" font-size="12" text-anchor="middle">8</text><line x1="405.6" y1="269" x2="405.6" y2="274" stroke="#000000" stroke-width="1" /><text x="405.6" y="286" font-size="12" text-anchor="middle">10</text><text x="210" y="27.400000000000002" font-size="18" text-anchor="middle">Group A — rep 2</text><g clip-path="url(#kuva-clip-10)"><circle cx="10" cy="240.88" r="4.5" fill="#4682b4" /><circle cx="49.56" cy="211.26" r="4.5" fill="#4682b4" /><circle cx="89.12" cy="183.85" r="4.5" fill="#4682b4" /><circle cx="128.68" cy="160.3" r="4.5" fill="#4682b4" /><circle cx="168.24" cy="141.33" r="4.5" fill="#4682b4" /><circle cx="207.8" cy="126.53" r="4.5" fill="#4682b4" /><circle cx="247.36" cy="114.48" r="4.5" fill="#4682b4" /><circle cx="286.92" cy="103.08" r="4.5" fill="#4682b4" /><circle cx="326.48" cy="90.07000000000001" r="4.5" fill="#4682b4" /><circle cx="366.04" cy="73.58" r="4.5" fill="#4682b4" /></g></g><g transform="translate(10,345)"><line x1="128.32" y1="44" x2="128.32" y2="269" stroke="#cccccc" stroke-width="1" /><line x1="197.64000000000001" y1="44" x2="197.64000000000001" y2="269" stroke="#cccccc" stroke-width="1" /><line x1="266.96" y1="44" x2="266.96" y2="269" stroke="#cccccc" stroke-width="1" /><line x1="336.28000000000003" y1="44" x2="336.28000000000003" y2="269" stroke="#cccccc" stroke-width="1" /><line x1="405.6" y1="44" x2="405.6" y2="269" stroke="#cccccc" stroke-width="1" /><line x1="59" y1="236.86" x2="405.6" y2="236.86" stroke="#cccccc" stroke-width="1" /><line x1="59" y1="196.68" x2="405.6" y2="196.68" stroke="#cccccc" stroke-width="1" /><line x1="59" y1="156.5" x2="405.6" y2="156.5" stroke="#cccccc" stroke-width="1" /><line x1="59" y1="116.32000000000001" x2="405.6" y2="116.32000000000001" stroke="#cccccc" stroke-width="1" /><line x1="59" y1="76.14" x2="405.6" y2="76.14" stroke="#cccccc" stroke-width="1" /><line x1="59" y1="269" x2="405.6" y2="269" stroke="#000000" stroke-width="1" /><line x1="59" y1="44" x2="59" y2="269" stroke="#000000" stroke-width="1" /><line x1="59" y1="269" x2="59" y2="274" stroke="#000000" stroke-width="1" /><text x="59" y="286" font-size="12" text-anchor="middle">0</text><line x1="128.32" y1="269" x2="128.32" y2="274" stroke="#000000" stroke-width="1" /><text x="128.32" y="286" font-size="12" text-anchor="middle">2</text><line x1="197.64000000000001" y1="269" x2="197.64000000000001" y2="274" stroke="#000000" stroke-width="1" /><text x="197.64000000000001" y="286" font-size="12" text-anchor="middle">4</text><line x1="266.96" y1="269" x2="266.96" y2="274" stroke="#000000" stroke-width="1" /><text x="266.96" y="286" font-size="12" text-anchor="middle">6</text><line x1="336.28000000000003" y1="269" x2="336.28000000000003" y2="274" stroke="#000000" stroke-width="1" /><text x="336.28000000000003" y="286" font-size="12" text-anchor="middle">8</text><line x1="405.6" y1="269" x2="405.6" y2="274" stroke="#000000" stroke-width="1" /><text x="405.6" y="286" font-size="12" text-anchor="middle">10</text><line x1="54" y1="236.86" x2="59" y2="236.86" stroke="#000000" stroke-width="1" /><text x="51" y="241.06" font-size="12" text-anchor="end">10</text><line x1="54" y1="196.68" x2="59" y2="196.68" stroke="#000000" stroke-width="1" /><text x="51" y="200.88" font-size="12" text-anchor="end">12.5</text><line x1="54" y1="156.5" x2="59" y2="156.5" stroke="#000000" stroke-width="1" /><text x="51" y="160.70000000000002" font-size="12" text-anchor="end">15</text><line x1="54" y1="116.32000000000001" x2="59" y2="116.32000000000001" stroke="#000000" stroke-width="1" /><text x="51" y="120.52" font-size="12" text-anchor="end">17.5</text><line x1="54" y1="76.14" x2="59" y2="76.14" stroke="#000000" stroke-width="1" /><text x="51" y="80.34" font-size="12" text-anchor="end">20</text><text x="232.3" y="313" font-size="14" text-anchor="middle">X</text><text x="15" y="160" font-size="14" text-anchor="middle" transform="rotate(-90,15,160)">Value</text><text x="210" y="27.400000000000002" font-size="18" text-anchor="middle">Group B — rep 1</text><g clip-path="url(#kuva-clip-11)"><circle cx="59" cy="236.86" r="4.5" fill="#dc143c" /><circle cx="93.66" cy="211.47" r="4.5" fill="#dc143c" /><circle cx="128.32" cy="187.98" r="4.5" fill="#dc143c" /><circle cx="162.98" cy="167.79" r="4.5" fill="#dc143c" /><circle cx="197.64000000000001" cy="151.53" r="4.5" fill="#dc143c" /><circle cx="232.3" cy="138.85" r="4.5" fill="#dc143c" /><circle cx="266.96" cy="128.52" r="4.5" fill="#dc143c" /><circle cx="301.62" cy="118.74000000000001" r="4.5" fill="#dc143c" /><circle cx="336.28000000000003" cy="107.59" r="4.5" fill="#dc143c" /><circle cx="370.94" cy="93.46000000000001" r="4.5" fill="#dc143c" /></g></g><g transform="translate(445,345)"><line x1="89.12" y1="44" x2="89.12" y2="269" stroke="#cccccc" stroke-width="1" /><line x1="168.24" y1="44" x2="168.24" y2="269" stroke="#cccccc" stroke-width="1" /><line x1="247.36" y1="44" x2="247.36" y2="269" stroke="#cccccc" stroke-width="1" /><line x1="326.48" y1="44" x2="326.48" y2="269" stroke="#cccccc" stroke-width="1" /><line x1="405.6" y1="44" x2="405.6" y2="269" stroke="#cccccc" stroke-width="1" /><line x1="10" y1="236.86" x2="405.6" y2="236.86" stroke="#cccccc" stroke-width="1" /><line x1="10" y1="196.68" x2="405.6" y2="196.68" stroke="#cccccc" stroke-width="1" /><line x1="10" y1="156.5" x2="405.6" y2="156.5" stroke="#cccccc" stroke-width="1" /><line x1="10" y1="116.32000000000001" x2="405.6" y2="116.32000000000001" stroke="#cccccc" stroke-width="1" /><line x1="10" y1="76.14" x2="405.6" y2="76.14" stroke="#cccccc" stroke-width="1" /><line x1="10" y1="269" x2="405.6" y2="269" stroke="#000000" stroke-width="1" /><line x1="10" y1="44" x2="10" y2="269" stroke="#000000" stroke-width="1" /><line x1="10" y1="269" x2="10" y2="274" stroke="#000000" stroke-width="1" /><text x="10" y="286" font-size="12" text-anchor="middle">0</text><line x1="89.12" y1="269" x2="89.12" y2="274" stroke="#000000" stroke-width="1" /><text x="89.12" y="286" font-size="12" text-anchor="middle">2</text><line x1="168.24" y1="269" x2="168.24" y2="274" stroke="#000000" stroke-width="1" /><text x="168.24" y="286" font-size="12" text-anchor="middle">4</text><line x1="247.36" y1="269" x2="247.36" y2="274" stroke="#000000" stroke-width="1" /><text x="247.36" y="286" font-size="12" text-anchor="middle">6</text><line x1="326.48" y1="269" x2="326.48" y2="274" stroke="#000000" stroke-width="1" /><text x="326.48" y="286" font-size="12" text-anchor="middle">8</text><line x1="405.6" y1="269" x2="405.6" y2="274" stroke="#000000" stroke-width="1" /><text x="405.6" y="286" font-size="12" text-anchor="middle">10</text><text x="207.8" y="313" font-size="14" text-anchor="middle">X</text><text x="210" y="27.400000000000002" font-size="18" text-anchor="middle">Group B — rep 2</text><g clip-path="url(#kuva-clip-12)"><circle cx="10" cy="220.79" r="4.5" fill="#dc143c" /><circle cx="49.56" cy="195.4" r="4.5" fill="#dc143c" /><circle cx="89.12" cy="171.9" r="4.5" fill="#dc143c" /><circle cx="128.68" cy="151.72" r="4.5" fill="#dc143c" /><circle cx="168.24" cy="135.46" r="4.5" fill="#dc143c" /><circle cx="207.8" cy="122.77" r="4.5" fill="#dc143c" /><circle cx="247.36" cy="112.45" r="4.5" fill="#dc143c" /><circle cx="286.92" cy="102.67" r="4.5" fill="#dc143c" /><circle cx="326.48" cy="91.52" r="4.5" fill="#dc143c" /><circle cx="366.04" cy="77.39" r="4.5" fill="#dc143c" /></g></g></svg>