<svg xmlns="http://www.w3.org/2000/svg" width="993" height="360" font-family="DejaVu Sans, Liberation Sans, Arial, sans-serif" fill="black"><rect width="100%" height="100%" fill="white" /><defs><clipPath id="kuva-clip-13"><rect x="59" y="44" width="346.6" height="245"/></clipPath><clipPath id="kuva-clip-14"><rect x="59" y="44" width="346.6" height="245"/></clipPath></defs><g transform="translate(10,10)"><line x1="145.65" y1="44" x2="145.65" y2="289" stroke="#cccccc" stroke-width="1" /><line x1="232.3" y1="44" x2="232.3" y2="289" stroke="#cccccc" stroke-width="1" /><line x1="318.95" y1="44" x2="318.95" y2="289" stroke="#cccccc" stroke-width="1" /><line x1="405.6" y1="44" x2="405.6" y2="289" stroke="#cccccc" stroke-width="1" /><line x1="59" y1="237.96" x2="405.6" y2="237.96" stroke="#cccccc" stroke-width="1" /><line x1="59" y1="186.92000000000002" x2="405.6" y2="186.92000000000002" stroke="#cccccc" stroke-width="1" /><line x1="59" y1="135.88" x2="405.6" y2="135.88" stroke="#cccccc" stroke-width="1" /><line x1="59" y1="84.83" x2="405.6" y2="84.83" stroke="#cccccc" stroke-width="1" /><line x1="59" y1="289" x2="405.6" y2="289" stroke="#000000" stroke-width="1" /><line x1="59" y1="44" x2="59" y2="289" stroke="#000000" stroke-width="1" /><line x1="59" y1="289" x2="59" y2="294" stroke="#000000" stroke-width="1" /><text x="59" y="306" font-size="12" text-anchor="middle">0</text><line x1="145.65" y1="289" x2="145.65" y2="294" stroke="#000000" stroke-width="1" /><text x="145.65" y="306" font-size="12" text-anchor="middle">2</text><line x1="232.3" y1="289" x2="232.3" y2="294" stroke="#000000" stroke-width="1" /><text x="232.3" y="306" font-size="12" text-anchor="middle">4</text><line x1="318.95" y1="289" x2="318.95" y2="294" stroke="#000000" stroke-width="1" /><text x="318.95" y="306" font-size="12" text-anchor="middle">6</text><line x1="405.6" y1="289" x2="405.6" y2="294" stroke="#000000" stroke-width="1" /><text x="405.6" y="306" font-size="12" text-anchor="middle">8</text><line x1="54" y1="289" x2="59" y2="289" stroke="#000000" stroke-width="1" /><text x="51" y="293.2" font-size="12" text-anchor="end">0</text><line x1="54" y1="237.96" x2="59" y2="237.96" stroke="#000000" stroke-width="1" /><text x="51" y="242.16" font-size="12" text-anchor="end">2.5</text><line x1="54" y1="186.92000000000002" x2="59" y2="186.92000000000002" stroke="#000000" stroke-width="1" /><text x="51" y="191.12" font-size="12" text-anchor="end">5</text><line x1="54" y1="135.88" x2="59" y2="135.88" stroke="#000000" stroke-width="1" /><text x="51" y="140.07" font-size="12" text-anchor="end">7.5</text><line x1="54" y1="84.83" x2="59" y2="84.83" stroke="#000000" stroke-width="1" /><text x="51" y="89.03" font-size="12" text-anchor="end">10</text><text x="232.3" y="333" font-size="14" text-anchor="middle">Time</text><text x="15" y="170" font-size="14" text-anchor="middle" transform="rotate(-90,15,170)">Response</text><text x="210" y="27.400000000000002" font-size="18" text-anchor="middle">Experiment 1</text><g clip-path="url(#kuva-clip-13)"><circle cx="59" cy="268.58" r="4.5" fill="#4682b4" /><circle cx="102.33" cy="250.21" r="4.5" fill="#4682b4" /><circle cx="145.65" cy="231.83" r="4.5" fill="#4682b4" /><circle cx="188.98" cy="213.46" r="4.5" fill="#4682b4" /><circle cx="232.3" cy="195.08" r="4.5" fill="#4682b4" /><circle cx="275.63" cy="176.71" r="4.5" fill="#4682b4" /><circle cx="318.95" cy="158.33" r="4.5" fill="#4682b4" /><circle cx="362.28000000000003" cy="139.96" r="4.5" fill="#4682b4" /><circle cx="59" cy="278.79" r="4.5" fill="#dc143c" /><circle cx="102.33" cy="250.21" r="4.5" fill="#dc143c" /><circle cx="145.65" cy="221.63" r="4.5" fill="#dc143c" /><circle cx="188.98" cy="193.04" r="4.5" fill="#dc143c" /><circle cx="232.3" cy="164.46" r="4.5" fill="#dc143c" /><circle cx="275.63" cy="135.88" r="4.5" fill="#dc143c" /><circle cx="318.95" cy="107.29" r="4.5" fill="#dc143c" /><circle cx="362.28000000000003" cy="78.71000000000001" r="4.5" fill="#dc143c" /></g></g><g transform="translate(445,10)"><line x1="145.65" y1="44" x2="145.65" y2="289" stroke="#cccccc" stroke-width="1" /><line x1="232.3" y1="44" x2="232.3" y2="289" stroke="#cccccc" stroke-width="1" /><line x1="318.95" y1="44" x2="318.95" y2="289" stroke="#cccccc" stroke-width="1" /><line x1="405.6" y1="44" x2="405.6" y2="289" stroke="#cccccc" stroke-width="1" /><line x1="59" y1="237.96" x2="405.6" y2="237.96" stroke="#cccccc" stroke-width="1" /><line x1="59" y1="186.92000000000002" x2="405.6" y2="186.92000000000002" stroke="#cccccc" stroke-width="1" /><line x1="59" y1="135.88" x2="405.6" y2="135.88" stroke="#cccccc" stroke-width="1" /><line x1="59" y1="84.83" x2="405.6" y2="84.83" stroke="#cccccc" stroke-width="1" /><line x1="59" y1="289" x2="405.6" y2="289" stroke="#000000" stroke-width="1" /><line x1="59" y1="44" x2="59" y2="289" stroke="#000000" stroke-width="1" /><line x1="59" y1="289" x2="59" y2="294" stroke="#000000" stroke-width="1" /><text x="59" y="306" font-size="12" text-anchor="middle">0</text><line x1="145.65" y1="289" x2="145.65" y2="294" stroke="#000000" stroke-width="1" /><text x="145.65" y="306" font-size="12" text-anchor="middle">2</text><line x1="232.3" y1="289" x2="232.3" y2="294" stroke="#000000" stroke-width="1" /><text x="232.3" y="306" font-size="12" text-anchor="middle">4</text><line x1="318.95" y1="289" x2="318.95" y2="294" stroke="#000000" stroke-width="1" /><text x="318.95" y="306" font-size="12" text-anchor="middle">6</text><line x1="405.6" y1="289" x2="405.6" y2="294" stroke="#000000" stroke-width="1" /><text x="405.6" y="306" font-size="12" text-anchor="middle">8</text><line x1="54" y1="289" x2="59" y2="289" stroke="#000000" stroke-width="1" /><text x="51" y="293.2" font-size="12" text-anchor="end">0</text><line x1="54" y1="237.96" x2="59" y2="237.96" stroke="#000000" stroke-width="1" /><text x="51" y="242.16" font-size="12" text-anchor="end">2.5</text><line x1="54" y1="186.92000000000002" x2="59" y2="186.92000000000002" stroke="#000000" stroke-width="1" /><text x="51" y="191.12" font-size="12" text-anchor="end">5</text><line x1="54" y1="135.88" x2="59" y2="135.88" stroke="#000000" stroke-width="1" /><text x="51" y="140.07" font-size="12" text-anchor="end">7.5</text><line x1="54" y1="84.83" x2="59" y2="84.83" stroke="#000000" stroke-width="1" /><text x="51" y="89.03" font-size="12" text-anchor="end">10</text><text x="232.3" y="333" font-size="14" text-anchor="middle">Time</text><text x="210" y="27.400000000000002" font-size="18" text-anchor="middle">Experiment 2</text><g clip-path="url(#kuva-clip-14)"><circle cx="80.66" cy="259.4" r="4.5" fill="#4682b4" /><circle cx="123.99000000000001" cy="241.02" r="4.5" fill="#4682b4" /><circle cx="167.31" cy="222.65" r="4.5" fill="#4682b4" /><circle cx="210.64000000000001" cy="204.27" r="4.5" fill="#4682b4" /><circle cx="253.96" cy="185.9" r="4.5" fill="#4682b4" /><circle cx="297.29" cy="167.52" r="4.5" fill="#4682b4" /><circle cx="340.61" cy="149.15" r="4.5" fill="#4682b4" /><circle cx="383.94" cy="130.77" r="4.5" fill="#4682b4" /><circle cx="80.66" cy="264.5" r="4.5" fill="#dc143c" /><circle cx="123.99000000000001" cy="235.92000000000002" r="4.5" fill="#dc143c" /><circle cx="167.31" cy="207.33" r="4.5" fill="#dc143c" /><circle cx="210.64000000000001" cy="178.75" r="4.5" fill="#dc143c" /><circle cx="253.96" cy="150.17000000000002" r="4.5" fill="#dc143c" /><circle cx="297.29" cy="121.58" r="4.5" fill="#dc143c" /><circle cx="340.61" cy="93" r="4.5" fill="#dc143c" /><circle cx="383.94" cy="64.42" r="4.5" fill="#dc143c" /></g></g><rect x="880" y="142" width="98" height="56" fill="#ffffff" /><rect x="880" y="142" width="98" height="56" fill="none" stroke="#000000" stroke-width="1" /><text x="910" y="161.20000000000002" font-size="12" text-anchor="start">Control</text><circle cx="896" cy="157" r="5" fill="#4682b4" /><text x="910" y="179.20000000000002" font-size="12" text-anchor="start">Treatment</text><circle cx="896" cy="175" r="5" fill="#dc143c" /></svg>