<svg xmlns="http://www.w3.org/2000/svg" width="875" height="675" font-family="DejaVu Sans, Liberation Sans, Arial, sans-serif" fill="black"><rect width="100%" height="100%" fill="white" /><g transform="translate(10,10)"><line x1="72.2" y1="269" x2="406" y2="269" stroke="#000000" stroke-width="1" /><line x1="72.2" y1="44" x2="72.2" y2="269" stroke="#000000" stroke-width="1" /><line x1="138.96" y1="44" x2="138.96" y2="269" stroke="#cccccc" stroke-width="1" /><line x1="205.72" y1="44" x2="205.72" y2="269" stroke="#cccccc" stroke-width="1" /><line x1="272.48" y1="44" x2="272.48" y2="269" stroke="#cccccc" stroke-width="1" /><line x1="339.24" y1="44" x2="339.24" y2="269" stroke="#cccccc" stroke-width="1" /><line x1="406" y1="44" x2="406" y2="269" stroke="#cccccc" stroke-width="1" /><line x1="72.2" y1="222.13" x2="406" y2="222.13" stroke="#cccccc" stroke-width="1" /><line x1="72.2" y1="175.25" x2="406" y2="175.25" stroke="#cccccc" stroke-width="1" /><line x1="72.2" y1="128.38" x2="406" y2="128.38" stroke="#cccccc" stroke-width="1" /><line x1="72.2" y1="81.5" x2="406" y2="81.5" stroke="#cccccc" stroke-width="1" /><line x1="72.2" y1="269" x2="72.2" y2="274" stroke="#000000" stroke-width="1" /><text x="72.2" y="286" font-size="12" text-anchor="middle">0</text><line x1="138.96" y1="269" x2="138.96" y2="274" stroke="#000000" stroke-width="1" /><text x="138.96" y="286" font-size="12" text-anchor="middle">2</text><line x1="205.72" y1="269" x2="205.72" y2="274" stroke="#000000" stroke-width="1" /><text x="205.72" y="286" font-size="12" text-anchor="middle">4</text><line x1="272.48" y1="269" x2="272.48" y2="274" stroke="#000000" stroke-width="1" /><text x="272.48" y="286" font-size="12" text-anchor="middle">6</text><line x1="339.24" y1="269" x2="339.24" y2="274" stroke="#000000" stroke-width="1" /><text x="339.24" y="286" font-size="12" text-anchor="middle">8</text><line x1="406" y1="269" x2="406" y2="274" stroke="#000000" stroke-width="1" /><text x="406" y="286" font-size="12" text-anchor="middle">10</text><line x1="67.2" y1="269" x2="72.2" y2="269" stroke="#000000" stroke-width="1" /><text x="64.2" y="273.2" font-size="12" text-anchor="end">0</text><line x1="67.2" y1="222.13" x2="72.2" y2="222.13" stroke="#000000" stroke-width="1" /><text x="64.2" y="226.33" font-size="12" text-anchor="end">2.5</text><line x1="67.2" y1="175.25" x2="72.2" y2="175.25" stroke="#000000" stroke-width="1" /><text x="64.2" y="179.45000000000002" font-size="12" text-anchor="end">5</text><line x1="67.2" y1="128.38" x2="72.2" y2="128.38" stroke="#000000" stroke-width="1" /><text x="64.2" y="132.57" font-size="12" text-anchor="end">7.5</text><line x1="67.2" y1="81.5" x2="72.2" y2="81.5" stroke="#000000" stroke-width="1" /><text x="64.2" y="85.7" font-size="12" text-anchor="end">10</text><text x="7" y="160" font-size="14" text-anchor="middle" transform="rotate(-90,7,160)">Value</text><text x="239.1" y="22" font-size="18" text-anchor="middle">Group A — rep 1</text><circle cx="72.2" cy="269" r="4.5" fill="#4682b4" /><circle cx="105.58" cy="239.39000000000001" r="4.5" fill="#4682b4" /><circle cx="138.96" cy="211.97" r="4.5" fill="#4682b4" /><circle cx="172.34" cy="188.42000000000002" r="4.5" fill="#4682b4" /><circle cx="205.72" cy="169.45000000000002" r="4.5" fill="#4682b4" /><circle cx="239.1" cy="154.65" r="4.5" fill="#4682b4" /><circle cx="272.48" cy="142.6" r="4.5" fill="#4682b4" /><circle cx="305.86" cy="131.2" r="4.5" fill="#4682b4" /><circle cx="339.24" cy="118.19" r="4.5" fill="#4682b4" /><circle cx="372.62" cy="101.7" r="4.5" fill="#4682b4" /></g><g transform="translate(445,10)"><line x1="10" y1="269" x2="406" y2="269" stroke="#000000" stroke-width="1" /><line x1="10" y1="44" x2="10" y2="269" stroke="#000000" stroke-width="1" /><line x1="89.2" y1="44" x2="89.2" y2="269" stroke="#cccccc" stroke-width="1" /><line x1="168.4" y1="44" x2="168.4" y2="269" stroke="#cccccc" stroke-width="1" /><line x1="247.6" y1="44" x2="247.6" y2="269" stroke="#cccccc" stroke-width="1" /><line x1="326.8" y1="44" x2="326.8" y2="269" stroke="#cccccc" stroke-width="1" /><line x1="406" y1="44" x2="406" y2="269" stroke="#cccccc" stroke-width="1" /><line x1="10" y1="222.13" x2="406" y2="222.13" stroke="#cccccc" stroke-width="1" /><line x1="10" y1="175.25" x2="406" y2="175.25" stroke="#cccccc" stroke-width="1" /><line x1="10" y1="128.38" x2="406" y2="128.38" stroke="#cccccc" stroke-width="1" /><line x1="10" y1="81.5" x2="406" y2="81.5" stroke="#cccccc" stroke-width="1" /><line x1="10" y1="269" x2="10" y2="274" stroke="#000000" stroke-width="1" /><text x="10" y="286" font-size="12" text-anchor="middle">0</text><line x1="89.2" y1="269" x2="89.2" y2="274" stroke="#000000" stroke-width="1" /><text x="89.2" y="286" font-size="12" text-anchor="middle">2</text><line x1="168.4" y1="269" x2="168.4" y2="274" stroke="#000000" stroke-width="1" /><text x="168.4" y="286" font-size="12" text-anchor="middle">4</text><line x1="247.6" y1="269" x2="247.6" y2="274" stroke="#000000" stroke-width="1" /><text x="247.6" y="286" font-size="12" text-anchor="middle">6</text><line x1="326.8" y1="269" x2="326.8" y2="274" stroke="#000000" stroke-width="1" /><text x="326.8" y="286" font-size="12" text-anchor="middle">8</text><line x1="406" y1="269" x2="406" y2="274" stroke="#000000" stroke-width="1" /><text x="406" y="286" font-size="12" text-anchor="middle">10</text><text x="208" y="22" font-size="18" text-anchor="middle">Group A — rep 2</text><circle cx="10" cy="240.88" r="4.5" fill="#4682b4" /><circle cx="49.6" cy="211.26" r="4.5" fill="#4682b4" /><circle cx="89.2" cy="183.85" r="4.5" fill="#4682b4" /><circle cx="128.8" cy="160.3" r="4.5" fill="#4682b4" /><circle cx="168.4" cy="141.33" r="4.5" fill="#4682b4" /><circle cx="208" cy="126.53" r="4.5" fill="#4682b4" /><circle cx="247.6" cy="114.48" r="4.5" fill="#4682b4" /><circle cx="287.2" cy="103.08" r="4.5" fill="#4682b4" /><circle cx="326.8" cy="90.07000000000001" r="4.5" fill="#4682b4" /><circle cx="366.40000000000003" cy="73.58" r="4.5" fill="#4682b4" /></g><g transform="translate(10,345)"><line x1="72.2" y1="269" x2="406" y2="269" stroke="#000000" stroke-width="1" /><line x1="72.2" y1="44" x2="72.2" y2="269" stroke="#000000" stroke-width="1" /><line x1="138.96" y1="44" x2="138.96" y2="269" stroke="#cccccc" stroke-width="1" /><line x1="205.72" y1="44" x2="205.72" y2="269" stroke="#cccccc" stroke-width="1" /><line x1="272.48" y1="44" x2="272.48" y2="269" stroke="#cccccc" stroke-width="1" /><line x1="339.24" y1="44" x2="339.24" y2="269" stroke="#cccccc" stroke-width="1" /><line x1="406" y1="44" x2="406" y2="269" stroke="#cccccc" stroke-width="1" /><line x1="72.2" y1="224" x2="406" y2="224" stroke="#cccccc" stroke-width="1" /><line x1="72.2" y1="179" x2="406" y2="179" stroke="#cccccc" stroke-width="1" /><line x1="72.2" y1="134" x2="406" y2="134" stroke="#cccccc" stroke-width="1" /><line x1="72.2" y1="89" x2="406" y2="89" stroke="#cccccc" stroke-width="1" /><line x1="72.2" y1="44" x2="406" y2="44" stroke="#cccccc" stroke-width="1" /><line x1="72.2" y1="269" x2="72.2" y2="274" stroke="#000000" stroke-width="1" /><text x="72.2" y="286" font-size="12" text-anchor="middle">0</text><line x1="138.96" y1="269" x2="138.96" y2="274" stroke="#000000" stroke-width="1" /><text x="138.96" y="286" font-size="12" text-anchor="middle">2</text><line x1="205.72" y1="269" x2="205.72" y2="274" stroke="#000000" stroke-width="1" /><text x="205.72" y="286" font-size="12" text-anchor="middle">4</text><line x1="272.48" y1="269" x2="272.48" y2="274" stroke="#000000" stroke-width="1" /><text x="272.48" y="286" font-size="12" text-anchor="middle">6</text><line x1="339.24" y1="269" x2="339.24" y2="274" stroke="#000000" stroke-width="1" /><text x="339.24" y="286" font-size="12" text-anchor="middle">8</text><line x1="406" y1="269" x2="406" y2="274" stroke="#000000" stroke-width="1" /><text x="406" y="286" font-size="12" text-anchor="middle">10</text><line x1="67.2" y1="269" x2="72.2" y2="269" stroke="#000000" stroke-width="1" /><text x="64.2" y="273.2" font-size="12" text-anchor="end">0</text><line x1="67.2" y1="224" x2="72.2" y2="224" stroke="#000000" stroke-width="1" /><text x="64.2" y="228.20000000000002" font-size="12" text-anchor="end">5</text><line x1="67.2" y1="179" x2="72.2" y2="179" stroke="#000000" stroke-width="1" /><text x="64.2" y="183.20000000000002" font-size="12" text-anchor="end">10</text><line x1="67.2" y1="134" x2="72.2" y2="134" stroke="#000000" stroke-width="1" /><text x="64.2" y="138.20000000000002" font-size="12" text-anchor="end">15</text><line x1="67.2" y1="89" x2="72.2" y2="89" stroke="#000000" stroke-width="1" /><text x="64.2" y="93.2" font-size="12" text-anchor="end">20</text><line x1="67.2" y1="44" x2="72.2" y2="44" stroke="#000000" stroke-width="1" /><text x="64.2" y="48.2" font-size="12" text-anchor="end">25</text><text x="239.1" y="313" font-size="14" text-anchor="middle">X</text><text x="7" y="160" font-size="14" text-anchor="middle" transform="rotate(-90,7,160)">Value</text><text x="239.1" y="22" font-size="18" text-anchor="middle">Group B — rep 1</text><circle cx="72.2" cy="179" r="4.5" fill="#dc143c" /><circle cx="105.58" cy="164.79" r="4.5" fill="#dc143c" /><circle cx="138.96" cy="151.63" r="4.5" fill="#dc143c" /><circle cx="172.34" cy="140.32" r="4.5" fill="#dc143c" /><circle cx="205.72" cy="131.22" r="4.5" fill="#dc143c" /><circle cx="239.1" cy="124.11" r="4.5" fill="#dc143c" /><circle cx="272.48" cy="118.33" r="4.5" fill="#dc143c" /><circle cx="305.86" cy="112.86" r="4.5" fill="#dc143c" /><circle cx="339.24" cy="106.61" r="4.5" fill="#dc143c" /><circle cx="372.62" cy="98.7" r="4.5" fill="#dc143c" /></g><g transform="translate(445,345)"><line x1="10" y1="269" x2="406" y2="269" stroke="#000000" stroke-width="1" /><line x1="10" y1="44" x2="10" y2="269" stroke="#000000" stroke-width="1" /><line x1="89.2" y1="44" x2="89.2" y2="269" stroke="#cccccc" stroke-width="1" /><line x1="168.4" y1="44" x2="168.4" y2="269" stroke="#cccccc" stroke-width="1" /><line x1="247.6" y1="44" x2="247.6" y2="269" stroke="#cccccc" stroke-width="1" /><line x1="326.8" y1="44" x2="326.8" y2="269" stroke="#cccccc" stroke-width="1" /><line x1="406" y1="44" x2="406" y2="269" stroke="#cccccc" stroke-width="1" /><line x1="10" y1="224" x2="406" y2="224" stroke="#cccccc" stroke-width="1" /><line x1="10" y1="179" x2="406" y2="179" stroke="#cccccc" stroke-width="1" /><line x1="10" y1="134" x2="406" y2="134" stroke="#cccccc" stroke-width="1" /><line x1="10" y1="89" x2="406" y2="89" stroke="#cccccc" stroke-width="1" /><line x1="10" y1="44" x2="406" y2="44" stroke="#cccccc" stroke-width="1" /><line x1="10" y1="269" x2="10" y2="274" stroke="#000000" stroke-width="1" /><text x="10" y="286" font-size="12" text-anchor="middle">0</text><line x1="89.2" y1="269" x2="89.2" y2="274" stroke="#000000" stroke-width="1" /><text x="89.2" y="286" font-size="12" text-anchor="middle">2</text><line x1="168.4" y1="269" x2="168.4" y2="274" stroke="#000000" stroke-width="1" /><text x="168.4" y="286" font-size="12" text-anchor="middle">4</text><line x1="247.6" y1="269" x2="247.6" y2="274" stroke="#000000" stroke-width="1" /><text x="247.6" y="286" font-size="12" text-anchor="middle">6</text><line x1="326.8" y1="269" x2="326.8" y2="274" stroke="#000000" stroke-width="1" /><text x="326.8" y="286" font-size="12" text-anchor="middle">8</text><line x1="406" y1="269" x2="406" y2="274" stroke="#000000" stroke-width="1" /><text x="406" y="286" font-size="12" text-anchor="middle">10</text><text x="208" y="313" font-size="14" text-anchor="middle">X</text><text x="208" y="22" font-size="18" text-anchor="middle">Group B — rep 2</text><circle cx="10" cy="170" r="4.5" fill="#dc143c" /><circle cx="49.6" cy="155.79" r="4.5" fill="#dc143c" /><circle cx="89.2" cy="142.63" r="4.5" fill="#dc143c" /><circle cx="128.8" cy="131.32" r="4.5" fill="#dc143c" /><circle cx="168.4" cy="122.22" r="4.5" fill="#dc143c" /><circle cx="208" cy="115.11" r="4.5" fill="#dc143c" /><circle cx="247.6" cy="109.33" r="4.5" fill="#dc143c" /><circle cx="287.2" cy="103.86" r="4.5" fill="#dc143c" /><circle cx="326.8" cy="97.61" r="4.5" fill="#dc143c" /><circle cx="366.40000000000003" cy="89.7" r="4.5" fill="#dc143c" /></g></svg>