<svg xmlns="http://www.w3.org/2000/svg" width="993" height="360" font-family="DejaVu Sans, Liberation Sans, Arial, sans-serif" fill="black"><rect width="100%" height="100%" fill="white" /><g transform="translate(10,10)"><line x1="72.2" y1="289" x2="406" y2="289" stroke="#000000" stroke-width="1" /><line x1="72.2" y1="44" x2="72.2" y2="289" stroke="#000000" stroke-width="1" /><line x1="155.65" y1="44" x2="155.65" y2="289" stroke="#cccccc" stroke-width="1" /><line x1="239.1" y1="44" x2="239.1" y2="289" stroke="#cccccc" stroke-width="1" /><line x1="322.55" y1="44" x2="322.55" y2="289" stroke="#cccccc" stroke-width="1" /><line x1="406" y1="44" x2="406" y2="289" stroke="#cccccc" stroke-width="1" /><line x1="72.2" y1="237.96" x2="406" y2="237.96" stroke="#cccccc" stroke-width="1" /><line x1="72.2" y1="186.92000000000002" x2="406" y2="186.92000000000002" stroke="#cccccc" stroke-width="1" /><line x1="72.2" y1="135.88" x2="406" y2="135.88" stroke="#cccccc" stroke-width="1" /><line x1="72.2" y1="84.83" x2="406" y2="84.83" stroke="#cccccc" stroke-width="1" /><line x1="72.2" y1="289" x2="72.2" y2="294" stroke="#000000" stroke-width="1" /><text x="72.2" y="306" font-size="12" text-anchor="middle">0</text><line x1="155.65" y1="289" x2="155.65" y2="294" stroke="#000000" stroke-width="1" /><text x="155.65" y="306" font-size="12" text-anchor="middle">2</text><line x1="239.1" y1="289" x2="239.1" y2="294" stroke="#000000" stroke-width="1" /><text x="239.1" y="306" font-size="12" text-anchor="middle">4</text><line x1="322.55" y1="289" x2="322.55" y2="294" stroke="#000000" stroke-width="1" /><text x="322.55" y="306" font-size="12" text-anchor="middle">6</text><line x1="406" y1="289" x2="406" y2="294" stroke="#000000" stroke-width="1" /><text x="406" y="306" font-size="12" text-anchor="middle">8</text><line x1="67.2" y1="289" x2="72.2" y2="289" stroke="#000000" stroke-width="1" /><text x="64.2" y="293.2" font-size="12" text-anchor="end">0</text><line x1="67.2" y1="237.96" x2="72.2" y2="237.96" stroke="#000000" stroke-width="1" /><text x="64.2" y="242.16" font-size="12" text-anchor="end">2.5</text><line x1="67.2" y1="186.92000000000002" x2="72.2" y2="186.92000000000002" stroke="#000000" stroke-width="1" /><text x="64.2" y="191.12" font-size="12" text-anchor="end">5</text><line x1="67.2" y1="135.88" x2="72.2" y2="135.88" stroke="#000000" stroke-width="1" /><text x="64.2" y="140.07" font-size="12" text-anchor="end">7.5</text><line x1="67.2" y1="84.83" x2="72.2" y2="84.83" stroke="#000000" stroke-width="1" /><text x="64.2" y="89.03" font-size="12" text-anchor="end">10</text><text x="239.1" y="333" font-size="14" text-anchor="middle">Time</text><text x="7" y="170" font-size="14" text-anchor="middle" transform="rotate(-90,7,170)">Response</text><text x="239.1" y="22" font-size="18" text-anchor="middle">Experiment 1</text><circle cx="72.2" cy="268.58" r="4.5" fill="#4682b4" /><circle cx="113.92" cy="250.21" r="4.5" fill="#4682b4" /><circle cx="155.65" cy="231.83" r="4.5" fill="#4682b4" /><circle cx="197.38" cy="213.46" r="4.5" fill="#4682b4" /><circle cx="239.1" cy="195.08" r="4.5" fill="#4682b4" /><circle cx="280.83" cy="176.71" r="4.5" fill="#4682b4" /><circle cx="322.55" cy="158.33" r="4.5" fill="#4682b4" /><circle cx="364.28000000000003" cy="139.96" r="4.5" fill="#4682b4" /><circle cx="72.2" cy="278.79" r="4.5" fill="#dc143c" /><circle cx="113.92" cy="250.21" r="4.5" fill="#dc143c" /><circle cx="155.65" cy="221.63" r="4.5" fill="#dc143c" /><circle cx="197.38" cy="193.04" r="4.5" fill="#dc143c" /><circle cx="239.1" cy="164.46" r="4.5" fill="#dc143c" /><circle cx="280.83" cy="135.88" r="4.5" fill="#dc143c" /><circle cx="322.55" cy="107.29" r="4.5" fill="#dc143c" /><circle cx="364.28000000000003" cy="78.71000000000001" r="4.5" fill="#dc143c" /></g><g transform="translate(445,10)"><line x1="72.2" y1="289" x2="406" y2="289" stroke="#000000" stroke-width="1" /><line x1="72.2" y1="44" x2="72.2" y2="289" stroke="#000000" stroke-width="1" /><line x1="155.65" y1="44" x2="155.65" y2="289" stroke="#cccccc" stroke-width="1" /><line x1="239.1" y1="44" x2="239.1" y2="289" stroke="#cccccc" stroke-width="1" /><line x1="322.55" y1="44" x2="322.55" y2="289" stroke="#cccccc" stroke-width="1" /><line x1="406" y1="44" x2="406" y2="289" stroke="#cccccc" stroke-width="1" /><line x1="72.2" y1="237.96" x2="406" y2="237.96" stroke="#cccccc" stroke-width="1" /><line x1="72.2" y1="186.92000000000002" x2="406" y2="186.92000000000002" stroke="#cccccc" stroke-width="1" /><line x1="72.2" y1="135.88" x2="406" y2="135.88" stroke="#cccccc" stroke-width="1" /><line x1="72.2" y1="84.83" x2="406" y2="84.83" stroke="#cccccc" stroke-width="1" /><line x1="72.2" y1="289" x2="72.2" y2="294" stroke="#000000" stroke-width="1" /><text x="72.2" y="306" font-size="12" text-anchor="middle">0</text><line x1="155.65" y1="289" x2="155.65" y2="294" stroke="#000000" stroke-width="1" /><text x="155.65" y="306" font-size="12" text-anchor="middle">2</text><line x1="239.1" y1="289" x2="239.1" y2="294" stroke="#000000" stroke-width="1" /><text x="239.1" y="306" font-size="12" text-anchor="middle">4</text><line x1="322.55" y1="289" x2="322.55" y2="294" stroke="#000000" stroke-width="1" /><text x="322.55" y="306" font-size="12" text-anchor="middle">6</text><line x1="406" y1="289" x2="406" y2="294" stroke="#000000" stroke-width="1" /><text x="406" y="306" font-size="12" text-anchor="middle">8</text><line x1="67.2" y1="289" x2="72.2" y2="289" stroke="#000000" stroke-width="1" /><text x="64.2" y="293.2" font-size="12" text-anchor="end">0</text><line x1="67.2" y1="237.96" x2="72.2" y2="237.96" stroke="#000000" stroke-width="1" /><text x="64.2" y="242.16" font-size="12" text-anchor="end">2.5</text><line x1="67.2" y1="186.92000000000002" x2="72.2" y2="186.92000000000002" stroke="#000000" stroke-width="1" /><text x="64.2" y="191.12" font-size="12" text-anchor="end">5</text><line x1="67.2" y1="135.88" x2="72.2" y2="135.88" stroke="#000000" stroke-width="1" /><text x="64.2" y="140.07" font-size="12" text-anchor="end">7.5</text><line x1="67.2" y1="84.83" x2="72.2" y2="84.83" stroke="#000000" stroke-width="1" /><text x="64.2" y="89.03" font-size="12" text-anchor="end">10</text><text x="239.1" y="333" font-size="14" text-anchor="middle">Time</text><text x="239.1" y="22" font-size="18" text-anchor="middle">Experiment 2</text><circle cx="93.06" cy="259.4" r="4.5" fill="#4682b4" /><circle cx="134.79" cy="241.02" r="4.5" fill="#4682b4" /><circle cx="176.51" cy="222.65" r="4.5" fill="#4682b4" /><circle cx="218.24" cy="204.27" r="4.5" fill="#4682b4" /><circle cx="259.96" cy="185.9" r="4.5" fill="#4682b4" /><circle cx="301.69" cy="167.52" r="4.5" fill="#4682b4" /><circle cx="343.41" cy="149.15" r="4.5" fill="#4682b4" /><circle cx="385.14" cy="130.77" r="4.5" fill="#4682b4" /><circle cx="93.06" cy="264.5" r="4.5" fill="#dc143c" /><circle cx="134.79" cy="235.92000000000002" r="4.5" fill="#dc143c" /><circle cx="176.51" cy="207.33" r="4.5" fill="#dc143c" /><circle cx="218.24" cy="178.75" r="4.5" fill="#dc143c" /><circle cx="259.96" cy="150.17000000000002" r="4.5" fill="#dc143c" /><circle cx="301.69" cy="121.58" r="4.5" fill="#dc143c" /><circle cx="343.41" cy="93" r="4.5" fill="#dc143c" /><circle cx="385.14" cy="64.42" r="4.5" fill="#dc143c" /></g><rect x="880" y="152" width="98" height="56" fill="#ffffff" /><rect x="880" y="152" width="98" height="56" fill="none" stroke="#000000" stroke-width="1" /><text x="910" y="171.20000000000002" font-size="12" text-anchor="start">Control</text><circle cx="896" cy="167" r="5" fill="#4682b4" /><text x="910" y="189.20000000000002" font-size="12" text-anchor="start">Treatment</text><circle cx="896" cy="185" r="5" fill="#dc143c" /></svg>