<svg xmlns="http://www.w3.org/2000/svg" width="875" height="675" font-family="DejaVu Sans, Liberation Sans, Arial, sans-serif" fill="black"><rect width="100%" height="100%" fill="white" /><defs><clipPath id="kuva-clip-6"><rect x="59" y="44" width="343" height="560"/></clipPath><clipPath id="kuva-clip-7"><rect x="59" y="44" width="346.6" height="225"/></clipPath><clipPath id="kuva-clip-8"><rect x="59" y="44" width="346.6" height="225"/></clipPath></defs><g transform="translate(10,10)"><line x1="127.60000000000001" y1="44" x2="127.60000000000001" y2="604" stroke="#cccccc" stroke-width="1" /><line x1="196.20000000000002" y1="44" x2="196.20000000000002" y2="604" stroke="#cccccc" stroke-width="1" /><line x1="264.8" y1="44" x2="264.8" y2="604" stroke="#cccccc" stroke-width="1" /><line x1="333.40000000000003" y1="44" x2="333.40000000000003" y2="604" stroke="#cccccc" stroke-width="1" /><line x1="402" y1="44" x2="402" y2="604" stroke="#cccccc" stroke-width="1" /><line x1="59" y1="492" x2="402" y2="492" stroke="#cccccc" stroke-width="1" /><line x1="59" y1="380" x2="402" y2="380" stroke="#cccccc" stroke-width="1" /><line x1="59" y1="268" x2="402" y2="268" stroke="#cccccc" stroke-width="1" /><line x1="59" y1="156" x2="402" y2="156" stroke="#cccccc" stroke-width="1" /><line x1="59" y1="44" x2="402" y2="44" stroke="#cccccc" stroke-width="1" /><line x1="59" y1="604" x2="402" y2="604" stroke="#000000" stroke-width="1" /><line x1="59" y1="44" x2="59" y2="604" stroke="#000000" stroke-width="1" /><line x1="59" y1="604" x2="59" y2="609" stroke="#000000" stroke-width="1" /><text x="59" y="621" font-size="12" text-anchor="middle">0</text><line x1="127.60000000000001" y1="604" x2="127.60000000000001" y2="609" stroke="#000000" stroke-width="1" /><text x="127.60000000000001" y="621" font-size="12" text-anchor="middle">2</text><line x1="196.20000000000002" y1="604" x2="196.20000000000002" y2="609" stroke="#000000" stroke-width="1" /><text x="196.20000000000002" y="621" font-size="12" text-anchor="middle">4</text><line x1="264.8" y1="604" x2="264.8" y2="609" stroke="#000000" stroke-width="1" /><text x="264.8" y="621" font-size="12" text-anchor="middle">6</text><line x1="333.40000000000003" y1="604" x2="333.40000000000003" y2="609" stroke="#000000" stroke-width="1" /><text x="333.40000000000003" y="621" font-size="12" text-anchor="middle">8</text><line x1="402" y1="604" x2="402" y2="609" stroke="#000000" stroke-width="1" /><text x="402" y="621" font-size="12" text-anchor="middle">10</text><line x1="54" y1="604" x2="59" y2="604" stroke="#000000" stroke-width="1" /><text x="51" y="608.2" font-size="12" text-anchor="end">-2</text><line x1="54" y1="492" x2="59" y2="492" stroke="#000000" stroke-width="1" /><text x="51" y="496.2" font-size="12" text-anchor="end">0</text><line x1="54" y1="380" x2="59" y2="380" stroke="#000000" stroke-width="1" /><text x="51" y="384.2" font-size="12" text-anchor="end">2</text><line x1="54" y1="268" x2="59" y2="268" stroke="#000000" stroke-width="1" /><text x="51" y="272.2" font-size="12" text-anchor="end">4</text><line x1="54" y1="156" x2="59" y2="156" stroke="#000000" stroke-width="1" /><text x="51" y="160.20000000000002" font-size="12" text-anchor="end">6</text><line x1="54" y1="44" x2="59" y2="44" stroke="#000000" stroke-width="1" /><text x="51" y="48.2" font-size="12" text-anchor="end">8</text><text x="230.5" y="648" font-size="14" text-anchor="middle">Time</text><text x="15" y="327.5" font-size="14" text-anchor="middle" transform="rotate(-90,15,327.5)">Value</text><text x="230.5" y="22" font-size="18" text-anchor="middle">Full Series</text><g clip-path="url(#kuva-clip-6)"><path d="M 59.0 352.0 L 69.29 345.93 L 79.58 347.66 L 89.87 356.51 L 100.16 371.39 L 110.45 390.87 L 120.74000000000001 413.26 L 131.03 436.7 L 141.32 459.26 L 151.61 479.08 L 161.9 494.44 L 172.19 503.87 L 182.48 506.28000000000003 L 192.77 500.93 L 203.06 487.55 L 213.35 466.35 L 223.64000000000001 437.94 L 233.93 403.39 L 244.22 364.1 L 254.51000000000002 321.73 L 264.8 278.15000000000003 L 275.09000000000003 235.27 L 285.38 194.97 L 295.67 158.99 L 305.96 128.81 L 316.25 105.58 L 326.54 90.05 L 336.83 82.54 L 347.12 82.91 L 357.41 90.54 " stroke="#4682b4" stroke-width="2" fill="none" /></g></g><text x="18" y="28" font-size="16" text-anchor="start" font-weight="bold">A</text><g transform="translate(445,10)"><line x1="128.32" y1="44" x2="128.32" y2="269" stroke="#cccccc" stroke-width="1" /><line x1="197.64000000000001" y1="44" x2="197.64000000000001" y2="269" stroke="#cccccc" stroke-width="1" /><line x1="266.96" y1="44" x2="266.96" y2="269" stroke="#cccccc" stroke-width="1" /><line x1="336.28000000000003" y1="44" x2="336.28000000000003" y2="269" stroke="#cccccc" stroke-width="1" /><line x1="405.6" y1="44" x2="405.6" y2="269" stroke="#cccccc" stroke-width="1" /><line x1="59" y1="222.13" x2="405.6" y2="222.13" stroke="#cccccc" stroke-width="1" /><line x1="59" y1="175.25" x2="405.6" y2="175.25" stroke="#cccccc" stroke-width="1" /><line x1="59" y1="128.38" x2="405.6" y2="128.38" stroke="#cccccc" stroke-width="1" /><line x1="59" y1="81.5" x2="405.6" y2="81.5" stroke="#cccccc" stroke-width="1" /><line x1="59" y1="269" x2="405.6" y2="269" stroke="#000000" stroke-width="1" /><line x1="59" y1="44" x2="59" y2="269" stroke="#000000" stroke-width="1" /><line x1="59" y1="269" x2="59" y2="274" stroke="#000000" stroke-width="1" /><text x="59" y="286" font-size="12" text-anchor="middle">0</text><line x1="128.32" y1="269" x2="128.32" y2="274" stroke="#000000" stroke-width="1" /><text x="128.32" y="286" font-size="12" text-anchor="middle">2</text><line x1="197.64000000000001" y1="269" x2="197.64000000000001" y2="274" stroke="#000000" stroke-width="1" /><text x="197.64000000000001" y="286" font-size="12" text-anchor="middle">4</text><line x1="266.96" y1="269" x2="266.96" y2="274" stroke="#000000" stroke-width="1" /><text x="266.96" y="286" font-size="12" text-anchor="middle">6</text><line x1="336.28000000000003" y1="269" x2="336.28000000000003" y2="274" stroke="#000000" stroke-width="1" /><text x="336.28000000000003" y="286" font-size="12" text-anchor="middle">8</text><line x1="405.6" y1="269" x2="405.6" y2="274" stroke="#000000" stroke-width="1" /><text x="405.6" y="286" font-size="12" text-anchor="middle">10</text><line x1="54" y1="269" x2="59" y2="269" stroke="#000000" stroke-width="1" /><text x="51" y="273.2" font-size="12" text-anchor="end">0</text><line x1="54" y1="222.13" x2="59" y2="222.13" stroke="#000000" stroke-width="1" /><text x="51" y="226.33" font-size="12" text-anchor="end">2.5</text><line x1="54" y1="175.25" x2="59" y2="175.25" stroke="#000000" stroke-width="1" /><text x="51" y="179.45000000000002" font-size="12" text-anchor="end">5</text><line x1="54" y1="128.38" x2="59" y2="128.38" stroke="#000000" stroke-width="1" /><text x="51" y="132.57" font-size="12" text-anchor="end">7.5</text><line x1="54" y1="81.5" x2="59" y2="81.5" stroke="#000000" stroke-width="1" /><text x="51" y="85.7" font-size="12" text-anchor="end">10</text><text x="232.3" y="22" font-size="18" text-anchor="middle">Period 1</text><g clip-path="url(#kuva-clip-7)"><circle cx="93.66" cy="237.13" r="4.5" fill="#dc143c" /><circle cx="128.32" cy="214.63" r="4.5" fill="#dc143c" /><circle cx="162.98" cy="192.13" r="4.5" fill="#dc143c" /><circle cx="197.64000000000001" cy="169.63" r="4.5" fill="#dc143c" /><circle cx="232.3" cy="147.13" r="4.5" fill="#dc143c" /><circle cx="266.96" cy="124.63000000000001" r="4.5" fill="#dc143c" /><circle cx="301.62" cy="102.13" r="4.5" fill="#dc143c" /><circle cx="336.28000000000003" cy="79.63" r="4.5" fill="#dc143c" /></g></g><text x="453" y="28" font-size="16" text-anchor="start" font-weight="bold">B</text><g transform="translate(445,345)"><line x1="128.32" y1="44" x2="128.32" y2="269" stroke="#cccccc" stroke-width="1" /><line x1="197.64000000000001" y1="44" x2="197.64000000000001" y2="269" stroke="#cccccc" stroke-width="1" /><line x1="266.96" y1="44" x2="266.96" y2="269" stroke="#cccccc" stroke-width="1" /><line x1="336.28000000000003" y1="44" x2="336.28000000000003" y2="269" stroke="#cccccc" stroke-width="1" /><line x1="405.6" y1="44" x2="405.6" y2="269" stroke="#cccccc" stroke-width="1" /><line x1="59" y1="231.5" x2="405.6" y2="231.5" stroke="#cccccc" stroke-width="1" /><line x1="59" y1="194" x2="405.6" y2="194" stroke="#cccccc" stroke-width="1" /><line x1="59" y1="156.5" x2="405.6" y2="156.5" stroke="#cccccc" stroke-width="1" /><line x1="59" y1="119" x2="405.6" y2="119" stroke="#cccccc" stroke-width="1" /><line x1="59" y1="81.5" x2="405.6" y2="81.5" stroke="#cccccc" stroke-width="1" /><line x1="59" y1="44" x2="405.6" y2="44" stroke="#cccccc" stroke-width="1" /><line x1="59" y1="269" x2="405.6" y2="269" stroke="#000000" stroke-width="1" /><line x1="59" y1="44" x2="59" y2="269" stroke="#000000" stroke-width="1" /><line x1="59" y1="269" x2="59" y2="274" stroke="#000000" stroke-width="1" /><text x="59" y="286" font-size="12" text-anchor="middle">0</text><line x1="128.32" y1="269" x2="128.32" y2="274" stroke="#000000" stroke-width="1" /><text x="128.32" y="286" font-size="12" text-anchor="middle">2</text><line x1="197.64000000000001" y1="269" x2="197.64000000000001" y2="274" stroke="#000000" stroke-width="1" /><text x="197.64000000000001" y="286" font-size="12" text-anchor="middle">4</text><line x1="266.96" y1="269" x2="266.96" y2="274" stroke="#000000" stroke-width="1" /><text x="266.96" y="286" font-size="12" text-anchor="middle">6</text><line x1="336.28000000000003" y1="269" x2="336.28000000000003" y2="274" stroke="#000000" stroke-width="1" /><text x="336.28000000000003" y="286" font-size="12" text-anchor="middle">8</text><line x1="405.6" y1="269" x2="405.6" y2="274" stroke="#000000" stroke-width="1" /><text x="405.6" y="286" font-size="12" text-anchor="middle">10</text><line x1="54" y1="269" x2="59" y2="269" stroke="#000000" stroke-width="1" /><text x="51" y="273.2" font-size="12" text-anchor="end">0</text><line x1="54" y1="231.5" x2="59" y2="231.5" stroke="#000000" stroke-width="1" /><text x="51" y="235.70000000000002" font-size="12" text-anchor="end">1</text><line x1="54" y1="194" x2="59" y2="194" stroke="#000000" stroke-width="1" /><text x="51" y="198.20000000000002" font-size="12" text-anchor="end">2</text><line x1="54" y1="156.5" x2="59" y2="156.5" stroke="#000000" stroke-width="1" /><text x="51" y="160.70000000000002" font-size="12" text-anchor="end">3</text><line x1="54" y1="119" x2="59" y2="119" stroke="#000000" stroke-width="1" /><text x="51" y="123.2" font-size="12" text-anchor="end">4</text><line x1="54" y1="81.5" x2="59" y2="81.5" stroke="#000000" stroke-width="1" /><text x="51" y="85.7" font-size="12" text-anchor="end">5</text><line x1="54" y1="44" x2="59" y2="44" stroke="#000000" stroke-width="1" /><text x="51" y="48.2" font-size="12" text-anchor="end">6</text><text x="232.3" y="22" font-size="18" text-anchor="middle">Period 2</text><g clip-path="url(#kuva-clip-8)"><circle cx="93.66" cy="209" r="4.5" fill="seagreen" /><circle cx="128.32" cy="186.5" r="4.5" fill="seagreen" /><circle cx="162.98" cy="164" r="4.5" fill="seagreen" /><circle cx="197.64000000000001" cy="141.5" r="4.5" fill="seagreen" /><circle cx="232.3" cy="119" r="4.5" fill="seagreen" /><circle cx="266.96" cy="96.5" r="4.5" fill="seagreen" /><circle cx="301.62" cy="74" r="4.5" fill="seagreen" /><circle cx="336.28000000000003" cy="51.5" r="4.5" fill="seagreen" /></g></g><text x="453" y="363" font-size="16" text-anchor="start" font-weight="bold">C</text></svg>