<svg xmlns="http://www.w3.org/2000/svg" width="875" height="675" font-family="DejaVu Sans, Liberation Sans, Arial, sans-serif" fill="black"><rect width="100%" height="100%" fill="white" /><g transform="translate(10,10)"><line x1="72.2" y1="604" x2="406" y2="604" stroke="#000000" stroke-width="1" /><line x1="72.2" y1="44" x2="72.2" y2="604" stroke="#000000" stroke-width="1" /><line x1="138.96" y1="44" x2="138.96" y2="604" stroke="#cccccc" stroke-width="1" /><line x1="205.72" y1="44" x2="205.72" y2="604" stroke="#cccccc" stroke-width="1" /><line x1="272.48" y1="44" x2="272.48" y2="604" stroke="#cccccc" stroke-width="1" /><line x1="339.24" y1="44" x2="339.24" y2="604" stroke="#cccccc" stroke-width="1" /><line x1="406" y1="44" x2="406" y2="604" stroke="#cccccc" stroke-width="1" /><line x1="72.2" y1="492" x2="406" y2="492" stroke="#cccccc" stroke-width="1" /><line x1="72.2" y1="380" x2="406" y2="380" stroke="#cccccc" stroke-width="1" /><line x1="72.2" y1="268" x2="406" y2="268" stroke="#cccccc" stroke-width="1" /><line x1="72.2" y1="156" x2="406" y2="156" stroke="#cccccc" stroke-width="1" /><line x1="72.2" y1="44" x2="406" y2="44" stroke="#cccccc" stroke-width="1" /><line x1="72.2" y1="604" x2="72.2" y2="609" stroke="#000000" stroke-width="1" /><text x="72.2" y="621" font-size="12" text-anchor="middle">0</text><line x1="138.96" y1="604" x2="138.96" y2="609" stroke="#000000" stroke-width="1" /><text x="138.96" y="621" font-size="12" text-anchor="middle">2</text><line x1="205.72" y1="604" x2="205.72" y2="609" stroke="#000000" stroke-width="1" /><text x="205.72" y="621" font-size="12" text-anchor="middle">4</text><line x1="272.48" y1="604" x2="272.48" y2="609" stroke="#000000" stroke-width="1" /><text x="272.48" y="621" font-size="12" text-anchor="middle">6</text><line x1="339.24" y1="604" x2="339.24" y2="609" stroke="#000000" stroke-width="1" /><text x="339.24" y="621" font-size="12" text-anchor="middle">8</text><line x1="406" y1="604" x2="406" y2="609" stroke="#000000" stroke-width="1" /><text x="406" y="621" font-size="12" text-anchor="middle">10</text><line x1="67.2" y1="604" x2="72.2" y2="604" stroke="#000000" stroke-width="1" /><text x="64.2" y="608.2" font-size="12" text-anchor="end">-2</text><line x1="67.2" y1="492" x2="72.2" y2="492" stroke="#000000" stroke-width="1" /><text x="64.2" y="496.2" font-size="12" text-anchor="end">0</text><line x1="67.2" y1="380" x2="72.2" y2="380" stroke="#000000" stroke-width="1" /><text x="64.2" y="384.2" font-size="12" text-anchor="end">2</text><line x1="67.2" y1="268" x2="72.2" y2="268" stroke="#000000" stroke-width="1" /><text x="64.2" y="272.2" font-size="12" text-anchor="end">4</text><line x1="67.2" y1="156" x2="72.2" y2="156" stroke="#000000" stroke-width="1" /><text x="64.2" y="160.20000000000002" font-size="12" text-anchor="end">6</text><line x1="67.2" y1="44" x2="72.2" y2="44" stroke="#000000" stroke-width="1" /><text x="64.2" y="48.2" font-size="12" text-anchor="end">8</text><text x="239.1" y="648" font-size="14" text-anchor="middle">Time</text><text x="7" y="327.5" font-size="14" text-anchor="middle" transform="rotate(-90,7,327.5)">Value</text><text x="239.1" y="22" font-size="18" text-anchor="middle">Full Series</text><path d="M 72.2 352.0 L 82.21000000000001 345.93 L 92.23 347.66 L 102.24000000000001 356.51 L 112.26 371.39 L 122.27 390.87 L 132.28 413.26 L 142.3 436.7 L 152.31 459.26 L 162.33 479.08 L 172.34 494.44 L 182.35 503.87 L 192.37 506.28000000000003 L 202.38 500.93 L 212.4 487.55 L 222.41 466.35 L 232.42000000000002 437.94 L 242.44 403.39 L 252.45000000000002 364.1 L 262.47 321.73 L 272.48 278.15000000000003 L 282.49 235.27 L 292.51 194.97 L 302.52 158.99 L 312.54 128.81 L 322.55 105.58 L 332.56 90.05 L 342.58 82.54 L 352.59000000000003 82.91 L 362.61 90.54 " stroke="#4682b4" stroke-width="2" fill="none" /></g><text x="18" y="28" font-size="16" text-anchor="start" font-weight="bold">A</text><g transform="translate(445,10)"><line x1="72.2" y1="269" x2="406" y2="269" stroke="#000000" stroke-width="1" /><line x1="72.2" y1="44" x2="72.2" y2="269" stroke="#000000" stroke-width="1" /><line x1="138.96" y1="44" x2="138.96" y2="269" stroke="#cccccc" stroke-width="1" /><line x1="205.72" y1="44" x2="205.72" y2="269" stroke="#cccccc" stroke-width="1" /><line x1="272.48" y1="44" x2="272.48" y2="269" stroke="#cccccc" stroke-width="1" /><line x1="339.24" y1="44" x2="339.24" y2="269" stroke="#cccccc" stroke-width="1" /><line x1="406" y1="44" x2="406" y2="269" stroke="#cccccc" stroke-width="1" /><line x1="72.2" y1="222.13" x2="406" y2="222.13" stroke="#cccccc" stroke-width="1" /><line x1="72.2" y1="175.25" x2="406" y2="175.25" stroke="#cccccc" stroke-width="1" /><line x1="72.2" y1="128.38" x2="406" y2="128.38" stroke="#cccccc" stroke-width="1" /><line x1="72.2" y1="81.5" x2="406" y2="81.5" stroke="#cccccc" stroke-width="1" /><line x1="72.2" y1="269" x2="72.2" y2="274" stroke="#000000" stroke-width="1" /><text x="72.2" y="286" font-size="12" text-anchor="middle">0</text><line x1="138.96" y1="269" x2="138.96" y2="274" stroke="#000000" stroke-width="1" /><text x="138.96" y="286" font-size="12" text-anchor="middle">2</text><line x1="205.72" y1="269" x2="205.72" y2="274" stroke="#000000" stroke-width="1" /><text x="205.72" y="286" font-size="12" text-anchor="middle">4</text><line x1="272.48" y1="269" x2="272.48" y2="274" stroke="#000000" stroke-width="1" /><text x="272.48" y="286" font-size="12" text-anchor="middle">6</text><line x1="339.24" y1="269" x2="339.24" y2="274" stroke="#000000" stroke-width="1" /><text x="339.24" y="286" font-size="12" text-anchor="middle">8</text><line x1="406" y1="269" x2="406" y2="274" stroke="#000000" stroke-width="1" /><text x="406" y="286" font-size="12" text-anchor="middle">10</text><line x1="67.2" y1="269" x2="72.2" y2="269" stroke="#000000" stroke-width="1" /><text x="64.2" y="273.2" font-size="12" text-anchor="end">0</text><line x1="67.2" y1="222.13" x2="72.2" y2="222.13" stroke="#000000" stroke-width="1" /><text x="64.2" y="226.33" font-size="12" text-anchor="end">2.5</text><line x1="67.2" y1="175.25" x2="72.2" y2="175.25" stroke="#000000" stroke-width="1" /><text x="64.2" y="179.45000000000002" font-size="12" text-anchor="end">5</text><line x1="67.2" y1="128.38" x2="72.2" y2="128.38" stroke="#000000" stroke-width="1" /><text x="64.2" y="132.57" font-size="12" text-anchor="end">7.5</text><line x1="67.2" y1="81.5" x2="72.2" y2="81.5" stroke="#000000" stroke-width="1" /><text x="64.2" y="85.7" font-size="12" text-anchor="end">10</text><text x="239.1" y="22" font-size="18" text-anchor="middle">Period 1</text><circle cx="105.58" cy="237.13" r="4.5" fill="#dc143c" /><circle cx="138.96" cy="214.63" r="4.5" fill="#dc143c" /><circle cx="172.34" cy="192.13" r="4.5" fill="#dc143c" /><circle cx="205.72" cy="169.63" r="4.5" fill="#dc143c" /><circle cx="239.1" cy="147.13" r="4.5" fill="#dc143c" /><circle cx="272.48" cy="124.63000000000001" r="4.5" fill="#dc143c" /><circle cx="305.86" cy="102.13" r="4.5" fill="#dc143c" /><circle cx="339.24" cy="79.63" r="4.5" fill="#dc143c" /></g><text x="453" y="28" font-size="16" text-anchor="start" font-weight="bold">B</text><g transform="translate(445,345)"><line x1="72.2" y1="269" x2="406" y2="269" stroke="#000000" stroke-width="1" /><line x1="72.2" y1="44" x2="72.2" y2="269" stroke="#000000" stroke-width="1" /><line x1="138.96" y1="44" x2="138.96" y2="269" stroke="#cccccc" stroke-width="1" /><line x1="205.72" y1="44" x2="205.72" y2="269" stroke="#cccccc" stroke-width="1" /><line x1="272.48" y1="44" x2="272.48" y2="269" stroke="#cccccc" stroke-width="1" /><line x1="339.24" y1="44" x2="339.24" y2="269" stroke="#cccccc" stroke-width="1" /><line x1="406" y1="44" x2="406" y2="269" stroke="#cccccc" stroke-width="1" /><line x1="72.2" y1="231.5" x2="406" y2="231.5" stroke="#cccccc" stroke-width="1" /><line x1="72.2" y1="194" x2="406" y2="194" stroke="#cccccc" stroke-width="1" /><line x1="72.2" y1="156.5" x2="406" y2="156.5" stroke="#cccccc" stroke-width="1" /><line x1="72.2" y1="119" x2="406" y2="119" stroke="#cccccc" stroke-width="1" /><line x1="72.2" y1="81.5" x2="406" y2="81.5" stroke="#cccccc" stroke-width="1" /><line x1="72.2" y1="44" x2="406" y2="44" stroke="#cccccc" stroke-width="1" /><line x1="72.2" y1="269" x2="72.2" y2="274" stroke="#000000" stroke-width="1" /><text x="72.2" y="286" font-size="12" text-anchor="middle">0</text><line x1="138.96" y1="269" x2="138.96" y2="274" stroke="#000000" stroke-width="1" /><text x="138.96" y="286" font-size="12" text-anchor="middle">2</text><line x1="205.72" y1="269" x2="205.72" y2="274" stroke="#000000" stroke-width="1" /><text x="205.72" y="286" font-size="12" text-anchor="middle">4</text><line x1="272.48" y1="269" x2="272.48" y2="274" stroke="#000000" stroke-width="1" /><text x="272.48" y="286" font-size="12" text-anchor="middle">6</text><line x1="339.24" y1="269" x2="339.24" y2="274" stroke="#000000" stroke-width="1" /><text x="339.24" y="286" font-size="12" text-anchor="middle">8</text><line x1="406" y1="269" x2="406" y2="274" stroke="#000000" stroke-width="1" /><text x="406" y="286" font-size="12" text-anchor="middle">10</text><line x1="67.2" y1="269" x2="72.2" y2="269" stroke="#000000" stroke-width="1" /><text x="64.2" y="273.2" font-size="12" text-anchor="end">0</text><line x1="67.2" y1="231.5" x2="72.2" y2="231.5" stroke="#000000" stroke-width="1" /><text x="64.2" y="235.70000000000002" font-size="12" text-anchor="end">1</text><line x1="67.2" y1="194" x2="72.2" y2="194" stroke="#000000" stroke-width="1" /><text x="64.2" y="198.20000000000002" font-size="12" text-anchor="end">2</text><line x1="67.2" y1="156.5" x2="72.2" y2="156.5" stroke="#000000" stroke-width="1" /><text x="64.2" y="160.70000000000002" font-size="12" text-anchor="end">3</text><line x1="67.2" y1="119" x2="72.2" y2="119" stroke="#000000" stroke-width="1" /><text x="64.2" y="123.2" font-size="12" text-anchor="end">4</text><line x1="67.2" y1="81.5" x2="72.2" y2="81.5" stroke="#000000" stroke-width="1" /><text x="64.2" y="85.7" font-size="12" text-anchor="end">5</text><line x1="67.2" y1="44" x2="72.2" y2="44" stroke="#000000" stroke-width="1" /><text x="64.2" y="48.2" font-size="12" text-anchor="end">6</text><text x="239.1" y="22" font-size="18" text-anchor="middle">Period 2</text><circle cx="105.58" cy="209" r="4.5" fill="seagreen" /><circle cx="138.96" cy="186.5" r="4.5" fill="seagreen" /><circle cx="172.34" cy="164" r="4.5" fill="seagreen" /><circle cx="205.72" cy="141.5" r="4.5" fill="seagreen" /><circle cx="239.1" cy="119" r="4.5" fill="seagreen" /><circle cx="272.48" cy="96.5" r="4.5" fill="seagreen" /><circle cx="305.86" cy="74" r="4.5" fill="seagreen" /><circle cx="339.24" cy="51.5" r="4.5" fill="seagreen" /></g><text x="453" y="363" font-size="16" text-anchor="start" font-weight="bold">C</text></svg>