<svg xmlns="http://www.w3.org/2000/svg" width="677.8000000000001" height="545" font-family="DejaVu Sans, Liberation Sans, Arial, sans-serif" fill="black"><rect width="100%" height="100%" fill="white" /><defs><clipPath id="kuva-clip-2"><rect x="63.800000000000004" y="44" width="600" height="450"/></clipPath></defs><line x1="63.800000000000004" y1="365.43" x2="663.8000000000001" y2="365.43" stroke="#cccccc" stroke-width="1" /><line x1="63.800000000000004" y1="236.86" x2="663.8000000000001" y2="236.86" stroke="#cccccc" stroke-width="1" /><line x1="63.800000000000004" y1="108.29" x2="663.8000000000001" y2="108.29" stroke="#cccccc" stroke-width="1" /><line x1="63.800000000000004" y1="494" x2="663.8000000000001" y2="494" stroke="#000000" stroke-width="1" /><line x1="63.800000000000004" y1="44" x2="63.800000000000004" y2="494" stroke="#000000" stroke-width="1" /><text x="113.8" y="511" font-size="12" text-anchor="middle">Q1 sales</text><line x1="113.8" y1="494" x2="113.8" y2="499" stroke="#000000" stroke-width="1" /><text x="163.8" y="511" font-size="12" text-anchor="middle">Q2 sales</text><line x1="163.8" y1="494" x2="163.8" y2="499" stroke="#000000" stroke-width="1" /><text x="213.8" y="511" font-size="12" text-anchor="middle">Returns</text><line x1="213.8" y1="494" x2="213.8" y2="499" stroke="#000000" stroke-width="1" /><text x="263.8" y="511" font-size="12" text-anchor="middle">Discounts</text><line x1="263.8" y1="494" x2="263.8" y2="499" stroke="#000000" stroke-width="1" /><text x="313.8" y="511" font-size="12" text-anchor="middle">H1 net</text><line x1="313.8" y1="494" x2="313.8" y2="499" stroke="#000000" stroke-width="1" /><text x="363.8" y="511" font-size="12" text-anchor="middle">Q3 sales</text><line x1="363.8" y1="494" x2="363.8" y2="499" stroke="#000000" stroke-width="1" /><text x="413.8" y="511" font-size="12" text-anchor="middle">Q4 sales</text><line x1="413.8" y1="494" x2="413.8" y2="499" stroke="#000000" stroke-width="1" /><text x="463.8" y="511" font-size="12" text-anchor="middle">Returns</text><line x1="463.8" y1="494" x2="463.8" y2="499" stroke="#000000" stroke-width="1" /><text x="513.8" y="511" font-size="12" text-anchor="middle">Discounts</text><line x1="513.8" y1="494" x2="513.8" y2="499" stroke="#000000" stroke-width="1" /><text x="563.8000000000001" y="511" font-size="12" text-anchor="middle">H2 net</text><line x1="563.8000000000001" y1="494" x2="563.8000000000001" y2="499" stroke="#000000" stroke-width="1" /><line x1="58.800000000000004" y1="494" x2="63.800000000000004" y2="494" stroke="#000000" stroke-width="1" /><text x="55.800000000000004" y="498.2" font-size="12" text-anchor="end">0</text><line x1="58.800000000000004" y1="365.43" x2="63.800000000000004" y2="365.43" stroke="#000000" stroke-width="1" /><text x="55.800000000000004" y="369.63" font-size="12" text-anchor="end">500</text><line x1="58.800000000000004" y1="236.86" x2="63.800000000000004" y2="236.86" stroke="#000000" stroke-width="1" /><text x="55.800000000000004" y="241.06" font-size="12" text-anchor="end">1000</text><line x1="58.800000000000004" y1="108.29" x2="63.800000000000004" y2="108.29" stroke="#000000" stroke-width="1" /><text x="55.800000000000004" y="112.49000000000001" font-size="12" text-anchor="end">1500</text><text x="15" y="272.5" font-size="14" text-anchor="middle" transform="rotate(-90,15,272.5)">USD (thousands)</text><text x="338.90000000000003" y="27.400000000000002" font-size="18" text-anchor="middle">Sales – Connectors + Values</text><g clip-path="url(#kuva-clip-2)"><rect x="98.8" y="386" width="30" height="108" fill="#44aa44" /><text x="113.8" y="381" font-size="12" text-anchor="middle">+420.00</text><line x1="128.8" y1="386" x2="148.8" y2="386" stroke="#808080" stroke-width="1" stroke-dasharray="4,3" /><rect x="148.8" y="288.29" width="30" height="97.71000000000001" fill="#44aa44" /><text x="163.8" y="283.29" font-size="12" text-anchor="middle">+380.00</text><line x1="178.8" y1="288.29" x2="198.8" y2="288.29" stroke="#808080" stroke-width="1" stroke-dasharray="4,3" /><rect x="198.8" y="288.29" width="30" height="24.43" fill="#cc4444" /><text x="213.8" y="327.71" font-size="12" text-anchor="middle">-95.00</text><line x1="228.8" y1="312.71" x2="248.8" y2="312.71" stroke="#808080" stroke-width="1" stroke-dasharray="4,3" /><rect x="248.8" y="312.71" width="30" height="15.43" fill="#cc4444" /><text x="263.8" y="343.14" font-size="12" text-anchor="middle">-60.00</text><line x1="278.8" y1="328.14" x2="298.8" y2="328.14" stroke="#808080" stroke-width="1" stroke-dasharray="4,3" /><rect x="298.8" y="328.14" width="30" height="165.86" fill="#4682b4" /><text x="313.8" y="323.14" font-size="12" text-anchor="middle">645.00</text><line x1="328.8" y1="328.14" x2="348.8" y2="328.14" stroke="#808080" stroke-width="1" stroke-dasharray="4,3" /><rect x="348.8" y="222.71" width="30" height="105.43" fill="#44aa44" /><text x="363.8" y="217.71" font-size="12" text-anchor="middle">+410.00</text><line x1="378.8" y1="222.71" x2="398.8" y2="222.71" stroke="#808080" stroke-width="1" stroke-dasharray="4,3" /><rect x="398.8" y="105.71000000000001" width="30" height="117" fill="#44aa44" /><text x="413.8" y="100.71000000000001" font-size="12" text-anchor="middle">+455.00</text><line x1="428.8" y1="105.71000000000001" x2="448.8" y2="105.71000000000001" stroke="#808080" stroke-width="1" stroke-dasharray="4,3" /><rect x="448.8" y="105.71000000000001" width="30" height="27" fill="#cc4444" /><text x="463.8" y="147.71" font-size="12" text-anchor="middle">-105.00</text><line x1="478.8" y1="132.71" x2="498.8" y2="132.71" stroke="#808080" stroke-width="1" stroke-dasharray="4,3" /><rect x="498.8" y="132.71" width="30" height="18" fill="#cc4444" /><text x="513.8" y="165.71" font-size="12" text-anchor="middle">-70.00</text><line x1="528.8" y1="150.71" x2="548.8000000000001" y2="150.71" stroke="#808080" stroke-width="1" stroke-dasharray="4,3" /><rect x="548.8000000000001" y="150.71" width="30" height="343.29" fill="#4682b4" /><text x="563.8000000000001" y="145.71" font-size="12" text-anchor="middle">1335.00</text></g></svg>