<svg xmlns="http://www.w3.org/2000/svg" width="686.2" height="545" font-family="DejaVu Sans, Liberation Sans, Arial, sans-serif" fill="black"><rect width="100%" height="100%" fill="white" /><line x1="72.2" y1="494" x2="672.2" y2="494" stroke="#000000" stroke-width="1" /><line x1="72.2" y1="44" x2="72.2" y2="494" stroke="#000000" stroke-width="1" /><line x1="72.2" y1="365.43" x2="672.2" y2="365.43" stroke="#cccccc" stroke-width="1" /><line x1="72.2" y1="236.86" x2="672.2" y2="236.86" stroke="#cccccc" stroke-width="1" /><line x1="72.2" y1="108.29" x2="672.2" y2="108.29" stroke="#cccccc" stroke-width="1" /><text x="122.2" y="511" font-size="12" text-anchor="middle">Q1 sales</text><line x1="122.2" y1="494" x2="122.2" y2="499" stroke="#000000" stroke-width="1" /><text x="172.20000000000002" y="511" font-size="12" text-anchor="middle">Q2 sales</text><line x1="172.20000000000002" y1="494" x2="172.20000000000002" y2="499" stroke="#000000" stroke-width="1" /><text x="222.20000000000002" y="511" font-size="12" text-anchor="middle">Returns</text><line x1="222.20000000000002" y1="494" x2="222.20000000000002" y2="499" stroke="#000000" stroke-width="1" /><text x="272.2" y="511" font-size="12" text-anchor="middle">Discounts</text><line x1="272.2" y1="494" x2="272.2" y2="499" stroke="#000000" stroke-width="1" /><text x="322.2" y="511" font-size="12" text-anchor="middle">H1 net</text><line x1="322.2" y1="494" x2="322.2" y2="499" stroke="#000000" stroke-width="1" /><text x="372.2" y="511" font-size="12" text-anchor="middle">Q3 sales</text><line x1="372.2" y1="494" x2="372.2" y2="499" stroke="#000000" stroke-width="1" /><text x="422.2" y="511" font-size="12" text-anchor="middle">Q4 sales</text><line x1="422.2" y1="494" x2="422.2" y2="499" stroke="#000000" stroke-width="1" /><text x="472.2" y="511" font-size="12" text-anchor="middle">Returns</text><line x1="472.2" y1="494" x2="472.2" y2="499" stroke="#000000" stroke-width="1" /><text x="522.2" y="511" font-size="12" text-anchor="middle">Discounts</text><line x1="522.2" y1="494" x2="522.2" y2="499" stroke="#000000" stroke-width="1" /><text x="572.2" y="511" font-size="12" text-anchor="middle">H2 net</text><line x1="572.2" y1="494" x2="572.2" y2="499" stroke="#000000" stroke-width="1" /><line x1="67.2" y1="494" x2="72.2" y2="494" stroke="#000000" stroke-width="1" /><text x="64.2" y="498.2" font-size="12" text-anchor="end">0</text><line x1="67.2" y1="365.43" x2="72.2" y2="365.43" stroke="#000000" stroke-width="1" /><text x="64.2" y="369.63" font-size="12" text-anchor="end">500</text><line x1="67.2" y1="236.86" x2="72.2" y2="236.86" stroke="#000000" stroke-width="1" /><text x="64.2" y="241.06" font-size="12" text-anchor="end">1000</text><line x1="67.2" y1="108.29" x2="72.2" y2="108.29" stroke="#000000" stroke-width="1" /><text x="64.2" y="112.49000000000001" font-size="12" text-anchor="end">1500</text><text x="7" y="272.5" font-size="14" text-anchor="middle" transform="rotate(-90,7,272.5)">USD (thousands)</text><text x="372.2" y="22" font-size="18" text-anchor="middle">Sales – Connectors + Values</text><rect x="107.2" y="386" width="30" height="108" fill="#44aa44" /><text x="122.2" y="381" font-size="12" text-anchor="middle">+420.00</text><line x1="137.20000000000002" y1="386" x2="157.20000000000002" y2="386" stroke="#808080" stroke-width="1" stroke-dasharray="4,3" /><rect x="157.20000000000002" y="288.29" width="30" height="97.71000000000001" fill="#44aa44" /><text x="172.20000000000002" y="283.29" font-size="12" text-anchor="middle">+380.00</text><line x1="187.20000000000002" y1="288.29" x2="207.20000000000002" y2="288.29" stroke="#808080" stroke-width="1" stroke-dasharray="4,3" /><rect x="207.20000000000002" y="288.29" width="30" height="24.43" fill="#cc4444" /><text x="222.20000000000002" y="327.71" font-size="12" text-anchor="middle">-95.00</text><line x1="237.20000000000002" y1="312.71" x2="257.2" y2="312.71" stroke="#808080" stroke-width="1" stroke-dasharray="4,3" /><rect x="257.2" y="312.71" width="30" height="15.43" fill="#cc4444" /><text x="272.2" y="343.14" font-size="12" text-anchor="middle">-60.00</text><line x1="287.2" y1="328.14" x2="307.2" y2="328.14" stroke="#808080" stroke-width="1" stroke-dasharray="4,3" /><rect x="307.2" y="328.14" width="30" height="165.86" fill="#4682b4" /><text x="322.2" y="323.14" font-size="12" text-anchor="middle">645.00</text><line x1="337.2" y1="328.14" x2="357.2" y2="328.14" stroke="#808080" stroke-width="1" stroke-dasharray="4,3" /><rect x="357.2" y="222.71" width="30" height="105.43" fill="#44aa44" /><text x="372.2" y="217.71" font-size="12" text-anchor="middle">+410.00</text><line x1="387.2" y1="222.71" x2="407.2" y2="222.71" stroke="#808080" stroke-width="1" stroke-dasharray="4,3" /><rect x="407.2" y="105.71000000000001" width="30" height="117" fill="#44aa44" /><text x="422.2" y="100.71000000000001" font-size="12" text-anchor="middle">+455.00</text><line x1="437.2" y1="105.71000000000001" x2="457.2" y2="105.71000000000001" stroke="#808080" stroke-width="1" stroke-dasharray="4,3" /><rect x="457.2" y="105.71000000000001" width="30" height="27" fill="#cc4444" /><text x="472.2" y="147.71" font-size="12" text-anchor="middle">-105.00</text><line x1="487.2" y1="132.71" x2="507.2" y2="132.71" stroke="#808080" stroke-width="1" stroke-dasharray="4,3" /><rect x="507.2" y="132.71" width="30" height="18" fill="#cc4444" /><text x="522.2" y="165.71" font-size="12" text-anchor="middle">-70.00</text><line x1="537.2" y1="150.71" x2="557.2" y2="150.71" stroke="#808080" stroke-width="1" stroke-dasharray="4,3" /><rect x="557.2" y="150.71" width="30" height="343.29" fill="#4682b4" /><text x="572.2" y="145.71" font-size="12" text-anchor="middle">1335.00</text></svg>