<svg xmlns="http://www.w3.org/2000/svg" width="686.2" height="545" font-family="DejaVu Sans, Liberation Sans, Arial, sans-serif" fill="black"><rect width="100%" height="100%" fill="white" /><line x1="72.2" y1="494" x2="672.2" y2="494" stroke="#000000" stroke-width="1" /><line x1="72.2" y1="44" x2="72.2" y2="494" stroke="#000000" stroke-width="1" /><line x1="72.2" y1="404" x2="672.2" y2="404" stroke="#cccccc" stroke-width="1" /><line x1="72.2" y1="314" x2="672.2" y2="314" stroke="#cccccc" stroke-width="1" /><line x1="72.2" y1="224" x2="672.2" y2="224" stroke="#cccccc" stroke-width="1" /><line x1="72.2" y1="134" x2="672.2" y2="134" stroke="#cccccc" stroke-width="1" /><line x1="72.2" y1="44" x2="672.2" y2="44" stroke="#cccccc" stroke-width="1" /><text x="147.20000000000002" y="511" font-size="12" text-anchor="middle">Revenue</text><line x1="147.20000000000002" y1="494" x2="147.20000000000002" y2="499" stroke="#000000" stroke-width="1" /><text x="222.20000000000002" y="511" font-size="12" text-anchor="middle">Costs</text><line x1="222.20000000000002" y1="494" x2="222.20000000000002" y2="499" stroke="#000000" stroke-width="1" /><text x="297.2" y="511" font-size="12" text-anchor="middle">Period A</text><line x1="297.2" y1="494" x2="297.2" y2="499" stroke="#000000" stroke-width="1" /><text x="372.2" y="511" font-size="12" text-anchor="middle">Revenue</text><line x1="372.2" y1="494" x2="372.2" y2="499" stroke="#000000" stroke-width="1" /><text x="447.2" y="511" font-size="12" text-anchor="middle">Costs</text><line x1="447.2" y1="494" x2="447.2" y2="499" stroke="#000000" stroke-width="1" /><text x="522.2" y="511" font-size="12" text-anchor="middle">Period B</text><line x1="522.2" y1="494" x2="522.2" y2="499" stroke="#000000" stroke-width="1" /><text x="597.2" y="511" font-size="12" text-anchor="middle">Period A→B</text><line x1="597.2" y1="494" x2="597.2" y2="499" stroke="#000000" stroke-width="1" /><line x1="67.2" y1="494" x2="72.2" y2="494" stroke="#000000" stroke-width="1" /><text x="64.2" y="498.2" font-size="12" text-anchor="end">0</text><line x1="67.2" y1="404" x2="72.2" y2="404" stroke="#000000" stroke-width="1" /><text x="64.2" y="408.2" font-size="12" text-anchor="end">200</text><line x1="67.2" y1="314" x2="72.2" y2="314" stroke="#000000" stroke-width="1" /><text x="64.2" y="318.2" font-size="12" text-anchor="end">400</text><line x1="67.2" y1="224" x2="72.2" y2="224" stroke="#000000" stroke-width="1" /><text x="64.2" y="228.20000000000002" font-size="12" text-anchor="end">600</text><line x1="67.2" y1="134" x2="72.2" y2="134" stroke="#000000" stroke-width="1" /><text x="64.2" y="138.20000000000002" font-size="12" text-anchor="end">800</text><line x1="67.2" y1="44" x2="72.2" y2="44" stroke="#000000" stroke-width="1" /><text x="64.2" y="48.2" font-size="12" text-anchor="end">1000</text><text x="7" y="272.5" font-size="14" text-anchor="middle" transform="rotate(-90,7,272.5)">USD (thousands)</text><text x="372.2" y="22" font-size="18" text-anchor="middle">Period-over-Period Change</text><rect x="124.7" y="269" width="45" height="225" fill="#44aa44" /><text x="147.20000000000002" y="264" font-size="12" text-anchor="middle">+500.00</text><rect x="199.70000000000002" y="269" width="45" height="81" fill="#cc4444" /><text x="222.20000000000002" y="365" font-size="12" text-anchor="middle">-180.00</text><rect x="274.7" y="350" width="45" height="144" fill="#4682b4" /><text x="297.2" y="345" font-size="12" text-anchor="middle">320.00</text><rect x="349.7" y="80" width="45" height="270" fill="#44aa44" /><text x="372.2" y="75" font-size="12" text-anchor="middle">+600.00</text><rect x="424.7" y="80" width="45" height="85.5" fill="#cc4444" /><text x="447.2" y="180.5" font-size="12" text-anchor="middle">-190.00</text><rect x="499.7" y="165.5" width="45" height="328.5" fill="#4682b4" /><text x="522.2" y="160.5" font-size="12" text-anchor="middle">730.00</text><rect x="574.7" y="165.5" width="45" height="184.5" fill="#44aa44" /><text x="597.2" y="160.5" font-size="12" text-anchor="middle">+410.00</text></svg>