<svg xmlns="http://www.w3.org/2000/svg" width="673" height="545" font-family="DejaVu Sans, Liberation Sans, Arial, sans-serif" fill="black"><rect width="100%" height="100%" fill="white" /><defs><clipPath id="kuva-clip-3"><rect x="59" y="44" width="600" height="450"/></clipPath></defs><line x1="59" y1="404" x2="659" y2="404" stroke="#cccccc" stroke-width="1" /><line x1="59" y1="314" x2="659" y2="314" stroke="#cccccc" stroke-width="1" /><line x1="59" y1="224" x2="659" y2="224" stroke="#cccccc" stroke-width="1" /><line x1="59" y1="134" x2="659" y2="134" stroke="#cccccc" stroke-width="1" /><line x1="59" y1="44" x2="659" y2="44" stroke="#cccccc" stroke-width="1" /><line x1="59" y1="494" x2="659" y2="494" stroke="#000000" stroke-width="1" /><line x1="59" y1="44" x2="59" y2="494" stroke="#000000" stroke-width="1" /><text x="134" y="511" font-size="12" text-anchor="middle">Revenue</text><line x1="134" y1="494" x2="134" y2="499" stroke="#000000" stroke-width="1" /><text x="209" y="511" font-size="12" text-anchor="middle">Costs</text><line x1="209" y1="494" x2="209" y2="499" stroke="#000000" stroke-width="1" /><text x="284" y="511" font-size="12" text-anchor="middle">Period A</text><line x1="284" y1="494" x2="284" y2="499" stroke="#000000" stroke-width="1" /><text x="359" y="511" font-size="12" text-anchor="middle">Revenue</text><line x1="359" y1="494" x2="359" y2="499" stroke="#000000" stroke-width="1" /><text x="434" y="511" font-size="12" text-anchor="middle">Costs</text><line x1="434" y1="494" x2="434" y2="499" stroke="#000000" stroke-width="1" /><text x="509" y="511" font-size="12" text-anchor="middle">Period B</text><line x1="509" y1="494" x2="509" y2="499" stroke="#000000" stroke-width="1" /><text x="584" y="511" font-size="12" text-anchor="middle">Period A→B</text><line x1="584" y1="494" x2="584" y2="499" stroke="#000000" stroke-width="1" /><line x1="54" y1="494" x2="59" y2="494" stroke="#000000" stroke-width="1" /><text x="51" y="498.2" font-size="12" text-anchor="end">0</text><line x1="54" y1="404" x2="59" y2="404" stroke="#000000" stroke-width="1" /><text x="51" y="408.2" font-size="12" text-anchor="end">200</text><line x1="54" y1="314" x2="59" y2="314" stroke="#000000" stroke-width="1" /><text x="51" y="318.2" font-size="12" text-anchor="end">400</text><line x1="54" y1="224" x2="59" y2="224" stroke="#000000" stroke-width="1" /><text x="51" y="228.20000000000002" font-size="12" text-anchor="end">600</text><line x1="54" y1="134" x2="59" y2="134" stroke="#000000" stroke-width="1" /><text x="51" y="138.20000000000002" font-size="12" text-anchor="end">800</text><line x1="54" y1="44" x2="59" y2="44" stroke="#000000" stroke-width="1" /><text x="51" y="48.2" font-size="12" text-anchor="end">1000</text><text x="15" y="272.5" font-size="14" text-anchor="middle" transform="rotate(-90,15,272.5)">USD (thousands)</text><text x="359" y="22" font-size="18" text-anchor="middle">Period-over-Period Change</text><g clip-path="url(#kuva-clip-3)"><rect x="111.5" y="269" width="45" height="225" fill="#44aa44" /><text x="134" y="264" font-size="12" text-anchor="middle">+500.00</text><rect x="186.5" y="269" width="45" height="81" fill="#cc4444" /><text x="209" y="365" font-size="12" text-anchor="middle">-180.00</text><rect x="261.5" y="350" width="45" height="144" fill="#4682b4" /><text x="284" y="345" font-size="12" text-anchor="middle">320.00</text><rect x="336.5" y="80" width="45" height="270" fill="#44aa44" /><text x="359" y="75" font-size="12" text-anchor="middle">+600.00</text><rect x="411.5" y="80" width="45" height="85.5" fill="#cc4444" /><text x="434" y="180.5" font-size="12" text-anchor="middle">-190.00</text><rect x="486.5" y="165.5" width="45" height="328.5" fill="#4682b4" /><text x="509" y="160.5" font-size="12" text-anchor="middle">730.00</text><rect x="561.5" y="165.5" width="45" height="184.5" fill="#44aa44" /><text x="584" y="160.5" font-size="12" text-anchor="middle">+410.00</text></g></svg>