<svg xmlns="http://www.w3.org/2000/svg" width="673" height="587.19" font-family="DejaVu Sans, Liberation Sans, Arial, sans-serif" fill="black"><rect width="100%" height="100%" fill="white" /><defs><clipPath id="kuva-clip-1"><rect x="59" y="44" width="600" height="450"/></clipPath></defs><line x1="59" y1="404" x2="659" y2="404" stroke="#cccccc" stroke-width="1" /><line x1="59" y1="314" x2="659" y2="314" stroke="#cccccc" stroke-width="1" /><line x1="59" y1="224" x2="659" y2="224" stroke="#cccccc" stroke-width="1" /><line x1="59" y1="134" x2="659" y2="134" stroke="#cccccc" stroke-width="1" /><line x1="59" y1="44" x2="659" y2="44" stroke="#cccccc" stroke-width="1" /><line x1="59" y1="494" x2="659" y2="494" stroke="#000000" stroke-width="1" /><line x1="59" y1="44" x2="59" y2="494" stroke="#000000" stroke-width="1" /><text x="109" y="511" font-size="12" text-anchor="end" transform="rotate(-45,109,511)">Revenue</text><line x1="109" y1="494" x2="109" y2="499" stroke="#000000" stroke-width="1" /><text x="159" y="511" font-size="12" text-anchor="end" transform="rotate(-45,159,511)">Cost of goods</text><line x1="159" y1="494" x2="159" y2="499" stroke="#000000" stroke-width="1" /><text x="209" y="511" font-size="12" text-anchor="end" transform="rotate(-45,209,511)">Gross profit</text><line x1="209" y1="494" x2="209" y2="499" stroke="#000000" stroke-width="1" /><text x="259" y="511" font-size="12" text-anchor="end" transform="rotate(-45,259,511)">Personnel</text><line x1="259" y1="494" x2="259" y2="499" stroke="#000000" stroke-width="1" /><text x="309" y="511" font-size="12" text-anchor="end" transform="rotate(-45,309,511)">Operations</text><line x1="309" y1="494" x2="309" y2="499" stroke="#000000" stroke-width="1" /><text x="359" y="511" font-size="12" text-anchor="end" transform="rotate(-45,359,511)">Marketing</text><line x1="359" y1="494" x2="359" y2="499" stroke="#000000" stroke-width="1" /><text x="409" y="511" font-size="12" text-anchor="end" transform="rotate(-45,409,511)">EBITDA</text><line x1="409" y1="494" x2="409" y2="499" stroke="#000000" stroke-width="1" /><text x="459" y="511" font-size="12" text-anchor="end" transform="rotate(-45,459,511)">Depreciation</text><line x1="459" y1="494" x2="459" y2="499" stroke="#000000" stroke-width="1" /><text x="509" y="511" font-size="12" text-anchor="end" transform="rotate(-45,509,511)">Interest</text><line x1="509" y1="494" x2="509" y2="499" stroke="#000000" stroke-width="1" /><text x="559" y="511" font-size="12" text-anchor="end" transform="rotate(-45,559,511)">Tax</text><line x1="559" y1="494" x2="559" y2="499" stroke="#000000" stroke-width="1" /><text x="609" y="511" font-size="12" text-anchor="end" transform="rotate(-45,609,511)">Net income</text><line x1="609" y1="494" x2="609" y2="499" stroke="#000000" stroke-width="1" /><line x1="54" y1="494" x2="59" y2="494" stroke="#000000" stroke-width="1" /><text x="51" y="498.2" font-size="12" text-anchor="end">0</text><line x1="54" y1="404" x2="59" y2="404" stroke="#000000" stroke-width="1" /><text x="51" y="408.2" font-size="12" text-anchor="end">200</text><line x1="54" y1="314" x2="59" y2="314" stroke="#000000" stroke-width="1" /><text x="51" y="318.2" font-size="12" text-anchor="end">400</text><line x1="54" y1="224" x2="59" y2="224" stroke="#000000" stroke-width="1" /><text x="51" y="228.20000000000002" font-size="12" text-anchor="end">600</text><line x1="54" y1="134" x2="59" y2="134" stroke="#000000" stroke-width="1" /><text x="51" y="138.20000000000002" font-size="12" text-anchor="end">800</text><line x1="54" y1="44" x2="59" y2="44" stroke="#000000" stroke-width="1" /><text x="51" y="48.2" font-size="12" text-anchor="end">1000</text><text x="15" y="293.59000000000003" font-size="14" text-anchor="middle" transform="rotate(-90,15,293.59000000000003)">USD (thousands)</text><text x="336.5" y="27.400000000000002" font-size="18" text-anchor="middle">Income Statement</text><g clip-path="url(#kuva-clip-1)"><rect x="94" y="111.5" width="30" height="382.5" fill="#44aa44" /><rect x="144" y="111.5" width="30" height="153" fill="#cc4444" /><rect x="194" y="264.5" width="30" height="229.5" fill="#4682b4" /><rect x="244" y="264.5" width="30" height="81" fill="#cc4444" /><rect x="294" y="345.5" width="30" height="40.5" fill="#cc4444" /><rect x="344" y="386" width="30" height="31.5" fill="#cc4444" /><rect x="394" y="417.5" width="30" height="76.5" fill="#4682b4" /><rect x="444" y="417.5" width="30" height="18" fill="#cc4444" /><rect x="494" y="435.5" width="30" height="9" fill="#cc4444" /><rect x="544" y="444.5" width="30" height="29.25" fill="#cc4444" /><rect x="594" y="473.75" width="30" height="20.25" fill="#4682b4" /></g></svg>