<svg xmlns="http://www.w3.org/2000/svg" width="686.2" height="545" font-family="DejaVu Sans, Liberation Sans, Arial, sans-serif" fill="black"><rect width="100%" height="100%" fill="white" /><line x1="72.2" y1="494" x2="672.2" y2="494" stroke="#000000" stroke-width="1" /><line x1="72.2" y1="44" x2="72.2" y2="494" stroke="#000000" stroke-width="1" /><line x1="72.2" y1="404" x2="672.2" y2="404" stroke="#cccccc" stroke-width="1" /><line x1="72.2" y1="314" x2="672.2" y2="314" stroke="#cccccc" stroke-width="1" /><line x1="72.2" y1="224" x2="672.2" y2="224" stroke="#cccccc" stroke-width="1" /><line x1="72.2" y1="134" x2="672.2" y2="134" stroke="#cccccc" stroke-width="1" /><line x1="72.2" y1="44" x2="672.2" y2="44" stroke="#cccccc" stroke-width="1" /><text x="122.2" y="511" font-size="12" text-anchor="middle">Revenue</text><line x1="122.2" y1="494" x2="122.2" y2="499" stroke="#000000" stroke-width="1" /><text x="172.20000000000002" y="511" font-size="12" text-anchor="middle">Cost of goods</text><line x1="172.20000000000002" y1="494" x2="172.20000000000002" y2="499" stroke="#000000" stroke-width="1" /><text x="222.20000000000002" y="511" font-size="12" text-anchor="middle">Gross profit</text><line x1="222.20000000000002" y1="494" x2="222.20000000000002" y2="499" stroke="#000000" stroke-width="1" /><text x="272.2" y="511" font-size="12" text-anchor="middle">Personnel</text><line x1="272.2" y1="494" x2="272.2" y2="499" stroke="#000000" stroke-width="1" /><text x="322.2" y="511" font-size="12" text-anchor="middle">Operations</text><line x1="322.2" y1="494" x2="322.2" y2="499" stroke="#000000" stroke-width="1" /><text x="372.2" y="511" font-size="12" text-anchor="middle">Marketing</text><line x1="372.2" y1="494" x2="372.2" y2="499" stroke="#000000" stroke-width="1" /><text x="422.2" y="511" font-size="12" text-anchor="middle">EBITDA</text><line x1="422.2" y1="494" x2="422.2" y2="499" stroke="#000000" stroke-width="1" /><text x="472.2" y="511" font-size="12" text-anchor="middle">Depreciation</text><line x1="472.2" y1="494" x2="472.2" y2="499" stroke="#000000" stroke-width="1" /><text x="522.2" y="511" font-size="12" text-anchor="middle">Interest</text><line x1="522.2" y1="494" x2="522.2" y2="499" stroke="#000000" stroke-width="1" /><text x="572.2" y="511" font-size="12" text-anchor="middle">Tax</text><line x1="572.2" y1="494" x2="572.2" y2="499" stroke="#000000" stroke-width="1" /><text x="622.2" y="511" font-size="12" text-anchor="middle">Net income</text><line x1="622.2" y1="494" x2="622.2" y2="499" stroke="#000000" stroke-width="1" /><line x1="67.2" y1="494" x2="72.2" y2="494" stroke="#000000" stroke-width="1" /><text x="64.2" y="498.2" font-size="12" text-anchor="end">0</text><line x1="67.2" y1="404" x2="72.2" y2="404" stroke="#000000" stroke-width="1" /><text x="64.2" y="408.2" font-size="12" text-anchor="end">200</text><line x1="67.2" y1="314" x2="72.2" y2="314" stroke="#000000" stroke-width="1" /><text x="64.2" y="318.2" font-size="12" text-anchor="end">400</text><line x1="67.2" y1="224" x2="72.2" y2="224" stroke="#000000" stroke-width="1" /><text x="64.2" y="228.20000000000002" font-size="12" text-anchor="end">600</text><line x1="67.2" y1="134" x2="72.2" y2="134" stroke="#000000" stroke-width="1" /><text x="64.2" y="138.20000000000002" font-size="12" text-anchor="end">800</text><line x1="67.2" y1="44" x2="72.2" y2="44" stroke="#000000" stroke-width="1" /><text x="64.2" y="48.2" font-size="12" text-anchor="end">1000</text><text x="7" y="272.5" font-size="14" text-anchor="middle" transform="rotate(-90,7,272.5)">USD (thousands)</text><text x="372.2" y="22" font-size="18" text-anchor="middle">Income Statement</text><rect x="107.2" y="111.5" width="30" height="382.5" fill="#44aa44" /><rect x="157.20000000000002" y="111.5" width="30" height="153" fill="#cc4444" /><rect x="207.20000000000002" y="264.5" width="30" height="229.5" fill="#4682b4" /><rect x="257.2" y="264.5" width="30" height="81" fill="#cc4444" /><rect x="307.2" y="345.5" width="30" height="40.5" fill="#cc4444" /><rect x="357.2" y="386" width="30" height="31.5" fill="#cc4444" /><rect x="407.2" y="417.5" width="30" height="76.5" fill="#4682b4" /><rect x="457.2" y="417.5" width="30" height="18" fill="#cc4444" /><rect x="507.2" y="435.5" width="30" height="9" fill="#cc4444" /><rect x="557.2" y="444.5" width="30" height="29.25" fill="#cc4444" /><rect x="607.2" y="473.75" width="30" height="20.25" fill="#4682b4" /></svg>