<svg xmlns="http://www.w3.org/2000/svg" width="678.2" height="545" font-family="DejaVu Sans, Liberation Sans, Arial, sans-serif" fill="black"><rect width="100%" height="100%" fill="white" /><defs><clipPath id="kuva-clip-7"><rect x="63.800000000000004" y="44" width="600" height="450"/></clipPath></defs><line x1="149.51" y1="44" x2="149.51" y2="494" stroke="#cccccc" stroke-width="1" /><line x1="235.23000000000002" y1="44" x2="235.23000000000002" y2="494" stroke="#cccccc" stroke-width="1" /><line x1="320.94" y1="44" x2="320.94" y2="494" stroke="#cccccc" stroke-width="1" /><line x1="406.66" y1="44" x2="406.66" y2="494" stroke="#cccccc" stroke-width="1" /><line x1="492.37" y1="44" x2="492.37" y2="494" stroke="#cccccc" stroke-width="1" /><line x1="578.09" y1="44" x2="578.09" y2="494" stroke="#cccccc" stroke-width="1" /><line x1="663.8000000000001" y1="44" x2="663.8000000000001" y2="494" stroke="#cccccc" stroke-width="1" /><line x1="63.800000000000004" y1="419" x2="663.8000000000001" y2="419" stroke="#cccccc" stroke-width="1" /><line x1="63.800000000000004" y1="344" x2="663.8000000000001" y2="344" stroke="#cccccc" stroke-width="1" /><line x1="63.800000000000004" y1="269" x2="663.8000000000001" y2="269" stroke="#cccccc" stroke-width="1" /><line x1="63.800000000000004" y1="194" x2="663.8000000000001" y2="194" stroke="#cccccc" stroke-width="1" /><line x1="63.800000000000004" y1="119" x2="663.8000000000001" y2="119" stroke="#cccccc" stroke-width="1" /><line x1="63.800000000000004" y1="44" x2="663.8000000000001" y2="44" stroke="#cccccc" stroke-width="1" /><line x1="63.800000000000004" y1="494" x2="663.8000000000001" y2="494" stroke="#000000" stroke-width="1" /><line x1="63.800000000000004" y1="44" x2="63.800000000000004" y2="494" stroke="#000000" stroke-width="1" /><line x1="63.800000000000004" y1="494" x2="63.800000000000004" y2="499" stroke="#000000" stroke-width="1" /><text x="63.800000000000004" y="511" font-size="12" text-anchor="middle">0</text><line x1="149.51" y1="494" x2="149.51" y2="499" stroke="#000000" stroke-width="1" /><text x="149.51" y="511" font-size="12" text-anchor="middle">1</text><line x1="235.23000000000002" y1="494" x2="235.23000000000002" y2="499" stroke="#000000" stroke-width="1" /><text x="235.23000000000002" y="511" font-size="12" text-anchor="middle">2</text><line x1="320.94" y1="494" x2="320.94" y2="499" stroke="#000000" stroke-width="1" /><text x="320.94" y="511" font-size="12" text-anchor="middle">3</text><line x1="406.66" y1="494" x2="406.66" y2="499" stroke="#000000" stroke-width="1" /><text x="406.66" y="511" font-size="12" text-anchor="middle">4</text><line x1="492.37" y1="494" x2="492.37" y2="499" stroke="#000000" stroke-width="1" /><text x="492.37" y="511" font-size="12" text-anchor="middle">5</text><line x1="578.09" y1="494" x2="578.09" y2="499" stroke="#000000" stroke-width="1" /><text x="578.09" y="511" font-size="12" text-anchor="middle">6</text><line x1="663.8000000000001" y1="494" x2="663.8000000000001" y2="499" stroke="#000000" stroke-width="1" /><text x="663.8000000000001" y="511" font-size="12" text-anchor="middle">7</text><line x1="58.800000000000004" y1="494" x2="63.800000000000004" y2="494" stroke="#000000" stroke-width="1" /><text x="55.800000000000004" y="498.2" font-size="12" text-anchor="end">-1.5</text><line x1="58.800000000000004" y1="419" x2="63.800000000000004" y2="419" stroke="#000000" stroke-width="1" /><text x="55.800000000000004" y="423.2" font-size="12" text-anchor="end">-1</text><line x1="58.800000000000004" y1="344" x2="63.800000000000004" y2="344" stroke="#000000" stroke-width="1" /><text x="55.800000000000004" y="348.2" font-size="12" text-anchor="end">-0.5</text><line x1="58.800000000000004" y1="269" x2="63.800000000000004" y2="269" stroke="#000000" stroke-width="1" /><text x="55.800000000000004" y="273.2" font-size="12" text-anchor="end">0</text><line x1="58.800000000000004" y1="194" x2="63.800000000000004" y2="194" stroke="#000000" stroke-width="1" /><text x="55.800000000000004" y="198.20000000000002" font-size="12" text-anchor="end">0.5</text><line x1="58.800000000000004" y1="119" x2="63.800000000000004" y2="119" stroke="#000000" stroke-width="1" /><text x="55.800000000000004" y="123.2" font-size="12" text-anchor="end">1</text><line x1="58.800000000000004" y1="44" x2="63.800000000000004" y2="44" stroke="#000000" stroke-width="1" /><text x="55.800000000000004" y="48.2" font-size="12" text-anchor="end">1.5</text><text x="363.8" y="538" font-size="14" text-anchor="middle">X</text><text x="15" y="272.5" font-size="14" text-anchor="middle" transform="rotate(-90,15,272.5)">Y</text><text x="339.1" y="27.400000000000002" font-size="18" text-anchor="middle">Annotations</text><g clip-path="url(#kuva-clip-7)"><rect x="63.800000000000004" y="104" width="600" height="165" fill="#4682b4" fill-opacity="0.08" /><path d="M 63.800000000000004 269.0 L 72.37 254.02 L 80.94 239.20000000000002 L 89.51 224.67000000000002 L 98.09 210.59 L 106.66 197.09 L 115.23 184.3 L 123.8 172.37 L 132.37 161.4 L 140.94 151.5 L 149.51 142.78 L 158.09 135.32 L 166.66 129.19 L 175.23 124.47 L 183.8 121.18 L 192.37 119.38 L 200.94 119.06 L 209.51 120.25 L 218.09 122.92 L 226.66 127.05 L 235.23000000000002 132.61 L 243.8 139.52 L 252.37 147.73 L 260.94 157.14000000000001 L 269.51 167.68 L 278.09000000000003 179.23 L 286.66 191.67000000000002 L 295.23 204.89000000000001 L 303.8 218.75 L 312.37 233.11 L 320.94 247.83 L 329.51 262.76 L 338.09000000000003 277.76 L 346.66 292.66 L 355.23 307.33 L 363.8 321.62 L 372.37 335.38 L 380.94 348.48 L 389.51 360.78000000000003 L 398.09000000000003 372.16 L 406.66 382.52 L 415.23 391.74 L 423.8 399.74 L 432.37 406.42 L 440.94 411.74 L 449.51 415.63 L 458.09000000000003 418.05 L 466.66 418.99 L 475.23 418.42 L 483.8 416.37 L 492.37 412.84000000000003 L 500.94 407.87 L 509.51 401.52 L 518.09 393.84000000000003 L 526.66 384.91 L 535.23 374.83 L 543.8 363.69 L 552.37 351.6 L 560.94 338.69 L 569.51 325.08 L 578.09 310.91 " stroke="#4682b4" stroke-width="2" fill="none" /><line x1="63.800000000000004" y1="269" x2="663.8000000000001" y2="269" stroke="#000000" stroke-width="1" stroke-dasharray="6 4" /><text x="659.8000000000001" y="265" font-size="12" text-anchor="end">y = 0</text><line x1="198.37" y1="44" x2="198.37" y2="494" stroke="#dc143c" stroke-width="1" stroke-dasharray="6 4" /><text x="202.37" y="56" font-size="12" text-anchor="start">π/2</text><line x1="149.51" y1="96.5" x2="192.92000000000002" y2="116.49000000000001" stroke="#dc143c" stroke-width="1" /><path d="M192.9215753741904,116.49019918548242 L183.98190390152783,116.77703356428442 L187.32830498755126,109.51056263463356 Z" stroke="#dc143c" stroke-width="1" fill="#dc143c" /><text x="149.51" y="90.5" font-size="12" text-anchor="middle">peak</text></g></svg>