<svg xmlns="http://www.w3.org/2000/svg" width="686.2" height="545" font-family="DejaVu Sans, Liberation Sans, Arial, sans-serif" fill="black"><rect width="100%" height="100%" fill="white" /><line x1="72.2" y1="494" x2="672.2" y2="494" stroke="#000000" stroke-width="1" /><line x1="72.2" y1="44" x2="72.2" y2="494" stroke="#000000" stroke-width="1" /><line x1="157.91" y1="44" x2="157.91" y2="494" stroke="#cccccc" stroke-width="1" /><line x1="243.63" y1="44" x2="243.63" y2="494" stroke="#cccccc" stroke-width="1" /><line x1="329.34000000000003" y1="44" x2="329.34000000000003" y2="494" stroke="#cccccc" stroke-width="1" /><line x1="415.06" y1="44" x2="415.06" y2="494" stroke="#cccccc" stroke-width="1" /><line x1="500.77000000000004" y1="44" x2="500.77000000000004" y2="494" stroke="#cccccc" stroke-width="1" /><line x1="586.49" y1="44" x2="586.49" y2="494" stroke="#cccccc" stroke-width="1" /><line x1="672.2" y1="44" x2="672.2" y2="494" stroke="#cccccc" stroke-width="1" /><line x1="72.2" y1="419" x2="672.2" y2="419" stroke="#cccccc" stroke-width="1" /><line x1="72.2" y1="344" x2="672.2" y2="344" stroke="#cccccc" stroke-width="1" /><line x1="72.2" y1="269" x2="672.2" y2="269" stroke="#cccccc" stroke-width="1" /><line x1="72.2" y1="194" x2="672.2" y2="194" stroke="#cccccc" stroke-width="1" /><line x1="72.2" y1="119" x2="672.2" y2="119" stroke="#cccccc" stroke-width="1" /><line x1="72.2" y1="44" x2="672.2" y2="44" stroke="#cccccc" stroke-width="1" /><line x1="72.2" y1="494" x2="72.2" y2="499" stroke="#000000" stroke-width="1" /><text x="72.2" y="511" font-size="12" text-anchor="middle">0</text><line x1="157.91" y1="494" x2="157.91" y2="499" stroke="#000000" stroke-width="1" /><text x="157.91" y="511" font-size="12" text-anchor="middle">1</text><line x1="243.63" y1="494" x2="243.63" y2="499" stroke="#000000" stroke-width="1" /><text x="243.63" y="511" font-size="12" text-anchor="middle">2</text><line x1="329.34000000000003" y1="494" x2="329.34000000000003" y2="499" stroke="#000000" stroke-width="1" /><text x="329.34000000000003" y="511" font-size="12" text-anchor="middle">3</text><line x1="415.06" y1="494" x2="415.06" y2="499" stroke="#000000" stroke-width="1" /><text x="415.06" y="511" font-size="12" text-anchor="middle">4</text><line x1="500.77000000000004" y1="494" x2="500.77000000000004" y2="499" stroke="#000000" stroke-width="1" /><text x="500.77000000000004" y="511" font-size="12" text-anchor="middle">5</text><line x1="586.49" y1="494" x2="586.49" y2="499" stroke="#000000" stroke-width="1" /><text x="586.49" y="511" font-size="12" text-anchor="middle">6</text><line x1="672.2" y1="494" x2="672.2" y2="499" stroke="#000000" stroke-width="1" /><text x="672.2" y="511" font-size="12" text-anchor="middle">7</text><line x1="67.2" y1="494" x2="72.2" y2="494" stroke="#000000" stroke-width="1" /><text x="64.2" y="498.2" font-size="12" text-anchor="end">-1.5</text><line x1="67.2" y1="419" x2="72.2" y2="419" stroke="#000000" stroke-width="1" /><text x="64.2" y="423.2" font-size="12" text-anchor="end">-1</text><line x1="67.2" y1="344" x2="72.2" y2="344" stroke="#000000" stroke-width="1" /><text x="64.2" y="348.2" font-size="12" text-anchor="end">-0.5</text><line x1="67.2" y1="269" x2="72.2" y2="269" stroke="#000000" stroke-width="1" /><text x="64.2" y="273.2" font-size="12" text-anchor="end">0</text><line x1="67.2" y1="194" x2="72.2" y2="194" stroke="#000000" stroke-width="1" /><text x="64.2" y="198.20000000000002" font-size="12" text-anchor="end">0.5</text><line x1="67.2" y1="119" x2="72.2" y2="119" stroke="#000000" stroke-width="1" /><text x="64.2" y="123.2" font-size="12" text-anchor="end">1</text><line x1="67.2" y1="44" x2="72.2" y2="44" stroke="#000000" stroke-width="1" /><text x="64.2" y="48.2" font-size="12" text-anchor="end">1.5</text><text x="372.2" y="538" font-size="14" text-anchor="middle">X</text><text x="7" y="272.5" font-size="14" text-anchor="middle" transform="rotate(-90,7,272.5)">Y</text><text x="372.2" y="22" font-size="18" text-anchor="middle">Annotations</text><rect x="72.2" y="104" width="600" height="165" fill="#4682b4" fill-opacity="0.08" /><path d="M 72.2 269.0 L 80.77 254.02 L 89.34 239.20000000000002 L 97.91 224.67000000000002 L 106.49000000000001 210.59 L 115.06 197.09 L 123.63000000000001 184.3 L 132.2 172.37 L 140.77 161.4 L 149.34 151.5 L 157.91 142.78 L 166.49 135.32 L 175.06 129.19 L 183.63 124.47 L 192.20000000000002 121.18 L 200.77 119.38 L 209.34 119.06 L 217.91 120.25 L 226.49 122.92 L 235.06 127.05 L 243.63 132.61 L 252.20000000000002 139.52 L 260.77 147.73 L 269.34000000000003 157.14000000000001 L 277.91 167.68 L 286.49 179.23 L 295.06 191.67000000000002 L 303.63 204.89000000000001 L 312.2 218.75 L 320.77 233.11 L 329.34000000000003 247.83 L 337.91 262.76 L 346.49 277.76 L 355.06 292.66 L 363.63 307.33 L 372.2 321.62 L 380.77 335.38 L 389.34000000000003 348.48 L 397.91 360.78000000000003 L 406.49 372.16 L 415.06 382.52 L 423.63 391.74 L 432.2 399.74 L 440.77 406.42 L 449.34000000000003 411.74 L 457.91 415.63 L 466.49 418.05 L 475.06 418.99 L 483.63 418.42 L 492.2 416.37 L 500.77000000000004 412.84000000000003 L 509.34000000000003 407.87 L 517.91 401.52 L 526.49 393.84000000000003 L 535.0600000000001 384.91 L 543.63 374.83 L 552.2 363.69 L 560.77 351.6 L 569.34 338.69 L 577.91 325.08 L 586.49 310.91 " stroke="#4682b4" stroke-width="2" fill="none" /><line x1="72.2" y1="269" x2="672.2" y2="269" stroke="#000000" stroke-width="1" stroke-dasharray="6 4" /><text x="668.2" y="265" font-size="12" text-anchor="end">y = 0</text><line x1="206.77" y1="44" x2="206.77" y2="494" stroke="#dc143c" stroke-width="1" stroke-dasharray="6 4" /><text x="210.77" y="56" font-size="12" text-anchor="start">π/2</text><line x1="157.91" y1="96.5" x2="201.32" y2="116.49000000000001" stroke="#dc143c" stroke-width="1" /><path d="M201.3215753741904,116.49019918548242 L192.3819039015278,116.77703356428442 L195.72830498755124,109.51056263463356 Z" stroke="#dc143c" stroke-width="1" fill="#dc143c" /><text x="157.91" y="90.5" font-size="12" text-anchor="middle">peak</text></svg>