<svg xmlns="http://www.w3.org/2000/svg" width="685" height="545" font-family="DejaVu Sans, Liberation Sans, Arial, sans-serif" fill="black"><rect width="100%" height="100%" fill="white" /><defs><clipPath id="kuva-clip-0"><rect x="71" y="44" width="600" height="450"/></clipPath></defs><line x1="71" y1="44" x2="71" y2="494" stroke="#cccccc" stroke-width="1" /><line x1="131.21" y1="44" x2="131.21" y2="494" stroke="#cccccc" stroke-width="1" /><line x1="210.79" y1="44" x2="210.79" y2="494" stroke="#cccccc" stroke-width="1" /><line x1="271" y1="44" x2="271" y2="494" stroke="#cccccc" stroke-width="1" /><line x1="331.21" y1="44" x2="331.21" y2="494" stroke="#cccccc" stroke-width="1" /><line x1="410.79" y1="44" x2="410.79" y2="494" stroke="#cccccc" stroke-width="1" /><line x1="471" y1="44" x2="471" y2="494" stroke="#cccccc" stroke-width="1" /><line x1="531.21" y1="44" x2="531.21" y2="494" stroke="#cccccc" stroke-width="1" /><line x1="610.79" y1="44" x2="610.79" y2="494" stroke="#cccccc" stroke-width="1" /><line x1="671" y1="44" x2="671" y2="494" stroke="#cccccc" stroke-width="1" /><line x1="71" y1="494" x2="671" y2="494" stroke="#cccccc" stroke-width="1" /><line x1="71" y1="437.75" x2="671" y2="437.75" stroke="#cccccc" stroke-width="1" /><line x1="71" y1="381.5" x2="671" y2="381.5" stroke="#cccccc" stroke-width="1" /><line x1="71" y1="325.25" x2="671" y2="325.25" stroke="#cccccc" stroke-width="1" /><line x1="71" y1="269" x2="671" y2="269" stroke="#cccccc" stroke-width="1" /><line x1="71" y1="212.75" x2="671" y2="212.75" stroke="#cccccc" stroke-width="1" /><line x1="71" y1="156.5" x2="671" y2="156.5" stroke="#cccccc" stroke-width="1" /><line x1="71" y1="100.25" x2="671" y2="100.25" stroke="#cccccc" stroke-width="1" /><line x1="71" y1="44" x2="671" y2="44" stroke="#cccccc" stroke-width="1" /><line x1="71" y1="494" x2="671" y2="494" stroke="#000000" stroke-width="1" /><line x1="71" y1="44" x2="71" y2="494" stroke="#000000" stroke-width="1" /><line x1="71" y1="494" x2="71" y2="499" stroke="#000000" stroke-width="1" /><text x="71" y="511" font-size="12" text-anchor="middle">1</text><line x1="131.21" y1="494" x2="131.21" y2="499" stroke="#000000" stroke-width="1" /><text x="131.21" y="511" font-size="12" text-anchor="middle">2</text><line x1="210.79" y1="494" x2="210.79" y2="499" stroke="#000000" stroke-width="1" /><text x="210.79" y="511" font-size="12" text-anchor="middle">5</text><line x1="271" y1="494" x2="271" y2="499" stroke="#000000" stroke-width="1" /><text x="271" y="511" font-size="12" text-anchor="middle">10</text><line x1="331.21" y1="494" x2="331.21" y2="499" stroke="#000000" stroke-width="1" /><text x="331.21" y="511" font-size="12" text-anchor="middle">20</text><line x1="410.79" y1="494" x2="410.79" y2="499" stroke="#000000" stroke-width="1" /><text x="410.79" y="511" font-size="12" text-anchor="middle">50</text><line x1="471" y1="494" x2="471" y2="499" stroke="#000000" stroke-width="1" /><text x="471" y="511" font-size="12" text-anchor="middle">100</text><line x1="531.21" y1="494" x2="531.21" y2="499" stroke="#000000" stroke-width="1" /><text x="531.21" y="511" font-size="12" text-anchor="middle">200</text><line x1="610.79" y1="494" x2="610.79" y2="499" stroke="#000000" stroke-width="1" /><text x="610.79" y="511" font-size="12" text-anchor="middle">500</text><line x1="671" y1="494" x2="671" y2="499" stroke="#000000" stroke-width="1" /><text x="671" y="511" font-size="12" text-anchor="middle">1000</text><line x1="66" y1="494" x2="71" y2="494" stroke="#000000" stroke-width="1" /><text x="63" y="498.2" font-size="12" text-anchor="end">1e-3</text><line x1="66" y1="437.75" x2="71" y2="437.75" stroke="#000000" stroke-width="1" /><text x="63" y="441.95" font-size="12" text-anchor="end">1e-2</text><line x1="66" y1="381.5" x2="71" y2="381.5" stroke="#000000" stroke-width="1" /><text x="63" y="385.7" font-size="12" text-anchor="end">1e-1</text><line x1="66" y1="325.25" x2="71" y2="325.25" stroke="#000000" stroke-width="1" /><text x="63" y="329.45" font-size="12" text-anchor="end">1</text><line x1="66" y1="269" x2="71" y2="269" stroke="#000000" stroke-width="1" /><text x="63" y="273.2" font-size="12" text-anchor="end">10</text><line x1="66" y1="212.75" x2="71" y2="212.75" stroke="#000000" stroke-width="1" /><text x="63" y="216.95000000000002" font-size="12" text-anchor="end">100</text><line x1="66" y1="156.5" x2="71" y2="156.5" stroke="#000000" stroke-width="1" /><text x="63" y="160.70000000000002" font-size="12" text-anchor="end">1000</text><line x1="66" y1="100.25" x2="71" y2="100.25" stroke="#000000" stroke-width="1" /><text x="63" y="104.45" font-size="12" text-anchor="end">10000</text><line x1="66" y1="44" x2="71" y2="44" stroke="#000000" stroke-width="1" /><text x="63" y="48.2" font-size="12" text-anchor="end">100000</text><text x="371" y="538" font-size="14" text-anchor="middle">X (log₁₀)</text><text x="15" y="272.5" font-size="14" text-anchor="middle" transform="rotate(-90,15,272.5)">Y (log₁₀)</text><text x="371" y="22" font-size="18" text-anchor="middle">Log-Scale Axes</text><g clip-path="url(#kuva-clip-0)"><circle cx="71" cy="494" r="5" fill="#4682b4" /><circle cx="166.42000000000002" cy="420.82" r="5" fill="#4682b4" /><circle cx="271" cy="342.18" r="5" fill="#4682b4" /><circle cx="366.42" cy="274.45" r="5" fill="#4682b4" /><circle cx="471" cy="202.84" r="5" fill="#4682b4" /><circle cx="566.42" cy="129.66" r="5" fill="#4682b4" /><circle cx="671" cy="56.480000000000004" r="5" fill="#4682b4" /></g></svg>