<svg xmlns="http://www.w3.org/2000/svg" width="686.2" height="545" font-family="DejaVu Sans, Liberation Sans, Arial, sans-serif" fill="black"><rect width="100%" height="100%" fill="white" /><line x1="72.2" y1="494" x2="672.2" y2="494" stroke="#000000" stroke-width="1" /><line x1="72.2" y1="44" x2="72.2" y2="494" stroke="#000000" stroke-width="1" /><line x1="72.2" y1="44" x2="72.2" y2="494" stroke="#cccccc" stroke-width="1" /><line x1="132.41" y1="44" x2="132.41" y2="494" stroke="#cccccc" stroke-width="1" /><line x1="211.99" y1="44" x2="211.99" y2="494" stroke="#cccccc" stroke-width="1" /><line x1="272.2" y1="44" x2="272.2" y2="494" stroke="#cccccc" stroke-width="1" /><line x1="332.41" y1="44" x2="332.41" y2="494" stroke="#cccccc" stroke-width="1" /><line x1="411.99" y1="44" x2="411.99" y2="494" stroke="#cccccc" stroke-width="1" /><line x1="472.2" y1="44" x2="472.2" y2="494" stroke="#cccccc" stroke-width="1" /><line x1="532.41" y1="44" x2="532.41" y2="494" stroke="#cccccc" stroke-width="1" /><line x1="611.99" y1="44" x2="611.99" y2="494" stroke="#cccccc" stroke-width="1" /><line x1="672.2" y1="44" x2="672.2" y2="494" stroke="#cccccc" stroke-width="1" /><line x1="72.2" y1="494" x2="672.2" y2="494" stroke="#cccccc" stroke-width="1" /><line x1="72.2" y1="437.75" x2="672.2" y2="437.75" stroke="#cccccc" stroke-width="1" /><line x1="72.2" y1="381.5" x2="672.2" y2="381.5" stroke="#cccccc" stroke-width="1" /><line x1="72.2" y1="325.25" x2="672.2" y2="325.25" stroke="#cccccc" stroke-width="1" /><line x1="72.2" y1="269" x2="672.2" y2="269" stroke="#cccccc" stroke-width="1" /><line x1="72.2" y1="212.75" x2="672.2" y2="212.75" stroke="#cccccc" stroke-width="1" /><line x1="72.2" y1="156.5" x2="672.2" y2="156.5" stroke="#cccccc" stroke-width="1" /><line x1="72.2" y1="100.25" x2="672.2" y2="100.25" stroke="#cccccc" stroke-width="1" /><line x1="72.2" y1="44" x2="672.2" y2="44" stroke="#cccccc" stroke-width="1" /><line x1="72.2" y1="494" x2="72.2" y2="499" stroke="#000000" stroke-width="1" /><text x="72.2" y="511" font-size="12" text-anchor="middle">1</text><line x1="132.41" y1="494" x2="132.41" y2="499" stroke="#000000" stroke-width="1" /><text x="132.41" y="511" font-size="12" text-anchor="middle">2</text><line x1="211.99" y1="494" x2="211.99" y2="499" stroke="#000000" stroke-width="1" /><text x="211.99" y="511" font-size="12" text-anchor="middle">5</text><line x1="272.2" y1="494" x2="272.2" y2="499" stroke="#000000" stroke-width="1" /><text x="272.2" y="511" font-size="12" text-anchor="middle">10</text><line x1="332.41" y1="494" x2="332.41" y2="499" stroke="#000000" stroke-width="1" /><text x="332.41" y="511" font-size="12" text-anchor="middle">20</text><line x1="411.99" y1="494" x2="411.99" y2="499" stroke="#000000" stroke-width="1" /><text x="411.99" y="511" font-size="12" text-anchor="middle">50</text><line x1="472.2" y1="494" x2="472.2" y2="499" stroke="#000000" stroke-width="1" /><text x="472.2" y="511" font-size="12" text-anchor="middle">100</text><line x1="532.41" y1="494" x2="532.41" y2="499" stroke="#000000" stroke-width="1" /><text x="532.41" y="511" font-size="12" text-anchor="middle">200</text><line x1="611.99" y1="494" x2="611.99" y2="499" stroke="#000000" stroke-width="1" /><text x="611.99" y="511" font-size="12" text-anchor="middle">500</text><line x1="672.2" y1="494" x2="672.2" y2="499" stroke="#000000" stroke-width="1" /><text x="672.2" y="511" font-size="12" text-anchor="middle">1000</text><line x1="67.2" y1="494" x2="72.2" y2="494" stroke="#000000" stroke-width="1" /><text x="64.2" y="498.2" font-size="12" text-anchor="end">1e-3</text><line x1="67.2" y1="437.75" x2="72.2" y2="437.75" stroke="#000000" stroke-width="1" /><text x="64.2" y="441.95" font-size="12" text-anchor="end">1e-2</text><line x1="67.2" y1="381.5" x2="72.2" y2="381.5" stroke="#000000" stroke-width="1" /><text x="64.2" y="385.7" font-size="12" text-anchor="end">1e-1</text><line x1="67.2" y1="325.25" x2="72.2" y2="325.25" stroke="#000000" stroke-width="1" /><text x="64.2" y="329.45" font-size="12" text-anchor="end">1</text><line x1="67.2" y1="269" x2="72.2" y2="269" stroke="#000000" stroke-width="1" /><text x="64.2" y="273.2" font-size="12" text-anchor="end">10</text><line x1="67.2" y1="212.75" x2="72.2" y2="212.75" stroke="#000000" stroke-width="1" /><text x="64.2" y="216.95000000000002" font-size="12" text-anchor="end">100</text><line x1="67.2" y1="156.5" x2="72.2" y2="156.5" stroke="#000000" stroke-width="1" /><text x="64.2" y="160.70000000000002" font-size="12" text-anchor="end">1000</text><line x1="67.2" y1="100.25" x2="72.2" y2="100.25" stroke="#000000" stroke-width="1" /><text x="64.2" y="104.45" font-size="12" text-anchor="end">10000</text><line x1="67.2" y1="44" x2="72.2" y2="44" stroke="#000000" stroke-width="1" /><text x="64.2" y="48.2" font-size="12" text-anchor="end">100000</text><text x="372.2" y="538" font-size="14" text-anchor="middle">X (log₁₀)</text><text x="7" y="272.5" font-size="14" text-anchor="middle" transform="rotate(-90,7,272.5)">Y (log₁₀)</text><text x="372.2" y="22" font-size="18" text-anchor="middle">Log-Scale Axes</text><circle cx="72.2" cy="494" r="5" fill="#4682b4" /><circle cx="167.62" cy="420.82" r="5" fill="#4682b4" /><circle cx="272.2" cy="342.18" r="5" fill="#4682b4" /><circle cx="367.62" cy="274.45" r="5" fill="#4682b4" /><circle cx="472.2" cy="202.84" r="5" fill="#4682b4" /><circle cx="567.62" cy="129.66" r="5" fill="#4682b4" /><circle cx="672.2" cy="56.480000000000004" r="5" fill="#4682b4" /></svg>