<svg xmlns="http://www.w3.org/2000/svg" width="678.2" height="545" font-family="DejaVu Sans, Liberation Sans, Arial, sans-serif" fill="black"><rect width="100%" height="100%" fill="white" /><defs><clipPath id="kuva-clip-9"><rect x="63.800000000000004" y="44" width="600" height="450"/></clipPath></defs><line x1="149.51" y1="44" x2="149.51" y2="494" stroke="#cccccc" stroke-width="1" /><line x1="235.23000000000002" y1="44" x2="235.23000000000002" y2="494" stroke="#cccccc" stroke-width="1" /><line x1="320.94" y1="44" x2="320.94" y2="494" stroke="#cccccc" stroke-width="1" /><line x1="406.66" y1="44" x2="406.66" y2="494" stroke="#cccccc" stroke-width="1" /><line x1="492.37" y1="44" x2="492.37" y2="494" stroke="#cccccc" stroke-width="1" /><line x1="578.09" y1="44" x2="578.09" y2="494" stroke="#cccccc" stroke-width="1" /><line x1="663.8000000000001" y1="44" x2="663.8000000000001" y2="494" stroke="#cccccc" stroke-width="1" /><line x1="63.800000000000004" y1="419" x2="663.8000000000001" y2="419" stroke="#cccccc" stroke-width="1" /><line x1="63.800000000000004" y1="344" x2="663.8000000000001" y2="344" stroke="#cccccc" stroke-width="1" /><line x1="63.800000000000004" y1="269" x2="663.8000000000001" y2="269" stroke="#cccccc" stroke-width="1" /><line x1="63.800000000000004" y1="194" x2="663.8000000000001" y2="194" stroke="#cccccc" stroke-width="1" /><line x1="63.800000000000004" y1="119" x2="663.8000000000001" y2="119" stroke="#cccccc" stroke-width="1" /><line x1="63.800000000000004" y1="44" x2="663.8000000000001" y2="44" stroke="#cccccc" stroke-width="1" /><line x1="63.800000000000004" y1="494" x2="663.8000000000001" y2="494" stroke="#000000" stroke-width="1" /><line x1="63.800000000000004" y1="44" x2="63.800000000000004" y2="494" stroke="#000000" stroke-width="1" /><line x1="63.800000000000004" y1="494" x2="63.800000000000004" y2="499" stroke="#000000" stroke-width="1" /><text x="63.800000000000004" y="511" font-size="12" text-anchor="middle">0</text><line x1="149.51" y1="494" x2="149.51" y2="499" stroke="#000000" stroke-width="1" /><text x="149.51" y="511" font-size="12" text-anchor="middle">1</text><line x1="235.23000000000002" y1="494" x2="235.23000000000002" y2="499" stroke="#000000" stroke-width="1" /><text x="235.23000000000002" y="511" font-size="12" text-anchor="middle">2</text><line x1="320.94" y1="494" x2="320.94" y2="499" stroke="#000000" stroke-width="1" /><text x="320.94" y="511" font-size="12" text-anchor="middle">3</text><line x1="406.66" y1="494" x2="406.66" y2="499" stroke="#000000" stroke-width="1" /><text x="406.66" y="511" font-size="12" text-anchor="middle">4</text><line x1="492.37" y1="494" x2="492.37" y2="499" stroke="#000000" stroke-width="1" /><text x="492.37" y="511" font-size="12" text-anchor="middle">5</text><line x1="578.09" y1="494" x2="578.09" y2="499" stroke="#000000" stroke-width="1" /><text x="578.09" y="511" font-size="12" text-anchor="middle">6</text><line x1="663.8000000000001" y1="494" x2="663.8000000000001" y2="499" stroke="#000000" stroke-width="1" /><text x="663.8000000000001" y="511" font-size="12" text-anchor="middle">7</text><line x1="58.800000000000004" y1="494" x2="63.800000000000004" y2="494" stroke="#000000" stroke-width="1" /><text x="55.800000000000004" y="498.2" font-size="12" text-anchor="end">0</text><line x1="58.800000000000004" y1="419" x2="63.800000000000004" y2="419" stroke="#000000" stroke-width="1" /><text x="55.800000000000004" y="423.2" font-size="12" text-anchor="end">0.05</text><line x1="58.800000000000004" y1="344" x2="63.800000000000004" y2="344" stroke="#000000" stroke-width="1" /><text x="55.800000000000004" y="348.2" font-size="12" text-anchor="end">0.1</text><line x1="58.800000000000004" y1="269" x2="63.800000000000004" y2="269" stroke="#000000" stroke-width="1" /><text x="55.800000000000004" y="273.2" font-size="12" text-anchor="end">0.15</text><line x1="58.800000000000004" y1="194" x2="63.800000000000004" y2="194" stroke="#000000" stroke-width="1" /><text x="55.800000000000004" y="198.20000000000002" font-size="12" text-anchor="end">0.2</text><line x1="58.800000000000004" y1="119" x2="63.800000000000004" y2="119" stroke="#000000" stroke-width="1" /><text x="55.800000000000004" y="123.2" font-size="12" text-anchor="end">0.25</text><line x1="58.800000000000004" y1="44" x2="63.800000000000004" y2="44" stroke="#000000" stroke-width="1" /><text x="55.800000000000004" y="48.2" font-size="12" text-anchor="end">0.3</text><text x="363.8" y="538" font-size="14" text-anchor="middle">X</text><text x="15" y="272.5" font-size="14" text-anchor="middle" transform="rotate(-90,15,272.5)">p-value</text><text x="363.8" y="22" font-size="18" text-anchor="middle">Reference Lines</text><g clip-path="url(#kuva-clip-9)"><circle cx="106.66" cy="74" r="5" fill="#4682b4" /><circle cx="166.66" cy="284" r="5" fill="#4682b4" /><circle cx="218.09" cy="434" r="5" fill="#4682b4" /><circle cx="269.51" cy="209" r="5" fill="#4682b4" /><circle cx="312.37" cy="374" r="5" fill="#4682b4" /><circle cx="389.51" cy="179" r="5" fill="#4682b4" /><circle cx="449.51" cy="314" r="5" fill="#4682b4" /><circle cx="500.94" cy="389" r="5" fill="#4682b4" /><circle cx="560.94" cy="119" r="5" fill="#4682b4" /><circle cx="620.94" cy="359" r="5" fill="#4682b4" /><line x1="63.800000000000004" y1="419" x2="663.8000000000001" y2="419" stroke="#dc143c" stroke-width="1" stroke-dasharray="6 4" /><text x="659.8000000000001" y="415" font-size="12" text-anchor="end">p = 0.05</text><line x1="363.8" y1="44" x2="363.8" y2="494" stroke="#4682b4" stroke-width="1.5" stroke-dasharray="8 4" /><text x="367.8" y="56" font-size="12" text-anchor="start">cutoff</text></g></svg>