<svg xmlns="http://www.w3.org/2000/svg" width="686.2" height="545" font-family="DejaVu Sans, Liberation Sans, Arial, sans-serif" fill="black"><rect width="100%" height="100%" fill="white" /><line x1="72.2" y1="494" x2="672.2" y2="494" stroke="#000000" stroke-width="1" /><line x1="72.2" y1="44" x2="72.2" y2="494" stroke="#000000" stroke-width="1" /><line x1="157.91" y1="44" x2="157.91" y2="494" stroke="#cccccc" stroke-width="1" /><line x1="243.63" y1="44" x2="243.63" y2="494" stroke="#cccccc" stroke-width="1" /><line x1="329.34000000000003" y1="44" x2="329.34000000000003" y2="494" stroke="#cccccc" stroke-width="1" /><line x1="415.06" y1="44" x2="415.06" y2="494" stroke="#cccccc" stroke-width="1" /><line x1="500.77000000000004" y1="44" x2="500.77000000000004" y2="494" stroke="#cccccc" stroke-width="1" /><line x1="586.49" y1="44" x2="586.49" y2="494" stroke="#cccccc" stroke-width="1" /><line x1="672.2" y1="44" x2="672.2" y2="494" stroke="#cccccc" stroke-width="1" /><line x1="72.2" y1="419" x2="672.2" y2="419" stroke="#cccccc" stroke-width="1" /><line x1="72.2" y1="344" x2="672.2" y2="344" stroke="#cccccc" stroke-width="1" /><line x1="72.2" y1="269" x2="672.2" y2="269" stroke="#cccccc" stroke-width="1" /><line x1="72.2" y1="194" x2="672.2" y2="194" stroke="#cccccc" stroke-width="1" /><line x1="72.2" y1="119" x2="672.2" y2="119" stroke="#cccccc" stroke-width="1" /><line x1="72.2" y1="44" x2="672.2" y2="44" stroke="#cccccc" stroke-width="1" /><line x1="72.2" y1="494" x2="72.2" y2="499" stroke="#000000" stroke-width="1" /><text x="72.2" y="511" font-size="12" text-anchor="middle">0</text><line x1="157.91" y1="494" x2="157.91" y2="499" stroke="#000000" stroke-width="1" /><text x="157.91" y="511" font-size="12" text-anchor="middle">1</text><line x1="243.63" y1="494" x2="243.63" y2="499" stroke="#000000" stroke-width="1" /><text x="243.63" y="511" font-size="12" text-anchor="middle">2</text><line x1="329.34000000000003" y1="494" x2="329.34000000000003" y2="499" stroke="#000000" stroke-width="1" /><text x="329.34000000000003" y="511" font-size="12" text-anchor="middle">3</text><line x1="415.06" y1="494" x2="415.06" y2="499" stroke="#000000" stroke-width="1" /><text x="415.06" y="511" font-size="12" text-anchor="middle">4</text><line x1="500.77000000000004" y1="494" x2="500.77000000000004" y2="499" stroke="#000000" stroke-width="1" /><text x="500.77000000000004" y="511" font-size="12" text-anchor="middle">5</text><line x1="586.49" y1="494" x2="586.49" y2="499" stroke="#000000" stroke-width="1" /><text x="586.49" y="511" font-size="12" text-anchor="middle">6</text><line x1="672.2" y1="494" x2="672.2" y2="499" stroke="#000000" stroke-width="1" /><text x="672.2" y="511" font-size="12" text-anchor="middle">7</text><line x1="67.2" y1="494" x2="72.2" y2="494" stroke="#000000" stroke-width="1" /><text x="64.2" y="498.2" font-size="12" text-anchor="end">0</text><line x1="67.2" y1="419" x2="72.2" y2="419" stroke="#000000" stroke-width="1" /><text x="64.2" y="423.2" font-size="12" text-anchor="end">0.05</text><line x1="67.2" y1="344" x2="72.2" y2="344" stroke="#000000" stroke-width="1" /><text x="64.2" y="348.2" font-size="12" text-anchor="end">0.1</text><line x1="67.2" y1="269" x2="72.2" y2="269" stroke="#000000" stroke-width="1" /><text x="64.2" y="273.2" font-size="12" text-anchor="end">0.15</text><line x1="67.2" y1="194" x2="72.2" y2="194" stroke="#000000" stroke-width="1" /><text x="64.2" y="198.20000000000002" font-size="12" text-anchor="end">0.2</text><line x1="67.2" y1="119" x2="72.2" y2="119" stroke="#000000" stroke-width="1" /><text x="64.2" y="123.2" font-size="12" text-anchor="end">0.25</text><line x1="67.2" y1="44" x2="72.2" y2="44" stroke="#000000" stroke-width="1" /><text x="64.2" y="48.2" font-size="12" text-anchor="end">0.3</text><text x="372.2" y="538" font-size="14" text-anchor="middle">X</text><text x="7" y="272.5" font-size="14" text-anchor="middle" transform="rotate(-90,7,272.5)">p-value</text><text x="372.2" y="22" font-size="18" text-anchor="middle">Reference Lines</text><circle cx="115.06" cy="74" r="5" fill="#4682b4" /><circle cx="175.06" cy="284" r="5" fill="#4682b4" /><circle cx="226.49" cy="434" r="5" fill="#4682b4" /><circle cx="277.91" cy="209" r="5" fill="#4682b4" /><circle cx="320.77" cy="374" r="5" fill="#4682b4" /><circle cx="397.91" cy="179" r="5" fill="#4682b4" /><circle cx="457.91" cy="314" r="5" fill="#4682b4" /><circle cx="509.34000000000003" cy="389" r="5" fill="#4682b4" /><circle cx="569.34" cy="119" r="5" fill="#4682b4" /><circle cx="629.34" cy="359" r="5" fill="#4682b4" /><line x1="72.2" y1="419" x2="672.2" y2="419" stroke="#dc143c" stroke-width="1" stroke-dasharray="6 4" /><text x="668.2" y="415" font-size="12" text-anchor="end">p = 0.05</text><line x1="372.2" y1="44" x2="372.2" y2="494" stroke="#4682b4" stroke-width="1.5" stroke-dasharray="8 4" /><text x="376.2" y="56" font-size="12" text-anchor="start">cutoff</text></svg>