<svg xmlns="http://www.w3.org/2000/svg" width="686.2" height="545" font-family="DejaVu Sans, Liberation Sans, Arial, sans-serif" fill="black"><rect width="100%" height="100%" fill="white" /><line x1="72.2" y1="494" x2="672.2" y2="494" stroke="#000000" stroke-width="1" /><line x1="72.2" y1="44" x2="72.2" y2="494" stroke="#000000" stroke-width="1" /><line x1="172.20000000000002" y1="44" x2="172.20000000000002" y2="494" stroke="#cccccc" stroke-width="1" /><line x1="272.2" y1="44" x2="272.2" y2="494" stroke="#cccccc" stroke-width="1" /><line x1="372.2" y1="44" x2="372.2" y2="494" stroke="#cccccc" stroke-width="1" /><line x1="472.2" y1="44" x2="472.2" y2="494" stroke="#cccccc" stroke-width="1" /><line x1="572.2" y1="44" x2="572.2" y2="494" stroke="#cccccc" stroke-width="1" /><line x1="672.2" y1="44" x2="672.2" y2="494" stroke="#cccccc" stroke-width="1" /><line x1="72.2" y1="429.71000000000004" x2="672.2" y2="429.71000000000004" stroke="#cccccc" stroke-width="1" /><line x1="72.2" y1="365.43" x2="672.2" y2="365.43" stroke="#cccccc" stroke-width="1" /><line x1="72.2" y1="301.14" x2="672.2" y2="301.14" stroke="#cccccc" stroke-width="1" /><line x1="72.2" y1="236.86" x2="672.2" y2="236.86" stroke="#cccccc" stroke-width="1" /><line x1="72.2" y1="172.57" x2="672.2" y2="172.57" stroke="#cccccc" stroke-width="1" /><line x1="72.2" y1="108.29" x2="672.2" y2="108.29" stroke="#cccccc" stroke-width="1" /><line x1="72.2" y1="44" x2="672.2" y2="44" stroke="#cccccc" stroke-width="1" /><line x1="72.2" y1="494" x2="72.2" y2="499" stroke="#000000" stroke-width="1" /><text x="72.2" y="511" font-size="12" text-anchor="middle">0</text><line x1="172.20000000000002" y1="494" x2="172.20000000000002" y2="499" stroke="#000000" stroke-width="1" /><text x="172.20000000000002" y="511" font-size="12" text-anchor="middle">5</text><line x1="272.2" y1="494" x2="272.2" y2="499" stroke="#000000" stroke-width="1" /><text x="272.2" y="511" font-size="12" text-anchor="middle">10</text><line x1="372.2" y1="494" x2="372.2" y2="499" stroke="#000000" stroke-width="1" /><text x="372.2" y="511" font-size="12" text-anchor="middle">15</text><line x1="472.2" y1="494" x2="472.2" y2="499" stroke="#000000" stroke-width="1" /><text x="472.2" y="511" font-size="12" text-anchor="middle">20</text><line x1="572.2" y1="494" x2="572.2" y2="499" stroke="#000000" stroke-width="1" /><text x="572.2" y="511" font-size="12" text-anchor="middle">25</text><line x1="672.2" y1="494" x2="672.2" y2="499" stroke="#000000" stroke-width="1" /><text x="672.2" y="511" font-size="12" text-anchor="middle">30</text><line x1="67.2" y1="494" x2="72.2" y2="494" stroke="#000000" stroke-width="1" /><text x="64.2" y="498.2" font-size="12" text-anchor="end">0</text><line x1="67.2" y1="429.71000000000004" x2="72.2" y2="429.71000000000004" stroke="#000000" stroke-width="1" /><text x="64.2" y="433.91" font-size="12" text-anchor="end">1</text><line x1="67.2" y1="365.43" x2="72.2" y2="365.43" stroke="#000000" stroke-width="1" /><text x="64.2" y="369.63" font-size="12" text-anchor="end">2</text><line x1="67.2" y1="301.14" x2="72.2" y2="301.14" stroke="#000000" stroke-width="1" /><text x="64.2" y="305.34000000000003" font-size="12" text-anchor="end">3</text><line x1="67.2" y1="236.86" x2="72.2" y2="236.86" stroke="#000000" stroke-width="1" /><text x="64.2" y="241.06" font-size="12" text-anchor="end">4</text><line x1="67.2" y1="172.57" x2="72.2" y2="172.57" stroke="#000000" stroke-width="1" /><text x="64.2" y="176.77" font-size="12" text-anchor="end">5</text><line x1="67.2" y1="108.29" x2="72.2" y2="108.29" stroke="#000000" stroke-width="1" /><text x="64.2" y="112.49000000000001" font-size="12" text-anchor="end">6</text><line x1="67.2" y1="44" x2="72.2" y2="44" stroke="#000000" stroke-width="1" /><text x="64.2" y="48.2" font-size="12" text-anchor="end">7</text><text x="372.2" y="538" font-size="14" text-anchor="middle">X</text><text x="7" y="272.5" font-size="14" text-anchor="middle" transform="rotate(-90,7,272.5)">Y</text><text x="372.2" y="22" font-size="18" text-anchor="middle">Shaded Regions</text><rect x="72.2" y="236.86" width="600" height="128.57" fill="#ffd700" fill-opacity="0.2" /><rect x="272.2" y="44" width="200" height="450" fill="#4682b4" fill-opacity="0.15" /><circle cx="112.2" cy="429.71000000000004" r="5" fill="#4682b4" /><circle cx="172.20000000000002" cy="288.29" r="5" fill="#4682b4" /><circle cx="232.20000000000002" cy="442.57" r="5" fill="#4682b4" /><circle cx="312.2" cy="140.43" r="5" fill="#4682b4" /><circle cx="372.2" cy="359" r="5" fill="#4682b4" /><circle cx="432.2" cy="89" r="5" fill="#4682b4" /><circle cx="512.2" cy="249.71" r="5" fill="#4682b4" /><circle cx="572.2" cy="397.57" r="5" fill="#4682b4" /><circle cx="632.2" cy="191.86" r="5" fill="#4682b4" /></svg>