<svg xmlns="http://www.w3.org/2000/svg" width="673.4" height="545" font-family="DejaVu Sans, Liberation Sans, Arial, sans-serif" fill="black"><rect width="100%" height="100%" fill="white" /><defs><clipPath id="kuva-clip-8"><rect x="59" y="44" width="600" height="450"/></clipPath></defs><line x1="144.71" y1="44" x2="144.71" y2="494" stroke="#cccccc" stroke-width="1" /><line x1="230.43" y1="44" x2="230.43" y2="494" stroke="#cccccc" stroke-width="1" /><line x1="316.14" y1="44" x2="316.14" y2="494" stroke="#cccccc" stroke-width="1" /><line x1="401.86" y1="44" x2="401.86" y2="494" stroke="#cccccc" stroke-width="1" /><line x1="487.57" y1="44" x2="487.57" y2="494" stroke="#cccccc" stroke-width="1" /><line x1="573.29" y1="44" x2="573.29" y2="494" stroke="#cccccc" stroke-width="1" /><line x1="659" y1="44" x2="659" y2="494" stroke="#cccccc" stroke-width="1" /><line x1="59" y1="404" x2="659" y2="404" stroke="#cccccc" stroke-width="1" /><line x1="59" y1="314" x2="659" y2="314" stroke="#cccccc" stroke-width="1" /><line x1="59" y1="224" x2="659" y2="224" stroke="#cccccc" stroke-width="1" /><line x1="59" y1="134" x2="659" y2="134" stroke="#cccccc" stroke-width="1" /><line x1="59" y1="44" x2="659" y2="44" stroke="#cccccc" stroke-width="1" /><line x1="59" y1="494" x2="659" y2="494" stroke="#000000" stroke-width="1" /><line x1="59" y1="44" x2="59" y2="494" stroke="#000000" stroke-width="1" /><line x1="59" y1="494" x2="59" y2="499" stroke="#000000" stroke-width="1" /><text x="59" y="511" font-size="12" text-anchor="middle">0</text><line x1="144.71" y1="494" x2="144.71" y2="499" stroke="#000000" stroke-width="1" /><text x="144.71" y="511" font-size="12" text-anchor="middle">1</text><line x1="230.43" y1="494" x2="230.43" y2="499" stroke="#000000" stroke-width="1" /><text x="230.43" y="511" font-size="12" text-anchor="middle">2</text><line x1="316.14" y1="494" x2="316.14" y2="499" stroke="#000000" stroke-width="1" /><text x="316.14" y="511" font-size="12" text-anchor="middle">3</text><line x1="401.86" y1="494" x2="401.86" y2="499" stroke="#000000" stroke-width="1" /><text x="401.86" y="511" font-size="12" text-anchor="middle">4</text><line x1="487.57" y1="494" x2="487.57" y2="499" stroke="#000000" stroke-width="1" /><text x="487.57" y="511" font-size="12" text-anchor="middle">5</text><line x1="573.29" y1="494" x2="573.29" y2="499" stroke="#000000" stroke-width="1" /><text x="573.29" y="511" font-size="12" text-anchor="middle">6</text><line x1="659" y1="494" x2="659" y2="499" stroke="#000000" stroke-width="1" /><text x="659" y="511" font-size="12" text-anchor="middle">7</text><line x1="54" y1="494" x2="59" y2="494" stroke="#000000" stroke-width="1" /><text x="51" y="498.2" font-size="12" text-anchor="end">0</text><line x1="54" y1="404" x2="59" y2="404" stroke="#000000" stroke-width="1" /><text x="51" y="408.2" font-size="12" text-anchor="end">2</text><line x1="54" y1="314" x2="59" y2="314" stroke="#000000" stroke-width="1" /><text x="51" y="318.2" font-size="12" text-anchor="end">4</text><line x1="54" y1="224" x2="59" y2="224" stroke="#000000" stroke-width="1" /><text x="51" y="228.20000000000002" font-size="12" text-anchor="end">6</text><line x1="54" y1="134" x2="59" y2="134" stroke="#000000" stroke-width="1" /><text x="51" y="138.20000000000002" font-size="12" text-anchor="end">8</text><line x1="54" y1="44" x2="59" y2="44" stroke="#000000" stroke-width="1" /><text x="51" y="48.2" font-size="12" text-anchor="end">10</text><text x="359" y="538" font-size="14" text-anchor="middle">X</text><text x="15" y="272.5" font-size="14" text-anchor="middle" transform="rotate(-90,15,272.5)">Y</text><text x="336.7" y="27.400000000000002" font-size="18" text-anchor="middle">Text Annotation</text><g clip-path="url(#kuva-clip-8)"><circle cx="144.71" cy="440" r="5" fill="#4682b4" /><circle cx="213.29" cy="381.5" r="5" fill="#4682b4" /><circle cx="264.71" cy="408.5" r="5" fill="#4682b4" /><circle cx="324.71" cy="341" r="5" fill="#4682b4" /><circle cx="384.71000000000004" cy="368" r="5" fill="#4682b4" /><circle cx="444.71000000000004" cy="309.5" r="5" fill="#4682b4" /><circle cx="504.71000000000004" cy="318.5" r="5" fill="#4682b4" /><circle cx="573.29" cy="89" r="5" fill="#4682b4" /><line x1="487.57" y1="156.5" x2="568.57" y2="92.71000000000001" stroke="#dc143c" stroke-width="1" /><path d="M568.5718963976453,92.71213158685428 L564.7615602714562,100.80418562803928 L559.8120514889839,94.51909511061405 Z" stroke="#dc143c" stroke-width="1" fill="#dc143c" /><text x="487.57" y="172.5" font-size="12" text-anchor="middle">Outlier</text></g></svg>