<svg xmlns="http://www.w3.org/2000/svg" width="686.2" height="545" font-family="DejaVu Sans, Liberation Sans, Arial, sans-serif" fill="black"><rect width="100%" height="100%" fill="white" /><line x1="72.2" y1="494" x2="672.2" y2="494" stroke="#000000" stroke-width="1" /><line x1="72.2" y1="44" x2="72.2" y2="494" stroke="#000000" stroke-width="1" /><line x1="157.91" y1="44" x2="157.91" y2="494" stroke="#cccccc" stroke-width="1" /><line x1="243.63" y1="44" x2="243.63" y2="494" stroke="#cccccc" stroke-width="1" /><line x1="329.34000000000003" y1="44" x2="329.34000000000003" y2="494" stroke="#cccccc" stroke-width="1" /><line x1="415.06" y1="44" x2="415.06" y2="494" stroke="#cccccc" stroke-width="1" /><line x1="500.77000000000004" y1="44" x2="500.77000000000004" y2="494" stroke="#cccccc" stroke-width="1" /><line x1="586.49" y1="44" x2="586.49" y2="494" stroke="#cccccc" stroke-width="1" /><line x1="672.2" y1="44" x2="672.2" y2="494" stroke="#cccccc" stroke-width="1" /><line x1="72.2" y1="404" x2="672.2" y2="404" stroke="#cccccc" stroke-width="1" /><line x1="72.2" y1="314" x2="672.2" y2="314" stroke="#cccccc" stroke-width="1" /><line x1="72.2" y1="224" x2="672.2" y2="224" stroke="#cccccc" stroke-width="1" /><line x1="72.2" y1="134" x2="672.2" y2="134" stroke="#cccccc" stroke-width="1" /><line x1="72.2" y1="44" x2="672.2" y2="44" stroke="#cccccc" stroke-width="1" /><line x1="72.2" y1="494" x2="72.2" y2="499" stroke="#000000" stroke-width="1" /><text x="72.2" y="511" font-size="12" text-anchor="middle">0</text><line x1="157.91" y1="494" x2="157.91" y2="499" stroke="#000000" stroke-width="1" /><text x="157.91" y="511" font-size="12" text-anchor="middle">1</text><line x1="243.63" y1="494" x2="243.63" y2="499" stroke="#000000" stroke-width="1" /><text x="243.63" y="511" font-size="12" text-anchor="middle">2</text><line x1="329.34000000000003" y1="494" x2="329.34000000000003" y2="499" stroke="#000000" stroke-width="1" /><text x="329.34000000000003" y="511" font-size="12" text-anchor="middle">3</text><line x1="415.06" y1="494" x2="415.06" y2="499" stroke="#000000" stroke-width="1" /><text x="415.06" y="511" font-size="12" text-anchor="middle">4</text><line x1="500.77000000000004" y1="494" x2="500.77000000000004" y2="499" stroke="#000000" stroke-width="1" /><text x="500.77000000000004" y="511" font-size="12" text-anchor="middle">5</text><line x1="586.49" y1="494" x2="586.49" y2="499" stroke="#000000" stroke-width="1" /><text x="586.49" y="511" font-size="12" text-anchor="middle">6</text><line x1="672.2" y1="494" x2="672.2" y2="499" stroke="#000000" stroke-width="1" /><text x="672.2" y="511" font-size="12" text-anchor="middle">7</text><line x1="67.2" y1="494" x2="72.2" y2="494" stroke="#000000" stroke-width="1" /><text x="64.2" y="498.2" font-size="12" text-anchor="end">0</text><line x1="67.2" y1="404" x2="72.2" y2="404" stroke="#000000" stroke-width="1" /><text x="64.2" y="408.2" font-size="12" text-anchor="end">2</text><line x1="67.2" y1="314" x2="72.2" y2="314" stroke="#000000" stroke-width="1" /><text x="64.2" y="318.2" font-size="12" text-anchor="end">4</text><line x1="67.2" y1="224" x2="72.2" y2="224" stroke="#000000" stroke-width="1" /><text x="64.2" y="228.20000000000002" font-size="12" text-anchor="end">6</text><line x1="67.2" y1="134" x2="72.2" y2="134" stroke="#000000" stroke-width="1" /><text x="64.2" y="138.20000000000002" font-size="12" text-anchor="end">8</text><line x1="67.2" y1="44" x2="72.2" y2="44" stroke="#000000" stroke-width="1" /><text x="64.2" y="48.2" font-size="12" text-anchor="end">10</text><text x="372.2" y="538" font-size="14" text-anchor="middle">X</text><text x="7" y="272.5" font-size="14" text-anchor="middle" transform="rotate(-90,7,272.5)">Y</text><text x="372.2" y="22" font-size="18" text-anchor="middle">Text Annotation</text><circle cx="157.91" cy="440" r="5" fill="#4682b4" /><circle cx="226.49" cy="381.5" r="5" fill="#4682b4" /><circle cx="277.91" cy="408.5" r="5" fill="#4682b4" /><circle cx="337.91" cy="341" r="5" fill="#4682b4" /><circle cx="397.91" cy="368" r="5" fill="#4682b4" /><circle cx="457.91" cy="309.5" r="5" fill="#4682b4" /><circle cx="517.91" cy="318.5" r="5" fill="#4682b4" /><circle cx="586.49" cy="89" r="5" fill="#4682b4" /><line x1="500.77000000000004" y1="156.5" x2="581.77" y2="92.71000000000001" stroke="#dc143c" stroke-width="1" /><path d="M581.7718963976454,92.71213158685428 L577.9615602714563,100.80418562803929 L573.012051488984,94.51909511061403 Z" stroke="#dc143c" stroke-width="1" fill="#dc143c" /><text x="500.77000000000004" y="172.5" font-size="12" text-anchor="middle">Outlier</text></svg>