<svg xmlns="http://www.w3.org/2000/svg" width="678.2" height="545" font-family="DejaVu Sans, Liberation Sans, Arial, sans-serif" fill="black"><rect width="100%" height="100%" fill="white" /><defs><clipPath id="kuva-clip-2"><rect x="63.800000000000004" y="44" width="600" height="450"/></clipPath></defs><line x1="188.8" y1="44" x2="188.8" y2="494" stroke="#cccccc" stroke-width="1" /><line x1="313.8" y1="44" x2="313.8" y2="494" stroke="#cccccc" stroke-width="1" /><line x1="438.8" y1="44" x2="438.8" y2="494" stroke="#cccccc" stroke-width="1" /><line x1="563.8000000000001" y1="44" x2="563.8000000000001" y2="494" stroke="#cccccc" stroke-width="1" /><line x1="63.800000000000004" y1="400.25" x2="663.8000000000001" y2="400.25" stroke="#cccccc" stroke-width="1" /><line x1="63.800000000000004" y1="306.5" x2="663.8000000000001" y2="306.5" stroke="#cccccc" stroke-width="1" /><line x1="63.800000000000004" y1="212.75" x2="663.8000000000001" y2="212.75" stroke="#cccccc" stroke-width="1" /><line x1="63.800000000000004" y1="119" x2="663.8000000000001" y2="119" stroke="#cccccc" stroke-width="1" /><line x1="63.800000000000004" y1="494" x2="663.8000000000001" y2="494" stroke="#000000" stroke-width="1" /><line x1="63.800000000000004" y1="44" x2="63.800000000000004" y2="494" stroke="#000000" stroke-width="1" /><line x1="63.800000000000004" y1="494" x2="63.800000000000004" y2="499" stroke="#000000" stroke-width="1" /><text x="63.800000000000004" y="511" font-size="12" text-anchor="middle">0.00</text><line x1="188.8" y1="494" x2="188.8" y2="499" stroke="#000000" stroke-width="1" /><text x="188.8" y="511" font-size="12" text-anchor="middle">0.25</text><line x1="313.8" y1="494" x2="313.8" y2="499" stroke="#000000" stroke-width="1" /><text x="313.8" y="511" font-size="12" text-anchor="middle">0.50</text><line x1="438.8" y1="494" x2="438.8" y2="499" stroke="#000000" stroke-width="1" /><text x="438.8" y="511" font-size="12" text-anchor="middle">0.75</text><line x1="563.8000000000001" y1="494" x2="563.8000000000001" y2="499" stroke="#000000" stroke-width="1" /><text x="563.8000000000001" y="511" font-size="12" text-anchor="middle">1.00</text><line x1="58.800000000000004" y1="494" x2="63.800000000000004" y2="494" stroke="#000000" stroke-width="1" /><text x="55.800000000000004" y="498.2" font-size="12" text-anchor="end">0.00</text><line x1="58.800000000000004" y1="400.25" x2="63.800000000000004" y2="400.25" stroke="#000000" stroke-width="1" /><text x="55.800000000000004" y="404.45" font-size="12" text-anchor="end">0.25</text><line x1="58.800000000000004" y1="306.5" x2="63.800000000000004" y2="306.5" stroke="#000000" stroke-width="1" /><text x="55.800000000000004" y="310.7" font-size="12" text-anchor="end">0.50</text><line x1="58.800000000000004" y1="212.75" x2="63.800000000000004" y2="212.75" stroke="#000000" stroke-width="1" /><text x="55.800000000000004" y="216.95000000000002" font-size="12" text-anchor="end">0.75</text><line x1="58.800000000000004" y1="119" x2="63.800000000000004" y2="119" stroke="#000000" stroke-width="1" /><text x="55.800000000000004" y="123.2" font-size="12" text-anchor="end">1.00</text><text x="339.1" y="27.400000000000002" font-size="18" text-anchor="middle">Fixed(2)</text><g clip-path="url(#kuva-clip-2)"><circle cx="63.800000000000004" cy="494" r="5" fill="#4682b4" /><circle cx="188.8" cy="400.25" r="5" fill="#4682b4" /><circle cx="313.8" cy="306.5" r="5" fill="#4682b4" /><circle cx="438.8" cy="212.75" r="5" fill="#4682b4" /><circle cx="563.8000000000001" cy="119" r="5" fill="#4682b4" /></g></svg>