<svg xmlns="http://www.w3.org/2000/svg" width="699.8000000000001" height="545" font-family="DejaVu Sans, Liberation Sans, Arial, sans-serif" fill="black"><rect width="100%" height="100%" fill="white" /><defs><clipPath id="kuva-clip-3"><rect x="78.2" y="44" width="600" height="450"/></clipPath></defs><line x1="203.20000000000002" y1="44" x2="203.20000000000002" y2="494" stroke="#cccccc" stroke-width="1" /><line x1="328.2" y1="44" x2="328.2" y2="494" stroke="#cccccc" stroke-width="1" /><line x1="453.2" y1="44" x2="453.2" y2="494" stroke="#cccccc" stroke-width="1" /><line x1="578.2" y1="44" x2="578.2" y2="494" stroke="#cccccc" stroke-width="1" /><line x1="78.2" y1="400.25" x2="678.2" y2="400.25" stroke="#cccccc" stroke-width="1" /><line x1="78.2" y1="306.5" x2="678.2" y2="306.5" stroke="#cccccc" stroke-width="1" /><line x1="78.2" y1="212.75" x2="678.2" y2="212.75" stroke="#cccccc" stroke-width="1" /><line x1="78.2" y1="119" x2="678.2" y2="119" stroke="#cccccc" stroke-width="1" /><line x1="78.2" y1="494" x2="678.2" y2="494" stroke="#000000" stroke-width="1" /><line x1="78.2" y1="44" x2="78.2" y2="494" stroke="#000000" stroke-width="1" /><line x1="78.2" y1="494" x2="78.2" y2="499" stroke="#000000" stroke-width="1" /><text x="78.2" y="511" font-size="12" text-anchor="middle">0.0%</text><line x1="203.20000000000002" y1="494" x2="203.20000000000002" y2="499" stroke="#000000" stroke-width="1" /><text x="203.20000000000002" y="511" font-size="12" text-anchor="middle">25.0%</text><line x1="328.2" y1="494" x2="328.2" y2="499" stroke="#000000" stroke-width="1" /><text x="328.2" y="511" font-size="12" text-anchor="middle">50.0%</text><line x1="453.2" y1="494" x2="453.2" y2="499" stroke="#000000" stroke-width="1" /><text x="453.2" y="511" font-size="12" text-anchor="middle">75.0%</text><line x1="578.2" y1="494" x2="578.2" y2="499" stroke="#000000" stroke-width="1" /><text x="578.2" y="511" font-size="12" text-anchor="middle">100.0%</text><line x1="73.2" y1="494" x2="78.2" y2="494" stroke="#000000" stroke-width="1" /><text x="70.2" y="498.2" font-size="12" text-anchor="end">0.0%</text><line x1="73.2" y1="400.25" x2="78.2" y2="400.25" stroke="#000000" stroke-width="1" /><text x="70.2" y="404.45" font-size="12" text-anchor="end">25.0%</text><line x1="73.2" y1="306.5" x2="78.2" y2="306.5" stroke="#000000" stroke-width="1" /><text x="70.2" y="310.7" font-size="12" text-anchor="end">50.0%</text><line x1="73.2" y1="212.75" x2="78.2" y2="212.75" stroke="#000000" stroke-width="1" /><text x="70.2" y="216.95000000000002" font-size="12" text-anchor="end">75.0%</text><line x1="73.2" y1="119" x2="78.2" y2="119" stroke="#000000" stroke-width="1" /><text x="70.2" y="123.2" font-size="12" text-anchor="end">100.0%</text><text x="349.90000000000003" y="27.400000000000002" font-size="18" text-anchor="middle">Percent</text><g clip-path="url(#kuva-clip-3)"><circle cx="78.2" cy="494" r="5" fill="#4682b4" /><circle cx="203.20000000000002" cy="400.25" r="5" fill="#4682b4" /><circle cx="328.2" cy="306.5" r="5" fill="#4682b4" /><circle cx="453.2" cy="212.75" r="5" fill="#4682b4" /><circle cx="578.2" cy="119" r="5" fill="#4682b4" /></g></svg>