<svg xmlns="http://www.w3.org/2000/svg" width="280" height="220" font-family="DejaVu Sans, Liberation Sans, Arial, sans-serif" fill="black"><rect width="100%" height="100%" fill="white" /><defs><clipPath id="kuva-clip-5"><rect x="59" y="44" width="206.6" height="125"/></clipPath></defs><line x1="102.04" y1="44" x2="102.04" y2="169" stroke="#cccccc" stroke-width="1" /><line x1="145.08" y1="44" x2="145.08" y2="169" stroke="#cccccc" stroke-width="1" /><line x1="188.13" y1="44" x2="188.13" y2="169" stroke="#cccccc" stroke-width="1" /><line x1="231.17000000000002" y1="44" x2="231.17000000000002" y2="169" stroke="#cccccc" stroke-width="1" /><line x1="59" y1="151.14000000000001" x2="265.6" y2="151.14000000000001" stroke="#cccccc" stroke-width="1" /><line x1="59" y1="133.29" x2="265.6" y2="133.29" stroke="#cccccc" stroke-width="1" /><line x1="59" y1="115.43" x2="265.6" y2="115.43" stroke="#cccccc" stroke-width="1" /><line x1="59" y1="97.57000000000001" x2="265.6" y2="97.57000000000001" stroke="#cccccc" stroke-width="1" /><line x1="59" y1="79.71000000000001" x2="265.6" y2="79.71000000000001" stroke="#cccccc" stroke-width="1" /><line x1="59" y1="61.86" x2="265.6" y2="61.86" stroke="#cccccc" stroke-width="1" /><line x1="59" y1="44" x2="265.6" y2="44" stroke="#cccccc" stroke-width="1" /><line x1="59" y1="169" x2="265.6" y2="169" stroke="#000000" stroke-width="1" /><line x1="59" y1="44" x2="59" y2="169" stroke="#000000" stroke-width="1" /><line x1="59" y1="169" x2="59" y2="174" stroke="#000000" stroke-width="1" /><text x="59" y="186" font-size="12" text-anchor="middle">0</text><line x1="102.04" y1="169" x2="102.04" y2="174" stroke="#000000" stroke-width="1" /><text x="102.04" y="186" font-size="12" text-anchor="middle">2.5</text><line x1="145.08" y1="169" x2="145.08" y2="174" stroke="#000000" stroke-width="1" /><text x="145.08" y="186" font-size="12" text-anchor="middle">5</text><line x1="188.13" y1="169" x2="188.13" y2="174" stroke="#000000" stroke-width="1" /><text x="188.13" y="186" font-size="12" text-anchor="middle">7.5</text><line x1="231.17000000000002" y1="169" x2="231.17000000000002" y2="174" stroke="#000000" stroke-width="1" /><text x="231.17000000000002" y="186" font-size="12" text-anchor="middle">10</text><line x1="54" y1="169" x2="59" y2="169" stroke="#000000" stroke-width="1" /><text x="51" y="173.20000000000002" font-size="12" text-anchor="end">0</text><line x1="54" y1="151.14000000000001" x2="59" y2="151.14000000000001" stroke="#000000" stroke-width="1" /><text x="51" y="155.34" font-size="12" text-anchor="end">1</text><line x1="54" y1="133.29" x2="59" y2="133.29" stroke="#000000" stroke-width="1" /><text x="51" y="137.49" font-size="12" text-anchor="end">2</text><line x1="54" y1="115.43" x2="59" y2="115.43" stroke="#000000" stroke-width="1" /><text x="51" y="119.63" font-size="12" text-anchor="end">3</text><line x1="54" y1="97.57000000000001" x2="59" y2="97.57000000000001" stroke="#000000" stroke-width="1" /><text x="51" y="101.77" font-size="12" text-anchor="end">4</text><line x1="54" y1="79.71000000000001" x2="59" y2="79.71000000000001" stroke="#000000" stroke-width="1" /><text x="51" y="83.91" font-size="12" text-anchor="end">5</text><line x1="54" y1="61.86" x2="59" y2="61.86" stroke="#000000" stroke-width="1" /><text x="51" y="66.06" font-size="12" text-anchor="end">6</text><line x1="54" y1="44" x2="59" y2="44" stroke="#000000" stroke-width="1" /><text x="51" y="48.2" font-size="12" text-anchor="end">7</text><text x="140" y="27.400000000000002" font-size="18" text-anchor="middle">Defaults</text><g clip-path="url(#kuva-clip-5)"><circle cx="59" cy="97.57000000000001" r="4" fill="#4682b4" /><circle cx="76.22" cy="67.32000000000001" r="4" fill="#4682b4" /><circle cx="93.43" cy="47.64" r="4" fill="#4682b4" /><circle cx="110.65" cy="45.4" r="4" fill="#4682b4" /><circle cx="127.87" cy="61.39" r="4" fill="#4682b4" /><circle cx="145.08" cy="90.01" r="4" fill="#4682b4" /><circle cx="162.3" cy="121.28" r="4" fill="#4682b4" /><circle cx="179.52" cy="144.26" r="4" fill="#4682b4" /><circle cx="196.73000000000002" cy="150.94" r="4" fill="#4682b4" /><circle cx="213.95000000000002" cy="138.97" r="4" fill="#4682b4" /><circle cx="231.17000000000002" cy="112.54" r="4" fill="#4682b4" /></g></svg>