<svg xmlns="http://www.w3.org/2000/svg" width="280" height="220" font-family="DejaVu Sans, Liberation Sans, Arial, sans-serif" fill="black"><rect width="100%" height="100%" fill="white" /><defs><clipPath id="kuva-clip-6"><rect x="64" y="44" width="201.6" height="120"/></clipPath></defs><line x1="106" y1="44" x2="106" y2="164" stroke="#cccccc" stroke-width="0.5" /><line x1="148" y1="44" x2="148" y2="164" stroke="#cccccc" stroke-width="0.5" /><line x1="190" y1="44" x2="190" y2="164" stroke="#cccccc" stroke-width="0.5" /><line x1="232" y1="44" x2="232" y2="164" stroke="#cccccc" stroke-width="0.5" /><line x1="64" y1="146.86" x2="265.6" y2="146.86" stroke="#cccccc" stroke-width="0.5" /><line x1="64" y1="129.71" x2="265.6" y2="129.71" stroke="#cccccc" stroke-width="0.5" /><line x1="64" y1="112.57000000000001" x2="265.6" y2="112.57000000000001" stroke="#cccccc" stroke-width="0.5" /><line x1="64" y1="95.43" x2="265.6" y2="95.43" stroke="#cccccc" stroke-width="0.5" /><line x1="64" y1="78.29" x2="265.6" y2="78.29" stroke="#cccccc" stroke-width="0.5" /><line x1="64" y1="61.14" x2="265.6" y2="61.14" stroke="#cccccc" stroke-width="0.5" /><line x1="64" y1="44" x2="265.6" y2="44" stroke="#cccccc" stroke-width="0.5" /><line x1="64" y1="164" x2="265.6" y2="164" stroke="#000000" stroke-width="2" /><line x1="64" y1="44" x2="64" y2="164" stroke="#000000" stroke-width="2" /><line x1="64" y1="164" x2="64" y2="174" stroke="#000000" stroke-width="1.5" /><text x="64" y="186" font-size="12" text-anchor="middle">0</text><line x1="106" y1="164" x2="106" y2="174" stroke="#000000" stroke-width="1.5" /><text x="106" y="186" font-size="12" text-anchor="middle">2.5</text><line x1="148" y1="164" x2="148" y2="174" stroke="#000000" stroke-width="1.5" /><text x="148" y="186" font-size="12" text-anchor="middle">5</text><line x1="190" y1="164" x2="190" y2="174" stroke="#000000" stroke-width="1.5" /><text x="190" y="186" font-size="12" text-anchor="middle">7.5</text><line x1="232" y1="164" x2="232" y2="174" stroke="#000000" stroke-width="1.5" /><text x="232" y="186" font-size="12" text-anchor="middle">10</text><line x1="54" y1="164" x2="64" y2="164" stroke="#000000" stroke-width="1.5" /><text x="51" y="168.20000000000002" font-size="12" text-anchor="end">0</text><line x1="54" y1="146.86" x2="64" y2="146.86" stroke="#000000" stroke-width="1.5" /><text x="51" y="151.06" font-size="12" text-anchor="end">1</text><line x1="54" y1="129.71" x2="64" y2="129.71" stroke="#000000" stroke-width="1.5" /><text x="51" y="133.91" font-size="12" text-anchor="end">2</text><line x1="54" y1="112.57000000000001" x2="64" y2="112.57000000000001" stroke="#000000" stroke-width="1.5" /><text x="51" y="116.77" font-size="12" text-anchor="end">3</text><line x1="54" y1="95.43" x2="64" y2="95.43" stroke="#000000" stroke-width="1.5" /><text x="51" y="99.63" font-size="12" text-anchor="end">4</text><line x1="54" y1="78.29" x2="64" y2="78.29" stroke="#000000" stroke-width="1.5" /><text x="51" y="82.49" font-size="12" text-anchor="end">5</text><line x1="54" y1="61.14" x2="64" y2="61.14" stroke="#000000" stroke-width="1.5" /><text x="51" y="65.34" font-size="12" text-anchor="end">6</text><line x1="54" y1="44" x2="64" y2="44" stroke="#000000" stroke-width="1.5" /><text x="51" y="48.2" font-size="12" text-anchor="end">7</text><text x="140" y="27.400000000000002" font-size="18" text-anchor="middle">Heavy / long ticks</text><g clip-path="url(#kuva-clip-6)"><circle cx="64" cy="95.43" r="4" fill="#4682b4" /><circle cx="80.8" cy="66.39" r="4" fill="#4682b4" /><circle cx="97.60000000000001" cy="47.5" r="4" fill="#4682b4" /><circle cx="114.4" cy="45.34" r="4" fill="#4682b4" /><circle cx="131.2" cy="60.69" r="4" fill="#4682b4" /><circle cx="148" cy="88.17" r="4" fill="#4682b4" /><circle cx="164.8" cy="118.19" r="4" fill="#4682b4" /><circle cx="181.6" cy="140.25" r="4" fill="#4682b4" /><circle cx="198.4" cy="146.66" r="4" fill="#4682b4" /><circle cx="215.20000000000002" cy="135.17000000000002" r="4" fill="#4682b4" /><circle cx="232" cy="109.8" r="4" fill="#4682b4" /></g></svg>