<svg xmlns="http://www.w3.org/2000/svg" width="686.2" height="545" font-family="DejaVu Sans, Liberation Sans, Arial, sans-serif" fill="black"><rect width="100%" height="100%" fill="white" /><line x1="72.2" y1="494" x2="672.2" y2="494" stroke="#000000" stroke-width="1" /><line x1="72.2" y1="44" x2="72.2" y2="494" stroke="#000000" stroke-width="1" /><line x1="197.20000000000002" y1="44" x2="197.20000000000002" y2="494" stroke="#cccccc" stroke-width="1" /><line x1="322.2" y1="44" x2="322.2" y2="494" stroke="#cccccc" stroke-width="1" /><line x1="447.2" y1="44" x2="447.2" y2="494" stroke="#cccccc" stroke-width="1" /><line x1="572.2" y1="44" x2="572.2" y2="494" stroke="#cccccc" stroke-width="1" /><line x1="72.2" y1="400.25" x2="672.2" y2="400.25" stroke="#cccccc" stroke-width="1" /><line x1="72.2" y1="306.5" x2="672.2" y2="306.5" stroke="#cccccc" stroke-width="1" /><line x1="72.2" y1="212.75" x2="672.2" y2="212.75" stroke="#cccccc" stroke-width="1" /><line x1="72.2" y1="119" x2="672.2" y2="119" stroke="#cccccc" stroke-width="1" /><line x1="72.2" y1="494" x2="72.2" y2="499" stroke="#000000" stroke-width="1" /><text x="72.2" y="511" font-size="12" text-anchor="middle">0.0%</text><line x1="197.20000000000002" y1="494" x2="197.20000000000002" y2="499" stroke="#000000" stroke-width="1" /><text x="197.20000000000002" y="511" font-size="12" text-anchor="middle">25.0%</text><line x1="322.2" y1="494" x2="322.2" y2="499" stroke="#000000" stroke-width="1" /><text x="322.2" y="511" font-size="12" text-anchor="middle">50.0%</text><line x1="447.2" y1="494" x2="447.2" y2="499" stroke="#000000" stroke-width="1" /><text x="447.2" y="511" font-size="12" text-anchor="middle">75.0%</text><line x1="572.2" y1="494" x2="572.2" y2="499" stroke="#000000" stroke-width="1" /><text x="572.2" y="511" font-size="12" text-anchor="middle">100.0%</text><line x1="67.2" y1="494" x2="72.2" y2="494" stroke="#000000" stroke-width="1" /><text x="64.2" y="498.2" font-size="12" text-anchor="end">0.0%</text><line x1="67.2" y1="400.25" x2="72.2" y2="400.25" stroke="#000000" stroke-width="1" /><text x="64.2" y="404.45" font-size="12" text-anchor="end">25.0%</text><line x1="67.2" y1="306.5" x2="72.2" y2="306.5" stroke="#000000" stroke-width="1" /><text x="64.2" y="310.7" font-size="12" text-anchor="end">50.0%</text><line x1="67.2" y1="212.75" x2="72.2" y2="212.75" stroke="#000000" stroke-width="1" /><text x="64.2" y="216.95000000000002" font-size="12" text-anchor="end">75.0%</text><line x1="67.2" y1="119" x2="72.2" y2="119" stroke="#000000" stroke-width="1" /><text x="64.2" y="123.2" font-size="12" text-anchor="end">100.0%</text><text x="372.2" y="22" font-size="18" text-anchor="middle">Percent</text><circle cx="72.2" cy="494" r="5" fill="#4682b4" /><circle cx="197.20000000000002" cy="400.25" r="5" fill="#4682b4" /><circle cx="322.2" cy="306.5" r="5" fill="#4682b4" /><circle cx="447.2" cy="212.75" r="5" fill="#4682b4" /><circle cx="572.2" cy="119" r="5" fill="#4682b4" /></svg>