<svg xmlns="http://www.w3.org/2000/svg" width="673.4" height="545" font-family="DejaVu Sans, Liberation Sans, Arial, sans-serif" fill="black"><rect width="100%" height="100%" fill="white" /><text x="336.7" y="27.400000000000002" font-size="18" text-anchor="middle">Clustermap</text><line x1="99" y1="153" x2="99" y2="211" stroke="#000000" stroke-width="1" /><line x1="99" y1="153" x2="159" y2="153" stroke="#000000" stroke-width="1" /><line x1="99" y1="211" x2="159" y2="211" stroke="#000000" stroke-width="1" /><line x1="129" y1="327" x2="129" y2="385" stroke="#000000" stroke-width="1" /><line x1="129" y1="327" x2="159" y2="327" stroke="#000000" stroke-width="1" /><line x1="129" y1="385" x2="159" y2="385" stroke="#000000" stroke-width="1" /><line x1="99" y1="269" x2="99" y2="356" stroke="#000000" stroke-width="1" /><line x1="99" y1="269" x2="159" y2="269" stroke="#000000" stroke-width="1" /><line x1="99" y1="356" x2="129" y2="356" stroke="#000000" stroke-width="1" /><line x1="69" y1="182" x2="69" y2="312.5" stroke="#000000" stroke-width="1" /><line x1="69" y1="182" x2="99" y2="182" stroke="#000000" stroke-width="1" /><line x1="69" y1="312.5" x2="99" y2="312.5" stroke="#000000" stroke-width="1" /><line x1="206" y1="86.5" x2="300" y2="86.5" stroke="#000000" stroke-width="1" /><line x1="206" y1="86.5" x2="206" y2="124" stroke="#000000" stroke-width="1" /><line x1="300" y1="86.5" x2="300" y2="124" stroke="#000000" stroke-width="1" /><line x1="488" y1="105.25" x2="582" y2="105.25" stroke="#000000" stroke-width="1" /><line x1="488" y1="105.25" x2="488" y2="124" stroke="#000000" stroke-width="1" /><line x1="582" y1="105.25" x2="582" y2="124" stroke="#000000" stroke-width="1" /><line x1="394" y1="67.75" x2="535" y2="67.75" stroke="#000000" stroke-width="1" /><line x1="394" y1="67.75" x2="394" y2="124" stroke="#000000" stroke-width="1" /><line x1="535" y1="67.75" x2="535" y2="105.25" stroke="#000000" stroke-width="1" /><line x1="253" y1="49" x2="464.5" y2="49" stroke="#000000" stroke-width="1" /><line x1="253" y1="49" x2="253" y2="86.5" stroke="#000000" stroke-width="1" /><line x1="464.5" y1="49" x2="464.5" y2="67.75" stroke="#000000" stroke-width="1" /><rect x="159" y="124" width="93.06" height="57.42" fill="#440154" /><rect x="253" y="124" width="93.06" height="57.42" fill="#472c7a" /><rect x="347" y="124" width="93.06" height="57.42" fill="#440154" /><rect x="441" y="124" width="93.06" height="57.42" fill="#aadb31" /><rect x="535" y="124" width="93.06" height="57.42" fill="#fde725" /><rect x="159" y="182" width="93.06" height="57.42" fill="#472c7a" /><rect x="253" y="182" width="93.06" height="57.42" fill="#440154" /><rect x="347" y="182" width="93.06" height="57.42" fill="#440154" /><rect x="441" y="182" width="93.06" height="57.42" fill="#fde725" /><rect x="535" y="182" width="93.06" height="57.42" fill="#aadb31" /><rect x="159" y="240" width="93.06" height="57.42" fill="#aadb31" /><rect x="253" y="240" width="93.06" height="57.42" fill="#fde725" /><rect x="347" y="240" width="93.06" height="57.42" fill="#472c7a" /><rect x="441" y="240" width="93.06" height="57.42" fill="#440154" /><rect x="535" y="240" width="93.06" height="57.42" fill="#440154" /><rect x="159" y="298" width="93.06" height="57.42" fill="#fde725" /><rect x="253" y="298" width="93.06" height="57.42" fill="#aadb31" /><rect x="347" y="298" width="93.06" height="57.42" fill="#440154" /><rect x="441" y="298" width="93.06" height="57.42" fill="#440154" /><rect x="535" y="298" width="93.06" height="57.42" fill="#472c7a" /><rect x="159" y="356" width="93.06" height="57.42" fill="#fde725" /><rect x="253" y="356" width="93.06" height="57.42" fill="#aadb31" /><rect x="347" y="356" width="93.06" height="57.42" fill="#440154" /><rect x="441" y="356" width="93.06" height="57.42" fill="#472c7a" /><rect x="535" y="356" width="93.06" height="57.42" fill="#440154" /><text x="635" y="157.20000000000002" font-size="12" text-anchor="start">B</text><text x="635" y="215.20000000000002" font-size="12" text-anchor="start">C</text><text x="635" y="273.2" font-size="12" text-anchor="start">D</text><text x="635" y="331.2" font-size="12" text-anchor="start">A</text><text x="635" y="389.2" font-size="12" text-anchor="start">E</text><text x="206" y="420" font-size="12" text-anchor="end" transform="rotate(-45,206,420)">X1</text><text x="300" y="420" font-size="12" text-anchor="end" transform="rotate(-45,300,420)">X5</text><text x="394" y="420" font-size="12" text-anchor="end" transform="rotate(-45,394,420)">X4</text><text x="488" y="420" font-size="12" text-anchor="end" transform="rotate(-45,488,420)">X2</text><text x="582" y="420" font-size="12" text-anchor="end" transform="rotate(-45,582,420)">X3</text></svg>