<svg xmlns="http://www.w3.org/2000/svg" width="673.4" height="545" font-family="DejaVu Sans, Liberation Sans, Arial, sans-serif" fill="black"><rect width="100%" height="100%" fill="white" /><text x="336.7" y="27.400000000000002" font-size="18" text-anchor="middle">Equal-distance dendrogram</text><line x1="114" y1="153" x2="114" y2="211" stroke="#000000" stroke-width="1" /><line x1="114" y1="153" x2="159" y2="153" stroke="#000000" stroke-width="1" /><line x1="114" y1="211" x2="159" y2="211" stroke="#000000" stroke-width="1" /><line x1="114" y1="327" x2="114" y2="385" stroke="#000000" stroke-width="1" /><line x1="114" y1="327" x2="159" y2="327" stroke="#000000" stroke-width="1" /><line x1="114" y1="385" x2="159" y2="385" stroke="#000000" stroke-width="1" /><line x1="114" y1="269" x2="114" y2="356" stroke="#000000" stroke-width="1" /><line x1="114" y1="269" x2="159" y2="269" stroke="#000000" stroke-width="1" /><line x1="114" y1="356" x2="114" y2="356" stroke="#000000" stroke-width="1" /><line x1="69" y1="182" x2="69" y2="312.5" stroke="#000000" stroke-width="1" /><line x1="69" y1="182" x2="114" y2="182" stroke="#000000" stroke-width="1" /><line x1="69" y1="312.5" x2="114" y2="312.5" stroke="#000000" stroke-width="1" /><line x1="452.75" y1="99" x2="570.25" y2="99" stroke="#000000" stroke-width="1" /><line x1="452.75" y1="99" x2="452.75" y2="124" stroke="#000000" stroke-width="1" /><line x1="570.25" y1="99" x2="570.25" y2="124" stroke="#000000" stroke-width="1" /><line x1="335.25" y1="74" x2="511.5" y2="74" stroke="#000000" stroke-width="1" /><line x1="335.25" y1="74" x2="335.25" y2="124" stroke="#000000" stroke-width="1" /><line x1="511.5" y1="74" x2="511.5" y2="99" stroke="#000000" stroke-width="1" /><line x1="217.75" y1="49" x2="423.38" y2="49" stroke="#000000" stroke-width="1" /><line x1="217.75" y1="49" x2="217.75" y2="124" stroke="#000000" stroke-width="1" /><line x1="423.38" y1="49" x2="423.38" y2="74" stroke="#000000" stroke-width="1" /><rect x="159" y="124" width="116.33" height="57.42" fill="#440154" /><rect x="276.5" y="124" width="116.33" height="57.42" fill="#fde725" /><rect x="394" y="124" width="116.33" height="57.42" fill="#440154" /><rect x="511.5" y="124" width="116.33" height="57.42" fill="#440154" /><rect x="159" y="182" width="116.33" height="57.42" fill="#440154" /><rect x="276.5" y="182" width="116.33" height="57.42" fill="#fde725" /><rect x="394" y="182" width="116.33" height="57.42" fill="#440154" /><rect x="511.5" y="182" width="116.33" height="57.42" fill="#440154" /><rect x="159" y="240" width="116.33" height="57.42" fill="#fde725" /><rect x="276.5" y="240" width="116.33" height="57.42" fill="#440154" /><rect x="394" y="240" width="116.33" height="57.42" fill="#440154" /><rect x="511.5" y="240" width="116.33" height="57.42" fill="#440154" /><rect x="159" y="298" width="116.33" height="57.42" fill="#fde725" /><rect x="276.5" y="298" width="116.33" height="57.42" fill="#440154" /><rect x="394" y="298" width="116.33" height="57.42" fill="#440154" /><rect x="511.5" y="298" width="116.33" height="57.42" fill="#440154" /><rect x="159" y="356" width="116.33" height="57.42" fill="#fde725" /><rect x="276.5" y="356" width="116.33" height="57.42" fill="#440154" /><rect x="394" y="356" width="116.33" height="57.42" fill="#440154" /><rect x="511.5" y="356" width="116.33" height="57.42" fill="#440154" /><text x="635" y="157.20000000000002" font-size="12" text-anchor="start">B</text><text x="635" y="215.20000000000002" font-size="12" text-anchor="start">C</text><text x="635" y="273.2" font-size="12" text-anchor="start">E</text><text x="635" y="331.2" font-size="12" text-anchor="start">A</text><text x="635" y="389.2" font-size="12" text-anchor="start">D</text><text x="217.75" y="420" font-size="12" text-anchor="end" transform="rotate(-45,217.75,420)">c1</text><text x="335.25" y="420" font-size="12" text-anchor="end" transform="rotate(-45,335.25,420)">c2</text><text x="452.75" y="420" font-size="12" text-anchor="end" transform="rotate(-45,452.75,420)">c3</text><text x="570.25" y="420" font-size="12" text-anchor="end" transform="rotate(-45,570.25,420)">c4</text></svg>