<svg xmlns="http://www.w3.org/2000/svg" width="520" height="420" font-family="DejaVu Sans, Liberation Sans, Arial, sans-serif" fill="black"><rect width="100%" height="100%" fill="white" /><text x="260" y="27.400000000000002" font-size="18" text-anchor="middle">Gene Expression Clustermap</text><line x1="133.29" y1="134.31" x2="133.29" y2="154.94" stroke="#000000" stroke-width="1" /><line x1="133.29" y1="134.31" x2="159" y2="134.31" stroke="#000000" stroke-width="1" /><line x1="133.29" y1="154.94" x2="159" y2="154.94" stroke="#000000" stroke-width="1" /><line x1="146.14000000000001" y1="175.56" x2="146.14000000000001" y2="196.19" stroke="#000000" stroke-width="1" /><line x1="146.14000000000001" y1="175.56" x2="159" y2="175.56" stroke="#000000" stroke-width="1" /><line x1="146.14000000000001" y1="196.19" x2="159" y2="196.19" stroke="#000000" stroke-width="1" /><line x1="120.43" y1="216.81" x2="120.43" y2="237.44" stroke="#000000" stroke-width="1" /><line x1="120.43" y1="216.81" x2="159" y2="216.81" stroke="#000000" stroke-width="1" /><line x1="120.43" y1="237.44" x2="159" y2="237.44" stroke="#000000" stroke-width="1" /><line x1="107.57000000000001" y1="258.06" x2="107.57000000000001" y2="278.69" stroke="#000000" stroke-width="1" /><line x1="107.57000000000001" y1="258.06" x2="159" y2="258.06" stroke="#000000" stroke-width="1" /><line x1="107.57000000000001" y1="278.69" x2="159" y2="278.69" stroke="#000000" stroke-width="1" /><line x1="94.71000000000001" y1="227.13" x2="94.71000000000001" y2="268.38" stroke="#000000" stroke-width="1" /><line x1="94.71000000000001" y1="227.13" x2="120.43" y2="227.13" stroke="#000000" stroke-width="1" /><line x1="94.71000000000001" y1="268.38" x2="107.57000000000001" y2="268.38" stroke="#000000" stroke-width="1" /><line x1="81.86" y1="185.88" x2="81.86" y2="247.75" stroke="#000000" stroke-width="1" /><line x1="81.86" y1="185.88" x2="146.14000000000001" y2="185.88" stroke="#000000" stroke-width="1" /><line x1="81.86" y1="247.75" x2="94.71000000000001" y2="247.75" stroke="#000000" stroke-width="1" /><line x1="69" y1="144.63" x2="69" y2="216.81" stroke="#000000" stroke-width="1" /><line x1="69" y1="144.63" x2="133.29" y2="144.63" stroke="#000000" stroke-width="1" /><line x1="69" y1="216.81" x2="81.86" y2="216.81" stroke="#000000" stroke-width="1" /><line x1="184.13" y1="94" x2="234.4" y2="94" stroke="#000000" stroke-width="1" /><line x1="184.13" y1="94" x2="184.13" y2="124" stroke="#000000" stroke-width="1" /><line x1="234.4" y1="94" x2="234.4" y2="124" stroke="#000000" stroke-width="1" /><line x1="284.67" y1="109" x2="334.93" y2="109" stroke="#000000" stroke-width="1" /><line x1="284.67" y1="109" x2="284.67" y2="124" stroke="#000000" stroke-width="1" /><line x1="334.93" y1="109" x2="334.93" y2="124" stroke="#000000" stroke-width="1" /><line x1="385.2" y1="79" x2="435.47" y2="79" stroke="#000000" stroke-width="1" /><line x1="385.2" y1="79" x2="385.2" y2="124" stroke="#000000" stroke-width="1" /><line x1="435.47" y1="79" x2="435.47" y2="124" stroke="#000000" stroke-width="1" /><line x1="309.8" y1="64" x2="410.33" y2="64" stroke="#000000" stroke-width="1" /><line x1="309.8" y1="64" x2="309.8" y2="109" stroke="#000000" stroke-width="1" /><line x1="410.33" y1="64" x2="410.33" y2="79" stroke="#000000" stroke-width="1" /><line x1="209.27" y1="49" x2="360.07" y2="49" stroke="#000000" stroke-width="1" /><line x1="209.27" y1="49" x2="209.27" y2="94" stroke="#000000" stroke-width="1" /><line x1="360.07" y1="49" x2="360.07" y2="64" stroke="#000000" stroke-width="1" /><rect x="159" y="124" width="49.76" height="20.42" fill="#fde725" /><rect x="209.27" y="124" width="49.76" height="20.42" fill="#dee318" /><rect x="259.53000000000003" y="124" width="49.76" height="20.42" fill="#450558" /><rect x="309.8" y="124" width="49.76" height="20.42" fill="#440154" /><rect x="360.07" y="124" width="49.76" height="20.42" fill="#460a5d" /><rect x="410.33" y="124" width="49.76" height="20.42" fill="#440154" /><rect x="159" y="144.63" width="49.76" height="20.42" fill="#d6e219" /><rect x="209.27" y="144.63" width="49.76" height="20.42" fill="#f5e51f" /><rect x="259.53000000000003" y="144.63" width="49.76" height="20.42" fill="#440154" /><rect x="309.8" y="144.63" width="49.76" height="20.42" fill="#460a5d" /><rect x="360.07" y="144.63" width="49.76" height="20.42" fill="#450558" /><rect x="410.33" y="144.63" width="49.76" height="20.42" fill="#450558" /><rect x="159" y="165.25" width="49.76" height="20.42" fill="#440154" /><rect x="209.27" y="165.25" width="49.76" height="20.42" fill="#460a5d" /><rect x="259.53000000000003" y="165.25" width="49.76" height="20.42" fill="#470e61" /><rect x="309.8" y="165.25" width="49.76" height="20.42" fill="#450558" /><rect x="360.07" y="165.25" width="49.76" height="20.42" fill="#f5e51f" /><rect x="410.33" y="165.25" width="49.76" height="20.42" fill="#dee318" /><rect x="159" y="185.88" width="49.76" height="20.42" fill="#470e61" /><rect x="209.27" y="185.88" width="49.76" height="20.42" fill="#450558" /><rect x="259.53000000000003" y="185.88" width="49.76" height="20.42" fill="#460a5d" /><rect x="309.8" y="185.88" width="49.76" height="20.42" fill="#440154" /><rect x="360.07" y="185.88" width="49.76" height="20.42" fill="#d6e219" /><rect x="410.33" y="185.88" width="49.76" height="20.42" fill="#eee51b" /><rect x="159" y="206.5" width="49.76" height="20.42" fill="#440154" /><rect x="209.27" y="206.5" width="49.76" height="20.42" fill="#450558" /><rect x="259.53000000000003" y="206.5" width="49.76" height="20.42" fill="#bdde25" /><rect x="309.8" y="206.5" width="49.76" height="20.42" fill="#e6e419" /><rect x="360.07" y="206.5" width="49.76" height="20.42" fill="#450558" /><rect x="410.33" y="206.5" width="49.76" height="20.42" fill="#460a5d" /><rect x="159" y="227.13" width="49.76" height="20.42" fill="#460a5d" /><rect x="209.27" y="227.13" width="49.76" height="20.42" fill="#440154" /><rect x="259.53000000000003" y="227.13" width="49.76" height="20.42" fill="#eee51b" /><rect x="309.8" y="227.13" width="49.76" height="20.42" fill="#c5df20" /><rect x="360.07" y="227.13" width="49.76" height="20.42" fill="#440154" /><rect x="410.33" y="227.13" width="49.76" height="20.42" fill="#470e61" /><rect x="159" y="247.75" width="49.76" height="20.42" fill="#20908c" /><rect x="209.27" y="247.75" width="49.76" height="20.42" fill="#440154" /><rect x="259.53000000000003" y="247.75" width="49.76" height="20.42" fill="#23878e" /><rect x="309.8" y="247.75" width="49.76" height="20.42" fill="#450558" /><rect x="360.07" y="247.75" width="49.76" height="20.42" fill="#218d8d" /><rect x="410.33" y="247.75" width="49.76" height="20.42" fill="#460a5d" /><rect x="159" y="268.38" width="49.76" height="20.42" fill="#460a5d" /><rect x="209.27" y="268.38" width="49.76" height="20.42" fill="#218d8d" /><rect x="259.53000000000003" y="268.38" width="49.76" height="20.42" fill="#450558" /><rect x="309.8" y="268.38" width="49.76" height="20.42" fill="#228a8d" /><rect x="360.07" y="268.38" width="49.76" height="20.42" fill="#440154" /><rect x="410.33" y="268.38" width="49.76" height="20.42" fill="#1f928c" /><text x="466.6" y="138.51" font-size="12" text-anchor="start">Gene5</text><text x="466.6" y="159.14000000000001" font-size="12" text-anchor="start">Gene6</text><text x="466.6" y="179.76" font-size="12" text-anchor="start">Gene1</text><text x="466.6" y="200.39000000000001" font-size="12" text-anchor="start">Gene2</text><text x="466.6" y="221.01" font-size="12" text-anchor="start">Gene3</text><text x="466.6" y="241.64000000000001" font-size="12" text-anchor="start">Gene4</text><text x="466.6" y="262.26" font-size="12" text-anchor="start">Gene7</text><text x="466.6" y="282.89" font-size="12" text-anchor="start">Gene8</text><text x="184.13" y="295" font-size="12" text-anchor="end" transform="rotate(-45,184.13,295)">StimA</text><text x="234.4" y="295" font-size="12" text-anchor="end" transform="rotate(-45,234.4,295)">StimB</text><text x="284.67" y="295" font-size="12" text-anchor="end" transform="rotate(-45,284.67,295)">TreatA</text><text x="334.93" y="295" font-size="12" text-anchor="end" transform="rotate(-45,334.93,295)">TreatB</text><text x="385.2" y="295" font-size="12" text-anchor="end" transform="rotate(-45,385.2,295)">CtrlA</text><text x="435.47" y="295" font-size="12" text-anchor="end" transform="rotate(-45,435.47,295)">CtrlB</text></svg>