<svg xmlns="http://www.w3.org/2000/svg" width="673.4" height="545" font-family="DejaVu Sans, Liberation Sans, Arial, sans-serif" fill="black"><rect width="100%" height="100%" fill="white" /><text x="336.7" y="27.400000000000002" font-size="18" text-anchor="middle">No clustering (values shown)</text><rect x="59" y="44" width="112.86" height="73.26" fill="#fde725" /><rect x="173" y="44" width="112.86" height="73.26" fill="#440154" /><rect x="287" y="44" width="112.86" height="73.26" fill="#472c7a" /><rect x="401" y="44" width="112.86" height="73.26" fill="#440154" /><rect x="515" y="44" width="112.86" height="73.26" fill="#aadb31" /><rect x="59" y="118" width="112.86" height="73.26" fill="#440154" /><rect x="173" y="118" width="112.86" height="73.26" fill="#aadb31" /><rect x="287" y="118" width="112.86" height="73.26" fill="#fde725" /><rect x="401" y="118" width="112.86" height="73.26" fill="#440154" /><rect x="515" y="118" width="112.86" height="73.26" fill="#472c7a" /><rect x="59" y="192" width="112.86" height="73.26" fill="#472c7a" /><rect x="173" y="192" width="112.86" height="73.26" fill="#fde725" /><rect x="287" y="192" width="112.86" height="73.26" fill="#aadb31" /><rect x="401" y="192" width="112.86" height="73.26" fill="#440154" /><rect x="515" y="192" width="112.86" height="73.26" fill="#440154" /><rect x="59" y="266" width="112.86" height="73.26" fill="#aadb31" /><rect x="173" y="266" width="112.86" height="73.26" fill="#440154" /><rect x="287" y="266" width="112.86" height="73.26" fill="#440154" /><rect x="401" y="266" width="112.86" height="73.26" fill="#472c7a" /><rect x="515" y="266" width="112.86" height="73.26" fill="#fde725" /><rect x="59" y="340" width="112.86" height="73.26" fill="#fde725" /><rect x="173" y="340" width="112.86" height="73.26" fill="#472c7a" /><rect x="287" y="340" width="112.86" height="73.26" fill="#440154" /><rect x="401" y="340" width="112.86" height="73.26" fill="#440154" /><rect x="515" y="340" width="112.86" height="73.26" fill="#aadb31" /><text x="116" y="85.2" font-size="12" text-anchor="middle">0.90</text><text x="230" y="85.2" font-size="12" text-anchor="middle">0.10</text><text x="344" y="85.2" font-size="12" text-anchor="middle">0.20</text><text x="458" y="85.2" font-size="12" text-anchor="middle">0.10</text><text x="572" y="85.2" font-size="12" text-anchor="middle">0.80</text><text x="116" y="159.20000000000002" font-size="12" text-anchor="middle">0.10</text><text x="230" y="159.20000000000002" font-size="12" text-anchor="middle">0.80</text><text x="344" y="159.20000000000002" font-size="12" text-anchor="middle">0.90</text><text x="458" y="159.20000000000002" font-size="12" text-anchor="middle">0.10</text><text x="572" y="159.20000000000002" font-size="12" text-anchor="middle">0.20</text><text x="116" y="233.20000000000002" font-size="12" text-anchor="middle">0.20</text><text x="230" y="233.20000000000002" font-size="12" text-anchor="middle">0.90</text><text x="344" y="233.20000000000002" font-size="12" text-anchor="middle">0.80</text><text x="458" y="233.20000000000002" font-size="12" text-anchor="middle">0.10</text><text x="572" y="233.20000000000002" font-size="12" text-anchor="middle">0.10</text><text x="116" y="307.2" font-size="12" text-anchor="middle">0.80</text><text x="230" y="307.2" font-size="12" text-anchor="middle">0.10</text><text x="344" y="307.2" font-size="12" text-anchor="middle">0.10</text><text x="458" y="307.2" font-size="12" text-anchor="middle">0.20</text><text x="572" y="307.2" font-size="12" text-anchor="middle">0.90</text><text x="116" y="381.2" font-size="12" text-anchor="middle">0.90</text><text x="230" y="381.2" font-size="12" text-anchor="middle">0.20</text><text x="344" y="381.2" font-size="12" text-anchor="middle">0.10</text><text x="458" y="381.2" font-size="12" text-anchor="middle">0.10</text><text x="572" y="381.2" font-size="12" text-anchor="middle">0.80</text><text x="635" y="85.2" font-size="12" text-anchor="start">A</text><text x="635" y="159.20000000000002" font-size="12" text-anchor="start">B</text><text x="635" y="233.20000000000002" font-size="12" text-anchor="start">C</text><text x="635" y="307.2" font-size="12" text-anchor="start">D</text><text x="635" y="381.2" font-size="12" text-anchor="start">E</text><text x="116" y="420" font-size="12" text-anchor="end" transform="rotate(-45,116,420)">X1</text><text x="230" y="420" font-size="12" text-anchor="end" transform="rotate(-45,230,420)">X2</text><text x="344" y="420" font-size="12" text-anchor="end" transform="rotate(-45,344,420)">X3</text><text x="458" y="420" font-size="12" text-anchor="end" transform="rotate(-45,458,420)">X4</text><text x="572" y="420" font-size="12" text-anchor="end" transform="rotate(-45,572,420)">X5</text></svg>