<svg xmlns="http://www.w3.org/2000/svg" width="673.4" height="545" font-family="DejaVu Sans, Liberation Sans, Arial, sans-serif" fill="black"><rect width="100%" height="100%" fill="white" /><text x="336.7" y="27.400000000000002" font-size="18" text-anchor="middle">Row clustering only</text><line x1="99" y1="81" x2="99" y2="155" stroke="#000000" stroke-width="1" /><line x1="99" y1="81" x2="159" y2="81" stroke="#000000" stroke-width="1" /><line x1="99" y1="155" x2="159" y2="155" stroke="#000000" stroke-width="1" /><line x1="129" y1="303" x2="129" y2="377" stroke="#000000" stroke-width="1" /><line x1="129" y1="303" x2="159" y2="303" stroke="#000000" stroke-width="1" /><line x1="129" y1="377" x2="159" y2="377" stroke="#000000" stroke-width="1" /><line x1="99" y1="229" x2="99" y2="340" stroke="#000000" stroke-width="1" /><line x1="99" y1="229" x2="159" y2="229" stroke="#000000" stroke-width="1" /><line x1="99" y1="340" x2="129" y2="340" stroke="#000000" stroke-width="1" /><line x1="69" y1="118" x2="69" y2="284.5" stroke="#000000" stroke-width="1" /><line x1="69" y1="118" x2="99" y2="118" stroke="#000000" stroke-width="1" /><line x1="69" y1="284.5" x2="99" y2="284.5" stroke="#000000" stroke-width="1" /><rect x="159" y="44" width="93.06" height="73.26" fill="#440154" /><rect x="253" y="44" width="93.06" height="73.26" fill="#aadb31" /><rect x="347" y="44" width="93.06" height="73.26" fill="#fde725" /><rect x="441" y="44" width="93.06" height="73.26" fill="#440154" /><rect x="535" y="44" width="93.06" height="73.26" fill="#472c7a" /><rect x="159" y="118" width="93.06" height="73.26" fill="#472c7a" /><rect x="253" y="118" width="93.06" height="73.26" fill="#fde725" /><rect x="347" y="118" width="93.06" height="73.26" fill="#aadb31" /><rect x="441" y="118" width="93.06" height="73.26" fill="#440154" /><rect x="535" y="118" width="93.06" height="73.26" fill="#440154" /><rect x="159" y="192" width="93.06" height="73.26" fill="#aadb31" /><rect x="253" y="192" width="93.06" height="73.26" fill="#440154" /><rect x="347" y="192" width="93.06" height="73.26" fill="#440154" /><rect x="441" y="192" width="93.06" height="73.26" fill="#472c7a" /><rect x="535" y="192" width="93.06" height="73.26" fill="#fde725" /><rect x="159" y="266" width="93.06" height="73.26" fill="#fde725" /><rect x="253" y="266" width="93.06" height="73.26" fill="#440154" /><rect x="347" y="266" width="93.06" height="73.26" fill="#472c7a" /><rect x="441" y="266" width="93.06" height="73.26" fill="#440154" /><rect x="535" y="266" width="93.06" height="73.26" fill="#aadb31" /><rect x="159" y="340" width="93.06" height="73.26" fill="#fde725" /><rect x="253" y="340" width="93.06" height="73.26" fill="#472c7a" /><rect x="347" y="340" width="93.06" height="73.26" fill="#440154" /><rect x="441" y="340" width="93.06" height="73.26" fill="#440154" /><rect x="535" y="340" width="93.06" height="73.26" fill="#aadb31" /><text x="635" y="85.2" font-size="12" text-anchor="start">B</text><text x="635" y="159.20000000000002" font-size="12" text-anchor="start">C</text><text x="635" y="233.20000000000002" font-size="12" text-anchor="start">D</text><text x="635" y="307.2" font-size="12" text-anchor="start">A</text><text x="635" y="381.2" font-size="12" text-anchor="start">E</text><text x="206" y="420" font-size="12" text-anchor="end" transform="rotate(-45,206,420)">X1</text><text x="300" y="420" font-size="12" text-anchor="end" transform="rotate(-45,300,420)">X2</text><text x="394" y="420" font-size="12" text-anchor="end" transform="rotate(-45,394,420)">X3</text><text x="488" y="420" font-size="12" text-anchor="end" transform="rotate(-45,488,420)">X4</text><text x="582" y="420" font-size="12" text-anchor="end" transform="rotate(-45,582,420)">X5</text></svg>