<svg xmlns="http://www.w3.org/2000/svg" width="475" height="227" font-family="DejaVu Sans, Liberation Sans, Arial, sans-serif" fill="black"><rect width="100%" height="100%" fill="white" /><text x="46" y="32.480000000000004" font-size="11" text-anchor="end" font-weight="bold">2024</text><text x="46" y="63.25" font-size="9" text-anchor="end" fill="#000000">Mon</text><text x="46" y="93.25" font-size="9" text-anchor="end" fill="#000000">Wed</text><text x="46" y="123.25" font-size="9" text-anchor="end" fill="#000000">Fri</text><text x="46" y="153.25" font-size="9" text-anchor="end" fill="#000000">Sun</text><g class="cal-day" data-date="2024-06-01" data-val="1 event"><rect x="50" y="127" width="13" height="13" fill="#216e39" /></g><g class="cal-day" data-date="2024-06-02" data-val="no data"><rect x="50" y="142" width="13" height="13" fill="#ebedf0" /></g><g class="cal-day" data-date="2024-06-03" data-val="no data"><rect x="65" y="52" width="13" height="13" fill="#ebedf0" /></g><g class="cal-day" data-date="2024-06-04" data-val="1 event"><rect x="65" y="67" width="13" height="13" fill="#216e39" /></g><g class="cal-day" data-date="2024-06-05" data-val="no data"><rect x="65" y="82" width="13" height="13" fill="#ebedf0" /></g><g class="cal-day" data-date="2024-06-06" data-val="no data"><rect x="65" y="97" width="13" height="13" fill="#ebedf0" /></g><g class="cal-day" data-date="2024-06-07" data-val="1 event"><rect x="65" y="112" width="13" height="13" fill="#216e39" /></g><g class="cal-day" data-date="2024-06-08" data-val="no data"><rect x="65" y="127" width="13" height="13" fill="#ebedf0" /></g><g class="cal-day" data-date="2024-06-09" data-val="no data"><rect x="65" y="142" width="13" height="13" fill="#ebedf0" /></g><g class="cal-day" data-date="2024-06-10" data-val="1 event"><rect x="80" y="52" width="13" height="13" fill="#216e39" /></g><g class="cal-day" data-date="2024-06-11" data-val="no data"><rect x="80" y="67" width="13" height="13" fill="#ebedf0" /></g><g class="cal-day" data-date="2024-06-12" data-val="no data"><rect x="80" y="82" width="13" height="13" fill="#ebedf0" /></g><g class="cal-day" data-date="2024-06-13" data-val="1 event"><rect x="80" y="97" width="13" height="13" fill="#216e39" /></g><g class="cal-day" data-date="2024-06-14" data-val="no data"><rect x="80" y="112" width="13" height="13" fill="#ebedf0" /></g><g class="cal-day" data-date="2024-06-15" data-val="no data"><rect x="80" y="127" width="13" height="13" fill="#ebedf0" /></g><g class="cal-day" data-date="2024-06-16" data-val="1 event"><rect x="80" y="142" width="13" height="13" fill="#216e39" /></g><g class="cal-day" data-date="2024-06-17" data-val="no data"><rect x="95" y="52" width="13" height="13" fill="#ebedf0" /></g><g class="cal-day" data-date="2024-06-18" data-val="no data"><rect x="95" y="67" width="13" height="13" fill="#ebedf0" /></g><g class="cal-day" data-date="2024-06-19" data-val="1 event"><rect x="95" y="82" width="13" height="13" fill="#216e39" /></g><g class="cal-day" data-date="2024-06-20" data-val="no data"><rect x="95" y="97" width="13" height="13" fill="#ebedf0" /></g><g class="cal-day" data-date="2024-06-21" data-val="no data"><rect x="95" y="112" width="13" height="13" fill="#ebedf0" /></g><g class="cal-day" data-date="2024-06-22" data-val="1 event"><rect x="95" y="127" width="13" height="13" fill="#216e39" /></g><g class="cal-day" data-date="2024-06-23" data-val="no data"><rect x="95" y="142" width="13" height="13" fill="#ebedf0" /></g><g class="cal-day" data-date="2024-06-24" data-val="no data"><rect x="110" y="52" width="13" height="13" fill="#ebedf0" /></g><g class="cal-day" data-date="2024-06-25" data-val="1 event"><rect x="110" y="67" width="13" height="13" fill="#216e39" /></g><g class="cal-day" data-date="2024-06-26" data-val="no data"><rect x="110" y="82" width="13" height="13" fill="#ebedf0" /></g><g class="cal-day" data-date="2024-06-27" data-val="no data"><rect x="110" y="97" width="13" height="13" fill="#ebedf0" /></g><g class="cal-day" data-date="2024-06-28" data-val="1 event"><rect x="110" y="112" width="13" height="13" fill="#216e39" /></g><g class="cal-day" data-date="2024-06-29" data-val="no data"><rect x="110" y="127" width="13" height="13" fill="#ebedf0" /></g><g class="cal-day" data-date="2024-06-30" data-val="no data"><rect x="110" y="142" width="13" height="13" fill="#ebedf0" /></g><g class="cal-day" data-date="2024-07-01" data-val="1 event"><rect x="125" y="52" width="13" height="13" fill="#216e39" /></g><g class="cal-day" data-date="2024-07-02" data-val="no data"><rect x="125" y="67" width="13" height="13" fill="#ebedf0" /></g><g class="cal-day" data-date="2024-07-03" data-val="no data"><rect x="125" y="82" width="13" height="13" fill="#ebedf0" /></g><g class="cal-day" data-date="2024-07-04" data-val="1 event"><rect x="125" y="97" width="13" height="13" fill="#216e39" /></g><g class="cal-day" data-date="2024-07-05" data-val="no data"><rect x="125" y="112" width="13" height="13" fill="#ebedf0" /></g><g class="cal-day" data-date="2024-07-06" data-val="no data"><rect x="125" y="127" width="13" height="13" fill="#ebedf0" /></g><g class="cal-day" data-date="2024-07-07" data-val="1 event"><rect x="125" y="142" width="13" height="13" fill="#216e39" /></g><g class="cal-day" data-date="2024-07-08" data-val="no data"><rect x="140" y="52" width="13" height="13" fill="#ebedf0" /></g><g class="cal-day" data-date="2024-07-09" data-val="no data"><rect x="140" y="67" width="13" height="13" fill="#ebedf0" /></g><g class="cal-day" data-date="2024-07-10" data-val="1 event"><rect x="140" y="82" width="13" height="13" fill="#216e39" /></g><g class="cal-day" data-date="2024-07-11" data-val="no data"><rect x="140" y="97" width="13" height="13" fill="#ebedf0" /></g><g class="cal-day" data-date="2024-07-12" data-val="no data"><rect x="140" y="112" width="13" height="13" fill="#ebedf0" /></g><g class="cal-day" data-date="2024-07-13" data-val="1 event"><rect x="140" y="127" width="13" height="13" fill="#216e39" /></g><g class="cal-day" data-date="2024-07-14" data-val="no data"><rect x="140" y="142" width="13" height="13" fill="#ebedf0" /></g><g class="cal-day" data-date="2024-07-15" data-val="no data"><rect x="155" y="52" width="13" height="13" fill="#ebedf0" /></g><g class="cal-day" data-date="2024-07-16" data-val="1 event"><rect x="155" y="67" width="13" height="13" fill="#216e39" /></g><g class="cal-day" data-date="2024-07-17" data-val="no data"><rect x="155" y="82" width="13" height="13" fill="#ebedf0" /></g><g class="cal-day" data-date="2024-07-18" data-val="no data"><rect x="155" y="97" width="13" height="13" fill="#ebedf0" /></g><g class="cal-day" data-date="2024-07-19" data-val="1 event"><rect x="155" y="112" width="13" height="13" fill="#216e39" /></g><g class="cal-day" data-date="2024-07-20" data-val="no data"><rect x="155" y="127" width="13" height="13" fill="#ebedf0" /></g><g class="cal-day" data-date="2024-07-21" data-val="no data"><rect x="155" y="142" width="13" height="13" fill="#ebedf0" /></g><g class="cal-day" data-date="2024-07-22" data-val="1 event"><rect x="170" y="52" width="13" height="13" fill="#216e39" /></g><g class="cal-day" data-date="2024-07-23" data-val="no data"><rect x="170" y="67" width="13" height="13" fill="#ebedf0" /></g><g class="cal-day" data-date="2024-07-24" data-val="no data"><rect x="170" y="82" width="13" height="13" fill="#ebedf0" /></g><g class="cal-day" data-date="2024-07-25" data-val="1 event"><rect x="170" y="97" width="13" height="13" fill="#216e39" /></g><g class="cal-day" data-date="2024-07-26" data-val="no data"><rect x="170" y="112" width="13" height="13" fill="#ebedf0" /></g><g class="cal-day" data-date="2024-07-27" data-val="no data"><rect x="170" y="127" width="13" height="13" fill="#ebedf0" /></g><g class="cal-day" data-date="2024-07-28" data-val="1 event"><rect x="170" y="142" width="13" height="13" fill="#216e39" /></g><g class="cal-day" data-date="2024-07-29" data-val="no data"><rect x="185" y="52" width="13" height="13" fill="#ebedf0" /></g><g class="cal-day" data-date="2024-07-30" data-val="no data"><rect x="185" y="67" width="13" height="13" fill="#ebedf0" /></g><g class="cal-day" data-date="2024-07-31" data-val="1 event"><rect x="185" y="82" width="13" height="13" fill="#216e39" /></g><g class="cal-day" data-date="2024-08-01" data-val="1 event"><rect x="185" y="97" width="13" height="13" fill="#216e39" /></g><g class="cal-day" data-date="2024-08-02" data-val="no data"><rect x="185" y="112" width="13" height="13" fill="#ebedf0" /></g><g class="cal-day" data-date="2024-08-03" data-val="no data"><rect x="185" y="127" width="13" height="13" fill="#ebedf0" /></g><g class="cal-day" data-date="2024-08-04" data-val="1 event"><rect x="185" y="142" width="13" height="13" fill="#216e39" /></g><g class="cal-day" data-date="2024-08-05" data-val="no data"><rect x="200" y="52" width="13" height="13" fill="#ebedf0" /></g><g class="cal-day" data-date="2024-08-06" data-val="no data"><rect x="200" y="67" width="13" height="13" fill="#ebedf0" /></g><g class="cal-day" data-date="2024-08-07" data-val="1 event"><rect x="200" y="82" width="13" height="13" fill="#216e39" /></g><g class="cal-day" data-date="2024-08-08" data-val="no data"><rect x="200" y="97" width="13" height="13" fill="#ebedf0" /></g><g class="cal-day" data-date="2024-08-09" data-val="no data"><rect x="200" y="112" width="13" height="13" fill="#ebedf0" /></g><g class="cal-day" data-date="2024-08-10" data-val="1 event"><rect x="200" y="127" width="13" height="13" fill="#216e39" /></g><g class="cal-day" data-date="2024-08-11" data-val="no data"><rect x="200" y="142" width="13" height="13" fill="#ebedf0" /></g><g class="cal-day" data-date="2024-08-12" data-val="no data"><rect x="215" y="52" width="13" height="13" fill="#ebedf0" /></g><g class="cal-day" data-date="2024-08-13" data-val="1 event"><rect x="215" y="67" width="13" height="13" fill="#216e39" /></g><g class="cal-day" data-date="2024-08-14" data-val="no data"><rect x="215" y="82" width="13" height="13" fill="#ebedf0" /></g><g class="cal-day" data-date="2024-08-15" data-val="no data"><rect x="215" y="97" width="13" height="13" fill="#ebedf0" /></g><g class="cal-day" data-date="2024-08-16" data-val="1 event"><rect x="215" y="112" width="13" height="13" fill="#216e39" /></g><g class="cal-day" data-date="2024-08-17" data-val="no data"><rect x="215" y="127" width="13" height="13" fill="#ebedf0" /></g><g class="cal-day" data-date="2024-08-18" data-val="no data"><rect x="215" y="142" width="13" height="13" fill="#ebedf0" /></g><g class="cal-day" data-date="2024-08-19" data-val="1 event"><rect x="230" y="52" width="13" height="13" fill="#216e39" /></g><g class="cal-day" data-date="2024-08-20" data-val="no data"><rect x="230" y="67" width="13" height="13" fill="#ebedf0" /></g><g class="cal-day" data-date="2024-08-21" data-val="no data"><rect x="230" y="82" width="13" height="13" fill="#ebedf0" /></g><g class="cal-day" data-date="2024-08-22" data-val="1 event"><rect x="230" y="97" width="13" height="13" fill="#216e39" /></g><g class="cal-day" data-date="2024-08-23" data-val="no data"><rect x="230" y="112" width="13" height="13" fill="#ebedf0" /></g><g class="cal-day" data-date="2024-08-24" data-val="no data"><rect x="230" y="127" width="13" height="13" fill="#ebedf0" /></g><g class="cal-day" data-date="2024-08-25" data-val="1 event"><rect x="230" y="142" width="13" height="13" fill="#216e39" /></g><g class="cal-day" data-date="2024-08-26" data-val="no data"><rect x="245" y="52" width="13" height="13" fill="#ebedf0" /></g><g class="cal-day" data-date="2024-08-27" data-val="no data"><rect x="245" y="67" width="13" height="13" fill="#ebedf0" /></g><g class="cal-day" data-date="2024-08-28" data-val="1 event"><rect x="245" y="82" width="13" height="13" fill="#216e39" /></g><g class="cal-day" data-date="2024-08-29" data-val="no data"><rect x="245" y="97" width="13" height="13" fill="#ebedf0" /></g><g class="cal-day" data-date="2024-08-30" data-val="no data"><rect x="245" y="112" width="13" height="13" fill="#ebedf0" /></g><g class="cal-day" data-date="2024-08-31" data-val="1 event"><rect x="245" y="127" width="13" height="13" fill="#216e39" /></g><g class="cal-day" data-date="2024-09-01" data-val="1 event"><rect x="245" y="142" width="13" height="13" fill="#216e39" /></g><g class="cal-day" data-date="2024-09-02" data-val="no data"><rect x="260" y="52" width="13" height="13" fill="#ebedf0" /></g><g class="cal-day" data-date="2024-09-03" data-val="no data"><rect x="260" y="67" width="13" height="13" fill="#ebedf0" /></g><g class="cal-day" data-date="2024-09-04" data-val="1 event"><rect x="260" y="82" width="13" height="13" fill="#216e39" /></g><g class="cal-day" data-date="2024-09-05" data-val="no data"><rect x="260" y="97" width="13" height="13" fill="#ebedf0" /></g><g class="cal-day" data-date="2024-09-06" data-val="no data"><rect x="260" y="112" width="13" height="13" fill="#ebedf0" /></g><g class="cal-day" data-date="2024-09-07" data-val="1 event"><rect x="260" y="127" width="13" height="13" fill="#216e39" /></g><g class="cal-day" data-date="2024-09-08" data-val="no data"><rect x="260" y="142" width="13" height="13" fill="#ebedf0" /></g><g class="cal-day" data-date="2024-09-09" data-val="no data"><rect x="275" y="52" width="13" height="13" fill="#ebedf0" /></g><g class="cal-day" data-date="2024-09-10" data-val="1 event"><rect x="275" y="67" width="13" height="13" fill="#216e39" /></g><g class="cal-day" data-date="2024-09-11" data-val="no data"><rect x="275" y="82" width="13" height="13" fill="#ebedf0" /></g><g class="cal-day" data-date="2024-09-12" data-val="no data"><rect x="275" y="97" width="13" height="13" fill="#ebedf0" /></g><g class="cal-day" data-date="2024-09-13" data-val="1 event"><rect x="275" y="112" width="13" height="13" fill="#216e39" /></g><g class="cal-day" data-date="2024-09-14" data-val="no data"><rect x="275" y="127" width="13" height="13" fill="#ebedf0" /></g><g class="cal-day" data-date="2024-09-15" data-val="no data"><rect x="275" y="142" width="13" height="13" fill="#ebedf0" /></g><g class="cal-day" data-date="2024-09-16" data-val="1 event"><rect x="290" y="52" width="13" height="13" fill="#216e39" /></g><g class="cal-day" data-date="2024-09-17" data-val="no data"><rect x="290" y="67" width="13" height="13" fill="#ebedf0" /></g><g class="cal-day" data-date="2024-09-18" data-val="no data"><rect x="290" y="82" width="13" height="13" fill="#ebedf0" /></g><g class="cal-day" data-date="2024-09-19" data-val="1 event"><rect x="290" y="97" width="13" height="13" fill="#216e39" /></g><g class="cal-day" data-date="2024-09-20" data-val="no data"><rect x="290" y="112" width="13" height="13" fill="#ebedf0" /></g><g class="cal-day" data-date="2024-09-21" data-val="no data"><rect x="290" y="127" width="13" height="13" fill="#ebedf0" /></g><g class="cal-day" data-date="2024-09-22" data-val="1 event"><rect x="290" y="142" width="13" height="13" fill="#216e39" /></g><g class="cal-day" data-date="2024-09-23" data-val="no data"><rect x="305" y="52" width="13" height="13" fill="#ebedf0" /></g><g class="cal-day" data-date="2024-09-24" data-val="no data"><rect x="305" y="67" width="13" height="13" fill="#ebedf0" /></g><g class="cal-day" data-date="2024-09-25" data-val="1 event"><rect x="305" y="82" width="13" height="13" fill="#216e39" /></g><g class="cal-day" data-date="2024-09-26" data-val="no data"><rect x="305" y="97" width="13" height="13" fill="#ebedf0" /></g><g class="cal-day" data-date="2024-09-27" data-val="no data"><rect x="305" y="112" width="13" height="13" fill="#ebedf0" /></g><g class="cal-day" data-date="2024-09-28" data-val="1 event"><rect x="305" y="127" width="13" height="13" fill="#216e39" /></g><g class="cal-day" data-date="2024-09-29" data-val="no data"><rect x="305" y="142" width="13" height="13" fill="#ebedf0" /></g><g class="cal-day" data-date="2024-09-30" data-val="no data"><rect x="320" y="52" width="13" height="13" fill="#ebedf0" /></g><g class="cal-day" data-date="2024-10-01" data-val="1 event"><rect x="320" y="67" width="13" height="13" fill="#216e39" /></g><g class="cal-day" data-date="2024-10-02" data-val="no data"><rect x="320" y="82" width="13" height="13" fill="#ebedf0" /></g><g class="cal-day" data-date="2024-10-03" data-val="no data"><rect x="320" y="97" width="13" height="13" fill="#ebedf0" /></g><g class="cal-day" data-date="2024-10-04" data-val="1 event"><rect x="320" y="112" width="13" height="13" fill="#216e39" /></g><g class="cal-day" data-date="2024-10-05" data-val="no data"><rect x="320" y="127" width="13" height="13" fill="#ebedf0" /></g><g class="cal-day" data-date="2024-10-06" data-val="no data"><rect x="320" y="142" width="13" height="13" fill="#ebedf0" /></g><g class="cal-day" data-date="2024-10-07" data-val="1 event"><rect x="335" y="52" width="13" height="13" fill="#216e39" /></g><g class="cal-day" data-date="2024-10-08" data-val="no data"><rect x="335" y="67" width="13" height="13" fill="#ebedf0" /></g><g class="cal-day" data-date="2024-10-09" data-val="no data"><rect x="335" y="82" width="13" height="13" fill="#ebedf0" /></g><g class="cal-day" data-date="2024-10-10" data-val="1 event"><rect x="335" y="97" width="13" height="13" fill="#216e39" /></g><g class="cal-day" data-date="2024-10-11" data-val="no data"><rect x="335" y="112" width="13" height="13" fill="#ebedf0" /></g><g class="cal-day" data-date="2024-10-12" data-val="no data"><rect x="335" y="127" width="13" height="13" fill="#ebedf0" /></g><g class="cal-day" data-date="2024-10-13" data-val="1 event"><rect x="335" y="142" width="13" height="13" fill="#216e39" /></g><g class="cal-day" data-date="2024-10-14" data-val="no data"><rect x="350" y="52" width="13" height="13" fill="#ebedf0" /></g><g class="cal-day" data-date="2024-10-15" data-val="no data"><rect x="350" y="67" width="13" height="13" fill="#ebedf0" /></g><g class="cal-day" data-date="2024-10-16" data-val="1 event"><rect x="350" y="82" width="13" height="13" fill="#216e39" /></g><g class="cal-day" data-date="2024-10-17" data-val="no data"><rect x="350" y="97" width="13" height="13" fill="#ebedf0" /></g><g class="cal-day" data-date="2024-10-18" data-val="no data"><rect x="350" y="112" width="13" height="13" fill="#ebedf0" /></g><g class="cal-day" data-date="2024-10-19" data-val="1 event"><rect x="350" y="127" width="13" height="13" fill="#216e39" /></g><g class="cal-day" data-date="2024-10-20" data-val="no data"><rect x="350" y="142" width="13" height="13" fill="#ebedf0" /></g><g class="cal-day" data-date="2024-10-21" data-val="no data"><rect x="365" y="52" width="13" height="13" fill="#ebedf0" /></g><g class="cal-day" data-date="2024-10-22" data-val="1 event"><rect x="365" y="67" width="13" height="13" fill="#216e39" /></g><g class="cal-day" data-date="2024-10-23" data-val="no data"><rect x="365" y="82" width="13" height="13" fill="#ebedf0" /></g><g class="cal-day" data-date="2024-10-24" data-val="no data"><rect x="365" y="97" width="13" height="13" fill="#ebedf0" /></g><g class="cal-day" data-date="2024-10-25" data-val="1 event"><rect x="365" y="112" width="13" height="13" fill="#216e39" /></g><g class="cal-day" data-date="2024-10-26" data-val="no data"><rect x="365" y="127" width="13" height="13" fill="#ebedf0" /></g><g class="cal-day" data-date="2024-10-27" data-val="no data"><rect x="365" y="142" width="13" height="13" fill="#ebedf0" /></g><g class="cal-day" data-date="2024-10-28" data-val="1 event"><rect x="380" y="52" width="13" height="13" fill="#216e39" /></g><g class="cal-day" data-date="2024-10-29" data-val="no data"><rect x="380" y="67" width="13" height="13" fill="#ebedf0" /></g><g class="cal-day" data-date="2024-10-30" data-val="no data"><rect x="380" y="82" width="13" height="13" fill="#ebedf0" /></g><g class="cal-day" data-date="2024-10-31" data-val="1 event"><rect x="380" y="97" width="13" height="13" fill="#216e39" /></g><g class="cal-day" data-date="2024-11-01" data-val="1 event"><rect x="380" y="112" width="13" height="13" fill="#216e39" /></g><g class="cal-day" data-date="2024-11-02" data-val="no data"><rect x="380" y="127" width="13" height="13" fill="#ebedf0" /></g><g class="cal-day" data-date="2024-11-03" data-val="no data"><rect x="380" y="142" width="13" height="13" fill="#ebedf0" /></g><g class="cal-day" data-date="2024-11-04" data-val="1 event"><rect x="395" y="52" width="13" height="13" fill="#216e39" /></g><g class="cal-day" data-date="2024-11-05" data-val="no data"><rect x="395" y="67" width="13" height="13" fill="#ebedf0" /></g><g class="cal-day" data-date="2024-11-06" data-val="no data"><rect x="395" y="82" width="13" height="13" fill="#ebedf0" /></g><g class="cal-day" data-date="2024-11-07" data-val="1 event"><rect x="395" y="97" width="13" height="13" fill="#216e39" /></g><g class="cal-day" data-date="2024-11-08" data-val="no data"><rect x="395" y="112" width="13" height="13" fill="#ebedf0" /></g><g class="cal-day" data-date="2024-11-09" data-val="no data"><rect x="395" y="127" width="13" height="13" fill="#ebedf0" /></g><g class="cal-day" data-date="2024-11-10" data-val="1 event"><rect x="395" y="142" width="13" height="13" fill="#216e39" /></g><g class="cal-day" data-date="2024-11-11" data-val="no data"><rect x="410" y="52" width="13" height="13" fill="#ebedf0" /></g><g class="cal-day" data-date="2024-11-12" data-val="no data"><rect x="410" y="67" width="13" height="13" fill="#ebedf0" /></g><g class="cal-day" data-date="2024-11-13" data-val="1 event"><rect x="410" y="82" width="13" height="13" fill="#216e39" /></g><g class="cal-day" data-date="2024-11-14" data-val="no data"><rect x="410" y="97" width="13" height="13" fill="#ebedf0" /></g><g class="cal-day" data-date="2024-11-15" data-val="no data"><rect x="410" y="112" width="13" height="13" fill="#ebedf0" /></g><g class="cal-day" data-date="2024-11-16" data-val="1 event"><rect x="410" y="127" width="13" height="13" fill="#216e39" /></g><g class="cal-day" data-date="2024-11-17" data-val="no data"><rect x="410" y="142" width="13" height="13" fill="#ebedf0" /></g><g class="cal-day" data-date="2024-11-18" data-val="no data"><rect x="425" y="52" width="13" height="13" fill="#ebedf0" /></g><g class="cal-day" data-date="2024-11-19" data-val="1 event"><rect x="425" y="67" width="13" height="13" fill="#216e39" /></g><g class="cal-day" data-date="2024-11-20" data-val="no data"><rect x="425" y="82" width="13" height="13" fill="#ebedf0" /></g><g class="cal-day" data-date="2024-11-21" data-val="no data"><rect x="425" y="97" width="13" height="13" fill="#ebedf0" /></g><g class="cal-day" data-date="2024-11-22" data-val="1 event"><rect x="425" y="112" width="13" height="13" fill="#216e39" /></g><g class="cal-day" data-date="2024-11-23" data-val="no data"><rect x="425" y="127" width="13" height="13" fill="#ebedf0" /></g><g class="cal-day" data-date="2024-11-24" data-val="no data"><rect x="425" y="142" width="13" height="13" fill="#ebedf0" /></g><g class="cal-day" data-date="2024-11-25" data-val="1 event"><rect x="440" y="52" width="13" height="13" fill="#216e39" /></g><g class="cal-day" data-date="2024-11-26" data-val="no data"><rect x="440" y="67" width="13" height="13" fill="#ebedf0" /></g><g class="cal-day" data-date="2024-11-27" data-val="no data"><rect x="440" y="82" width="13" height="13" fill="#ebedf0" /></g><g class="cal-day" data-date="2024-11-28" data-val="1 event"><rect x="440" y="97" width="13" height="13" fill="#216e39" /></g><g class="cal-day" data-date="2024-11-29" data-val="no data"><rect x="440" y="112" width="13" height="13" fill="#ebedf0" /></g><g class="cal-day" data-date="2024-11-30" data-val="no data"><rect x="440" y="127" width="13" height="13" fill="#ebedf0" /></g><text x="50" y="48" font-size="9" text-anchor="start" fill="#000000">Jun</text><text x="125" y="48" font-size="9" text-anchor="start" fill="#000000">Jul</text><text x="185" y="48" font-size="9" text-anchor="start" fill="#000000">Aug</text><text x="245" y="48" font-size="9" text-anchor="start" fill="#000000">Sep</text><text x="320" y="48" font-size="9" text-anchor="start" fill="#000000">Oct</text><text x="380" y="48" font-size="9" text-anchor="start" fill="#000000">Nov</text><path d="M 125 52 L 125 157" stroke="#c0c0c0" stroke-width="1" fill="none" /><path d="M 200 52 L 200 97 L 185 97 L 185 157" stroke="#c0c0c0" stroke-width="1" fill="none" /><path d="M 260 52 L 260 142 L 245 142 L 245 157" stroke="#c0c0c0" stroke-width="1" fill="none" /><path d="M 335 52 L 335 67 L 320 67 L 320 157" stroke="#c0c0c0" stroke-width="1" fill="none" /><path d="M 395 52 L 395 112 L 380 112 L 380 157" stroke="#c0c0c0" stroke-width="1" fill="none" /><rect x="172.5" y="167" width="4" height="10" fill="#9be9a8" /><rect x="176.5" y="167" width="4" height="10" fill="#87d596" /><rect x="180.5" y="167" width="4" height="10" fill="#7fcd8f" /><rect x="184.5" y="167" width="4" height="10" fill="#79c789" /><rect x="188.5" y="167" width="4" height="10" fill="#74c284" /><rect x="192.5" y="167" width="4" height="10" fill="#6fbd80" /><rect x="196.5" y="167" width="4" height="10" fill="#6bb97c" /><rect x="200.5" y="167" width="4" height="10" fill="#67b579" /><rect x="204.5" y="167" width="4" height="10" fill="#64b176" /><rect x="208.5" y="167" width="4" height="10" fill="#60ae73" /><rect x="212.5" y="167" width="4" height="10" fill="#5dab70" /><rect x="216.5" y="167" width="4" height="10" fill="#5aa86d" /><rect x="220.5" y="167" width="4" height="10" fill="#57a56a" /><rect x="224.5" y="167" width="4" height="10" fill="#55a268" /><rect x="228.5" y="167" width="4" height="10" fill="#529f65" /><rect x="232.5" y="167" width="4" height="10" fill="#4f9d63" /><rect x="236.5" y="167" width="4" height="10" fill="#4d9a61" /><rect x="240.5" y="167" width="4" height="10" fill="#4a985f" /><rect x="244.5" y="167" width="4" height="10" fill="#48955d" /><rect x="248.5" y="167" width="4" height="10" fill="#46935b" /><rect x="252.5" y="167" width="4" height="10" fill="#449159" /><rect x="256.5" y="167" width="4" height="10" fill="#418f57" /><rect x="260.5" y="167" width="4" height="10" fill="#3f8d55" /><rect x="264.5" y="167" width="4" height="10" fill="#3d8b53" /><rect x="268.5" y="167" width="4" height="10" fill="#3b8951" /><rect x="272.5" y="167" width="4" height="10" fill="#39874f" /><rect x="276.5" y="167" width="4" height="10" fill="#37854d" /><rect x="280.5" y="167" width="4" height="10" fill="#35834c" /><rect x="284.5" y="167" width="4" height="10" fill="#34814a" /><rect x="288.5" y="167" width="4" height="10" fill="#327f48" /><rect x="292.5" y="167" width="4" height="10" fill="#307d47" /><rect x="296.5" y="167" width="4" height="10" fill="#2e7b45" /><rect x="300.5" y="167" width="4" height="10" fill="#2c7a43" /><rect x="304.5" y="167" width="4" height="10" fill="#2b7842" /><rect x="308.5" y="167" width="4" height="10" fill="#297640" /><rect x="312.5" y="167" width="4" height="10" fill="#27743f" /><rect x="316.5" y="167" width="4" height="10" fill="#26733d" /><rect x="320.5" y="167" width="4" height="10" fill="#24713c" /><rect x="324.5" y="167" width="4" height="10" fill="#23703a" /><rect x="328.5" y="167" width="4" height="10" fill="#216e39" /><text x="172.5" y="188" font-size="9" text-anchor="start">0</text><text x="332.5" y="188" font-size="9" text-anchor="end">1</text><text x="252.5" y="201" font-size="10" text-anchor="middle">activity</text><script type="text/javascript"><![CDATA[(function(){
  var svg=document.currentScript?document.currentScript.closest('svg'):document.querySelector('svg');
  if(!svg)return;
  var tip=document.createElementNS('http://www.w3.org/2000/svg','g');
  tip.setAttribute('id','cal-tip');
  tip.setAttribute('pointer-events','none');
  tip.setAttribute('style','display:none');
  var bg=document.createElementNS('http://www.w3.org/2000/svg','rect');
  bg.setAttribute('rx','4');
  bg.setAttribute('fill','#1a1a1a');
  bg.setAttribute('fill-opacity','0.88');
  tip.appendChild(bg);
  var lines=[];
  for(var i=0;i<3;i++){
    var t=document.createElementNS('http://www.w3.org/2000/svg','text');
    t.setAttribute('fill','white');
    t.setAttribute('font-size','11');
    t.setAttribute('font-family','sans-serif');
    tip.appendChild(t);
    lines.push(t);
  }
  svg.appendChild(tip);
  function showTip(e,el){
    var date=el.getAttribute('data-date')||'';
    var val=el.getAttribute('data-val')||'';
    var agg=el.getAttribute('data-agg')||'';
    var svgRect=svg.getBoundingClientRect();
    var vbw=svg.viewBox&&svg.viewBox.baseVal.width?svg.viewBox.baseVal.width:svgRect.width;
    var vbh=svg.viewBox&&svg.viewBox.baseVal.height?svg.viewBox.baseVal.height:svgRect.height;
    var sx=vbw/svgRect.width;
    var sy=vbh/svgRect.height;
    var px=(e.clientX-svgRect.left)*sx+12;
    var py=(e.clientY-svgRect.top)*sy-8;
    var ls=[date,val];
    if(agg)ls.push(agg);
    var maxLen=0;
    ls.forEach(function(l){if(l.length>maxLen)maxLen=l.length;});
    var lh=16,pad=8;
    var w=Math.max(maxLen*6.3+pad*2,80);
    var h=ls.length*lh+pad*2;
    if(px+w>vbw-5)px=px-w-24;
    if(py-h<5)py=py+h+10;
    bg.setAttribute('x',px);bg.setAttribute('y',py-h);
    bg.setAttribute('width',w);bg.setAttribute('height',h);
    ls.forEach(function(line,i){
      var t=lines[i];
      t.setAttribute('x',px+pad);
      t.setAttribute('y',py-h+pad+lh*(i+0.75));
      t.textContent=line;
      t.setAttribute('font-weight',i===0?'600':'normal');
      t.setAttribute('style','');
    });
    for(var i=ls.length;i<lines.length;i++){lines[i].textContent='';}
    tip.setAttribute('style','display:block');
  }
  function hideTip(){tip.setAttribute('style','display:none');}
  var days=svg.querySelectorAll('.cal-day');
  days.forEach(function(el){
    el.addEventListener('mouseover',function(e){showTip(e,el);});
    el.addEventListener('mousemove',function(e){showTip(e,el);});
    el.addEventListener('mouseout',hideTip);
  });
})();]]></script></svg>