<svg xmlns="http://www.w3.org/2000/svg" width="681.8000000000001" height="545" font-family="DejaVu Sans, Liberation Sans, Arial, sans-serif" fill="black"><rect width="100%" height="100%" fill="white" /><defs><clipPath id="kuva-clip-2"><rect x="63.800000000000004" y="44" width="600" height="450"/></clipPath></defs><line x1="163.8" y1="44" x2="163.8" y2="494" stroke="#cccccc" stroke-width="1" /><line x1="263.8" y1="44" x2="263.8" y2="494" stroke="#cccccc" stroke-width="1" /><line x1="363.8" y1="44" x2="363.8" y2="494" stroke="#cccccc" stroke-width="1" /><line x1="463.8" y1="44" x2="463.8" y2="494" stroke="#cccccc" stroke-width="1" /><line x1="563.8000000000001" y1="44" x2="563.8000000000001" y2="494" stroke="#cccccc" stroke-width="1" /><line x1="663.8000000000001" y1="44" x2="663.8000000000001" y2="494" stroke="#cccccc" stroke-width="1" /><line x1="63.800000000000004" y1="325.25" x2="663.8000000000001" y2="325.25" stroke="#cccccc" stroke-width="1" /><line x1="63.800000000000004" y1="212.75" x2="663.8000000000001" y2="212.75" stroke="#cccccc" stroke-width="1" /><line x1="63.800000000000004" y1="100.25" x2="663.8000000000001" y2="100.25" stroke="#cccccc" stroke-width="1" /><line x1="63.800000000000004" y1="494" x2="663.8000000000001" y2="494" stroke="#000000" stroke-width="1" /><line x1="63.800000000000004" y1="44" x2="63.800000000000004" y2="494" stroke="#000000" stroke-width="1" /><line x1="63.800000000000004" y1="494" x2="63.800000000000004" y2="499" stroke="#000000" stroke-width="1" /><text x="63.800000000000004" y="511" font-size="12" text-anchor="middle">0</text><line x1="163.8" y1="494" x2="163.8" y2="499" stroke="#000000" stroke-width="1" /><text x="163.8" y="511" font-size="12" text-anchor="middle">5</text><line x1="263.8" y1="494" x2="263.8" y2="499" stroke="#000000" stroke-width="1" /><text x="263.8" y="511" font-size="12" text-anchor="middle">10</text><line x1="363.8" y1="494" x2="363.8" y2="499" stroke="#000000" stroke-width="1" /><text x="363.8" y="511" font-size="12" text-anchor="middle">15</text><line x1="463.8" y1="494" x2="463.8" y2="499" stroke="#000000" stroke-width="1" /><text x="463.8" y="511" font-size="12" text-anchor="middle">20</text><line x1="563.8000000000001" y1="494" x2="563.8000000000001" y2="499" stroke="#000000" stroke-width="1" /><text x="563.8000000000001" y="511" font-size="12" text-anchor="middle">25</text><line x1="663.8000000000001" y1="494" x2="663.8000000000001" y2="499" stroke="#000000" stroke-width="1" /><text x="663.8000000000001" y="511" font-size="12" text-anchor="middle">30</text><line x1="58.800000000000004" y1="437.75" x2="63.800000000000004" y2="437.75" stroke="#000000" stroke-width="1" /><text x="55.800000000000004" y="441.95" font-size="12" text-anchor="end">0</text><line x1="58.800000000000004" y1="325.25" x2="63.800000000000004" y2="325.25" stroke="#000000" stroke-width="1" /><text x="55.800000000000004" y="329.45" font-size="12" text-anchor="end">5</text><line x1="58.800000000000004" y1="212.75" x2="63.800000000000004" y2="212.75" stroke="#000000" stroke-width="1" /><text x="55.800000000000004" y="216.95000000000002" font-size="12" text-anchor="end">10</text><line x1="58.800000000000004" y1="100.25" x2="63.800000000000004" y2="100.25" stroke="#000000" stroke-width="1" /><text x="55.800000000000004" y="104.45" font-size="12" text-anchor="end">15</text><text x="363.8" y="538" font-size="14" text-anchor="middle">x</text><text x="15" y="272.5" font-size="14" text-anchor="middle" transform="rotate(-90,15,272.5)">y</text><text x="363.8" y="22" font-size="18" text-anchor="middle">Band Attached to Scatter</text><g clip-path="url(#kuva-clip-2)"><path d="M 63.800000000000004 336.5 L 83.8 327.5 L 103.8 318.5 L 123.8 309.5 L 143.8 300.5 L 163.8 291.5 L 183.8 282.5 L 203.8 273.5 L 223.8 264.5 L 243.8 255.5 L 263.8 246.5 L 283.8 237.5 L 303.8 228.5 L 323.8 219.5 L 343.8 210.5 L 363.8 201.5 L 383.8 192.5 L 403.8 183.5 L 423.8 174.5 L 443.8 165.5 L 463.8 156.5 L 483.8 147.5 L 503.8 138.5 L 523.8 129.5 L 543.8 120.5 L 563.8000000000001 111.5 L 583.8000000000001 102.5 L 603.8000000000001 93.5 L 623.8000000000001 84.5 L 643.8000000000001 75.5 L 643.8000000000001 188.0 L 623.8000000000001 197.0 L 603.8000000000001 206.0 L 583.8000000000001 215.0 L 563.8000000000001 224.0 L 543.8 233.0 L 523.8 242.0 L 503.8 251.0 L 483.8 260.0 L 463.8 269.0 L 443.8 278.0 L 423.8 287.0 L 403.8 296.0 L 383.8 305.0 L 363.8 314.0 L 343.8 323.0 L 323.8 332.0 L 303.8 341.0 L 283.8 350.0 L 263.8 359.0 L 243.8 368.0 L 223.8 377.0 L 203.8 386.0 L 183.8 395.0 L 163.8 404.0 L 143.8 413.0 L 123.8 422.0 L 103.8 431.0 L 83.8 440.0 L 63.800000000000004 449.0 Z" stroke="none" stroke-width="0" fill="seagreen" fill-opacity="0.2" /><circle cx="63.800000000000004" cy="392.75" r="3" fill="seagreen" /><circle cx="83.8" cy="383.75" r="3" fill="seagreen" /><circle cx="103.8" cy="374.75" r="3" fill="seagreen" /><circle cx="123.8" cy="365.75" r="3" fill="seagreen" /><circle cx="143.8" cy="356.75" r="3" fill="seagreen" /><circle cx="163.8" cy="347.75" r="3" fill="seagreen" /><circle cx="183.8" cy="338.75" r="3" fill="seagreen" /><circle cx="203.8" cy="329.75" r="3" fill="seagreen" /><circle cx="223.8" cy="320.75" r="3" fill="seagreen" /><circle cx="243.8" cy="311.75" r="3" fill="seagreen" /><circle cx="263.8" cy="302.75" r="3" fill="seagreen" /><circle cx="283.8" cy="293.75" r="3" fill="seagreen" /><circle cx="303.8" cy="284.75" r="3" fill="seagreen" /><circle cx="323.8" cy="275.75" r="3" fill="seagreen" /><circle cx="343.8" cy="266.75" r="3" fill="seagreen" /><circle cx="363.8" cy="257.75" r="3" fill="seagreen" /><circle cx="383.8" cy="248.75" r="3" fill="seagreen" /><circle cx="403.8" cy="239.75" r="3" fill="seagreen" /><circle cx="423.8" cy="230.75" r="3" fill="seagreen" /><circle cx="443.8" cy="221.75" r="3" fill="seagreen" /><circle cx="463.8" cy="212.75" r="3" fill="seagreen" /><circle cx="483.8" cy="203.75" r="3" fill="seagreen" /><circle cx="503.8" cy="194.75" r="3" fill="seagreen" /><circle cx="523.8" cy="185.75" r="3" fill="seagreen" /><circle cx="543.8" cy="176.75" r="3" fill="seagreen" /><circle cx="563.8000000000001" cy="167.75" r="3" fill="seagreen" /><circle cx="583.8000000000001" cy="158.75" r="3" fill="seagreen" /><circle cx="603.8000000000001" cy="149.75" r="3" fill="seagreen" /><circle cx="623.8000000000001" cy="140.75" r="3" fill="seagreen" /><circle cx="643.8000000000001" cy="131.75" r="3" fill="seagreen" /></g></svg>