<svg xmlns="http://www.w3.org/2000/svg" width="686.2" height="545" font-family="DejaVu Sans, Liberation Sans, Arial, sans-serif" fill="black"><rect width="100%" height="100%" fill="white" /><line x1="72.2" y1="494" x2="672.2" y2="494" stroke="#000000" stroke-width="1" /><line x1="72.2" y1="44" x2="72.2" y2="494" stroke="#000000" stroke-width="1" /><line x1="172.20000000000002" y1="44" x2="172.20000000000002" y2="494" stroke="#cccccc" stroke-width="1" /><line x1="272.2" y1="44" x2="272.2" y2="494" stroke="#cccccc" stroke-width="1" /><line x1="372.2" y1="44" x2="372.2" y2="494" stroke="#cccccc" stroke-width="1" /><line x1="472.2" y1="44" x2="472.2" y2="494" stroke="#cccccc" stroke-width="1" /><line x1="572.2" y1="44" x2="572.2" y2="494" stroke="#cccccc" stroke-width="1" /><line x1="672.2" y1="44" x2="672.2" y2="494" stroke="#cccccc" stroke-width="1" /><line x1="72.2" y1="404" x2="672.2" y2="404" stroke="#cccccc" stroke-width="1" /><line x1="72.2" y1="314" x2="672.2" y2="314" stroke="#cccccc" stroke-width="1" /><line x1="72.2" y1="224" x2="672.2" y2="224" stroke="#cccccc" stroke-width="1" /><line x1="72.2" y1="134" x2="672.2" y2="134" stroke="#cccccc" stroke-width="1" /><line x1="72.2" y1="44" x2="672.2" y2="44" stroke="#cccccc" stroke-width="1" /><line x1="72.2" y1="494" x2="72.2" y2="499" stroke="#000000" stroke-width="1" /><text x="72.2" y="511" font-size="12" text-anchor="middle">0</text><line x1="172.20000000000002" y1="494" x2="172.20000000000002" y2="499" stroke="#000000" stroke-width="1" /><text x="172.20000000000002" y="511" font-size="12" text-anchor="middle">2.5</text><line x1="272.2" y1="494" x2="272.2" y2="499" stroke="#000000" stroke-width="1" /><text x="272.2" y="511" font-size="12" text-anchor="middle">5</text><line x1="372.2" y1="494" x2="372.2" y2="499" stroke="#000000" stroke-width="1" /><text x="372.2" y="511" font-size="12" text-anchor="middle">7.5</text><line x1="472.2" y1="494" x2="472.2" y2="499" stroke="#000000" stroke-width="1" /><text x="472.2" y="511" font-size="12" text-anchor="middle">10</text><line x1="572.2" y1="494" x2="572.2" y2="499" stroke="#000000" stroke-width="1" /><text x="572.2" y="511" font-size="12" text-anchor="middle">12.5</text><line x1="672.2" y1="494" x2="672.2" y2="499" stroke="#000000" stroke-width="1" /><text x="672.2" y="511" font-size="12" text-anchor="middle">15</text><line x1="67.2" y1="494" x2="72.2" y2="494" stroke="#000000" stroke-width="1" /><text x="64.2" y="498.2" font-size="12" text-anchor="end">-1</text><line x1="67.2" y1="404" x2="72.2" y2="404" stroke="#000000" stroke-width="1" /><text x="64.2" y="408.2" font-size="12" text-anchor="end">-0.5</text><line x1="67.2" y1="314" x2="72.2" y2="314" stroke="#000000" stroke-width="1" /><text x="64.2" y="318.2" font-size="12" text-anchor="end">0</text><line x1="67.2" y1="224" x2="72.2" y2="224" stroke="#000000" stroke-width="1" /><text x="64.2" y="228.20000000000002" font-size="12" text-anchor="end">0.5</text><line x1="67.2" y1="134" x2="72.2" y2="134" stroke="#000000" stroke-width="1" /><text x="64.2" y="138.20000000000002" font-size="12" text-anchor="end">1</text><line x1="67.2" y1="44" x2="72.2" y2="44" stroke="#000000" stroke-width="1" /><text x="64.2" y="48.2" font-size="12" text-anchor="end">1.5</text><text x="372.2" y="538" font-size="14" text-anchor="middle">x</text><text x="7" y="272.5" font-size="14" text-anchor="middle" transform="rotate(-90,7,272.5)">e^(−0.15x) · cos(x)</text><text x="372.2" y="22" font-size="18" text-anchor="middle">Band Attached to Line</text><path d="M 72.2 98.0 L 78.48 104.36 L 84.77 114.69 L 91.05 128.56 L 97.33 145.47 L 103.62 164.87 L 109.9 186.15 L 116.18 208.71 L 122.47 231.93 L 128.75 255.22 L 135.03 278.0 L 141.32 299.73 L 147.6 319.92 L 153.88 338.16 L 160.16 354.07 L 166.45000000000002 367.39 L 172.73 377.89 L 179.01 385.45 L 185.3 390.02 L 191.58 391.62 L 197.86 390.36 L 204.15 386.39 L 210.43 379.94 L 216.71 371.28000000000003 L 223.0 360.73 L 229.28 348.62 L 235.56 335.34000000000003 L 241.85 321.25 L 248.13 306.76 L 254.41 292.22 L 260.7 278.0 L 266.98 264.44 L 273.26 251.83 L 279.55 240.45000000000002 L 285.83 230.51 L 292.11 222.20000000000002 L 298.39 215.65 L 304.68 210.93 L 310.96 208.08 L 317.24 207.07 L 323.53000000000003 207.86 L 329.81 210.34 L 336.09000000000003 214.36 L 342.38 219.77 L 348.66 226.36 L 354.94 233.92000000000002 L 361.23 242.21 L 367.51 251.0 L 373.79 260.05 L 380.08 269.12 L 386.36 278.0 L 392.64 286.47 L 398.93 294.34000000000003 L 405.21000000000004 301.44 L 411.49 307.64 L 417.78000000000003 312.83 L 424.06 316.92 L 430.34000000000003 319.87 L 436.62 321.65000000000003 L 442.91 322.27 L 449.19 321.78000000000003 L 455.47 320.24 L 461.76 317.72 L 468.04 314.35 L 474.32 310.24 L 480.61 305.52 L 486.89 300.34000000000003 L 493.17 294.85 L 499.46000000000004 289.21 L 505.74 283.54 L 512.02 278.0 L 518.3100000000001 272.71 L 524.59 267.8 L 530.87 263.37 L 537.16 259.5 L 543.44 256.26 L 549.72 253.70000000000002 L 556.01 251.86 L 562.29 250.75 L 568.57 250.36 L 568.57 322.36 L 562.29 322.75 L 556.01 323.86 L 549.72 325.7 L 543.44 328.26 L 537.16 331.5 L 530.87 335.37 L 524.59 339.8 L 518.3100000000001 344.71 L 512.02 350.0 L 505.74 355.54 L 499.46000000000004 361.21 L 493.17 366.85 L 486.89 372.34000000000003 L 480.61 377.52 L 474.32 382.24 L 468.04 386.35 L 461.76 389.72 L 455.47 392.24 L 449.19 393.78000000000003 L 442.91 394.27 L 436.62 393.65000000000003 L 430.34000000000003 391.87 L 424.06 388.92 L 417.78000000000003 384.83 L 411.49 379.64 L 405.21000000000004 373.44 L 398.93 366.34000000000003 L 392.64 358.47 L 386.36 350.0 L 380.08 341.12 L 373.79 332.05 L 367.51 323.0 L 361.23 314.21 L 354.94 305.92 L 348.66 298.36 L 342.38 291.77 L 336.09000000000003 286.36 L 329.81 282.34000000000003 L 323.53000000000003 279.86 L 317.24 279.07 L 310.96 280.08 L 304.68 282.93 L 298.39 287.65000000000003 L 292.11 294.2 L 285.83 302.51 L 279.55 312.45 L 273.26 323.83 L 266.98 336.44 L 260.7 350.0 L 254.41 364.22 L 248.13 378.76 L 241.85 393.25 L 235.56 407.34000000000003 L 229.28 420.62 L 223.0 432.73 L 216.71 443.28000000000003 L 210.43 451.94 L 204.15 458.39 L 197.86 462.36 L 191.58 463.62 L 185.3 462.02 L 179.01 457.45 L 172.73 449.89 L 166.45000000000002 439.39 L 160.16 426.07 L 153.88 410.16 L 147.6 391.92 L 141.32 371.73 L 135.03 350.0 L 128.75 327.22 L 122.47 303.93 L 116.18 280.71 L 109.9 258.15 L 103.62 236.87 L 97.33 217.47 L 91.05 200.56 L 84.77 186.69 L 78.48 176.36 L 72.2 170.0 Z" stroke="none" stroke-width="0" fill="#b22222" fill-opacity="0.2" /><path d="M 72.2 134.0 L 78.48 140.36 L 84.77 150.69 L 91.05 164.56 L 97.33 181.47 L 103.62 200.87 L 109.9 222.15 L 116.18 244.71 L 122.47 267.93 L 128.75 291.22 L 135.03 314.0 L 141.32 335.73 L 147.6 355.92 L 153.88 374.16 L 160.16 390.07 L 166.45000000000002 403.39 L 172.73 413.89 L 179.01 421.45 L 185.3 426.02 L 191.58 427.62 L 197.86 426.36 L 204.15 422.39 L 210.43 415.94 L 216.71 407.28000000000003 L 223.0 396.73 L 229.28 384.62 L 235.56 371.34000000000003 L 241.85 357.25 L 248.13 342.76 L 254.41 328.22 L 260.7 314.0 L 266.98 300.44 L 273.26 287.83 L 279.55 276.45 L 285.83 266.51 L 292.11 258.2 L 298.39 251.65 L 304.68 246.93 L 310.96 244.08 L 317.24 243.07 L 323.53000000000003 243.86 L 329.81 246.34 L 336.09000000000003 250.36 L 342.38 255.77 L 348.66 262.36 L 354.94 269.92 L 361.23 278.21 L 367.51 287.0 L 373.79 296.05 L 380.08 305.12 L 386.36 314.0 L 392.64 322.47 L 398.93 330.34000000000003 L 405.21000000000004 337.44 L 411.49 343.64 L 417.78000000000003 348.83 L 424.06 352.92 L 430.34000000000003 355.87 L 436.62 357.65000000000003 L 442.91 358.27 L 449.19 357.78000000000003 L 455.47 356.24 L 461.76 353.72 L 468.04 350.35 L 474.32 346.24 L 480.61 341.52 L 486.89 336.34000000000003 L 493.17 330.85 L 499.46000000000004 325.21 L 505.74 319.54 L 512.02 314.0 L 518.3100000000001 308.71 L 524.59 303.8 L 530.87 299.37 L 537.16 295.5 L 543.44 292.26 L 549.72 289.7 L 556.01 287.86 L 562.29 286.75 L 568.57 286.36 " stroke="#b22222" stroke-width="2" fill="none" /></svg>