<svg xmlns="http://www.w3.org/2000/svg" width="685.4" height="545" font-family="DejaVu Sans, Liberation Sans, Arial, sans-serif" fill="black"><rect width="100%" height="100%" fill="white" /><defs><clipPath id="kuva-clip-1"><rect x="63.800000000000004" y="44" width="600" height="450"/></clipPath></defs><line x1="163.8" y1="44" x2="163.8" y2="494" stroke="#cccccc" stroke-width="1" /><line x1="263.8" y1="44" x2="263.8" y2="494" stroke="#cccccc" stroke-width="1" /><line x1="363.8" y1="44" x2="363.8" y2="494" stroke="#cccccc" stroke-width="1" /><line x1="463.8" y1="44" x2="463.8" y2="494" stroke="#cccccc" stroke-width="1" /><line x1="563.8000000000001" y1="44" x2="563.8000000000001" y2="494" stroke="#cccccc" stroke-width="1" /><line x1="663.8000000000001" y1="44" x2="663.8000000000001" y2="494" stroke="#cccccc" stroke-width="1" /><line x1="63.800000000000004" y1="404" x2="663.8000000000001" y2="404" stroke="#cccccc" stroke-width="1" /><line x1="63.800000000000004" y1="314" x2="663.8000000000001" y2="314" stroke="#cccccc" stroke-width="1" /><line x1="63.800000000000004" y1="224" x2="663.8000000000001" y2="224" stroke="#cccccc" stroke-width="1" /><line x1="63.800000000000004" y1="134" x2="663.8000000000001" y2="134" stroke="#cccccc" stroke-width="1" /><line x1="63.800000000000004" y1="44" x2="663.8000000000001" y2="44" stroke="#cccccc" stroke-width="1" /><line x1="63.800000000000004" y1="494" x2="663.8000000000001" y2="494" stroke="#000000" stroke-width="1" /><line x1="63.800000000000004" y1="44" x2="63.800000000000004" y2="494" stroke="#000000" stroke-width="1" /><line x1="63.800000000000004" y1="494" x2="63.800000000000004" y2="499" stroke="#000000" stroke-width="1" /><text x="63.800000000000004" y="511" font-size="12" text-anchor="middle">0</text><line x1="163.8" y1="494" x2="163.8" y2="499" stroke="#000000" stroke-width="1" /><text x="163.8" y="511" font-size="12" text-anchor="middle">2.5</text><line x1="263.8" y1="494" x2="263.8" y2="499" stroke="#000000" stroke-width="1" /><text x="263.8" y="511" font-size="12" text-anchor="middle">5</text><line x1="363.8" y1="494" x2="363.8" y2="499" stroke="#000000" stroke-width="1" /><text x="363.8" y="511" font-size="12" text-anchor="middle">7.5</text><line x1="463.8" y1="494" x2="463.8" y2="499" stroke="#000000" stroke-width="1" /><text x="463.8" y="511" font-size="12" text-anchor="middle">10</text><line x1="563.8000000000001" y1="494" x2="563.8000000000001" y2="499" stroke="#000000" stroke-width="1" /><text x="563.8000000000001" y="511" font-size="12" text-anchor="middle">12.5</text><line x1="663.8000000000001" y1="494" x2="663.8000000000001" y2="499" stroke="#000000" stroke-width="1" /><text x="663.8000000000001" y="511" font-size="12" text-anchor="middle">15</text><line x1="58.800000000000004" y1="494" x2="63.800000000000004" y2="494" stroke="#000000" stroke-width="1" /><text x="55.800000000000004" y="498.2" font-size="12" text-anchor="end">-1</text><line x1="58.800000000000004" y1="404" x2="63.800000000000004" y2="404" stroke="#000000" stroke-width="1" /><text x="55.800000000000004" y="408.2" font-size="12" text-anchor="end">-0.5</text><line x1="58.800000000000004" y1="314" x2="63.800000000000004" y2="314" stroke="#000000" stroke-width="1" /><text x="55.800000000000004" y="318.2" font-size="12" text-anchor="end">0</text><line x1="58.800000000000004" y1="224" x2="63.800000000000004" y2="224" stroke="#000000" stroke-width="1" /><text x="55.800000000000004" y="228.20000000000002" font-size="12" text-anchor="end">0.5</text><line x1="58.800000000000004" y1="134" x2="63.800000000000004" y2="134" stroke="#000000" stroke-width="1" /><text x="55.800000000000004" y="138.20000000000002" font-size="12" text-anchor="end">1</text><line x1="58.800000000000004" y1="44" x2="63.800000000000004" y2="44" stroke="#000000" stroke-width="1" /><text x="55.800000000000004" y="48.2" font-size="12" text-anchor="end">1.5</text><text x="363.8" y="538" font-size="14" text-anchor="middle">x</text><text x="15" y="272.5" font-size="14" text-anchor="middle" transform="rotate(-90,15,272.5)">e^(−0.15x) · cos(x)</text><text x="342.7" y="27.400000000000002" font-size="18" text-anchor="middle">Band Attached to Line</text><g clip-path="url(#kuva-clip-1)"><path d="M 63.800000000000004 98.0 L 70.08 104.36 L 76.37 114.69 L 82.65 128.56 L 88.93 145.47 L 95.22 164.87 L 101.5 186.15 L 107.78 208.71 L 114.07000000000001 231.93 L 120.35000000000001 255.22 L 126.63000000000001 278.0 L 132.92000000000002 299.73 L 139.20000000000002 319.92 L 145.48 338.16 L 151.76 354.07 L 158.05 367.39 L 164.33 377.89 L 170.61 385.45 L 176.9 390.02 L 183.18 391.62 L 189.46 390.36 L 195.75 386.39 L 202.03 379.94 L 208.31 371.28000000000003 L 214.6 360.73 L 220.88 348.62 L 227.16 335.34000000000003 L 233.45000000000002 321.25 L 239.73000000000002 306.76 L 246.01000000000002 292.22 L 252.3 278.0 L 258.58 264.44 L 264.86 251.83 L 271.15 240.45000000000002 L 277.43 230.51 L 283.71 222.20000000000002 L 289.99 215.65 L 296.28000000000003 210.93 L 302.56 208.08 L 308.84000000000003 207.07 L 315.13 207.86 L 321.41 210.34 L 327.69 214.36 L 333.98 219.77 L 340.26 226.36 L 346.54 233.92000000000002 L 352.83 242.21 L 359.11 251.0 L 365.39 260.05 L 371.68 269.12 L 377.96 278.0 L 384.24 286.47 L 390.53000000000003 294.34000000000003 L 396.81 301.44 L 403.09000000000003 307.64 L 409.38 312.83 L 415.66 316.92 L 421.94 319.87 L 428.22 321.65000000000003 L 434.51 322.27 L 440.79 321.78000000000003 L 447.07 320.24 L 453.36 317.72 L 459.64 314.35 L 465.92 310.24 L 472.21000000000004 305.52 L 478.49 300.34000000000003 L 484.77 294.85 L 491.06 289.21 L 497.34000000000003 283.54 L 503.62 278.0 L 509.91 272.71 L 516.19 267.8 L 522.47 263.37 L 528.76 259.5 L 535.04 256.26 L 541.32 253.70000000000002 L 547.61 251.86 L 553.89 250.75 L 560.17 250.36 L 560.17 322.36 L 553.89 322.75 L 547.61 323.86 L 541.32 325.7 L 535.04 328.26 L 528.76 331.5 L 522.47 335.37 L 516.19 339.8 L 509.91 344.71 L 503.62 350.0 L 497.34000000000003 355.54 L 491.06 361.21 L 484.77 366.85 L 478.49 372.34000000000003 L 472.21000000000004 377.52 L 465.92 382.24 L 459.64 386.35 L 453.36 389.72 L 447.07 392.24 L 440.79 393.78000000000003 L 434.51 394.27 L 428.22 393.65000000000003 L 421.94 391.87 L 415.66 388.92 L 409.38 384.83 L 403.09000000000003 379.64 L 396.81 373.44 L 390.53000000000003 366.34000000000003 L 384.24 358.47 L 377.96 350.0 L 371.68 341.12 L 365.39 332.05 L 359.11 323.0 L 352.83 314.21 L 346.54 305.92 L 340.26 298.36 L 333.98 291.77 L 327.69 286.36 L 321.41 282.34000000000003 L 315.13 279.86 L 308.84000000000003 279.07 L 302.56 280.08 L 296.28000000000003 282.93 L 289.99 287.65000000000003 L 283.71 294.2 L 277.43 302.51 L 271.15 312.45 L 264.86 323.83 L 258.58 336.44 L 252.3 350.0 L 246.01000000000002 364.22 L 239.73000000000002 378.76 L 233.45000000000002 393.25 L 227.16 407.34000000000003 L 220.88 420.62 L 214.6 432.73 L 208.31 443.28000000000003 L 202.03 451.94 L 195.75 458.39 L 189.46 462.36 L 183.18 463.62 L 176.9 462.02 L 170.61 457.45 L 164.33 449.89 L 158.05 439.39 L 151.76 426.07 L 145.48 410.16 L 139.20000000000002 391.92 L 132.92000000000002 371.73 L 126.63000000000001 350.0 L 120.35000000000001 327.22 L 114.07000000000001 303.93 L 107.78 280.71 L 101.5 258.15 L 95.22 236.87 L 88.93 217.47 L 82.65 200.56 L 76.37 186.69 L 70.08 176.36 L 63.800000000000004 170.0 Z" stroke="none" stroke-width="0" fill="#b22222" fill-opacity="0.2" /><path d="M 63.800000000000004 134.0 L 70.08 140.36 L 76.37 150.69 L 82.65 164.56 L 88.93 181.47 L 95.22 200.87 L 101.5 222.15 L 107.78 244.71 L 114.07000000000001 267.93 L 120.35000000000001 291.22 L 126.63000000000001 314.0 L 132.92000000000002 335.73 L 139.20000000000002 355.92 L 145.48 374.16 L 151.76 390.07 L 158.05 403.39 L 164.33 413.89 L 170.61 421.45 L 176.9 426.02 L 183.18 427.62 L 189.46 426.36 L 195.75 422.39 L 202.03 415.94 L 208.31 407.28000000000003 L 214.6 396.73 L 220.88 384.62 L 227.16 371.34000000000003 L 233.45000000000002 357.25 L 239.73000000000002 342.76 L 246.01000000000002 328.22 L 252.3 314.0 L 258.58 300.44 L 264.86 287.83 L 271.15 276.45 L 277.43 266.51 L 283.71 258.2 L 289.99 251.65 L 296.28000000000003 246.93 L 302.56 244.08 L 308.84000000000003 243.07 L 315.13 243.86 L 321.41 246.34 L 327.69 250.36 L 333.98 255.77 L 340.26 262.36 L 346.54 269.92 L 352.83 278.21 L 359.11 287.0 L 365.39 296.05 L 371.68 305.12 L 377.96 314.0 L 384.24 322.47 L 390.53000000000003 330.34000000000003 L 396.81 337.44 L 403.09000000000003 343.64 L 409.38 348.83 L 415.66 352.92 L 421.94 355.87 L 428.22 357.65000000000003 L 434.51 358.27 L 440.79 357.78000000000003 L 447.07 356.24 L 453.36 353.72 L 459.64 350.35 L 465.92 346.24 L 472.21000000000004 341.52 L 478.49 336.34000000000003 L 484.77 330.85 L 491.06 325.21 L 497.34000000000003 319.54 L 503.62 314.0 L 509.91 308.71 L 516.19 303.8 L 522.47 299.37 L 528.76 295.5 L 535.04 292.26 L 541.32 289.7 L 547.61 287.86 L 553.89 286.75 L 560.17 286.36 " stroke="#b22222" stroke-width="2" fill="none" /></g></svg>