<svg xmlns="http://www.w3.org/2000/svg" width="857.2" height="545" font-family="DejaVu Sans, Liberation Sans, Arial, sans-serif" fill="black"><rect width="100%" height="100%" fill="white" /><line x1="72.2" y1="494" x2="672.2" y2="494" stroke="#000000" stroke-width="1" /><line x1="72.2" y1="44" x2="72.2" y2="494" stroke="#000000" stroke-width="1" /><line x1="192.20000000000002" y1="44" x2="192.20000000000002" y2="494" stroke="#cccccc" stroke-width="1" /><line x1="312.2" y1="44" x2="312.2" y2="494" stroke="#cccccc" stroke-width="1" /><line x1="432.2" y1="44" x2="432.2" y2="494" stroke="#cccccc" stroke-width="1" /><line x1="552.2" y1="44" x2="552.2" y2="494" stroke="#cccccc" stroke-width="1" /><line x1="672.2" y1="44" x2="672.2" y2="494" stroke="#cccccc" stroke-width="1" /><line x1="72.2" y1="419" x2="672.2" y2="419" stroke="#cccccc" stroke-width="1" /><line x1="72.2" y1="344" x2="672.2" y2="344" stroke="#cccccc" stroke-width="1" /><line x1="72.2" y1="269" x2="672.2" y2="269" stroke="#cccccc" stroke-width="1" /><line x1="72.2" y1="194" x2="672.2" y2="194" stroke="#cccccc" stroke-width="1" /><line x1="72.2" y1="119" x2="672.2" y2="119" stroke="#cccccc" stroke-width="1" /><line x1="72.2" y1="44" x2="672.2" y2="44" stroke="#cccccc" stroke-width="1" /><line x1="72.2" y1="494" x2="72.2" y2="499" stroke="#000000" stroke-width="1" /><text x="72.2" y="511" font-size="12" text-anchor="middle">0</text><line x1="192.20000000000002" y1="494" x2="192.20000000000002" y2="499" stroke="#000000" stroke-width="1" /><text x="192.20000000000002" y="511" font-size="12" text-anchor="middle">2.5</text><line x1="312.2" y1="494" x2="312.2" y2="499" stroke="#000000" stroke-width="1" /><text x="312.2" y="511" font-size="12" text-anchor="middle">5</text><line x1="432.2" y1="494" x2="432.2" y2="499" stroke="#000000" stroke-width="1" /><text x="432.2" y="511" font-size="12" text-anchor="middle">7.5</text><line x1="552.2" y1="494" x2="552.2" y2="499" stroke="#000000" stroke-width="1" /><text x="552.2" y="511" font-size="12" text-anchor="middle">10</text><line x1="672.2" y1="494" x2="672.2" y2="499" stroke="#000000" stroke-width="1" /><text x="672.2" y="511" font-size="12" text-anchor="middle">12.5</text><line x1="67.2" y1="494" x2="72.2" y2="494" stroke="#000000" stroke-width="1" /><text x="64.2" y="498.2" font-size="12" text-anchor="end">-1.5</text><line x1="67.2" y1="419" x2="72.2" y2="419" stroke="#000000" stroke-width="1" /><text x="64.2" y="423.2" font-size="12" text-anchor="end">-1</text><line x1="67.2" y1="344" x2="72.2" y2="344" stroke="#000000" stroke-width="1" /><text x="64.2" y="348.2" font-size="12" text-anchor="end">-0.5</text><line x1="67.2" y1="269" x2="72.2" y2="269" stroke="#000000" stroke-width="1" /><text x="64.2" y="273.2" font-size="12" text-anchor="end">0</text><line x1="67.2" y1="194" x2="72.2" y2="194" stroke="#000000" stroke-width="1" /><text x="64.2" y="198.20000000000002" font-size="12" text-anchor="end">0.5</text><line x1="67.2" y1="119" x2="72.2" y2="119" stroke="#000000" stroke-width="1" /><text x="64.2" y="123.2" font-size="12" text-anchor="end">1</text><line x1="67.2" y1="44" x2="72.2" y2="44" stroke="#000000" stroke-width="1" /><text x="64.2" y="48.2" font-size="12" text-anchor="end">1.5</text><text x="372.2" y="538" font-size="14" text-anchor="middle">x</text><text x="7" y="272.5" font-size="14" text-anchor="middle" transform="rotate(-90,7,272.5)">y</text><text x="372.2" y="22" font-size="18" text-anchor="middle">Multiple Series with Bands</text><path d="M 72.2 231.5 L 81.8 201.70000000000002 L 91.4 173.09 L 101.0 146.8 L 110.60000000000001 123.9 L 120.2 105.28 L 129.8 91.69 L 139.4 83.68 L 149.0 81.56 L 158.6 85.42 L 168.20000000000002 95.11 L 177.8 110.23 L 187.4 130.18 L 197.0 154.17000000000002 L 206.6 181.25 L 216.20000000000002 210.33 L 225.8 240.26 L 235.4 269.83 L 245.0 297.88 L 254.6 323.28000000000003 L 264.2 345.02 L 273.8 362.24 L 283.40000000000003 374.24 L 293.0 380.55 L 302.6 380.92 L 312.2 375.34000000000003 L 321.8 364.02 L 331.40000000000003 347.41 L 341.0 326.19 L 350.6 301.19 L 360.2 273.41 L 369.8 243.96 L 379.40000000000003 214.02 L 389.0 184.77 L 398.6 157.38 L 408.2 132.95 L 417.8 112.45 L 427.40000000000003 96.69 L 437.0 86.31 L 446.6 81.72 L 456.2 83.10000000000001 L 465.8 90.39 L 475.40000000000003 103.31 L 485.0 121.34 L 494.6 143.76 L 504.2 169.68 L 513.8 198.07 L 523.4 227.78 L 533.0 257.65 L 542.6 286.47 L 552.2 313.1 L 561.8000000000001 336.48 L 571.4 355.67 L 581.0 369.92 L 590.6 378.64 L 600.2 381.5 L 609.8000000000001 378.38 L 619.4 369.40000000000003 L 629.0 354.92 L 638.6 335.53000000000003 L 638.6 410.53000000000003 L 629.0 429.92 L 619.4 444.40000000000003 L 609.8000000000001 453.38 L 600.2 456.5 L 590.6 453.64 L 581.0 444.92 L 571.4 430.67 L 561.8000000000001 411.48 L 552.2 388.1 L 542.6 361.47 L 533.0 332.65000000000003 L 523.4 302.78000000000003 L 513.8 273.07 L 504.2 244.68 L 494.6 218.76 L 485.0 196.34 L 475.40000000000003 178.31 L 465.8 165.39000000000001 L 456.2 158.1 L 446.6 156.72 L 437.0 161.31 L 427.40000000000003 171.69 L 417.8 187.45000000000002 L 408.2 207.95000000000002 L 398.6 232.38 L 389.0 259.77 L 379.40000000000003 289.02 L 369.8 318.96 L 360.2 348.41 L 350.6 376.19 L 341.0 401.19 L 331.40000000000003 422.41 L 321.8 439.02 L 312.2 450.34000000000003 L 302.6 455.92 L 293.0 455.55 L 283.40000000000003 449.24 L 273.8 437.24 L 264.2 420.02 L 254.6 398.28000000000003 L 245.0 372.88 L 235.4 344.83 L 225.8 315.26 L 216.20000000000002 285.33 L 206.6 256.25 L 197.0 229.17000000000002 L 187.4 205.18 L 177.8 185.23 L 168.20000000000002 170.11 L 158.6 160.42000000000002 L 149.0 156.56 L 139.4 158.68 L 129.8 166.69 L 120.2 180.28 L 110.60000000000001 198.9 L 101.0 221.8 L 91.4 248.09 L 81.8 276.7 L 72.2 306.5 Z" stroke="none" stroke-width="0" fill="#4682b4" fill-opacity="0.2" /><path d="M 72.2 269.0 L 81.8 239.20000000000002 L 91.4 210.59 L 101.0 184.3 L 110.60000000000001 161.4 L 120.2 142.78 L 129.8 129.19 L 139.4 121.18 L 149.0 119.06 L 158.6 122.92 L 168.20000000000002 132.61 L 177.8 147.73 L 187.4 167.68 L 197.0 191.67000000000002 L 206.6 218.75 L 216.20000000000002 247.83 L 225.8 277.76 L 235.4 307.33 L 245.0 335.38 L 254.6 360.78000000000003 L 264.2 382.52 L 273.8 399.74 L 283.40000000000003 411.74 L 293.0 418.05 L 302.6 418.42 L 312.2 412.84000000000003 L 321.8 401.52 L 331.40000000000003 384.91 L 341.0 363.69 L 350.6 338.69 L 360.2 310.91 L 369.8 281.46 L 379.40000000000003 251.52 L 389.0 222.27 L 398.6 194.88 L 408.2 170.45000000000002 L 417.8 149.95000000000002 L 427.40000000000003 134.19 L 437.0 123.81 L 446.6 119.22 L 456.2 120.60000000000001 L 465.8 127.89 L 475.40000000000003 140.81 L 485.0 158.84 L 494.6 181.26 L 504.2 207.18 L 513.8 235.57 L 523.4 265.28000000000003 L 533.0 295.15000000000003 L 542.6 323.97 L 552.2 350.6 L 561.8000000000001 373.98 L 571.4 393.17 L 581.0 407.42 L 590.6 416.14 L 600.2 419.0 L 609.8000000000001 415.88 L 619.4 406.90000000000003 L 629.0 392.42 L 638.6 373.03000000000003 " stroke="#4682b4" stroke-width="2" fill="none" /><path d="M 72.2 111.5 L 81.8 112.10000000000001 L 91.4 113.89 L 101.0 116.86 L 110.60000000000001 120.97 L 120.2 126.19 L 129.8 132.46 L 139.4 139.72 L 149.0 147.9 L 158.6 156.91 L 168.20000000000002 166.66 L 177.8 177.07 L 187.4 188.02 L 197.0 199.4 L 206.6 211.1 L 216.20000000000002 223.01 L 225.8 235.0 L 235.4 246.96 L 245.0 258.76 L 254.6 270.29 L 264.2 281.44 L 273.8 292.08 L 283.40000000000003 302.12 L 293.0 311.45 L 302.6 319.99 L 312.2 327.64 L 321.8 334.33 L 331.40000000000003 339.99 L 341.0 344.57 L 350.6 348.01 L 360.2 350.3 L 369.8 351.40000000000003 L 379.40000000000003 351.3 L 389.0 350.0 L 398.6 347.52 L 408.2 343.87 L 417.8 339.11 L 427.40000000000003 333.27 L 437.0 326.42 L 446.6 318.61 L 456.2 309.94 L 465.8 300.48 L 475.40000000000003 290.33 L 485.0 279.6 L 494.6 268.38 L 504.2 256.8 L 513.8 244.96 L 523.4 232.99 L 533.0 221.0 L 542.6 209.12 L 552.2 197.46 L 561.8000000000001 186.14000000000001 L 571.4 175.28 L 581.0 164.98 L 590.6 155.34 L 600.2 146.46 L 609.8000000000001 138.43 L 619.4 131.33 L 629.0 125.24000000000001 L 638.6 120.2 L 638.6 195.20000000000002 L 629.0 200.24 L 619.4 206.33 L 609.8000000000001 213.43 L 600.2 221.46 L 590.6 230.34 L 581.0 239.98000000000002 L 571.4 250.28 L 561.8000000000001 261.14 L 552.2 272.46 L 542.6 284.12 L 533.0 296.0 L 523.4 307.99 L 513.8 319.96 L 504.2 331.8 L 494.6 343.38 L 485.0 354.6 L 475.40000000000003 365.33 L 465.8 375.48 L 456.2 384.94 L 446.6 393.61 L 437.0 401.42 L 427.40000000000003 408.27 L 417.8 414.11 L 408.2 418.87 L 398.6 422.52 L 389.0 425.0 L 379.40000000000003 426.3 L 369.8 426.40000000000003 L 360.2 425.3 L 350.6 423.01 L 341.0 419.57 L 331.40000000000003 414.99 L 321.8 409.33 L 312.2 402.64 L 302.6 394.99 L 293.0 386.45 L 283.40000000000003 377.12 L 273.8 367.08 L 264.2 356.44 L 254.6 345.29 L 245.0 333.76 L 235.4 321.96 L 225.8 310.0 L 216.20000000000002 298.01 L 206.6 286.1 L 197.0 274.40000000000003 L 187.4 263.02 L 177.8 252.07 L 168.20000000000002 241.66 L 158.6 231.91 L 149.0 222.9 L 139.4 214.72 L 129.8 207.46 L 120.2 201.19 L 110.60000000000001 195.97 L 101.0 191.86 L 91.4 188.89000000000001 L 81.8 187.1 L 72.2 186.5 Z" stroke="none" stroke-width="0" fill="#ff8c00" fill-opacity="0.2" /><path d="M 72.2 149.0 L 81.8 149.6 L 91.4 151.39000000000001 L 101.0 154.36 L 110.60000000000001 158.47 L 120.2 163.69 L 129.8 169.96 L 139.4 177.22 L 149.0 185.4 L 158.6 194.41 L 168.20000000000002 204.16 L 177.8 214.57 L 187.4 225.52 L 197.0 236.9 L 206.6 248.6 L 216.20000000000002 260.51 L 225.8 272.5 L 235.4 284.46 L 245.0 296.26 L 254.6 307.79 L 264.2 318.94 L 273.8 329.58 L 283.40000000000003 339.62 L 293.0 348.95 L 302.6 357.49 L 312.2 365.14 L 321.8 371.83 L 331.40000000000003 377.49 L 341.0 382.07 L 350.6 385.51 L 360.2 387.8 L 369.8 388.90000000000003 L 379.40000000000003 388.8 L 389.0 387.5 L 398.6 385.02 L 408.2 381.37 L 417.8 376.61 L 427.40000000000003 370.77 L 437.0 363.92 L 446.6 356.11 L 456.2 347.44 L 465.8 337.98 L 475.40000000000003 327.83 L 485.0 317.1 L 494.6 305.88 L 504.2 294.3 L 513.8 282.46 L 523.4 270.49 L 533.0 258.5 L 542.6 246.62 L 552.2 234.96 L 561.8000000000001 223.64000000000001 L 571.4 212.78 L 581.0 202.48000000000002 L 590.6 192.84 L 600.2 183.96 L 609.8000000000001 175.93 L 619.4 168.83 L 629.0 162.74 L 638.6 157.70000000000002 " stroke="#ff8c00" stroke-width="2" fill="none" /><rect x="677.2" y="34" width="171" height="56" fill="#ffffff" /><rect x="677.2" y="34" width="171" height="56" fill="none" stroke="#000000" stroke-width="1" /><text x="707.2" y="53.2" font-size="12" text-anchor="start">sin(x)</text><line x1="687.2" y1="49" x2="699.2" y2="49" stroke="#4682b4" stroke-width="2" /><text x="707.2" y="71.2" font-size="12" text-anchor="start">0.8 · cos(0.5x)</text><line x1="687.2" y1="67" x2="699.2" y2="67" stroke="#ff8c00" stroke-width="2" /></svg>