<svg xmlns="http://www.w3.org/2000/svg" width="856.4" height="545" font-family="DejaVu Sans, Liberation Sans, Arial, sans-serif" fill="black"><rect width="100%" height="100%" fill="white" /><defs><clipPath id="kuva-clip-3"><rect x="63.800000000000004" y="44" width="600" height="450"/></clipPath></defs><line x1="183.8" y1="44" x2="183.8" y2="494" stroke="#cccccc" stroke-width="1" /><line x1="303.8" y1="44" x2="303.8" y2="494" stroke="#cccccc" stroke-width="1" /><line x1="423.8" y1="44" x2="423.8" y2="494" stroke="#cccccc" stroke-width="1" /><line x1="543.8" y1="44" x2="543.8" y2="494" stroke="#cccccc" stroke-width="1" /><line x1="663.8000000000001" y1="44" x2="663.8000000000001" y2="494" stroke="#cccccc" stroke-width="1" /><line x1="63.800000000000004" y1="419" x2="663.8000000000001" y2="419" stroke="#cccccc" stroke-width="1" /><line x1="63.800000000000004" y1="344" x2="663.8000000000001" y2="344" stroke="#cccccc" stroke-width="1" /><line x1="63.800000000000004" y1="269" x2="663.8000000000001" y2="269" stroke="#cccccc" stroke-width="1" /><line x1="63.800000000000004" y1="194" x2="663.8000000000001" y2="194" stroke="#cccccc" stroke-width="1" /><line x1="63.800000000000004" y1="119" x2="663.8000000000001" y2="119" stroke="#cccccc" stroke-width="1" /><line x1="63.800000000000004" y1="44" x2="663.8000000000001" y2="44" stroke="#cccccc" stroke-width="1" /><line x1="63.800000000000004" y1="494" x2="663.8000000000001" y2="494" stroke="#000000" stroke-width="1" /><line x1="63.800000000000004" y1="44" x2="63.800000000000004" y2="494" stroke="#000000" stroke-width="1" /><line x1="63.800000000000004" y1="494" x2="63.800000000000004" y2="499" stroke="#000000" stroke-width="1" /><text x="63.800000000000004" y="511" font-size="12" text-anchor="middle">0</text><line x1="183.8" y1="494" x2="183.8" y2="499" stroke="#000000" stroke-width="1" /><text x="183.8" y="511" font-size="12" text-anchor="middle">2.5</text><line x1="303.8" y1="494" x2="303.8" y2="499" stroke="#000000" stroke-width="1" /><text x="303.8" y="511" font-size="12" text-anchor="middle">5</text><line x1="423.8" y1="494" x2="423.8" y2="499" stroke="#000000" stroke-width="1" /><text x="423.8" y="511" font-size="12" text-anchor="middle">7.5</text><line x1="543.8" y1="494" x2="543.8" y2="499" stroke="#000000" stroke-width="1" /><text x="543.8" y="511" font-size="12" text-anchor="middle">10</text><line x1="663.8000000000001" y1="494" x2="663.8000000000001" y2="499" stroke="#000000" stroke-width="1" /><text x="663.8000000000001" y="511" font-size="12" text-anchor="middle">12.5</text><line x1="58.800000000000004" y1="494" x2="63.800000000000004" y2="494" stroke="#000000" stroke-width="1" /><text x="55.800000000000004" y="498.2" font-size="12" text-anchor="end">-1.5</text><line x1="58.800000000000004" y1="419" x2="63.800000000000004" y2="419" stroke="#000000" stroke-width="1" /><text x="55.800000000000004" y="423.2" font-size="12" text-anchor="end">-1</text><line x1="58.800000000000004" y1="344" x2="63.800000000000004" y2="344" stroke="#000000" stroke-width="1" /><text x="55.800000000000004" y="348.2" font-size="12" text-anchor="end">-0.5</text><line x1="58.800000000000004" y1="269" x2="63.800000000000004" y2="269" stroke="#000000" stroke-width="1" /><text x="55.800000000000004" y="273.2" font-size="12" text-anchor="end">0</text><line x1="58.800000000000004" y1="194" x2="63.800000000000004" y2="194" stroke="#000000" stroke-width="1" /><text x="55.800000000000004" y="198.20000000000002" font-size="12" text-anchor="end">0.5</text><line x1="58.800000000000004" y1="119" x2="63.800000000000004" y2="119" stroke="#000000" stroke-width="1" /><text x="55.800000000000004" y="123.2" font-size="12" text-anchor="end">1</text><line x1="58.800000000000004" y1="44" x2="63.800000000000004" y2="44" stroke="#000000" stroke-width="1" /><text x="55.800000000000004" y="48.2" font-size="12" text-anchor="end">1.5</text><text x="363.8" y="538" font-size="14" text-anchor="middle">x</text><text x="15" y="272.5" font-size="14" text-anchor="middle" transform="rotate(-90,15,272.5)">y</text><text x="363.8" y="22" font-size="18" text-anchor="middle">Multiple Series with Bands</text><g clip-path="url(#kuva-clip-3)"><path d="M 63.800000000000004 231.5 L 73.4 201.70000000000002 L 83.0 173.09 L 92.60000000000001 146.8 L 102.2 123.9 L 111.8 105.28 L 121.4 91.69 L 131.0 83.68 L 140.6 81.56 L 150.20000000000002 85.42 L 159.8 95.11 L 169.4 110.23 L 179.0 130.18 L 188.6 154.17000000000002 L 198.20000000000002 181.25 L 207.8 210.33 L 217.4 240.26 L 227.0 269.83 L 236.6 297.88 L 246.20000000000002 323.28000000000003 L 255.8 345.02 L 265.4 362.24 L 275.0 374.24 L 284.6 380.55 L 294.2 380.92 L 303.8 375.34000000000003 L 313.40000000000003 364.02 L 323.0 347.41 L 332.6 326.19 L 342.2 301.19 L 351.8 273.41 L 361.40000000000003 243.96 L 371.0 214.02 L 380.6 184.77 L 390.2 157.38 L 399.8 132.95 L 409.40000000000003 112.45 L 419.0 96.69 L 428.6 86.31 L 438.2 81.72 L 447.8 83.10000000000001 L 457.40000000000003 90.39 L 467.0 103.31 L 476.6 121.34 L 486.2 143.76 L 495.8 169.68 L 505.40000000000003 198.07 L 515.0 227.78 L 524.6 257.65 L 534.2 286.47 L 543.8 313.1 L 553.4 336.48 L 563.0 355.67 L 572.6 369.92 L 582.2 378.64 L 591.8000000000001 381.5 L 601.4 378.38 L 611.0 369.40000000000003 L 620.6 354.92 L 630.2 335.53000000000003 L 630.2 410.53000000000003 L 620.6 429.92 L 611.0 444.40000000000003 L 601.4 453.38 L 591.8000000000001 456.5 L 582.2 453.64 L 572.6 444.92 L 563.0 430.67 L 553.4 411.48 L 543.8 388.1 L 534.2 361.47 L 524.6 332.65000000000003 L 515.0 302.78000000000003 L 505.40000000000003 273.07 L 495.8 244.68 L 486.2 218.76 L 476.6 196.34 L 467.0 178.31 L 457.40000000000003 165.39000000000001 L 447.8 158.1 L 438.2 156.72 L 428.6 161.31 L 419.0 171.69 L 409.40000000000003 187.45000000000002 L 399.8 207.95000000000002 L 390.2 232.38 L 380.6 259.77 L 371.0 289.02 L 361.40000000000003 318.96 L 351.8 348.41 L 342.2 376.19 L 332.6 401.19 L 323.0 422.41 L 313.40000000000003 439.02 L 303.8 450.34000000000003 L 294.2 455.92 L 284.6 455.55 L 275.0 449.24 L 265.4 437.24 L 255.8 420.02 L 246.20000000000002 398.28000000000003 L 236.6 372.88 L 227.0 344.83 L 217.4 315.26 L 207.8 285.33 L 198.20000000000002 256.25 L 188.6 229.17000000000002 L 179.0 205.18 L 169.4 185.23 L 159.8 170.11 L 150.20000000000002 160.42000000000002 L 140.6 156.56 L 131.0 158.68 L 121.4 166.69 L 111.8 180.28 L 102.2 198.9 L 92.60000000000001 221.8 L 83.0 248.09 L 73.4 276.7 L 63.800000000000004 306.5 Z" stroke="none" stroke-width="0" fill="#4682b4" fill-opacity="0.2" /><path d="M 63.800000000000004 269.0 L 73.4 239.20000000000002 L 83.0 210.59 L 92.60000000000001 184.3 L 102.2 161.4 L 111.8 142.78 L 121.4 129.19 L 131.0 121.18 L 140.6 119.06 L 150.20000000000002 122.92 L 159.8 132.61 L 169.4 147.73 L 179.0 167.68 L 188.6 191.67000000000002 L 198.20000000000002 218.75 L 207.8 247.83 L 217.4 277.76 L 227.0 307.33 L 236.6 335.38 L 246.20000000000002 360.78000000000003 L 255.8 382.52 L 265.4 399.74 L 275.0 411.74 L 284.6 418.05 L 294.2 418.42 L 303.8 412.84000000000003 L 313.40000000000003 401.52 L 323.0 384.91 L 332.6 363.69 L 342.2 338.69 L 351.8 310.91 L 361.40000000000003 281.46 L 371.0 251.52 L 380.6 222.27 L 390.2 194.88 L 399.8 170.45000000000002 L 409.40000000000003 149.95000000000002 L 419.0 134.19 L 428.6 123.81 L 438.2 119.22 L 447.8 120.60000000000001 L 457.40000000000003 127.89 L 467.0 140.81 L 476.6 158.84 L 486.2 181.26 L 495.8 207.18 L 505.40000000000003 235.57 L 515.0 265.28000000000003 L 524.6 295.15000000000003 L 534.2 323.97 L 543.8 350.6 L 553.4 373.98 L 563.0 393.17 L 572.6 407.42 L 582.2 416.14 L 591.8000000000001 419.0 L 601.4 415.88 L 611.0 406.90000000000003 L 620.6 392.42 L 630.2 373.03000000000003 " stroke="#4682b4" stroke-width="2" fill="none" /><path d="M 63.800000000000004 111.5 L 73.4 112.10000000000001 L 83.0 113.89 L 92.60000000000001 116.86 L 102.2 120.97 L 111.8 126.19 L 121.4 132.46 L 131.0 139.72 L 140.6 147.9 L 150.20000000000002 156.91 L 159.8 166.66 L 169.4 177.07 L 179.0 188.02 L 188.6 199.4 L 198.20000000000002 211.1 L 207.8 223.01 L 217.4 235.0 L 227.0 246.96 L 236.6 258.76 L 246.20000000000002 270.29 L 255.8 281.44 L 265.4 292.08 L 275.0 302.12 L 284.6 311.45 L 294.2 319.99 L 303.8 327.64 L 313.40000000000003 334.33 L 323.0 339.99 L 332.6 344.57 L 342.2 348.01 L 351.8 350.3 L 361.40000000000003 351.40000000000003 L 371.0 351.3 L 380.6 350.0 L 390.2 347.52 L 399.8 343.87 L 409.40000000000003 339.11 L 419.0 333.27 L 428.6 326.42 L 438.2 318.61 L 447.8 309.94 L 457.40000000000003 300.48 L 467.0 290.33 L 476.6 279.6 L 486.2 268.38 L 495.8 256.8 L 505.40000000000003 244.96 L 515.0 232.99 L 524.6 221.0 L 534.2 209.12 L 543.8 197.46 L 553.4 186.14000000000001 L 563.0 175.28 L 572.6 164.98 L 582.2 155.34 L 591.8000000000001 146.46 L 601.4 138.43 L 611.0 131.33 L 620.6 125.24000000000001 L 630.2 120.2 L 630.2 195.20000000000002 L 620.6 200.24 L 611.0 206.33 L 601.4 213.43 L 591.8000000000001 221.46 L 582.2 230.34 L 572.6 239.98000000000002 L 563.0 250.28 L 553.4 261.14 L 543.8 272.46 L 534.2 284.12 L 524.6 296.0 L 515.0 307.99 L 505.40000000000003 319.96 L 495.8 331.8 L 486.2 343.38 L 476.6 354.6 L 467.0 365.33 L 457.40000000000003 375.48 L 447.8 384.94 L 438.2 393.61 L 428.6 401.42 L 419.0 408.27 L 409.40000000000003 414.11 L 399.8 418.87 L 390.2 422.52 L 380.6 425.0 L 371.0 426.3 L 361.40000000000003 426.40000000000003 L 351.8 425.3 L 342.2 423.01 L 332.6 419.57 L 323.0 414.99 L 313.40000000000003 409.33 L 303.8 402.64 L 294.2 394.99 L 284.6 386.45 L 275.0 377.12 L 265.4 367.08 L 255.8 356.44 L 246.20000000000002 345.29 L 236.6 333.76 L 227.0 321.96 L 217.4 310.0 L 207.8 298.01 L 198.20000000000002 286.1 L 188.6 274.40000000000003 L 179.0 263.02 L 169.4 252.07 L 159.8 241.66 L 150.20000000000002 231.91 L 140.6 222.9 L 131.0 214.72 L 121.4 207.46 L 111.8 201.19 L 102.2 195.97 L 92.60000000000001 191.86 L 83.0 188.89000000000001 L 73.4 187.1 L 63.800000000000004 186.5 Z" stroke="none" stroke-width="0" fill="#ff8c00" fill-opacity="0.2" /><path d="M 63.800000000000004 149.0 L 73.4 149.6 L 83.0 151.39000000000001 L 92.60000000000001 154.36 L 102.2 158.47 L 111.8 163.69 L 121.4 169.96 L 131.0 177.22 L 140.6 185.4 L 150.20000000000002 194.41 L 159.8 204.16 L 169.4 214.57 L 179.0 225.52 L 188.6 236.9 L 198.20000000000002 248.6 L 207.8 260.51 L 217.4 272.5 L 227.0 284.46 L 236.6 296.26 L 246.20000000000002 307.79 L 255.8 318.94 L 265.4 329.58 L 275.0 339.62 L 284.6 348.95 L 294.2 357.49 L 303.8 365.14 L 313.40000000000003 371.83 L 323.0 377.49 L 332.6 382.07 L 342.2 385.51 L 351.8 387.8 L 361.40000000000003 388.90000000000003 L 371.0 388.8 L 380.6 387.5 L 390.2 385.02 L 399.8 381.37 L 409.40000000000003 376.61 L 419.0 370.77 L 428.6 363.92 L 438.2 356.11 L 447.8 347.44 L 457.40000000000003 337.98 L 467.0 327.83 L 476.6 317.1 L 486.2 305.88 L 495.8 294.3 L 505.40000000000003 282.46 L 515.0 270.49 L 524.6 258.5 L 534.2 246.62 L 543.8 234.96 L 553.4 223.64000000000001 L 563.0 212.78 L 572.6 202.48000000000002 L 582.2 192.84 L 591.8000000000001 183.96 L 601.4 175.93 L 611.0 168.83 L 620.6 162.74 L 630.2 157.70000000000002 " stroke="#ff8c00" stroke-width="2" fill="none" /></g><rect x="668.8000000000001" y="34" width="171" height="56" fill="#ffffff" /><rect x="668.8000000000001" y="34" width="171" height="56" fill="none" stroke="#000000" stroke-width="1" /><text x="698.8000000000001" y="53.2" font-size="12" text-anchor="start">sin(x)</text><line x1="678.8000000000001" y1="49" x2="690.8000000000001" y2="49" stroke="#4682b4" stroke-width="2" /><text x="698.8000000000001" y="71.2" font-size="12" text-anchor="start">0.8 · cos(0.5x)</text><line x1="678.8000000000001" y1="67" x2="690.8000000000001" y2="67" stroke="#ff8c00" stroke-width="2" /></svg>