<svg xmlns="http://www.w3.org/2000/svg" width="685.4" height="545" font-family="DejaVu Sans, Liberation Sans, Arial, sans-serif" fill="black"><rect width="100%" height="100%" fill="white" /><defs><clipPath id="kuva-clip-0"><rect x="63.800000000000004" y="44" width="600" height="450"/></clipPath></defs><line x1="183.8" y1="44" x2="183.8" y2="494" stroke="#cccccc" stroke-width="1" /><line x1="303.8" y1="44" x2="303.8" y2="494" stroke="#cccccc" stroke-width="1" /><line x1="423.8" y1="44" x2="423.8" y2="494" stroke="#cccccc" stroke-width="1" /><line x1="543.8" y1="44" x2="543.8" y2="494" stroke="#cccccc" stroke-width="1" /><line x1="663.8000000000001" y1="44" x2="663.8000000000001" y2="494" stroke="#cccccc" stroke-width="1" /><line x1="63.800000000000004" y1="419" x2="663.8000000000001" y2="419" stroke="#cccccc" stroke-width="1" /><line x1="63.800000000000004" y1="344" x2="663.8000000000001" y2="344" stroke="#cccccc" stroke-width="1" /><line x1="63.800000000000004" y1="269" x2="663.8000000000001" y2="269" stroke="#cccccc" stroke-width="1" /><line x1="63.800000000000004" y1="194" x2="663.8000000000001" y2="194" stroke="#cccccc" stroke-width="1" /><line x1="63.800000000000004" y1="119" x2="663.8000000000001" y2="119" stroke="#cccccc" stroke-width="1" /><line x1="63.800000000000004" y1="44" x2="663.8000000000001" y2="44" stroke="#cccccc" stroke-width="1" /><line x1="63.800000000000004" y1="494" x2="663.8000000000001" y2="494" stroke="#000000" stroke-width="1" /><line x1="63.800000000000004" y1="44" x2="63.800000000000004" y2="494" stroke="#000000" stroke-width="1" /><line x1="63.800000000000004" y1="494" x2="63.800000000000004" y2="499" stroke="#000000" stroke-width="1" /><text x="63.800000000000004" y="511" font-size="12" text-anchor="middle">0</text><line x1="183.8" y1="494" x2="183.8" y2="499" stroke="#000000" stroke-width="1" /><text x="183.8" y="511" font-size="12" text-anchor="middle">2.5</text><line x1="303.8" y1="494" x2="303.8" y2="499" stroke="#000000" stroke-width="1" /><text x="303.8" y="511" font-size="12" text-anchor="middle">5</text><line x1="423.8" y1="494" x2="423.8" y2="499" stroke="#000000" stroke-width="1" /><text x="423.8" y="511" font-size="12" text-anchor="middle">7.5</text><line x1="543.8" y1="494" x2="543.8" y2="499" stroke="#000000" stroke-width="1" /><text x="543.8" y="511" font-size="12" text-anchor="middle">10</text><line x1="663.8000000000001" y1="494" x2="663.8000000000001" y2="499" stroke="#000000" stroke-width="1" /><text x="663.8000000000001" y="511" font-size="12" text-anchor="middle">12.5</text><line x1="58.800000000000004" y1="494" x2="63.800000000000004" y2="494" stroke="#000000" stroke-width="1" /><text x="55.800000000000004" y="498.2" font-size="12" text-anchor="end">-1.5</text><line x1="58.800000000000004" y1="419" x2="63.800000000000004" y2="419" stroke="#000000" stroke-width="1" /><text x="55.800000000000004" y="423.2" font-size="12" text-anchor="end">-1</text><line x1="58.800000000000004" y1="344" x2="63.800000000000004" y2="344" stroke="#000000" stroke-width="1" /><text x="55.800000000000004" y="348.2" font-size="12" text-anchor="end">-0.5</text><line x1="58.800000000000004" y1="269" x2="63.800000000000004" y2="269" stroke="#000000" stroke-width="1" /><text x="55.800000000000004" y="273.2" font-size="12" text-anchor="end">0</text><line x1="58.800000000000004" y1="194" x2="63.800000000000004" y2="194" stroke="#000000" stroke-width="1" /><text x="55.800000000000004" y="198.20000000000002" font-size="12" text-anchor="end">0.5</text><line x1="58.800000000000004" y1="119" x2="63.800000000000004" y2="119" stroke="#000000" stroke-width="1" /><text x="55.800000000000004" y="123.2" font-size="12" text-anchor="end">1</text><line x1="58.800000000000004" y1="44" x2="63.800000000000004" y2="44" stroke="#000000" stroke-width="1" /><text x="55.800000000000004" y="48.2" font-size="12" text-anchor="end">1.5</text><text x="363.8" y="538" font-size="14" text-anchor="middle">x</text><text x="15" y="272.5" font-size="14" text-anchor="middle" transform="rotate(-90,15,272.5)">y</text><text x="363.8" y="22" font-size="18" text-anchor="middle">Band Plot — Standalone</text><g clip-path="url(#kuva-clip-0)"><path d="M 63.800000000000004 216.5 L 73.4 186.70000000000002 L 83.0 158.09 L 92.60000000000001 131.8 L 102.2 108.9 L 111.8 90.28 L 121.4 76.69 L 131.0 68.68 L 140.6 66.56 L 150.20000000000002 70.42 L 159.8 80.11 L 169.4 95.23 L 179.0 115.18 L 188.6 139.17000000000002 L 198.20000000000002 166.25 L 207.8 195.33 L 217.4 225.26 L 227.0 254.83 L 236.6 282.88 L 246.20000000000002 308.28000000000003 L 255.8 330.02 L 265.4 347.24 L 275.0 359.24 L 284.6 365.55 L 294.2 365.92 L 303.8 360.34000000000003 L 313.40000000000003 349.02 L 323.0 332.41 L 332.6 311.19 L 342.2 286.19 L 351.8 258.41 L 361.40000000000003 228.96 L 371.0 199.02 L 380.6 169.77 L 390.2 142.38 L 399.8 117.95 L 409.40000000000003 97.45 L 419.0 81.69 L 428.6 71.31 L 438.2 66.72 L 447.8 68.1 L 457.40000000000003 75.39 L 467.0 88.31 L 476.6 106.34 L 486.2 128.76 L 495.8 154.68 L 505.40000000000003 183.07 L 515.0 212.78 L 524.6 242.65 L 534.2 271.47 L 543.8 298.1 L 553.4 321.48 L 563.0 340.67 L 572.6 354.92 L 582.2 363.64 L 591.8000000000001 366.5 L 601.4 363.38 L 611.0 354.40000000000003 L 620.6 339.92 L 630.2 320.53000000000003 L 630.2 425.53000000000003 L 620.6 444.92 L 611.0 459.40000000000003 L 601.4 468.38 L 591.8000000000001 471.5 L 582.2 468.64 L 572.6 459.92 L 563.0 445.67 L 553.4 426.48 L 543.8 403.1 L 534.2 376.47 L 524.6 347.65000000000003 L 515.0 317.78000000000003 L 505.40000000000003 288.07 L 495.8 259.68 L 486.2 233.76 L 476.6 211.34 L 467.0 193.31 L 457.40000000000003 180.39000000000001 L 447.8 173.1 L 438.2 171.72 L 428.6 176.31 L 419.0 186.69 L 409.40000000000003 202.45000000000002 L 399.8 222.95000000000002 L 390.2 247.38 L 380.6 274.77 L 371.0 304.02 L 361.40000000000003 333.96 L 351.8 363.41 L 342.2 391.19 L 332.6 416.19 L 323.0 437.41 L 313.40000000000003 454.02 L 303.8 465.34000000000003 L 294.2 470.92 L 284.6 470.55 L 275.0 464.24 L 265.4 452.24 L 255.8 435.02 L 246.20000000000002 413.28000000000003 L 236.6 387.88 L 227.0 359.83 L 217.4 330.26 L 207.8 300.33 L 198.20000000000002 271.25 L 188.6 244.17000000000002 L 179.0 220.18 L 169.4 200.23000000000002 L 159.8 185.11 L 150.20000000000002 175.42000000000002 L 140.6 171.56 L 131.0 173.68 L 121.4 181.69 L 111.8 195.28 L 102.2 213.9 L 92.60000000000001 236.8 L 83.0 263.09000000000003 L 73.4 291.7 L 63.800000000000004 321.5 Z" stroke="none" stroke-width="0" fill="#4682b4" fill-opacity="0.25" /><path d="M 63.800000000000004 269.0 L 73.4 239.20000000000002 L 83.0 210.59 L 92.60000000000001 184.3 L 102.2 161.4 L 111.8 142.78 L 121.4 129.19 L 131.0 121.18 L 140.6 119.06 L 150.20000000000002 122.92 L 159.8 132.61 L 169.4 147.73 L 179.0 167.68 L 188.6 191.67000000000002 L 198.20000000000002 218.75 L 207.8 247.83 L 217.4 277.76 L 227.0 307.33 L 236.6 335.38 L 246.20000000000002 360.78000000000003 L 255.8 382.52 L 265.4 399.74 L 275.0 411.74 L 284.6 418.05 L 294.2 418.42 L 303.8 412.84000000000003 L 313.40000000000003 401.52 L 323.0 384.91 L 332.6 363.69 L 342.2 338.69 L 351.8 310.91 L 361.40000000000003 281.46 L 371.0 251.52 L 380.6 222.27 L 390.2 194.88 L 399.8 170.45000000000002 L 409.40000000000003 149.95000000000002 L 419.0 134.19 L 428.6 123.81 L 438.2 119.22 L 447.8 120.60000000000001 L 457.40000000000003 127.89 L 467.0 140.81 L 476.6 158.84 L 486.2 181.26 L 495.8 207.18 L 505.40000000000003 235.57 L 515.0 265.28000000000003 L 524.6 295.15000000000003 L 534.2 323.97 L 543.8 350.6 L 553.4 373.98 L 563.0 393.17 L 572.6 407.42 L 582.2 416.14 L 591.8000000000001 419.0 L 601.4 415.88 L 611.0 406.90000000000003 L 620.6 392.42 L 630.2 373.03000000000003 " stroke="#4682b4" stroke-width="2" fill="none" /></g></svg>