<svg xmlns="http://www.w3.org/2000/svg" width="686.2" height="545" font-family="DejaVu Sans, Liberation Sans, Arial, sans-serif" fill="black"><rect width="100%" height="100%" fill="white" /><line x1="72.2" y1="494" x2="672.2" y2="494" stroke="#000000" stroke-width="1" /><line x1="72.2" y1="44" x2="72.2" y2="494" stroke="#000000" stroke-width="1" /><line x1="192.20000000000002" y1="44" x2="192.20000000000002" y2="494" stroke="#cccccc" stroke-width="1" /><line x1="312.2" y1="44" x2="312.2" y2="494" stroke="#cccccc" stroke-width="1" /><line x1="432.2" y1="44" x2="432.2" y2="494" stroke="#cccccc" stroke-width="1" /><line x1="552.2" y1="44" x2="552.2" y2="494" stroke="#cccccc" stroke-width="1" /><line x1="672.2" y1="44" x2="672.2" y2="494" stroke="#cccccc" stroke-width="1" /><line x1="72.2" y1="419" x2="672.2" y2="419" stroke="#cccccc" stroke-width="1" /><line x1="72.2" y1="344" x2="672.2" y2="344" stroke="#cccccc" stroke-width="1" /><line x1="72.2" y1="269" x2="672.2" y2="269" stroke="#cccccc" stroke-width="1" /><line x1="72.2" y1="194" x2="672.2" y2="194" stroke="#cccccc" stroke-width="1" /><line x1="72.2" y1="119" x2="672.2" y2="119" stroke="#cccccc" stroke-width="1" /><line x1="72.2" y1="44" x2="672.2" y2="44" stroke="#cccccc" stroke-width="1" /><line x1="72.2" y1="494" x2="72.2" y2="499" stroke="#000000" stroke-width="1" /><text x="72.2" y="511" font-size="12" text-anchor="middle">0</text><line x1="192.20000000000002" y1="494" x2="192.20000000000002" y2="499" stroke="#000000" stroke-width="1" /><text x="192.20000000000002" y="511" font-size="12" text-anchor="middle">2.5</text><line x1="312.2" y1="494" x2="312.2" y2="499" stroke="#000000" stroke-width="1" /><text x="312.2" y="511" font-size="12" text-anchor="middle">5</text><line x1="432.2" y1="494" x2="432.2" y2="499" stroke="#000000" stroke-width="1" /><text x="432.2" y="511" font-size="12" text-anchor="middle">7.5</text><line x1="552.2" y1="494" x2="552.2" y2="499" stroke="#000000" stroke-width="1" /><text x="552.2" y="511" font-size="12" text-anchor="middle">10</text><line x1="672.2" y1="494" x2="672.2" y2="499" stroke="#000000" stroke-width="1" /><text x="672.2" y="511" font-size="12" text-anchor="middle">12.5</text><line x1="67.2" y1="494" x2="72.2" y2="494" stroke="#000000" stroke-width="1" /><text x="64.2" y="498.2" font-size="12" text-anchor="end">-1.5</text><line x1="67.2" y1="419" x2="72.2" y2="419" stroke="#000000" stroke-width="1" /><text x="64.2" y="423.2" font-size="12" text-anchor="end">-1</text><line x1="67.2" y1="344" x2="72.2" y2="344" stroke="#000000" stroke-width="1" /><text x="64.2" y="348.2" font-size="12" text-anchor="end">-0.5</text><line x1="67.2" y1="269" x2="72.2" y2="269" stroke="#000000" stroke-width="1" /><text x="64.2" y="273.2" font-size="12" text-anchor="end">0</text><line x1="67.2" y1="194" x2="72.2" y2="194" stroke="#000000" stroke-width="1" /><text x="64.2" y="198.20000000000002" font-size="12" text-anchor="end">0.5</text><line x1="67.2" y1="119" x2="72.2" y2="119" stroke="#000000" stroke-width="1" /><text x="64.2" y="123.2" font-size="12" text-anchor="end">1</text><line x1="67.2" y1="44" x2="72.2" y2="44" stroke="#000000" stroke-width="1" /><text x="64.2" y="48.2" font-size="12" text-anchor="end">1.5</text><text x="372.2" y="538" font-size="14" text-anchor="middle">x</text><text x="7" y="272.5" font-size="14" text-anchor="middle" transform="rotate(-90,7,272.5)">y</text><text x="372.2" y="22" font-size="18" text-anchor="middle">Band Plot — Standalone</text><path d="M 72.2 216.5 L 81.8 186.70000000000002 L 91.4 158.09 L 101.0 131.8 L 110.60000000000001 108.9 L 120.2 90.28 L 129.8 76.69 L 139.4 68.68 L 149.0 66.56 L 158.6 70.42 L 168.20000000000002 80.11 L 177.8 95.23 L 187.4 115.18 L 197.0 139.17000000000002 L 206.6 166.25 L 216.20000000000002 195.33 L 225.8 225.26 L 235.4 254.83 L 245.0 282.88 L 254.6 308.28000000000003 L 264.2 330.02 L 273.8 347.24 L 283.40000000000003 359.24 L 293.0 365.55 L 302.6 365.92 L 312.2 360.34000000000003 L 321.8 349.02 L 331.40000000000003 332.41 L 341.0 311.19 L 350.6 286.19 L 360.2 258.41 L 369.8 228.96 L 379.40000000000003 199.02 L 389.0 169.77 L 398.6 142.38 L 408.2 117.95 L 417.8 97.45 L 427.40000000000003 81.69 L 437.0 71.31 L 446.6 66.72 L 456.2 68.1 L 465.8 75.39 L 475.40000000000003 88.31 L 485.0 106.34 L 494.6 128.76 L 504.2 154.68 L 513.8 183.07 L 523.4 212.78 L 533.0 242.65 L 542.6 271.47 L 552.2 298.1 L 561.8000000000001 321.48 L 571.4 340.67 L 581.0 354.92 L 590.6 363.64 L 600.2 366.5 L 609.8000000000001 363.38 L 619.4 354.40000000000003 L 629.0 339.92 L 638.6 320.53000000000003 L 638.6 425.53000000000003 L 629.0 444.92 L 619.4 459.40000000000003 L 609.8000000000001 468.38 L 600.2 471.5 L 590.6 468.64 L 581.0 459.92 L 571.4 445.67 L 561.8000000000001 426.48 L 552.2 403.1 L 542.6 376.47 L 533.0 347.65000000000003 L 523.4 317.78000000000003 L 513.8 288.07 L 504.2 259.68 L 494.6 233.76 L 485.0 211.34 L 475.40000000000003 193.31 L 465.8 180.39000000000001 L 456.2 173.1 L 446.6 171.72 L 437.0 176.31 L 427.40000000000003 186.69 L 417.8 202.45000000000002 L 408.2 222.95000000000002 L 398.6 247.38 L 389.0 274.77 L 379.40000000000003 304.02 L 369.8 333.96 L 360.2 363.41 L 350.6 391.19 L 341.0 416.19 L 331.40000000000003 437.41 L 321.8 454.02 L 312.2 465.34000000000003 L 302.6 470.92 L 293.0 470.55 L 283.40000000000003 464.24 L 273.8 452.24 L 264.2 435.02 L 254.6 413.28000000000003 L 245.0 387.88 L 235.4 359.83 L 225.8 330.26 L 216.20000000000002 300.33 L 206.6 271.25 L 197.0 244.17000000000002 L 187.4 220.18 L 177.8 200.23000000000002 L 168.20000000000002 185.11 L 158.6 175.42000000000002 L 149.0 171.56 L 139.4 173.68 L 129.8 181.69 L 120.2 195.28 L 110.60000000000001 213.9 L 101.0 236.8 L 91.4 263.09000000000003 L 81.8 291.7 L 72.2 321.5 Z" stroke="none" stroke-width="0" fill="#4682b4" fill-opacity="0.25" /><path d="M 72.2 269.0 L 81.8 239.20000000000002 L 91.4 210.59 L 101.0 184.3 L 110.60000000000001 161.4 L 120.2 142.78 L 129.8 129.19 L 139.4 121.18 L 149.0 119.06 L 158.6 122.92 L 168.20000000000002 132.61 L 177.8 147.73 L 187.4 167.68 L 197.0 191.67000000000002 L 206.6 218.75 L 216.20000000000002 247.83 L 225.8 277.76 L 235.4 307.33 L 245.0 335.38 L 254.6 360.78000000000003 L 264.2 382.52 L 273.8 399.74 L 283.40000000000003 411.74 L 293.0 418.05 L 302.6 418.42 L 312.2 412.84000000000003 L 321.8 401.52 L 331.40000000000003 384.91 L 341.0 363.69 L 350.6 338.69 L 360.2 310.91 L 369.8 281.46 L 379.40000000000003 251.52 L 389.0 222.27 L 398.6 194.88 L 408.2 170.45000000000002 L 417.8 149.95000000000002 L 427.40000000000003 134.19 L 437.0 123.81 L 446.6 119.22 L 456.2 120.60000000000001 L 465.8 127.89 L 475.40000000000003 140.81 L 485.0 158.84 L 494.6 181.26 L 504.2 207.18 L 513.8 235.57 L 523.4 265.28000000000003 L 533.0 295.15000000000003 L 542.6 323.97 L 552.2 350.6 L 561.8000000000001 373.98 L 571.4 393.17 L 581.0 407.42 L 590.6 416.14 L 600.2 419.0 L 609.8000000000001 415.88 L 619.4 406.90000000000003 L 629.0 392.42 L 638.6 373.03000000000003 " stroke="#4682b4" stroke-width="2" fill="none" /></svg>