<svg xmlns="http://www.w3.org/2000/svg" width="763" height="545" font-family="DejaVu Sans, Liberation Sans, Arial, sans-serif" fill="black"><rect width="100%" height="100%" fill="white" /><defs><clipPath id="kuva-clip-5"><rect x="59" y="44" width="600" height="450"/></clipPath></defs><line x1="179" y1="44" x2="179" y2="494" stroke="#cccccc" stroke-width="1" /><line x1="299" y1="44" x2="299" y2="494" stroke="#cccccc" stroke-width="1" /><line x1="419" y1="44" x2="419" y2="494" stroke="#cccccc" stroke-width="1" /><line x1="539" y1="44" x2="539" y2="494" stroke="#cccccc" stroke-width="1" /><line x1="659" y1="44" x2="659" y2="494" stroke="#cccccc" stroke-width="1" /><line x1="59" y1="404" x2="659" y2="404" stroke="#cccccc" stroke-width="1" /><line x1="59" y1="314" x2="659" y2="314" stroke="#cccccc" stroke-width="1" /><line x1="59" y1="224" x2="659" y2="224" stroke="#cccccc" stroke-width="1" /><line x1="59" y1="134" x2="659" y2="134" stroke="#cccccc" stroke-width="1" /><line x1="59" y1="44" x2="659" y2="44" stroke="#cccccc" stroke-width="1" /><line x1="59" y1="494" x2="659" y2="494" stroke="#000000" stroke-width="1" /><line x1="59" y1="44" x2="59" y2="494" stroke="#000000" stroke-width="1" /><line x1="59" y1="494" x2="59" y2="499" stroke="#000000" stroke-width="1" /><text x="59" y="511" font-size="12" text-anchor="middle">0</text><line x1="179" y1="494" x2="179" y2="499" stroke="#000000" stroke-width="1" /><text x="179" y="511" font-size="12" text-anchor="middle">1</text><line x1="299" y1="494" x2="299" y2="499" stroke="#000000" stroke-width="1" /><text x="299" y="511" font-size="12" text-anchor="middle">2</text><line x1="419" y1="494" x2="419" y2="499" stroke="#000000" stroke-width="1" /><text x="419" y="511" font-size="12" text-anchor="middle">3</text><line x1="539" y1="494" x2="539" y2="499" stroke="#000000" stroke-width="1" /><text x="539" y="511" font-size="12" text-anchor="middle">4</text><line x1="659" y1="494" x2="659" y2="499" stroke="#000000" stroke-width="1" /><text x="659" y="511" font-size="12" text-anchor="middle">5</text><line x1="54" y1="494" x2="59" y2="494" stroke="#000000" stroke-width="1" /><text x="51" y="498.2" font-size="12" text-anchor="end">0</text><line x1="54" y1="404" x2="59" y2="404" stroke="#000000" stroke-width="1" /><text x="51" y="408.2" font-size="12" text-anchor="end">1</text><line x1="54" y1="314" x2="59" y2="314" stroke="#000000" stroke-width="1" /><text x="51" y="318.2" font-size="12" text-anchor="end">2</text><line x1="54" y1="224" x2="59" y2="224" stroke="#000000" stroke-width="1" /><text x="51" y="228.20000000000002" font-size="12" text-anchor="end">3</text><line x1="54" y1="134" x2="59" y2="134" stroke="#000000" stroke-width="1" /><text x="51" y="138.20000000000002" font-size="12" text-anchor="end">4</text><line x1="54" y1="44" x2="59" y2="44" stroke="#000000" stroke-width="1" /><text x="51" y="48.2" font-size="12" text-anchor="end">5</text><text x="381.5" y="27.400000000000002" font-size="18" text-anchor="middle">Greyscale</text><g clip-path="url(#kuva-clip-5)"><rect x="119" y="359" width="118.8" height="89.10000000000001" fill="#ffffff" /><rect x="239" y="359" width="118.8" height="89.10000000000001" fill="#eeeeee" /><rect x="359" y="359" width="118.8" height="89.10000000000001" fill="#d8d8d8" /><rect x="479" y="359" width="118.8" height="89.10000000000001" fill="#bbbbbb" /><rect x="119" y="269" width="118.8" height="89.10000000000001" fill="#969696" /><rect x="239" y="269" width="118.8" height="89.10000000000001" fill="#737373" /><rect x="359" y="269" width="118.8" height="89.10000000000001" fill="#505050" /><rect x="479" y="269" width="118.8" height="89.10000000000001" fill="#262626" /><rect x="119" y="179" width="118.8" height="89.10000000000001" fill="#000000" /><rect x="239" y="179" width="118.8" height="89.10000000000001" fill="#3b3b3b" /><rect x="359" y="179" width="118.8" height="89.10000000000001" fill="#848484" /><rect x="479" y="179" width="118.8" height="89.10000000000001" fill="#cacaca" /><rect x="119" y="89" width="118.8" height="89.10000000000001" fill="#f7f7f7" /><rect x="239" y="89" width="118.8" height="89.10000000000001" fill="#bbbbbb" /><rect x="359" y="89" width="118.8" height="89.10000000000001" fill="#626262" /><rect x="479" y="89" width="118.8" height="89.10000000000001" fill="#121212" /></g><rect x="698" y="89" width="20" height="7.7" fill="#000000" /><rect x="698" y="96.2" width="20" height="7.7" fill="#060606" /><rect x="698" y="103.4" width="20" height="7.7" fill="#0c0c0c" /><rect x="698" y="110.60000000000001" width="20" height="7.7" fill="#121212" /><rect x="698" y="117.8" width="20" height="7.7" fill="#181818" /><rect x="698" y="125" width="20" height="7.7" fill="#1e1e1e" /><rect x="698" y="132.2" width="20" height="7.7" fill="#252525" /><rect x="698" y="139.4" width="20" height="7.7" fill="#2c2c2c" /><rect x="698" y="146.6" width="20" height="7.7" fill="#333333" /><rect x="698" y="153.8" width="20" height="7.7" fill="#3a3a3a" /><rect x="698" y="161" width="20" height="7.7" fill="#414141" /><rect x="698" y="168.20000000000002" width="20" height="7.7" fill="#474747" /><rect x="698" y="175.4" width="20" height="7.7" fill="#4e4e4e" /><rect x="698" y="182.6" width="20" height="7.7" fill="#545454" /><rect x="698" y="189.8" width="20" height="7.7" fill="#5a5a5a" /><rect x="698" y="197" width="20" height="7.7" fill="#606060" /><rect x="698" y="204.20000000000002" width="20" height="7.7" fill="#666666" /><rect x="698" y="211.4" width="20" height="7.7" fill="#6b6b6b" /><rect x="698" y="218.6" width="20" height="7.7" fill="#717171" /><rect x="698" y="225.8" width="20" height="7.7" fill="#767676" /><rect x="698" y="233" width="20" height="7.7" fill="#7c7c7c" /><rect x="698" y="240.20000000000002" width="20" height="7.7" fill="#828282" /><rect x="698" y="247.4" width="20" height="7.7" fill="#878787" /><rect x="698" y="254.6" width="20" height="7.7" fill="#8d8d8d" /><rect x="698" y="261.8" width="20" height="7.7" fill="#939393" /><rect x="698" y="269" width="20" height="7.7" fill="#999999" /><rect x="698" y="276.2" width="20" height="7.7" fill="#9f9f9f" /><rect x="698" y="283.40000000000003" width="20" height="7.7" fill="#a5a5a5" /><rect x="698" y="290.6" width="20" height="7.7" fill="#ababab" /><rect x="698" y="297.8" width="20" height="7.7" fill="#b1b1b1" /><rect x="698" y="305" width="20" height="7.7" fill="#b7b7b7" /><rect x="698" y="312.2" width="20" height="7.7" fill="#bdbdbd" /><rect x="698" y="319.40000000000003" width="20" height="7.7" fill="#c2c2c2" /><rect x="698" y="326.6" width="20" height="7.7" fill="#c7c7c7" /><rect x="698" y="333.8" width="20" height="7.7" fill="#cccccc" /><rect x="698" y="341" width="20" height="7.7" fill="#d0d0d0" /><rect x="698" y="348.2" width="20" height="7.7" fill="#d5d5d5" /><rect x="698" y="355.40000000000003" width="20" height="7.7" fill="#d9d9d9" /><rect x="698" y="362.6" width="20" height="7.7" fill="#dddddd" /><rect x="698" y="369.8" width="20" height="7.7" fill="#e1e1e1" /><rect x="698" y="377" width="20" height="7.7" fill="#e4e4e4" /><rect x="698" y="384.2" width="20" height="7.7" fill="#e8e8e8" /><rect x="698" y="391.40000000000003" width="20" height="7.7" fill="#ebebeb" /><rect x="698" y="398.6" width="20" height="7.7" fill="#efefef" /><rect x="698" y="405.8" width="20" height="7.7" fill="#f2f2f2" /><rect x="698" y="413" width="20" height="7.7" fill="#f4f4f4" /><rect x="698" y="420.2" width="20" height="7.7" fill="#f7f7f7" /><rect x="698" y="427.40000000000003" width="20" height="7.7" fill="#fafafa" /><rect x="698" y="434.6" width="20" height="7.7" fill="#fcfcfc" /><rect x="698" y="441.8" width="20" height="7.7" fill="#ffffff" /><rect x="698" y="89" width="20" height="360" fill="none" stroke="#000000" stroke-width="1" /><line x1="718" y1="404" x2="722" y2="404" stroke="#000000" stroke-width="1" /><text x="723" y="408" font-size="12" text-anchor="start">20</text><line x1="718" y1="314" x2="722" y2="314" stroke="#000000" stroke-width="1" /><text x="723" y="318" font-size="12" text-anchor="start">40</text><line x1="718" y1="224" x2="722" y2="224" stroke="#000000" stroke-width="1" /><text x="723" y="228" font-size="12" text-anchor="start">60</text><line x1="718" y1="134" x2="722" y2="134" stroke="#000000" stroke-width="1" /><text x="723" y="138" font-size="12" text-anchor="start">80</text></svg>