<svg xmlns="http://www.w3.org/2000/svg" width="763" height="545" font-family="DejaVu Sans, Liberation Sans, Arial, sans-serif" fill="black"><rect width="100%" height="100%" fill="white" /><defs><clipPath id="kuva-clip-4"><rect x="59" y="44" width="600" height="450"/></clipPath></defs><line x1="179" y1="44" x2="179" y2="494" stroke="#cccccc" stroke-width="1" /><line x1="299" y1="44" x2="299" y2="494" stroke="#cccccc" stroke-width="1" /><line x1="419" y1="44" x2="419" y2="494" stroke="#cccccc" stroke-width="1" /><line x1="539" y1="44" x2="539" y2="494" stroke="#cccccc" stroke-width="1" /><line x1="659" y1="44" x2="659" y2="494" stroke="#cccccc" stroke-width="1" /><line x1="59" y1="404" x2="659" y2="404" stroke="#cccccc" stroke-width="1" /><line x1="59" y1="314" x2="659" y2="314" stroke="#cccccc" stroke-width="1" /><line x1="59" y1="224" x2="659" y2="224" stroke="#cccccc" stroke-width="1" /><line x1="59" y1="134" x2="659" y2="134" stroke="#cccccc" stroke-width="1" /><line x1="59" y1="44" x2="659" y2="44" stroke="#cccccc" stroke-width="1" /><line x1="59" y1="494" x2="659" y2="494" stroke="#000000" stroke-width="1" /><line x1="59" y1="44" x2="59" y2="494" stroke="#000000" stroke-width="1" /><line x1="59" y1="494" x2="59" y2="499" stroke="#000000" stroke-width="1" /><text x="59" y="511" font-size="12" text-anchor="middle">0</text><line x1="179" y1="494" x2="179" y2="499" stroke="#000000" stroke-width="1" /><text x="179" y="511" font-size="12" text-anchor="middle">1</text><line x1="299" y1="494" x2="299" y2="499" stroke="#000000" stroke-width="1" /><text x="299" y="511" font-size="12" text-anchor="middle">2</text><line x1="419" y1="494" x2="419" y2="499" stroke="#000000" stroke-width="1" /><text x="419" y="511" font-size="12" text-anchor="middle">3</text><line x1="539" y1="494" x2="539" y2="499" stroke="#000000" stroke-width="1" /><text x="539" y="511" font-size="12" text-anchor="middle">4</text><line x1="659" y1="494" x2="659" y2="499" stroke="#000000" stroke-width="1" /><text x="659" y="511" font-size="12" text-anchor="middle">5</text><line x1="54" y1="494" x2="59" y2="494" stroke="#000000" stroke-width="1" /><text x="51" y="498.2" font-size="12" text-anchor="end">0</text><line x1="54" y1="404" x2="59" y2="404" stroke="#000000" stroke-width="1" /><text x="51" y="408.2" font-size="12" text-anchor="end">1</text><line x1="54" y1="314" x2="59" y2="314" stroke="#000000" stroke-width="1" /><text x="51" y="318.2" font-size="12" text-anchor="end">2</text><line x1="54" y1="224" x2="59" y2="224" stroke="#000000" stroke-width="1" /><text x="51" y="228.20000000000002" font-size="12" text-anchor="end">3</text><line x1="54" y1="134" x2="59" y2="134" stroke="#000000" stroke-width="1" /><text x="51" y="138.20000000000002" font-size="12" text-anchor="end">4</text><line x1="54" y1="44" x2="59" y2="44" stroke="#000000" stroke-width="1" /><text x="51" y="48.2" font-size="12" text-anchor="end">5</text><text x="381.5" y="27.400000000000002" font-size="18" text-anchor="middle">Inferno</text><g clip-path="url(#kuva-clip-4)"><rect x="119" y="359" width="118.8" height="89.10000000000001" fill="#000004" /><rect x="239" y="359" width="118.8" height="89.10000000000001" fill="#200c49" /><rect x="359" y="359" width="118.8" height="89.10000000000001" fill="#560f6d" /><rect x="479" y="359" width="118.8" height="89.10000000000001" fill="#892269" /><rect x="119" y="269" width="118.8" height="89.10000000000001" fill="#bb3654" /><rect x="239" y="269" width="118.8" height="89.10000000000001" fill="#e35932" /><rect x="359" y="269" width="118.8" height="89.10000000000001" fill="#f98c09" /><rect x="479" y="269" width="118.8" height="89.10000000000001" fill="#f8c932" /><rect x="119" y="179" width="118.8" height="89.10000000000001" fill="#fcffa4" /><rect x="239" y="179" width="118.8" height="89.10000000000001" fill="#fbaa0f" /><rect x="359" y="179" width="118.8" height="89.10000000000001" fill="#d04544" /><rect x="479" y="179" width="118.8" height="89.10000000000001" fill="#70196e" /><rect x="119" y="89" width="118.8" height="89.10000000000001" fill="#0a0723" /><rect x="239" y="89" width="118.8" height="89.10000000000001" fill="#892269" /><rect x="359" y="89" width="118.8" height="89.10000000000001" fill="#f0711e" /><rect x="479" y="89" width="118.8" height="89.10000000000001" fill="#f1e865" /></g><rect x="698" y="89" width="20" height="7.7" fill="#fcffa4" /><rect x="698" y="96.2" width="20" height="7.7" fill="#f4f891" /><rect x="698" y="103.4" width="20" height="7.7" fill="#f1f17b" /><rect x="698" y="110.60000000000001" width="20" height="7.7" fill="#f1e866" /><rect x="698" y="117.8" width="20" height="7.7" fill="#f3df53" /><rect x="698" y="125" width="20" height="7.7" fill="#f6d442" /><rect x="698" y="132.2" width="20" height="7.7" fill="#f8ca34" /><rect x="698" y="139.4" width="20" height="7.7" fill="#fac127" /><rect x="698" y="146.6" width="20" height="7.7" fill="#fbb61b" /><rect x="698" y="153.8" width="20" height="7.7" fill="#fcac11" /><rect x="698" y="161" width="20" height="7.7" fill="#fca208" /><rect x="698" y="168.20000000000002" width="20" height="7.7" fill="#fb9806" /><rect x="698" y="175.4" width="20" height="7.7" fill="#f98f08" /><rect x="698" y="182.6" width="20" height="7.7" fill="#f7850e" /><rect x="698" y="189.8" width="20" height="7.7" fill="#f57d14" /><rect x="698" y="197" width="20" height="7.7" fill="#f1741c" /><rect x="698" y="204.20000000000002" width="20" height="7.7" fill="#ee6b23" /><rect x="698" y="211.4" width="20" height="7.7" fill="#ea6329" /><rect x="698" y="218.6" width="20" height="7.7" fill="#e55c2f" /><rect x="698" y="225.8" width="20" height="7.7" fill="#e05535" /><rect x="698" y="233" width="20" height="7.7" fill="#d94e3c" /><rect x="698" y="240.20000000000002" width="20" height="7.7" fill="#d34742" /><rect x="698" y="247.4" width="20" height="7.7" fill="#cd4247" /><rect x="698" y="254.6" width="20" height="7.7" fill="#c63d4c" /><rect x="698" y="261.8" width="20" height="7.7" fill="#be3951" /><rect x="698" y="269" width="20" height="7.7" fill="#b73457" /><rect x="698" y="276.2" width="20" height="7.7" fill="#af305b" /><rect x="698" y="283.40000000000003" width="20" height="7.7" fill="#a62d5f" /><rect x="698" y="290.6" width="20" height="7.7" fill="#9f2963" /><rect x="698" y="297.8" width="20" height="7.7" fill="#962666" /><rect x="698" y="305" width="20" height="7.7" fill="#8e2368" /><rect x="698" y="312.2" width="20" height="7.7" fill="#86216a" /><rect x="698" y="319.40000000000003" width="20" height="7.7" fill="#7d1d6c" /><rect x="698" y="326.6" width="20" height="7.7" fill="#751b6d" /><rect x="698" y="333.8" width="20" height="7.7" fill="#6d186e" /><rect x="698" y="341" width="20" height="7.7" fill="#64156e" /><rect x="698" y="348.2" width="20" height="7.7" fill="#5c126d" /><rect x="698" y="355.40000000000003" width="20" height="7.7" fill="#540e6d" /><rect x="698" y="362.6" width="20" height="7.7" fill="#4c0c6b" /><rect x="698" y="369.8" width="20" height="7.7" fill="#430a68" /><rect x="698" y="377" width="20" height="7.7" fill="#3a0963" /><rect x="698" y="384.2" width="20" height="7.7" fill="#310a5d" /><rect x="698" y="391.40000000000003" width="20" height="7.7" fill="#280b53" /><rect x="698" y="398.6" width="20" height="7.7" fill="#1f0c48" /><rect x="698" y="405.8" width="20" height="7.7" fill="#170b3b" /><rect x="698" y="413" width="20" height="7.7" fill="#10092f" /><rect x="698" y="420.2" width="20" height="7.7" fill="#0a0723" /><rect x="698" y="427.40000000000003" width="20" height="7.7" fill="#050317" /><rect x="698" y="434.6" width="20" height="7.7" fill="#02010c" /><rect x="698" y="441.8" width="20" height="7.7" fill="#000004" /><rect x="698" y="89" width="20" height="360" fill="none" stroke="#000000" stroke-width="1" /><line x1="718" y1="404" x2="722" y2="404" stroke="#000000" stroke-width="1" /><text x="723" y="408" font-size="12" text-anchor="start">20</text><line x1="718" y1="314" x2="722" y2="314" stroke="#000000" stroke-width="1" /><text x="723" y="318" font-size="12" text-anchor="start">40</text><line x1="718" y1="224" x2="722" y2="224" stroke="#000000" stroke-width="1" /><text x="723" y="228" font-size="12" text-anchor="start">60</text><line x1="718" y1="134" x2="722" y2="134" stroke="#000000" stroke-width="1" /><text x="723" y="138" font-size="12" text-anchor="start">80</text></svg>