<svg xmlns="http://www.w3.org/2000/svg" width="764" height="545" font-family="DejaVu Sans, Liberation Sans, Arial, sans-serif" fill="black"><rect width="100%" height="100%" fill="white" /><line x1="65" y1="494" x2="665" y2="494" stroke="#000000" stroke-width="1" /><line x1="65" y1="44" x2="65" y2="494" stroke="#000000" stroke-width="1" /><text x="55" y="408.2" font-size="12" text-anchor="end">GeneA</text><line x1="60" y1="404" x2="65" y2="404" stroke="#000000" stroke-width="1" /><text x="55" y="318.2" font-size="12" text-anchor="end">GeneB</text><line x1="60" y1="314" x2="65" y2="314" stroke="#000000" stroke-width="1" /><text x="55" y="228.20000000000002" font-size="12" text-anchor="end">GeneC</text><line x1="60" y1="224" x2="65" y2="224" stroke="#000000" stroke-width="1" /><text x="55" y="138.20000000000002" font-size="12" text-anchor="end">GeneD</text><line x1="60" y1="134" x2="65" y2="134" stroke="#000000" stroke-width="1" /><text x="165" y="511" font-size="12" text-anchor="middle">Ctrl</text><line x1="165" y1="494" x2="165" y2="499" stroke="#000000" stroke-width="1" /><text x="265" y="511" font-size="12" text-anchor="middle">T1</text><line x1="265" y1="494" x2="265" y2="499" stroke="#000000" stroke-width="1" /><text x="365" y="511" font-size="12" text-anchor="middle">T2</text><line x1="365" y1="494" x2="365" y2="499" stroke="#000000" stroke-width="1" /><text x="465" y="511" font-size="12" text-anchor="middle">T3</text><line x1="465" y1="494" x2="465" y2="499" stroke="#000000" stroke-width="1" /><text x="565" y="511" font-size="12" text-anchor="middle">T4</text><line x1="565" y1="494" x2="565" y2="499" stroke="#000000" stroke-width="1" /><text x="365" y="22" font-size="18" text-anchor="middle">Gene Expression Heatmap</text><rect x="115" y="359" width="99" height="89.10000000000001" fill="#1f938b" /><rect x="215" y="359" width="99" height="89.10000000000001" fill="#460b5e" /><rect x="315" y="359" width="99" height="89.10000000000001" fill="#8bd545" /><rect x="415" y="359" width="99" height="89.10000000000001" fill="#3d4c89" /><rect x="515" y="359" width="99" height="89.10000000000001" fill="#4ac16c" /><rect x="115" y="269" width="99" height="89.10000000000001" fill="#433a83" /><rect x="215" y="269" width="99" height="89.10000000000001" fill="#c5df20" /><rect x="315" y="269" width="99" height="89.10000000000001" fill="#440154" /><rect x="415" y="269" width="99" height="89.10000000000001" fill="#3cbb74" /><rect x="515" y="269" width="99" height="89.10000000000001" fill="#39538b" /><rect x="115" y="179" width="99" height="89.10000000000001" fill="#267f8d" /><rect x="215" y="179" width="99" height="89.10000000000001" fill="#58c764" /><rect x="315" y="179" width="99" height="89.10000000000001" fill="#2f6a8e" /><rect x="415" y="179" width="99" height="89.10000000000001" fill="#481f70" /><rect x="515" y="179" width="99" height="89.10000000000001" fill="#79d151" /><rect x="115" y="89" width="99" height="89.10000000000001" fill="#9ed939" /><rect x="215" y="89" width="99" height="89.10000000000001" fill="#3d4c89" /><rect x="315" y="89" width="99" height="89.10000000000001" fill="#218c8d" /><rect x="415" y="89" width="99" height="89.10000000000001" fill="#fde725" /><rect x="515" y="89" width="99" height="89.10000000000001" fill="#471668" /><rect x="694" y="89" width="20" height="7.7" fill="#fde725" /><rect x="694" y="96.2" width="20" height="7.7" fill="#f0e51c" /><rect x="694" y="103.4" width="20" height="7.7" fill="#e3e318" /><rect x="694" y="110.60000000000001" width="20" height="7.7" fill="#d6e219" /><rect x="694" y="117.8" width="20" height="7.7" fill="#c8e01f" /><rect x="694" y="125" width="20" height="7.7" fill="#bade27" /><rect x="694" y="132.2" width="20" height="7.7" fill="#acdc30" /><rect x="694" y="139.4" width="20" height="7.7" fill="#9ed939" /><rect x="694" y="146.6" width="20" height="7.7" fill="#91d642" /><rect x="694" y="153.8" width="20" height="7.7" fill="#84d44a" /><rect x="694" y="161" width="20" height="7.7" fill="#77d052" /><rect x="694" y="168.20000000000002" width="20" height="7.7" fill="#6bcd5a" /><rect x="694" y="175.4" width="20" height="7.7" fill="#5fc960" /><rect x="694" y="182.6" width="20" height="7.7" fill="#54c567" /><rect x="694" y="189.8" width="20" height="7.7" fill="#4ac16c" /><rect x="694" y="197" width="20" height="7.7" fill="#40bc72" /><rect x="694" y="204.20000000000002" width="20" height="7.7" fill="#37b877" /><rect x="694" y="211.4" width="20" height="7.7" fill="#30b47b" /><rect x="694" y="218.6" width="20" height="7.7" fill="#29af7f" /><rect x="694" y="225.8" width="20" height="7.7" fill="#24ab82" /><rect x="694" y="233" width="20" height="7.7" fill="#21a585" /><rect x="694" y="240.20000000000002" width="20" height="7.7" fill="#1fa187" /><rect x="694" y="247.4" width="20" height="7.7" fill="#1e9c89" /><rect x="694" y="254.6" width="20" height="7.7" fill="#1f978a" /><rect x="694" y="261.8" width="20" height="7.7" fill="#1f928c" /><rect x="694" y="269" width="20" height="7.7" fill="#218d8d" /><rect x="694" y="276.2" width="20" height="7.7" fill="#23888d" /><rect x="694" y="283.40000000000003" width="20" height="7.7" fill="#25838e" /><rect x="694" y="290.6" width="20" height="7.7" fill="#267f8d" /><rect x="694" y="297.8" width="20" height="7.7" fill="#287a8e" /><rect x="694" y="305" width="20" height="7.7" fill="#2a748d" /><rect x="694" y="312.2" width="20" height="7.7" fill="#2c708e" /><rect x="694" y="319.40000000000003" width="20" height="7.7" fill="#2f6b8e" /><rect x="694" y="326.6" width="20" height="7.7" fill="#31668e" /><rect x="694" y="333.8" width="20" height="7.7" fill="#33618c" /><rect x="694" y="341" width="20" height="7.7" fill="#365b8c" /><rect x="694" y="348.2" width="20" height="7.7" fill="#38558c" /><rect x="694" y="355.40000000000003" width="20" height="7.7" fill="#3b508a" /><rect x="694" y="362.6" width="20" height="7.7" fill="#3d4a89" /><rect x="694" y="369.8" width="20" height="7.7" fill="#404587" /><rect x="694" y="377" width="20" height="7.7" fill="#423e85" /><rect x="694" y="384.2" width="20" height="7.7" fill="#443882" /><rect x="694" y="391.40000000000003" width="20" height="7.7" fill="#46327e" /><rect x="694" y="398.6" width="20" height="7.7" fill="#472c7a" /><rect x="694" y="405.8" width="20" height="7.7" fill="#482576" /><rect x="694" y="413" width="20" height="7.7" fill="#471e6f" /><rect x="694" y="420.2" width="20" height="7.7" fill="#481769" /><rect x="694" y="427.40000000000003" width="20" height="7.7" fill="#471063" /><rect x="694" y="434.6" width="20" height="7.7" fill="#46085c" /><rect x="694" y="441.8" width="20" height="7.7" fill="#440154" /><rect x="694" y="89" width="20" height="360" fill="none" stroke="#000000" stroke-width="1" /><line x1="714" y1="428.43" x2="718" y2="428.43" stroke="#000000" stroke-width="1" /><text x="720" y="432.43" font-size="12" text-anchor="start">0.5</text><line x1="714" y1="377" x2="718" y2="377" stroke="#000000" stroke-width="1" /><text x="720" y="381" font-size="12" text-anchor="start">1.0</text><line x1="714" y1="325.57" x2="718" y2="325.57" stroke="#000000" stroke-width="1" /><text x="720" y="329.57" font-size="12" text-anchor="start">1.5</text><line x1="714" y1="274.14" x2="718" y2="274.14" stroke="#000000" stroke-width="1" /><text x="720" y="278.14" font-size="12" text-anchor="start">2.0</text><line x1="714" y1="222.71" x2="718" y2="222.71" stroke="#000000" stroke-width="1" /><text x="720" y="226.71" font-size="12" text-anchor="start">2.5</text><line x1="714" y1="171.29" x2="718" y2="171.29" stroke="#000000" stroke-width="1" /><text x="720" y="175.29" font-size="12" text-anchor="start">3.0</text><line x1="714" y1="119.86" x2="718" y2="119.86" stroke="#000000" stroke-width="1" /><text x="720" y="123.86" font-size="12" text-anchor="start">3.5</text></svg>