<svg xmlns="http://www.w3.org/2000/svg" width="763" height="545" font-family="DejaVu Sans, Liberation Sans, Arial, sans-serif" fill="black"><rect width="100%" height="100%" fill="white" /><defs><clipPath id="kuva-clip-2"><rect x="59" y="44" width="600" height="450"/></clipPath></defs><line x1="179" y1="44" x2="179" y2="494" stroke="#cccccc" stroke-width="1" /><line x1="299" y1="44" x2="299" y2="494" stroke="#cccccc" stroke-width="1" /><line x1="419" y1="44" x2="419" y2="494" stroke="#cccccc" stroke-width="1" /><line x1="539" y1="44" x2="539" y2="494" stroke="#cccccc" stroke-width="1" /><line x1="659" y1="44" x2="659" y2="494" stroke="#cccccc" stroke-width="1" /><line x1="59" y1="404" x2="659" y2="404" stroke="#cccccc" stroke-width="1" /><line x1="59" y1="314" x2="659" y2="314" stroke="#cccccc" stroke-width="1" /><line x1="59" y1="224" x2="659" y2="224" stroke="#cccccc" stroke-width="1" /><line x1="59" y1="134" x2="659" y2="134" stroke="#cccccc" stroke-width="1" /><line x1="59" y1="44" x2="659" y2="44" stroke="#cccccc" stroke-width="1" /><line x1="59" y1="494" x2="659" y2="494" stroke="#000000" stroke-width="1" /><line x1="59" y1="44" x2="59" y2="494" stroke="#000000" stroke-width="1" /><line x1="59" y1="494" x2="59" y2="499" stroke="#000000" stroke-width="1" /><text x="59" y="511" font-size="12" text-anchor="middle">0</text><line x1="179" y1="494" x2="179" y2="499" stroke="#000000" stroke-width="1" /><text x="179" y="511" font-size="12" text-anchor="middle">1</text><line x1="299" y1="494" x2="299" y2="499" stroke="#000000" stroke-width="1" /><text x="299" y="511" font-size="12" text-anchor="middle">2</text><line x1="419" y1="494" x2="419" y2="499" stroke="#000000" stroke-width="1" /><text x="419" y="511" font-size="12" text-anchor="middle">3</text><line x1="539" y1="494" x2="539" y2="499" stroke="#000000" stroke-width="1" /><text x="539" y="511" font-size="12" text-anchor="middle">4</text><line x1="659" y1="494" x2="659" y2="499" stroke="#000000" stroke-width="1" /><text x="659" y="511" font-size="12" text-anchor="middle">5</text><line x1="54" y1="494" x2="59" y2="494" stroke="#000000" stroke-width="1" /><text x="51" y="498.2" font-size="12" text-anchor="end">0</text><line x1="54" y1="404" x2="59" y2="404" stroke="#000000" stroke-width="1" /><text x="51" y="408.2" font-size="12" text-anchor="end">1</text><line x1="54" y1="314" x2="59" y2="314" stroke="#000000" stroke-width="1" /><text x="51" y="318.2" font-size="12" text-anchor="end">2</text><line x1="54" y1="224" x2="59" y2="224" stroke="#000000" stroke-width="1" /><text x="51" y="228.20000000000002" font-size="12" text-anchor="end">3</text><line x1="54" y1="134" x2="59" y2="134" stroke="#000000" stroke-width="1" /><text x="51" y="138.20000000000002" font-size="12" text-anchor="end">4</text><line x1="54" y1="44" x2="59" y2="44" stroke="#000000" stroke-width="1" /><text x="51" y="48.2" font-size="12" text-anchor="end">5</text><text x="381.5" y="27.400000000000002" font-size="18" text-anchor="middle">Value Overlay</text><g clip-path="url(#kuva-clip-2)"><rect x="119" y="359" width="118.8" height="89.10000000000001" fill="#440154" /><rect x="239" y="359" width="118.8" height="89.10000000000001" fill="#472c7a" /><rect x="359" y="359" width="118.8" height="89.10000000000001" fill="#3a518b" /><rect x="479" y="359" width="118.8" height="89.10000000000001" fill="#48186a" /><rect x="119" y="269" width="118.8" height="89.10000000000001" fill="#26818e" /><rect x="239" y="269" width="118.8" height="89.10000000000001" fill="#1f9f88" /><rect x="359" y="269" width="118.8" height="89.10000000000001" fill="#423f85" /><rect x="479" y="269" width="118.8" height="89.10000000000001" fill="#27ad80" /><rect x="119" y="179" width="118.8" height="89.10000000000001" fill="#5cc862" /><rect x="239" y="179" width="118.8" height="89.10000000000001" fill="#32628d" /><rect x="359" y="179" width="118.8" height="89.10000000000001" fill="#aadb31" /><rect x="479" y="179" width="118.8" height="89.10000000000001" fill="#2c718e" /><rect x="119" y="89" width="118.8" height="89.10000000000001" fill="#20908c" /><rect x="239" y="89" width="118.8" height="89.10000000000001" fill="#fde725" /><rect x="359" y="89" width="118.8" height="89.10000000000001" fill="#3dbb73" /><rect x="479" y="89" width="118.8" height="89.10000000000001" fill="#472c7a" /><text x="179" y="404" font-size="12" text-anchor="middle">10.00</text><text x="299" y="404" font-size="12" text-anchor="middle">20.00</text><text x="419" y="404" font-size="12" text-anchor="middle">30.00</text><text x="539" y="404" font-size="12" text-anchor="middle">15.00</text><text x="179" y="314" font-size="12" text-anchor="middle">45.00</text><text x="299" y="314" font-size="12" text-anchor="middle">55.00</text><text x="419" y="314" font-size="12" text-anchor="middle">25.00</text><text x="539" y="314" font-size="12" text-anchor="middle">60.00</text><text x="179" y="224" font-size="12" text-anchor="middle">70.00</text><text x="299" y="224" font-size="12" text-anchor="middle">35.00</text><text x="419" y="224" font-size="12" text-anchor="middle">80.00</text><text x="539" y="224" font-size="12" text-anchor="middle">40.00</text><text x="179" y="134" font-size="12" text-anchor="middle">50.00</text><text x="299" y="134" font-size="12" text-anchor="middle">90.00</text><text x="419" y="134" font-size="12" text-anchor="middle">65.00</text><text x="539" y="134" font-size="12" text-anchor="middle">20.00</text></g><rect x="698" y="89" width="20" height="7.7" fill="#fde725" /><rect x="698" y="96.2" width="20" height="7.7" fill="#f0e51c" /><rect x="698" y="103.4" width="20" height="7.7" fill="#e3e318" /><rect x="698" y="110.60000000000001" width="20" height="7.7" fill="#d6e219" /><rect x="698" y="117.8" width="20" height="7.7" fill="#c8e01f" /><rect x="698" y="125" width="20" height="7.7" fill="#bade27" /><rect x="698" y="132.2" width="20" height="7.7" fill="#acdc30" /><rect x="698" y="139.4" width="20" height="7.7" fill="#9ed939" /><rect x="698" y="146.6" width="20" height="7.7" fill="#91d642" /><rect x="698" y="153.8" width="20" height="7.7" fill="#84d44a" /><rect x="698" y="161" width="20" height="7.7" fill="#77d052" /><rect x="698" y="168.20000000000002" width="20" height="7.7" fill="#6bcd5a" /><rect x="698" y="175.4" width="20" height="7.7" fill="#5fc960" /><rect x="698" y="182.6" width="20" height="7.7" fill="#54c567" /><rect x="698" y="189.8" width="20" height="7.7" fill="#4ac16c" /><rect x="698" y="197" width="20" height="7.7" fill="#40bc72" /><rect x="698" y="204.20000000000002" width="20" height="7.7" fill="#37b877" /><rect x="698" y="211.4" width="20" height="7.7" fill="#30b47b" /><rect x="698" y="218.6" width="20" height="7.7" fill="#29af7f" /><rect x="698" y="225.8" width="20" height="7.7" fill="#24ab82" /><rect x="698" y="233" width="20" height="7.7" fill="#21a585" /><rect x="698" y="240.20000000000002" width="20" height="7.7" fill="#1fa187" /><rect x="698" y="247.4" width="20" height="7.7" fill="#1e9c89" /><rect x="698" y="254.6" width="20" height="7.7" fill="#1f978a" /><rect x="698" y="261.8" width="20" height="7.7" fill="#1f928c" /><rect x="698" y="269" width="20" height="7.7" fill="#218d8d" /><rect x="698" y="276.2" width="20" height="7.7" fill="#23888d" /><rect x="698" y="283.40000000000003" width="20" height="7.7" fill="#25838e" /><rect x="698" y="290.6" width="20" height="7.7" fill="#267f8d" /><rect x="698" y="297.8" width="20" height="7.7" fill="#287a8e" /><rect x="698" y="305" width="20" height="7.7" fill="#2a748d" /><rect x="698" y="312.2" width="20" height="7.7" fill="#2c708e" /><rect x="698" y="319.40000000000003" width="20" height="7.7" fill="#2f6b8e" /><rect x="698" y="326.6" width="20" height="7.7" fill="#31668e" /><rect x="698" y="333.8" width="20" height="7.7" fill="#33618c" /><rect x="698" y="341" width="20" height="7.7" fill="#365b8c" /><rect x="698" y="348.2" width="20" height="7.7" fill="#38558c" /><rect x="698" y="355.40000000000003" width="20" height="7.7" fill="#3b508a" /><rect x="698" y="362.6" width="20" height="7.7" fill="#3d4a89" /><rect x="698" y="369.8" width="20" height="7.7" fill="#404587" /><rect x="698" y="377" width="20" height="7.7" fill="#423e85" /><rect x="698" y="384.2" width="20" height="7.7" fill="#443882" /><rect x="698" y="391.40000000000003" width="20" height="7.7" fill="#46327e" /><rect x="698" y="398.6" width="20" height="7.7" fill="#472c7a" /><rect x="698" y="405.8" width="20" height="7.7" fill="#482576" /><rect x="698" y="413" width="20" height="7.7" fill="#471e6f" /><rect x="698" y="420.2" width="20" height="7.7" fill="#481769" /><rect x="698" y="427.40000000000003" width="20" height="7.7" fill="#471063" /><rect x="698" y="434.6" width="20" height="7.7" fill="#46085c" /><rect x="698" y="441.8" width="20" height="7.7" fill="#440154" /><rect x="698" y="89" width="20" height="360" fill="none" stroke="#000000" stroke-width="1" /><line x1="718" y1="404" x2="722" y2="404" stroke="#000000" stroke-width="1" /><text x="723" y="408" font-size="12" text-anchor="start">20</text><line x1="718" y1="314" x2="722" y2="314" stroke="#000000" stroke-width="1" /><text x="723" y="318" font-size="12" text-anchor="start">40</text><line x1="718" y1="224" x2="722" y2="224" stroke="#000000" stroke-width="1" /><text x="723" y="228" font-size="12" text-anchor="start">60</text><line x1="718" y1="134" x2="722" y2="134" stroke="#000000" stroke-width="1" /><text x="723" y="138" font-size="12" text-anchor="start">80</text></svg>