<svg xmlns="http://www.w3.org/2000/svg" width="677" height="545" font-family="DejaVu Sans, Liberation Sans, Arial, sans-serif" fill="black"><rect width="100%" height="100%" fill="white" /><defs><clipPath id="kuva-clip-0"><rect x="59" y="44" width="600" height="450"/></clipPath></defs><line x1="159" y1="44" x2="159" y2="494" stroke="#cccccc" stroke-width="1" /><line x1="259" y1="44" x2="259" y2="494" stroke="#cccccc" stroke-width="1" /><line x1="359" y1="44" x2="359" y2="494" stroke="#cccccc" stroke-width="1" /><line x1="459" y1="44" x2="459" y2="494" stroke="#cccccc" stroke-width="1" /><line x1="559" y1="44" x2="559" y2="494" stroke="#cccccc" stroke-width="1" /><line x1="659" y1="44" x2="659" y2="494" stroke="#cccccc" stroke-width="1" /><line x1="59" y1="400.25" x2="659" y2="400.25" stroke="#cccccc" stroke-width="1" /><line x1="59" y1="306.5" x2="659" y2="306.5" stroke="#cccccc" stroke-width="1" /><line x1="59" y1="212.75" x2="659" y2="212.75" stroke="#cccccc" stroke-width="1" /><line x1="59" y1="119" x2="659" y2="119" stroke="#cccccc" stroke-width="1" /><line x1="59" y1="494" x2="659" y2="494" stroke="#000000" stroke-width="1" /><line x1="59" y1="44" x2="59" y2="494" stroke="#000000" stroke-width="1" /><line x1="59" y1="494" x2="59" y2="499" stroke="#000000" stroke-width="1" /><text x="59" y="511" font-size="12" text-anchor="middle">0</text><line x1="159" y1="494" x2="159" y2="499" stroke="#000000" stroke-width="1" /><text x="159" y="511" font-size="12" text-anchor="middle">5</text><line x1="259" y1="494" x2="259" y2="499" stroke="#000000" stroke-width="1" /><text x="259" y="511" font-size="12" text-anchor="middle">10</text><line x1="359" y1="494" x2="359" y2="499" stroke="#000000" stroke-width="1" /><text x="359" y="511" font-size="12" text-anchor="middle">15</text><line x1="459" y1="494" x2="459" y2="499" stroke="#000000" stroke-width="1" /><text x="459" y="511" font-size="12" text-anchor="middle">20</text><line x1="559" y1="494" x2="559" y2="499" stroke="#000000" stroke-width="1" /><text x="559" y="511" font-size="12" text-anchor="middle">25</text><line x1="659" y1="494" x2="659" y2="499" stroke="#000000" stroke-width="1" /><text x="659" y="511" font-size="12" text-anchor="middle">30</text><line x1="54" y1="494" x2="59" y2="494" stroke="#000000" stroke-width="1" /><text x="51" y="498.2" font-size="12" text-anchor="end">0</text><line x1="54" y1="400.25" x2="59" y2="400.25" stroke="#000000" stroke-width="1" /><text x="51" y="404.45" font-size="12" text-anchor="end">0.25</text><line x1="54" y1="306.5" x2="59" y2="306.5" stroke="#000000" stroke-width="1" /><text x="51" y="310.7" font-size="12" text-anchor="end">0.5</text><line x1="54" y1="212.75" x2="59" y2="212.75" stroke="#000000" stroke-width="1" /><text x="51" y="216.95000000000002" font-size="12" text-anchor="end">0.75</text><line x1="54" y1="119" x2="59" y2="119" stroke="#000000" stroke-width="1" /><text x="51" y="123.2" font-size="12" text-anchor="end">1</text><text x="359" y="538" font-size="14" text-anchor="middle">Time (months)</text><text x="15" y="272.5" font-size="14" text-anchor="middle" transform="rotate(-90,15,272.5)">Survival probability</text><text x="338.5" y="27.400000000000002" font-size="18" text-anchor="middle">Kaplan-Meier Survival Curve</text><g clip-path="url(#kuva-clip-0)"><path d="M 59,119 H 79 V 119 V 137.75 H 99 V 137.75 V 156.5 H 139 V 156.5 V 176.35 H 159 V 176.35 V 196.21 H 199 V 196.21 V 217.48000000000002 H 239 V 217.48000000000002 V 240.52 H 279 V 240.52 V 265.87 H 319 V 265.87 V 294.38 H 419 V 294.38 V 334.31 H 499 V 334.31 V 387.54 H 579" stroke="#4682b4" stroke-width="2" fill="none" /><line x1="119" y1="152.5" x2="119" y2="160.5" stroke="#4682b4" stroke-width="2" /><line x1="179" y1="192.21" x2="179" y2="200.21" stroke="#4682b4" stroke-width="2" /><line x1="219" y1="213.48000000000002" x2="219" y2="221.48000000000002" stroke="#4682b4" stroke-width="2" /><line x1="259" y1="236.52" x2="259" y2="244.52" stroke="#4682b4" stroke-width="2" /><line x1="299" y1="261.87" x2="299" y2="269.87" stroke="#4682b4" stroke-width="2" /><line x1="339" y1="290.38" x2="339" y2="298.38" stroke="#4682b4" stroke-width="2" /><line x1="379" y1="290.38" x2="379" y2="298.38" stroke="#4682b4" stroke-width="2" /><line x1="459" y1="330.31" x2="459" y2="338.31" stroke="#4682b4" stroke-width="2" /><line x1="539" y1="383.54" x2="539" y2="391.54" stroke="#4682b4" stroke-width="2" /><line x1="579" y1="383.54" x2="579" y2="391.54" stroke="#4682b4" stroke-width="2" /></g></svg>