<svg xmlns="http://www.w3.org/2000/svg" width="520" height="400" font-family="DejaVu Sans, Liberation Sans, Arial, sans-serif" fill="black"><rect width="100%" height="100%" fill="white" /><defs><clipPath id="kuva-clip-2"><rect x="59" y="44" width="331" height="305"/></clipPath></defs><line x1="114.17" y1="44" x2="114.17" y2="349" stroke="#cccccc" stroke-width="1" /><line x1="169.33" y1="44" x2="169.33" y2="349" stroke="#cccccc" stroke-width="1" /><line x1="224.5" y1="44" x2="224.5" y2="349" stroke="#cccccc" stroke-width="1" /><line x1="279.67" y1="44" x2="279.67" y2="349" stroke="#cccccc" stroke-width="1" /><line x1="334.83" y1="44" x2="334.83" y2="349" stroke="#cccccc" stroke-width="1" /><line x1="390" y1="44" x2="390" y2="349" stroke="#cccccc" stroke-width="1" /><line x1="59" y1="285.46" x2="390" y2="285.46" stroke="#cccccc" stroke-width="1" /><line x1="59" y1="221.92000000000002" x2="390" y2="221.92000000000002" stroke="#cccccc" stroke-width="1" /><line x1="59" y1="158.38" x2="390" y2="158.38" stroke="#cccccc" stroke-width="1" /><line x1="59" y1="94.83" x2="390" y2="94.83" stroke="#cccccc" stroke-width="1" /><line x1="59" y1="349" x2="390" y2="349" stroke="#000000" stroke-width="1" /><line x1="59" y1="44" x2="59" y2="349" stroke="#000000" stroke-width="1" /><line x1="59" y1="349" x2="59" y2="354" stroke="#000000" stroke-width="1" /><text x="59" y="366" font-size="12" text-anchor="middle">0</text><line x1="114.17" y1="349" x2="114.17" y2="354" stroke="#000000" stroke-width="1" /><text x="114.17" y="366" font-size="12" text-anchor="middle">10</text><line x1="169.33" y1="349" x2="169.33" y2="354" stroke="#000000" stroke-width="1" /><text x="169.33" y="366" font-size="12" text-anchor="middle">20</text><line x1="224.5" y1="349" x2="224.5" y2="354" stroke="#000000" stroke-width="1" /><text x="224.5" y="366" font-size="12" text-anchor="middle">30</text><line x1="279.67" y1="349" x2="279.67" y2="354" stroke="#000000" stroke-width="1" /><text x="279.67" y="366" font-size="12" text-anchor="middle">40</text><line x1="334.83" y1="349" x2="334.83" y2="354" stroke="#000000" stroke-width="1" /><text x="334.83" y="366" font-size="12" text-anchor="middle">50</text><line x1="390" y1="349" x2="390" y2="354" stroke="#000000" stroke-width="1" /><text x="390" y="366" font-size="12" text-anchor="middle">60</text><line x1="54" y1="349" x2="59" y2="349" stroke="#000000" stroke-width="1" /><text x="51" y="353.2" font-size="12" text-anchor="end">0</text><line x1="54" y1="285.46" x2="59" y2="285.46" stroke="#000000" stroke-width="1" /><text x="51" y="289.66" font-size="12" text-anchor="end">0.25</text><line x1="54" y1="221.92000000000002" x2="59" y2="221.92000000000002" stroke="#000000" stroke-width="1" /><text x="51" y="226.12" font-size="12" text-anchor="end">0.5</text><line x1="54" y1="158.38" x2="59" y2="158.38" stroke="#000000" stroke-width="1" /><text x="51" y="162.58" font-size="12" text-anchor="end">0.75</text><line x1="54" y1="94.83" x2="59" y2="94.83" stroke="#000000" stroke-width="1" /><text x="51" y="99.03" font-size="12" text-anchor="end">1</text><text x="224.5" y="393" font-size="14" text-anchor="middle">Time (months)</text><text x="15" y="200" font-size="14" text-anchor="middle" transform="rotate(-90,15,200)">Overall survival</text><text x="260" y="27.400000000000002" font-size="18" text-anchor="middle">Survival by Disease Stage</text><g clip-path="url(#kuva-clip-2)"><path d="M 59,94.83 H 136.23 V 94.83 V 123.07000000000001 H 235.53 V 123.07000000000001 V 160.73 H 301.73 V 160.73 V 223.49 H 345.87" stroke="#1f77b4" stroke-width="2" fill="none" /><line x1="114.17" y1="90.83" x2="114.17" y2="98.83" stroke="#1f77b4" stroke-width="2" /><line x1="169.33" y1="119.07000000000001" x2="169.33" y2="127.07000000000001" stroke="#1f77b4" stroke-width="2" /><line x1="202.43" y1="119.07000000000001" x2="202.43" y2="127.07000000000001" stroke="#1f77b4" stroke-width="2" /><line x1="257.6" y1="156.73" x2="257.6" y2="164.73" stroke="#1f77b4" stroke-width="2" /><line x1="279.67" y1="156.73" x2="279.67" y2="164.73" stroke="#1f77b4" stroke-width="2" /><line x1="323.8" y1="219.49" x2="323.8" y2="227.49" stroke="#1f77b4" stroke-width="2" /><line x1="345.87" y1="219.49" x2="345.87" y2="227.49" stroke="#1f77b4" stroke-width="2" /><path d="M 59,94.83 H 86.58 V 94.83 V 120.25 H 103.13 V 120.25 V 145.67000000000002 H 147.27 V 145.67000000000002 V 174.71 H 191.4 V 174.71 V 209.57 H 257.6 V 209.57 V 279.29 H 345.87" stroke="#ff7f0e" stroke-width="2" fill="none" /><line x1="125.2" y1="141.67000000000002" x2="125.2" y2="149.67000000000002" stroke="#ff7f0e" stroke-width="2" /><line x1="169.33" y1="170.71" x2="169.33" y2="178.71" stroke="#ff7f0e" stroke-width="2" /><line x1="213.47" y1="205.57" x2="213.47" y2="213.57" stroke="#ff7f0e" stroke-width="2" /><line x1="235.53" y1="205.57" x2="235.53" y2="213.57" stroke="#ff7f0e" stroke-width="2" /><line x1="279.67" y1="275.29" x2="279.67" y2="283.29" stroke="#ff7f0e" stroke-width="2" /><path d="M 59,94.83 H 70.03 V 94.83 V 120.25 H 81.07000000000001 V 120.25 V 145.67000000000002 H 92.10000000000001 V 145.67000000000002 V 171.08 H 114.17 V 171.08 V 200.74 H 125.2 V 200.74 V 230.39000000000001 H 147.27 V 230.39000000000001 V 269.93 H 169.33 V 269.93 V 349 H 345.87" stroke="#2ca02c" stroke-width="2" fill="none" /><line x1="103.13" y1="167.08" x2="103.13" y2="175.08" stroke="#2ca02c" stroke-width="2" /><line x1="136.23" y1="226.39000000000001" x2="136.23" y2="234.39000000000001" stroke="#2ca02c" stroke-width="2" /><line x1="158.3" y1="265.93" x2="158.3" y2="273.93" stroke="#2ca02c" stroke-width="2" /><text x="382" y="62" font-size="12" text-anchor="end">log-rank p &lt; 0.001</text></g><rect x="395" y="34" width="112" height="74" fill="#ffffff" /><rect x="395" y="34" width="112" height="74" fill="none" stroke="#000000" stroke-width="1" /><text x="425" y="53.2" font-size="12" text-anchor="start">Stage I</text><line x1="405" y1="49" x2="417" y2="49" stroke="#1f77b4" stroke-width="2" /><text x="425" y="71.2" font-size="12" text-anchor="start">Stage II</text><line x1="405" y1="67" x2="417" y2="67" stroke="#ff7f0e" stroke-width="2" /><text x="425" y="89.2" font-size="12" text-anchor="start">Stage III</text><line x1="405" y1="85" x2="417" y2="85" stroke="#2ca02c" stroke-width="2" /></svg>