<svg xmlns="http://www.w3.org/2000/svg" width="673.4" height="545" font-family="DejaVu Sans, Liberation Sans, Arial, sans-serif" fill="black"><rect width="100%" height="100%" fill="white" /><text x="359" y="22" font-size="18" text-anchor="middle">Human chr1 vs Mouse chr1</text><path d="M 164 82 C 164 269 164 269 164 456 L 273.35071606762483 456 C 273.35071606762483 269 259.39822194263377 269 259.39822194263377 82 Z" stroke="#1f77b4" stroke-width="0.3" fill="#1f77b4" fill-opacity="0.65" /><path d="M 278.47786633116056 82 C 278.47786633116056 269 297.6508751937637 269 297.6508751937637 456 L 407.0015912613886 456 C 407.0015912613886 269 392.9557326623211 269 392.9557326623211 82 Z" stroke="#ff7f0e" stroke-width="0.3" fill="#ff7f0e" fill-opacity="0.65" /><path d="M 412.0353770508479 82 C 412.0353770508479 269 431.3017503875274 269 431.3017503875274 456 L 577.1027051443606 456 C 577.1027051443606 269 545.5928877705352 269 545.5928877705352 82 Z" stroke="#2ca02c" stroke-width="0.3" fill="#2ca02c" fill-opacity="0.65" /><rect x="164" y="64" width="475" height="18" fill="#555555" /><rect x="164" y="456" width="475" height="18" fill="#555555" /><text x="158" y="77" font-size="12" text-anchor="end">Human chr1</text><text x="158" y="469" font-size="12" text-anchor="end">Mouse chr1</text></svg>