<svg xmlns="http://www.w3.org/2000/svg" width="686.2" height="545" font-family="DejaVu Sans, Liberation Sans, Arial, sans-serif" fill="black"><rect width="100%" height="100%" fill="white" /><text x="372.2" y="22" font-size="18" text-anchor="middle">Human chr1 vs Mouse chr1</text><path d="M 177.2 82 C 177.2 269 177.2 269 177.2 456 L 286.5507160676249 456 C 286.5507160676249 269 272.5982219426338 269 272.5982219426338 82 Z" stroke="#1f77b4" stroke-width="0.3" fill="#1f77b4" fill-opacity="0.65" /><path d="M 291.67786633116054 82 C 291.67786633116054 269 310.8508751937637 269 310.8508751937637 456 L 420.2015912613886 456 C 420.2015912613886 269 406.15573266232116 269 406.15573266232116 82 Z" stroke="#ff7f0e" stroke-width="0.3" fill="#ff7f0e" fill-opacity="0.65" /><path d="M 425.2353770508479 82 C 425.2353770508479 269 444.50175038752747 269 444.50175038752747 456 L 590.3027051443606 456 C 590.3027051443606 269 558.7928877705352 269 558.7928877705352 82 Z" stroke="#2ca02c" stroke-width="0.3" fill="#2ca02c" fill-opacity="0.65" /><rect x="177.20000000000002" y="64" width="475" height="18" fill="#555555" /><rect x="177.20000000000002" y="456" width="475" height="18" fill="#555555" /><text x="171.20000000000002" y="77" font-size="12" text-anchor="end">Human chr1</text><text x="171.20000000000002" y="469" font-size="12" text-anchor="end">Mouse chr1</text></svg>