<svg xmlns="http://www.w3.org/2000/svg" width="753.4" height="545" font-family="DejaVu Sans, Liberation Sans, Arial, sans-serif" fill="black"><rect width="100%" height="100%" fill="white" /><text x="359" y="22" font-size="18" text-anchor="middle">Custom Colors &amp; Legend</text><path d="M 139 82 C 139 269 139 269 139 456 L 289 456 C 289 269 289 269 289 82 Z" stroke="#2ca02c" stroke-width="0.3" fill="#2ca02c" fill-opacity="0.65" /><path d="M 339 82 C 339 269 339 269 339 456 L 479 456 C 479 269 489 269 489 82 Z" stroke="#9467bd" stroke-width="0.3" fill="#9467bd" fill-opacity="0.65" /><path d="M 519 82 C 519 269 609 269 609 456 L 509 456 C 509 269 619 269 619 82 Z" stroke="#ff7f0e" stroke-width="0.3" fill="#ff7f0e" fill-opacity="0.65" /><rect x="139" y="64" width="500" height="18" fill="#4393c3" /><rect x="139" y="456" width="500" height="18" fill="#d6604d" /><text x="133" y="77" font-size="12" text-anchor="end">Seq 1</text><text x="133" y="469" font-size="12" text-anchor="end">Seq 2</text><rect x="664" y="34" width="80" height="56" fill="#ffffff" /><rect x="664" y="34" width="80" height="56" fill="none" stroke="#000000" stroke-width="1" /><text x="694" y="53.2" font-size="12" text-anchor="start">Seq 1</text><rect x="674" y="43" width="12" height="12" fill="#4393c3" /><text x="694" y="71.2" font-size="12" text-anchor="start">Seq 2</text><rect x="674" y="61" width="12" height="12" fill="#d6604d" /></svg>