<svg xmlns="http://www.w3.org/2000/svg" width="766.2" height="545" font-family="DejaVu Sans, Liberation Sans, Arial, sans-serif" fill="black"><rect width="100%" height="100%" fill="white" /><text x="372.2" y="22" font-size="18" text-anchor="middle">Custom Colors &amp; Legend</text><path d="M 152.2 82 C 152.2 269 152.2 269 152.2 456 L 302.2 456 C 302.2 269 302.2 269 302.2 82 Z" stroke="#2ca02c" stroke-width="0.3" fill="#2ca02c" fill-opacity="0.65" /><path d="M 352.20000000000005 82 C 352.20000000000005 269 352.20000000000005 269 352.20000000000005 456 L 492.20000000000005 456 C 492.20000000000005 269 502.2 269 502.2 82 Z" stroke="#9467bd" stroke-width="0.3" fill="#9467bd" fill-opacity="0.65" /><path d="M 532.2 82 C 532.2 269 622.2 269 622.2 456 L 522.2 456 C 522.2 269 632.2 269 632.2 82 Z" stroke="#ff7f0e" stroke-width="0.3" fill="#ff7f0e" fill-opacity="0.65" /><rect x="152.20000000000002" y="64" width="500" height="18" fill="#4393c3" /><rect x="152.20000000000002" y="456" width="500" height="18" fill="#d6604d" /><text x="146.20000000000002" y="77" font-size="12" text-anchor="end">Seq 1</text><text x="146.20000000000002" y="469" font-size="12" text-anchor="end">Seq 2</text><rect x="677.2" y="34" width="80" height="56" fill="#ffffff" /><rect x="677.2" y="34" width="80" height="56" fill="none" stroke="#000000" stroke-width="1" /><text x="707.2" y="53.2" font-size="12" text-anchor="start">Seq 1</text><rect x="687.2" y="43" width="12" height="12" fill="#4393c3" /><text x="707.2" y="71.2" font-size="12" text-anchor="start">Seq 2</text><rect x="687.2" y="61" width="12" height="12" fill="#d6604d" /></svg>