<svg xmlns="http://www.w3.org/2000/svg" width="686.2" height="545" font-family="DejaVu Sans, Liberation Sans, Arial, sans-serif" fill="black"><rect width="100%" height="100%" fill="white" /><text x="372.2" y="22" font-size="18" text-anchor="middle">Forward and Inverted Blocks</text><path d="M 152.2 82 C 152.2 269 152.2 269 152.2 456 L 252.2 456 C 252.2 269 252.2 269 252.2 82 Z" stroke="#1f77b4" stroke-width="0.3" fill="#1f77b4" fill-opacity="0.65" /><path d="M 277.2 82 C 277.2 269 402.20000000000005 269 402.20000000000005 456 L 277.2 456 C 277.2 269 402.20000000000005 269 402.20000000000005 82 Z" stroke="#ff7f0e" stroke-width="0.3" fill="#ff7f0e" fill-opacity="0.65" /><path d="M 452.2 82 C 452.2 269 452.2 269 452.2 456 L 602.2 456 C 602.2 269 602.2 269 602.2 82 Z" stroke="#2ca02c" stroke-width="0.3" fill="#2ca02c" fill-opacity="0.65" /><rect x="152.20000000000002" y="64" width="500" height="18" fill="#555555" /><rect x="152.20000000000002" y="456" width="500" height="18" fill="#555555" /><text x="146.20000000000002" y="77" font-size="12" text-anchor="end">Seq A</text><text x="146.20000000000002" y="469" font-size="12" text-anchor="end">Seq B</text></svg>