<svg xmlns="http://www.w3.org/2000/svg" width="673.4" height="545" font-family="DejaVu Sans, Liberation Sans, Arial, sans-serif" fill="black"><rect width="100%" height="100%" fill="white" /><text x="359" y="22" font-size="18" text-anchor="middle">Forward and Inverted Blocks</text><path d="M 139 82 C 139 269 139 269 139 456 L 239 456 C 239 269 239 269 239 82 Z" stroke="#1f77b4" stroke-width="0.3" fill="#1f77b4" fill-opacity="0.65" /><path d="M 264 82 C 264 269 389 269 389 456 L 264 456 C 264 269 389 269 389 82 Z" stroke="#ff7f0e" stroke-width="0.3" fill="#ff7f0e" fill-opacity="0.65" /><path d="M 439 82 C 439 269 439 269 439 456 L 589 456 C 589 269 589 269 589 82 Z" stroke="#2ca02c" stroke-width="0.3" fill="#2ca02c" fill-opacity="0.65" /><rect x="139" y="64" width="500" height="18" fill="#555555" /><rect x="139" y="456" width="500" height="18" fill="#555555" /><text x="133" y="77" font-size="12" text-anchor="end">Seq A</text><text x="133" y="469" font-size="12" text-anchor="end">Seq B</text></svg>