<svg xmlns="http://www.w3.org/2000/svg" width="673.4" height="545" font-family="DejaVu Sans, Liberation Sans, Arial, sans-serif" fill="black"><rect width="100%" height="100%" fill="white" /><text x="359" y="22" font-size="18" text-anchor="middle">Three-way Synteny</text><path d="M 150 82 C 150 171 150 171 150 260 L 246.78125 260 C 246.78125 171 247.8 171 247.8 82 Z" stroke="#1f77b4" stroke-width="0.3" fill="#1f77b4" fill-opacity="0.65" /><path d="M 296.7 82 C 296.7 171 292.625 171 292.625 260 L 435.25 260 C 435.25 171 443.4 171 443.4 82 Z" stroke="#ff7f0e" stroke-width="0.3" fill="#ff7f0e" fill-opacity="0.65" /><path d="M 150 278 C 150 367 155.43333333333334 367 155.43333333333334 456 L 264.1 456 C 264.1 367 251.875 367 251.875 278 Z" stroke="#2ca02c" stroke-width="0.3" fill="#2ca02c" fill-opacity="0.65" /><path d="M 353.75 278 C 353.75 367 519.4666666666667 367 519.4666666666667 456 L 356.4666666666667 456 C 356.4666666666667 367 506.5625 367 506.5625 278 Z" stroke="#d62728" stroke-width="0.3" fill="#d62728" fill-opacity="0.65" /><rect x="150" y="64" width="489" height="18" fill="#555555" /><rect x="150" y="260" width="489" height="18" fill="#555555" /><rect x="150" y="456" width="489" height="18" fill="#555555" /><text x="144" y="77" font-size="12" text-anchor="end">Genome A</text><text x="144" y="273" font-size="12" text-anchor="end">Genome B</text><text x="144" y="469" font-size="12" text-anchor="end">Genome C</text></svg>