<svg xmlns="http://www.w3.org/2000/svg" width="686.2" height="545" font-family="DejaVu Sans, Liberation Sans, Arial, sans-serif" fill="black"><rect width="100%" height="100%" fill="white" /><text x="372.2" y="22" font-size="18" text-anchor="middle">Three-way Synteny</text><path d="M 163.2 82 C 163.2 171 163.2 171 163.2 260 L 259.98125 260 C 259.98125 171 261 171 261 82 Z" stroke="#1f77b4" stroke-width="0.3" fill="#1f77b4" fill-opacity="0.65" /><path d="M 309.9 82 C 309.9 171 305.82500000000005 171 305.82500000000005 260 L 448.45000000000005 260 C 448.45000000000005 171 456.6 171 456.6 82 Z" stroke="#ff7f0e" stroke-width="0.3" fill="#ff7f0e" fill-opacity="0.65" /><path d="M 163.2 278 C 163.2 367 168.63333333333333 367 168.63333333333333 456 L 277.3 456 C 277.3 367 265.075 367 265.075 278 Z" stroke="#2ca02c" stroke-width="0.3" fill="#2ca02c" fill-opacity="0.65" /><path d="M 366.95000000000005 278 C 366.95000000000005 367 532.6666666666667 367 532.6666666666667 456 L 369.6666666666667 456 C 369.6666666666667 367 519.7625 367 519.7625 278 Z" stroke="#d62728" stroke-width="0.3" fill="#d62728" fill-opacity="0.65" /><rect x="163.20000000000002" y="64" width="489" height="18" fill="#555555" /><rect x="163.20000000000002" y="260" width="489" height="18" fill="#555555" /><rect x="163.20000000000002" y="456" width="489" height="18" fill="#555555" /><text x="157.20000000000002" y="77" font-size="12" text-anchor="end">Genome A</text><text x="157.20000000000002" y="273" font-size="12" text-anchor="end">Genome B</text><text x="157.20000000000002" y="469" font-size="12" text-anchor="end">Genome C</text></svg>