<svg xmlns="http://www.w3.org/2000/svg" width="760" height="545" font-family="DejaVu Sans, Liberation Sans, Arial, sans-serif" fill="black"><rect width="100%" height="100%" fill="white" /><line x1="71" y1="494" x2="671" y2="494" stroke="#000000" stroke-width="1" /><line x1="71" y1="44" x2="71" y2="494" stroke="#000000" stroke-width="1" /><text x="63" y="453.2" font-size="12" text-anchor="end">LYZ</text><line x1="66" y1="449" x2="71" y2="449" stroke="#000000" stroke-width="1" /><text x="63" y="408.2" font-size="12" text-anchor="end">CD14</text><line x1="66" y1="404" x2="71" y2="404" stroke="#000000" stroke-width="1" /><text x="63" y="363.2" font-size="12" text-anchor="end">MS4A1</text><line x1="66" y1="359" x2="71" y2="359" stroke="#000000" stroke-width="1" /><text x="63" y="318.2" font-size="12" text-anchor="end">GNLY</text><line x1="66" y1="314" x2="71" y2="314" stroke="#000000" stroke-width="1" /><text x="63" y="273.2" font-size="12" text-anchor="end">CD8A</text><line x1="66" y1="269" x2="71" y2="269" stroke="#000000" stroke-width="1" /><text x="63" y="228.20000000000002" font-size="12" text-anchor="end">CD4</text><line x1="66" y1="224" x2="71" y2="224" stroke="#000000" stroke-width="1" /><text x="63" y="183.20000000000002" font-size="12" text-anchor="end">CD3E</text><line x1="66" y1="179" x2="71" y2="179" stroke="#000000" stroke-width="1" /><text x="63" y="138.20000000000002" font-size="12" text-anchor="end">PTPRC</text><line x1="66" y1="134" x2="71" y2="134" stroke="#000000" stroke-width="1" /><text x="156.71" y="511" font-size="12" text-anchor="middle">CD4 T</text><line x1="156.71" y1="494" x2="156.71" y2="499" stroke="#000000" stroke-width="1" /><text x="242.43" y="511" font-size="12" text-anchor="middle">CD8 T</text><line x1="242.43" y1="494" x2="242.43" y2="499" stroke="#000000" stroke-width="1" /><text x="328.14" y="511" font-size="12" text-anchor="middle">NK</text><line x1="328.14" y1="494" x2="328.14" y2="499" stroke="#000000" stroke-width="1" /><text x="413.86" y="511" font-size="12" text-anchor="middle">B cell</text><line x1="413.86" y1="494" x2="413.86" y2="499" stroke="#000000" stroke-width="1" /><text x="499.57" y="511" font-size="12" text-anchor="middle">Mono</text><line x1="499.57" y1="494" x2="499.57" y2="499" stroke="#000000" stroke-width="1" /><text x="585.29" y="511" font-size="12" text-anchor="middle">DC</text><line x1="585.29" y1="494" x2="585.29" y2="499" stroke="#000000" stroke-width="1" /><text x="371" y="538" font-size="14" text-anchor="middle">Cell type</text><text x="15" y="272.5" font-size="14" text-anchor="middle" transform="rotate(-90,15,272.5)">Gene</text><text x="371" y="22" font-size="18" text-anchor="middle">Gene Expression Dot Plot</text><circle cx="156.71" cy="134" r="11.65" fill="#c1df23" /><circle cx="242.43" cy="134" r="12" fill="#e0e318" /><circle cx="328.14" cy="134" r="11.17" fill="#a2da36" /><circle cx="413.86" cy="134" r="11.53" fill="#b2dd2c" /><circle cx="499.57" cy="134" r="10.82" fill="#85d449" /><circle cx="585.29" cy="134" r="10.46" fill="#69cc5a" /><circle cx="156.71" cy="179" r="11.17" fill="#93d740" /><circle cx="242.43" cy="179" r="11.53" fill="#b2dd2c" /><circle cx="328.14" cy="179" r="2.18" fill="#482173" /><circle cx="413.86" cy="179" r="1.35" fill="#46095c" /><circle cx="499.57" cy="179" r="1.12" fill="#440154" /><circle cx="585.29" cy="179" r="1.24" fill="#46095c" /><circle cx="156.71" cy="224" r="10.82" fill="#69cc5a" /><circle cx="242.43" cy="224" r="1.71" fill="#471264" /><circle cx="328.14" cy="224" r="1.24" fill="#46095c" /><circle cx="413.86" cy="224" r="1.12" fill="#440154" /><circle cx="499.57" cy="224" r="2.89" fill="#443781" /><circle cx="585.29" cy="224" r="3.37" fill="#404587" /><circle cx="156.71" cy="269" r="1.35" fill="#46095c" /><circle cx="242.43" cy="269" r="10.46" fill="#5cc862" /><circle cx="328.14" cy="269" r="2.54" fill="#462f7d" /><circle cx="413.86" cy="269" r="1.12" fill="#440154" /><circle cx="499.57" cy="269" r="1" fill="#440154" /><circle cx="585.29" cy="269" r="1.24" fill="#46095c" /><circle cx="156.71" cy="314" r="1.71" fill="#481a6c" /><circle cx="242.43" cy="314" r="5.73" fill="#24848e" /><circle cx="328.14" cy="314" r="11.17" fill="#fde725" /><circle cx="413.86" cy="314" r="1.12" fill="#440154" /><circle cx="499.57" cy="314" r="1.35" fill="#46095c" /><circle cx="585.29" cy="314" r="1.47" fill="#471264" /><circle cx="156.71" cy="359" r="1" fill="#440154" /><circle cx="242.43" cy="359" r="1.12" fill="#440154" /><circle cx="328.14" cy="359" r="1" fill="#440154" /><circle cx="413.86" cy="359" r="11.41" fill="#d1e11b" /><circle cx="499.57" cy="359" r="1.35" fill="#46095c" /><circle cx="585.29" cy="359" r="1.47" fill="#471264" /><circle cx="156.71" cy="404" r="1.12" fill="#440154" /><circle cx="242.43" cy="404" r="1" fill="#440154" /><circle cx="328.14" cy="404" r="1.24" fill="#46095c" /><circle cx="413.86" cy="404" r="1.35" fill="#46095c" /><circle cx="499.57" cy="404" r="10.82" fill="#a2da36" /><circle cx="585.29" cy="404" r="3.72" fill="#3a518b" /><circle cx="156.71" cy="449" r="1.35" fill="#46095c" /><circle cx="242.43" cy="449" r="1.24" fill="#46095c" /><circle cx="328.14" cy="449" r="1.71" fill="#481a6c" /><circle cx="413.86" cy="449" r="1.47" fill="#471264" /><circle cx="499.57" cy="449" r="11.65" fill="#efe51c" /><circle cx="585.29" cy="449" r="9.99" fill="#69cc5a" /><rect x="676" y="60" width="75" height="92" fill="#ffffff" /><rect x="676" y="60" width="75" height="92" fill="none" stroke="#000000" stroke-width="1" /><text x="708.5" y="56" font-size="12" text-anchor="middle">% Expressing</text><text x="706" y="79.2" font-size="12" text-anchor="start">25.2</text><circle cx="691" cy="75" r="3" fill="#444444" /><text x="706" y="97.2" font-size="12" text-anchor="start">48.5</text><circle cx="691" cy="93" r="6" fill="#444444" /><text x="706" y="115.2" font-size="12" text-anchor="start">71.8</text><circle cx="691" cy="111" r="8" fill="#444444" /><text x="706" y="133.2" font-size="12" text-anchor="start">95.0</text><circle cx="691" cy="129" r="8" fill="#444444" /><text x="691" y="161" font-size="12" text-anchor="middle">Mean expression</text><rect x="681" y="167" width="20" height="6.74" fill="#fde725" /><rect x="681" y="173.24" width="20" height="6.74" fill="#f0e51c" /><rect x="681" y="179.48" width="20" height="6.74" fill="#e3e318" /><rect x="681" y="185.72" width="20" height="6.74" fill="#d6e219" /><rect x="681" y="191.96" width="20" height="6.74" fill="#c8e01f" /><rect x="681" y="198.20000000000002" width="20" height="6.74" fill="#bade27" /><rect x="681" y="204.44" width="20" height="6.74" fill="#acdc30" /><rect x="681" y="210.68" width="20" height="6.74" fill="#9ed939" /><rect x="681" y="216.92000000000002" width="20" height="6.74" fill="#91d642" /><rect x="681" y="223.16" width="20" height="6.74" fill="#84d44a" /><rect x="681" y="229.4" width="20" height="6.74" fill="#77d052" /><rect x="681" y="235.64000000000001" width="20" height="6.74" fill="#6bcd5a" /><rect x="681" y="241.88" width="20" height="6.74" fill="#5fc960" /><rect x="681" y="248.12" width="20" height="6.74" fill="#54c567" /><rect x="681" y="254.36" width="20" height="6.74" fill="#4ac16c" /><rect x="681" y="260.6" width="20" height="6.74" fill="#40bc72" /><rect x="681" y="266.84000000000003" width="20" height="6.74" fill="#37b877" /><rect x="681" y="273.08" width="20" height="6.74" fill="#30b47b" /><rect x="681" y="279.32" width="20" height="6.74" fill="#29af7f" /><rect x="681" y="285.56" width="20" height="6.74" fill="#24ab82" /><rect x="681" y="291.8" width="20" height="6.74" fill="#21a585" /><rect x="681" y="298.04" width="20" height="6.74" fill="#1fa187" /><rect x="681" y="304.28000000000003" width="20" height="6.74" fill="#1e9c89" /><rect x="681" y="310.52" width="20" height="6.74" fill="#1f978a" /><rect x="681" y="316.76" width="20" height="6.74" fill="#1f928c" /><rect x="681" y="323" width="20" height="6.74" fill="#218d8d" /><rect x="681" y="329.24" width="20" height="6.74" fill="#23888d" /><rect x="681" y="335.48" width="20" height="6.74" fill="#25838e" /><rect x="681" y="341.72" width="20" height="6.74" fill="#267f8d" /><rect x="681" y="347.96" width="20" height="6.74" fill="#287a8e" /><rect x="681" y="354.2" width="20" height="6.74" fill="#2a748d" /><rect x="681" y="360.44" width="20" height="6.74" fill="#2c708e" /><rect x="681" y="366.68" width="20" height="6.74" fill="#2f6b8e" /><rect x="681" y="372.92" width="20" height="6.74" fill="#31668e" /><rect x="681" y="379.16" width="20" height="6.74" fill="#33618c" /><rect x="681" y="385.40000000000003" width="20" height="6.74" fill="#365b8c" /><rect x="681" y="391.64" width="20" height="6.74" fill="#38558c" /><rect x="681" y="397.88" width="20" height="6.74" fill="#3b508a" /><rect x="681" y="404.12" width="20" height="6.74" fill="#3d4a89" /><rect x="681" y="410.36" width="20" height="6.74" fill="#404587" /><rect x="681" y="416.6" width="20" height="6.74" fill="#423e85" /><rect x="681" y="422.84000000000003" width="20" height="6.74" fill="#443882" /><rect x="681" y="429.08" width="20" height="6.74" fill="#46327e" /><rect x="681" y="435.32" width="20" height="6.74" fill="#472c7a" /><rect x="681" y="441.56" width="20" height="6.74" fill="#482576" /><rect x="681" y="447.8" width="20" height="6.74" fill="#471e6f" /><rect x="681" y="454.04" width="20" height="6.74" fill="#481769" /><rect x="681" y="460.28000000000003" width="20" height="6.74" fill="#471063" /><rect x="681" y="466.52" width="20" height="6.74" fill="#46085c" /><rect x="681" y="472.76" width="20" height="6.74" fill="#440154" /><rect x="681" y="167" width="20" height="312" fill="none" stroke="#000000" stroke-width="1" /><line x1="701" y1="415.18" x2="705" y2="415.18" stroke="#000000" stroke-width="1" /><text x="706" y="419.18" font-size="12" text-anchor="start">1</text><line x1="701" y1="344.27" x2="705" y2="344.27" stroke="#000000" stroke-width="1" /><text x="706" y="348.27" font-size="12" text-anchor="start">2</text><line x1="701" y1="273.36" x2="705" y2="273.36" stroke="#000000" stroke-width="1" /><text x="706" y="277.36" font-size="12" text-anchor="start">3</text><line x1="701" y1="202.45000000000002" x2="705" y2="202.45000000000002" stroke="#000000" stroke-width="1" /><text x="706" y="206.45000000000002" font-size="12" text-anchor="start">4</text></svg>