<svg xmlns="http://www.w3.org/2000/svg" width="767.8000000000001" height="545" font-family="DejaVu Sans, Liberation Sans, Arial, sans-serif" fill="black"><rect width="100%" height="100%" fill="white" /><defs><clipPath id="kuva-clip-3"><rect x="63.800000000000004" y="44" width="600" height="450"/></clipPath></defs><line x1="63.800000000000004" y1="494" x2="663.8000000000001" y2="494" stroke="#000000" stroke-width="1" /><line x1="63.800000000000004" y1="44" x2="63.800000000000004" y2="494" stroke="#000000" stroke-width="1" /><text x="55.800000000000004" y="408.2" font-size="12" text-anchor="end">CD14</text><line x1="58.800000000000004" y1="404" x2="63.800000000000004" y2="404" stroke="#000000" stroke-width="1" /><text x="55.800000000000004" y="318.2" font-size="12" text-anchor="end">CD8A</text><line x1="58.800000000000004" y1="314" x2="63.800000000000004" y2="314" stroke="#000000" stroke-width="1" /><text x="55.800000000000004" y="228.20000000000002" font-size="12" text-anchor="end">CD4</text><line x1="58.800000000000004" y1="224" x2="63.800000000000004" y2="224" stroke="#000000" stroke-width="1" /><text x="55.800000000000004" y="138.20000000000002" font-size="12" text-anchor="end">CD3E</text><line x1="58.800000000000004" y1="134" x2="63.800000000000004" y2="134" stroke="#000000" stroke-width="1" /><text x="183.8" y="511" font-size="12" text-anchor="middle">CD4 T</text><line x1="183.8" y1="494" x2="183.8" y2="499" stroke="#000000" stroke-width="1" /><text x="303.8" y="511" font-size="12" text-anchor="middle">CD8 T</text><line x1="303.8" y1="494" x2="303.8" y2="499" stroke="#000000" stroke-width="1" /><text x="423.8" y="511" font-size="12" text-anchor="middle">NK</text><line x1="423.8" y1="494" x2="423.8" y2="499" stroke="#000000" stroke-width="1" /><text x="543.8" y="511" font-size="12" text-anchor="middle">Mono</text><line x1="543.8" y1="494" x2="543.8" y2="499" stroke="#000000" stroke-width="1" /><text x="363.8" y="538" font-size="14" text-anchor="middle">Cell type</text><text x="15" y="272.5" font-size="14" text-anchor="middle" transform="rotate(-90,15,272.5)">Gene</text><text x="383.90000000000003" y="27.400000000000002" font-size="18" text-anchor="middle">Colorbar Only</text><g clip-path="url(#kuva-clip-3)"><circle cx="183.8" cy="134" r="1" fill="#dce218" /><circle cx="303.8" cy="134" r="1" fill="#fde725" /><circle cx="423.8" cy="134" r="1" fill="#482576" /><circle cx="543.8" cy="134" r="1" fill="#440154" /><circle cx="183.8" cy="224" r="1" fill="#a8db33" /><circle cx="303.8" cy="224" r="1" fill="#471466" /><circle cx="423.8" cy="224" r="1" fill="#460a5d" /><circle cx="543.8" cy="224" r="1" fill="#423d84" /><circle cx="183.8" cy="314" r="1" fill="#460a5d" /><circle cx="303.8" cy="314" r="1" fill="#97d83e" /><circle cx="423.8" cy="314" r="1" fill="#453580" /><circle cx="543.8" cy="314" r="1" fill="#440154" /><circle cx="183.8" cy="404" r="1" fill="#440154" /><circle cx="303.8" cy="404" r="1" fill="#440154" /><circle cx="423.8" cy="404" r="1" fill="#460a5d" /><circle cx="543.8" cy="404" r="1" fill="#ede51b" /></g><rect x="702.8000000000001" y="89" width="20" height="7.7" fill="#fde725" /><rect x="702.8000000000001" y="96.2" width="20" height="7.7" fill="#f0e51c" /><rect x="702.8000000000001" y="103.4" width="20" height="7.7" fill="#e3e318" /><rect x="702.8000000000001" y="110.60000000000001" width="20" height="7.7" fill="#d6e219" /><rect x="702.8000000000001" y="117.8" width="20" height="7.7" fill="#c8e01f" /><rect x="702.8000000000001" y="125" width="20" height="7.7" fill="#bade27" /><rect x="702.8000000000001" y="132.2" width="20" height="7.7" fill="#acdc30" /><rect x="702.8000000000001" y="139.4" width="20" height="7.7" fill="#9ed939" /><rect x="702.8000000000001" y="146.6" width="20" height="7.7" fill="#91d642" /><rect x="702.8000000000001" y="153.8" width="20" height="7.7" fill="#84d44a" /><rect x="702.8000000000001" y="161" width="20" height="7.7" fill="#77d052" /><rect x="702.8000000000001" y="168.20000000000002" width="20" height="7.7" fill="#6bcd5a" /><rect x="702.8000000000001" y="175.4" width="20" height="7.7" fill="#5fc960" /><rect x="702.8000000000001" y="182.6" width="20" height="7.7" fill="#54c567" /><rect x="702.8000000000001" y="189.8" width="20" height="7.7" fill="#4ac16c" /><rect x="702.8000000000001" y="197" width="20" height="7.7" fill="#40bc72" /><rect x="702.8000000000001" y="204.20000000000002" width="20" height="7.7" fill="#37b877" /><rect x="702.8000000000001" y="211.4" width="20" height="7.7" fill="#30b47b" /><rect x="702.8000000000001" y="218.6" width="20" height="7.7" fill="#29af7f" /><rect x="702.8000000000001" y="225.8" width="20" height="7.7" fill="#24ab82" /><rect x="702.8000000000001" y="233" width="20" height="7.7" fill="#21a585" /><rect x="702.8000000000001" y="240.20000000000002" width="20" height="7.7" fill="#1fa187" /><rect x="702.8000000000001" y="247.4" width="20" height="7.7" fill="#1e9c89" /><rect x="702.8000000000001" y="254.6" width="20" height="7.7" fill="#1f978a" /><rect x="702.8000000000001" y="261.8" width="20" height="7.7" fill="#1f928c" /><rect x="702.8000000000001" y="269" width="20" height="7.7" fill="#218d8d" /><rect x="702.8000000000001" y="276.2" width="20" height="7.7" fill="#23888d" /><rect x="702.8000000000001" y="283.40000000000003" width="20" height="7.7" fill="#25838e" /><rect x="702.8000000000001" y="290.6" width="20" height="7.7" fill="#267f8d" /><rect x="702.8000000000001" y="297.8" width="20" height="7.7" fill="#287a8e" /><rect x="702.8000000000001" y="305" width="20" height="7.7" fill="#2a748d" /><rect x="702.8000000000001" y="312.2" width="20" height="7.7" fill="#2c708e" /><rect x="702.8000000000001" y="319.40000000000003" width="20" height="7.7" fill="#2f6b8e" /><rect x="702.8000000000001" y="326.6" width="20" height="7.7" fill="#31668e" /><rect x="702.8000000000001" y="333.8" width="20" height="7.7" fill="#33618c" /><rect x="702.8000000000001" y="341" width="20" height="7.7" fill="#365b8c" /><rect x="702.8000000000001" y="348.2" width="20" height="7.7" fill="#38558c" /><rect x="702.8000000000001" y="355.40000000000003" width="20" height="7.7" fill="#3b508a" /><rect x="702.8000000000001" y="362.6" width="20" height="7.7" fill="#3d4a89" /><rect x="702.8000000000001" y="369.8" width="20" height="7.7" fill="#404587" /><rect x="702.8000000000001" y="377" width="20" height="7.7" fill="#423e85" /><rect x="702.8000000000001" y="384.2" width="20" height="7.7" fill="#443882" /><rect x="702.8000000000001" y="391.40000000000003" width="20" height="7.7" fill="#46327e" /><rect x="702.8000000000001" y="398.6" width="20" height="7.7" fill="#472c7a" /><rect x="702.8000000000001" y="405.8" width="20" height="7.7" fill="#482576" /><rect x="702.8000000000001" y="413" width="20" height="7.7" fill="#471e6f" /><rect x="702.8000000000001" y="420.2" width="20" height="7.7" fill="#481769" /><rect x="702.8000000000001" y="427.40000000000003" width="20" height="7.7" fill="#471063" /><rect x="702.8000000000001" y="434.6" width="20" height="7.7" fill="#46085c" /><rect x="702.8000000000001" y="441.8" width="20" height="7.7" fill="#440154" /><rect x="702.8000000000001" y="89" width="20" height="360" fill="none" stroke="#000000" stroke-width="1" /><line x1="722.8000000000001" y1="365.92" x2="726.8000000000001" y2="365.92" stroke="#000000" stroke-width="1" /><text x="727.8000000000001" y="369.92" font-size="12" text-anchor="start">1</text><line x1="722.8000000000001" y1="273.62" x2="726.8000000000001" y2="273.62" stroke="#000000" stroke-width="1" /><text x="727.8000000000001" y="277.62" font-size="12" text-anchor="start">2</text><line x1="722.8000000000001" y1="181.31" x2="726.8000000000001" y2="181.31" stroke="#000000" stroke-width="1" /><text x="727.8000000000001" y="185.31" font-size="12" text-anchor="start">3</text><line x1="722.8000000000001" y1="89" x2="726.8000000000001" y2="89" stroke="#000000" stroke-width="1" /><text x="727.8000000000001" y="93" font-size="12" text-anchor="start">4</text><text x="692.8000000000001" y="269" font-size="12" text-anchor="middle" transform="rotate(-90,692.8000000000001,269)">Mean expression</text></svg>