<svg xmlns="http://www.w3.org/2000/svg" width="754" height="545" font-family="DejaVu Sans, Liberation Sans, Arial, sans-serif" fill="black"><rect width="100%" height="100%" fill="white" /><line x1="65" y1="494" x2="665" y2="494" stroke="#000000" stroke-width="1" /><line x1="65" y1="44" x2="65" y2="494" stroke="#000000" stroke-width="1" /><text x="55" y="433.91" font-size="12" text-anchor="end">Gene6</text><line x1="60" y1="429.71000000000004" x2="65" y2="429.71000000000004" stroke="#000000" stroke-width="1" /><text x="55" y="369.63" font-size="12" text-anchor="end">Gene5</text><line x1="60" y1="365.43" x2="65" y2="365.43" stroke="#000000" stroke-width="1" /><text x="55" y="305.34000000000003" font-size="12" text-anchor="end">Gene4</text><line x1="60" y1="301.14" x2="65" y2="301.14" stroke="#000000" stroke-width="1" /><text x="55" y="241.06" font-size="12" text-anchor="end">Gene3</text><line x1="60" y1="236.86" x2="65" y2="236.86" stroke="#000000" stroke-width="1" /><text x="55" y="176.77" font-size="12" text-anchor="end">Gene2</text><line x1="60" y1="172.57" x2="65" y2="172.57" stroke="#000000" stroke-width="1" /><text x="55" y="112.49000000000001" font-size="12" text-anchor="end">Gene1</text><line x1="60" y1="108.29" x2="65" y2="108.29" stroke="#000000" stroke-width="1" /><text x="165" y="511" font-size="12" text-anchor="middle">TypeA</text><line x1="165" y1="494" x2="165" y2="499" stroke="#000000" stroke-width="1" /><text x="265" y="511" font-size="12" text-anchor="middle">TypeB</text><line x1="265" y1="494" x2="265" y2="499" stroke="#000000" stroke-width="1" /><text x="365" y="511" font-size="12" text-anchor="middle">TypeC</text><line x1="365" y1="494" x2="365" y2="499" stroke="#000000" stroke-width="1" /><text x="465" y="511" font-size="12" text-anchor="middle">TypeD</text><line x1="465" y1="494" x2="465" y2="499" stroke="#000000" stroke-width="1" /><text x="565" y="511" font-size="12" text-anchor="middle">TypeE</text><line x1="565" y1="494" x2="565" y2="499" stroke="#000000" stroke-width="1" /><text x="365" y="538" font-size="14" text-anchor="middle">Cell type</text><text x="7" y="272.5" font-size="14" text-anchor="middle" transform="rotate(-90,7,272.5)">Gene</text><text x="365" y="22" font-size="18" text-anchor="middle">Matrix Input</text><circle cx="165" cy="108.29" r="10.06" fill="#73cf55" /><circle cx="265" cy="108.29" r="2.94" fill="#423e85" /><circle cx="365" cy="108.29" r="7.47" fill="#23a983" /><circle cx="465" cy="108.29" r="5.53" fill="#2a768d" /><circle cx="565" cy="108.29" r="8.76" fill="#3bbb74" /><circle cx="165" cy="172.57" r="1.6500000000000001" fill="#481d6f" /><circle cx="265" cy="172.57" r="11.35" fill="#dbe218" /><circle cx="365" cy="172.57" r="4.24" fill="#39558c" /><circle cx="465" cy="172.57" r="8.76" fill="#48c06d" /><circle cx="565" cy="172.57" r="2.29" fill="#482576" /><circle cx="165" cy="236.86" r="6.82" fill="#20908c" /><circle cx="265" cy="236.86" r="4.88" fill="#2f6a8e" /><circle cx="365" cy="236.86" r="10.71" fill="#a6da35" /><circle cx="465" cy="236.86" r="2.29" fill="#482576" /><circle cx="565" cy="236.86" r="8.120000000000001" fill="#1fa286" /><circle cx="165" cy="301.14" r="3.59" fill="#3f4688" /><circle cx="265" cy="301.14" r="8.120000000000001" fill="#29af7f" /><circle cx="365" cy="301.14" r="1" fill="#440154" /><circle cx="465" cy="301.14" r="12" fill="#fde725" /><circle cx="565" cy="301.14" r="4.88" fill="#355c8d" /><circle cx="165" cy="365.43" r="8.76" fill="#3bbb74" /><circle cx="265" cy="365.43" r="6.18" fill="#25838e" /><circle cx="365" cy="365.43" r="9.41" fill="#55c566" /><circle cx="465" cy="365.43" r="3.59" fill="#3c4e8a" /><circle cx="565" cy="365.43" r="11.09" fill="#c9e01f" /><circle cx="165" cy="429.71000000000004" r="5.53" fill="#2a768d" /><circle cx="265" cy="429.71000000000004" r="9.8" fill="#83d44a" /><circle cx="365" cy="429.71000000000004" r="6.82" fill="#277d8e" /><circle cx="465" cy="429.71000000000004" r="7.47" fill="#23a983" /><circle cx="565" cy="429.71000000000004" r="4.24" fill="#2f6a8e" /><rect x="670" y="60" width="75" height="92" fill="#ffffff" /><rect x="670" y="60" width="75" height="92" fill="none" stroke="#000000" stroke-width="1" /><text x="702.5" y="56" font-size="12" text-anchor="middle">% Expressing</text><text x="700" y="79.2" font-size="12" text-anchor="start">31.2</text><circle cx="686" cy="75" r="3" fill="#444444" /><text x="700" y="97.2" font-size="12" text-anchor="start">52.5</text><circle cx="686" cy="93" r="6" fill="#444444" /><text x="700" y="115.2" font-size="12" text-anchor="start">73.8</text><circle cx="686" cy="111" r="8" fill="#444444" /><text x="700" y="133.2" font-size="12" text-anchor="start">95.0</text><circle cx="686" cy="129" r="8" fill="#444444" /><text x="685" y="161" font-size="12" text-anchor="middle">Mean expression</text><rect x="675" y="167" width="20" height="6.74" fill="#fde725" /><rect x="675" y="173.24" width="20" height="6.74" fill="#f0e51c" /><rect x="675" y="179.48" width="20" height="6.74" fill="#e3e318" /><rect x="675" y="185.72" width="20" height="6.74" fill="#d6e219" /><rect x="675" y="191.96" width="20" height="6.74" fill="#c8e01f" /><rect x="675" y="198.20000000000002" width="20" height="6.74" fill="#bade27" /><rect x="675" y="204.44" width="20" height="6.74" fill="#acdc30" /><rect x="675" y="210.68" width="20" height="6.74" fill="#9ed939" /><rect x="675" y="216.92000000000002" width="20" height="6.74" fill="#91d642" /><rect x="675" y="223.16" width="20" height="6.74" fill="#84d44a" /><rect x="675" y="229.4" width="20" height="6.74" fill="#77d052" /><rect x="675" y="235.64000000000001" width="20" height="6.74" fill="#6bcd5a" /><rect x="675" y="241.88" width="20" height="6.74" fill="#5fc960" /><rect x="675" y="248.12" width="20" height="6.74" fill="#54c567" /><rect x="675" y="254.36" width="20" height="6.74" fill="#4ac16c" /><rect x="675" y="260.6" width="20" height="6.74" fill="#40bc72" /><rect x="675" y="266.84000000000003" width="20" height="6.74" fill="#37b877" /><rect x="675" y="273.08" width="20" height="6.74" fill="#30b47b" /><rect x="675" y="279.32" width="20" height="6.74" fill="#29af7f" /><rect x="675" y="285.56" width="20" height="6.74" fill="#24ab82" /><rect x="675" y="291.8" width="20" height="6.74" fill="#21a585" /><rect x="675" y="298.04" width="20" height="6.74" fill="#1fa187" /><rect x="675" y="304.28000000000003" width="20" height="6.74" fill="#1e9c89" /><rect x="675" y="310.52" width="20" height="6.74" fill="#1f978a" /><rect x="675" y="316.76" width="20" height="6.74" fill="#1f928c" /><rect x="675" y="323" width="20" height="6.74" fill="#218d8d" /><rect x="675" y="329.24" width="20" height="6.74" fill="#23888d" /><rect x="675" y="335.48" width="20" height="6.74" fill="#25838e" /><rect x="675" y="341.72" width="20" height="6.74" fill="#267f8d" /><rect x="675" y="347.96" width="20" height="6.74" fill="#287a8e" /><rect x="675" y="354.2" width="20" height="6.74" fill="#2a748d" /><rect x="675" y="360.44" width="20" height="6.74" fill="#2c708e" /><rect x="675" y="366.68" width="20" height="6.74" fill="#2f6b8e" /><rect x="675" y="372.92" width="20" height="6.74" fill="#31668e" /><rect x="675" y="379.16" width="20" height="6.74" fill="#33618c" /><rect x="675" y="385.40000000000003" width="20" height="6.74" fill="#365b8c" /><rect x="675" y="391.64" width="20" height="6.74" fill="#38558c" /><rect x="675" y="397.88" width="20" height="6.74" fill="#3b508a" /><rect x="675" y="404.12" width="20" height="6.74" fill="#3d4a89" /><rect x="675" y="410.36" width="20" height="6.74" fill="#404587" /><rect x="675" y="416.6" width="20" height="6.74" fill="#423e85" /><rect x="675" y="422.84000000000003" width="20" height="6.74" fill="#443882" /><rect x="675" y="429.08" width="20" height="6.74" fill="#46327e" /><rect x="675" y="435.32" width="20" height="6.74" fill="#472c7a" /><rect x="675" y="441.56" width="20" height="6.74" fill="#482576" /><rect x="675" y="447.8" width="20" height="6.74" fill="#471e6f" /><rect x="675" y="454.04" width="20" height="6.74" fill="#481769" /><rect x="675" y="460.28000000000003" width="20" height="6.74" fill="#471063" /><rect x="675" y="466.52" width="20" height="6.74" fill="#46085c" /><rect x="675" y="472.76" width="20" height="6.74" fill="#440154" /><rect x="675" y="167" width="20" height="312" fill="none" stroke="#000000" stroke-width="1" /><line x1="695" y1="437.95" x2="699" y2="437.95" stroke="#000000" stroke-width="1" /><text x="701" y="441.95" font-size="12" text-anchor="start">1.0</text><line x1="695" y1="355.84000000000003" x2="699" y2="355.84000000000003" stroke="#000000" stroke-width="1" /><text x="701" y="359.84000000000003" font-size="12" text-anchor="start">2.0</text><line x1="695" y1="273.74" x2="699" y2="273.74" stroke="#000000" stroke-width="1" /><text x="701" y="277.74" font-size="12" text-anchor="start">3.0</text><line x1="695" y1="191.63" x2="699" y2="191.63" stroke="#000000" stroke-width="1" /><text x="701" y="195.63" font-size="12" text-anchor="start">4.0</text></svg>