<svg xmlns="http://www.w3.org/2000/svg" width="759" height="545" font-family="DejaVu Sans, Liberation Sans, Arial, sans-serif" fill="black"><rect width="100%" height="100%" fill="white" /><line x1="65" y1="494" x2="665" y2="494" stroke="#000000" stroke-width="1" /><line x1="65" y1="44" x2="65" y2="494" stroke="#000000" stroke-width="1" /><text x="55" y="408.2" font-size="12" text-anchor="end">CD14</text><line x1="60" y1="404" x2="65" y2="404" stroke="#000000" stroke-width="1" /><text x="55" y="318.2" font-size="12" text-anchor="end">CD8A</text><line x1="60" y1="314" x2="65" y2="314" stroke="#000000" stroke-width="1" /><text x="55" y="228.20000000000002" font-size="12" text-anchor="end">CD4</text><line x1="60" y1="224" x2="65" y2="224" stroke="#000000" stroke-width="1" /><text x="55" y="138.20000000000002" font-size="12" text-anchor="end">CD3E</text><line x1="60" y1="134" x2="65" y2="134" stroke="#000000" stroke-width="1" /><text x="185" y="511" font-size="12" text-anchor="middle">CD4 T</text><line x1="185" y1="494" x2="185" y2="499" stroke="#000000" stroke-width="1" /><text x="305" y="511" font-size="12" text-anchor="middle">CD8 T</text><line x1="305" y1="494" x2="305" y2="499" stroke="#000000" stroke-width="1" /><text x="425" y="511" font-size="12" text-anchor="middle">NK</text><line x1="425" y1="494" x2="425" y2="499" stroke="#000000" stroke-width="1" /><text x="545" y="511" font-size="12" text-anchor="middle">Mono</text><line x1="545" y1="494" x2="545" y2="499" stroke="#000000" stroke-width="1" /><text x="365" y="538" font-size="14" text-anchor="middle">Cell type</text><text x="7" y="272.5" font-size="14" text-anchor="middle" transform="rotate(-90,7,272.5)">Gene</text><text x="365" y="22" font-size="18" text-anchor="middle">Size Legend Only</text><circle cx="185" cy="134" r="11.63" fill="#440154" /><circle cx="305" cy="134" r="12" fill="#440154" /><circle cx="425" cy="134" r="2.24" fill="#440154" /><circle cx="545" cy="134" r="1.12" fill="#440154" /><circle cx="185" cy="224" r="11.26" fill="#440154" /><circle cx="305" cy="224" r="1.74" fill="#440154" /><circle cx="425" cy="224" r="1.25" fill="#440154" /><circle cx="545" cy="224" r="2.98" fill="#440154" /><circle cx="185" cy="314" r="1.37" fill="#440154" /><circle cx="305" cy="314" r="10.89" fill="#440154" /><circle cx="425" cy="314" r="2.61" fill="#440154" /><circle cx="545" cy="314" r="1" fill="#440154" /><circle cx="185" cy="404" r="1.12" fill="#440154" /><circle cx="305" cy="404" r="1" fill="#440154" /><circle cx="425" cy="404" r="1.25" fill="#440154" /><circle cx="545" cy="404" r="11.26" fill="#440154" /><rect x="670" y="34" width="80" height="92" fill="#ffffff" /><rect x="670" y="34" width="80" height="92" fill="none" stroke="#000000" stroke-width="1" /><text x="700" y="53.2" font-size="12" text-anchor="start">24.2</text><circle cx="686" cy="49" r="3" fill="#444444" /><text x="700" y="71.2" font-size="12" text-anchor="start">46.5</text><circle cx="686" cy="67" r="6" fill="#444444" /><text x="700" y="89.2" font-size="12" text-anchor="start">68.8</text><circle cx="686" cy="85" r="8" fill="#444444" /><text x="700" y="107.2" font-size="12" text-anchor="start">91.0</text><circle cx="686" cy="103" r="8" fill="#444444" /></svg>