<svg xmlns="http://www.w3.org/2000/svg" width="757.8000000000001" height="545" font-family="DejaVu Sans, Liberation Sans, Arial, sans-serif" fill="black"><rect width="100%" height="100%" fill="white" /><defs><clipPath id="kuva-clip-2"><rect x="63.800000000000004" y="44" width="600" height="450"/></clipPath></defs><line x1="63.800000000000004" y1="494" x2="663.8000000000001" y2="494" stroke="#000000" stroke-width="1" /><line x1="63.800000000000004" y1="44" x2="63.800000000000004" y2="494" stroke="#000000" stroke-width="1" /><text x="55.800000000000004" y="408.2" font-size="12" text-anchor="end">CD14</text><line x1="58.800000000000004" y1="404" x2="63.800000000000004" y2="404" stroke="#000000" stroke-width="1" /><text x="55.800000000000004" y="318.2" font-size="12" text-anchor="end">CD8A</text><line x1="58.800000000000004" y1="314" x2="63.800000000000004" y2="314" stroke="#000000" stroke-width="1" /><text x="55.800000000000004" y="228.20000000000002" font-size="12" text-anchor="end">CD4</text><line x1="58.800000000000004" y1="224" x2="63.800000000000004" y2="224" stroke="#000000" stroke-width="1" /><text x="55.800000000000004" y="138.20000000000002" font-size="12" text-anchor="end">CD3E</text><line x1="58.800000000000004" y1="134" x2="63.800000000000004" y2="134" stroke="#000000" stroke-width="1" /><text x="183.8" y="511" font-size="12" text-anchor="middle">CD4 T</text><line x1="183.8" y1="494" x2="183.8" y2="499" stroke="#000000" stroke-width="1" /><text x="303.8" y="511" font-size="12" text-anchor="middle">CD8 T</text><line x1="303.8" y1="494" x2="303.8" y2="499" stroke="#000000" stroke-width="1" /><text x="423.8" y="511" font-size="12" text-anchor="middle">NK</text><line x1="423.8" y1="494" x2="423.8" y2="499" stroke="#000000" stroke-width="1" /><text x="543.8" y="511" font-size="12" text-anchor="middle">Mono</text><line x1="543.8" y1="494" x2="543.8" y2="499" stroke="#000000" stroke-width="1" /><text x="363.8" y="538" font-size="14" text-anchor="middle">Cell type</text><text x="15" y="272.5" font-size="14" text-anchor="middle" transform="rotate(-90,15,272.5)">Gene</text><text x="363.8" y="22" font-size="18" text-anchor="middle">Size Legend Only</text><g clip-path="url(#kuva-clip-2)"><circle cx="183.8" cy="134" r="11.63" fill="#440154" /><circle cx="303.8" cy="134" r="12" fill="#440154" /><circle cx="423.8" cy="134" r="2.24" fill="#440154" /><circle cx="543.8" cy="134" r="1.12" fill="#440154" /><circle cx="183.8" cy="224" r="11.26" fill="#440154" /><circle cx="303.8" cy="224" r="1.74" fill="#440154" /><circle cx="423.8" cy="224" r="1.25" fill="#440154" /><circle cx="543.8" cy="224" r="2.98" fill="#440154" /><circle cx="183.8" cy="314" r="1.37" fill="#440154" /><circle cx="303.8" cy="314" r="10.89" fill="#440154" /><circle cx="423.8" cy="314" r="2.61" fill="#440154" /><circle cx="543.8" cy="314" r="1" fill="#440154" /><circle cx="183.8" cy="404" r="1.12" fill="#440154" /><circle cx="303.8" cy="404" r="1" fill="#440154" /><circle cx="423.8" cy="404" r="1.25" fill="#440154" /><circle cx="543.8" cy="404" r="11.26" fill="#440154" /></g><rect x="668.8000000000001" y="34" width="80" height="92" fill="#ffffff" /><rect x="668.8000000000001" y="34" width="80" height="92" fill="none" stroke="#000000" stroke-width="1" /><text x="698.8000000000001" y="53.2" font-size="12" text-anchor="start">24.2</text><circle cx="683.8000000000001" cy="49" r="3" fill="#444444" /><text x="698.8000000000001" y="71.2" font-size="12" text-anchor="start">46.5</text><circle cx="683.8000000000001" cy="67" r="6" fill="#444444" /><text x="698.8000000000001" y="89.2" font-size="12" text-anchor="start">68.8</text><circle cx="683.8000000000001" cy="85" r="8" fill="#444444" /><text x="698.8000000000001" y="107.2" font-size="12" text-anchor="start">91.0</text><circle cx="683.8000000000001" cy="103" r="8" fill="#444444" /></svg>