<svg xmlns="http://www.w3.org/2000/svg" width="741" height="595" font-family="DejaVu Sans, Liberation Sans, Arial, sans-serif" fill="black"><rect width="100%" height="100%" fill="white" /><text x="342.5" y="565.7" font-size="14" text-anchor="middle">miRNA</text><text x="11" y="294" font-size="14" text-anchor="middle" transform="rotate(-90,11,294)">Compound</text><text x="370.5" y="27.400000000000002" font-size="18" text-anchor="middle">miRNA Compound Screening</text><line x1="107" y1="529.5" x2="578" y2="529.5" stroke="#000000" stroke-width="1" /><line x1="107" y1="58.5" x2="107" y2="529.5" stroke="#000000" stroke-width="1" /><line x1="154.1" y1="529.5" x2="154.1" y2="534.5" stroke="#000000" stroke-width="1" /><text x="154.1" y="550.9" font-size="12" text-anchor="middle">miR-1</text><line x1="248.3" y1="529.5" x2="248.3" y2="534.5" stroke="#000000" stroke-width="1" /><text x="248.3" y="550.9" font-size="12" text-anchor="middle">miR-2</text><line x1="342.5" y1="529.5" x2="342.5" y2="534.5" stroke="#000000" stroke-width="1" /><text x="342.5" y="550.9" font-size="12" text-anchor="middle">miR-3</text><line x1="436.7" y1="529.5" x2="436.7" y2="534.5" stroke="#000000" stroke-width="1" /><text x="436.7" y="550.9" font-size="12" text-anchor="middle">miR-4</text><line x1="530.9" y1="529.5" x2="530.9" y2="534.5" stroke="#000000" stroke-width="1" /><text x="530.9" y="550.9" font-size="12" text-anchor="middle">miR-5</text><line x1="102" y1="105.60000000000001" x2="107" y2="105.60000000000001" stroke="#000000" stroke-width="1" /><text x="94" y="109.8" font-size="12" text-anchor="end">Control</text><line x1="102" y1="199.8" x2="107" y2="199.8" stroke="#000000" stroke-width="1" /><text x="94" y="204" font-size="12" text-anchor="end">Compound_1</text><line x1="102" y1="294" x2="107" y2="294" stroke="#000000" stroke-width="1" /><text x="94" y="298.2" font-size="12" text-anchor="end">Compound_2</text><line x1="102" y1="388.2" x2="107" y2="388.2" stroke="#000000" stroke-width="1" /><text x="94" y="392.40000000000003" font-size="12" text-anchor="end">Compound_3</text><line x1="102" y1="482.40000000000003" x2="107" y2="482.40000000000003" stroke="#000000" stroke-width="1" /><text x="94" y="486.6" font-size="12" text-anchor="end">Compound_4</text><rect x="116.42" y="162.12" width="75.36" height="75.36" fill="#ffffff" stroke="#000000" stroke-width="0.8" /><circle cx="128.98" cy="174.68" r="10.68" fill="#2166ac" /><circle cx="179.22" cy="174.68" r="10.68" fill="#cccccc" /><circle cx="128.98" cy="224.92000000000002" r="10.68" fill="#2166ac" /><rect x="116.42" y="256.32" width="75.36" height="75.36" fill="#ffffff" stroke="#000000" stroke-width="0.8" /><circle cx="128.98" cy="268.88" r="10.68" fill="#cccccc" /><circle cx="179.22" cy="319.12" r="10.68" fill="#b2182b" /><rect x="116.42" y="350.52" width="75.36" height="75.36" fill="#ffffff" stroke="#000000" stroke-width="0.8" /><circle cx="128.98" cy="363.08" r="10.68" fill="#b2182b" /><circle cx="179.22" cy="363.08" r="10.68" fill="#cccccc" /><circle cx="128.98" cy="413.32" r="10.68" fill="#b2182b" /><circle cx="179.22" cy="413.32" r="10.68" fill="#b2182b" /><rect x="116.42" y="444.72" width="75.36" height="75.36" fill="#ffffff" stroke="#000000" stroke-width="0.8" /><circle cx="128.98" cy="457.28000000000003" r="10.68" fill="#b2182b" /><circle cx="128.98" cy="507.52000000000004" r="10.68" fill="#b2182b" /><circle cx="179.22" cy="507.52000000000004" r="10.68" fill="#cccccc" /><rect x="116.42" y="67.92" width="75.36" height="75.36" fill="#ffffff" stroke="#000000" stroke-width="0.8" /><circle cx="128.98" cy="80.48" r="10.68" fill="#2166ac" /><circle cx="179.22" cy="80.48" r="10.68" fill="#2166ac" /><circle cx="128.98" cy="130.72" r="10.68" fill="#cccccc" /><circle cx="179.22" cy="130.72" r="10.68" fill="#2166ac" /><rect x="210.62" y="162.12" width="75.36" height="75.36" fill="#ffffff" stroke="#000000" stroke-width="0.8" /><circle cx="223.18" cy="174.68" r="10.68" fill="#2166ac" /><circle cx="273.42" cy="174.68" r="10.68" fill="#cccccc" /><circle cx="223.18" cy="224.92000000000002" r="10.68" fill="#2166ac" /><circle cx="273.42" cy="224.92000000000002" r="10.68" fill="#2166ac" /><rect x="210.62" y="256.32" width="75.36" height="75.36" fill="#ffffff" stroke="#000000" stroke-width="0.8" /><circle cx="223.18" cy="268.88" r="10.68" fill="#cccccc" /><circle cx="273.42" cy="268.88" r="10.68" fill="#b2182b" /><circle cx="223.18" cy="319.12" r="10.68" fill="#cccccc" /><rect x="210.62" y="350.52" width="75.36" height="75.36" fill="#ffffff" stroke="#000000" stroke-width="0.8" /><circle cx="223.18" cy="363.08" r="10.68" fill="#b2182b" /><circle cx="273.42" cy="363.08" r="10.68" fill="#cccccc" /><circle cx="223.18" cy="413.32" r="10.68" fill="#b2182b" /><circle cx="273.42" cy="413.32" r="10.68" fill="#b2182b" /><rect x="210.62" y="444.72" width="75.36" height="75.36" fill="#ffffff" stroke="#000000" stroke-width="0.8" /><circle cx="273.42" cy="457.28000000000003" r="10.68" fill="#b2182b" /><circle cx="273.42" cy="507.52000000000004" r="10.68" fill="#b2182b" /><rect x="210.62" y="67.92" width="75.36" height="75.36" fill="#ffffff" stroke="#000000" stroke-width="0.8" /><circle cx="223.18" cy="80.48" r="10.68" fill="#2166ac" /><circle cx="223.18" cy="130.72" r="10.68" fill="#2166ac" /><circle cx="273.42" cy="130.72" r="10.68" fill="#cccccc" /><rect x="304.82" y="162.12" width="75.36" height="75.36" fill="#ffffff" stroke="#000000" stroke-width="0.8" /><circle cx="317.38" cy="174.68" r="10.68" fill="#cccccc" /><circle cx="367.62" cy="174.68" r="10.68" fill="#2166ac" /><circle cx="367.62" cy="224.92000000000002" r="10.68" fill="#cccccc" /><rect x="304.82" y="256.32" width="75.36" height="75.36" fill="#ffffff" stroke="#000000" stroke-width="0.8" /><circle cx="317.38" cy="268.88" r="10.68" fill="#b2182b" /><circle cx="367.62" cy="268.88" r="10.68" fill="#cccccc" /><circle cx="317.38" cy="319.12" r="10.68" fill="#2166ac" /><circle cx="367.62" cy="319.12" r="10.68" fill="#cccccc" /><rect x="304.82" y="350.52" width="75.36" height="75.36" fill="#ffffff" stroke="#000000" stroke-width="0.8" /><circle cx="317.38" cy="363.08" r="10.68" fill="#b2182b" /><circle cx="367.62" cy="363.08" r="10.68" fill="#b2182b" /><circle cx="317.38" cy="413.32" r="10.68" fill="#cccccc" /><rect x="304.82" y="444.72" width="75.36" height="75.36" fill="#ffffff" stroke="#000000" stroke-width="0.8" /><circle cx="317.38" cy="457.28000000000003" r="10.68" fill="#b2182b" /><circle cx="367.62" cy="457.28000000000003" r="10.68" fill="#b2182b" /><circle cx="317.38" cy="507.52000000000004" r="10.68" fill="#b2182b" /><circle cx="367.62" cy="507.52000000000004" r="10.68" fill="#cccccc" /><rect x="304.82" y="67.92" width="75.36" height="75.36" fill="#ffffff" stroke="#000000" stroke-width="0.8" /><circle cx="317.38" cy="80.48" r="10.68" fill="#2166ac" /><circle cx="367.62" cy="80.48" r="10.68" fill="#2166ac" /><circle cx="317.38" cy="130.72" r="10.68" fill="#cccccc" /><circle cx="367.62" cy="130.72" r="10.68" fill="#2166ac" /><rect x="399.02" y="162.12" width="75.36" height="75.36" fill="#ffffff" stroke="#000000" stroke-width="0.8" /><circle cx="411.58" cy="174.68" r="10.68" fill="#2166ac" /><circle cx="461.82" cy="174.68" r="10.68" fill="#cccccc" /><circle cx="411.58" cy="224.92000000000002" r="10.68" fill="#2166ac" /><circle cx="461.82" cy="224.92000000000002" r="10.68" fill="#cccccc" /><rect x="399.02" y="256.32" width="75.36" height="75.36" fill="#ffffff" stroke="#000000" stroke-width="0.8" /><circle cx="411.58" cy="268.88" r="10.68" fill="#cccccc" /><circle cx="461.82" cy="268.88" r="10.68" fill="#cccccc" /><circle cx="411.58" cy="319.12" r="10.68" fill="#b2182b" /><rect x="399.02" y="350.52" width="75.36" height="75.36" fill="#ffffff" stroke="#000000" stroke-width="0.8" /><circle cx="411.58" cy="363.08" r="10.68" fill="#cccccc" /><circle cx="461.82" cy="363.08" r="10.68" fill="#b2182b" /><circle cx="461.82" cy="413.32" r="10.68" fill="#b2182b" /><rect x="399.02" y="444.72" width="75.36" height="75.36" fill="#ffffff" stroke="#000000" stroke-width="0.8" /><circle cx="411.58" cy="457.28000000000003" r="10.68" fill="#b2182b" /><circle cx="461.82" cy="457.28000000000003" r="10.68" fill="#b2182b" /><circle cx="411.58" cy="507.52000000000004" r="10.68" fill="#b2182b" /><circle cx="461.82" cy="507.52000000000004" r="10.68" fill="#b2182b" /><rect x="399.02" y="67.92" width="75.36" height="75.36" fill="#ffffff" stroke="#000000" stroke-width="0.8" /><circle cx="461.82" cy="80.48" r="10.68" fill="#2166ac" /><circle cx="411.58" cy="130.72" r="10.68" fill="#2166ac" /><circle cx="461.82" cy="130.72" r="10.68" fill="#2166ac" /><rect x="493.22" y="162.12" width="75.36" height="75.36" fill="#ffffff" stroke="#000000" stroke-width="0.8" /><circle cx="505.78000000000003" cy="174.68" r="10.68" fill="#cccccc" /><circle cx="505.78000000000003" cy="224.92000000000002" r="10.68" fill="#2166ac" /><circle cx="556.02" cy="224.92000000000002" r="10.68" fill="#2166ac" /><rect x="493.22" y="256.32" width="75.36" height="75.36" fill="#ffffff" stroke="#000000" stroke-width="0.8" /><circle cx="505.78000000000003" cy="268.88" r="10.68" fill="#cccccc" /><circle cx="556.02" cy="268.88" r="10.68" fill="#b2182b" /><circle cx="505.78000000000003" cy="319.12" r="10.68" fill="#cccccc" /><circle cx="556.02" cy="319.12" r="10.68" fill="#cccccc" /><rect x="493.22" y="350.52" width="75.36" height="75.36" fill="#ffffff" stroke="#000000" stroke-width="0.8" /><circle cx="505.78000000000003" cy="363.08" r="10.68" fill="#b2182b" /><circle cx="556.02" cy="363.08" r="10.68" fill="#b2182b" /><circle cx="505.78000000000003" cy="413.32" r="10.68" fill="#cccccc" /><circle cx="556.02" cy="413.32" r="10.68" fill="#b2182b" /><rect x="493.22" y="444.72" width="75.36" height="75.36" fill="#ffffff" stroke="#000000" stroke-width="0.8" /><circle cx="556.02" cy="457.28000000000003" r="10.68" fill="#b2182b" /><circle cx="505.78000000000003" cy="507.52000000000004" r="10.68" fill="#b2182b" /><circle cx="556.02" cy="507.52000000000004" r="10.68" fill="#b2182b" /><rect x="493.22" y="67.92" width="75.36" height="75.36" fill="#ffffff" stroke="#000000" stroke-width="0.8" /><circle cx="505.78000000000003" cy="80.48" r="10.68" fill="#2166ac" /><circle cx="556.02" cy="80.48" r="10.68" fill="#cccccc" /><circle cx="556.02" cy="130.72" r="10.68" fill="#2166ac" /><rect x="583" y="34" width="149" height="136" fill="#ffffff" /><rect x="583" y="34" width="149" height="136" fill="none" stroke="#000000" stroke-width="1" /><text x="652.5" y="54.2" font-size="12" text-anchor="middle" font-weight="bold">Organ</text><rect x="588" y="64" width="129" height="96" fill="#ffffff" stroke="#000000" stroke-width="0.8" /><line x1="631" y1="64" x2="631" y2="160" stroke="#000000" stroke-width="0.4" stroke-dasharray="3,3" /><line x1="588" y1="96" x2="717" y2="96" stroke="#000000" stroke-width="0.4" stroke-dasharray="3,3" /><line x1="674" y1="64" x2="674" y2="160" stroke="#000000" stroke-width="0.4" stroke-dasharray="3,3" /><line x1="588" y1="128" x2="717" y2="128" stroke="#000000" stroke-width="0.4" stroke-dasharray="3,3" /><circle cx="609.5" cy="73" r="4.5" fill="#000000" /><text x="609.5" y="93.2" font-size="11" text-anchor="middle">Lung</text><circle cx="609.5" cy="137" r="4.5" fill="#000000" /><text x="609.5" y="157.20000000000002" font-size="11" text-anchor="middle">Liver</text><circle cx="695.5" cy="73" r="4.5" fill="#000000" /><text x="695.5" y="93.2" font-size="11" text-anchor="middle">Brain</text><circle cx="695.5" cy="137" r="4.5" fill="#000000" /><text x="695.5" y="157.20000000000002" font-size="11" text-anchor="middle">Kidney</text><rect x="583" y="178" width="149" height="74" fill="#ffffff" /><rect x="583" y="178" width="149" height="74" fill="none" stroke="#000000" stroke-width="1" /><circle cx="593" cy="195" r="5" fill="#2166ac" /><text x="606" y="197.6" font-size="12" text-anchor="start">Down</text><circle cx="593" cy="213" r="5" fill="#cccccc" /><text x="606" y="215.6" font-size="12" text-anchor="start">Unchanged</text><circle cx="593" cy="231" r="5" fill="#b2182b" /><text x="606" y="233.6" font-size="12" text-anchor="start">Up</text></svg>