<svg xmlns="http://www.w3.org/2000/svg" width="1042" height="335" font-family="DejaVu Sans, Liberation Sans, Arial, sans-serif" fill="black"><rect width="100%" height="100%" fill="white" /><text x="375.85" y="299.42" font-size="14" text-anchor="middle">Taxon</text><text x="11" y="164" font-size="14" text-anchor="middle" transform="rotate(-90,11,164)">Specimen</text><text x="521" y="27.400000000000002" font-size="18" text-anchor="middle">Oral Microbiome: Taxa vs Specimen</text><line x1="78.2" y1="263.22" x2="673.5" y2="263.22" stroke="#000000" stroke-width="1" /><line x1="78.2" y1="64.78" x2="78.2" y2="263.22" stroke="#000000" stroke-width="1" /><line x1="127.81" y1="263.22" x2="127.81" y2="268.22" stroke="#000000" stroke-width="1" /><text x="127.81" y="284.62" font-size="12" text-anchor="middle">C. showae</text><line x1="227.02" y1="263.22" x2="227.02" y2="268.22" stroke="#000000" stroke-width="1" /><text x="227.02" y="284.62" font-size="12" text-anchor="middle">P. gingivalis</text><line x1="326.24" y1="263.22" x2="326.24" y2="268.22" stroke="#000000" stroke-width="1" /><text x="326.24" y="284.62" font-size="12" text-anchor="middle">R. mucilaginosa</text><line x1="425.46000000000004" y1="263.22" x2="425.46000000000004" y2="268.22" stroke="#000000" stroke-width="1" /><text x="425.46000000000004" y="284.62" font-size="12" text-anchor="middle">F. nucleatum</text><line x1="524.67" y1="263.22" x2="524.67" y2="268.22" stroke="#000000" stroke-width="1" /><text x="524.67" y="284.62" font-size="12" text-anchor="middle">S. mutans</text><line x1="623.89" y1="263.22" x2="623.89" y2="268.22" stroke="#000000" stroke-width="1" /><text x="623.89" y="284.62" font-size="12" text-anchor="middle">P. intermedia</text><line x1="73.2" y1="114.39" x2="78.2" y2="114.39" stroke="#000000" stroke-width="1" /><text x="65.2" y="118.59" font-size="12" text-anchor="end">Saliva</text><line x1="73.2" y1="213.61" x2="78.2" y2="213.61" stroke="#000000" stroke-width="1" /><text x="65.2" y="217.81" font-size="12" text-anchor="end">Plaque</text><rect x="88.12" y="173.92000000000002" width="79.37" height="79.37" fill="#ffffff" stroke="#000000" stroke-width="0.8" /><circle cx="101.35000000000001" cy="187.15" r="5.19" fill="#9db7a7" /><circle cx="154.27" cy="187.15" r="10.01" fill="#571e60" /><circle cx="101.35000000000001" cy="240.07" r="3.35" fill="#d0c1d3" /><circle cx="154.27" cy="240.07" r="5.83" fill="#e8eeeb" /><rect x="88.12" y="74.71000000000001" width="79.37" height="79.37" fill="#ffffff" stroke="#000000" stroke-width="0.8" /><circle cx="101.35000000000001" cy="87.93" r="9.73" fill="#2a6341" /><circle cx="154.27" cy="87.93" r="4.28" fill="#bda7c1" /><circle cx="101.35000000000001" cy="140.85" r="5.5200000000000005" fill="#dde6e1" /><circle cx="154.27" cy="140.85" r="7.72" fill="#76487e" /><rect x="385.77" y="173.92000000000002" width="79.37" height="79.37" fill="#ffffff" stroke="#000000" stroke-width="0.8" /><circle cx="399" cy="187.15" r="9.39" fill="#548266" /><circle cx="451.92" cy="187.15" r="4.51" fill="#eff3f0" /><circle cx="399" cy="240.07" r="7.38" fill="#7f5486" /><circle cx="451.92" cy="240.07" r="6.45" fill="#b8cbbf" /><rect x="385.77" y="74.71000000000001" width="79.37" height="79.37" fill="#ffffff" stroke="#000000" stroke-width="0.8" /><circle cx="399" cy="87.93" r="8.15" fill="#729781" /><circle cx="451.92" cy="87.93" r="3.8200000000000003" fill="#c7b5cb" /><circle cx="399" cy="140.85" r="10.32" fill="#602a69" /><circle cx="451.92" cy="140.85" r="3.58" fill="#fdfdfd" /><rect x="187.34" y="173.92000000000002" width="79.37" height="79.37" fill="#ffffff" stroke="#000000" stroke-width="0.8" /><circle cx="200.57" cy="187.15" r="4.75" fill="#d2ded7" /><circle cx="253.48000000000002" cy="187.15" r="8.8" fill="#336948" /><circle cx="200.57" cy="240.07" r="7.99" fill="#65326e" /><circle cx="253.48000000000002" cy="240.07" r="2.89" fill="#f1edf2" /><rect x="187.34" y="74.71000000000001" width="79.37" height="79.37" fill="#ffffff" stroke="#000000" stroke-width="0.8" /><circle cx="200.57" cy="87.93" r="7.140000000000001" fill="#875f8e" /><circle cx="253.48000000000002" cy="87.93" r="11.09" fill="#00441b" /><circle cx="200.57" cy="140.85" r="3.0700000000000003" fill="#dbcfdd" /><circle cx="253.48000000000002" cy="140.85" r="6.74" fill="#6a9179" /><rect x="584.2" y="173.92000000000002" width="79.37" height="79.37" fill="#ffffff" stroke="#000000" stroke-width="0.8" /><circle cx="597.4300000000001" cy="187.15" r="5.36" fill="#baa3be" /><circle cx="650.35" cy="187.15" r="4.9" fill="#c5d4cb" /><circle cx="597.4300000000001" cy="240.07" r="8.38" fill="#875e8e" /><circle cx="650.35" cy="240.07" r="8.69" fill="#86a693" /><rect x="584.2" y="74.71000000000001" width="79.37" height="79.37" fill="#ffffff" stroke="#000000" stroke-width="0.8" /><circle cx="597.4300000000001" cy="87.93" r="7.3" fill="#afc4b8" /><circle cx="650.35" cy="87.93" r="9.08" fill="#704078" /><circle cx="597.4300000000001" cy="140.85" r="4.59" fill="#e4ebe6" /><circle cx="650.35" cy="140.85" r="11.24" fill="#3e7152" /><rect x="286.55" y="173.92000000000002" width="79.37" height="79.37" fill="#ffffff" stroke="#000000" stroke-width="0.8" /><circle cx="299.78000000000003" cy="187.15" r="3.2" fill="#e1d7e3" /><circle cx="352.7" cy="187.15" r="6.22" fill="#7c9f8a" /><circle cx="299.78000000000003" cy="240.07" r="4.13" fill="#f9fafa" /><circle cx="352.7" cy="240.07" r="9.23" fill="#97759d" /><rect x="286.55" y="74.71000000000001" width="79.37" height="79.37" fill="#ffffff" stroke="#000000" stroke-width="0.8" /><circle cx="299.78000000000003" cy="87.93" r="5.44" fill="#c3d3c9" /><circle cx="352.7" cy="87.93" r="8.61" fill="#490d54" /><circle cx="299.78000000000003" cy="140.85" r="4.96" fill="#92af9d" /><circle cx="352.7" cy="140.85" r="6.91" fill="#b399b7" /><rect x="484.99" y="173.92000000000002" width="79.37" height="79.37" fill="#ffffff" stroke="#000000" stroke-width="0.8" /><circle cx="498.22" cy="187.15" r="4.05" fill="#dee7e1" /><circle cx="551.13" cy="187.15" r="10.78" fill="#40004b" /><circle cx="498.22" cy="240.07" r="5.67" fill="#a7beb0" /><circle cx="551.13" cy="240.07" r="2.81" fill="#e8e1e9" /><rect x="484.99" y="74.71000000000001" width="79.37" height="79.37" fill="#ffffff" stroke="#000000" stroke-width="0.8" /><circle cx="498.22" cy="87.93" r="5.98" fill="#ae93b3" /><circle cx="551.13" cy="87.93" r="9.85" fill="#628c73" /><circle cx="498.22" cy="140.85" r="3.12" fill="#f8f5f8" /><circle cx="551.13" cy="140.85" r="7.84" fill="#8e6995" /><rect x="678.5" y="34" width="264.5" height="136" fill="#ffffff" /><rect x="678.5" y="34" width="264.5" height="136" fill="none" stroke="#000000" stroke-width="1" /><text x="805.75" y="54.2" font-size="12" text-anchor="middle" font-weight="bold">Disease</text><rect x="683.5" y="64" width="244.5" height="96" fill="#ffffff" stroke="#000000" stroke-width="0.8" /><line x1="765" y1="64" x2="765" y2="160" stroke="#000000" stroke-width="0.4" stroke-dasharray="3,3" /><line x1="683.5" y1="96" x2="928" y2="96" stroke="#000000" stroke-width="0.4" stroke-dasharray="3,3" /><line x1="846.5" y1="64" x2="846.5" y2="160" stroke="#000000" stroke-width="0.4" stroke-dasharray="3,3" /><line x1="683.5" y1="128" x2="928" y2="128" stroke="#000000" stroke-width="0.4" stroke-dasharray="3,3" /><circle cx="724.25" cy="73" r="4.5" fill="#000000" /><text x="724.25" y="93.2" font-size="11" text-anchor="middle">Caries</text><circle cx="724.25" cy="137" r="4.5" fill="#000000" /><text x="724.25" y="157.20000000000002" font-size="11" text-anchor="middle">Periodontitis</text><circle cx="887.25" cy="73" r="4.5" fill="#000000" /><text x="887.25" y="93.2" font-size="11" text-anchor="middle">Healthy</text><circle cx="887.25" cy="137" r="4.5" fill="#000000" /><text x="887.25" y="157.20000000000002" font-size="11" text-anchor="middle">Gingivitis</text><rect x="678.5" y="178" width="264.5" height="92" fill="#ffffff" /><rect x="678.5" y="178" width="264.5" height="92" fill="none" stroke="#000000" stroke-width="1" /><text x="805.75" y="197.6" font-size="12" text-anchor="middle" font-weight="bold">q-value</text><circle cx="698.5" cy="213" r="4.92" fill="#444444" /><text x="712.5" y="217" font-size="12" text-anchor="start">1.7</text><circle cx="698.5" cy="231" r="7.03" fill="#444444" /><text x="712.5" y="235" font-size="12" text-anchor="start">3.1</text><circle cx="698.5" cy="249" r="8" fill="#444444" /><text x="712.5" y="253" font-size="12" text-anchor="start">5.8</text><rect x="977" y="52" width="20" height="5.76" fill="#00441b" /><rect x="977" y="57.26" width="20" height="5.76" fill="#0a4b24" /><rect x="977" y="62.52" width="20" height="5.76" fill="#14532d" /><rect x="977" y="67.78" width="20" height="5.76" fill="#1f5a36" /><rect x="977" y="73.04" width="20" height="5.76" fill="#296240" /><rect x="977" y="78.3" width="20" height="5.76" fill="#346a49" /><rect x="977" y="83.56" width="20" height="5.76" fill="#3e7152" /><rect x="977" y="88.82000000000001" width="20" height="5.76" fill="#48795c" /><rect x="977" y="94.08" width="20" height="5.76" fill="#538165" /><rect x="977" y="99.34" width="20" height="5.76" fill="#5d886e" /><rect x="977" y="104.60000000000001" width="20" height="5.76" fill="#689078" /><rect x="977" y="109.86" width="20" height="5.76" fill="#729781" /><rect x="977" y="115.12" width="20" height="5.76" fill="#7c9f8a" /><rect x="977" y="120.38" width="20" height="5.76" fill="#87a793" /><rect x="977" y="125.64" width="20" height="5.76" fill="#91ae9d" /><rect x="977" y="130.9" width="20" height="5.76" fill="#9cb6a6" /><rect x="977" y="136.16" width="20" height="5.76" fill="#a6beaf" /><rect x="977" y="141.42000000000002" width="20" height="5.76" fill="#b0c5b9" /><rect x="977" y="146.68" width="20" height="5.76" fill="#bbcdc2" /><rect x="977" y="151.94" width="20" height="5.76" fill="#c5d5cb" /><rect x="977" y="157.20000000000002" width="20" height="5.76" fill="#d0dcd5" /><rect x="977" y="162.46" width="20" height="5.76" fill="#dae4de" /><rect x="977" y="167.72" width="20" height="5.76" fill="#e4ebe7" /><rect x="977" y="172.98" width="20" height="5.76" fill="#eff3f1" /><rect x="977" y="178.24" width="20" height="5.76" fill="#f9fbfa" /><rect x="977" y="183.5" width="20" height="5.76" fill="#fbf9fb" /><rect x="977" y="188.76" width="20" height="5.76" fill="#f3eff3" /><rect x="977" y="194.02" width="20" height="5.76" fill="#ebe4ec" /><rect x="977" y="199.28" width="20" height="5.76" fill="#e3dae5" /><rect x="977" y="204.54" width="20" height="5.76" fill="#dbd0dd" /><rect x="977" y="209.8" width="20" height="5.76" fill="#d4c5d6" /><rect x="977" y="215.06" width="20" height="5.76" fill="#ccbbcf" /><rect x="977" y="220.32" width="20" height="5.76" fill="#c4b0c7" /><rect x="977" y="225.58" width="20" height="5.76" fill="#bca6c0" /><rect x="977" y="230.84" width="20" height="5.76" fill="#b49cb9" /><rect x="977" y="236.1" width="20" height="5.76" fill="#ad91b1" /><rect x="977" y="241.36" width="20" height="5.76" fill="#a587aa" /><rect x="977" y="246.62" width="20" height="5.76" fill="#9d7ca3" /><rect x="977" y="251.88" width="20" height="5.76" fill="#95729b" /><rect x="977" y="257.14" width="20" height="5.76" fill="#8d6894" /><rect x="977" y="262.4" width="20" height="5.76" fill="#865d8d" /><rect x="977" y="267.66" width="20" height="5.76" fill="#7e5385" /><rect x="977" y="272.92" width="20" height="5.76" fill="#76487e" /><rect x="977" y="278.18" width="20" height="5.76" fill="#6e3e77" /><rect x="977" y="283.44" width="20" height="5.76" fill="#66346f" /><rect x="977" y="288.7" width="20" height="5.76" fill="#5f2968" /><rect x="977" y="293.96" width="20" height="5.76" fill="#571f61" /><rect x="977" y="299.22" width="20" height="5.76" fill="#4f1459" /><rect x="977" y="304.48" width="20" height="5.76" fill="#470a52" /><rect x="977" y="309.74" width="20" height="5.76" fill="#40004b" /><rect x="977" y="52" width="20" height="263" fill="none" stroke="#000000" stroke-width="1" /><line x1="997" y1="292.44" x2="1001" y2="292.44" stroke="#000000" stroke-width="1" /><text x="1002" y="296.44" font-size="12" text-anchor="start">-2</text><line x1="997" y1="244.45000000000002" x2="1001" y2="244.45000000000002" stroke="#000000" stroke-width="1" /><text x="1002" y="248.45000000000002" font-size="12" text-anchor="start">-1</text><line x1="997" y1="196.46" x2="1001" y2="196.46" stroke="#000000" stroke-width="1" /><text x="1002" y="200.46" font-size="12" text-anchor="start">0</text><line x1="997" y1="148.47" x2="1001" y2="148.47" stroke="#000000" stroke-width="1" /><text x="1002" y="152.47" font-size="12" text-anchor="start">1</text><line x1="997" y1="100.47" x2="1001" y2="100.47" stroke="#000000" stroke-width="1" /><text x="1002" y="104.47" font-size="12" text-anchor="start">2</text><line x1="997" y1="52.480000000000004" x2="1001" y2="52.480000000000004" stroke="#000000" stroke-width="1" /><text x="1002" y="56.480000000000004" font-size="12" text-anchor="start">3</text><text x="967" y="183.5" font-size="12" text-anchor="middle" transform="rotate(-90,967,183.5)">Log2FC</text></svg>