<svg xmlns="http://www.w3.org/2000/svg" width="1319" height="595" font-family="DejaVu Sans, Liberation Sans, Arial, sans-serif" fill="black"><rect width="100%" height="100%" fill="white" /><text x="595" y="580.2" font-size="14" text-anchor="middle">Gene</text><text x="11" y="294" font-size="14" text-anchor="middle" transform="rotate(-90,11,294)">Cell Type</text><text x="659.5" y="27.400000000000002" font-size="18" text-anchor="middle">ZEBRA Sex DEGs Domino Plot</text><line x1="145" y1="544" x2="1045" y2="544" stroke="#000000" stroke-width="1" /><line x1="145" y1="44" x2="145" y2="544" stroke="#000000" stroke-width="1" /><line x1="195" y1="544" x2="195" y2="549" stroke="#000000" stroke-width="1" /><text x="195" y="565.4" font-size="12" text-anchor="middle">SPP1</text><line x1="295" y1="544" x2="295" y2="549" stroke="#000000" stroke-width="1" /><text x="295" y="565.4" font-size="12" text-anchor="middle">APOE</text><line x1="395" y1="544" x2="395" y2="549" stroke="#000000" stroke-width="1" /><text x="395" y="565.4" font-size="12" text-anchor="middle">SERPINA1</text><line x1="495" y1="544" x2="495" y2="549" stroke="#000000" stroke-width="1" /><text x="495" y="565.4" font-size="12" text-anchor="middle">PINK1</text><line x1="595" y1="544" x2="595" y2="549" stroke="#000000" stroke-width="1" /><text x="595" y="565.4" font-size="12" text-anchor="middle">ANGPT1</text><line x1="695" y1="544" x2="695" y2="549" stroke="#000000" stroke-width="1" /><text x="695" y="565.4" font-size="12" text-anchor="middle">ANGPT2</text><line x1="795" y1="544" x2="795" y2="549" stroke="#000000" stroke-width="1" /><text x="795" y="565.4" font-size="12" text-anchor="middle">APP</text><line x1="895" y1="544" x2="895" y2="549" stroke="#000000" stroke-width="1" /><text x="895" y="565.4" font-size="12" text-anchor="middle">CLU</text><line x1="995" y1="544" x2="995" y2="549" stroke="#000000" stroke-width="1" /><text x="995" y="565.4" font-size="12" text-anchor="middle">ABCA7</text><line x1="140" y1="94" x2="145" y2="94" stroke="#000000" stroke-width="1" /><text x="132" y="98.2" font-size="12" text-anchor="end">Astrocyte</text><line x1="140" y1="194" x2="145" y2="194" stroke="#000000" stroke-width="1" /><text x="132" y="198.20000000000002" font-size="12" text-anchor="end">Endothelial</text><line x1="140" y1="294" x2="145" y2="294" stroke="#000000" stroke-width="1" /><text x="132" y="298.2" font-size="12" text-anchor="end">Microglia</text><line x1="140" y1="394" x2="145" y2="394" stroke="#000000" stroke-width="1" /><text x="132" y="398.2" font-size="12" text-anchor="end">Neuron</text><line x1="140" y1="494" x2="145" y2="494" stroke="#000000" stroke-width="1" /><text x="132" y="498.2" font-size="12" text-anchor="end">Oligodendrocyte</text><rect x="955" y="54" width="80" height="80" fill="#ffffff" stroke="#000000" stroke-width="0.8" /><circle cx="968.33" cy="67.33" r="4.12" fill="#c4d3ca" /><circle cx="995" cy="94" r="3.45" fill="#89a895" /><circle cx="968.33" cy="120.67" r="3.21" fill="#6b937b" /><circle cx="1021.6700000000001" cy="120.67" r="3.0100000000000002" fill="#4e7d61" /><rect x="955" y="154" width="80" height="80" fill="#ffffff" stroke="#000000" stroke-width="0.8" /><circle cx="1021.6700000000001" cy="167.33" r="3.66" fill="#93af9e" /><circle cx="995" cy="194" r="3.39" fill="#759a84" /><circle cx="968.33" cy="220.67000000000002" r="3.16" fill="#588469" /><circle cx="1021.6700000000001" cy="220.67000000000002" r="2.96" fill="#3a6f4f" /><rect x="955" y="254" width="80" height="80" fill="#ffffff" stroke="#000000" stroke-width="0.8" /><circle cx="968.33" cy="267.33" r="3.92" fill="#9cb7a7" /><circle cx="1021.6700000000001" cy="267.33" r="3.59" fill="#7fa18d" /><circle cx="995" cy="294" r="3.33" fill="#628b72" /><circle cx="968.33" cy="320.67" r="3.11" fill="#447658" /><rect x="955" y="354" width="80" height="80" fill="#ffffff" stroke="#000000" stroke-width="0.8" /><circle cx="968.33" cy="367.33" r="3.83" fill="#89a895" /><circle cx="1021.6700000000001" cy="367.33" r="3.52" fill="#6b937b" /><circle cx="995" cy="394" r="3.27" fill="#4e7d61" /><circle cx="1021.6700000000001" cy="420.67" r="2.88" fill="#13522c" /><rect x="955" y="454" width="80" height="80" fill="#ffffff" stroke="#000000" stroke-width="0.8" /><circle cx="968.33" cy="467.33" r="3.74" fill="#759a84" /><circle cx="1021.6700000000001" cy="467.33" r="3.45" fill="#588469" /><circle cx="968.33" cy="520.67" r="3.0100000000000002" fill="#1d5935" /><circle cx="1021.6700000000001" cy="520.67" r="2.83" fill="#00441b" /><rect x="555" y="54" width="80" height="80" fill="#ffffff" stroke="#000000" stroke-width="0.8" /><circle cx="568.33" cy="67.33" r="5.03" fill="#b59cb9" /><circle cx="621.67" cy="67.33" r="4.36" fill="#cbbace" /><circle cx="568.33" cy="120.67" r="3.59" fill="#f7f5f8" /><circle cx="621.67" cy="120.67" r="3.33" fill="#ebf0ed" /><rect x="555" y="154" width="80" height="80" fill="#ffffff" stroke="#000000" stroke-width="0.8" /><circle cx="568.33" cy="167.33" r="4.82" fill="#c4b0c7" /><circle cx="595" cy="194" r="3.83" fill="#f0ebf1" /><circle cx="568.33" cy="220.67000000000002" r="3.52" fill="#f5f7f6" /><rect x="555" y="254" width="80" height="80" fill="#ffffff" stroke="#000000" stroke-width="0.8" /><circle cx="621.67" cy="267.33" r="4.12" fill="#e8e1ea" /><circle cx="595" cy="294" r="3.74" fill="#ffffff" /><circle cx="621.67" cy="320.67" r="3.21" fill="#c4d3ca" /><rect x="555" y="354" width="80" height="80" fill="#ffffff" stroke="#000000" stroke-width="0.8" /><circle cx="568.33" cy="367.33" r="4.5" fill="#e1d7e3" /><circle cx="621.67" cy="367.33" r="4.0200000000000005" fill="#f7f5f8" /><circle cx="568.33" cy="420.67" r="3.39" fill="#cddbd3" /><circle cx="621.67" cy="420.67" r="3.16" fill="#b0c5b8" /><rect x="555" y="454" width="80" height="80" fill="#ffffff" stroke="#000000" stroke-width="0.8" /><circle cx="568.33" cy="467.33" r="4.36" fill="#f0ebf1" /><circle cx="595" cy="494" r="3.59" fill="#d7e2db" /><circle cx="568.33" cy="520.67" r="3.33" fill="#baccc1" /><circle cx="621.67" cy="520.67" r="3.11" fill="#9cb7a7" /><rect x="655" y="54" width="80" height="80" fill="#ffffff" stroke="#000000" stroke-width="0.8" /><circle cx="668.33" cy="67.33" r="4.73" fill="#d2c4d5" /><circle cx="695" cy="94" r="3.7800000000000002" fill="#ffffff" /><circle cx="668.33" cy="120.67" r="3.48" fill="#e1e9e4" /><rect x="655" y="154" width="80" height="80" fill="#ffffff" stroke="#000000" stroke-width="0.8" /><circle cx="721.67" cy="167.33" r="4.07" fill="#f7f5f8" /><circle cx="695" cy="194" r="3.7" fill="#ebf0ed" /><circle cx="721.67" cy="220.67000000000002" r="3.18" fill="#b0c5b8" /><rect x="655" y="254" width="80" height="80" fill="#ffffff" stroke="#000000" stroke-width="0.8" /><circle cx="668.33" cy="267.33" r="4.43" fill="#f0ebf1" /><circle cx="721.67" cy="267.33" r="3.97" fill="#f5f7f6" /><circle cx="668.33" cy="320.67" r="3.36" fill="#baccc1" /><circle cx="721.67" cy="320.67" r="3.13" fill="#9cb7a7" /><rect x="655" y="354" width="80" height="80" fill="#ffffff" stroke="#000000" stroke-width="0.8" /><circle cx="668.33" cy="367.33" r="4.29" fill="#ffffff" /><circle cx="695" cy="394" r="3.5500000000000003" fill="#c4d3ca" /><circle cx="668.33" cy="420.67" r="3.3000000000000003" fill="#a6beb0" /><circle cx="721.67" cy="420.67" r="3.08" fill="#89a895" /><rect x="655" y="454" width="80" height="80" fill="#ffffff" stroke="#000000" stroke-width="0.8" /><circle cx="721.67" cy="467.33" r="3.7800000000000002" fill="#cddbd3" /><circle cx="695" cy="494" r="3.48" fill="#b0c5b8" /><circle cx="668.33" cy="520.67" r="3.24" fill="#93af9e" /><circle cx="721.67" cy="520.67" r="3.0300000000000002" fill="#759a84" /><rect x="255" y="54" width="80" height="80" fill="#ffffff" stroke="#000000" stroke-width="0.8" /><circle cx="268.33" cy="67.33" r="6.82" fill="#5d2766" /><circle cx="321.67" cy="67.33" r="5.14" fill="#73447b" /><circle cx="268.33" cy="120.67" r="3.97" fill="#9f7fa5" /><circle cx="321.67" cy="120.67" r="3.63" fill="#b59cb9" /><rect x="255" y="154" width="80" height="80" fill="#ffffff" stroke="#000000" stroke-width="0.8" /><circle cx="268.33" cy="167.33" r="6.16" fill="#6c3a74" /><circle cx="295" cy="194" r="4.29" fill="#98759e" /><circle cx="268.33" cy="220.67000000000002" r="3.87" fill="#ae93b2" /><rect x="255" y="254" width="80" height="80" fill="#ffffff" stroke="#000000" stroke-width="0.8" /><circle cx="321.67" cy="267.33" r="4.73" fill="#906b97" /><circle cx="295" cy="294" r="4.18" fill="#a689ab" /><circle cx="321.67" cy="320.67" r="3.48" fill="#d2c4d5" /><rect x="255" y="354" width="80" height="80" fill="#ffffff" stroke="#000000" stroke-width="0.8" /><circle cx="268.33" cy="367.33" r="5.4" fill="#896290" /><circle cx="321.67" cy="367.33" r="4.57" fill="#9f7fa5" /><circle cx="268.33" cy="420.67" r="3.7" fill="#cbbace" /><circle cx="321.67" cy="420.67" r="3.42" fill="#e1d7e3" /><rect x="255" y="454" width="80" height="80" fill="#ffffff" stroke="#000000" stroke-width="0.8" /><circle cx="268.33" cy="467.33" r="5.14" fill="#98759e" /><circle cx="295" cy="494" r="3.97" fill="#c4b0c7" /><circle cx="268.33" cy="520.67" r="3.63" fill="#dacddc" /><rect x="755" y="54" width="80" height="80" fill="#ffffff" stroke="#000000" stroke-width="0.8" /><circle cx="821.6700000000001" cy="67.33" r="4.0200000000000005" fill="#f5f7f6" /><circle cx="795" cy="94" r="3.66" fill="#d7e2db" /><circle cx="821.6700000000001" cy="120.67" r="3.16" fill="#9cb7a7" /><rect x="755" y="154" width="80" height="80" fill="#ffffff" stroke="#000000" stroke-width="0.8" /><circle cx="768.33" cy="167.33" r="4.36" fill="#ffffff" /><circle cx="821.6700000000001" cy="167.33" r="3.92" fill="#e1e9e4" /><circle cx="768.33" cy="220.67000000000002" r="3.33" fill="#a6beb0" /><circle cx="821.6700000000001" cy="220.67000000000002" r="3.11" fill="#89a895" /><rect x="755" y="254" width="80" height="80" fill="#ffffff" stroke="#000000" stroke-width="0.8" /><circle cx="768.33" cy="267.33" r="4.23" fill="#ebf0ed" /><circle cx="795" cy="294" r="3.52" fill="#b0c5b8" /><circle cx="768.33" cy="320.67" r="3.27" fill="#93af9e" /><circle cx="821.6700000000001" cy="320.67" r="3.06" fill="#759a84" /><rect x="755" y="354" width="80" height="80" fill="#ffffff" stroke="#000000" stroke-width="0.8" /><circle cx="821.6700000000001" cy="367.33" r="3.74" fill="#baccc1" /><circle cx="795" cy="394" r="3.45" fill="#9cb7a7" /><circle cx="768.33" cy="420.67" r="3.21" fill="#7fa18d" /><circle cx="821.6700000000001" cy="420.67" r="3.0100000000000002" fill="#628b72" /><rect x="755" y="454" width="80" height="80" fill="#ffffff" stroke="#000000" stroke-width="0.8" /><circle cx="768.33" cy="467.33" r="4.0200000000000005" fill="#c4d3ca" /><circle cx="821.6700000000001" cy="467.33" r="3.66" fill="#a6beb0" /><circle cx="795" cy="494" r="3.39" fill="#89a895" /><circle cx="768.33" cy="520.67" r="3.16" fill="#6b937b" /><rect x="855" y="54" width="80" height="80" fill="#ffffff" stroke="#000000" stroke-width="0.8" /><circle cx="868.33" cy="67.33" r="4.29" fill="#ebf0ed" /><circle cx="921.6700000000001" cy="67.33" r="3.87" fill="#cddbd3" /><circle cx="868.33" cy="120.67" r="3.3000000000000003" fill="#93af9e" /><circle cx="921.6700000000001" cy="120.67" r="3.08" fill="#759a84" /><rect x="855" y="154" width="80" height="80" fill="#ffffff" stroke="#000000" stroke-width="0.8" /><circle cx="868.33" cy="167.33" r="4.18" fill="#d7e2db" /><circle cx="895" cy="194" r="3.48" fill="#9cb7a7" /><circle cx="868.33" cy="220.67000000000002" r="3.24" fill="#7fa18d" /><circle cx="921.6700000000001" cy="220.67000000000002" r="3.0300000000000002" fill="#628b72" /><rect x="855" y="254" width="80" height="80" fill="#ffffff" stroke="#000000" stroke-width="0.8" /><circle cx="921.6700000000001" cy="267.33" r="3.7" fill="#a6beb0" /><circle cx="895" cy="294" r="3.42" fill="#89a895" /><circle cx="868.33" cy="320.67" r="3.18" fill="#6b937b" /><circle cx="921.6700000000001" cy="320.67" r="2.99" fill="#4e7d61" /><rect x="855" y="354" width="80" height="80" fill="#ffffff" stroke="#000000" stroke-width="0.8" /><circle cx="868.33" cy="367.33" r="3.97" fill="#b0c5b8" /><circle cx="921.6700000000001" cy="367.33" r="3.63" fill="#93af9e" /><circle cx="895" cy="394" r="3.36" fill="#759a84" /><circle cx="868.33" cy="420.67" r="3.13" fill="#588469" /><rect x="855" y="454" width="80" height="80" fill="#ffffff" stroke="#000000" stroke-width="0.8" /><circle cx="868.33" cy="467.33" r="3.87" fill="#9cb7a7" /><circle cx="921.6700000000001" cy="467.33" r="3.5500000000000003" fill="#7fa18d" /><circle cx="895" cy="494" r="3.3000000000000003" fill="#628b72" /><circle cx="921.6700000000001" cy="520.67" r="2.9" fill="#27603e" /><rect x="455" y="54" width="80" height="80" fill="#ffffff" stroke="#000000" stroke-width="0.8" /><circle cx="521.67" cy="67.33" r="4.57" fill="#ae93b2" /><circle cx="495" cy="94" r="4.07" fill="#c4b0c7" /><circle cx="521.67" cy="120.67" r="3.42" fill="#f0ebf1" /><rect x="455" y="154" width="80" height="80" fill="#ffffff" stroke="#000000" stroke-width="0.8" /><circle cx="468.33" cy="167.33" r="5.14" fill="#a689ab" /><circle cx="521.67" cy="167.33" r="4.43" fill="#bca6c0" /><circle cx="468.33" cy="220.67000000000002" r="3.63" fill="#e8e1ea" /><circle cx="521.67" cy="220.67000000000002" r="3.36" fill="#ffffff" /><rect x="455" y="254" width="80" height="80" fill="#ffffff" stroke="#000000" stroke-width="0.8" /><circle cx="468.33" cy="267.33" r="4.92" fill="#b59cb9" /><circle cx="495" cy="294" r="3.87" fill="#e1d7e3" /><circle cx="468.33" cy="320.67" r="3.5500000000000003" fill="#f7f5f8" /><rect x="455" y="354" width="80" height="80" fill="#ffffff" stroke="#000000" stroke-width="0.8" /><circle cx="521.67" cy="367.33" r="4.18" fill="#dacddc" /><circle cx="495" cy="394" r="3.7800000000000002" fill="#f0ebf1" /><circle cx="521.67" cy="420.67" r="3.24" fill="#d7e2db" /><rect x="455" y="454" width="80" height="80" fill="#ffffff" stroke="#000000" stroke-width="0.8" /><circle cx="468.33" cy="467.33" r="4.57" fill="#d2c4d5" /><circle cx="521.67" cy="467.33" r="4.07" fill="#e8e1ea" /><circle cx="468.33" cy="520.67" r="3.42" fill="#e1e9e4" /><circle cx="521.67" cy="520.67" r="3.18" fill="#c4d3ca" /><rect x="355" y="54" width="80" height="80" fill="#ffffff" stroke="#000000" stroke-width="0.8" /><circle cx="368.33" cy="67.33" r="5.93" fill="#7a4e82" /><circle cx="395" cy="94" r="4.23" fill="#a689ab" /><circle cx="368.33" cy="120.67" r="3.83" fill="#bca6c0" /><rect x="355" y="154" width="80" height="80" fill="#ffffff" stroke="#000000" stroke-width="0.8" /><circle cx="421.67" cy="167.33" r="4.65" fill="#9f7fa5" /><circle cx="395" cy="194" r="4.12" fill="#b59cb9" /><circle cx="421.67" cy="220.67000000000002" r="3.45" fill="#e1d7e3" /><rect x="355" y="254" width="80" height="80" fill="#ffffff" stroke="#000000" stroke-width="0.8" /><circle cx="368.33" cy="267.33" r="5.26" fill="#98759e" /><circle cx="421.67" cy="267.33" r="4.5" fill="#ae93b2" /><circle cx="368.33" cy="320.67" r="3.66" fill="#dacddc" /><circle cx="421.67" cy="320.67" r="3.39" fill="#f0ebf1" /><rect x="355" y="354" width="80" height="80" fill="#ffffff" stroke="#000000" stroke-width="0.8" /><circle cx="368.33" cy="367.33" r="5.03" fill="#a689ab" /><circle cx="395" cy="394" r="3.92" fill="#d2c4d5" /><circle cx="368.33" cy="420.67" r="3.59" fill="#e8e1ea" /><rect x="355" y="454" width="80" height="80" fill="#ffffff" stroke="#000000" stroke-width="0.8" /><circle cx="421.67" cy="467.33" r="4.23" fill="#cbbace" /><circle cx="395" cy="494" r="3.83" fill="#e1d7e3" /><circle cx="421.67" cy="520.67" r="3.27" fill="#ebf0ed" /><rect x="155" y="54" width="80" height="80" fill="#ffffff" stroke="#000000" stroke-width="0.8" /><circle cx="168.33" cy="67.33" r="11.33" fill="#40004b" /><circle cx="221.67000000000002" cy="67.33" r="5.55" fill="#561d5f" /><circle cx="195" cy="94" r="4.65" fill="#6c3a74" /><circle cx="221.67000000000002" cy="120.67" r="3.74" fill="#98759e" /><rect x="155" y="154" width="80" height="80" fill="#ffffff" stroke="#000000" stroke-width="0.8" /><circle cx="168.33" cy="167.33" r="7.33" fill="#4e1358" /><circle cx="221.67000000000002" cy="167.33" r="5.26" fill="#64316d" /><circle cx="168.33" cy="220.67000000000002" r="4.0200000000000005" fill="#906b97" /><circle cx="221.67000000000002" cy="220.67000000000002" r="3.66" fill="#a689ab" /><rect x="155" y="254" width="80" height="80" fill="#ffffff" stroke="#000000" stroke-width="0.8" /><circle cx="168.33" cy="267.33" r="6.45" fill="#5d2766" /><circle cx="195" cy="294" r="4.36" fill="#896290" /><circle cx="168.33" cy="320.67" r="3.92" fill="#9f7fa5" /><rect x="155" y="354" width="80" height="80" fill="#ffffff" stroke="#000000" stroke-width="0.8" /><circle cx="221.67000000000002" cy="367.33" r="4.82" fill="#825889" /><circle cx="195" cy="394" r="4.23" fill="#98759e" /><circle cx="221.67000000000002" cy="420.67" r="3.52" fill="#c4b0c7" /><rect x="155" y="454" width="80" height="80" fill="#ffffff" stroke="#000000" stroke-width="0.8" /><circle cx="168.33" cy="467.33" r="5.55" fill="#7a4e82" /><circle cx="221.67000000000002" cy="467.33" r="4.65" fill="#906b97" /><circle cx="168.33" cy="520.67" r="3.74" fill="#bca6c0" /><circle cx="221.67000000000002" cy="520.67" r="3.45" fill="#d2c4d5" /><rect x="1052" y="34" width="160" height="136" fill="#ffffff" /><rect x="1052" y="34" width="160" height="136" fill="none" stroke="#000000" stroke-width="1" /><text x="1127" y="54.2" font-size="12" text-anchor="middle" font-weight="bold">Contrast</text><rect x="1062.5" y="64" width="129" height="96" fill="#ffffff" stroke="#000000" stroke-width="0.8" /><line x1="1105.5" y1="64" x2="1105.5" y2="160" stroke="#000000" stroke-width="0.4" stroke-dasharray="3,3" /><line x1="1062.5" y1="96" x2="1191.5" y2="96" stroke="#000000" stroke-width="0.4" stroke-dasharray="3,3" /><line x1="1148.5" y1="64" x2="1148.5" y2="160" stroke="#000000" stroke-width="0.4" stroke-dasharray="3,3" /><line x1="1062.5" y1="128" x2="1191.5" y2="128" stroke="#000000" stroke-width="0.4" stroke-dasharray="3,3" /><circle cx="1084" cy="73" r="4.5" fill="#000000" /><text x="1084" y="93.2" font-size="11" text-anchor="middle">MS-CT</text><circle cx="1084" cy="137" r="4.5" fill="#000000" /><text x="1084" y="157.20000000000002" font-size="11" text-anchor="middle">AD-CT</text><circle cx="1127" cy="105" r="4.5" fill="#000000" /><text x="1127" y="125.2" font-size="11" text-anchor="middle">ASD-CT</text><circle cx="1170" cy="73" r="4.5" fill="#000000" /><text x="1170" y="93.2" font-size="11" text-anchor="middle">FTD-CT</text><circle cx="1170" cy="137" r="4.5" fill="#000000" /><text x="1170" y="157.20000000000002" font-size="11" text-anchor="middle">HD-CT</text><rect x="1052" y="178" width="160" height="92" fill="#ffffff" /><rect x="1052" y="178" width="160" height="92" fill="none" stroke="#000000" stroke-width="1" /><text x="1127" y="197.6" font-size="12" text-anchor="middle" font-weight="bold">-log10(FDR)</text><circle cx="1072" cy="213" r="4.96" fill="#444444" /><text x="1086" y="217" font-size="12" text-anchor="start">1.9</text><circle cx="1072" cy="231" r="7.08" fill="#444444" /><text x="1086" y="235" font-size="12" text-anchor="start">2.6</text><circle cx="1072" cy="249" r="8" fill="#444444" /><text x="1086" y="253" font-size="12" text-anchor="start">4.0</text><rect x="1057" y="296" width="20" height="6.08" fill="#00441b" /><rect x="1057" y="301.58" width="20" height="6.08" fill="#0a4b24" /><rect x="1057" y="307.16" width="20" height="6.08" fill="#14532d" /><rect x="1057" y="312.74" width="20" height="6.08" fill="#1f5a36" /><rect x="1057" y="318.32" width="20" height="6.08" fill="#296240" /><rect x="1057" y="323.90000000000003" width="20" height="6.08" fill="#346a49" /><rect x="1057" y="329.48" width="20" height="6.08" fill="#3e7152" /><rect x="1057" y="335.06" width="20" height="6.08" fill="#48795c" /><rect x="1057" y="340.64" width="20" height="6.08" fill="#538165" /><rect x="1057" y="346.22" width="20" height="6.08" fill="#5d886e" /><rect x="1057" y="351.8" width="20" height="6.08" fill="#689078" /><rect x="1057" y="357.38" width="20" height="6.08" fill="#729781" /><rect x="1057" y="362.96" width="20" height="6.08" fill="#7c9f8a" /><rect x="1057" y="368.54" width="20" height="6.08" fill="#87a793" /><rect x="1057" y="374.12" width="20" height="6.08" fill="#91ae9d" /><rect x="1057" y="379.7" width="20" height="6.08" fill="#9cb6a6" /><rect x="1057" y="385.28000000000003" width="20" height="6.08" fill="#a6beaf" /><rect x="1057" y="390.86" width="20" height="6.08" fill="#b0c5b9" /><rect x="1057" y="396.44" width="20" height="6.08" fill="#bbcdc2" /><rect x="1057" y="402.02" width="20" height="6.08" fill="#c5d5cb" /><rect x="1057" y="407.6" width="20" height="6.08" fill="#d0dcd5" /><rect x="1057" y="413.18" width="20" height="6.08" fill="#dae4de" /><rect x="1057" y="418.76" width="20" height="6.08" fill="#e4ebe7" /><rect x="1057" y="424.34000000000003" width="20" height="6.08" fill="#eff3f1" /><rect x="1057" y="429.92" width="20" height="6.08" fill="#f9fbfa" /><rect x="1057" y="435.5" width="20" height="6.08" fill="#fbf9fb" /><rect x="1057" y="441.08" width="20" height="6.08" fill="#f3eff3" /><rect x="1057" y="446.66" width="20" height="6.08" fill="#ebe4ec" /><rect x="1057" y="452.24" width="20" height="6.08" fill="#e3dae5" /><rect x="1057" y="457.82" width="20" height="6.08" fill="#dbd0dd" /><rect x="1057" y="463.40000000000003" width="20" height="6.08" fill="#d4c5d6" /><rect x="1057" y="468.98" width="20" height="6.08" fill="#ccbbcf" /><rect x="1057" y="474.56" width="20" height="6.08" fill="#c4b0c7" /><rect x="1057" y="480.14" width="20" height="6.08" fill="#bca6c0" /><rect x="1057" y="485.72" width="20" height="6.08" fill="#b49cb9" /><rect x="1057" y="491.3" width="20" height="6.08" fill="#ad91b1" /><rect x="1057" y="496.88" width="20" height="6.08" fill="#a587aa" /><rect x="1057" y="502.46000000000004" width="20" height="6.08" fill="#9d7ca3" /><rect x="1057" y="508.04" width="20" height="6.08" fill="#95729b" /><rect x="1057" y="513.62" width="20" height="6.08" fill="#8d6894" /><rect x="1057" y="519.2" width="20" height="6.08" fill="#865d8d" /><rect x="1057" y="524.78" width="20" height="6.08" fill="#7e5385" /><rect x="1057" y="530.36" width="20" height="6.08" fill="#76487e" /><rect x="1057" y="535.94" width="20" height="6.08" fill="#6e3e77" /><rect x="1057" y="541.52" width="20" height="6.08" fill="#66346f" /><rect x="1057" y="547.1" width="20" height="6.08" fill="#5f2968" /><rect x="1057" y="552.6800000000001" width="20" height="6.08" fill="#571f61" /><rect x="1057" y="558.26" width="20" height="6.08" fill="#4f1459" /><rect x="1057" y="563.84" width="20" height="6.08" fill="#470a52" /><rect x="1057" y="569.42" width="20" height="6.08" fill="#40004b" /><rect x="1057" y="296" width="20" height="279" fill="none" stroke="#000000" stroke-width="1" /><line x1="1077" y1="542.8100000000001" x2="1081" y2="542.8100000000001" stroke="#000000" stroke-width="1" /><text x="1082" y="546.8100000000001" font-size="12" text-anchor="start">-2</text><line x1="1077" y1="489.15000000000003" x2="1081" y2="489.15000000000003" stroke="#000000" stroke-width="1" /><text x="1082" y="493.15000000000003" font-size="12" text-anchor="start">-1</text><line x1="1077" y1="435.5" x2="1081" y2="435.5" stroke="#000000" stroke-width="1" /><text x="1082" y="439.5" font-size="12" text-anchor="start">0</text><line x1="1077" y1="381.85" x2="1081" y2="381.85" stroke="#000000" stroke-width="1" /><text x="1082" y="385.85" font-size="12" text-anchor="start">1</text><line x1="1077" y1="328.19" x2="1081" y2="328.19" stroke="#000000" stroke-width="1" /><text x="1082" y="332.19" font-size="12" text-anchor="start">2</text><text x="1047" y="435.5" font-size="12" text-anchor="middle" transform="rotate(-90,1047,435.5)">logFC</text></svg>