<svg xmlns="http://www.w3.org/2000/svg" width="772.2" height="545" font-family="DejaVu Sans, Liberation Sans, Arial, sans-serif" fill="black"><rect width="100%" height="100%" fill="white" /><line x1="72.2" y1="494" x2="672.2" y2="494" stroke="#000000" stroke-width="1" /><line x1="72.2" y1="44" x2="72.2" y2="494" stroke="#000000" stroke-width="1" /><line x1="192.20000000000002" y1="44" x2="192.20000000000002" y2="494" stroke="#cccccc" stroke-width="1" /><line x1="312.2" y1="44" x2="312.2" y2="494" stroke="#cccccc" stroke-width="1" /><line x1="432.2" y1="44" x2="432.2" y2="494" stroke="#cccccc" stroke-width="1" /><line x1="552.2" y1="44" x2="552.2" y2="494" stroke="#cccccc" stroke-width="1" /><line x1="672.2" y1="44" x2="672.2" y2="494" stroke="#cccccc" stroke-width="1" /><line x1="72.2" y1="381.5" x2="672.2" y2="381.5" stroke="#cccccc" stroke-width="1" /><line x1="72.2" y1="269" x2="672.2" y2="269" stroke="#cccccc" stroke-width="1" /><line x1="72.2" y1="156.5" x2="672.2" y2="156.5" stroke="#cccccc" stroke-width="1" /><line x1="72.2" y1="44" x2="672.2" y2="44" stroke="#cccccc" stroke-width="1" /><line x1="72.2" y1="494" x2="72.2" y2="499" stroke="#000000" stroke-width="1" /><text x="72.2" y="511" font-size="12" text-anchor="middle">0</text><line x1="192.20000000000002" y1="494" x2="192.20000000000002" y2="499" stroke="#000000" stroke-width="1" /><text x="192.20000000000002" y="511" font-size="12" text-anchor="middle">2.5</text><line x1="312.2" y1="494" x2="312.2" y2="499" stroke="#000000" stroke-width="1" /><text x="312.2" y="511" font-size="12" text-anchor="middle">5</text><line x1="432.2" y1="494" x2="432.2" y2="499" stroke="#000000" stroke-width="1" /><text x="432.2" y="511" font-size="12" text-anchor="middle">7.5</text><line x1="552.2" y1="494" x2="552.2" y2="499" stroke="#000000" stroke-width="1" /><text x="552.2" y="511" font-size="12" text-anchor="middle">10</text><line x1="672.2" y1="494" x2="672.2" y2="499" stroke="#000000" stroke-width="1" /><text x="672.2" y="511" font-size="12" text-anchor="middle">12.5</text><line x1="67.2" y1="494" x2="72.2" y2="494" stroke="#000000" stroke-width="1" /><text x="64.2" y="498.2" font-size="12" text-anchor="end">0</text><line x1="67.2" y1="381.5" x2="72.2" y2="381.5" stroke="#000000" stroke-width="1" /><text x="64.2" y="385.7" font-size="12" text-anchor="end">200</text><line x1="67.2" y1="269" x2="72.2" y2="269" stroke="#000000" stroke-width="1" /><text x="64.2" y="273.2" font-size="12" text-anchor="end">400</text><line x1="67.2" y1="156.5" x2="72.2" y2="156.5" stroke="#000000" stroke-width="1" /><text x="64.2" y="160.70000000000002" font-size="12" text-anchor="end">600</text><line x1="67.2" y1="44" x2="72.2" y2="44" stroke="#000000" stroke-width="1" /><text x="64.2" y="48.2" font-size="12" text-anchor="end">800</text><text x="372.2" y="538" font-size="14" text-anchor="middle">Month</text><text x="7" y="272.5" font-size="14" text-anchor="middle" transform="rotate(-90,7,272.5)">Variant count</text><text x="372.2" y="22" font-size="18" text-anchor="middle">Without Stroke Lines</text><path d="M 120.2 257.75 L 168.20000000000002 243.69 L 216.20000000000002 270.13 L 264.2 207.13 L 312.2 219.5 L 360.2 212.19 L 408.2 231.31 L 456.2 199.81 L 504.2 215.56 L 552.2 190.25 L 600.2 202.63 L 648.2 181.81 L 648.2 494.0 L 600.2 494.0 L 552.2 494.0 L 504.2 494.0 L 456.2 494.0 L 408.2 494.0 L 360.2 494.0 L 312.2 494.0 L 264.2 494.0 L 216.20000000000002 494.0 L 168.20000000000002 494.0 L 120.2 494.0 Z" stroke="none" stroke-width="0" fill="#4682b4" fill-opacity="0.7000000000000001" /><path d="M 120.2 204.31 L 168.20000000000002 186.31 L 216.20000000000002 220.63 L 264.2 142.44 L 312.2 158.75 L 360.2 149.19 L 408.2 176.19 L 456.2 129.5 L 504.2 149.19 L 552.2 117.13 L 600.2 134.0 L 648.2 103.06 L 648.2 181.81 L 600.2 202.63 L 552.2 190.25 L 504.2 215.56 L 456.2 199.81 L 408.2 231.31 L 360.2 212.19 L 312.2 219.5 L 264.2 207.13 L 216.20000000000002 270.13 L 168.20000000000002 243.69 L 120.2 257.75 Z" stroke="none" stroke-width="0" fill="#ffa500" fill-opacity="0.7000000000000001" /><path d="M 120.2 191.94 L 168.20000000000002 172.25 L 216.20000000000002 209.38 L 264.2 126.69 L 312.2 144.13 L 360.2 134.0 L 408.2 162.69 L 456.2 112.06 L 504.2 133.44 L 552.2 98.56 L 600.2 117.13 L 648.2 83.38 L 648.2 103.06 L 600.2 134.0 L 552.2 117.13 L 504.2 149.19 L 456.2 129.5 L 408.2 176.19 L 360.2 149.19 L 312.2 158.75 L 264.2 142.44 L 216.20000000000002 220.63 L 168.20000000000002 186.31 L 120.2 204.31 Z" stroke="none" stroke-width="0" fill="mediumseagreen" fill-opacity="0.7000000000000001" /><path d="M 120.2 183.5 L 168.20000000000002 162.69 L 216.20000000000002 201.5 L 264.2 116.0 L 312.2 134.0 L 360.2 123.88000000000001 L 408.2 153.69 L 456.2 100.25 L 504.2 122.75 L 552.2 85.63 L 600.2 105.31 L 648.2 69.88 L 648.2 83.38 L 600.2 117.13 L 552.2 98.56 L 504.2 133.44 L 456.2 112.06 L 408.2 162.69 L 360.2 134.0 L 312.2 144.13 L 264.2 126.69 L 216.20000000000002 209.38 L 168.20000000000002 172.25 L 120.2 191.94 Z" stroke="none" stroke-width="0" fill="#ff6347" fill-opacity="0.7000000000000001" /><rect x="677.2" y="34" width="86" height="92" fill="#ffffff" /><rect x="677.2" y="34" width="86" height="92" fill="none" stroke="#000000" stroke-width="1" /><text x="707.2" y="53.2" font-size="12" text-anchor="start">SNVs</text><rect x="687.2" y="43" width="12" height="12" fill="#4682b4" /><text x="707.2" y="71.2" font-size="12" text-anchor="start">Indels</text><rect x="687.2" y="61" width="12" height="12" fill="#ffa500" /><text x="707.2" y="89.2" font-size="12" text-anchor="start">SVs</text><rect x="687.2" y="79" width="12" height="12" fill="mediumseagreen" /><text x="707.2" y="107.2" font-size="12" text-anchor="start">CNVs</text><rect x="687.2" y="97" width="12" height="12" fill="#ff6347" /></svg>