<svg xmlns="http://www.w3.org/2000/svg" width="765" height="545" font-family="DejaVu Sans, Liberation Sans, Arial, sans-serif" fill="black"><rect width="100%" height="100%" fill="white" /><defs><clipPath id="kuva-clip-1"><rect x="59" y="44" width="600" height="450"/></clipPath></defs><line x1="179" y1="44" x2="179" y2="494" stroke="#cccccc" stroke-width="1" /><line x1="299" y1="44" x2="299" y2="494" stroke="#cccccc" stroke-width="1" /><line x1="419" y1="44" x2="419" y2="494" stroke="#cccccc" stroke-width="1" /><line x1="539" y1="44" x2="539" y2="494" stroke="#cccccc" stroke-width="1" /><line x1="659" y1="44" x2="659" y2="494" stroke="#cccccc" stroke-width="1" /><line x1="59" y1="400.25" x2="659" y2="400.25" stroke="#cccccc" stroke-width="1" /><line x1="59" y1="306.5" x2="659" y2="306.5" stroke="#cccccc" stroke-width="1" /><line x1="59" y1="212.75" x2="659" y2="212.75" stroke="#cccccc" stroke-width="1" /><line x1="59" y1="119" x2="659" y2="119" stroke="#cccccc" stroke-width="1" /><line x1="59" y1="494" x2="659" y2="494" stroke="#000000" stroke-width="1" /><line x1="59" y1="44" x2="59" y2="494" stroke="#000000" stroke-width="1" /><line x1="59" y1="494" x2="59" y2="499" stroke="#000000" stroke-width="1" /><text x="59" y="511" font-size="12" text-anchor="middle">0</text><line x1="179" y1="494" x2="179" y2="499" stroke="#000000" stroke-width="1" /><text x="179" y="511" font-size="12" text-anchor="middle">2.5</text><line x1="299" y1="494" x2="299" y2="499" stroke="#000000" stroke-width="1" /><text x="299" y="511" font-size="12" text-anchor="middle">5</text><line x1="419" y1="494" x2="419" y2="499" stroke="#000000" stroke-width="1" /><text x="419" y="511" font-size="12" text-anchor="middle">7.5</text><line x1="539" y1="494" x2="539" y2="499" stroke="#000000" stroke-width="1" /><text x="539" y="511" font-size="12" text-anchor="middle">10</text><line x1="659" y1="494" x2="659" y2="499" stroke="#000000" stroke-width="1" /><text x="659" y="511" font-size="12" text-anchor="middle">12.5</text><line x1="54" y1="494" x2="59" y2="494" stroke="#000000" stroke-width="1" /><text x="51" y="498.2" font-size="12" text-anchor="end">0</text><line x1="54" y1="400.25" x2="59" y2="400.25" stroke="#000000" stroke-width="1" /><text x="51" y="404.45" font-size="12" text-anchor="end">25</text><line x1="54" y1="306.5" x2="59" y2="306.5" stroke="#000000" stroke-width="1" /><text x="51" y="310.7" font-size="12" text-anchor="end">50</text><line x1="54" y1="212.75" x2="59" y2="212.75" stroke="#000000" stroke-width="1" /><text x="51" y="216.95000000000002" font-size="12" text-anchor="end">75</text><line x1="54" y1="119" x2="59" y2="119" stroke="#000000" stroke-width="1" /><text x="51" y="123.2" font-size="12" text-anchor="end">100</text><text x="359" y="538" font-size="14" text-anchor="middle">Month</text><text x="15" y="272.5" font-size="14" text-anchor="middle" transform="rotate(-90,15,272.5)">Proportion (%)</text><text x="382.5" y="27.400000000000002" font-size="18" text-anchor="middle">Variant Type Composition (Normalized)</text><g clip-path="url(#kuva-clip-1)"><path d="M 107.0 208.67000000000002 L 155.0 210.68 L 203.0 206.98000000000002 L 251.0 209.4 L 299.0 208.06 L 347.0 208.48000000000002 L 395.0 204.54 L 443.0 213.82 L 491.0 212.75 L 539.0 215.07 L 587.0 212.89000000000001 L 635.0 217.97 L 635.0 494.0 L 587.0 494.0 L 539.0 494.0 L 491.0 494.0 L 443.0 494.0 L 395.0 494.0 L 347.0 494.0 L 299.0 494.0 L 251.0 494.0 L 203.0 494.0 L 155.0 494.0 L 107.0 494.0 Z" stroke="none" stroke-width="0" fill="#4682b4" fill-opacity="0.7000000000000001" /><path d="M 107.0 208.67000000000002 L 155.0 210.68 L 203.0 206.98000000000002 L 251.0 209.4 L 299.0 208.06 L 347.0 208.48000000000002 L 395.0 204.54 L 443.0 213.82 L 491.0 212.75 L 539.0 215.07 L 587.0 212.89000000000001 L 635.0 217.97 " stroke="#4682b4" stroke-width="1.5" fill="none" /><path d="M 107.0 144.14000000000001 L 155.0 145.74 L 203.0 143.52 L 251.0 145.23 L 299.0 144.78 L 347.0 144.65 L 395.0 143.79 L 443.0 146.86 L 491.0 145.70000000000002 L 539.0 147.93 L 587.0 146.68 L 635.0 148.34 L 635.0 217.97 L 587.0 212.89000000000001 L 539.0 215.07 L 491.0 212.75 L 443.0 213.82 L 395.0 204.54 L 347.0 208.48000000000002 L 299.0 208.06 L 251.0 209.4 L 203.0 206.98000000000002 L 155.0 210.68 L 107.0 208.67000000000002 Z" stroke="none" stroke-width="0" fill="#ffa500" fill-opacity="0.7000000000000001" /><path d="M 107.0 144.14000000000001 L 155.0 145.74 L 203.0 143.52 L 251.0 145.23 L 299.0 144.78 L 347.0 144.65 L 395.0 143.79 L 443.0 146.86 L 491.0 145.70000000000002 L 539.0 147.93 L 587.0 146.68 L 635.0 148.34 " stroke="#ffa500" stroke-width="1.5" fill="none" /><path d="M 107.0 129.19 L 155.0 129.82 L 203.0 129.1 L 251.0 129.6 L 299.0 129.55 L 347.0 129.26 L 395.0 128.92000000000002 L 443.0 130.25 L 491.0 129.8 L 539.0 130.88 L 587.0 130.4 L 635.0 130.94 L 635.0 148.34 L 587.0 146.68 L 539.0 147.93 L 491.0 145.70000000000002 L 443.0 146.86 L 395.0 143.79 L 347.0 144.65 L 299.0 144.78 L 251.0 145.23 L 203.0 143.52 L 155.0 145.74 L 107.0 144.14000000000001 Z" stroke="none" stroke-width="0" fill="mediumseagreen" fill-opacity="0.7000000000000001" /><path d="M 107.0 129.19 L 155.0 129.82 L 203.0 129.1 L 251.0 129.6 L 299.0 129.55 L 347.0 129.26 L 395.0 128.92000000000002 L 443.0 130.25 L 491.0 129.8 L 539.0 130.88 L 587.0 130.4 L 635.0 130.94 " stroke="mediumseagreen" stroke-width="1.5" fill="none" /><path d="M 107.0 119.0 L 155.0 119.0 L 203.0 119.0 L 251.0 119.0 L 299.0 119.0 L 347.0 119.0 L 395.0 119.0 L 443.0 119.0 L 491.0 119.0 L 539.0 119.0 L 587.0 119.0 L 635.0 119.0 L 635.0 130.94 L 587.0 130.4 L 539.0 130.88 L 491.0 129.8 L 443.0 130.25 L 395.0 128.92000000000002 L 347.0 129.26 L 299.0 129.55 L 251.0 129.6 L 203.0 129.1 L 155.0 129.82 L 107.0 129.19 Z" stroke="none" stroke-width="0" fill="#ff6347" fill-opacity="0.7000000000000001" /><path d="M 107.0 119.0 L 155.0 119.0 L 203.0 119.0 L 251.0 119.0 L 299.0 119.0 L 347.0 119.0 L 395.0 119.0 L 443.0 119.0 L 491.0 119.0 L 539.0 119.0 L 587.0 119.0 L 635.0 119.0 " stroke="#ff6347" stroke-width="1.5" fill="none" /></g><rect x="664" y="34" width="88" height="92" fill="#ffffff" /><rect x="664" y="34" width="88" height="92" fill="none" stroke="#000000" stroke-width="1" /><text x="694" y="53.2" font-size="12" text-anchor="start">SNVs</text><rect x="674" y="43" width="12" height="12" fill="#4682b4" /><text x="694" y="71.2" font-size="12" text-anchor="start">Indels</text><rect x="674" y="61" width="12" height="12" fill="#ffa500" /><text x="694" y="89.2" font-size="12" text-anchor="start">SVs</text><rect x="674" y="79" width="12" height="12" fill="mediumseagreen" /><text x="694" y="107.2" font-size="12" text-anchor="start">CNVs</text><rect x="674" y="97" width="12" height="12" fill="#ff6347" /></svg>