<svg xmlns="http://www.w3.org/2000/svg" width="772.2" height="545" font-family="DejaVu Sans, Liberation Sans, Arial, sans-serif" fill="black"><rect width="100%" height="100%" fill="white" /><line x1="72.2" y1="494" x2="672.2" y2="494" stroke="#000000" stroke-width="1" /><line x1="72.2" y1="44" x2="72.2" y2="494" stroke="#000000" stroke-width="1" /><line x1="192.20000000000002" y1="44" x2="192.20000000000002" y2="494" stroke="#cccccc" stroke-width="1" /><line x1="312.2" y1="44" x2="312.2" y2="494" stroke="#cccccc" stroke-width="1" /><line x1="432.2" y1="44" x2="432.2" y2="494" stroke="#cccccc" stroke-width="1" /><line x1="552.2" y1="44" x2="552.2" y2="494" stroke="#cccccc" stroke-width="1" /><line x1="672.2" y1="44" x2="672.2" y2="494" stroke="#cccccc" stroke-width="1" /><line x1="72.2" y1="400.25" x2="672.2" y2="400.25" stroke="#cccccc" stroke-width="1" /><line x1="72.2" y1="306.5" x2="672.2" y2="306.5" stroke="#cccccc" stroke-width="1" /><line x1="72.2" y1="212.75" x2="672.2" y2="212.75" stroke="#cccccc" stroke-width="1" /><line x1="72.2" y1="119" x2="672.2" y2="119" stroke="#cccccc" stroke-width="1" /><line x1="72.2" y1="494" x2="72.2" y2="499" stroke="#000000" stroke-width="1" /><text x="72.2" y="511" font-size="12" text-anchor="middle">0</text><line x1="192.20000000000002" y1="494" x2="192.20000000000002" y2="499" stroke="#000000" stroke-width="1" /><text x="192.20000000000002" y="511" font-size="12" text-anchor="middle">2.5</text><line x1="312.2" y1="494" x2="312.2" y2="499" stroke="#000000" stroke-width="1" /><text x="312.2" y="511" font-size="12" text-anchor="middle">5</text><line x1="432.2" y1="494" x2="432.2" y2="499" stroke="#000000" stroke-width="1" /><text x="432.2" y="511" font-size="12" text-anchor="middle">7.5</text><line x1="552.2" y1="494" x2="552.2" y2="499" stroke="#000000" stroke-width="1" /><text x="552.2" y="511" font-size="12" text-anchor="middle">10</text><line x1="672.2" y1="494" x2="672.2" y2="499" stroke="#000000" stroke-width="1" /><text x="672.2" y="511" font-size="12" text-anchor="middle">12.5</text><line x1="67.2" y1="494" x2="72.2" y2="494" stroke="#000000" stroke-width="1" /><text x="64.2" y="498.2" font-size="12" text-anchor="end">0</text><line x1="67.2" y1="400.25" x2="72.2" y2="400.25" stroke="#000000" stroke-width="1" /><text x="64.2" y="404.45" font-size="12" text-anchor="end">25</text><line x1="67.2" y1="306.5" x2="72.2" y2="306.5" stroke="#000000" stroke-width="1" /><text x="64.2" y="310.7" font-size="12" text-anchor="end">50</text><line x1="67.2" y1="212.75" x2="72.2" y2="212.75" stroke="#000000" stroke-width="1" /><text x="64.2" y="216.95000000000002" font-size="12" text-anchor="end">75</text><line x1="67.2" y1="119" x2="72.2" y2="119" stroke="#000000" stroke-width="1" /><text x="64.2" y="123.2" font-size="12" text-anchor="end">100</text><text x="372.2" y="538" font-size="14" text-anchor="middle">Month</text><text x="7" y="272.5" font-size="14" text-anchor="middle" transform="rotate(-90,7,272.5)">Proportion (%)</text><text x="372.2" y="22" font-size="18" text-anchor="middle">Variant Type Composition (Normalized)</text><path d="M 120.2 208.67000000000002 L 168.20000000000002 210.68 L 216.20000000000002 206.98000000000002 L 264.2 209.4 L 312.2 208.06 L 360.2 208.48000000000002 L 408.2 204.54 L 456.2 213.82 L 504.2 212.75 L 552.2 215.07 L 600.2 212.89000000000001 L 648.2 217.97 L 648.2 494.0 L 600.2 494.0 L 552.2 494.0 L 504.2 494.0 L 456.2 494.0 L 408.2 494.0 L 360.2 494.0 L 312.2 494.0 L 264.2 494.0 L 216.20000000000002 494.0 L 168.20000000000002 494.0 L 120.2 494.0 Z" stroke="none" stroke-width="0" fill="#4682b4" fill-opacity="0.7000000000000001" /><path d="M 120.2 208.67000000000002 L 168.20000000000002 210.68 L 216.20000000000002 206.98000000000002 L 264.2 209.4 L 312.2 208.06 L 360.2 208.48000000000002 L 408.2 204.54 L 456.2 213.82 L 504.2 212.75 L 552.2 215.07 L 600.2 212.89000000000001 L 648.2 217.97 " stroke="#4682b4" stroke-width="1.5" fill="none" /><path d="M 120.2 144.14000000000001 L 168.20000000000002 145.74 L 216.20000000000002 143.52 L 264.2 145.23 L 312.2 144.78 L 360.2 144.65 L 408.2 143.79 L 456.2 146.86 L 504.2 145.70000000000002 L 552.2 147.93 L 600.2 146.68 L 648.2 148.34 L 648.2 217.97 L 600.2 212.89000000000001 L 552.2 215.07 L 504.2 212.75 L 456.2 213.82 L 408.2 204.54 L 360.2 208.48000000000002 L 312.2 208.06 L 264.2 209.4 L 216.20000000000002 206.98000000000002 L 168.20000000000002 210.68 L 120.2 208.67000000000002 Z" stroke="none" stroke-width="0" fill="#ffa500" fill-opacity="0.7000000000000001" /><path d="M 120.2 144.14000000000001 L 168.20000000000002 145.74 L 216.20000000000002 143.52 L 264.2 145.23 L 312.2 144.78 L 360.2 144.65 L 408.2 143.79 L 456.2 146.86 L 504.2 145.70000000000002 L 552.2 147.93 L 600.2 146.68 L 648.2 148.34 " stroke="#ffa500" stroke-width="1.5" fill="none" /><path d="M 120.2 129.19 L 168.20000000000002 129.82 L 216.20000000000002 129.1 L 264.2 129.6 L 312.2 129.55 L 360.2 129.26 L 408.2 128.92000000000002 L 456.2 130.25 L 504.2 129.8 L 552.2 130.88 L 600.2 130.4 L 648.2 130.94 L 648.2 148.34 L 600.2 146.68 L 552.2 147.93 L 504.2 145.70000000000002 L 456.2 146.86 L 408.2 143.79 L 360.2 144.65 L 312.2 144.78 L 264.2 145.23 L 216.20000000000002 143.52 L 168.20000000000002 145.74 L 120.2 144.14000000000001 Z" stroke="none" stroke-width="0" fill="mediumseagreen" fill-opacity="0.7000000000000001" /><path d="M 120.2 129.19 L 168.20000000000002 129.82 L 216.20000000000002 129.1 L 264.2 129.6 L 312.2 129.55 L 360.2 129.26 L 408.2 128.92000000000002 L 456.2 130.25 L 504.2 129.8 L 552.2 130.88 L 600.2 130.4 L 648.2 130.94 " stroke="mediumseagreen" stroke-width="1.5" fill="none" /><path d="M 120.2 119.0 L 168.20000000000002 119.0 L 216.20000000000002 119.0 L 264.2 119.0 L 312.2 119.0 L 360.2 119.0 L 408.2 119.0 L 456.2 119.0 L 504.2 119.0 L 552.2 119.0 L 600.2 119.0 L 648.2 119.0 L 648.2 130.94 L 600.2 130.4 L 552.2 130.88 L 504.2 129.8 L 456.2 130.25 L 408.2 128.92000000000002 L 360.2 129.26 L 312.2 129.55 L 264.2 129.6 L 216.20000000000002 129.1 L 168.20000000000002 129.82 L 120.2 129.19 Z" stroke="none" stroke-width="0" fill="#ff6347" fill-opacity="0.7000000000000001" /><path d="M 120.2 119.0 L 168.20000000000002 119.0 L 216.20000000000002 119.0 L 264.2 119.0 L 312.2 119.0 L 360.2 119.0 L 408.2 119.0 L 456.2 119.0 L 504.2 119.0 L 552.2 119.0 L 600.2 119.0 L 648.2 119.0 " stroke="#ff6347" stroke-width="1.5" fill="none" /><rect x="677.2" y="34" width="86" height="92" fill="#ffffff" /><rect x="677.2" y="34" width="86" height="92" fill="none" stroke="#000000" stroke-width="1" /><text x="707.2" y="53.2" font-size="12" text-anchor="start">SNVs</text><rect x="687.2" y="43" width="12" height="12" fill="#4682b4" /><text x="707.2" y="71.2" font-size="12" text-anchor="start">Indels</text><rect x="687.2" y="61" width="12" height="12" fill="#ffa500" /><text x="707.2" y="89.2" font-size="12" text-anchor="start">SVs</text><rect x="687.2" y="79" width="12" height="12" fill="mediumseagreen" /><text x="707.2" y="107.2" font-size="12" text-anchor="start">CNVs</text><rect x="687.2" y="97" width="12" height="12" fill="#ff6347" /></svg>