<svg xmlns="http://www.w3.org/2000/svg" width="678.2" height="545" font-family="DejaVu Sans, Liberation Sans, Arial, sans-serif" fill="black"><rect width="100%" height="100%" fill="white" /><text x="339.1" y="27.400000000000002" font-size="18" text-anchor="middle">DE Gene Overlap Across Methods</text><circle cx="363.8" cy="200.94" r="123.75" fill="#1f77b4" fill-opacity="0.25" stroke="#1f77b4" stroke-width="1.5" /><circle cx="304.86" cy="303.03000000000003" r="123.75" fill="#ff7f0e" fill-opacity="0.25" stroke="#ff7f0e" stroke-width="1.5" /><circle cx="422.74" cy="303.03000000000003" r="123.75" fill="#2ca02c" fill-opacity="0.25" stroke="#2ca02c" stroke-width="1.5" /><circle cx="363.8" cy="116.98" r="4.5600000000000005" fill="#1f77b4" stroke="#ffffff" stroke-width="0.6" /><text x="363.8" y="132.18" font-size="12" text-anchor="middle">1</text><text x="363.8" y="148.98" font-size="10" text-anchor="middle">(9.1%)</text><circle cx="252.08" cy="310.93" r="4.5600000000000005" fill="#ff7f0e" stroke="#ffffff" stroke-width="0.6" /><text x="252.08" y="326.13" font-size="12" text-anchor="middle">2</text><text x="252.08" y="342.93" font-size="10" text-anchor="middle">(18.2%)</text><circle cx="284.48" cy="203.81" r="4.5600000000000005" fill="#1f77b4" stroke="#ffffff" stroke-width="0.6" /><circle cx="296.34000000000003" cy="203.81" r="4.5600000000000005" fill="#ff7f0e" stroke="#ffffff" stroke-width="0.6" /><text x="290.41" y="219.01" font-size="12" text-anchor="middle">2</text><text x="290.41" y="235.81" font-size="10" text-anchor="middle">(18.2%)</text><circle cx="475.52" cy="310.93" r="4.5600000000000005" fill="#2ca02c" stroke="#ffffff" stroke-width="0.6" /><text x="475.52" y="326.13" font-size="12" text-anchor="middle">1</text><text x="475.52" y="342.93" font-size="10" text-anchor="middle">(9.1%)</text><circle cx="431.26" cy="203.81" r="4.5600000000000005" fill="#1f77b4" stroke="#ffffff" stroke-width="0.6" /><circle cx="443.12" cy="203.81" r="4.5600000000000005" fill="#2ca02c" stroke="#ffffff" stroke-width="0.6" /><text x="437.19" y="219.01" font-size="12" text-anchor="middle">3</text><text x="437.19" y="235.81" font-size="10" text-anchor="middle">(27.3%)</text><circle cx="357.87" cy="331.77" r="4.5600000000000005" fill="#ff7f0e" stroke="#ffffff" stroke-width="0.6" /><circle cx="369.73" cy="331.77" r="4.5600000000000005" fill="#2ca02c" stroke="#ffffff" stroke-width="0.6" /><text x="363.8" y="346.97" font-size="12" text-anchor="middle">1</text><text x="363.8" y="363.77" font-size="10" text-anchor="middle">(9.1%)</text><circle cx="351.94" cy="246.66" r="4.5600000000000005" fill="#1f77b4" stroke="#ffffff" stroke-width="0.6" /><circle cx="363.8" cy="246.66" r="4.5600000000000005" fill="#ff7f0e" stroke="#ffffff" stroke-width="0.6" /><circle cx="375.66" cy="246.66" r="4.5600000000000005" fill="#2ca02c" stroke="#ffffff" stroke-width="0.6" /><text x="363.8" y="261.86" font-size="12" text-anchor="middle">1</text><text x="363.8" y="278.66" font-size="10" text-anchor="middle">(9.1%)</text><text x="363.8" y="62.74" font-size="13" text-anchor="middle" font-weight="bold">DESeq2</text><text x="181.23" y="378.96" font-size="13" text-anchor="end" font-weight="bold">edgeR</text><text x="546.37" y="378.96" font-size="13" text-anchor="start" font-weight="bold">limma</text></svg>