<svg xmlns="http://www.w3.org/2000/svg" width="806.2" height="545" font-family="DejaVu Sans, Liberation Sans, Arial, sans-serif" fill="black"><rect width="100%" height="100%" fill="white" /><text x="403.1" y="27.400000000000002" font-size="18" text-anchor="middle">4-Set Venn Diagram</text><path d="M 433.35,372.3 L 426.81,377.97 L 419.46000000000004,382.72 L 411.33,386.52 L 402.5,389.34000000000003 L 393.03000000000003,391.15000000000003 L 383,391.96000000000004 L 372.48,391.74 L 361.55,390.5 L 350.3,388.25 L 338.81,385.01 L 327.16,380.8 L 315.45,375.65000000000003 L 303.77,369.61 L 292.2,362.71 L 280.83,355.02 L 269.75,346.58 L 259.05,337.47 L 248.8,327.75 L 239.08,317.5 L 229.97,306.8 L 221.53,295.72 L 213.84,284.35 L 206.94,272.78000000000003 L 200.9,261.1 L 195.75,249.39000000000001 L 191.54,237.74 L 188.3,226.25 L 186.05,215 L 184.81,204.07 L 184.59,193.55 L 185.4,183.52 L 187.21,174.05 L 190.03,165.22 L 193.83,157.09 L 198.58,149.74 L 204.25,143.20000000000002 L 210.79,137.53 L 218.14000000000001,132.78 L 226.27,128.98 L 235.1,126.16 L 244.57,124.35000000000001 L 254.6,123.54 L 265.12,123.76 L 276.05,125 L 287.3,127.25 L 298.79,130.49 L 310.44,134.7 L 322.15000000000003,139.85 L 333.83,145.89000000000001 L 345.40000000000003,152.79 L 356.77,160.48 L 367.85,168.92000000000002 L 378.55,178.03 L 388.8,187.75 L 398.52,198 L 407.63,208.70000000000002 L 416.07,219.78 L 423.76,231.15 L 430.66,242.72 L 436.7,254.4 L 441.85,266.11 L 446.06,277.76 L 449.3,289.25 L 451.55,300.5 L 452.79,311.43 L 453.01,321.95 L 452.2,331.98 L 450.39,341.45 L 447.57,350.28000000000003 L 443.77,358.41 L 439.02,365.76 L 433.35,372.3 Z" stroke="#1f77b4" stroke-width="1.5" fill="#1f77b4" fill-opacity="0.25" /><path d="M 294.25,372.3 L 288.58,365.76 L 283.83,358.41 L 280.03000000000003,350.28000000000003 L 277.21,341.45 L 275.40000000000003,331.98 L 274.59000000000003,321.95 L 274.81,311.43 L 276.05,300.5 L 278.3,289.25 L 281.54,277.76 L 285.75,266.11 L 290.90000000000003,254.4 L 296.94,242.72 L 303.84000000000003,231.15 L 311.53000000000003,219.78 L 319.97,208.70000000000002 L 329.08,198 L 338.8,187.75 L 349.05,178.03 L 359.75,168.92000000000002 L 370.83,160.48 L 382.2,152.79 L 393.77,145.89000000000001 L 405.45,139.85 L 417.16,134.7 L 428.81,130.49 L 440.3,127.25 L 451.55,125 L 462.48,123.76 L 473,123.54 L 483.03000000000003,124.35000000000001 L 492.5,126.16 L 501.33,128.98 L 509.46000000000004,132.78 L 516.8100000000001,137.53 L 523.35,143.20000000000002 L 529.02,149.74 L 533.77,157.09 L 537.57,165.22 L 540.39,174.05 L 542.2,183.52 L 543.01,193.55 L 542.79,204.07 L 541.55,215 L 539.3,226.25 L 536.0600000000001,237.74 L 531.85,249.39000000000001 L 526.7,261.1 L 520.66,272.78000000000003 L 513.76,284.35 L 506.07,295.72 L 497.63,306.8 L 488.52,317.5 L 478.8,327.75 L 468.55,337.47 L 457.85,346.58 L 446.77,355.02 L 435.40000000000003,362.71 L 423.83,369.61 L 412.15000000000003,375.65000000000003 L 400.44,380.8 L 388.79,385.01 L 377.3,388.25 L 366.05,390.5 L 355.12,391.74 L 344.6,391.96000000000004 L 334.57,391.15000000000003 L 325.1,389.34000000000003 L 316.27,386.52 L 308.14,382.72 L 300.79,377.97 L 294.25,372.3 Z" stroke="#ff7f0e" stroke-width="1.5" fill="#ff7f0e" fill-opacity="0.25" /><path d="M 204.25,394.8 L 198.58,388.26 L 193.83,380.91 L 190.03,372.78000000000003 L 187.21,363.95 L 185.4,354.48 L 184.59,344.45 L 184.81,333.93 L 186.05,323 L 188.3,311.75 L 191.54,300.26 L 195.75,288.61 L 200.9,276.90000000000003 L 206.94,265.22 L 213.84,253.65 L 221.53,242.28 L 229.97,231.20000000000002 L 239.08,220.5 L 248.8,210.25 L 259.05,200.53 L 269.75,191.42000000000002 L 280.83,182.98 L 292.2,175.29 L 303.77,168.39000000000001 L 315.45,162.35 L 327.16,157.20000000000002 L 338.81,152.99 L 350.3,149.75 L 361.55,147.5 L 372.48,146.26 L 383,146.04 L 393.03000000000003,146.85 L 402.5,148.66 L 411.33,151.48 L 419.46000000000004,155.28 L 426.81,160.03 L 433.35,165.70000000000002 L 439.02,172.24 L 443.77,179.59 L 447.57,187.72 L 450.39,196.55 L 452.2,206.02 L 453.01,216.05 L 452.79,226.57 L 451.55,237.5 L 449.3,248.75 L 446.06,260.24 L 441.85,271.89 L 436.7,283.6 L 430.66,295.28000000000003 L 423.76,306.85 L 416.07,318.22 L 407.63,329.3 L 398.52,340 L 388.8,350.25 L 378.55,359.97 L 367.85,369.08 L 356.77,377.52 L 345.40000000000003,385.21000000000004 L 333.83,392.11 L 322.15000000000003,398.15000000000003 L 310.44,403.3 L 298.79,407.51 L 287.3,410.75 L 276.05,413 L 265.12,414.24 L 254.6,414.46000000000004 L 244.57,413.65000000000003 L 235.1,411.84000000000003 L 226.27,409.02 L 218.14000000000001,405.22 L 210.79,400.47 L 204.25,394.8 Z" stroke="#2ca02c" stroke-width="1.5" fill="#2ca02c" fill-opacity="0.25" /><path d="M 523.35,394.8 L 516.8100000000001,400.47 L 509.46000000000004,405.22 L 501.33,409.02 L 492.5,411.84000000000003 L 483.03000000000003,413.65000000000003 L 473,414.46000000000004 L 462.48,414.24 L 451.55,413 L 440.3,410.75 L 428.81,407.51 L 417.16,403.3 L 405.45,398.15000000000003 L 393.77,392.11 L 382.2,385.21000000000004 L 370.83,377.52 L 359.75,369.08 L 349.05,359.97 L 338.8,350.25 L 329.08,340 L 319.97,329.3 L 311.53000000000003,318.22 L 303.84000000000003,306.85 L 296.94,295.28000000000003 L 290.90000000000003,283.6 L 285.75,271.89 L 281.54,260.24 L 278.3,248.75 L 276.05,237.5 L 274.81,226.57 L 274.59000000000003,216.05 L 275.40000000000003,206.02 L 277.21,196.55 L 280.03000000000003,187.72 L 283.83,179.59 L 288.58,172.24 L 294.25,165.70000000000002 L 300.79,160.03 L 308.14,155.28 L 316.27,151.48 L 325.1,148.66 L 334.57,146.85 L 344.6,146.04 L 355.12,146.26 L 366.05,147.5 L 377.3,149.75 L 388.79,152.99 L 400.44,157.20000000000002 L 412.15000000000003,162.35 L 423.83,168.39000000000001 L 435.40000000000003,175.29 L 446.77,182.98 L 457.85,191.42000000000002 L 468.55,200.53 L 478.8,210.25 L 488.52,220.5 L 497.63,231.20000000000002 L 506.07,242.28 L 513.76,253.65 L 520.66,265.22 L 526.7,276.90000000000003 L 531.85,288.61 L 536.0600000000001,300.26 L 539.3,311.75 L 541.55,323 L 542.79,333.93 L 543.01,344.45 L 542.2,354.48 L 540.39,363.95 L 537.57,372.78000000000003 L 533.77,380.91 L 529.02,388.26 L 523.35,394.8 Z" stroke="#d62728" stroke-width="1.5" fill="#d62728" fill-opacity="0.25" /><circle cx="239.99" cy="161.11" r="3.42" fill="#1f77b4" stroke="#ffffff" stroke-width="0.6" /><text x="239.99" y="178.41" font-size="9" text-anchor="middle">190</text><circle cx="487.61" cy="161.11" r="3.42" fill="#ff7f0e" stroke="#ffffff" stroke-width="0.6" /><text x="487.61" y="178.41" font-size="9" text-anchor="middle">130</text><circle cx="239.99" cy="342.29" r="3.42" fill="#2ca02c" stroke="#ffffff" stroke-width="0.6" /><text x="239.99" y="359.59000000000003" font-size="9" text-anchor="middle">125</text><circle cx="487.61" cy="342.29" r="3.42" fill="#d62728" stroke="#ffffff" stroke-width="0.6" /><text x="487.61" y="359.59000000000003" font-size="9" text-anchor="middle">105</text><circle cx="246.45000000000002" cy="251.70000000000002" r="3.42" fill="#1f77b4" stroke="#ffffff" stroke-width="0.6" /><circle cx="255.34" cy="251.70000000000002" r="3.42" fill="#2ca02c" stroke="#ffffff" stroke-width="0.6" /><text x="250.89000000000001" y="269" font-size="9" text-anchor="middle">45</text><circle cx="359.35" cy="251.70000000000002" r="3.42" fill="#ff7f0e" stroke="#ffffff" stroke-width="0.6" /><circle cx="368.25" cy="251.70000000000002" r="3.42" fill="#2ca02c" stroke="#ffffff" stroke-width="0.6" /><text x="363.8" y="269" font-size="9" text-anchor="middle">45</text><circle cx="472.26" cy="251.70000000000002" r="3.42" fill="#ff7f0e" stroke="#ffffff" stroke-width="0.6" /><circle cx="481.15000000000003" cy="251.70000000000002" r="3.42" fill="#d62728" stroke="#ffffff" stroke-width="0.6" /><text x="476.71000000000004" y="269" font-size="9" text-anchor="middle">35</text><circle cx="298.81" cy="323.01" r="3.42" fill="#1f77b4" stroke="#ffffff" stroke-width="0.6" /><circle cx="307.7" cy="323.01" r="3.42" fill="#ff7f0e" stroke="#ffffff" stroke-width="0.6" /><circle cx="316.59000000000003" cy="323.01" r="3.42" fill="#2ca02c" stroke="#ffffff" stroke-width="0.6" /><text x="307.7" y="340.31" font-size="9" text-anchor="middle">25</text><circle cx="411.01" cy="180.39000000000001" r="3.42" fill="#ff7f0e" stroke="#ffffff" stroke-width="0.6" /><circle cx="419.90000000000003" cy="180.39000000000001" r="3.42" fill="#2ca02c" stroke="#ffffff" stroke-width="0.6" /><circle cx="428.79" cy="180.39000000000001" r="3.42" fill="#d62728" stroke="#ffffff" stroke-width="0.6" /><text x="419.90000000000003" y="197.69" font-size="9" text-anchor="middle">20</text><circle cx="411.01" cy="323.01" r="3.42" fill="#1f77b4" stroke="#ffffff" stroke-width="0.6" /><circle cx="419.90000000000003" cy="323.01" r="3.42" fill="#ff7f0e" stroke="#ffffff" stroke-width="0.6" /><circle cx="428.79" cy="323.01" r="3.42" fill="#d62728" stroke="#ffffff" stroke-width="0.6" /><text x="419.90000000000003" y="340.31" font-size="9" text-anchor="middle">15</text><circle cx="298.81" cy="180.39000000000001" r="3.42" fill="#1f77b4" stroke="#ffffff" stroke-width="0.6" /><circle cx="307.7" cy="180.39000000000001" r="3.42" fill="#2ca02c" stroke="#ffffff" stroke-width="0.6" /><circle cx="316.59000000000003" cy="180.39000000000001" r="3.42" fill="#d62728" stroke="#ffffff" stroke-width="0.6" /><text x="307.7" y="197.69" font-size="9" text-anchor="middle">10</text><text x="168.72" y="174.24" font-size="13" text-anchor="end" font-weight="bold">Condition A</text><text x="558.88" y="174.24" font-size="13" text-anchor="start" font-weight="bold">Condition B</text><text x="168.72" y="372.86" font-size="13" text-anchor="end" font-weight="bold">Condition C</text><text x="558.88" y="372.86" font-size="13" text-anchor="start" font-weight="bold">Condition D</text><rect x="668.8000000000001" y="34" width="128" height="92" fill="#ffffff" /><rect x="668.8000000000001" y="34" width="128" height="92" fill="none" stroke="#000000" stroke-width="1" /><text x="698.8000000000001" y="53.2" font-size="12" text-anchor="start">Condition A</text><circle cx="683.8000000000001" cy="49" r="5" fill="#1f77b4" /><text x="698.8000000000001" y="71.2" font-size="12" text-anchor="start">Condition B</text><circle cx="683.8000000000001" cy="67" r="5" fill="#ff7f0e" /><text x="698.8000000000001" y="89.2" font-size="12" text-anchor="start">Condition C</text><circle cx="683.8000000000001" cy="85" r="5" fill="#2ca02c" /><text x="698.8000000000001" y="107.2" font-size="12" text-anchor="start">Condition D</text><circle cx="683.8000000000001" cy="103" r="5" fill="#d62728" /></svg>