<svg xmlns="http://www.w3.org/2000/svg" width="678.2" height="545" font-family="DejaVu Sans, Liberation Sans, Arial, sans-serif" fill="black"><rect width="100%" height="100%" fill="white" /><text x="339.1" y="27.400000000000002" font-size="18" text-anchor="middle">Multi-omics Overlap (Proportional)</text><circle cx="363.8" cy="219.67000000000002" r="85.21000000000001" fill="#1f77b4" fill-opacity="0.25" stroke="#1f77b4" stroke-width="1.5" /><circle cx="299.72" cy="325.04" r="101.25" fill="#ff7f0e" fill-opacity="0.25" stroke="#ff7f0e" stroke-width="1.5" /><circle cx="428.95" cy="321.79" r="71.59" fill="#2ca02c" fill-opacity="0.25" stroke="#2ca02c" stroke-width="1.5" /><circle cx="370.11" cy="173.83" r="4.5600000000000005" fill="#1f77b4" stroke="#ffffff" stroke-width="0.6" /><text x="370.11" y="196.23000000000002" font-size="12" text-anchor="middle">440</text><circle cx="281.31" cy="316.96" r="4.5600000000000005" fill="#ff7f0e" stroke="#ffffff" stroke-width="0.6" /><text x="281.31" y="339.36" font-size="12" text-anchor="middle">720</text><circle cx="323.09000000000003" cy="238.84" r="4.5600000000000005" fill="#1f77b4" stroke="#ffffff" stroke-width="0.6" /><circle cx="334.95" cy="238.84" r="4.5600000000000005" fill="#ff7f0e" stroke="#ffffff" stroke-width="0.6" /><text x="329.02" y="261.24" font-size="12" text-anchor="middle">230</text><circle cx="446.51" cy="306.05" r="4.5600000000000005" fill="#2ca02c" stroke="#ffffff" stroke-width="0.6" /><text x="446.51" y="328.45" font-size="12" text-anchor="middle">260</text><circle cx="405.2" cy="248.20000000000002" r="4.5600000000000005" fill="#1f77b4" stroke="#ffffff" stroke-width="0.6" /><circle cx="417.06" cy="248.20000000000002" r="4.5600000000000005" fill="#2ca02c" stroke="#ffffff" stroke-width="0.6" /><text x="411.13" y="270.6" font-size="12" text-anchor="middle">90</text><circle cx="374.16" cy="310.5" r="4.5600000000000005" fill="#ff7f0e" stroke="#ffffff" stroke-width="0.6" /><circle cx="386.02" cy="310.5" r="4.5600000000000005" fill="#2ca02c" stroke="#ffffff" stroke-width="0.6" /><text x="380.09000000000003" y="332.90000000000003" font-size="12" text-anchor="middle">160</text><circle cx="367.78000000000003" cy="266.91" r="4.5600000000000005" fill="#1f77b4" stroke="#ffffff" stroke-width="0.6" /><circle cx="379.63" cy="266.91" r="4.5600000000000005" fill="#ff7f0e" stroke="#ffffff" stroke-width="0.6" /><circle cx="391.49" cy="266.91" r="4.5600000000000005" fill="#2ca02c" stroke="#ffffff" stroke-width="0.6" /><text x="379.63" y="289.31" font-size="12" text-anchor="middle">90</text><text x="363.8" y="120" font-size="13" text-anchor="middle" font-weight="bold">Proteomics</text><text x="209.20000000000002" y="408.75" font-size="13" text-anchor="end" font-weight="bold">Transcriptomics</text><text x="499.34000000000003" y="383.37" font-size="13" text-anchor="start" font-weight="bold">Metabolomics</text><rect x="561.2" y="448" width="94.60000000000001" height="38" fill="#ffffff" stroke="#cccccc" stroke-width="0.8" fill-opacity="0.92" /><rect x="561.2" y="448" width="94.60000000000001" height="19" fill="#f0f0f0" fill-opacity="0.92" /><text x="568.2" y="460.5" font-size="10" text-anchor="start" font-weight="bold">Layout stress</text><text x="568.2" y="474.5" font-size="10" text-anchor="start">0.194</text></svg>