<svg xmlns="http://www.w3.org/2000/svg" width="800.2" height="545" font-family="DejaVu Sans, Liberation Sans, Arial, sans-serif" fill="black"><rect width="100%" height="100%" fill="white" /><defs><clipPath id="kuva-clip-2"><rect x="78.2" y="44" width="600" height="450"/></clipPath></defs><line x1="78.2" y1="494" x2="678.2" y2="494" stroke="#000000" stroke-width="1" /><line x1="78.2" y1="44" x2="78.2" y2="494" stroke="#000000" stroke-width="1" /><text x="70.2" y="453.2" font-size="12" text-anchor="end">PIK3CA</text><line x1="73.2" y1="449" x2="78.2" y2="449" stroke="#000000" stroke-width="1" /><text x="70.2" y="408.2" font-size="12" text-anchor="end">KRAS</text><line x1="73.2" y1="404" x2="78.2" y2="404" stroke="#000000" stroke-width="1" /><text x="70.2" y="363.2" font-size="12" text-anchor="end">CDKN2A</text><line x1="73.2" y1="359" x2="78.2" y2="359" stroke="#000000" stroke-width="1" /><text x="70.2" y="318.2" font-size="12" text-anchor="end">VEGFA</text><line x1="73.2" y1="314" x2="78.2" y2="314" stroke="#000000" stroke-width="1" /><text x="70.2" y="273.2" font-size="12" text-anchor="end">EGFR</text><line x1="73.2" y1="269" x2="78.2" y2="269" stroke="#000000" stroke-width="1" /><text x="70.2" y="228.20000000000002" font-size="12" text-anchor="end">MYC</text><line x1="73.2" y1="224" x2="78.2" y2="224" stroke="#000000" stroke-width="1" /><text x="70.2" y="183.20000000000002" font-size="12" text-anchor="end">TP53</text><line x1="73.2" y1="179" x2="78.2" y2="179" stroke="#000000" stroke-width="1" /><text x="70.2" y="138.20000000000002" font-size="12" text-anchor="end">BRCA1</text><line x1="73.2" y1="134" x2="78.2" y2="134" stroke="#000000" stroke-width="1" /><line x1="78.2" y1="494" x2="78.2" y2="499" stroke="#000000" stroke-width="1" /><text x="78.2" y="511" font-size="12" text-anchor="middle">0</text><line x1="198.20000000000002" y1="494" x2="198.20000000000002" y2="499" stroke="#000000" stroke-width="1" /><text x="198.20000000000002" y="511" font-size="12" text-anchor="middle">2</text><line x1="318.2" y1="494" x2="318.2" y2="499" stroke="#000000" stroke-width="1" /><text x="318.2" y="511" font-size="12" text-anchor="middle">4</text><line x1="438.2" y1="494" x2="438.2" y2="499" stroke="#000000" stroke-width="1" /><text x="438.2" y="511" font-size="12" text-anchor="middle">6</text><line x1="558.2" y1="494" x2="558.2" y2="499" stroke="#000000" stroke-width="1" /><text x="558.2" y="511" font-size="12" text-anchor="middle">8</text><line x1="678.2" y1="494" x2="678.2" y2="499" stroke="#000000" stroke-width="1" /><text x="678.2" y="511" font-size="12" text-anchor="middle">10</text><text x="378.2" y="538" font-size="14" text-anchor="middle">log₂ Expression</text><text x="400.1" y="27.400000000000002" font-size="18" text-anchor="middle">Gene Expression: Control vs Treatment</text><g clip-path="url(#kuva-clip-2)"><path d="M 330.2,134 L 546.2,134" stroke="#2ca02c" stroke-width="2.5" fill="none" fill-opacity="0.7000000000000001" /><circle cx="330.2" cy="134" r="6" fill="#2ca02c" stroke="#ffffff" stroke-width="1.5" /><circle cx="546.2" cy="134" r="6" fill="#2ca02c" stroke="#ffffff" stroke-width="1.5" /><path d="M 444.2,179 L 402.2,179" stroke="#d62728" stroke-width="2.5" fill="none" fill-opacity="0.7000000000000001" /><circle cx="444.2" cy="179" r="6" fill="#d62728" stroke="#ffffff" stroke-width="1.5" /><circle cx="402.2" cy="179" r="6" fill="#d62728" stroke="#ffffff" stroke-width="1.5" /><path d="M 276.2,224 L 612.2,224" stroke="#2ca02c" stroke-width="2.5" fill="none" fill-opacity="0.7000000000000001" /><circle cx="276.2" cy="224" r="6" fill="#2ca02c" stroke="#ffffff" stroke-width="1.5" /><circle cx="612.2" cy="224" r="6" fill="#2ca02c" stroke="#ffffff" stroke-width="1.5" /><path d="M 528.2,269 L 450.2,269" stroke="#d62728" stroke-width="2.5" fill="none" fill-opacity="0.7000000000000001" /><circle cx="528.2" cy="269" r="6" fill="#d62728" stroke="#ffffff" stroke-width="1.5" /><circle cx="450.2" cy="269" r="6" fill="#d62728" stroke="#ffffff" stroke-width="1.5" /><path d="M 246.20000000000002,314 L 384.2,314" stroke="#2ca02c" stroke-width="2.5" fill="none" fill-opacity="0.7000000000000001" /><circle cx="246.20000000000002" cy="314" r="6" fill="#2ca02c" stroke="#ffffff" stroke-width="1.5" /><circle cx="384.2" cy="314" r="6" fill="#2ca02c" stroke="#ffffff" stroke-width="1.5" /><path d="M 432.2,359 L 336.2,359" stroke="#d62728" stroke-width="2.5" fill="none" fill-opacity="0.7000000000000001" /><circle cx="432.2" cy="359" r="6" fill="#d62728" stroke="#ffffff" stroke-width="1.5" /><circle cx="336.2" cy="359" r="6" fill="#d62728" stroke="#ffffff" stroke-width="1.5" /><path d="M 564.2,404 L 534.2,404" stroke="#d62728" stroke-width="2.5" fill="none" fill-opacity="0.7000000000000001" /><circle cx="564.2" cy="404" r="6" fill="#d62728" stroke="#ffffff" stroke-width="1.5" /><circle cx="534.2" cy="404" r="6" fill="#d62728" stroke="#ffffff" stroke-width="1.5" /><path d="M 294.2,449 L 480.2,449" stroke="#2ca02c" stroke-width="2.5" fill="none" fill-opacity="0.7000000000000001" /><circle cx="294.2" cy="449" r="6" fill="#2ca02c" stroke="#ffffff" stroke-width="1.5" /><circle cx="480.2" cy="449" r="6" fill="#2ca02c" stroke="#ffffff" stroke-width="1.5" /><text x="389.45" y="36" font-size="11" text-anchor="middle" font-weight="bold">Control</text><text x="468.2" y="36" font-size="11" text-anchor="middle" font-weight="bold">Treatment</text></g><rect x="683.2" y="34" width="104" height="56" fill="#ffffff" /><rect x="683.2" y="34" width="104" height="56" fill="none" stroke="#000000" stroke-width="1" /><text x="713.2" y="53.2" font-size="12" text-anchor="start">Increase</text><circle cx="698.2" cy="49" r="5" fill="#2ca02c" /><text x="713.2" y="71.2" font-size="12" text-anchor="start">Decrease</text><circle cx="698.2" cy="67" r="5" fill="#d62728" /></svg>