<svg xmlns="http://www.w3.org/2000/svg" width="735.8000000000001" height="545" font-family="DejaVu Sans, Liberation Sans, Arial, sans-serif" fill="black"><rect width="100%" height="100%" fill="white" /><defs><clipPath id="kuva-clip-3"><rect x="114.2" y="44" width="600" height="450"/></clipPath></defs><line x1="114.2" y1="494" x2="714.2" y2="494" stroke="#000000" stroke-width="1" /><line x1="114.2" y1="44" x2="114.2" y2="494" stroke="#000000" stroke-width="1" /><text x="106.2" y="433.91" font-size="12" text-anchor="end">Netherlands</text><line x1="109.2" y1="429.71000000000004" x2="114.2" y2="429.71000000000004" stroke="#000000" stroke-width="1" /><text x="106.2" y="369.63" font-size="12" text-anchor="end">Poland</text><line x1="109.2" y1="365.43" x2="114.2" y2="365.43" stroke="#000000" stroke-width="1" /><text x="106.2" y="305.34000000000003" font-size="12" text-anchor="end">Spain</text><line x1="109.2" y1="301.14" x2="114.2" y2="301.14" stroke="#000000" stroke-width="1" /><text x="106.2" y="241.06" font-size="12" text-anchor="end">Italy</text><line x1="109.2" y1="236.86" x2="114.2" y2="236.86" stroke="#000000" stroke-width="1" /><text x="106.2" y="176.77" font-size="12" text-anchor="end">France</text><line x1="109.2" y1="172.57" x2="114.2" y2="172.57" stroke="#000000" stroke-width="1" /><text x="106.2" y="112.49000000000001" font-size="12" text-anchor="end">Germany</text><line x1="109.2" y1="108.29" x2="114.2" y2="108.29" stroke="#000000" stroke-width="1" /><line x1="114.2" y1="494" x2="114.2" y2="499" stroke="#000000" stroke-width="1" /><text x="114.2" y="511" font-size="12" text-anchor="middle">55</text><line x1="234.20000000000002" y1="494" x2="234.20000000000002" y2="499" stroke="#000000" stroke-width="1" /><text x="234.20000000000002" y="511" font-size="12" text-anchor="middle">60</text><line x1="354.2" y1="494" x2="354.2" y2="499" stroke="#000000" stroke-width="1" /><text x="354.2" y="511" font-size="12" text-anchor="middle">65</text><line x1="474.2" y1="494" x2="474.2" y2="499" stroke="#000000" stroke-width="1" /><text x="474.2" y="511" font-size="12" text-anchor="middle">70</text><line x1="594.2" y1="494" x2="594.2" y2="499" stroke="#000000" stroke-width="1" /><text x="594.2" y="511" font-size="12" text-anchor="middle">75</text><line x1="714.2" y1="494" x2="714.2" y2="499" stroke="#000000" stroke-width="1" /><text x="714.2" y="511" font-size="12" text-anchor="middle">80</text><text x="414.2" y="538" font-size="14" text-anchor="middle">Employment rate (%)</text><text x="367.90000000000003" y="27.400000000000002" font-size="18" text-anchor="middle">Employment Rate (uniform color)</text><g clip-path="url(#kuva-clip-3)"><path d="M 431,108.29 L 510.2,108.29" stroke="#4682b4" stroke-width="2.5" fill="none" fill-opacity="0.7000000000000001" /><circle cx="431" cy="108.29" r="6" fill="#4682b4" stroke="#ffffff" stroke-width="1.5" /><circle cx="510.2" cy="108.29" r="6" fill="#4682b4" stroke="#ffffff" stroke-width="1.5" /><path d="M 476.6,172.57 L 447.8,172.57" stroke="#4682b4" stroke-width="2.5" fill="none" fill-opacity="0.7000000000000001" /><circle cx="476.6" cy="172.57" r="6" fill="#4682b4" stroke="#ffffff" stroke-width="1.5" /><circle cx="447.8" cy="172.57" r="6" fill="#4682b4" stroke="#ffffff" stroke-width="1.5" /><path d="M 361.40000000000003,236.86 L 452.6,236.86" stroke="#4682b4" stroke-width="2.5" fill="none" fill-opacity="0.7000000000000001" /><circle cx="361.40000000000003" cy="236.86" r="6" fill="#4682b4" stroke="#ffffff" stroke-width="1.5" /><circle cx="452.6" cy="236.86" r="6" fill="#4682b4" stroke="#ffffff" stroke-width="1.5" /><path d="M 531.8,301.14 L 589.4,301.14" stroke="#4682b4" stroke-width="2.5" fill="none" fill-opacity="0.7000000000000001" /><circle cx="531.8" cy="301.14" r="6" fill="#4682b4" stroke="#ffffff" stroke-width="1.5" /><circle cx="589.4" cy="301.14" r="6" fill="#4682b4" stroke="#ffffff" stroke-width="1.5" /><path d="M 200.6,365.43 L 311,365.43" stroke="#4682b4" stroke-width="2.5" fill="none" fill-opacity="0.7000000000000001" /><circle cx="200.6" cy="365.43" r="6" fill="#4682b4" stroke="#ffffff" stroke-width="1.5" /><circle cx="311" cy="365.43" r="6" fill="#4682b4" stroke="#ffffff" stroke-width="1.5" /><path d="M 577.4,429.71000000000004 L 620.6,429.71000000000004" stroke="#4682b4" stroke-width="2.5" fill="none" fill-opacity="0.7000000000000001" /><circle cx="577.4" cy="429.71000000000004" r="6" fill="#4682b4" stroke="#ffffff" stroke-width="1.5" /><circle cx="620.6" cy="429.71000000000004" r="6" fill="#4682b4" stroke="#ffffff" stroke-width="1.5" /><text x="429.8" y="36" font-size="11" text-anchor="middle" font-weight="bold">Before</text><text x="488.6" y="36" font-size="11" text-anchor="middle" font-weight="bold">After</text></g></svg>