<svg xmlns="http://www.w3.org/2000/svg" width="686.2" height="545" font-family="DejaVu Sans, Liberation Sans, Arial, sans-serif" fill="black"><rect width="100%" height="100%" fill="white" /><text x="372.2" y="22" font-size="18" text-anchor="middle">Donut Chart</text><path d="M592.2,269 A220,220 0 0,1 194.21626123751156,398.3127555043441 L323.6589803375031,304.2671151375484 A60,60 0 0,0 432.2,269 Z" stroke="#4682b4" stroke-width="1" fill="#4682b4" /><text x="415.46000000000004" y="402.15000000000003" font-size="12" text-anchor="middle">Rust</text><path d="M194.21626123751156,398.3127555043441 A220,220 0 0,1 304.2162612375115,59.76756641506623 L353.6589803375031,211.93660902229078 A60,60 0 0,0 323.6589803375031,304.2671151375484 Z" stroke="#ff6347" stroke-width="1" fill="#ff6347" /><text x="239.05" y="225.74" font-size="12" text-anchor="middle">Python</text><path d="M304.2162612375115,59.76756641506623 A220,220 0 0,1 550.1837387624885,139.68724449565588 L420.74101966249685,233.7328848624516 A60,60 0 0,0 353.6589803375031,211.93660902229078 Z" stroke="seagreen" stroke-width="1" fill="seagreen" /><text x="415.46000000000004" y="135.85" font-size="12" text-anchor="middle">R</text><path d="M550.1837387624885,139.68724449565588 A220,220 0 0,1 592.2,268.99999999999994 L432.2,269 A60,60 0 0,0 420.74101966249685,233.7328848624516 Z" stroke="#ffd700" stroke-width="1" fill="#ffd700" /><text x="505.35" y="225.74" font-size="12" text-anchor="middle">Other</text></svg>