<svg xmlns="http://www.w3.org/2000/svg" width="678.2" height="545" font-family="DejaVu Sans, Liberation Sans, Arial, sans-serif" fill="black"><rect width="100%" height="100%" fill="white" /><text x="339.1" y="27.400000000000002" font-size="18" text-anchor="middle">Donut Chart</text><path d="M583.8,269 A220,220 0 0,1 185.81626123751158,398.3127555043441 L315.25898033750315,304.2671151375484 A60,60 0 0,0 423.8,269 Z" stroke="#4682b4" stroke-width="1" fill="#4682b4" /><text x="407.06" y="402.15000000000003" font-size="12" text-anchor="middle">Rust</text><path d="M185.81626123751158,398.3127555043441 A220,220 0 0,1 295.8162612375115,59.76756641506623 L345.25898033750315,211.93660902229078 A60,60 0 0,0 315.25898033750315,304.2671151375484 Z" stroke="#ff6347" stroke-width="1" fill="#ff6347" /><text x="230.65" y="225.74" font-size="12" text-anchor="middle">Python</text><path d="M295.8162612375115,59.76756641506623 A220,220 0 0,1 541.7837387624884,139.68724449565588 L412.3410196624969,233.7328848624516 A60,60 0 0,0 345.25898033750315,211.93660902229078 Z" stroke="seagreen" stroke-width="1" fill="seagreen" /><text x="407.06" y="135.85" font-size="12" text-anchor="middle">R</text><path d="M541.7837387624884,139.68724449565588 A220,220 0 0,1 583.8,268.99999999999994 L423.8,269 A60,60 0 0,0 412.3410196624969,233.7328848624516 Z" stroke="#ffd700" stroke-width="1" fill="#ffd700" /><text x="496.95" y="225.74" font-size="12" text-anchor="middle">Other</text></svg>