<svg xmlns="http://www.w3.org/2000/svg" width="848.7" height="545" font-family="DejaVu Sans, Liberation Sans, Arial, sans-serif" fill="black"><rect width="100%" height="100%" fill="white" /><text x="372.2" y="22" font-size="18" text-anchor="middle">Pie with Legend</text><path d="M372.2,269 L587.2,269 A215,215 0 0,1 198.26134620938632,395.37382924288175 Z" stroke="seagreen" stroke-width="1" fill="seagreen" /><path d="M372.2,269 L198.26134620938632,395.37382924288175 A215,215 0 0,1 372.19999999999993,54 Z" stroke="#ff8c00" stroke-width="1" fill="#ff8c00" /><path d="M372.2,269 L372.19999999999993,54 A215,215 0 0,1 587.2,268.99999999999994 Z" stroke="mediumpurple" stroke-width="1" fill="mediumpurple" /><rect x="677.2" y="34" width="162.5" height="74" fill="#ffffff" /><rect x="677.2" y="34" width="162.5" height="74" fill="none" stroke="#000000" stroke-width="1" /><text x="707.2" y="53.2" font-size="12" text-anchor="start">Apples (40.0%)</text><rect x="687.2" y="43" width="12" height="12" fill="seagreen" /><text x="707.2" y="71.2" font-size="12" text-anchor="start">Oranges (35.0%)</text><rect x="687.2" y="61" width="12" height="12" fill="#ff8c00" /><text x="707.2" y="89.2" font-size="12" text-anchor="start">Grapes (25.0%)</text><rect x="687.2" y="79" width="12" height="12" fill="mediumpurple" /></svg>