<svg xmlns="http://www.w3.org/2000/svg" width="737" height="545" font-family="DejaVu Sans, Liberation Sans, Arial, sans-serif" fill="black"><rect width="100%" height="100%" fill="white" /><text x="397.6" y="22" font-size="18" text-anchor="middle">Outside Labels</text><path d="M397.59999999999997,269 L617.5999999999999,269 A220,220 0 0,1 329.61626123751154,478.2324335849338 Z" stroke="seagreen" stroke-width="1" fill="seagreen" /><path d="M397.59999999999997,269 L329.61626123751154,478.2324335849338 A220,220 0 0,1 188.36756641506616,201.0162612375116 Z" stroke="#ff8c00" stroke-width="1" fill="#ff8c00" /><path d="M397.59999999999997,269 L188.36756641506616,201.0162612375116 A220,220 0 0,1 397.5999999999999,49 Z" stroke="#ffd700" stroke-width="1" fill="#ffd700" /><path d="M397.59999999999997,269 L397.5999999999999,49 A220,220 0 0,1 548.2003633043114,108.62690196728946 Z" stroke="mediumpurple" stroke-width="1" fill="mediumpurple" /><path d="M397.59999999999997,269 L548.2003633043114,108.62690196728946 A220,220 0 0,1 606.8324335849337,201.01626123751151 Z" stroke="#ff7f50" stroke-width="1" fill="#ff7f50" /><path d="M397.59999999999997,269 L606.8324335849337,201.01626123751151 A220,220 0 0,1 617.5999999999999,268.99999999999994 Z" stroke="olivedrab" stroke-width="1" fill="olivedrab" /><line x1="529.85" y1="451.03000000000003" x2="538.67" y2="463.16" stroke="#666666" stroke-width="1" /><line x1="538.67" y1="463.16" x2="647.6" y2="463.16" stroke="#666666" stroke-width="1" /><text x="647.6" y="463.16" font-size="12" text-anchor="start">Apples</text><line x1="197.12" y1="371.15000000000003" x2="183.76" y2="377.96" stroke="#666666" stroke-width="1" /><line x1="183.76" y1="377.96" x2="147.6" y2="377.96" stroke="#666666" stroke-width="1" /><text x="147.6" y="377.96" font-size="12" text-anchor="end">Oranges</text><line x1="265.35" y1="86.97" x2="256.53000000000003" y2="74.84" stroke="#666666" stroke-width="1" /><line x1="256.53000000000003" y1="74.84" x2="147.6" y2="74.84" stroke="#666666" stroke-width="1" /><text x="147.6" y="74.84" font-size="12" text-anchor="end">Bananas</text><line x1="480.43" y1="59.800000000000004" x2="485.95" y2="45.85" stroke="#666666" stroke-width="1" /><line x1="485.95" y1="45.85" x2="647.6" y2="45.85" stroke="#666666" stroke-width="1" /><text x="647.6" y="45.85" font-size="12" text-anchor="start">Grapes</text><line x1="587.57" y1="148.44" x2="600.24" y2="140.4" stroke="#666666" stroke-width="1" /><line x1="600.24" y1="140.4" x2="647.6" y2="140.4" stroke="#666666" stroke-width="1" /><text x="647.6" y="140.4" font-size="12" text-anchor="start">Mango</text><line x1="619.83" y1="233.8" x2="634.65" y2="231.46" stroke="#666666" stroke-width="1" /><line x1="634.65" y1="231.46" x2="647.6" y2="231.46" stroke="#666666" stroke-width="1" /><text x="647.6" y="231.46" font-size="12" text-anchor="start">Kiwi</text></svg>