<svg xmlns="http://www.w3.org/2000/svg" width="729" height="545" font-family="DejaVu Sans, Liberation Sans, Arial, sans-serif" fill="black"><rect width="100%" height="100%" fill="white" /><text x="389.2" y="22" font-size="18" text-anchor="middle">Outside Labels</text><path d="M389.2,269 L609.2,269 A220,220 0 0,1 321.21626123751156,478.2324335849338 Z" stroke="seagreen" stroke-width="1" fill="seagreen" /><path d="M389.2,269 L321.21626123751156,478.2324335849338 A220,220 0 0,1 179.9675664150662,201.0162612375116 Z" stroke="#ff8c00" stroke-width="1" fill="#ff8c00" /><path d="M389.2,269 L179.9675664150662,201.0162612375116 A220,220 0 0,1 389.19999999999993,49 Z" stroke="#ffd700" stroke-width="1" fill="#ffd700" /><path d="M389.2,269 L389.19999999999993,49 A220,220 0 0,1 539.8003633043115,108.62690196728946 Z" stroke="mediumpurple" stroke-width="1" fill="mediumpurple" /><path d="M389.2,269 L539.8003633043115,108.62690196728946 A220,220 0 0,1 598.4324335849337,201.01626123751151 Z" stroke="#ff7f50" stroke-width="1" fill="#ff7f50" /><path d="M389.2,269 L598.4324335849337,201.01626123751151 A220,220 0 0,1 609.2,268.99999999999994 Z" stroke="olivedrab" stroke-width="1" fill="olivedrab" /><line x1="521.45" y1="451.03000000000003" x2="530.27" y2="463.16" stroke="#666666" stroke-width="1" /><line x1="530.27" y1="463.16" x2="639.2" y2="463.16" stroke="#666666" stroke-width="1" /><text x="639.2" y="463.16" font-size="12" text-anchor="start">Apples</text><line x1="188.72" y1="371.15000000000003" x2="175.36" y2="377.96" stroke="#666666" stroke-width="1" /><line x1="175.36" y1="377.96" x2="139.20000000000002" y2="377.96" stroke="#666666" stroke-width="1" /><text x="139.20000000000002" y="377.96" font-size="12" text-anchor="end">Oranges</text><line x1="256.95" y1="86.97" x2="248.13" y2="74.84" stroke="#666666" stroke-width="1" /><line x1="248.13" y1="74.84" x2="139.20000000000002" y2="74.84" stroke="#666666" stroke-width="1" /><text x="139.20000000000002" y="74.84" font-size="12" text-anchor="end">Bananas</text><line x1="472.03000000000003" y1="59.800000000000004" x2="477.55" y2="45.85" stroke="#666666" stroke-width="1" /><line x1="477.55" y1="45.85" x2="639.2" y2="45.85" stroke="#666666" stroke-width="1" /><text x="639.2" y="45.85" font-size="12" text-anchor="start">Grapes</text><line x1="579.17" y1="148.44" x2="591.84" y2="140.4" stroke="#666666" stroke-width="1" /><line x1="591.84" y1="140.4" x2="639.2" y2="140.4" stroke="#666666" stroke-width="1" /><text x="639.2" y="140.4" font-size="12" text-anchor="start">Mango</text><line x1="611.4300000000001" y1="233.8" x2="626.25" y2="231.46" stroke="#666666" stroke-width="1" /><line x1="626.25" y1="231.46" x2="639.2" y2="231.46" stroke="#666666" stroke-width="1" /><text x="639.2" y="231.46" font-size="12" text-anchor="start">Kiwi</text></svg>