<svg xmlns="http://www.w3.org/2000/svg" width="280" height="220" font-family="DejaVu Sans, Liberation Sans, Arial, sans-serif" fill="black"><rect width="100%" height="100%" fill="white" /><defs><clipPath id="kuva-clip-5"><rect x="63.800000000000004" y="44" width="198.20000000000002" height="125"/></clipPath></defs><line x1="113.35000000000001" y1="44" x2="113.35000000000001" y2="169" stroke="#cccccc" stroke-width="1" /><line x1="162.9" y1="44" x2="162.9" y2="169" stroke="#cccccc" stroke-width="1" /><line x1="212.45000000000002" y1="44" x2="212.45000000000002" y2="169" stroke="#cccccc" stroke-width="1" /><line x1="262" y1="44" x2="262" y2="169" stroke="#cccccc" stroke-width="1" /><line x1="63.800000000000004" y1="137.75" x2="262" y2="137.75" stroke="#cccccc" stroke-width="1" /><line x1="63.800000000000004" y1="106.5" x2="262" y2="106.5" stroke="#cccccc" stroke-width="1" /><line x1="63.800000000000004" y1="75.25" x2="262" y2="75.25" stroke="#cccccc" stroke-width="1" /><line x1="63.800000000000004" y1="44" x2="262" y2="44" stroke="#cccccc" stroke-width="1" /><line x1="63.800000000000004" y1="169" x2="262" y2="169" stroke="#000000" stroke-width="1" /><line x1="63.800000000000004" y1="44" x2="63.800000000000004" y2="169" stroke="#000000" stroke-width="1" /><line x1="63.800000000000004" y1="169" x2="63.800000000000004" y2="174" stroke="#000000" stroke-width="1" /><text x="63.800000000000004" y="186" font-size="12" text-anchor="middle">-10</text><line x1="113.35000000000001" y1="169" x2="113.35000000000001" y2="174" stroke="#000000" stroke-width="1" /><text x="113.35000000000001" y="186" font-size="12" text-anchor="middle">-5</text><line x1="162.9" y1="169" x2="162.9" y2="174" stroke="#000000" stroke-width="1" /><text x="162.9" y="186" font-size="12" text-anchor="middle">0</text><line x1="212.45000000000002" y1="169" x2="212.45000000000002" y2="174" stroke="#000000" stroke-width="1" /><text x="212.45000000000002" y="186" font-size="12" text-anchor="middle">5</text><line x1="262" y1="169" x2="262" y2="174" stroke="#000000" stroke-width="1" /><text x="262" y="186" font-size="12" text-anchor="middle">10</text><line x1="58.800000000000004" y1="169" x2="63.800000000000004" y2="169" stroke="#000000" stroke-width="1" /><text x="55.800000000000004" y="173.20000000000002" font-size="12" text-anchor="end">0</text><line x1="58.800000000000004" y1="137.75" x2="63.800000000000004" y2="137.75" stroke="#000000" stroke-width="1" /><text x="55.800000000000004" y="141.95000000000002" font-size="12" text-anchor="end">0.05</text><line x1="58.800000000000004" y1="106.5" x2="63.800000000000004" y2="106.5" stroke="#000000" stroke-width="1" /><text x="55.800000000000004" y="110.7" font-size="12" text-anchor="end">0.1</text><line x1="58.800000000000004" y1="75.25" x2="63.800000000000004" y2="75.25" stroke="#000000" stroke-width="1" /><text x="55.800000000000004" y="79.45" font-size="12" text-anchor="end">0.15</text><line x1="58.800000000000004" y1="44" x2="63.800000000000004" y2="44" stroke="#000000" stroke-width="1" /><text x="55.800000000000004" y="48.2" font-size="12" text-anchor="end">0.2</text><text x="162.9" y="213" font-size="14" text-anchor="middle">Value</text><text x="15" y="110" font-size="14" text-anchor="middle" transform="rotate(-90,15,110)">Density</text><text x="140" y="27.400000000000002" font-size="18" text-anchor="middle">h = 2.0 (too wide)</text><g clip-path="url(#kuva-clip-5)"><path d="M 82.10000000000001 168.88 L 82.9 168.86 L 83.7 168.84 L 84.5 168.81 L 85.3 168.79 L 86.09 168.75 L 86.89 168.72 L 87.69 168.68 L 88.49 168.64000000000001 L 89.29 168.59 L 90.09 168.53 L 90.89 168.47 L 91.69 168.4 L 92.49 168.32 L 93.29 168.23 L 94.09 168.13 L 94.89 168.03 L 95.69 167.9 L 96.49000000000001 167.77 L 97.29 167.63 L 98.09 167.47 L 98.88 167.29 L 99.68 167.09 L 100.48 166.88 L 101.28 166.65 L 102.08 166.39000000000001 L 102.88 166.11 L 103.68 165.81 L 104.48 165.48 L 105.28 165.12 L 106.08 164.74 L 106.88 164.32 L 107.68 163.86 L 108.48 163.37 L 109.28 162.85 L 110.08 162.28 L 110.88 161.67000000000002 L 111.68 161.02 L 112.47 160.33 L 113.27 159.58 L 114.07000000000001 158.79 L 114.87 157.95000000000002 L 115.67 157.05 L 116.47 156.1 L 117.27 155.1 L 118.07000000000001 154.04 L 118.87 152.92000000000002 L 119.67 151.74 L 120.47 150.5 L 121.27 149.20000000000002 L 122.07000000000001 147.83 L 122.87 146.41 L 123.67 144.93 L 124.47 143.38 L 125.27 141.77 L 126.06 140.1 L 126.86 138.37 L 127.66 136.58 L 128.46 134.73 L 129.26 132.83 L 130.06 130.87 L 130.86 128.87 L 131.66 126.81 L 132.46 124.71000000000001 L 133.26 122.56 L 134.06 120.38 L 134.86 118.16 L 135.66 115.91 L 136.46 113.64 L 137.26 111.34 L 138.06 109.03 L 138.86 106.7 L 139.65 104.37 L 140.45000000000002 102.04 L 141.25 99.71000000000001 L 142.05 97.39 L 142.85 95.09 L 143.65 92.82000000000001 L 144.45000000000002 90.57000000000001 L 145.25 88.36 L 146.05 86.19 L 146.85 84.07000000000001 L 147.65 82.0 L 148.45000000000002 80.0 L 149.25 78.06 L 150.05 76.19 L 150.85 74.4 L 151.65 72.7 L 152.44 71.08 L 153.24 69.56 L 154.04 68.14 L 154.84 66.83 L 155.64000000000001 65.62 L 156.44 64.52 L 157.24 63.54 L 158.04 62.68 L 158.84 61.940000000000005 L 159.64000000000001 61.33 L 160.44 60.84 L 161.24 60.480000000000004 L 162.04 60.25 L 162.84 60.15 L 163.64000000000001 60.19 L 164.44 60.35 L 165.24 60.64 L 166.03 61.06 L 166.83 61.61 L 167.63 62.28 L 168.43 63.08 L 169.23 64.0 L 170.03 65.04 L 170.83 66.19 L 171.63 67.45 L 172.43 68.82000000000001 L 173.23 70.29 L 174.03 71.85000000000001 L 174.83 73.51 L 175.63 75.26 L 176.43 77.09 L 177.23 78.99 L 178.03 80.96000000000001 L 178.83 83.0 L 179.62 85.10000000000001 L 180.42000000000002 87.24 L 181.22 89.44 L 182.02 91.67 L 182.82 93.93 L 183.62 96.22 L 184.42000000000002 98.53 L 185.22 100.85000000000001 L 186.02 103.19 L 186.82 105.52 L 187.62 107.85000000000001 L 188.42000000000002 110.17 L 189.22 112.48 L 190.02 114.77 L 190.82 117.04 L 191.62 119.27 L 192.41 121.48 L 193.21 123.64 L 194.01 125.77 L 194.81 127.85000000000001 L 195.61 129.89000000000001 L 196.41 131.87 L 197.21 133.8 L 198.01 135.68 L 198.81 137.5 L 199.61 139.26 L 200.41 140.96 L 201.21 142.6 L 202.01 144.18 L 202.81 145.70000000000002 L 203.61 147.16 L 204.41 148.55 L 205.21 149.88 L 206.0 151.15 L 206.8 152.36 L 207.6 153.51 L 208.4 154.6 L 209.20000000000002 155.63 L 210.0 156.61 L 210.8 157.53 L 211.6 158.4 L 212.4 159.22 L 213.20000000000002 159.99 L 214.0 160.70000000000002 L 214.8 161.38 L 215.6 162.01 L 216.4 162.59 L 217.20000000000002 163.14000000000001 L 218.0 163.65 L 218.8 164.12 L 219.59 164.55 L 220.39000000000001 164.95000000000002 L 221.19 165.33 L 221.99 165.67000000000002 L 222.79 165.98 L 223.59 166.27 L 224.39000000000001 166.54 L 225.19 166.78 L 225.99 167.0 L 226.79 167.21 L 227.59 167.39000000000001 L 228.39000000000001 167.56 L 229.19 167.71 L 229.99 167.85 L 230.79 167.98 L 231.59 168.09 L 232.38 168.19 L 233.18 168.28 L 233.98000000000002 168.37 L 234.78 168.44 L 235.58 168.51 L 236.38 168.57 L 237.18 168.62 L 237.98000000000002 168.66 L 238.78 168.71 L 239.58 168.74 L 240.38 168.77 L 241.18 168.8" stroke="#4682b4" stroke-width="2" fill="none" /></g></svg>