<svg xmlns="http://www.w3.org/2000/svg" width="280" height="220" font-family="DejaVu Sans, Liberation Sans, Arial, sans-serif" fill="black"><rect width="100%" height="100%" fill="white" /><defs><clipPath id="kuva-clip-4"><rect x="59" y="44" width="203" height="125"/></clipPath></defs><line x1="88" y1="44" x2="88" y2="169" stroke="#cccccc" stroke-width="1" /><line x1="117" y1="44" x2="117" y2="169" stroke="#cccccc" stroke-width="1" /><line x1="146" y1="44" x2="146" y2="169" stroke="#cccccc" stroke-width="1" /><line x1="175" y1="44" x2="175" y2="169" stroke="#cccccc" stroke-width="1" /><line x1="204" y1="44" x2="204" y2="169" stroke="#cccccc" stroke-width="1" /><line x1="233" y1="44" x2="233" y2="169" stroke="#cccccc" stroke-width="1" /><line x1="262" y1="44" x2="262" y2="169" stroke="#cccccc" stroke-width="1" /><line x1="59" y1="144" x2="262" y2="144" stroke="#cccccc" stroke-width="1" /><line x1="59" y1="119" x2="262" y2="119" stroke="#cccccc" stroke-width="1" /><line x1="59" y1="94" x2="262" y2="94" stroke="#cccccc" stroke-width="1" /><line x1="59" y1="69" x2="262" y2="69" stroke="#cccccc" stroke-width="1" /><line x1="59" y1="44" x2="262" y2="44" stroke="#cccccc" stroke-width="1" /><line x1="59" y1="169" x2="262" y2="169" stroke="#000000" stroke-width="1" /><line x1="59" y1="44" x2="59" y2="169" stroke="#000000" stroke-width="1" /><line x1="59" y1="169" x2="59" y2="174" stroke="#000000" stroke-width="1" /><text x="59" y="186" font-size="12" text-anchor="middle">-4</text><line x1="88" y1="169" x2="88" y2="174" stroke="#000000" stroke-width="1" /><text x="88" y="186" font-size="12" text-anchor="middle">-3</text><line x1="117" y1="169" x2="117" y2="174" stroke="#000000" stroke-width="1" /><text x="117" y="186" font-size="12" text-anchor="middle">-2</text><line x1="146" y1="169" x2="146" y2="174" stroke="#000000" stroke-width="1" /><text x="146" y="186" font-size="12" text-anchor="middle">-1</text><line x1="175" y1="169" x2="175" y2="174" stroke="#000000" stroke-width="1" /><text x="175" y="186" font-size="12" text-anchor="middle">0</text><line x1="204" y1="169" x2="204" y2="174" stroke="#000000" stroke-width="1" /><text x="204" y="186" font-size="12" text-anchor="middle">1</text><line x1="233" y1="169" x2="233" y2="174" stroke="#000000" stroke-width="1" /><text x="233" y="186" font-size="12" text-anchor="middle">2</text><line x1="262" y1="169" x2="262" y2="174" stroke="#000000" stroke-width="1" /><text x="262" y="186" font-size="12" text-anchor="middle">3</text><line x1="54" y1="169" x2="59" y2="169" stroke="#000000" stroke-width="1" /><text x="51" y="173.20000000000002" font-size="12" text-anchor="end">0</text><line x1="54" y1="144" x2="59" y2="144" stroke="#000000" stroke-width="1" /><text x="51" y="148.20000000000002" font-size="12" text-anchor="end">0.1</text><line x1="54" y1="119" x2="59" y2="119" stroke="#000000" stroke-width="1" /><text x="51" y="123.2" font-size="12" text-anchor="end">0.2</text><line x1="54" y1="94" x2="59" y2="94" stroke="#000000" stroke-width="1" /><text x="51" y="98.2" font-size="12" text-anchor="end">0.3</text><line x1="54" y1="69" x2="59" y2="69" stroke="#000000" stroke-width="1" /><text x="51" y="73.2" font-size="12" text-anchor="end">0.4</text><line x1="54" y1="44" x2="59" y2="44" stroke="#000000" stroke-width="1" /><text x="51" y="48.2" font-size="12" text-anchor="end">0.5</text><text x="160.5" y="213" font-size="14" text-anchor="middle">Value</text><text x="15" y="110" font-size="14" text-anchor="middle" transform="rotate(-90,15,110)">Density</text><text x="160.5" y="22" font-size="18" text-anchor="middle">Auto — Silverman</text><g clip-path="url(#kuva-clip-4)"><path d="M 85.96000000000001 168.98 L 86.82000000000001 168.97 L 87.67 168.96 L 88.53 168.95000000000002 L 89.39 168.93 L 90.25 168.91 L 91.10000000000001 168.88 L 91.96000000000001 168.85 L 92.82000000000001 168.8 L 93.68 168.75 L 94.54 168.69 L 95.39 168.62 L 96.25 168.53 L 97.11 168.43 L 97.97 168.31 L 98.82000000000001 168.18 L 99.68 168.02 L 100.54 167.84 L 101.4 167.64000000000001 L 102.26 167.42000000000002 L 103.11 167.17000000000002 L 103.97 166.91 L 104.83 166.61 L 105.69 166.29 L 106.54 165.94 L 107.4 165.57 L 108.26 165.16 L 109.12 164.72 L 109.98 164.24 L 110.83 163.73 L 111.69 163.16 L 112.55 162.54 L 113.41 161.85 L 114.26 161.09 L 115.12 160.24 L 115.98 159.29 L 116.84 158.23 L 117.7 157.03 L 118.55 155.69 L 119.41 154.19 L 120.27 152.51 L 121.13 150.65 L 121.98 148.58 L 122.84 146.31 L 123.7 143.82 L 124.56 141.12 L 125.42 138.22 L 126.27 135.1 L 127.13000000000001 131.8 L 127.99000000000001 128.32 L 128.85 124.69 L 129.7 120.93 L 130.56 117.07000000000001 L 131.42000000000002 113.14 L 132.28 109.17 L 133.14000000000001 105.21000000000001 L 133.99 101.27 L 134.85 97.42 L 135.71 93.67 L 136.57 90.06 L 137.42000000000002 86.63 L 138.28 83.41 L 139.14000000000001 80.43 L 140.0 77.72 L 140.86 75.29 L 141.71 73.17 L 142.57 71.37 L 143.43 69.9 L 144.29 68.79 L 145.14000000000001 68.03 L 146.0 67.62 L 146.86 67.57000000000001 L 147.72 67.87 L 148.58 68.52 L 149.43 69.5 L 150.29 70.8 L 151.15 72.42 L 152.01 74.32000000000001 L 152.86 76.49 L 153.72 78.91 L 154.58 81.56 L 155.44 84.41 L 156.3 87.43 L 157.15 90.59 L 158.01 93.88 L 158.87 97.25 L 159.73 100.68 L 160.58 104.15 L 161.44 107.61 L 162.3 111.05 L 163.16 114.43 L 164.02 117.72 L 164.87 120.9 L 165.73 123.94 L 166.59 126.82000000000001 L 167.45000000000002 129.51 L 168.3 131.99 L 169.16 134.24 L 170.02 136.25 L 170.88 137.99 L 171.74 139.45000000000002 L 172.59 140.63 L 173.45000000000002 141.52 L 174.31 142.1 L 175.17000000000002 142.37 L 176.02 142.33 L 176.88 141.99 L 177.74 141.33 L 178.6 140.37 L 179.46 139.11 L 180.31 137.55 L 181.17000000000002 135.71 L 182.03 133.6 L 182.89000000000001 131.23 L 183.74 128.61 L 184.6 125.77 L 185.46 122.72 L 186.32 119.49000000000001 L 187.18 116.10000000000001 L 188.03 112.58 L 188.89000000000001 108.96000000000001 L 189.75 105.28 L 190.61 101.57000000000001 L 191.46 97.88 L 192.32 94.23 L 193.18 90.66 L 194.04 87.23 L 194.9 83.96000000000001 L 195.75 80.9 L 196.61 78.09 L 197.47 75.54 L 198.33 73.31 L 199.18 71.4 L 200.04 69.84 L 200.9 68.66 L 201.76 67.85 L 202.62 67.43 L 203.47 67.39 L 204.33 67.74 L 205.19 68.45 L 206.05 69.53 L 206.9 70.94 L 207.76 72.67 L 208.62 74.69 L 209.48000000000002 76.97 L 210.34 79.5 L 211.19 82.23 L 212.05 85.14 L 212.91 88.2 L 213.77 91.38 L 214.62 94.66 L 215.48000000000002 98.0 L 216.34 101.38 L 217.20000000000002 104.79 L 218.06 108.2 L 218.91 111.59 L 219.77 114.94 L 220.63 118.25 L 221.49 121.49000000000001 L 222.34 124.66 L 223.20000000000002 127.74000000000001 L 224.06 130.73 L 224.92000000000002 133.62 L 225.78 136.41 L 226.63 139.08 L 227.49 141.63 L 228.35 144.07 L 229.21 146.38 L 230.06 148.56 L 230.92000000000002 150.61 L 231.78 152.54 L 232.64000000000001 154.33 L 233.5 156.0 L 234.35 157.53 L 235.21 158.94 L 236.07 160.23 L 236.93 161.39000000000001 L 237.78 162.45000000000002 L 238.64000000000001 163.39000000000001 L 239.5 164.22 L 240.36 164.96 L 241.22 165.61 L 242.07 166.17000000000002 L 242.93 166.66 L 243.79 167.07 L 244.65 167.43 L 245.5 167.73 L 246.36 167.98 L 247.22 168.18 L 248.08 168.35 L 248.94 168.49 L 249.79 168.6 L 250.65 168.69 L 251.51000000000002 168.77 L 252.37 168.82 L 253.22 168.87 L 254.08 168.9 L 254.94 168.93 L 255.8 168.95000000000002 L 256.66 168.96" stroke="#4682b4" stroke-width="2" fill="none" /></g></svg>