<svg xmlns="http://www.w3.org/2000/svg" width="280" height="220" font-family="DejaVu Sans, Liberation Sans, Arial, sans-serif" fill="black"><rect width="100%" height="100%" fill="white" /><defs><clipPath id="kuva-clip-3"><rect x="59" y="44" width="203" height="125"/></clipPath></defs><line x1="92.83" y1="44" x2="92.83" y2="169" stroke="#cccccc" stroke-width="1" /><line x1="126.67" y1="44" x2="126.67" y2="169" stroke="#cccccc" stroke-width="1" /><line x1="160.5" y1="44" x2="160.5" y2="169" stroke="#cccccc" stroke-width="1" /><line x1="194.33" y1="44" x2="194.33" y2="169" stroke="#cccccc" stroke-width="1" /><line x1="228.17000000000002" y1="44" x2="228.17000000000002" y2="169" stroke="#cccccc" stroke-width="1" /><line x1="262" y1="44" x2="262" y2="169" stroke="#cccccc" stroke-width="1" /><line x1="59" y1="148.17000000000002" x2="262" y2="148.17000000000002" stroke="#cccccc" stroke-width="1" /><line x1="59" y1="127.33" x2="262" y2="127.33" stroke="#cccccc" stroke-width="1" /><line x1="59" y1="106.5" x2="262" y2="106.5" stroke="#cccccc" stroke-width="1" /><line x1="59" y1="85.67" x2="262" y2="85.67" stroke="#cccccc" stroke-width="1" /><line x1="59" y1="64.83" x2="262" y2="64.83" stroke="#cccccc" stroke-width="1" /><line x1="59" y1="44" x2="262" y2="44" stroke="#cccccc" stroke-width="1" /><line x1="59" y1="169" x2="262" y2="169" stroke="#000000" stroke-width="1" /><line x1="59" y1="44" x2="59" y2="169" stroke="#000000" stroke-width="1" /><line x1="59" y1="169" x2="59" y2="174" stroke="#000000" stroke-width="1" /><text x="59" y="186" font-size="12" text-anchor="middle">-3</text><line x1="92.83" y1="169" x2="92.83" y2="174" stroke="#000000" stroke-width="1" /><text x="92.83" y="186" font-size="12" text-anchor="middle">-2</text><line x1="126.67" y1="169" x2="126.67" y2="174" stroke="#000000" stroke-width="1" /><text x="126.67" y="186" font-size="12" text-anchor="middle">-1</text><line x1="160.5" y1="169" x2="160.5" y2="174" stroke="#000000" stroke-width="1" /><text x="160.5" y="186" font-size="12" text-anchor="middle">0</text><line x1="194.33" y1="169" x2="194.33" y2="174" stroke="#000000" stroke-width="1" /><text x="194.33" y="186" font-size="12" text-anchor="middle">1</text><line x1="228.17000000000002" y1="169" x2="228.17000000000002" y2="174" stroke="#000000" stroke-width="1" /><text x="228.17000000000002" y="186" font-size="12" text-anchor="middle">2</text><line x1="262" y1="169" x2="262" y2="174" stroke="#000000" stroke-width="1" /><text x="262" y="186" font-size="12" text-anchor="middle">3</text><line x1="54" y1="169" x2="59" y2="169" stroke="#000000" stroke-width="1" /><text x="51" y="173.20000000000002" font-size="12" text-anchor="end">0</text><line x1="54" y1="148.17000000000002" x2="59" y2="148.17000000000002" stroke="#000000" stroke-width="1" /><text x="51" y="152.37" font-size="12" text-anchor="end">0.1</text><line x1="54" y1="127.33" x2="59" y2="127.33" stroke="#000000" stroke-width="1" /><text x="51" y="131.53" font-size="12" text-anchor="end">0.2</text><line x1="54" y1="106.5" x2="59" y2="106.5" stroke="#000000" stroke-width="1" /><text x="51" y="110.7" font-size="12" text-anchor="end">0.3</text><line x1="54" y1="85.67" x2="59" y2="85.67" stroke="#000000" stroke-width="1" /><text x="51" y="89.87" font-size="12" text-anchor="end">0.4</text><line x1="54" y1="64.83" x2="59" y2="64.83" stroke="#000000" stroke-width="1" /><text x="51" y="69.03" font-size="12" text-anchor="end">0.5</text><line x1="54" y1="44" x2="59" y2="44" stroke="#000000" stroke-width="1" /><text x="51" y="48.2" font-size="12" text-anchor="end">0.6</text><text x="160.5" y="213" font-size="14" text-anchor="middle">Value</text><text x="15" y="110" font-size="14" text-anchor="middle" transform="rotate(-90,15,110)">Density</text><text x="160.5" y="22" font-size="18" text-anchor="middle">h = 0.1 (too narrow)</text><g clip-path="url(#kuva-clip-3)"><path d="M 77.49 168.96 L 78.28 168.93 L 79.07000000000001 168.86 L 79.86 168.76 L 80.65 168.58 L 81.44 168.31 L 82.23 167.93 L 83.02 167.42000000000002 L 83.81 166.77 L 84.60000000000001 165.99 L 85.4 165.12 L 86.19 164.20000000000002 L 86.98 163.31 L 87.77 162.49 L 88.56 161.82 L 89.35000000000001 161.32 L 90.14 161.02 L 90.93 160.93 L 91.72 161.02 L 92.51 161.29 L 93.31 161.71 L 94.10000000000001 162.24 L 94.89 162.85 L 95.68 163.47 L 96.47 164.05 L 97.26 164.5 L 98.05 164.74 L 98.84 164.71 L 99.63 164.37 L 100.43 163.70000000000002 L 101.22 162.73 L 102.01 161.48 L 102.8 159.96 L 103.59 158.18 L 104.38 156.08 L 105.17 153.55 L 105.96000000000001 150.47 L 106.75 146.70000000000002 L 107.54 142.14000000000001 L 108.34 136.78 L 109.13 130.71 L 109.92 124.16 L 110.71000000000001 117.41 L 111.5 110.81 L 112.29 104.68 L 113.08 99.28 L 113.87 94.74 L 114.66 91.12 L 115.45 88.36 L 116.25 86.35000000000001 L 117.04 84.91 L 117.83 83.85000000000001 L 118.62 82.97 L 119.41 82.05 L 120.2 80.92 L 120.99000000000001 79.44 L 121.78 77.55 L 122.57000000000001 75.32000000000001 L 123.36 72.87 L 124.16 70.43 L 124.95 68.21000000000001 L 125.74000000000001 66.41 L 126.53 65.16 L 127.32000000000001 64.53 L 128.11 64.5 L 128.9 65.01 L 129.69 66.0 L 130.48 67.4 L 131.27 69.17 L 132.07 71.28 L 132.86 73.73 L 133.65 76.5 L 134.44 79.58 L 135.23 82.94 L 136.02 86.52 L 136.81 90.21000000000001 L 137.6 93.9 L 138.39000000000001 97.41 L 139.18 100.60000000000001 L 139.98 103.35000000000001 L 140.77 105.63 L 141.56 107.51 L 142.35 109.17 L 143.14000000000001 110.85000000000001 L 143.93 112.82000000000001 L 144.72 115.29 L 145.51 118.35000000000001 L 146.3 121.99000000000001 L 147.09 126.04 L 147.89000000000001 130.32 L 148.68 134.59 L 149.47 138.67000000000002 L 150.26 142.47 L 151.05 145.93 L 151.84 149.04 L 152.63 151.8 L 153.42000000000002 154.21 L 154.21 156.27 L 155.0 157.95000000000002 L 155.8 159.25 L 156.59 160.18 L 157.38 160.78 L 158.17000000000002 161.07 L 158.96 161.11 L 159.75 160.94 L 160.54 160.57 L 161.33 160.01 L 162.12 159.27 L 162.91 158.36 L 163.71 157.31 L 164.5 156.14000000000001 L 165.29 154.94 L 166.08 153.75 L 166.87 152.62 L 167.66 151.59 L 168.45000000000002 150.63 L 169.24 149.69 L 170.03 148.67000000000002 L 170.83 147.46 L 171.62 145.95000000000002 L 172.41 144.03 L 173.20000000000002 141.68 L 173.99 138.88 L 174.78 135.7 L 175.57 132.18 L 176.36 128.38 L 177.15 124.36 L 177.94 120.14 L 178.74 115.75 L 179.53 111.27 L 180.32 106.76 L 181.11 102.31 L 181.9 98.0 L 182.69 93.88 L 183.48 89.93 L 184.27 86.10000000000001 L 185.06 82.32000000000001 L 185.85 78.53 L 186.65 74.71000000000001 L 187.44 70.91 L 188.23 67.27 L 189.02 63.95 L 189.81 61.160000000000004 L 190.6 59.09 L 191.39000000000001 57.89 L 192.18 57.65 L 192.97 58.36 L 193.76 59.92 L 194.56 62.18 L 195.35 64.89 L 196.14000000000001 67.84 L 196.93 70.82000000000001 L 197.72 73.72 L 198.51 76.52 L 199.3 79.28 L 200.09 82.12 L 200.88 85.14 L 201.67000000000002 88.36 L 202.47 91.74 L 203.26 95.12 L 204.05 98.32000000000001 L 204.84 101.2 L 205.63 103.72 L 206.42000000000002 105.93 L 207.21 108.0 L 208.0 110.17 L 208.79 112.62 L 209.58 115.44 L 210.38 118.63 L 211.17000000000002 122.04 L 211.96 125.49000000000001 L 212.75 128.78 L 213.54 131.77 L 214.33 134.39000000000001 L 215.12 136.66 L 215.91 138.6 L 216.70000000000002 140.29 L 217.49 141.78 L 218.29 143.12 L 219.08 144.37 L 219.87 145.58 L 220.66 146.86 L 221.45000000000002 148.3 L 222.24 149.98 L 223.03 151.91 L 223.82 154.07 L 224.61 156.37 L 225.4 158.69 L 226.20000000000002 160.88 L 226.99 162.85 L 227.78 164.53 L 228.57 165.87 L 229.36 166.91 L 230.15 167.65 L 230.94 168.17000000000002 L 231.73000000000002 168.51 L 232.52 168.72 L 233.31 168.85 L 234.11 168.92000000000002 L 234.9 168.96" stroke="#4682b4" stroke-width="2" fill="none" /></g></svg>