<svg xmlns="http://www.w3.org/2000/svg" width="677" height="545" font-family="DejaVu Sans, Liberation Sans, Arial, sans-serif" fill="black"><rect width="100%" height="100%" fill="white" /><defs><clipPath id="kuva-clip-0"><rect x="59" y="44" width="600" height="450"/></clipPath></defs><line x1="209" y1="44" x2="209" y2="494" stroke="#cccccc" stroke-width="1" /><line x1="359" y1="44" x2="359" y2="494" stroke="#cccccc" stroke-width="1" /><line x1="509" y1="44" x2="509" y2="494" stroke="#cccccc" stroke-width="1" /><line x1="659" y1="44" x2="659" y2="494" stroke="#cccccc" stroke-width="1" /><line x1="59" y1="404" x2="659" y2="404" stroke="#cccccc" stroke-width="1" /><line x1="59" y1="314" x2="659" y2="314" stroke="#cccccc" stroke-width="1" /><line x1="59" y1="224" x2="659" y2="224" stroke="#cccccc" stroke-width="1" /><line x1="59" y1="134" x2="659" y2="134" stroke="#cccccc" stroke-width="1" /><line x1="59" y1="44" x2="659" y2="44" stroke="#cccccc" stroke-width="1" /><line x1="59" y1="494" x2="659" y2="494" stroke="#000000" stroke-width="1" /><line x1="59" y1="44" x2="59" y2="494" stroke="#000000" stroke-width="1" /><line x1="59" y1="494" x2="59" y2="499" stroke="#000000" stroke-width="1" /><text x="59" y="511" font-size="12" text-anchor="middle">-4</text><line x1="209" y1="494" x2="209" y2="499" stroke="#000000" stroke-width="1" /><text x="209" y="511" font-size="12" text-anchor="middle">-2</text><line x1="359" y1="494" x2="359" y2="499" stroke="#000000" stroke-width="1" /><text x="359" y="511" font-size="12" text-anchor="middle">0</text><line x1="509" y1="494" x2="509" y2="499" stroke="#000000" stroke-width="1" /><text x="509" y="511" font-size="12" text-anchor="middle">2</text><line x1="659" y1="494" x2="659" y2="499" stroke="#000000" stroke-width="1" /><text x="659" y="511" font-size="12" text-anchor="middle">4</text><line x1="54" y1="494" x2="59" y2="494" stroke="#000000" stroke-width="1" /><text x="51" y="498.2" font-size="12" text-anchor="end">0</text><line x1="54" y1="404" x2="59" y2="404" stroke="#000000" stroke-width="1" /><text x="51" y="408.2" font-size="12" text-anchor="end">0.1</text><line x1="54" y1="314" x2="59" y2="314" stroke="#000000" stroke-width="1" /><text x="51" y="318.2" font-size="12" text-anchor="end">0.2</text><line x1="54" y1="224" x2="59" y2="224" stroke="#000000" stroke-width="1" /><text x="51" y="228.20000000000002" font-size="12" text-anchor="end">0.3</text><line x1="54" y1="134" x2="59" y2="134" stroke="#000000" stroke-width="1" /><text x="51" y="138.20000000000002" font-size="12" text-anchor="end">0.4</text><line x1="54" y1="44" x2="59" y2="44" stroke="#000000" stroke-width="1" /><text x="51" y="48.2" font-size="12" text-anchor="end">0.5</text><text x="359" y="538" font-size="14" text-anchor="middle">Value</text><text x="15" y="272.5" font-size="14" text-anchor="middle" transform="rotate(-90,15,272.5)">Density</text><text x="338.5" y="27.400000000000002" font-size="18" text-anchor="middle">Density Plot</text><g clip-path="url(#kuva-clip-0)"><path d="M 104.96000000000001 493.95 L 107.47 493.93 L 109.97 493.89 L 112.47 493.85 L 114.98 493.79 L 117.48 493.71000000000004 L 119.99000000000001 493.61 L 122.49000000000001 493.49 L 124.99000000000001 493.33 L 127.5 493.13 L 130.0 492.88 L 132.51 492.59000000000003 L 135.01 492.25 L 137.51 491.85 L 140.02 491.39 L 142.52 490.87 L 145.03 490.28000000000003 L 147.53 489.64 L 150.03 488.94 L 152.54 488.18 L 155.04 487.37 L 157.55 486.52 L 160.05 485.61 L 162.55 484.66 L 165.06 483.67 L 167.56 482.64 L 170.07 481.57 L 172.57 480.45 L 175.07 479.28000000000003 L 177.58 478.05 L 180.08 476.76 L 182.59 475.40000000000003 L 185.09 473.96000000000004 L 187.6 472.43 L 190.1 470.81 L 192.6 469.09000000000003 L 195.11 467.25 L 197.61 465.28000000000003 L 200.12 463.16 L 202.62 460.89 L 205.12 458.43 L 207.63 455.75 L 210.13 452.83 L 212.64000000000001 449.63 L 215.14000000000001 446.1 L 217.64000000000001 442.21000000000004 L 220.15 437.92 L 222.65 433.19 L 225.16 428.01 L 227.66 422.34000000000003 L 230.16 416.21000000000004 L 232.67000000000002 409.64 L 235.17000000000002 402.68 L 237.68 395.38 L 240.18 387.85 L 242.68 380.18 L 245.19 372.49 L 247.69 364.89 L 250.20000000000002 357.48 L 252.70000000000002 350.38 L 255.20000000000002 343.66 L 257.71 337.38 L 260.21 331.57 L 262.72 326.25 L 265.22 321.39 L 267.72 316.93 L 270.23 312.82 L 272.73 308.96 L 275.24 305.26 L 277.74 301.63 L 280.24 297.96 L 282.75 294.16 L 285.25 290.14 L 287.76 285.85 L 290.26 281.22 L 292.76 276.22 L 295.27 270.82 L 297.77 265.01 L 300.28000000000003 258.82 L 302.78000000000003 252.26000000000002 L 305.28000000000003 245.39000000000001 L 307.79 238.26 L 310.29 230.96 L 312.8 223.57 L 315.3 216.19 L 317.8 208.92000000000002 L 320.31 201.88 L 322.81 195.16 L 325.32 188.86 L 327.82 183.05 L 330.32 177.81 L 332.83 173.17000000000002 L 335.33 169.16 L 337.84000000000003 165.76 L 340.34000000000003 162.94 L 342.84000000000003 160.65 L 345.35 158.81 L 347.85 157.36 L 350.36 156.18 L 352.86 155.20000000000002 L 355.36 154.32 L 357.87 153.45000000000002 L 360.37 152.53 L 362.88 151.5 L 365.38 150.31 L 367.88 148.93 L 370.39 147.33 L 372.89 145.5 L 375.40000000000003 143.47 L 377.90000000000003 141.24 L 380.41 138.86 L 382.91 136.38 L 385.41 133.86 L 387.92 131.4 L 390.42 129.12 L 392.93 127.14 L 395.43 125.62 L 397.93 124.73 L 400.44 124.64 L 402.94 125.53 L 405.45 127.57000000000001 L 407.95 130.9 L 410.45 135.65 L 412.96000000000004 141.91 L 415.46000000000004 149.68 L 417.97 158.95000000000002 L 420.47 169.65 L 422.97 181.64000000000001 L 425.48 194.75 L 427.98 208.76 L 430.49 223.44 L 432.99 238.53 L 435.49 253.77 L 438.0 268.94 L 440.5 283.8 L 443.01 298.2 L 445.51 311.97 L 448.01 325.0 L 450.52 337.22 L 453.02 348.59000000000003 L 455.53000000000003 359.1 L 458.03000000000003 368.75 L 460.53000000000003 377.56 L 463.04 385.55 L 465.54 392.75 L 468.05 399.19 L 470.55 404.90000000000003 L 473.05 409.91 L 475.56 414.25 L 478.06 417.96000000000004 L 480.57 421.09000000000003 L 483.07 423.69 L 485.57 425.82 L 488.08 427.57 L 490.58 429.02 L 493.09000000000003 430.24 L 495.59000000000003 431.33 L 498.09000000000003 432.38 L 500.6 433.47 L 503.1 434.65000000000003 L 505.61 435.99 L 508.11 437.53000000000003 L 510.61 439.28000000000003 L 513.12 441.24 L 515.62 443.42 L 518.13 445.8 L 520.63 448.33 L 523.13 450.98 L 525.64 453.71000000000004 L 528.14 456.49 L 530.65 459.26 L 533.15 462.01 L 535.65 464.7 L 538.16 467.3 L 540.66 469.8 L 543.17 472.19 L 545.67 474.46000000000004 L 548.17 476.61 L 550.6800000000001 478.62 L 553.1800000000001 480.49 L 555.69 482.23 L 558.19 483.83 L 560.69 485.29 L 563.2 486.62 L 565.7 487.8 L 568.21 488.85 L 570.71 489.77 L 573.22 490.57 L 575.72 491.25 L 578.22 491.83 L 580.73 492.3 L 583.23 492.69 L 585.74 493.0 L 588.24 493.25 L 590.74 493.45 L 593.25 493.6 L 595.75 493.71000000000004 L 598.26 493.8 L 600.76 493.86 L 603.26 493.90000000000003" stroke="#4682b4" stroke-width="2" fill="none" /></g></svg>