<svg xmlns="http://www.w3.org/2000/svg" width="681.8000000000001" height="545" font-family="DejaVu Sans, Liberation Sans, Arial, sans-serif" fill="black"><rect width="100%" height="100%" fill="white" /><defs><clipPath id="kuva-clip-6"><rect x="63.800000000000004" y="44" width="600" height="450"/></clipPath></defs><line x1="213.8" y1="44" x2="213.8" y2="494" stroke="#cccccc" stroke-width="1" /><line x1="363.8" y1="44" x2="363.8" y2="494" stroke="#cccccc" stroke-width="1" /><line x1="513.8" y1="44" x2="513.8" y2="494" stroke="#cccccc" stroke-width="1" /><line x1="663.8000000000001" y1="44" x2="663.8000000000001" y2="494" stroke="#cccccc" stroke-width="1" /><line x1="63.800000000000004" y1="429.71000000000004" x2="663.8000000000001" y2="429.71000000000004" stroke="#cccccc" stroke-width="1" /><line x1="63.800000000000004" y1="365.43" x2="663.8000000000001" y2="365.43" stroke="#cccccc" stroke-width="1" /><line x1="63.800000000000004" y1="301.14" x2="663.8000000000001" y2="301.14" stroke="#cccccc" stroke-width="1" /><line x1="63.800000000000004" y1="236.86" x2="663.8000000000001" y2="236.86" stroke="#cccccc" stroke-width="1" /><line x1="63.800000000000004" y1="172.57" x2="663.8000000000001" y2="172.57" stroke="#cccccc" stroke-width="1" /><line x1="63.800000000000004" y1="108.29" x2="663.8000000000001" y2="108.29" stroke="#cccccc" stroke-width="1" /><line x1="63.800000000000004" y1="44" x2="663.8000000000001" y2="44" stroke="#cccccc" stroke-width="1" /><line x1="63.800000000000004" y1="494" x2="663.8000000000001" y2="494" stroke="#000000" stroke-width="1" /><line x1="63.800000000000004" y1="44" x2="63.800000000000004" y2="494" stroke="#000000" stroke-width="1" /><line x1="63.800000000000004" y1="494" x2="63.800000000000004" y2="499" stroke="#000000" stroke-width="1" /><text x="63.800000000000004" y="511" font-size="12" text-anchor="middle">-0.5</text><line x1="213.8" y1="494" x2="213.8" y2="499" stroke="#000000" stroke-width="1" /><text x="213.8" y="511" font-size="12" text-anchor="middle">0</text><line x1="363.8" y1="494" x2="363.8" y2="499" stroke="#000000" stroke-width="1" /><text x="363.8" y="511" font-size="12" text-anchor="middle">0.5</text><line x1="513.8" y1="494" x2="513.8" y2="499" stroke="#000000" stroke-width="1" /><text x="513.8" y="511" font-size="12" text-anchor="middle">1</text><line x1="663.8000000000001" y1="494" x2="663.8000000000001" y2="499" stroke="#000000" stroke-width="1" /><text x="663.8000000000001" y="511" font-size="12" text-anchor="middle">1.5</text><line x1="58.800000000000004" y1="494" x2="63.800000000000004" y2="494" stroke="#000000" stroke-width="1" /><text x="55.800000000000004" y="498.2" font-size="12" text-anchor="end">0</text><line x1="58.800000000000004" y1="429.71000000000004" x2="63.800000000000004" y2="429.71000000000004" stroke="#000000" stroke-width="1" /><text x="55.800000000000004" y="433.91" font-size="12" text-anchor="end">0.25</text><line x1="58.800000000000004" y1="365.43" x2="63.800000000000004" y2="365.43" stroke="#000000" stroke-width="1" /><text x="55.800000000000004" y="369.63" font-size="12" text-anchor="end">0.5</text><line x1="58.800000000000004" y1="301.14" x2="63.800000000000004" y2="301.14" stroke="#000000" stroke-width="1" /><text x="55.800000000000004" y="305.34000000000003" font-size="12" text-anchor="end">0.75</text><line x1="58.800000000000004" y1="236.86" x2="63.800000000000004" y2="236.86" stroke="#000000" stroke-width="1" /><text x="55.800000000000004" y="241.06" font-size="12" text-anchor="end">1</text><line x1="58.800000000000004" y1="172.57" x2="63.800000000000004" y2="172.57" stroke="#000000" stroke-width="1" /><text x="55.800000000000004" y="176.77" font-size="12" text-anchor="end">1.25</text><line x1="58.800000000000004" y1="108.29" x2="63.800000000000004" y2="108.29" stroke="#000000" stroke-width="1" /><text x="55.800000000000004" y="112.49000000000001" font-size="12" text-anchor="end">1.5</text><line x1="58.800000000000004" y1="44" x2="63.800000000000004" y2="44" stroke="#000000" stroke-width="1" /><text x="55.800000000000004" y="48.2" font-size="12" text-anchor="end">1.75</text><text x="363.8" y="538" font-size="14" text-anchor="middle">Identity score</text><text x="15" y="272.5" font-size="14" text-anchor="middle" transform="rotate(-90,15,272.5)">Density</text><text x="363.8" y="22" font-size="18" text-anchor="middle">Without bounds — tails bleed past 0 and 1</text><g clip-path="url(#kuva-clip-6)"><path d="M 90.84 493.85 L 93.58 493.79 L 96.32000000000001 493.71000000000004 L 99.06 493.61 L 101.81 493.49 L 104.55 493.35 L 107.29 493.16 L 110.03 492.93 L 112.77 492.64 L 115.51 492.28000000000003 L 118.25 491.85 L 120.99000000000001 491.31 L 123.73 490.67 L 126.47 489.89 L 129.21 488.95 L 131.95 487.82 L 134.69 486.48 L 137.43 484.90000000000003 L 140.17000000000002 483.03000000000003 L 142.91 480.83 L 145.65 478.27 L 148.4 475.31 L 151.14000000000001 471.88 L 153.88 467.95 L 156.62 463.47 L 159.36 458.38 L 162.1 452.64 L 164.84 446.2 L 167.58 439.02 L 170.32 431.06 L 173.06 422.29 L 175.8 412.68 L 178.54 402.23 L 181.28 390.92 L 184.02 378.78000000000003 L 186.76 365.83 L 189.5 352.1 L 192.24 337.65000000000003 L 194.98000000000002 322.56 L 197.73000000000002 306.92 L 200.47 290.84000000000003 L 203.21 274.43 L 205.95000000000002 257.85 L 208.69 241.25 L 211.43 224.79 L 214.17000000000002 208.64000000000001 L 216.91 193.0 L 219.65 178.04 L 222.39000000000001 163.94 L 225.13 150.89000000000001 L 227.87 139.07 L 230.61 128.62 L 233.35 119.7 L 236.09 112.42 L 238.83 106.91 L 241.57 103.23 L 244.32 101.44 L 247.06 101.57000000000001 L 249.8 103.61 L 252.54 107.55 L 255.28 113.31 L 258.02 120.82000000000001 L 260.76 129.98 L 263.5 140.65 L 266.24 152.69 L 268.98 165.93 L 271.72 180.21 L 274.46 195.33 L 277.2 211.12 L 279.94 227.4 L 282.68 243.97 L 285.42 260.66 L 288.16 277.31 L 290.90000000000003 293.76 L 293.65000000000003 309.88 L 296.39 325.53000000000003 L 299.13 340.61 L 301.87 355.03000000000003 L 304.61 368.71 L 307.35 381.6 L 310.09000000000003 393.66 L 312.83 404.87 L 315.57 415.22 L 318.31 424.7 L 321.05 433.34000000000003 L 323.79 441.15000000000003 L 326.53000000000003 448.17 L 329.27 454.44 L 332.01 459.99 L 334.75 464.88 L 337.49 469.14 L 340.24 472.83 L 342.98 475.99 L 345.72 478.67 L 348.46 480.90000000000003 L 351.2 482.72 L 353.94 484.17 L 356.68 485.26 L 359.42 486.03000000000003 L 362.16 486.48 L 364.90000000000003 486.64 L 367.64 486.5 L 370.38 486.07 L 373.12 485.33 L 375.86 484.27 L 378.6 482.89 L 381.34000000000003 481.14 L 384.08 479.02 L 386.82 476.49 L 389.57 473.49 L 392.31 470.0 L 395.05 465.98 L 397.79 461.38 L 400.53000000000003 456.16 L 403.27 450.29 L 406.01 443.72 L 408.75 436.41 L 411.49 428.32 L 414.23 419.45 L 416.97 409.76 L 419.71000000000004 399.25 L 422.45 387.93 L 425.19 375.81 L 427.93 362.93 L 430.67 349.32 L 433.41 335.04 L 436.16 320.18 L 438.90000000000003 304.82 L 441.64 289.08 L 444.38 273.07 L 447.12 256.93 L 449.86 240.82 L 452.6 224.88 L 455.34000000000003 209.3 L 458.08 194.23000000000002 L 460.82 179.86 L 463.56 166.36 L 466.3 153.9 L 469.04 142.63 L 471.78000000000003 132.71 L 474.52 124.26 L 477.26 117.41 L 480.0 112.25 L 482.74 108.85000000000001 L 485.49 107.26 L 488.23 107.51 L 490.97 109.59 L 493.71000000000004 113.46000000000001 L 496.45 119.09 L 499.19 126.38000000000001 L 501.93 135.24 L 504.67 145.54 L 507.41 157.16 L 510.15000000000003 169.93 L 512.89 183.69 L 515.63 198.28 L 518.37 213.52 L 521.11 229.24 L 523.85 245.27 L 526.59 261.43 L 529.33 277.58 L 532.08 293.56 L 534.82 309.24 L 537.5600000000001 324.51 L 540.3 339.25 L 543.04 353.39 L 545.78 366.84000000000003 L 548.52 379.55 L 551.26 391.49 L 554.0 402.61 L 556.74 412.92 L 559.48 422.41 L 562.22 431.09000000000003 L 564.96 438.98 L 567.7 446.11 L 570.44 452.52 L 573.1800000000001 458.24 L 575.92 463.32 L 578.66 467.81 L 581.41 471.75 L 584.15 475.18 L 586.89 478.17 L 589.63 480.74 L 592.37 482.95 L 595.11 484.83 L 597.85 486.44 L 600.59 487.79 L 603.33 488.92 L 606.07 489.87 L 608.8100000000001 490.66 L 611.5500000000001 491.31 L 614.29 491.84000000000003 L 617.03 492.29 L 619.77 492.64 L 622.51 492.94 L 625.25 493.18 L 628.0 493.36 L 630.74 493.51 L 633.48 493.63 L 636.22 493.72 L 636.22 494 L 90.84 494 Z" stroke="none" stroke-width="0" fill="#4682b4" fill-opacity="0.25" /><path d="M 90.84 493.85 L 93.58 493.79 L 96.32000000000001 493.71000000000004 L 99.06 493.61 L 101.81 493.49 L 104.55 493.35 L 107.29 493.16 L 110.03 492.93 L 112.77 492.64 L 115.51 492.28000000000003 L 118.25 491.85 L 120.99000000000001 491.31 L 123.73 490.67 L 126.47 489.89 L 129.21 488.95 L 131.95 487.82 L 134.69 486.48 L 137.43 484.90000000000003 L 140.17000000000002 483.03000000000003 L 142.91 480.83 L 145.65 478.27 L 148.4 475.31 L 151.14000000000001 471.88 L 153.88 467.95 L 156.62 463.47 L 159.36 458.38 L 162.1 452.64 L 164.84 446.2 L 167.58 439.02 L 170.32 431.06 L 173.06 422.29 L 175.8 412.68 L 178.54 402.23 L 181.28 390.92 L 184.02 378.78000000000003 L 186.76 365.83 L 189.5 352.1 L 192.24 337.65000000000003 L 194.98000000000002 322.56 L 197.73000000000002 306.92 L 200.47 290.84000000000003 L 203.21 274.43 L 205.95000000000002 257.85 L 208.69 241.25 L 211.43 224.79 L 214.17000000000002 208.64000000000001 L 216.91 193.0 L 219.65 178.04 L 222.39000000000001 163.94 L 225.13 150.89000000000001 L 227.87 139.07 L 230.61 128.62 L 233.35 119.7 L 236.09 112.42 L 238.83 106.91 L 241.57 103.23 L 244.32 101.44 L 247.06 101.57000000000001 L 249.8 103.61 L 252.54 107.55 L 255.28 113.31 L 258.02 120.82000000000001 L 260.76 129.98 L 263.5 140.65 L 266.24 152.69 L 268.98 165.93 L 271.72 180.21 L 274.46 195.33 L 277.2 211.12 L 279.94 227.4 L 282.68 243.97 L 285.42 260.66 L 288.16 277.31 L 290.90000000000003 293.76 L 293.65000000000003 309.88 L 296.39 325.53000000000003 L 299.13 340.61 L 301.87 355.03000000000003 L 304.61 368.71 L 307.35 381.6 L 310.09000000000003 393.66 L 312.83 404.87 L 315.57 415.22 L 318.31 424.7 L 321.05 433.34000000000003 L 323.79 441.15000000000003 L 326.53000000000003 448.17 L 329.27 454.44 L 332.01 459.99 L 334.75 464.88 L 337.49 469.14 L 340.24 472.83 L 342.98 475.99 L 345.72 478.67 L 348.46 480.90000000000003 L 351.2 482.72 L 353.94 484.17 L 356.68 485.26 L 359.42 486.03000000000003 L 362.16 486.48 L 364.90000000000003 486.64 L 367.64 486.5 L 370.38 486.07 L 373.12 485.33 L 375.86 484.27 L 378.6 482.89 L 381.34000000000003 481.14 L 384.08 479.02 L 386.82 476.49 L 389.57 473.49 L 392.31 470.0 L 395.05 465.98 L 397.79 461.38 L 400.53000000000003 456.16 L 403.27 450.29 L 406.01 443.72 L 408.75 436.41 L 411.49 428.32 L 414.23 419.45 L 416.97 409.76 L 419.71000000000004 399.25 L 422.45 387.93 L 425.19 375.81 L 427.93 362.93 L 430.67 349.32 L 433.41 335.04 L 436.16 320.18 L 438.90000000000003 304.82 L 441.64 289.08 L 444.38 273.07 L 447.12 256.93 L 449.86 240.82 L 452.6 224.88 L 455.34000000000003 209.3 L 458.08 194.23000000000002 L 460.82 179.86 L 463.56 166.36 L 466.3 153.9 L 469.04 142.63 L 471.78000000000003 132.71 L 474.52 124.26 L 477.26 117.41 L 480.0 112.25 L 482.74 108.85000000000001 L 485.49 107.26 L 488.23 107.51 L 490.97 109.59 L 493.71000000000004 113.46000000000001 L 496.45 119.09 L 499.19 126.38000000000001 L 501.93 135.24 L 504.67 145.54 L 507.41 157.16 L 510.15000000000003 169.93 L 512.89 183.69 L 515.63 198.28 L 518.37 213.52 L 521.11 229.24 L 523.85 245.27 L 526.59 261.43 L 529.33 277.58 L 532.08 293.56 L 534.82 309.24 L 537.5600000000001 324.51 L 540.3 339.25 L 543.04 353.39 L 545.78 366.84000000000003 L 548.52 379.55 L 551.26 391.49 L 554.0 402.61 L 556.74 412.92 L 559.48 422.41 L 562.22 431.09000000000003 L 564.96 438.98 L 567.7 446.11 L 570.44 452.52 L 573.1800000000001 458.24 L 575.92 463.32 L 578.66 467.81 L 581.41 471.75 L 584.15 475.18 L 586.89 478.17 L 589.63 480.74 L 592.37 482.95 L 595.11 484.83 L 597.85 486.44 L 600.59 487.79 L 603.33 488.92 L 606.07 489.87 L 608.8100000000001 490.66 L 611.5500000000001 491.31 L 614.29 491.84000000000003 L 617.03 492.29 L 619.77 492.64 L 622.51 492.94 L 625.25 493.18 L 628.0 493.36 L 630.74 493.51 L 633.48 493.63 L 636.22 493.72" stroke="#4682b4" stroke-width="2" fill="none" /><line x1="213.8" y1="44" x2="213.8" y2="494" stroke="#e05a5a" stroke-width="1.5" stroke-dasharray="6 4" /><text x="217.8" y="56" font-size="12" text-anchor="start">x = 0</text><line x1="513.8" y1="44" x2="513.8" y2="494" stroke="#e05a5a" stroke-width="1.5" stroke-dasharray="6 4" /><text x="517.8" y="56" font-size="12" text-anchor="start">x = 1</text></g></svg>