<svg xmlns="http://www.w3.org/2000/svg" width="673.4" height="545" font-family="DejaVu Sans, Liberation Sans, Arial, sans-serif" fill="black"><rect width="100%" height="100%" fill="white" /><defs><clipPath id="kuva-clip-7"><rect x="59" y="44" width="600" height="450"/></clipPath></defs><line x1="184" y1="44" x2="184" y2="494" stroke="#cccccc" stroke-width="1" /><line x1="309" y1="44" x2="309" y2="494" stroke="#cccccc" stroke-width="1" /><line x1="434" y1="44" x2="434" y2="494" stroke="#cccccc" stroke-width="1" /><line x1="559" y1="44" x2="559" y2="494" stroke="#cccccc" stroke-width="1" /><line x1="59" y1="419" x2="659" y2="419" stroke="#cccccc" stroke-width="1" /><line x1="59" y1="344" x2="659" y2="344" stroke="#cccccc" stroke-width="1" /><line x1="59" y1="269" x2="659" y2="269" stroke="#cccccc" stroke-width="1" /><line x1="59" y1="194" x2="659" y2="194" stroke="#cccccc" stroke-width="1" /><line x1="59" y1="119" x2="659" y2="119" stroke="#cccccc" stroke-width="1" /><line x1="59" y1="44" x2="659" y2="44" stroke="#cccccc" stroke-width="1" /><line x1="59" y1="494" x2="659" y2="494" stroke="#000000" stroke-width="1" /><line x1="59" y1="44" x2="59" y2="494" stroke="#000000" stroke-width="1" /><line x1="59" y1="494" x2="59" y2="499" stroke="#000000" stroke-width="1" /><text x="59" y="511" font-size="12" text-anchor="middle">0</text><line x1="184" y1="494" x2="184" y2="499" stroke="#000000" stroke-width="1" /><text x="184" y="511" font-size="12" text-anchor="middle">0.25</text><line x1="309" y1="494" x2="309" y2="499" stroke="#000000" stroke-width="1" /><text x="309" y="511" font-size="12" text-anchor="middle">0.5</text><line x1="434" y1="494" x2="434" y2="499" stroke="#000000" stroke-width="1" /><text x="434" y="511" font-size="12" text-anchor="middle">0.75</text><line x1="559" y1="494" x2="559" y2="499" stroke="#000000" stroke-width="1" /><text x="559" y="511" font-size="12" text-anchor="middle">1</text><line x1="54" y1="494" x2="59" y2="494" stroke="#000000" stroke-width="1" /><text x="51" y="498.2" font-size="12" text-anchor="end">0</text><line x1="54" y1="419" x2="59" y2="419" stroke="#000000" stroke-width="1" /><text x="51" y="423.2" font-size="12" text-anchor="end">0.5</text><line x1="54" y1="344" x2="59" y2="344" stroke="#000000" stroke-width="1" /><text x="51" y="348.2" font-size="12" text-anchor="end">1</text><line x1="54" y1="269" x2="59" y2="269" stroke="#000000" stroke-width="1" /><text x="51" y="273.2" font-size="12" text-anchor="end">1.5</text><line x1="54" y1="194" x2="59" y2="194" stroke="#000000" stroke-width="1" /><text x="51" y="198.20000000000002" font-size="12" text-anchor="end">2</text><line x1="54" y1="119" x2="59" y2="119" stroke="#000000" stroke-width="1" /><text x="51" y="123.2" font-size="12" text-anchor="end">2.5</text><line x1="54" y1="44" x2="59" y2="44" stroke="#000000" stroke-width="1" /><text x="51" y="48.2" font-size="12" text-anchor="end">3</text><text x="359" y="538" font-size="14" text-anchor="middle">Identity score</text><text x="15" y="272.5" font-size="14" text-anchor="middle" transform="rotate(-90,15,272.5)">Density</text><text x="336.7" y="27.400000000000002" font-size="18" text-anchor="middle">With with_x_range(0, 1) — boundary reflection</text><g clip-path="url(#kuva-clip-7)"><path d="M 59.0 163.59 L 61.51 163.67000000000002 L 64.03 163.93 L 66.54 164.35 L 69.05 164.93 L 71.56 165.69 L 74.08 166.62 L 76.59 167.73 L 79.10000000000001 169.01 L 81.61 170.46 L 84.13 172.1 L 86.64 173.92000000000002 L 89.15 175.93 L 91.66 178.12 L 94.18 180.5 L 96.69 183.08 L 99.2 185.85 L 101.71000000000001 188.81 L 104.23 191.96 L 106.74000000000001 195.32 L 109.25 198.86 L 111.76 202.6 L 114.28 206.54 L 116.79 210.66 L 119.3 214.97 L 121.81 219.46 L 124.33 224.13 L 126.84 228.97 L 129.35 233.98000000000002 L 131.86 239.15 L 134.38 244.47 L 136.89000000000001 249.93 L 139.4 255.52 L 141.91 261.24 L 144.43 267.07 L 146.94 273.0 L 149.45000000000002 279.02 L 151.96 285.11 L 154.48 291.27 L 156.99 297.48 L 159.5 303.73 L 162.02 310.01 L 164.53 316.3 L 167.04 322.58 L 169.55 328.85 L 172.07 335.1 L 174.58 341.3 L 177.09 347.45 L 179.6 353.54 L 182.12 359.55 L 184.63 365.48 L 187.14000000000001 371.31 L 189.65 377.03000000000003 L 192.17000000000002 382.63 L 194.68 388.11 L 197.19 393.46000000000004 L 199.70000000000002 398.67 L 202.22 403.74 L 204.73000000000002 408.65000000000003 L 207.24 413.41 L 209.75 418.02 L 212.27 422.45 L 214.78 426.73 L 217.29 430.84000000000003 L 219.8 434.78000000000003 L 222.32 438.56 L 224.83 442.17 L 227.34 445.62 L 229.85 448.89 L 232.37 452.01 L 234.88 454.97 L 237.39000000000001 457.77 L 239.9 460.41 L 242.42000000000002 462.91 L 244.93 465.26 L 247.44 467.47 L 249.95000000000002 469.54 L 252.47 471.48 L 254.98000000000002 473.29 L 257.49 474.98 L 260.01 476.55 L 262.52 478.0 L 265.03000000000003 479.35 L 267.54 480.6 L 270.06 481.74 L 272.57 482.78000000000003 L 275.08 483.74 L 277.59000000000003 484.62 L 280.11 485.41 L 282.62 486.12 L 285.13 486.76 L 287.64 487.33 L 290.16 487.83 L 292.67 488.27 L 295.18 488.64 L 297.69 488.96000000000004 L 300.21 489.22 L 302.72 489.42 L 305.23 489.56 L 307.74 489.66 L 310.26 489.69 L 312.77 489.68 L 315.28000000000003 489.62 L 317.79 489.5 L 320.31 489.33 L 322.82 489.11 L 325.33 488.83 L 327.84000000000003 488.49 L 330.36 488.1 L 332.87 487.64 L 335.38 487.12 L 337.89 486.53000000000003 L 340.41 485.88 L 342.92 485.15000000000003 L 345.43 484.35 L 347.94 483.48 L 350.46 482.51 L 352.97 481.46000000000004 L 355.48 480.31 L 357.99 479.08 L 360.51 477.74 L 363.02 476.29 L 365.53000000000003 474.73 L 368.05 473.06 L 370.56 471.27 L 373.07 469.36 L 375.58 467.31 L 378.1 465.13 L 380.61 462.81 L 383.12 460.36 L 385.63 457.75 L 388.15000000000003 454.99 L 390.66 452.08 L 393.17 449.01 L 395.68 445.77 L 398.2 442.37 L 400.71000000000004 438.81 L 403.22 435.08 L 405.73 431.18 L 408.25 427.1 L 410.76 422.86 L 413.27 418.45 L 415.78000000000003 413.86 L 418.3 409.11 L 420.81 404.19 L 423.32 399.11 L 425.83 393.87 L 428.35 388.48 L 430.86 382.93 L 433.37 377.24 L 435.88 371.42 L 438.40000000000003 365.46 L 440.91 359.38 L 443.42 353.19 L 445.93 346.89 L 448.45 340.49 L 450.96000000000004 334.01 L 453.47 327.46 L 455.98 320.85 L 458.5 314.18 L 461.01 307.47 L 463.52 300.74 L 466.04 293.99 L 468.55 287.24 L 471.06 280.5 L 473.57 273.79 L 476.09000000000003 267.12 L 478.6 260.5 L 481.11 253.94 L 483.62 247.46 L 486.14 241.07 L 488.65000000000003 234.78 L 491.16 228.6 L 493.67 222.56 L 496.19 216.65 L 498.7 210.89000000000001 L 501.21000000000004 205.29 L 503.72 199.86 L 506.24 194.61 L 508.75 189.54 L 511.26 184.68 L 513.77 180.02 L 516.29 175.58 L 518.8 171.35 L 521.3100000000001 167.35 L 523.82 163.58 L 526.34 160.06 L 528.85 156.77 L 531.36 153.73 L 533.87 150.95000000000002 L 536.39 148.42000000000002 L 538.9 146.14000000000001 L 541.41 144.13 L 543.92 142.38 L 546.44 140.9 L 548.95 139.69 L 551.46 138.74 L 553.97 138.06 L 556.49 137.66 L 559.0 137.52 L 559 494 L 59 494 Z" stroke="none" stroke-width="0" fill="#4682b4" fill-opacity="0.25" /><path d="M 59.0 163.59 L 61.51 163.67000000000002 L 64.03 163.93 L 66.54 164.35 L 69.05 164.93 L 71.56 165.69 L 74.08 166.62 L 76.59 167.73 L 79.10000000000001 169.01 L 81.61 170.46 L 84.13 172.1 L 86.64 173.92000000000002 L 89.15 175.93 L 91.66 178.12 L 94.18 180.5 L 96.69 183.08 L 99.2 185.85 L 101.71000000000001 188.81 L 104.23 191.96 L 106.74000000000001 195.32 L 109.25 198.86 L 111.76 202.6 L 114.28 206.54 L 116.79 210.66 L 119.3 214.97 L 121.81 219.46 L 124.33 224.13 L 126.84 228.97 L 129.35 233.98000000000002 L 131.86 239.15 L 134.38 244.47 L 136.89000000000001 249.93 L 139.4 255.52 L 141.91 261.24 L 144.43 267.07 L 146.94 273.0 L 149.45000000000002 279.02 L 151.96 285.11 L 154.48 291.27 L 156.99 297.48 L 159.5 303.73 L 162.02 310.01 L 164.53 316.3 L 167.04 322.58 L 169.55 328.85 L 172.07 335.1 L 174.58 341.3 L 177.09 347.45 L 179.6 353.54 L 182.12 359.55 L 184.63 365.48 L 187.14000000000001 371.31 L 189.65 377.03000000000003 L 192.17000000000002 382.63 L 194.68 388.11 L 197.19 393.46000000000004 L 199.70000000000002 398.67 L 202.22 403.74 L 204.73000000000002 408.65000000000003 L 207.24 413.41 L 209.75 418.02 L 212.27 422.45 L 214.78 426.73 L 217.29 430.84000000000003 L 219.8 434.78000000000003 L 222.32 438.56 L 224.83 442.17 L 227.34 445.62 L 229.85 448.89 L 232.37 452.01 L 234.88 454.97 L 237.39000000000001 457.77 L 239.9 460.41 L 242.42000000000002 462.91 L 244.93 465.26 L 247.44 467.47 L 249.95000000000002 469.54 L 252.47 471.48 L 254.98000000000002 473.29 L 257.49 474.98 L 260.01 476.55 L 262.52 478.0 L 265.03000000000003 479.35 L 267.54 480.6 L 270.06 481.74 L 272.57 482.78000000000003 L 275.08 483.74 L 277.59000000000003 484.62 L 280.11 485.41 L 282.62 486.12 L 285.13 486.76 L 287.64 487.33 L 290.16 487.83 L 292.67 488.27 L 295.18 488.64 L 297.69 488.96000000000004 L 300.21 489.22 L 302.72 489.42 L 305.23 489.56 L 307.74 489.66 L 310.26 489.69 L 312.77 489.68 L 315.28000000000003 489.62 L 317.79 489.5 L 320.31 489.33 L 322.82 489.11 L 325.33 488.83 L 327.84000000000003 488.49 L 330.36 488.1 L 332.87 487.64 L 335.38 487.12 L 337.89 486.53000000000003 L 340.41 485.88 L 342.92 485.15000000000003 L 345.43 484.35 L 347.94 483.48 L 350.46 482.51 L 352.97 481.46000000000004 L 355.48 480.31 L 357.99 479.08 L 360.51 477.74 L 363.02 476.29 L 365.53000000000003 474.73 L 368.05 473.06 L 370.56 471.27 L 373.07 469.36 L 375.58 467.31 L 378.1 465.13 L 380.61 462.81 L 383.12 460.36 L 385.63 457.75 L 388.15000000000003 454.99 L 390.66 452.08 L 393.17 449.01 L 395.68 445.77 L 398.2 442.37 L 400.71000000000004 438.81 L 403.22 435.08 L 405.73 431.18 L 408.25 427.1 L 410.76 422.86 L 413.27 418.45 L 415.78000000000003 413.86 L 418.3 409.11 L 420.81 404.19 L 423.32 399.11 L 425.83 393.87 L 428.35 388.48 L 430.86 382.93 L 433.37 377.24 L 435.88 371.42 L 438.40000000000003 365.46 L 440.91 359.38 L 443.42 353.19 L 445.93 346.89 L 448.45 340.49 L 450.96000000000004 334.01 L 453.47 327.46 L 455.98 320.85 L 458.5 314.18 L 461.01 307.47 L 463.52 300.74 L 466.04 293.99 L 468.55 287.24 L 471.06 280.5 L 473.57 273.79 L 476.09000000000003 267.12 L 478.6 260.5 L 481.11 253.94 L 483.62 247.46 L 486.14 241.07 L 488.65000000000003 234.78 L 491.16 228.6 L 493.67 222.56 L 496.19 216.65 L 498.7 210.89000000000001 L 501.21000000000004 205.29 L 503.72 199.86 L 506.24 194.61 L 508.75 189.54 L 511.26 184.68 L 513.77 180.02 L 516.29 175.58 L 518.8 171.35 L 521.3100000000001 167.35 L 523.82 163.58 L 526.34 160.06 L 528.85 156.77 L 531.36 153.73 L 533.87 150.95000000000002 L 536.39 148.42000000000002 L 538.9 146.14000000000001 L 541.41 144.13 L 543.92 142.38 L 546.44 140.9 L 548.95 139.69 L 551.46 138.74 L 553.97 138.06 L 556.49 137.66 L 559.0 137.52" stroke="#4682b4" stroke-width="2" fill="none" /></g></svg>