<svg xmlns="http://www.w3.org/2000/svg" width="805.5" height="545" font-family="DejaVu Sans, Liberation Sans, Arial, sans-serif" fill="black"><rect width="100%" height="100%" fill="white" /><defs><clipPath id="kuva-clip-2"><rect x="59" y="44" width="600" height="450"/></clipPath></defs><line x1="234" y1="44" x2="234" y2="494" stroke="#cccccc" stroke-width="1" /><line x1="359" y1="44" x2="359" y2="494" stroke="#cccccc" stroke-width="1" /><line x1="484" y1="44" x2="484" y2="494" stroke="#cccccc" stroke-width="1" /><line x1="609" y1="44" x2="609" y2="494" stroke="#cccccc" stroke-width="1" /><line x1="59" y1="419" x2="659" y2="419" stroke="#cccccc" stroke-width="1" /><line x1="59" y1="344" x2="659" y2="344" stroke="#cccccc" stroke-width="1" /><line x1="59" y1="269" x2="659" y2="269" stroke="#cccccc" stroke-width="1" /><line x1="59" y1="194" x2="659" y2="194" stroke="#cccccc" stroke-width="1" /><line x1="59" y1="119" x2="659" y2="119" stroke="#cccccc" stroke-width="1" /><line x1="59" y1="44" x2="659" y2="44" stroke="#cccccc" stroke-width="1" /><line x1="59" y1="494" x2="659" y2="494" stroke="#000000" stroke-width="1" /><line x1="59" y1="44" x2="59" y2="494" stroke="#000000" stroke-width="1" /><line x1="109" y1="494" x2="109" y2="499" stroke="#000000" stroke-width="1" /><text x="109" y="511" font-size="12" text-anchor="middle">-5</text><line x1="234" y1="494" x2="234" y2="499" stroke="#000000" stroke-width="1" /><text x="234" y="511" font-size="12" text-anchor="middle">-2.5</text><line x1="359" y1="494" x2="359" y2="499" stroke="#000000" stroke-width="1" /><text x="359" y="511" font-size="12" text-anchor="middle">0</text><line x1="484" y1="494" x2="484" y2="499" stroke="#000000" stroke-width="1" /><text x="484" y="511" font-size="12" text-anchor="middle">2.5</text><line x1="609" y1="494" x2="609" y2="499" stroke="#000000" stroke-width="1" /><text x="609" y="511" font-size="12" text-anchor="middle">5</text><line x1="54" y1="494" x2="59" y2="494" stroke="#000000" stroke-width="1" /><text x="51" y="498.2" font-size="12" text-anchor="end">0</text><line x1="54" y1="419" x2="59" y2="419" stroke="#000000" stroke-width="1" /><text x="51" y="423.2" font-size="12" text-anchor="end">0.1</text><line x1="54" y1="344" x2="59" y2="344" stroke="#000000" stroke-width="1" /><text x="51" y="348.2" font-size="12" text-anchor="end">0.2</text><line x1="54" y1="269" x2="59" y2="269" stroke="#000000" stroke-width="1" /><text x="51" y="273.2" font-size="12" text-anchor="end">0.3</text><line x1="54" y1="194" x2="59" y2="194" stroke="#000000" stroke-width="1" /><text x="51" y="198.20000000000002" font-size="12" text-anchor="end">0.4</text><line x1="54" y1="119" x2="59" y2="119" stroke="#000000" stroke-width="1" /><text x="51" y="123.2" font-size="12" text-anchor="end">0.5</text><line x1="54" y1="44" x2="59" y2="44" stroke="#000000" stroke-width="1" /><text x="51" y="48.2" font-size="12" text-anchor="end">0.6</text><text x="359" y="538" font-size="14" text-anchor="middle">Expression</text><text x="15" y="272.5" font-size="14" text-anchor="middle" transform="rotate(-90,15,272.5)">Density</text><text x="359" y="22" font-size="18" text-anchor="middle">Expression by Group</text><g clip-path="url(#kuva-clip-2)"><path d="M 195.87 493.95 L 197.62 493.92 L 199.38 493.88 L 201.13 493.83 L 202.89000000000001 493.75 L 204.64000000000001 493.65000000000003 L 206.4 493.52000000000004 L 208.15 493.34000000000003 L 209.91 493.11 L 211.66 492.83 L 213.42000000000002 492.47 L 215.17000000000002 492.04 L 216.93 491.53000000000003 L 218.68 490.92 L 220.44 490.22 L 222.19 489.41 L 223.95000000000002 488.5 L 225.70000000000002 487.47 L 227.46 486.33 L 229.21 485.07 L 230.97 483.67 L 232.72 482.15000000000003 L 234.47 480.47 L 236.23000000000002 478.64 L 237.98000000000002 476.66 L 239.74 474.5 L 241.49 472.17 L 243.25 469.68 L 245.0 467.04 L 246.76000000000002 464.28000000000003 L 248.51000000000002 461.42 L 250.27 458.5 L 252.02 455.57 L 253.78 452.67 L 255.53 449.82 L 257.29 447.07 L 259.04 444.43 L 260.8 441.89 L 262.55 439.45 L 264.31 437.07 L 266.06 434.72 L 267.82 432.33 L 269.57 429.86 L 271.33 427.27 L 273.08 424.5 L 274.84000000000003 421.55 L 276.59000000000003 418.38 L 278.35 415.0 L 280.1 411.42 L 281.86 407.65000000000003 L 283.61 403.69 L 285.37 399.52 L 287.12 395.12 L 288.88 390.46000000000004 L 290.63 385.45 L 292.38 380.04 L 294.14 374.11 L 295.89 367.59000000000003 L 297.65000000000003 360.40000000000003 L 299.40000000000003 352.5 L 301.16 343.87 L 302.91 334.58 L 304.67 324.7 L 306.42 314.38 L 308.18 303.81 L 309.93 293.21 L 311.69 282.81 L 313.44 272.84000000000003 L 315.2 263.51 L 316.95 255.0 L 318.71 247.4 L 320.46 240.75 L 322.22 235.07 L 323.97 230.26 L 325.73 226.19 L 327.48 222.70000000000002 L 329.24 219.61 L 330.99 216.73000000000002 L 332.75 213.9 L 334.5 210.97 L 336.26 207.84 L 338.01 204.45000000000002 L 339.77 200.8 L 341.52 196.89000000000001 L 343.28000000000003 192.81 L 345.03000000000003 188.63 L 346.79 184.44 L 348.54 180.37 L 350.29 176.51 L 352.05 172.98 L 353.8 169.88 L 355.56 167.3 L 357.31 165.32 L 359.07 164.05 L 360.82 163.54 L 362.58 163.88 L 364.33 165.13 L 366.09000000000003 167.34 L 367.84000000000003 170.53 L 369.6 174.73 L 371.35 179.93 L 373.11 186.06 L 374.86 193.07 L 376.62 200.83 L 378.37 209.21 L 380.13 218.05 L 381.88 227.16 L 383.64 236.38 L 385.39 245.53 L 387.15000000000003 254.47 L 388.90000000000003 263.07 L 390.66 271.24 L 392.41 278.94 L 394.17 286.18 L 395.92 292.99 L 397.68 299.44 L 399.43 305.64 L 401.19 311.67 L 402.94 317.68 L 404.7 323.74 L 406.45 329.96 L 408.2 336.40000000000003 L 409.96000000000004 343.09000000000003 L 411.71000000000004 350.01 L 413.47 357.14 L 415.22 364.42 L 416.98 371.73 L 418.73 378.98 L 420.49 386.05 L 422.24 392.83 L 424.0 399.21000000000004 L 425.75 405.09000000000003 L 427.51 410.41 L 429.26 415.12 L 431.02 419.23 L 432.77 422.75 L 434.53000000000003 425.73 L 436.28000000000003 428.25 L 438.04 430.40000000000003 L 439.79 432.28000000000003 L 441.55 434.0 L 443.3 435.65000000000003 L 445.06 437.34000000000003 L 446.81 439.12 L 448.57 441.06 L 450.32 443.2 L 452.08 445.54 L 453.83 448.08 L 455.59000000000003 450.8 L 457.34000000000003 453.65000000000003 L 459.1 456.6 L 460.85 459.59000000000003 L 462.61 462.56 L 464.36 465.48 L 466.11 468.28000000000003 L 467.87 470.93 L 469.62 473.40000000000003 L 471.38 475.65000000000003 L 473.13 477.67 L 474.89 479.45 L 476.64 480.96000000000004 L 478.40000000000003 482.22 L 480.15000000000003 483.21000000000004 L 481.91 483.94 L 483.66 484.42 L 485.42 484.68 L 487.17 484.73 L 488.93 484.61 L 490.68 484.35 L 492.44 483.99 L 494.19 483.58 L 495.95 483.18 L 497.7 482.81 L 499.46000000000004 482.53000000000003 L 501.21000000000004 482.37 L 502.97 482.36 L 504.72 482.51 L 506.48 482.83 L 508.23 483.31 L 509.99 483.94 L 511.74 484.68 L 513.5 485.52 L 515.25 486.41 L 517.01 487.33 L 518.76 488.23 L 520.52 489.1 L 522.27 489.92 L 524.02 490.65000000000003 L 525.78 491.31 L 527.53 491.87 L 529.29 492.34000000000003 L 531.04 492.74 L 532.8 493.05 L 534.55 493.3 L 536.3100000000001 493.49 L 538.0600000000001 493.64 L 539.82 493.75 L 541.57 493.83 L 543.33 493.88 L 545.08 493.92 L 545.08 494 L 195.87 494 Z" stroke="none" stroke-width="0" fill="#1f77b4" fill-opacity="0.2" /><path d="M 195.87 493.95 L 197.62 493.92 L 199.38 493.88 L 201.13 493.83 L 202.89000000000001 493.75 L 204.64000000000001 493.65000000000003 L 206.4 493.52000000000004 L 208.15 493.34000000000003 L 209.91 493.11 L 211.66 492.83 L 213.42000000000002 492.47 L 215.17000000000002 492.04 L 216.93 491.53000000000003 L 218.68 490.92 L 220.44 490.22 L 222.19 489.41 L 223.95000000000002 488.5 L 225.70000000000002 487.47 L 227.46 486.33 L 229.21 485.07 L 230.97 483.67 L 232.72 482.15000000000003 L 234.47 480.47 L 236.23000000000002 478.64 L 237.98000000000002 476.66 L 239.74 474.5 L 241.49 472.17 L 243.25 469.68 L 245.0 467.04 L 246.76000000000002 464.28000000000003 L 248.51000000000002 461.42 L 250.27 458.5 L 252.02 455.57 L 253.78 452.67 L 255.53 449.82 L 257.29 447.07 L 259.04 444.43 L 260.8 441.89 L 262.55 439.45 L 264.31 437.07 L 266.06 434.72 L 267.82 432.33 L 269.57 429.86 L 271.33 427.27 L 273.08 424.5 L 274.84000000000003 421.55 L 276.59000000000003 418.38 L 278.35 415.0 L 280.1 411.42 L 281.86 407.65000000000003 L 283.61 403.69 L 285.37 399.52 L 287.12 395.12 L 288.88 390.46000000000004 L 290.63 385.45 L 292.38 380.04 L 294.14 374.11 L 295.89 367.59000000000003 L 297.65000000000003 360.40000000000003 L 299.40000000000003 352.5 L 301.16 343.87 L 302.91 334.58 L 304.67 324.7 L 306.42 314.38 L 308.18 303.81 L 309.93 293.21 L 311.69 282.81 L 313.44 272.84000000000003 L 315.2 263.51 L 316.95 255.0 L 318.71 247.4 L 320.46 240.75 L 322.22 235.07 L 323.97 230.26 L 325.73 226.19 L 327.48 222.70000000000002 L 329.24 219.61 L 330.99 216.73000000000002 L 332.75 213.9 L 334.5 210.97 L 336.26 207.84 L 338.01 204.45000000000002 L 339.77 200.8 L 341.52 196.89000000000001 L 343.28000000000003 192.81 L 345.03000000000003 188.63 L 346.79 184.44 L 348.54 180.37 L 350.29 176.51 L 352.05 172.98 L 353.8 169.88 L 355.56 167.3 L 357.31 165.32 L 359.07 164.05 L 360.82 163.54 L 362.58 163.88 L 364.33 165.13 L 366.09000000000003 167.34 L 367.84000000000003 170.53 L 369.6 174.73 L 371.35 179.93 L 373.11 186.06 L 374.86 193.07 L 376.62 200.83 L 378.37 209.21 L 380.13 218.05 L 381.88 227.16 L 383.64 236.38 L 385.39 245.53 L 387.15000000000003 254.47 L 388.90000000000003 263.07 L 390.66 271.24 L 392.41 278.94 L 394.17 286.18 L 395.92 292.99 L 397.68 299.44 L 399.43 305.64 L 401.19 311.67 L 402.94 317.68 L 404.7 323.74 L 406.45 329.96 L 408.2 336.40000000000003 L 409.96000000000004 343.09000000000003 L 411.71000000000004 350.01 L 413.47 357.14 L 415.22 364.42 L 416.98 371.73 L 418.73 378.98 L 420.49 386.05 L 422.24 392.83 L 424.0 399.21000000000004 L 425.75 405.09000000000003 L 427.51 410.41 L 429.26 415.12 L 431.02 419.23 L 432.77 422.75 L 434.53000000000003 425.73 L 436.28000000000003 428.25 L 438.04 430.40000000000003 L 439.79 432.28000000000003 L 441.55 434.0 L 443.3 435.65000000000003 L 445.06 437.34000000000003 L 446.81 439.12 L 448.57 441.06 L 450.32 443.2 L 452.08 445.54 L 453.83 448.08 L 455.59000000000003 450.8 L 457.34000000000003 453.65000000000003 L 459.1 456.6 L 460.85 459.59000000000003 L 462.61 462.56 L 464.36 465.48 L 466.11 468.28000000000003 L 467.87 470.93 L 469.62 473.40000000000003 L 471.38 475.65000000000003 L 473.13 477.67 L 474.89 479.45 L 476.64 480.96000000000004 L 478.40000000000003 482.22 L 480.15000000000003 483.21000000000004 L 481.91 483.94 L 483.66 484.42 L 485.42 484.68 L 487.17 484.73 L 488.93 484.61 L 490.68 484.35 L 492.44 483.99 L 494.19 483.58 L 495.95 483.18 L 497.7 482.81 L 499.46000000000004 482.53000000000003 L 501.21000000000004 482.37 L 502.97 482.36 L 504.72 482.51 L 506.48 482.83 L 508.23 483.31 L 509.99 483.94 L 511.74 484.68 L 513.5 485.52 L 515.25 486.41 L 517.01 487.33 L 518.76 488.23 L 520.52 489.1 L 522.27 489.92 L 524.02 490.65000000000003 L 525.78 491.31 L 527.53 491.87 L 529.29 492.34000000000003 L 531.04 492.74 L 532.8 493.05 L 534.55 493.3 L 536.3100000000001 493.49 L 538.0600000000001 493.64 L 539.82 493.75 L 541.57 493.83 L 543.33 493.88 L 545.08 493.92" stroke="#1f77b4" stroke-width="2" fill="none" /><path d="M 318.57 493.89 L 319.86 493.85 L 321.14 493.78000000000003 L 322.42 493.68 L 323.7 493.56 L 324.99 493.39 L 326.27 493.17 L 327.55 492.88 L 328.83 492.52000000000004 L 330.12 492.05 L 331.40000000000003 491.47 L 332.68 490.75 L 333.96 489.87 L 335.25 488.81 L 336.53000000000003 487.55 L 337.81 486.08 L 339.09000000000003 484.37 L 340.37 482.40000000000003 L 341.66 480.17 L 342.94 477.67 L 344.22 474.90000000000003 L 345.5 471.86 L 346.79 468.57 L 348.07 465.04 L 349.35 461.3 L 350.63 457.36 L 351.92 453.24 L 353.2 448.99 L 354.48 444.63 L 355.76 440.16 L 357.05 435.63 L 358.33 431.01 L 359.61 426.34000000000003 L 360.89 421.6 L 362.18 416.76 L 363.46 411.8 L 364.74 406.69 L 366.02 401.39 L 367.31 395.87 L 368.59000000000003 390.09000000000003 L 369.87 384.01 L 371.15000000000003 377.62 L 372.43 370.89 L 373.72 363.85 L 375.0 356.51 L 376.28000000000003 348.90000000000003 L 377.56 341.06 L 378.85 333.06 L 380.13 324.94 L 381.41 316.77 L 382.69 308.6 L 383.98 300.48 L 385.26 292.44 L 386.54 284.49 L 387.82 276.63 L 389.11 268.85 L 390.39 261.12 L 391.67 253.4 L 392.95 245.65 L 394.24 237.84 L 395.52 229.93 L 396.8 221.9 L 398.08 213.75 L 399.37 205.49 L 400.65000000000003 197.16 L 401.93 188.8 L 403.21000000000004 180.48 L 404.5 172.3 L 405.78000000000003 164.33 L 407.06 156.66 L 408.34000000000003 149.4 L 409.62 142.62 L 410.91 136.42000000000002 L 412.19 130.84 L 413.47 125.96000000000001 L 414.75 121.8 L 416.04 118.39 L 417.32 115.74000000000001 L 418.6 113.83 L 419.88 112.65 L 421.17 112.16 L 422.45 112.33 L 423.73 113.09 L 425.01 114.4 L 426.3 116.2 L 427.58 118.45 L 428.86 121.05 L 430.14 123.99000000000001 L 431.43 127.18 L 432.71000000000004 130.6 L 433.99 134.2 L 435.27 137.93 L 436.56 141.78 L 437.84000000000003 145.74 L 439.12 149.78 L 440.40000000000003 153.91 L 441.68 158.14000000000001 L 442.97 162.46 L 444.25 166.91 L 445.53000000000003 171.48 L 446.81 176.18 L 448.1 181.04 L 449.38 186.04 L 450.66 191.19 L 451.94 196.46 L 453.23 201.82 L 454.51 207.25 L 455.79 212.69 L 457.07 218.11 L 458.36 223.43 L 459.64 228.62 L 460.92 233.63 L 462.2 238.42000000000002 L 463.49 242.98000000000002 L 464.77 247.3 L 466.05 251.37 L 467.33 255.25 L 468.62 258.96 L 469.90000000000003 262.57 L 471.18 266.16 L 472.46000000000004 269.81 L 473.74 273.58 L 475.03000000000003 277.57 L 476.31 281.82 L 477.59000000000003 286.40000000000003 L 478.87 291.35 L 480.16 296.66 L 481.44 302.34000000000003 L 482.72 308.35 L 484.0 314.64 L 485.29 321.15000000000003 L 486.57 327.8 L 487.85 334.53000000000003 L 489.13 341.24 L 490.42 347.87 L 491.7 354.34000000000003 L 492.98 360.63 L 494.26 366.7 L 495.55 372.53000000000003 L 496.83 378.13 L 498.11 383.53000000000003 L 499.39 388.74 L 500.68 393.82 L 501.96000000000004 398.81 L 503.24 403.74 L 504.52000000000004 408.64 L 505.8 413.56 L 507.09000000000003 418.49 L 508.37 423.44 L 509.65000000000003 428.41 L 510.93 433.35 L 512.22 438.23 L 513.5 443.0 L 514.78 447.62 L 516.0600000000001 452.02 L 517.35 456.15000000000003 L 518.63 459.98 L 519.91 463.46000000000004 L 521.19 466.56 L 522.48 469.27 L 523.76 471.58 L 525.04 473.51 L 526.32 475.07 L 527.61 476.31 L 528.89 477.25 L 530.17 477.94 L 531.45 478.45 L 532.74 478.8 L 534.02 479.07 L 535.3 479.3 L 536.58 479.52 L 537.86 479.77 L 539.15 480.09000000000003 L 540.4300000000001 480.49 L 541.71 480.98 L 542.99 481.57 L 544.28 482.26 L 545.5600000000001 483.02 L 546.84 483.85 L 548.12 484.73 L 549.41 485.63 L 550.69 486.54 L 551.97 487.43 L 553.25 488.29 L 554.54 489.1 L 555.82 489.84000000000003 L 557.1 490.53000000000003 L 558.38 491.14 L 559.67 491.67 L 560.95 492.13 L 562.23 492.51 L 563.51 492.84000000000003 L 564.8000000000001 493.1 L 566.08 493.32 L 567.36 493.49 L 568.64 493.62 L 569.92 493.72 L 571.21 493.8 L 572.49 493.86 L 573.77 493.90000000000003 L 573.77 494 L 318.57 494 Z" stroke="none" stroke-width="0" fill="#ff7f0e" fill-opacity="0.2" /><path d="M 318.57 493.89 L 319.86 493.85 L 321.14 493.78000000000003 L 322.42 493.68 L 323.7 493.56 L 324.99 493.39 L 326.27 493.17 L 327.55 492.88 L 328.83 492.52000000000004 L 330.12 492.05 L 331.40000000000003 491.47 L 332.68 490.75 L 333.96 489.87 L 335.25 488.81 L 336.53000000000003 487.55 L 337.81 486.08 L 339.09000000000003 484.37 L 340.37 482.40000000000003 L 341.66 480.17 L 342.94 477.67 L 344.22 474.90000000000003 L 345.5 471.86 L 346.79 468.57 L 348.07 465.04 L 349.35 461.3 L 350.63 457.36 L 351.92 453.24 L 353.2 448.99 L 354.48 444.63 L 355.76 440.16 L 357.05 435.63 L 358.33 431.01 L 359.61 426.34000000000003 L 360.89 421.6 L 362.18 416.76 L 363.46 411.8 L 364.74 406.69 L 366.02 401.39 L 367.31 395.87 L 368.59000000000003 390.09000000000003 L 369.87 384.01 L 371.15000000000003 377.62 L 372.43 370.89 L 373.72 363.85 L 375.0 356.51 L 376.28000000000003 348.90000000000003 L 377.56 341.06 L 378.85 333.06 L 380.13 324.94 L 381.41 316.77 L 382.69 308.6 L 383.98 300.48 L 385.26 292.44 L 386.54 284.49 L 387.82 276.63 L 389.11 268.85 L 390.39 261.12 L 391.67 253.4 L 392.95 245.65 L 394.24 237.84 L 395.52 229.93 L 396.8 221.9 L 398.08 213.75 L 399.37 205.49 L 400.65000000000003 197.16 L 401.93 188.8 L 403.21000000000004 180.48 L 404.5 172.3 L 405.78000000000003 164.33 L 407.06 156.66 L 408.34000000000003 149.4 L 409.62 142.62 L 410.91 136.42000000000002 L 412.19 130.84 L 413.47 125.96000000000001 L 414.75 121.8 L 416.04 118.39 L 417.32 115.74000000000001 L 418.6 113.83 L 419.88 112.65 L 421.17 112.16 L 422.45 112.33 L 423.73 113.09 L 425.01 114.4 L 426.3 116.2 L 427.58 118.45 L 428.86 121.05 L 430.14 123.99000000000001 L 431.43 127.18 L 432.71000000000004 130.6 L 433.99 134.2 L 435.27 137.93 L 436.56 141.78 L 437.84000000000003 145.74 L 439.12 149.78 L 440.40000000000003 153.91 L 441.68 158.14000000000001 L 442.97 162.46 L 444.25 166.91 L 445.53000000000003 171.48 L 446.81 176.18 L 448.1 181.04 L 449.38 186.04 L 450.66 191.19 L 451.94 196.46 L 453.23 201.82 L 454.51 207.25 L 455.79 212.69 L 457.07 218.11 L 458.36 223.43 L 459.64 228.62 L 460.92 233.63 L 462.2 238.42000000000002 L 463.49 242.98000000000002 L 464.77 247.3 L 466.05 251.37 L 467.33 255.25 L 468.62 258.96 L 469.90000000000003 262.57 L 471.18 266.16 L 472.46000000000004 269.81 L 473.74 273.58 L 475.03000000000003 277.57 L 476.31 281.82 L 477.59000000000003 286.40000000000003 L 478.87 291.35 L 480.16 296.66 L 481.44 302.34000000000003 L 482.72 308.35 L 484.0 314.64 L 485.29 321.15000000000003 L 486.57 327.8 L 487.85 334.53000000000003 L 489.13 341.24 L 490.42 347.87 L 491.7 354.34000000000003 L 492.98 360.63 L 494.26 366.7 L 495.55 372.53000000000003 L 496.83 378.13 L 498.11 383.53000000000003 L 499.39 388.74 L 500.68 393.82 L 501.96000000000004 398.81 L 503.24 403.74 L 504.52000000000004 408.64 L 505.8 413.56 L 507.09000000000003 418.49 L 508.37 423.44 L 509.65000000000003 428.41 L 510.93 433.35 L 512.22 438.23 L 513.5 443.0 L 514.78 447.62 L 516.0600000000001 452.02 L 517.35 456.15000000000003 L 518.63 459.98 L 519.91 463.46000000000004 L 521.19 466.56 L 522.48 469.27 L 523.76 471.58 L 525.04 473.51 L 526.32 475.07 L 527.61 476.31 L 528.89 477.25 L 530.17 477.94 L 531.45 478.45 L 532.74 478.8 L 534.02 479.07 L 535.3 479.3 L 536.58 479.52 L 537.86 479.77 L 539.15 480.09000000000003 L 540.4300000000001 480.49 L 541.71 480.98 L 542.99 481.57 L 544.28 482.26 L 545.5600000000001 483.02 L 546.84 483.85 L 548.12 484.73 L 549.41 485.63 L 550.69 486.54 L 551.97 487.43 L 553.25 488.29 L 554.54 489.1 L 555.82 489.84000000000003 L 557.1 490.53000000000003 L 558.38 491.14 L 559.67 491.67 L 560.95 492.13 L 562.23 492.51 L 563.51 492.84000000000003 L 564.8000000000001 493.1 L 566.08 493.32 L 567.36 493.49 L 568.64 493.62 L 569.92 493.72 L 571.21 493.8 L 572.49 493.86 L 573.77 493.90000000000003" stroke="#ff7f0e" stroke-width="2" fill="none" /><path d="M 93.28 493.96000000000004 L 95.8 493.95 L 98.31 493.92 L 100.83 493.89 L 103.35000000000001 493.84000000000003 L 105.86 493.77000000000004 L 108.38 493.68 L 110.89 493.57 L 113.41 493.43 L 115.93 493.24 L 118.44 493.02000000000004 L 120.96000000000001 492.74 L 123.47 492.41 L 125.99000000000001 492.02000000000004 L 128.5 491.57 L 131.02 491.06 L 133.54 490.48 L 136.05 489.85 L 138.57 489.17 L 141.08 488.44 L 143.6 487.68 L 146.12 486.90000000000003 L 148.63 486.1 L 151.15 485.31 L 153.66 484.52 L 156.18 483.74 L 158.70000000000002 482.98 L 161.21 482.22 L 163.73 481.46000000000004 L 166.24 480.68 L 168.76 479.86 L 171.28 478.99 L 173.79 478.02 L 176.31 476.93 L 178.82 475.7 L 181.34 474.3 L 183.86 472.7 L 186.37 470.88 L 188.89000000000001 468.83 L 191.4 466.56 L 193.92000000000002 464.04 L 196.43 461.29 L 198.95000000000002 458.32 L 201.47 455.14 L 203.98000000000002 451.76 L 206.5 448.2 L 209.01 444.46000000000004 L 211.53 440.57 L 214.05 436.52 L 216.56 432.33 L 219.08 427.99 L 221.59 423.52 L 224.11 418.91 L 226.63 414.18 L 229.14000000000001 409.34000000000003 L 231.66 404.39 L 234.17000000000002 399.36 L 236.69 394.26 L 239.21 389.12 L 241.72 383.97 L 244.24 378.81 L 246.75 373.69 L 249.27 368.61 L 251.79 363.6 L 254.3 358.66 L 256.82 353.82 L 259.33 349.06 L 261.85 344.41 L 264.36 339.85 L 266.88 335.39 L 269.4 331.04 L 271.91 326.8 L 274.43 322.7 L 276.94 318.75 L 279.46 314.97 L 281.98 311.40000000000003 L 284.49 308.08 L 287.01 305.05 L 289.52 302.34000000000003 L 292.04 299.98 L 294.56 298.01 L 297.07 296.43 L 299.59000000000003 295.24 L 302.1 294.42 L 304.62 293.95 L 307.14 293.76 L 309.65000000000003 293.82 L 312.17 294.06 L 314.68 294.41 L 317.2 294.81 L 319.72 295.21 L 322.23 295.58 L 324.75 295.87 L 327.26 296.08 L 329.78000000000003 296.19 L 332.3 296.25 L 334.81 296.28000000000003 L 337.33 296.32 L 339.84000000000003 296.41 L 342.36 296.63 L 344.87 297.02 L 347.39 297.65000000000003 L 349.91 298.55 L 352.42 299.78000000000003 L 354.94 301.36 L 357.45 303.3 L 359.97 305.59000000000003 L 362.49 308.24 L 365.0 311.2 L 367.52 314.43 L 370.03000000000003 317.91 L 372.55 321.56 L 375.07 325.34000000000003 L 377.58 329.22 L 380.1 333.16 L 382.61 337.13 L 385.13 341.12 L 387.65000000000003 345.13 L 390.16 349.16 L 392.68 353.22 L 395.19 357.34000000000003 L 397.71000000000004 361.52 L 400.23 365.79 L 402.74 370.14 L 405.26 374.59000000000003 L 407.77 379.12 L 410.29 383.71000000000004 L 412.8 388.37 L 415.32 393.04 L 417.84000000000003 397.71000000000004 L 420.35 402.36 L 422.87 406.94 L 425.38 411.44 L 427.90000000000003 415.84000000000003 L 430.42 420.12 L 432.93 424.26 L 435.45 428.28000000000003 L 437.96000000000004 432.15000000000003 L 440.48 435.89 L 443.0 439.49 L 445.51 442.96000000000004 L 448.03000000000003 446.3 L 450.54 449.52 L 453.06 452.6 L 455.58 455.56 L 458.09000000000003 458.37 L 460.61 461.04 L 463.12 463.56 L 465.64 465.93 L 468.16 468.12 L 470.67 470.17 L 473.19 472.04 L 475.7 473.75 L 478.22 475.31 L 480.74 476.72 L 483.25 478.0 L 485.77 479.15000000000003 L 488.28000000000003 480.18 L 490.8 481.11 L 493.31 481.94 L 495.83 482.69 L 498.35 483.36 L 500.86 483.95 L 503.38 484.47 L 505.89 484.93 L 508.41 485.32 L 510.93 485.66 L 513.44 485.96000000000004 L 515.96 486.21000000000004 L 518.47 486.43 L 520.99 486.63 L 523.51 486.83 L 526.02 487.03000000000003 L 528.54 487.24 L 531.05 487.49 L 533.57 487.76 L 536.09 488.08 L 538.6 488.43 L 541.12 488.81 L 543.63 489.23 L 546.15 489.66 L 548.67 490.11 L 551.1800000000001 490.56 L 553.7 491.0 L 556.21 491.42 L 558.73 491.82 L 561.24 492.18 L 563.76 492.51 L 566.28 492.8 L 568.79 493.04 L 571.3100000000001 493.25 L 573.82 493.42 L 576.34 493.56 L 578.86 493.67 L 581.37 493.76 L 583.89 493.83 L 586.4 493.88 L 588.92 493.91 L 591.44 493.94 L 593.95 493.96000000000004 L 593.95 494 L 93.28 494 Z" stroke="none" stroke-width="0" fill="#2ca02c" fill-opacity="0.2" /><path d="M 93.28 493.96000000000004 L 95.8 493.95 L 98.31 493.92 L 100.83 493.89 L 103.35000000000001 493.84000000000003 L 105.86 493.77000000000004 L 108.38 493.68 L 110.89 493.57 L 113.41 493.43 L 115.93 493.24 L 118.44 493.02000000000004 L 120.96000000000001 492.74 L 123.47 492.41 L 125.99000000000001 492.02000000000004 L 128.5 491.57 L 131.02 491.06 L 133.54 490.48 L 136.05 489.85 L 138.57 489.17 L 141.08 488.44 L 143.6 487.68 L 146.12 486.90000000000003 L 148.63 486.1 L 151.15 485.31 L 153.66 484.52 L 156.18 483.74 L 158.70000000000002 482.98 L 161.21 482.22 L 163.73 481.46000000000004 L 166.24 480.68 L 168.76 479.86 L 171.28 478.99 L 173.79 478.02 L 176.31 476.93 L 178.82 475.7 L 181.34 474.3 L 183.86 472.7 L 186.37 470.88 L 188.89000000000001 468.83 L 191.4 466.56 L 193.92000000000002 464.04 L 196.43 461.29 L 198.95000000000002 458.32 L 201.47 455.14 L 203.98000000000002 451.76 L 206.5 448.2 L 209.01 444.46000000000004 L 211.53 440.57 L 214.05 436.52 L 216.56 432.33 L 219.08 427.99 L 221.59 423.52 L 224.11 418.91 L 226.63 414.18 L 229.14000000000001 409.34000000000003 L 231.66 404.39 L 234.17000000000002 399.36 L 236.69 394.26 L 239.21 389.12 L 241.72 383.97 L 244.24 378.81 L 246.75 373.69 L 249.27 368.61 L 251.79 363.6 L 254.3 358.66 L 256.82 353.82 L 259.33 349.06 L 261.85 344.41 L 264.36 339.85 L 266.88 335.39 L 269.4 331.04 L 271.91 326.8 L 274.43 322.7 L 276.94 318.75 L 279.46 314.97 L 281.98 311.40000000000003 L 284.49 308.08 L 287.01 305.05 L 289.52 302.34000000000003 L 292.04 299.98 L 294.56 298.01 L 297.07 296.43 L 299.59000000000003 295.24 L 302.1 294.42 L 304.62 293.95 L 307.14 293.76 L 309.65000000000003 293.82 L 312.17 294.06 L 314.68 294.41 L 317.2 294.81 L 319.72 295.21 L 322.23 295.58 L 324.75 295.87 L 327.26 296.08 L 329.78000000000003 296.19 L 332.3 296.25 L 334.81 296.28000000000003 L 337.33 296.32 L 339.84000000000003 296.41 L 342.36 296.63 L 344.87 297.02 L 347.39 297.65000000000003 L 349.91 298.55 L 352.42 299.78000000000003 L 354.94 301.36 L 357.45 303.3 L 359.97 305.59000000000003 L 362.49 308.24 L 365.0 311.2 L 367.52 314.43 L 370.03000000000003 317.91 L 372.55 321.56 L 375.07 325.34000000000003 L 377.58 329.22 L 380.1 333.16 L 382.61 337.13 L 385.13 341.12 L 387.65000000000003 345.13 L 390.16 349.16 L 392.68 353.22 L 395.19 357.34000000000003 L 397.71000000000004 361.52 L 400.23 365.79 L 402.74 370.14 L 405.26 374.59000000000003 L 407.77 379.12 L 410.29 383.71000000000004 L 412.8 388.37 L 415.32 393.04 L 417.84000000000003 397.71000000000004 L 420.35 402.36 L 422.87 406.94 L 425.38 411.44 L 427.90000000000003 415.84000000000003 L 430.42 420.12 L 432.93 424.26 L 435.45 428.28000000000003 L 437.96000000000004 432.15000000000003 L 440.48 435.89 L 443.0 439.49 L 445.51 442.96000000000004 L 448.03000000000003 446.3 L 450.54 449.52 L 453.06 452.6 L 455.58 455.56 L 458.09000000000003 458.37 L 460.61 461.04 L 463.12 463.56 L 465.64 465.93 L 468.16 468.12 L 470.67 470.17 L 473.19 472.04 L 475.7 473.75 L 478.22 475.31 L 480.74 476.72 L 483.25 478.0 L 485.77 479.15000000000003 L 488.28000000000003 480.18 L 490.8 481.11 L 493.31 481.94 L 495.83 482.69 L 498.35 483.36 L 500.86 483.95 L 503.38 484.47 L 505.89 484.93 L 508.41 485.32 L 510.93 485.66 L 513.44 485.96000000000004 L 515.96 486.21000000000004 L 518.47 486.43 L 520.99 486.63 L 523.51 486.83 L 526.02 487.03000000000003 L 528.54 487.24 L 531.05 487.49 L 533.57 487.76 L 536.09 488.08 L 538.6 488.43 L 541.12 488.81 L 543.63 489.23 L 546.15 489.66 L 548.67 490.11 L 551.1800000000001 490.56 L 553.7 491.0 L 556.21 491.42 L 558.73 491.82 L 561.24 492.18 L 563.76 492.51 L 566.28 492.8 L 568.79 493.04 L 571.3100000000001 493.25 L 573.82 493.42 L 576.34 493.56 L 578.86 493.67 L 581.37 493.76 L 583.89 493.83 L 586.4 493.88 L 588.92 493.91 L 591.44 493.94 L 593.95 493.96000000000004" stroke="#2ca02c" stroke-width="2" fill="none" /></g><rect x="664" y="34" width="128.5" height="74" fill="#ffffff" /><rect x="664" y="34" width="128.5" height="74" fill="none" stroke="#000000" stroke-width="1" /><text x="694" y="53.2" font-size="12" text-anchor="start">Control</text><line x1="674" y1="49" x2="686" y2="49" stroke="#1f77b4" stroke-width="2" /><text x="694" y="71.2" font-size="12" text-anchor="start">Treatment A</text><line x1="674" y1="67" x2="686" y2="67" stroke="#ff7f0e" stroke-width="2" /><text x="694" y="89.2" font-size="12" text-anchor="start">Treatment B</text><line x1="674" y1="85" x2="686" y2="85" stroke="#2ca02c" stroke-width="2" /></svg>