<svg xmlns="http://www.w3.org/2000/svg" width="677" height="545" font-family="DejaVu Sans, Liberation Sans, Arial, sans-serif" fill="black"><rect width="100%" height="100%" fill="white" /><defs><clipPath id="kuva-clip-0"><rect x="59" y="44" width="600" height="450"/></clipPath></defs><line x1="159" y1="44" x2="159" y2="494" stroke="#cccccc" stroke-width="1" /><line x1="259" y1="44" x2="259" y2="494" stroke="#cccccc" stroke-width="1" /><line x1="359" y1="44" x2="359" y2="494" stroke="#cccccc" stroke-width="1" /><line x1="459" y1="44" x2="459" y2="494" stroke="#cccccc" stroke-width="1" /><line x1="559" y1="44" x2="559" y2="494" stroke="#cccccc" stroke-width="1" /><line x1="659" y1="44" x2="659" y2="494" stroke="#cccccc" stroke-width="1" /><line x1="59" y1="400.25" x2="659" y2="400.25" stroke="#cccccc" stroke-width="1" /><line x1="59" y1="306.5" x2="659" y2="306.5" stroke="#cccccc" stroke-width="1" /><line x1="59" y1="212.75" x2="659" y2="212.75" stroke="#cccccc" stroke-width="1" /><line x1="59" y1="119" x2="659" y2="119" stroke="#cccccc" stroke-width="1" /><line x1="59" y1="494" x2="659" y2="494" stroke="#000000" stroke-width="1" /><line x1="59" y1="44" x2="59" y2="494" stroke="#000000" stroke-width="1" /><line x1="59" y1="494" x2="59" y2="499" stroke="#000000" stroke-width="1" /><text x="59" y="511" font-size="12" text-anchor="middle">-3</text><line x1="159" y1="494" x2="159" y2="499" stroke="#000000" stroke-width="1" /><text x="159" y="511" font-size="12" text-anchor="middle">-2</text><line x1="259" y1="494" x2="259" y2="499" stroke="#000000" stroke-width="1" /><text x="259" y="511" font-size="12" text-anchor="middle">-1</text><line x1="359" y1="494" x2="359" y2="499" stroke="#000000" stroke-width="1" /><text x="359" y="511" font-size="12" text-anchor="middle">0</text><line x1="459" y1="494" x2="459" y2="499" stroke="#000000" stroke-width="1" /><text x="459" y="511" font-size="12" text-anchor="middle">1</text><line x1="559" y1="494" x2="559" y2="499" stroke="#000000" stroke-width="1" /><text x="559" y="511" font-size="12" text-anchor="middle">2</text><line x1="659" y1="494" x2="659" y2="499" stroke="#000000" stroke-width="1" /><text x="659" y="511" font-size="12" text-anchor="middle">3</text><line x1="54" y1="494" x2="59" y2="494" stroke="#000000" stroke-width="1" /><text x="51" y="498.2" font-size="12" text-anchor="end">0</text><line x1="54" y1="400.25" x2="59" y2="400.25" stroke="#000000" stroke-width="1" /><text x="51" y="404.45" font-size="12" text-anchor="end">0.25</text><line x1="54" y1="306.5" x2="59" y2="306.5" stroke="#000000" stroke-width="1" /><text x="51" y="310.7" font-size="12" text-anchor="end">0.5</text><line x1="54" y1="212.75" x2="59" y2="212.75" stroke="#000000" stroke-width="1" /><text x="51" y="216.95000000000002" font-size="12" text-anchor="end">0.75</text><line x1="54" y1="119" x2="59" y2="119" stroke="#000000" stroke-width="1" /><text x="51" y="123.2" font-size="12" text-anchor="end">1</text><text x="359" y="538" font-size="14" text-anchor="middle">Value</text><text x="15" y="272.5" font-size="14" text-anchor="middle" transform="rotate(-90,15,272.5)">F(x)</text><text x="338.5" y="27.400000000000002" font-size="18" text-anchor="middle">ECDF</text><g clip-path="url(#kuva-clip-0)"><path d="M 100.94,494 V 492.13 H 124.87 V 490.25 H 158.64000000000001 V 488.38 H 172.84 V 486.5 H 173.42000000000002 V 484.63 H 176.23 V 482.75 H 198.55 V 480.88 H 203.86 V 479 H 211.24 V 477.13 H 211.53 V 475.25 H 213.06 V 473.38 H 216.57 V 471.5 H 219.70000000000002 V 469.63 H 220.11 V 467.75 H 221.27 V 465.88 H 221.4 V 464 H 224.03 V 462.13 H 224.62 V 460.25 H 225.31 V 458.38 H 230.53 V 456.5 H 231.96 V 454.63 H 233.38 V 452.75 H 234.07 V 450.88 H 234.27 V 449 H 234.39000000000001 V 447.13 H 234.39000000000001 V 445.25 H 239.83 V 443.38 H 246.9 V 441.5 H 251.34 V 439.63 H 253.49 V 437.75 H 255.21 V 435.88 H 261.48 V 434 H 262.09000000000003 V 432.13 H 262.72 V 430.25 H 268.03000000000003 V 428.38 H 269.31 V 426.5 H 271.2 V 424.63 H 271.48 V 422.75 H 271.64 V 420.88 H 277.58 V 419 H 280.63 V 417.13 H 282.59000000000003 V 415.25 H 284.37 V 413.38 H 289.87 V 411.5 H 290.51 V 409.63 H 292.3 V 407.75 H 292.47 V 405.88 H 292.49 V 404 H 293.27 V 402.13 H 294.98 V 400.25 H 295.28000000000003 V 398.38 H 298.04 V 396.5 H 302.23 V 394.63 H 302.77 V 392.75 H 304.31 V 390.88 H 304.74 V 389 H 305.41 V 387.13 H 305.85 V 385.25 H 307.5 V 383.38 H 318.21 V 381.5 H 320.17 V 379.63 H 320.26 V 377.75 H 320.3 V 375.88 H 320.54 V 374 H 321.89 V 372.13 H 322.06 V 370.25 H 322.46 V 368.38 H 322.64 V 366.5 H 323.23 V 364.63 H 323.58 V 362.75 H 323.88 V 360.88 H 324.11 V 359 H 325.68 V 357.13 H 329.27 V 355.25 H 329.72 V 353.38 H 329.73 V 351.5 H 330.01 V 349.63 H 331.07 V 347.75 H 331.52 V 345.88 H 333.40000000000003 V 344 H 336.67 V 342.13 H 337.32 V 340.25 H 337.51 V 338.38 H 338.6 V 336.5 H 342.78000000000003 V 334.63 H 343.65000000000003 V 332.75 H 344.32 V 330.88 H 344.47 V 329 H 346.57 V 327.13 H 347.63 V 325.25 H 348.54 V 323.38 H 348.6 V 321.5 H 348.6 V 319.63 H 353.33 V 317.75 H 353.55 V 315.88 H 354.76 V 314 H 355.68 V 312.13 H 361.11 V 310.25 H 363.76 V 308.38 H 363.83 V 306.5 H 364.75 V 304.63 H 366.14 V 302.75 H 367.99 V 300.88 H 368.71 V 299 H 368.90000000000003 V 297.13 H 369.75 V 295.25 H 371.54 V 293.38 H 372.76 V 291.5 H 372.99 V 289.63 H 373.18 V 287.75 H 374.67 V 285.88 H 377.58 V 284 H 379.69 V 282.13 H 380.51 V 280.25 H 382.90000000000003 V 278.38 H 384.01 V 276.5 H 386.41 V 274.63 H 386.52 V 272.75 H 386.67 V 270.88 H 387.11 V 269 H 387.54 V 267.13 H 389.18 V 265.25 H 390.81 V 263.38 H 390.87 V 261.5 H 394.87 V 259.63 H 395.48 V 257.75 H 396.6 V 255.88 H 397.72 V 254 H 398.26 V 252.13 H 398.37 V 250.25 H 400.45 V 248.38 H 403.37 V 246.5 H 405.25 V 244.63 H 405.45 V 242.75 H 408.48 V 240.88 H 410.66 V 239 H 411.11 V 237.13 H 411.81 V 235.25 H 412.06 V 233.38 H 413.36 V 231.5 H 416.55 V 229.63 H 416.93 V 227.75 H 417.53000000000003 V 225.88 H 419.48 V 224 H 423.92 V 222.13 H 424.13 V 220.25 H 424.69 V 218.38 H 425.1 V 216.5 H 425.88 V 214.63 H 426.15000000000003 V 212.75 H 428.82 V 210.88 H 431.19 V 209 H 431.86 V 207.13 H 432.7 V 205.25 H 434.54 V 203.38 H 436.24 V 201.5 H 437.14 V 199.63 H 437.6 V 197.75 H 437.77 V 195.88 H 437.93 V 194 H 439.45 V 192.13 H 440.16 V 190.25 H 441.92 V 188.38 H 442.44 V 186.5 H 443.12 V 184.63 H 443.54 V 182.75 H 443.65000000000003 V 180.88 H 444.5 V 179 H 445.31 V 177.13 H 447.93 V 175.25 H 448.04 V 173.38 H 449.77 V 171.5 H 450.38 V 169.63 H 451.29 V 167.75 H 453.24 V 165.88 H 453.29 V 164 H 454.37 V 162.13 H 460.72 V 160.25 H 465.53000000000003 V 158.38 H 471.12 V 156.5 H 474.6 V 154.63 H 476.74 V 152.75 H 482.02 V 150.88 H 483.33 V 149 H 487.49 V 147.13 H 499.77000000000004 V 145.25 H 500.67 V 143.38 H 501.92 V 141.5 H 504.14 V 139.63 H 536.41 V 137.75 H 538.9300000000001 V 135.88 H 547.1800000000001 V 134 H 551.28 V 132.13 H 554.38 V 130.25 H 560.6800000000001 V 128.38 H 562.27 V 126.5 H 564.76 V 124.63000000000001 H 570.7 V 122.75 H 603.0600000000001 V 120.88 H 604.03 V 119" stroke="#4682b4" stroke-width="1.5" fill="none" /></g></svg>