<svg xmlns="http://www.w3.org/2000/svg" width="673" height="545" font-family="DejaVu Sans, Liberation Sans, Arial, sans-serif" fill="black"><rect width="100%" height="100%" fill="white" /><defs><clipPath id="kuva-clip-2"><rect x="59" y="44" width="600" height="450"/></clipPath></defs><line x1="59" y1="44" x2="59" y2="494" stroke="#cccccc" stroke-width="1" /><line x1="119.21000000000001" y1="44" x2="119.21000000000001" y2="494" stroke="#cccccc" stroke-width="1" /><line x1="198.79" y1="44" x2="198.79" y2="494" stroke="#cccccc" stroke-width="1" /><line x1="259" y1="44" x2="259" y2="494" stroke="#cccccc" stroke-width="1" /><line x1="319.21" y1="44" x2="319.21" y2="494" stroke="#cccccc" stroke-width="1" /><line x1="398.79" y1="44" x2="398.79" y2="494" stroke="#cccccc" stroke-width="1" /><line x1="459" y1="44" x2="459" y2="494" stroke="#cccccc" stroke-width="1" /><line x1="519.21" y1="44" x2="519.21" y2="494" stroke="#cccccc" stroke-width="1" /><line x1="598.79" y1="44" x2="598.79" y2="494" stroke="#cccccc" stroke-width="1" /><line x1="659" y1="44" x2="659" y2="494" stroke="#cccccc" stroke-width="1" /><line x1="59" y1="400.25" x2="659" y2="400.25" stroke="#cccccc" stroke-width="1" /><line x1="59" y1="306.5" x2="659" y2="306.5" stroke="#cccccc" stroke-width="1" /><line x1="59" y1="212.75" x2="659" y2="212.75" stroke="#cccccc" stroke-width="1" /><line x1="59" y1="119" x2="659" y2="119" stroke="#cccccc" stroke-width="1" /><line x1="59" y1="494" x2="659" y2="494" stroke="#000000" stroke-width="1" /><line x1="59" y1="44" x2="59" y2="494" stroke="#000000" stroke-width="1" /><line x1="59" y1="494" x2="59" y2="499" stroke="#000000" stroke-width="1" /><text x="59" y="511" font-size="12" text-anchor="middle">100</text><line x1="119.21000000000001" y1="494" x2="119.21000000000001" y2="499" stroke="#000000" stroke-width="1" /><text x="119.21000000000001" y="511" font-size="12" text-anchor="middle">200</text><line x1="198.79" y1="494" x2="198.79" y2="499" stroke="#000000" stroke-width="1" /><text x="198.79" y="511" font-size="12" text-anchor="middle">500</text><line x1="259" y1="494" x2="259" y2="499" stroke="#000000" stroke-width="1" /><text x="259" y="511" font-size="12" text-anchor="middle">1000</text><line x1="319.21" y1="494" x2="319.21" y2="499" stroke="#000000" stroke-width="1" /><text x="319.21" y="511" font-size="12" text-anchor="middle">2000</text><line x1="398.79" y1="494" x2="398.79" y2="499" stroke="#000000" stroke-width="1" /><text x="398.79" y="511" font-size="12" text-anchor="middle">5000</text><line x1="459" y1="494" x2="459" y2="499" stroke="#000000" stroke-width="1" /><text x="459" y="511" font-size="12" text-anchor="middle">10000</text><line x1="519.21" y1="494" x2="519.21" y2="499" stroke="#000000" stroke-width="1" /><text x="519.21" y="511" font-size="12" text-anchor="middle">20000</text><line x1="598.79" y1="494" x2="598.79" y2="499" stroke="#000000" stroke-width="1" /><text x="598.79" y="511" font-size="12" text-anchor="middle">50000</text><line x1="659" y1="494" x2="659" y2="499" stroke="#000000" stroke-width="1" /><text x="659" y="511" font-size="12" text-anchor="middle">100000</text><line x1="54" y1="494" x2="59" y2="494" stroke="#000000" stroke-width="1" /><text x="51" y="498.2" font-size="12" text-anchor="end">0</text><line x1="54" y1="400.25" x2="59" y2="400.25" stroke="#000000" stroke-width="1" /><text x="51" y="404.45" font-size="12" text-anchor="end">0.25</text><line x1="54" y1="306.5" x2="59" y2="306.5" stroke="#000000" stroke-width="1" /><text x="51" y="310.7" font-size="12" text-anchor="end">0.5</text><line x1="54" y1="212.75" x2="59" y2="212.75" stroke="#000000" stroke-width="1" /><text x="51" y="216.95000000000002" font-size="12" text-anchor="end">0.75</text><line x1="54" y1="119" x2="59" y2="119" stroke="#000000" stroke-width="1" /><text x="51" y="123.2" font-size="12" text-anchor="end">1</text><text x="359" y="538" font-size="14" text-anchor="middle">Read length (bp)</text><text x="15" y="272.5" font-size="14" text-anchor="middle" transform="rotate(-90,15,272.5)">Fraction ≥ length</text><text x="336.5" y="27.400000000000002" font-size="18" text-anchor="middle">Read Length Distribution (CCDF)</text><g clip-path="url(#kuva-clip-2)"><path d="M 83.19,119 V 120.88 H 97.38 V 122.75 H 98.85000000000001 V 124.63000000000001 H 120.05 V 126.5 H 127.7 V 128.38 H 131.98 V 130.25 H 134.38 V 132.13 H 142.1 V 134 H 143.27 V 135.88 H 159.39000000000001 V 137.75 H 159.47 V 139.63 H 162.53 V 141.5 H 168.56 V 143.38 H 171.74 V 145.25 H 174.41 V 147.13 H 176.55 V 149 H 177.15 V 150.88 H 186.31 V 152.75 H 186.57 V 154.63 H 192.6 V 156.5 H 195.06 V 158.38 H 196.49 V 160.25 H 199.42000000000002 V 162.13 H 201.64000000000001 V 164 H 203.19 V 165.88 H 203.34 V 167.75 H 204.52 V 169.63 H 204.88 V 171.5 H 206.61 V 173.38 H 207.75 V 175.25 H 209.34 V 177.13 H 214.42000000000002 V 179 H 219.64000000000001 V 180.88 H 220.23000000000002 V 182.75 H 220.64000000000001 V 184.63 H 221.06 V 186.5 H 221.24 V 188.38 H 223.19 V 190.25 H 223.9 V 192.13 H 224.86 V 194 H 225.15 V 195.88 H 227.72 V 197.75 H 229.4 V 199.63 H 230.4 V 201.5 H 230.63 V 203.38 H 231.72 V 205.25 H 235.93 V 207.13 H 236.99 V 209 H 237.36 V 210.88 H 238.14000000000001 V 212.75 H 241.20000000000002 V 214.63 H 242.34 V 216.5 H 243.42000000000002 V 218.38 H 245.9 V 220.25 H 246.05 V 222.13 H 247.20000000000002 V 224 H 249.31 V 225.88 H 250.44 V 227.75 H 250.98000000000002 V 229.63 H 251.59 V 231.5 H 252.77 V 233.38 H 253.32 V 235.25 H 255.14000000000001 V 237.13 H 256.2 V 239 H 256.42 V 240.88 H 257.41 V 242.75 H 260.73 V 244.63 H 261.03000000000003 V 246.5 H 266.45 V 248.38 H 267.46 V 250.25 H 268.67 V 252.13 H 269.3 V 254 H 270.17 V 255.88 H 270.2 V 257.75 H 270.54 V 259.63 H 273.40000000000003 V 261.5 H 274.55 V 263.38 H 274.73 V 265.25 H 276.25 V 267.13 H 276.31 V 269 H 276.52 V 270.88 H 277 V 272.75 H 277.02 V 274.63 H 278.23 V 276.5 H 278.63 V 278.38 H 278.8 V 280.25 H 279.13 V 282.13 H 279.39 V 284 H 282.7 V 285.88 H 283.25 V 287.75 H 287.62 V 289.63 H 287.64 V 291.5 H 288.8 V 293.38 H 291.21 V 295.25 H 297.49 V 297.13 H 298.47 V 299 H 299.90000000000003 V 300.88 H 301.24 V 302.75 H 302.54 V 304.63 H 303.03000000000003 V 306.5 H 303.6 V 308.38 H 303.65000000000003 V 310.25 H 304.88 V 312.13 H 307.89 V 314 H 308.18 V 315.88 H 308.32 V 317.75 H 308.48 V 319.63 H 309.68 V 321.5 H 311.7 V 323.38 H 312.04 V 325.25 H 312.67 V 327.13 H 315.69 V 329 H 315.7 V 330.88 H 316.07 V 332.75 H 316.12 V 334.63 H 318.14 V 336.5 H 320.49 V 338.38 H 321.2 V 340.25 H 321.23 V 342.13 H 321.85 V 344 H 323.03000000000003 V 345.88 H 326.5 V 347.75 H 329.82 V 349.63 H 331.21 V 351.5 H 331.93 V 353.38 H 331.99 V 355.25 H 335.94 V 357.13 H 336.09000000000003 V 359 H 336.92 V 360.88 H 338.71 V 362.75 H 339.35 V 364.63 H 339.41 V 366.5 H 340.05 V 368.38 H 340.76 V 370.25 H 344.07 V 372.13 H 344.96 V 374 H 346.24 V 375.88 H 348.86 V 377.75 H 349.6 V 379.63 H 352.83 V 381.5 H 354.61 V 383.38 H 356.52 V 385.25 H 357.82 V 387.13 H 357.88 V 389 H 358.73 V 390.88 H 359.8 V 392.75 H 360.18 V 394.63 H 360.77 V 396.5 H 360.91 V 398.38 H 362.18 V 400.25 H 363.38 V 402.13 H 365.77 V 404 H 365.86 V 405.88 H 368.99 V 407.75 H 373.03000000000003 V 409.63 H 373.18 V 411.5 H 382.11 V 413.38 H 383.87 V 415.25 H 384.45 V 417.13 H 384.81 V 419 H 387.73 V 420.88 H 388.07 V 422.75 H 388.61 V 424.63 H 388.71000000000004 V 426.5 H 391.8 V 428.38 H 391.89 V 430.25 H 393.1 V 432.13 H 394.75 V 434 H 396.33 V 435.88 H 397.56 V 437.75 H 401.18 V 439.63 H 406.36 V 441.5 H 407.46000000000004 V 443.38 H 407.85 V 445.25 H 409.35 V 447.13 H 411.43 V 449 H 412.90000000000003 V 450.88 H 416.51 V 452.75 H 417.05 V 454.63 H 425.01 V 456.5 H 427.86 V 458.38 H 430.38 V 460.25 H 433.06 V 462.13 H 436.28000000000003 V 464 H 438.34000000000003 V 465.88 H 445.89 V 467.75 H 453.47 V 469.63 H 456.27 V 471.5 H 456.90000000000003 V 473.38 H 459.02 V 475.25 H 465.46000000000004 V 477.13 H 473.97 V 479 H 475.67 V 480.88 H 478.25 V 482.75 H 483.34000000000003 V 484.63 H 507.8 V 486.5 H 523.66 V 488.38 H 529.83 V 490.25 H 535.9 V 492.13 H 593.2 V 494" stroke="#4682b4" stroke-width="1.5" fill="none" /></g></svg>