<svg xmlns="http://www.w3.org/2000/svg" width="773" height="545" font-family="DejaVu Sans, Liberation Sans, Arial, sans-serif" fill="black"><rect width="100%" height="100%" fill="white" /><defs><clipPath id="kuva-clip-3"><rect x="59" y="44" width="600" height="450"/></clipPath></defs><line x1="159" y1="44" x2="159" y2="494" stroke="#cccccc" stroke-width="1" /><line x1="259" y1="44" x2="259" y2="494" stroke="#cccccc" stroke-width="1" /><line x1="359" y1="44" x2="359" y2="494" stroke="#cccccc" stroke-width="1" /><line x1="459" y1="44" x2="459" y2="494" stroke="#cccccc" stroke-width="1" /><line x1="559" y1="44" x2="559" y2="494" stroke="#cccccc" stroke-width="1" /><line x1="659" y1="44" x2="659" y2="494" stroke="#cccccc" stroke-width="1" /><line x1="59" y1="400.25" x2="659" y2="400.25" stroke="#cccccc" stroke-width="1" /><line x1="59" y1="306.5" x2="659" y2="306.5" stroke="#cccccc" stroke-width="1" /><line x1="59" y1="212.75" x2="659" y2="212.75" stroke="#cccccc" stroke-width="1" /><line x1="59" y1="119" x2="659" y2="119" stroke="#cccccc" stroke-width="1" /><line x1="59" y1="494" x2="659" y2="494" stroke="#000000" stroke-width="1" /><line x1="59" y1="44" x2="59" y2="494" stroke="#000000" stroke-width="1" /><line x1="59" y1="494" x2="59" y2="499" stroke="#000000" stroke-width="1" /><text x="59" y="511" font-size="12" text-anchor="middle">-3</text><line x1="159" y1="494" x2="159" y2="499" stroke="#000000" stroke-width="1" /><text x="159" y="511" font-size="12" text-anchor="middle">-2</text><line x1="259" y1="494" x2="259" y2="499" stroke="#000000" stroke-width="1" /><text x="259" y="511" font-size="12" text-anchor="middle">-1</text><line x1="359" y1="494" x2="359" y2="499" stroke="#000000" stroke-width="1" /><text x="359" y="511" font-size="12" text-anchor="middle">0</text><line x1="459" y1="494" x2="459" y2="499" stroke="#000000" stroke-width="1" /><text x="459" y="511" font-size="12" text-anchor="middle">1</text><line x1="559" y1="494" x2="559" y2="499" stroke="#000000" stroke-width="1" /><text x="559" y="511" font-size="12" text-anchor="middle">2</text><line x1="659" y1="494" x2="659" y2="499" stroke="#000000" stroke-width="1" /><text x="659" y="511" font-size="12" text-anchor="middle">3</text><line x1="54" y1="494" x2="59" y2="494" stroke="#000000" stroke-width="1" /><text x="51" y="498.2" font-size="12" text-anchor="end">0</text><line x1="54" y1="400.25" x2="59" y2="400.25" stroke="#000000" stroke-width="1" /><text x="51" y="404.45" font-size="12" text-anchor="end">0.25</text><line x1="54" y1="306.5" x2="59" y2="306.5" stroke="#000000" stroke-width="1" /><text x="51" y="310.7" font-size="12" text-anchor="end">0.5</text><line x1="54" y1="212.75" x2="59" y2="212.75" stroke="#000000" stroke-width="1" /><text x="51" y="216.95000000000002" font-size="12" text-anchor="end">0.75</text><line x1="54" y1="119" x2="59" y2="119" stroke="#000000" stroke-width="1" /><text x="51" y="123.2" font-size="12" text-anchor="end">1</text><text x="359" y="538" font-size="14" text-anchor="middle">Value</text><text x="15" y="272.5" font-size="14" text-anchor="middle" transform="rotate(-90,15,272.5)">F(x)</text><text x="386.5" y="27.400000000000002" font-size="18" text-anchor="middle">DKW 95% Confidence Bands</text><g clip-path="url(#kuva-clip-3)"><path d="M 105.76,380.12 L 105.76,380.12 L 105.76,361.37 L 187.16,361.37 L 187.16,342.62 L 219.23000000000002,342.62 L 219.23000000000002,323.87 L 251.83,323.87 L 251.83,305.12 L 284.19,305.12 L 284.19,286.37 L 285.49,286.37 L 285.49,267.62 L 297.52,267.62 L 297.52,248.87 L 305.32,248.87 L 305.32,230.12 L 305.55,230.12 L 305.55,211.37 L 317.81,211.37 L 317.81,192.62 L 318.32,192.62 L 318.32,173.87 L 325.15000000000003,173.87 L 325.15000000000003,155.12 L 327.58,155.12 L 327.58,136.37 L 364.91,136.37 L 364.91,119 L 403.01,119 L 403.01,119 L 414.98,119 L 414.98,119 L 417.99,119 L 417.99,119 L 430.19,119 L 430.19,119 L 442.90000000000003,119 L 442.90000000000003,119 L 499.29,119 L 499.29,119 L 499.29,232.88 L 499.29,251.63 L 442.90000000000003,251.63 L 442.90000000000003,270.38 L 430.19,270.38 L 430.19,289.13 L 417.99,289.13 L 417.99,307.88 L 414.98,307.88 L 414.98,326.63 L 403.01,326.63 L 403.01,345.38 L 364.91,345.38 L 364.91,364.13 L 327.58,364.13 L 327.58,382.88 L 325.15000000000003,382.88 L 325.15000000000003,401.63 L 318.32,401.63 L 318.32,420.38 L 317.81,420.38 L 317.81,439.13 L 305.55,439.13 L 305.55,457.88 L 305.32,457.88 L 305.32,476.63 L 297.52,476.63 L 297.52,494 L 285.49,494 L 285.49,494 L 284.19,494 L 284.19,494 L 251.83,494 L 251.83,494 L 219.23000000000002,494 L 219.23000000000002,494 L 187.16,494 L 187.16,494 L 105.76,494 L 105.76,494 L 105.76,494 Z" stroke="#1f77b4" stroke-width="0" fill="#1f77b4" fill-opacity="0.15" /><path d="M 105.76,494 V 475.25 H 187.16 V 456.5 H 219.23000000000002 V 437.75 H 251.83 V 419 H 284.19 V 400.25 H 285.49 V 381.5 H 297.52 V 362.75 H 305.32 V 344 H 305.55 V 325.25 H 317.81 V 306.5 H 318.32 V 287.75 H 325.15000000000003 V 269 H 327.58 V 250.25 H 364.91 V 231.5 H 403.01 V 212.75 H 414.98 V 194 H 417.99 V 175.25 H 430.19 V 156.5 H 442.90000000000003 V 137.75 H 499.29 V 119" stroke="#1f77b4" stroke-width="1.5" fill="none" /><path d="M 111.23,452.42 L 111.23,452.42 L 111.23,449.92 L 151.16,449.92 L 151.16,447.42 L 155.42000000000002,447.42 L 155.42000000000002,444.92 L 165.07,444.92 L 165.07,442.42 L 179.58,442.42 L 179.58,439.92 L 183.41,439.92 L 183.41,437.42 L 184.11,437.42 L 184.11,434.92 L 212.64000000000001,434.92 L 212.64000000000001,432.42 L 213.33,432.42 L 213.33,429.92 L 214.62,429.92 L 214.62,427.42 L 219.81,427.42 L 219.81,424.92 L 226.5,424.92 L 226.5,422.42 L 229.89000000000001,422.42 L 229.89000000000001,419.92 L 232.76,419.92 L 232.76,417.42 L 234.1,417.42 L 234.1,414.92 L 237.64000000000001,414.92 L 237.64000000000001,412.42 L 244.57,412.42 L 244.57,409.92 L 250.96,409.92 L 250.96,407.42 L 256.03000000000003,407.42 L 256.03000000000003,404.92 L 257.02,404.92 L 257.02,402.42 L 259.2,402.42 L 259.2,399.92 L 260.85,399.92 L 260.85,397.42 L 264.06,397.42 L 264.06,394.92 L 264.64,394.92 L 264.64,392.42 L 265.8,392.42 L 265.8,389.92 L 267.63,389.92 L 267.63,387.42 L 269.49,387.42 L 269.49,384.92 L 273.64,384.92 L 273.64,382.42 L 274.69,382.42 L 274.69,379.92 L 277.68,379.92 L 277.68,377.42 L 279.64,377.42 L 279.64,374.92 L 282.29,374.92 L 282.29,372.42 L 283.45,372.42 L 283.45,369.92 L 284.07,369.92 L 284.07,367.42 L 286.11,367.42 L 286.11,364.92 L 290.83,364.92 L 290.83,362.42 L 292.77,362.42 L 292.77,359.92 L 293.40000000000003,359.92 L 293.40000000000003,357.42 L 294.88,357.42 L 294.88,354.92 L 298.96,354.92 L 298.96,352.42 L 303.34000000000003,352.42 L 303.34000000000003,349.92 L 304.15000000000003,349.92 L 304.15000000000003,347.42 L 306.29,347.42 L 306.29,344.92 L 306.35,344.92 L 306.35,342.42 L 309.94,342.42 L 309.94,339.92 L 310.11,339.92 L 310.11,337.42 L 312.87,337.42 L 312.87,334.92 L 315.07,334.92 L 315.07,332.42 L 315.12,332.42 L 315.12,329.92 L 315.53000000000003,329.92 L 315.53000000000003,327.42 L 316.44,327.42 L 316.44,324.92 L 318.61,324.92 L 318.61,322.42 L 318.69,322.42 L 318.69,319.92 L 320.55,319.92 L 320.55,317.42 L 325.38,317.42 L 325.38,314.92 L 327.57,314.92 L 327.57,312.42 L 328.12,312.42 L 328.12,309.92 L 328.91,309.92 L 328.91,307.42 L 331.28000000000003,307.42 L 331.28000000000003,304.92 L 332.08,304.92 L 332.08,302.42 L 333.7,302.42 L 333.7,299.92 L 336.62,299.92 L 336.62,297.42 L 337.05,297.42 L 337.05,294.92 L 338.11,294.92 L 338.11,292.42 L 341.06,292.42 L 341.06,289.92 L 342.02,289.92 L 342.02,287.42 L 342.16,287.42 L 342.16,284.92 L 342.61,284.92 L 342.61,282.42 L 342.64,282.42 L 342.64,279.92 L 342.82,279.92 L 342.82,277.42 L 343.37,277.42 L 343.37,274.92 L 345.94,274.92 L 345.94,272.42 L 349.05,272.42 L 349.05,269.92 L 351.26,269.92 L 351.26,267.42 L 355.62,267.42 L 355.62,264.92 L 355.78000000000003,264.92 L 355.78000000000003,262.42 L 357.15000000000003,262.42 L 357.15000000000003,259.92 L 357.83,259.92 L 357.83,257.42 L 359.29,257.42 L 359.29,254.92000000000002 L 360.77,254.92000000000002 L 360.77,252.42000000000002 L 363.17,252.42000000000002 L 363.17,249.92000000000002 L 363.29,249.92000000000002 L 363.29,247.42000000000002 L 363.37,247.42000000000002 L 363.37,244.92000000000002 L 364.5,244.92000000000002 L 364.5,242.42000000000002 L 366.11,242.42000000000002 L 366.11,239.92000000000002 L 370.06,239.92000000000002 L 370.06,237.42000000000002 L 370.32,237.42000000000002 L 370.32,234.92000000000002 L 372.63,234.92000000000002 L 372.63,232.42000000000002 L 374.41,232.42000000000002 L 374.41,229.92000000000002 L 376.46,229.92000000000002 L 376.46,227.42000000000002 L 378.47,227.42000000000002 L 378.47,224.92000000000002 L 381.64,224.92000000000002 L 381.64,222.42000000000002 L 383.94,222.42000000000002 L 383.94,219.92000000000002 L 384.29,219.92000000000002 L 384.29,217.42000000000002 L 388.23,217.42000000000002 L 388.23,214.92000000000002 L 389.62,214.92000000000002 L 389.62,212.42000000000002 L 389.92,212.42000000000002 L 389.92,209.92000000000002 L 393.85,209.92000000000002 L 393.85,207.42000000000002 L 395.19,207.42000000000002 L 395.19,204.92000000000002 L 397.52,204.92000000000002 L 397.52,202.42000000000002 L 402.16,202.42000000000002 L 402.16,199.92000000000002 L 403.34000000000003,199.92000000000002 L 403.34000000000003,197.42000000000002 L 407.33,197.42000000000002 L 407.33,194.92000000000002 L 408.87,194.92000000000002 L 408.87,192.42000000000002 L 409.22,192.42000000000002 L 409.22,189.92000000000002 L 409.27,189.92000000000002 L 409.27,187.42000000000002 L 409.55,187.42000000000002 L 409.55,184.92000000000002 L 410.17,184.92000000000002 L 410.17,182.42000000000002 L 411.84000000000003,182.42000000000002 L 411.84000000000003,179.92000000000002 L 414.45,179.92000000000002 L 414.45,177.42000000000002 L 415.31,177.42000000000002 L 415.31,174.92000000000002 L 416.47,174.92000000000002 L 416.47,172.42000000000002 L 416.61,172.42000000000002 L 416.61,169.92000000000002 L 421.08,169.92000000000002 L 421.08,167.42000000000002 L 423.41,167.42000000000002 L 423.41,164.92000000000002 L 425.09000000000003,164.92000000000002 L 425.09000000000003,162.42000000000002 L 436.53000000000003,162.42000000000002 L 436.53000000000003,159.92000000000002 L 437.67,159.92000000000002 L 437.67,157.42000000000002 L 441.25,157.42000000000002 L 441.25,154.92000000000002 L 443.71000000000004,154.92000000000002 L 443.71000000000004,152.42000000000002 L 444.47,152.42000000000002 L 444.47,149.92000000000002 L 449.6,149.92000000000002 L 449.6,147.42000000000002 L 450.22,147.42000000000002 L 450.22,144.92000000000002 L 456.09000000000003,144.92000000000002 L 456.09000000000003,142.42000000000002 L 462.46000000000004,142.42000000000002 L 462.46000000000004,139.92000000000002 L 463.72,139.92000000000002 L 463.72,137.42000000000002 L 465.14,137.42000000000002 L 465.14,134.92000000000002 L 465.17,134.92000000000002 L 465.17,132.42000000000002 L 465.41,132.42000000000002 L 465.41,129.92000000000002 L 467.57,129.92000000000002 L 467.57,127.42 L 468.69,127.42 L 468.69,124.92 L 469.48,124.92 L 469.48,122.42 L 473.32,122.42 L 473.32,119.92 L 481.06,119.92 L 481.06,119 L 484.74,119 L 484.74,119 L 485.28000000000003,119 L 485.28000000000003,119 L 490.84000000000003,119 L 490.84000000000003,119 L 504.83,119 L 504.83,119 L 512.4300000000001,119 L 512.4300000000001,119 L 515.97,119 L 515.97,119 L 517.66,119 L 517.66,119 L 518.07,119 L 518.07,119 L 526.73,119 L 526.73,119 L 527.4,119 L 527.4,119 L 553.35,119 L 553.35,119 L 557.62,119 L 557.62,119 L 558.54,119 L 558.54,119 L 564.46,119 L 564.46,119 L 564.64,119 L 564.64,119 L 583.73,119 L 583.73,119 L 583.73,160.58 L 583.73,163.08 L 564.64,163.08 L 564.64,165.58 L 564.46,165.58 L 564.46,168.08 L 558.54,168.08 L 558.54,170.58 L 557.62,170.58 L 557.62,173.08 L 553.35,173.08 L 553.35,175.58 L 527.4,175.58 L 527.4,178.08 L 526.73,178.08 L 526.73,180.58 L 518.07,180.58 L 518.07,183.08 L 517.66,183.08 L 517.66,185.58 L 515.97,185.58 L 515.97,188.08 L 512.4300000000001,188.08 L 512.4300000000001,190.58 L 504.83,190.58 L 504.83,193.08 L 490.84000000000003,193.08 L 490.84000000000003,195.58 L 485.28000000000003,195.58 L 485.28000000000003,198.08 L 484.74,198.08 L 484.74,200.58 L 481.06,200.58 L 481.06,203.08 L 473.32,203.08 L 473.32,205.58 L 469.48,205.58 L 469.48,208.08 L 468.69,208.08 L 468.69,210.58 L 467.57,210.58 L 467.57,213.08 L 465.41,213.08 L 465.41,215.58 L 465.17,215.58 L 465.17,218.08 L 465.14,218.08 L 465.14,220.58 L 463.72,220.58 L 463.72,223.08 L 462.46000000000004,223.08 L 462.46000000000004,225.58 L 456.09000000000003,225.58 L 456.09000000000003,228.08 L 450.22,228.08 L 450.22,230.58 L 449.6,230.58 L 449.6,233.08 L 444.47,233.08 L 444.47,235.58 L 443.71000000000004,235.58 L 443.71000000000004,238.08 L 441.25,238.08 L 441.25,240.58 L 437.67,240.58 L 437.67,243.08 L 436.53000000000003,243.08 L 436.53000000000003,245.58 L 425.09000000000003,245.58 L 425.09000000000003,248.08 L 423.41,248.08 L 423.41,250.58 L 421.08,250.58 L 421.08,253.08 L 416.61,253.08 L 416.61,255.58 L 416.47,255.58 L 416.47,258.08 L 415.31,258.08 L 415.31,260.58 L 414.45,260.58 L 414.45,263.08 L 411.84000000000003,263.08 L 411.84000000000003,265.58 L 410.17,265.58 L 410.17,268.08 L 409.55,268.08 L 409.55,270.58 L 409.27,270.58 L 409.27,273.08 L 409.22,273.08 L 409.22,275.58 L 408.87,275.58 L 408.87,278.08 L 407.33,278.08 L 407.33,280.58 L 403.34000000000003,280.58 L 403.34000000000003,283.08 L 402.16,283.08 L 402.16,285.58 L 397.52,285.58 L 397.52,288.08 L 395.19,288.08 L 395.19,290.58 L 393.85,290.58 L 393.85,293.08 L 389.92,293.08 L 389.92,295.58 L 389.62,295.58 L 389.62,298.08 L 388.23,298.08 L 388.23,300.58 L 384.29,300.58 L 384.29,303.08 L 383.94,303.08 L 383.94,305.58 L 381.64,305.58 L 381.64,308.08 L 378.47,308.08 L 378.47,310.58 L 376.46,310.58 L 376.46,313.08 L 374.41,313.08 L 374.41,315.58 L 372.63,315.58 L 372.63,318.08 L 370.32,318.08 L 370.32,320.58 L 370.06,320.58 L 370.06,323.08 L 366.11,323.08 L 366.11,325.58 L 364.5,325.58 L 364.5,328.08 L 363.37,328.08 L 363.37,330.58 L 363.29,330.58 L 363.29,333.08 L 363.17,333.08 L 363.17,335.58 L 360.77,335.58 L 360.77,338.08 L 359.29,338.08 L 359.29,340.58 L 357.83,340.58 L 357.83,343.08 L 357.15000000000003,343.08 L 357.15000000000003,345.58 L 355.78000000000003,345.58 L 355.78000000000003,348.08 L 355.62,348.08 L 355.62,350.58 L 351.26,350.58 L 351.26,353.08 L 349.05,353.08 L 349.05,355.58 L 345.94,355.58 L 345.94,358.08 L 343.37,358.08 L 343.37,360.58 L 342.82,360.58 L 342.82,363.08 L 342.64,363.08 L 342.64,365.58 L 342.61,365.58 L 342.61,368.08 L 342.16,368.08 L 342.16,370.58 L 342.02,370.58 L 342.02,373.08 L 341.06,373.08 L 341.06,375.58 L 338.11,375.58 L 338.11,378.08 L 337.05,378.08 L 337.05,380.58 L 336.62,380.58 L 336.62,383.08 L 333.7,383.08 L 333.7,385.58 L 332.08,385.58 L 332.08,388.08 L 331.28000000000003,388.08 L 331.28000000000003,390.58 L 328.91,390.58 L 328.91,393.08 L 328.12,393.08 L 328.12,395.58 L 327.57,395.58 L 327.57,398.08 L 325.38,398.08 L 325.38,400.58 L 320.55,400.58 L 320.55,403.08 L 318.69,403.08 L 318.69,405.58 L 318.61,405.58 L 318.61,408.08 L 316.44,408.08 L 316.44,410.58 L 315.53000000000003,410.58 L 315.53000000000003,413.08 L 315.12,413.08 L 315.12,415.58 L 315.07,415.58 L 315.07,418.08 L 312.87,418.08 L 312.87,420.58 L 310.11,420.58 L 310.11,423.08 L 309.94,423.08 L 309.94,425.58 L 306.35,425.58 L 306.35,428.08 L 306.29,428.08 L 306.29,430.58 L 304.15000000000003,430.58 L 304.15000000000003,433.08 L 303.34000000000003,433.08 L 303.34000000000003,435.58 L 298.96,435.58 L 298.96,438.08 L 294.88,438.08 L 294.88,440.58 L 293.40000000000003,440.58 L 293.40000000000003,443.08 L 292.77,443.08 L 292.77,445.58 L 290.83,445.58 L 290.83,448.08 L 286.11,448.08 L 286.11,450.58 L 284.07,450.58 L 284.07,453.08 L 283.45,453.08 L 283.45,455.58 L 282.29,455.58 L 282.29,458.08 L 279.64,458.08 L 279.64,460.58 L 277.68,460.58 L 277.68,463.08 L 274.69,463.08 L 274.69,465.58 L 273.64,465.58 L 273.64,468.08 L 269.49,468.08 L 269.49,470.58 L 267.63,470.58 L 267.63,473.08 L 265.8,473.08 L 265.8,475.58 L 264.64,475.58 L 264.64,478.08 L 264.06,478.08 L 264.06,480.58 L 260.85,480.58 L 260.85,483.08 L 259.2,483.08 L 259.2,485.58 L 257.02,485.58 L 257.02,488.08 L 256.03000000000003,488.08 L 256.03000000000003,490.58 L 250.96,490.58 L 250.96,493.08 L 244.57,493.08 L 244.57,494 L 237.64000000000001,494 L 237.64000000000001,494 L 234.1,494 L 234.1,494 L 232.76,494 L 232.76,494 L 229.89000000000001,494 L 229.89000000000001,494 L 226.5,494 L 226.5,494 L 219.81,494 L 219.81,494 L 214.62,494 L 214.62,494 L 213.33,494 L 213.33,494 L 212.64000000000001,494 L 212.64000000000001,494 L 184.11,494 L 184.11,494 L 183.41,494 L 183.41,494 L 179.58,494 L 179.58,494 L 165.07,494 L 165.07,494 L 155.42000000000002,494 L 155.42000000000002,494 L 151.16,494 L 151.16,494 L 111.23,494 L 111.23,494 L 111.23,494 Z" stroke="#ff7f0e" stroke-width="0" fill="#ff7f0e" fill-opacity="0.15" /><path d="M 111.23,494 V 491.5 H 151.16 V 489 H 155.42000000000002 V 486.5 H 165.07 V 484 H 179.58 V 481.5 H 183.41 V 479 H 184.11 V 476.5 H 212.64000000000001 V 474 H 213.33 V 471.5 H 214.62 V 469 H 219.81 V 466.5 H 226.5 V 464 H 229.89000000000001 V 461.5 H 232.76 V 459 H 234.1 V 456.5 H 237.64000000000001 V 454 H 244.57 V 451.5 H 250.96 V 449 H 256.03000000000003 V 446.5 H 257.02 V 444 H 259.2 V 441.5 H 260.85 V 439 H 264.06 V 436.5 H 264.64 V 434 H 265.8 V 431.5 H 267.63 V 429 H 269.49 V 426.5 H 273.64 V 424 H 274.69 V 421.5 H 277.68 V 419 H 279.64 V 416.5 H 282.29 V 414 H 283.45 V 411.5 H 284.07 V 409 H 286.11 V 406.5 H 290.83 V 404 H 292.77 V 401.5 H 293.40000000000003 V 399 H 294.88 V 396.5 H 298.96 V 394 H 303.34000000000003 V 391.5 H 304.15000000000003 V 389 H 306.29 V 386.5 H 306.35 V 384 H 309.94 V 381.5 H 310.11 V 379 H 312.87 V 376.5 H 315.07 V 374 H 315.12 V 371.5 H 315.53000000000003 V 369 H 316.44 V 366.5 H 318.61 V 364 H 318.69 V 361.5 H 320.55 V 359 H 325.38 V 356.5 H 327.57 V 354 H 328.12 V 351.5 H 328.91 V 349 H 331.28000000000003 V 346.5 H 332.08 V 344 H 333.7 V 341.5 H 336.62 V 339 H 337.05 V 336.5 H 338.11 V 334 H 341.06 V 331.5 H 342.02 V 329 H 342.16 V 326.5 H 342.61 V 324 H 342.64 V 321.5 H 342.82 V 319 H 343.37 V 316.5 H 345.94 V 314 H 349.05 V 311.5 H 351.26 V 309 H 355.62 V 306.5 H 355.78000000000003 V 304 H 357.15000000000003 V 301.5 H 357.83 V 299 H 359.29 V 296.5 H 360.77 V 294 H 363.17 V 291.5 H 363.29 V 289 H 363.37 V 286.5 H 364.5 V 284 H 366.11 V 281.5 H 370.06 V 279 H 370.32 V 276.5 H 372.63 V 274 H 374.41 V 271.5 H 376.46 V 269 H 378.47 V 266.5 H 381.64 V 264 H 383.94 V 261.5 H 384.29 V 259 H 388.23 V 256.5 H 389.62 V 254 H 389.92 V 251.5 H 393.85 V 249 H 395.19 V 246.5 H 397.52 V 244 H 402.16 V 241.5 H 403.34000000000003 V 239 H 407.33 V 236.5 H 408.87 V 234 H 409.22 V 231.5 H 409.27 V 229 H 409.55 V 226.5 H 410.17 V 224 H 411.84000000000003 V 221.5 H 414.45 V 219 H 415.31 V 216.5 H 416.47 V 214 H 416.61 V 211.5 H 421.08 V 209 H 423.41 V 206.5 H 425.09000000000003 V 204 H 436.53000000000003 V 201.5 H 437.67 V 199 H 441.25 V 196.5 H 443.71000000000004 V 194 H 444.47 V 191.5 H 449.6 V 189 H 450.22 V 186.5 H 456.09000000000003 V 184 H 462.46000000000004 V 181.5 H 463.72 V 179 H 465.14 V 176.5 H 465.17 V 174 H 465.41 V 171.5 H 467.57 V 169 H 468.69 V 166.5 H 469.48 V 164 H 473.32 V 161.5 H 481.06 V 159 H 484.74 V 156.5 H 485.28000000000003 V 154 H 490.84000000000003 V 151.5 H 504.83 V 149 H 512.4300000000001 V 146.5 H 515.97 V 144 H 517.66 V 141.5 H 518.07 V 139 H 526.73 V 136.5 H 527.4 V 134 H 553.35 V 131.5 H 557.62 V 129 H 558.54 V 126.5 H 564.46 V 124 H 564.64 V 121.5 H 583.73 V 119" stroke="#ff7f0e" stroke-width="1.5" fill="none" /></g><rect x="664" y="34" width="96" height="56" fill="#ffffff" /><rect x="664" y="34" width="96" height="56" fill="none" stroke="#000000" stroke-width="1" /><text x="694" y="53.2" font-size="12" text-anchor="start">n = 20</text><line x1="674" y1="49" x2="686" y2="49" stroke="#1f77b4" stroke-width="2" /><text x="694" y="71.2" font-size="12" text-anchor="start">n = 150</text><line x1="674" y1="67" x2="686" y2="67" stroke="#ff7f0e" stroke-width="2" /></svg>