<svg xmlns="http://www.w3.org/2000/svg" width="773" height="545" font-family="DejaVu Sans, Liberation Sans, Arial, sans-serif" fill="black"><rect width="100%" height="100%" fill="white" /><defs><clipPath id="kuva-clip-1"><rect x="59" y="44" width="600" height="450"/></clipPath></defs><line x1="144.71" y1="44" x2="144.71" y2="494" stroke="#cccccc" stroke-width="1" /><line x1="230.43" y1="44" x2="230.43" y2="494" stroke="#cccccc" stroke-width="1" /><line x1="316.14" y1="44" x2="316.14" y2="494" stroke="#cccccc" stroke-width="1" /><line x1="401.86" y1="44" x2="401.86" y2="494" stroke="#cccccc" stroke-width="1" /><line x1="487.57" y1="44" x2="487.57" y2="494" stroke="#cccccc" stroke-width="1" /><line x1="573.29" y1="44" x2="573.29" y2="494" stroke="#cccccc" stroke-width="1" /><line x1="659" y1="44" x2="659" y2="494" stroke="#cccccc" stroke-width="1" /><line x1="59" y1="400.25" x2="659" y2="400.25" stroke="#cccccc" stroke-width="1" /><line x1="59" y1="306.5" x2="659" y2="306.5" stroke="#cccccc" stroke-width="1" /><line x1="59" y1="212.75" x2="659" y2="212.75" stroke="#cccccc" stroke-width="1" /><line x1="59" y1="119" x2="659" y2="119" stroke="#cccccc" stroke-width="1" /><line x1="59" y1="494" x2="659" y2="494" stroke="#000000" stroke-width="1" /><line x1="59" y1="44" x2="59" y2="494" stroke="#000000" stroke-width="1" /><line x1="59" y1="494" x2="59" y2="499" stroke="#000000" stroke-width="1" /><text x="59" y="511" font-size="12" text-anchor="middle">-3</text><line x1="144.71" y1="494" x2="144.71" y2="499" stroke="#000000" stroke-width="1" /><text x="144.71" y="511" font-size="12" text-anchor="middle">-2</text><line x1="230.43" y1="494" x2="230.43" y2="499" stroke="#000000" stroke-width="1" /><text x="230.43" y="511" font-size="12" text-anchor="middle">-1</text><line x1="316.14" y1="494" x2="316.14" y2="499" stroke="#000000" stroke-width="1" /><text x="316.14" y="511" font-size="12" text-anchor="middle">0</text><line x1="401.86" y1="494" x2="401.86" y2="499" stroke="#000000" stroke-width="1" /><text x="401.86" y="511" font-size="12" text-anchor="middle">1</text><line x1="487.57" y1="494" x2="487.57" y2="499" stroke="#000000" stroke-width="1" /><text x="487.57" y="511" font-size="12" text-anchor="middle">2</text><line x1="573.29" y1="494" x2="573.29" y2="499" stroke="#000000" stroke-width="1" /><text x="573.29" y="511" font-size="12" text-anchor="middle">3</text><line x1="659" y1="494" x2="659" y2="499" stroke="#000000" stroke-width="1" /><text x="659" y="511" font-size="12" text-anchor="middle">4</text><line x1="54" y1="494" x2="59" y2="494" stroke="#000000" stroke-width="1" /><text x="51" y="498.2" font-size="12" text-anchor="end">0</text><line x1="54" y1="400.25" x2="59" y2="400.25" stroke="#000000" stroke-width="1" /><text x="51" y="404.45" font-size="12" text-anchor="end">0.25</text><line x1="54" y1="306.5" x2="59" y2="306.5" stroke="#000000" stroke-width="1" /><text x="51" y="310.7" font-size="12" text-anchor="end">0.5</text><line x1="54" y1="212.75" x2="59" y2="212.75" stroke="#000000" stroke-width="1" /><text x="51" y="216.95000000000002" font-size="12" text-anchor="end">0.75</text><line x1="54" y1="119" x2="59" y2="119" stroke="#000000" stroke-width="1" /><text x="51" y="123.2" font-size="12" text-anchor="end">1</text><text x="359" y="538" font-size="14" text-anchor="middle">Value</text><text x="15" y="272.5" font-size="14" text-anchor="middle" transform="rotate(-90,15,272.5)">F(x)</text><text x="386.5" y="27.400000000000002" font-size="18" text-anchor="middle">Treatment vs Control</text><g clip-path="url(#kuva-clip-1)"><path d="M 102.77,494 V 491.5 H 136.34 V 489 H 145.88 V 486.5 H 151.93 V 484 H 155.08 V 481.5 H 160.53 V 479 H 165.45000000000002 V 476.5 H 182.47 V 474 H 190.77 V 471.5 H 200.54 V 469 H 201.65 V 466.5 H 224.75 V 464 H 230.70000000000002 V 461.5 H 231.32 V 459 H 231.36 V 456.5 H 234.8 V 454 H 235.64000000000001 V 451.5 H 235.91 V 449 H 236.03 V 446.5 H 238.78 V 444 H 239.82 V 441.5 H 240.48000000000002 V 439 H 240.55 V 436.5 H 241.13 V 434 H 242.73000000000002 V 431.5 H 245.82 V 429 H 246.22 V 426.5 H 246.49 V 424 H 246.70000000000002 V 421.5 H 248.55 V 419 H 248.79 V 416.5 H 249.03 V 414 H 249.4 V 411.5 H 253.47 V 409 H 254.67000000000002 V 406.5 H 256.23 V 404 H 256.41 V 401.5 H 256.67 V 399 H 256.85 V 396.5 H 258.06 V 394 H 261.18 V 391.5 H 261.63 V 389 H 263.19 V 386.5 H 265.36 V 384 H 266.44 V 381.5 H 275.15000000000003 V 379 H 275.66 V 376.5 H 276.63 V 374 H 277.84000000000003 V 371.5 H 278.8 V 369 H 278.89 V 366.5 H 280.72 V 364 H 280.99 V 361.5 H 282.01 V 359 H 284.21 V 356.5 H 284.68 V 354 H 285.51 V 351.5 H 286.99 V 349 H 292.36 V 346.5 H 293.6 V 344 H 294.18 V 341.5 H 296.75 V 339 H 296.95 V 336.5 H 300.48 V 334 H 301.14 V 331.5 H 301.89 V 329 H 303.02 V 326.5 H 303.1 V 324 H 303.29 V 321.5 H 304.48 V 319 H 306.76 V 316.5 H 306.88 V 314 H 310.87 V 311.5 H 311.04 V 309 H 311.24 V 306.5 H 313.11 V 304 H 313.43 V 301.5 H 313.43 V 299 H 314.35 V 296.5 H 315.98 V 294 H 317.75 V 291.5 H 318.15000000000003 V 289 H 319.66 V 286.5 H 322.1 V 284 H 322.57 V 281.5 H 323.07 V 279 H 323.54 V 276.5 H 325.43 V 274 H 325.7 V 271.5 H 326.97 V 269 H 328.95 V 266.5 H 334.39 V 264 H 335.68 V 261.5 H 337.53000000000003 V 259 H 337.61 V 256.5 H 337.64 V 254 H 338.29 V 251.5 H 339.44 V 249 H 340.43 V 246.5 H 342.18 V 244 H 344.18 V 241.5 H 344.32 V 239 H 344.78000000000003 V 236.5 H 345.13 V 234 H 346.02 V 231.5 H 346.86 V 229 H 347.01 V 226.5 H 348.26 V 224 H 349.07 V 221.5 H 353.15000000000003 V 219 H 354.93 V 216.5 H 355.3 V 214 H 355.62 V 211.5 H 357.36 V 209 H 357.74 V 206.5 H 362.71 V 204 H 363.37 V 201.5 H 366.40000000000003 V 199 H 367.14 V 196.5 H 368.65000000000003 V 194 H 372.35 V 191.5 H 373.37 V 189 H 375.52 V 186.5 H 377.48 V 184 H 388.49 V 181.5 H 394.16 V 179 H 394.90000000000003 V 176.5 H 395.04 V 174 H 399.11 V 171.5 H 399.93 V 169 H 401.11 V 166.5 H 404.44 V 164 H 407.08 V 161.5 H 411.72 V 159 H 411.95 V 156.5 H 414.48 V 154 H 419.35 V 151.5 H 420.86 V 149 H 425.24 V 146.5 H 433.03000000000003 V 144 H 433.61 V 141.5 H 439.65000000000003 V 139 H 456.32 V 136.5 H 460.49 V 134 H 461.49 V 131.5 H 461.69 V 129 H 461.98 V 126.5 H 481.55 V 124 H 512.59 V 121.5 H 568.86 V 119" stroke="#1f77b4" stroke-width="1.5" fill="none" /><path d="M 258.84000000000003,494 V 491.5 H 260.89 V 489 H 277.94 V 486.5 H 279.61 V 484 H 287.8 V 481.5 H 292.96 V 479 H 302.39 V 476.5 H 307.77 V 474 H 309.66 V 471.5 H 319.89 V 469 H 321.55 V 466.5 H 321.62 V 464 H 321.86 V 461.5 H 322.3 V 459 H 322.35 V 456.5 H 322.59000000000003 V 454 H 324.21 V 451.5 H 326.01 V 449 H 326.18 V 446.5 H 330.61 V 444 H 333.05 V 441.5 H 333.25 V 439 H 341.05 V 436.5 H 341.74 V 434 H 342.47 V 431.5 H 343.84000000000003 V 429 H 353.46 V 426.5 H 355.86 V 424 H 359.98 V 421.5 H 361.96 V 419 H 362.27 V 416.5 H 365.62 V 414 H 366.24 V 411.5 H 367.08 V 409 H 367.39 V 406.5 H 368.39 V 404 H 368.56 V 401.5 H 368.88 V 399 H 369.99 V 396.5 H 370.74 V 394 H 375.25 V 391.5 H 375.40000000000003 V 389 H 378.55 V 386.5 H 379.75 V 384 H 379.76 V 381.5 H 382.1 V 379 H 382.5 V 376.5 H 385.15000000000003 V 374 H 386.36 V 371.5 H 386.86 V 369 H 388.46000000000004 V 366.5 H 390.46000000000004 V 364 H 390.51 V 361.5 H 391.62 V 359 H 391.96000000000004 V 356.5 H 392.36 V 354 H 392.91 V 351.5 H 394.23 V 349 H 396.55 V 346.5 H 399.24 V 344 H 399.64 V 341.5 H 399.97 V 339 H 401.28000000000003 V 336.5 H 401.58 V 334 H 402.76 V 331.5 H 405.09000000000003 V 329 H 407.13 V 326.5 H 408.39 V 324 H 409.27 V 321.5 H 409.28000000000003 V 319 H 410.08 V 316.5 H 410.35 V 314 H 410.98 V 311.5 H 411.82 V 309 H 412.1 V 306.5 H 413.65000000000003 V 304 H 415.06 V 301.5 H 416.01 V 299 H 418.29 V 296.5 H 419.24 V 294 H 420.04 V 291.5 H 420.08 V 289 H 420.62 V 286.5 H 420.73 V 284 H 421.75 V 281.5 H 422.02 V 279 H 424.93 V 276.5 H 425.7 V 274 H 426.76 V 271.5 H 427.05 V 269 H 430.12 V 266.5 H 433.74 V 264 H 433.87 V 261.5 H 434.3 V 259 H 435.27 V 256.5 H 436.15000000000003 V 254 H 437.87 V 251.5 H 438.38 V 249 H 439.42 V 246.5 H 439.45 V 244 H 439.78000000000003 V 241.5 H 440.34000000000003 V 239 H 440.95 V 236.5 H 440.99 V 234 H 442.15000000000003 V 231.5 H 442.23 V 229 H 443.74 V 226.5 H 452.14 V 224 H 453.5 V 221.5 H 458.34000000000003 V 219 H 459.73 V 216.5 H 463.96000000000004 V 214 H 464.73 V 211.5 H 465.75 V 209 H 466.62 V 206.5 H 469.09000000000003 V 204 H 470.29 V 201.5 H 470.97 V 199 H 472.43 V 196.5 H 475.39 V 194 H 482.31 V 191.5 H 483.01 V 189 H 483.73 V 186.5 H 486.23 V 184 H 488.92 V 181.5 H 490.06 V 179 H 496.19 V 176.5 H 498.26 V 174 H 499.37 V 171.5 H 502.84000000000003 V 169 H 504.67 V 166.5 H 509.17 V 164 H 510.84000000000003 V 161.5 H 511.47 V 159 H 513.85 V 156.5 H 515.17 V 154 H 525.09 V 151.5 H 527.6800000000001 V 149 H 529.51 V 146.5 H 530.73 V 144 H 531.35 V 141.5 H 532.91 V 139 H 539.19 V 136.5 H 547.98 V 134 H 551.41 V 131.5 H 551.4300000000001 V 129 H 555.77 V 126.5 H 559.48 V 124 H 609.66 V 121.5 H 625.17 V 119" stroke="#ff7f0e" stroke-width="1.5" fill="none" /></g><rect x="664" y="34" width="96" height="56" fill="#ffffff" /><rect x="664" y="34" width="96" height="56" fill="none" stroke="#000000" stroke-width="1" /><text x="694" y="53.2" font-size="12" text-anchor="start">Control</text><line x1="674" y1="49" x2="686" y2="49" stroke="#1f77b4" stroke-width="2" /><text x="694" y="71.2" font-size="12" text-anchor="start">Treated</text><line x1="674" y1="67" x2="686" y2="67" stroke="#ff7f0e" stroke-width="2" /></svg>