<svg xmlns="http://www.w3.org/2000/svg" width="680.6" height="545" font-family="DejaVu Sans, Liberation Sans, Arial, sans-serif" fill="black"><rect width="100%" height="100%" fill="white" /><defs><clipPath id="kuva-clip-5"><rect x="59" y="44" width="600" height="450"/></clipPath></defs><line x1="184" y1="44" x2="184" y2="494" stroke="#cccccc" stroke-width="1" /><line x1="309" y1="44" x2="309" y2="494" stroke="#cccccc" stroke-width="1" /><line x1="434" y1="44" x2="434" y2="494" stroke="#cccccc" stroke-width="1" /><line x1="559" y1="44" x2="559" y2="494" stroke="#cccccc" stroke-width="1" /><line x1="59" y1="400.25" x2="659" y2="400.25" stroke="#cccccc" stroke-width="1" /><line x1="59" y1="306.5" x2="659" y2="306.5" stroke="#cccccc" stroke-width="1" /><line x1="59" y1="212.75" x2="659" y2="212.75" stroke="#cccccc" stroke-width="1" /><line x1="59" y1="119" x2="659" y2="119" stroke="#cccccc" stroke-width="1" /><line x1="59" y1="494" x2="659" y2="494" stroke="#000000" stroke-width="1" /><line x1="59" y1="44" x2="59" y2="494" stroke="#000000" stroke-width="1" /><line x1="59" y1="494" x2="59" y2="499" stroke="#000000" stroke-width="1" /><text x="59" y="511" font-size="12" text-anchor="middle">0</text><line x1="184" y1="494" x2="184" y2="499" stroke="#000000" stroke-width="1" /><text x="184" y="511" font-size="12" text-anchor="middle">25</text><line x1="309" y1="494" x2="309" y2="499" stroke="#000000" stroke-width="1" /><text x="309" y="511" font-size="12" text-anchor="middle">50</text><line x1="434" y1="494" x2="434" y2="499" stroke="#000000" stroke-width="1" /><text x="434" y="511" font-size="12" text-anchor="middle">75</text><line x1="559" y1="494" x2="559" y2="499" stroke="#000000" stroke-width="1" /><text x="559" y="511" font-size="12" text-anchor="middle">100</text><line x1="54" y1="494" x2="59" y2="494" stroke="#000000" stroke-width="1" /><text x="51" y="498.2" font-size="12" text-anchor="end">0</text><line x1="54" y1="400.25" x2="59" y2="400.25" stroke="#000000" stroke-width="1" /><text x="51" y="404.45" font-size="12" text-anchor="end">0.25</text><line x1="54" y1="306.5" x2="59" y2="306.5" stroke="#000000" stroke-width="1" /><text x="51" y="310.7" font-size="12" text-anchor="end">0.5</text><line x1="54" y1="212.75" x2="59" y2="212.75" stroke="#000000" stroke-width="1" /><text x="51" y="216.95000000000002" font-size="12" text-anchor="end">0.75</text><line x1="54" y1="119" x2="59" y2="119" stroke="#000000" stroke-width="1" /><text x="51" y="123.2" font-size="12" text-anchor="end">1</text><text x="359" y="538" font-size="14" text-anchor="middle">Value</text><text x="15" y="272.5" font-size="14" text-anchor="middle" transform="rotate(-90,15,272.5)">F(x)</text><text x="340.3" y="27.400000000000002" font-size="18" text-anchor="middle">ECDF with Percentile Lines</text><g clip-path="url(#kuva-clip-5)"><line x1="59" y1="400.25" x2="659" y2="400.25" stroke="#888888" stroke-width="0.8" stroke-dasharray="4,4" /><text x="662" y="405.05" font-size="10" text-anchor="start" fill="#888888">25%</text><line x1="59" y1="306.5" x2="659" y2="306.5" stroke="#888888" stroke-width="0.8" stroke-dasharray="4,4" /><text x="662" y="311.3" font-size="10" text-anchor="start" fill="#888888">50%</text><line x1="59" y1="212.75" x2="659" y2="212.75" stroke="#888888" stroke-width="0.8" stroke-dasharray="4,4" /><text x="662" y="217.55" font-size="10" text-anchor="start" fill="#888888">75%</text><path d="M 64,494 V 490.25 H 69 V 486.5 H 74 V 482.75 H 79 V 479 H 84 V 475.25 H 89 V 471.5 H 94 V 467.75 H 99 V 464 H 104 V 460.25 H 109 V 456.5 H 114 V 452.75 H 119 V 449 H 124 V 445.25 H 129 V 441.5 H 134 V 437.75 H 139 V 434 H 144 V 430.25 H 149 V 426.5 H 154 V 422.75 H 159 V 419 H 164 V 415.25 H 169 V 411.5 H 174 V 407.75 H 179 V 404 H 184 V 400.25 H 189 V 396.5 H 194 V 392.75 H 199 V 389 H 204 V 385.25 H 209 V 381.5 H 214 V 377.75 H 219 V 374 H 224 V 370.25 H 229 V 366.5 H 234 V 362.75 H 239 V 359 H 244 V 355.25 H 249 V 351.5 H 254 V 347.75 H 259 V 344 H 264 V 340.25 H 269 V 336.5 H 274 V 332.75 H 279 V 329 H 284 V 325.25 H 289 V 321.5 H 294 V 317.75 H 299 V 314 H 304 V 310.25 H 309 V 306.5 H 314 V 302.75 H 319 V 299 H 324 V 295.25 H 329 V 291.5 H 334 V 287.75 H 339 V 284 H 344 V 280.25 H 349 V 276.5 H 354 V 272.75 H 359 V 269 H 364 V 265.25 H 369 V 261.5 H 374 V 257.75 H 379 V 254 H 384 V 250.25 H 389 V 246.5 H 394 V 242.75 H 399 V 239 H 404 V 235.25 H 409 V 231.5 H 414 V 227.75 H 419 V 224 H 424 V 220.25 H 429 V 216.5 H 434 V 212.75 H 439 V 209 H 444 V 205.25 H 449 V 201.5 H 454 V 197.75 H 459 V 194 H 464 V 190.25 H 469 V 186.5 H 474 V 182.75 H 479 V 179 H 484 V 175.25 H 489 V 171.5 H 494 V 167.75 H 499 V 164 H 504 V 160.25 H 509 V 156.5 H 514 V 152.75 H 519 V 149 H 524 V 145.25 H 529 V 141.5 H 534 V 137.75 H 539 V 134 H 544 V 130.25 H 549 V 126.5 H 554 V 122.75 H 559 V 119" stroke="#4682b4" stroke-width="1.5" fill="none" /></g></svg>