<svg xmlns="http://www.w3.org/2000/svg" width="677" height="545" font-family="DejaVu Sans, Liberation Sans, Arial, sans-serif" fill="black"><rect width="100%" height="100%" fill="white" /><defs><clipPath id="kuva-clip-4"><rect x="59" y="44" width="600" height="450"/></clipPath></defs><line x1="159" y1="44" x2="159" y2="494" stroke="#cccccc" stroke-width="1" /><line x1="259" y1="44" x2="259" y2="494" stroke="#cccccc" stroke-width="1" /><line x1="359" y1="44" x2="359" y2="494" stroke="#cccccc" stroke-width="1" /><line x1="459" y1="44" x2="459" y2="494" stroke="#cccccc" stroke-width="1" /><line x1="559" y1="44" x2="559" y2="494" stroke="#cccccc" stroke-width="1" /><line x1="659" y1="44" x2="659" y2="494" stroke="#cccccc" stroke-width="1" /><line x1="59" y1="400.25" x2="659" y2="400.25" stroke="#cccccc" stroke-width="1" /><line x1="59" y1="306.5" x2="659" y2="306.5" stroke="#cccccc" stroke-width="1" /><line x1="59" y1="212.75" x2="659" y2="212.75" stroke="#cccccc" stroke-width="1" /><line x1="59" y1="119" x2="659" y2="119" stroke="#cccccc" stroke-width="1" /><line x1="59" y1="494" x2="659" y2="494" stroke="#000000" stroke-width="1" /><line x1="59" y1="44" x2="59" y2="494" stroke="#000000" stroke-width="1" /><line x1="59" y1="494" x2="59" y2="499" stroke="#000000" stroke-width="1" /><text x="59" y="511" font-size="12" text-anchor="middle">-3</text><line x1="159" y1="494" x2="159" y2="499" stroke="#000000" stroke-width="1" /><text x="159" y="511" font-size="12" text-anchor="middle">-2</text><line x1="259" y1="494" x2="259" y2="499" stroke="#000000" stroke-width="1" /><text x="259" y="511" font-size="12" text-anchor="middle">-1</text><line x1="359" y1="494" x2="359" y2="499" stroke="#000000" stroke-width="1" /><text x="359" y="511" font-size="12" text-anchor="middle">0</text><line x1="459" y1="494" x2="459" y2="499" stroke="#000000" stroke-width="1" /><text x="459" y="511" font-size="12" text-anchor="middle">1</text><line x1="559" y1="494" x2="559" y2="499" stroke="#000000" stroke-width="1" /><text x="559" y="511" font-size="12" text-anchor="middle">2</text><line x1="659" y1="494" x2="659" y2="499" stroke="#000000" stroke-width="1" /><text x="659" y="511" font-size="12" text-anchor="middle">3</text><line x1="54" y1="494" x2="59" y2="494" stroke="#000000" stroke-width="1" /><text x="51" y="498.2" font-size="12" text-anchor="end">0</text><line x1="54" y1="400.25" x2="59" y2="400.25" stroke="#000000" stroke-width="1" /><text x="51" y="404.45" font-size="12" text-anchor="end">0.25</text><line x1="54" y1="306.5" x2="59" y2="306.5" stroke="#000000" stroke-width="1" /><text x="51" y="310.7" font-size="12" text-anchor="end">0.5</text><line x1="54" y1="212.75" x2="59" y2="212.75" stroke="#000000" stroke-width="1" /><text x="51" y="216.95000000000002" font-size="12" text-anchor="end">0.75</text><line x1="54" y1="119" x2="59" y2="119" stroke="#000000" stroke-width="1" /><text x="51" y="123.2" font-size="12" text-anchor="end">1</text><text x="359" y="538" font-size="14" text-anchor="middle">Value</text><text x="15" y="272.5" font-size="14" text-anchor="middle" transform="rotate(-90,15,272.5)">F(x)</text><text x="338.5" y="27.400000000000002" font-size="18" text-anchor="middle">ECDF with Rug</text><g clip-path="url(#kuva-clip-4)"><path d="M 124.84,494 V 489.31 H 166.98 V 484.63 H 173.41 V 479.94 H 190.69 V 475.25 H 191.08 V 470.56 H 194.92000000000002 V 465.88 H 195.36 V 461.19 H 213.81 V 456.5 H 226.46 V 451.81 H 235.55 V 447.13 H 239.68 V 442.44 H 240.31 V 437.75 H 241.23000000000002 V 433.06 H 244.59 V 428.38 H 248.23000000000002 V 423.69 H 258.06 V 419 H 265.94 V 414.31 H 270.93 V 409.63 H 280.90000000000003 V 404.94 H 296.88 V 400.25 H 298.03000000000003 V 395.56 H 302.21 V 390.88 H 318.32 V 386.19 H 320.88 V 381.5 H 323.15000000000003 V 376.81 H 325.40000000000003 V 372.13 H 327.24 V 367.44 H 328.39 V 362.75 H 329.78000000000003 V 358.06 H 333.7 V 353.38 H 333.73 V 348.69 H 335 V 344 H 336.98 V 339.31 H 337.37 V 334.63 H 346.47 V 329.94 H 350.31 V 325.25 H 352.97 V 320.56 H 355.08 V 315.88 H 355.22 V 311.19 H 360.16 V 306.5 H 365.33 V 301.81 H 369.66 V 297.13 H 370.74 V 292.44 H 370.95 V 287.75 H 373.47 V 283.06 H 375.95 V 278.38 H 388.48 V 273.69 H 393.64 V 269 H 398.52 V 264.31 H 402.93 V 259.63 H 403 V 254.94 H 415.32 V 250.25 H 416.3 V 245.56 H 428.25 V 240.88 H 437.05 V 236.19 H 444.55 V 231.5 H 448.48 V 226.81 H 450.43 V 222.13 H 450.63 V 217.44 H 458.02 V 212.75 H 459.5 V 208.06 H 465.8 V 203.38 H 473.26 V 198.69 H 473.53000000000003 V 194 H 473.78000000000003 V 189.31 H 475.29 V 184.63 H 479.73 V 179.94 H 482.08 V 175.25 H 482.19 V 170.56 H 483.18 V 165.88 H 483.29 V 161.19 H 508.39 V 156.5 H 509.6 V 151.81 H 513.26 V 147.13 H 528.11 V 142.44 H 528.61 V 137.75 H 543.19 V 133.06 H 562.16 V 128.38 H 565.44 V 123.69 H 573.77 V 119" stroke="#4682b4" stroke-width="1.5" fill="none" /><line x1="124.84" y1="494" x2="124.84" y2="488" stroke="#4682b4" stroke-width="0.8" /><line x1="166.98" y1="494" x2="166.98" y2="488" stroke="#4682b4" stroke-width="0.8" /><line x1="173.41" y1="494" x2="173.41" y2="488" stroke="#4682b4" stroke-width="0.8" /><line x1="190.69" y1="494" x2="190.69" y2="488" stroke="#4682b4" stroke-width="0.8" /><line x1="191.08" y1="494" x2="191.08" y2="488" stroke="#4682b4" stroke-width="0.8" /><line x1="194.92000000000002" y1="494" x2="194.92000000000002" y2="488" stroke="#4682b4" stroke-width="0.8" /><line x1="195.36" y1="494" x2="195.36" y2="488" stroke="#4682b4" stroke-width="0.8" /><line x1="213.81" y1="494" x2="213.81" y2="488" stroke="#4682b4" stroke-width="0.8" /><line x1="226.46" y1="494" x2="226.46" y2="488" stroke="#4682b4" stroke-width="0.8" /><line x1="235.55" y1="494" x2="235.55" y2="488" stroke="#4682b4" stroke-width="0.8" /><line x1="239.68" y1="494" x2="239.68" y2="488" stroke="#4682b4" stroke-width="0.8" /><line x1="240.31" y1="494" x2="240.31" y2="488" stroke="#4682b4" stroke-width="0.8" /><line x1="241.23000000000002" y1="494" x2="241.23000000000002" y2="488" stroke="#4682b4" stroke-width="0.8" /><line x1="244.59" y1="494" x2="244.59" y2="488" stroke="#4682b4" stroke-width="0.8" /><line x1="248.23000000000002" y1="494" x2="248.23000000000002" y2="488" stroke="#4682b4" stroke-width="0.8" /><line x1="258.06" y1="494" x2="258.06" y2="488" stroke="#4682b4" stroke-width="0.8" /><line x1="265.94" y1="494" x2="265.94" y2="488" stroke="#4682b4" stroke-width="0.8" /><line x1="270.93" y1="494" x2="270.93" y2="488" stroke="#4682b4" stroke-width="0.8" /><line x1="280.90000000000003" y1="494" x2="280.90000000000003" y2="488" stroke="#4682b4" stroke-width="0.8" /><line x1="296.88" y1="494" x2="296.88" y2="488" stroke="#4682b4" stroke-width="0.8" /><line x1="298.03000000000003" y1="494" x2="298.03000000000003" y2="488" stroke="#4682b4" stroke-width="0.8" /><line x1="302.21" y1="494" x2="302.21" y2="488" stroke="#4682b4" stroke-width="0.8" /><line x1="318.32" y1="494" x2="318.32" y2="488" stroke="#4682b4" stroke-width="0.8" /><line x1="320.88" y1="494" x2="320.88" y2="488" stroke="#4682b4" stroke-width="0.8" /><line x1="323.15000000000003" y1="494" x2="323.15000000000003" y2="488" stroke="#4682b4" stroke-width="0.8" /><line x1="325.40000000000003" y1="494" x2="325.40000000000003" y2="488" stroke="#4682b4" stroke-width="0.8" /><line x1="327.24" y1="494" x2="327.24" y2="488" stroke="#4682b4" stroke-width="0.8" /><line x1="328.39" y1="494" x2="328.39" y2="488" stroke="#4682b4" stroke-width="0.8" /><line x1="329.78000000000003" y1="494" x2="329.78000000000003" y2="488" stroke="#4682b4" stroke-width="0.8" /><line x1="333.7" y1="494" x2="333.7" y2="488" stroke="#4682b4" stroke-width="0.8" /><line x1="333.73" y1="494" x2="333.73" y2="488" stroke="#4682b4" stroke-width="0.8" /><line x1="335" y1="494" x2="335" y2="488" stroke="#4682b4" stroke-width="0.8" /><line x1="336.98" y1="494" x2="336.98" y2="488" stroke="#4682b4" stroke-width="0.8" /><line x1="337.37" y1="494" x2="337.37" y2="488" stroke="#4682b4" stroke-width="0.8" /><line x1="346.47" y1="494" x2="346.47" y2="488" stroke="#4682b4" stroke-width="0.8" /><line x1="350.31" y1="494" x2="350.31" y2="488" stroke="#4682b4" stroke-width="0.8" /><line x1="352.97" y1="494" x2="352.97" y2="488" stroke="#4682b4" stroke-width="0.8" /><line x1="355.08" y1="494" x2="355.08" y2="488" stroke="#4682b4" stroke-width="0.8" /><line x1="355.22" y1="494" x2="355.22" y2="488" stroke="#4682b4" stroke-width="0.8" /><line x1="360.16" y1="494" x2="360.16" y2="488" stroke="#4682b4" stroke-width="0.8" /><line x1="365.33" y1="494" x2="365.33" y2="488" stroke="#4682b4" stroke-width="0.8" /><line x1="369.66" y1="494" x2="369.66" y2="488" stroke="#4682b4" stroke-width="0.8" /><line x1="370.74" y1="494" x2="370.74" y2="488" stroke="#4682b4" stroke-width="0.8" /><line x1="370.95" y1="494" x2="370.95" y2="488" stroke="#4682b4" stroke-width="0.8" /><line x1="373.47" y1="494" x2="373.47" y2="488" stroke="#4682b4" stroke-width="0.8" /><line x1="375.95" y1="494" x2="375.95" y2="488" stroke="#4682b4" stroke-width="0.8" /><line x1="388.48" y1="494" x2="388.48" y2="488" stroke="#4682b4" stroke-width="0.8" /><line x1="393.64" y1="494" x2="393.64" y2="488" stroke="#4682b4" stroke-width="0.8" /><line x1="398.52" y1="494" x2="398.52" y2="488" stroke="#4682b4" stroke-width="0.8" /><line x1="402.93" y1="494" x2="402.93" y2="488" stroke="#4682b4" stroke-width="0.8" /><line x1="403" y1="494" x2="403" y2="488" stroke="#4682b4" stroke-width="0.8" /><line x1="415.32" y1="494" x2="415.32" y2="488" stroke="#4682b4" stroke-width="0.8" /><line x1="416.3" y1="494" x2="416.3" y2="488" stroke="#4682b4" stroke-width="0.8" /><line x1="428.25" y1="494" x2="428.25" y2="488" stroke="#4682b4" stroke-width="0.8" /><line x1="437.05" y1="494" x2="437.05" y2="488" stroke="#4682b4" stroke-width="0.8" /><line x1="444.55" y1="494" x2="444.55" y2="488" stroke="#4682b4" stroke-width="0.8" /><line x1="448.48" y1="494" x2="448.48" y2="488" stroke="#4682b4" stroke-width="0.8" /><line x1="450.43" y1="494" x2="450.43" y2="488" stroke="#4682b4" stroke-width="0.8" /><line x1="450.63" y1="494" x2="450.63" y2="488" stroke="#4682b4" stroke-width="0.8" /><line x1="458.02" y1="494" x2="458.02" y2="488" stroke="#4682b4" stroke-width="0.8" /><line x1="459.5" y1="494" x2="459.5" y2="488" stroke="#4682b4" stroke-width="0.8" /><line x1="465.8" y1="494" x2="465.8" y2="488" stroke="#4682b4" stroke-width="0.8" /><line x1="473.26" y1="494" x2="473.26" y2="488" stroke="#4682b4" stroke-width="0.8" /><line x1="473.53000000000003" y1="494" x2="473.53000000000003" y2="488" stroke="#4682b4" stroke-width="0.8" /><line x1="473.78000000000003" y1="494" x2="473.78000000000003" y2="488" stroke="#4682b4" stroke-width="0.8" /><line x1="475.29" y1="494" x2="475.29" y2="488" stroke="#4682b4" stroke-width="0.8" /><line x1="479.73" y1="494" x2="479.73" y2="488" stroke="#4682b4" stroke-width="0.8" /><line x1="482.08" y1="494" x2="482.08" y2="488" stroke="#4682b4" stroke-width="0.8" /><line x1="482.19" y1="494" x2="482.19" y2="488" stroke="#4682b4" stroke-width="0.8" /><line x1="483.18" y1="494" x2="483.18" y2="488" stroke="#4682b4" stroke-width="0.8" /><line x1="483.29" y1="494" x2="483.29" y2="488" stroke="#4682b4" stroke-width="0.8" /><line x1="508.39" y1="494" x2="508.39" y2="488" stroke="#4682b4" stroke-width="0.8" /><line x1="509.6" y1="494" x2="509.6" y2="488" stroke="#4682b4" stroke-width="0.8" /><line x1="513.26" y1="494" x2="513.26" y2="488" stroke="#4682b4" stroke-width="0.8" /><line x1="528.11" y1="494" x2="528.11" y2="488" stroke="#4682b4" stroke-width="0.8" /><line x1="528.61" y1="494" x2="528.61" y2="488" stroke="#4682b4" stroke-width="0.8" /><line x1="543.19" y1="494" x2="543.19" y2="488" stroke="#4682b4" stroke-width="0.8" /><line x1="562.16" y1="494" x2="562.16" y2="488" stroke="#4682b4" stroke-width="0.8" /><line x1="565.44" y1="494" x2="565.44" y2="488" stroke="#4682b4" stroke-width="0.8" /><line x1="573.77" y1="494" x2="573.77" y2="488" stroke="#4682b4" stroke-width="0.8" /></g></svg>