<svg xmlns="http://www.w3.org/2000/svg" width="773" height="545" font-family="DejaVu Sans, Liberation Sans, Arial, sans-serif" fill="black"><rect width="100%" height="100%" fill="white" /><defs><clipPath id="kuva-clip-7"><rect x="59" y="44" width="600" height="450"/></clipPath></defs><line x1="144.71" y1="44" x2="144.71" y2="494" stroke="#cccccc" stroke-width="1" /><line x1="230.43" y1="44" x2="230.43" y2="494" stroke="#cccccc" stroke-width="1" /><line x1="316.14" y1="44" x2="316.14" y2="494" stroke="#cccccc" stroke-width="1" /><line x1="401.86" y1="44" x2="401.86" y2="494" stroke="#cccccc" stroke-width="1" /><line x1="487.57" y1="44" x2="487.57" y2="494" stroke="#cccccc" stroke-width="1" /><line x1="573.29" y1="44" x2="573.29" y2="494" stroke="#cccccc" stroke-width="1" /><line x1="659" y1="44" x2="659" y2="494" stroke="#cccccc" stroke-width="1" /><line x1="59" y1="400.25" x2="659" y2="400.25" stroke="#cccccc" stroke-width="1" /><line x1="59" y1="306.5" x2="659" y2="306.5" stroke="#cccccc" stroke-width="1" /><line x1="59" y1="212.75" x2="659" y2="212.75" stroke="#cccccc" stroke-width="1" /><line x1="59" y1="119" x2="659" y2="119" stroke="#cccccc" stroke-width="1" /><line x1="59" y1="494" x2="659" y2="494" stroke="#000000" stroke-width="1" /><line x1="59" y1="44" x2="59" y2="494" stroke="#000000" stroke-width="1" /><line x1="59" y1="494" x2="59" y2="499" stroke="#000000" stroke-width="1" /><text x="59" y="511" font-size="12" text-anchor="middle">-3</text><line x1="144.71" y1="494" x2="144.71" y2="499" stroke="#000000" stroke-width="1" /><text x="144.71" y="511" font-size="12" text-anchor="middle">-2</text><line x1="230.43" y1="494" x2="230.43" y2="499" stroke="#000000" stroke-width="1" /><text x="230.43" y="511" font-size="12" text-anchor="middle">-1</text><line x1="316.14" y1="494" x2="316.14" y2="499" stroke="#000000" stroke-width="1" /><text x="316.14" y="511" font-size="12" text-anchor="middle">0</text><line x1="401.86" y1="494" x2="401.86" y2="499" stroke="#000000" stroke-width="1" /><text x="401.86" y="511" font-size="12" text-anchor="middle">1</text><line x1="487.57" y1="494" x2="487.57" y2="499" stroke="#000000" stroke-width="1" /><text x="487.57" y="511" font-size="12" text-anchor="middle">2</text><line x1="573.29" y1="494" x2="573.29" y2="499" stroke="#000000" stroke-width="1" /><text x="573.29" y="511" font-size="12" text-anchor="middle">3</text><line x1="659" y1="494" x2="659" y2="499" stroke="#000000" stroke-width="1" /><text x="659" y="511" font-size="12" text-anchor="middle">4</text><line x1="54" y1="494" x2="59" y2="494" stroke="#000000" stroke-width="1" /><text x="51" y="498.2" font-size="12" text-anchor="end">0</text><line x1="54" y1="400.25" x2="59" y2="400.25" stroke="#000000" stroke-width="1" /><text x="51" y="404.45" font-size="12" text-anchor="end">0.25</text><line x1="54" y1="306.5" x2="59" y2="306.5" stroke="#000000" stroke-width="1" /><text x="51" y="310.7" font-size="12" text-anchor="end">0.5</text><line x1="54" y1="212.75" x2="59" y2="212.75" stroke="#000000" stroke-width="1" /><text x="51" y="216.95000000000002" font-size="12" text-anchor="end">0.75</text><line x1="54" y1="119" x2="59" y2="119" stroke="#000000" stroke-width="1" /><text x="51" y="123.2" font-size="12" text-anchor="end">1</text><text x="359" y="538" font-size="14" text-anchor="middle">Value</text><text x="15" y="272.5" font-size="14" text-anchor="middle" transform="rotate(-90,15,272.5)">F(x)</text><text x="386.5" y="27.400000000000002" font-size="18" text-anchor="middle">Smooth CDF</text><g clip-path="url(#kuva-clip-7)"><path d="M 31.560000000000002,494 L 34.74,494 L 37.93,494 L 41.11,493.99 L 44.300000000000004,493.99 L 47.480000000000004,493.98 L 50.67,493.97 L 53.85,493.95 L 57.04,493.93 L 60.22,493.91 L 63.410000000000004,493.87 L 66.59,493.82 L 69.78,493.77000000000004 L 72.96000000000001,493.69 L 76.15,493.6 L 79.33,493.49 L 82.52,493.36 L 85.7,493.2 L 88.89,493.02000000000004 L 92.07000000000001,492.8 L 95.26,492.56 L 98.45,492.29 L 101.63,491.98 L 104.82000000000001,491.64 L 108,491.27 L 111.19,490.87 L 114.37,490.43 L 117.56,489.97 L 120.74000000000001,489.47 L 123.93,488.94 L 127.11,488.38 L 130.3,487.79 L 133.48,487.16 L 136.67000000000002,486.5 L 139.85,485.79 L 143.04,485.04 L 146.22,484.24 L 149.41,483.39 L 152.59,482.48 L 155.78,481.51 L 158.96,480.47 L 162.15,479.36 L 165.33,478.18 L 168.52,476.93 L 171.70000000000002,475.6 L 174.89000000000001,474.19 L 178.07,472.7 L 181.26,471.13 L 184.44,469.47 L 187.63,467.72 L 190.81,465.87 L 194,463.93 L 197.18,461.88 L 200.37,459.72 L 203.55,457.45 L 206.74,455.05 L 209.92000000000002,452.52 L 213.11,449.85 L 216.29,447.05 L 219.48000000000002,444.09000000000003 L 222.66,440.98 L 225.85,437.71000000000004 L 229.04,434.29 L 232.22,430.72 L 235.41,427 L 238.59,423.13 L 241.78,419.11 L 244.96,414.97 L 248.15,410.69 L 251.33,406.3 L 254.52,401.8 L 257.7,397.2 L 260.89,392.5 L 264.07,387.72 L 267.26,382.87 L 270.44,377.95 L 273.63,372.97 L 276.81,367.94 L 280,362.87 L 283.18,357.76 L 286.37,352.61 L 289.55,347.45 L 292.74,342.25 L 295.92,337.04 L 299.11,331.79 L 302.29,326.53000000000003 L 305.48,321.23 L 308.66,315.89 L 311.85,310.52 L 315.03000000000003,305.09000000000003 L 318.22,299.6 L 321.40000000000003,294.04 L 324.59000000000003,288.42 L 327.77,282.74 L 330.96,276.99 L 334.14,271.19 L 337.33,265.34000000000003 L 340.51,259.48 L 343.7,253.61 L 346.88,247.76000000000002 L 350.07,241.97 L 353.25,236.25 L 356.44,230.64000000000001 L 359.63,225.17000000000002 L 362.81,219.86 L 366,214.73000000000002 L 369.18,209.8 L 372.37,205.09 L 375.55,200.6 L 378.74,196.33 L 381.92,192.29 L 385.11,188.47 L 388.29,184.86 L 391.48,181.46 L 394.66,178.25 L 397.85,175.21 L 401.03000000000003,172.34 L 404.22,169.63 L 407.40000000000003,167.05 L 410.59000000000003,164.61 L 413.77,162.29 L 416.96000000000004,160.08 L 420.14,157.98 L 423.33,155.98 L 426.51,154.07 L 429.7,152.26 L 432.88,150.53 L 436.07,148.88 L 439.25,147.31 L 442.44,145.81 L 445.62,144.37 L 448.81,142.99 L 451.99,141.66 L 455.18,140.37 L 458.36,139.12 L 461.55,137.91 L 464.73,136.73 L 467.92,135.57 L 471.1,134.45 L 474.29,133.36 L 477.47,132.3 L 480.66,131.28 L 483.85,130.3 L 487.03000000000003,129.37 L 490.22,128.49 L 493.40000000000003,127.67 L 496.59000000000003,126.9 L 499.77000000000004,126.19 L 502.96000000000004,125.54 L 506.14,124.95 L 509.33,124.42 L 512.51,123.94 L 515.7,123.51 L 518.88,123.13000000000001 L 522.07,122.8 L 525.25,122.5 L 528.44,122.24000000000001 L 531.62,122.02 L 534.8100000000001,121.82000000000001 L 537.99,121.64 L 541.1800000000001,121.49000000000001 L 544.36,121.36 L 547.5500000000001,121.24000000000001 L 550.73,121.14 L 553.92,121.04 L 557.1,120.95 L 560.29,120.87 L 563.47,120.79 L 566.66,120.7 L 569.84,120.62 L 573.03,120.54 L 576.21,120.45 L 579.4,120.36 L 582.58,120.26 L 585.77,120.16 L 588.95,120.06 L 592.14,119.96000000000001 L 595.32,119.86 L 598.51,119.76 L 601.69,119.67 L 604.88,119.58 L 608.0600000000001,119.49000000000001 L 611.25,119.42 L 614.44,119.35000000000001 L 617.62,119.28 L 620.8100000000001,119.23 L 623.99,119.18 L 627.1800000000001,119.14 L 630.36,119.11 L 633.5500000000001,119.08 L 636.73,119.06 L 639.92,119.05 L 643.1,119.03 L 646.29,119.02 L 649.47,119.02 L 652.66,119.01 L 655.84,119.01 L 659.03,119 L 662.21,119 L 665.4,119" stroke="#1f77b4" stroke-width="1.5" fill="none" /><path d="M 168.49,494 L 171.14000000000001,494 L 173.79,494 L 176.44,493.99 L 179.09,493.99 L 181.75,493.98 L 184.4,493.97 L 187.05,493.96000000000004 L 189.70000000000002,493.94 L 192.35,493.92 L 195,493.89 L 197.65,493.85 L 200.3,493.81 L 202.95000000000002,493.75 L 205.6,493.68 L 208.25,493.61 L 210.9,493.52000000000004 L 213.55,493.42 L 216.20000000000002,493.3 L 218.85,493.18 L 221.5,493.04 L 224.15,492.89 L 226.8,492.74 L 229.45000000000002,492.57 L 232.1,492.40000000000003 L 234.75,492.21000000000004 L 237.4,492.02000000000004 L 240.05,491.82 L 242.70000000000002,491.62 L 245.35,491.40000000000003 L 248.01000000000002,491.17 L 250.66,490.93 L 253.31,490.67 L 255.96,490.40000000000003 L 258.61,490.11 L 261.26,489.8 L 263.91,489.47 L 266.56,489.12 L 269.21,488.75 L 271.86,488.35 L 274.51,487.92 L 277.16,487.46000000000004 L 279.81,486.97 L 282.46,486.45 L 285.11,485.90000000000003 L 287.76,485.3 L 290.41,484.67 L 293.06,484 L 295.71,483.28000000000003 L 298.36,482.51 L 301.01,481.69 L 303.66,480.81 L 306.31,479.86 L 308.96,478.84000000000003 L 311.62,477.74 L 314.27,476.56 L 316.92,475.3 L 319.57,473.95 L 322.22,472.5 L 324.87,470.97 L 327.52,469.35 L 330.17,467.64 L 332.82,465.87 L 335.47,464.02 L 338.12,462.13 L 340.77,460.19 L 343.42,458.22 L 346.07,456.23 L 348.72,454.23 L 351.37,452.23 L 354.02,450.23 L 356.67,448.22 L 359.32,446.22 L 361.97,444.22 L 364.62,442.19 L 367.27,440.15000000000003 L 369.92,438.07 L 372.57,435.93 L 375.22,433.72 L 377.88,431.42 L 380.53000000000003,429.02 L 383.18,426.49 L 385.83,423.82 L 388.48,420.98 L 391.13,417.97 L 393.78000000000003,414.77 L 396.43,411.36 L 399.08,407.74 L 401.73,403.91 L 404.38,399.84000000000003 L 407.03000000000003,395.56 L 409.68,391.07 L 412.33,386.37 L 414.98,381.49 L 417.63,376.43 L 420.28000000000003,371.23 L 422.93,365.90000000000003 L 425.58,360.47 L 428.23,354.97 L 430.88,349.41 L 433.53000000000003,343.81 L 436.18,338.2 L 438.83,332.59000000000003 L 441.49,326.97 L 444.14,321.36 L 446.79,315.74 L 449.44,310.13 L 452.09000000000003,304.51 L 454.74,298.88 L 457.39,293.24 L 460.04,287.58 L 462.69,281.91 L 465.34000000000003,276.23 L 467.99,270.57 L 470.64,264.95 L 473.29,259.38 L 475.94,253.9 L 478.59000000000003,248.54 L 481.24,243.33 L 483.89,238.28 L 486.54,233.43 L 489.19,228.78 L 491.84000000000003,224.35 L 494.49,220.11 L 497.14,216.07 L 499.79,212.21 L 502.44,208.49 L 505.09000000000003,204.9 L 507.75,201.4 L 510.40000000000003,197.97 L 513.05,194.59 L 515.7,191.23000000000002 L 518.35,187.88 L 521,184.54 L 523.65,181.21 L 526.3,177.88 L 528.95,174.57 L 531.6,171.3 L 534.25,168.08 L 536.9,164.93 L 539.55,161.87 L 542.2,158.91 L 544.85,156.07 L 547.5,153.36 L 550.15,150.78 L 552.8000000000001,148.35 L 555.45,146.05 L 558.1,143.9 L 560.75,141.89000000000001 L 563.4,140.02 L 566.0500000000001,138.27 L 568.7,136.65 L 571.36,135.14000000000001 L 574.01,133.75 L 576.66,132.47 L 579.3100000000001,131.28 L 581.96,130.19 L 584.61,129.19 L 587.26,128.28 L 589.91,127.45 L 592.5600000000001,126.69 L 595.21,126.01 L 597.86,125.39 L 600.51,124.83 L 603.16,124.33 L 605.8100000000001,123.87 L 608.46,123.46000000000001 L 611.11,123.09 L 613.76,122.75 L 616.41,122.43 L 619.0600000000001,122.14 L 621.71,121.86 L 624.36,121.60000000000001 L 627.01,121.35000000000001 L 629.66,121.12 L 632.3100000000001,120.89 L 634.96,120.68 L 637.62,120.47 L 640.27,120.28 L 642.92,120.11 L 645.57,119.94 L 648.22,119.79 L 650.87,119.66 L 653.52,119.54 L 656.17,119.44 L 658.82,119.35000000000001 L 661.47,119.27 L 664.12,119.21000000000001 L 666.77,119.16 L 669.42,119.12 L 672.07,119.09 L 674.72,119.06 L 677.37,119.04 L 680.02,119.03 L 682.67,119.02 L 685.32,119.01 L 687.97,119.01 L 690.62,119 L 693.27,119 L 695.92,119" stroke="#ff7f0e" stroke-width="1.5" fill="none" /></g><rect x="664" y="34" width="96" height="56" fill="#ffffff" /><rect x="664" y="34" width="96" height="56" fill="none" stroke="#000000" stroke-width="1" /><text x="694" y="53.2" font-size="12" text-anchor="start">Group A</text><line x1="674" y1="49" x2="686" y2="49" stroke="#1f77b4" stroke-width="2" /><text x="694" y="71.2" font-size="12" text-anchor="start">Group B</text><line x1="674" y1="67" x2="686" y2="67" stroke="#ff7f0e" stroke-width="2" /></svg>