<svg xmlns="http://www.w3.org/2000/svg" width="753.4" height="545" font-family="DejaVu Sans, Liberation Sans, Arial, sans-serif" fill="black"><rect width="100%" height="100%" fill="white" /><text x="359" y="22" font-size="18" text-anchor="middle">Gene Regulatory Network</text><path d="M 359 74 A 195 195 0 0 1 551.8155936607869 239.89421292529119 L 522.8932546116689 244.26008098649748 A 165.75 165.75 0 0 0 359 103.25 Z" stroke="none" stroke-width="0" fill="#e6194b" /><path d="M 553.074625789657 250.02528986770602 A 195 195 0 0 1 472.34738877527747 427.6737831458811 L 455.3452804589858 403.872715673999 A 165.75 165.75 0 0 0 523.9634319212084 252.87149638755014 Z" stroke="none" stroke-width="0" fill="#3cb44b" /><path d="M 463.88770594667596 433.38847021991427 A 195 195 0 0 1 234.39625192375667 418.99635317350914 L 253.08681413519315 396.4969001974828 A 165.75 165.75 0 0 0 448.15455005467453 408.7301996869271 Z" stroke="none" stroke-width="0" fill="#4363d8" /><path d="M 226.71681445365502 412.2695320775191 A 195 195 0 0 1 191.10473235505458 169.82248691143673 L 216.28902250179638 184.6991138747212 A 165.75 165.75 0 0 0 246.55929228560677 390.7791022658912 Z" stroke="none" stroke-width="0" fill="#f58231" /><path d="M 196.52537696952052 161.1714468653892 A 195 195 0 0 1 348.794488532626 74.26724072285808 L 350.32531525273214 103.47715461442937 A 165.75 165.75 0 0 0 220.89657042409243 177.3457298355808 Z" stroke="none" stroke-width="0" fill="#911eb4" /><text x="498.7" y="110.83" font-size="12" text-anchor="start">TF1</text><text x="554.01" y="361.82" font-size="12" text-anchor="start">TF2</text><text x="345.59000000000003" y="486.98" font-size="12" text-anchor="end">TF3</text><text x="147.07" y="304.33" font-size="12" text-anchor="end">TF4</text><text x="252.83" y="87.17" font-size="12" text-anchor="end">TF5</text><path d="M 523.9634319212084 252.87149638755014 A 165.75 165.75 0 0 1 524.6440558186421 274.92530775155217 C 359 269 359 269 359 103.25 A 165.75 165.75 0 0 1 472.57374227026287 148.27689712930706 C 359 269 359 269 523.9634319212084 252.87149638755014 Z" stroke="none" stroke-width="0" fill="#3cb44b" fill-opacity="0.7000000000000001" /><path d="M 448.15455005467453 408.7301996869271 A 165.75 165.75 0 0 1 408.2189969550289 427.27366438779654 C 359 269 359 269 472.57374227026287 148.27689712930706 A 165.75 165.75 0 0 1 492.11734975259566 170.24356378015094 C 359 269 359 269 448.15455005467453 408.7301996869271 Z" stroke="none" stroke-width="0" fill="#4363d8" fill-opacity="0.7000000000000001" /><path d="M 408.2189969550289 427.27366438779654 A 165.75 165.75 0 0 1 391.1039313141881 431.61119301626775 C 359 269 359 269 524.6440558186421 274.92530775155217 A 165.75 165.75 0 0 1 494.5685583659117 364.3636643726969 C 359 269 359 269 408.2189969550289 427.27366438779654 Z" stroke="none" stroke-width="0" fill="#4363d8" fill-opacity="0.7000000000000001" /><path d="M 246.55929228560677 390.7791022658912 A 165.75 165.75 0 0 1 241.26424706506242 385.66771181798043 C 359 269 359 269 492.11734975259566 170.24356378015094 A 165.75 165.75 0 0 1 520.053044195912 229.82118614315092 C 359 269 359 269 246.55929228560677 390.7791022658912 Z" stroke="none" stroke-width="0" fill="#f58231" fill-opacity="0.7000000000000001" /><path d="M 241.26424706506242 385.66771181798043 A 165.75 165.75 0 0 1 208.0362096028977 337.4324227902225 C 359 269 359 269 494.5685583659117 364.3636643726969 A 165.75 165.75 0 0 1 464.67669533386373 396.6929855681734 C 359 269 359 269 241.26424706506242 385.66771181798043 Z" stroke="none" stroke-width="0" fill="#f58231" fill-opacity="0.7000000000000001" /><path d="M 208.0362096028977 337.4324227902225 A 165.75 165.75 0 0 1 199.06799757071227 312.5294968838178 C 359 269 359 269 391.1039313141881 431.61119301626775 A 165.75 165.75 0 0 1 283.762480104216 416.6901421894214 C 359 269 359 269 208.0362096028977 337.4324227902225 Z" stroke="none" stroke-width="0" fill="#f58231" fill-opacity="0.7000000000000001" /><path d="M 220.89657042409243 177.3457298355808 A 165.75 165.75 0 0 1 273.6653575458839 126.90474569068758 C 359 269 359 269 520.053044195912 229.82118614315092 A 165.75 165.75 0 0 1 522.8932546116689 244.2600809864975 C 359 269 359 269 220.89657042409243 177.3457298355808 Z" stroke="none" stroke-width="0" fill="#911eb4" fill-opacity="0.7000000000000001" /><path d="M 273.6653575458839 126.90474569068758 A 165.75 165.75 0 0 1 283.9678546176892 121.20541397152675 C 359 269 359 269 464.67669533386373 396.6929855681734 A 165.75 165.75 0 0 1 455.3452804589858 403.872715673999 C 359 269 359 269 273.6653575458839 126.90474569068758 Z" stroke="none" stroke-width="0" fill="#911eb4" fill-opacity="0.7000000000000001" /><path d="M 283.9678546176892 121.20541397152675 A 165.75 165.75 0 0 1 332.76760554127804 105.33899676171475 C 359 269 359 269 283.762480104216 416.6901421894214 A 165.75 165.75 0 0 1 253.08681413519315 396.4969001974828 C 359 269 359 269 283.9678546176892 121.20541397152675 Z" stroke="none" stroke-width="0" fill="#911eb4" fill-opacity="0.7000000000000001" /><path d="M 332.76760554127804 105.33899676171475 A 165.75 165.75 0 0 1 350.32531525273214 103.47715461442937 C 359 269 359 269 199.06799757071227 312.5294968838178 A 165.75 165.75 0 0 1 216.28902250179638 184.6991138747212 C 359 269 359 269 332.76760554127804 105.33899676171475 Z" stroke="none" stroke-width="0" fill="#911eb4" fill-opacity="0.7000000000000001" /><rect x="664" y="34" width="80" height="110" fill="#ffffff" /><rect x="664" y="34" width="80" height="110" fill="none" stroke="#000000" stroke-width="1" /><text x="694" y="53.2" font-size="12" text-anchor="start">TF1</text><rect x="674" y="43" width="12" height="12" fill="#e6194b" /><text x="694" y="71.2" font-size="12" text-anchor="start">TF2</text><rect x="674" y="61" width="12" height="12" fill="#3cb44b" /><text x="694" y="89.2" font-size="12" text-anchor="start">TF3</text><rect x="674" y="79" width="12" height="12" fill="#4363d8" /><text x="694" y="107.2" font-size="12" text-anchor="start">TF4</text><rect x="674" y="97" width="12" height="12" fill="#f58231" /><text x="694" y="125.2" font-size="12" text-anchor="start">TF5</text><rect x="674" y="115" width="12" height="12" fill="#911eb4" /></svg>