<svg xmlns="http://www.w3.org/2000/svg" width="766.2" height="545" font-family="DejaVu Sans, Liberation Sans, Arial, sans-serif" fill="black"><rect width="100%" height="100%" fill="white" /><text x="372.2" y="22" font-size="18" text-anchor="middle">Gene Regulatory Network</text><path d="M 372.2 74 A 195 195 0 0 1 565.015593660787 239.89421292529119 L 536.093254611669 244.26008098649748 A 165.75 165.75 0 0 0 372.2 103.25 Z" stroke="none" stroke-width="0" fill="#e6194b" /><path d="M 566.2746257896571 250.02528986770602 A 195 195 0 0 1 485.54738877527745 427.6737831458811 L 468.54528045898587 403.872715673999 A 165.75 165.75 0 0 0 537.1634319212085 252.87149638755014 Z" stroke="none" stroke-width="0" fill="#3cb44b" /><path d="M 477.0877059466759 433.38847021991427 A 195 195 0 0 1 247.59625192375665 418.99635317350914 L 266.28681413519314 396.4969001974828 A 165.75 165.75 0 0 0 461.3545500546745 408.7301996869271 Z" stroke="none" stroke-width="0" fill="#4363d8" /><path d="M 239.916814453655 412.2695320775191 A 195 195 0 0 1 204.30473235505457 169.82248691143673 L 229.48902250179637 184.6991138747212 A 165.75 165.75 0 0 0 259.75929228560676 390.7791022658912 Z" stroke="none" stroke-width="0" fill="#f58231" /><path d="M 209.7253769695205 161.1714468653892 A 195 195 0 0 1 361.994488532626 74.26724072285808 L 363.5253152527321 103.47715461442937 A 165.75 165.75 0 0 0 234.09657042409242 177.3457298355808 Z" stroke="none" stroke-width="0" fill="#911eb4" /><text x="511.90000000000003" y="110.83" font-size="12" text-anchor="start">TF1</text><text x="567.21" y="361.82" font-size="12" text-anchor="start">TF2</text><text x="358.79" y="486.98" font-size="12" text-anchor="end">TF3</text><text x="160.27" y="304.33" font-size="12" text-anchor="end">TF4</text><text x="266.03000000000003" y="87.17" font-size="12" text-anchor="end">TF5</text><path d="M 537.1634319212085 252.87149638755014 A 165.75 165.75 0 0 1 537.844055818642 274.92530775155217 C 372.2 269 372.2 269 372.2 103.25 A 165.75 165.75 0 0 1 485.7737422702628 148.27689712930706 C 372.2 269 372.2 269 537.1634319212085 252.87149638755014 Z" stroke="none" stroke-width="0" fill="#3cb44b" fill-opacity="0.7000000000000001" /><path d="M 461.3545500546745 408.7301996869271 A 165.75 165.75 0 0 1 421.4189969550289 427.27366438779654 C 372.2 269 372.2 269 485.7737422702628 148.27689712930706 A 165.75 165.75 0 0 1 505.31734975259565 170.24356378015094 C 372.2 269 372.2 269 461.3545500546745 408.7301996869271 Z" stroke="none" stroke-width="0" fill="#4363d8" fill-opacity="0.7000000000000001" /><path d="M 421.4189969550289 427.27366438779654 A 165.75 165.75 0 0 1 404.3039313141881 431.61119301626775 C 372.2 269 372.2 269 537.844055818642 274.92530775155217 A 165.75 165.75 0 0 1 507.76855836591176 364.3636643726969 C 372.2 269 372.2 269 421.4189969550289 427.27366438779654 Z" stroke="none" stroke-width="0" fill="#4363d8" fill-opacity="0.7000000000000001" /><path d="M 259.75929228560676 390.7791022658912 A 165.75 165.75 0 0 1 254.4642470650624 385.66771181798043 C 372.2 269 372.2 269 505.31734975259565 170.24356378015094 A 165.75 165.75 0 0 1 533.2530441959119 229.82118614315092 C 372.2 269 372.2 269 259.75929228560676 390.7791022658912 Z" stroke="none" stroke-width="0" fill="#f58231" fill-opacity="0.7000000000000001" /><path d="M 254.4642470650624 385.66771181798043 A 165.75 165.75 0 0 1 221.2362096028977 337.4324227902225 C 372.2 269 372.2 269 507.76855836591176 364.3636643726969 A 165.75 165.75 0 0 1 477.8766953338637 396.6929855681734 C 372.2 269 372.2 269 254.4642470650624 385.66771181798043 Z" stroke="none" stroke-width="0" fill="#f58231" fill-opacity="0.7000000000000001" /><path d="M 221.2362096028977 337.4324227902225 A 165.75 165.75 0 0 1 212.26799757071225 312.5294968838178 C 372.2 269 372.2 269 404.3039313141881 431.61119301626775 A 165.75 165.75 0 0 1 296.962480104216 416.6901421894214 C 372.2 269 372.2 269 221.2362096028977 337.4324227902225 Z" stroke="none" stroke-width="0" fill="#f58231" fill-opacity="0.7000000000000001" /><path d="M 234.09657042409242 177.3457298355808 A 165.75 165.75 0 0 1 286.8653575458839 126.90474569068758 C 372.2 269 372.2 269 533.2530441959119 229.82118614315092 A 165.75 165.75 0 0 1 536.093254611669 244.2600809864975 C 372.2 269 372.2 269 234.09657042409242 177.3457298355808 Z" stroke="none" stroke-width="0" fill="#911eb4" fill-opacity="0.7000000000000001" /><path d="M 286.8653575458839 126.90474569068758 A 165.75 165.75 0 0 1 297.1678546176893 121.20541397152675 C 372.2 269 372.2 269 477.8766953338637 396.6929855681734 A 165.75 165.75 0 0 1 468.5452804589858 403.872715673999 C 372.2 269 372.2 269 286.8653575458839 126.90474569068758 Z" stroke="none" stroke-width="0" fill="#911eb4" fill-opacity="0.7000000000000001" /><path d="M 297.1678546176893 121.20541397152675 A 165.75 165.75 0 0 1 345.96760554127803 105.33899676171475 C 372.2 269 372.2 269 296.962480104216 416.6901421894214 A 165.75 165.75 0 0 1 266.28681413519314 396.4969001974828 C 372.2 269 372.2 269 297.1678546176893 121.20541397152675 Z" stroke="none" stroke-width="0" fill="#911eb4" fill-opacity="0.7000000000000001" /><path d="M 345.96760554127803 105.33899676171475 A 165.75 165.75 0 0 1 363.5253152527321 103.47715461442937 C 372.2 269 372.2 269 212.26799757071225 312.5294968838178 A 165.75 165.75 0 0 1 229.48902250179637 184.6991138747212 C 372.2 269 372.2 269 345.96760554127803 105.33899676171475 Z" stroke="none" stroke-width="0" fill="#911eb4" fill-opacity="0.7000000000000001" /><rect x="677.2" y="34" width="80" height="110" fill="#ffffff" /><rect x="677.2" y="34" width="80" height="110" fill="none" stroke="#000000" stroke-width="1" /><text x="707.2" y="53.2" font-size="12" text-anchor="start">TF1</text><rect x="687.2" y="43" width="12" height="12" fill="#e6194b" /><text x="707.2" y="71.2" font-size="12" text-anchor="start">TF2</text><rect x="687.2" y="61" width="12" height="12" fill="#3cb44b" /><text x="707.2" y="89.2" font-size="12" text-anchor="start">TF3</text><rect x="687.2" y="79" width="12" height="12" fill="#4363d8" /><text x="707.2" y="107.2" font-size="12" text-anchor="start">TF4</text><rect x="687.2" y="97" width="12" height="12" fill="#f58231" /><text x="707.2" y="125.2" font-size="12" text-anchor="start">TF5</text><rect x="687.2" y="115" width="12" height="12" fill="#911eb4" /></svg>