<svg xmlns="http://www.w3.org/2000/svg" width="673.4" height="545" font-family="DejaVu Sans, Liberation Sans, Arial, sans-serif" fill="black"><rect width="100%" height="100%" fill="white" /><text x="336.7" y="27.400000000000002" font-size="18" text-anchor="middle">PBMC Cell Type Co-clustering</text><path d="M 359 74 A 195 195 0 0 1 551.8530932380373 297.856271909602 L 522.9251292523318 293.5278311231617 A 165.75 165.75 0 0 0 359 103.25 Z" stroke="none" stroke-width="0" fill="#1f77b4" /><path d="M 550.7285429779972 304.5691693399531 A 195 195 0 0 1 291.73454448154246 452.0310315053008 L 301.8243628093111 424.57637677950567 A 165.75 165.75 0 0 0 521.9692615312977 299.2337939389601 Z" stroke="none" stroke-width="0" fill="#ff7f0e" /><path d="M 285.38782989911795 449.57200340318207 A 195 195 0 0 1 168.64588694682163 226.68792555619868 L 197.1990039047984 233.03473672276886 A 165.75 165.75 0 0 0 296.42965541425025 422.4862028927048 Z" stroke="none" stroke-width="0" fill="#2ca02c" /><path d="M 170.23851563182504 220.07043818790893 A 195 195 0 0 1 238.9578533280722 115.32865256530295 L 256.96417532886136 138.3793546805075 A 165.75 165.75 0 0 0 198.55273828705128 227.4098724597226 Z" stroke="none" stroke-width="0" fill="#d62728" /><path d="M 244.39403244346062 111.23285449616117 A 195 195 0 0 1 352.19459814301234 74.11878873127634 L 353.2154084215605 103.35097042158489 A 165.75 165.75 0 0 0 261.58492757694154 134.897926321737 Z" stroke="none" stroke-width="0" fill="#9467bd" /><text x="521.28" y="133.39000000000001" font-size="12" text-anchor="start">CD4 T</text><text x="464.98" y="459.34000000000003" font-size="12" text-anchor="start">CD8 T</text><text x="169.25" y="372.59000000000003" font-size="12" text-anchor="end">NK</text><text x="179.9" y="155.70000000000002" font-size="12" text-anchor="end">B cell</text><text x="289.27" y="70.67" font-size="12" text-anchor="end">Monocyte</text><path d="M 521.9692615312977 299.2337939389601 A 165.75 165.75 0 0 1 449.595026376837 407.8005896809527 C 359 269 359 269 359 103.25 A 165.75 165.75 0 0 1 478.9468973818497 154.60679955317266 C 359 269 359 269 521.9692615312977 299.2337939389601 Z" stroke="none" stroke-width="0" fill="#ff7f0e" fill-opacity="0.7000000000000001" /><path d="M 296.42965541425025 422.4862028927048 A 165.75 165.75 0 0 1 233.48885361972296 377.25901641114547 C 359 269 359 269 478.9468973818497 154.60679955317266 A 165.75 165.75 0 0 1 517.8416018285143 221.6459291237624 C 359 269 359 269 296.42965541425025 422.4862028927048 Z" stroke="none" stroke-width="0" fill="#2ca02c" fill-opacity="0.7000000000000001" /><path d="M 233.48885361972296 377.25901641114547 A 165.75 165.75 0 0 1 194.4103783266012 288.5785325652219 C 359 269 359 269 449.595026376837 407.8005896809527 A 165.75 165.75 0 0 1 356.5031466606306 434.73119266873596 C 359 269 359 269 233.48885361972296 377.25901641114547 Z" stroke="none" stroke-width="0" fill="#2ca02c" fill-opacity="0.7000000000000001" /><path d="M 198.55273828705128 227.4098724597226 A 165.75 165.75 0 0 1 215.43394334848418 186.1637164188678 C 359 269 359 269 517.8416018285143 221.6459291237624 A 165.75 165.75 0 0 1 524.7167360336194 265.67947317979406 C 359 269 359 269 198.55273828705128 227.4098724597226 Z" stroke="none" stroke-width="0" fill="#d62728" fill-opacity="0.7000000000000001" /><path d="M 215.43394334848418 186.1637164188678 A 165.75 165.75 0 0 1 236.4968721002725 157.34855059255608 C 359 269 359 269 356.5031466606306 434.73119266873596 A 165.75 165.75 0 0 1 321.07996938045045 430.3540634065731 C 359 269 359 269 215.43394334848418 186.1637164188678 Z" stroke="none" stroke-width="0" fill="#d62728" fill-opacity="0.7000000000000001" /><path d="M 236.4968721002725 157.34855059255608 A 165.75 165.75 0 0 1 248.39566777323978 145.55064118160658 C 359 269 359 269 194.4103783266012 288.5785325652219 A 165.75 165.75 0 0 1 193.27469034270808 271.86081089810364 C 359 269 359 269 236.4968721002725 157.34855059255608 Z" stroke="none" stroke-width="0" fill="#d62728" fill-opacity="0.7000000000000001" /><path d="M 261.58492757694154 134.897926321737 A 165.75 165.75 0 0 1 285.46306835640945 120.45579047150343 C 359 269 359 269 524.7167360336194 265.67947317979406 A 165.75 165.75 0 0 1 522.9251292523318 293.5278311231618 C 359 269 359 269 261.58492757694154 134.897926321737 Z" stroke="none" stroke-width="0" fill="#9467bd" fill-opacity="0.7000000000000001" /><path d="M 285.46306835640945 120.45579047150343 A 165.75 165.75 0 0 1 303.98766350961057 112.64557782439229 C 359 269 359 269 321.07996938045045 430.3540634065731 A 165.75 165.75 0 0 1 301.8243628093111 424.57637677950567 C 359 269 359 269 285.46306835640945 120.45579047150343 Z" stroke="none" stroke-width="0" fill="#9467bd" fill-opacity="0.7000000000000001" /><path d="M 303.98766350961057 112.64557782439229 A 165.75 165.75 0 0 1 342.06822274790875 104.11707966230836 C 359 269 359 269 193.27469034270808 271.86081089810364 A 165.75 165.75 0 0 1 197.1990039047984 233.03473672276886 C 359 269 359 269 303.98766350961057 112.64557782439229 Z" stroke="none" stroke-width="0" fill="#9467bd" fill-opacity="0.7000000000000001" /><path d="M 342.06822274790875 104.11707966230836 A 165.75 165.75 0 0 1 353.21540842156065 103.35097042158489 C 359 269 359 269 248.39566777323978 145.55064118160658 A 165.75 165.75 0 0 1 256.96417532886136 138.3793546805075 C 359 269 359 269 342.06822274790875 104.11707966230836 Z" stroke="none" stroke-width="0" fill="#9467bd" fill-opacity="0.7000000000000001" /></svg>