<svg xmlns="http://www.w3.org/2000/svg" width="686.2" height="545" font-family="DejaVu Sans, Liberation Sans, Arial, sans-serif" fill="black"><rect width="100%" height="100%" fill="white" /><text x="372.2" y="22" font-size="18" text-anchor="middle">PBMC Cell Type Co-clustering</text><path d="M 372.2 74 A 195 195 0 0 1 565.0530932380373 297.856271909602 L 536.1251292523317 293.5278311231617 A 165.75 165.75 0 0 0 372.2 103.25 Z" stroke="none" stroke-width="0" fill="#1f77b4" /><path d="M 563.9285429779973 304.5691693399531 A 195 195 0 0 1 304.9345444815425 452.0310315053008 L 315.0243628093111 424.57637677950567 A 165.75 165.75 0 0 0 535.1692615312977 299.2337939389601 Z" stroke="none" stroke-width="0" fill="#ff7f0e" /><path d="M 298.58782989911793 449.57200340318207 A 195 195 0 0 1 181.84588694682162 226.68792555619868 L 210.39900390479838 233.03473672276886 A 165.75 165.75 0 0 0 309.62965541425024 422.4862028927048 Z" stroke="none" stroke-width="0" fill="#2ca02c" /><path d="M 183.43851563182503 220.07043818790893 A 195 195 0 0 1 252.15785332807218 115.32865256530295 L 270.16417532886135 138.3793546805075 A 165.75 165.75 0 0 0 211.75273828705127 227.4098724597226 Z" stroke="none" stroke-width="0" fill="#d62728" /><path d="M 257.5940324434606 111.23285449616117 A 195 195 0 0 1 365.39459814301233 74.11878873127634 L 366.41540842156047 103.35097042158489 A 165.75 165.75 0 0 0 274.7849275769415 134.897926321737 Z" stroke="none" stroke-width="0" fill="#9467bd" /><text x="534.48" y="133.39000000000001" font-size="12" text-anchor="start">CD4 T</text><text x="478.18" y="459.34000000000003" font-size="12" text-anchor="start">CD8 T</text><text x="182.45000000000002" y="372.59000000000003" font-size="12" text-anchor="end">NK</text><text x="193.1" y="155.70000000000002" font-size="12" text-anchor="end">B cell</text><text x="302.47" y="70.67" font-size="12" text-anchor="end">Monocyte</text><path d="M 535.1692615312977 299.2337939389601 A 165.75 165.75 0 0 1 462.795026376837 407.8005896809527 C 372.2 269 372.2 269 372.2 103.25 A 165.75 165.75 0 0 1 492.14689738184967 154.60679955317266 C 372.2 269 372.2 269 535.1692615312977 299.2337939389601 Z" stroke="none" stroke-width="0" fill="#ff7f0e" fill-opacity="0.7000000000000001" /><path d="M 309.62965541425024 422.4862028927048 A 165.75 165.75 0 0 1 246.68885361972295 377.25901641114547 C 372.2 269 372.2 269 492.14689738184967 154.60679955317266 A 165.75 165.75 0 0 1 531.0416018285142 221.6459291237624 C 372.2 269 372.2 269 309.62965541425024 422.4862028927048 Z" stroke="none" stroke-width="0" fill="#2ca02c" fill-opacity="0.7000000000000001" /><path d="M 246.68885361972295 377.25901641114547 A 165.75 165.75 0 0 1 207.6103783266012 288.5785325652219 C 372.2 269 372.2 269 462.795026376837 407.8005896809527 A 165.75 165.75 0 0 1 369.7031466606306 434.73119266873596 C 372.2 269 372.2 269 246.68885361972295 377.25901641114547 Z" stroke="none" stroke-width="0" fill="#2ca02c" fill-opacity="0.7000000000000001" /><path d="M 211.75273828705127 227.4098724597226 A 165.75 165.75 0 0 1 228.63394334848417 186.1637164188678 C 372.2 269 372.2 269 531.0416018285142 221.6459291237624 A 165.75 165.75 0 0 1 537.9167360336194 265.67947317979406 C 372.2 269 372.2 269 211.75273828705127 227.4098724597226 Z" stroke="none" stroke-width="0" fill="#d62728" fill-opacity="0.7000000000000001" /><path d="M 228.63394334848417 186.1637164188678 A 165.75 165.75 0 0 1 249.6968721002725 157.34855059255608 C 372.2 269 372.2 269 369.7031466606306 434.73119266873596 A 165.75 165.75 0 0 1 334.27996938045044 430.3540634065731 C 372.2 269 372.2 269 228.63394334848417 186.1637164188678 Z" stroke="none" stroke-width="0" fill="#d62728" fill-opacity="0.7000000000000001" /><path d="M 249.6968721002725 157.34855059255608 A 165.75 165.75 0 0 1 261.59566777323977 145.55064118160658 C 372.2 269 372.2 269 207.6103783266012 288.5785325652219 A 165.75 165.75 0 0 1 206.47469034270807 271.86081089810364 C 372.2 269 372.2 269 249.6968721002725 157.34855059255608 Z" stroke="none" stroke-width="0" fill="#d62728" fill-opacity="0.7000000000000001" /><path d="M 274.7849275769415 134.897926321737 A 165.75 165.75 0 0 1 298.66306835640944 120.45579047150343 C 372.2 269 372.2 269 537.9167360336194 265.67947317979406 A 165.75 165.75 0 0 1 536.1251292523317 293.5278311231618 C 372.2 269 372.2 269 274.7849275769415 134.897926321737 Z" stroke="none" stroke-width="0" fill="#9467bd" fill-opacity="0.7000000000000001" /><path d="M 298.66306835640944 120.45579047150343 A 165.75 165.75 0 0 1 317.18766350961056 112.64557782439229 C 372.2 269 372.2 269 334.27996938045044 430.3540634065731 A 165.75 165.75 0 0 1 315.0243628093111 424.57637677950567 C 372.2 269 372.2 269 298.66306835640944 120.45579047150343 Z" stroke="none" stroke-width="0" fill="#9467bd" fill-opacity="0.7000000000000001" /><path d="M 317.18766350961056 112.64557782439229 A 165.75 165.75 0 0 1 355.26822274790874 104.11707966230836 C 372.2 269 372.2 269 206.47469034270807 271.86081089810364 A 165.75 165.75 0 0 1 210.39900390479838 233.03473672276886 C 372.2 269 372.2 269 317.18766350961056 112.64557782439229 Z" stroke="none" stroke-width="0" fill="#9467bd" fill-opacity="0.7000000000000001" /><path d="M 355.26822274790874 104.11707966230836 A 165.75 165.75 0 0 1 366.41540842156064 103.35097042158489 C 372.2 269 372.2 269 261.59566777323977 145.55064118160658 A 165.75 165.75 0 0 1 270.16417532886135 138.3793546805075 C 372.2 269 372.2 269 355.26822274790874 104.11707966230836 Z" stroke="none" stroke-width="0" fill="#9467bd" fill-opacity="0.7000000000000001" /></svg>