<svg xmlns="http://www.w3.org/2000/svg" width="673.4" height="545" font-family="DejaVu Sans, Liberation Sans, Arial, sans-serif" fill="black"><rect width="100%" height="100%" fill="white" /><text x="336.7" y="27.400000000000002" font-size="18" text-anchor="middle">Wider Gaps, Reduced Opacity</text><path d="M 359 74 A 195 195 0 0 1 553.753570624516 278.80034331039826 L 524.5405350308386 277.3302918138385 A 165.75 165.75 0 0 0 359 103.25 Z" stroke="none" stroke-width="0" fill="#1f77b4" /><path d="M 551.6622753615012 299.1039474575861 A 195 195 0 0 1 315.61783532597417 459.11309210098 L 322.12516002707804 430.596128285833 A 165.75 165.75 0 0 0 522.762934057276 294.5883553389482 Z" stroke="none" stroke-width="0" fill="#ff7f0e" /><path d="M 295.983257998832 453.5369616839896 A 195 195 0 0 1 164.63246443209724 253.3072909521631 L 193.78759476728266 255.66119730933863 A 165.75 165.75 0 0 0 305.4357692990072 425.85641743139115 Z" stroke="none" stroke-width="0" fill="#2ca02c" /><path d="M 167.33756489022588 233.0763174522486 A 195 195 0 0 1 223.41196997540524 128.85405423613 L 243.75017447909445 149.8759461007105 A 165.75 165.75 0 0 0 196.08693015669198 238.4648698344113 Z" stroke="none" stroke-width="0" fill="#d62728" /><path d="M 238.803975734579 115.44897997477736 A 195 195 0 0 1 338.61694966280743 75.0682304031867 L 341.6744072133863 104.15799584270871 A 165.75 165.75 0 0 0 256.83337937439217 138.48163297856075 Z" stroke="none" stroke-width="0" fill="#9467bd" /><text x="514.22" y="125.59" font-size="12" text-anchor="start">CD4 T</text><text x="479.19" y="450.5" font-size="12" text-anchor="start">CD8 T</text><text x="179.9" y="390.69" font-size="12" text-anchor="end">NK</text><text x="170.37" y="171.71" font-size="12" text-anchor="end">B cell</text><text x="278.67" y="74.63" font-size="12" text-anchor="end">Monocyte</text><path d="M 522.762934057276 294.5883553389482 A 165.75 165.75 0 0 1 459.6968949573382 400.6556031695985 C 359 269 359 269 359 103.25 A 165.75 165.75 0 0 1 473.5317642861946 149.18540377111157 C 359 269 359 269 522.762934057276 294.5883553389482 Z" stroke="none" stroke-width="0" fill="#ff7f0e" fill-opacity="0.45" /><path d="M 305.4357692990072 425.85641743139115 A 165.75 165.75 0 0 1 243.13213482196505 387.5229948958628 C 359 269 359 269 473.5317642861946 149.18540377111157 A 165.75 165.75 0 0 1 513.9527977590344 210.15534886969098 C 359 269 359 269 305.4357692990072 425.85641743139115 Z" stroke="none" stroke-width="0" fill="#2ca02c" fill-opacity="0.45" /><path d="M 243.13213482196505 387.5229948958628 A 165.75 165.75 0 0 1 197.8947616063826 307.9636325582678 C 359 269 359 269 459.6968949573382 400.6556031695985 A 165.75 165.75 0 0 1 374.4763805638177 434.0258893163248 C 359 269 359 269 243.13213482196505 387.5229948958628 Z" stroke="none" stroke-width="0" fill="#2ca02c" fill-opacity="0.45" /><path d="M 196.08693015669198 238.4648698344113 A 165.75 165.75 0 0 1 209.00697517094903 198.4652213257056 C 359 269 359 269 513.9527977590344 210.15534886969098 A 165.75 165.75 0 0 1 523.7726439193916 251.02673330155662 C 359 269 359 269 196.08693015669198 238.4648698344113 Z" stroke="none" stroke-width="0" fill="#d62728" fill-opacity="0.45" /><path d="M 209.00697517094903 198.4652213257056 A 165.75 165.75 0 0 1 226.34996174286331 169.61675266736262 C 359 269 359 269 374.4763805638177 434.0258893163248 A 165.75 165.75 0 0 1 340.81725068862164 433.7496589601313 C 359 269 359 269 209.00697517094903 198.4652213257056 Z" stroke="none" stroke-width="0" fill="#d62728" fill-opacity="0.45" /><path d="M 226.34996174286331 169.61675266736262 A 165.75 165.75 0 0 1 236.4151719889 157.43825726760525 C 359 269 359 269 197.8947616063826 307.9636325582678 A 165.75 165.75 0 0 1 194.91683215714198 292.4473139325699 C 359 269 359 269 226.34996174286331 169.61675266736262 Z" stroke="none" stroke-width="0" fill="#d62728" fill-opacity="0.45" /><path d="M 256.83337937439217 138.48163297856075 A 165.75 165.75 0 0 1 278.7768886630573 123.95754101842971 C 359 269 359 269 523.7726439193916 251.02673330155662 A 165.75 165.75 0 0 1 524.5405350308386 277.3302918138385 C 359 269 359 269 256.83337937439217 138.48163297856075 Z" stroke="none" stroke-width="0" fill="#9467bd" fill-opacity="0.45" /><path d="M 278.7768886630573 123.95754101842971 A 165.75 165.75 0 0 1 295.8623835971873 115.7462760812277 C 359 269 359 269 340.81725068862164 433.7496589601313 A 165.75 165.75 0 0 1 322.12516002707804 430.596128285833 C 359 269 359 269 278.7768886630573 123.95754101842971 Z" stroke="none" stroke-width="0" fill="#9467bd" fill-opacity="0.45" /><path d="M 295.8623835971873 115.7462760812277 A 165.75 165.75 0 0 1 331.23719259402395 105.59164946387017 C 359 269 359 269 194.91683215714198 292.4473139325699 A 165.75 165.75 0 0 1 193.78759476728266 255.66119730933863 C 359 269 359 269 295.8623835971873 115.7462760812277 Z" stroke="none" stroke-width="0" fill="#9467bd" fill-opacity="0.45" /><path d="M 331.23719259402395 105.59164946387017 A 165.75 165.75 0 0 1 341.6744072133862 104.15799584270871 C 359 269 359 269 236.4151719889 157.43825726760525 A 165.75 165.75 0 0 1 243.75017447909445 149.8759461007105 C 359 269 359 269 331.23719259402395 105.59164946387017 Z" stroke="none" stroke-width="0" fill="#9467bd" fill-opacity="0.45" /></svg>