<svg xmlns="http://www.w3.org/2000/svg" width="686.2" height="545" font-family="DejaVu Sans, Liberation Sans, Arial, sans-serif" fill="black"><rect width="100%" height="100%" fill="white" /><text x="372.2" y="22" font-size="18" text-anchor="middle">Wider Gaps, Reduced Opacity</text><path d="M 372.2 74 A 195 195 0 0 1 566.953570624516 278.80034331039826 L 537.7405350308386 277.3302918138385 A 165.75 165.75 0 0 0 372.2 103.25 Z" stroke="none" stroke-width="0" fill="#1f77b4" /><path d="M 564.8622753615011 299.1039474575861 A 195 195 0 0 1 328.81783532597416 459.11309210098 L 335.325160027078 430.596128285833 A 165.75 165.75 0 0 0 535.962934057276 294.5883553389482 Z" stroke="none" stroke-width="0" fill="#ff7f0e" /><path d="M 309.183257998832 453.5369616839896 A 195 195 0 0 1 177.83246443209723 253.3072909521631 L 206.98759476728264 255.66119730933863 A 165.75 165.75 0 0 0 318.63576929900717 425.85641743139115 Z" stroke="none" stroke-width="0" fill="#2ca02c" /><path d="M 180.53756489022587 233.0763174522486 A 195 195 0 0 1 236.61196997540523 128.85405423613 L 256.95017447909447 149.8759461007105 A 165.75 165.75 0 0 0 209.28693015669197 238.4648698344113 Z" stroke="none" stroke-width="0" fill="#d62728" /><path d="M 252.003975734579 115.44897997477736 A 195 195 0 0 1 351.8169496628074 75.0682304031867 L 354.8744072133863 104.15799584270871 A 165.75 165.75 0 0 0 270.03337937439215 138.48163297856075 Z" stroke="none" stroke-width="0" fill="#9467bd" /><text x="527.42" y="125.59" font-size="12" text-anchor="start">CD4 T</text><text x="492.39" y="450.5" font-size="12" text-anchor="start">CD8 T</text><text x="193.1" y="390.69" font-size="12" text-anchor="end">NK</text><text x="183.57" y="171.71" font-size="12" text-anchor="end">B cell</text><text x="291.87" y="74.63" font-size="12" text-anchor="end">Monocyte</text><path d="M 535.962934057276 294.5883553389482 A 165.75 165.75 0 0 1 472.8968949573382 400.6556031695985 C 372.2 269 372.2 269 372.2 103.25 A 165.75 165.75 0 0 1 486.73176428619456 149.18540377111157 C 372.2 269 372.2 269 535.962934057276 294.5883553389482 Z" stroke="none" stroke-width="0" fill="#ff7f0e" fill-opacity="0.45" /><path d="M 318.63576929900717 425.85641743139115 A 165.75 165.75 0 0 1 256.33213482196504 387.5229948958628 C 372.2 269 372.2 269 486.73176428619456 149.18540377111157 A 165.75 165.75 0 0 1 527.1527977590345 210.15534886969098 C 372.2 269 372.2 269 318.63576929900717 425.85641743139115 Z" stroke="none" stroke-width="0" fill="#2ca02c" fill-opacity="0.45" /><path d="M 256.33213482196504 387.5229948958628 A 165.75 165.75 0 0 1 211.09476160638258 307.9636325582678 C 372.2 269 372.2 269 472.8968949573382 400.6556031695985 A 165.75 165.75 0 0 1 387.6763805638177 434.0258893163248 C 372.2 269 372.2 269 256.33213482196504 387.5229948958628 Z" stroke="none" stroke-width="0" fill="#2ca02c" fill-opacity="0.45" /><path d="M 209.28693015669197 238.4648698344113 A 165.75 165.75 0 0 1 222.20697517094902 198.4652213257056 C 372.2 269 372.2 269 527.1527977590345 210.15534886969098 A 165.75 165.75 0 0 1 536.9726439193917 251.02673330155662 C 372.2 269 372.2 269 209.28693015669197 238.4648698344113 Z" stroke="none" stroke-width="0" fill="#d62728" fill-opacity="0.45" /><path d="M 222.20697517094902 198.4652213257056 A 165.75 165.75 0 0 1 239.5499617428633 169.61675266736262 C 372.2 269 372.2 269 387.6763805638177 434.0258893163248 A 165.75 165.75 0 0 1 354.01725068862163 433.7496589601313 C 372.2 269 372.2 269 222.20697517094902 198.4652213257056 Z" stroke="none" stroke-width="0" fill="#d62728" fill-opacity="0.45" /><path d="M 239.5499617428633 169.61675266736262 A 165.75 165.75 0 0 1 249.6151719889 157.43825726760525 C 372.2 269 372.2 269 211.09476160638258 307.9636325582678 A 165.75 165.75 0 0 1 208.11683215714197 292.4473139325699 C 372.2 269 372.2 269 239.5499617428633 169.61675266736262 Z" stroke="none" stroke-width="0" fill="#d62728" fill-opacity="0.45" /><path d="M 270.03337937439215 138.48163297856075 A 165.75 165.75 0 0 1 291.9768886630573 123.95754101842971 C 372.2 269 372.2 269 536.9726439193917 251.02673330155662 A 165.75 165.75 0 0 1 537.7405350308386 277.3302918138385 C 372.2 269 372.2 269 270.03337937439215 138.48163297856075 Z" stroke="none" stroke-width="0" fill="#9467bd" fill-opacity="0.45" /><path d="M 291.9768886630573 123.95754101842971 A 165.75 165.75 0 0 1 309.0623835971873 115.7462760812277 C 372.2 269 372.2 269 354.01725068862163 433.7496589601313 A 165.75 165.75 0 0 1 335.325160027078 430.596128285833 C 372.2 269 372.2 269 291.9768886630573 123.95754101842971 Z" stroke="none" stroke-width="0" fill="#9467bd" fill-opacity="0.45" /><path d="M 309.0623835971873 115.7462760812277 A 165.75 165.75 0 0 1 344.43719259402394 105.59164946387017 C 372.2 269 372.2 269 208.11683215714197 292.4473139325699 A 165.75 165.75 0 0 1 206.98759476728264 255.66119730933863 C 372.2 269 372.2 269 309.0623835971873 115.7462760812277 Z" stroke="none" stroke-width="0" fill="#9467bd" fill-opacity="0.45" /><path d="M 344.43719259402394 105.59164946387017 A 165.75 165.75 0 0 1 354.8744072133862 104.15799584270871 C 372.2 269 372.2 269 249.6151719889 157.43825726760525 A 165.75 165.75 0 0 1 256.95017447909447 149.8759461007105 C 372.2 269 372.2 269 344.43719259402394 105.59164946387017 Z" stroke="none" stroke-width="0" fill="#9467bd" fill-opacity="0.45" /></svg>