<svg xmlns="http://www.w3.org/2000/svg" width="732.2" height="545" font-family="DejaVu Sans, Liberation Sans, Arial, sans-serif" fill="black"><rect width="100%" height="100%" fill="white" /><defs><clipPath id="kuva-clip-0"><rect x="114.2" y="44" width="600" height="450"/></clipPath></defs><line x1="114.2" y1="494" x2="714.2" y2="494" stroke="#000000" stroke-width="1" /><line x1="114.2" y1="44" x2="114.2" y2="494" stroke="#000000" stroke-width="1" /><text x="106.2" y="408.2" font-size="12" text-anchor="end">Treatment B</text><line x1="109.2" y1="404" x2="114.2" y2="404" stroke="#000000" stroke-width="1" /><text x="106.2" y="318.2" font-size="12" text-anchor="end">Treatment A</text><line x1="109.2" y1="314" x2="114.2" y2="314" stroke="#000000" stroke-width="1" /><text x="106.2" y="228.20000000000002" font-size="12" text-anchor="end">Control</text><line x1="109.2" y1="224" x2="114.2" y2="224" stroke="#000000" stroke-width="1" /><line x1="114.2" y1="494" x2="114.2" y2="499" stroke="#000000" stroke-width="1" /><text x="114.2" y="511" font-size="12" text-anchor="middle">0</text><line x1="199.91" y1="494" x2="199.91" y2="499" stroke="#000000" stroke-width="1" /><text x="199.91" y="511" font-size="12" text-anchor="middle">1</text><line x1="285.63" y1="494" x2="285.63" y2="499" stroke="#000000" stroke-width="1" /><text x="285.63" y="511" font-size="12" text-anchor="middle">2</text><line x1="371.34000000000003" y1="494" x2="371.34000000000003" y2="499" stroke="#000000" stroke-width="1" /><text x="371.34000000000003" y="511" font-size="12" text-anchor="middle">3</text><line x1="457.06" y1="494" x2="457.06" y2="499" stroke="#000000" stroke-width="1" /><text x="457.06" y="511" font-size="12" text-anchor="middle">4</text><line x1="542.77" y1="494" x2="542.77" y2="499" stroke="#000000" stroke-width="1" /><text x="542.77" y="511" font-size="12" text-anchor="middle">5</text><line x1="628.49" y1="494" x2="628.49" y2="499" stroke="#000000" stroke-width="1" /><text x="628.49" y="511" font-size="12" text-anchor="middle">6</text><line x1="714.2" y1="494" x2="714.2" y2="499" stroke="#000000" stroke-width="1" /><text x="714.2" y="511" font-size="12" text-anchor="middle">7</text><text x="414.2" y="538" font-size="14" text-anchor="middle">Expression Level</text><text x="15" y="272.5" font-size="14" text-anchor="middle" transform="rotate(-90,15,272.5)">Group</text><text x="366.1" y="27.400000000000002" font-size="18" text-anchor="middle">Expression by Treatment</text><g clip-path="url(#kuva-clip-0)"><line x1="114.2" y1="224" x2="714.2" y2="224" stroke="#000000" stroke-width="0.5" /><path d="M 163.89000000000001 223.51 L 164.86 223.42000000000002 L 165.82 223.32 L 166.79 223.20000000000002 L 167.75 223.07 L 168.72 222.91 L 169.68 222.73000000000002 L 170.65 222.53 L 171.61 222.29 L 172.58 222.02 L 173.54 221.72 L 174.51 221.38 L 175.47 221.0 L 176.44 220.57 L 177.4 220.09 L 178.37 219.56 L 179.33 218.97 L 180.3 218.32 L 181.26 217.59 L 182.23 216.8 L 183.19 215.93 L 184.16 214.98000000000002 L 185.12 213.95000000000002 L 186.09 212.83 L 187.05 211.62 L 188.02 210.32 L 188.98 208.92000000000002 L 189.95000000000002 207.42000000000002 L 190.91 205.82 L 191.88 204.11 L 192.84 202.31 L 193.81 200.4 L 194.77 198.39000000000001 L 195.74 196.28 L 196.70000000000002 194.07 L 197.67000000000002 191.76 L 198.63 189.36 L 199.6 186.88 L 200.56 184.32 L 201.53 181.69 L 202.49 178.99 L 203.46 176.23 L 204.42000000000002 173.42000000000002 L 205.39000000000001 170.57 L 206.35 167.68 L 207.32 164.77 L 208.28 161.85 L 209.25 158.93 L 210.21 156.02 L 211.18 153.12 L 212.14000000000001 150.25 L 213.11 147.42000000000002 L 214.07 144.64000000000001 L 215.04 141.9 L 216.0 139.23 L 216.97 136.63 L 217.93 134.11 L 218.9 131.67000000000002 L 219.86 129.32 L 220.83 127.06 L 221.79 124.9 L 222.76 122.84 L 223.72 120.88 L 224.69 119.01 L 225.65 117.25 L 226.62 115.59 L 227.58 114.03 L 228.55 112.57000000000001 L 229.51 111.2 L 230.48000000000002 109.92 L 231.44 108.72 L 232.41 107.60000000000001 L 233.38 106.56 L 234.34 105.60000000000001 L 235.31 104.71000000000001 L 236.27 103.88 L 237.24 103.11 L 238.20000000000002 102.4 L 239.17000000000002 101.73 L 240.13 101.10000000000001 L 241.1 100.51 L 242.06 99.96000000000001 L 243.03 99.43 L 243.99 98.93 L 244.96 98.44 L 245.92000000000002 97.98 L 246.89000000000001 97.52 L 247.85 97.08 L 248.82 96.64 L 249.78 96.21000000000001 L 250.75 95.77 L 251.71 95.34 L 252.68 94.91 L 253.64000000000001 94.47 L 254.61 94.04 L 255.57 93.60000000000001 L 256.54 93.16 L 257.5 92.73 L 258.47 92.3 L 259.43 91.87 L 260.4 91.46000000000001 L 261.36 91.06 L 262.33 90.68 L 263.29 90.33 L 264.26 90.0 L 265.22 89.71000000000001 L 266.19 89.46000000000001 L 267.15 89.26 L 268.12 89.11 L 269.08 89.02 L 270.05 89.0 L 271.01 89.05 L 271.98 89.18 L 272.94 89.4 L 273.91 89.71000000000001 L 274.87 90.11 L 275.84000000000003 90.62 L 276.8 91.23 L 277.77 91.96000000000001 L 278.73 92.79 L 279.7 93.74 L 280.66 94.81 L 281.63 95.99000000000001 L 282.59000000000003 97.29 L 283.56 98.71000000000001 L 284.52 100.25 L 285.49 101.9 L 286.45 103.66 L 287.42 105.54 L 288.38 107.52 L 289.35 109.60000000000001 L 290.31 111.78 L 291.28000000000003 114.04 L 292.24 116.39 L 293.21 118.83 L 294.17 121.34 L 295.14 123.92 L 296.1 126.56 L 297.07 129.27 L 298.03000000000003 132.01 L 299.0 134.8 L 299.96 137.62 L 300.93 140.48 L 301.89 143.35 L 302.86 146.25 L 303.82 149.15 L 304.79 152.05 L 305.75 154.95000000000002 L 306.72 157.84 L 307.68 160.71 L 308.65000000000003 163.55 L 309.62 166.37 L 310.58 169.15 L 311.55 171.89000000000001 L 312.51 174.58 L 313.48 177.22 L 314.44 179.81 L 315.41 182.32 L 316.37 184.77 L 317.34000000000003 187.15 L 318.3 189.46 L 319.27 191.69 L 320.23 193.84 L 321.2 195.9 L 322.16 197.88 L 323.13 199.79 L 324.09000000000003 201.59 L 325.06 203.31 L 326.02 204.94 L 326.99 206.49 L 327.95 207.94 L 328.92 209.31 L 329.88 210.6 L 330.85 211.8 L 331.81 212.92000000000002 L 332.78000000000003 213.97 L 333.74 214.94 L 334.71 215.83 L 335.67 216.66 L 336.64 217.42000000000002 L 337.6 218.12 L 338.57 218.75 L 339.53000000000003 219.34 L 340.5 219.87 L 341.46 220.34 L 342.43 220.77 L 343.39 221.16 L 344.36 221.51 L 345.32 221.82 L 346.29 222.1 L 347.25 222.34 L 348.22 222.57 L 349.18 222.76 L 350.15000000000003 222.93 L 351.11 223.08 L 352.08 223.21 L 353.04 223.32 L 354.01 223.42000000000002 L 354.97 223.51 L 355.94 223.58 L 355.94 224.0 L 163.89000000000001 224.0 Z" stroke="none" stroke-width="0" fill="#1f77b4" fill-opacity="0.7000000000000001" /><path d="M 163.89000000000001 223.51 L 164.86 223.42000000000002 L 165.82 223.32 L 166.79 223.20000000000002 L 167.75 223.07 L 168.72 222.91 L 169.68 222.73000000000002 L 170.65 222.53 L 171.61 222.29 L 172.58 222.02 L 173.54 221.72 L 174.51 221.38 L 175.47 221.0 L 176.44 220.57 L 177.4 220.09 L 178.37 219.56 L 179.33 218.97 L 180.3 218.32 L 181.26 217.59 L 182.23 216.8 L 183.19 215.93 L 184.16 214.98000000000002 L 185.12 213.95000000000002 L 186.09 212.83 L 187.05 211.62 L 188.02 210.32 L 188.98 208.92000000000002 L 189.95000000000002 207.42000000000002 L 190.91 205.82 L 191.88 204.11 L 192.84 202.31 L 193.81 200.4 L 194.77 198.39000000000001 L 195.74 196.28 L 196.70000000000002 194.07 L 197.67000000000002 191.76 L 198.63 189.36 L 199.6 186.88 L 200.56 184.32 L 201.53 181.69 L 202.49 178.99 L 203.46 176.23 L 204.42000000000002 173.42000000000002 L 205.39000000000001 170.57 L 206.35 167.68 L 207.32 164.77 L 208.28 161.85 L 209.25 158.93 L 210.21 156.02 L 211.18 153.12 L 212.14000000000001 150.25 L 213.11 147.42000000000002 L 214.07 144.64000000000001 L 215.04 141.9 L 216.0 139.23 L 216.97 136.63 L 217.93 134.11 L 218.9 131.67000000000002 L 219.86 129.32 L 220.83 127.06 L 221.79 124.9 L 222.76 122.84 L 223.72 120.88 L 224.69 119.01 L 225.65 117.25 L 226.62 115.59 L 227.58 114.03 L 228.55 112.57000000000001 L 229.51 111.2 L 230.48000000000002 109.92 L 231.44 108.72 L 232.41 107.60000000000001 L 233.38 106.56 L 234.34 105.60000000000001 L 235.31 104.71000000000001 L 236.27 103.88 L 237.24 103.11 L 238.20000000000002 102.4 L 239.17000000000002 101.73 L 240.13 101.10000000000001 L 241.1 100.51 L 242.06 99.96000000000001 L 243.03 99.43 L 243.99 98.93 L 244.96 98.44 L 245.92000000000002 97.98 L 246.89000000000001 97.52 L 247.85 97.08 L 248.82 96.64 L 249.78 96.21000000000001 L 250.75 95.77 L 251.71 95.34 L 252.68 94.91 L 253.64000000000001 94.47 L 254.61 94.04 L 255.57 93.60000000000001 L 256.54 93.16 L 257.5 92.73 L 258.47 92.3 L 259.43 91.87 L 260.4 91.46000000000001 L 261.36 91.06 L 262.33 90.68 L 263.29 90.33 L 264.26 90.0 L 265.22 89.71000000000001 L 266.19 89.46000000000001 L 267.15 89.26 L 268.12 89.11 L 269.08 89.02 L 270.05 89.0 L 271.01 89.05 L 271.98 89.18 L 272.94 89.4 L 273.91 89.71000000000001 L 274.87 90.11 L 275.84000000000003 90.62 L 276.8 91.23 L 277.77 91.96000000000001 L 278.73 92.79 L 279.7 93.74 L 280.66 94.81 L 281.63 95.99000000000001 L 282.59000000000003 97.29 L 283.56 98.71000000000001 L 284.52 100.25 L 285.49 101.9 L 286.45 103.66 L 287.42 105.54 L 288.38 107.52 L 289.35 109.60000000000001 L 290.31 111.78 L 291.28000000000003 114.04 L 292.24 116.39 L 293.21 118.83 L 294.17 121.34 L 295.14 123.92 L 296.1 126.56 L 297.07 129.27 L 298.03000000000003 132.01 L 299.0 134.8 L 299.96 137.62 L 300.93 140.48 L 301.89 143.35 L 302.86 146.25 L 303.82 149.15 L 304.79 152.05 L 305.75 154.95000000000002 L 306.72 157.84 L 307.68 160.71 L 308.65000000000003 163.55 L 309.62 166.37 L 310.58 169.15 L 311.55 171.89000000000001 L 312.51 174.58 L 313.48 177.22 L 314.44 179.81 L 315.41 182.32 L 316.37 184.77 L 317.34000000000003 187.15 L 318.3 189.46 L 319.27 191.69 L 320.23 193.84 L 321.2 195.9 L 322.16 197.88 L 323.13 199.79 L 324.09000000000003 201.59 L 325.06 203.31 L 326.02 204.94 L 326.99 206.49 L 327.95 207.94 L 328.92 209.31 L 329.88 210.6 L 330.85 211.8 L 331.81 212.92000000000002 L 332.78000000000003 213.97 L 333.74 214.94 L 334.71 215.83 L 335.67 216.66 L 336.64 217.42000000000002 L 337.6 218.12 L 338.57 218.75 L 339.53000000000003 219.34 L 340.5 219.87 L 341.46 220.34 L 342.43 220.77 L 343.39 221.16 L 344.36 221.51 L 345.32 221.82 L 346.29 222.1 L 347.25 222.34 L 348.22 222.57 L 349.18 222.76 L 350.15000000000003 222.93 L 351.11 223.08 L 352.08 223.21 L 353.04 223.32 L 354.01 223.42000000000002 L 354.97 223.51 L 355.94 223.58" stroke="#1f77b4" stroke-width="1.5" fill="none" /><line x1="114.2" y1="314" x2="714.2" y2="314" stroke="#000000" stroke-width="0.5" /><path d="M 249.78 313.59000000000003 L 251.22 313.52 L 252.65 313.44 L 254.09 313.34000000000003 L 255.53 313.23 L 256.97 313.1 L 258.4 312.95 L 259.84000000000003 312.79 L 261.28000000000003 312.6 L 262.71 312.39 L 264.15 312.15000000000003 L 265.59000000000003 311.88 L 267.03000000000003 311.56 L 268.46 311.22 L 269.9 310.84000000000003 L 271.34000000000003 310.42 L 272.77 309.96 L 274.21 309.44 L 275.65000000000003 308.88 L 277.08 308.26 L 278.52 307.58 L 279.96 306.85 L 281.40000000000003 306.05 L 282.83 305.19 L 284.27 304.24 L 285.71 303.23 L 287.14 302.16 L 288.58 301.0 L 290.02 299.77 L 291.46 298.46 L 292.89 297.08 L 294.33 295.62 L 295.77 294.08 L 297.2 292.46 L 298.64 290.76 L 300.08 289.0 L 301.52 287.15000000000003 L 302.95 285.24 L 304.39 283.27 L 305.83 281.23 L 307.26 279.13 L 308.7 276.97 L 310.14 274.75 L 311.58 272.5 L 313.01 270.2 L 314.45 267.87 L 315.89 265.51 L 317.32 263.12 L 318.76 260.71 L 320.2 258.28000000000003 L 321.63 255.85 L 323.07 253.42000000000002 L 324.51 250.99 L 325.95 248.57 L 327.38 246.16 L 328.82 243.77 L 330.26 241.41 L 331.69 239.07 L 333.13 236.76 L 334.57 234.49 L 336.01 232.25 L 337.44 230.07 L 338.88 227.93 L 340.32 225.84 L 341.75 223.81 L 343.19 221.83 L 344.63 219.91 L 346.07 218.05 L 347.5 216.26 L 348.94 214.52 L 350.38 212.86 L 351.81 211.26 L 353.25 209.71 L 354.69 208.25 L 356.13 206.85 L 357.56 205.51 L 359.0 204.25 L 360.44 203.04 L 361.87 201.91 L 363.31 200.83 L 364.75 199.82 L 366.19 198.86 L 367.62 197.95000000000002 L 369.06 197.1 L 370.5 196.3 L 371.93 195.54 L 373.37 194.82 L 374.81 194.13 L 376.24 193.48000000000002 L 377.68 192.86 L 379.12 192.25 L 380.56 191.67000000000002 L 381.99 191.1 L 383.43 190.54 L 384.87 189.99 L 386.3 189.44 L 387.74 188.89000000000001 L 389.18 188.33 L 390.62 187.78 L 392.05 187.21 L 393.49 186.65 L 394.93 186.07 L 396.36 185.49 L 397.8 184.91 L 399.24 184.33 L 400.68 183.74 L 402.11 183.17000000000002 L 403.55 182.61 L 404.99 182.06 L 406.42 181.53 L 407.86 181.04 L 409.3 180.58 L 410.74 180.16 L 412.17 179.79 L 413.61 179.49 L 415.05 179.25 L 416.48 179.08 L 417.92 179.0 L 419.36 179.01 L 420.79 179.12 L 422.23 179.33 L 423.67 179.66 L 425.11 180.1 L 426.54 180.67000000000002 L 427.98 181.38 L 429.42 182.21 L 430.85 183.18 L 432.29 184.29 L 433.73 185.56 L 435.17 186.95000000000002 L 436.6 188.49 L 438.04 190.18 L 439.48 192.0 L 440.91 193.96 L 442.35 196.06 L 443.79 198.29 L 445.23 200.65 L 446.66 203.12 L 448.1 205.71 L 449.54 208.41 L 450.97 211.21 L 452.41 214.1 L 453.85 217.07 L 455.29 220.11 L 456.72 223.22 L 458.16 226.38 L 459.6 229.6 L 461.03000000000003 232.83 L 462.47 236.09 L 463.91 239.36 L 465.34000000000003 242.63 L 466.78000000000003 245.89000000000001 L 468.22 249.13 L 469.66 252.34 L 471.09000000000003 255.51000000000002 L 472.53000000000003 258.64 L 473.97 261.71 L 475.40000000000003 264.71 L 476.84000000000003 267.66 L 478.28000000000003 270.51 L 479.72 273.27 L 481.15000000000003 275.95 L 482.59000000000003 278.53000000000003 L 484.03000000000003 281.02 L 485.46000000000004 283.40000000000003 L 486.90000000000003 285.67 L 488.34000000000003 287.84000000000003 L 489.78000000000003 289.90000000000003 L 491.21000000000004 291.85 L 492.65000000000003 293.69 L 494.09000000000003 295.44 L 495.52000000000004 297.07 L 496.96000000000004 298.59000000000003 L 498.40000000000003 300.01 L 499.84000000000003 301.34000000000003 L 501.27000000000004 302.56 L 502.71000000000004 303.7 L 504.15000000000003 304.74 L 505.58 305.7 L 507.02000000000004 306.59000000000003 L 508.46000000000004 307.39 L 509.90000000000003 308.12 L 511.33 308.79 L 512.77 309.39 L 514.21 309.94 L 515.64 310.43 L 517.08 310.87 L 518.52 311.26 L 519.95 311.62 L 521.39 311.93 L 522.83 312.2 L 524.27 312.44 L 525.7 312.66 L 527.14 312.84000000000003 L 528.58 313.02 L 530.01 313.16 L 531.45 313.28000000000003 L 532.89 313.39 L 534.33 313.48 L 535.76 313.56 L 535.76 314.0 L 249.78 314.0 Z" stroke="none" stroke-width="0" fill="#ff7f0e" fill-opacity="0.7000000000000001" /><path d="M 249.78 313.59000000000003 L 251.22 313.52 L 252.65 313.44 L 254.09 313.34000000000003 L 255.53 313.23 L 256.97 313.1 L 258.4 312.95 L 259.84000000000003 312.79 L 261.28000000000003 312.6 L 262.71 312.39 L 264.15 312.15000000000003 L 265.59000000000003 311.88 L 267.03000000000003 311.56 L 268.46 311.22 L 269.9 310.84000000000003 L 271.34000000000003 310.42 L 272.77 309.96 L 274.21 309.44 L 275.65000000000003 308.88 L 277.08 308.26 L 278.52 307.58 L 279.96 306.85 L 281.40000000000003 306.05 L 282.83 305.19 L 284.27 304.24 L 285.71 303.23 L 287.14 302.16 L 288.58 301.0 L 290.02 299.77 L 291.46 298.46 L 292.89 297.08 L 294.33 295.62 L 295.77 294.08 L 297.2 292.46 L 298.64 290.76 L 300.08 289.0 L 301.52 287.15000000000003 L 302.95 285.24 L 304.39 283.27 L 305.83 281.23 L 307.26 279.13 L 308.7 276.97 L 310.14 274.75 L 311.58 272.5 L 313.01 270.2 L 314.45 267.87 L 315.89 265.51 L 317.32 263.12 L 318.76 260.71 L 320.2 258.28000000000003 L 321.63 255.85 L 323.07 253.42000000000002 L 324.51 250.99 L 325.95 248.57 L 327.38 246.16 L 328.82 243.77 L 330.26 241.41 L 331.69 239.07 L 333.13 236.76 L 334.57 234.49 L 336.01 232.25 L 337.44 230.07 L 338.88 227.93 L 340.32 225.84 L 341.75 223.81 L 343.19 221.83 L 344.63 219.91 L 346.07 218.05 L 347.5 216.26 L 348.94 214.52 L 350.38 212.86 L 351.81 211.26 L 353.25 209.71 L 354.69 208.25 L 356.13 206.85 L 357.56 205.51 L 359.0 204.25 L 360.44 203.04 L 361.87 201.91 L 363.31 200.83 L 364.75 199.82 L 366.19 198.86 L 367.62 197.95000000000002 L 369.06 197.1 L 370.5 196.3 L 371.93 195.54 L 373.37 194.82 L 374.81 194.13 L 376.24 193.48000000000002 L 377.68 192.86 L 379.12 192.25 L 380.56 191.67000000000002 L 381.99 191.1 L 383.43 190.54 L 384.87 189.99 L 386.3 189.44 L 387.74 188.89000000000001 L 389.18 188.33 L 390.62 187.78 L 392.05 187.21 L 393.49 186.65 L 394.93 186.07 L 396.36 185.49 L 397.8 184.91 L 399.24 184.33 L 400.68 183.74 L 402.11 183.17000000000002 L 403.55 182.61 L 404.99 182.06 L 406.42 181.53 L 407.86 181.04 L 409.3 180.58 L 410.74 180.16 L 412.17 179.79 L 413.61 179.49 L 415.05 179.25 L 416.48 179.08 L 417.92 179.0 L 419.36 179.01 L 420.79 179.12 L 422.23 179.33 L 423.67 179.66 L 425.11 180.1 L 426.54 180.67000000000002 L 427.98 181.38 L 429.42 182.21 L 430.85 183.18 L 432.29 184.29 L 433.73 185.56 L 435.17 186.95000000000002 L 436.6 188.49 L 438.04 190.18 L 439.48 192.0 L 440.91 193.96 L 442.35 196.06 L 443.79 198.29 L 445.23 200.65 L 446.66 203.12 L 448.1 205.71 L 449.54 208.41 L 450.97 211.21 L 452.41 214.1 L 453.85 217.07 L 455.29 220.11 L 456.72 223.22 L 458.16 226.38 L 459.6 229.6 L 461.03000000000003 232.83 L 462.47 236.09 L 463.91 239.36 L 465.34000000000003 242.63 L 466.78000000000003 245.89000000000001 L 468.22 249.13 L 469.66 252.34 L 471.09000000000003 255.51000000000002 L 472.53000000000003 258.64 L 473.97 261.71 L 475.40000000000003 264.71 L 476.84000000000003 267.66 L 478.28000000000003 270.51 L 479.72 273.27 L 481.15000000000003 275.95 L 482.59000000000003 278.53000000000003 L 484.03000000000003 281.02 L 485.46000000000004 283.40000000000003 L 486.90000000000003 285.67 L 488.34000000000003 287.84000000000003 L 489.78000000000003 289.90000000000003 L 491.21000000000004 291.85 L 492.65000000000003 293.69 L 494.09000000000003 295.44 L 495.52000000000004 297.07 L 496.96000000000004 298.59000000000003 L 498.40000000000003 300.01 L 499.84000000000003 301.34000000000003 L 501.27000000000004 302.56 L 502.71000000000004 303.7 L 504.15000000000003 304.74 L 505.58 305.7 L 507.02000000000004 306.59000000000003 L 508.46000000000004 307.39 L 509.90000000000003 308.12 L 511.33 308.79 L 512.77 309.39 L 514.21 309.94 L 515.64 310.43 L 517.08 310.87 L 518.52 311.26 L 519.95 311.62 L 521.39 311.93 L 522.83 312.2 L 524.27 312.44 L 525.7 312.66 L 527.14 312.84000000000003 L 528.58 313.02 L 530.01 313.16 L 531.45 313.28000000000003 L 532.89 313.39 L 534.33 313.48 L 535.76 313.56" stroke="#ff7f0e" stroke-width="1.5" fill="none" /><line x1="114.2" y1="404" x2="714.2" y2="404" stroke="#000000" stroke-width="0.5" /><path d="M 428.7 403.6 L 430.06 403.53000000000003 L 431.42 403.43 L 432.78000000000003 403.33 L 434.15000000000003 403.21000000000004 L 435.51 403.07 L 436.87 402.91 L 438.23 402.73 L 439.59000000000003 402.53000000000003 L 440.96000000000004 402.3 L 442.32 402.04 L 443.68 401.74 L 445.04 401.41 L 446.40000000000003 401.04 L 447.76 400.63 L 449.13 400.15000000000003 L 450.49 399.64 L 451.85 399.08 L 453.21000000000004 398.46000000000004 L 454.57 397.78000000000003 L 455.94 397.03000000000003 L 457.3 396.23 L 458.66 395.35 L 460.02 394.40000000000003 L 461.38 393.38 L 462.74 392.29 L 464.11 391.12 L 465.47 389.86 L 466.83 388.54 L 468.19 387.13 L 469.55 385.65000000000003 L 470.92 384.1 L 472.28000000000003 382.47 L 473.64 380.75 L 475.0 378.98 L 476.36 377.13 L 477.72 375.23 L 479.09000000000003 373.26 L 480.45 371.24 L 481.81 369.16 L 483.17 367.04 L 484.53000000000003 364.88 L 485.90000000000003 362.69 L 487.26 360.46 L 488.62 358.21 L 489.98 355.93 L 491.34000000000003 353.63 L 492.7 351.33 L 494.07 349.03000000000003 L 495.43 346.72 L 496.79 344.41 L 498.15000000000003 342.11 L 499.51 339.82 L 500.88 337.55 L 502.24 335.28000000000003 L 503.6 333.04 L 504.96000000000004 330.81 L 506.32 328.6 L 507.68 326.41 L 509.05 324.24 L 510.41 322.09000000000003 L 511.77000000000004 319.96 L 513.13 317.86 L 514.49 315.77 L 515.86 313.71 L 517.22 311.65000000000003 L 518.58 309.63 L 519.94 307.62 L 521.3 305.64 L 522.66 303.67 L 524.03 301.73 L 525.39 299.81 L 526.75 297.92 L 528.11 296.05 L 529.47 294.21 L 530.84 292.40000000000003 L 532.2 290.63 L 533.5600000000001 288.88 L 534.92 287.18 L 536.28 285.52 L 537.64 283.92 L 539.01 282.36 L 540.37 280.87 L 541.73 279.44 L 543.09 278.08 L 544.45 276.8 L 545.82 275.59000000000003 L 547.1800000000001 274.47 L 548.54 273.44 L 549.9 272.51 L 551.26 271.68 L 552.62 270.96 L 553.99 270.34000000000003 L 555.35 269.84000000000003 L 556.71 269.45 L 558.07 269.18 L 559.4300000000001 269.03000000000003 L 560.8000000000001 269.0 L 562.16 269.09000000000003 L 563.52 269.3 L 564.88 269.62 L 566.24 270.06 L 567.6 270.61 L 568.97 271.26 L 570.33 272.01 L 571.69 272.86 L 573.0500000000001 273.79 L 574.41 274.81 L 575.78 275.90000000000003 L 577.14 277.05 L 578.5 278.26 L 579.86 279.51 L 581.22 280.8 L 582.58 282.13 L 583.95 283.47 L 585.3100000000001 284.83 L 586.67 286.2 L 588.03 287.57 L 589.39 288.94 L 590.76 290.29 L 592.12 291.64 L 593.48 292.97 L 594.84 294.28000000000003 L 596.2 295.58 L 597.5600000000001 296.85 L 598.9300000000001 298.11 L 600.29 299.36 L 601.65 300.59000000000003 L 603.01 301.83 L 604.37 303.06 L 605.74 304.29 L 607.1 305.54 L 608.46 306.81 L 609.82 308.11 L 611.1800000000001 309.43 L 612.54 310.8 L 613.91 312.21 L 615.27 313.68 L 616.63 315.2 L 617.99 316.79 L 619.35 318.45 L 620.72 320.19 L 622.08 321.99 L 623.44 323.87 L 624.8000000000001 325.82 L 626.16 327.85 L 627.52 329.95 L 628.89 332.12 L 630.25 334.36 L 631.61 336.66 L 632.97 339.01 L 634.33 341.42 L 635.7 343.86 L 637.0600000000001 346.33 L 638.42 348.84000000000003 L 639.78 351.35 L 641.14 353.87 L 642.5 356.38 L 643.87 358.87 L 645.23 361.35 L 646.59 363.79 L 647.95 366.18 L 649.3100000000001 368.53000000000003 L 650.6800000000001 370.82 L 652.04 373.05 L 653.4 375.2 L 654.76 377.28000000000003 L 656.12 379.29 L 657.48 381.2 L 658.85 383.02 L 660.21 384.75 L 661.57 386.38 L 662.9300000000001 387.93 L 664.29 389.39 L 665.66 390.75 L 667.02 392.01 L 668.38 393.19 L 669.74 394.28000000000003 L 671.1 395.29 L 672.46 396.21000000000004 L 673.83 397.06 L 675.19 397.84000000000003 L 676.5500000000001 398.54 L 677.91 399.18 L 679.27 399.76 L 680.64 400.29 L 682.0 400.75 L 683.36 401.16 L 684.72 401.53000000000003 L 686.08 401.86 L 687.44 402.15000000000003 L 688.8100000000001 402.41 L 690.17 402.63 L 691.53 402.83 L 692.89 403.0 L 694.25 403.15000000000003 L 695.62 403.28000000000003 L 696.98 403.39 L 698.34 403.48 L 699.7 403.57 L 699.7 404.0 L 428.7 404.0 Z" stroke="none" stroke-width="0" fill="#2ca02c" fill-opacity="0.7000000000000001" /><path d="M 428.7 403.6 L 430.06 403.53000000000003 L 431.42 403.43 L 432.78000000000003 403.33 L 434.15000000000003 403.21000000000004 L 435.51 403.07 L 436.87 402.91 L 438.23 402.73 L 439.59000000000003 402.53000000000003 L 440.96000000000004 402.3 L 442.32 402.04 L 443.68 401.74 L 445.04 401.41 L 446.40000000000003 401.04 L 447.76 400.63 L 449.13 400.15000000000003 L 450.49 399.64 L 451.85 399.08 L 453.21000000000004 398.46000000000004 L 454.57 397.78000000000003 L 455.94 397.03000000000003 L 457.3 396.23 L 458.66 395.35 L 460.02 394.40000000000003 L 461.38 393.38 L 462.74 392.29 L 464.11 391.12 L 465.47 389.86 L 466.83 388.54 L 468.19 387.13 L 469.55 385.65000000000003 L 470.92 384.1 L 472.28000000000003 382.47 L 473.64 380.75 L 475.0 378.98 L 476.36 377.13 L 477.72 375.23 L 479.09000000000003 373.26 L 480.45 371.24 L 481.81 369.16 L 483.17 367.04 L 484.53000000000003 364.88 L 485.90000000000003 362.69 L 487.26 360.46 L 488.62 358.21 L 489.98 355.93 L 491.34000000000003 353.63 L 492.7 351.33 L 494.07 349.03000000000003 L 495.43 346.72 L 496.79 344.41 L 498.15000000000003 342.11 L 499.51 339.82 L 500.88 337.55 L 502.24 335.28000000000003 L 503.6 333.04 L 504.96000000000004 330.81 L 506.32 328.6 L 507.68 326.41 L 509.05 324.24 L 510.41 322.09000000000003 L 511.77000000000004 319.96 L 513.13 317.86 L 514.49 315.77 L 515.86 313.71 L 517.22 311.65000000000003 L 518.58 309.63 L 519.94 307.62 L 521.3 305.64 L 522.66 303.67 L 524.03 301.73 L 525.39 299.81 L 526.75 297.92 L 528.11 296.05 L 529.47 294.21 L 530.84 292.40000000000003 L 532.2 290.63 L 533.5600000000001 288.88 L 534.92 287.18 L 536.28 285.52 L 537.64 283.92 L 539.01 282.36 L 540.37 280.87 L 541.73 279.44 L 543.09 278.08 L 544.45 276.8 L 545.82 275.59000000000003 L 547.1800000000001 274.47 L 548.54 273.44 L 549.9 272.51 L 551.26 271.68 L 552.62 270.96 L 553.99 270.34000000000003 L 555.35 269.84000000000003 L 556.71 269.45 L 558.07 269.18 L 559.4300000000001 269.03000000000003 L 560.8000000000001 269.0 L 562.16 269.09000000000003 L 563.52 269.3 L 564.88 269.62 L 566.24 270.06 L 567.6 270.61 L 568.97 271.26 L 570.33 272.01 L 571.69 272.86 L 573.0500000000001 273.79 L 574.41 274.81 L 575.78 275.90000000000003 L 577.14 277.05 L 578.5 278.26 L 579.86 279.51 L 581.22 280.8 L 582.58 282.13 L 583.95 283.47 L 585.3100000000001 284.83 L 586.67 286.2 L 588.03 287.57 L 589.39 288.94 L 590.76 290.29 L 592.12 291.64 L 593.48 292.97 L 594.84 294.28000000000003 L 596.2 295.58 L 597.5600000000001 296.85 L 598.9300000000001 298.11 L 600.29 299.36 L 601.65 300.59000000000003 L 603.01 301.83 L 604.37 303.06 L 605.74 304.29 L 607.1 305.54 L 608.46 306.81 L 609.82 308.11 L 611.1800000000001 309.43 L 612.54 310.8 L 613.91 312.21 L 615.27 313.68 L 616.63 315.2 L 617.99 316.79 L 619.35 318.45 L 620.72 320.19 L 622.08 321.99 L 623.44 323.87 L 624.8000000000001 325.82 L 626.16 327.85 L 627.52 329.95 L 628.89 332.12 L 630.25 334.36 L 631.61 336.66 L 632.97 339.01 L 634.33 341.42 L 635.7 343.86 L 637.0600000000001 346.33 L 638.42 348.84000000000003 L 639.78 351.35 L 641.14 353.87 L 642.5 356.38 L 643.87 358.87 L 645.23 361.35 L 646.59 363.79 L 647.95 366.18 L 649.3100000000001 368.53000000000003 L 650.6800000000001 370.82 L 652.04 373.05 L 653.4 375.2 L 654.76 377.28000000000003 L 656.12 379.29 L 657.48 381.2 L 658.85 383.02 L 660.21 384.75 L 661.57 386.38 L 662.9300000000001 387.93 L 664.29 389.39 L 665.66 390.75 L 667.02 392.01 L 668.38 393.19 L 669.74 394.28000000000003 L 671.1 395.29 L 672.46 396.21000000000004 L 673.83 397.06 L 675.19 397.84000000000003 L 676.5500000000001 398.54 L 677.91 399.18 L 679.27 399.76 L 680.64 400.29 L 682.0 400.75 L 683.36 401.16 L 684.72 401.53000000000003 L 686.08 401.86 L 687.44 402.15000000000003 L 688.8100000000001 402.41 L 690.17 402.63 L 691.53 402.83 L 692.89 403.0 L 694.25 403.15000000000003 L 695.62 403.28000000000003 L 696.98 403.39 L 698.34 403.48 L 699.7 403.57" stroke="#2ca02c" stroke-width="1.5" fill="none" /></g></svg>