<svg xmlns="http://www.w3.org/2000/svg" width="721.4" height="545" font-family="DejaVu Sans, Liberation Sans, Arial, sans-serif" fill="black"><rect width="100%" height="100%" fill="white" /><defs><clipPath id="kuva-clip-1"><rect x="99.8" y="44" width="600" height="450"/></clipPath></defs><line x1="99.8" y1="494" x2="699.8000000000001" y2="494" stroke="#000000" stroke-width="1" /><line x1="99.8" y1="44" x2="99.8" y2="494" stroke="#000000" stroke-width="1" /><text x="91.8" y="468.2" font-size="12" text-anchor="end">December</text><line x1="94.8" y1="464" x2="99.8" y2="464" stroke="#000000" stroke-width="1" /><text x="91.8" y="438.2" font-size="12" text-anchor="end">November</text><line x1="94.8" y1="434" x2="99.8" y2="434" stroke="#000000" stroke-width="1" /><text x="91.8" y="408.2" font-size="12" text-anchor="end">October</text><line x1="94.8" y1="404" x2="99.8" y2="404" stroke="#000000" stroke-width="1" /><text x="91.8" y="378.2" font-size="12" text-anchor="end">September</text><line x1="94.8" y1="374" x2="99.8" y2="374" stroke="#000000" stroke-width="1" /><text x="91.8" y="348.2" font-size="12" text-anchor="end">August</text><line x1="94.8" y1="344" x2="99.8" y2="344" stroke="#000000" stroke-width="1" /><text x="91.8" y="318.2" font-size="12" text-anchor="end">July</text><line x1="94.8" y1="314" x2="99.8" y2="314" stroke="#000000" stroke-width="1" /><text x="91.8" y="288.2" font-size="12" text-anchor="end">June</text><line x1="94.8" y1="284" x2="99.8" y2="284" stroke="#000000" stroke-width="1" /><text x="91.8" y="258.2" font-size="12" text-anchor="end">May</text><line x1="94.8" y1="254" x2="99.8" y2="254" stroke="#000000" stroke-width="1" /><text x="91.8" y="228.20000000000002" font-size="12" text-anchor="end">April</text><line x1="94.8" y1="224" x2="99.8" y2="224" stroke="#000000" stroke-width="1" /><text x="91.8" y="198.20000000000002" font-size="12" text-anchor="end">March</text><line x1="94.8" y1="194" x2="99.8" y2="194" stroke="#000000" stroke-width="1" /><text x="91.8" y="168.20000000000002" font-size="12" text-anchor="end">February</text><line x1="94.8" y1="164" x2="99.8" y2="164" stroke="#000000" stroke-width="1" /><text x="91.8" y="138.20000000000002" font-size="12" text-anchor="end">January</text><line x1="94.8" y1="134" x2="99.8" y2="134" stroke="#000000" stroke-width="1" /><line x1="99.8" y1="494" x2="99.8" y2="499" stroke="#000000" stroke-width="1" /><text x="99.8" y="511" font-size="12" text-anchor="middle">-30</text><line x1="185.51" y1="494" x2="185.51" y2="499" stroke="#000000" stroke-width="1" /><text x="185.51" y="511" font-size="12" text-anchor="middle">-20</text><line x1="271.23" y1="494" x2="271.23" y2="499" stroke="#000000" stroke-width="1" /><text x="271.23" y="511" font-size="12" text-anchor="middle">-10</text><line x1="356.94" y1="494" x2="356.94" y2="499" stroke="#000000" stroke-width="1" /><text x="356.94" y="511" font-size="12" text-anchor="middle">0</text><line x1="442.66" y1="494" x2="442.66" y2="499" stroke="#000000" stroke-width="1" /><text x="442.66" y="511" font-size="12" text-anchor="middle">10</text><line x1="528.37" y1="494" x2="528.37" y2="499" stroke="#000000" stroke-width="1" /><text x="528.37" y="511" font-size="12" text-anchor="middle">20</text><line x1="614.09" y1="494" x2="614.09" y2="499" stroke="#000000" stroke-width="1" /><text x="614.09" y="511" font-size="12" text-anchor="middle">30</text><line x1="699.8000000000001" y1="494" x2="699.8000000000001" y2="499" stroke="#000000" stroke-width="1" /><text x="699.8000000000001" y="511" font-size="12" text-anchor="middle">40</text><text x="399.8" y="538" font-size="14" text-anchor="middle">Temperature (°C)</text><text x="15" y="272.5" font-size="14" text-anchor="middle" transform="rotate(-90,15,272.5)">Month</text><text x="360.7" y="27.400000000000002" font-size="18" text-anchor="middle">Daily Temperature Distributions by Month</text><g clip-path="url(#kuva-clip-1)"><line x1="99.8" y1="134" x2="699.8000000000001" y2="134" stroke="#000000" stroke-width="0.5" /><path d="M 157.68 133.99 L 159.44 133.98 L 161.20000000000002 133.97 L 162.96 133.97 L 164.72 133.95 L 166.48 133.94 L 168.23 133.92000000000002 L 169.99 133.9 L 171.75 133.87 L 173.51 133.84 L 175.27 133.8 L 177.03 133.74 L 178.79 133.68 L 180.54 133.61 L 182.3 133.52 L 184.06 133.42000000000002 L 185.82 133.3 L 187.58 133.17000000000002 L 189.34 133.01 L 191.1 132.84 L 192.85 132.64000000000001 L 194.61 132.41 L 196.37 132.17000000000002 L 198.13 131.89000000000001 L 199.89000000000001 131.58 L 201.65 131.24 L 203.41 130.86 L 205.16 130.45 L 206.92000000000002 129.99 L 208.68 129.49 L 210.44 128.94 L 212.20000000000002 128.34 L 213.96 127.68 L 215.72 126.96000000000001 L 217.47 126.18 L 219.23000000000002 125.33 L 220.99 124.41 L 222.75 123.41 L 224.51 122.34 L 226.27 121.2 L 228.03 119.98 L 229.78 118.7 L 231.54 117.37 L 233.3 115.98 L 235.06 114.55 L 236.82 113.09 L 238.58 111.63 L 240.34 110.16 L 242.09 108.71000000000001 L 243.85 107.3 L 245.61 105.93 L 247.37 104.63 L 249.13 103.4 L 250.89000000000001 102.26 L 252.65 101.22 L 254.4 100.28 L 256.16 99.45 L 257.92 98.72 L 259.68 98.09 L 261.44 97.56 L 263.2 97.13 L 264.96 96.78 L 266.71 96.51 L 268.47 96.31 L 270.23 96.17 L 271.99 96.08 L 273.75 96.04 L 275.51 96.04 L 277.27 96.08 L 279.02 96.15 L 280.78000000000003 96.25 L 282.54 96.38 L 284.3 96.55 L 286.06 96.74000000000001 L 287.82 96.96000000000001 L 289.57 97.21000000000001 L 291.33 97.48 L 293.09000000000003 97.79 L 294.85 98.12 L 296.61 98.47 L 298.37 98.84 L 300.13 99.23 L 301.88 99.63 L 303.64 100.03 L 305.40000000000003 100.44 L 307.16 100.85000000000001 L 308.92 101.24000000000001 L 310.68 101.63 L 312.44 101.99000000000001 L 314.19 102.33 L 315.95 102.65 L 317.71 102.93 L 319.47 103.17 L 321.23 103.37 L 322.99 103.52 L 324.75 103.63 L 326.5 103.68 L 328.26 103.68 L 330.02 103.61 L 331.78000000000003 103.49000000000001 L 333.54 103.3 L 335.3 103.05 L 337.06 102.73 L 338.81 102.36 L 340.57 101.92 L 342.33 101.41 L 344.09000000000003 100.85000000000001 L 345.85 100.23 L 347.61 99.56 L 349.37 98.84 L 351.12 98.07000000000001 L 352.88 97.26 L 354.64 96.41 L 356.40000000000003 95.53 L 358.16 94.64 L 359.92 93.73 L 361.68 92.81 L 363.43 91.9 L 365.19 91.01 L 366.95 90.15 L 368.71 89.33 L 370.47 88.57000000000001 L 372.23 87.88 L 373.99 87.27 L 375.74 86.77 L 377.5 86.38 L 379.26 86.12 L 381.02 86.0 L 382.78000000000003 86.03 L 384.54 86.23 L 386.3 86.59 L 388.05 87.13 L 389.81 87.84 L 391.57 88.72 L 393.33 89.77 L 395.09000000000003 90.97 L 396.85 92.32000000000001 L 398.61 93.81 L 400.36 95.42 L 402.12 97.12 L 403.88 98.91 L 405.64 100.76 L 407.40000000000003 102.64 L 409.16 104.54 L 410.92 106.44 L 412.67 108.32000000000001 L 414.43 110.15 L 416.19 111.93 L 417.95 113.64 L 419.71000000000004 115.26 L 421.47 116.79 L 423.23 118.22 L 424.98 119.54 L 426.74 120.76 L 428.5 121.87 L 430.26 122.89 L 432.02 123.8 L 433.78000000000003 124.62 L 435.54 125.35000000000001 L 437.29 126.01 L 439.05 126.59 L 440.81 127.12 L 442.57 127.59 L 444.33 128.02 L 446.09000000000003 128.41 L 447.85 128.78 L 449.6 129.12 L 451.36 129.44 L 453.12 129.76 L 454.88 130.05 L 456.64 130.34 L 458.40000000000003 130.63 L 460.16 130.9 L 461.91 131.17000000000002 L 463.67 131.43 L 465.43 131.68 L 467.19 131.92000000000002 L 468.95 132.15 L 470.71000000000004 132.37 L 472.47 132.57 L 474.22 132.75 L 475.98 132.93 L 477.74 133.08 L 479.5 133.22 L 481.26 133.34 L 483.02 133.45 L 484.77 133.55 L 486.53000000000003 133.63 L 488.29 133.7 L 490.05 133.76 L 491.81 133.81 L 493.57 133.85 L 495.33 133.88 L 497.08 133.91 L 498.84000000000003 133.93 L 500.6 133.95 L 502.36 133.96 L 504.12 133.97 L 505.88 133.98 L 507.64 133.98 L 507.64 134.0 L 157.68 134.0 Z" stroke="none" stroke-width="0" fill="#3a7abf" fill-opacity="0.75" /><path d="M 157.68 133.99 L 159.44 133.98 L 161.20000000000002 133.97 L 162.96 133.97 L 164.72 133.95 L 166.48 133.94 L 168.23 133.92000000000002 L 169.99 133.9 L 171.75 133.87 L 173.51 133.84 L 175.27 133.8 L 177.03 133.74 L 178.79 133.68 L 180.54 133.61 L 182.3 133.52 L 184.06 133.42000000000002 L 185.82 133.3 L 187.58 133.17000000000002 L 189.34 133.01 L 191.1 132.84 L 192.85 132.64000000000001 L 194.61 132.41 L 196.37 132.17000000000002 L 198.13 131.89000000000001 L 199.89000000000001 131.58 L 201.65 131.24 L 203.41 130.86 L 205.16 130.45 L 206.92000000000002 129.99 L 208.68 129.49 L 210.44 128.94 L 212.20000000000002 128.34 L 213.96 127.68 L 215.72 126.96000000000001 L 217.47 126.18 L 219.23000000000002 125.33 L 220.99 124.41 L 222.75 123.41 L 224.51 122.34 L 226.27 121.2 L 228.03 119.98 L 229.78 118.7 L 231.54 117.37 L 233.3 115.98 L 235.06 114.55 L 236.82 113.09 L 238.58 111.63 L 240.34 110.16 L 242.09 108.71000000000001 L 243.85 107.3 L 245.61 105.93 L 247.37 104.63 L 249.13 103.4 L 250.89000000000001 102.26 L 252.65 101.22 L 254.4 100.28 L 256.16 99.45 L 257.92 98.72 L 259.68 98.09 L 261.44 97.56 L 263.2 97.13 L 264.96 96.78 L 266.71 96.51 L 268.47 96.31 L 270.23 96.17 L 271.99 96.08 L 273.75 96.04 L 275.51 96.04 L 277.27 96.08 L 279.02 96.15 L 280.78000000000003 96.25 L 282.54 96.38 L 284.3 96.55 L 286.06 96.74000000000001 L 287.82 96.96000000000001 L 289.57 97.21000000000001 L 291.33 97.48 L 293.09000000000003 97.79 L 294.85 98.12 L 296.61 98.47 L 298.37 98.84 L 300.13 99.23 L 301.88 99.63 L 303.64 100.03 L 305.40000000000003 100.44 L 307.16 100.85000000000001 L 308.92 101.24000000000001 L 310.68 101.63 L 312.44 101.99000000000001 L 314.19 102.33 L 315.95 102.65 L 317.71 102.93 L 319.47 103.17 L 321.23 103.37 L 322.99 103.52 L 324.75 103.63 L 326.5 103.68 L 328.26 103.68 L 330.02 103.61 L 331.78000000000003 103.49000000000001 L 333.54 103.3 L 335.3 103.05 L 337.06 102.73 L 338.81 102.36 L 340.57 101.92 L 342.33 101.41 L 344.09000000000003 100.85000000000001 L 345.85 100.23 L 347.61 99.56 L 349.37 98.84 L 351.12 98.07000000000001 L 352.88 97.26 L 354.64 96.41 L 356.40000000000003 95.53 L 358.16 94.64 L 359.92 93.73 L 361.68 92.81 L 363.43 91.9 L 365.19 91.01 L 366.95 90.15 L 368.71 89.33 L 370.47 88.57000000000001 L 372.23 87.88 L 373.99 87.27 L 375.74 86.77 L 377.5 86.38 L 379.26 86.12 L 381.02 86.0 L 382.78000000000003 86.03 L 384.54 86.23 L 386.3 86.59 L 388.05 87.13 L 389.81 87.84 L 391.57 88.72 L 393.33 89.77 L 395.09000000000003 90.97 L 396.85 92.32000000000001 L 398.61 93.81 L 400.36 95.42 L 402.12 97.12 L 403.88 98.91 L 405.64 100.76 L 407.40000000000003 102.64 L 409.16 104.54 L 410.92 106.44 L 412.67 108.32000000000001 L 414.43 110.15 L 416.19 111.93 L 417.95 113.64 L 419.71000000000004 115.26 L 421.47 116.79 L 423.23 118.22 L 424.98 119.54 L 426.74 120.76 L 428.5 121.87 L 430.26 122.89 L 432.02 123.8 L 433.78000000000003 124.62 L 435.54 125.35000000000001 L 437.29 126.01 L 439.05 126.59 L 440.81 127.12 L 442.57 127.59 L 444.33 128.02 L 446.09000000000003 128.41 L 447.85 128.78 L 449.6 129.12 L 451.36 129.44 L 453.12 129.76 L 454.88 130.05 L 456.64 130.34 L 458.40000000000003 130.63 L 460.16 130.9 L 461.91 131.17000000000002 L 463.67 131.43 L 465.43 131.68 L 467.19 131.92000000000002 L 468.95 132.15 L 470.71000000000004 132.37 L 472.47 132.57 L 474.22 132.75 L 475.98 132.93 L 477.74 133.08 L 479.5 133.22 L 481.26 133.34 L 483.02 133.45 L 484.77 133.55 L 486.53000000000003 133.63 L 488.29 133.7 L 490.05 133.76 L 491.81 133.81 L 493.57 133.85 L 495.33 133.88 L 497.08 133.91 L 498.84000000000003 133.93 L 500.6 133.95 L 502.36 133.96 L 504.12 133.97 L 505.88 133.98 L 507.64 133.98" stroke="#3a7abf" stroke-width="1.5" fill="none" /><line x1="99.8" y1="164" x2="699.8000000000001" y2="164" stroke="#000000" stroke-width="0.5" /><path d="M 152.3 163.99 L 154.3 163.98 L 156.31 163.98 L 158.31 163.97 L 160.32 163.96 L 162.32 163.94 L 164.33 163.92000000000002 L 166.33 163.9 L 168.34 163.87 L 170.35 163.83 L 172.35 163.78 L 174.36 163.73 L 176.36 163.66 L 178.37 163.57 L 180.37 163.47 L 182.38 163.35 L 184.38 163.21 L 186.39000000000001 163.05 L 188.4 162.87 L 190.4 162.65 L 192.41 162.41 L 194.41 162.14000000000001 L 196.42000000000002 161.84 L 198.42000000000002 161.5 L 200.43 161.13 L 202.43 160.72 L 204.44 160.27 L 206.45000000000002 159.78 L 208.45000000000002 159.25 L 210.46 158.68 L 212.46 158.07 L 214.47 157.41 L 216.47 156.71 L 218.48000000000002 155.97 L 220.48000000000002 155.18 L 222.49 154.36 L 224.5 153.49 L 226.5 152.59 L 228.51 151.64000000000001 L 230.51 150.66 L 232.52 149.65 L 234.52 148.6 L 236.53 147.53 L 238.53 146.42000000000002 L 240.54 145.28 L 242.55 144.11 L 244.55 142.9 L 246.56 141.67000000000002 L 248.56 140.39000000000001 L 250.57 139.08 L 252.57 137.73 L 254.58 136.33 L 256.58 134.9 L 258.59000000000003 133.42000000000002 L 260.6 131.92000000000002 L 262.6 130.39000000000001 L 264.61 128.85 L 266.61 127.31 L 268.62 125.78 L 270.62 124.3 L 272.63 122.88 L 274.63 121.54 L 276.64 120.3 L 278.65000000000003 119.2 L 280.65000000000003 118.24000000000001 L 282.66 117.44 L 284.66 116.81 L 286.67 116.37 L 288.67 116.10000000000001 L 290.68 116.0 L 292.68 116.06 L 294.69 116.26 L 296.7 116.59 L 298.7 117.0 L 300.71 117.49000000000001 L 302.71 118.01 L 304.72 118.56 L 306.72 119.09 L 308.73 119.59 L 310.73 120.05 L 312.74 120.45 L 314.75 120.79 L 316.75 121.06 L 318.76 121.26 L 320.76 121.4 L 322.77 121.49000000000001 L 324.77 121.53 L 326.78000000000003 121.54 L 328.78000000000003 121.53 L 330.79 121.5 L 332.8 121.47 L 334.8 121.43 L 336.81 121.41 L 338.81 121.39 L 340.82 121.38 L 342.82 121.38 L 344.83 121.4 L 346.83 121.42 L 348.84000000000003 121.45 L 350.85 121.49000000000001 L 352.85 121.53 L 354.86 121.57000000000001 L 356.86 121.61 L 358.87 121.64 L 360.87 121.67 L 362.88 121.7 L 364.88 121.73 L 366.89 121.75 L 368.90000000000003 121.78 L 370.90000000000003 121.81 L 372.91 121.84 L 374.91 121.88 L 376.92 121.95 L 378.92 122.03 L 380.93 122.15 L 382.93 122.3 L 384.94 122.5 L 386.95 122.75 L 388.95 123.06 L 390.96000000000004 123.43 L 392.96000000000004 123.88000000000001 L 394.97 124.39 L 396.97 124.96000000000001 L 398.98 125.61 L 400.98 126.32000000000001 L 402.99 127.09 L 405.0 127.92 L 407.0 128.78 L 409.01 129.69 L 411.01 130.62 L 413.02 131.57 L 415.02 132.54 L 417.03000000000003 133.52 L 419.03000000000003 134.51 L 421.04 135.49 L 423.04 136.48 L 425.05 137.46 L 427.06 138.45000000000002 L 429.06 139.44 L 431.07 140.42000000000002 L 433.07 141.42000000000002 L 435.08 142.41 L 437.08 143.42000000000002 L 439.09000000000003 144.42000000000002 L 441.09000000000003 145.43 L 443.1 146.45000000000002 L 445.11 147.46 L 447.11 148.47 L 449.12 149.47 L 451.12 150.46 L 453.13 151.43 L 455.13 152.38 L 457.14 153.29 L 459.14 154.17000000000002 L 461.15000000000003 155.02 L 463.16 155.81 L 465.16 156.57 L 467.17 157.27 L 469.17 157.92000000000002 L 471.18 158.52 L 473.18 159.07 L 475.19 159.56 L 477.19 160.01 L 479.2 160.41 L 481.21000000000004 160.77 L 483.21000000000004 161.09 L 485.22 161.37 L 487.22 161.62 L 489.23 161.84 L 491.23 162.03 L 493.24 162.21 L 495.24 162.37 L 497.25 162.51 L 499.26 162.64000000000001 L 501.26 162.77 L 503.27000000000004 162.88 L 505.27000000000004 162.99 L 507.28000000000003 163.09 L 509.28000000000003 163.18 L 511.29 163.27 L 513.29 163.36 L 515.3 163.44 L 517.3100000000001 163.51 L 519.3100000000001 163.58 L 521.32 163.64000000000001 L 523.32 163.69 L 525.33 163.74 L 527.33 163.79 L 529.34 163.82 L 531.34 163.86 L 533.35 163.88 L 535.36 163.91 L 537.36 163.93 L 539.37 163.94 L 541.37 163.96 L 543.38 163.97 L 545.38 163.98 L 547.39 163.98 L 549.39 163.99 L 551.4 163.99 L 551.4 164.0 L 152.3 164.0 Z" stroke="none" stroke-width="0" fill="#4589c4" fill-opacity="0.75" /><path d="M 152.3 163.99 L 154.3 163.98 L 156.31 163.98 L 158.31 163.97 L 160.32 163.96 L 162.32 163.94 L 164.33 163.92000000000002 L 166.33 163.9 L 168.34 163.87 L 170.35 163.83 L 172.35 163.78 L 174.36 163.73 L 176.36 163.66 L 178.37 163.57 L 180.37 163.47 L 182.38 163.35 L 184.38 163.21 L 186.39000000000001 163.05 L 188.4 162.87 L 190.4 162.65 L 192.41 162.41 L 194.41 162.14000000000001 L 196.42000000000002 161.84 L 198.42000000000002 161.5 L 200.43 161.13 L 202.43 160.72 L 204.44 160.27 L 206.45000000000002 159.78 L 208.45000000000002 159.25 L 210.46 158.68 L 212.46 158.07 L 214.47 157.41 L 216.47 156.71 L 218.48000000000002 155.97 L 220.48000000000002 155.18 L 222.49 154.36 L 224.5 153.49 L 226.5 152.59 L 228.51 151.64000000000001 L 230.51 150.66 L 232.52 149.65 L 234.52 148.6 L 236.53 147.53 L 238.53 146.42000000000002 L 240.54 145.28 L 242.55 144.11 L 244.55 142.9 L 246.56 141.67000000000002 L 248.56 140.39000000000001 L 250.57 139.08 L 252.57 137.73 L 254.58 136.33 L 256.58 134.9 L 258.59000000000003 133.42000000000002 L 260.6 131.92000000000002 L 262.6 130.39000000000001 L 264.61 128.85 L 266.61 127.31 L 268.62 125.78 L 270.62 124.3 L 272.63 122.88 L 274.63 121.54 L 276.64 120.3 L 278.65000000000003 119.2 L 280.65000000000003 118.24000000000001 L 282.66 117.44 L 284.66 116.81 L 286.67 116.37 L 288.67 116.10000000000001 L 290.68 116.0 L 292.68 116.06 L 294.69 116.26 L 296.7 116.59 L 298.7 117.0 L 300.71 117.49000000000001 L 302.71 118.01 L 304.72 118.56 L 306.72 119.09 L 308.73 119.59 L 310.73 120.05 L 312.74 120.45 L 314.75 120.79 L 316.75 121.06 L 318.76 121.26 L 320.76 121.4 L 322.77 121.49000000000001 L 324.77 121.53 L 326.78000000000003 121.54 L 328.78000000000003 121.53 L 330.79 121.5 L 332.8 121.47 L 334.8 121.43 L 336.81 121.41 L 338.81 121.39 L 340.82 121.38 L 342.82 121.38 L 344.83 121.4 L 346.83 121.42 L 348.84000000000003 121.45 L 350.85 121.49000000000001 L 352.85 121.53 L 354.86 121.57000000000001 L 356.86 121.61 L 358.87 121.64 L 360.87 121.67 L 362.88 121.7 L 364.88 121.73 L 366.89 121.75 L 368.90000000000003 121.78 L 370.90000000000003 121.81 L 372.91 121.84 L 374.91 121.88 L 376.92 121.95 L 378.92 122.03 L 380.93 122.15 L 382.93 122.3 L 384.94 122.5 L 386.95 122.75 L 388.95 123.06 L 390.96000000000004 123.43 L 392.96000000000004 123.88000000000001 L 394.97 124.39 L 396.97 124.96000000000001 L 398.98 125.61 L 400.98 126.32000000000001 L 402.99 127.09 L 405.0 127.92 L 407.0 128.78 L 409.01 129.69 L 411.01 130.62 L 413.02 131.57 L 415.02 132.54 L 417.03000000000003 133.52 L 419.03000000000003 134.51 L 421.04 135.49 L 423.04 136.48 L 425.05 137.46 L 427.06 138.45000000000002 L 429.06 139.44 L 431.07 140.42000000000002 L 433.07 141.42000000000002 L 435.08 142.41 L 437.08 143.42000000000002 L 439.09000000000003 144.42000000000002 L 441.09000000000003 145.43 L 443.1 146.45000000000002 L 445.11 147.46 L 447.11 148.47 L 449.12 149.47 L 451.12 150.46 L 453.13 151.43 L 455.13 152.38 L 457.14 153.29 L 459.14 154.17000000000002 L 461.15000000000003 155.02 L 463.16 155.81 L 465.16 156.57 L 467.17 157.27 L 469.17 157.92000000000002 L 471.18 158.52 L 473.18 159.07 L 475.19 159.56 L 477.19 160.01 L 479.2 160.41 L 481.21000000000004 160.77 L 483.21000000000004 161.09 L 485.22 161.37 L 487.22 161.62 L 489.23 161.84 L 491.23 162.03 L 493.24 162.21 L 495.24 162.37 L 497.25 162.51 L 499.26 162.64000000000001 L 501.26 162.77 L 503.27000000000004 162.88 L 505.27000000000004 162.99 L 507.28000000000003 163.09 L 509.28000000000003 163.18 L 511.29 163.27 L 513.29 163.36 L 515.3 163.44 L 517.3100000000001 163.51 L 519.3100000000001 163.58 L 521.32 163.64000000000001 L 523.32 163.69 L 525.33 163.74 L 527.33 163.79 L 529.34 163.82 L 531.34 163.86 L 533.35 163.88 L 535.36 163.91 L 537.36 163.93 L 539.37 163.94 L 541.37 163.96 L 543.38 163.97 L 545.38 163.98 L 547.39 163.98 L 549.39 163.99 L 551.4 163.99" stroke="#4589c4" stroke-width="1.5" fill="none" /><line x1="99.8" y1="194" x2="699.8000000000001" y2="194" stroke="#000000" stroke-width="0.5" /><path d="M 215.36 193.99 L 217.27 193.98000000000002 L 219.17000000000002 193.98000000000002 L 221.08 193.97 L 222.99 193.96 L 224.9 193.95000000000002 L 226.81 193.93 L 228.71 193.9 L 230.62 193.87 L 232.53 193.84 L 234.44 193.79 L 236.34 193.74 L 238.25 193.67000000000002 L 240.16 193.59 L 242.07 193.5 L 243.98000000000002 193.39000000000001 L 245.88 193.26 L 247.79 193.12 L 249.70000000000002 192.96 L 251.61 192.77 L 253.51000000000002 192.57 L 255.42000000000002 192.35 L 257.33 192.1 L 259.24 191.83 L 261.15 191.53 L 263.05 191.21 L 264.96 190.87 L 266.87 190.49 L 268.78000000000003 190.09 L 270.68 189.65 L 272.59000000000003 189.17000000000002 L 274.5 188.66 L 276.41 188.1 L 278.32 187.48 L 280.22 186.82 L 282.13 186.09 L 284.04 185.3 L 285.95 184.44 L 287.86 183.5 L 289.76 182.47 L 291.67 181.36 L 293.58 180.16 L 295.49 178.86 L 297.39 177.47 L 299.3 175.98 L 301.21 174.4 L 303.12 172.73 L 305.03000000000003 170.97 L 306.93 169.14000000000001 L 308.84000000000003 167.25 L 310.75 165.31 L 312.66 163.34 L 314.56 161.36 L 316.47 159.39000000000001 L 318.38 157.47 L 320.29 155.61 L 322.2 153.84 L 324.1 152.20000000000002 L 326.01 150.71 L 327.92 149.39000000000001 L 329.83 148.27 L 331.73 147.36 L 333.64 146.67000000000002 L 335.55 146.22 L 337.46 146.0 L 339.37 146.01 L 341.27 146.25 L 343.18 146.69 L 345.09000000000003 147.32 L 347.0 148.13 L 348.90000000000003 149.08 L 350.81 150.15 L 352.72 151.31 L 354.63 152.55 L 356.54 153.82 L 358.44 155.12 L 360.35 156.41 L 362.26 157.68 L 364.17 158.91 L 366.07 160.07 L 367.98 161.16 L 369.89 162.15 L 371.8 163.03 L 373.71 163.79 L 375.61 164.42000000000002 L 377.52 164.9 L 379.43 165.23 L 381.34000000000003 165.4 L 383.24 165.41 L 385.15000000000003 165.27 L 387.06 164.97 L 388.97 164.52 L 390.88 163.94 L 392.78000000000003 163.25 L 394.69 162.46 L 396.6 161.59 L 398.51 160.67000000000002 L 400.41 159.73 L 402.32 158.78 L 404.23 157.85 L 406.14 156.96 L 408.05 156.12 L 409.95 155.36 L 411.86 154.68 L 413.77 154.09 L 415.68 153.6 L 417.59000000000003 153.21 L 419.49 152.91 L 421.40000000000003 152.71 L 423.31 152.6 L 425.22 152.59 L 427.12 152.66 L 429.03000000000003 152.81 L 430.94 153.04 L 432.85 153.34 L 434.76 153.72 L 436.66 154.16 L 438.57 154.68 L 440.48 155.26 L 442.39 155.91 L 444.29 156.63 L 446.2 157.41 L 448.11 158.25 L 450.02 159.14000000000001 L 451.93 160.1 L 453.83 161.1 L 455.74 162.16 L 457.65000000000003 163.26 L 459.56 164.41 L 461.46000000000004 165.59 L 463.37 166.81 L 465.28000000000003 168.06 L 467.19 169.34 L 469.1 170.64000000000001 L 471.0 171.95000000000002 L 472.91 173.28 L 474.82 174.61 L 476.73 175.93 L 478.63 177.24 L 480.54 178.53 L 482.45 179.8 L 484.36 181.02 L 486.27 182.20000000000002 L 488.17 183.33 L 490.08 184.4 L 491.99 185.41 L 493.90000000000003 186.36 L 495.8 187.23 L 497.71000000000004 188.04 L 499.62 188.77 L 501.53000000000003 189.44 L 503.44 190.03 L 505.34000000000003 190.57 L 507.25 191.04 L 509.16 191.45000000000002 L 511.07 191.8 L 512.97 192.1 L 514.88 192.35 L 516.79 192.56 L 518.7 192.73000000000002 L 520.61 192.86 L 522.51 192.96 L 524.42 193.04 L 526.33 193.09 L 528.24 193.12 L 530.14 193.14000000000001 L 532.05 193.15 L 533.96 193.15 L 535.87 193.15 L 537.78 193.15 L 539.6800000000001 193.14000000000001 L 541.59 193.15 L 543.5 193.16 L 545.41 193.17000000000002 L 547.3100000000001 193.19 L 549.22 193.22 L 551.13 193.26 L 553.04 193.3 L 554.95 193.35 L 556.85 193.4 L 558.76 193.45000000000002 L 560.67 193.51 L 562.58 193.56 L 564.49 193.62 L 566.39 193.67000000000002 L 568.3000000000001 193.72 L 570.21 193.76 L 572.12 193.8 L 574.02 193.83 L 575.9300000000001 193.86 L 577.84 193.89000000000001 L 579.75 193.91 L 581.66 193.93 L 583.5600000000001 193.95000000000002 L 585.47 193.96 L 587.38 193.97 L 589.29 193.98000000000002 L 591.19 193.98000000000002 L 593.1 193.99 L 595.01 193.99 L 595.01 194.0 L 215.36 194.0 Z" stroke="none" stroke-width="0" fill="#6ba3d4" fill-opacity="0.75" /><path d="M 215.36 193.99 L 217.27 193.98000000000002 L 219.17000000000002 193.98000000000002 L 221.08 193.97 L 222.99 193.96 L 224.9 193.95000000000002 L 226.81 193.93 L 228.71 193.9 L 230.62 193.87 L 232.53 193.84 L 234.44 193.79 L 236.34 193.74 L 238.25 193.67000000000002 L 240.16 193.59 L 242.07 193.5 L 243.98000000000002 193.39000000000001 L 245.88 193.26 L 247.79 193.12 L 249.70000000000002 192.96 L 251.61 192.77 L 253.51000000000002 192.57 L 255.42000000000002 192.35 L 257.33 192.1 L 259.24 191.83 L 261.15 191.53 L 263.05 191.21 L 264.96 190.87 L 266.87 190.49 L 268.78000000000003 190.09 L 270.68 189.65 L 272.59000000000003 189.17000000000002 L 274.5 188.66 L 276.41 188.1 L 278.32 187.48 L 280.22 186.82 L 282.13 186.09 L 284.04 185.3 L 285.95 184.44 L 287.86 183.5 L 289.76 182.47 L 291.67 181.36 L 293.58 180.16 L 295.49 178.86 L 297.39 177.47 L 299.3 175.98 L 301.21 174.4 L 303.12 172.73 L 305.03000000000003 170.97 L 306.93 169.14000000000001 L 308.84000000000003 167.25 L 310.75 165.31 L 312.66 163.34 L 314.56 161.36 L 316.47 159.39000000000001 L 318.38 157.47 L 320.29 155.61 L 322.2 153.84 L 324.1 152.20000000000002 L 326.01 150.71 L 327.92 149.39000000000001 L 329.83 148.27 L 331.73 147.36 L 333.64 146.67000000000002 L 335.55 146.22 L 337.46 146.0 L 339.37 146.01 L 341.27 146.25 L 343.18 146.69 L 345.09000000000003 147.32 L 347.0 148.13 L 348.90000000000003 149.08 L 350.81 150.15 L 352.72 151.31 L 354.63 152.55 L 356.54 153.82 L 358.44 155.12 L 360.35 156.41 L 362.26 157.68 L 364.17 158.91 L 366.07 160.07 L 367.98 161.16 L 369.89 162.15 L 371.8 163.03 L 373.71 163.79 L 375.61 164.42000000000002 L 377.52 164.9 L 379.43 165.23 L 381.34000000000003 165.4 L 383.24 165.41 L 385.15000000000003 165.27 L 387.06 164.97 L 388.97 164.52 L 390.88 163.94 L 392.78000000000003 163.25 L 394.69 162.46 L 396.6 161.59 L 398.51 160.67000000000002 L 400.41 159.73 L 402.32 158.78 L 404.23 157.85 L 406.14 156.96 L 408.05 156.12 L 409.95 155.36 L 411.86 154.68 L 413.77 154.09 L 415.68 153.6 L 417.59000000000003 153.21 L 419.49 152.91 L 421.40000000000003 152.71 L 423.31 152.6 L 425.22 152.59 L 427.12 152.66 L 429.03000000000003 152.81 L 430.94 153.04 L 432.85 153.34 L 434.76 153.72 L 436.66 154.16 L 438.57 154.68 L 440.48 155.26 L 442.39 155.91 L 444.29 156.63 L 446.2 157.41 L 448.11 158.25 L 450.02 159.14000000000001 L 451.93 160.1 L 453.83 161.1 L 455.74 162.16 L 457.65000000000003 163.26 L 459.56 164.41 L 461.46000000000004 165.59 L 463.37 166.81 L 465.28000000000003 168.06 L 467.19 169.34 L 469.1 170.64000000000001 L 471.0 171.95000000000002 L 472.91 173.28 L 474.82 174.61 L 476.73 175.93 L 478.63 177.24 L 480.54 178.53 L 482.45 179.8 L 484.36 181.02 L 486.27 182.20000000000002 L 488.17 183.33 L 490.08 184.4 L 491.99 185.41 L 493.90000000000003 186.36 L 495.8 187.23 L 497.71000000000004 188.04 L 499.62 188.77 L 501.53000000000003 189.44 L 503.44 190.03 L 505.34000000000003 190.57 L 507.25 191.04 L 509.16 191.45000000000002 L 511.07 191.8 L 512.97 192.1 L 514.88 192.35 L 516.79 192.56 L 518.7 192.73000000000002 L 520.61 192.86 L 522.51 192.96 L 524.42 193.04 L 526.33 193.09 L 528.24 193.12 L 530.14 193.14000000000001 L 532.05 193.15 L 533.96 193.15 L 535.87 193.15 L 537.78 193.15 L 539.6800000000001 193.14000000000001 L 541.59 193.15 L 543.5 193.16 L 545.41 193.17000000000002 L 547.3100000000001 193.19 L 549.22 193.22 L 551.13 193.26 L 553.04 193.3 L 554.95 193.35 L 556.85 193.4 L 558.76 193.45000000000002 L 560.67 193.51 L 562.58 193.56 L 564.49 193.62 L 566.39 193.67000000000002 L 568.3000000000001 193.72 L 570.21 193.76 L 572.12 193.8 L 574.02 193.83 L 575.9300000000001 193.86 L 577.84 193.89000000000001 L 579.75 193.91 L 581.66 193.93 L 583.5600000000001 193.95000000000002 L 585.47 193.96 L 587.38 193.97 L 589.29 193.98000000000002 L 591.19 193.98000000000002 L 593.1 193.99 L 595.01 193.99" stroke="#6ba3d4" stroke-width="1.5" fill="none" /><line x1="99.8" y1="224" x2="699.8000000000001" y2="224" stroke="#000000" stroke-width="0.5" /><path d="M 289.69 223.99 L 291.17 223.99 L 292.65000000000003 223.98000000000002 L 294.14 223.98000000000002 L 295.62 223.97 L 297.1 223.96 L 298.58 223.94 L 300.06 223.93 L 301.55 223.91 L 303.03000000000003 223.88 L 304.51 223.85 L 305.99 223.82 L 307.47 223.78 L 308.95 223.73000000000002 L 310.44 223.67000000000002 L 311.92 223.61 L 313.40000000000003 223.53 L 314.88 223.45000000000002 L 316.36 223.36 L 317.85 223.26 L 319.33 223.14000000000001 L 320.81 223.02 L 322.29 222.89000000000001 L 323.77 222.75 L 325.26 222.6 L 326.74 222.44 L 328.22 222.28 L 329.7 222.11 L 331.18 221.93 L 332.67 221.75 L 334.15000000000003 221.56 L 335.63 221.37 L 337.11 221.17000000000002 L 338.59000000000003 220.97 L 340.08 220.75 L 341.56 220.52 L 343.04 220.28 L 344.52 220.01 L 346.0 219.72 L 347.49 219.4 L 348.97 219.03 L 350.45 218.61 L 351.93 218.14000000000001 L 353.41 217.6 L 354.89 216.98000000000002 L 356.38 216.28 L 357.86 215.49 L 359.34000000000003 214.6 L 360.82 213.62 L 362.3 212.52 L 363.79 211.33 L 365.27 210.03 L 366.75 208.63 L 368.23 207.15 L 369.71 205.59 L 371.2 203.95000000000002 L 372.68 202.26 L 374.16 200.52 L 375.64 198.76 L 377.12 196.98000000000002 L 378.61 195.21 L 380.09000000000003 193.45000000000002 L 381.57 191.72 L 383.05 190.05 L 384.53000000000003 188.44 L 386.02 186.9 L 387.5 185.46 L 388.98 184.12 L 390.46000000000004 182.89000000000001 L 391.94 181.78 L 393.43 180.81 L 394.91 179.97 L 396.39 179.28 L 397.87 178.74 L 399.35 178.34 L 400.84000000000003 178.09 L 402.32 177.98 L 403.8 178.01 L 405.28000000000003 178.17000000000002 L 406.76 178.45000000000002 L 408.24 178.84 L 409.73 179.33 L 411.21000000000004 179.91 L 412.69 180.55 L 414.17 181.24 L 415.65000000000003 181.97 L 417.14 182.73 L 418.62 183.49 L 420.1 184.25 L 421.58 185.0 L 423.06 185.72 L 424.55 186.41 L 426.03000000000003 187.06 L 427.51 187.66 L 428.99 188.22 L 430.47 188.73 L 431.96000000000004 189.19 L 433.44 189.6 L 434.92 189.95000000000002 L 436.40000000000003 190.25 L 437.88 190.49 L 439.37 190.67000000000002 L 440.85 190.8 L 442.33 190.87 L 443.81 190.88 L 445.29 190.82 L 446.78000000000003 190.70000000000002 L 448.26 190.51 L 449.74 190.25 L 451.22 189.92000000000002 L 452.7 189.52 L 454.19 189.04 L 455.67 188.5 L 457.15000000000003 187.89000000000001 L 458.63 187.21 L 460.11 186.48 L 461.59000000000003 185.69 L 463.08 184.86 L 464.56 184.0 L 466.04 183.11 L 467.52 182.21 L 469.0 181.31 L 470.49 180.42000000000002 L 471.97 179.57 L 473.45 178.77 L 474.93 178.03 L 476.41 177.38 L 477.90000000000003 176.84 L 479.38 176.41 L 480.86 176.13 L 482.34000000000003 176.0 L 483.82 176.04 L 485.31 176.25 L 486.79 176.64000000000001 L 488.27 177.22 L 489.75 177.98 L 491.23 178.91 L 492.72 180.02 L 494.2 181.27 L 495.68 182.66 L 497.16 184.16 L 498.64 185.75 L 500.13 187.41 L 501.61 189.11 L 503.09000000000003 190.83 L 504.57 192.54 L 506.05 194.23000000000002 L 507.54 195.87 L 509.02000000000004 197.46 L 510.5 198.98000000000002 L 511.98 200.42000000000002 L 513.46 201.79 L 514.94 203.07 L 516.4300000000001 204.28 L 517.91 205.42000000000002 L 519.39 206.49 L 520.87 207.5 L 522.35 208.46 L 523.84 209.37 L 525.32 210.26 L 526.8 211.11 L 528.28 211.93 L 529.76 212.74 L 531.25 213.53 L 532.73 214.3 L 534.21 215.05 L 535.69 215.78 L 537.17 216.49 L 538.66 217.17000000000002 L 540.14 217.83 L 541.62 218.45000000000002 L 543.1 219.04 L 544.58 219.59 L 546.07 220.11 L 547.5500000000001 220.59 L 549.03 221.03 L 550.51 221.43 L 551.99 221.79 L 553.48 222.11 L 554.96 222.4 L 556.44 222.65 L 557.92 222.87 L 559.4 223.06 L 560.88 223.23000000000002 L 562.37 223.37 L 563.85 223.49 L 565.33 223.59 L 566.8100000000001 223.67000000000002 L 568.29 223.74 L 569.78 223.79 L 571.26 223.84 L 572.74 223.87 L 574.22 223.9 L 575.7 223.93 L 577.19 223.94 L 578.67 223.96 L 580.15 223.97 L 581.63 223.98000000000002 L 583.11 223.98000000000002 L 584.6 223.99 L 584.6 224.0 L 289.69 224.0 Z" stroke="none" stroke-width="0" fill="#a0bfdc" fill-opacity="0.75" /><path d="M 289.69 223.99 L 291.17 223.99 L 292.65000000000003 223.98000000000002 L 294.14 223.98000000000002 L 295.62 223.97 L 297.1 223.96 L 298.58 223.94 L 300.06 223.93 L 301.55 223.91 L 303.03000000000003 223.88 L 304.51 223.85 L 305.99 223.82 L 307.47 223.78 L 308.95 223.73000000000002 L 310.44 223.67000000000002 L 311.92 223.61 L 313.40000000000003 223.53 L 314.88 223.45000000000002 L 316.36 223.36 L 317.85 223.26 L 319.33 223.14000000000001 L 320.81 223.02 L 322.29 222.89000000000001 L 323.77 222.75 L 325.26 222.6 L 326.74 222.44 L 328.22 222.28 L 329.7 222.11 L 331.18 221.93 L 332.67 221.75 L 334.15000000000003 221.56 L 335.63 221.37 L 337.11 221.17000000000002 L 338.59000000000003 220.97 L 340.08 220.75 L 341.56 220.52 L 343.04 220.28 L 344.52 220.01 L 346.0 219.72 L 347.49 219.4 L 348.97 219.03 L 350.45 218.61 L 351.93 218.14000000000001 L 353.41 217.6 L 354.89 216.98000000000002 L 356.38 216.28 L 357.86 215.49 L 359.34000000000003 214.6 L 360.82 213.62 L 362.3 212.52 L 363.79 211.33 L 365.27 210.03 L 366.75 208.63 L 368.23 207.15 L 369.71 205.59 L 371.2 203.95000000000002 L 372.68 202.26 L 374.16 200.52 L 375.64 198.76 L 377.12 196.98000000000002 L 378.61 195.21 L 380.09000000000003 193.45000000000002 L 381.57 191.72 L 383.05 190.05 L 384.53000000000003 188.44 L 386.02 186.9 L 387.5 185.46 L 388.98 184.12 L 390.46000000000004 182.89000000000001 L 391.94 181.78 L 393.43 180.81 L 394.91 179.97 L 396.39 179.28 L 397.87 178.74 L 399.35 178.34 L 400.84000000000003 178.09 L 402.32 177.98 L 403.8 178.01 L 405.28000000000003 178.17000000000002 L 406.76 178.45000000000002 L 408.24 178.84 L 409.73 179.33 L 411.21000000000004 179.91 L 412.69 180.55 L 414.17 181.24 L 415.65000000000003 181.97 L 417.14 182.73 L 418.62 183.49 L 420.1 184.25 L 421.58 185.0 L 423.06 185.72 L 424.55 186.41 L 426.03000000000003 187.06 L 427.51 187.66 L 428.99 188.22 L 430.47 188.73 L 431.96000000000004 189.19 L 433.44 189.6 L 434.92 189.95000000000002 L 436.40000000000003 190.25 L 437.88 190.49 L 439.37 190.67000000000002 L 440.85 190.8 L 442.33 190.87 L 443.81 190.88 L 445.29 190.82 L 446.78000000000003 190.70000000000002 L 448.26 190.51 L 449.74 190.25 L 451.22 189.92000000000002 L 452.7 189.52 L 454.19 189.04 L 455.67 188.5 L 457.15000000000003 187.89000000000001 L 458.63 187.21 L 460.11 186.48 L 461.59000000000003 185.69 L 463.08 184.86 L 464.56 184.0 L 466.04 183.11 L 467.52 182.21 L 469.0 181.31 L 470.49 180.42000000000002 L 471.97 179.57 L 473.45 178.77 L 474.93 178.03 L 476.41 177.38 L 477.90000000000003 176.84 L 479.38 176.41 L 480.86 176.13 L 482.34000000000003 176.0 L 483.82 176.04 L 485.31 176.25 L 486.79 176.64000000000001 L 488.27 177.22 L 489.75 177.98 L 491.23 178.91 L 492.72 180.02 L 494.2 181.27 L 495.68 182.66 L 497.16 184.16 L 498.64 185.75 L 500.13 187.41 L 501.61 189.11 L 503.09000000000003 190.83 L 504.57 192.54 L 506.05 194.23000000000002 L 507.54 195.87 L 509.02000000000004 197.46 L 510.5 198.98000000000002 L 511.98 200.42000000000002 L 513.46 201.79 L 514.94 203.07 L 516.4300000000001 204.28 L 517.91 205.42000000000002 L 519.39 206.49 L 520.87 207.5 L 522.35 208.46 L 523.84 209.37 L 525.32 210.26 L 526.8 211.11 L 528.28 211.93 L 529.76 212.74 L 531.25 213.53 L 532.73 214.3 L 534.21 215.05 L 535.69 215.78 L 537.17 216.49 L 538.66 217.17000000000002 L 540.14 217.83 L 541.62 218.45000000000002 L 543.1 219.04 L 544.58 219.59 L 546.07 220.11 L 547.5500000000001 220.59 L 549.03 221.03 L 550.51 221.43 L 551.99 221.79 L 553.48 222.11 L 554.96 222.4 L 556.44 222.65 L 557.92 222.87 L 559.4 223.06 L 560.88 223.23000000000002 L 562.37 223.37 L 563.85 223.49 L 565.33 223.59 L 566.8100000000001 223.67000000000002 L 568.29 223.74 L 569.78 223.79 L 571.26 223.84 L 572.74 223.87 L 574.22 223.9 L 575.7 223.93 L 577.19 223.94 L 578.67 223.96 L 580.15 223.97 L 581.63 223.98000000000002 L 583.11 223.98000000000002 L 584.6 223.99" stroke="#a0bfdc" stroke-width="1.5" fill="none" /><line x1="99.8" y1="254" x2="699.8000000000001" y2="254" stroke="#000000" stroke-width="0.5" /><path d="M 347.43 253.99 L 348.85 253.99 L 350.26 253.98000000000002 L 351.68 253.98000000000002 L 353.1 253.97 L 354.51 253.96 L 355.93 253.94 L 357.35 253.93 L 358.76 253.91 L 360.18 253.88 L 361.6 253.85 L 363.01 253.81 L 364.43 253.77 L 365.85 253.72 L 367.26 253.66 L 368.68 253.59 L 370.1 253.52 L 371.51 253.43 L 372.93 253.33 L 374.35 253.21 L 375.76 253.09 L 377.18 252.94 L 378.6 252.78 L 380.01 252.59 L 381.43 252.39000000000001 L 382.85 252.15 L 384.27 251.89000000000001 L 385.68 251.6 L 387.1 251.27 L 388.52 250.91 L 389.93 250.51000000000002 L 391.35 250.08 L 392.77 249.61 L 394.18 249.11 L 395.6 248.58 L 397.02 248.02 L 398.43 247.45000000000002 L 399.85 246.86 L 401.27 246.26000000000002 L 402.68 245.66 L 404.1 245.07 L 405.52 244.48000000000002 L 406.93 243.91 L 408.35 243.35 L 409.77 242.81 L 411.18 242.27 L 412.6 241.74 L 414.02 241.20000000000002 L 415.43 240.64000000000001 L 416.85 240.05 L 418.27 239.42000000000002 L 419.69 238.74 L 421.1 237.99 L 422.52 237.16 L 423.94 236.25 L 425.35 235.25 L 426.77 234.16 L 428.19 232.99 L 429.6 231.74 L 431.02 230.43 L 432.44 229.06 L 433.85 227.66 L 435.27 226.25 L 436.69 224.86 L 438.1 223.49 L 439.52 222.19 L 440.94 220.96 L 442.35 219.83 L 443.77 218.82 L 445.19 217.93 L 446.6 217.17000000000002 L 448.02 216.56 L 449.44 216.09 L 450.85 215.75 L 452.27 215.54 L 453.69 215.46 L 455.1 215.48000000000002 L 456.52 215.61 L 457.94 215.81 L 459.36 216.08 L 460.77 216.4 L 462.19 216.75 L 463.61 217.13 L 465.02 217.51 L 466.44 217.89000000000001 L 467.86 218.25 L 469.27 218.58 L 470.69 218.88 L 472.11 219.13 L 473.52 219.34 L 474.94 219.48000000000002 L 476.36 219.57 L 477.77 219.6 L 479.19 219.56 L 480.61 219.47 L 482.02 219.32 L 483.44 219.12 L 484.86 218.88 L 486.27 218.59 L 487.69 218.28 L 489.11 217.93 L 490.52 217.57 L 491.94 217.19 L 493.36 216.79 L 494.78000000000003 216.38 L 496.19 215.96 L 497.61 215.52 L 499.03000000000003 215.06 L 500.44 214.57 L 501.86 214.06 L 503.28000000000003 213.51 L 504.69 212.93 L 506.11 212.31 L 507.53000000000003 211.66 L 508.94 210.99 L 510.36 210.29 L 511.78000000000003 209.59 L 513.19 208.9 L 514.61 208.23000000000002 L 516.03 207.61 L 517.44 207.06 L 518.86 206.61 L 520.28 206.26 L 521.69 206.06 L 523.11 206.0 L 524.53 206.11 L 525.94 206.41 L 527.36 206.89000000000001 L 528.78 207.57 L 530.19 208.44 L 531.61 209.5 L 533.03 210.74 L 534.45 212.14000000000001 L 535.86 213.68 L 537.28 215.36 L 538.7 217.15 L 540.11 219.02 L 541.53 220.95000000000002 L 542.95 222.93 L 544.36 224.92000000000002 L 545.78 226.9 L 547.2 228.86 L 548.61 230.78 L 550.03 232.63 L 551.45 234.42000000000002 L 552.86 236.12 L 554.28 237.72 L 555.7 239.23000000000002 L 557.11 240.64000000000001 L 558.53 241.94 L 559.95 243.14000000000001 L 561.36 244.24 L 562.78 245.24 L 564.2 246.14000000000001 L 565.61 246.96 L 567.03 247.70000000000002 L 568.45 248.36 L 569.87 248.95000000000002 L 571.28 249.48000000000002 L 572.7 249.95000000000002 L 574.12 250.37 L 575.53 250.73000000000002 L 576.95 251.06 L 578.37 251.34 L 579.78 251.59 L 581.2 251.81 L 582.62 252.0 L 584.03 252.16 L 585.45 252.31 L 586.87 252.44 L 588.28 252.55 L 589.7 252.66 L 591.12 252.76000000000002 L 592.53 252.85 L 593.95 252.93 L 595.37 253.02 L 596.78 253.1 L 598.2 253.17000000000002 L 599.62 253.25 L 601.03 253.33 L 602.45 253.4 L 603.87 253.47 L 605.28 253.53 L 606.7 253.59 L 608.12 253.65 L 609.54 253.70000000000002 L 610.95 253.75 L 612.37 253.79 L 613.79 253.83 L 615.2 253.86 L 616.62 253.89000000000001 L 618.04 253.91 L 619.45 253.93 L 620.87 253.95000000000002 L 622.29 253.96 L 623.7 253.97 L 625.12 253.98000000000002 L 626.54 253.98000000000002 L 627.95 253.99 L 629.37 253.99 L 629.37 254.0 L 347.43 254.0 Z" stroke="none" stroke-width="0" fill="#d4b8a0" fill-opacity="0.75" /><path d="M 347.43 253.99 L 348.85 253.99 L 350.26 253.98000000000002 L 351.68 253.98000000000002 L 353.1 253.97 L 354.51 253.96 L 355.93 253.94 L 357.35 253.93 L 358.76 253.91 L 360.18 253.88 L 361.6 253.85 L 363.01 253.81 L 364.43 253.77 L 365.85 253.72 L 367.26 253.66 L 368.68 253.59 L 370.1 253.52 L 371.51 253.43 L 372.93 253.33 L 374.35 253.21 L 375.76 253.09 L 377.18 252.94 L 378.6 252.78 L 380.01 252.59 L 381.43 252.39000000000001 L 382.85 252.15 L 384.27 251.89000000000001 L 385.68 251.6 L 387.1 251.27 L 388.52 250.91 L 389.93 250.51000000000002 L 391.35 250.08 L 392.77 249.61 L 394.18 249.11 L 395.6 248.58 L 397.02 248.02 L 398.43 247.45000000000002 L 399.85 246.86 L 401.27 246.26000000000002 L 402.68 245.66 L 404.1 245.07 L 405.52 244.48000000000002 L 406.93 243.91 L 408.35 243.35 L 409.77 242.81 L 411.18 242.27 L 412.6 241.74 L 414.02 241.20000000000002 L 415.43 240.64000000000001 L 416.85 240.05 L 418.27 239.42000000000002 L 419.69 238.74 L 421.1 237.99 L 422.52 237.16 L 423.94 236.25 L 425.35 235.25 L 426.77 234.16 L 428.19 232.99 L 429.6 231.74 L 431.02 230.43 L 432.44 229.06 L 433.85 227.66 L 435.27 226.25 L 436.69 224.86 L 438.1 223.49 L 439.52 222.19 L 440.94 220.96 L 442.35 219.83 L 443.77 218.82 L 445.19 217.93 L 446.6 217.17000000000002 L 448.02 216.56 L 449.44 216.09 L 450.85 215.75 L 452.27 215.54 L 453.69 215.46 L 455.1 215.48000000000002 L 456.52 215.61 L 457.94 215.81 L 459.36 216.08 L 460.77 216.4 L 462.19 216.75 L 463.61 217.13 L 465.02 217.51 L 466.44 217.89000000000001 L 467.86 218.25 L 469.27 218.58 L 470.69 218.88 L 472.11 219.13 L 473.52 219.34 L 474.94 219.48000000000002 L 476.36 219.57 L 477.77 219.6 L 479.19 219.56 L 480.61 219.47 L 482.02 219.32 L 483.44 219.12 L 484.86 218.88 L 486.27 218.59 L 487.69 218.28 L 489.11 217.93 L 490.52 217.57 L 491.94 217.19 L 493.36 216.79 L 494.78000000000003 216.38 L 496.19 215.96 L 497.61 215.52 L 499.03000000000003 215.06 L 500.44 214.57 L 501.86 214.06 L 503.28000000000003 213.51 L 504.69 212.93 L 506.11 212.31 L 507.53000000000003 211.66 L 508.94 210.99 L 510.36 210.29 L 511.78000000000003 209.59 L 513.19 208.9 L 514.61 208.23000000000002 L 516.03 207.61 L 517.44 207.06 L 518.86 206.61 L 520.28 206.26 L 521.69 206.06 L 523.11 206.0 L 524.53 206.11 L 525.94 206.41 L 527.36 206.89000000000001 L 528.78 207.57 L 530.19 208.44 L 531.61 209.5 L 533.03 210.74 L 534.45 212.14000000000001 L 535.86 213.68 L 537.28 215.36 L 538.7 217.15 L 540.11 219.02 L 541.53 220.95000000000002 L 542.95 222.93 L 544.36 224.92000000000002 L 545.78 226.9 L 547.2 228.86 L 548.61 230.78 L 550.03 232.63 L 551.45 234.42000000000002 L 552.86 236.12 L 554.28 237.72 L 555.7 239.23000000000002 L 557.11 240.64000000000001 L 558.53 241.94 L 559.95 243.14000000000001 L 561.36 244.24 L 562.78 245.24 L 564.2 246.14000000000001 L 565.61 246.96 L 567.03 247.70000000000002 L 568.45 248.36 L 569.87 248.95000000000002 L 571.28 249.48000000000002 L 572.7 249.95000000000002 L 574.12 250.37 L 575.53 250.73000000000002 L 576.95 251.06 L 578.37 251.34 L 579.78 251.59 L 581.2 251.81 L 582.62 252.0 L 584.03 252.16 L 585.45 252.31 L 586.87 252.44 L 588.28 252.55 L 589.7 252.66 L 591.12 252.76000000000002 L 592.53 252.85 L 593.95 252.93 L 595.37 253.02 L 596.78 253.1 L 598.2 253.17000000000002 L 599.62 253.25 L 601.03 253.33 L 602.45 253.4 L 603.87 253.47 L 605.28 253.53 L 606.7 253.59 L 608.12 253.65 L 609.54 253.70000000000002 L 610.95 253.75 L 612.37 253.79 L 613.79 253.83 L 615.2 253.86 L 616.62 253.89000000000001 L 618.04 253.91 L 619.45 253.93 L 620.87 253.95000000000002 L 622.29 253.96 L 623.7 253.97 L 625.12 253.98000000000002 L 626.54 253.98000000000002 L 627.95 253.99 L 629.37 253.99" stroke="#d4b8a0" stroke-width="1.5" fill="none" /><line x1="99.8" y1="284" x2="699.8000000000001" y2="284" stroke="#000000" stroke-width="0.5" /><path d="M 434.41 283.98 L 435.42 283.97 L 436.44 283.95 L 437.46000000000004 283.94 L 438.48 283.92 L 439.5 283.89 L 440.52 283.86 L 441.54 283.81 L 442.55 283.76 L 443.57 283.69 L 444.59000000000003 283.6 L 445.61 283.5 L 446.63 283.38 L 447.65000000000003 283.24 L 448.67 283.07 L 449.69 282.87 L 450.7 282.64 L 451.72 282.37 L 452.74 282.07 L 453.76 281.73 L 454.78000000000003 281.34000000000003 L 455.8 280.92 L 456.82 280.45 L 457.83 279.94 L 458.85 279.39 L 459.87 278.79 L 460.89 278.15000000000003 L 461.91 277.47 L 462.93 276.76 L 463.95 276.01 L 464.96000000000004 275.22 L 465.98 274.41 L 467.0 273.57 L 468.02 272.71 L 469.04 271.83 L 470.06 270.93 L 471.08 270.02 L 472.09000000000003 269.09000000000003 L 473.11 268.15 L 474.13 267.2 L 475.15000000000003 266.24 L 476.17 265.27 L 477.19 264.28000000000003 L 478.21000000000004 263.29 L 479.22 262.27 L 480.24 261.24 L 481.26 260.2 L 482.28000000000003 259.13 L 483.3 258.04 L 484.32 256.94 L 485.34000000000003 255.82 L 486.36 254.69 L 487.37 253.55 L 488.39 252.41 L 489.41 251.27 L 490.43 250.15 L 491.45 249.05 L 492.47 247.98000000000002 L 493.49 246.95000000000002 L 494.5 245.96 L 495.52000000000004 245.03 L 496.54 244.17000000000002 L 497.56 243.37 L 498.58 242.66 L 499.6 242.02 L 500.62 241.47 L 501.63 241.0 L 502.65000000000003 240.62 L 503.67 240.33 L 504.69 240.13 L 505.71000000000004 240.01 L 506.73 239.98000000000002 L 507.75 240.03 L 508.76 240.16 L 509.78000000000003 240.37 L 510.8 240.63 L 511.82 240.96 L 512.84 241.35 L 513.86 241.77 L 514.88 242.24 L 515.89 242.73000000000002 L 516.91 243.23000000000002 L 517.9300000000001 243.75 L 518.95 244.26 L 519.97 244.76 L 520.99 245.24 L 522.01 245.69 L 523.03 246.12 L 524.04 246.5 L 525.0600000000001 246.84 L 526.08 247.13 L 527.1 247.37 L 528.12 247.57 L 529.14 247.70000000000002 L 530.16 247.79 L 531.17 247.81 L 532.19 247.78 L 533.21 247.69 L 534.23 247.55 L 535.25 247.34 L 536.27 247.06 L 537.29 246.73000000000002 L 538.3 246.33 L 539.32 245.87 L 540.34 245.35 L 541.36 244.78 L 542.38 244.15 L 543.4 243.47 L 544.42 242.76 L 545.4300000000001 242.01 L 546.45 241.25 L 547.47 240.49 L 548.49 239.73000000000002 L 549.51 239.0 L 550.53 238.31 L 551.5500000000001 237.68 L 552.57 237.13 L 553.58 236.67000000000002 L 554.6 236.32 L 555.62 236.09 L 556.64 236.0 L 557.66 236.06 L 558.6800000000001 236.27 L 559.7 236.65 L 560.71 237.18 L 561.73 237.88 L 562.75 238.74 L 563.77 239.74 L 564.79 240.89000000000001 L 565.8100000000001 242.15 L 566.83 243.52 L 567.84 244.98000000000002 L 568.86 246.52 L 569.88 248.1 L 570.9 249.73000000000002 L 571.92 251.36 L 572.94 253.0 L 573.96 254.63 L 574.97 256.24 L 575.99 257.8 L 577.01 259.33 L 578.03 260.8 L 579.0500000000001 262.23 L 580.07 263.6 L 581.09 264.91 L 582.1 266.17 L 583.12 267.38 L 584.14 268.54 L 585.16 269.64 L 586.1800000000001 270.7 L 587.2 271.7 L 588.22 272.66 L 589.24 273.58 L 590.25 274.45 L 591.27 275.27 L 592.29 276.04 L 593.3100000000001 276.77 L 594.33 277.45 L 595.35 278.08 L 596.37 278.67 L 597.38 279.2 L 598.4 279.69 L 599.42 280.13 L 600.44 280.53000000000003 L 601.46 280.89 L 602.48 281.2 L 603.5 281.49 L 604.51 281.74 L 605.53 281.96 L 606.5500000000001 282.16 L 607.57 282.33 L 608.59 282.49 L 609.61 282.63 L 610.63 282.76 L 611.64 282.88 L 612.66 282.99 L 613.6800000000001 283.09000000000003 L 614.7 283.19 L 615.72 283.27 L 616.74 283.36 L 617.76 283.43 L 618.77 283.5 L 619.79 283.57 L 620.8100000000001 283.63 L 621.83 283.68 L 622.85 283.73 L 623.87 283.77 L 624.89 283.81 L 625.91 283.84000000000003 L 626.92 283.87 L 627.94 283.90000000000003 L 628.96 283.92 L 629.98 283.93 L 631.0 283.95 L 632.02 283.96 L 633.04 283.97 L 634.0500000000001 283.98 L 635.07 283.98 L 636.09 283.99 L 637.11 283.99 L 637.11 284.0 L 434.41 284.0 Z" stroke="none" stroke-width="0" fill="#e8c97a" fill-opacity="0.75" /><path d="M 434.41 283.98 L 435.42 283.97 L 436.44 283.95 L 437.46000000000004 283.94 L 438.48 283.92 L 439.5 283.89 L 440.52 283.86 L 441.54 283.81 L 442.55 283.76 L 443.57 283.69 L 444.59000000000003 283.6 L 445.61 283.5 L 446.63 283.38 L 447.65000000000003 283.24 L 448.67 283.07 L 449.69 282.87 L 450.7 282.64 L 451.72 282.37 L 452.74 282.07 L 453.76 281.73 L 454.78000000000003 281.34000000000003 L 455.8 280.92 L 456.82 280.45 L 457.83 279.94 L 458.85 279.39 L 459.87 278.79 L 460.89 278.15000000000003 L 461.91 277.47 L 462.93 276.76 L 463.95 276.01 L 464.96000000000004 275.22 L 465.98 274.41 L 467.0 273.57 L 468.02 272.71 L 469.04 271.83 L 470.06 270.93 L 471.08 270.02 L 472.09000000000003 269.09000000000003 L 473.11 268.15 L 474.13 267.2 L 475.15000000000003 266.24 L 476.17 265.27 L 477.19 264.28000000000003 L 478.21000000000004 263.29 L 479.22 262.27 L 480.24 261.24 L 481.26 260.2 L 482.28000000000003 259.13 L 483.3 258.04 L 484.32 256.94 L 485.34000000000003 255.82 L 486.36 254.69 L 487.37 253.55 L 488.39 252.41 L 489.41 251.27 L 490.43 250.15 L 491.45 249.05 L 492.47 247.98000000000002 L 493.49 246.95000000000002 L 494.5 245.96 L 495.52000000000004 245.03 L 496.54 244.17000000000002 L 497.56 243.37 L 498.58 242.66 L 499.6 242.02 L 500.62 241.47 L 501.63 241.0 L 502.65000000000003 240.62 L 503.67 240.33 L 504.69 240.13 L 505.71000000000004 240.01 L 506.73 239.98000000000002 L 507.75 240.03 L 508.76 240.16 L 509.78000000000003 240.37 L 510.8 240.63 L 511.82 240.96 L 512.84 241.35 L 513.86 241.77 L 514.88 242.24 L 515.89 242.73000000000002 L 516.91 243.23000000000002 L 517.9300000000001 243.75 L 518.95 244.26 L 519.97 244.76 L 520.99 245.24 L 522.01 245.69 L 523.03 246.12 L 524.04 246.5 L 525.0600000000001 246.84 L 526.08 247.13 L 527.1 247.37 L 528.12 247.57 L 529.14 247.70000000000002 L 530.16 247.79 L 531.17 247.81 L 532.19 247.78 L 533.21 247.69 L 534.23 247.55 L 535.25 247.34 L 536.27 247.06 L 537.29 246.73000000000002 L 538.3 246.33 L 539.32 245.87 L 540.34 245.35 L 541.36 244.78 L 542.38 244.15 L 543.4 243.47 L 544.42 242.76 L 545.4300000000001 242.01 L 546.45 241.25 L 547.47 240.49 L 548.49 239.73000000000002 L 549.51 239.0 L 550.53 238.31 L 551.5500000000001 237.68 L 552.57 237.13 L 553.58 236.67000000000002 L 554.6 236.32 L 555.62 236.09 L 556.64 236.0 L 557.66 236.06 L 558.6800000000001 236.27 L 559.7 236.65 L 560.71 237.18 L 561.73 237.88 L 562.75 238.74 L 563.77 239.74 L 564.79 240.89000000000001 L 565.8100000000001 242.15 L 566.83 243.52 L 567.84 244.98000000000002 L 568.86 246.52 L 569.88 248.1 L 570.9 249.73000000000002 L 571.92 251.36 L 572.94 253.0 L 573.96 254.63 L 574.97 256.24 L 575.99 257.8 L 577.01 259.33 L 578.03 260.8 L 579.0500000000001 262.23 L 580.07 263.6 L 581.09 264.91 L 582.1 266.17 L 583.12 267.38 L 584.14 268.54 L 585.16 269.64 L 586.1800000000001 270.7 L 587.2 271.7 L 588.22 272.66 L 589.24 273.58 L 590.25 274.45 L 591.27 275.27 L 592.29 276.04 L 593.3100000000001 276.77 L 594.33 277.45 L 595.35 278.08 L 596.37 278.67 L 597.38 279.2 L 598.4 279.69 L 599.42 280.13 L 600.44 280.53000000000003 L 601.46 280.89 L 602.48 281.2 L 603.5 281.49 L 604.51 281.74 L 605.53 281.96 L 606.5500000000001 282.16 L 607.57 282.33 L 608.59 282.49 L 609.61 282.63 L 610.63 282.76 L 611.64 282.88 L 612.66 282.99 L 613.6800000000001 283.09000000000003 L 614.7 283.19 L 615.72 283.27 L 616.74 283.36 L 617.76 283.43 L 618.77 283.5 L 619.79 283.57 L 620.8100000000001 283.63 L 621.83 283.68 L 622.85 283.73 L 623.87 283.77 L 624.89 283.81 L 625.91 283.84000000000003 L 626.92 283.87 L 627.94 283.90000000000003 L 628.96 283.92 L 629.98 283.93 L 631.0 283.95 L 632.02 283.96 L 633.04 283.97 L 634.0500000000001 283.98 L 635.07 283.98 L 636.09 283.99 L 637.11 283.99" stroke="#e8c97a" stroke-width="1.5" fill="none" /><line x1="99.8" y1="314" x2="699.8000000000001" y2="314" stroke="#000000" stroke-width="0.5" /><path d="M 468.46000000000004 313.99 L 469.34000000000003 313.98 L 470.22 313.98 L 471.1 313.97 L 471.98 313.96 L 472.86 313.95 L 473.74 313.93 L 474.62 313.91 L 475.5 313.89 L 476.38 313.86 L 477.26 313.82 L 478.14 313.77 L 479.02 313.72 L 479.90000000000003 313.65000000000003 L 480.78000000000003 313.58 L 481.66 313.49 L 482.54 313.39 L 483.42 313.28000000000003 L 484.3 313.15000000000003 L 485.18 313.01 L 486.06 312.85 L 486.94 312.67 L 487.82 312.48 L 488.7 312.27 L 489.58 312.05 L 490.46000000000004 311.81 L 491.34000000000003 311.55 L 492.22 311.28000000000003 L 493.1 310.99 L 493.98 310.68 L 494.86 310.35 L 495.74 310.0 L 496.62 309.62 L 497.5 309.21 L 498.38 308.78000000000003 L 499.26 308.31 L 500.14 307.8 L 501.02000000000004 307.25 L 501.90000000000003 306.65000000000003 L 502.78000000000003 306.0 L 503.66 305.29 L 504.54 304.51 L 505.42 303.68 L 506.3 302.77 L 507.18 301.8 L 508.06 300.75 L 508.94 299.63 L 509.82 298.43 L 510.7 297.17 L 511.58 295.83 L 512.46 294.43 L 513.34 292.97 L 514.22 291.45 L 515.1 289.89 L 515.98 288.29 L 516.86 286.66 L 517.74 285.02 L 518.62 283.38 L 519.5 281.74 L 520.38 280.14 L 521.26 278.58 L 522.14 277.08 L 523.02 275.66 L 523.9 274.33 L 524.78 273.11 L 525.66 272.02 L 526.55 271.06 L 527.4300000000001 270.26 L 528.3100000000001 269.62 L 529.19 269.14 L 530.07 268.83 L 530.95 268.7 L 531.83 268.73 L 532.71 268.93 L 533.59 269.27 L 534.47 269.76 L 535.35 270.37 L 536.23 271.09000000000003 L 537.11 271.88 L 537.99 272.74 L 538.87 273.63 L 539.75 274.53000000000003 L 540.63 275.42 L 541.51 276.28000000000003 L 542.39 277.07 L 543.27 277.79 L 544.15 278.42 L 545.03 278.93 L 545.91 279.33 L 546.79 279.61 L 547.67 279.76 L 548.5500000000001 279.79 L 549.4300000000001 279.71 L 550.3100000000001 279.51 L 551.19 279.21 L 552.07 278.82 L 552.95 278.35 L 553.83 277.83 L 554.71 277.25 L 555.59 276.64 L 556.47 276.01 L 557.35 275.37 L 558.23 274.73 L 559.11 274.1 L 559.99 273.48 L 560.87 272.88 L 561.75 272.3 L 562.63 271.74 L 563.51 271.21 L 564.39 270.7 L 565.27 270.2 L 566.15 269.73 L 567.03 269.26 L 567.91 268.82 L 568.79 268.38 L 569.67 267.97 L 570.5500000000001 267.57 L 571.4300000000001 267.2 L 572.3100000000001 266.87 L 573.19 266.57 L 574.07 266.33 L 574.95 266.14 L 575.83 266.03000000000003 L 576.71 266.0 L 577.59 266.06 L 578.47 266.21 L 579.35 266.47 L 580.23 266.83 L 581.11 267.31 L 581.99 267.89 L 582.87 268.59000000000003 L 583.75 269.39 L 584.63 270.28000000000003 L 585.51 271.28000000000003 L 586.39 272.36 L 587.27 273.53000000000003 L 588.15 274.77 L 589.03 276.07 L 589.91 277.43 L 590.79 278.84000000000003 L 591.67 280.29 L 592.5500000000001 281.77 L 593.4300000000001 283.27 L 594.3100000000001 284.77 L 595.19 286.28000000000003 L 596.07 287.77 L 596.95 289.24 L 597.83 290.69 L 598.71 292.09000000000003 L 599.59 293.45 L 600.47 294.76 L 601.35 296.02 L 602.23 297.21 L 603.11 298.34000000000003 L 603.99 299.41 L 604.87 300.42 L 605.75 301.37 L 606.64 302.26 L 607.52 303.1 L 608.4 303.89 L 609.28 304.64 L 610.16 305.34000000000003 L 611.04 306.01 L 611.92 306.63 L 612.8000000000001 307.23 L 613.6800000000001 307.8 L 614.5600000000001 308.33 L 615.44 308.84000000000003 L 616.32 309.32 L 617.2 309.77 L 618.08 310.2 L 618.96 310.59000000000003 L 619.84 310.96 L 620.72 311.31 L 621.6 311.63 L 622.48 311.92 L 623.36 312.18 L 624.24 312.42 L 625.12 312.64 L 626.0 312.84000000000003 L 626.88 313.01 L 627.76 313.16 L 628.64 313.3 L 629.52 313.41 L 630.4 313.51 L 631.28 313.6 L 632.16 313.67 L 633.04 313.74 L 633.92 313.79 L 634.8000000000001 313.83 L 635.6800000000001 313.87 L 636.5600000000001 313.89 L 637.44 313.92 L 638.32 313.94 L 639.2 313.95 L 640.08 313.96 L 640.96 313.97 L 641.84 313.98 L 642.72 313.99 L 643.6 313.99 L 643.6 314.0 L 468.46000000000004 314.0 Z" stroke="none" stroke-width="0" fill="#f0a830" fill-opacity="0.75" /><path d="M 468.46000000000004 313.99 L 469.34000000000003 313.98 L 470.22 313.98 L 471.1 313.97 L 471.98 313.96 L 472.86 313.95 L 473.74 313.93 L 474.62 313.91 L 475.5 313.89 L 476.38 313.86 L 477.26 313.82 L 478.14 313.77 L 479.02 313.72 L 479.90000000000003 313.65000000000003 L 480.78000000000003 313.58 L 481.66 313.49 L 482.54 313.39 L 483.42 313.28000000000003 L 484.3 313.15000000000003 L 485.18 313.01 L 486.06 312.85 L 486.94 312.67 L 487.82 312.48 L 488.7 312.27 L 489.58 312.05 L 490.46000000000004 311.81 L 491.34000000000003 311.55 L 492.22 311.28000000000003 L 493.1 310.99 L 493.98 310.68 L 494.86 310.35 L 495.74 310.0 L 496.62 309.62 L 497.5 309.21 L 498.38 308.78000000000003 L 499.26 308.31 L 500.14 307.8 L 501.02000000000004 307.25 L 501.90000000000003 306.65000000000003 L 502.78000000000003 306.0 L 503.66 305.29 L 504.54 304.51 L 505.42 303.68 L 506.3 302.77 L 507.18 301.8 L 508.06 300.75 L 508.94 299.63 L 509.82 298.43 L 510.7 297.17 L 511.58 295.83 L 512.46 294.43 L 513.34 292.97 L 514.22 291.45 L 515.1 289.89 L 515.98 288.29 L 516.86 286.66 L 517.74 285.02 L 518.62 283.38 L 519.5 281.74 L 520.38 280.14 L 521.26 278.58 L 522.14 277.08 L 523.02 275.66 L 523.9 274.33 L 524.78 273.11 L 525.66 272.02 L 526.55 271.06 L 527.4300000000001 270.26 L 528.3100000000001 269.62 L 529.19 269.14 L 530.07 268.83 L 530.95 268.7 L 531.83 268.73 L 532.71 268.93 L 533.59 269.27 L 534.47 269.76 L 535.35 270.37 L 536.23 271.09000000000003 L 537.11 271.88 L 537.99 272.74 L 538.87 273.63 L 539.75 274.53000000000003 L 540.63 275.42 L 541.51 276.28000000000003 L 542.39 277.07 L 543.27 277.79 L 544.15 278.42 L 545.03 278.93 L 545.91 279.33 L 546.79 279.61 L 547.67 279.76 L 548.5500000000001 279.79 L 549.4300000000001 279.71 L 550.3100000000001 279.51 L 551.19 279.21 L 552.07 278.82 L 552.95 278.35 L 553.83 277.83 L 554.71 277.25 L 555.59 276.64 L 556.47 276.01 L 557.35 275.37 L 558.23 274.73 L 559.11 274.1 L 559.99 273.48 L 560.87 272.88 L 561.75 272.3 L 562.63 271.74 L 563.51 271.21 L 564.39 270.7 L 565.27 270.2 L 566.15 269.73 L 567.03 269.26 L 567.91 268.82 L 568.79 268.38 L 569.67 267.97 L 570.5500000000001 267.57 L 571.4300000000001 267.2 L 572.3100000000001 266.87 L 573.19 266.57 L 574.07 266.33 L 574.95 266.14 L 575.83 266.03000000000003 L 576.71 266.0 L 577.59 266.06 L 578.47 266.21 L 579.35 266.47 L 580.23 266.83 L 581.11 267.31 L 581.99 267.89 L 582.87 268.59000000000003 L 583.75 269.39 L 584.63 270.28000000000003 L 585.51 271.28000000000003 L 586.39 272.36 L 587.27 273.53000000000003 L 588.15 274.77 L 589.03 276.07 L 589.91 277.43 L 590.79 278.84000000000003 L 591.67 280.29 L 592.5500000000001 281.77 L 593.4300000000001 283.27 L 594.3100000000001 284.77 L 595.19 286.28000000000003 L 596.07 287.77 L 596.95 289.24 L 597.83 290.69 L 598.71 292.09000000000003 L 599.59 293.45 L 600.47 294.76 L 601.35 296.02 L 602.23 297.21 L 603.11 298.34000000000003 L 603.99 299.41 L 604.87 300.42 L 605.75 301.37 L 606.64 302.26 L 607.52 303.1 L 608.4 303.89 L 609.28 304.64 L 610.16 305.34000000000003 L 611.04 306.01 L 611.92 306.63 L 612.8000000000001 307.23 L 613.6800000000001 307.8 L 614.5600000000001 308.33 L 615.44 308.84000000000003 L 616.32 309.32 L 617.2 309.77 L 618.08 310.2 L 618.96 310.59000000000003 L 619.84 310.96 L 620.72 311.31 L 621.6 311.63 L 622.48 311.92 L 623.36 312.18 L 624.24 312.42 L 625.12 312.64 L 626.0 312.84000000000003 L 626.88 313.01 L 627.76 313.16 L 628.64 313.3 L 629.52 313.41 L 630.4 313.51 L 631.28 313.6 L 632.16 313.67 L 633.04 313.74 L 633.92 313.79 L 634.8000000000001 313.83 L 635.6800000000001 313.87 L 636.5600000000001 313.89 L 637.44 313.92 L 638.32 313.94 L 639.2 313.95 L 640.08 313.96 L 640.96 313.97 L 641.84 313.98 L 642.72 313.99 L 643.6 313.99" stroke="#f0a830" stroke-width="1.5" fill="none" /><line x1="99.8" y1="344" x2="699.8000000000001" y2="344" stroke="#000000" stroke-width="0.5" /><path d="M 453.37 343.99 L 454.26 343.99 L 455.15000000000003 343.98 L 456.04 343.98 L 456.92 343.97 L 457.81 343.96 L 458.7 343.95 L 459.59000000000003 343.94 L 460.48 343.92 L 461.36 343.90000000000003 L 462.25 343.88 L 463.14 343.85 L 464.03000000000003 343.82 L 464.91 343.79 L 465.8 343.75 L 466.69 343.71 L 467.58 343.66 L 468.47 343.6 L 469.35 343.55 L 470.24 343.49 L 471.13 343.42 L 472.02 343.35 L 472.90000000000003 343.28000000000003 L 473.79 343.21 L 474.68 343.13 L 475.57 343.05 L 476.46000000000004 342.96 L 477.34000000000003 342.87 L 478.23 342.77 L 479.12 342.67 L 480.01 342.55 L 480.89 342.42 L 481.78000000000003 342.28000000000003 L 482.67 342.11 L 483.56 341.93 L 484.44 341.71 L 485.33 341.47 L 486.22 341.2 L 487.11 340.90000000000003 L 488.0 340.56 L 488.88 340.18 L 489.77 339.76 L 490.66 339.3 L 491.55 338.8 L 492.43 338.25 L 493.32 337.66 L 494.21000000000004 337.02 L 495.1 336.33 L 495.99 335.6 L 496.87 334.81 L 497.76 333.98 L 498.65000000000003 333.1 L 499.54 332.17 L 500.42 331.18 L 501.31 330.15000000000003 L 502.2 329.06 L 503.09000000000003 327.93 L 503.98 326.75 L 504.86 325.52 L 505.75 324.26 L 506.64 322.97 L 507.53000000000003 321.66 L 508.41 320.34000000000003 L 509.3 319.02 L 510.19 317.71 L 511.08 316.43 L 511.97 315.19 L 512.85 314.02 L 513.74 312.91 L 514.63 311.89 L 515.52 310.97 L 516.4 310.16 L 517.29 309.45 L 518.1800000000001 308.87 L 519.07 308.40000000000003 L 519.95 308.05 L 520.84 307.81 L 521.73 307.67 L 522.62 307.64 L 523.51 307.69 L 524.39 307.82 L 525.28 308.02 L 526.17 308.27 L 527.0600000000001 308.57 L 527.94 308.91 L 528.83 309.27 L 529.72 309.65000000000003 L 530.61 310.05 L 531.5 310.45 L 532.38 310.85 L 533.27 311.25 L 534.16 311.64 L 535.05 312.02 L 535.9300000000001 312.37 L 536.82 312.71 L 537.71 313.03000000000003 L 538.6 313.31 L 539.49 313.56 L 540.37 313.78000000000003 L 541.26 313.95 L 542.15 314.08 L 543.04 314.17 L 543.92 314.2 L 544.8100000000001 314.18 L 545.7 314.1 L 546.59 313.96 L 547.47 313.77 L 548.36 313.52 L 549.25 313.2 L 550.14 312.83 L 551.03 312.40000000000003 L 551.91 311.91 L 552.8000000000001 311.36 L 553.69 310.75 L 554.58 310.1 L 555.46 309.40000000000003 L 556.35 308.65000000000003 L 557.24 307.87 L 558.13 307.05 L 559.02 306.22 L 559.9 305.36 L 560.79 304.49 L 561.6800000000001 303.61 L 562.57 302.74 L 563.45 301.88 L 564.34 301.03000000000003 L 565.23 300.22 L 566.12 299.44 L 567.01 298.72 L 567.89 298.05 L 568.78 297.45 L 569.67 296.94 L 570.5600000000001 296.52 L 571.44 296.22 L 572.33 296.04 L 573.22 296.0 L 574.11 296.11 L 574.99 296.38 L 575.88 296.82 L 576.77 297.44 L 577.66 298.22 L 578.5500000000001 299.19 L 579.4300000000001 300.32 L 580.32 301.61 L 581.21 303.05 L 582.1 304.62 L 582.98 306.3 L 583.87 308.07 L 584.76 309.91 L 585.65 311.8 L 586.54 313.71 L 587.42 315.62 L 588.3100000000001 317.51 L 589.2 319.37 L 590.09 321.18 L 590.97 322.92 L 591.86 324.58 L 592.75 326.16 L 593.64 327.66 L 594.53 329.06 L 595.41 330.37 L 596.3000000000001 331.59000000000003 L 597.19 332.72 L 598.08 333.77 L 598.96 334.74 L 599.85 335.63 L 600.74 336.45 L 601.63 337.21 L 602.51 337.91 L 603.4 338.55 L 604.29 339.14 L 605.1800000000001 339.68 L 606.07 340.18 L 606.95 340.63 L 607.84 341.05 L 608.73 341.42 L 609.62 341.76 L 610.5 342.07 L 611.39 342.34000000000003 L 612.28 342.59000000000003 L 613.17 342.8 L 614.0600000000001 342.99 L 614.94 343.16 L 615.83 343.3 L 616.72 343.42 L 617.61 343.53000000000003 L 618.49 343.62 L 619.38 343.69 L 620.27 343.76 L 621.16 343.81 L 622.0500000000001 343.85 L 622.9300000000001 343.88 L 623.82 343.91 L 624.71 343.93 L 625.6 343.95 L 626.48 343.96 L 627.37 343.97 L 628.26 343.98 L 629.15 343.98 L 630.03 343.99 L 630.03 344.0 L 453.37 344.0 Z" stroke="none" stroke-width="0" fill="#e86820" fill-opacity="0.75" /><path d="M 453.37 343.99 L 454.26 343.99 L 455.15000000000003 343.98 L 456.04 343.98 L 456.92 343.97 L 457.81 343.96 L 458.7 343.95 L 459.59000000000003 343.94 L 460.48 343.92 L 461.36 343.90000000000003 L 462.25 343.88 L 463.14 343.85 L 464.03000000000003 343.82 L 464.91 343.79 L 465.8 343.75 L 466.69 343.71 L 467.58 343.66 L 468.47 343.6 L 469.35 343.55 L 470.24 343.49 L 471.13 343.42 L 472.02 343.35 L 472.90000000000003 343.28000000000003 L 473.79 343.21 L 474.68 343.13 L 475.57 343.05 L 476.46000000000004 342.96 L 477.34000000000003 342.87 L 478.23 342.77 L 479.12 342.67 L 480.01 342.55 L 480.89 342.42 L 481.78000000000003 342.28000000000003 L 482.67 342.11 L 483.56 341.93 L 484.44 341.71 L 485.33 341.47 L 486.22 341.2 L 487.11 340.90000000000003 L 488.0 340.56 L 488.88 340.18 L 489.77 339.76 L 490.66 339.3 L 491.55 338.8 L 492.43 338.25 L 493.32 337.66 L 494.21000000000004 337.02 L 495.1 336.33 L 495.99 335.6 L 496.87 334.81 L 497.76 333.98 L 498.65000000000003 333.1 L 499.54 332.17 L 500.42 331.18 L 501.31 330.15000000000003 L 502.2 329.06 L 503.09000000000003 327.93 L 503.98 326.75 L 504.86 325.52 L 505.75 324.26 L 506.64 322.97 L 507.53000000000003 321.66 L 508.41 320.34000000000003 L 509.3 319.02 L 510.19 317.71 L 511.08 316.43 L 511.97 315.19 L 512.85 314.02 L 513.74 312.91 L 514.63 311.89 L 515.52 310.97 L 516.4 310.16 L 517.29 309.45 L 518.1800000000001 308.87 L 519.07 308.40000000000003 L 519.95 308.05 L 520.84 307.81 L 521.73 307.67 L 522.62 307.64 L 523.51 307.69 L 524.39 307.82 L 525.28 308.02 L 526.17 308.27 L 527.0600000000001 308.57 L 527.94 308.91 L 528.83 309.27 L 529.72 309.65000000000003 L 530.61 310.05 L 531.5 310.45 L 532.38 310.85 L 533.27 311.25 L 534.16 311.64 L 535.05 312.02 L 535.9300000000001 312.37 L 536.82 312.71 L 537.71 313.03000000000003 L 538.6 313.31 L 539.49 313.56 L 540.37 313.78000000000003 L 541.26 313.95 L 542.15 314.08 L 543.04 314.17 L 543.92 314.2 L 544.8100000000001 314.18 L 545.7 314.1 L 546.59 313.96 L 547.47 313.77 L 548.36 313.52 L 549.25 313.2 L 550.14 312.83 L 551.03 312.40000000000003 L 551.91 311.91 L 552.8000000000001 311.36 L 553.69 310.75 L 554.58 310.1 L 555.46 309.40000000000003 L 556.35 308.65000000000003 L 557.24 307.87 L 558.13 307.05 L 559.02 306.22 L 559.9 305.36 L 560.79 304.49 L 561.6800000000001 303.61 L 562.57 302.74 L 563.45 301.88 L 564.34 301.03000000000003 L 565.23 300.22 L 566.12 299.44 L 567.01 298.72 L 567.89 298.05 L 568.78 297.45 L 569.67 296.94 L 570.5600000000001 296.52 L 571.44 296.22 L 572.33 296.04 L 573.22 296.0 L 574.11 296.11 L 574.99 296.38 L 575.88 296.82 L 576.77 297.44 L 577.66 298.22 L 578.5500000000001 299.19 L 579.4300000000001 300.32 L 580.32 301.61 L 581.21 303.05 L 582.1 304.62 L 582.98 306.3 L 583.87 308.07 L 584.76 309.91 L 585.65 311.8 L 586.54 313.71 L 587.42 315.62 L 588.3100000000001 317.51 L 589.2 319.37 L 590.09 321.18 L 590.97 322.92 L 591.86 324.58 L 592.75 326.16 L 593.64 327.66 L 594.53 329.06 L 595.41 330.37 L 596.3000000000001 331.59000000000003 L 597.19 332.72 L 598.08 333.77 L 598.96 334.74 L 599.85 335.63 L 600.74 336.45 L 601.63 337.21 L 602.51 337.91 L 603.4 338.55 L 604.29 339.14 L 605.1800000000001 339.68 L 606.07 340.18 L 606.95 340.63 L 607.84 341.05 L 608.73 341.42 L 609.62 341.76 L 610.5 342.07 L 611.39 342.34000000000003 L 612.28 342.59000000000003 L 613.17 342.8 L 614.0600000000001 342.99 L 614.94 343.16 L 615.83 343.3 L 616.72 343.42 L 617.61 343.53000000000003 L 618.49 343.62 L 619.38 343.69 L 620.27 343.76 L 621.16 343.81 L 622.0500000000001 343.85 L 622.9300000000001 343.88 L 623.82 343.91 L 624.71 343.93 L 625.6 343.95 L 626.48 343.96 L 627.37 343.97 L 628.26 343.98 L 629.15 343.98 L 630.03 343.99" stroke="#e86820" stroke-width="1.5" fill="none" /><line x1="99.8" y1="374" x2="699.8000000000001" y2="374" stroke="#000000" stroke-width="0.5" /><path d="M 403.6 373.98 L 404.62 373.97 L 405.64 373.96 L 406.67 373.95 L 407.69 373.93 L 408.71000000000004 373.91 L 409.73 373.88 L 410.76 373.85 L 411.78000000000003 373.81 L 412.8 373.76 L 413.82 373.69 L 414.85 373.62 L 415.87 373.53000000000003 L 416.89 373.43 L 417.92 373.3 L 418.94 373.16 L 419.96000000000004 373.0 L 420.98 372.81 L 422.01 372.6 L 423.03000000000003 372.36 L 424.05 372.1 L 425.08 371.81 L 426.1 371.5 L 427.12 371.15000000000003 L 428.14 370.78000000000003 L 429.17 370.38 L 430.19 369.96 L 431.21000000000004 369.51 L 432.23 369.03000000000003 L 433.26 368.53000000000003 L 434.28000000000003 368.01 L 435.3 367.46 L 436.33 366.89 L 437.35 366.3 L 438.37 365.69 L 439.39 365.07 L 440.42 364.41 L 441.44 363.74 L 442.46000000000004 363.05 L 443.49 362.33 L 444.51 361.58 L 445.53000000000003 360.81 L 446.55 360.01 L 447.58 359.18 L 448.6 358.32 L 449.62 357.42 L 450.64 356.48 L 451.67 355.51 L 452.69 354.5 L 453.71000000000004 353.46 L 454.74 352.39 L 455.76 351.28000000000003 L 456.78000000000003 350.16 L 457.8 349.03000000000003 L 458.83 347.89 L 459.85 346.76 L 460.87 345.65000000000003 L 461.89 344.57 L 462.92 343.54 L 463.94 342.57 L 464.96000000000004 341.67 L 465.99 340.86 L 467.01 340.15000000000003 L 468.03000000000003 339.54 L 469.05 339.04 L 470.08 338.66 L 471.1 338.39 L 472.12 338.24 L 473.15000000000003 338.19 L 474.17 338.24 L 475.19 338.38 L 476.21000000000004 338.58 L 477.24 338.85 L 478.26 339.15000000000003 L 479.28000000000003 339.49 L 480.3 339.83 L 481.33 340.18 L 482.35 340.5 L 483.37 340.81 L 484.40000000000003 341.08 L 485.42 341.32 L 486.44 341.52 L 487.46000000000004 341.67 L 488.49 341.78000000000003 L 489.51 341.86 L 490.53000000000003 341.91 L 491.56 341.92 L 492.58 341.91 L 493.6 341.88 L 494.62 341.84000000000003 L 495.65000000000003 341.78000000000003 L 496.67 341.72 L 497.69 341.66 L 498.71000000000004 341.59000000000003 L 499.74 341.52 L 500.76 341.44 L 501.78000000000003 341.36 L 502.81 341.27 L 503.83 341.17 L 504.85 341.05 L 505.87 340.91 L 506.90000000000003 340.74 L 507.92 340.54 L 508.94 340.3 L 509.97 340.01 L 510.99 339.68 L 512.01 339.29 L 513.03 338.84000000000003 L 514.0600000000001 338.33 L 515.08 337.75 L 516.1 337.11 L 517.12 336.40000000000003 L 518.15 335.62 L 519.17 334.79 L 520.19 333.92 L 521.22 333.0 L 522.24 332.07 L 523.26 331.13 L 524.28 330.2 L 525.3100000000001 329.32 L 526.33 328.49 L 527.35 327.74 L 528.38 327.1 L 529.4 326.58 L 530.42 326.22 L 531.44 326.02 L 532.47 326.0 L 533.49 326.17 L 534.51 326.53000000000003 L 535.53 327.09000000000003 L 536.5600000000001 327.84000000000003 L 537.58 328.77 L 538.6 329.87 L 539.63 331.12 L 540.65 332.5 L 541.67 333.98 L 542.69 335.55 L 543.72 337.18 L 544.74 338.85 L 545.76 340.53000000000003 L 546.78 342.21 L 547.8100000000001 343.86 L 548.83 345.49 L 549.85 347.07 L 550.88 348.59000000000003 L 551.9 350.06 L 552.92 351.47 L 553.94 352.81 L 554.97 354.1 L 555.99 355.33 L 557.01 356.51 L 558.04 357.64 L 559.0600000000001 358.72 L 560.08 359.75 L 561.1 360.75 L 562.13 361.7 L 563.15 362.61 L 564.17 363.48 L 565.19 364.32 L 566.22 365.11 L 567.24 365.86 L 568.26 366.58 L 569.29 367.25 L 570.3100000000001 367.88 L 571.33 368.47 L 572.35 369.01 L 573.38 369.52 L 574.4 369.99 L 575.42 370.41 L 576.45 370.81 L 577.47 371.16 L 578.49 371.49 L 579.51 371.78000000000003 L 580.54 372.05 L 581.5600000000001 372.29 L 582.58 372.5 L 583.6 372.7 L 584.63 372.87 L 585.65 373.03000000000003 L 586.67 373.16 L 587.7 373.28000000000003 L 588.72 373.39 L 589.74 373.49 L 590.76 373.57 L 591.79 373.64 L 592.8100000000001 373.7 L 593.83 373.75 L 594.86 373.8 L 595.88 373.84000000000003 L 596.9 373.87 L 597.92 373.90000000000003 L 598.95 373.92 L 599.97 373.94 L 600.99 373.95 L 602.01 373.96 L 603.04 373.97 L 604.0600000000001 373.98 L 605.08 373.98 L 606.11 373.99 L 607.13 373.99 L 607.13 374.0 L 403.6 374.0 Z" stroke="none" stroke-width="0" fill="#d44a10" fill-opacity="0.75" /><path d="M 403.6 373.98 L 404.62 373.97 L 405.64 373.96 L 406.67 373.95 L 407.69 373.93 L 408.71000000000004 373.91 L 409.73 373.88 L 410.76 373.85 L 411.78000000000003 373.81 L 412.8 373.76 L 413.82 373.69 L 414.85 373.62 L 415.87 373.53000000000003 L 416.89 373.43 L 417.92 373.3 L 418.94 373.16 L 419.96000000000004 373.0 L 420.98 372.81 L 422.01 372.6 L 423.03000000000003 372.36 L 424.05 372.1 L 425.08 371.81 L 426.1 371.5 L 427.12 371.15000000000003 L 428.14 370.78000000000003 L 429.17 370.38 L 430.19 369.96 L 431.21000000000004 369.51 L 432.23 369.03000000000003 L 433.26 368.53000000000003 L 434.28000000000003 368.01 L 435.3 367.46 L 436.33 366.89 L 437.35 366.3 L 438.37 365.69 L 439.39 365.07 L 440.42 364.41 L 441.44 363.74 L 442.46000000000004 363.05 L 443.49 362.33 L 444.51 361.58 L 445.53000000000003 360.81 L 446.55 360.01 L 447.58 359.18 L 448.6 358.32 L 449.62 357.42 L 450.64 356.48 L 451.67 355.51 L 452.69 354.5 L 453.71000000000004 353.46 L 454.74 352.39 L 455.76 351.28000000000003 L 456.78000000000003 350.16 L 457.8 349.03000000000003 L 458.83 347.89 L 459.85 346.76 L 460.87 345.65000000000003 L 461.89 344.57 L 462.92 343.54 L 463.94 342.57 L 464.96000000000004 341.67 L 465.99 340.86 L 467.01 340.15000000000003 L 468.03000000000003 339.54 L 469.05 339.04 L 470.08 338.66 L 471.1 338.39 L 472.12 338.24 L 473.15000000000003 338.19 L 474.17 338.24 L 475.19 338.38 L 476.21000000000004 338.58 L 477.24 338.85 L 478.26 339.15000000000003 L 479.28000000000003 339.49 L 480.3 339.83 L 481.33 340.18 L 482.35 340.5 L 483.37 340.81 L 484.40000000000003 341.08 L 485.42 341.32 L 486.44 341.52 L 487.46000000000004 341.67 L 488.49 341.78000000000003 L 489.51 341.86 L 490.53000000000003 341.91 L 491.56 341.92 L 492.58 341.91 L 493.6 341.88 L 494.62 341.84000000000003 L 495.65000000000003 341.78000000000003 L 496.67 341.72 L 497.69 341.66 L 498.71000000000004 341.59000000000003 L 499.74 341.52 L 500.76 341.44 L 501.78000000000003 341.36 L 502.81 341.27 L 503.83 341.17 L 504.85 341.05 L 505.87 340.91 L 506.90000000000003 340.74 L 507.92 340.54 L 508.94 340.3 L 509.97 340.01 L 510.99 339.68 L 512.01 339.29 L 513.03 338.84000000000003 L 514.0600000000001 338.33 L 515.08 337.75 L 516.1 337.11 L 517.12 336.40000000000003 L 518.15 335.62 L 519.17 334.79 L 520.19 333.92 L 521.22 333.0 L 522.24 332.07 L 523.26 331.13 L 524.28 330.2 L 525.3100000000001 329.32 L 526.33 328.49 L 527.35 327.74 L 528.38 327.1 L 529.4 326.58 L 530.42 326.22 L 531.44 326.02 L 532.47 326.0 L 533.49 326.17 L 534.51 326.53000000000003 L 535.53 327.09000000000003 L 536.5600000000001 327.84000000000003 L 537.58 328.77 L 538.6 329.87 L 539.63 331.12 L 540.65 332.5 L 541.67 333.98 L 542.69 335.55 L 543.72 337.18 L 544.74 338.85 L 545.76 340.53000000000003 L 546.78 342.21 L 547.8100000000001 343.86 L 548.83 345.49 L 549.85 347.07 L 550.88 348.59000000000003 L 551.9 350.06 L 552.92 351.47 L 553.94 352.81 L 554.97 354.1 L 555.99 355.33 L 557.01 356.51 L 558.04 357.64 L 559.0600000000001 358.72 L 560.08 359.75 L 561.1 360.75 L 562.13 361.7 L 563.15 362.61 L 564.17 363.48 L 565.19 364.32 L 566.22 365.11 L 567.24 365.86 L 568.26 366.58 L 569.29 367.25 L 570.3100000000001 367.88 L 571.33 368.47 L 572.35 369.01 L 573.38 369.52 L 574.4 369.99 L 575.42 370.41 L 576.45 370.81 L 577.47 371.16 L 578.49 371.49 L 579.51 371.78000000000003 L 580.54 372.05 L 581.5600000000001 372.29 L 582.58 372.5 L 583.6 372.7 L 584.63 372.87 L 585.65 373.03000000000003 L 586.67 373.16 L 587.7 373.28000000000003 L 588.72 373.39 L 589.74 373.49 L 590.76 373.57 L 591.79 373.64 L 592.8100000000001 373.7 L 593.83 373.75 L 594.86 373.8 L 595.88 373.84000000000003 L 596.9 373.87 L 597.92 373.90000000000003 L 598.95 373.92 L 599.97 373.94 L 600.99 373.95 L 602.01 373.96 L 603.04 373.97 L 604.0600000000001 373.98 L 605.08 373.98 L 606.11 373.99 L 607.13 373.99" stroke="#d44a10" stroke-width="1.5" fill="none" /><line x1="99.8" y1="404" x2="699.8000000000001" y2="404" stroke="#000000" stroke-width="0.5" /><path d="M 311.29 403.98 L 312.7 403.97 L 314.1 403.96000000000004 L 315.51 403.95 L 316.92 403.94 L 318.32 403.92 L 319.73 403.90000000000003 L 321.14 403.87 L 322.54 403.83 L 323.95 403.79 L 325.36 403.74 L 326.76 403.68 L 328.17 403.61 L 329.58 403.53000000000003 L 330.98 403.43 L 332.39 403.32 L 333.79 403.2 L 335.2 403.06 L 336.61 402.90000000000003 L 338.01 402.72 L 339.42 402.53000000000003 L 340.83 402.31 L 342.23 402.08 L 343.64 401.82 L 345.05 401.54 L 346.45 401.24 L 347.86 400.91 L 349.27 400.56 L 350.67 400.17 L 352.08 399.75 L 353.49 399.29 L 354.89 398.79 L 356.3 398.25 L 357.71 397.66 L 359.11 397.01 L 360.52 396.31 L 361.93 395.54 L 363.33 394.7 L 364.74 393.79 L 366.15000000000003 392.81 L 367.55 391.76 L 368.96 390.63 L 370.37 389.43 L 371.77 388.16 L 373.18 386.82 L 374.58 385.43 L 375.99 383.99 L 377.40000000000003 382.5 L 378.8 381.0 L 380.21 379.48 L 381.62 377.96 L 383.02 376.46 L 384.43 375.0 L 385.84000000000003 373.58 L 387.24 372.24 L 388.65000000000003 370.98 L 390.06 369.82 L 391.46000000000004 368.77 L 392.87 367.85 L 394.28000000000003 367.06 L 395.68 366.42 L 397.09000000000003 365.94 L 398.5 365.6 L 399.90000000000003 365.43 L 401.31 365.40000000000003 L 402.72 365.52 L 404.12 365.78000000000003 L 405.53000000000003 366.18 L 406.94 366.69 L 408.34000000000003 367.3 L 409.75 368.0 L 411.16 368.78000000000003 L 412.56 369.61 L 413.97 370.48 L 415.37 371.38 L 416.78000000000003 372.28000000000003 L 418.19 373.16 L 419.59000000000003 374.03000000000003 L 421.0 374.86 L 422.41 375.64 L 423.81 376.36 L 425.22 377.02 L 426.63 377.61 L 428.03000000000003 378.12 L 429.44 378.55 L 430.85 378.90000000000003 L 432.25 379.18 L 433.66 379.37 L 435.07 379.49 L 436.47 379.53000000000003 L 437.88 379.51 L 439.29 379.42 L 440.69 379.27 L 442.1 379.07 L 443.51 378.83 L 444.91 378.53000000000003 L 446.32 378.2 L 447.73 377.83 L 449.13 377.42 L 450.54 376.99 L 451.95 376.51 L 453.35 376.01 L 454.76 375.46 L 456.16 374.88 L 457.57 374.26 L 458.98 373.59000000000003 L 460.38 372.88 L 461.79 372.12 L 463.2 371.3 L 464.6 370.44 L 466.01 369.53000000000003 L 467.42 368.58 L 468.82 367.58 L 470.23 366.56 L 471.64 365.51 L 473.04 364.44 L 474.45 363.38 L 475.86 362.34000000000003 L 477.26 361.32 L 478.67 360.35 L 480.08 359.44 L 481.48 358.6 L 482.89 357.86 L 484.3 357.23 L 485.7 356.72 L 487.11 356.33 L 488.52 356.09000000000003 L 489.92 356.0 L 491.33 356.06 L 492.74 356.28000000000003 L 494.14 356.65000000000003 L 495.55 357.18 L 496.95 357.86 L 498.36 358.69 L 499.77000000000004 359.65000000000003 L 501.17 360.74 L 502.58 361.94 L 503.99 363.24 L 505.39 364.64 L 506.8 366.12 L 508.21000000000004 367.66 L 509.61 369.25 L 511.02000000000004 370.88 L 512.4300000000001 372.54 L 513.83 374.21 L 515.24 375.88 L 516.65 377.55 L 518.05 379.2 L 519.46 380.82 L 520.87 382.40000000000003 L 522.27 383.94 L 523.6800000000001 385.43 L 525.09 386.86 L 526.49 388.23 L 527.9 389.53000000000003 L 529.3100000000001 390.77 L 530.71 391.93 L 532.12 393.02 L 533.53 394.04 L 534.9300000000001 394.98 L 536.34 395.85 L 537.74 396.65000000000003 L 539.15 397.38 L 540.5600000000001 398.05 L 541.96 398.66 L 543.37 399.21000000000004 L 544.78 399.72 L 546.1800000000001 400.17 L 547.59 400.58 L 549.0 400.95 L 550.4 401.29 L 551.8100000000001 401.59000000000003 L 553.22 401.86 L 554.62 402.11 L 556.03 402.33 L 557.44 402.53000000000003 L 558.84 402.72 L 560.25 402.88 L 561.66 403.03000000000003 L 563.0600000000001 403.16 L 564.47 403.28000000000003 L 565.88 403.38 L 567.28 403.48 L 568.69 403.56 L 570.1 403.63 L 571.5 403.69 L 572.91 403.75 L 574.3100000000001 403.79 L 575.72 403.83 L 577.13 403.86 L 578.53 403.89 L 579.94 403.91 L 581.35 403.93 L 582.75 403.95 L 584.16 403.96000000000004 L 585.57 403.97 L 586.97 403.98 L 588.38 403.98 L 589.79 403.99 L 591.19 403.99 L 591.19 404.0 L 311.29 404.0 Z" stroke="none" stroke-width="0" fill="#c06030" fill-opacity="0.75" /><path d="M 311.29 403.98 L 312.7 403.97 L 314.1 403.96000000000004 L 315.51 403.95 L 316.92 403.94 L 318.32 403.92 L 319.73 403.90000000000003 L 321.14 403.87 L 322.54 403.83 L 323.95 403.79 L 325.36 403.74 L 326.76 403.68 L 328.17 403.61 L 329.58 403.53000000000003 L 330.98 403.43 L 332.39 403.32 L 333.79 403.2 L 335.2 403.06 L 336.61 402.90000000000003 L 338.01 402.72 L 339.42 402.53000000000003 L 340.83 402.31 L 342.23 402.08 L 343.64 401.82 L 345.05 401.54 L 346.45 401.24 L 347.86 400.91 L 349.27 400.56 L 350.67 400.17 L 352.08 399.75 L 353.49 399.29 L 354.89 398.79 L 356.3 398.25 L 357.71 397.66 L 359.11 397.01 L 360.52 396.31 L 361.93 395.54 L 363.33 394.7 L 364.74 393.79 L 366.15000000000003 392.81 L 367.55 391.76 L 368.96 390.63 L 370.37 389.43 L 371.77 388.16 L 373.18 386.82 L 374.58 385.43 L 375.99 383.99 L 377.40000000000003 382.5 L 378.8 381.0 L 380.21 379.48 L 381.62 377.96 L 383.02 376.46 L 384.43 375.0 L 385.84000000000003 373.58 L 387.24 372.24 L 388.65000000000003 370.98 L 390.06 369.82 L 391.46000000000004 368.77 L 392.87 367.85 L 394.28000000000003 367.06 L 395.68 366.42 L 397.09000000000003 365.94 L 398.5 365.6 L 399.90000000000003 365.43 L 401.31 365.40000000000003 L 402.72 365.52 L 404.12 365.78000000000003 L 405.53000000000003 366.18 L 406.94 366.69 L 408.34000000000003 367.3 L 409.75 368.0 L 411.16 368.78000000000003 L 412.56 369.61 L 413.97 370.48 L 415.37 371.38 L 416.78000000000003 372.28000000000003 L 418.19 373.16 L 419.59000000000003 374.03000000000003 L 421.0 374.86 L 422.41 375.64 L 423.81 376.36 L 425.22 377.02 L 426.63 377.61 L 428.03000000000003 378.12 L 429.44 378.55 L 430.85 378.90000000000003 L 432.25 379.18 L 433.66 379.37 L 435.07 379.49 L 436.47 379.53000000000003 L 437.88 379.51 L 439.29 379.42 L 440.69 379.27 L 442.1 379.07 L 443.51 378.83 L 444.91 378.53000000000003 L 446.32 378.2 L 447.73 377.83 L 449.13 377.42 L 450.54 376.99 L 451.95 376.51 L 453.35 376.01 L 454.76 375.46 L 456.16 374.88 L 457.57 374.26 L 458.98 373.59000000000003 L 460.38 372.88 L 461.79 372.12 L 463.2 371.3 L 464.6 370.44 L 466.01 369.53000000000003 L 467.42 368.58 L 468.82 367.58 L 470.23 366.56 L 471.64 365.51 L 473.04 364.44 L 474.45 363.38 L 475.86 362.34000000000003 L 477.26 361.32 L 478.67 360.35 L 480.08 359.44 L 481.48 358.6 L 482.89 357.86 L 484.3 357.23 L 485.7 356.72 L 487.11 356.33 L 488.52 356.09000000000003 L 489.92 356.0 L 491.33 356.06 L 492.74 356.28000000000003 L 494.14 356.65000000000003 L 495.55 357.18 L 496.95 357.86 L 498.36 358.69 L 499.77000000000004 359.65000000000003 L 501.17 360.74 L 502.58 361.94 L 503.99 363.24 L 505.39 364.64 L 506.8 366.12 L 508.21000000000004 367.66 L 509.61 369.25 L 511.02000000000004 370.88 L 512.4300000000001 372.54 L 513.83 374.21 L 515.24 375.88 L 516.65 377.55 L 518.05 379.2 L 519.46 380.82 L 520.87 382.40000000000003 L 522.27 383.94 L 523.6800000000001 385.43 L 525.09 386.86 L 526.49 388.23 L 527.9 389.53000000000003 L 529.3100000000001 390.77 L 530.71 391.93 L 532.12 393.02 L 533.53 394.04 L 534.9300000000001 394.98 L 536.34 395.85 L 537.74 396.65000000000003 L 539.15 397.38 L 540.5600000000001 398.05 L 541.96 398.66 L 543.37 399.21000000000004 L 544.78 399.72 L 546.1800000000001 400.17 L 547.59 400.58 L 549.0 400.95 L 550.4 401.29 L 551.8100000000001 401.59000000000003 L 553.22 401.86 L 554.62 402.11 L 556.03 402.33 L 557.44 402.53000000000003 L 558.84 402.72 L 560.25 402.88 L 561.66 403.03000000000003 L 563.0600000000001 403.16 L 564.47 403.28000000000003 L 565.88 403.38 L 567.28 403.48 L 568.69 403.56 L 570.1 403.63 L 571.5 403.69 L 572.91 403.75 L 574.3100000000001 403.79 L 575.72 403.83 L 577.13 403.86 L 578.53 403.89 L 579.94 403.91 L 581.35 403.93 L 582.75 403.95 L 584.16 403.96000000000004 L 585.57 403.97 L 586.97 403.98 L 588.38 403.98 L 589.79 403.99 L 591.19 403.99" stroke="#c06030" stroke-width="1.5" fill="none" /><line x1="99.8" y1="434" x2="699.8000000000001" y2="434" stroke="#000000" stroke-width="0.5" /><path d="M 223.88 433.99 L 225.62 433.98 L 227.36 433.98 L 229.11 433.97 L 230.85 433.96000000000004 L 232.59 433.94 L 234.34 433.92 L 236.08 433.90000000000003 L 237.82 433.87 L 239.57 433.83 L 241.31 433.79 L 243.05 433.74 L 244.8 433.67 L 246.54 433.6 L 248.28 433.51 L 250.03 433.40000000000003 L 251.77 433.28000000000003 L 253.51000000000002 433.14 L 255.26000000000002 432.99 L 257.0 432.81 L 258.74 432.61 L 260.49 432.39 L 262.23 432.14 L 263.97 431.87 L 265.72 431.57 L 267.46 431.25 L 269.2 430.90000000000003 L 270.95 430.52 L 272.69 430.11 L 274.43 429.67 L 276.18 429.2 L 277.92 428.68 L 279.66 428.13 L 281.41 427.53000000000003 L 283.15000000000003 426.89 L 284.89 426.2 L 286.64 425.46000000000004 L 288.38 424.65000000000003 L 290.12 423.79 L 291.87 422.86 L 293.61 421.86 L 295.35 420.78000000000003 L 297.1 419.64 L 298.84000000000003 418.42 L 300.58 417.13 L 302.33 415.76 L 304.07 414.32 L 305.81 412.82 L 307.56 411.26 L 309.3 409.64 L 311.04 407.97 L 312.79 406.27 L 314.53000000000003 404.55 L 316.27 402.82 L 318.02 401.1 L 319.76 399.41 L 321.51 397.75 L 323.25 396.15000000000003 L 324.99 394.63 L 326.74 393.2 L 328.48 391.87 L 330.22 390.67 L 331.97 389.59000000000003 L 333.71 388.66 L 335.45 387.87 L 337.2 387.22 L 338.94 386.72 L 340.68 386.36 L 342.43 386.13 L 344.17 386.01 L 345.91 386.0 L 347.66 386.08 L 349.40000000000003 386.23 L 351.14 386.45 L 352.89 386.7 L 354.63 386.99 L 356.37 387.29 L 358.12 387.61 L 359.86 387.93 L 361.6 388.25 L 363.35 388.57 L 365.09000000000003 388.89 L 366.83 389.2 L 368.58 389.53000000000003 L 370.32 389.87 L 372.06 390.22 L 373.81 390.59000000000003 L 375.55 390.98 L 377.29 391.39 L 379.04 391.81 L 380.78000000000003 392.25 L 382.52 392.69 L 384.27 393.13 L 386.01 393.54 L 387.75 393.92 L 389.5 394.26 L 391.24 394.53000000000003 L 392.98 394.72 L 394.73 394.83 L 396.47 394.85 L 398.21000000000004 394.77 L 399.96000000000004 394.59000000000003 L 401.7 394.32 L 403.44 393.96000000000004 L 405.19 393.54 L 406.93 393.05 L 408.67 392.53000000000003 L 410.42 391.99 L 412.16 391.46000000000004 L 413.90000000000003 390.95 L 415.65000000000003 390.5 L 417.39 390.11 L 419.14 389.81 L 420.88 389.6 L 422.62 389.51 L 424.37 389.52 L 426.11 389.65000000000003 L 427.85 389.89 L 429.6 390.24 L 431.34000000000003 390.68 L 433.08 391.2 L 434.83 391.8 L 436.57 392.44 L 438.31 393.13 L 440.06 393.84000000000003 L 441.8 394.56 L 443.54 395.28000000000003 L 445.29 396.0 L 447.03000000000003 396.7 L 448.77 397.38 L 450.52 398.04 L 452.26 398.7 L 454.0 399.34000000000003 L 455.75 399.98 L 457.49 400.63 L 459.23 401.29 L 460.98 401.97 L 462.72 402.68 L 464.46000000000004 403.43 L 466.21000000000004 404.23 L 467.95 405.07 L 469.69 405.95 L 471.44 406.89 L 473.18 407.87 L 474.92 408.89 L 476.67 409.95 L 478.41 411.03000000000003 L 480.15000000000003 412.14 L 481.90000000000003 413.26 L 483.64 414.38 L 485.38 415.5 L 487.13 416.61 L 488.87 417.71000000000004 L 490.61 418.78000000000003 L 492.36 419.82 L 494.1 420.83 L 495.84000000000003 421.8 L 497.59000000000003 422.74 L 499.33 423.63 L 501.07 424.48 L 502.82 425.29 L 504.56 426.04 L 506.3 426.76 L 508.05 427.42 L 509.79 428.04 L 511.53000000000003 428.62 L 513.28 429.15000000000003 L 515.02 429.65000000000003 L 516.77 430.1 L 518.51 430.51 L 520.25 430.89 L 522.0 431.23 L 523.74 431.55 L 525.48 431.83 L 527.23 432.09000000000003 L 528.97 432.32 L 530.71 432.53000000000003 L 532.46 432.72 L 534.2 432.89 L 535.94 433.04 L 537.69 433.18 L 539.4300000000001 433.3 L 541.17 433.41 L 542.92 433.5 L 544.66 433.58 L 546.4 433.65000000000003 L 548.15 433.71000000000004 L 549.89 433.76 L 551.63 433.81 L 553.38 433.85 L 555.12 433.88 L 556.86 433.90000000000003 L 558.61 433.92 L 560.35 433.94 L 562.09 433.95 L 563.84 433.97 L 565.58 433.97 L 567.32 433.98 L 569.07 433.99 L 570.8100000000001 433.99 L 570.8100000000001 434.0 L 223.88 434.0 Z" stroke="none" stroke-width="0" fill="#9070a0" fill-opacity="0.75" /><path d="M 223.88 433.99 L 225.62 433.98 L 227.36 433.98 L 229.11 433.97 L 230.85 433.96000000000004 L 232.59 433.94 L 234.34 433.92 L 236.08 433.90000000000003 L 237.82 433.87 L 239.57 433.83 L 241.31 433.79 L 243.05 433.74 L 244.8 433.67 L 246.54 433.6 L 248.28 433.51 L 250.03 433.40000000000003 L 251.77 433.28000000000003 L 253.51000000000002 433.14 L 255.26000000000002 432.99 L 257.0 432.81 L 258.74 432.61 L 260.49 432.39 L 262.23 432.14 L 263.97 431.87 L 265.72 431.57 L 267.46 431.25 L 269.2 430.90000000000003 L 270.95 430.52 L 272.69 430.11 L 274.43 429.67 L 276.18 429.2 L 277.92 428.68 L 279.66 428.13 L 281.41 427.53000000000003 L 283.15000000000003 426.89 L 284.89 426.2 L 286.64 425.46000000000004 L 288.38 424.65000000000003 L 290.12 423.79 L 291.87 422.86 L 293.61 421.86 L 295.35 420.78000000000003 L 297.1 419.64 L 298.84000000000003 418.42 L 300.58 417.13 L 302.33 415.76 L 304.07 414.32 L 305.81 412.82 L 307.56 411.26 L 309.3 409.64 L 311.04 407.97 L 312.79 406.27 L 314.53000000000003 404.55 L 316.27 402.82 L 318.02 401.1 L 319.76 399.41 L 321.51 397.75 L 323.25 396.15000000000003 L 324.99 394.63 L 326.74 393.2 L 328.48 391.87 L 330.22 390.67 L 331.97 389.59000000000003 L 333.71 388.66 L 335.45 387.87 L 337.2 387.22 L 338.94 386.72 L 340.68 386.36 L 342.43 386.13 L 344.17 386.01 L 345.91 386.0 L 347.66 386.08 L 349.40000000000003 386.23 L 351.14 386.45 L 352.89 386.7 L 354.63 386.99 L 356.37 387.29 L 358.12 387.61 L 359.86 387.93 L 361.6 388.25 L 363.35 388.57 L 365.09000000000003 388.89 L 366.83 389.2 L 368.58 389.53000000000003 L 370.32 389.87 L 372.06 390.22 L 373.81 390.59000000000003 L 375.55 390.98 L 377.29 391.39 L 379.04 391.81 L 380.78000000000003 392.25 L 382.52 392.69 L 384.27 393.13 L 386.01 393.54 L 387.75 393.92 L 389.5 394.26 L 391.24 394.53000000000003 L 392.98 394.72 L 394.73 394.83 L 396.47 394.85 L 398.21000000000004 394.77 L 399.96000000000004 394.59000000000003 L 401.7 394.32 L 403.44 393.96000000000004 L 405.19 393.54 L 406.93 393.05 L 408.67 392.53000000000003 L 410.42 391.99 L 412.16 391.46000000000004 L 413.90000000000003 390.95 L 415.65000000000003 390.5 L 417.39 390.11 L 419.14 389.81 L 420.88 389.6 L 422.62 389.51 L 424.37 389.52 L 426.11 389.65000000000003 L 427.85 389.89 L 429.6 390.24 L 431.34000000000003 390.68 L 433.08 391.2 L 434.83 391.8 L 436.57 392.44 L 438.31 393.13 L 440.06 393.84000000000003 L 441.8 394.56 L 443.54 395.28000000000003 L 445.29 396.0 L 447.03000000000003 396.7 L 448.77 397.38 L 450.52 398.04 L 452.26 398.7 L 454.0 399.34000000000003 L 455.75 399.98 L 457.49 400.63 L 459.23 401.29 L 460.98 401.97 L 462.72 402.68 L 464.46000000000004 403.43 L 466.21000000000004 404.23 L 467.95 405.07 L 469.69 405.95 L 471.44 406.89 L 473.18 407.87 L 474.92 408.89 L 476.67 409.95 L 478.41 411.03000000000003 L 480.15000000000003 412.14 L 481.90000000000003 413.26 L 483.64 414.38 L 485.38 415.5 L 487.13 416.61 L 488.87 417.71000000000004 L 490.61 418.78000000000003 L 492.36 419.82 L 494.1 420.83 L 495.84000000000003 421.8 L 497.59000000000003 422.74 L 499.33 423.63 L 501.07 424.48 L 502.82 425.29 L 504.56 426.04 L 506.3 426.76 L 508.05 427.42 L 509.79 428.04 L 511.53000000000003 428.62 L 513.28 429.15000000000003 L 515.02 429.65000000000003 L 516.77 430.1 L 518.51 430.51 L 520.25 430.89 L 522.0 431.23 L 523.74 431.55 L 525.48 431.83 L 527.23 432.09000000000003 L 528.97 432.32 L 530.71 432.53000000000003 L 532.46 432.72 L 534.2 432.89 L 535.94 433.04 L 537.69 433.18 L 539.4300000000001 433.3 L 541.17 433.41 L 542.92 433.5 L 544.66 433.58 L 546.4 433.65000000000003 L 548.15 433.71000000000004 L 549.89 433.76 L 551.63 433.81 L 553.38 433.85 L 555.12 433.88 L 556.86 433.90000000000003 L 558.61 433.92 L 560.35 433.94 L 562.09 433.95 L 563.84 433.97 L 565.58 433.97 L 567.32 433.98 L 569.07 433.99 L 570.8100000000001 433.99" stroke="#9070a0" stroke-width="1.5" fill="none" /><line x1="99.8" y1="464" x2="699.8000000000001" y2="464" stroke="#000000" stroke-width="0.5" /><path d="M 155.57 463.99 L 157.5 463.99 L 159.44 463.98 L 161.38 463.97 L 163.32 463.96000000000004 L 165.26 463.95 L 167.19 463.94 L 169.13 463.92 L 171.07 463.90000000000003 L 173.01 463.87 L 174.95000000000002 463.84000000000003 L 176.88 463.8 L 178.82 463.75 L 180.76 463.69 L 182.70000000000002 463.62 L 184.64000000000001 463.54 L 186.57 463.44 L 188.51 463.33 L 190.45000000000002 463.21000000000004 L 192.39000000000001 463.06 L 194.33 462.90000000000003 L 196.26 462.71000000000004 L 198.20000000000002 462.51 L 200.14000000000001 462.27 L 202.08 462.02 L 204.02 461.73 L 205.95000000000002 461.41 L 207.89000000000001 461.07 L 209.83 460.69 L 211.77 460.27 L 213.71 459.81 L 215.64000000000001 459.32 L 217.58 458.79 L 219.52 458.21000000000004 L 221.46 457.59000000000003 L 223.4 456.94 L 225.34 456.24 L 227.27 455.5 L 229.21 454.72 L 231.15 453.90000000000003 L 233.09 453.05 L 235.03 452.17 L 236.96 451.26 L 238.9 450.32 L 240.84 449.35 L 242.78 448.37 L 244.72 447.36 L 246.65 446.34000000000003 L 248.59 445.3 L 250.53 444.24 L 252.47 443.16 L 254.41 442.07 L 256.34000000000003 440.97 L 258.28000000000003 439.85 L 260.22 438.71000000000004 L 262.16 437.57 L 264.1 436.41 L 266.03000000000003 435.25 L 267.97 434.09000000000003 L 269.91 432.95 L 271.85 431.82 L 273.79 430.72 L 275.72 429.66 L 277.66 428.66 L 279.6 427.73 L 281.54 426.88 L 283.48 426.13 L 285.41 425.48 L 287.35 424.96000000000004 L 289.29 424.58 L 291.23 424.33 L 293.17 424.22 L 295.1 424.25 L 297.04 424.43 L 298.98 424.74 L 300.92 425.17 L 302.86 425.72 L 304.79 426.36 L 306.73 427.08 L 308.67 427.87 L 310.61 428.69 L 312.55 429.53000000000003 L 314.48 430.37 L 316.42 431.18 L 318.36 431.96000000000004 L 320.3 432.67 L 322.24 433.31 L 324.17 433.87 L 326.11 434.33 L 328.05 434.69 L 329.99 434.96000000000004 L 331.93 435.12 L 333.86 435.17 L 335.8 435.14 L 337.74 435.01 L 339.68 434.81 L 341.62 434.53000000000003 L 343.55 434.19 L 345.49 433.79 L 347.43 433.35 L 349.37 432.87 L 351.31 432.36 L 353.24 431.82 L 355.18 431.26 L 357.12 430.69 L 359.06 430.1 L 361.0 429.5 L 362.93 428.88 L 364.87 428.25 L 366.81 427.6 L 368.75 426.93 L 370.69 426.25 L 372.62 425.54 L 374.56 424.81 L 376.5 424.05 L 378.44 423.28000000000003 L 380.38 422.5 L 382.31 421.7 L 384.25 420.91 L 386.19 420.13 L 388.13 419.37 L 390.07 418.64 L 392.0 417.97 L 393.94 417.37 L 395.88 416.85 L 397.82 416.44 L 399.76 416.15000000000003 L 401.69 416.0 L 403.63 416.0 L 405.57 416.16 L 407.51 416.48 L 409.45 416.98 L 411.38 417.66 L 413.32 418.5 L 415.26 419.51 L 417.2 420.68 L 419.14 421.99 L 421.07 423.43 L 423.01 424.98 L 424.95 426.63 L 426.89 428.35 L 428.83 430.13 L 430.76 431.94 L 432.7 433.78000000000003 L 434.64 435.61 L 436.58 437.43 L 438.52 439.21000000000004 L 440.45 440.95 L 442.39 442.64 L 444.33 444.25 L 446.27 445.8 L 448.21000000000004 447.26 L 450.14 448.63 L 452.08 449.92 L 454.02 451.11 L 455.96000000000004 452.22 L 457.90000000000003 453.23 L 459.83 454.16 L 461.77 455.01 L 463.71000000000004 455.77 L 465.65000000000003 456.47 L 467.59000000000003 457.1 L 469.52 457.67 L 471.46000000000004 458.19 L 473.40000000000003 458.66 L 475.34000000000003 459.08 L 477.28000000000003 459.48 L 479.21000000000004 459.84000000000003 L 481.15000000000003 460.17 L 483.09000000000003 460.49 L 485.03000000000003 460.78000000000003 L 486.97 461.06 L 488.90000000000003 461.32 L 490.84000000000003 461.57 L 492.78000000000003 461.8 L 494.72 462.02 L 496.66 462.23 L 498.59000000000003 462.43 L 500.53000000000003 462.61 L 502.47 462.79 L 504.41 462.94 L 506.35 463.09000000000003 L 508.29 463.22 L 510.22 463.34000000000003 L 512.16 463.44 L 514.1 463.53000000000003 L 516.04 463.61 L 517.98 463.68 L 519.91 463.74 L 521.85 463.79 L 523.79 463.83 L 525.73 463.87 L 527.67 463.90000000000003 L 529.6 463.92 L 531.54 463.94 L 533.48 463.95 L 535.42 463.96000000000004 L 537.36 463.97 L 539.29 463.98 L 541.23 463.99 L 541.23 464.0 L 155.57 464.0 Z" stroke="none" stroke-width="0" fill="#5060b0" fill-opacity="0.75" /><path d="M 155.57 463.99 L 157.5 463.99 L 159.44 463.98 L 161.38 463.97 L 163.32 463.96000000000004 L 165.26 463.95 L 167.19 463.94 L 169.13 463.92 L 171.07 463.90000000000003 L 173.01 463.87 L 174.95000000000002 463.84000000000003 L 176.88 463.8 L 178.82 463.75 L 180.76 463.69 L 182.70000000000002 463.62 L 184.64000000000001 463.54 L 186.57 463.44 L 188.51 463.33 L 190.45000000000002 463.21000000000004 L 192.39000000000001 463.06 L 194.33 462.90000000000003 L 196.26 462.71000000000004 L 198.20000000000002 462.51 L 200.14000000000001 462.27 L 202.08 462.02 L 204.02 461.73 L 205.95000000000002 461.41 L 207.89000000000001 461.07 L 209.83 460.69 L 211.77 460.27 L 213.71 459.81 L 215.64000000000001 459.32 L 217.58 458.79 L 219.52 458.21000000000004 L 221.46 457.59000000000003 L 223.4 456.94 L 225.34 456.24 L 227.27 455.5 L 229.21 454.72 L 231.15 453.90000000000003 L 233.09 453.05 L 235.03 452.17 L 236.96 451.26 L 238.9 450.32 L 240.84 449.35 L 242.78 448.37 L 244.72 447.36 L 246.65 446.34000000000003 L 248.59 445.3 L 250.53 444.24 L 252.47 443.16 L 254.41 442.07 L 256.34000000000003 440.97 L 258.28000000000003 439.85 L 260.22 438.71000000000004 L 262.16 437.57 L 264.1 436.41 L 266.03000000000003 435.25 L 267.97 434.09000000000003 L 269.91 432.95 L 271.85 431.82 L 273.79 430.72 L 275.72 429.66 L 277.66 428.66 L 279.6 427.73 L 281.54 426.88 L 283.48 426.13 L 285.41 425.48 L 287.35 424.96000000000004 L 289.29 424.58 L 291.23 424.33 L 293.17 424.22 L 295.1 424.25 L 297.04 424.43 L 298.98 424.74 L 300.92 425.17 L 302.86 425.72 L 304.79 426.36 L 306.73 427.08 L 308.67 427.87 L 310.61 428.69 L 312.55 429.53000000000003 L 314.48 430.37 L 316.42 431.18 L 318.36 431.96000000000004 L 320.3 432.67 L 322.24 433.31 L 324.17 433.87 L 326.11 434.33 L 328.05 434.69 L 329.99 434.96000000000004 L 331.93 435.12 L 333.86 435.17 L 335.8 435.14 L 337.74 435.01 L 339.68 434.81 L 341.62 434.53000000000003 L 343.55 434.19 L 345.49 433.79 L 347.43 433.35 L 349.37 432.87 L 351.31 432.36 L 353.24 431.82 L 355.18 431.26 L 357.12 430.69 L 359.06 430.1 L 361.0 429.5 L 362.93 428.88 L 364.87 428.25 L 366.81 427.6 L 368.75 426.93 L 370.69 426.25 L 372.62 425.54 L 374.56 424.81 L 376.5 424.05 L 378.44 423.28000000000003 L 380.38 422.5 L 382.31 421.7 L 384.25 420.91 L 386.19 420.13 L 388.13 419.37 L 390.07 418.64 L 392.0 417.97 L 393.94 417.37 L 395.88 416.85 L 397.82 416.44 L 399.76 416.15000000000003 L 401.69 416.0 L 403.63 416.0 L 405.57 416.16 L 407.51 416.48 L 409.45 416.98 L 411.38 417.66 L 413.32 418.5 L 415.26 419.51 L 417.2 420.68 L 419.14 421.99 L 421.07 423.43 L 423.01 424.98 L 424.95 426.63 L 426.89 428.35 L 428.83 430.13 L 430.76 431.94 L 432.7 433.78000000000003 L 434.64 435.61 L 436.58 437.43 L 438.52 439.21000000000004 L 440.45 440.95 L 442.39 442.64 L 444.33 444.25 L 446.27 445.8 L 448.21000000000004 447.26 L 450.14 448.63 L 452.08 449.92 L 454.02 451.11 L 455.96000000000004 452.22 L 457.90000000000003 453.23 L 459.83 454.16 L 461.77 455.01 L 463.71000000000004 455.77 L 465.65000000000003 456.47 L 467.59000000000003 457.1 L 469.52 457.67 L 471.46000000000004 458.19 L 473.40000000000003 458.66 L 475.34000000000003 459.08 L 477.28000000000003 459.48 L 479.21000000000004 459.84000000000003 L 481.15000000000003 460.17 L 483.09000000000003 460.49 L 485.03000000000003 460.78000000000003 L 486.97 461.06 L 488.90000000000003 461.32 L 490.84000000000003 461.57 L 492.78000000000003 461.8 L 494.72 462.02 L 496.66 462.23 L 498.59000000000003 462.43 L 500.53000000000003 462.61 L 502.47 462.79 L 504.41 462.94 L 506.35 463.09000000000003 L 508.29 463.22 L 510.22 463.34000000000003 L 512.16 463.44 L 514.1 463.53000000000003 L 516.04 463.61 L 517.98 463.68 L 519.91 463.74 L 521.85 463.79 L 523.79 463.83 L 525.73 463.87 L 527.67 463.90000000000003 L 529.6 463.92 L 531.54 463.94 L 533.48 463.95 L 535.42 463.96000000000004 L 537.36 463.97 L 539.29 463.98 L 541.23 463.99" stroke="#5060b0" stroke-width="1.5" fill="none" /></g></svg>