<svg xmlns="http://www.w3.org/2000/svg" width="520" height="480" font-family="DejaVu Sans, Liberation Sans, Arial, sans-serif" fill="black"><rect width="100%" height="100%" fill="white" /><text x="260" y="27.400000000000002" font-size="18" text-anchor="middle">Monthly Incidents</text><path d="M 245.07,236.50 A 39.62,39.62 0 1,0 324.32,236.50 A 39.62,39.62 0 1,0 245.07,236.50 Z" stroke="#cccccc" stroke-width="0.7000000000000001" fill="none" stroke-dasharray="3,3" /><text x="287.7" y="194.88" font-size="8" text-anchor="start" fill="#aaaaaa">5.9</text><path d="M 205.45,236.50 A 79.25,79.25 0 1,0 363.95,236.50 A 79.25,79.25 0 1,0 205.45,236.50 Z" stroke="#cccccc" stroke-width="0.7000000000000001" fill="none" stroke-dasharray="3,3" /><text x="287.7" y="155.25" font-size="8" text-anchor="start" fill="#aaaaaa">24</text><path d="M 165.82,236.50 A 118.88,118.88 0 1,0 403.57,236.50 A 118.88,118.88 0 1,0 165.82,236.50 Z" stroke="#cccccc" stroke-width="0.7000000000000001" fill="none" stroke-dasharray="3,3" /><text x="287.7" y="115.63" font-size="8" text-anchor="start" fill="#aaaaaa">53</text><path d="M 126.20,236.50 A 158.50,158.50 0 1,0 443.20,236.50 A 158.50,158.50 0 1,0 126.20,236.50 Z" stroke="#cccccc" stroke-width="0.7000000000000001" fill="none" stroke-dasharray="3,3" /><text x="287.7" y="76" font-size="8" text-anchor="start" fill="#aaaaaa">95</text><line x1="284.7" y1="236.5" x2="305.39" y2="79.36" stroke="#dddddd" stroke-width="0.5" /><line x1="284.7" y1="236.5" x2="345.36" y2="90.07000000000001" stroke="#dddddd" stroke-width="0.5" /><line x1="284.7" y1="236.5" x2="381.19" y2="110.75" stroke="#dddddd" stroke-width="0.5" /><line x1="284.7" y1="236.5" x2="410.45" y2="140.01" stroke="#dddddd" stroke-width="0.5" /><line x1="284.7" y1="236.5" x2="431.13" y2="175.84" stroke="#dddddd" stroke-width="0.5" /><line x1="284.7" y1="236.5" x2="441.84000000000003" y2="215.81" stroke="#dddddd" stroke-width="0.5" /><line x1="284.7" y1="236.5" x2="441.84000000000003" y2="257.19" stroke="#dddddd" stroke-width="0.5" /><line x1="284.7" y1="236.5" x2="431.13" y2="297.16" stroke="#dddddd" stroke-width="0.5" /><line x1="284.7" y1="236.5" x2="410.45" y2="332.99" stroke="#dddddd" stroke-width="0.5" /><line x1="284.7" y1="236.5" x2="381.19" y2="362.25" stroke="#dddddd" stroke-width="0.5" /><line x1="284.7" y1="236.5" x2="345.36" y2="382.93" stroke="#dddddd" stroke-width="0.5" /><line x1="284.7" y1="236.5" x2="305.39" y2="393.64" stroke="#dddddd" stroke-width="0.5" /><line x1="284.7" y1="236.5" x2="264.01" y2="393.64" stroke="#dddddd" stroke-width="0.5" /><line x1="284.7" y1="236.5" x2="224.04" y2="382.93" stroke="#dddddd" stroke-width="0.5" /><line x1="284.7" y1="236.5" x2="188.21" y2="362.25" stroke="#dddddd" stroke-width="0.5" /><line x1="284.7" y1="236.5" x2="158.95000000000002" y2="332.99" stroke="#dddddd" stroke-width="0.5" /><line x1="284.7" y1="236.5" x2="138.27" y2="297.16" stroke="#dddddd" stroke-width="0.5" /><line x1="284.7" y1="236.5" x2="127.56" y2="257.19" stroke="#dddddd" stroke-width="0.5" /><line x1="284.7" y1="236.5" x2="127.56" y2="215.81" stroke="#dddddd" stroke-width="0.5" /><line x1="284.7" y1="236.5" x2="138.27" y2="175.84" stroke="#dddddd" stroke-width="0.5" /><line x1="284.7" y1="236.5" x2="158.95000000000002" y2="140.01" stroke="#dddddd" stroke-width="0.5" /><line x1="284.7" y1="236.5" x2="188.21" y2="110.75" stroke="#dddddd" stroke-width="0.5" /><line x1="284.7" y1="236.5" x2="224.04" y2="90.07000000000001" stroke="#dddddd" stroke-width="0.5" /><line x1="284.7" y1="236.5" x2="264.01" y2="79.36" stroke="#dddddd" stroke-width="0.5" /><path d="M 284.70,236.50 L 285.62,131.12 A 105.39,105.39 0 0,1 311.09,134.47 Z" stroke="#ffffff" stroke-width="0.5" fill="#1f77b4" fill-opacity="0.75" /><text x="297.41" y="143.94" font-size="9" text-anchor="middle">42</text><path d="M 284.70,236.50 L 311.49,139.90 A 100.24,100.24 0 0,1 334.06,149.25 Z" stroke="#ffffff" stroke-width="0.5" fill="#1f77b4" fill-opacity="0.75" /><text x="320" y="155.28" font-size="9" text-anchor="middle">38</text><path d="M 284.70,236.50 L 345.91,132.59 A 120.60,120.60 0 0,1 369.23,150.48 Z" stroke="#ffffff" stroke-width="0.5" fill="#1f77b4" fill-opacity="0.75" /><text x="353.25" y="151.17000000000002" font-size="9" text-anchor="middle">55</text><path d="M 284.70,236.50 L 382.43,140.46 A 137.02,137.02 0 0,1 402.76,166.96 Z" stroke="#ffffff" stroke-width="0.5" fill="#1f77b4" fill-opacity="0.75" /><text x="387.06" y="161.96" font-size="9" text-anchor="middle">71</text><path d="M 284.70,236.50 L 417.47,161.38 A 152.55,152.55 0 0,1 431.70,195.73 Z" stroke="#ffffff" stroke-width="0.5" fill="#1f77b4" fill-opacity="0.75" /><text x="418.25" y="185.18" font-size="9" text-anchor="middle">88</text><path d="M 284.70,236.50 L 438.15,196.81 A 158.50,158.50 0 0,1 443.19,235.12 Z" stroke="#ffffff" stroke-width="0.5" fill="#1f77b4" fill-opacity="0.75" /><text x="433.91" y="220.86" font-size="9" text-anchor="middle">95</text><path d="M 284.70,236.50 L 438.97,237.85 A 154.27,154.27 0 0,1 434.06,275.13 Z" stroke="#ffffff" stroke-width="0.5" fill="#1f77b4" fill-opacity="0.75" /><text x="429.72" y="259.59000000000003" font-size="9" text-anchor="middle">90</text><path d="M 284.70,236.50 L 426.60,275.85 A 147.26,147.26 0 0,1 412.87,309.01 Z" stroke="#ffffff" stroke-width="0.5" fill="#1f77b4" fill-opacity="0.75" /><text x="413.36" y="293.79" font-size="9" text-anchor="middle">82</text><path d="M 284.70,236.50 L 397.67,303.04 A 131.11,131.11 0 0,1 378.21,328.39 Z" stroke="#ffffff" stroke-width="0.5" fill="#1f77b4" fill-opacity="0.75" /><text x="382.37" y="315.44" font-size="9" text-anchor="middle">65</text><path d="M 284.70,236.50 L 365.30,318.52 A 114.99,114.99 0 0,1 343.06,335.58 Z" stroke="#ffffff" stroke-width="0.5" fill="#1f77b4" fill-opacity="0.75" /><text x="349.83" y="325.38" font-size="9" text-anchor="middle">50</text><path d="M 284.70,236.50 L 337.82,330.38 A 107.87,107.87 0 0,1 313.53,340.45 Z" stroke="#ffffff" stroke-width="0.5" fill="#1f77b4" fill-opacity="0.75" /><text x="322.92" y="332.77" font-size="9" text-anchor="middle">44</text><path d="M 284.70,236.50 L 312.91,345.58 A 112.66,112.66 0 0,1 285.68,349.16 Z" stroke="#ffffff" stroke-width="0.5" fill="#1f77b4" fill-opacity="0.75" /><text x="298.36" y="344.27" font-size="9" text-anchor="middle">48</text><path d="M 126.20,236.50 A 158.50,158.50 0 1,0 443.20,236.50 A 158.50,158.50 0 1,0 126.20,236.50 Z" stroke="#aaaaaa" stroke-width="0.8" fill="none" /><text x="307.48" y="67.49" font-size="11" text-anchor="middle">Jan</text><text x="351.48" y="79.28" font-size="11" text-anchor="middle">Feb</text><text x="390.93" y="102.06" font-size="11" text-anchor="middle">Mar</text><text x="423.14" y="134.27" font-size="11" text-anchor="middle">Apr</text><text x="445.92" y="173.72" font-size="11" text-anchor="middle">May</text><text x="457.71000000000004" y="217.72" font-size="11" text-anchor="middle">Jun</text><text x="457.71000000000004" y="263.28000000000003" font-size="11" text-anchor="middle">Jul</text><text x="445.92" y="307.28000000000003" font-size="11" text-anchor="middle">Aug</text><text x="423.14" y="346.73" font-size="11" text-anchor="middle">Sep</text><text x="390.93" y="378.94" font-size="11" text-anchor="middle">Oct</text><text x="351.48" y="401.72" font-size="11" text-anchor="middle">Nov</text><text x="307.48" y="413.51" font-size="11" text-anchor="middle">Dec</text><text x="261.92" y="413.51" font-size="11" text-anchor="middle">Jan</text><text x="217.92000000000002" y="401.72" font-size="11" text-anchor="middle">Feb</text><text x="178.47" y="378.94" font-size="11" text-anchor="middle">Mar</text><text x="146.26" y="346.73" font-size="11" text-anchor="middle">Apr</text><text x="123.48" y="307.28000000000003" font-size="11" text-anchor="middle">May</text><text x="111.69" y="263.28000000000003" font-size="11" text-anchor="middle">Jun</text><text x="111.69" y="217.72" font-size="11" text-anchor="middle">Jul</text><text x="123.48" y="173.72" font-size="11" text-anchor="middle">Aug</text><text x="146.26" y="134.27" font-size="11" text-anchor="middle">Sep</text><text x="178.47" y="102.06" font-size="11" text-anchor="middle">Oct</text><text x="217.92000000000002" y="79.28" font-size="11" text-anchor="middle">Nov</text><text x="261.92" y="67.49" font-size="11" text-anchor="middle">Dec</text></svg>