<svg xmlns="http://www.w3.org/2000/svg" width="560" height="520" font-family="DejaVu Sans, Liberation Sans, Arial, sans-serif" fill="black"><rect width="100%" height="100%" fill="white" /><text x="280" y="27.400000000000002" font-size="18" text-anchor="middle">Causes of Mortality — Crimean War (1854–55)</text><path d="M 260.07,256.50 A 44.62,44.62 0 1,0 349.32,256.50 A 44.62,44.62 0 1,0 260.07,256.50 Z" stroke="#cccccc" stroke-width="0.7000000000000001" fill="none" stroke-dasharray="3,3" /><text x="307.7" y="209.88" font-size="8" text-anchor="start" fill="#aaaaaa">3.8</text><path d="M 215.45,256.50 A 89.25,89.25 0 1,0 393.95,256.50 A 89.25,89.25 0 1,0 215.45,256.50 Z" stroke="#cccccc" stroke-width="0.7000000000000001" fill="none" stroke-dasharray="3,3" /><text x="307.7" y="165.25" font-size="8" text-anchor="start" fill="#aaaaaa">15</text><path d="M 170.82,256.50 A 133.88,133.88 0 1,0 438.57,256.50 A 133.88,133.88 0 1,0 170.82,256.50 Z" stroke="#cccccc" stroke-width="0.7000000000000001" fill="none" stroke-dasharray="3,3" /><text x="307.7" y="120.63" font-size="8" text-anchor="start" fill="#aaaaaa">34</text><path d="M 126.20,256.50 A 178.50,178.50 0 1,0 483.20,256.50 A 178.50,178.50 0 1,0 126.20,256.50 Z" stroke="#cccccc" stroke-width="0.7000000000000001" fill="none" stroke-dasharray="3,3" /><text x="307.7" y="76" font-size="8" text-anchor="start" fill="#aaaaaa">61</text><line x1="304.7" y1="256.5" x2="350.90000000000003" y2="84.08" stroke="#dddddd" stroke-width="0.5" /><line x1="304.7" y1="256.5" x2="430.92" y2="130.28" stroke="#dddddd" stroke-width="0.5" /><line x1="304.7" y1="256.5" x2="477.12" y2="210.3" stroke="#dddddd" stroke-width="0.5" /><line x1="304.7" y1="256.5" x2="477.12" y2="302.7" stroke="#dddddd" stroke-width="0.5" /><line x1="304.7" y1="256.5" x2="430.92" y2="382.72" stroke="#dddddd" stroke-width="0.5" /><line x1="304.7" y1="256.5" x2="350.90000000000003" y2="428.92" stroke="#dddddd" stroke-width="0.5" /><line x1="304.7" y1="256.5" x2="258.5" y2="428.92" stroke="#dddddd" stroke-width="0.5" /><line x1="304.7" y1="256.5" x2="178.48" y2="382.72" stroke="#dddddd" stroke-width="0.5" /><line x1="304.7" y1="256.5" x2="132.28" y2="302.7" stroke="#dddddd" stroke-width="0.5" /><line x1="304.7" y1="256.5" x2="132.28" y2="210.3" stroke="#dddddd" stroke-width="0.5" /><line x1="304.7" y1="256.5" x2="178.48" y2="130.28" stroke="#dddddd" stroke-width="0.5" /><line x1="304.7" y1="256.5" x2="258.5" y2="84.08" stroke="#dddddd" stroke-width="0.5" /><path d="M 304.70,256.50 L 304.90,233.65 A 22.85,22.85 0 0,1 315.95,236.61 Z" stroke="#ffffff" stroke-width="0.5" fill="#1f77b4" fill-opacity="0.75" /><path d="M 305.19,200.52 A 55.98,55.98 0 0,1 332.27,207.78 L 315.95,236.61 A 22.85,22.85 0 0,0 304.90,233.65 Z" stroke="#ffffff" stroke-width="0.5" fill="#ff7f0e" fill-opacity="0.75" /><path d="M 305.26,191.86 A 64.64,64.64 0 0,1 336.53,200.24 L 332.27,207.78 A 55.98,55.98 0 0,0 305.19,200.52 Z" stroke="#ffffff" stroke-width="0.5" fill="#2ca02c" fill-opacity="0.75" /><path d="M 304.70,256.50 L 344.88,188.28 A 79.17,79.17 0 0,1 372.92,216.32 Z" stroke="#ffffff" stroke-width="0.5" fill="#1f77b4" fill-opacity="0.75" /><path d="M 357.86,166.26 A 104.73,104.73 0 0,1 394.94,203.34 L 372.92,216.32 A 79.17,79.17 0 0,0 344.88,188.28 Z" stroke="#ffffff" stroke-width="0.5" fill="#ff7f0e" fill-opacity="0.75" /><path d="M 360.33,162.06 A 109.61,109.61 0 0,1 399.14,200.87 L 394.94,203.34 A 104.73,104.73 0 0,0 357.86,166.26 Z" stroke="#ffffff" stroke-width="0.5" fill="#2ca02c" fill-opacity="0.75" /><path d="M 304.70,256.50 L 370.67,219.17 A 75.80,75.80 0 0,1 380.50,255.84 Z" stroke="#ffffff" stroke-width="0.5" fill="#1f77b4" fill-opacity="0.75" /><path d="M 386.72,210.10 A 94.23,94.23 0 0,1 398.93,255.68 L 380.50,255.84 A 75.80,75.80 0 0,0 370.67,219.17 Z" stroke="#ffffff" stroke-width="0.5" fill="#ff7f0e" fill-opacity="0.75" /><path d="M 391.41,207.44 A 99.62,99.62 0 0,1 404.32,255.63 L 398.93,255.68 A 94.23,94.23 0 0,0 386.72,210.10 Z" stroke="#ffffff" stroke-width="0.5" fill="#2ca02c" fill-opacity="0.75" /><path d="M 304.70,256.50 L 439.90,257.68 A 135.21,135.21 0 0,1 422.38,323.08 Z" stroke="#ffffff" stroke-width="0.5" fill="#1f77b4" fill-opacity="0.75" /><path d="M 478.75,258.02 A 174.06,174.06 0 0,1 456.19,342.21 L 422.38,323.08 A 135.21,135.21 0 0,0 439.90,257.68 Z" stroke="#ffffff" stroke-width="0.5" fill="#ff7f0e" fill-opacity="0.75" /><path d="M 483.19,258.06 A 178.50,178.50 0 0,1 460.06,344.40 L 456.19,342.21 A 174.06,174.06 0 0,0 478.75,258.02 Z" stroke="#ffffff" stroke-width="0.5" fill="#2ca02c" fill-opacity="0.75" /><path d="M 304.70,256.50 L 414.34,321.08 A 127.25,127.25 0 0,1 369.28,366.14 Z" stroke="#ffffff" stroke-width="0.5" fill="#1f77b4" fill-opacity="0.75" /><path d="M 452.06,343.30 A 171.03,171.03 0 0,1 391.50,403.86 L 369.28,366.14 A 127.25,127.25 0 0,0 414.34,321.08 Z" stroke="#ffffff" stroke-width="0.5" fill="#ff7f0e" fill-opacity="0.75" /><path d="M 455.96,345.60 A 175.55,175.55 0 0,1 393.80,407.76 L 391.50,403.86 A 171.03,171.03 0 0,0 452.06,343.30 Z" stroke="#ffffff" stroke-width="0.5" fill="#2ca02c" fill-opacity="0.75" /><path d="M 304.70,256.50 L 364.25,361.76 A 120.94,120.94 0 0,1 305.76,377.43 Z" stroke="#ffffff" stroke-width="0.5" fill="#1f77b4" fill-opacity="0.75" /><path d="M 382.67,394.31 A 158.34,158.34 0 0,1 306.08,414.84 L 305.76,377.43 A 120.94,120.94 0 0,0 364.25,361.76 Z" stroke="#ffffff" stroke-width="0.5" fill="#ff7f0e" fill-opacity="0.75" /><path d="M 385.07,398.55 A 163.21,163.21 0 0,1 306.12,419.71 L 306.08,414.84 A 158.34,158.34 0 0,0 382.67,394.31 Z" stroke="#ffffff" stroke-width="0.5" fill="#2ca02c" fill-opacity="0.75" /><path d="M 304.70,256.50 L 303.68,373.03 A 116.54,116.54 0 0,1 247.31,357.93 Z" stroke="#ffffff" stroke-width="0.5" fill="#1f77b4" fill-opacity="0.75" /><path d="M 303.44,401.04 A 144.55,144.55 0 0,1 233.52,382.31 L 247.31,357.93 A 116.54,116.54 0 0,0 303.68,373.03 Z" stroke="#ffffff" stroke-width="0.5" fill="#ff7f0e" fill-opacity="0.75" /><path d="M 303.39,406.36 A 149.87,149.87 0 0,1 230.90,386.94 L 233.52,382.31 A 144.55,144.55 0 0,0 303.44,401.04 Z" stroke="#ffffff" stroke-width="0.5" fill="#2ca02c" fill-opacity="0.75" /><path d="M 304.70,256.50 L 256.87,337.69 A 94.23,94.23 0 0,1 223.51,304.33 Z" stroke="#ffffff" stroke-width="0.5" fill="#1f77b4" fill-opacity="0.75" /><path d="M 247.87,352.97 A 111.96,111.96 0 0,1 208.23,313.33 L 223.51,304.33 A 94.23,94.23 0 0,0 256.87,337.69 Z" stroke="#ffffff" stroke-width="0.5" fill="#ff7f0e" fill-opacity="0.75" /><path d="M 245.55,356.91 A 116.54,116.54 0 0,1 204.29,315.65 L 208.23,313.33 A 111.96,111.96 0 0,0 247.87,352.97 Z" stroke="#ffffff" stroke-width="0.5" fill="#2ca02c" fill-opacity="0.75" /><path d="M 304.70,256.50 L 252.07,286.28 A 60.47,60.47 0 0,1 244.23,257.03 Z" stroke="#ffffff" stroke-width="0.5" fill="#1f77b4" fill-opacity="0.75" /><path d="M 238.73,293.83 A 75.80,75.80 0 0,1 228.90,257.16 L 244.23,257.03 A 60.47,60.47 0 0,0 252.07,286.28 Z" stroke="#ffffff" stroke-width="0.5" fill="#ff7f0e" fill-opacity="0.75" /><path d="M 232.98,297.08 A 82.40,82.40 0 0,1 222.30,257.22 L 228.90,257.16 A 75.80,75.80 0 0,0 238.73,293.83 Z" stroke="#ffffff" stroke-width="0.5" fill="#2ca02c" fill-opacity="0.75" /><path d="M 304.70,256.50 L 253.60,256.05 A 51.10,51.10 0 0,1 260.22,231.33 Z" stroke="#ffffff" stroke-width="0.5" fill="#1f77b4" fill-opacity="0.75" /><path d="M 225.53,255.81 A 79.17,79.17 0 0,1 235.79,217.51 L 260.22,231.33 A 51.10,51.10 0 0,0 253.60,256.05 Z" stroke="#ffffff" stroke-width="0.5" fill="#ff7f0e" fill-opacity="0.75" /><path d="M 219.19,255.75 A 85.51,85.51 0 0,1 230.27,214.39 L 235.79,217.51 A 79.17,79.17 0 0,0 225.53,255.81 Z" stroke="#ffffff" stroke-width="0.5" fill="#2ca02c" fill-opacity="0.75" /><path d="M 304.70,256.50 L 260.67,230.56 A 51.10,51.10 0 0,1 278.76,212.47 Z" stroke="#ffffff" stroke-width="0.5" fill="#1f77b4" fill-opacity="0.75" /><path d="M 231.02,213.10 A 85.51,85.51 0 0,1 261.30,182.82 L 278.76,212.47 A 51.10,51.10 0 0,0 260.67,230.56 Z" stroke="#ffffff" stroke-width="0.5" fill="#ff7f0e" fill-opacity="0.75" /><path d="M 225.93,210.10 A 91.42,91.42 0 0,1 258.30,177.73 L 261.30,182.82 A 85.51,85.51 0 0,0 231.02,213.10 Z" stroke="#ffffff" stroke-width="0.5" fill="#2ca02c" fill-opacity="0.75" /><path d="M 304.70,256.50 L 264.12,184.78 A 82.40,82.40 0 0,1 303.98,174.10 Z" stroke="#ffffff" stroke-width="0.5" fill="#1f77b4" fill-opacity="0.75" /><path d="M 255.64,169.79 A 99.62,99.62 0 0,1 303.83,156.88 L 303.98,174.10 A 82.40,82.40 0 0,0 264.12,184.78 Z" stroke="#ffffff" stroke-width="0.5" fill="#ff7f0e" fill-opacity="0.75" /><path d="M 253.13,165.35 A 104.73,104.73 0 0,1 303.79,151.77 L 303.83,156.88 A 99.62,99.62 0 0,0 255.64,169.79 Z" stroke="#ffffff" stroke-width="0.5" fill="#2ca02c" fill-opacity="0.75" /><path d="M 126.20,256.50 A 178.50,178.50 0 1,0 483.20,256.50 A 178.50,178.50 0 1,0 126.20,256.50 Z" stroke="#aaaaaa" stroke-width="0.8" fill="none" /><text x="355.04" y="72.63" font-size="11" text-anchor="middle">Apr</text><text x="442.23" y="122.97" font-size="11" text-anchor="middle">May</text><text x="492.57" y="210.16" font-size="11" text-anchor="middle">Jun</text><text x="492.57" y="310.84000000000003" font-size="11" text-anchor="middle">Jul</text><text x="442.23" y="398.03000000000003" font-size="11" text-anchor="middle">Aug</text><text x="355.04" y="448.37" font-size="11" text-anchor="middle">Sep</text><text x="254.36" y="448.37" font-size="11" text-anchor="middle">Oct</text><text x="167.17000000000002" y="398.03000000000003" font-size="11" text-anchor="middle">Nov</text><text x="116.83" y="310.84000000000003" font-size="11" text-anchor="middle">Dec</text><text x="116.83" y="210.16" font-size="11" text-anchor="middle">Jan</text><text x="167.17000000000002" y="122.97" font-size="11" text-anchor="middle">Feb</text><text x="254.36" y="72.63" font-size="11" text-anchor="middle">Mar</text></svg>