<svg xmlns="http://www.w3.org/2000/svg" width="520" height="480" font-family="DejaVu Sans, Liberation Sans, Arial, sans-serif" fill="black"><rect width="100%" height="100%" fill="white" /><text x="260" y="27.400000000000002" font-size="18" text-anchor="middle">Wind Rose</text><path d="M 245.07,236.50 A 39.62,39.62 0 1,0 324.32,236.50 A 39.62,39.62 0 1,0 245.07,236.50 Z" stroke="#cccccc" stroke-width="0.7000000000000001" fill="none" stroke-dasharray="3,3" /><text x="287.7" y="194.88" font-size="8" text-anchor="start" fill="#aaaaaa">1.2</text><path d="M 205.45,236.50 A 79.25,79.25 0 1,0 363.95,236.50 A 79.25,79.25 0 1,0 205.45,236.50 Z" stroke="#cccccc" stroke-width="0.7000000000000001" fill="none" stroke-dasharray="3,3" /><text x="287.7" y="155.25" font-size="8" text-anchor="start" fill="#aaaaaa">4.8</text><path d="M 165.82,236.50 A 118.88,118.88 0 1,0 403.57,236.50 A 118.88,118.88 0 1,0 165.82,236.50 Z" stroke="#cccccc" stroke-width="0.7000000000000001" fill="none" stroke-dasharray="3,3" /><text x="287.7" y="115.63" font-size="8" text-anchor="start" fill="#aaaaaa">11</text><path d="M 126.20,236.50 A 158.50,158.50 0 1,0 443.20,236.50 A 158.50,158.50 0 1,0 126.20,236.50 Z" stroke="#cccccc" stroke-width="0.7000000000000001" fill="none" stroke-dasharray="3,3" /><text x="287.7" y="76" font-size="8" text-anchor="start" fill="#aaaaaa">19</text><line x1="284.7" y1="236.5" x2="315.62" y2="81.05" stroke="#dddddd" stroke-width="0.5" /><line x1="284.7" y1="236.5" x2="372.76" y2="104.71000000000001" stroke="#dddddd" stroke-width="0.5" /><line x1="284.7" y1="236.5" x2="416.49" y2="148.44" stroke="#dddddd" stroke-width="0.5" /><line x1="284.7" y1="236.5" x2="440.15000000000003" y2="205.58" stroke="#dddddd" stroke-width="0.5" /><line x1="284.7" y1="236.5" x2="440.15000000000003" y2="267.42" stroke="#dddddd" stroke-width="0.5" /><line x1="284.7" y1="236.5" x2="416.49" y2="324.56" stroke="#dddddd" stroke-width="0.5" /><line x1="284.7" y1="236.5" x2="372.76" y2="368.29" stroke="#dddddd" stroke-width="0.5" /><line x1="284.7" y1="236.5" x2="315.62" y2="391.95" stroke="#dddddd" stroke-width="0.5" /><line x1="284.7" y1="236.5" x2="253.78" y2="391.95" stroke="#dddddd" stroke-width="0.5" /><line x1="284.7" y1="236.5" x2="196.64000000000001" y2="368.29" stroke="#dddddd" stroke-width="0.5" /><line x1="284.7" y1="236.5" x2="152.91" y2="324.56" stroke="#dddddd" stroke-width="0.5" /><line x1="284.7" y1="236.5" x2="129.25" y2="267.42" stroke="#dddddd" stroke-width="0.5" /><line x1="284.7" y1="236.5" x2="129.25" y2="205.58" stroke="#dddddd" stroke-width="0.5" /><line x1="284.7" y1="236.5" x2="152.91" y2="148.44" stroke="#dddddd" stroke-width="0.5" /><line x1="284.7" y1="236.5" x2="196.64000000000001" y2="104.71000000000001" stroke="#dddddd" stroke-width="0.5" /><line x1="284.7" y1="236.5" x2="253.78" y2="81.05" stroke="#dddddd" stroke-width="0.5" /><path d="M 284.70,236.50 L 286.08,78.01 A 158.50,158.50 0 0,1 344.08,89.54 Z" stroke="#ffffff" stroke-width="0.5" fill="#1f77b4" fill-opacity="0.75" /><path d="M 284.70,236.50 L 327.32,136.08 A 109.09,109.09 0 0,1 361.16,158.69 Z" stroke="#ffffff" stroke-width="0.5" fill="#1f77b4" fill-opacity="0.75" /><path d="M 284.70,236.50 L 342.69,179.51 A 81.31,81.31 0 0,1 359.55,204.73 Z" stroke="#ffffff" stroke-width="0.5" fill="#1f77b4" fill-opacity="0.75" /><path d="M 284.70,236.50 L 332.38,217.24 A 51.42,51.42 0 0,1 336.12,236.05 Z" stroke="#ffffff" stroke-width="0.5" fill="#1f77b4" fill-opacity="0.75" /><path d="M 284.70,236.50 L 347.68,237.05 A 62.98,62.98 0 0,1 343.10,260.09 Z" stroke="#ffffff" stroke-width="0.5" fill="#1f77b4" fill-opacity="0.75" /><path d="M 284.70,236.50 L 359.55,268.27 A 81.31,81.31 0 0,1 342.69,293.49 Z" stroke="#ffffff" stroke-width="0.5" fill="#1f77b4" fill-opacity="0.75" /><path d="M 284.70,236.50 L 361.16,314.31 A 109.09,109.09 0 0,1 327.32,336.92 Z" stroke="#ffffff" stroke-width="0.5" fill="#1f77b4" fill-opacity="0.75" /><path d="M 284.70,236.50 L 331.89,353.29 A 125.96,125.96 0 0,1 285.80,362.46 Z" stroke="#ffffff" stroke-width="0.5" fill="#1f77b4" fill-opacity="0.75" /><path d="M 284.70,236.50 L 283.32,394.99 A 158.50,158.50 0 0,1 225.32,383.46 Z" stroke="#ffffff" stroke-width="0.5" fill="#1f77b4" fill-opacity="0.75" /><path d="M 284.70,236.50 L 242.08,336.92 A 109.09,109.09 0 0,1 208.24,314.31 Z" stroke="#ffffff" stroke-width="0.5" fill="#1f77b4" fill-opacity="0.75" /><path d="M 284.70,236.50 L 226.71,293.49 A 81.31,81.31 0 0,1 209.85,268.27 Z" stroke="#ffffff" stroke-width="0.5" fill="#1f77b4" fill-opacity="0.75" /><path d="M 284.70,236.50 L 237.02,255.76 A 51.42,51.42 0 0,1 233.28,236.95 Z" stroke="#ffffff" stroke-width="0.5" fill="#1f77b4" fill-opacity="0.75" /><path d="M 284.70,236.50 L 221.72,235.95 A 62.98,62.98 0 0,1 226.30,212.91 Z" stroke="#ffffff" stroke-width="0.5" fill="#1f77b4" fill-opacity="0.75" /><path d="M 284.70,236.50 L 209.85,204.73 A 81.31,81.31 0 0,1 226.71,179.51 Z" stroke="#ffffff" stroke-width="0.5" fill="#1f77b4" fill-opacity="0.75" /><path d="M 284.70,236.50 L 208.24,158.69 A 109.09,109.09 0 0,1 242.08,136.08 Z" stroke="#ffffff" stroke-width="0.5" fill="#1f77b4" fill-opacity="0.75" /><path d="M 284.70,236.50 L 237.51,119.71 A 125.96,125.96 0 0,1 283.60,110.54 Z" stroke="#ffffff" stroke-width="0.5" fill="#1f77b4" fill-opacity="0.75" /><path d="M 126.20,236.50 A 158.50,158.50 0 1,0 443.20,236.50 A 158.50,158.50 0 1,0 126.20,236.50 Z" stroke="#aaaaaa" stroke-width="0.8" fill="none" /><text x="318.74" y="69.35000000000001" font-size="11" text-anchor="middle">N</text><text x="381.65000000000003" y="95.41" font-size="11" text-anchor="middle">NNE</text><text x="429.79" y="143.55" font-size="11" text-anchor="middle">NE</text><text x="455.85" y="206.46" font-size="11" text-anchor="middle">ENE</text><text x="455.85" y="274.54" font-size="11" text-anchor="middle">E</text><text x="429.79" y="337.45" font-size="11" text-anchor="middle">ESE</text><text x="381.65000000000003" y="385.59000000000003" font-size="11" text-anchor="middle">SE</text><text x="318.74" y="411.65000000000003" font-size="11" text-anchor="middle">SSE</text><text x="250.66" y="411.65000000000003" font-size="11" text-anchor="middle">S</text><text x="187.75" y="385.59000000000003" font-size="11" text-anchor="middle">SSW</text><text x="139.61" y="337.45" font-size="11" text-anchor="middle">SW</text><text x="113.55" y="274.54" font-size="11" text-anchor="middle">WSW</text><text x="113.55" y="206.46" font-size="11" text-anchor="middle">W</text><text x="139.61" y="143.55" font-size="11" text-anchor="middle">WNW</text><text x="187.75" y="95.41" font-size="11" text-anchor="middle">NW</text><text x="250.66" y="69.35000000000001" font-size="11" text-anchor="middle">NNW</text></svg>