<svg xmlns="http://www.w3.org/2000/svg" width="788.5" height="545" font-family="DejaVu Sans, Liberation Sans, Arial, sans-serif" fill="black"><rect width="100%" height="100%" fill="white" /><defs><clipPath id="kuva-clip-0"><rect x="59" y="44" width="600" height="450"/></clipPath></defs><line x1="144.71" y1="44" x2="144.71" y2="494" stroke="#cccccc" stroke-width="1" /><line x1="230.43" y1="44" x2="230.43" y2="494" stroke="#cccccc" stroke-width="1" /><line x1="316.14" y1="44" x2="316.14" y2="494" stroke="#cccccc" stroke-width="1" /><line x1="401.86" y1="44" x2="401.86" y2="494" stroke="#cccccc" stroke-width="1" /><line x1="487.57" y1="44" x2="487.57" y2="494" stroke="#cccccc" stroke-width="1" /><line x1="573.29" y1="44" x2="573.29" y2="494" stroke="#cccccc" stroke-width="1" /><line x1="659" y1="44" x2="659" y2="494" stroke="#cccccc" stroke-width="1" /><line x1="59" y1="429.71000000000004" x2="659" y2="429.71000000000004" stroke="#cccccc" stroke-width="1" /><line x1="59" y1="365.43" x2="659" y2="365.43" stroke="#cccccc" stroke-width="1" /><line x1="59" y1="301.14" x2="659" y2="301.14" stroke="#cccccc" stroke-width="1" /><line x1="59" y1="236.86" x2="659" y2="236.86" stroke="#cccccc" stroke-width="1" /><line x1="59" y1="172.57" x2="659" y2="172.57" stroke="#cccccc" stroke-width="1" /><line x1="59" y1="108.29" x2="659" y2="108.29" stroke="#cccccc" stroke-width="1" /><line x1="59" y1="44" x2="659" y2="44" stroke="#cccccc" stroke-width="1" /><line x1="59" y1="494" x2="659" y2="494" stroke="#000000" stroke-width="1" /><line x1="59" y1="44" x2="59" y2="494" stroke="#000000" stroke-width="1" /><line x1="59" y1="494" x2="59" y2="499" stroke="#000000" stroke-width="1" /><text x="59" y="511" font-size="12" text-anchor="middle">0</text><line x1="144.71" y1="494" x2="144.71" y2="499" stroke="#000000" stroke-width="1" /><text x="144.71" y="511" font-size="12" text-anchor="middle">1</text><line x1="230.43" y1="494" x2="230.43" y2="499" stroke="#000000" stroke-width="1" /><text x="230.43" y="511" font-size="12" text-anchor="middle">2</text><line x1="316.14" y1="494" x2="316.14" y2="499" stroke="#000000" stroke-width="1" /><text x="316.14" y="511" font-size="12" text-anchor="middle">3</text><line x1="401.86" y1="494" x2="401.86" y2="499" stroke="#000000" stroke-width="1" /><text x="401.86" y="511" font-size="12" text-anchor="middle">4</text><line x1="487.57" y1="494" x2="487.57" y2="499" stroke="#000000" stroke-width="1" /><text x="487.57" y="511" font-size="12" text-anchor="middle">5</text><line x1="573.29" y1="494" x2="573.29" y2="499" stroke="#000000" stroke-width="1" /><text x="573.29" y="511" font-size="12" text-anchor="middle">6</text><line x1="659" y1="494" x2="659" y2="499" stroke="#000000" stroke-width="1" /><text x="659" y="511" font-size="12" text-anchor="middle">7</text><line x1="54" y1="494" x2="59" y2="494" stroke="#000000" stroke-width="1" /><text x="51" y="498.2" font-size="12" text-anchor="end">0</text><line x1="54" y1="429.71000000000004" x2="59" y2="429.71000000000004" stroke="#000000" stroke-width="1" /><text x="51" y="433.91" font-size="12" text-anchor="end">1</text><line x1="54" y1="365.43" x2="59" y2="365.43" stroke="#000000" stroke-width="1" /><text x="51" y="369.63" font-size="12" text-anchor="end">2</text><line x1="54" y1="301.14" x2="59" y2="301.14" stroke="#000000" stroke-width="1" /><text x="51" y="305.34000000000003" font-size="12" text-anchor="end">3</text><line x1="54" y1="236.86" x2="59" y2="236.86" stroke="#000000" stroke-width="1" /><text x="51" y="241.06" font-size="12" text-anchor="end">4</text><line x1="54" y1="172.57" x2="59" y2="172.57" stroke="#000000" stroke-width="1" /><text x="51" y="176.77" font-size="12" text-anchor="end">5</text><line x1="54" y1="108.29" x2="59" y2="108.29" stroke="#000000" stroke-width="1" /><text x="51" y="112.49000000000001" font-size="12" text-anchor="end">6</text><line x1="54" y1="44" x2="59" y2="44" stroke="#000000" stroke-width="1" /><text x="51" y="48.2" font-size="12" text-anchor="end">7</text><text x="359" y="538" font-size="14" text-anchor="middle">X</text><text x="15" y="272.5" font-size="14" text-anchor="middle" transform="rotate(-90,15,272.5)">Y</text><text x="359" y="22" font-size="18" text-anchor="middle">Auto-Collected Legend</text><g clip-path="url(#kuva-clip-0)"><circle cx="153.29" cy="346.14" r="6" fill="#4682b4" /><circle cx="221.86" cy="294.71" r="6" fill="#4682b4" /><circle cx="264.71" cy="320.43" r="6" fill="#4682b4" /><circle cx="316.14" cy="249.71" r="6" fill="#4682b4" /><circle cx="367.57" cy="288.29" r="6" fill="#4682b4" /><circle cx="401.86" cy="416.86" r="6" fill="#ffa500" /><circle cx="470.43" cy="378.29" r="6" fill="#ffa500" /><circle cx="513.29" cy="404" r="6" fill="#ffa500" /><circle cx="573.29" cy="365.43" r="6" fill="#ffa500" /><circle cx="616.14" cy="391.14" r="6" fill="#ffa500" /><circle cx="230.43" cy="140.43" r="6" fill="mediumseagreen" /><circle cx="299" cy="101.86" r="6" fill="mediumseagreen" /><circle cx="359" cy="121.14" r="6" fill="mediumseagreen" /><circle cx="427.57" cy="76.14" r="6" fill="mediumseagreen" /><circle cx="487.57" cy="108.29" r="6" fill="mediumseagreen" /></g><rect x="664" y="34" width="111.5" height="74" fill="#ffffff" /><rect x="664" y="34" width="111.5" height="74" fill="none" stroke="#000000" stroke-width="1" /><text x="694" y="53.2" font-size="12" text-anchor="start">Cluster A</text><circle cx="679" cy="49" r="5" fill="#4682b4" /><text x="694" y="71.2" font-size="12" text-anchor="start">Cluster B</text><circle cx="679" cy="67" r="5" fill="#ffa500" /><text x="694" y="89.2" font-size="12" text-anchor="start">Cluster C</text><circle cx="679" cy="85" r="5" fill="mediumseagreen" /></svg>