<svg xmlns="http://www.w3.org/2000/svg" width="677" height="545" font-family="DejaVu Sans, Liberation Sans, Arial, sans-serif" fill="black"><rect width="100%" height="100%" fill="white" /><defs><clipPath id="kuva-clip-9"><rect x="59" y="44" width="600" height="450"/></clipPath></defs><line x1="179" y1="44" x2="179" y2="494" stroke="#cccccc" stroke-width="1" /><line x1="299" y1="44" x2="299" y2="494" stroke="#cccccc" stroke-width="1" /><line x1="419" y1="44" x2="419" y2="494" stroke="#cccccc" stroke-width="1" /><line x1="539" y1="44" x2="539" y2="494" stroke="#cccccc" stroke-width="1" /><line x1="659" y1="44" x2="659" y2="494" stroke="#cccccc" stroke-width="1" /><line x1="59" y1="381.5" x2="659" y2="381.5" stroke="#cccccc" stroke-width="1" /><line x1="59" y1="269" x2="659" y2="269" stroke="#cccccc" stroke-width="1" /><line x1="59" y1="156.5" x2="659" y2="156.5" stroke="#cccccc" stroke-width="1" /><line x1="59" y1="44" x2="659" y2="44" stroke="#cccccc" stroke-width="1" /><line x1="59" y1="494" x2="659" y2="494" stroke="#000000" stroke-width="1" /><line x1="59" y1="44" x2="59" y2="494" stroke="#000000" stroke-width="1" /><line x1="59" y1="494" x2="59" y2="499" stroke="#000000" stroke-width="1" /><text x="59" y="511" font-size="12" text-anchor="middle">0</text><line x1="179" y1="494" x2="179" y2="499" stroke="#000000" stroke-width="1" /><text x="179" y="511" font-size="12" text-anchor="middle">2.5</text><line x1="299" y1="494" x2="299" y2="499" stroke="#000000" stroke-width="1" /><text x="299" y="511" font-size="12" text-anchor="middle">5</text><line x1="419" y1="494" x2="419" y2="499" stroke="#000000" stroke-width="1" /><text x="419" y="511" font-size="12" text-anchor="middle">7.5</text><line x1="539" y1="494" x2="539" y2="499" stroke="#000000" stroke-width="1" /><text x="539" y="511" font-size="12" text-anchor="middle">10</text><line x1="659" y1="494" x2="659" y2="499" stroke="#000000" stroke-width="1" /><text x="659" y="511" font-size="12" text-anchor="middle">12.5</text><line x1="54" y1="494" x2="59" y2="494" stroke="#000000" stroke-width="1" /><text x="51" y="498.2" font-size="12" text-anchor="end">0</text><line x1="54" y1="381.5" x2="59" y2="381.5" stroke="#000000" stroke-width="1" /><text x="51" y="385.7" font-size="12" text-anchor="end">200</text><line x1="54" y1="269" x2="59" y2="269" stroke="#000000" stroke-width="1" /><text x="51" y="273.2" font-size="12" text-anchor="end">400</text><line x1="54" y1="156.5" x2="59" y2="156.5" stroke="#000000" stroke-width="1" /><text x="51" y="160.70000000000002" font-size="12" text-anchor="end">600</text><line x1="54" y1="44" x2="59" y2="44" stroke="#000000" stroke-width="1" /><text x="51" y="48.2" font-size="12" text-anchor="end">800</text><text x="359" y="538" font-size="14" text-anchor="middle">Month</text><text x="15" y="272.5" font-size="14" text-anchor="middle" transform="rotate(-90,15,272.5)">Variant count</text><text x="338.5" y="27.400000000000002" font-size="18" text-anchor="middle">Monthly Variant Counts</text><g clip-path="url(#kuva-clip-9)"><path d="M 107.0 257.75 L 155.0 243.69 L 203.0 270.13 L 251.0 207.13 L 299.0 219.5 L 347.0 212.19 L 395.0 231.31 L 443.0 199.81 L 491.0 215.56 L 539.0 190.25 L 587.0 202.63 L 635.0 181.81 L 635.0 494.0 L 587.0 494.0 L 539.0 494.0 L 491.0 494.0 L 443.0 494.0 L 395.0 494.0 L 347.0 494.0 L 299.0 494.0 L 251.0 494.0 L 203.0 494.0 L 155.0 494.0 L 107.0 494.0 Z" stroke="none" stroke-width="0" fill="#4682b4" fill-opacity="0.7000000000000001" /><path d="M 107.0 257.75 L 155.0 243.69 L 203.0 270.13 L 251.0 207.13 L 299.0 219.5 L 347.0 212.19 L 395.0 231.31 L 443.0 199.81 L 491.0 215.56 L 539.0 190.25 L 587.0 202.63 L 635.0 181.81 " stroke="#4682b4" stroke-width="1.5" fill="none" /><path d="M 107.0 204.31 L 155.0 186.31 L 203.0 220.63 L 251.0 142.44 L 299.0 158.75 L 347.0 149.19 L 395.0 176.19 L 443.0 129.5 L 491.0 149.19 L 539.0 117.13 L 587.0 134.0 L 635.0 103.06 L 635.0 181.81 L 587.0 202.63 L 539.0 190.25 L 491.0 215.56 L 443.0 199.81 L 395.0 231.31 L 347.0 212.19 L 299.0 219.5 L 251.0 207.13 L 203.0 270.13 L 155.0 243.69 L 107.0 257.75 Z" stroke="none" stroke-width="0" fill="#ffa500" fill-opacity="0.7000000000000001" /><path d="M 107.0 204.31 L 155.0 186.31 L 203.0 220.63 L 251.0 142.44 L 299.0 158.75 L 347.0 149.19 L 395.0 176.19 L 443.0 129.5 L 491.0 149.19 L 539.0 117.13 L 587.0 134.0 L 635.0 103.06 " stroke="#ffa500" stroke-width="1.5" fill="none" /><path d="M 107.0 191.94 L 155.0 172.25 L 203.0 209.38 L 251.0 126.69 L 299.0 144.13 L 347.0 134.0 L 395.0 162.69 L 443.0 112.06 L 491.0 133.44 L 539.0 98.56 L 587.0 117.13 L 635.0 83.38 L 635.0 103.06 L 587.0 134.0 L 539.0 117.13 L 491.0 149.19 L 443.0 129.5 L 395.0 176.19 L 347.0 149.19 L 299.0 158.75 L 251.0 142.44 L 203.0 220.63 L 155.0 186.31 L 107.0 204.31 Z" stroke="none" stroke-width="0" fill="mediumseagreen" fill-opacity="0.7000000000000001" /><path d="M 107.0 191.94 L 155.0 172.25 L 203.0 209.38 L 251.0 126.69 L 299.0 144.13 L 347.0 134.0 L 395.0 162.69 L 443.0 112.06 L 491.0 133.44 L 539.0 98.56 L 587.0 117.13 L 635.0 83.38 " stroke="mediumseagreen" stroke-width="1.5" fill="none" /><path d="M 107.0 183.5 L 155.0 162.69 L 203.0 201.5 L 251.0 116.0 L 299.0 134.0 L 347.0 123.88000000000001 L 395.0 153.69 L 443.0 100.25 L 491.0 122.75 L 539.0 85.63 L 587.0 105.31 L 635.0 69.88 L 635.0 83.38 L 587.0 117.13 L 539.0 98.56 L 491.0 133.44 L 443.0 112.06 L 395.0 162.69 L 347.0 134.0 L 299.0 144.13 L 251.0 126.69 L 203.0 209.38 L 155.0 172.25 L 107.0 191.94 Z" stroke="none" stroke-width="0" fill="#ff6347" fill-opacity="0.7000000000000001" /><path d="M 107.0 183.5 L 155.0 162.69 L 203.0 201.5 L 251.0 116.0 L 299.0 134.0 L 347.0 123.88000000000001 L 395.0 153.69 L 443.0 100.25 L 491.0 122.75 L 539.0 85.63 L 587.0 105.31 L 635.0 69.88 " stroke="#ff6347" stroke-width="1.5" fill="none" /></g><rect x="25" y="20" width="88" height="92" fill="#ffffff" /><rect x="25" y="20" width="88" height="92" fill="none" stroke="#000000" stroke-width="1" /><text x="55" y="39.2" font-size="12" text-anchor="start">SNVs</text><rect x="35" y="29" width="12" height="12" fill="#4682b4" /><text x="55" y="57.2" font-size="12" text-anchor="start">Indels</text><rect x="35" y="47" width="12" height="12" fill="#ffa500" /><text x="55" y="75.2" font-size="12" text-anchor="start">SVs</text><rect x="35" y="65" width="12" height="12" fill="mediumseagreen" /><text x="55" y="93.2" font-size="12" text-anchor="start">CNVs</text><rect x="35" y="83" width="12" height="12" fill="#ff6347" /></svg>