<svg xmlns="http://www.w3.org/2000/svg" width="1135" height="400" font-family="DejaVu Sans, Liberation Sans, Arial, sans-serif" fill="black"><rect width="100%" height="100%" fill="white" /><defs><clipPath id="kuva-clip-13"><rect x="59" y="44" width="426.6" height="285"/></clipPath><clipPath id="kuva-clip-14"><rect x="59" y="44" width="426.6" height="285"/></clipPath></defs><g transform="translate(10,10)"><line x1="119.94" y1="44" x2="119.94" y2="329" stroke="#cccccc" stroke-width="1" /><line x1="180.89000000000001" y1="44" x2="180.89000000000001" y2="329" stroke="#cccccc" stroke-width="1" /><line x1="241.83" y1="44" x2="241.83" y2="329" stroke="#cccccc" stroke-width="1" /><line x1="302.77" y1="44" x2="302.77" y2="329" stroke="#cccccc" stroke-width="1" /><line x1="363.71" y1="44" x2="363.71" y2="329" stroke="#cccccc" stroke-width="1" /><line x1="424.66" y1="44" x2="424.66" y2="329" stroke="#cccccc" stroke-width="1" /><line x1="485.6" y1="44" x2="485.6" y2="329" stroke="#cccccc" stroke-width="1" /><line x1="59" y1="281.5" x2="485.6" y2="281.5" stroke="#cccccc" stroke-width="1" /><line x1="59" y1="234" x2="485.6" y2="234" stroke="#cccccc" stroke-width="1" /><line x1="59" y1="186.5" x2="485.6" y2="186.5" stroke="#cccccc" stroke-width="1" /><line x1="59" y1="139" x2="485.6" y2="139" stroke="#cccccc" stroke-width="1" /><line x1="59" y1="91.5" x2="485.6" y2="91.5" stroke="#cccccc" stroke-width="1" /><line x1="59" y1="44" x2="485.6" y2="44" stroke="#cccccc" stroke-width="1" /><line x1="59" y1="329" x2="485.6" y2="329" stroke="#000000" stroke-width="1" /><line x1="59" y1="44" x2="59" y2="329" stroke="#000000" stroke-width="1" /><line x1="59" y1="329" x2="59" y2="334" stroke="#000000" stroke-width="1" /><text x="59" y="346" font-size="12" text-anchor="middle">0</text><line x1="119.94" y1="329" x2="119.94" y2="334" stroke="#000000" stroke-width="1" /><text x="119.94" y="346" font-size="12" text-anchor="middle">1</text><line x1="180.89000000000001" y1="329" x2="180.89000000000001" y2="334" stroke="#000000" stroke-width="1" /><text x="180.89000000000001" y="346" font-size="12" text-anchor="middle">2</text><line x1="241.83" y1="329" x2="241.83" y2="334" stroke="#000000" stroke-width="1" /><text x="241.83" y="346" font-size="12" text-anchor="middle">3</text><line x1="302.77" y1="329" x2="302.77" y2="334" stroke="#000000" stroke-width="1" /><text x="302.77" y="346" font-size="12" text-anchor="middle">4</text><line x1="363.71" y1="329" x2="363.71" y2="334" stroke="#000000" stroke-width="1" /><text x="363.71" y="346" font-size="12" text-anchor="middle">5</text><line x1="424.66" y1="329" x2="424.66" y2="334" stroke="#000000" stroke-width="1" /><text x="424.66" y="346" font-size="12" text-anchor="middle">6</text><line x1="485.6" y1="329" x2="485.6" y2="334" stroke="#000000" stroke-width="1" /><text x="485.6" y="346" font-size="12" text-anchor="middle">7</text><line x1="54" y1="329" x2="59" y2="329" stroke="#000000" stroke-width="1" /><text x="51" y="333.2" font-size="12" text-anchor="end">0</text><line x1="54" y1="281.5" x2="59" y2="281.5" stroke="#000000" stroke-width="1" /><text x="51" y="285.7" font-size="12" text-anchor="end">100</text><line x1="54" y1="234" x2="59" y2="234" stroke="#000000" stroke-width="1" /><text x="51" y="238.20000000000002" font-size="12" text-anchor="end">200</text><line x1="54" y1="186.5" x2="59" y2="186.5" stroke="#000000" stroke-width="1" /><text x="51" y="190.70000000000002" font-size="12" text-anchor="end">300</text><line x1="54" y1="139" x2="59" y2="139" stroke="#000000" stroke-width="1" /><text x="51" y="143.20000000000002" font-size="12" text-anchor="end">400</text><line x1="54" y1="91.5" x2="59" y2="91.5" stroke="#000000" stroke-width="1" /><text x="51" y="95.7" font-size="12" text-anchor="end">500</text><line x1="54" y1="44" x2="59" y2="44" stroke="#000000" stroke-width="1" /><text x="51" y="48.2" font-size="12" text-anchor="end">600</text><text x="272.3" y="373" font-size="14" text-anchor="middle">Month</text><text x="15" y="190" font-size="14" text-anchor="middle" transform="rotate(-90,15,190)">Count</text><text x="272.3" y="22" font-size="18" text-anchor="middle">Cohort H1</text><g clip-path="url(#kuva-clip-13)"><circle cx="119.94" cy="129.5" r="6" fill="#4682b4" /><circle cx="180.89000000000001" cy="107.18" r="6" fill="#4682b4" /><circle cx="241.83" cy="86.75" r="6" fill="#4682b4" /><circle cx="302.77" cy="80.58" r="6" fill="#4682b4" /><circle cx="363.71" cy="72.5" r="6" fill="#4682b4" /><circle cx="424.66" cy="65.38" r="6" fill="#4682b4" /><circle cx="119.94" cy="283.88" r="6" fill="#ffa500" /><circle cx="180.89000000000001" cy="282.45" r="6" fill="#ffa500" /><circle cx="241.83" cy="274.38" r="6" fill="#ffa500" /><circle cx="302.77" cy="269.63" r="6" fill="#ffa500" /><circle cx="363.71" cy="267.25" r="6" fill="#ffa500" /><circle cx="424.66" cy="262.5" r="6" fill="#ffa500" /><circle cx="119.94" cy="318.55" r="6" fill="mediumseagreen" /><circle cx="180.89000000000001" cy="317.6" r="6" fill="mediumseagreen" /><circle cx="241.83" cy="315.7" r="6" fill="mediumseagreen" /><circle cx="302.77" cy="314.27" r="6" fill="mediumseagreen" /><circle cx="363.71" cy="313.33" r="6" fill="mediumseagreen" /><circle cx="424.66" cy="312.38" r="6" fill="mediumseagreen" /><circle cx="119.94" cy="321.88" r="6" fill="#ff6347" /><circle cx="180.89000000000001" cy="321.40000000000003" r="6" fill="#ff6347" /><circle cx="241.83" cy="319.98" r="6" fill="#ff6347" /><circle cx="302.77" cy="319.02" r="6" fill="#ff6347" /><circle cx="363.71" cy="318.08" r="6" fill="#ff6347" /><circle cx="424.66" cy="317.6" r="6" fill="#ff6347" /></g></g><g transform="translate(525,10)"><line x1="119.94" y1="44" x2="119.94" y2="329" stroke="#cccccc" stroke-width="1" /><line x1="180.89000000000001" y1="44" x2="180.89000000000001" y2="329" stroke="#cccccc" stroke-width="1" /><line x1="241.83" y1="44" x2="241.83" y2="329" stroke="#cccccc" stroke-width="1" /><line x1="302.77" y1="44" x2="302.77" y2="329" stroke="#cccccc" stroke-width="1" /><line x1="363.71" y1="44" x2="363.71" y2="329" stroke="#cccccc" stroke-width="1" /><line x1="424.66" y1="44" x2="424.66" y2="329" stroke="#cccccc" stroke-width="1" /><line x1="485.6" y1="44" x2="485.6" y2="329" stroke="#cccccc" stroke-width="1" /><line x1="59" y1="281.5" x2="485.6" y2="281.5" stroke="#cccccc" stroke-width="1" /><line x1="59" y1="234" x2="485.6" y2="234" stroke="#cccccc" stroke-width="1" /><line x1="59" y1="186.5" x2="485.6" y2="186.5" stroke="#cccccc" stroke-width="1" /><line x1="59" y1="139" x2="485.6" y2="139" stroke="#cccccc" stroke-width="1" /><line x1="59" y1="91.5" x2="485.6" y2="91.5" stroke="#cccccc" stroke-width="1" /><line x1="59" y1="44" x2="485.6" y2="44" stroke="#cccccc" stroke-width="1" /><line x1="59" y1="329" x2="485.6" y2="329" stroke="#000000" stroke-width="1" /><line x1="59" y1="44" x2="59" y2="329" stroke="#000000" stroke-width="1" /><line x1="59" y1="329" x2="59" y2="334" stroke="#000000" stroke-width="1" /><text x="59" y="346" font-size="12" text-anchor="middle">0</text><line x1="119.94" y1="329" x2="119.94" y2="334" stroke="#000000" stroke-width="1" /><text x="119.94" y="346" font-size="12" text-anchor="middle">1</text><line x1="180.89000000000001" y1="329" x2="180.89000000000001" y2="334" stroke="#000000" stroke-width="1" /><text x="180.89000000000001" y="346" font-size="12" text-anchor="middle">2</text><line x1="241.83" y1="329" x2="241.83" y2="334" stroke="#000000" stroke-width="1" /><text x="241.83" y="346" font-size="12" text-anchor="middle">3</text><line x1="302.77" y1="329" x2="302.77" y2="334" stroke="#000000" stroke-width="1" /><text x="302.77" y="346" font-size="12" text-anchor="middle">4</text><line x1="363.71" y1="329" x2="363.71" y2="334" stroke="#000000" stroke-width="1" /><text x="363.71" y="346" font-size="12" text-anchor="middle">5</text><line x1="424.66" y1="329" x2="424.66" y2="334" stroke="#000000" stroke-width="1" /><text x="424.66" y="346" font-size="12" text-anchor="middle">6</text><line x1="485.6" y1="329" x2="485.6" y2="334" stroke="#000000" stroke-width="1" /><text x="485.6" y="346" font-size="12" text-anchor="middle">7</text><line x1="54" y1="329" x2="59" y2="329" stroke="#000000" stroke-width="1" /><text x="51" y="333.2" font-size="12" text-anchor="end">0</text><line x1="54" y1="281.5" x2="59" y2="281.5" stroke="#000000" stroke-width="1" /><text x="51" y="285.7" font-size="12" text-anchor="end">100</text><line x1="54" y1="234" x2="59" y2="234" stroke="#000000" stroke-width="1" /><text x="51" y="238.20000000000002" font-size="12" text-anchor="end">200</text><line x1="54" y1="186.5" x2="59" y2="186.5" stroke="#000000" stroke-width="1" /><text x="51" y="190.70000000000002" font-size="12" text-anchor="end">300</text><line x1="54" y1="139" x2="59" y2="139" stroke="#000000" stroke-width="1" /><text x="51" y="143.20000000000002" font-size="12" text-anchor="end">400</text><line x1="54" y1="91.5" x2="59" y2="91.5" stroke="#000000" stroke-width="1" /><text x="51" y="95.7" font-size="12" text-anchor="end">500</text><line x1="54" y1="44" x2="59" y2="44" stroke="#000000" stroke-width="1" /><text x="51" y="48.2" font-size="12" text-anchor="end">600</text><text x="272.3" y="373" font-size="14" text-anchor="middle">Month</text><text x="15" y="190" font-size="14" text-anchor="middle" transform="rotate(-90,15,190)">Count</text><text x="272.3" y="22" font-size="18" text-anchor="middle">Cohort H2</text><g clip-path="url(#kuva-clip-14)"><circle cx="119.94" cy="143.75" r="6" fill="#4682b4" /><circle cx="180.89000000000001" cy="120" r="6" fill="#4682b4" /><circle cx="241.83" cy="101" r="6" fill="#4682b4" /><circle cx="302.77" cy="89.13" r="6" fill="#4682b4" /><circle cx="363.71" cy="82" r="6" fill="#4682b4" /><circle cx="424.66" cy="74.88" r="6" fill="#4682b4" /><circle cx="119.94" cy="287.2" r="6" fill="#ffa500" /><circle cx="180.89000000000001" cy="283.88" r="6" fill="#ffa500" /><circle cx="241.83" cy="279.13" r="6" fill="#ffa500" /><circle cx="302.77" cy="272.95" r="6" fill="#ffa500" /><circle cx="363.71" cy="270.1" r="6" fill="#ffa500" /><circle cx="424.66" cy="266.3" r="6" fill="#ffa500" /><circle cx="119.94" cy="319.98" r="6" fill="mediumseagreen" /><circle cx="180.89000000000001" cy="318.55" r="6" fill="mediumseagreen" /><circle cx="241.83" cy="317.13" r="6" fill="mediumseagreen" /><circle cx="302.77" cy="315.7" r="6" fill="mediumseagreen" /><circle cx="363.71" cy="314.75" r="6" fill="mediumseagreen" /><circle cx="424.66" cy="313.33" r="6" fill="mediumseagreen" /><circle cx="119.94" cy="323.3" r="6" fill="#ff6347" /><circle cx="180.89000000000001" cy="322.35" r="6" fill="#ff6347" /><circle cx="241.83" cy="320.93" r="6" fill="#ff6347" /><circle cx="302.77" cy="319.98" r="6" fill="#ff6347" /><circle cx="363.71" cy="319.02" r="6" fill="#ff6347" /><circle cx="424.66" cy="318.08" r="6" fill="#ff6347" /></g></g><rect x="1040" y="154" width="80" height="92" fill="#ffffff" /><rect x="1040" y="154" width="80" height="92" fill="none" stroke="#000000" stroke-width="1" /><text x="1070" y="173.20000000000002" font-size="12" text-anchor="start">SNVs</text><circle cx="1056" cy="169" r="5" fill="#4682b4" /><text x="1070" y="191.20000000000002" font-size="12" text-anchor="start">Indels</text><circle cx="1056" cy="187" r="5" fill="#ffa500" /><text x="1070" y="209.20000000000002" font-size="12" text-anchor="start">SVs</text><circle cx="1056" cy="205" r="5" fill="mediumseagreen" /><text x="1070" y="227.20000000000002" font-size="12" text-anchor="start">CNVs</text><circle cx="1056" cy="223" r="5" fill="#ff6347" /></svg>