<svg xmlns="http://www.w3.org/2000/svg" width="801.9" height="545" font-family="DejaVu Sans, Liberation Sans, Arial, sans-serif" fill="black"><rect width="100%" height="100%" fill="white" /><defs><clipPath id="kuva-clip-8"><rect x="59" y="44" width="600" height="450"/></clipPath></defs><line x1="179" y1="44" x2="179" y2="494" stroke="#cccccc" stroke-width="1" /><line x1="299" y1="44" x2="299" y2="494" stroke="#cccccc" stroke-width="1" /><line x1="419" y1="44" x2="419" y2="494" stroke="#cccccc" stroke-width="1" /><line x1="539" y1="44" x2="539" y2="494" stroke="#cccccc" stroke-width="1" /><line x1="659" y1="44" x2="659" y2="494" stroke="#cccccc" stroke-width="1" /><line x1="59" y1="429.71000000000004" x2="659" y2="429.71000000000004" stroke="#cccccc" stroke-width="1" /><line x1="59" y1="365.43" x2="659" y2="365.43" stroke="#cccccc" stroke-width="1" /><line x1="59" y1="301.14" x2="659" y2="301.14" stroke="#cccccc" stroke-width="1" /><line x1="59" y1="236.86" x2="659" y2="236.86" stroke="#cccccc" stroke-width="1" /><line x1="59" y1="172.57" x2="659" y2="172.57" stroke="#cccccc" stroke-width="1" /><line x1="59" y1="108.29" x2="659" y2="108.29" stroke="#cccccc" stroke-width="1" /><line x1="59" y1="44" x2="659" y2="44" stroke="#cccccc" stroke-width="1" /><line x1="59" y1="494" x2="659" y2="494" stroke="#000000" stroke-width="1" /><line x1="59" y1="44" x2="59" y2="494" stroke="#000000" stroke-width="1" /><line x1="59" y1="494" x2="59" y2="499" stroke="#000000" stroke-width="1" /><text x="59" y="511" font-size="12" text-anchor="middle">0</text><line x1="179" y1="494" x2="179" y2="499" stroke="#000000" stroke-width="1" /><text x="179" y="511" font-size="12" text-anchor="middle">1</text><line x1="299" y1="494" x2="299" y2="499" stroke="#000000" stroke-width="1" /><text x="299" y="511" font-size="12" text-anchor="middle">2</text><line x1="419" y1="494" x2="419" y2="499" stroke="#000000" stroke-width="1" /><text x="419" y="511" font-size="12" text-anchor="middle">3</text><line x1="539" y1="494" x2="539" y2="499" stroke="#000000" stroke-width="1" /><text x="539" y="511" font-size="12" text-anchor="middle">4</text><line x1="659" y1="494" x2="659" y2="499" stroke="#000000" stroke-width="1" /><text x="659" y="511" font-size="12" text-anchor="middle">5</text><line x1="54" y1="494" x2="59" y2="494" stroke="#000000" stroke-width="1" /><text x="51" y="498.2" font-size="12" text-anchor="end">0</text><line x1="54" y1="429.71000000000004" x2="59" y2="429.71000000000004" stroke="#000000" stroke-width="1" /><text x="51" y="433.91" font-size="12" text-anchor="end">1</text><line x1="54" y1="365.43" x2="59" y2="365.43" stroke="#000000" stroke-width="1" /><text x="51" y="369.63" font-size="12" text-anchor="end">2</text><line x1="54" y1="301.14" x2="59" y2="301.14" stroke="#000000" stroke-width="1" /><text x="51" y="305.34000000000003" font-size="12" text-anchor="end">3</text><line x1="54" y1="236.86" x2="59" y2="236.86" stroke="#000000" stroke-width="1" /><text x="51" y="241.06" font-size="12" text-anchor="end">4</text><line x1="54" y1="172.57" x2="59" y2="172.57" stroke="#000000" stroke-width="1" /><text x="51" y="176.77" font-size="12" text-anchor="end">5</text><line x1="54" y1="108.29" x2="59" y2="108.29" stroke="#000000" stroke-width="1" /><text x="51" y="112.49000000000001" font-size="12" text-anchor="end">6</text><line x1="54" y1="44" x2="59" y2="44" stroke="#000000" stroke-width="1" /><text x="51" y="48.2" font-size="12" text-anchor="end">7</text><text x="359" y="538" font-size="14" text-anchor="middle">Time (h)</text><text x="15" y="272.5" font-size="14" text-anchor="middle" transform="rotate(-90,15,272.5)">Expression</text><text x="359" y="22" font-size="18" text-anchor="middle">Grouped Legend</text><g clip-path="url(#kuva-clip-8)"><circle cx="179" cy="359" r="6" fill="#4682b4" /><circle cx="299" cy="275.43" r="6" fill="#4682b4" /><circle cx="419" cy="307.57" r="6" fill="#4682b4" /><circle cx="539" cy="224" r="6" fill="#4682b4" /><circle cx="179" cy="378.29" r="6" fill="#4e9fd4" /><circle cx="299" cy="307.57" r="6" fill="#4e9fd4" /><circle cx="419" cy="333.29" r="6" fill="#4e9fd4" /><circle cx="539" cy="262.57" r="6" fill="#4e9fd4" /><circle cx="179" cy="333.29" r="6" fill="#ff6347" /><circle cx="299" cy="230.43" r="6" fill="#ff6347" /><circle cx="419" cy="153.29" r="6" fill="#ff6347" /><circle cx="539" cy="56.86" r="6" fill="#ff6347" /><circle cx="179" cy="352.57" r="6" fill="#e06060" /><circle cx="299" cy="249.71" r="6" fill="#e06060" /><circle cx="419" cy="172.57" r="6" fill="#e06060" /><circle cx="539" cy="95.43" r="6" fill="#e06060" /></g><rect x="664" y="34" width="128.5" height="137" fill="#ffffff" /><rect x="664" y="34" width="128.5" height="137" fill="none" stroke="#000000" stroke-width="1" /><text x="674" y="49" font-size="12" text-anchor="start" font-weight="bold">Controls</text><text x="694" y="71.2" font-size="12" text-anchor="start">Control-A</text><circle cx="679" cy="67" r="5" fill="#4682b4" /><text x="694" y="89.2" font-size="12" text-anchor="start">Control-B</text><circle cx="679" cy="85" r="5" fill="#4e9fd4" /><text x="674" y="112" font-size="12" text-anchor="start" font-weight="bold">Treatments</text><text x="694" y="134.2" font-size="12" text-anchor="start">Treatment-A</text><circle cx="679" cy="130" r="5" fill="#ff6347" /><text x="694" y="152.20000000000002" font-size="12" text-anchor="start">Treatment-B</text><circle cx="679" cy="148" r="5" fill="#e06060" /></svg>