<svg xmlns="http://www.w3.org/2000/svg" width="793.4" height="545" font-family="DejaVu Sans, Liberation Sans, Arial, sans-serif" fill="black"><rect width="100%" height="100%" fill="white" /><defs><clipPath id="kuva-clip-8"><rect x="59" y="44" width="600" height="450"/></clipPath></defs><line x1="179" y1="44" x2="179" y2="494" stroke="#cccccc" stroke-width="1" /><line x1="299" y1="44" x2="299" y2="494" stroke="#cccccc" stroke-width="1" /><line x1="419" y1="44" x2="419" y2="494" stroke="#cccccc" stroke-width="1" /><line x1="539" y1="44" x2="539" y2="494" stroke="#cccccc" stroke-width="1" /><line x1="659" y1="44" x2="659" y2="494" stroke="#cccccc" stroke-width="1" /><line x1="59" y1="419" x2="659" y2="419" stroke="#cccccc" stroke-width="1" /><line x1="59" y1="344" x2="659" y2="344" stroke="#cccccc" stroke-width="1" /><line x1="59" y1="269" x2="659" y2="269" stroke="#cccccc" stroke-width="1" /><line x1="59" y1="194" x2="659" y2="194" stroke="#cccccc" stroke-width="1" /><line x1="59" y1="119" x2="659" y2="119" stroke="#cccccc" stroke-width="1" /><line x1="59" y1="44" x2="659" y2="44" stroke="#cccccc" stroke-width="1" /><line x1="59" y1="494" x2="659" y2="494" stroke="#000000" stroke-width="1" /><line x1="59" y1="44" x2="59" y2="494" stroke="#000000" stroke-width="1" /><line x1="59" y1="494" x2="59" y2="499" stroke="#000000" stroke-width="1" /><text x="59" y="511" font-size="12" text-anchor="middle">0</text><line x1="179" y1="494" x2="179" y2="499" stroke="#000000" stroke-width="1" /><text x="179" y="511" font-size="12" text-anchor="middle">1</text><line x1="299" y1="494" x2="299" y2="499" stroke="#000000" stroke-width="1" /><text x="299" y="511" font-size="12" text-anchor="middle">2</text><line x1="419" y1="494" x2="419" y2="499" stroke="#000000" stroke-width="1" /><text x="419" y="511" font-size="12" text-anchor="middle">3</text><line x1="539" y1="494" x2="539" y2="499" stroke="#000000" stroke-width="1" /><text x="539" y="511" font-size="12" text-anchor="middle">4</text><line x1="659" y1="494" x2="659" y2="499" stroke="#000000" stroke-width="1" /><text x="659" y="511" font-size="12" text-anchor="middle">5</text><line x1="54" y1="494" x2="59" y2="494" stroke="#000000" stroke-width="1" /><text x="51" y="498.2" font-size="12" text-anchor="end">1</text><line x1="54" y1="419" x2="59" y2="419" stroke="#000000" stroke-width="1" /><text x="51" y="423.2" font-size="12" text-anchor="end">2</text><line x1="54" y1="344" x2="59" y2="344" stroke="#000000" stroke-width="1" /><text x="51" y="348.2" font-size="12" text-anchor="end">3</text><line x1="54" y1="269" x2="59" y2="269" stroke="#000000" stroke-width="1" /><text x="51" y="273.2" font-size="12" text-anchor="end">4</text><line x1="54" y1="194" x2="59" y2="194" stroke="#000000" stroke-width="1" /><text x="51" y="198.20000000000002" font-size="12" text-anchor="end">5</text><line x1="54" y1="119" x2="59" y2="119" stroke="#000000" stroke-width="1" /><text x="51" y="123.2" font-size="12" text-anchor="end">6</text><line x1="54" y1="44" x2="59" y2="44" stroke="#000000" stroke-width="1" /><text x="51" y="48.2" font-size="12" text-anchor="end">7</text><text x="359" y="538" font-size="14" text-anchor="middle">Time (h)</text><text x="15" y="272.5" font-size="14" text-anchor="middle" transform="rotate(-90,15,272.5)">Expression</text><text x="396.7" y="27.400000000000002" font-size="18" text-anchor="middle">Grouped Legend</text><g clip-path="url(#kuva-clip-8)"><circle cx="179" cy="411.5" r="6" fill="#4682b4" /><circle cx="299" cy="314" r="6" fill="#4682b4" /><circle cx="419" cy="351.5" r="6" fill="#4682b4" /><circle cx="539" cy="254" r="6" fill="#4682b4" /><circle cx="179" cy="434" r="6" fill="#4e9fd4" /><circle cx="299" cy="351.5" r="6" fill="#4e9fd4" /><circle cx="419" cy="381.5" r="6" fill="#4e9fd4" /><circle cx="539" cy="299" r="6" fill="#4e9fd4" /><circle cx="179" cy="381.5" r="6" fill="#ff6347" /><circle cx="299" cy="261.5" r="6" fill="#ff6347" /><circle cx="419" cy="171.5" r="6" fill="#ff6347" /><circle cx="539" cy="59" r="6" fill="#ff6347" /><circle cx="179" cy="404" r="6" fill="#e06060" /><circle cx="299" cy="284" r="6" fill="#e06060" /><circle cx="419" cy="194" r="6" fill="#e06060" /><circle cx="539" cy="104" r="6" fill="#e06060" /></g><rect x="664" y="34" width="120" height="137" fill="#ffffff" /><rect x="664" y="34" width="120" height="137" fill="none" stroke="#000000" stroke-width="1" /><text x="674" y="49" font-size="12" text-anchor="start" font-weight="bold">Controls</text><text x="694" y="71.2" font-size="12" text-anchor="start">Control-A</text><circle cx="679" cy="67" r="5" fill="#4682b4" /><text x="694" y="89.2" font-size="12" text-anchor="start">Control-B</text><circle cx="679" cy="85" r="5" fill="#4e9fd4" /><text x="674" y="112" font-size="12" text-anchor="start" font-weight="bold">Treatments</text><text x="694" y="134.2" font-size="12" text-anchor="start">Treatment-A</text><circle cx="679" cy="130" r="5" fill="#ff6347" /><text x="694" y="152.20000000000002" font-size="12" text-anchor="start">Treatment-B</text><circle cx="679" cy="148" r="5" fill="#e06060" /></svg>