<svg xmlns="http://www.w3.org/2000/svg" width="769.6" height="545" font-family="DejaVu Sans, Liberation Sans, Arial, sans-serif" fill="black"><rect width="100%" height="100%" fill="white" /><defs><clipPath id="kuva-clip-11"><rect x="59" y="44" width="600" height="450"/></clipPath></defs><line x1="179" y1="44" x2="179" y2="494" stroke="#cccccc" stroke-width="1" /><line x1="299" y1="44" x2="299" y2="494" stroke="#cccccc" stroke-width="1" /><line x1="419" y1="44" x2="419" y2="494" stroke="#cccccc" stroke-width="1" /><line x1="539" y1="44" x2="539" y2="494" stroke="#cccccc" stroke-width="1" /><line x1="659" y1="44" x2="659" y2="494" stroke="#cccccc" stroke-width="1" /><line x1="59" y1="404" x2="659" y2="404" stroke="#cccccc" stroke-width="1" /><line x1="59" y1="314" x2="659" y2="314" stroke="#cccccc" stroke-width="1" /><line x1="59" y1="224" x2="659" y2="224" stroke="#cccccc" stroke-width="1" /><line x1="59" y1="134" x2="659" y2="134" stroke="#cccccc" stroke-width="1" /><line x1="59" y1="44" x2="659" y2="44" stroke="#cccccc" stroke-width="1" /><line x1="59" y1="494" x2="659" y2="494" stroke="#000000" stroke-width="1" /><line x1="59" y1="44" x2="59" y2="494" stroke="#000000" stroke-width="1" /><line x1="59" y1="494" x2="59" y2="499" stroke="#000000" stroke-width="1" /><text x="59" y="511" font-size="12" text-anchor="middle">0</text><line x1="179" y1="494" x2="179" y2="499" stroke="#000000" stroke-width="1" /><text x="179" y="511" font-size="12" text-anchor="middle">1</text><line x1="299" y1="494" x2="299" y2="499" stroke="#000000" stroke-width="1" /><text x="299" y="511" font-size="12" text-anchor="middle">2</text><line x1="419" y1="494" x2="419" y2="499" stroke="#000000" stroke-width="1" /><text x="419" y="511" font-size="12" text-anchor="middle">3</text><line x1="539" y1="494" x2="539" y2="499" stroke="#000000" stroke-width="1" /><text x="539" y="511" font-size="12" text-anchor="middle">4</text><line x1="659" y1="494" x2="659" y2="499" stroke="#000000" stroke-width="1" /><text x="659" y="511" font-size="12" text-anchor="middle">5</text><line x1="54" y1="494" x2="59" y2="494" stroke="#000000" stroke-width="1" /><text x="51" y="498.2" font-size="12" text-anchor="end">0</text><line x1="54" y1="404" x2="59" y2="404" stroke="#000000" stroke-width="1" /><text x="51" y="408.2" font-size="12" text-anchor="end">1</text><line x1="54" y1="314" x2="59" y2="314" stroke="#000000" stroke-width="1" /><text x="51" y="318.2" font-size="12" text-anchor="end">2</text><line x1="54" y1="224" x2="59" y2="224" stroke="#000000" stroke-width="1" /><text x="51" y="228.20000000000002" font-size="12" text-anchor="end">3</text><line x1="54" y1="134" x2="59" y2="134" stroke="#000000" stroke-width="1" /><text x="51" y="138.20000000000002" font-size="12" text-anchor="end">4</text><line x1="54" y1="44" x2="59" y2="44" stroke="#000000" stroke-width="1" /><text x="51" y="48.2" font-size="12" text-anchor="end">5</text><text x="359" y="538" font-size="14" text-anchor="middle">Biomarker A</text><text x="15" y="272.5" font-size="14" text-anchor="middle" transform="rotate(-90,15,272.5)">Biomarker B</text><text x="384.8" y="27.400000000000002" font-size="18" text-anchor="middle">Manual Legend Entries</text><g clip-path="url(#kuva-clip-11)"><circle cx="203" cy="125" r="6" fill="#4682b4" /><circle cx="299" cy="152" r="6" fill="#4682b4" /><circle cx="395" cy="89" r="6" fill="#4682b4" /><circle cx="503" cy="134" r="6" fill="#4682b4" /><circle cx="599" cy="107" r="6" fill="#4682b4" /><circle cx="239" cy="269" r="6" fill="#ffa500" /><circle cx="335" cy="305" r="6" fill="#ffa500" /><circle cx="431" cy="242" r="6" fill="#ffa500" /><circle cx="539" cy="278" r="6" fill="#ffa500" /><circle cx="635" cy="251" r="6" fill="#ffa500" /><circle cx="191" cy="413" r="6" fill="#dc143c" /><circle cx="287" cy="377" r="6" fill="#dc143c" /><circle cx="383" cy="431" r="6" fill="#dc143c" /><circle cx="479" cy="395" r="6" fill="#dc143c" /><circle cx="575" cy="422" r="6" fill="#dc143c" /></g><rect x="664" y="34" width="92.60000000000001" height="74" fill="#ffffff" /><rect x="664" y="34" width="92.60000000000001" height="74" fill="none" stroke="#000000" stroke-width="1" /><text x="694" y="53.2" font-size="12" text-anchor="start">Healthy</text><circle cx="679" cy="49" r="5" fill="#4682b4" /><text x="694" y="71.2" font-size="12" text-anchor="start">At risk</text><rect x="674" y="61" width="12" height="12" fill="#ffa500" /><text x="694" y="89.2" font-size="12" text-anchor="start">Diseased</text><line x1="674" y1="85" x2="686" y2="85" stroke="#dc143c" stroke-width="2" /></svg>