<svg xmlns="http://www.w3.org/2000/svg" width="763" height="545" font-family="DejaVu Sans, Liberation Sans, Arial, sans-serif" fill="black"><rect width="100%" height="100%" fill="white" /><defs><clipPath id="kuva-clip-4"><rect x="145" y="44" width="600" height="450"/></clipPath></defs><line x1="265" y1="44" x2="265" y2="494" stroke="#cccccc" stroke-width="1" /><line x1="385" y1="44" x2="385" y2="494" stroke="#cccccc" stroke-width="1" /><line x1="505" y1="44" x2="505" y2="494" stroke="#cccccc" stroke-width="1" /><line x1="625" y1="44" x2="625" y2="494" stroke="#cccccc" stroke-width="1" /><line x1="745" y1="44" x2="745" y2="494" stroke="#cccccc" stroke-width="1" /><line x1="145" y1="381.5" x2="745" y2="381.5" stroke="#cccccc" stroke-width="1" /><line x1="145" y1="269" x2="745" y2="269" stroke="#cccccc" stroke-width="1" /><line x1="145" y1="156.5" x2="745" y2="156.5" stroke="#cccccc" stroke-width="1" /><line x1="145" y1="44" x2="745" y2="44" stroke="#cccccc" stroke-width="1" /><line x1="145" y1="494" x2="745" y2="494" stroke="#000000" stroke-width="1" /><line x1="145" y1="44" x2="145" y2="494" stroke="#000000" stroke-width="1" /><line x1="145" y1="494" x2="145" y2="499" stroke="#000000" stroke-width="1" /><text x="145" y="511" font-size="12" text-anchor="middle">0</text><line x1="265" y1="494" x2="265" y2="499" stroke="#000000" stroke-width="1" /><text x="265" y="511" font-size="12" text-anchor="middle">2.5</text><line x1="385" y1="494" x2="385" y2="499" stroke="#000000" stroke-width="1" /><text x="385" y="511" font-size="12" text-anchor="middle">5</text><line x1="505" y1="494" x2="505" y2="499" stroke="#000000" stroke-width="1" /><text x="505" y="511" font-size="12" text-anchor="middle">7.5</text><line x1="625" y1="494" x2="625" y2="499" stroke="#000000" stroke-width="1" /><text x="625" y="511" font-size="12" text-anchor="middle">10</text><line x1="745" y1="494" x2="745" y2="499" stroke="#000000" stroke-width="1" /><text x="745" y="511" font-size="12" text-anchor="middle">12.5</text><line x1="140" y1="494" x2="145" y2="494" stroke="#000000" stroke-width="1" /><text x="137" y="498.2" font-size="12" text-anchor="end">0</text><line x1="140" y1="381.5" x2="145" y2="381.5" stroke="#000000" stroke-width="1" /><text x="137" y="385.7" font-size="12" text-anchor="end">200</text><line x1="140" y1="269" x2="145" y2="269" stroke="#000000" stroke-width="1" /><text x="137" y="273.2" font-size="12" text-anchor="end">400</text><line x1="140" y1="156.5" x2="145" y2="156.5" stroke="#000000" stroke-width="1" /><text x="137" y="160.70000000000002" font-size="12" text-anchor="end">600</text><line x1="140" y1="44" x2="145" y2="44" stroke="#000000" stroke-width="1" /><text x="137" y="48.2" font-size="12" text-anchor="end">800</text><text x="445" y="538" font-size="14" text-anchor="middle">Month</text><text x="101" y="272.5" font-size="14" text-anchor="middle" transform="rotate(-90,101,272.5)">Variant count</text><text x="445" y="22" font-size="18" text-anchor="middle">Monthly Variant Counts</text><g clip-path="url(#kuva-clip-4)"><path d="M 193.0 257.75 L 241.0 243.69 L 289.0 270.13 L 337.0 207.13 L 385.0 219.5 L 433.0 212.19 L 481.0 231.31 L 529.0 199.81 L 577.0 215.56 L 625.0 190.25 L 673.0 202.63 L 721.0 181.81 L 721.0 494.0 L 673.0 494.0 L 625.0 494.0 L 577.0 494.0 L 529.0 494.0 L 481.0 494.0 L 433.0 494.0 L 385.0 494.0 L 337.0 494.0 L 289.0 494.0 L 241.0 494.0 L 193.0 494.0 Z" stroke="none" stroke-width="0" fill="#4682b4" fill-opacity="0.7000000000000001" /><path d="M 193.0 257.75 L 241.0 243.69 L 289.0 270.13 L 337.0 207.13 L 385.0 219.5 L 433.0 212.19 L 481.0 231.31 L 529.0 199.81 L 577.0 215.56 L 625.0 190.25 L 673.0 202.63 L 721.0 181.81 " stroke="#4682b4" stroke-width="1.5" fill="none" /><path d="M 193.0 204.31 L 241.0 186.31 L 289.0 220.63 L 337.0 142.44 L 385.0 158.75 L 433.0 149.19 L 481.0 176.19 L 529.0 129.5 L 577.0 149.19 L 625.0 117.13 L 673.0 134.0 L 721.0 103.06 L 721.0 181.81 L 673.0 202.63 L 625.0 190.25 L 577.0 215.56 L 529.0 199.81 L 481.0 231.31 L 433.0 212.19 L 385.0 219.5 L 337.0 207.13 L 289.0 270.13 L 241.0 243.69 L 193.0 257.75 Z" stroke="none" stroke-width="0" fill="#ffa500" fill-opacity="0.7000000000000001" /><path d="M 193.0 204.31 L 241.0 186.31 L 289.0 220.63 L 337.0 142.44 L 385.0 158.75 L 433.0 149.19 L 481.0 176.19 L 529.0 129.5 L 577.0 149.19 L 625.0 117.13 L 673.0 134.0 L 721.0 103.06 " stroke="#ffa500" stroke-width="1.5" fill="none" /><path d="M 193.0 191.94 L 241.0 172.25 L 289.0 209.38 L 337.0 126.69 L 385.0 144.13 L 433.0 134.0 L 481.0 162.69 L 529.0 112.06 L 577.0 133.44 L 625.0 98.56 L 673.0 117.13 L 721.0 83.38 L 721.0 103.06 L 673.0 134.0 L 625.0 117.13 L 577.0 149.19 L 529.0 129.5 L 481.0 176.19 L 433.0 149.19 L 385.0 158.75 L 337.0 142.44 L 289.0 220.63 L 241.0 186.31 L 193.0 204.31 Z" stroke="none" stroke-width="0" fill="mediumseagreen" fill-opacity="0.7000000000000001" /><path d="M 193.0 191.94 L 241.0 172.25 L 289.0 209.38 L 337.0 126.69 L 385.0 144.13 L 433.0 134.0 L 481.0 162.69 L 529.0 112.06 L 577.0 133.44 L 625.0 98.56 L 673.0 117.13 L 721.0 83.38 " stroke="mediumseagreen" stroke-width="1.5" fill="none" /><path d="M 193.0 183.5 L 241.0 162.69 L 289.0 201.5 L 337.0 116.0 L 385.0 134.0 L 433.0 123.88000000000001 L 481.0 153.69 L 529.0 100.25 L 577.0 122.75 L 625.0 85.63 L 673.0 105.31 L 721.0 69.88 L 721.0 83.38 L 673.0 117.13 L 625.0 98.56 L 577.0 133.44 L 529.0 112.06 L 481.0 162.69 L 433.0 134.0 L 385.0 144.13 L 337.0 126.69 L 289.0 209.38 L 241.0 172.25 L 193.0 191.94 Z" stroke="none" stroke-width="0" fill="#ff6347" fill-opacity="0.7000000000000001" /><path d="M 193.0 183.5 L 241.0 162.69 L 289.0 201.5 L 337.0 116.0 L 385.0 134.0 L 433.0 123.88000000000001 L 481.0 153.69 L 529.0 100.25 L 577.0 122.75 L 625.0 85.63 L 673.0 105.31 L 721.0 69.88 " stroke="#ff6347" stroke-width="1.5" fill="none" /></g><rect x="54" y="34" width="86" height="92" fill="#ffffff" /><rect x="54" y="34" width="86" height="92" fill="none" stroke="#000000" stroke-width="1" /><text x="84" y="53.2" font-size="12" text-anchor="start">SNVs</text><rect x="64" y="43" width="12" height="12" fill="#4682b4" /><text x="84" y="71.2" font-size="12" text-anchor="start">Indels</text><rect x="64" y="61" width="12" height="12" fill="#ffa500" /><text x="84" y="89.2" font-size="12" text-anchor="start">SVs</text><rect x="64" y="79" width="12" height="12" fill="mediumseagreen" /><text x="84" y="107.2" font-size="12" text-anchor="start">CNVs</text><rect x="64" y="97" width="12" height="12" fill="#ff6347" /></svg>