<svg xmlns="http://www.w3.org/2000/svg" width="765" height="545" font-family="DejaVu Sans, Liberation Sans, Arial, sans-serif" fill="black"><rect width="100%" height="100%" fill="white" /><defs><clipPath id="kuva-clip-4"><rect x="147" y="44" width="600" height="450"/></clipPath></defs><line x1="267" y1="44" x2="267" y2="494" stroke="#cccccc" stroke-width="1" /><line x1="387" y1="44" x2="387" y2="494" stroke="#cccccc" stroke-width="1" /><line x1="507" y1="44" x2="507" y2="494" stroke="#cccccc" stroke-width="1" /><line x1="627" y1="44" x2="627" y2="494" stroke="#cccccc" stroke-width="1" /><line x1="747" y1="44" x2="747" y2="494" stroke="#cccccc" stroke-width="1" /><line x1="147" y1="381.5" x2="747" y2="381.5" stroke="#cccccc" stroke-width="1" /><line x1="147" y1="269" x2="747" y2="269" stroke="#cccccc" stroke-width="1" /><line x1="147" y1="156.5" x2="747" y2="156.5" stroke="#cccccc" stroke-width="1" /><line x1="147" y1="44" x2="747" y2="44" stroke="#cccccc" stroke-width="1" /><line x1="147" y1="494" x2="747" y2="494" stroke="#000000" stroke-width="1" /><line x1="147" y1="44" x2="147" y2="494" stroke="#000000" stroke-width="1" /><line x1="147" y1="494" x2="147" y2="499" stroke="#000000" stroke-width="1" /><text x="147" y="511" font-size="12" text-anchor="middle">0</text><line x1="267" y1="494" x2="267" y2="499" stroke="#000000" stroke-width="1" /><text x="267" y="511" font-size="12" text-anchor="middle">2.5</text><line x1="387" y1="494" x2="387" y2="499" stroke="#000000" stroke-width="1" /><text x="387" y="511" font-size="12" text-anchor="middle">5</text><line x1="507" y1="494" x2="507" y2="499" stroke="#000000" stroke-width="1" /><text x="507" y="511" font-size="12" text-anchor="middle">7.5</text><line x1="627" y1="494" x2="627" y2="499" stroke="#000000" stroke-width="1" /><text x="627" y="511" font-size="12" text-anchor="middle">10</text><line x1="747" y1="494" x2="747" y2="499" stroke="#000000" stroke-width="1" /><text x="747" y="511" font-size="12" text-anchor="middle">12.5</text><line x1="142" y1="494" x2="147" y2="494" stroke="#000000" stroke-width="1" /><text x="139" y="498.2" font-size="12" text-anchor="end">0</text><line x1="142" y1="381.5" x2="147" y2="381.5" stroke="#000000" stroke-width="1" /><text x="139" y="385.7" font-size="12" text-anchor="end">200</text><line x1="142" y1="269" x2="147" y2="269" stroke="#000000" stroke-width="1" /><text x="139" y="273.2" font-size="12" text-anchor="end">400</text><line x1="142" y1="156.5" x2="147" y2="156.5" stroke="#000000" stroke-width="1" /><text x="139" y="160.70000000000002" font-size="12" text-anchor="end">600</text><line x1="142" y1="44" x2="147" y2="44" stroke="#000000" stroke-width="1" /><text x="139" y="48.2" font-size="12" text-anchor="end">800</text><text x="447" y="538" font-size="14" text-anchor="middle">Month</text><text x="103" y="272.5" font-size="14" text-anchor="middle" transform="rotate(-90,103,272.5)">Variant count</text><text x="382.5" y="27.400000000000002" font-size="18" text-anchor="middle">Monthly Variant Counts</text><g clip-path="url(#kuva-clip-4)"><path d="M 195.0 257.75 L 243.0 243.69 L 291.0 270.13 L 339.0 207.13 L 387.0 219.5 L 435.0 212.19 L 483.0 231.31 L 531.0 199.81 L 579.0 215.56 L 627.0 190.25 L 675.0 202.63 L 723.0 181.81 L 723.0 494.0 L 675.0 494.0 L 627.0 494.0 L 579.0 494.0 L 531.0 494.0 L 483.0 494.0 L 435.0 494.0 L 387.0 494.0 L 339.0 494.0 L 291.0 494.0 L 243.0 494.0 L 195.0 494.0 Z" stroke="none" stroke-width="0" fill="#4682b4" fill-opacity="0.7000000000000001" /><path d="M 195.0 257.75 L 243.0 243.69 L 291.0 270.13 L 339.0 207.13 L 387.0 219.5 L 435.0 212.19 L 483.0 231.31 L 531.0 199.81 L 579.0 215.56 L 627.0 190.25 L 675.0 202.63 L 723.0 181.81 " stroke="#4682b4" stroke-width="1.5" fill="none" /><path d="M 195.0 204.31 L 243.0 186.31 L 291.0 220.63 L 339.0 142.44 L 387.0 158.75 L 435.0 149.19 L 483.0 176.19 L 531.0 129.5 L 579.0 149.19 L 627.0 117.13 L 675.0 134.0 L 723.0 103.06 L 723.0 181.81 L 675.0 202.63 L 627.0 190.25 L 579.0 215.56 L 531.0 199.81 L 483.0 231.31 L 435.0 212.19 L 387.0 219.5 L 339.0 207.13 L 291.0 270.13 L 243.0 243.69 L 195.0 257.75 Z" stroke="none" stroke-width="0" fill="#ffa500" fill-opacity="0.7000000000000001" /><path d="M 195.0 204.31 L 243.0 186.31 L 291.0 220.63 L 339.0 142.44 L 387.0 158.75 L 435.0 149.19 L 483.0 176.19 L 531.0 129.5 L 579.0 149.19 L 627.0 117.13 L 675.0 134.0 L 723.0 103.06 " stroke="#ffa500" stroke-width="1.5" fill="none" /><path d="M 195.0 191.94 L 243.0 172.25 L 291.0 209.38 L 339.0 126.69 L 387.0 144.13 L 435.0 134.0 L 483.0 162.69 L 531.0 112.06 L 579.0 133.44 L 627.0 98.56 L 675.0 117.13 L 723.0 83.38 L 723.0 103.06 L 675.0 134.0 L 627.0 117.13 L 579.0 149.19 L 531.0 129.5 L 483.0 176.19 L 435.0 149.19 L 387.0 158.75 L 339.0 142.44 L 291.0 220.63 L 243.0 186.31 L 195.0 204.31 Z" stroke="none" stroke-width="0" fill="mediumseagreen" fill-opacity="0.7000000000000001" /><path d="M 195.0 191.94 L 243.0 172.25 L 291.0 209.38 L 339.0 126.69 L 387.0 144.13 L 435.0 134.0 L 483.0 162.69 L 531.0 112.06 L 579.0 133.44 L 627.0 98.56 L 675.0 117.13 L 723.0 83.38 " stroke="mediumseagreen" stroke-width="1.5" fill="none" /><path d="M 195.0 183.5 L 243.0 162.69 L 291.0 201.5 L 339.0 116.0 L 387.0 134.0 L 435.0 123.88000000000001 L 483.0 153.69 L 531.0 100.25 L 579.0 122.75 L 627.0 85.63 L 675.0 105.31 L 723.0 69.88 L 723.0 83.38 L 675.0 117.13 L 627.0 98.56 L 579.0 133.44 L 531.0 112.06 L 483.0 162.69 L 435.0 134.0 L 387.0 144.13 L 339.0 126.69 L 291.0 209.38 L 243.0 172.25 L 195.0 191.94 Z" stroke="none" stroke-width="0" fill="#ff6347" fill-opacity="0.7000000000000001" /><path d="M 195.0 183.5 L 243.0 162.69 L 291.0 201.5 L 339.0 116.0 L 387.0 134.0 L 435.0 123.88000000000001 L 483.0 153.69 L 531.0 100.25 L 579.0 122.75 L 627.0 85.63 L 675.0 105.31 L 723.0 69.88 " stroke="#ff6347" stroke-width="1.5" fill="none" /></g><rect x="5" y="34" width="88" height="92" fill="#ffffff" /><rect x="5" y="34" width="88" height="92" fill="none" stroke="#000000" stroke-width="1" /><text x="35" y="53.2" font-size="12" text-anchor="start">SNVs</text><rect x="15" y="43" width="12" height="12" fill="#4682b4" /><text x="35" y="71.2" font-size="12" text-anchor="start">Indels</text><rect x="15" y="61" width="12" height="12" fill="#ffa500" /><text x="35" y="89.2" font-size="12" text-anchor="start">SVs</text><rect x="15" y="79" width="12" height="12" fill="mediumseagreen" /><text x="35" y="107.2" font-size="12" text-anchor="start">CNVs</text><rect x="15" y="97" width="12" height="12" fill="#ff6347" /></svg>