<svg xmlns="http://www.w3.org/2000/svg" width="903.4" height="545" font-family="DejaVu Sans, Liberation Sans, Arial, sans-serif" fill="black"><rect width="100%" height="100%" fill="white" /><defs><clipPath id="kuva-clip-12"><rect x="59" y="44" width="600" height="450"/></clipPath></defs><line x1="144.71" y1="44" x2="144.71" y2="494" stroke="#cccccc" stroke-width="1" /><line x1="230.43" y1="44" x2="230.43" y2="494" stroke="#cccccc" stroke-width="1" /><line x1="316.14" y1="44" x2="316.14" y2="494" stroke="#cccccc" stroke-width="1" /><line x1="401.86" y1="44" x2="401.86" y2="494" stroke="#cccccc" stroke-width="1" /><line x1="487.57" y1="44" x2="487.57" y2="494" stroke="#cccccc" stroke-width="1" /><line x1="573.29" y1="44" x2="573.29" y2="494" stroke="#cccccc" stroke-width="1" /><line x1="659" y1="44" x2="659" y2="494" stroke="#cccccc" stroke-width="1" /><line x1="59" y1="404" x2="659" y2="404" stroke="#cccccc" stroke-width="1" /><line x1="59" y1="314" x2="659" y2="314" stroke="#cccccc" stroke-width="1" /><line x1="59" y1="224" x2="659" y2="224" stroke="#cccccc" stroke-width="1" /><line x1="59" y1="134" x2="659" y2="134" stroke="#cccccc" stroke-width="1" /><line x1="59" y1="44" x2="659" y2="44" stroke="#cccccc" stroke-width="1" /><line x1="59" y1="494" x2="659" y2="494" stroke="#000000" stroke-width="1" /><line x1="59" y1="44" x2="59" y2="494" stroke="#000000" stroke-width="1" /><line x1="59" y1="494" x2="59" y2="499" stroke="#000000" stroke-width="1" /><text x="59" y="511" font-size="12" text-anchor="middle">0</text><line x1="144.71" y1="494" x2="144.71" y2="499" stroke="#000000" stroke-width="1" /><text x="144.71" y="511" font-size="12" text-anchor="middle">0.5</text><line x1="230.43" y1="494" x2="230.43" y2="499" stroke="#000000" stroke-width="1" /><text x="230.43" y="511" font-size="12" text-anchor="middle">1</text><line x1="316.14" y1="494" x2="316.14" y2="499" stroke="#000000" stroke-width="1" /><text x="316.14" y="511" font-size="12" text-anchor="middle">1.5</text><line x1="401.86" y1="494" x2="401.86" y2="499" stroke="#000000" stroke-width="1" /><text x="401.86" y="511" font-size="12" text-anchor="middle">2</text><line x1="487.57" y1="494" x2="487.57" y2="499" stroke="#000000" stroke-width="1" /><text x="487.57" y="511" font-size="12" text-anchor="middle">2.5</text><line x1="573.29" y1="494" x2="573.29" y2="499" stroke="#000000" stroke-width="1" /><text x="573.29" y="511" font-size="12" text-anchor="middle">3</text><line x1="659" y1="494" x2="659" y2="499" stroke="#000000" stroke-width="1" /><text x="659" y="511" font-size="12" text-anchor="middle">3.5</text><line x1="54" y1="494" x2="59" y2="494" stroke="#000000" stroke-width="1" /><text x="51" y="498.2" font-size="12" text-anchor="end">0.5</text><line x1="54" y1="404" x2="59" y2="404" stroke="#000000" stroke-width="1" /><text x="51" y="408.2" font-size="12" text-anchor="end">1</text><line x1="54" y1="314" x2="59" y2="314" stroke="#000000" stroke-width="1" /><text x="51" y="318.2" font-size="12" text-anchor="end">1.5</text><line x1="54" y1="224" x2="59" y2="224" stroke="#000000" stroke-width="1" /><text x="51" y="228.20000000000002" font-size="12" text-anchor="end">2</text><line x1="54" y1="134" x2="59" y2="134" stroke="#000000" stroke-width="1" /><text x="51" y="138.20000000000002" font-size="12" text-anchor="end">2.5</text><line x1="54" y1="44" x2="59" y2="44" stroke="#000000" stroke-width="1" /><text x="51" y="48.2" font-size="12" text-anchor="end">3</text><text x="359" y="538" font-size="14" text-anchor="middle">Week</text><text x="15" y="272.5" font-size="14" text-anchor="middle" transform="rotate(-90,15,272.5)">Fold change</text><text x="451.7" y="27.400000000000002" font-size="18" text-anchor="middle">Long Labels — Width Override</text><g clip-path="url(#kuva-clip-12)"><circle cx="59" cy="404" r="6" fill="#4682b4" /><circle cx="230.43" cy="260" r="6" fill="#4682b4" /><circle cx="401.86" cy="152" r="6" fill="#4682b4" /><circle cx="573.29" cy="62" r="6" fill="#4682b4" /><circle cx="59" cy="422" r="6" fill="#ffa500" /><circle cx="230.43" cy="314" r="6" fill="#ffa500" /><circle cx="401.86" cy="260" r="6" fill="#ffa500" /><circle cx="573.29" cy="224" r="6" fill="#ffa500" /><circle cx="59" cy="440" r="6" fill="#dc143c" /><circle cx="230.43" cy="368" r="6" fill="#dc143c" /><circle cx="401.86" cy="332" r="6" fill="#dc143c" /><circle cx="573.29" cy="314" r="6" fill="#dc143c" /></g><rect x="664" y="34" width="230" height="74" fill="#ffffff" /><rect x="664" y="34" width="230" height="74" fill="none" stroke="#000000" stroke-width="1" /><text x="694" y="53.2" font-size="12" text-anchor="start">Homo sapiens (reference)</text><circle cx="679" cy="49" r="5" fill="#4682b4" /><text x="694" y="71.2" font-size="12" text-anchor="start">Mus musculus (knockout)</text><circle cx="679" cy="67" r="5" fill="#ffa500" /><text x="694" y="89.2" font-size="12" text-anchor="start">Rattus norvegicus (ctrl)</text><circle cx="679" cy="85" r="5" fill="#dc143c" /></svg>