<svg xmlns="http://www.w3.org/2000/svg" width="790.2" height="545" font-family="DejaVu Sans, Liberation Sans, Arial, sans-serif" fill="black"><rect width="100%" height="100%" fill="white" /><text x="395.1" y="27.400000000000002" font-size="18" text-anchor="middle">Gene Expression Profiles</text><line x1="93.8" y1="66" x2="93.8" y2="494" stroke="#555555" stroke-width="1.5" /><line x1="273.8" y1="66" x2="273.8" y2="494" stroke="#555555" stroke-width="1.5" /><line x1="453.8" y1="66" x2="453.8" y2="494" stroke="#555555" stroke-width="1.5" /><line x1="633.8000000000001" y1="66" x2="633.8000000000001" y2="494" stroke="#555555" stroke-width="1.5" /><text x="93.8" y="58" font-size="12" text-anchor="start" font-weight="bold">Control</text><text x="273.8" y="58" font-size="12" text-anchor="middle" font-weight="bold">Treated</text><text x="453.8" y="58" font-size="12" text-anchor="middle" font-weight="bold">Recovery</text><text x="633.8000000000001" y="58" font-size="12" text-anchor="end" font-weight="bold">Washout</text><line x1="93.8" y1="494" x2="97.8" y2="494" stroke="#555555" stroke-width="1" /><text x="99.8" y="497.5" font-size="10" text-anchor="start">1.5</text><line x1="93.8" y1="408.40000000000003" x2="97.8" y2="408.40000000000003" stroke="#555555" stroke-width="1" /><text x="99.8" y="411.90000000000003" font-size="10" text-anchor="start">2.2</text><line x1="93.8" y1="322.8" x2="97.8" y2="322.8" stroke="#555555" stroke-width="1" /><text x="99.8" y="326.3" font-size="10" text-anchor="start">2.9</text><line x1="93.8" y1="237.20000000000002" x2="97.8" y2="237.20000000000002" stroke="#555555" stroke-width="1" /><text x="99.8" y="240.70000000000002" font-size="10" text-anchor="start">3.6</text><line x1="93.8" y1="151.6" x2="97.8" y2="151.6" stroke="#555555" stroke-width="1" /><text x="99.8" y="155.1" font-size="10" text-anchor="start">4.3</text><line x1="93.8" y1="66" x2="97.8" y2="66" stroke="#555555" stroke-width="1" /><text x="99.8" y="69.5" font-size="10" text-anchor="start">5</text><line x1="273.8" y1="494" x2="277.8" y2="494" stroke="#555555" stroke-width="1" /><text x="279.8" y="497.5" font-size="10" text-anchor="start">1.2</text><line x1="273.8" y1="408.40000000000003" x2="277.8" y2="408.40000000000003" stroke="#555555" stroke-width="1" /><text x="279.8" y="411.90000000000003" font-size="10" text-anchor="start">2.18</text><line x1="273.8" y1="322.8" x2="277.8" y2="322.8" stroke="#555555" stroke-width="1" /><text x="279.8" y="326.3" font-size="10" text-anchor="start">3.16</text><line x1="273.8" y1="237.20000000000002" x2="277.8" y2="237.20000000000002" stroke="#555555" stroke-width="1" /><text x="279.8" y="240.70000000000002" font-size="10" text-anchor="start">4.14</text><line x1="273.8" y1="151.6" x2="277.8" y2="151.6" stroke="#555555" stroke-width="1" /><text x="279.8" y="155.1" font-size="10" text-anchor="start">5.12</text><line x1="273.8" y1="66" x2="277.8" y2="66" stroke="#555555" stroke-width="1" /><text x="279.8" y="69.5" font-size="10" text-anchor="start">6.1</text><line x1="453.8" y1="494" x2="457.8" y2="494" stroke="#555555" stroke-width="1" /><text x="459.8" y="497.5" font-size="10" text-anchor="start">0.7</text><line x1="453.8" y1="408.40000000000003" x2="457.8" y2="408.40000000000003" stroke="#555555" stroke-width="1" /><text x="459.8" y="411.90000000000003" font-size="10" text-anchor="start">1.31</text><line x1="453.8" y1="322.8" x2="457.8" y2="322.8" stroke="#555555" stroke-width="1" /><text x="459.8" y="326.3" font-size="10" text-anchor="start">1.92</text><line x1="453.8" y1="237.20000000000002" x2="457.8" y2="237.20000000000002" stroke="#555555" stroke-width="1" /><text x="459.8" y="240.70000000000002" font-size="10" text-anchor="start">2.53</text><line x1="453.8" y1="151.6" x2="457.8" y2="151.6" stroke="#555555" stroke-width="1" /><text x="459.8" y="155.1" font-size="10" text-anchor="start">3.14</text><line x1="453.8" y1="66" x2="457.8" y2="66" stroke="#555555" stroke-width="1" /><text x="459.8" y="69.5" font-size="10" text-anchor="start">3.75</text><line x1="633.8000000000001" y1="494" x2="629.8000000000001" y2="494" stroke="#555555" stroke-width="1" /><text x="627.8000000000001" y="497.5" font-size="10" text-anchor="end">1.2</text><line x1="633.8000000000001" y1="408.40000000000003" x2="629.8000000000001" y2="408.40000000000003" stroke="#555555" stroke-width="1" /><text x="627.8000000000001" y="411.90000000000003" font-size="10" text-anchor="end">1.74</text><line x1="633.8000000000001" y1="322.8" x2="629.8000000000001" y2="322.8" stroke="#555555" stroke-width="1" /><text x="627.8000000000001" y="326.3" font-size="10" text-anchor="end">2.28</text><line x1="633.8000000000001" y1="237.20000000000002" x2="629.8000000000001" y2="237.20000000000002" stroke="#555555" stroke-width="1" /><text x="627.8000000000001" y="240.70000000000002" font-size="10" text-anchor="end">2.82</text><line x1="633.8000000000001" y1="151.6" x2="629.8000000000001" y2="151.6" stroke="#555555" stroke-width="1" /><text x="627.8000000000001" y="155.1" font-size="10" text-anchor="end">3.36</text><line x1="633.8000000000001" y1="66" x2="629.8000000000001" y2="66" stroke="#555555" stroke-width="1" /><text x="627.8000000000001" y="69.5" font-size="10" text-anchor="end">3.9</text><path d="M 93.80,494.00 L 273.80,162.08 L 453.80,241.41 L 633.80,414.74" stroke="#1f77b4" stroke-width="1.5" fill="none" fill-opacity="0.5" /><path d="M 93.80,481.77 L 273.80,153.35 L 453.80,227.38 L 633.80,398.89" stroke="#1f77b4" stroke-width="1.5" fill="none" fill-opacity="0.5" /><path d="M 93.80,469.54 L 273.80,144.61 L 453.80,213.34 L 633.80,383.04" stroke="#1f77b4" stroke-width="1.5" fill="none" fill-opacity="0.5" /><path d="M 93.80,457.31 L 273.80,135.88 L 453.80,199.31 L 633.80,367.19" stroke="#1f77b4" stroke-width="1.5" fill="none" fill-opacity="0.5" /><path d="M 93.80,445.09 L 273.80,127.14 L 453.80,185.28 L 633.80,351.33" stroke="#1f77b4" stroke-width="1.5" fill="none" fill-opacity="0.5" /><path d="M 93.80,432.86 L 273.80,118.41 L 453.80,171.25 L 633.80,335.48" stroke="#1f77b4" stroke-width="1.5" fill="none" fill-opacity="0.5" /><path d="M 93.80,420.63 L 273.80,109.67 L 453.80,157.21 L 633.80,319.63" stroke="#1f77b4" stroke-width="1.5" fill="none" fill-opacity="0.5" /><path d="M 93.80,408.40 L 273.80,100.94 L 453.80,143.18 L 633.80,303.78" stroke="#1f77b4" stroke-width="1.5" fill="none" fill-opacity="0.5" /><path d="M 93.80,396.17 L 273.80,92.20 L 453.80,129.15 L 633.80,287.93" stroke="#1f77b4" stroke-width="1.5" fill="none" fill-opacity="0.5" /><path d="M 93.80,383.94 L 273.80,83.47 L 453.80,115.11 L 633.80,272.07" stroke="#1f77b4" stroke-width="1.5" fill="none" fill-opacity="0.5" /><path d="M 93.80,371.71 L 273.80,74.73 L 453.80,101.08 L 633.80,256.22" stroke="#1f77b4" stroke-width="1.5" fill="none" fill-opacity="0.5" /><path d="M 93.80,359.49 L 273.80,66.00 L 453.80,87.05 L 633.80,240.37" stroke="#1f77b4" stroke-width="1.5" fill="none" fill-opacity="0.5" /><path d="M 93.80,66.00 L 273.80,336.78 L 453.80,241.41 L 633.80,208.67" stroke="#ff7f0e" stroke-width="1.5" fill="none" fill-opacity="0.5" /><path d="M 93.80,90.46 L 273.80,354.24 L 453.80,269.48 L 633.80,240.37" stroke="#ff7f0e" stroke-width="1.5" fill="none" fill-opacity="0.5" /><path d="M 93.80,114.91 L 273.80,371.71 L 453.80,297.54 L 633.80,272.07" stroke="#ff7f0e" stroke-width="1.5" fill="none" fill-opacity="0.5" /><path d="M 93.80,139.37 L 273.80,389.18 L 453.80,325.61 L 633.80,303.78" stroke="#ff7f0e" stroke-width="1.5" fill="none" fill-opacity="0.5" /><path d="M 93.80,163.83 L 273.80,406.65 L 453.80,353.67 L 633.80,335.48" stroke="#ff7f0e" stroke-width="1.5" fill="none" fill-opacity="0.5" /><path d="M 93.80,188.29 L 273.80,424.12 L 453.80,381.74 L 633.80,367.19" stroke="#ff7f0e" stroke-width="1.5" fill="none" fill-opacity="0.5" /><path d="M 93.80,212.74 L 273.80,441.59 L 453.80,409.80 L 633.80,398.89" stroke="#ff7f0e" stroke-width="1.5" fill="none" fill-opacity="0.5" /><path d="M 93.80,237.20 L 273.80,459.06 L 453.80,437.87 L 633.80,430.59" stroke="#ff7f0e" stroke-width="1.5" fill="none" fill-opacity="0.5" /><path d="M 93.80,261.66 L 273.80,476.53 L 453.80,465.93 L 633.80,462.30" stroke="#ff7f0e" stroke-width="1.5" fill="none" fill-opacity="0.5" /><path d="M 93.80,286.11 L 273.80,494.00 L 453.80,494.00 L 633.80,494.00" stroke="#ff7f0e" stroke-width="1.5" fill="none" fill-opacity="0.5" /><path d="M 93.80,249.43 L 273.80,284.37 L 453.80,115.11 L 633.80,121.48" stroke="#2ca02c" stroke-width="1.5" fill="none" fill-opacity="0.5" /><path d="M 93.80,243.31 L 273.80,280.00 L 453.80,108.10 L 633.80,113.56" stroke="#2ca02c" stroke-width="1.5" fill="none" fill-opacity="0.5" /><path d="M 93.80,237.20 L 273.80,275.63 L 453.80,101.08 L 633.80,105.63" stroke="#2ca02c" stroke-width="1.5" fill="none" fill-opacity="0.5" /><path d="M 93.80,231.09 L 273.80,271.27 L 453.80,94.07 L 633.80,97.70" stroke="#2ca02c" stroke-width="1.5" fill="none" fill-opacity="0.5" /><path d="M 93.80,224.97 L 273.80,266.90 L 453.80,87.05 L 633.80,89.78" stroke="#2ca02c" stroke-width="1.5" fill="none" fill-opacity="0.5" /><path d="M 93.80,218.86 L 273.80,262.53 L 453.80,80.03 L 633.80,81.85" stroke="#2ca02c" stroke-width="1.5" fill="none" fill-opacity="0.5" /><path d="M 93.80,212.74 L 273.80,258.16 L 453.80,73.02 L 633.80,73.93" stroke="#2ca02c" stroke-width="1.5" fill="none" fill-opacity="0.5" /><path d="M 93.80,206.63 L 273.80,253.80 L 453.80,66.00 L 633.80,66.00" stroke="#2ca02c" stroke-width="1.5" fill="none" fill-opacity="0.5" /><rect x="668.8000000000001" y="34" width="112" height="74" fill="#ffffff" /><rect x="668.8000000000001" y="34" width="112" height="74" fill="none" stroke="#000000" stroke-width="1" /><text x="698.8000000000001" y="53.2" font-size="12" text-anchor="start">Induced</text><line x1="678.8000000000001" y1="49" x2="690.8000000000001" y2="49" stroke="#1f77b4" stroke-width="2" /><text x="698.8000000000001" y="71.2" font-size="12" text-anchor="start">Repressed</text><line x1="678.8000000000001" y1="67" x2="690.8000000000001" y2="67" stroke="#ff7f0e" stroke-width="2" /><text x="698.8000000000001" y="89.2" font-size="12" text-anchor="start">Stable</text><line x1="678.8000000000001" y1="85" x2="690.8000000000001" y2="85" stroke="#2ca02c" stroke-width="2" /></svg>