<svg xmlns="http://www.w3.org/2000/svg" width="798.2" height="545" font-family="DejaVu Sans, Liberation Sans, Arial, sans-serif" fill="black"><rect width="100%" height="100%" fill="white" /><text x="399.1" y="27.400000000000002" font-size="18" text-anchor="middle">Iris — Curved Lines + Group Means</text><line x1="93.8" y1="66" x2="93.8" y2="494" stroke="#555555" stroke-width="1.5" /><line x1="273.8" y1="66" x2="273.8" y2="494" stroke="#555555" stroke-width="1.5" /><line x1="453.8" y1="66" x2="453.8" y2="494" stroke="#555555" stroke-width="1.5" /><line x1="633.8000000000001" y1="66" x2="633.8000000000001" y2="494" stroke="#555555" stroke-width="1.5" /><text x="93.8" y="58" font-size="12" text-anchor="start" font-weight="bold">Sepal Length</text><text x="273.8" y="58" font-size="12" text-anchor="middle" font-weight="bold">Sepal Width</text><text x="453.8" y="58" font-size="12" text-anchor="middle" font-weight="bold">Petal Length</text><text x="633.8000000000001" y="58" font-size="12" text-anchor="end" font-weight="bold">Petal Width</text><line x1="93.8" y1="494" x2="97.8" y2="494" stroke="#555555" stroke-width="1" /><text x="99.8" y="497.5" font-size="10" text-anchor="start">4.4</text><line x1="93.8" y1="408.40000000000003" x2="97.8" y2="408.40000000000003" stroke="#555555" stroke-width="1" /><text x="99.8" y="411.90000000000003" font-size="10" text-anchor="start">5.04</text><line x1="93.8" y1="322.8" x2="97.8" y2="322.8" stroke="#555555" stroke-width="1" /><text x="99.8" y="326.3" font-size="10" text-anchor="start">5.68</text><line x1="93.8" y1="237.20000000000002" x2="97.8" y2="237.20000000000002" stroke="#555555" stroke-width="1" /><text x="99.8" y="240.70000000000002" font-size="10" text-anchor="start">6.32</text><line x1="93.8" y1="151.6" x2="97.8" y2="151.6" stroke="#555555" stroke-width="1" /><text x="99.8" y="155.1" font-size="10" text-anchor="start">6.96</text><line x1="93.8" y1="66" x2="97.8" y2="66" stroke="#555555" stroke-width="1" /><text x="99.8" y="69.5" font-size="10" text-anchor="start">7.6</text><line x1="273.8" y1="494" x2="277.8" y2="494" stroke="#555555" stroke-width="1" /><text x="279.8" y="497.5" font-size="10" text-anchor="start">2.3</text><line x1="273.8" y1="408.40000000000003" x2="277.8" y2="408.40000000000003" stroke="#555555" stroke-width="1" /><text x="279.8" y="411.90000000000003" font-size="10" text-anchor="start">2.62</text><line x1="273.8" y1="322.8" x2="277.8" y2="322.8" stroke="#555555" stroke-width="1" /><text x="279.8" y="326.3" font-size="10" text-anchor="start">2.94</text><line x1="273.8" y1="237.20000000000002" x2="277.8" y2="237.20000000000002" stroke="#555555" stroke-width="1" /><text x="279.8" y="240.70000000000002" font-size="10" text-anchor="start">3.26</text><line x1="273.8" y1="151.6" x2="277.8" y2="151.6" stroke="#555555" stroke-width="1" /><text x="279.8" y="155.1" font-size="10" text-anchor="start">3.58</text><line x1="273.8" y1="66" x2="277.8" y2="66" stroke="#555555" stroke-width="1" /><text x="279.8" y="69.5" font-size="10" text-anchor="start">3.9</text><line x1="453.8" y1="494" x2="457.8" y2="494" stroke="#555555" stroke-width="1" /><text x="459.8" y="497.5" font-size="10" text-anchor="start">1.3</text><line x1="453.8" y1="408.40000000000003" x2="457.8" y2="408.40000000000003" stroke="#555555" stroke-width="1" /><text x="459.8" y="411.90000000000003" font-size="10" text-anchor="start">2.36</text><line x1="453.8" y1="322.8" x2="457.8" y2="322.8" stroke="#555555" stroke-width="1" /><text x="459.8" y="326.3" font-size="10" text-anchor="start">3.42</text><line x1="453.8" y1="237.20000000000002" x2="457.8" y2="237.20000000000002" stroke="#555555" stroke-width="1" /><text x="459.8" y="240.70000000000002" font-size="10" text-anchor="start">4.48</text><line x1="453.8" y1="151.6" x2="457.8" y2="151.6" stroke="#555555" stroke-width="1" /><text x="459.8" y="155.1" font-size="10" text-anchor="start">5.54</text><line x1="453.8" y1="66" x2="457.8" y2="66" stroke="#555555" stroke-width="1" /><text x="459.8" y="69.5" font-size="10" text-anchor="start">6.6</text><line x1="633.8000000000001" y1="494" x2="629.8000000000001" y2="494" stroke="#555555" stroke-width="1" /><text x="627.8000000000001" y="497.5" font-size="10" text-anchor="end">0.1</text><line x1="633.8000000000001" y1="408.40000000000003" x2="629.8000000000001" y2="408.40000000000003" stroke="#555555" stroke-width="1" /><text x="627.8000000000001" y="411.90000000000003" font-size="10" text-anchor="end">0.58</text><line x1="633.8000000000001" y1="322.8" x2="629.8000000000001" y2="322.8" stroke="#555555" stroke-width="1" /><text x="627.8000000000001" y="326.3" font-size="10" text-anchor="end">1.06</text><line x1="633.8000000000001" y1="237.20000000000002" x2="629.8000000000001" y2="237.20000000000002" stroke="#555555" stroke-width="1" /><text x="627.8000000000001" y="240.70000000000002" font-size="10" text-anchor="end">1.54</text><line x1="633.8000000000001" y1="151.6" x2="629.8000000000001" y2="151.6" stroke="#555555" stroke-width="1" /><text x="627.8000000000001" y="155.1" font-size="10" text-anchor="end">2.02</text><line x1="633.8000000000001" y1="66" x2="629.8000000000001" y2="66" stroke="#555555" stroke-width="1" /><text x="627.8000000000001" y="69.5" font-size="10" text-anchor="end">2.5</text><path d="M 93.80,400.38 C 183.80,400.38 183.80,173.00 273.80,173.00 C 363.80,173.00 363.80,485.92 453.80,485.92 C 543.80,485.92 543.80,476.17 633.80,476.17" stroke="#1f77b4" stroke-width="1.2" fill="none" fill-opacity="0.35000000000000003" /><path d="M 93.80,427.12 C 183.80,427.12 183.80,306.75 273.80,306.75 C 363.80,306.75 363.80,485.92 453.80,485.92 C 543.80,485.92 543.80,476.17 633.80,476.17" stroke="#1f77b4" stroke-width="1.2" fill="none" fill-opacity="0.35000000000000003" /><path d="M 93.80,453.88 C 183.80,453.88 183.80,253.25 273.80,253.25 C 363.80,253.25 363.80,494.00 453.80,494.00 C 543.80,494.00 543.80,476.17 633.80,476.17" stroke="#1f77b4" stroke-width="1.2" fill="none" fill-opacity="0.35000000000000003" /><path d="M 93.80,467.25 C 183.80,467.25 183.80,280.00 273.80,280.00 C 363.80,280.00 363.80,477.85 453.80,477.85 C 543.80,477.85 543.80,476.17 633.80,476.17" stroke="#1f77b4" stroke-width="1.2" fill="none" fill-opacity="0.35000000000000003" /><path d="M 93.80,413.75 C 183.80,413.75 183.80,146.25 273.80,146.25 C 363.80,146.25 363.80,485.92 453.80,485.92 C 543.80,485.92 543.80,476.17 633.80,476.17" stroke="#1f77b4" stroke-width="1.2" fill="none" fill-opacity="0.35000000000000003" /><path d="M 93.80,360.25 C 183.80,360.25 183.80,66.00 273.80,66.00 C 363.80,66.00 363.80,461.70 453.80,461.70 C 543.80,461.70 543.80,440.50 633.80,440.50" stroke="#1f77b4" stroke-width="1.2" fill="none" fill-opacity="0.35000000000000003" /><path d="M 93.80,467.25 C 183.80,467.25 183.80,199.75 273.80,199.75 C 363.80,199.75 363.80,485.92 453.80,485.92 C 543.80,485.92 543.80,458.33 633.80,458.33" stroke="#1f77b4" stroke-width="1.2" fill="none" fill-opacity="0.35000000000000003" /><path d="M 93.80,413.75 C 183.80,413.75 183.80,199.75 273.80,199.75 C 363.80,199.75 363.80,477.85 453.80,477.85 C 543.80,477.85 543.80,476.17 633.80,476.17" stroke="#1f77b4" stroke-width="1.2" fill="none" fill-opacity="0.35000000000000003" /><path d="M 93.80,494.00 C 183.80,494.00 183.80,333.50 273.80,333.50 C 363.80,333.50 363.80,485.92 453.80,485.92 C 543.80,485.92 543.80,476.17 633.80,476.17" stroke="#1f77b4" stroke-width="1.2" fill="none" fill-opacity="0.35000000000000003" /><path d="M 93.80,427.12 C 183.80,427.12 183.80,280.00 273.80,280.00 C 363.80,280.00 363.80,477.85 453.80,477.85 C 543.80,477.85 543.80,494.00 633.80,494.00" stroke="#1f77b4" stroke-width="1.2" fill="none" fill-opacity="0.35000000000000003" /><path d="M 93.80,146.25 C 183.80,146.25 183.80,253.25 273.80,253.25 C 363.80,253.25 363.80,219.43 453.80,219.43 C 543.80,219.43 543.80,262.17 633.80,262.17" stroke="#ff7f0e" stroke-width="1.2" fill="none" fill-opacity="0.35000000000000003" /><path d="M 93.80,226.50 C 183.80,226.50 183.80,253.25 273.80,253.25 C 363.80,253.25 363.80,235.58 453.80,235.58 C 543.80,235.58 543.80,244.33 633.80,244.33" stroke="#ff7f0e" stroke-width="1.2" fill="none" fill-opacity="0.35000000000000003" /><path d="M 93.80,159.62 C 183.80,159.62 183.80,280.00 273.80,280.00 C 363.80,280.00 363.80,203.28 453.80,203.28 C 543.80,203.28 543.80,244.33 633.80,244.33" stroke="#ff7f0e" stroke-width="1.2" fill="none" fill-opacity="0.35000000000000003" /><path d="M 93.80,346.88 C 183.80,346.88 183.80,494.00 273.80,494.00 C 363.80,494.00 363.80,275.96 453.80,275.96 C 543.80,275.96 543.80,280.00 633.80,280.00" stroke="#ff7f0e" stroke-width="1.2" fill="none" fill-opacity="0.35000000000000003" /><path d="M 93.80,213.12 C 183.80,213.12 183.80,360.25 273.80,360.25 C 363.80,360.25 363.80,227.51 453.80,227.51 C 543.80,227.51 543.80,244.33 633.80,244.33" stroke="#ff7f0e" stroke-width="1.2" fill="none" fill-opacity="0.35000000000000003" /><path d="M 93.80,320.12 C 183.80,320.12 183.80,360.25 273.80,360.25 C 363.80,360.25 363.80,235.58 453.80,235.58 C 543.80,235.58 543.80,280.00 633.80,280.00" stroke="#ff7f0e" stroke-width="1.2" fill="none" fill-opacity="0.35000000000000003" /><path d="M 93.80,239.88 C 183.80,239.88 183.80,226.50 273.80,226.50 C 363.80,226.50 363.80,219.43 453.80,219.43 C 543.80,219.43 543.80,226.50 633.80,226.50" stroke="#ff7f0e" stroke-width="1.2" fill="none" fill-opacity="0.35000000000000003" /><path d="M 93.80,427.12 C 183.80,427.12 183.80,467.25 273.80,467.25 C 363.80,467.25 363.80,332.49 453.80,332.49 C 543.80,332.49 543.80,333.50 633.80,333.50" stroke="#ff7f0e" stroke-width="1.2" fill="none" fill-opacity="0.35000000000000003" /><path d="M 93.80,199.75 C 183.80,199.75 183.80,333.50 273.80,333.50 C 363.80,333.50 363.80,227.51 453.80,227.51 C 543.80,227.51 543.80,280.00 633.80,280.00" stroke="#ff7f0e" stroke-width="1.2" fill="none" fill-opacity="0.35000000000000003" /><path d="M 93.80,387.00 C 183.80,387.00 183.80,387.00 273.80,387.00 C 363.80,387.00 363.80,284.04 453.80,284.04 C 543.80,284.04 543.80,262.17 633.80,262.17" stroke="#ff7f0e" stroke-width="1.2" fill="none" fill-opacity="0.35000000000000003" /><path d="M 93.80,239.88 C 183.80,239.88 183.80,226.50 273.80,226.50 C 363.80,226.50 363.80,114.45 453.80,114.45 C 543.80,114.45 543.80,66.00 633.80,66.00" stroke="#2ca02c" stroke-width="1.2" fill="none" fill-opacity="0.35000000000000003" /><path d="M 93.80,306.75 C 183.80,306.75 183.80,387.00 273.80,387.00 C 363.80,387.00 363.80,187.13 453.80,187.13 C 543.80,187.13 543.80,173.00 633.80,173.00" stroke="#2ca02c" stroke-width="1.2" fill="none" fill-opacity="0.35000000000000003" /><path d="M 93.80,132.88 C 183.80,132.88 183.80,306.75 273.80,306.75 C 363.80,306.75 363.80,122.53 453.80,122.53 C 543.80,122.53 543.80,137.33 633.80,137.33" stroke="#2ca02c" stroke-width="1.2" fill="none" fill-opacity="0.35000000000000003" /><path d="M 93.80,239.88 C 183.80,239.88 183.80,333.50 273.80,333.50 C 363.80,333.50 363.80,146.75 453.80,146.75 C 543.80,146.75 543.80,190.83 633.80,190.83" stroke="#2ca02c" stroke-width="1.2" fill="none" fill-opacity="0.35000000000000003" /><path d="M 93.80,213.12 C 183.80,213.12 183.80,306.75 273.80,306.75 C 363.80,306.75 363.80,130.60 453.80,130.60 C 543.80,130.60 543.80,119.50 633.80,119.50" stroke="#2ca02c" stroke-width="1.2" fill="none" fill-opacity="0.35000000000000003" /><path d="M 93.80,66.00 C 183.80,66.00 183.80,306.75 273.80,306.75 C 363.80,306.75 363.80,66.00 453.80,66.00 C 543.80,66.00 543.80,137.33 633.80,137.33" stroke="#2ca02c" stroke-width="1.2" fill="none" fill-opacity="0.35000000000000003" /><path d="M 93.80,427.12 C 183.80,427.12 183.80,440.50 273.80,440.50 C 363.80,440.50 363.80,235.58 453.80,235.58 C 543.80,235.58 543.80,208.67 633.80,208.67" stroke="#2ca02c" stroke-width="1.2" fill="none" fill-opacity="0.35000000000000003" /><path d="M 93.80,106.12 C 183.80,106.12 183.80,333.50 273.80,333.50 C 363.80,333.50 363.80,90.23 453.80,90.23 C 543.80,90.23 543.80,190.83 633.80,190.83" stroke="#2ca02c" stroke-width="1.2" fill="none" fill-opacity="0.35000000000000003" /><path d="M 93.80,186.37 C 183.80,186.37 183.80,440.50 273.80,440.50 C 363.80,440.50 363.80,130.60 453.80,130.60 C 543.80,130.60 543.80,190.83 633.80,190.83" stroke="#2ca02c" stroke-width="1.2" fill="none" fill-opacity="0.35000000000000003" /><path d="M 93.80,119.50 C 183.80,119.50 183.80,146.25 273.80,146.25 C 363.80,146.25 363.80,106.38 453.80,106.38 C 543.80,106.38 543.80,66.00 633.80,66.00" stroke="#2ca02c" stroke-width="1.2" fill="none" fill-opacity="0.35000000000000003" /><path d="M 93.80,432.48 C 183.80,432.48 183.80,223.83 273.80,223.83 C 363.80,223.83 363.80,481.89 453.80,481.89 C 543.80,481.89 543.80,472.60 633.80,472.60" stroke="#1f77b4" stroke-width="3" fill="none" fill-opacity="1" /><path d="M 93.80,266.63 C 183.80,266.63 183.80,341.52 273.80,341.52 C 363.80,341.52 363.80,246.08 453.80,246.08 C 543.80,246.08 543.80,265.73 633.80,265.73" stroke="#ff7f0e" stroke-width="3" fill="none" fill-opacity="1" /><path d="M 93.80,203.76 C 183.80,203.76 183.80,322.80 273.80,322.80 C 363.80,322.80 363.80,133.03 453.80,133.03 C 543.80,133.03 543.80,148.03 633.80,148.03" stroke="#2ca02c" stroke-width="3" fill="none" fill-opacity="1" /><rect x="668.8000000000001" y="34" width="120" height="74" fill="#ffffff" /><rect x="668.8000000000001" y="34" width="120" height="74" fill="none" stroke="#000000" stroke-width="1" /><text x="698.8000000000001" y="53.2" font-size="12" text-anchor="start">setosa</text><line x1="678.8000000000001" y1="49" x2="690.8000000000001" y2="49" stroke="#1f77b4" stroke-width="2" /><text x="698.8000000000001" y="71.2" font-size="12" text-anchor="start">versicolor</text><line x1="678.8000000000001" y1="67" x2="690.8000000000001" y2="67" stroke="#ff7f0e" stroke-width="2" /><text x="698.8000000000001" y="89.2" font-size="12" text-anchor="start">virginica</text><line x1="678.8000000000001" y1="85" x2="690.8000000000001" y2="85" stroke="#2ca02c" stroke-width="2" /></svg>