<svg xmlns="http://www.w3.org/2000/svg" width="782.2" height="545" font-family="DejaVu Sans, Liberation Sans, Arial, sans-serif" fill="black"><rect width="100%" height="100%" fill="white" /><text x="391.1" y="27.400000000000002" font-size="18" text-anchor="middle">Shared Scale Parallel Plot</text><line x1="93.8" y1="66" x2="93.8" y2="494" stroke="#555555" stroke-width="1.5" /><line x1="273.8" y1="66" x2="273.8" y2="494" stroke="#555555" stroke-width="1.5" /><line x1="453.8" y1="66" x2="453.8" y2="494" stroke="#555555" stroke-width="1.5" /><line x1="633.8000000000001" y1="66" x2="633.8000000000001" y2="494" stroke="#555555" stroke-width="1.5" /><text x="93.8" y="58" font-size="12" text-anchor="start" font-weight="bold">Q1 Score</text><text x="273.8" y="58" font-size="12" text-anchor="middle" font-weight="bold">Q2 Score</text><text x="453.8" y="58" font-size="12" text-anchor="middle" font-weight="bold">Q3 Score</text><text x="633.8000000000001" y="58" font-size="12" text-anchor="end" font-weight="bold">Q4 Score</text><line x1="93.8" y1="494" x2="97.8" y2="494" stroke="#555555" stroke-width="1" /><text x="99.8" y="497.5" font-size="10" text-anchor="start">48</text><line x1="93.8" y1="408.40000000000003" x2="97.8" y2="408.40000000000003" stroke="#555555" stroke-width="1" /><text x="99.8" y="411.90000000000003" font-size="10" text-anchor="start">56.4</text><line x1="93.8" y1="322.8" x2="97.8" y2="322.8" stroke="#555555" stroke-width="1" /><text x="99.8" y="326.3" font-size="10" text-anchor="start">64.8</text><line x1="93.8" y1="237.20000000000002" x2="97.8" y2="237.20000000000002" stroke="#555555" stroke-width="1" /><text x="99.8" y="240.70000000000002" font-size="10" text-anchor="start">73.2</text><line x1="93.8" y1="151.6" x2="97.8" y2="151.6" stroke="#555555" stroke-width="1" /><text x="99.8" y="155.1" font-size="10" text-anchor="start">81.6</text><line x1="93.8" y1="66" x2="97.8" y2="66" stroke="#555555" stroke-width="1" /><text x="99.8" y="69.5" font-size="10" text-anchor="start">90</text><line x1="273.8" y1="494" x2="277.8" y2="494" stroke="#555555" stroke-width="1" /><text x="279.8" y="497.5" font-size="10" text-anchor="start">48</text><line x1="273.8" y1="408.40000000000003" x2="277.8" y2="408.40000000000003" stroke="#555555" stroke-width="1" /><text x="279.8" y="411.90000000000003" font-size="10" text-anchor="start">56.4</text><line x1="273.8" y1="322.8" x2="277.8" y2="322.8" stroke="#555555" stroke-width="1" /><text x="279.8" y="326.3" font-size="10" text-anchor="start">64.8</text><line x1="273.8" y1="237.20000000000002" x2="277.8" y2="237.20000000000002" stroke="#555555" stroke-width="1" /><text x="279.8" y="240.70000000000002" font-size="10" text-anchor="start">73.2</text><line x1="273.8" y1="151.6" x2="277.8" y2="151.6" stroke="#555555" stroke-width="1" /><text x="279.8" y="155.1" font-size="10" text-anchor="start">81.6</text><line x1="273.8" y1="66" x2="277.8" y2="66" stroke="#555555" stroke-width="1" /><text x="279.8" y="69.5" font-size="10" text-anchor="start">90</text><line x1="453.8" y1="494" x2="457.8" y2="494" stroke="#555555" stroke-width="1" /><text x="459.8" y="497.5" font-size="10" text-anchor="start">48</text><line x1="453.8" y1="408.40000000000003" x2="457.8" y2="408.40000000000003" stroke="#555555" stroke-width="1" /><text x="459.8" y="411.90000000000003" font-size="10" text-anchor="start">56.4</text><line x1="453.8" y1="322.8" x2="457.8" y2="322.8" stroke="#555555" stroke-width="1" /><text x="459.8" y="326.3" font-size="10" text-anchor="start">64.8</text><line x1="453.8" y1="237.20000000000002" x2="457.8" y2="237.20000000000002" stroke="#555555" stroke-width="1" /><text x="459.8" y="240.70000000000002" font-size="10" text-anchor="start">73.2</text><line x1="453.8" y1="151.6" x2="457.8" y2="151.6" stroke="#555555" stroke-width="1" /><text x="459.8" y="155.1" font-size="10" text-anchor="start">81.6</text><line x1="453.8" y1="66" x2="457.8" y2="66" stroke="#555555" stroke-width="1" /><text x="459.8" y="69.5" font-size="10" text-anchor="start">90</text><line x1="633.8000000000001" y1="494" x2="629.8000000000001" y2="494" stroke="#555555" stroke-width="1" /><text x="627.8000000000001" y="497.5" font-size="10" text-anchor="end">48</text><line x1="633.8000000000001" y1="408.40000000000003" x2="629.8000000000001" y2="408.40000000000003" stroke="#555555" stroke-width="1" /><text x="627.8000000000001" y="411.90000000000003" font-size="10" text-anchor="end">56.4</text><line x1="633.8000000000001" y1="322.8" x2="629.8000000000001" y2="322.8" stroke="#555555" stroke-width="1" /><text x="627.8000000000001" y="326.3" font-size="10" text-anchor="end">64.8</text><line x1="633.8000000000001" y1="237.20000000000002" x2="629.8000000000001" y2="237.20000000000002" stroke="#555555" stroke-width="1" /><text x="627.8000000000001" y="240.70000000000002" font-size="10" text-anchor="end">73.2</text><line x1="633.8000000000001" y1="151.6" x2="629.8000000000001" y2="151.6" stroke="#555555" stroke-width="1" /><text x="627.8000000000001" y="155.1" font-size="10" text-anchor="end">81.6</text><line x1="633.8000000000001" y1="66" x2="629.8000000000001" y2="66" stroke="#555555" stroke-width="1" /><text x="627.8000000000001" y="69.5" font-size="10" text-anchor="end">90</text><path d="M 93.80,269.81 L 273.80,167.90 L 453.80,218.86 L 633.80,116.95" stroke="#4682b4" stroke-width="1.2" fill="none" fill-opacity="0.6" /><path d="M 93.80,320.76 L 273.80,249.43 L 453.80,290.19 L 633.80,188.29" stroke="#4682b4" stroke-width="1.2" fill="none" fill-opacity="0.6" /><path d="M 93.80,167.90 L 273.80,116.95 L 453.80,66.00 L 633.80,86.38" stroke="#4682b4" stroke-width="1.2" fill="none" fill-opacity="0.6" /><path d="M 93.80,422.67 L 273.80,371.71 L 453.80,392.10 L 633.80,351.33" stroke="#ff6347" stroke-width="1.2" fill="none" fill-opacity="0.6" /><path d="M 93.80,249.43 L 273.80,188.29 L 453.80,167.90 L 633.80,208.67" stroke="#ff6347" stroke-width="1.2" fill="none" fill-opacity="0.6" /><path d="M 93.80,494.00 L 273.80,453.24 L 453.80,422.67 L 633.80,473.62" stroke="#ff6347" stroke-width="1.2" fill="none" fill-opacity="0.6" /><rect x="668.8000000000001" y="34" width="104" height="56" fill="#ffffff" /><rect x="668.8000000000001" y="34" width="104" height="56" fill="none" stroke="#000000" stroke-width="1" /><text x="698.8000000000001" y="53.2" font-size="12" text-anchor="start">Cohort A</text><line x1="678.8000000000001" y1="49" x2="690.8000000000001" y2="49" stroke="#4682b4" stroke-width="2" /><text x="698.8000000000001" y="71.2" font-size="12" text-anchor="start">Cohort B</text><line x1="678.8000000000001" y1="67" x2="690.8000000000001" y2="67" stroke="#ff6347" stroke-width="2" /></svg>