<svg xmlns="http://www.w3.org/2000/svg" width="841.8000000000001" height="545" font-family="DejaVu Sans, Liberation Sans, Arial, sans-serif" fill="black"><rect width="100%" height="100%" fill="white" /><defs><clipPath id="kuva-clip-4"><rect x="63.800000000000004" y="44" width="600" height="450"/></clipPath></defs><line x1="163.8" y1="44" x2="163.8" y2="494" stroke="#cccccc" stroke-width="1" /><line x1="263.8" y1="44" x2="263.8" y2="494" stroke="#cccccc" stroke-width="1" /><line x1="363.8" y1="44" x2="363.8" y2="494" stroke="#cccccc" stroke-width="1" /><line x1="463.8" y1="44" x2="463.8" y2="494" stroke="#cccccc" stroke-width="1" /><line x1="563.8000000000001" y1="44" x2="563.8000000000001" y2="494" stroke="#cccccc" stroke-width="1" /><line x1="663.8000000000001" y1="44" x2="663.8000000000001" y2="494" stroke="#cccccc" stroke-width="1" /><line x1="63.800000000000004" y1="456.5" x2="663.8000000000001" y2="456.5" stroke="#cccccc" stroke-width="1" /><line x1="63.800000000000004" y1="362.75" x2="663.8000000000001" y2="362.75" stroke="#cccccc" stroke-width="1" /><line x1="63.800000000000004" y1="269" x2="663.8000000000001" y2="269" stroke="#cccccc" stroke-width="1" /><line x1="63.800000000000004" y1="175.25" x2="663.8000000000001" y2="175.25" stroke="#cccccc" stroke-width="1" /><line x1="63.800000000000004" y1="81.5" x2="663.8000000000001" y2="81.5" stroke="#cccccc" stroke-width="1" /><line x1="63.800000000000004" y1="494" x2="663.8000000000001" y2="494" stroke="#000000" stroke-width="1" /><line x1="63.800000000000004" y1="44" x2="63.800000000000004" y2="494" stroke="#000000" stroke-width="1" /><line x1="63.800000000000004" y1="494" x2="63.800000000000004" y2="499" stroke="#000000" stroke-width="1" /><text x="63.800000000000004" y="511" font-size="12" text-anchor="middle">0</text><line x1="163.8" y1="494" x2="163.8" y2="499" stroke="#000000" stroke-width="1" /><text x="163.8" y="511" font-size="12" text-anchor="middle">10</text><line x1="263.8" y1="494" x2="263.8" y2="499" stroke="#000000" stroke-width="1" /><text x="263.8" y="511" font-size="12" text-anchor="middle">20</text><line x1="363.8" y1="494" x2="363.8" y2="499" stroke="#000000" stroke-width="1" /><text x="363.8" y="511" font-size="12" text-anchor="middle">30</text><line x1="463.8" y1="494" x2="463.8" y2="499" stroke="#000000" stroke-width="1" /><text x="463.8" y="511" font-size="12" text-anchor="middle">40</text><line x1="563.8000000000001" y1="494" x2="563.8000000000001" y2="499" stroke="#000000" stroke-width="1" /><text x="563.8000000000001" y="511" font-size="12" text-anchor="middle">50</text><line x1="663.8000000000001" y1="494" x2="663.8000000000001" y2="499" stroke="#000000" stroke-width="1" /><text x="663.8000000000001" y="511" font-size="12" text-anchor="middle">60</text><line x1="58.800000000000004" y1="456.5" x2="63.800000000000004" y2="456.5" stroke="#000000" stroke-width="1" /><text x="55.800000000000004" y="460.7" font-size="12" text-anchor="end">-500</text><line x1="58.800000000000004" y1="362.75" x2="63.800000000000004" y2="362.75" stroke="#000000" stroke-width="1" /><text x="55.800000000000004" y="366.95" font-size="12" text-anchor="end">-250</text><line x1="58.800000000000004" y1="269" x2="63.800000000000004" y2="269" stroke="#000000" stroke-width="1" /><text x="55.800000000000004" y="273.2" font-size="12" text-anchor="end">0</text><line x1="58.800000000000004" y1="175.25" x2="63.800000000000004" y2="175.25" stroke="#000000" stroke-width="1" /><text x="55.800000000000004" y="179.45000000000002" font-size="12" text-anchor="end">250</text><line x1="58.800000000000004" y1="81.5" x2="63.800000000000004" y2="81.5" stroke="#000000" stroke-width="1" /><text x="55.800000000000004" y="85.7" font-size="12" text-anchor="end">500</text><text x="363.8" y="538" font-size="14" text-anchor="middle">Week</text><text x="420.90000000000003" y="27.400000000000002" font-size="18" text-anchor="middle">Gut microbiome — by-total ordering</text><g clip-path="url(#kuva-clip-4)"><path d="M 73.8 331.6 C 75.47 331.78000000000003 80.47 333.35 83.8 332.65000000000003 C 87.13 331.96 90.47 328.71 93.8 327.45 C 97.13 326.19 100.47 326.19 103.8 325.08 C 107.13 323.97 110.47 321.90000000000003 113.8 320.81 C 117.13 319.71 120.47 319.77 123.8 318.5 C 127.13000000000001 317.23 130.47 314.90000000000003 133.8 313.19 C 137.13 311.48 140.47 309.58 143.8 308.24 C 147.13 306.91 150.47 306.68 153.8 305.18 C 157.13 303.68 160.47 300.16 163.8 299.25 C 167.13 298.35 170.47 300.03000000000003 173.8 299.76 C 177.13 299.5 180.47 298.32 183.8 297.67 C 187.13 297.03000000000003 190.47 296.58 193.8 295.89 C 197.13 295.2 200.47 292.66 203.8 293.54 C 207.13 294.42 210.47 299.75 213.8 301.15000000000003 C 217.13 302.56 220.47 301.78000000000003 223.8 301.97 C 227.13 302.17 230.47 301.67 233.8 302.32 C 237.13 302.98 240.47 304.04 243.8 305.91 C 247.13 307.78000000000003 250.47 311.8 253.8 313.57 C 257.13 315.34000000000003 260.47 315.97 263.8 316.54 C 267.13 317.1 270.47 315.14 273.8 316.98 C 277.13 318.82 280.47 326.05 283.8 327.57 C 287.13 329.09000000000003 290.47 325.5 293.8 326.09000000000003 C 297.13 326.68 300.47 330.48 303.8 331.11 C 307.13 331.74 310.47 328.92 313.8 329.87 C 317.13 330.83 320.47 335.76 323.8 336.86 C 327.13 337.95 330.47 336.07 333.8 336.46 C 337.13 336.86 340.47 339.19 343.8 339.22 C 347.13 339.24 350.47 336.81 353.8 336.62 C 357.13 336.44 360.47 337.34000000000003 363.8 338.12 C 367.13 338.91 370.47 340.96 373.8 341.33 C 377.13 341.71 380.47 340.42 383.8 340.35 C 387.13 340.29 390.47 340.66 393.8 340.94 C 397.13 341.23 400.47 342.18 403.8 342.08 C 407.13 341.98 410.47 340.14 413.8 340.34000000000003 C 417.13 340.55 420.47 342.66 423.8 343.3 C 427.13 343.94 430.47 344.34000000000003 433.8 344.18 C 437.13 344.02 440.47 342.31 443.8 342.33 C 447.13 342.34000000000003 450.47 343.89 453.8 344.28000000000003 C 457.13 344.67 460.47 345.49 463.8 344.67 C 467.13 343.86 470.47 339.37 473.8 339.38 C 477.13 339.40000000000003 480.47 345.19 483.8 344.77 C 487.13 344.35 490.47 338.13 493.8 336.86 C 497.13 335.59000000000003 500.47 336.74 503.8 337.16 C 507.13 337.58 510.47 339.64 513.8 339.37 C 517.13 339.1 520.47 335.49 523.8 335.55 C 527.13 335.61 530.47 339.52 533.8 339.72 C 537.13 339.92 540.47 337.85 543.8 336.77 C 547.13 335.7 550.47 333.09000000000003 553.8000000000001 333.27 C 557.13 333.45 560.47 337.07 563.8000000000001 337.87 C 567.13 338.67 570.47 338.51 573.8000000000001 338.04 C 577.13 337.58 582.13 335.59000000000003 583.8000000000001 335.1 L 583.8000000000001 462.24 C 582.13 462.19 577.13 463.07 573.8000000000001 461.93 C 570.47 460.78000000000003 567.13 457.68 563.8000000000001 455.36 C 560.47 453.04 557.13 449.45 553.8000000000001 448.02 C 550.47 446.58 547.13 446.52 543.8 446.75 C 540.47 446.97 537.13 449.56 533.8 449.38 C 530.47 449.2 527.13 446.64 523.8 445.67 C 520.47 444.71000000000004 517.13 443.99 513.8 443.58 C 510.47 443.18 507.13 443.75 503.8 443.24 C 500.47 442.73 497.13 439.78000000000003 493.8 440.52 C 490.47 441.26 487.13 448.59000000000003 483.8 447.69 C 480.47 446.8 477.13 435.85 473.8 435.15000000000003 C 470.47 434.45 467.13 441.86 463.8 443.51 C 460.47 445.15000000000003 457.13 445.78000000000003 453.8 445.03000000000003 C 450.47 444.27 447.13 439.78000000000003 443.8 438.97 C 440.47 438.16 437.13 439.36 433.8 440.16 C 430.47 440.95 427.13 444.14 423.8 443.74 C 420.47 443.34000000000003 417.13 437.36 413.8 437.73 C 410.47 438.1 407.13 444.7 403.8 445.97 C 400.47 447.24 397.13 444.74 393.8 445.34000000000003 C 390.47 445.93 387.13 447.91 383.8 449.53000000000003 C 380.47 451.14 377.13 454.54 373.8 455.04 C 370.47 455.55 367.13 452.93 363.8 452.57 C 360.47 452.2 357.13 451.71000000000004 353.8 452.85 C 350.47 453.99 347.13 458.13 343.8 459.42 C 340.47 460.71000000000004 337.13 459.74 333.8 460.6 C 330.47 461.45 327.13 464.62 323.8 464.54 C 320.47 464.47 317.13 460.14 313.8 460.16 C 310.47 460.17 307.13 464.05 303.8 464.62 C 300.47 465.19 297.13 462.93 293.8 463.57 C 290.47 464.22 287.13 469.02 283.8 468.48 C 280.47 467.94 277.13 460.84000000000003 273.8 460.34000000000003 C 270.47 459.85 267.13 465.05 263.8 465.48 C 260.47 465.92 257.13 464.71000000000004 253.8 462.94 C 250.47 461.16 247.13 455.59000000000003 243.8 454.85 C 240.47 454.12 237.13 458.24 233.8 458.55 C 230.47 458.86 227.13 456.46000000000004 223.8 456.71000000000004 C 220.47 456.95 217.13 461.2 213.8 460.0 C 210.47 458.8 207.13 450.09000000000003 203.8 449.52 C 200.47 448.94 197.13 455.6 193.8 456.54 C 190.47 457.49 187.13 455.38 183.8 455.17 C 180.47 454.97 177.13 455.97 173.8 455.32 C 170.47 454.66 167.13 450.62 163.8 451.24 C 160.47 451.86 157.13 457.95 153.8 459.05 C 150.47 460.14 147.13 457.74 143.8 457.83 C 140.47 457.91 137.13 458.81 133.8 459.56 C 130.47 460.31 127.13000000000001 461.15000000000003 123.8 462.34000000000003 C 120.47 463.53000000000003 117.13 465.84000000000003 113.8 466.7 C 110.47 467.56 107.13 467.79 103.8 467.5 C 100.47 467.21000000000004 97.13 465.31 93.8 464.94 C 90.47 464.57 87.13 465.56 83.8 465.27 C 80.47 464.99 75.47 463.57 73.8 463.23 Z" stroke="none" stroke-width="0" fill="#1f77b4" fill-opacity="0.85" /><path d="M 73.8 243.15 C 75.47 243.33 80.47 243.87 83.8 244.21 C 87.13 244.55 90.47 245.5 93.8 245.18 C 97.13 244.86 100.47 242.94 103.8 242.28 C 107.13 241.62 110.47 241.96 113.8 241.21 C 117.13 240.46 120.47 238.04 123.8 237.79 C 127.13000000000001 237.53 130.47 240.18 133.8 239.67000000000002 C 137.13 239.17000000000002 140.47 236.09 143.8 234.77 C 147.13 233.45000000000002 150.47 232.49 153.8 231.74 C 157.13 230.99 160.47 231.37 163.8 230.28 C 167.13 229.19 170.47 226.19 173.8 225.20000000000002 C 177.13 224.21 180.47 224.33 183.8 224.34 C 187.13 224.35 190.47 225.24 193.8 225.26 C 197.13 225.29 200.47 224.45000000000002 203.8 224.51 C 207.13 224.57 210.47 225.35 213.8 225.6 C 217.13 225.84 220.47 225.20000000000002 223.8 225.98000000000002 C 227.13 226.76 230.47 229.14000000000001 233.8 230.29 C 237.13 231.43 240.47 232.27 243.8 232.88 C 247.13 233.48000000000002 250.47 233.59 253.8 233.93 C 257.13 234.27 260.47 233.98000000000002 263.8 234.92000000000002 C 267.13 235.87 270.47 238.51 273.8 239.59 C 277.13 240.68 280.47 241.18 283.8 241.43 C 287.13 241.68 290.47 240.65 293.8 241.07 C 297.13 241.5 300.47 243.85 303.8 243.98000000000002 C 307.13 244.11 310.47 242.19 313.8 241.85 C 317.13 241.5 320.47 242.07 323.8 241.93 C 327.13 241.79 330.47 241.91 333.8 241.01 C 337.13 240.11 340.47 237.58 343.8 236.53 C 347.13 235.49 350.47 235.09 353.8 234.72 C 357.13 234.35 360.47 234.42000000000002 363.8 234.31 C 367.13 234.20000000000002 370.47 234.34 373.8 234.08 C 377.13 233.82 380.47 233.68 383.8 232.76 C 387.13 231.84 390.47 229.17000000000002 393.8 228.56 C 397.13 227.94 400.47 229.4 403.8 229.08 C 407.13 228.75 410.47 227.20000000000002 413.8 226.62 C 417.13 226.04 420.47 225.54 423.8 225.61 C 427.13 225.68 430.47 227.12 433.8 227.05 C 437.13 226.98000000000002 440.47 225.52 443.8 225.18 C 447.13 224.85 450.47 224.65 453.8 225.02 C 457.13 225.39000000000001 460.47 227.11 463.8 227.4 C 467.13 227.69 470.47 226.84 473.8 226.77 C 477.13 226.69 480.47 226.95000000000002 483.8 226.96 C 487.13 226.97 490.47 226.71 493.8 226.84 C 497.13 226.97 500.47 227.88 503.8 227.76 C 507.13 227.64000000000001 510.47 226.05 513.8 226.11 C 517.13 226.18 520.47 227.25 523.8 228.14000000000001 C 527.13 229.03 530.47 230.38 533.8 231.45000000000002 C 537.13 232.53 540.47 233.93 543.8 234.57 C 547.13 235.20000000000002 550.47 234.99 553.8000000000001 235.26 C 557.13 235.54 560.47 235.63 563.8000000000001 236.22 C 567.13 236.81 570.47 237.77 573.8000000000001 238.79 C 577.13 239.81 582.13 241.75 583.8000000000001 242.34 L 583.8000000000001 335.1 C 582.13 335.59000000000003 577.13 337.58 573.8000000000001 338.04 C 570.47 338.51 567.13 338.67 563.8000000000001 337.87 C 560.47 337.07 557.13 333.45 553.8000000000001 333.27 C 550.47 333.09000000000003 547.13 335.7 543.8 336.77 C 540.47 337.85 537.13 339.92 533.8 339.72 C 530.47 339.52 527.13 335.61 523.8 335.55 C 520.47 335.49 517.13 339.1 513.8 339.37 C 510.47 339.64 507.13 337.58 503.8 337.16 C 500.47 336.74 497.13 335.59000000000003 493.8 336.86 C 490.47 338.13 487.13 344.35 483.8 344.77 C 480.47 345.19 477.13 339.40000000000003 473.8 339.38 C 470.47 339.37 467.13 343.86 463.8 344.67 C 460.47 345.49 457.13 344.67 453.8 344.28000000000003 C 450.47 343.89 447.13 342.34000000000003 443.8 342.33 C 440.47 342.31 437.13 344.02 433.8 344.18 C 430.47 344.34000000000003 427.13 343.94 423.8 343.3 C 420.47 342.66 417.13 340.55 413.8 340.34000000000003 C 410.47 340.14 407.13 341.98 403.8 342.08 C 400.47 342.18 397.13 341.23 393.8 340.94 C 390.47 340.66 387.13 340.29 383.8 340.35 C 380.47 340.42 377.13 341.71 373.8 341.33 C 370.47 340.96 367.13 338.91 363.8 338.12 C 360.47 337.34000000000003 357.13 336.44 353.8 336.62 C 350.47 336.81 347.13 339.24 343.8 339.22 C 340.47 339.19 337.13 336.86 333.8 336.46 C 330.47 336.07 327.13 337.95 323.8 336.86 C 320.47 335.76 317.13 330.83 313.8 329.87 C 310.47 328.92 307.13 331.74 303.8 331.11 C 300.47 330.48 297.13 326.68 293.8 326.09000000000003 C 290.47 325.5 287.13 329.09000000000003 283.8 327.57 C 280.47 326.05 277.13 318.82 273.8 316.98 C 270.47 315.14 267.13 317.1 263.8 316.54 C 260.47 315.97 257.13 315.34000000000003 253.8 313.57 C 250.47 311.8 247.13 307.78000000000003 243.8 305.91 C 240.47 304.04 237.13 302.98 233.8 302.32 C 230.47 301.67 227.13 302.17 223.8 301.97 C 220.47 301.78000000000003 217.13 302.56 213.8 301.15000000000003 C 210.47 299.75 207.13 294.42 203.8 293.54 C 200.47 292.66 197.13 295.2 193.8 295.89 C 190.47 296.58 187.13 297.03000000000003 183.8 297.67 C 180.47 298.32 177.13 299.5 173.8 299.76 C 170.47 300.03000000000003 167.13 298.35 163.8 299.25 C 160.47 300.16 157.13 303.68 153.8 305.18 C 150.47 306.68 147.13 306.91 143.8 308.24 C 140.47 309.58 137.13 311.48 133.8 313.19 C 130.47 314.90000000000003 127.13000000000001 317.23 123.8 318.5 C 120.47 319.77 117.13 319.71 113.8 320.81 C 110.47 321.90000000000003 107.13 323.97 103.8 325.08 C 100.47 326.19 97.13 326.19 93.8 327.45 C 90.47 328.71 87.13 331.96 83.8 332.65000000000003 C 80.47 333.35 75.47 331.78000000000003 73.8 331.6 Z" stroke="none" stroke-width="0" fill="#ff7f0e" fill-opacity="0.85" /><path d="M 73.8 167.12 C 75.47 167.71 80.47 169.81 83.8 170.65 C 87.13 171.48 90.47 171.96 93.8 172.13 C 97.13 172.29 100.47 171.72 103.8 171.65 C 107.13 171.57 110.47 171.26 113.8 171.70000000000002 C 117.13 172.15 120.47 173.91 123.8 174.29 C 127.13000000000001 174.67000000000002 130.47 174.11 133.8 174.0 C 137.13 173.89000000000001 140.47 173.55 143.8 173.62 C 147.13 173.68 150.47 174.47 153.8 174.38 C 157.13 174.29 160.47 173.87 163.8 173.07 C 167.13 172.27 170.47 170.22 173.8 169.57 C 177.13 168.92000000000002 180.47 169.22 183.8 169.16 C 187.13 169.11 190.47 168.92000000000002 193.8 169.26 C 197.13 169.61 200.47 171.38 203.8 171.25 C 207.13 171.12 210.47 169.0 213.8 168.46 C 217.13 167.91 220.47 167.66 223.8 167.98 C 227.13 168.29 230.47 169.63 233.8 170.37 C 237.13 171.12 240.47 172.56 243.8 172.43 C 247.13 172.3 250.47 169.84 253.8 169.61 C 257.13 169.38 260.47 170.5 263.8 171.04 C 267.13 171.59 270.47 173.13 273.8 172.88 C 277.13 172.63 280.47 170.13 283.8 169.55 C 287.13 168.98 290.47 169.86 293.8 169.41 C 297.13 168.97 300.47 167.27 303.8 166.89000000000001 C 307.13 166.51 310.47 167.28 313.8 167.13 C 317.13 166.98 320.47 166.45000000000002 323.8 165.97 C 327.13 165.49 330.47 164.96 333.8 164.24 C 337.13 163.52 340.47 161.78 343.8 161.64000000000001 C 347.13 161.5 350.47 163.26 353.8 163.41 C 357.13 163.56 360.47 162.58 363.8 162.55 C 367.13 162.53 370.47 162.72 373.8 163.26 C 377.13 163.81 380.47 165.05 383.8 165.82 C 387.13 166.59 390.47 167.71 393.8 167.88 C 397.13 168.05 400.47 166.31 403.8 166.82 C 407.13 167.33 410.47 170.1 413.8 170.93 C 417.13 171.75 420.47 171.47 423.8 171.76 C 427.13 172.05 430.47 172.34 433.8 172.66 C 437.13 172.99 440.47 173.63 443.8 173.71 C 447.13 173.78 450.47 173.59 453.8 173.12 C 457.13 172.65 460.47 171.1 463.8 170.9 C 467.13 170.70000000000002 470.47 172.34 473.8 171.91 C 477.13 171.48 480.47 168.92000000000002 483.8 168.32 C 487.13 167.73 490.47 168.77 493.8 168.33 C 497.13 167.9 500.47 166.37 503.8 165.71 C 507.13 165.06 510.47 164.89000000000001 513.8 164.39000000000001 C 517.13 163.9 520.47 163.25 523.8 162.76 C 527.13 162.26 530.47 161.38 533.8 161.42000000000002 C 537.13 161.46 540.47 162.76 543.8 162.98 C 547.13 163.19 550.47 162.48 553.8000000000001 162.69 C 557.13 162.91 560.47 164.35 563.8000000000001 164.27 C 567.13 164.20000000000002 570.47 161.97 573.8000000000001 162.23 C 577.13 162.48 582.13 165.21 583.8000000000001 165.81 L 583.8000000000001 242.34 C 582.13 241.75 577.13 239.81 573.8000000000001 238.79 C 570.47 237.77 567.13 236.81 563.8000000000001 236.22 C 560.47 235.63 557.13 235.54 553.8000000000001 235.26 C 550.47 234.99 547.13 235.20000000000002 543.8 234.57 C 540.47 233.93 537.13 232.53 533.8 231.45000000000002 C 530.47 230.38 527.13 229.03 523.8 228.14000000000001 C 520.47 227.25 517.13 226.18 513.8 226.11 C 510.47 226.05 507.13 227.64000000000001 503.8 227.76 C 500.47 227.88 497.13 226.97 493.8 226.84 C 490.47 226.71 487.13 226.97 483.8 226.96 C 480.47 226.95000000000002 477.13 226.69 473.8 226.77 C 470.47 226.84 467.13 227.69 463.8 227.4 C 460.47 227.11 457.13 225.39000000000001 453.8 225.02 C 450.47 224.65 447.13 224.85 443.8 225.18 C 440.47 225.52 437.13 226.98000000000002 433.8 227.05 C 430.47 227.12 427.13 225.68 423.8 225.61 C 420.47 225.54 417.13 226.04 413.8 226.62 C 410.47 227.20000000000002 407.13 228.75 403.8 229.08 C 400.47 229.4 397.13 227.94 393.8 228.56 C 390.47 229.17000000000002 387.13 231.84 383.8 232.76 C 380.47 233.68 377.13 233.82 373.8 234.08 C 370.47 234.34 367.13 234.20000000000002 363.8 234.31 C 360.47 234.42000000000002 357.13 234.35 353.8 234.72 C 350.47 235.09 347.13 235.49 343.8 236.53 C 340.47 237.58 337.13 240.11 333.8 241.01 C 330.47 241.91 327.13 241.79 323.8 241.93 C 320.47 242.07 317.13 241.5 313.8 241.85 C 310.47 242.19 307.13 244.11 303.8 243.98000000000002 C 300.47 243.85 297.13 241.5 293.8 241.07 C 290.47 240.65 287.13 241.68 283.8 241.43 C 280.47 241.18 277.13 240.68 273.8 239.59 C 270.47 238.51 267.13 235.87 263.8 234.92000000000002 C 260.47 233.98000000000002 257.13 234.27 253.8 233.93 C 250.47 233.59 247.13 233.48000000000002 243.8 232.88 C 240.47 232.27 237.13 231.43 233.8 230.29 C 230.47 229.14000000000001 227.13 226.76 223.8 225.98000000000002 C 220.47 225.20000000000002 217.13 225.84 213.8 225.6 C 210.47 225.35 207.13 224.57 203.8 224.51 C 200.47 224.45000000000002 197.13 225.29 193.8 225.26 C 190.47 225.24 187.13 224.35 183.8 224.34 C 180.47 224.33 177.13 224.21 173.8 225.20000000000002 C 170.47 226.19 167.13 229.19 163.8 230.28 C 160.47 231.37 157.13 230.99 153.8 231.74 C 150.47 232.49 147.13 233.45000000000002 143.8 234.77 C 140.47 236.09 137.13 239.17000000000002 133.8 239.67000000000002 C 130.47 240.18 127.13000000000001 237.53 123.8 237.79 C 120.47 238.04 117.13 240.46 113.8 241.21 C 110.47 241.96 107.13 241.62 103.8 242.28 C 100.47 242.94 97.13 244.86 93.8 245.18 C 90.47 245.5 87.13 244.55 83.8 244.21 C 80.47 243.87 75.47 243.33 73.8 243.15 Z" stroke="none" stroke-width="0" fill="#2ca02c" fill-opacity="0.85" /><path d="M 73.8 121.89 C 75.47 121.76 80.47 121.26 83.8 121.15 C 87.13 121.04 90.47 121.32000000000001 93.8 121.24000000000001 C 97.13 121.17 100.47 120.7 103.8 120.69 C 107.13 120.68 110.47 120.48 113.8 121.19 C 117.13 121.89 120.47 124.17 123.8 124.92 C 127.13000000000001 125.67 130.47 124.86 133.8 125.71000000000001 C 137.13 126.57000000000001 140.47 129.27 143.8 130.07 C 147.13 130.86 150.47 129.8 153.8 130.49 C 157.13 131.18 160.47 133.86 163.8 134.19 C 167.13 134.52 170.47 132.43 173.8 132.48 C 177.13 132.53 180.47 134.39000000000001 183.8 134.5 C 187.13 134.62 190.47 133.08 193.8 133.15 C 197.13 133.22 200.47 135.18 203.8 134.92000000000002 C 207.13 134.67000000000002 210.47 132.42000000000002 213.8 131.61 C 217.13 130.81 220.47 130.54 223.8 130.08 C 227.13 129.63 230.47 129.54 233.8 128.87 C 237.13 128.2 240.47 127.15 243.8 126.04 C 247.13 124.94 250.47 123.26 253.8 122.24000000000001 C 257.13 121.23 260.47 120.15 263.8 119.95 C 267.13 119.75 270.47 121.41 273.8 121.03 C 277.13 120.66 280.47 117.94 283.8 117.7 C 287.13 117.46000000000001 290.47 119.11 293.8 119.58 C 297.13 120.06 300.47 120.28 303.8 120.55 C 307.13 120.81 310.47 121.09 313.8 121.19 C 317.13 121.29 320.47 120.66 323.8 121.15 C 327.13 121.63 330.47 123.55 333.8 124.10000000000001 C 337.13 124.65 340.47 123.68 343.8 124.46000000000001 C 347.13 125.23 350.47 128.06 353.8 128.74 C 357.13 129.41 360.47 128.99 363.8 128.5 C 367.13 128.01 370.47 125.94 373.8 125.81 C 377.13 125.68 380.47 127.44 383.8 127.73 C 387.13 128.03 390.47 127.95 393.8 127.59 C 397.13 127.23 400.47 125.75 403.8 125.58 C 407.13 125.42 410.47 126.68 413.8 126.60000000000001 C 417.13 126.53 420.47 125.5 423.8 125.14 C 427.13 124.78 430.47 124.65 433.8 124.42 C 437.13 124.18 440.47 124.29 443.8 123.73 C 447.13 123.16 450.47 121.51 453.8 121.02 C 457.13 120.52 460.47 120.29 463.8 120.75 C 467.13 121.22 470.47 123.92 473.8 123.81 C 477.13 123.69 480.47 119.68 483.8 120.06 C 487.13 120.45 490.47 125.41 493.8 126.10000000000001 C 497.13 126.79 500.47 124.08 503.8 124.22 C 507.13 124.36 510.47 126.46000000000001 513.8 126.96000000000001 C 517.13 127.46000000000001 520.47 127.49000000000001 523.8 127.21000000000001 C 527.13 126.92 530.47 125.47 533.8 125.25 C 537.13 125.04 540.47 125.78 543.8 125.92 C 547.13 126.06 550.47 126.32000000000001 553.8000000000001 126.10000000000001 C 557.13 125.88000000000001 560.47 125.47 563.8000000000001 124.62 C 567.13 123.77 570.47 121.52 573.8000000000001 121.0 C 577.13 120.48 582.13 121.43 583.8000000000001 121.51 L 583.8000000000001 165.81 C 582.13 165.21 577.13 162.48 573.8000000000001 162.23 C 570.47 161.97 567.13 164.20000000000002 563.8000000000001 164.27 C 560.47 164.35 557.13 162.91 553.8000000000001 162.69 C 550.47 162.48 547.13 163.19 543.8 162.98 C 540.47 162.76 537.13 161.46 533.8 161.42000000000002 C 530.47 161.38 527.13 162.26 523.8 162.76 C 520.47 163.25 517.13 163.9 513.8 164.39000000000001 C 510.47 164.89000000000001 507.13 165.06 503.8 165.71 C 500.47 166.37 497.13 167.9 493.8 168.33 C 490.47 168.77 487.13 167.73 483.8 168.32 C 480.47 168.92000000000002 477.13 171.48 473.8 171.91 C 470.47 172.34 467.13 170.70000000000002 463.8 170.9 C 460.47 171.1 457.13 172.65 453.8 173.12 C 450.47 173.59 447.13 173.78 443.8 173.71 C 440.47 173.63 437.13 172.99 433.8 172.66 C 430.47 172.34 427.13 172.05 423.8 171.76 C 420.47 171.47 417.13 171.75 413.8 170.93 C 410.47 170.1 407.13 167.33 403.8 166.82 C 400.47 166.31 397.13 168.05 393.8 167.88 C 390.47 167.71 387.13 166.59 383.8 165.82 C 380.47 165.05 377.13 163.81 373.8 163.26 C 370.47 162.72 367.13 162.53 363.8 162.55 C 360.47 162.58 357.13 163.56 353.8 163.41 C 350.47 163.26 347.13 161.5 343.8 161.64000000000001 C 340.47 161.78 337.13 163.52 333.8 164.24 C 330.47 164.96 327.13 165.49 323.8 165.97 C 320.47 166.45000000000002 317.13 166.98 313.8 167.13 C 310.47 167.28 307.13 166.51 303.8 166.89000000000001 C 300.47 167.27 297.13 168.97 293.8 169.41 C 290.47 169.86 287.13 168.98 283.8 169.55 C 280.47 170.13 277.13 172.63 273.8 172.88 C 270.47 173.13 267.13 171.59 263.8 171.04 C 260.47 170.5 257.13 169.38 253.8 169.61 C 250.47 169.84 247.13 172.3 243.8 172.43 C 240.47 172.56 237.13 171.12 233.8 170.37 C 230.47 169.63 227.13 168.29 223.8 167.98 C 220.47 167.66 217.13 167.91 213.8 168.46 C 210.47 169.0 207.13 171.12 203.8 171.25 C 200.47 171.38 197.13 169.61 193.8 169.26 C 190.47 168.92000000000002 187.13 169.11 183.8 169.16 C 180.47 169.22 177.13 168.92000000000002 173.8 169.57 C 170.47 170.22 167.13 172.27 163.8 173.07 C 160.47 173.87 157.13 174.29 153.8 174.38 C 150.47 174.47 147.13 173.68 143.8 173.62 C 140.47 173.55 137.13 173.89000000000001 133.8 174.0 C 130.47 174.11 127.13000000000001 174.67000000000002 123.8 174.29 C 120.47 173.91 117.13 172.15 113.8 171.70000000000002 C 110.47 171.26 107.13 171.57 103.8 171.65 C 100.47 171.72 97.13 172.29 93.8 172.13 C 90.47 171.96 87.13 171.48 83.8 170.65 C 80.47 169.81 75.47 167.71 73.8 167.12 Z" stroke="none" stroke-width="0" fill="#d62728" fill-opacity="0.85" /><path d="M 73.8 93.76 C 75.47 93.34 80.47 91.37 83.8 91.21000000000001 C 87.13 91.06 90.47 92.44 93.8 92.81 C 97.13 93.18 100.47 93.0 103.8 93.43 C 107.13 93.87 110.47 94.97 113.8 95.42 C 117.13 95.87 120.47 95.67 123.8 96.12 C 127.13000000000001 96.58 130.47 97.33 133.8 98.16 C 137.13 98.99000000000001 140.47 100.62 143.8 101.09 C 147.13 101.57000000000001 150.47 100.14 153.8 101.0 C 157.13 101.86 160.47 105.33 163.8 106.26 C 167.13 107.18 170.47 106.39 173.8 106.54 C 177.13 106.68 180.47 107.23 183.8 107.14 C 187.13 107.05 190.47 105.72 193.8 105.99000000000001 C 197.13 106.26 200.47 109.39 203.8 108.76 C 207.13 108.13 210.47 102.96000000000001 213.8 102.21000000000001 C 217.13 101.47 220.47 104.57000000000001 223.8 104.27 C 227.13 103.97 230.47 101.15 233.8 100.43 C 237.13 99.71000000000001 240.47 100.62 243.8 99.95 C 247.13 99.28 250.47 97.41 253.8 96.42 C 257.13 95.42 260.47 94.32000000000001 263.8 93.98 C 267.13 93.64 270.47 95.23 273.8 94.38 C 277.13 93.54 280.47 89.14 283.8 88.93 C 287.13 88.72 290.47 92.67 293.8 93.13 C 297.13 93.58 300.47 91.25 303.8 91.66 C 307.13 92.07000000000001 310.47 95.63 313.8 95.59 C 317.13 95.55 320.47 91.65 323.8 91.44 C 327.13 91.23 330.47 93.46000000000001 333.8 94.32000000000001 C 337.13 95.19 340.47 95.65 343.8 96.62 C 347.13 97.59 350.47 99.69 353.8 100.14 C 357.13 100.60000000000001 360.47 99.88 363.8 99.35000000000001 C 367.13 98.81 370.47 97.13 373.8 96.92 C 377.13 96.71000000000001 380.47 97.76 383.8 98.09 C 387.13 98.42 390.47 98.85000000000001 393.8 98.88 C 397.13 98.9 400.47 98.04 403.8 98.24000000000001 C 407.13 98.45 410.47 100.60000000000001 413.8 100.11 C 417.13 99.63 420.47 96.25 423.8 95.31 C 427.13 94.36 430.47 94.45 433.8 94.43 C 437.13 94.4 440.47 95.60000000000001 443.8 95.14 C 447.13 94.69 450.47 92.24 453.8 91.72 C 457.13 91.2 460.47 91.11 463.8 92.01 C 467.13 92.91 470.47 97.17 473.8 97.12 C 477.13 97.07000000000001 480.47 91.83 483.8 91.72 C 487.13 91.61 490.47 95.62 493.8 96.45 C 497.13 97.28 500.47 96.58 503.8 96.69 C 507.13 96.8 510.47 96.79 513.8 97.12 C 517.13 97.46000000000001 520.47 98.89 523.8 98.69 C 527.13 98.5 530.47 96.11 533.8 95.96000000000001 C 537.13 95.81 540.47 97.03 543.8 97.78 C 547.13 98.54 550.47 100.98 553.8000000000001 100.49000000000001 C 557.13 100.01 560.47 95.92 563.8000000000001 94.87 C 567.13 93.83 570.47 94.44 573.8000000000001 94.21000000000001 C 577.13 93.99 582.13 93.64 583.8000000000001 93.52 L 583.8000000000001 121.51 C 582.13 121.43 577.13 120.48 573.8000000000001 121.0 C 570.47 121.52 567.13 123.77 563.8000000000001 124.62 C 560.47 125.47 557.13 125.88000000000001 553.8000000000001 126.10000000000001 C 550.47 126.32000000000001 547.13 126.06 543.8 125.92 C 540.47 125.78 537.13 125.04 533.8 125.25 C 530.47 125.47 527.13 126.92 523.8 127.21000000000001 C 520.47 127.49000000000001 517.13 127.46000000000001 513.8 126.96000000000001 C 510.47 126.46000000000001 507.13 124.36 503.8 124.22 C 500.47 124.08 497.13 126.79 493.8 126.10000000000001 C 490.47 125.41 487.13 120.45 483.8 120.06 C 480.47 119.68 477.13 123.69 473.8 123.81 C 470.47 123.92 467.13 121.22 463.8 120.75 C 460.47 120.29 457.13 120.52 453.8 121.02 C 450.47 121.51 447.13 123.16 443.8 123.73 C 440.47 124.29 437.13 124.18 433.8 124.42 C 430.47 124.65 427.13 124.78 423.8 125.14 C 420.47 125.5 417.13 126.53 413.8 126.60000000000001 C 410.47 126.68 407.13 125.42 403.8 125.58 C 400.47 125.75 397.13 127.23 393.8 127.59 C 390.47 127.95 387.13 128.03 383.8 127.73 C 380.47 127.44 377.13 125.68 373.8 125.81 C 370.47 125.94 367.13 128.01 363.8 128.5 C 360.47 128.99 357.13 129.41 353.8 128.74 C 350.47 128.06 347.13 125.23 343.8 124.46000000000001 C 340.47 123.68 337.13 124.65 333.8 124.10000000000001 C 330.47 123.55 327.13 121.63 323.8 121.15 C 320.47 120.66 317.13 121.29 313.8 121.19 C 310.47 121.09 307.13 120.81 303.8 120.55 C 300.47 120.28 297.13 120.06 293.8 119.58 C 290.47 119.11 287.13 117.46000000000001 283.8 117.7 C 280.47 117.94 277.13 120.66 273.8 121.03 C 270.47 121.41 267.13 119.75 263.8 119.95 C 260.47 120.15 257.13 121.23 253.8 122.24000000000001 C 250.47 123.26 247.13 124.94 243.8 126.04 C 240.47 127.15 237.13 128.2 233.8 128.87 C 230.47 129.54 227.13 129.63 223.8 130.08 C 220.47 130.54 217.13 130.81 213.8 131.61 C 210.47 132.42000000000002 207.13 134.67000000000002 203.8 134.92000000000002 C 200.47 135.18 197.13 133.22 193.8 133.15 C 190.47 133.08 187.13 134.62 183.8 134.5 C 180.47 134.39000000000001 177.13 132.53 173.8 132.48 C 170.47 132.43 167.13 134.52 163.8 134.19 C 160.47 133.86 157.13 131.18 153.8 130.49 C 150.47 129.8 147.13 130.86 143.8 130.07 C 140.47 129.27 137.13 126.57000000000001 133.8 125.71000000000001 C 130.47 124.86 127.13000000000001 125.67 123.8 124.92 C 120.47 124.17 117.13 121.89 113.8 121.19 C 110.47 120.48 107.13 120.68 103.8 120.69 C 100.47 120.7 97.13 121.17 93.8 121.24000000000001 C 90.47 121.32000000000001 87.13 121.04 83.8 121.15 C 80.47 121.26 75.47 121.76 73.8 121.89 Z" stroke="none" stroke-width="0" fill="#9467bd" fill-opacity="0.85" /><path d="M 73.8 68.62 C 75.47 67.89 80.47 64.73 83.8 64.23 C 87.13 63.730000000000004 90.47 64.88 93.8 65.63 C 97.13 66.38 100.47 67.63 103.8 68.75 C 107.13 69.87 110.47 71.23 113.8 72.34 C 117.13 73.45 120.47 74.29 123.8 75.41 C 127.13000000000001 76.54 130.47 77.69 133.8 79.09 C 137.13 80.48 140.47 82.36 143.8 83.77 C 147.13 85.17 150.47 85.65 153.8 87.53 C 157.13 89.42 160.47 92.93 163.8 95.09 C 167.13 97.25 170.47 99.46000000000001 173.8 100.51 C 177.13 101.56 180.47 100.92 183.8 101.38 C 187.13 101.85000000000001 190.47 102.37 193.8 103.29 C 197.13 104.2 200.47 107.37 203.8 106.88 C 207.13 106.39 210.47 101.09 213.8 100.34 C 217.13 99.59 220.47 102.69 223.8 102.39 C 227.13 102.10000000000001 230.47 99.4 233.8 98.55 C 237.13 97.71000000000001 240.47 98.63 243.8 97.31 C 247.13 96.0 250.47 92.32000000000001 253.8 90.68 C 257.13 89.03 260.47 88.55 263.8 87.46000000000001 C 267.13 86.38 270.47 86.12 273.8 84.16 C 277.13 82.21000000000001 280.47 77.0 283.8 75.72 C 287.13 74.44 290.47 77.37 293.8 76.51 C 297.13 75.65 300.47 71.05 303.8 70.56 C 307.13 70.08 310.47 74.11 313.8 73.60000000000001 C 317.13 73.08 320.47 68.32000000000001 323.8 67.5 C 327.13 66.67 330.47 67.98 333.8 68.65 C 337.13 69.31 340.47 70.79 343.8 71.49 C 347.13 72.2 350.47 72.47 353.8 72.89 C 357.13 73.3 360.47 73.97 363.8 73.98 C 367.13 73.99 370.47 72.75 373.8 72.93 C 377.13 73.12 380.47 73.88 383.8 75.09 C 387.13 76.3 390.47 79.11 393.8 80.2 C 397.13 81.29 400.47 80.47 403.8 81.61 C 407.13 82.75 410.47 86.56 413.8 87.04 C 417.13 87.53 420.47 84.62 423.8 84.52 C 427.13 84.43 430.47 85.52 433.8 86.48 C 437.13 87.45 440.47 89.86 443.8 90.32000000000001 C 447.13 90.77 450.47 89.23 453.8 89.2 C 457.13 89.17 460.47 89.13 463.8 90.14 C 467.13 91.14 470.47 95.29 473.8 95.24 C 477.13 95.19 480.47 90.0 483.8 89.85000000000001 C 487.13 89.69 490.47 93.49 493.8 94.28 C 497.13 95.08 500.47 95.0 503.8 94.60000000000001 C 507.13 94.19 510.47 92.38 513.8 91.84 C 517.13 91.3 520.47 92.3 523.8 91.36 C 527.13 90.42 530.47 87.32000000000001 533.8 86.19 C 537.13 85.07000000000001 540.47 85.05 543.8 84.61 C 547.13 84.17 550.47 84.96000000000001 553.8000000000001 83.55 C 557.13 82.14 560.47 77.89 563.8000000000001 76.17 C 567.13 74.44 570.47 74.4 573.8000000000001 73.18 C 577.13 71.96000000000001 582.13 69.58 583.8000000000001 68.85000000000001 L 583.8000000000001 93.52 C 582.13 93.64 577.13 93.99 573.8000000000001 94.21000000000001 C 570.47 94.44 567.13 93.83 563.8000000000001 94.87 C 560.47 95.92 557.13 100.01 553.8000000000001 100.49000000000001 C 550.47 100.98 547.13 98.54 543.8 97.78 C 540.47 97.03 537.13 95.81 533.8 95.96000000000001 C 530.47 96.11 527.13 98.5 523.8 98.69 C 520.47 98.89 517.13 97.46000000000001 513.8 97.12 C 510.47 96.79 507.13 96.8 503.8 96.69 C 500.47 96.58 497.13 97.28 493.8 96.45 C 490.47 95.62 487.13 91.61 483.8 91.72 C 480.47 91.83 477.13 97.07000000000001 473.8 97.12 C 470.47 97.17 467.13 92.91 463.8 92.01 C 460.47 91.11 457.13 91.2 453.8 91.72 C 450.47 92.24 447.13 94.69 443.8 95.14 C 440.47 95.60000000000001 437.13 94.4 433.8 94.43 C 430.47 94.45 427.13 94.36 423.8 95.31 C 420.47 96.25 417.13 99.63 413.8 100.11 C 410.47 100.60000000000001 407.13 98.45 403.8 98.24000000000001 C 400.47 98.04 397.13 98.9 393.8 98.88 C 390.47 98.85000000000001 387.13 98.42 383.8 98.09 C 380.47 97.76 377.13 96.71000000000001 373.8 96.92 C 370.47 97.13 367.13 98.81 363.8 99.35000000000001 C 360.47 99.88 357.13 100.60000000000001 353.8 100.14 C 350.47 99.69 347.13 97.59 343.8 96.62 C 340.47 95.65 337.13 95.19 333.8 94.32000000000001 C 330.47 93.46000000000001 327.13 91.23 323.8 91.44 C 320.47 91.65 317.13 95.55 313.8 95.59 C 310.47 95.63 307.13 92.07000000000001 303.8 91.66 C 300.47 91.25 297.13 93.58 293.8 93.13 C 290.47 92.67 287.13 88.72 283.8 88.93 C 280.47 89.14 277.13 93.54 273.8 94.38 C 270.47 95.23 267.13 93.64 263.8 93.98 C 260.47 94.32000000000001 257.13 95.42 253.8 96.42 C 250.47 97.41 247.13 99.28 243.8 99.95 C 240.47 100.62 237.13 99.71000000000001 233.8 100.43 C 230.47 101.15 227.13 103.97 223.8 104.27 C 220.47 104.57000000000001 217.13 101.47 213.8 102.21000000000001 C 210.47 102.96000000000001 207.13 108.13 203.8 108.76 C 200.47 109.39 197.13 106.26 193.8 105.99000000000001 C 190.47 105.72 187.13 107.05 183.8 107.14 C 180.47 107.23 177.13 106.68 173.8 106.54 C 170.47 106.39 167.13 107.18 163.8 106.26 C 160.47 105.33 157.13 101.86 153.8 101.0 C 150.47 100.14 147.13 101.57000000000001 143.8 101.09 C 140.47 100.62 137.13 98.99000000000001 133.8 98.16 C 130.47 97.33 127.13000000000001 96.58 123.8 96.12 C 120.47 95.67 117.13 95.87 113.8 95.42 C 110.47 94.97 107.13 93.87 103.8 93.43 C 100.47 93.0 97.13 93.18 93.8 92.81 C 90.47 92.44 87.13 91.06 83.8 91.21000000000001 C 80.47 91.37 75.47 93.34 73.8 93.76 Z" stroke="none" stroke-width="0" fill="#8c564b" fill-opacity="0.85" /><text x="193.8" y="380.42" font-size="12" text-anchor="middle" fill="#ffffff">Firmicutes</text><text x="453.8" y="288.85" font-size="12" text-anchor="middle" fill="#333333">Bacteroidetes</text><text x="303.8" y="209.64000000000001" font-size="12" text-anchor="middle" fill="#ffffff">Proteobacteria</text><text x="453.8" y="151.27" font-size="12" text-anchor="middle" fill="#ffffff">Actinobacteria</text><text x="433.8" y="113.62" font-size="12" text-anchor="middle" fill="#ffffff">Fusobacteria</text><text x="353.8" y="90.72" font-size="12" text-anchor="middle" fill="#ffffff">Verrucomicrobia</text></g><rect x="668.8000000000001" y="34" width="160" height="128" fill="#ffffff" /><rect x="668.8000000000001" y="34" width="160" height="128" fill="none" stroke="#000000" stroke-width="1" /><text x="698.8000000000001" y="53.2" font-size="12" text-anchor="start">Firmicutes</text><rect x="678.8000000000001" y="43" width="12" height="12" fill="#1f77b4" /><text x="698.8000000000001" y="71.2" font-size="12" text-anchor="start">Bacteroidetes</text><rect x="678.8000000000001" y="61" width="12" height="12" fill="#ff7f0e" /><text x="698.8000000000001" y="89.2" font-size="12" text-anchor="start">Proteobacteria</text><rect x="678.8000000000001" y="79" width="12" height="12" fill="#2ca02c" /><text x="698.8000000000001" y="107.2" font-size="12" text-anchor="start">Actinobacteria</text><rect x="678.8000000000001" y="97" width="12" height="12" fill="#d62728" /><text x="698.8000000000001" y="125.2" font-size="12" text-anchor="start">Fusobacteria</text><rect x="678.8000000000001" y="115" width="12" height="12" fill="#9467bd" /><text x="698.8000000000001" y="143.20000000000002" font-size="12" text-anchor="start">Verrucomicrobia</text><rect x="678.8000000000001" y="133" width="12" height="12" fill="#8c564b" /></svg>