<svg xmlns="http://www.w3.org/2000/svg" width="677" height="545" font-family="DejaVu Sans, Liberation Sans, Arial, sans-serif" fill="black"><rect width="100%" height="100%" fill="white" /><defs><clipPath id="kuva-clip-6"><rect x="59" y="44" width="600" height="450"/></clipPath></defs><line x1="179" y1="44" x2="179" y2="494" stroke="#cccccc" stroke-width="1" /><line x1="299" y1="44" x2="299" y2="494" stroke="#cccccc" stroke-width="1" /><line x1="419" y1="44" x2="419" y2="494" stroke="#cccccc" stroke-width="1" /><line x1="539" y1="44" x2="539" y2="494" stroke="#cccccc" stroke-width="1" /><line x1="659" y1="44" x2="659" y2="494" stroke="#cccccc" stroke-width="1" /><line x1="59" y1="429.71000000000004" x2="659" y2="429.71000000000004" stroke="#cccccc" stroke-width="1" /><line x1="59" y1="365.43" x2="659" y2="365.43" stroke="#cccccc" stroke-width="1" /><line x1="59" y1="301.14" x2="659" y2="301.14" stroke="#cccccc" stroke-width="1" /><line x1="59" y1="236.86" x2="659" y2="236.86" stroke="#cccccc" stroke-width="1" /><line x1="59" y1="172.57" x2="659" y2="172.57" stroke="#cccccc" stroke-width="1" /><line x1="59" y1="108.29" x2="659" y2="108.29" stroke="#cccccc" stroke-width="1" /><line x1="59" y1="44" x2="659" y2="44" stroke="#cccccc" stroke-width="1" /><line x1="59" y1="494" x2="659" y2="494" stroke="#000000" stroke-width="1" /><line x1="59" y1="44" x2="59" y2="494" stroke="#000000" stroke-width="1" /><line x1="59" y1="494" x2="59" y2="499" stroke="#000000" stroke-width="1" /><text x="59" y="511" font-size="12" text-anchor="middle">0</text><line x1="179" y1="494" x2="179" y2="499" stroke="#000000" stroke-width="1" /><text x="179" y="511" font-size="12" text-anchor="middle">2.5</text><line x1="299" y1="494" x2="299" y2="499" stroke="#000000" stroke-width="1" /><text x="299" y="511" font-size="12" text-anchor="middle">5</text><line x1="419" y1="494" x2="419" y2="499" stroke="#000000" stroke-width="1" /><text x="419" y="511" font-size="12" text-anchor="middle">7.5</text><line x1="539" y1="494" x2="539" y2="499" stroke="#000000" stroke-width="1" /><text x="539" y="511" font-size="12" text-anchor="middle">10</text><line x1="659" y1="494" x2="659" y2="499" stroke="#000000" stroke-width="1" /><text x="659" y="511" font-size="12" text-anchor="middle">12.5</text><line x1="54" y1="494" x2="59" y2="494" stroke="#000000" stroke-width="1" /><text x="51" y="498.2" font-size="12" text-anchor="end">-40</text><line x1="54" y1="429.71000000000004" x2="59" y2="429.71000000000004" stroke="#000000" stroke-width="1" /><text x="51" y="433.91" font-size="12" text-anchor="end">-30</text><line x1="54" y1="365.43" x2="59" y2="365.43" stroke="#000000" stroke-width="1" /><text x="51" y="369.63" font-size="12" text-anchor="end">-20</text><line x1="54" y1="301.14" x2="59" y2="301.14" stroke="#000000" stroke-width="1" /><text x="51" y="305.34000000000003" font-size="12" text-anchor="end">-10</text><line x1="54" y1="236.86" x2="59" y2="236.86" stroke="#000000" stroke-width="1" /><text x="51" y="241.06" font-size="12" text-anchor="end">0</text><line x1="54" y1="172.57" x2="59" y2="172.57" stroke="#000000" stroke-width="1" /><text x="51" y="176.77" font-size="12" text-anchor="end">10</text><line x1="54" y1="108.29" x2="59" y2="108.29" stroke="#000000" stroke-width="1" /><text x="51" y="112.49000000000001" font-size="12" text-anchor="end">20</text><line x1="54" y1="44" x2="59" y2="44" stroke="#000000" stroke-width="1" /><text x="51" y="48.2" font-size="12" text-anchor="end">30</text><text x="359" y="538" font-size="14" text-anchor="middle">Week</text><text x="338.5" y="27.400000000000002" font-size="18" text-anchor="middle">Linear interpolation</text><g clip-path="url(#kuva-clip-6)"><path d="M 107.0 223.06 L 155.0 227.88 L 203.0 237.53 L 251.0 243.96 L 299.0 245.56 L 347.0 235.92000000000002 L 395.0 232.71 L 443.0 235.92000000000002 L 491.0 245.56 L 539.0 247.17000000000002 L 587.0 240.74 L 635.0 229.49 L 635.0 332.35 L 587.0 382.17 L 539.0 427.17 L 491.0 399.85 L 443.0 351.63 L 395.0 309.85 L 347.0 338.78000000000003 L 299.0 374.13 L 251.0 385.38 L 203.0 353.24 L 155.0 317.88 L 107.0 287.35 Z" stroke="none" stroke-width="0" fill="#1f77b4" fill-opacity="0.85" /><path d="M 107.0 190.92000000000002 L 155.0 176.46 L 203.0 160.38 L 251.0 147.53 L 299.0 155.56 L 347.0 171.63 L 395.0 181.28 L 443.0 165.21 L 491.0 142.71 L 539.0 131.46 L 587.0 150.74 L 635.0 171.63 L 635.0 229.49 L 587.0 240.74 L 539.0 247.17000000000002 L 491.0 245.56 L 443.0 235.92000000000002 L 395.0 232.71 L 347.0 235.92000000000002 L 299.0 245.56 L 251.0 243.96 L 203.0 237.53 L 155.0 227.88 L 107.0 223.06 Z" stroke="none" stroke-width="0" fill="#ff7f0e" fill-opacity="0.85" /><path d="M 107.0 171.63 L 155.0 150.74 L 203.0 121.81 L 251.0 96.10000000000001 L 299.0 97.71000000000001 L 347.0 126.63000000000001 L 395.0 149.13 L 443.0 120.21000000000001 L 491.0 84.85000000000001 L 539.0 67.17 L 587.0 99.31 L 635.0 139.49 L 635.0 171.63 L 587.0 150.74 L 539.0 131.46 L 491.0 142.71 L 443.0 165.21 L 395.0 181.28 L 347.0 171.63 L 299.0 155.56 L 251.0 147.53 L 203.0 160.38 L 155.0 176.46 L 107.0 190.92000000000002 Z" stroke="none" stroke-width="0" fill="#2ca02c" fill-opacity="0.85" /><text x="539" y="341.37" font-size="12" text-anchor="middle" fill="#ffffff">Alpha</text><text x="539" y="193.51" font-size="12" text-anchor="middle" fill="#333333">Beta</text><text x="539" y="103.51" font-size="12" text-anchor="middle" fill="#ffffff">Gamma</text></g></svg>