<svg xmlns="http://www.w3.org/2000/svg" width="837" height="545" font-family="DejaVu Sans, Liberation Sans, Arial, sans-serif" fill="black"><rect width="100%" height="100%" fill="white" /><defs><clipPath id="kuva-clip-3"><rect x="59" y="44" width="600" height="450"/></clipPath></defs><line x1="159" y1="44" x2="159" y2="494" stroke="#cccccc" stroke-width="1" /><line x1="259" y1="44" x2="259" y2="494" stroke="#cccccc" stroke-width="1" /><line x1="359" y1="44" x2="359" y2="494" stroke="#cccccc" stroke-width="1" /><line x1="459" y1="44" x2="459" y2="494" stroke="#cccccc" stroke-width="1" /><line x1="559" y1="44" x2="559" y2="494" stroke="#cccccc" stroke-width="1" /><line x1="659" y1="44" x2="659" y2="494" stroke="#cccccc" stroke-width="1" /><line x1="59" y1="456.5" x2="659" y2="456.5" stroke="#cccccc" stroke-width="1" /><line x1="59" y1="362.75" x2="659" y2="362.75" stroke="#cccccc" stroke-width="1" /><line x1="59" y1="269" x2="659" y2="269" stroke="#cccccc" stroke-width="1" /><line x1="59" y1="175.25" x2="659" y2="175.25" stroke="#cccccc" stroke-width="1" /><line x1="59" y1="81.5" x2="659" y2="81.5" stroke="#cccccc" stroke-width="1" /><line x1="59" y1="494" x2="659" y2="494" stroke="#000000" stroke-width="1" /><line x1="59" y1="44" x2="59" y2="494" stroke="#000000" stroke-width="1" /><line x1="59" y1="494" x2="59" y2="499" stroke="#000000" stroke-width="1" /><text x="59" y="511" font-size="12" text-anchor="middle">0</text><line x1="159" y1="494" x2="159" y2="499" stroke="#000000" stroke-width="1" /><text x="159" y="511" font-size="12" text-anchor="middle">10</text><line x1="259" y1="494" x2="259" y2="499" stroke="#000000" stroke-width="1" /><text x="259" y="511" font-size="12" text-anchor="middle">20</text><line x1="359" y1="494" x2="359" y2="499" stroke="#000000" stroke-width="1" /><text x="359" y="511" font-size="12" text-anchor="middle">30</text><line x1="459" y1="494" x2="459" y2="499" stroke="#000000" stroke-width="1" /><text x="459" y="511" font-size="12" text-anchor="middle">40</text><line x1="559" y1="494" x2="559" y2="499" stroke="#000000" stroke-width="1" /><text x="559" y="511" font-size="12" text-anchor="middle">50</text><line x1="659" y1="494" x2="659" y2="499" stroke="#000000" stroke-width="1" /><text x="659" y="511" font-size="12" text-anchor="middle">60</text><line x1="54" y1="456.5" x2="59" y2="456.5" stroke="#000000" stroke-width="1" /><text x="51" y="460.7" font-size="12" text-anchor="end">-50</text><line x1="54" y1="362.75" x2="59" y2="362.75" stroke="#000000" stroke-width="1" /><text x="51" y="366.95" font-size="12" text-anchor="end">-25</text><line x1="54" y1="269" x2="59" y2="269" stroke="#000000" stroke-width="1" /><text x="51" y="273.2" font-size="12" text-anchor="end">0</text><line x1="54" y1="175.25" x2="59" y2="175.25" stroke="#000000" stroke-width="1" /><text x="51" y="179.45000000000002" font-size="12" text-anchor="end">25</text><line x1="54" y1="81.5" x2="59" y2="81.5" stroke="#000000" stroke-width="1" /><text x="51" y="85.7" font-size="12" text-anchor="end">50</text><text x="359" y="538" font-size="14" text-anchor="middle">Week</text><text x="15" y="272.5" font-size="14" text-anchor="middle" transform="rotate(-90,15,272.5)">Proportion (%)</text><text x="418.5" y="27.400000000000002" font-size="18" text-anchor="middle">Gut microbiome — 100 % normalised</text><g clip-path="url(#kuva-clip-3)"><path d="M 69.0 435.86 C 70.67 435.88 75.67 435.76 79.0 436.02 C 82.33 436.27 85.67 436.73 89.0 437.40000000000003 C 92.33 438.08 95.67 439.32 99.0 440.07 C 102.33 440.81 105.67 441.44 109.0 441.88 C 112.33 442.31 115.67 442.35 119.0 442.67 C 122.33 442.99 125.67 443.51 129.0 443.78000000000003 C 132.33 444.04 135.67000000000002 443.59000000000003 139.0 444.23 C 142.33 444.87 145.67000000000002 446.97 149.0 447.62 C 152.33 448.27 155.67000000000002 447.40000000000003 159.0 448.15000000000003 C 162.33 448.90000000000003 165.67000000000002 451.57 169.0 452.13 C 172.33 452.7 175.67000000000002 451.18 179.0 451.53000000000003 C 182.33 451.89 185.67000000000002 453.63 189.0 454.27 C 192.33 454.91 195.67000000000002 455.5 199.0 455.38 C 202.33 455.27 205.67000000000002 453.72 209.0 453.57 C 212.33 453.42 215.67000000000002 454.32 219.0 454.46000000000004 C 222.33 454.6 225.67000000000002 454.32 229.0 454.42 C 232.33 454.53000000000003 235.67000000000002 455.41 239.0 455.08 C 242.33 454.75 245.67000000000002 452.83 249.0 452.45 C 252.33 452.07 255.67000000000002 453.28000000000003 259.0 452.8 C 262.33 452.32 265.67 450.75 269.0 449.59000000000003 C 272.33 448.43 275.67 446.81 279.0 445.83 C 282.33 444.85 285.67 444.96000000000004 289.0 443.7 C 292.33 442.44 295.67 439.14 299.0 438.27 C 302.33 437.39 305.67 438.94 309.0 438.47 C 312.33 438.0 315.67 436.44 319.0 435.46000000000004 C 322.33 434.48 325.67 433.12 329.0 432.59000000000003 C 332.33 432.06 335.67 432.71000000000004 339.0 432.28000000000003 C 342.33 431.84000000000003 345.67 430.31 349.0 430.0 C 352.33 429.68 355.67 430.01 359.0 430.39 C 362.33 430.77 365.67 431.91 369.0 432.28000000000003 C 372.33 432.65000000000003 375.67 431.97 379.0 432.61 C 382.33 433.26 385.67 435.31 389.0 436.17 C 392.33 437.03000000000003 395.67 436.92 399.0 437.75 C 402.33 438.58 405.67 440.3 409.0 441.15000000000003 C 412.33 442.0 415.67 442.31 419.0 442.84000000000003 C 422.33 443.37 425.67 443.5 429.0 444.34000000000003 C 432.33 445.17 435.67 446.92 439.0 447.87 C 442.33 448.81 445.67 449.82 449.0 450.02 C 452.33 450.22 455.67 449.2 459.0 449.09000000000003 C 462.33 448.98 465.67 449.38 469.0 449.33 C 472.33 449.28000000000003 475.67 449.2 479.0 448.79 C 482.33 448.38 485.67 447.14 489.0 446.86 C 492.33 446.58 495.67 447.75 499.0 447.09000000000003 C 502.33 446.43 505.67 443.77 509.0 442.89 C 512.33 442.0 515.67 442.35 519.0 441.77 C 522.33 441.2 525.67 440.08 529.0 439.43 C 532.33 438.77 535.67 438.28000000000003 539.0 437.84000000000003 C 542.33 437.40000000000003 545.67 437.1 549.0 436.79 C 552.33 436.48 555.67 436.08 559.0 435.98 C 562.33 435.89 565.67 436.35 569.0 436.22 C 572.33 436.1 577.33 435.38 579.0 435.21000000000004 L 579.0 458.73 C 577.33 458.36 572.33 457.22 569.0 456.52 C 565.67 455.81 562.33 454.86 559.0 454.48 C 555.67 454.1 552.33 454.72 549.0 454.22 C 545.67 453.72 542.33 452.26 539.0 451.48 C 535.67 450.69 532.33 449.84000000000003 529.0 449.51 C 525.67 449.19 522.33 449.7 519.0 449.54 C 515.67 449.37 512.33 448.55 509.0 448.52 C 505.67 448.49 502.33 449.23 499.0 449.34000000000003 C 495.67 449.46000000000004 492.33 448.97 489.0 449.21000000000004 C 485.67 449.44 482.33 450.39 479.0 450.75 C 475.67 451.12 472.33 451.35 469.0 451.40000000000003 C 465.67 451.46000000000004 462.33 450.87 459.0 451.08 C 455.67 451.29 452.33 452.35 449.0 452.68 C 445.67 453.01 442.33 453.05 439.0 453.06 C 435.67 453.07 432.33 452.58 429.0 452.76 C 425.67 452.93 422.33 453.7 419.0 454.1 C 415.67 454.49 412.33 455.0 409.0 455.13 C 405.67 455.26 402.33 454.83 399.0 454.86 C 395.67 454.90000000000003 392.33 455.22 389.0 455.35 C 385.67 455.48 382.33 455.57 379.0 455.65000000000003 C 375.67 455.73 372.33 455.85 369.0 455.82 C 365.67 455.8 362.33 455.33 359.0 455.51 C 355.67 455.69 352.33 456.72 349.0 456.90000000000003 C 345.67 457.07 342.33 456.52 339.0 456.57 C 335.67 456.61 332.33 456.90000000000003 329.0 457.15000000000003 C 325.67 457.40000000000003 322.33 457.62 319.0 458.07 C 315.67 458.51 312.33 459.76 309.0 459.8 C 305.67 459.85 302.33 458.34000000000003 299.0 458.34000000000003 C 295.67 458.34000000000003 292.33 459.78000000000003 289.0 459.8 C 285.67 459.82 282.33 458.44 279.0 458.44 C 275.67 458.43 272.33 459.64 269.0 459.78000000000003 C 265.67 459.92 262.33 459.53000000000003 259.0 459.27 C 255.67000000000002 459.01 252.33 458.47 249.0 458.23 C 245.67000000000002 458.0 242.33 458.16 239.0 457.85 C 235.67000000000002 457.54 232.33 456.61 229.0 456.38 C 225.67000000000002 456.14 222.33 456.59000000000003 219.0 456.45 C 215.67000000000002 456.31 212.33 455.36 209.0 455.52 C 205.67000000000002 455.69 202.33 457.17 199.0 457.44 C 195.67000000000002 457.7 192.33 457.1 189.0 457.14 C 185.67000000000002 457.17 182.33 457.41 179.0 457.63 C 175.67000000000002 457.86 172.33 458.12 169.0 458.5 C 165.67000000000002 458.88 162.33 459.45 159.0 459.90000000000003 C 155.67000000000002 460.36 152.33 460.93 149.0 461.21000000000004 C 145.67000000000002 461.5 142.33 461.37 139.0 461.6 C 135.67000000000002 461.83 132.33 462.38 129.0 462.57 C 125.67 462.76 122.33 462.53000000000003 119.0 462.74 C 115.67 462.95 112.33 463.73 109.0 463.82 C 105.67 463.91 102.33 463.43 99.0 463.28000000000003 C 95.67 463.13 92.33 463.26 89.0 462.92 C 85.67 462.59000000000003 82.33 461.78000000000003 79.0 461.25 C 75.67 460.72 70.67 460.0 69.0 459.75 Z" stroke="none" stroke-width="0" fill="#8c564b" fill-opacity="0.85" /><path d="M 69.0 392.87 C 70.67 392.35 75.67 390.27 79.0 389.73 C 82.33 389.19 85.67 389.21000000000004 89.0 389.62 C 92.33 390.02 95.67 391.44 99.0 392.15000000000003 C 102.33 392.85 105.67 393.40000000000003 109.0 393.84000000000003 C 112.33 394.29 115.67 394.43 119.0 394.82 C 122.33 395.21000000000004 125.67 395.23 129.0 396.19 C 132.33 397.14 135.67000000000002 399.39 139.0 400.57 C 142.33 401.76 145.67000000000002 402.21000000000004 149.0 403.32 C 152.33 404.42 155.67000000000002 405.61 159.0 407.21000000000004 C 162.33 408.82 165.67000000000002 411.67 169.0 412.93 C 172.33 414.19 175.67000000000002 414.3 179.0 414.8 C 182.33 415.3 185.67000000000002 415.79 189.0 415.93 C 192.33 416.07 195.67000000000002 415.76 199.0 415.63 C 202.33 415.5 205.67000000000002 415.36 209.0 415.15000000000003 C 212.33 414.94 215.67000000000002 415.02 219.0 414.36 C 222.33 413.7 225.67000000000002 412.51 229.0 411.19 C 232.33 409.87 235.67000000000002 407.5 239.0 406.43 C 242.33 405.35 245.67000000000002 405.46000000000004 249.0 404.74 C 252.33 404.02 255.67000000000002 403.25 259.0 402.11 C 262.33 400.98 265.67 398.87 269.0 397.90000000000003 C 272.33 396.94 275.67 396.73 279.0 396.31 C 282.33 395.90000000000003 285.67 395.78000000000003 289.0 395.42 C 292.33 395.06 295.67 394.41 299.0 394.16 C 302.33 393.91 305.67 394.07 309.0 393.90000000000003 C 312.33 393.72 315.67 393.07 319.0 393.12 C 322.33 393.17 325.67 393.65000000000003 329.0 394.18 C 332.33 394.72 335.67 396.07 339.0 396.33 C 342.33 396.6 345.67 395.72 349.0 395.77 C 352.33 395.83 355.67 396.7 359.0 396.66 C 362.33 396.62 365.67 395.89 369.0 395.52 C 372.33 395.16 375.67 394.59000000000003 379.0 394.47 C 382.33 394.35 385.67 394.65000000000003 389.0 394.79 C 392.33 394.93 395.67 395.48 399.0 395.3 C 402.33 395.13 405.67 393.94 409.0 393.75 C 412.33 393.56 415.67 394.27 419.0 394.17 C 422.33 394.08 425.67 393.19 429.0 393.18 C 432.33 393.17 435.67 393.79 439.0 394.11 C 442.33 394.43 445.67 394.82 449.0 395.11 C 452.33 395.40000000000003 455.67 395.68 459.0 395.87 C 462.33 396.06 465.67 395.87 469.0 396.26 C 472.33 396.65000000000003 475.67 397.41 479.0 398.21000000000004 C 482.33 399.02 485.67 400.41 489.0 401.12 C 492.33 401.82 495.67 402.15000000000003 499.0 402.46000000000004 C 502.33 402.77 505.67 402.69 509.0 402.97 C 512.33 403.26 515.67 404.3 519.0 404.15000000000003 C 522.33 404.0 525.67 402.87 529.0 402.09000000000003 C 532.33 401.31 535.67 399.96000000000004 539.0 399.47 C 542.33 398.98 545.67 399.58 549.0 399.13 C 552.33 398.68 555.67 397.21000000000004 559.0 396.76 C 562.33 396.32 565.67 397.09000000000003 569.0 396.46000000000004 C 572.33 395.83 577.33 393.57 579.0 392.99 L 579.0 435.21000000000004 C 577.33 435.38 572.33 436.1 569.0 436.22 C 565.67 436.35 562.33 435.89 559.0 435.98 C 555.67 436.08 552.33 436.48 549.0 436.79 C 545.67 437.1 542.33 437.40000000000003 539.0 437.84000000000003 C 535.67 438.28000000000003 532.33 438.77 529.0 439.43 C 525.67 440.08 522.33 441.2 519.0 441.77 C 515.67 442.35 512.33 442.0 509.0 442.89 C 505.67 443.77 502.33 446.43 499.0 447.09000000000003 C 495.67 447.75 492.33 446.58 489.0 446.86 C 485.67 447.14 482.33 448.38 479.0 448.79 C 475.67 449.2 472.33 449.28000000000003 469.0 449.33 C 465.67 449.38 462.33 448.98 459.0 449.09000000000003 C 455.67 449.2 452.33 450.22 449.0 450.02 C 445.67 449.82 442.33 448.81 439.0 447.87 C 435.67 446.92 432.33 445.17 429.0 444.34000000000003 C 425.67 443.5 422.33 443.37 419.0 442.84000000000003 C 415.67 442.31 412.33 442.0 409.0 441.15000000000003 C 405.67 440.3 402.33 438.58 399.0 437.75 C 395.67 436.92 392.33 437.03000000000003 389.0 436.17 C 385.67 435.31 382.33 433.26 379.0 432.61 C 375.67 431.97 372.33 432.65000000000003 369.0 432.28000000000003 C 365.67 431.91 362.33 430.77 359.0 430.39 C 355.67 430.01 352.33 429.68 349.0 430.0 C 345.67 430.31 342.33 431.84000000000003 339.0 432.28000000000003 C 335.67 432.71000000000004 332.33 432.06 329.0 432.59000000000003 C 325.67 433.12 322.33 434.48 319.0 435.46000000000004 C 315.67 436.44 312.33 438.0 309.0 438.47 C 305.67 438.94 302.33 437.39 299.0 438.27 C 295.67 439.14 292.33 442.44 289.0 443.7 C 285.67 444.96000000000004 282.33 444.85 279.0 445.83 C 275.67 446.81 272.33 448.43 269.0 449.59000000000003 C 265.67 450.75 262.33 452.32 259.0 452.8 C 255.67000000000002 453.28000000000003 252.33 452.07 249.0 452.45 C 245.67000000000002 452.83 242.33 454.75 239.0 455.08 C 235.67000000000002 455.41 232.33 454.53000000000003 229.0 454.42 C 225.67000000000002 454.32 222.33 454.6 219.0 454.46000000000004 C 215.67000000000002 454.32 212.33 453.42 209.0 453.57 C 205.67000000000002 453.72 202.33 455.27 199.0 455.38 C 195.67000000000002 455.5 192.33 454.91 189.0 454.27 C 185.67000000000002 453.63 182.33 451.89 179.0 451.53000000000003 C 175.67000000000002 451.18 172.33 452.7 169.0 452.13 C 165.67000000000002 451.57 162.33 448.90000000000003 159.0 448.15000000000003 C 155.67000000000002 447.40000000000003 152.33 448.27 149.0 447.62 C 145.67000000000002 446.97 142.33 444.87 139.0 444.23 C 135.67000000000002 443.59000000000003 132.33 444.04 129.0 443.78000000000003 C 125.67 443.51 122.33 442.99 119.0 442.67 C 115.67 442.35 112.33 442.31 109.0 441.88 C 105.67 441.44 102.33 440.81 99.0 440.07 C 95.67 439.32 92.33 438.08 89.0 437.40000000000003 C 85.67 436.73 82.33 436.27 79.0 436.02 C 75.67 435.76 70.67 435.88 69.0 435.86 Z" stroke="none" stroke-width="0" fill="#d62728" fill-opacity="0.85" /><path d="M 69.0 267.79 C 70.67 267.44 75.67 266.94 79.0 265.72 C 82.33 264.51 85.67 261.75 89.0 260.5 C 92.33 259.25 95.67 259.11 99.0 258.21 C 102.33 257.31 105.67 255.58 109.0 255.11 C 112.33 254.65 115.67 255.95000000000002 119.0 255.42000000000002 C 122.33 254.88 125.67 252.72 129.0 251.92000000000002 C 132.33 251.12 135.67000000000002 251.27 139.0 250.61 C 142.33 249.96 145.67000000000002 248.58 149.0 248.0 C 152.33 247.43 155.67000000000002 247.1 159.0 247.18 C 162.33 247.27 165.67000000000002 248.41 169.0 248.52 C 172.33 248.64000000000001 175.67000000000002 248.38 179.0 247.86 C 182.33 247.33 185.67000000000002 245.88 189.0 245.39000000000001 C 192.33 244.89000000000001 195.67000000000002 244.22 199.0 244.91 C 202.33 245.6 205.67000000000002 248.58 209.0 249.53 C 212.33 250.48000000000002 215.67000000000002 250.77 219.0 250.59 C 222.33 250.41 225.67000000000002 248.51000000000002 229.0 248.45000000000002 C 232.33 248.39000000000001 235.67000000000002 249.24 239.0 250.21 C 242.33 251.18 245.67000000000002 253.58 249.0 254.27 C 252.33 254.96 255.67000000000002 254.24 259.0 254.36 C 262.33 254.48000000000002 265.67 253.75 269.0 254.99 C 272.33 256.23 275.67 260.57 279.0 261.77 C 282.33 262.98 285.67 261.34000000000003 289.0 262.22 C 292.33 263.11 295.67 266.22 299.0 267.1 C 302.33 267.98 305.67 266.61 309.0 267.51 C 312.33 268.41 315.67 271.21 319.0 272.52 C 322.33 273.84000000000003 325.67 274.15000000000003 329.0 275.42 C 332.33 276.69 335.67 279.19 339.0 280.13 C 342.33 281.08 345.67 280.54 349.0 281.06 C 352.33 281.59000000000003 355.67 282.82 359.0 283.3 C 362.33 283.78000000000003 365.67 283.63 369.0 283.93 C 372.33 284.24 375.67 284.52 379.0 285.13 C 382.33 285.74 385.67 287.04 389.0 287.58 C 392.33 288.12 395.67 288.04 399.0 288.38 C 402.33 288.71 405.67 289.46 409.0 289.61 C 412.33 289.77 415.67 289.02 419.0 289.32 C 422.33 289.62 425.67 291.28000000000003 429.0 291.42 C 432.33 291.56 435.67 290.58 439.0 290.16 C 442.33 289.75 445.67 288.8 449.0 288.93 C 452.33 289.07 455.67 290.71 459.0 290.99 C 462.33 291.27 465.67 290.72 469.0 290.61 C 472.33 290.51 475.67 290.65000000000003 479.0 290.36 C 482.33 290.06 485.67 289.18 489.0 288.84000000000003 C 492.33 288.51 495.67 287.85 499.0 288.35 C 502.33 288.86 505.67 292.0 509.0 291.87 C 512.33 291.75 515.67 288.1 519.0 287.6 C 522.33 287.1 525.67 289.19 529.0 288.86 C 532.33 288.52 535.67 286.89 539.0 285.59000000000003 C 542.33 284.29 545.67 281.91 549.0 281.07 C 552.33 280.23 555.67 281.26 559.0 280.57 C 562.33 279.89 565.67 278.42 569.0 276.95 C 572.33 275.49 577.33 272.65 579.0 271.79 L 579.0 392.99 C 577.33 393.57 572.33 395.83 569.0 396.46000000000004 C 565.67 397.09000000000003 562.33 396.32 559.0 396.76 C 555.67 397.21000000000004 552.33 398.68 549.0 399.13 C 545.67 399.58 542.33 398.98 539.0 399.47 C 535.67 399.96000000000004 532.33 401.31 529.0 402.09000000000003 C 525.67 402.87 522.33 404.0 519.0 404.15000000000003 C 515.67 404.3 512.33 403.26 509.0 402.97 C 505.67 402.69 502.33 402.77 499.0 402.46000000000004 C 495.67 402.15000000000003 492.33 401.82 489.0 401.12 C 485.67 400.41 482.33 399.02 479.0 398.21000000000004 C 475.67 397.41 472.33 396.65000000000003 469.0 396.26 C 465.67 395.87 462.33 396.06 459.0 395.87 C 455.67 395.68 452.33 395.40000000000003 449.0 395.11 C 445.67 394.82 442.33 394.43 439.0 394.11 C 435.67 393.79 432.33 393.17 429.0 393.18 C 425.67 393.19 422.33 394.08 419.0 394.17 C 415.67 394.27 412.33 393.56 409.0 393.75 C 405.67 393.94 402.33 395.13 399.0 395.3 C 395.67 395.48 392.33 394.93 389.0 394.79 C 385.67 394.65000000000003 382.33 394.35 379.0 394.47 C 375.67 394.59000000000003 372.33 395.16 369.0 395.52 C 365.67 395.89 362.33 396.62 359.0 396.66 C 355.67 396.7 352.33 395.83 349.0 395.77 C 345.67 395.72 342.33 396.6 339.0 396.33 C 335.67 396.07 332.33 394.72 329.0 394.18 C 325.67 393.65000000000003 322.33 393.17 319.0 393.12 C 315.67 393.07 312.33 393.72 309.0 393.90000000000003 C 305.67 394.07 302.33 393.91 299.0 394.16 C 295.67 394.41 292.33 395.06 289.0 395.42 C 285.67 395.78000000000003 282.33 395.90000000000003 279.0 396.31 C 275.67 396.73 272.33 396.94 269.0 397.90000000000003 C 265.67 398.87 262.33 400.98 259.0 402.11 C 255.67000000000002 403.25 252.33 404.02 249.0 404.74 C 245.67000000000002 405.46000000000004 242.33 405.35 239.0 406.43 C 235.67000000000002 407.5 232.33 409.87 229.0 411.19 C 225.67000000000002 412.51 222.33 413.7 219.0 414.36 C 215.67000000000002 415.02 212.33 414.94 209.0 415.15000000000003 C 205.67000000000002 415.36 202.33 415.5 199.0 415.63 C 195.67000000000002 415.76 192.33 416.07 189.0 415.93 C 185.67000000000002 415.79 182.33 415.3 179.0 414.8 C 175.67000000000002 414.3 172.33 414.19 169.0 412.93 C 165.67000000000002 411.67 162.33 408.82 159.0 407.21000000000004 C 155.67000000000002 405.61 152.33 404.42 149.0 403.32 C 145.67000000000002 402.21000000000004 142.33 401.76 139.0 400.57 C 135.67000000000002 399.39 132.33 397.14 129.0 396.19 C 125.67 395.23 122.33 395.21000000000004 119.0 394.82 C 115.67 394.43 112.33 394.29 109.0 393.84000000000003 C 105.67 393.40000000000003 102.33 392.85 99.0 392.15000000000003 C 95.67 391.44 92.33 390.02 89.0 389.62 C 85.67 389.21000000000004 82.33 389.19 79.0 389.73 C 75.67 390.27 70.67 392.35 69.0 392.87 Z" stroke="none" stroke-width="0" fill="#1f77b4" fill-opacity="0.85" /><path d="M 69.0 183.73 C 70.67 183.61 75.67 183.11 79.0 183.03 C 82.33 182.94 85.67 183.68 89.0 183.24 C 92.33 182.79 95.67 180.98 99.0 180.34 C 102.33 179.71 105.67 179.95000000000002 109.0 179.42000000000002 C 112.33 178.9 115.67 177.18 119.0 177.19 C 122.33 177.20000000000002 125.67 179.5 129.0 179.46 C 132.33 179.43 135.67000000000002 177.89000000000001 139.0 176.96 C 142.33 176.02 145.67000000000002 174.28 149.0 173.88 C 152.33 173.48 155.67000000000002 175.25 159.0 174.56 C 162.33 173.86 165.67000000000002 170.46 169.0 169.72 C 172.33 168.98 175.67000000000002 170.01 179.0 170.13 C 182.33 170.25 185.67000000000002 170.54 189.0 170.41 C 192.33 170.28 195.67000000000002 169.31 199.0 169.36 C 202.33 169.42000000000002 205.67000000000002 170.62 209.0 170.75 C 212.33 170.88 215.67000000000002 169.71 219.0 170.16 C 222.33 170.6 225.67000000000002 172.84 229.0 173.41 C 232.33 173.99 235.67000000000002 173.5 239.0 173.61 C 242.33 173.72 245.67000000000002 174.09 249.0 174.05 C 252.33 174.01 255.67000000000002 172.76 259.0 173.4 C 262.33 174.03 265.67 176.82 269.0 177.84 C 272.33 178.87 275.67 179.20000000000002 279.0 179.53 C 282.33 179.87 285.67 179.08 289.0 179.86 C 292.33 180.63 295.67 183.82 299.0 184.19 C 302.33 184.57 305.67 182.34 309.0 182.12 C 312.33 181.89000000000001 315.67 182.54 319.0 182.87 C 322.33 183.20000000000002 325.67 184.42000000000002 329.0 184.09 C 332.33 183.76 335.67 181.48 339.0 180.88 C 342.33 180.28 345.67 180.56 349.0 180.49 C 352.33 180.42000000000002 355.67 180.77 359.0 180.47 C 362.33 180.17000000000002 365.67 179.19 369.0 178.67000000000002 C 372.33 178.16 375.67 178.46 379.0 177.38 C 382.33 176.29 385.67 173.04 389.0 172.16 C 392.33 171.27 395.67 172.77 399.0 172.07 C 402.33 171.38 405.67 168.94 409.0 168.01 C 412.33 167.07 415.67 166.59 419.0 166.46 C 422.33 166.33 425.67 167.6 429.0 167.22 C 432.33 166.84 435.67 164.83 439.0 164.17000000000002 C 442.33 163.51 445.67 162.86 449.0 163.25 C 452.33 163.65 455.67 166.02 459.0 166.54 C 462.33 167.06 465.67 166.31 469.0 166.37 C 472.33 166.43 475.67 166.35 479.0 166.9 C 482.33 167.46 485.67 169.05 489.0 169.68 C 492.33 170.31 495.67 170.44 499.0 170.68 C 502.33 170.93 505.67 170.59 509.0 171.13 C 512.33 171.67000000000002 515.67 172.93 519.0 173.92000000000002 C 522.33 174.91 525.67 176.1 529.0 177.07 C 532.33 178.04 535.67 179.23 539.0 179.75 C 542.33 180.28 545.67 180.18 549.0 180.23 C 552.33 180.28 555.67 179.89000000000001 559.0 180.05 C 562.33 180.21 565.67 180.66 569.0 181.21 C 572.33 181.76 577.33 183.01 579.0 183.37 L 579.0 271.79 C 577.33 272.65 572.33 275.49 569.0 276.95 C 565.67 278.42 562.33 279.89 559.0 280.57 C 555.67 281.26 552.33 280.23 549.0 281.07 C 545.67 281.91 542.33 284.29 539.0 285.59000000000003 C 535.67 286.89 532.33 288.52 529.0 288.86 C 525.67 289.19 522.33 287.1 519.0 287.6 C 515.67 288.1 512.33 291.75 509.0 291.87 C 505.67 292.0 502.33 288.86 499.0 288.35 C 495.67 287.85 492.33 288.51 489.0 288.84000000000003 C 485.67 289.18 482.33 290.06 479.0 290.36 C 475.67 290.65000000000003 472.33 290.51 469.0 290.61 C 465.67 290.72 462.33 291.27 459.0 290.99 C 455.67 290.71 452.33 289.07 449.0 288.93 C 445.67 288.8 442.33 289.75 439.0 290.16 C 435.67 290.58 432.33 291.56 429.0 291.42 C 425.67 291.28000000000003 422.33 289.62 419.0 289.32 C 415.67 289.02 412.33 289.77 409.0 289.61 C 405.67 289.46 402.33 288.71 399.0 288.38 C 395.67 288.04 392.33 288.12 389.0 287.58 C 385.67 287.04 382.33 285.74 379.0 285.13 C 375.67 284.52 372.33 284.24 369.0 283.93 C 365.67 283.63 362.33 283.78000000000003 359.0 283.3 C 355.67 282.82 352.33 281.59000000000003 349.0 281.06 C 345.67 280.54 342.33 281.08 339.0 280.13 C 335.67 279.19 332.33 276.69 329.0 275.42 C 325.67 274.15000000000003 322.33 273.84000000000003 319.0 272.52 C 315.67 271.21 312.33 268.41 309.0 267.51 C 305.67 266.61 302.33 267.98 299.0 267.1 C 295.67 266.22 292.33 263.11 289.0 262.22 C 285.67 261.34000000000003 282.33 262.98 279.0 261.77 C 275.67 260.57 272.33 256.23 269.0 254.99 C 265.67 253.75 262.33 254.48000000000002 259.0 254.36 C 255.67000000000002 254.24 252.33 254.96 249.0 254.27 C 245.67000000000002 253.58 242.33 251.18 239.0 250.21 C 235.67000000000002 249.24 232.33 248.39000000000001 229.0 248.45000000000002 C 225.67000000000002 248.51000000000002 222.33 250.41 219.0 250.59 C 215.67000000000002 250.77 212.33 250.48000000000002 209.0 249.53 C 205.67000000000002 248.58 202.33 245.6 199.0 244.91 C 195.67000000000002 244.22 192.33 244.89000000000001 189.0 245.39000000000001 C 185.67000000000002 245.88 182.33 247.33 179.0 247.86 C 175.67000000000002 248.38 172.33 248.64000000000001 169.0 248.52 C 165.67000000000002 248.41 162.33 247.27 159.0 247.18 C 155.67000000000002 247.1 152.33 247.43 149.0 248.0 C 145.67000000000002 248.58 142.33 249.96 139.0 250.61 C 135.67000000000002 251.27 132.33 251.12 129.0 251.92000000000002 C 125.67 252.72 122.33 254.88 119.0 255.42000000000002 C 115.67 255.95000000000002 112.33 254.65 109.0 255.11 C 105.67 255.58 102.33 257.31 99.0 258.21 C 95.67 259.11 92.33 259.25 89.0 260.5 C 85.67 261.75 82.33 264.51 79.0 265.72 C 75.67 266.94 70.67 267.44 69.0 267.79 Z" stroke="none" stroke-width="0" fill="#ff7f0e" fill-opacity="0.85" /><path d="M 69.0 111.48 C 70.67 111.94 75.67 113.71000000000001 79.0 114.24000000000001 C 82.33 114.76 85.67 114.68 89.0 114.63 C 92.33 114.58 95.67 114.13 99.0 113.91 C 102.33 113.69 105.67 113.04 109.0 113.33 C 112.33 113.62 115.67 115.42 119.0 115.65 C 122.33 115.88 125.67 114.73 129.0 114.73 C 132.33 114.73 135.67000000000002 115.44 139.0 115.65 C 142.33 115.86 145.67000000000002 116.2 149.0 115.98 C 152.33 115.76 155.67000000000002 115.16 159.0 114.32000000000001 C 162.33 113.47 165.67000000000002 111.37 169.0 110.92 C 172.33 110.47 175.67000000000002 111.63 179.0 111.64 C 182.33 111.65 185.67000000000002 111.06 189.0 110.97 C 192.33 110.87 195.67000000000002 111.04 199.0 111.07000000000001 C 202.33 111.11 205.67000000000002 111.56 209.0 111.18 C 212.33 110.79 215.67000000000002 108.8 219.0 108.77 C 222.33 108.74000000000001 225.67000000000002 110.76 229.0 111.0 C 232.33 111.24000000000001 235.67000000000002 110.5 239.0 110.21000000000001 C 242.33 109.92 245.67000000000002 109.28 249.0 109.25 C 252.33 109.22 255.67000000000002 109.68 259.0 110.02 C 262.33 110.37 265.67 111.2 269.0 111.34 C 272.33 111.49000000000001 275.67 111.06 279.0 110.91 C 282.33 110.75 285.67 110.44 289.0 110.43 C 292.33 110.42 295.67 110.96000000000001 299.0 110.83 C 302.33 110.7 305.67 109.58 309.0 109.63 C 312.33 109.68 315.67 110.96000000000001 319.0 111.13 C 322.33 111.29 325.67 111.08 329.0 110.64 C 332.33 110.2 335.67 108.56 339.0 108.47 C 342.33 108.39 345.67 109.96000000000001 349.0 110.11 C 352.33 110.27 355.67 109.55 359.0 109.39 C 362.33 109.23 365.67 109.02 369.0 109.18 C 372.33 109.33 375.67 110.23 379.0 110.34 C 382.33 110.45 385.67 110.23 389.0 109.84 C 392.33 109.45 395.67 108.23 399.0 108.0 C 402.33 107.77 405.67 108.08 409.0 108.45 C 412.33 108.83 415.67 110.06 419.0 110.24000000000001 C 422.33 110.43 425.67 109.8 429.0 109.56 C 432.33 109.32000000000001 435.67 108.97 439.0 108.8 C 442.33 108.63 445.67 108.92 449.0 108.55 C 452.33 108.18 455.67 107.03 459.0 106.58 C 462.33 106.13 465.67 106.04 469.0 105.85000000000001 C 472.33 105.66 475.67 105.38 479.0 105.46000000000001 C 482.33 105.53 485.67 106.57000000000001 489.0 106.32000000000001 C 492.33 106.07000000000001 495.67 104.12 499.0 103.95 C 502.33 103.79 505.67 105.2 509.0 105.33 C 512.33 105.46000000000001 515.67 104.81 519.0 104.72 C 522.33 104.62 525.67 104.61 529.0 104.76 C 532.33 104.91 535.67 105.49000000000001 539.0 105.62 C 542.33 105.75 545.67 105.02 549.0 105.57000000000001 C 552.33 106.11 555.67 108.60000000000001 559.0 108.9 C 562.33 109.2 565.67 107.10000000000001 569.0 107.35000000000001 C 572.33 107.61 577.33 109.9 579.0 110.41 L 579.0 183.37 C 577.33 183.01 572.33 181.76 569.0 181.21 C 565.67 180.66 562.33 180.21 559.0 180.05 C 555.67 179.89000000000001 552.33 180.28 549.0 180.23 C 545.67 180.18 542.33 180.28 539.0 179.75 C 535.67 179.23 532.33 178.04 529.0 177.07 C 525.67 176.1 522.33 174.91 519.0 173.92000000000002 C 515.67 172.93 512.33 171.67000000000002 509.0 171.13 C 505.67 170.59 502.33 170.93 499.0 170.68 C 495.67 170.44 492.33 170.31 489.0 169.68 C 485.67 169.05 482.33 167.46 479.0 166.9 C 475.67 166.35 472.33 166.43 469.0 166.37 C 465.67 166.31 462.33 167.06 459.0 166.54 C 455.67 166.02 452.33 163.65 449.0 163.25 C 445.67 162.86 442.33 163.51 439.0 164.17000000000002 C 435.67 164.83 432.33 166.84 429.0 167.22 C 425.67 167.6 422.33 166.33 419.0 166.46 C 415.67 166.59 412.33 167.07 409.0 168.01 C 405.67 168.94 402.33 171.38 399.0 172.07 C 395.67 172.77 392.33 171.27 389.0 172.16 C 385.67 173.04 382.33 176.29 379.0 177.38 C 375.67 178.46 372.33 178.16 369.0 178.67000000000002 C 365.67 179.19 362.33 180.17000000000002 359.0 180.47 C 355.67 180.77 352.33 180.42000000000002 349.0 180.49 C 345.67 180.56 342.33 180.28 339.0 180.88 C 335.67 181.48 332.33 183.76 329.0 184.09 C 325.67 184.42000000000002 322.33 183.20000000000002 319.0 182.87 C 315.67 182.54 312.33 181.89000000000001 309.0 182.12 C 305.67 182.34 302.33 184.57 299.0 184.19 C 295.67 183.82 292.33 180.63 289.0 179.86 C 285.67 179.08 282.33 179.87 279.0 179.53 C 275.67 179.20000000000002 272.33 178.87 269.0 177.84 C 265.67 176.82 262.33 174.03 259.0 173.4 C 255.67000000000002 172.76 252.33 174.01 249.0 174.05 C 245.67000000000002 174.09 242.33 173.72 239.0 173.61 C 235.67000000000002 173.5 232.33 173.99 229.0 173.41 C 225.67000000000002 172.84 222.33 170.6 219.0 170.16 C 215.67000000000002 169.71 212.33 170.88 209.0 170.75 C 205.67000000000002 170.62 202.33 169.42000000000002 199.0 169.36 C 195.67000000000002 169.31 192.33 170.28 189.0 170.41 C 185.67000000000002 170.54 182.33 170.25 179.0 170.13 C 175.67000000000002 170.01 172.33 168.98 169.0 169.72 C 165.67000000000002 170.46 162.33 173.86 159.0 174.56 C 155.67000000000002 175.25 152.33 173.48 149.0 173.88 C 145.67000000000002 174.28 142.33 176.02 139.0 176.96 C 135.67000000000002 177.89000000000001 132.33 179.43 129.0 179.46 C 125.67 179.5 122.33 177.20000000000002 119.0 177.19 C 115.67 177.18 112.33 178.9 109.0 179.42000000000002 C 105.67 179.95000000000002 102.33 179.71 99.0 180.34 C 95.67 180.98 92.33 182.79 89.0 183.24 C 85.67 183.68 82.33 182.94 79.0 183.03 C 75.67 183.11 70.67 183.61 69.0 183.73 Z" stroke="none" stroke-width="0" fill="#2ca02c" fill-opacity="0.85" /><path d="M 69.0 84.75 C 70.67 85.0 75.67 85.72 79.0 86.25 C 82.33 86.78 85.67 87.59 89.0 87.92 C 92.33 88.26 95.67 88.13 99.0 88.28 C 102.33 88.43 105.67 88.91 109.0 88.82000000000001 C 112.33 88.73 115.67 87.95 119.0 87.74 C 122.33 87.53 125.67 87.76 129.0 87.57000000000001 C 132.33 87.38 135.67000000000002 86.83 139.0 86.60000000000001 C 142.33 86.37 145.67000000000002 86.5 149.0 86.21000000000001 C 152.33 85.93 155.67000000000002 85.36 159.0 84.9 C 162.33 84.45 165.67000000000002 83.88 169.0 83.5 C 172.33 83.12 175.67000000000002 82.86 179.0 82.63 C 182.33 82.41 185.67000000000002 82.17 189.0 82.14 C 192.33 82.10000000000001 195.67000000000002 82.7 199.0 82.44 C 202.33 82.17 205.67000000000002 80.69 209.0 80.52 C 212.33 80.36 215.67000000000002 81.31 219.0 81.45 C 222.33 81.59 225.67000000000002 81.14 229.0 81.38 C 232.33 81.61 235.67000000000002 82.54 239.0 82.85000000000001 C 242.33 83.16 245.67000000000002 83.0 249.0 83.23 C 252.33 83.47 255.67000000000002 84.01 259.0 84.27 C 262.33 84.53 265.67 84.92 269.0 84.78 C 272.33 84.64 275.67 83.43 279.0 83.44 C 282.33 83.44 285.67 84.82000000000001 289.0 84.8 C 292.33 84.78 295.67 83.34 299.0 83.34 C 302.33 83.34 305.67 84.85000000000001 309.0 84.8 C 312.33 84.76 315.67 83.51 319.0 83.07000000000001 C 322.33 82.62 325.67 82.4 329.0 82.15 C 332.33 81.9 335.67 81.61 339.0 81.57000000000001 C 342.33 81.52 345.67 82.07000000000001 349.0 81.9 C 352.33 81.72 355.67 80.69 359.0 80.51 C 362.33 80.33 365.67 80.8 369.0 80.82000000000001 C 372.33 80.85000000000001 375.67 80.73 379.0 80.65 C 382.33 80.57000000000001 385.67 80.48 389.0 80.35000000000001 C 392.33 80.22 395.67 79.9 399.0 79.86 C 402.33 79.83 405.67 80.26 409.0 80.13 C 412.33 80.0 415.67 79.49 419.0 79.10000000000001 C 422.33 78.7 425.67 77.93 429.0 77.76 C 432.33 77.58 435.67 78.07000000000001 439.0 78.06 C 442.33 78.05 445.67 78.01 449.0 77.68 C 452.33 77.35000000000001 455.67 76.29 459.0 76.08 C 462.33 75.87 465.67 76.46000000000001 469.0 76.4 C 472.33 76.35000000000001 475.67 76.12 479.0 75.75 C 482.33 75.39 485.67 74.44 489.0 74.21000000000001 C 492.33 73.97 495.67 74.46000000000001 499.0 74.34 C 502.33 74.23 505.67 73.49 509.0 73.52 C 512.33 73.55 515.67 74.37 519.0 74.54 C 522.33 74.7 525.67 74.19 529.0 74.51 C 532.33 74.84 535.67 75.69 539.0 76.48 C 542.33 77.26 545.67 78.72 549.0 79.22 C 552.33 79.72 555.67 79.10000000000001 559.0 79.48 C 562.33 79.86 565.67 80.81 569.0 81.52 C 572.33 82.22 577.33 83.36 579.0 83.73 L 579.0 110.41 C 577.33 109.9 572.33 107.61 569.0 107.35000000000001 C 565.67 107.10000000000001 562.33 109.2 559.0 108.9 C 555.67 108.60000000000001 552.33 106.11 549.0 105.57000000000001 C 545.67 105.02 542.33 105.75 539.0 105.62 C 535.67 105.49000000000001 532.33 104.91 529.0 104.76 C 525.67 104.61 522.33 104.62 519.0 104.72 C 515.67 104.81 512.33 105.46000000000001 509.0 105.33 C 505.67 105.2 502.33 103.79 499.0 103.95 C 495.67 104.12 492.33 106.07000000000001 489.0 106.32000000000001 C 485.67 106.57000000000001 482.33 105.53 479.0 105.46000000000001 C 475.67 105.38 472.33 105.66 469.0 105.85000000000001 C 465.67 106.04 462.33 106.13 459.0 106.58 C 455.67 107.03 452.33 108.18 449.0 108.55 C 445.67 108.92 442.33 108.63 439.0 108.8 C 435.67 108.97 432.33 109.32000000000001 429.0 109.56 C 425.67 109.8 422.33 110.43 419.0 110.24000000000001 C 415.67 110.06 412.33 108.83 409.0 108.45 C 405.67 108.08 402.33 107.77 399.0 108.0 C 395.67 108.23 392.33 109.45 389.0 109.84 C 385.67 110.23 382.33 110.45 379.0 110.34 C 375.67 110.23 372.33 109.33 369.0 109.18 C 365.67 109.02 362.33 109.23 359.0 109.39 C 355.67 109.55 352.33 110.27 349.0 110.11 C 345.67 109.96000000000001 342.33 108.39 339.0 108.47 C 335.67 108.56 332.33 110.2 329.0 110.64 C 325.67 111.08 322.33 111.29 319.0 111.13 C 315.67 110.96000000000001 312.33 109.68 309.0 109.63 C 305.67 109.58 302.33 110.7 299.0 110.83 C 295.67 110.96000000000001 292.33 110.42 289.0 110.43 C 285.67 110.44 282.33 110.75 279.0 110.91 C 275.67 111.06 272.33 111.49000000000001 269.0 111.34 C 265.67 111.2 262.33 110.37 259.0 110.02 C 255.67000000000002 109.68 252.33 109.22 249.0 109.25 C 245.67000000000002 109.28 242.33 109.92 239.0 110.21000000000001 C 235.67000000000002 110.5 232.33 111.24000000000001 229.0 111.0 C 225.67000000000002 110.76 222.33 108.74000000000001 219.0 108.77 C 215.67000000000002 108.8 212.33 110.79 209.0 111.18 C 205.67000000000002 111.56 202.33 111.11 199.0 111.07000000000001 C 195.67000000000002 111.04 192.33 110.87 189.0 110.97 C 185.67000000000002 111.06 182.33 111.65 179.0 111.64 C 175.67000000000002 111.63 172.33 110.47 169.0 110.92 C 165.67000000000002 111.37 162.33 113.47 159.0 114.32000000000001 C 155.67000000000002 115.16 152.33 115.76 149.0 115.98 C 145.67000000000002 116.2 142.33 115.86 139.0 115.65 C 135.67000000000002 115.44 132.33 114.73 129.0 114.73 C 125.67 114.73 122.33 115.88 119.0 115.65 C 115.67 115.42 112.33 113.62 109.0 113.33 C 105.67 113.04 102.33 113.69 99.0 113.91 C 95.67 114.13 92.33 114.58 89.0 114.63 C 85.67 114.68 82.33 114.76 79.0 114.24000000000001 C 75.67 113.71000000000001 70.67 111.94 69.0 111.48 Z" stroke="none" stroke-width="0" fill="#9467bd" fill-opacity="0.85" /><text x="349" y="447.65000000000003" font-size="12" text-anchor="middle" fill="#ffffff">Verrucomicrobia</text><text x="449" y="426.77" font-size="12" text-anchor="middle" fill="#ffffff">Actinobacteria</text><text x="199" y="334.47" font-size="12" text-anchor="middle" fill="#ffffff">Firmicutes</text><text x="439" y="231.37" font-size="12" text-anchor="middle" fill="#333333">Bacteroidetes</text><text x="329" y="151.57" font-size="12" text-anchor="middle" fill="#ffffff">Proteobacteria</text><text x="489" y="94.46000000000001" font-size="12" text-anchor="middle" fill="#ffffff">Fusobacteria</text></g><rect x="664" y="34" width="160" height="128" fill="#ffffff" /><rect x="664" y="34" width="160" height="128" fill="none" stroke="#000000" stroke-width="1" /><text x="694" y="53.2" font-size="12" text-anchor="start">Firmicutes</text><rect x="674" y="43" width="12" height="12" fill="#1f77b4" /><text x="694" y="71.2" font-size="12" text-anchor="start">Bacteroidetes</text><rect x="674" y="61" width="12" height="12" fill="#ff7f0e" /><text x="694" y="89.2" font-size="12" text-anchor="start">Proteobacteria</text><rect x="674" y="79" width="12" height="12" fill="#2ca02c" /><text x="694" y="107.2" font-size="12" text-anchor="start">Actinobacteria</text><rect x="674" y="97" width="12" height="12" fill="#d62728" /><text x="694" y="125.2" font-size="12" text-anchor="start">Fusobacteria</text><rect x="674" y="115" width="12" height="12" fill="#9467bd" /><text x="694" y="143.20000000000002" font-size="12" text-anchor="start">Verrucomicrobia</text><rect x="674" y="133" width="12" height="12" fill="#8c564b" /></svg>