<svg xmlns="http://www.w3.org/2000/svg" width="681.8000000000001" height="545" font-family="DejaVu Sans, Liberation Sans, Arial, sans-serif" fill="black"><rect width="100%" height="100%" fill="white" /><defs><clipPath id="kuva-clip-1"><rect x="63.800000000000004" y="44" width="600" height="450"/></clipPath></defs><line x1="163.8" y1="44" x2="163.8" y2="494" stroke="#cccccc" stroke-width="1" /><line x1="263.8" y1="44" x2="263.8" y2="494" stroke="#cccccc" stroke-width="1" /><line x1="363.8" y1="44" x2="363.8" y2="494" stroke="#cccccc" stroke-width="1" /><line x1="463.8" y1="44" x2="463.8" y2="494" stroke="#cccccc" stroke-width="1" /><line x1="563.8000000000001" y1="44" x2="563.8000000000001" y2="494" stroke="#cccccc" stroke-width="1" /><line x1="663.8000000000001" y1="44" x2="663.8000000000001" y2="494" stroke="#cccccc" stroke-width="1" /><line x1="63.800000000000004" y1="456.5" x2="663.8000000000001" y2="456.5" stroke="#cccccc" stroke-width="1" /><line x1="63.800000000000004" y1="362.75" x2="663.8000000000001" y2="362.75" stroke="#cccccc" stroke-width="1" /><line x1="63.800000000000004" y1="269" x2="663.8000000000001" y2="269" stroke="#cccccc" stroke-width="1" /><line x1="63.800000000000004" y1="175.25" x2="663.8000000000001" y2="175.25" stroke="#cccccc" stroke-width="1" /><line x1="63.800000000000004" y1="81.5" x2="663.8000000000001" y2="81.5" stroke="#cccccc" stroke-width="1" /><line x1="63.800000000000004" y1="494" x2="663.8000000000001" y2="494" stroke="#000000" stroke-width="1" /><line x1="63.800000000000004" y1="44" x2="63.800000000000004" y2="494" stroke="#000000" stroke-width="1" /><line x1="63.800000000000004" y1="494" x2="63.800000000000004" y2="499" stroke="#000000" stroke-width="1" /><text x="63.800000000000004" y="511" font-size="12" text-anchor="middle">0</text><line x1="163.8" y1="494" x2="163.8" y2="499" stroke="#000000" stroke-width="1" /><text x="163.8" y="511" font-size="12" text-anchor="middle">10</text><line x1="263.8" y1="494" x2="263.8" y2="499" stroke="#000000" stroke-width="1" /><text x="263.8" y="511" font-size="12" text-anchor="middle">20</text><line x1="363.8" y1="494" x2="363.8" y2="499" stroke="#000000" stroke-width="1" /><text x="363.8" y="511" font-size="12" text-anchor="middle">30</text><line x1="463.8" y1="494" x2="463.8" y2="499" stroke="#000000" stroke-width="1" /><text x="463.8" y="511" font-size="12" text-anchor="middle">40</text><line x1="563.8000000000001" y1="494" x2="563.8000000000001" y2="499" stroke="#000000" stroke-width="1" /><text x="563.8000000000001" y="511" font-size="12" text-anchor="middle">50</text><line x1="663.8000000000001" y1="494" x2="663.8000000000001" y2="499" stroke="#000000" stroke-width="1" /><text x="663.8000000000001" y="511" font-size="12" text-anchor="middle">60</text><line x1="58.800000000000004" y1="456.5" x2="63.800000000000004" y2="456.5" stroke="#000000" stroke-width="1" /><text x="55.800000000000004" y="460.7" font-size="12" text-anchor="end">-500</text><line x1="58.800000000000004" y1="362.75" x2="63.800000000000004" y2="362.75" stroke="#000000" stroke-width="1" /><text x="55.800000000000004" y="366.95" font-size="12" text-anchor="end">-250</text><line x1="58.800000000000004" y1="269" x2="63.800000000000004" y2="269" stroke="#000000" stroke-width="1" /><text x="55.800000000000004" y="273.2" font-size="12" text-anchor="end">0</text><line x1="58.800000000000004" y1="175.25" x2="63.800000000000004" y2="175.25" stroke="#000000" stroke-width="1" /><text x="55.800000000000004" y="179.45000000000002" font-size="12" text-anchor="end">250</text><line x1="58.800000000000004" y1="81.5" x2="63.800000000000004" y2="81.5" stroke="#000000" stroke-width="1" /><text x="55.800000000000004" y="85.7" font-size="12" text-anchor="end">500</text><text x="363.8" y="538" font-size="14" text-anchor="middle">Week</text><text x="340.90000000000003" y="27.400000000000002" font-size="18" text-anchor="middle">Gut microbiome — symmetric baseline</text><g clip-path="url(#kuva-clip-1)"><path d="M 73.8 441.16 C 75.47 441.39 80.47 442.48 83.8 442.54 C 87.13 442.59000000000003 90.47 441.28000000000003 93.8 441.48 C 97.13 441.67 100.47 443.42 103.8 443.7 C 107.13 443.97 110.47 443.43 113.8 443.1 C 117.13 442.78000000000003 120.47 442.24 123.8 441.75 C 127.13000000000001 441.26 130.47 440.67 133.8 440.16 C 137.13 439.65000000000003 140.47 438.52 143.8 438.7 C 147.13 438.89 150.47 441.75 153.8 441.29 C 157.13 440.82 160.47 436.06 163.8 435.91 C 167.13 435.76 170.47 439.67 173.8 440.38 C 177.13 441.08 180.47 439.72 183.8 440.14 C 187.13 440.56 190.47 443.21000000000004 193.8 442.93 C 197.13 442.64 200.47 437.77 203.8 438.44 C 207.13 439.11 210.47 445.98 213.8 446.96000000000004 C 217.13 447.93 220.47 444.25 223.8 444.28000000000003 C 227.13 444.31 230.47 446.98 233.8 447.12 C 237.13 447.26 240.47 444.75 243.8 445.13 C 247.13 445.51 250.47 448.33 253.8 449.39 C 257.13 450.45 260.47 451.91 263.8 451.49 C 267.13 451.07 270.47 446.76 273.8 446.87 C 277.13 446.98 280.47 452.33 283.8 452.17 C 287.13 452.01 290.47 447.12 293.8 445.91 C 297.13 444.71000000000004 300.47 445.87 303.8 444.94 C 307.13 444.0 310.47 440.51 313.8 440.29 C 317.13 440.06 320.47 443.75 323.8 443.58 C 327.13 443.42 330.47 440.26 333.8 439.3 C 337.13 438.34000000000003 340.47 439.1 343.8 437.84000000000003 C 347.13 436.57 350.47 432.54 353.8 431.73 C 357.13 430.91 360.47 432.2 363.8 432.93 C 367.13 433.65000000000003 370.47 436.02 373.8 436.07 C 377.13 436.12 380.47 433.75 383.8 433.22 C 387.13 432.69 390.47 432.67 393.8 432.89 C 397.13 433.11 400.47 434.82 403.8 434.55 C 407.13 434.28000000000003 410.47 430.72 413.8 431.27 C 417.13 431.82 420.47 436.72 423.8 437.83 C 427.13 438.93 430.47 437.78000000000003 433.8 437.89 C 437.13 438.01 440.47 437.42 443.8 438.5 C 447.13 439.58 450.47 443.5 453.8 444.39 C 457.13 445.27 460.47 445.03000000000003 463.8 443.81 C 467.13 442.59000000000003 470.47 436.71000000000004 473.8 437.08 C 477.13 437.45 480.47 445.57 483.8 446.05 C 487.13 446.53000000000003 490.47 440.75 493.8 439.95 C 497.13 439.15000000000003 500.47 441.29 503.8 441.23 C 507.13 441.17 510.47 439.99 513.8 439.59000000000003 C 517.13 439.19 520.47 438.62 523.8 438.82 C 527.13 439.03000000000003 530.47 441.15000000000003 533.8 440.83 C 537.13 440.5 540.47 437.99 543.8 436.90000000000003 C 547.13 435.81 550.47 433.79 553.8000000000001 434.29 C 557.13 434.79 560.47 438.55 563.8000000000001 439.89 C 567.13 441.23 570.47 442.15000000000003 573.8000000000001 442.34000000000003 C 577.13 442.53000000000003 582.13 441.24 583.8000000000001 441.02 L 583.8000000000001 465.69 C 582.13 465.31 577.13 464.56 573.8000000000001 463.37 C 570.47 462.19 567.13 460.62 563.8000000000001 458.6 C 560.47 456.57 557.13 452.66 553.8000000000001 451.23 C 550.47 449.81 547.13 450.17 543.8 450.07 C 540.47 449.96000000000004 537.13 451.24 533.8 450.59000000000003 C 530.47 449.94 527.13 447.11 523.8 446.16 C 520.47 445.21000000000004 517.13 445.34000000000003 513.8 444.87 C 510.47 444.40000000000003 507.13 443.78000000000003 503.8 443.32 C 500.47 442.86 497.13 441.35 493.8 442.12 C 490.47 442.88 487.13 448.45 483.8 447.92 C 480.47 447.40000000000003 477.13 439.33 473.8 438.95 C 470.47 438.58 467.13 444.36 463.8 445.69 C 460.47 447.01 457.13 447.31 453.8 446.91 C 450.47 446.52 447.13 443.51 443.8 443.33 C 440.47 443.15000000000003 437.13 444.96000000000004 433.8 445.84000000000003 C 430.47 446.72 427.13 448.86 423.8 448.61 C 420.47 448.36 417.13 443.92 413.8 444.34000000000003 C 410.47 444.77 407.13 449.97 403.8 451.18 C 400.47 452.38 397.13 450.73 393.8 451.57 C 390.47 452.41 387.13 454.8 383.8 456.22 C 380.47 457.63 377.13 459.71000000000004 373.8 460.06 C 370.47 460.40000000000003 367.13 458.47 363.8 458.29 C 360.47 458.11 357.13 458.2 353.8 458.98 C 350.47 459.76 347.13 461.96000000000004 343.8 462.96000000000004 C 340.47 463.96000000000004 337.13 464.22 333.8 464.98 C 330.47 465.74 327.13 467.97 323.8 467.52 C 320.47 467.07 317.13 462.53000000000003 313.8 462.28000000000003 C 310.47 462.03000000000003 307.13 465.99 303.8 466.03000000000003 C 300.47 466.07 297.13 462.64 293.8 462.53000000000003 C 290.47 462.42 287.13 466.29 283.8 465.38 C 280.47 464.47 277.13 458.32 273.8 457.09000000000003 C 270.47 455.86 267.13 458.34000000000003 263.8 458.01 C 260.47 457.68 257.13 456.84000000000003 253.8 455.13 C 250.47 453.42 247.13 448.79 243.8 447.77 C 240.47 446.75 237.13 449.27 233.8 449.0 C 230.47 448.73 227.13 446.18 223.8 446.16 C 220.47 446.13 217.13 449.8 213.8 448.83 C 210.47 447.86 207.13 440.85 203.8 440.32 C 200.47 439.78000000000003 197.13 444.7 193.8 445.63 C 190.47 446.56 187.13 445.77 183.8 445.89 C 180.47 446.02 177.13 446.21000000000004 173.8 446.40000000000003 C 170.47 446.6 167.13 445.68 163.8 447.07 C 160.47 448.47 157.13 453.26 153.8 454.76 C 150.47 456.25 147.13 455.28000000000003 143.8 456.03000000000003 C 140.47 456.78000000000003 137.13 458.16 133.8 459.24 C 130.47 460.31 127.13000000000001 461.31 123.8 462.46000000000004 C 120.47 463.62 117.13 465.19 113.8 466.18 C 110.47 467.16 107.13 467.96000000000004 103.8 468.37 C 100.47 468.79 97.13 468.46000000000004 93.8 468.65000000000003 C 90.47 468.84000000000003 87.13 469.91 83.8 469.52 C 80.47 469.13 75.47 466.84000000000003 73.8 466.31 Z" stroke="none" stroke-width="0" fill="#8c564b" fill-opacity="0.85" /><path d="M 73.8 395.93 C 75.47 395.45 80.47 393.93 83.8 393.04 C 87.13 392.15000000000003 90.47 390.64 93.8 390.59000000000003 C 97.13 390.54 100.47 392.41 103.8 392.74 C 107.13 393.07 110.47 392.65000000000003 113.8 392.59000000000003 C 117.13 392.53000000000003 120.47 392.5 123.8 392.39 C 127.13000000000001 392.27 130.47 391.42 133.8 391.88 C 137.13 392.34000000000003 140.47 394.24 143.8 395.16 C 147.13 396.08 150.47 397.08 153.8 397.40000000000003 C 157.13 397.71000000000004 160.47 396.05 163.8 397.03000000000003 C 167.13 398.02 170.47 401.88 173.8 403.29 C 177.13 404.69 180.47 404.89 183.8 405.48 C 187.13 406.07 190.47 407.37 193.8 406.81 C 197.13 406.25 200.47 401.57 203.8 402.12 C 207.13 402.67 210.47 409.40000000000003 213.8 410.11 C 217.13 410.82 220.47 407.14 223.8 406.39 C 227.13 405.64 230.47 406.89 233.8 405.62 C 237.13 404.34000000000003 240.47 399.34000000000003 243.8 398.75 C 247.13 398.15000000000003 250.47 401.75 253.8 402.02 C 257.13 402.3 260.47 401.56 263.8 400.40000000000003 C 267.13 399.23 270.47 395.03000000000003 273.8 395.02 C 277.13 395.01 280.47 400.14 283.8 400.32 C 287.13 400.49 290.47 396.37 293.8 396.08 C 297.13 395.79 300.47 398.88 303.8 398.59000000000003 C 307.13 398.3 310.47 394.31 313.8 394.34000000000003 C 317.13 394.37 320.47 397.96000000000004 323.8 398.76 C 327.13 399.56 330.47 398.84000000000003 333.8 399.16 C 337.13 399.47 340.47 401.01 343.8 400.65000000000003 C 347.13 400.3 350.47 397.35 353.8 397.05 C 357.13 396.75 360.47 398.62 363.8 398.88 C 367.13 399.14 370.47 399.24 373.8 398.61 C 377.13 397.99 380.47 396.13 383.8 395.13 C 387.13 394.13 390.47 392.91 393.8 392.6 C 397.13 392.3 400.47 394.25 403.8 393.31 C 407.13 392.37 410.47 387.29 413.8 386.94 C 417.13 386.59000000000003 420.47 390.76 423.8 391.21000000000004 C 427.13 391.66 430.47 390.09000000000003 433.8 389.65000000000003 C 437.13 389.2 440.47 388.08 443.8 388.52 C 447.13 388.96000000000004 450.47 391.43 453.8 392.29 C 457.13 393.14 460.47 394.21000000000004 463.8 393.66 C 467.13 393.11 470.47 388.29 473.8 388.97 C 477.13 389.66 480.47 396.33 483.8 397.79 C 487.13 399.25 490.47 397.39 493.8 397.72 C 497.13 398.04 500.47 398.99 503.8 399.73 C 507.13 400.47 510.47 401.56 513.8 402.15000000000003 C 517.13 402.74 520.47 402.86 523.8 403.27 C 527.13 403.69 530.47 405.23 533.8 404.66 C 537.13 404.09000000000003 540.47 401.0 543.8 399.84000000000003 C 547.13 398.68 550.47 397.63 553.8000000000001 397.69 C 557.13 397.76 560.47 399.66 563.8000000000001 400.23 C 567.13 400.8 570.47 401.7 573.8000000000001 401.11 C 577.13 400.53000000000003 582.13 397.46000000000004 583.8000000000001 396.73 L 583.8000000000001 441.02 C 582.13 441.24 577.13 442.53000000000003 573.8000000000001 442.34000000000003 C 570.47 442.15000000000003 567.13 441.23 563.8000000000001 439.89 C 560.47 438.55 557.13 434.79 553.8000000000001 434.29 C 550.47 433.79 547.13 435.81 543.8 436.90000000000003 C 540.47 437.99 537.13 440.5 533.8 440.83 C 530.47 441.15000000000003 527.13 439.03000000000003 523.8 438.82 C 520.47 438.62 517.13 439.19 513.8 439.59000000000003 C 510.47 439.99 507.13 441.17 503.8 441.23 C 500.47 441.29 497.13 439.15000000000003 493.8 439.95 C 490.47 440.75 487.13 446.53000000000003 483.8 446.05 C 480.47 445.57 477.13 437.45 473.8 437.08 C 470.47 436.71000000000004 467.13 442.59000000000003 463.8 443.81 C 460.47 445.03000000000003 457.13 445.27 453.8 444.39 C 450.47 443.5 447.13 439.58 443.8 438.5 C 440.47 437.42 437.13 438.01 433.8 437.89 C 430.47 437.78000000000003 427.13 438.93 423.8 437.83 C 420.47 436.72 417.13 431.82 413.8 431.27 C 410.47 430.72 407.13 434.28000000000003 403.8 434.55 C 400.47 434.82 397.13 433.11 393.8 432.89 C 390.47 432.67 387.13 432.69 383.8 433.22 C 380.47 433.75 377.13 436.12 373.8 436.07 C 370.47 436.02 367.13 433.65000000000003 363.8 432.93 C 360.47 432.2 357.13 430.91 353.8 431.73 C 350.47 432.54 347.13 436.57 343.8 437.84000000000003 C 340.47 439.1 337.13 438.34000000000003 333.8 439.3 C 330.47 440.26 327.13 443.42 323.8 443.58 C 320.47 443.75 317.13 440.06 313.8 440.29 C 310.47 440.51 307.13 444.0 303.8 444.94 C 300.47 445.87 297.13 444.71000000000004 293.8 445.91 C 290.47 447.12 287.13 452.01 283.8 452.17 C 280.47 452.33 277.13 446.98 273.8 446.87 C 270.47 446.76 267.13 451.07 263.8 451.49 C 260.47 451.91 257.13 450.45 253.8 449.39 C 250.47 448.33 247.13 445.51 243.8 445.13 C 240.47 444.75 237.13 447.26 233.8 447.12 C 230.47 446.98 227.13 444.31 223.8 444.28000000000003 C 220.47 444.25 217.13 447.93 213.8 446.96000000000004 C 210.47 445.98 207.13 439.11 203.8 438.44 C 200.47 437.77 197.13 442.64 193.8 442.93 C 190.47 443.21000000000004 187.13 440.56 183.8 440.14 C 180.47 439.72 177.13 441.08 173.8 440.38 C 170.47 439.67 167.13 435.76 163.8 435.91 C 160.47 436.06 157.13 440.82 153.8 441.29 C 150.47 441.75 147.13 438.89 143.8 438.7 C 140.47 438.52 137.13 439.65000000000003 133.8 440.16 C 130.47 440.67 127.13000000000001 441.26 123.8 441.75 C 120.47 442.24 117.13 442.78000000000003 113.8 443.1 C 110.47 443.43 107.13 443.97 103.8 443.7 C 100.47 443.42 97.13 441.67 93.8 441.48 C 90.47 441.28000000000003 87.13 442.59000000000003 83.8 442.54 C 80.47 442.48 75.47 441.39 73.8 441.16 Z" stroke="none" stroke-width="0" fill="#d62728" fill-opacity="0.85" /><path d="M 73.8 264.3 C 75.47 263.65 80.47 262.28000000000003 83.8 260.42 C 87.13 258.55 90.47 254.79 93.8 253.11 C 97.13 251.43 100.47 251.39000000000001 103.8 250.32 C 107.13 249.25 110.47 246.99 113.8 246.69 C 117.13 246.4 120.47 248.74 123.8 248.55 C 127.13000000000001 248.35 130.47 246.01000000000002 133.8 245.51 C 137.13 245.01 140.47 245.9 143.8 245.57 C 147.13 245.24 150.47 243.62 153.8 243.53 C 157.13 243.44 160.47 244.35 163.8 245.05 C 167.13 245.75 170.47 247.24 173.8 247.73000000000002 C 177.13 248.22 180.47 248.25 183.8 247.98000000000002 C 187.13 247.72 190.47 246.46 193.8 246.16 C 197.13 245.85 200.47 245.28 203.8 246.14000000000001 C 207.13 246.99 210.47 250.34 213.8 251.26000000000002 C 217.13 252.18 220.47 251.97 223.8 251.66 C 227.13 251.34 230.47 249.70000000000002 233.8 249.39000000000001 C 237.13 249.08 240.47 249.26000000000002 243.8 249.8 C 247.13 250.35 250.47 252.38 253.8 252.66 C 257.13 252.93 260.47 251.61 263.8 251.45000000000002 C 267.13 251.28 270.47 250.33 273.8 251.66 C 277.13 252.98000000000002 280.47 258.25 283.8 259.4 C 287.13 260.56 290.47 257.66 293.8 258.6 C 297.13 259.55 300.47 264.17 303.8 265.08 C 307.13 265.99 310.47 263.06 313.8 264.06 C 317.13 265.06 320.47 269.25 323.8 271.07 C 327.13 272.9 330.47 273.46 333.8 275.03000000000003 C 337.13 276.59000000000003 340.47 279.48 343.8 280.45 C 347.13 281.42 350.47 280.16 353.8 280.82 C 357.13 281.49 360.47 283.75 363.8 284.44 C 367.13 285.12 370.47 284.65000000000003 373.8 284.90000000000003 C 377.13 285.16 380.47 285.41 383.8 285.96 C 387.13 286.51 390.47 287.63 393.8 288.21 C 397.13 288.79 400.47 289.19 403.8 289.42 C 407.13 289.64 410.47 289.33 413.8 289.56 C 417.13 289.78000000000003 420.47 290.08 423.8 290.77 C 427.13 291.45 430.47 293.49 433.8 293.67 C 437.13 293.86 440.47 292.23 443.8 291.88 C 447.13 291.52 450.47 291.05 453.8 291.54 C 457.13 292.03000000000003 460.47 294.55 463.8 294.83 C 467.13 295.11 470.47 293.2 473.8 293.21 C 477.13 293.22 480.47 294.73 483.8 294.87 C 487.13 295.01 490.47 294.26 493.8 294.06 C 497.13 293.85 500.47 293.0 503.8 293.65000000000003 C 507.13 294.29 510.47 298.02 513.8 297.94 C 517.13 297.86 520.47 293.64 523.8 293.15000000000003 C 527.13 292.66 530.47 295.55 533.8 295.0 C 537.13 294.45 540.47 291.88 543.8 289.87 C 547.13 287.86 550.47 284.14 553.8000000000001 282.95 C 557.13 281.76 560.47 283.7 563.8000000000001 282.74 C 567.13 281.79 570.47 279.42 573.8000000000001 277.23 C 577.13 275.04 582.13 270.86 583.8000000000001 269.58 L 583.8000000000001 396.73 C 582.13 397.46000000000004 577.13 400.53000000000003 573.8000000000001 401.11 C 570.47 401.7 567.13 400.8 563.8000000000001 400.23 C 560.47 399.66 557.13 397.76 553.8000000000001 397.69 C 550.47 397.63 547.13 398.68 543.8 399.84000000000003 C 540.47 401.0 537.13 404.09000000000003 533.8 404.66 C 530.47 405.23 527.13 403.69 523.8 403.27 C 520.47 402.86 517.13 402.74 513.8 402.15000000000003 C 510.47 401.56 507.13 400.47 503.8 399.73 C 500.47 398.99 497.13 398.04 493.8 397.72 C 490.47 397.39 487.13 399.25 483.8 397.79 C 480.47 396.33 477.13 389.66 473.8 388.97 C 470.47 388.29 467.13 393.11 463.8 393.66 C 460.47 394.21000000000004 457.13 393.14 453.8 392.29 C 450.47 391.43 447.13 388.96000000000004 443.8 388.52 C 440.47 388.08 437.13 389.2 433.8 389.65000000000003 C 430.47 390.09000000000003 427.13 391.66 423.8 391.21000000000004 C 420.47 390.76 417.13 386.59000000000003 413.8 386.94 C 410.47 387.29 407.13 392.37 403.8 393.31 C 400.47 394.25 397.13 392.3 393.8 392.6 C 390.47 392.91 387.13 394.13 383.8 395.13 C 380.47 396.13 377.13 397.99 373.8 398.61 C 370.47 399.24 367.13 399.14 363.8 398.88 C 360.47 398.62 357.13 396.75 353.8 397.05 C 350.47 397.35 347.13 400.3 343.8 400.65000000000003 C 340.47 401.01 337.13 399.47 333.8 399.16 C 330.47 398.84000000000003 327.13 399.56 323.8 398.76 C 320.47 397.96000000000004 317.13 394.37 313.8 394.34000000000003 C 310.47 394.31 307.13 398.3 303.8 398.59000000000003 C 300.47 398.88 297.13 395.79 293.8 396.08 C 290.47 396.37 287.13 400.49 283.8 400.32 C 280.47 400.14 277.13 395.01 273.8 395.02 C 270.47 395.03000000000003 267.13 399.23 263.8 400.40000000000003 C 260.47 401.56 257.13 402.3 253.8 402.02 C 250.47 401.75 247.13 398.15000000000003 243.8 398.75 C 240.47 399.34000000000003 237.13 404.34000000000003 233.8 405.62 C 230.47 406.89 227.13 405.64 223.8 406.39 C 220.47 407.14 217.13 410.82 213.8 410.11 C 210.47 409.40000000000003 207.13 402.67 203.8 402.12 C 200.47 401.57 197.13 406.25 193.8 406.81 C 190.47 407.37 187.13 406.07 183.8 405.48 C 180.47 404.89 177.13 404.69 173.8 403.29 C 170.47 401.88 167.13 398.02 163.8 397.03000000000003 C 160.47 396.05 157.13 397.71000000000004 153.8 397.40000000000003 C 150.47 397.08 147.13 396.08 143.8 395.16 C 140.47 394.24 137.13 392.34000000000003 133.8 391.88 C 130.47 391.42 127.13000000000001 392.27 123.8 392.39 C 120.47 392.5 117.13 392.53000000000003 113.8 392.59000000000003 C 110.47 392.65000000000003 107.13 393.07 103.8 392.74 C 100.47 392.41 97.13 390.54 93.8 390.59000000000003 C 90.47 390.64 87.13 392.15000000000003 83.8 393.04 C 80.47 393.93 75.47 395.45 73.8 395.93 Z" stroke="none" stroke-width="0" fill="#1f77b4" fill-opacity="0.85" /><path d="M 73.8 175.85 C 75.47 175.20000000000002 80.47 172.81 83.8 171.98 C 87.13 171.14000000000001 90.47 171.58 93.8 170.84 C 97.13 170.1 100.47 168.15 103.8 167.52 C 107.13 166.9 110.47 167.05 113.8 167.1 C 117.13 167.15 120.47 167.02 123.8 167.83 C 127.13000000000001 168.65 130.47 171.28 133.8 172.0 C 137.13 172.71 140.47 172.42000000000002 143.8 172.1 C 147.13 171.78 150.47 169.43 153.8 170.09 C 157.13 170.75 160.47 175.56 163.8 176.07 C 167.13 176.59 170.47 173.41 173.8 173.17000000000002 C 177.13 172.93 180.47 174.26 183.8 174.65 C 187.13 175.05 190.47 175.12 193.8 175.53 C 197.13 175.94 200.47 177.08 203.8 177.11 C 207.13 177.14000000000001 210.47 175.95000000000002 213.8 175.71 C 217.13 175.47 220.47 175.38 223.8 175.66 C 227.13 175.93 230.47 177.17000000000002 233.8 177.36 C 237.13 177.54 240.47 177.49 243.8 176.77 C 247.13 176.04 250.47 174.18 253.8 173.02 C 257.13 171.87 260.47 169.63 263.8 169.83 C 267.13 170.04 270.47 173.69 273.8 174.27 C 277.13 174.84 280.47 173.38 283.8 173.27 C 287.13 173.15 290.47 172.8 293.8 173.58 C 297.13 174.36 300.47 177.54 303.8 177.95000000000002 C 307.13 178.36 310.47 176.33 313.8 176.03 C 317.13 175.73 320.47 175.55 323.8 176.14000000000001 C 327.13 176.73 330.47 179.3 333.8 179.57 C 337.13 179.84 340.47 177.88 343.8 177.77 C 347.13 177.66 350.47 178.44 353.8 178.92000000000002 C 357.13 179.39000000000001 360.47 180.83 363.8 180.62 C 367.13 180.41 370.47 178.02 373.8 177.65 C 377.13 177.27 380.47 178.67000000000002 383.8 178.37 C 387.13 178.06 390.47 176.15 393.8 175.82 C 397.13 175.5 400.47 176.41 403.8 176.42000000000002 C 407.13 176.42000000000002 410.47 176.39000000000001 413.8 175.84 C 417.13 175.28 420.47 172.96 423.8 173.07 C 427.13 173.19 430.47 176.27 433.8 176.54 C 437.13 176.82 440.47 175.44 443.8 174.73 C 447.13 174.02 450.47 171.81 453.8 172.28 C 457.13 172.75 460.47 176.17000000000002 463.8 177.56 C 467.13 178.94 470.47 180.67000000000002 473.8 180.59 C 477.13 180.51 480.47 176.48 483.8 177.06 C 487.13 177.63 490.47 182.84 493.8 184.04 C 497.13 185.24 500.47 184.14000000000001 503.8 184.25 C 507.13 184.35 510.47 184.43 513.8 184.68 C 517.13 184.93 520.47 185.4 523.8 185.74 C 527.13 186.08 530.47 186.41 533.8 186.73 C 537.13 187.06 540.47 187.97 543.8 187.67000000000002 C 547.13 187.37 550.47 186.04 553.8000000000001 184.94 C 557.13 183.85 560.47 182.26 563.8000000000001 181.09 C 567.13 179.93 570.47 178.68 573.8000000000001 177.97 C 577.13 177.26 582.13 177.02 583.8000000000001 176.83 L 583.8000000000001 269.58 C 582.13 270.86 577.13 275.04 573.8000000000001 277.23 C 570.47 279.42 567.13 281.79 563.8000000000001 282.74 C 560.47 283.7 557.13 281.76 553.8000000000001 282.95 C 550.47 284.14 547.13 287.86 543.8 289.87 C 540.47 291.88 537.13 294.45 533.8 295.0 C 530.47 295.55 527.13 292.66 523.8 293.15000000000003 C 520.47 293.64 517.13 297.86 513.8 297.94 C 510.47 298.02 507.13 294.29 503.8 293.65000000000003 C 500.47 293.0 497.13 293.85 493.8 294.06 C 490.47 294.26 487.13 295.01 483.8 294.87 C 480.47 294.73 477.13 293.22 473.8 293.21 C 470.47 293.2 467.13 295.11 463.8 294.83 C 460.47 294.55 457.13 292.03000000000003 453.8 291.54 C 450.47 291.05 447.13 291.52 443.8 291.88 C 440.47 292.23 437.13 293.86 433.8 293.67 C 430.47 293.49 427.13 291.45 423.8 290.77 C 420.47 290.08 417.13 289.78000000000003 413.8 289.56 C 410.47 289.33 407.13 289.64 403.8 289.42 C 400.47 289.19 397.13 288.79 393.8 288.21 C 390.47 287.63 387.13 286.51 383.8 285.96 C 380.47 285.41 377.13 285.16 373.8 284.90000000000003 C 370.47 284.65000000000003 367.13 285.12 363.8 284.44 C 360.47 283.75 357.13 281.49 353.8 280.82 C 350.47 280.16 347.13 281.42 343.8 280.45 C 340.47 279.48 337.13 276.59000000000003 333.8 275.03000000000003 C 330.47 273.46 327.13 272.9 323.8 271.07 C 320.47 269.25 317.13 265.06 313.8 264.06 C 310.47 263.06 307.13 265.99 303.8 265.08 C 300.47 264.17 297.13 259.55 293.8 258.6 C 290.47 257.66 287.13 260.56 283.8 259.4 C 280.47 258.25 277.13 252.98000000000002 273.8 251.66 C 270.47 250.33 267.13 251.28 263.8 251.45000000000002 C 260.47 251.61 257.13 252.93 253.8 252.66 C 250.47 252.38 247.13 250.35 243.8 249.8 C 240.47 249.26000000000002 237.13 249.08 233.8 249.39000000000001 C 230.47 249.70000000000002 227.13 251.34 223.8 251.66 C 220.47 251.97 217.13 252.18 213.8 251.26000000000002 C 210.47 250.34 207.13 246.99 203.8 246.14000000000001 C 200.47 245.28 197.13 245.85 193.8 246.16 C 190.47 246.46 187.13 247.72 183.8 247.98000000000002 C 180.47 248.25 177.13 248.22 173.8 247.73000000000002 C 170.47 247.24 167.13 245.75 163.8 245.05 C 160.47 244.35 157.13 243.44 153.8 243.53 C 150.47 243.62 147.13 245.24 143.8 245.57 C 140.47 245.9 137.13 245.01 133.8 245.51 C 130.47 246.01000000000002 127.13000000000001 248.35 123.8 248.55 C 120.47 248.74 117.13 246.4 113.8 246.69 C 110.47 246.99 107.13 249.25 103.8 250.32 C 100.47 251.39000000000001 97.13 251.43 93.8 253.11 C 90.47 254.79 87.13 258.55 83.8 260.42 C 80.47 262.28000000000003 75.47 263.65 73.8 264.3 Z" stroke="none" stroke-width="0" fill="#ff7f0e" fill-opacity="0.85" /><path d="M 73.8 99.82000000000001 C 75.47 99.58 80.47 98.75 83.8 98.41 C 87.13 98.07000000000001 90.47 98.04 93.8 97.78 C 97.13 97.53 100.47 96.92 103.8 96.89 C 107.13 96.85000000000001 110.47 96.35000000000001 113.8 97.59 C 117.13 98.83 120.47 102.88 123.8 104.33 C 127.13000000000001 105.79 130.47 105.22 133.8 106.32000000000001 C 137.13 107.42 140.47 109.88 143.8 110.94 C 147.13 112.01 150.47 111.41 153.8 112.73 C 157.13 114.05 160.47 118.06 163.8 118.86 C 167.13 119.66 170.47 117.44 173.8 117.54 C 177.13 117.64 180.47 119.14 183.8 119.47 C 187.13 119.8 190.47 118.8 193.8 119.53 C 197.13 120.26 200.47 124.01 203.8 123.85000000000001 C 207.13 123.69 210.47 119.60000000000001 213.8 118.57000000000001 C 217.13 117.54 220.47 117.84 223.8 117.66 C 227.13 117.47 230.47 117.67 233.8 117.45 C 237.13 117.22 240.47 117.78 243.8 116.32000000000001 C 247.13 114.86 250.47 110.42 253.8 108.7 C 257.13 106.97 260.47 106.14 263.8 105.95 C 267.13 105.76 270.47 108.32000000000001 273.8 107.56 C 277.13 106.8 280.47 102.33 283.8 101.39 C 287.13 100.45 290.47 102.01 293.8 101.92 C 297.13 101.83 300.47 100.96000000000001 303.8 100.86 C 307.13 100.76 310.47 101.43 313.8 101.31 C 317.13 101.2 320.47 99.94 323.8 100.19 C 327.13 100.43 330.47 102.35000000000001 333.8 102.8 C 337.13 103.25 340.47 102.07000000000001 343.8 102.87 C 347.13 103.67 350.47 106.61 353.8 107.61 C 357.13 108.61 360.47 108.99000000000001 363.8 108.86 C 367.13 108.73 370.47 106.41 373.8 106.83 C 377.13 107.26 380.47 110.04 383.8 111.43 C 387.13 112.81 390.47 114.69 393.8 115.14 C 397.13 115.60000000000001 400.47 113.33 403.8 114.16 C 407.13 115.0 410.47 119.3 413.8 120.14 C 417.13 120.99000000000001 420.47 118.89 423.8 119.23 C 427.13 119.56 430.47 121.48 433.8 122.15 C 437.13 122.83 440.47 123.55 443.8 123.25 C 447.13 122.96000000000001 450.47 120.75 453.8 120.38 C 457.13 120.01 460.47 120.16 463.8 121.06 C 467.13 121.95 470.47 126.18 473.8 125.74000000000001 C 477.13 125.3 480.47 118.46000000000001 483.8 118.42 C 487.13 118.39 490.47 124.9 493.8 125.53 C 497.13 126.16 500.47 122.63 503.8 122.2 C 507.13 121.78 510.47 123.27 513.8 122.96000000000001 C 517.13 122.66 520.47 121.4 523.8 120.36 C 527.13 119.31 530.47 117.41 533.8 116.7 C 537.13 115.98 540.47 116.8 543.8 116.07000000000001 C 547.13 115.35000000000001 550.47 113.53 553.8000000000001 112.37 C 557.13 111.22 560.47 110.97 563.8000000000001 109.15 C 567.13 107.32000000000001 570.47 102.89 573.8000000000001 101.41 C 577.13 99.94 582.13 100.48 583.8000000000001 100.29 L 583.8000000000001 176.83 C 582.13 177.02 577.13 177.26 573.8000000000001 177.97 C 570.47 178.68 567.13 179.93 563.8000000000001 181.09 C 560.47 182.26 557.13 183.85 553.8000000000001 184.94 C 550.47 186.04 547.13 187.37 543.8 187.67000000000002 C 540.47 187.97 537.13 187.06 533.8 186.73 C 530.47 186.41 527.13 186.08 523.8 185.74 C 520.47 185.4 517.13 184.93 513.8 184.68 C 510.47 184.43 507.13 184.35 503.8 184.25 C 500.47 184.14000000000001 497.13 185.24 493.8 184.04 C 490.47 182.84 487.13 177.63 483.8 177.06 C 480.47 176.48 477.13 180.51 473.8 180.59 C 470.47 180.67000000000002 467.13 178.94 463.8 177.56 C 460.47 176.17000000000002 457.13 172.75 453.8 172.28 C 450.47 171.81 447.13 174.02 443.8 174.73 C 440.47 175.44 437.13 176.82 433.8 176.54 C 430.47 176.27 427.13 173.19 423.8 173.07 C 420.47 172.96 417.13 175.28 413.8 175.84 C 410.47 176.39000000000001 407.13 176.42000000000002 403.8 176.42000000000002 C 400.47 176.41 397.13 175.5 393.8 175.82 C 390.47 176.15 387.13 178.06 383.8 178.37 C 380.47 178.67000000000002 377.13 177.27 373.8 177.65 C 370.47 178.02 367.13 180.41 363.8 180.62 C 360.47 180.83 357.13 179.39000000000001 353.8 178.92000000000002 C 350.47 178.44 347.13 177.66 343.8 177.77 C 340.47 177.88 337.13 179.84 333.8 179.57 C 330.47 179.3 327.13 176.73 323.8 176.14000000000001 C 320.47 175.55 317.13 175.73 313.8 176.03 C 310.47 176.33 307.13 178.36 303.8 177.95000000000002 C 300.47 177.54 297.13 174.36 293.8 173.58 C 290.47 172.8 287.13 173.15 283.8 173.27 C 280.47 173.38 277.13 174.84 273.8 174.27 C 270.47 173.69 267.13 170.04 263.8 169.83 C 260.47 169.63 257.13 171.87 253.8 173.02 C 250.47 174.18 247.13 176.04 243.8 176.77 C 240.47 177.49 237.13 177.54 233.8 177.36 C 230.47 177.17000000000002 227.13 175.93 223.8 175.66 C 220.47 175.38 217.13 175.47 213.8 175.71 C 210.47 175.95000000000002 207.13 177.14000000000001 203.8 177.11 C 200.47 177.08 197.13 175.94 193.8 175.53 C 190.47 175.12 187.13 175.05 183.8 174.65 C 180.47 174.26 177.13 172.93 173.8 173.17000000000002 C 170.47 173.41 167.13 176.59 163.8 176.07 C 160.47 175.56 157.13 170.75 153.8 170.09 C 150.47 169.43 147.13 171.78 143.8 172.1 C 140.47 172.42000000000002 137.13 172.71 133.8 172.0 C 130.47 171.28 127.13000000000001 168.65 123.8 167.83 C 120.47 167.02 117.13 167.15 113.8 167.1 C 110.47 167.05 107.13 166.9 103.8 167.52 C 100.47 168.15 97.13 170.1 93.8 170.84 C 90.47 171.58 87.13 171.14000000000001 83.8 171.98 C 80.47 172.81 75.47 175.20000000000002 73.8 175.85 Z" stroke="none" stroke-width="0" fill="#2ca02c" fill-opacity="0.85" /><path d="M 73.8 71.69 C 75.47 71.16 80.47 68.87 83.8 68.48 C 87.13 68.09 90.47 69.16 93.8 69.35000000000001 C 97.13 69.54 100.47 69.21000000000001 103.8 69.63 C 107.13 70.04 110.47 70.84 113.8 71.82000000000001 C 117.13 72.81 120.47 74.38 123.8 75.54 C 127.13000000000001 76.69 130.47 77.69 133.8 78.76 C 137.13 79.84 140.47 81.22 143.8 81.97 C 147.13 82.72 150.47 81.75 153.8 83.24 C 157.13 84.74 160.47 89.53 163.8 90.93 C 167.13 92.32000000000001 170.47 91.4 173.8 91.60000000000001 C 177.13 91.79 180.47 91.98 183.8 92.11 C 187.13 92.23 190.47 91.44 193.8 92.37 C 197.13 93.3 200.47 98.22 203.8 97.68 C 207.13 97.15 210.47 90.14 213.8 89.17 C 217.13 88.2 220.47 91.87 223.8 91.84 C 227.13 91.82000000000001 230.47 89.27 233.8 89.0 C 237.13 88.73 240.47 91.25 243.8 90.23 C 247.13 89.21000000000001 250.47 84.58 253.8 82.87 C 257.13 81.16 260.47 80.32000000000001 263.8 79.99 C 267.13 79.66 270.47 82.14 273.8 80.91 C 277.13 79.68 280.47 73.53 283.8 72.62 C 287.13 71.71000000000001 290.47 75.58 293.8 75.47 C 297.13 75.36 300.47 71.93 303.8 71.97 C 307.13 72.01 310.47 75.97 313.8 75.72 C 317.13 75.47 320.47 70.93 323.8 70.48 C 327.13 70.03 330.47 72.26 333.8 73.02 C 337.13 73.78 340.47 74.04 343.8 75.04 C 347.13 76.04 350.47 78.24 353.8 79.02 C 357.13 79.8 360.47 79.89 363.8 79.71000000000001 C 367.13 79.53 370.47 77.60000000000001 373.8 77.94 C 377.13 78.29 380.47 80.37 383.8 81.78 C 387.13 83.2 390.47 85.59 393.8 86.43 C 397.13 87.27 400.47 85.62 403.8 86.82000000000001 C 407.13 88.03 410.47 93.23 413.8 93.66 C 417.13 94.08 420.47 89.64 423.8 89.39 C 427.13 89.14 430.47 91.28 433.8 92.16 C 437.13 93.04 440.47 94.85000000000001 443.8 94.67 C 447.13 94.49 450.47 91.48 453.8 91.09 C 457.13 90.69 460.47 90.99 463.8 92.31 C 467.13 93.64 470.47 99.42 473.8 99.05 C 477.13 98.67 480.47 90.60000000000001 483.8 90.08 C 487.13 89.55 490.47 95.12 493.8 95.88 C 497.13 96.65 500.47 95.14 503.8 94.68 C 507.13 94.22 510.47 93.60000000000001 513.8 93.13 C 517.13 92.66 520.47 92.79 523.8 91.84 C 527.13 90.89 530.47 88.06 533.8 87.41 C 537.13 86.76 540.47 88.04 543.8 87.93 C 547.13 87.83 550.47 88.19 553.8000000000001 86.77 C 557.13 85.34 560.47 81.43 563.8000000000001 79.4 C 567.13 77.38 570.47 75.81 573.8000000000001 74.63 C 577.13 73.44 582.13 72.69 583.8000000000001 72.31 L 583.8000000000001 100.29 C 582.13 100.48 577.13 99.94 573.8000000000001 101.41 C 570.47 102.89 567.13 107.32000000000001 563.8000000000001 109.15 C 560.47 110.97 557.13 111.22 553.8000000000001 112.37 C 550.47 113.53 547.13 115.35000000000001 543.8 116.07000000000001 C 540.47 116.8 537.13 115.98 533.8 116.7 C 530.47 117.41 527.13 119.31 523.8 120.36 C 520.47 121.4 517.13 122.66 513.8 122.96000000000001 C 510.47 123.27 507.13 121.78 503.8 122.2 C 500.47 122.63 497.13 126.16 493.8 125.53 C 490.47 124.9 487.13 118.39 483.8 118.42 C 480.47 118.46000000000001 477.13 125.3 473.8 125.74000000000001 C 470.47 126.18 467.13 121.95 463.8 121.06 C 460.47 120.16 457.13 120.01 453.8 120.38 C 450.47 120.75 447.13 122.96000000000001 443.8 123.25 C 440.47 123.55 437.13 122.83 433.8 122.15 C 430.47 121.48 427.13 119.56 423.8 119.23 C 420.47 118.89 417.13 120.99000000000001 413.8 120.14 C 410.47 119.3 407.13 115.0 403.8 114.16 C 400.47 113.33 397.13 115.60000000000001 393.8 115.14 C 390.47 114.69 387.13 112.81 383.8 111.43 C 380.47 110.04 377.13 107.26 373.8 106.83 C 370.47 106.41 367.13 108.73 363.8 108.86 C 360.47 108.99000000000001 357.13 108.61 353.8 107.61 C 350.47 106.61 347.13 103.67 343.8 102.87 C 340.47 102.07000000000001 337.13 103.25 333.8 102.8 C 330.47 102.35000000000001 327.13 100.43 323.8 100.19 C 320.47 99.94 317.13 101.2 313.8 101.31 C 310.47 101.43 307.13 100.76 303.8 100.86 C 300.47 100.96000000000001 297.13 101.83 293.8 101.92 C 290.47 102.01 287.13 100.45 283.8 101.39 C 280.47 102.33 277.13 106.8 273.8 107.56 C 270.47 108.32000000000001 267.13 105.76 263.8 105.95 C 260.47 106.14 257.13 106.97 253.8 108.7 C 250.47 110.42 247.13 114.86 243.8 116.32000000000001 C 240.47 117.78 237.13 117.22 233.8 117.45 C 230.47 117.67 227.13 117.47 223.8 117.66 C 220.47 117.84 217.13 117.54 213.8 118.57000000000001 C 210.47 119.60000000000001 207.13 123.69 203.8 123.85000000000001 C 200.47 124.01 197.13 120.26 193.8 119.53 C 190.47 118.8 187.13 119.8 183.8 119.47 C 180.47 119.14 177.13 117.64 173.8 117.54 C 170.47 117.44 167.13 119.66 163.8 118.86 C 160.47 118.06 157.13 114.05 153.8 112.73 C 150.47 111.41 147.13 112.01 143.8 110.94 C 140.47 109.88 137.13 107.42 133.8 106.32000000000001 C 130.47 105.22 127.13000000000001 105.79 123.8 104.33 C 120.47 102.88 117.13 98.83 113.8 97.59 C 110.47 96.35000000000001 107.13 96.85000000000001 103.8 96.89 C 100.47 96.92 97.13 97.53 93.8 97.78 C 90.47 98.04 87.13 98.07000000000001 83.8 98.41 C 80.47 98.75 75.47 99.58 73.8 99.82000000000001 Z" stroke="none" stroke-width="0" fill="#9467bd" fill-opacity="0.85" /><text x="353.8" y="449.55" font-size="12" text-anchor="middle" fill="#ffffff">Verrucomicrobia</text><text x="453.8" y="422.54" font-size="12" text-anchor="middle" fill="#ffffff">Actinobacteria</text><text x="193.8" y="330.68" font-size="12" text-anchor="middle" fill="#ffffff">Firmicutes</text><text x="453.8" y="236.11" font-size="12" text-anchor="middle" fill="#333333">Bacteroidetes</text><text x="303.8" y="143.61" font-size="12" text-anchor="middle" fill="#ffffff">Proteobacteria</text><text x="433.8" y="111.36" font-size="12" text-anchor="middle" fill="#ffffff">Fusobacteria</text></g></svg>