<svg xmlns="http://www.w3.org/2000/svg" width="681.8000000000001" height="545" font-family="DejaVu Sans, Liberation Sans, Arial, sans-serif" fill="black"><rect width="100%" height="100%" fill="white" /><defs><clipPath id="kuva-clip-0"><rect x="63.800000000000004" y="44" width="600" height="450"/></clipPath></defs><line x1="163.8" y1="44" x2="163.8" y2="494" stroke="#cccccc" stroke-width="1" /><line x1="263.8" y1="44" x2="263.8" y2="494" stroke="#cccccc" stroke-width="1" /><line x1="363.8" y1="44" x2="363.8" y2="494" stroke="#cccccc" stroke-width="1" /><line x1="463.8" y1="44" x2="463.8" y2="494" stroke="#cccccc" stroke-width="1" /><line x1="563.8000000000001" y1="44" x2="563.8000000000001" y2="494" stroke="#cccccc" stroke-width="1" /><line x1="663.8000000000001" y1="44" x2="663.8000000000001" y2="494" stroke="#cccccc" stroke-width="1" /><line x1="63.800000000000004" y1="456.5" x2="663.8000000000001" y2="456.5" stroke="#cccccc" stroke-width="1" /><line x1="63.800000000000004" y1="362.75" x2="663.8000000000001" y2="362.75" stroke="#cccccc" stroke-width="1" /><line x1="63.800000000000004" y1="269" x2="663.8000000000001" y2="269" stroke="#cccccc" stroke-width="1" /><line x1="63.800000000000004" y1="175.25" x2="663.8000000000001" y2="175.25" stroke="#cccccc" stroke-width="1" /><line x1="63.800000000000004" y1="81.5" x2="663.8000000000001" y2="81.5" stroke="#cccccc" stroke-width="1" /><line x1="63.800000000000004" y1="494" x2="663.8000000000001" y2="494" stroke="#000000" stroke-width="1" /><line x1="63.800000000000004" y1="44" x2="63.800000000000004" y2="494" stroke="#000000" stroke-width="1" /><line x1="63.800000000000004" y1="494" x2="63.800000000000004" y2="499" stroke="#000000" stroke-width="1" /><text x="63.800000000000004" y="511" font-size="12" text-anchor="middle">0</text><line x1="163.8" y1="494" x2="163.8" y2="499" stroke="#000000" stroke-width="1" /><text x="163.8" y="511" font-size="12" text-anchor="middle">10</text><line x1="263.8" y1="494" x2="263.8" y2="499" stroke="#000000" stroke-width="1" /><text x="263.8" y="511" font-size="12" text-anchor="middle">20</text><line x1="363.8" y1="494" x2="363.8" y2="499" stroke="#000000" stroke-width="1" /><text x="363.8" y="511" font-size="12" text-anchor="middle">30</text><line x1="463.8" y1="494" x2="463.8" y2="499" stroke="#000000" stroke-width="1" /><text x="463.8" y="511" font-size="12" text-anchor="middle">40</text><line x1="563.8000000000001" y1="494" x2="563.8000000000001" y2="499" stroke="#000000" stroke-width="1" /><text x="563.8000000000001" y="511" font-size="12" text-anchor="middle">50</text><line x1="663.8000000000001" y1="494" x2="663.8000000000001" y2="499" stroke="#000000" stroke-width="1" /><text x="663.8000000000001" y="511" font-size="12" text-anchor="middle">60</text><line x1="58.800000000000004" y1="456.5" x2="63.800000000000004" y2="456.5" stroke="#000000" stroke-width="1" /><text x="55.800000000000004" y="460.7" font-size="12" text-anchor="end">-500</text><line x1="58.800000000000004" y1="362.75" x2="63.800000000000004" y2="362.75" stroke="#000000" stroke-width="1" /><text x="55.800000000000004" y="366.95" font-size="12" text-anchor="end">-250</text><line x1="58.800000000000004" y1="269" x2="63.800000000000004" y2="269" stroke="#000000" stroke-width="1" /><text x="55.800000000000004" y="273.2" font-size="12" text-anchor="end">0</text><line x1="58.800000000000004" y1="175.25" x2="63.800000000000004" y2="175.25" stroke="#000000" stroke-width="1" /><text x="55.800000000000004" y="179.45000000000002" font-size="12" text-anchor="end">250</text><line x1="58.800000000000004" y1="81.5" x2="63.800000000000004" y2="81.5" stroke="#000000" stroke-width="1" /><text x="55.800000000000004" y="85.7" font-size="12" text-anchor="end">500</text><text x="363.8" y="538" font-size="14" text-anchor="middle">Week</text><text x="15" y="272.5" font-size="14" text-anchor="middle" transform="rotate(-90,15,272.5)">Relative abundance</text><text x="340.90000000000003" y="27.400000000000002" font-size="18" text-anchor="middle">Gut microbiome — wiggle baseline</text><g clip-path="url(#kuva-clip-0)"><path d="M 73.8 443.97 C 75.47 444.46000000000004 80.47 446.27 83.8 446.87 C 87.13 447.48 90.47 447.06 93.8 447.61 C 97.13 448.17 100.47 449.78000000000003 103.8 450.21000000000004 C 107.13 450.64 110.47 450.61 113.8 450.2 C 117.13 449.79 120.47 448.44 123.8 447.74 C 127.13000000000001 447.04 130.47 446.69 133.8 446.0 C 137.13 445.31 140.47 443.63 143.8 443.6 C 147.13 443.57 150.47 446.53000000000003 153.8 445.82 C 157.13 445.1 160.47 439.87 163.8 439.31 C 167.13 438.75 170.47 442.12 173.8 442.47 C 177.13 442.82 180.47 441.21000000000004 183.8 441.43 C 187.13 441.64 190.47 444.04 193.8 443.75 C 197.13 443.47 200.47 439.35 203.8 439.74 C 207.13 440.13 210.47 445.34000000000003 213.8 446.12 C 217.13 446.90000000000003 220.47 444.28000000000003 223.8 444.44 C 227.13 444.6 230.47 446.74 233.8 447.09000000000003 C 237.13 447.45 240.47 445.91 243.8 446.56 C 247.13 447.2 250.47 449.71000000000004 253.8 450.96000000000004 C 257.13 452.2 260.47 454.18 263.8 454.01 C 267.13 453.84000000000003 270.47 449.99 273.8 449.92 C 277.13 449.86 280.47 453.81 283.8 453.63 C 287.13 453.45 290.47 450.09000000000003 293.8 448.86 C 297.13 447.63 300.47 447.21000000000004 303.8 446.27 C 307.13 445.33 310.47 443.53000000000003 313.8 443.25 C 317.13 442.96000000000004 320.47 445.22 323.8 444.58 C 327.13 443.95 330.47 440.62 333.8 439.43 C 337.13 438.23 340.47 438.7 343.8 437.43 C 347.13 436.16 350.47 432.78000000000003 353.8 431.81 C 357.13 430.85 360.47 431.11 363.8 431.64 C 367.13 432.18 370.47 434.93 373.8 435.02 C 377.13 435.11 380.47 432.71000000000004 383.8 432.17 C 387.13 431.62 390.47 431.63 393.8 431.76 C 397.13 431.89 400.47 433.21000000000004 403.8 432.96000000000004 C 407.13 432.71000000000004 410.47 429.82 413.8 430.27 C 417.13 430.71000000000004 420.47 434.91 423.8 435.63 C 427.13 436.35 430.47 434.58 433.8 434.58 C 437.13 434.58 440.47 434.56 443.8 435.62 C 447.13 436.68 450.47 440.39 453.8 440.94 C 457.13 441.49 460.47 440.26 463.8 438.93 C 467.13 437.6 470.47 432.66 473.8 432.96000000000004 C 477.13 433.25 480.47 440.59000000000003 483.8 440.7 C 487.13 440.8 490.47 434.55 493.8 433.59000000000003 C 497.13 432.62 500.47 435.1 503.8 434.90000000000003 C 507.13 434.69 510.47 432.77 513.8 432.36 C 517.13 431.95 520.47 432.16 523.8 432.45 C 527.13 432.74 530.47 434.15000000000003 533.8 434.09000000000003 C 537.13 434.03000000000003 540.47 432.43 543.8 432.1 C 547.13 431.76 550.47 431.16 553.8000000000001 432.07 C 557.13 432.98 560.47 435.92 563.8000000000001 437.55 C 567.13 439.18 570.47 440.99 573.8000000000001 441.86 C 577.13 442.73 582.13 442.63 583.8000000000001 442.78000000000003 L 583.8000000000001 467.45 C 582.13 466.69 577.13 464.76 573.8000000000001 462.90000000000003 C 570.47 461.03000000000003 567.13 458.57 563.8000000000001 456.26 C 560.47 453.95 557.13 450.85 553.8000000000001 449.02 C 550.47 447.19 547.13 446.13 543.8 445.27 C 540.47 444.40000000000003 537.13 444.77 533.8 443.85 C 530.47 442.94 527.13 440.82 523.8 439.79 C 520.47 438.75 517.13 438.11 513.8 437.65000000000003 C 510.47 437.18 507.13 437.31 503.8 436.99 C 500.47 436.68 497.13 434.82 493.8 435.75 C 490.47 436.68 487.13 442.73 483.8 442.57 C 480.47 442.42 477.13 435.13 473.8 434.83 C 470.47 434.54 467.13 439.36 463.8 440.8 C 460.47 442.24 457.13 443.52 453.8 443.46000000000004 C 450.47 443.41 447.13 440.61 443.8 440.45 C 440.47 440.29 437.13 441.53000000000003 433.8 442.53000000000003 C 430.47 443.52 427.13 446.28000000000003 423.8 446.41 C 420.47 446.55 417.13 442.81 413.8 443.34000000000003 C 410.47 443.87 407.13 448.41 403.8 449.59000000000003 C 400.47 450.77 397.13 449.5 393.8 450.43 C 390.47 451.36 387.13 453.74 383.8 455.17 C 380.47 456.6 377.13 458.7 373.8 459.01 C 370.47 459.32 367.13 457.0 363.8 457.01 C 360.47 457.02 357.13 458.14 353.8 459.07 C 350.47 459.99 347.13 461.55 343.8 462.56 C 340.47 463.56 337.13 464.11 333.8 465.1 C 330.47 466.1 327.13 468.5 323.8 468.52 C 320.47 468.54 317.13 465.43 313.8 465.24 C 310.47 465.05 307.13 467.32 303.8 467.36 C 300.47 467.40000000000003 297.13 465.57 293.8 465.48 C 290.47 465.39 287.13 467.73 283.8 466.84000000000003 C 280.47 465.95 277.13 461.2 273.8 460.14 C 270.47 459.09000000000003 267.13 461.1 263.8 460.53000000000003 C 260.47 459.95 257.13 458.58 253.8 456.7 C 250.47 454.81 247.13 450.48 243.8 449.19 C 240.47 447.91 237.13 449.45 233.8 448.97 C 230.47 448.49 227.13 446.48 223.8 446.31 C 220.47 446.15000000000003 217.13 448.78000000000003 213.8 447.99 C 210.47 447.21000000000004 207.13 441.87 203.8 441.62 C 200.47 441.36 197.13 445.53000000000003 193.8 446.46000000000004 C 190.47 447.38 187.13 446.84000000000003 183.8 447.18 C 180.47 447.52 177.13 447.94 173.8 448.49 C 170.47 449.04 167.13 448.68 163.8 450.48 C 160.47 452.27 157.13 457.54 153.8 459.28000000000003 C 150.47 461.03000000000003 147.13 459.96000000000004 143.8 460.92 C 140.47 461.89 137.13 463.82 133.8 465.08 C 130.47 466.33 127.13000000000001 467.08 123.8 468.45 C 120.47 469.81 117.13 472.2 113.8 473.28000000000003 C 110.47 474.35 107.13 474.63 103.8 474.89 C 100.47 475.14 97.13 474.96000000000004 93.8 474.79 C 90.47 474.62 87.13 474.81 83.8 473.86 C 80.47 472.92 75.47 469.91 73.8 469.12 Z" stroke="none" stroke-width="0" fill="#8c564b" fill-opacity="0.85" /><path d="M 73.8 398.74 C 75.47 398.51 80.47 397.71000000000004 83.8 397.37 C 87.13 397.04 90.47 396.41 93.8 396.73 C 97.13 397.04 100.47 398.76 103.8 399.25 C 107.13 399.74 110.47 399.83 113.8 399.68 C 117.13 399.54 120.47 398.7 123.8 398.37 C 127.13000000000001 398.04 130.47 397.44 133.8 397.72 C 137.13 398.0 140.47 399.35 143.8 400.05 C 147.13 400.75 150.47 401.86 153.8 401.93 C 157.13 401.99 160.47 399.86 163.8 400.44 C 167.13 401.01 170.47 404.32 173.8 405.38 C 177.13 406.43 180.47 406.39 183.8 406.77 C 187.13 407.14 190.47 408.19 193.8 407.64 C 197.13 407.08 200.47 403.14 203.8 403.41 C 207.13 403.69 210.47 408.75 213.8 409.27 C 217.13 409.79 220.47 407.16 223.8 406.55 C 227.13 405.93 230.47 406.65000000000003 233.8 405.59000000000003 C 237.13 404.53000000000003 240.47 400.5 243.8 400.17 C 247.13 399.84000000000003 250.47 403.13 253.8 403.59000000000003 C 257.13 404.05 260.47 403.83 263.8 402.91 C 267.13 401.99 270.47 398.26 273.8 398.07 C 277.13 397.88 280.47 401.61 283.8 401.77 C 287.13 401.93 290.47 399.34000000000003 293.8 399.03000000000003 C 297.13 398.72 300.47 400.21000000000004 303.8 399.92 C 307.13 399.63 310.47 397.33 313.8 397.3 C 317.13 397.27 320.47 399.43 323.8 399.76 C 327.13 400.09000000000003 330.47 399.2 333.8 399.29 C 337.13 399.37 340.47 400.61 343.8 400.25 C 347.13 399.89 350.47 397.58 353.8 397.14 C 357.13 396.69 360.47 397.52 363.8 397.59000000000003 C 367.13 397.67 370.47 398.15000000000003 373.8 397.57 C 377.13 396.98 380.47 395.1 383.8 394.08 C 387.13 393.06 390.47 391.86 393.8 391.47 C 397.13 391.08 400.47 392.64 403.8 391.72 C 407.13 390.8 410.47 386.39 413.8 385.94 C 417.13 385.49 420.47 388.95 423.8 389.01 C 427.13 389.08 430.47 386.90000000000003 433.8 386.34000000000003 C 437.13 385.78000000000003 440.47 385.23 443.8 385.64 C 447.13 386.06 450.47 388.32 453.8 388.84000000000003 C 457.13 389.36 460.47 389.44 463.8 388.78000000000003 C 467.13 388.11 470.47 384.24 473.8 384.85 C 477.13 385.46000000000004 480.47 391.36 483.8 392.44 C 487.13 393.52 490.47 391.19 493.8 391.35 C 497.13 391.51 500.47 392.81 503.8 393.40000000000003 C 507.13 394.0 510.47 394.34000000000003 513.8 394.92 C 517.13 395.51 520.47 396.40000000000003 523.8 396.90000000000003 C 527.13 397.40000000000003 530.47 398.23 533.8 397.92 C 537.13 397.61 540.47 395.45 543.8 395.04 C 547.13 394.64 550.47 395.0 553.8000000000001 395.48 C 557.13 395.95 560.47 397.03000000000003 563.8000000000001 397.89 C 567.13 398.75 570.47 400.54 573.8000000000001 400.64 C 577.13 400.74 582.13 398.84000000000003 583.8000000000001 398.48 L 583.8000000000001 442.78000000000003 C 582.13 442.63 577.13 442.73 573.8000000000001 441.86 C 570.47 440.99 567.13 439.18 563.8000000000001 437.55 C 560.47 435.92 557.13 432.98 553.8000000000001 432.07 C 550.47 431.16 547.13 431.76 543.8 432.1 C 540.47 432.43 537.13 434.03000000000003 533.8 434.09000000000003 C 530.47 434.15000000000003 527.13 432.74 523.8 432.45 C 520.47 432.16 517.13 431.95 513.8 432.36 C 510.47 432.77 507.13 434.69 503.8 434.90000000000003 C 500.47 435.1 497.13 432.62 493.8 433.59000000000003 C 490.47 434.55 487.13 440.8 483.8 440.7 C 480.47 440.59000000000003 477.13 433.25 473.8 432.96000000000004 C 470.47 432.66 467.13 437.6 463.8 438.93 C 460.47 440.26 457.13 441.49 453.8 440.94 C 450.47 440.39 447.13 436.68 443.8 435.62 C 440.47 434.56 437.13 434.58 433.8 434.58 C 430.47 434.58 427.13 436.35 423.8 435.63 C 420.47 434.91 417.13 430.71000000000004 413.8 430.27 C 410.47 429.82 407.13 432.71000000000004 403.8 432.96000000000004 C 400.47 433.21000000000004 397.13 431.89 393.8 431.76 C 390.47 431.63 387.13 431.62 383.8 432.17 C 380.47 432.71000000000004 377.13 435.11 373.8 435.02 C 370.47 434.93 367.13 432.18 363.8 431.64 C 360.47 431.11 357.13 430.85 353.8 431.81 C 350.47 432.78000000000003 347.13 436.16 343.8 437.43 C 340.47 438.7 337.13 438.23 333.8 439.43 C 330.47 440.62 327.13 443.95 323.8 444.58 C 320.47 445.22 317.13 442.96000000000004 313.8 443.25 C 310.47 443.53000000000003 307.13 445.33 303.8 446.27 C 300.47 447.21000000000004 297.13 447.63 293.8 448.86 C 290.47 450.09000000000003 287.13 453.45 283.8 453.63 C 280.47 453.81 277.13 449.86 273.8 449.92 C 270.47 449.99 267.13 453.84000000000003 263.8 454.01 C 260.47 454.18 257.13 452.2 253.8 450.96000000000004 C 250.47 449.71000000000004 247.13 447.2 243.8 446.56 C 240.47 445.91 237.13 447.45 233.8 447.09000000000003 C 230.47 446.74 227.13 444.6 223.8 444.44 C 220.47 444.28000000000003 217.13 446.90000000000003 213.8 446.12 C 210.47 445.34000000000003 207.13 440.13 203.8 439.74 C 200.47 439.35 197.13 443.47 193.8 443.75 C 190.47 444.04 187.13 441.64 183.8 441.43 C 180.47 441.21000000000004 177.13 442.82 173.8 442.47 C 170.47 442.12 167.13 438.75 163.8 439.31 C 160.47 439.87 157.13 445.1 153.8 445.82 C 150.47 446.53000000000003 147.13 443.57 143.8 443.6 C 140.47 443.63 137.13 445.31 133.8 446.0 C 130.47 446.69 127.13000000000001 447.04 123.8 447.74 C 120.47 448.44 117.13 449.79 113.8 450.2 C 110.47 450.61 107.13 450.64 103.8 450.21000000000004 C 100.47 449.78000000000003 97.13 448.17 93.8 447.61 C 90.47 447.06 87.13 447.48 83.8 446.87 C 80.47 446.27 75.47 444.46000000000004 73.8 443.97 Z" stroke="none" stroke-width="0" fill="#d62728" fill-opacity="0.85" /><path d="M 73.8 267.11 C 75.47 266.72 80.47 266.07 83.8 264.75 C 87.13 263.44 90.47 260.56 93.8 259.24 C 97.13 257.92 100.47 257.74 103.8 256.83 C 107.13 255.92000000000002 110.47 254.17000000000002 113.8 253.79 C 117.13 253.41 120.47 254.94 123.8 254.53 C 127.13000000000001 254.12 130.47 252.03 133.8 251.35 C 137.13 250.67000000000002 140.47 251.02 143.8 250.47 C 147.13 249.92000000000002 150.47 248.39000000000001 153.8 248.06 C 157.13 247.72 160.47 248.16 163.8 248.45000000000002 C 167.13 248.74 170.47 249.69 173.8 249.82 C 177.13 249.96 180.47 249.74 183.8 249.27 C 187.13 248.8 190.47 247.29 193.8 246.98000000000002 C 197.13 246.68 200.47 246.86 203.8 247.43 C 207.13 248.01000000000002 210.47 249.70000000000002 213.8 250.43 C 217.13 251.16 220.47 251.99 223.8 251.81 C 227.13 251.64000000000001 230.47 249.46 233.8 249.36 C 237.13 249.27 240.47 250.42000000000002 243.8 251.23000000000002 C 247.13 252.04 250.47 253.76000000000002 253.8 254.22 C 257.13 254.68 260.47 253.88 263.8 253.96 C 267.13 254.04 270.47 253.56 273.8 254.71 C 277.13 255.86 280.47 259.72 283.8 260.86 C 287.13 262.0 290.47 260.62 293.8 261.55 C 297.13 262.47 300.47 265.5 303.8 266.41 C 307.13 267.32 310.47 266.07 313.8 267.02 C 317.13 267.96 320.47 270.72 323.8 272.07 C 327.13 273.43 330.47 273.82 333.8 275.15000000000003 C 337.13 276.48 340.47 279.08 343.8 280.04 C 347.13 281.0 350.47 280.39 353.8 280.91 C 357.13 281.43 360.47 282.66 363.8 283.15000000000003 C 367.13 283.64 370.47 283.57 373.8 283.86 C 377.13 284.15000000000003 380.47 284.37 383.8 284.91 C 387.13 285.44 390.47 286.59000000000003 393.8 287.08 C 397.13 287.56 400.47 287.58 403.8 287.83 C 407.13 288.08 410.47 288.43 413.8 288.56 C 417.13 288.68 420.47 288.27 423.8 288.57 C 427.13 288.87 430.47 290.29 433.8 290.36 C 437.13 290.44 440.47 289.38 443.8 289.0 C 447.13 288.62 450.47 287.93 453.8 288.09000000000003 C 457.13 288.25 460.47 289.78000000000003 463.8 289.95 C 467.13 290.11 470.47 289.16 473.8 289.09000000000003 C 477.13 289.02 480.47 289.75 483.8 289.52 C 487.13 289.28000000000003 490.47 288.06 493.8 287.69 C 497.13 287.32 500.47 286.81 503.8 287.32 C 507.13 287.82 510.47 290.8 513.8 290.71 C 517.13 290.62 520.47 287.19 523.8 286.78000000000003 C 527.13 286.37 530.47 288.54 533.8 288.26 C 537.13 287.97 540.47 286.32 543.8 285.07 C 547.13 283.81 550.47 281.51 553.8000000000001 280.73 C 557.13 279.96 560.47 281.07 563.8000000000001 280.40000000000003 C 567.13 279.74 570.47 278.26 573.8000000000001 276.75 C 577.13 275.24 582.13 272.24 583.8000000000001 271.34000000000003 L 583.8000000000001 398.48 C 582.13 398.84000000000003 577.13 400.74 573.8000000000001 400.64 C 570.47 400.54 567.13 398.75 563.8000000000001 397.89 C 560.47 397.03000000000003 557.13 395.95 553.8000000000001 395.48 C 550.47 395.0 547.13 394.64 543.8 395.04 C 540.47 395.45 537.13 397.61 533.8 397.92 C 530.47 398.23 527.13 397.40000000000003 523.8 396.90000000000003 C 520.47 396.40000000000003 517.13 395.51 513.8 394.92 C 510.47 394.34000000000003 507.13 394.0 503.8 393.40000000000003 C 500.47 392.81 497.13 391.51 493.8 391.35 C 490.47 391.19 487.13 393.52 483.8 392.44 C 480.47 391.36 477.13 385.46000000000004 473.8 384.85 C 470.47 384.24 467.13 388.11 463.8 388.78000000000003 C 460.47 389.44 457.13 389.36 453.8 388.84000000000003 C 450.47 388.32 447.13 386.06 443.8 385.64 C 440.47 385.23 437.13 385.78000000000003 433.8 386.34000000000003 C 430.47 386.90000000000003 427.13 389.08 423.8 389.01 C 420.47 388.95 417.13 385.49 413.8 385.94 C 410.47 386.39 407.13 390.8 403.8 391.72 C 400.47 392.64 397.13 391.08 393.8 391.47 C 390.47 391.86 387.13 393.06 383.8 394.08 C 380.47 395.1 377.13 396.98 373.8 397.57 C 370.47 398.15000000000003 367.13 397.67 363.8 397.59000000000003 C 360.47 397.52 357.13 396.69 353.8 397.14 C 350.47 397.58 347.13 399.89 343.8 400.25 C 340.47 400.61 337.13 399.37 333.8 399.29 C 330.47 399.2 327.13 400.09000000000003 323.8 399.76 C 320.47 399.43 317.13 397.27 313.8 397.3 C 310.47 397.33 307.13 399.63 303.8 399.92 C 300.47 400.21000000000004 297.13 398.72 293.8 399.03000000000003 C 290.47 399.34000000000003 287.13 401.93 283.8 401.77 C 280.47 401.61 277.13 397.88 273.8 398.07 C 270.47 398.26 267.13 401.99 263.8 402.91 C 260.47 403.83 257.13 404.05 253.8 403.59000000000003 C 250.47 403.13 247.13 399.84000000000003 243.8 400.17 C 240.47 400.5 237.13 404.53000000000003 233.8 405.59000000000003 C 230.47 406.65000000000003 227.13 405.93 223.8 406.55 C 220.47 407.16 217.13 409.79 213.8 409.27 C 210.47 408.75 207.13 403.69 203.8 403.41 C 200.47 403.14 197.13 407.08 193.8 407.64 C 190.47 408.19 187.13 407.14 183.8 406.77 C 180.47 406.39 177.13 406.43 173.8 405.38 C 170.47 404.32 167.13 401.01 163.8 400.44 C 160.47 399.86 157.13 401.99 153.8 401.93 C 150.47 401.86 147.13 400.75 143.8 400.05 C 140.47 399.35 137.13 398.0 133.8 397.72 C 130.47 397.44 127.13000000000001 398.04 123.8 398.37 C 120.47 398.7 117.13 399.54 113.8 399.68 C 110.47 399.83 107.13 399.74 103.8 399.25 C 100.47 398.76 97.13 397.04 93.8 396.73 C 90.47 396.41 87.13 397.04 83.8 397.37 C 80.47 397.71000000000004 75.47 398.51 73.8 398.74 Z" stroke="none" stroke-width="0" fill="#1f77b4" fill-opacity="0.85" /><path d="M 73.8 178.66 C 75.47 178.27 80.47 176.59 83.8 176.31 C 87.13 176.03 90.47 177.35 93.8 176.97 C 97.13 176.59 100.47 174.5 103.8 174.03 C 107.13 173.57 110.47 174.23 113.8 174.19 C 117.13 174.16 120.47 173.21 123.8 173.82 C 127.13000000000001 174.42000000000002 130.47 177.3 133.8 177.83 C 137.13 178.36 140.47 177.53 143.8 176.99 C 147.13 176.46 150.47 174.21 153.8 174.62 C 157.13 175.03 160.47 179.37 163.8 179.48 C 167.13 179.58 170.47 175.85 173.8 175.26 C 177.13 174.67000000000002 180.47 175.76 183.8 175.94 C 187.13 176.12 190.47 175.94 193.8 176.36 C 197.13 176.77 200.47 178.66 203.8 178.41 C 207.13 178.16 210.47 175.3 213.8 174.87 C 217.13 174.44 220.47 175.41 223.8 175.82 C 227.13 176.23 230.47 176.93 233.8 177.33 C 237.13 177.72 240.47 178.65 243.8 178.19 C 247.13 177.74 250.47 175.56 253.8 174.59 C 257.13 173.61 260.47 171.9 263.8 172.35 C 267.13 172.81 270.47 176.92000000000002 273.8 177.32 C 277.13 177.72 280.47 174.85 283.8 174.72 C 287.13 174.59 290.47 175.77 293.8 176.53 C 297.13 177.29 300.47 178.87 303.8 179.28 C 307.13 179.69 310.47 179.35 313.8 178.99 C 317.13 178.63 320.47 177.02 323.8 177.14000000000001 C 327.13 177.26 330.47 179.66 333.8 179.70000000000002 C 337.13 179.73 340.47 177.48 343.8 177.36 C 347.13 177.25 350.47 178.68 353.8 179.01 C 357.13 179.34 360.47 179.74 363.8 179.34 C 367.13 178.94 370.47 176.94 373.8 176.6 C 377.13 176.26 380.47 177.63 383.8 177.31 C 387.13 177.0 390.47 175.1 393.8 174.69 C 397.13 174.28 400.47 174.8 403.8 174.83 C 407.13 174.85 410.47 175.49 413.8 174.84 C 417.13 174.18 420.47 171.15 423.8 170.88 C 427.13 170.61 430.47 173.07 433.8 173.23 C 437.13 173.39000000000001 440.47 172.59 443.8 171.85 C 447.13 171.12 450.47 168.70000000000002 453.8 168.83 C 457.13 168.97 460.47 171.4 463.8 172.68 C 467.13 173.95000000000002 470.47 176.63 473.8 176.47 C 477.13 176.31 480.47 171.51 483.8 171.71 C 487.13 171.91 490.47 176.64000000000001 493.8 177.67000000000002 C 497.13 178.71 500.47 177.95000000000002 503.8 177.92000000000002 C 507.13 177.88 510.47 177.21 513.8 177.46 C 517.13 177.70000000000002 520.47 178.95000000000002 523.8 179.37 C 527.13 179.79 530.47 179.41 533.8 179.99 C 537.13 180.58 540.47 182.41 543.8 182.86 C 547.13 183.32 550.47 183.41 553.8000000000001 182.73 C 557.13 182.04 560.47 179.63 563.8000000000001 178.76 C 567.13 177.88 570.47 177.53 573.8000000000001 177.5 C 577.13 177.47 582.13 178.4 583.8000000000001 178.58 L 583.8000000000001 271.34000000000003 C 582.13 272.24 577.13 275.24 573.8000000000001 276.75 C 570.47 278.26 567.13 279.74 563.8000000000001 280.40000000000003 C 560.47 281.07 557.13 279.96 553.8000000000001 280.73 C 550.47 281.51 547.13 283.81 543.8 285.07 C 540.47 286.32 537.13 287.97 533.8 288.26 C 530.47 288.54 527.13 286.37 523.8 286.78000000000003 C 520.47 287.19 517.13 290.62 513.8 290.71 C 510.47 290.8 507.13 287.82 503.8 287.32 C 500.47 286.81 497.13 287.32 493.8 287.69 C 490.47 288.06 487.13 289.28000000000003 483.8 289.52 C 480.47 289.75 477.13 289.02 473.8 289.09000000000003 C 470.47 289.16 467.13 290.11 463.8 289.95 C 460.47 289.78000000000003 457.13 288.25 453.8 288.09000000000003 C 450.47 287.93 447.13 288.62 443.8 289.0 C 440.47 289.38 437.13 290.44 433.8 290.36 C 430.47 290.29 427.13 288.87 423.8 288.57 C 420.47 288.27 417.13 288.68 413.8 288.56 C 410.47 288.43 407.13 288.08 403.8 287.83 C 400.47 287.58 397.13 287.56 393.8 287.08 C 390.47 286.59000000000003 387.13 285.44 383.8 284.91 C 380.47 284.37 377.13 284.15000000000003 373.8 283.86 C 370.47 283.57 367.13 283.64 363.8 283.15000000000003 C 360.47 282.66 357.13 281.43 353.8 280.91 C 350.47 280.39 347.13 281.0 343.8 280.04 C 340.47 279.08 337.13 276.48 333.8 275.15000000000003 C 330.47 273.82 327.13 273.43 323.8 272.07 C 320.47 270.72 317.13 267.96 313.8 267.02 C 310.47 266.07 307.13 267.32 303.8 266.41 C 300.47 265.5 297.13 262.47 293.8 261.55 C 290.47 260.62 287.13 262.0 283.8 260.86 C 280.47 259.72 277.13 255.86 273.8 254.71 C 270.47 253.56 267.13 254.04 263.8 253.96 C 260.47 253.88 257.13 254.68 253.8 254.22 C 250.47 253.76000000000002 247.13 252.04 243.8 251.23000000000002 C 240.47 250.42000000000002 237.13 249.27 233.8 249.36 C 230.47 249.46 227.13 251.64000000000001 223.8 251.81 C 220.47 251.99 217.13 251.16 213.8 250.43 C 210.47 249.70000000000002 207.13 248.01000000000002 203.8 247.43 C 200.47 246.86 197.13 246.68 193.8 246.98000000000002 C 190.47 247.29 187.13 248.8 183.8 249.27 C 180.47 249.74 177.13 249.96 173.8 249.82 C 170.47 249.69 167.13 248.74 163.8 248.45000000000002 C 160.47 248.16 157.13 247.72 153.8 248.06 C 150.47 248.39000000000001 147.13 249.92000000000002 143.8 250.47 C 140.47 251.02 137.13 250.67000000000002 133.8 251.35 C 130.47 252.03 127.13000000000001 254.12 123.8 254.53 C 120.47 254.94 117.13 253.41 113.8 253.79 C 110.47 254.17000000000002 107.13 255.92000000000002 103.8 256.83 C 100.47 257.74 97.13 257.92 93.8 259.24 C 90.47 260.56 87.13 263.44 83.8 264.75 C 80.47 266.07 75.47 266.72 73.8 267.11 Z" stroke="none" stroke-width="0" fill="#ff7f0e" fill-opacity="0.85" /><path d="M 73.8 102.63 C 75.47 102.65 80.47 102.53 83.8 102.75 C 87.13 102.96000000000001 90.47 103.81 93.8 103.92 C 97.13 104.03 100.47 103.27 103.8 103.4 C 107.13 103.52 110.47 103.53 113.8 104.69 C 117.13 105.84 120.47 109.07000000000001 123.8 110.32000000000001 C 127.13000000000001 111.56 130.47 111.24000000000001 133.8 112.16 C 137.13 113.08 140.47 114.99000000000001 143.8 115.84 C 147.13 116.69 150.47 116.19 153.8 117.26 C 157.13 118.33 160.47 121.87 163.8 122.26 C 167.13 122.66 170.47 119.88 173.8 119.63 C 177.13 119.38 180.47 120.64 183.8 120.76 C 187.13 120.88 190.47 119.63 193.8 120.36 C 197.13 121.09 200.47 125.58 203.8 125.15 C 207.13 124.71000000000001 210.47 118.95 213.8 117.73 C 217.13 116.51 220.47 117.87 223.8 117.81 C 227.13 117.76 230.47 117.43 233.8 117.42 C 237.13 117.41 240.47 118.94 243.8 117.75 C 247.13 116.55 250.47 111.81 253.8 110.26 C 257.13 108.71000000000001 260.47 108.41 263.8 108.47 C 267.13 108.53 270.47 111.55 273.8 110.61 C 277.13 109.67 280.47 103.8 283.8 102.85000000000001 C 287.13 101.89 290.47 104.98 293.8 104.87 C 297.13 104.76 300.47 102.29 303.8 102.19 C 307.13 102.09 310.47 104.44 313.8 104.27 C 317.13 104.10000000000001 320.47 101.41 323.8 101.19 C 327.13 100.96000000000001 330.47 102.71000000000001 333.8 102.93 C 337.13 103.14 340.47 101.67 343.8 102.47 C 347.13 103.26 350.47 106.85000000000001 353.8 107.7 C 357.13 108.55 360.47 107.9 363.8 107.58 C 367.13 107.26 370.47 105.32000000000001 373.8 105.79 C 377.13 106.25 380.47 109.0 383.8 110.38 C 387.13 111.75 390.47 113.64 393.8 114.01 C 397.13 114.38 400.47 111.72 403.8 112.57000000000001 C 407.13 113.43 410.47 118.4 413.8 119.14 C 417.13 119.88 420.47 117.08 423.8 117.03 C 427.13 116.98 430.47 118.29 433.8 118.84 C 437.13 119.4 440.47 120.69 443.8 120.38 C 447.13 120.06 450.47 117.63 453.8 116.93 C 457.13 116.23 460.47 115.39 463.8 116.17 C 467.13 116.95 470.47 122.13 473.8 121.62 C 477.13 121.10000000000001 480.47 113.48 483.8 113.07000000000001 C 487.13 112.66 490.47 118.7 493.8 119.17 C 497.13 119.63 500.47 116.44 503.8 115.87 C 507.13 115.3 510.47 116.05 513.8 115.74000000000001 C 517.13 115.42 520.47 114.95 523.8 113.98 C 527.13 113.02 530.47 110.41 533.8 109.96000000000001 C 537.13 109.51 540.47 111.24000000000001 543.8 111.27 C 547.13 111.31 550.47 110.9 553.8000000000001 110.16 C 557.13 109.41 560.47 108.35000000000001 563.8000000000001 106.81 C 567.13 105.27 570.47 101.73 573.8000000000001 100.94 C 577.13 100.14 582.13 101.86 583.8000000000001 102.05 L 583.8000000000001 178.58 C 582.13 178.4 577.13 177.47 573.8000000000001 177.5 C 570.47 177.53 567.13 177.88 563.8000000000001 178.76 C 560.47 179.63 557.13 182.04 553.8000000000001 182.73 C 550.47 183.41 547.13 183.32 543.8 182.86 C 540.47 182.41 537.13 180.58 533.8 179.99 C 530.47 179.41 527.13 179.79 523.8 179.37 C 520.47 178.95000000000002 517.13 177.70000000000002 513.8 177.46 C 510.47 177.21 507.13 177.88 503.8 177.92000000000002 C 500.47 177.95000000000002 497.13 178.71 493.8 177.67000000000002 C 490.47 176.64000000000001 487.13 171.91 483.8 171.71 C 480.47 171.51 477.13 176.31 473.8 176.47 C 470.47 176.63 467.13 173.95000000000002 463.8 172.68 C 460.47 171.4 457.13 168.97 453.8 168.83 C 450.47 168.70000000000002 447.13 171.12 443.8 171.85 C 440.47 172.59 437.13 173.39000000000001 433.8 173.23 C 430.47 173.07 427.13 170.61 423.8 170.88 C 420.47 171.15 417.13 174.18 413.8 174.84 C 410.47 175.49 407.13 174.85 403.8 174.83 C 400.47 174.8 397.13 174.28 393.8 174.69 C 390.47 175.1 387.13 177.0 383.8 177.31 C 380.47 177.63 377.13 176.26 373.8 176.6 C 370.47 176.94 367.13 178.94 363.8 179.34 C 360.47 179.74 357.13 179.34 353.8 179.01 C 350.47 178.68 347.13 177.25 343.8 177.36 C 340.47 177.48 337.13 179.73 333.8 179.70000000000002 C 330.47 179.66 327.13 177.26 323.8 177.14000000000001 C 320.47 177.02 317.13 178.63 313.8 178.99 C 310.47 179.35 307.13 179.69 303.8 179.28 C 300.47 178.87 297.13 177.29 293.8 176.53 C 290.47 175.77 287.13 174.59 283.8 174.72 C 280.47 174.85 277.13 177.72 273.8 177.32 C 270.47 176.92000000000002 267.13 172.81 263.8 172.35 C 260.47 171.9 257.13 173.61 253.8 174.59 C 250.47 175.56 247.13 177.74 243.8 178.19 C 240.47 178.65 237.13 177.72 233.8 177.33 C 230.47 176.93 227.13 176.23 223.8 175.82 C 220.47 175.41 217.13 174.44 213.8 174.87 C 210.47 175.3 207.13 178.16 203.8 178.41 C 200.47 178.66 197.13 176.77 193.8 176.36 C 190.47 175.94 187.13 176.12 183.8 175.94 C 180.47 175.76 177.13 174.67000000000002 173.8 175.26 C 170.47 175.85 167.13 179.58 163.8 179.48 C 160.47 179.37 157.13 175.03 153.8 174.62 C 150.47 174.21 147.13 176.46 143.8 176.99 C 140.47 177.53 137.13 178.36 133.8 177.83 C 130.47 177.3 127.13000000000001 174.42000000000002 123.8 173.82 C 120.47 173.21 117.13 174.16 113.8 174.19 C 110.47 174.23 107.13 173.57 103.8 174.03 C 100.47 174.5 97.13 176.59 93.8 176.97 C 90.47 177.35 87.13 176.03 83.8 176.31 C 80.47 176.59 75.47 178.27 73.8 178.66 Z" stroke="none" stroke-width="0" fill="#2ca02c" fill-opacity="0.85" /><path d="M 73.8 74.51 C 75.47 74.22 80.47 72.65 83.8 72.82000000000001 C 87.13 72.98 90.47 74.93 93.8 75.48 C 97.13 76.04 100.47 75.56 103.8 76.14 C 107.13 76.71000000000001 110.47 78.02 113.8 78.92 C 117.13 79.81 120.47 80.57000000000001 123.8 81.52 C 127.13000000000001 82.47 130.47 83.71000000000001 133.8 84.60000000000001 C 137.13 85.49 140.47 86.34 143.8 86.87 C 147.13 87.39 150.47 86.53 153.8 87.77 C 157.13 89.02 160.47 93.34 163.8 94.33 C 167.13 95.31 170.47 93.84 173.8 93.69 C 177.13 93.53 180.47 93.47 183.8 93.39 C 187.13 93.31 190.47 92.27 193.8 93.2 C 197.13 94.13 200.47 99.79 203.8 98.98 C 207.13 98.17 210.47 89.49 213.8 88.33 C 217.13 87.17 220.47 91.89 223.8 92.0 C 227.13 92.11 230.47 89.03 233.8 88.98 C 237.13 88.92 240.47 92.41 243.8 91.65 C 247.13 90.9 250.47 85.96000000000001 253.8 84.43 C 257.13 82.91 260.47 82.59 263.8 82.51 C 267.13 82.43 270.47 85.37 273.8 83.96000000000001 C 277.13 82.56 280.47 75.0 283.8 74.08 C 287.13 73.15 290.47 78.55 293.8 78.42 C 297.13 78.29 300.47 73.26 303.8 73.3 C 307.13 73.35000000000001 310.47 78.98 313.8 78.68 C 317.13 78.37 320.47 72.4 323.8 71.48 C 327.13 70.56 330.47 72.63 333.8 73.15 C 337.13 73.68 340.47 73.64 343.8 74.63 C 347.13 75.62 350.47 78.47 353.8 79.11 C 357.13 79.74 360.47 78.79 363.8 78.42 C 367.13 78.06 370.47 76.51 373.8 76.9 C 377.13 77.28 380.47 79.33 383.8 80.73 C 387.13 82.13 390.47 84.55 393.8 85.3 C 397.13 86.05 400.47 84.01 403.8 85.23 C 407.13 86.46000000000001 410.47 92.33 413.8 92.65 C 417.13 92.98 420.47 87.83 423.8 87.2 C 427.13 86.56 430.47 88.09 433.8 88.85000000000001 C 437.13 89.62 440.47 92.0 443.8 91.79 C 447.13 91.59 450.47 88.37 453.8 87.64 C 457.13 86.91 460.47 86.22 463.8 87.43 C 467.13 88.65 470.47 95.38 473.8 94.93 C 477.13 94.47 480.47 85.63 483.8 84.73 C 487.13 83.83 490.47 88.92 493.8 89.52 C 497.13 90.12 500.47 88.95 503.8 88.35000000000001 C 507.13 87.74 510.47 86.38 513.8 85.9 C 517.13 85.42 520.47 86.34 523.8 85.47 C 527.13 84.60000000000001 530.47 81.06 533.8 80.67 C 537.13 80.28 540.47 82.48 543.8 83.13 C 547.13 83.78 550.47 85.56 553.8000000000001 84.55 C 557.13 83.54 560.47 78.8 563.8000000000001 77.06 C 567.13 75.33 570.47 74.65 573.8000000000001 74.15 C 577.13 73.65 582.13 74.08 583.8000000000001 74.06 L 583.8000000000001 102.05 C 582.13 101.86 577.13 100.14 573.8000000000001 100.94 C 570.47 101.73 567.13 105.27 563.8000000000001 106.81 C 560.47 108.35000000000001 557.13 109.41 553.8000000000001 110.16 C 550.47 110.9 547.13 111.31 543.8 111.27 C 540.47 111.24000000000001 537.13 109.51 533.8 109.96000000000001 C 530.47 110.41 527.13 113.02 523.8 113.98 C 520.47 114.95 517.13 115.42 513.8 115.74000000000001 C 510.47 116.05 507.13 115.3 503.8 115.87 C 500.47 116.44 497.13 119.63 493.8 119.17 C 490.47 118.7 487.13 112.66 483.8 113.07000000000001 C 480.47 113.48 477.13 121.10000000000001 473.8 121.62 C 470.47 122.13 467.13 116.95 463.8 116.17 C 460.47 115.39 457.13 116.23 453.8 116.93 C 450.47 117.63 447.13 120.06 443.8 120.38 C 440.47 120.69 437.13 119.4 433.8 118.84 C 430.47 118.29 427.13 116.98 423.8 117.03 C 420.47 117.08 417.13 119.88 413.8 119.14 C 410.47 118.4 407.13 113.43 403.8 112.57000000000001 C 400.47 111.72 397.13 114.38 393.8 114.01 C 390.47 113.64 387.13 111.75 383.8 110.38 C 380.47 109.0 377.13 106.25 373.8 105.79 C 370.47 105.32000000000001 367.13 107.26 363.8 107.58 C 360.47 107.9 357.13 108.55 353.8 107.7 C 350.47 106.85000000000001 347.13 103.26 343.8 102.47 C 340.47 101.67 337.13 103.14 333.8 102.93 C 330.47 102.71000000000001 327.13 100.96000000000001 323.8 101.19 C 320.47 101.41 317.13 104.10000000000001 313.8 104.27 C 310.47 104.44 307.13 102.09 303.8 102.19 C 300.47 102.29 297.13 104.76 293.8 104.87 C 290.47 104.98 287.13 101.89 283.8 102.85000000000001 C 280.47 103.8 277.13 109.67 273.8 110.61 C 270.47 111.55 267.13 108.53 263.8 108.47 C 260.47 108.41 257.13 108.71000000000001 253.8 110.26 C 250.47 111.81 247.13 116.55 243.8 117.75 C 240.47 118.94 237.13 117.41 233.8 117.42 C 230.47 117.43 227.13 117.76 223.8 117.81 C 220.47 117.87 217.13 116.51 213.8 117.73 C 210.47 118.95 207.13 124.71000000000001 203.8 125.15 C 200.47 125.58 197.13 121.09 193.8 120.36 C 190.47 119.63 187.13 120.88 183.8 120.76 C 180.47 120.64 177.13 119.38 173.8 119.63 C 170.47 119.88 167.13 122.66 163.8 122.26 C 160.47 121.87 157.13 118.33 153.8 117.26 C 150.47 116.19 147.13 116.69 143.8 115.84 C 140.47 114.99000000000001 137.13 113.08 133.8 112.16 C 130.47 111.24000000000001 127.13000000000001 111.56 123.8 110.32000000000001 C 120.47 109.07000000000001 117.13 105.84 113.8 104.69 C 110.47 103.53 107.13 103.52 103.8 103.4 C 100.47 103.27 97.13 104.03 93.8 103.92 C 90.47 103.81 87.13 102.96000000000001 83.8 102.75 C 80.47 102.53 75.47 102.65 73.8 102.63 Z" stroke="none" stroke-width="0" fill="#9467bd" fill-opacity="0.85" /><text x="353.8" y="449.64" font-size="12" text-anchor="middle" fill="#ffffff">Verrucomicrobia</text><text x="453.8" y="419.09000000000003" font-size="12" text-anchor="middle" fill="#ffffff">Actinobacteria</text><text x="193.8" y="331.51" font-size="12" text-anchor="middle" fill="#ffffff">Firmicutes</text><text x="453.8" y="232.66" font-size="12" text-anchor="middle" fill="#333333">Bacteroidetes</text><text x="303.8" y="144.94" font-size="12" text-anchor="middle" fill="#ffffff">Proteobacteria</text><text x="433.8" y="108.05" font-size="12" text-anchor="middle" fill="#ffffff">Fusobacteria</text></g></svg>