<svg xmlns="http://www.w3.org/2000/svg" width="681.8000000000001" height="545" font-family="DejaVu Sans, Liberation Sans, Arial, sans-serif" fill="black"><rect width="100%" height="100%" fill="white" /><defs><clipPath id="kuva-clip-2"><rect x="63.800000000000004" y="44" width="600" height="450"/></clipPath></defs><line x1="163.8" y1="44" x2="163.8" y2="494" stroke="#cccccc" stroke-width="1" /><line x1="263.8" y1="44" x2="263.8" y2="494" stroke="#cccccc" stroke-width="1" /><line x1="363.8" y1="44" x2="363.8" y2="494" stroke="#cccccc" stroke-width="1" /><line x1="463.8" y1="44" x2="463.8" y2="494" stroke="#cccccc" stroke-width="1" /><line x1="563.8000000000001" y1="44" x2="563.8000000000001" y2="494" stroke="#cccccc" stroke-width="1" /><line x1="663.8000000000001" y1="44" x2="663.8000000000001" y2="494" stroke="#cccccc" stroke-width="1" /><line x1="63.800000000000004" y1="400.25" x2="663.8000000000001" y2="400.25" stroke="#cccccc" stroke-width="1" /><line x1="63.800000000000004" y1="306.5" x2="663.8000000000001" y2="306.5" stroke="#cccccc" stroke-width="1" /><line x1="63.800000000000004" y1="212.75" x2="663.8000000000001" y2="212.75" stroke="#cccccc" stroke-width="1" /><line x1="63.800000000000004" y1="119" x2="663.8000000000001" y2="119" stroke="#cccccc" stroke-width="1" /><line x1="63.800000000000004" y1="494" x2="663.8000000000001" y2="494" stroke="#000000" stroke-width="1" /><line x1="63.800000000000004" y1="44" x2="63.800000000000004" y2="494" stroke="#000000" stroke-width="1" /><line x1="63.800000000000004" y1="494" x2="63.800000000000004" y2="499" stroke="#000000" stroke-width="1" /><text x="63.800000000000004" y="511" font-size="12" text-anchor="middle">0</text><line x1="163.8" y1="494" x2="163.8" y2="499" stroke="#000000" stroke-width="1" /><text x="163.8" y="511" font-size="12" text-anchor="middle">10</text><line x1="263.8" y1="494" x2="263.8" y2="499" stroke="#000000" stroke-width="1" /><text x="263.8" y="511" font-size="12" text-anchor="middle">20</text><line x1="363.8" y1="494" x2="363.8" y2="499" stroke="#000000" stroke-width="1" /><text x="363.8" y="511" font-size="12" text-anchor="middle">30</text><line x1="463.8" y1="494" x2="463.8" y2="499" stroke="#000000" stroke-width="1" /><text x="463.8" y="511" font-size="12" text-anchor="middle">40</text><line x1="563.8000000000001" y1="494" x2="563.8000000000001" y2="499" stroke="#000000" stroke-width="1" /><text x="563.8000000000001" y="511" font-size="12" text-anchor="middle">50</text><line x1="663.8000000000001" y1="494" x2="663.8000000000001" y2="499" stroke="#000000" stroke-width="1" /><text x="663.8000000000001" y="511" font-size="12" text-anchor="middle">60</text><line x1="58.800000000000004" y1="494" x2="63.800000000000004" y2="494" stroke="#000000" stroke-width="1" /><text x="55.800000000000004" y="498.2" font-size="12" text-anchor="end">0</text><line x1="58.800000000000004" y1="400.25" x2="63.800000000000004" y2="400.25" stroke="#000000" stroke-width="1" /><text x="55.800000000000004" y="404.45" font-size="12" text-anchor="end">250</text><line x1="58.800000000000004" y1="306.5" x2="63.800000000000004" y2="306.5" stroke="#000000" stroke-width="1" /><text x="55.800000000000004" y="310.7" font-size="12" text-anchor="end">500</text><line x1="58.800000000000004" y1="212.75" x2="63.800000000000004" y2="212.75" stroke="#000000" stroke-width="1" /><text x="55.800000000000004" y="216.95000000000002" font-size="12" text-anchor="end">750</text><line x1="58.800000000000004" y1="119" x2="63.800000000000004" y2="119" stroke="#000000" stroke-width="1" /><text x="55.800000000000004" y="123.2" font-size="12" text-anchor="end">1000</text><text x="363.8" y="538" font-size="14" text-anchor="middle">Week</text><text x="15" y="272.5" font-size="14" text-anchor="middle" transform="rotate(-90,15,272.5)">Abundance</text><text x="340.90000000000003" y="27.400000000000002" font-size="18" text-anchor="middle">Gut microbiome — zero baseline</text><g clip-path="url(#kuva-clip-2)"><path d="M 73.8 468.86 C 75.47 468.55 80.47 467.35 83.8 467.01 C 87.13 466.67 90.47 466.44 93.8 466.82 C 97.13 467.21000000000004 100.47 468.64 103.8 469.32 C 107.13 470.0 110.47 470.26 113.8 470.92 C 117.13 471.58 120.47 472.62 123.8 473.29 C 127.13000000000001 473.96000000000004 130.47 474.36 133.8 474.93 C 137.13 475.49 140.47 475.74 143.8 476.67 C 147.13 477.61 150.47 479.51 153.8 480.53000000000003 C 157.13 481.56 160.47 481.59000000000003 163.8 482.84000000000003 C 167.13 484.08 170.47 487.07 173.8 487.98 C 177.13 488.88 180.47 487.69 183.8 488.25 C 187.13 488.8 190.47 490.65000000000003 193.8 491.3 C 197.13 491.95 200.47 491.99 203.8 492.13 C 207.13 492.26 210.47 492.13 213.8 492.13 C 217.13 492.13 220.47 492.13 223.8 492.13 C 227.13 492.13 230.47 492.25 233.8 492.13 C 237.13 492.0 240.47 492.01 243.8 491.36 C 247.13 490.72 250.47 488.91 253.8 488.26 C 257.13 487.61 260.47 488.23 263.8 487.48 C 267.13 486.73 270.47 484.89 273.8 483.78000000000003 C 277.13 482.66 280.47 481.86 283.8 480.79 C 287.13 479.73 290.47 478.69 293.8 477.38 C 297.13 476.07 300.47 473.8 303.8 472.91 C 307.13 472.01 310.47 472.48 313.8 472.01 C 317.13 471.53000000000003 320.47 470.67 323.8 470.06 C 327.13 469.45 330.47 468.52 333.8 468.32 C 337.13 468.13 340.47 469.14 343.8 468.87 C 347.13 468.61 350.47 466.78000000000003 353.8 466.74 C 357.13 466.71000000000004 360.47 468.09000000000003 363.8 468.64 C 367.13 469.18 370.47 469.62 373.8 470.01 C 377.13 470.41 380.47 470.11 383.8 471.0 C 387.13 471.89 390.47 474.26 393.8 475.33 C 397.13 476.39 400.47 476.44 403.8 477.37 C 407.13 478.3 410.47 479.95 413.8 480.93 C 417.13 481.90000000000003 420.47 482.36 423.8 483.22 C 427.13 484.07 430.47 485.06 433.8 486.06 C 437.13 487.05 440.47 488.27 443.8 489.17 C 447.13 490.08 450.47 490.98 453.8 491.48 C 457.13 491.97 460.47 492.02000000000004 463.8 492.13 C 467.13 492.23 470.47 492.13 473.8 492.13 C 477.13 492.13 480.47 492.17 483.8 492.13 C 487.13 492.08 490.47 491.87 493.8 491.83 C 497.13 491.8 500.47 492.42 503.8 491.90000000000003 C 507.13 491.38 510.47 489.59000000000003 513.8 488.72 C 517.13 487.84000000000003 520.47 487.41 523.8 486.66 C 527.13 485.92 530.47 485.2 533.8 484.23 C 537.13 483.26 540.47 482.03000000000003 543.8 480.83 C 547.13 479.63 550.47 477.98 553.8000000000001 477.06 C 557.13 476.13 560.47 475.98 563.8000000000001 475.29 C 567.13 474.61 570.47 473.96000000000004 573.8000000000001 472.96000000000004 C 577.13 471.97 582.13 469.94 583.8000000000001 469.33 L 583.8000000000001 494.0 C 582.13 494.0 577.13 494.0 573.8000000000001 494.0 C 570.47 494.0 567.13 494.0 563.8000000000001 494.0 C 560.47 494.0 557.13 494.0 553.8000000000001 494.0 C 550.47 494.0 547.13 494.0 543.8 494.0 C 540.47 494.0 537.13 494.0 533.8 494.0 C 530.47 494.0 527.13 494.0 523.8 494.0 C 520.47 494.0 517.13 494.0 513.8 494.0 C 510.47 494.0 507.13 494.0 503.8 494.0 C 500.47 494.0 497.13 494.0 493.8 494.0 C 490.47 494.0 487.13 494.0 483.8 494.0 C 480.47 494.0 477.13 494.0 473.8 494.0 C 470.47 494.0 467.13 494.0 463.8 494.0 C 460.47 494.0 457.13 494.0 453.8 494.0 C 450.47 494.0 447.13 494.0 443.8 494.0 C 440.47 494.0 437.13 494.0 433.8 494.0 C 430.47 494.0 427.13 494.0 423.8 494.0 C 420.47 494.0 417.13 494.0 413.8 494.0 C 410.47 494.0 407.13 494.0 403.8 494.0 C 400.47 494.0 397.13 494.0 393.8 494.0 C 390.47 494.0 387.13 494.0 383.8 494.0 C 380.47 494.0 377.13 494.0 373.8 494.0 C 370.47 494.0 367.13 494.0 363.8 494.0 C 360.47 494.0 357.13 494.0 353.8 494.0 C 350.47 494.0 347.13 494.0 343.8 494.0 C 340.47 494.0 337.13 494.0 333.8 494.0 C 330.47 494.0 327.13 494.0 323.8 494.0 C 320.47 494.0 317.13 494.0 313.8 494.0 C 310.47 494.0 307.13 494.0 303.8 494.0 C 300.47 494.0 297.13 494.0 293.8 494.0 C 290.47 494.0 287.13 494.0 283.8 494.0 C 280.47 494.0 277.13 494.0 273.8 494.0 C 270.47 494.0 267.13 494.0 263.8 494.0 C 260.47 494.0 257.13 494.0 253.8 494.0 C 250.47 494.0 247.13 494.0 243.8 494.0 C 240.47 494.0 237.13 494.0 233.8 494.0 C 230.47 494.0 227.13 494.0 223.8 494.0 C 220.47 494.0 217.13 494.0 213.8 494.0 C 210.47 494.0 207.13 494.0 203.8 494.0 C 200.47 494.0 197.13 494.0 193.8 494.0 C 190.47 494.0 187.13 494.0 183.8 494.0 C 180.47 494.0 177.13 494.0 173.8 494.0 C 170.47 494.0 167.13 494.0 163.8 494.0 C 160.47 494.0 157.13 494.0 153.8 494.0 C 150.47 494.0 147.13 494.0 143.8 494.0 C 140.47 494.0 137.13 494.0 133.8 494.0 C 130.47 494.0 127.13000000000001 494.0 123.8 494.0 C 120.47 494.0 117.13 494.0 113.8 494.0 C 110.47 494.0 107.13 494.0 103.8 494.0 C 100.47 494.0 97.13 494.0 93.8 494.0 C 90.47 494.0 87.13 494.0 83.8 494.0 C 80.47 494.0 75.47 494.0 73.8 494.0 Z" stroke="none" stroke-width="0" fill="#8c564b" fill-opacity="0.85" /><path d="M 73.8 423.62 C 75.47 422.6 80.47 418.79 83.8 417.51 C 87.13 416.23 90.47 415.8 93.8 415.94 C 97.13 416.08 100.47 417.62 103.8 418.37 C 107.13 419.11 110.47 419.48 113.8 420.41 C 117.13 421.33 120.47 422.88 123.8 423.92 C 127.13000000000001 424.96000000000004 130.47 425.11 133.8 426.64 C 137.13 428.18 140.47 431.46000000000004 143.8 433.13 C 147.13 434.79 150.47 434.84000000000003 153.8 436.64 C 157.13 438.45 160.47 441.59000000000003 163.8 443.96000000000004 C 167.13 446.33 170.47 449.28000000000003 173.8 450.88 C 177.13 452.49 180.47 452.87 183.8 453.59000000000003 C 187.13 454.3 190.47 454.81 193.8 455.18 C 197.13 455.55 200.47 455.78000000000003 203.8 455.8 C 207.13 455.82 210.47 455.54 213.8 455.28000000000003 C 217.13 455.02 220.47 455.01 223.8 454.23 C 227.13 453.46000000000004 230.47 452.16 233.8 450.62 C 237.13 449.08 240.47 446.6 243.8 444.98 C 247.13 443.35 250.47 442.32 253.8 440.89 C 257.13 439.46000000000004 260.47 437.88 263.8 436.39 C 267.13 434.89 270.47 433.17 273.8 431.93 C 277.13 430.69 280.47 429.67 283.8 428.94 C 287.13 428.21000000000004 290.47 427.95 293.8 427.55 C 297.13 427.15000000000003 300.47 426.81 303.8 426.56 C 307.13 426.31 310.47 426.28000000000003 313.8 426.06 C 317.13 425.84000000000003 320.47 424.88 323.8 425.24 C 327.13 425.59000000000003 330.47 427.11 333.8 428.18 C 337.13 429.26 340.47 431.04 343.8 431.69 C 347.13 432.34000000000003 350.47 431.59000000000003 353.8 432.07 C 357.13 432.55 360.47 434.5 363.8 434.59000000000003 C 367.13 434.67 370.47 432.84000000000003 373.8 432.56 C 377.13 432.28000000000003 380.47 432.5 383.8 432.91 C 387.13 433.33 390.47 434.5 393.8 435.03000000000003 C 397.13 435.57 400.47 435.87 403.8 436.13 C 407.13 436.39 410.47 436.52 413.8 436.6 C 417.13 436.68 420.47 436.40000000000003 423.8 436.6 C 427.13 436.8 430.47 437.38 433.8 437.81 C 437.13 438.24 440.47 438.93 443.8 439.19 C 447.13 439.45 450.47 438.91 453.8 439.37 C 457.13 439.84000000000003 460.47 441.2 463.8 441.98 C 467.13 442.75 470.47 443.71000000000004 473.8 444.02 C 477.13 444.34000000000003 480.47 442.93 483.8 443.86 C 487.13 444.79 490.47 448.51 493.8 449.6 C 497.13 450.69 500.47 450.13 503.8 450.41 C 507.13 450.69 510.47 451.16 513.8 451.28000000000003 C 517.13 451.40000000000003 520.47 451.65000000000003 523.8 451.11 C 527.13 450.58 530.47 449.29 533.8 448.07 C 537.13 446.84000000000003 540.47 445.04 543.8 443.78000000000003 C 547.13 442.51 550.47 441.82 553.8000000000001 440.46000000000004 C 557.13 439.1 560.47 437.09000000000003 563.8000000000001 435.64 C 567.13 434.18 570.47 433.51 573.8000000000001 431.74 C 577.13 429.97 582.13 426.15000000000003 583.8000000000001 425.03000000000003 L 583.8000000000001 469.33 C 582.13 469.94 577.13 471.97 573.8000000000001 472.96000000000004 C 570.47 473.96000000000004 567.13 474.61 563.8000000000001 475.29 C 560.47 475.98 557.13 476.13 553.8000000000001 477.06 C 550.47 477.98 547.13 479.63 543.8 480.83 C 540.47 482.03000000000003 537.13 483.26 533.8 484.23 C 530.47 485.2 527.13 485.92 523.8 486.66 C 520.47 487.41 517.13 487.84000000000003 513.8 488.72 C 510.47 489.59000000000003 507.13 491.38 503.8 491.90000000000003 C 500.47 492.42 497.13 491.8 493.8 491.83 C 490.47 491.87 487.13 492.08 483.8 492.13 C 480.47 492.17 477.13 492.13 473.8 492.13 C 470.47 492.13 467.13 492.23 463.8 492.13 C 460.47 492.02000000000004 457.13 491.97 453.8 491.48 C 450.47 490.98 447.13 490.08 443.8 489.17 C 440.47 488.27 437.13 487.05 433.8 486.06 C 430.47 485.06 427.13 484.07 423.8 483.22 C 420.47 482.36 417.13 481.90000000000003 413.8 480.93 C 410.47 479.95 407.13 478.3 403.8 477.37 C 400.47 476.44 397.13 476.39 393.8 475.33 C 390.47 474.26 387.13 471.89 383.8 471.0 C 380.47 470.11 377.13 470.41 373.8 470.01 C 370.47 469.62 367.13 469.18 363.8 468.64 C 360.47 468.09000000000003 357.13 466.71000000000004 353.8 466.74 C 350.47 466.78000000000003 347.13 468.61 343.8 468.87 C 340.47 469.14 337.13 468.13 333.8 468.32 C 330.47 468.52 327.13 469.45 323.8 470.06 C 320.47 470.67 317.13 471.53000000000003 313.8 472.01 C 310.47 472.48 307.13 472.01 303.8 472.91 C 300.47 473.8 297.13 476.07 293.8 477.38 C 290.47 478.69 287.13 479.73 283.8 480.79 C 280.47 481.86 277.13 482.66 273.8 483.78000000000003 C 270.47 484.89 267.13 486.73 263.8 487.48 C 260.47 488.23 257.13 487.61 253.8 488.26 C 250.47 488.91 247.13 490.72 243.8 491.36 C 240.47 492.01 237.13 492.0 233.8 492.13 C 230.47 492.25 227.13 492.13 223.8 492.13 C 220.47 492.13 217.13 492.13 213.8 492.13 C 210.47 492.13 207.13 492.26 203.8 492.13 C 200.47 491.99 197.13 491.95 193.8 491.3 C 190.47 490.65000000000003 187.13 488.8 183.8 488.25 C 180.47 487.69 177.13 488.88 173.8 487.98 C 170.47 487.07 167.13 484.08 163.8 482.84000000000003 C 160.47 481.59000000000003 157.13 481.56 153.8 480.53000000000003 C 150.47 479.51 147.13 477.61 143.8 476.67 C 140.47 475.74 137.13 475.49 133.8 474.93 C 130.47 474.36 127.13000000000001 473.96000000000004 123.8 473.29 C 120.47 472.62 117.13 471.58 113.8 470.92 C 110.47 470.26 107.13 470.0 103.8 469.32 C 100.47 468.64 97.13 467.21000000000004 93.8 466.82 C 90.47 466.44 87.13 466.67 83.8 467.01 C 80.47 467.35 75.47 468.55 73.8 468.86 Z" stroke="none" stroke-width="0" fill="#d62728" fill-opacity="0.85" /><path d="M 73.8 291.99 C 75.47 290.81 80.47 287.15000000000003 83.8 284.89 C 87.13 282.64 90.47 279.95 93.8 278.46 C 97.13 276.96 100.47 276.6 103.8 275.95 C 107.13 275.29 110.47 273.82 113.8 274.51 C 117.13 275.2 120.47 279.12 123.8 280.08 C 127.13000000000001 281.04 130.47 279.7 133.8 280.27 C 137.13 280.85 140.47 283.13 143.8 283.54 C 147.13 283.96 150.47 281.37 153.8 282.77 C 157.13 284.18 160.47 289.88 163.8 291.97 C 167.13 294.07 170.47 294.64 173.8 295.33 C 177.13 296.02 180.47 296.22 183.8 296.09000000000003 C 187.13 295.95 190.47 293.91 193.8 294.53000000000003 C 197.13 295.15000000000003 200.47 299.5 203.8 299.82 C 207.13 300.14 210.47 296.49 213.8 296.43 C 217.13 296.38 220.47 299.84000000000003 223.8 299.5 C 227.13 299.16 230.47 294.97 233.8 294.40000000000003 C 237.13 293.82 240.47 296.51 243.8 296.03000000000003 C 247.13 295.55 250.47 292.96 253.8 291.52 C 257.13 290.09000000000003 260.47 287.93 263.8 287.44 C 267.13 286.94 270.47 288.47 273.8 288.56 C 277.13 288.66 280.47 287.77 283.8 288.02 C 287.13 288.27 290.47 289.23 293.8 290.07 C 297.13 290.91 300.47 292.09000000000003 303.8 293.05 C 307.13 294.0 310.47 295.03000000000003 313.8 295.78000000000003 C 317.13 296.53000000000003 320.47 296.17 323.8 297.55 C 327.13 298.93 330.47 301.73 333.8 304.05 C 337.13 306.37 340.47 309.52 343.8 311.49 C 347.13 313.45 350.47 314.40000000000003 353.8 315.84000000000003 C 357.13 317.28000000000003 360.47 319.64 363.8 320.14 C 367.13 320.64 370.47 318.25 373.8 318.85 C 377.13 319.45 380.47 321.77 383.8 323.74 C 387.13 325.71 390.47 329.23 393.8 330.64 C 397.13 332.06 400.47 330.81 403.8 332.24 C 407.13 333.67 410.47 338.56 413.8 339.21 C 417.13 339.87 420.47 335.72 423.8 336.16 C 427.13 336.6 430.47 340.77 433.8 341.84000000000003 C 437.13 342.90000000000003 440.47 343.08 443.8 342.55 C 447.13 342.01 450.47 338.53000000000003 453.8 338.63 C 457.13 338.72 460.47 341.54 463.8 343.14 C 467.13 344.75 470.47 348.62 473.8 348.26 C 477.13 347.89 480.47 341.33 483.8 340.94 C 487.13 340.56 490.47 345.38 493.8 345.94 C 497.13 346.5 500.47 344.13 503.8 344.32 C 507.13 344.51 510.47 347.62 513.8 347.07 C 517.13 346.51 520.47 342.44 523.8 340.99 C 527.13 339.55 530.47 339.6 533.8 338.41 C 537.13 337.21 540.47 335.92 543.8 333.8 C 547.13 331.69 550.47 328.32 553.8000000000001 325.71 C 557.13 323.1 560.47 321.12 563.8000000000001 318.15000000000003 C 567.13 315.17 570.47 311.23 573.8000000000001 307.85 C 577.13 304.48 582.13 299.55 583.8000000000001 297.89 L 583.8000000000001 425.03000000000003 C 582.13 426.15000000000003 577.13 429.97 573.8000000000001 431.74 C 570.47 433.51 567.13 434.18 563.8000000000001 435.64 C 560.47 437.09000000000003 557.13 439.1 553.8000000000001 440.46000000000004 C 550.47 441.82 547.13 442.51 543.8 443.78000000000003 C 540.47 445.04 537.13 446.84000000000003 533.8 448.07 C 530.47 449.29 527.13 450.58 523.8 451.11 C 520.47 451.65000000000003 517.13 451.40000000000003 513.8 451.28000000000003 C 510.47 451.16 507.13 450.69 503.8 450.41 C 500.47 450.13 497.13 450.69 493.8 449.6 C 490.47 448.51 487.13 444.79 483.8 443.86 C 480.47 442.93 477.13 444.34000000000003 473.8 444.02 C 470.47 443.71000000000004 467.13 442.75 463.8 441.98 C 460.47 441.2 457.13 439.84000000000003 453.8 439.37 C 450.47 438.91 447.13 439.45 443.8 439.19 C 440.47 438.93 437.13 438.24 433.8 437.81 C 430.47 437.38 427.13 436.8 423.8 436.6 C 420.47 436.40000000000003 417.13 436.68 413.8 436.6 C 410.47 436.52 407.13 436.39 403.8 436.13 C 400.47 435.87 397.13 435.57 393.8 435.03000000000003 C 390.47 434.5 387.13 433.33 383.8 432.91 C 380.47 432.5 377.13 432.28000000000003 373.8 432.56 C 370.47 432.84000000000003 367.13 434.67 363.8 434.59000000000003 C 360.47 434.5 357.13 432.55 353.8 432.07 C 350.47 431.59000000000003 347.13 432.34000000000003 343.8 431.69 C 340.47 431.04 337.13 429.26 333.8 428.18 C 330.47 427.11 327.13 425.59000000000003 323.8 425.24 C 320.47 424.88 317.13 425.84000000000003 313.8 426.06 C 310.47 426.28000000000003 307.13 426.31 303.8 426.56 C 300.47 426.81 297.13 427.15000000000003 293.8 427.55 C 290.47 427.95 287.13 428.21000000000004 283.8 428.94 C 280.47 429.67 277.13 430.69 273.8 431.93 C 270.47 433.17 267.13 434.89 263.8 436.39 C 260.47 437.88 257.13 439.46000000000004 253.8 440.89 C 250.47 442.32 247.13 443.35 243.8 444.98 C 240.47 446.6 237.13 449.08 233.8 450.62 C 230.47 452.16 227.13 453.46000000000004 223.8 454.23 C 220.47 455.01 217.13 455.02 213.8 455.28000000000003 C 210.47 455.54 207.13 455.82 203.8 455.8 C 200.47 455.78000000000003 197.13 455.55 193.8 455.18 C 190.47 454.81 187.13 454.3 183.8 453.59000000000003 C 180.47 452.87 177.13 452.49 173.8 450.88 C 170.47 449.28000000000003 167.13 446.33 163.8 443.96000000000004 C 160.47 441.59000000000003 157.13 438.45 153.8 436.64 C 150.47 434.84000000000003 147.13 434.79 143.8 433.13 C 140.47 431.46000000000004 137.13 428.18 133.8 426.64 C 130.47 425.11 127.13000000000001 424.96000000000004 123.8 423.92 C 120.47 422.88 117.13 421.33 113.8 420.41 C 110.47 419.48 107.13 419.11 103.8 418.37 C 100.47 417.62 97.13 416.08 93.8 415.94 C 90.47 415.8 87.13 416.23 83.8 417.51 C 80.47 418.79 75.47 422.6 73.8 423.62 Z" stroke="none" stroke-width="0" fill="#1f77b4" fill-opacity="0.85" /><path d="M 73.8 203.54 C 75.47 202.36 80.47 197.68 83.8 196.45000000000002 C 87.13 195.23000000000002 90.47 196.74 93.8 196.18 C 97.13 195.63 100.47 193.36 103.8 193.15 C 107.13 192.94 110.47 193.88 113.8 194.92000000000002 C 117.13 195.96 120.47 197.4 123.8 199.37 C 127.13000000000001 201.34 130.47 204.98000000000002 133.8 206.76 C 137.13 208.54 140.47 209.64000000000001 143.8 210.07 C 147.13 210.5 150.47 207.18 153.8 209.34 C 157.13 211.49 160.47 221.09 163.8 223.0 C 167.13 224.9 170.47 220.81 173.8 220.77 C 177.13 220.73000000000002 180.47 222.24 183.8 222.76 C 187.13 223.28 190.47 222.56 193.8 223.9 C 197.13 225.24 200.47 231.3 203.8 230.79 C 207.13 230.29 210.47 222.09 213.8 220.88 C 217.13 219.66 220.47 223.26 223.8 223.5 C 227.13 223.75 230.47 222.44 233.8 222.36 C 237.13 222.28 240.47 224.74 243.8 223.0 C 247.13 221.25 250.47 214.75 253.8 211.89000000000001 C 257.13 209.03 260.47 205.94 263.8 205.82 C 267.13 205.70000000000002 270.47 211.83 273.8 211.18 C 277.13 210.52 280.47 202.91 283.8 201.89000000000001 C 287.13 200.87 290.47 204.38 293.8 205.05 C 297.13 205.72 300.47 205.47 303.8 205.92000000000002 C 307.13 206.37 310.47 208.3 313.8 207.75 C 317.13 207.20000000000002 320.47 202.48000000000002 323.8 202.62 C 327.13 202.76 330.47 207.56 333.8 208.6 C 337.13 209.63 340.47 207.91 343.8 208.8 C 347.13 209.70000000000002 350.47 212.68 353.8 213.94 C 357.13 215.19 360.47 216.72 363.8 216.33 C 367.13 215.94 370.47 211.62 373.8 211.59 C 377.13 211.56 380.47 215.04 383.8 216.15 C 387.13 217.26 390.47 217.74 393.8 218.26 C 397.13 218.77 400.47 218.03 403.8 219.24 C 407.13 220.45000000000002 410.47 225.62 413.8 225.49 C 417.13 225.36 420.47 218.6 423.8 218.47 C 427.13 218.33 430.47 223.55 433.8 224.71 C 437.13 225.86 440.47 226.29 443.8 225.4 C 447.13 224.51 450.47 219.29 453.8 219.37 C 457.13 219.45000000000002 460.47 223.16 463.8 225.87 C 467.13 228.58 470.47 236.09 473.8 235.64000000000001 C 477.13 235.18 480.47 223.09 483.8 223.14000000000001 C 487.13 223.18 490.47 233.96 493.8 235.92000000000002 C 497.13 237.88 500.47 235.27 503.8 234.92000000000002 C 507.13 234.57 510.47 234.04 513.8 233.81 C 517.13 233.59 520.47 234.19 523.8 233.58 C 527.13 232.97 530.47 230.47 533.8 230.14000000000001 C 537.13 229.81 540.47 232.0 543.8 231.6 C 547.13 231.19 550.47 230.22 553.8000000000001 227.71 C 557.13 225.19 560.47 219.68 563.8000000000001 216.5 C 567.13 213.31 570.47 210.49 573.8000000000001 208.6 C 577.13 206.71 582.13 205.71 583.8000000000001 205.14000000000001 L 583.8000000000001 297.89 C 582.13 299.55 577.13 304.48 573.8000000000001 307.85 C 570.47 311.23 567.13 315.17 563.8000000000001 318.15000000000003 C 560.47 321.12 557.13 323.1 553.8000000000001 325.71 C 550.47 328.32 547.13 331.69 543.8 333.8 C 540.47 335.92 537.13 337.21 533.8 338.41 C 530.47 339.6 527.13 339.55 523.8 340.99 C 520.47 342.44 517.13 346.51 513.8 347.07 C 510.47 347.62 507.13 344.51 503.8 344.32 C 500.47 344.13 497.13 346.5 493.8 345.94 C 490.47 345.38 487.13 340.56 483.8 340.94 C 480.47 341.33 477.13 347.89 473.8 348.26 C 470.47 348.62 467.13 344.75 463.8 343.14 C 460.47 341.54 457.13 338.72 453.8 338.63 C 450.47 338.53000000000003 447.13 342.01 443.8 342.55 C 440.47 343.08 437.13 342.90000000000003 433.8 341.84000000000003 C 430.47 340.77 427.13 336.6 423.8 336.16 C 420.47 335.72 417.13 339.87 413.8 339.21 C 410.47 338.56 407.13 333.67 403.8 332.24 C 400.47 330.81 397.13 332.06 393.8 330.64 C 390.47 329.23 387.13 325.71 383.8 323.74 C 380.47 321.77 377.13 319.45 373.8 318.85 C 370.47 318.25 367.13 320.64 363.8 320.14 C 360.47 319.64 357.13 317.28000000000003 353.8 315.84000000000003 C 350.47 314.40000000000003 347.13 313.45 343.8 311.49 C 340.47 309.52 337.13 306.37 333.8 304.05 C 330.47 301.73 327.13 298.93 323.8 297.55 C 320.47 296.17 317.13 296.53000000000003 313.8 295.78000000000003 C 310.47 295.03000000000003 307.13 294.0 303.8 293.05 C 300.47 292.09000000000003 297.13 290.91 293.8 290.07 C 290.47 289.23 287.13 288.27 283.8 288.02 C 280.47 287.77 277.13 288.66 273.8 288.56 C 270.47 288.47 267.13 286.94 263.8 287.44 C 260.47 287.93 257.13 290.09000000000003 253.8 291.52 C 250.47 292.96 247.13 295.55 243.8 296.03000000000003 C 240.47 296.51 237.13 293.82 233.8 294.40000000000003 C 230.47 294.97 227.13 299.16 223.8 299.5 C 220.47 299.84000000000003 217.13 296.38 213.8 296.43 C 210.47 296.49 207.13 300.14 203.8 299.82 C 200.47 299.5 197.13 295.15000000000003 193.8 294.53000000000003 C 190.47 293.91 187.13 295.95 183.8 296.09000000000003 C 180.47 296.22 177.13 296.02 173.8 295.33 C 170.47 294.64 167.13 294.07 163.8 291.97 C 160.47 289.88 157.13 284.18 153.8 282.77 C 150.47 281.37 147.13 283.96 143.8 283.54 C 140.47 283.13 137.13 280.85 133.8 280.27 C 130.47 279.7 127.13000000000001 281.04 123.8 280.08 C 120.47 279.12 117.13 275.2 113.8 274.51 C 110.47 273.82 107.13 275.29 103.8 275.95 C 100.47 276.6 97.13 276.96 93.8 278.46 C 90.47 279.95 87.13 282.64 83.8 284.89 C 80.47 287.15000000000003 75.47 290.81 73.8 291.99 Z" stroke="none" stroke-width="0" fill="#ff7f0e" fill-opacity="0.85" /><path d="M 73.8 127.51 C 75.47 126.74000000000001 80.47 123.62 83.8 122.89 C 87.13 122.16 90.47 123.19 93.8 123.13000000000001 C 97.13 123.07000000000001 100.47 122.13 103.8 122.51 C 107.13 122.89 110.47 123.18 113.8 125.41 C 117.13 127.64 120.47 133.26 123.8 135.87 C 127.13000000000001 138.48 130.47 138.91 133.8 141.08 C 137.13 143.26 140.47 147.1 143.8 148.91 C 147.13 150.73 150.47 149.16 153.8 151.98 C 157.13 154.79 160.47 163.59 163.8 165.79 C 167.13 167.98 170.47 164.84 173.8 165.14000000000001 C 177.13 165.43 180.47 167.12 183.8 167.58 C 187.13 168.04 190.47 166.24 193.8 167.9 C 197.13 169.56 200.47 178.22 203.8 177.53 C 207.13 176.84 210.47 165.74 213.8 163.74 C 217.13 161.73 220.47 165.72 223.8 165.5 C 227.13 165.29 230.47 162.94 233.8 162.45000000000002 C 237.13 161.96 240.47 165.03 243.8 162.55 C 247.13 160.07 250.47 151.0 253.8 147.56 C 257.13 144.13 260.47 142.46 263.8 141.94 C 267.13 141.43 270.47 146.45000000000002 273.8 144.47 C 277.13 142.48 280.47 131.85 283.8 130.01 C 287.13 128.16 290.47 133.59 293.8 133.39000000000001 C 297.13 133.19 300.47 128.89000000000001 303.8 128.83 C 307.13 128.77 310.47 133.39000000000001 313.8 133.03 C 317.13 132.67000000000002 320.47 126.87 323.8 126.66 C 327.13 126.46000000000001 330.47 130.62 333.8 131.82 C 337.13 133.03 340.47 132.11 343.8 133.91 C 347.13 135.71 350.47 140.85 353.8 142.63 C 357.13 144.4 360.47 144.88 363.8 144.57 C 367.13 144.26 370.47 140.01 373.8 140.78 C 377.13 141.55 380.47 146.41 383.8 149.21 C 387.13 152.01 390.47 156.28 393.8 157.58 C 397.13 158.87 400.47 154.95000000000002 403.8 156.98 C 407.13 159.02 410.47 168.53 413.8 169.8 C 417.13 171.07 420.47 164.53 423.8 164.62 C 427.13 164.70000000000002 430.47 168.77 433.8 170.32 C 437.13 171.87 440.47 174.4 443.8 173.92000000000002 C 447.13 173.45000000000002 450.47 168.23 453.8 167.47 C 457.13 166.71 460.47 167.15 463.8 169.37 C 467.13 171.59 470.47 181.6 473.8 180.78 C 477.13 179.97 480.47 165.06 483.8 164.5 C 487.13 163.94 490.47 176.02 493.8 177.41 C 497.13 178.81 500.47 173.77 503.8 172.88 C 507.13 171.99 510.47 172.87 513.8 172.09 C 517.13 171.31 520.47 170.20000000000002 523.8 168.20000000000002 C 527.13 166.20000000000002 530.47 161.47 533.8 160.11 C 537.13 158.74 540.47 160.84 543.8 160.01 C 547.13 159.18 550.47 157.72 553.8000000000001 155.14000000000001 C 557.13 152.56 560.47 148.4 563.8000000000001 144.55 C 567.13 140.70000000000002 570.47 134.7 573.8000000000001 132.04 C 577.13 129.38 582.13 129.17000000000002 583.8000000000001 128.6 L 583.8000000000001 205.14000000000001 C 582.13 205.71 577.13 206.71 573.8000000000001 208.6 C 570.47 210.49 567.13 213.31 563.8000000000001 216.5 C 560.47 219.68 557.13 225.19 553.8000000000001 227.71 C 550.47 230.22 547.13 231.19 543.8 231.6 C 540.47 232.0 537.13 229.81 533.8 230.14000000000001 C 530.47 230.47 527.13 232.97 523.8 233.58 C 520.47 234.19 517.13 233.59 513.8 233.81 C 510.47 234.04 507.13 234.57 503.8 234.92000000000002 C 500.47 235.27 497.13 237.88 493.8 235.92000000000002 C 490.47 233.96 487.13 223.18 483.8 223.14000000000001 C 480.47 223.09 477.13 235.18 473.8 235.64000000000001 C 470.47 236.09 467.13 228.58 463.8 225.87 C 460.47 223.16 457.13 219.45000000000002 453.8 219.37 C 450.47 219.29 447.13 224.51 443.8 225.4 C 440.47 226.29 437.13 225.86 433.8 224.71 C 430.47 223.55 427.13 218.33 423.8 218.47 C 420.47 218.6 417.13 225.36 413.8 225.49 C 410.47 225.62 407.13 220.45000000000002 403.8 219.24 C 400.47 218.03 397.13 218.77 393.8 218.26 C 390.47 217.74 387.13 217.26 383.8 216.15 C 380.47 215.04 377.13 211.56 373.8 211.59 C 370.47 211.62 367.13 215.94 363.8 216.33 C 360.47 216.72 357.13 215.19 353.8 213.94 C 350.47 212.68 347.13 209.70000000000002 343.8 208.8 C 340.47 207.91 337.13 209.63 333.8 208.6 C 330.47 207.56 327.13 202.76 323.8 202.62 C 320.47 202.48000000000002 317.13 207.20000000000002 313.8 207.75 C 310.47 208.3 307.13 206.37 303.8 205.92000000000002 C 300.47 205.47 297.13 205.72 293.8 205.05 C 290.47 204.38 287.13 200.87 283.8 201.89000000000001 C 280.47 202.91 277.13 210.52 273.8 211.18 C 270.47 211.83 267.13 205.70000000000002 263.8 205.82 C 260.47 205.94 257.13 209.03 253.8 211.89000000000001 C 250.47 214.75 247.13 221.25 243.8 223.0 C 240.47 224.74 237.13 222.28 233.8 222.36 C 230.47 222.44 227.13 223.75 223.8 223.5 C 220.47 223.26 217.13 219.66 213.8 220.88 C 210.47 222.09 207.13 230.29 203.8 230.79 C 200.47 231.3 197.13 225.24 193.8 223.9 C 190.47 222.56 187.13 223.28 183.8 222.76 C 180.47 222.24 177.13 220.73000000000002 173.8 220.77 C 170.47 220.81 167.13 224.9 163.8 223.0 C 160.47 221.09 157.13 211.49 153.8 209.34 C 150.47 207.18 147.13 210.5 143.8 210.07 C 140.47 209.64000000000001 137.13 208.54 133.8 206.76 C 130.47 204.98000000000002 127.13000000000001 201.34 123.8 199.37 C 120.47 197.4 117.13 195.96 113.8 194.92000000000002 C 110.47 193.88 107.13 192.94 103.8 193.15 C 100.47 193.36 97.13 195.63 93.8 196.18 C 90.47 196.74 87.13 195.23000000000002 83.8 196.45000000000002 C 80.47 197.68 75.47 202.36 73.8 203.54 Z" stroke="none" stroke-width="0" fill="#2ca02c" fill-opacity="0.85" /><path d="M 73.8 99.39 C 75.47 98.32000000000001 80.47 93.74 83.8 92.95 C 87.13 92.17 90.47 94.31 93.8 94.69 C 97.13 95.08 100.47 94.43 103.8 95.25 C 107.13 96.08 110.47 97.67 113.8 99.64 C 117.13 101.61 120.47 104.76 123.8 107.07000000000001 C 127.13000000000001 109.39 130.47 111.38 133.8 113.53 C 137.13 115.67 140.47 118.45 143.8 119.94 C 147.13 121.43 150.47 119.5 153.8 122.49000000000001 C 157.13 125.47 160.47 135.07 163.8 137.85 C 167.13 140.64000000000001 170.47 138.8 173.8 139.19 C 177.13 139.59 180.47 139.95000000000002 183.8 140.21 C 187.13 140.47 190.47 138.88 193.8 140.74 C 197.13 142.6 200.47 152.43 203.8 151.36 C 207.13 150.3 210.47 136.28 213.8 134.34 C 217.13 132.39000000000001 220.47 139.74 223.8 139.69 C 227.13 139.63 230.47 134.54 233.8 134.01 C 237.13 133.47 240.47 138.5 243.8 136.46 C 247.13 134.42000000000002 250.47 125.15 253.8 121.74000000000001 C 257.13 118.33 260.47 116.63 263.8 115.98 C 267.13 115.33 270.47 120.28 273.8 117.82000000000001 C 277.13 115.36 280.47 103.05 283.8 101.24000000000001 C 287.13 99.43 290.47 107.15 293.8 106.94 C 297.13 106.72 300.47 99.86 303.8 99.94 C 307.13 100.02 310.47 107.94 313.8 107.44 C 317.13 106.94 320.47 97.85000000000001 323.8 96.95 C 327.13 96.06 330.47 100.53 333.8 102.05 C 337.13 103.57000000000001 340.47 104.07000000000001 343.8 106.07000000000001 C 347.13 108.07000000000001 350.47 112.48 353.8 114.04 C 357.13 115.59 360.47 115.77 363.8 115.42 C 367.13 115.06 370.47 111.2 373.8 111.89 C 377.13 112.58 380.47 116.74000000000001 383.8 119.56 C 387.13 122.39 390.47 127.18 393.8 128.86 C 397.13 130.54 400.47 127.24000000000001 403.8 129.64000000000001 C 407.13 132.05 410.47 142.46 413.8 143.31 C 417.13 144.17000000000002 420.47 135.28 423.8 134.78 C 427.13 134.29 430.47 138.57 433.8 140.33 C 437.13 142.09 440.47 145.70000000000002 443.8 145.34 C 447.13 144.98 450.47 138.96 453.8 138.17000000000002 C 457.13 137.39000000000001 460.47 137.98 463.8 140.63 C 467.13 143.28 470.47 154.84 473.8 154.09 C 477.13 153.35 480.47 137.21 483.8 136.15 C 487.13 135.1 490.47 146.23 493.8 147.77 C 497.13 149.3 500.47 146.27 503.8 145.35 C 507.13 144.43 510.47 143.20000000000002 513.8 142.26 C 517.13 141.31 520.47 141.59 523.8 139.68 C 527.13 137.78 530.47 132.12 533.8 130.81 C 537.13 129.51 540.47 132.08 543.8 131.87 C 547.13 131.65 550.47 132.38 553.8000000000001 129.53 C 557.13 126.69 560.47 118.85000000000001 563.8000000000001 114.81 C 567.13 110.76 570.47 107.62 573.8000000000001 105.25 C 577.13 102.89 582.13 101.39 583.8000000000001 100.61 L 583.8000000000001 128.6 C 582.13 129.17000000000002 577.13 129.38 573.8000000000001 132.04 C 570.47 134.7 567.13 140.70000000000002 563.8000000000001 144.55 C 560.47 148.4 557.13 152.56 553.8000000000001 155.14000000000001 C 550.47 157.72 547.13 159.18 543.8 160.01 C 540.47 160.84 537.13 158.74 533.8 160.11 C 530.47 161.47 527.13 166.20000000000002 523.8 168.20000000000002 C 520.47 170.20000000000002 517.13 171.31 513.8 172.09 C 510.47 172.87 507.13 171.99 503.8 172.88 C 500.47 173.77 497.13 178.81 493.8 177.41 C 490.47 176.02 487.13 163.94 483.8 164.5 C 480.47 165.06 477.13 179.97 473.8 180.78 C 470.47 181.6 467.13 171.59 463.8 169.37 C 460.47 167.15 457.13 166.71 453.8 167.47 C 450.47 168.23 447.13 173.45000000000002 443.8 173.92000000000002 C 440.47 174.4 437.13 171.87 433.8 170.32 C 430.47 168.77 427.13 164.70000000000002 423.8 164.62 C 420.47 164.53 417.13 171.07 413.8 169.8 C 410.47 168.53 407.13 159.02 403.8 156.98 C 400.47 154.95000000000002 397.13 158.87 393.8 157.58 C 390.47 156.28 387.13 152.01 383.8 149.21 C 380.47 146.41 377.13 141.55 373.8 140.78 C 370.47 140.01 367.13 144.26 363.8 144.57 C 360.47 144.88 357.13 144.4 353.8 142.63 C 350.47 140.85 347.13 135.71 343.8 133.91 C 340.47 132.11 337.13 133.03 333.8 131.82 C 330.47 130.62 327.13 126.46000000000001 323.8 126.66 C 320.47 126.87 317.13 132.67000000000002 313.8 133.03 C 310.47 133.39000000000001 307.13 128.77 303.8 128.83 C 300.47 128.89000000000001 297.13 133.19 293.8 133.39000000000001 C 290.47 133.59 287.13 128.16 283.8 130.01 C 280.47 131.85 277.13 142.48 273.8 144.47 C 270.47 146.45000000000002 267.13 141.43 263.8 141.94 C 260.47 142.46 257.13 144.13 253.8 147.56 C 250.47 151.0 247.13 160.07 243.8 162.55 C 240.47 165.03 237.13 161.96 233.8 162.45000000000002 C 230.47 162.94 227.13 165.29 223.8 165.5 C 220.47 165.72 217.13 161.73 213.8 163.74 C 210.47 165.74 207.13 176.84 203.8 177.53 C 200.47 178.22 197.13 169.56 193.8 167.9 C 190.47 166.24 187.13 168.04 183.8 167.58 C 180.47 167.12 177.13 165.43 173.8 165.14000000000001 C 170.47 164.84 167.13 167.98 163.8 165.79 C 160.47 163.59 157.13 154.79 153.8 151.98 C 150.47 149.16 147.13 150.73 143.8 148.91 C 140.47 147.1 137.13 143.26 133.8 141.08 C 130.47 138.91 127.13000000000001 138.48 123.8 135.87 C 120.47 133.26 117.13 127.64 113.8 125.41 C 110.47 123.18 107.13 122.89 103.8 122.51 C 100.47 122.13 97.13 123.07000000000001 93.8 123.13000000000001 C 90.47 123.19 87.13 122.16 83.8 122.89 C 80.47 123.62 75.47 126.74000000000001 73.8 127.51 Z" stroke="none" stroke-width="0" fill="#9467bd" fill-opacity="0.85" /><text x="353.8" y="484.57" font-size="12" text-anchor="middle" fill="#ffffff">Verrucomicrobia</text><text x="453.8" y="469.63" font-size="12" text-anchor="middle" fill="#ffffff">Actinobacteria</text><text x="193.8" y="379.05" font-size="12" text-anchor="middle" fill="#ffffff">Firmicutes</text><text x="453.8" y="283.2" font-size="12" text-anchor="middle" fill="#333333">Bacteroidetes</text><text x="303.8" y="171.58" font-size="12" text-anchor="middle" fill="#ffffff">Proteobacteria</text><text x="433.8" y="159.52" font-size="12" text-anchor="middle" fill="#ffffff">Fusobacteria</text></g></svg>