<svg xmlns="http://www.w3.org/2000/svg" width="686.2" height="545" font-family="DejaVu Sans, Liberation Sans, Arial, sans-serif" fill="black"><rect width="100%" height="100%" fill="white" /><text x="372.2" y="22" font-size="18" text-anchor="middle">DEG Overlap Across Treatment Conditions</text><line x1="180.20000000000002" y1="291.5" x2="180.20000000000002" y2="494" stroke="#000000" stroke-width="1" /><line x1="72.2" y1="494" x2="180.20000000000002" y2="494" stroke="#000000" stroke-width="1" /><rect x="72.2" y="304.81" width="108" height="24" fill="#333333" /><text x="183.20000000000002" y="321.01" font-size="12" text-anchor="start">40</text><rect x="85.7" y="355.44" width="94.5" height="24" fill="#333333" /><text x="183.20000000000002" y="371.64" font-size="12" text-anchor="start">35</text><rect x="104.60000000000001" y="406.06" width="75.60000000000001" height="24" fill="#333333" /><text x="183.20000000000002" y="422.26" font-size="12" text-anchor="start">28</text><rect x="110" y="456.69" width="70.2" height="24" fill="#333333" /><text x="183.20000000000002" y="472.89" font-size="12" text-anchor="start">26</text><text x="126.2" y="275.5" font-size="14" text-anchor="middle">Set size</text><text x="292.40000000000003" y="321.01" font-size="12" text-anchor="end">Condition A</text><text x="292.40000000000003" y="371.64" font-size="12" text-anchor="end">Condition B</text><text x="292.40000000000003" y="422.26" font-size="12" text-anchor="end">Condition C</text><text x="292.40000000000003" y="472.89" font-size="12" text-anchor="end">Condition D</text><line x1="297.40000000000003" y1="58" x2="297.40000000000003" y2="286.5" stroke="#000000" stroke-width="1" /><line x1="297.40000000000003" y1="286.5" x2="672.2" y2="286.5" stroke="#000000" stroke-width="1" /><line x1="293.40000000000003" y1="286.5" x2="297.40000000000003" y2="286.5" stroke="#000000" stroke-width="1" /><text x="290.40000000000003" y="290.7" font-size="12" text-anchor="end">0</text><line x1="293.40000000000003" y1="229.38" x2="297.40000000000003" y2="229.38" stroke="#000000" stroke-width="1" /><text x="290.40000000000003" y="233.58" font-size="12" text-anchor="end">3</text><line x1="293.40000000000003" y1="172.25" x2="297.40000000000003" y2="172.25" stroke="#000000" stroke-width="1" /><text x="290.40000000000003" y="176.45000000000002" font-size="12" text-anchor="end">6</text><line x1="293.40000000000003" y1="115.13" x2="297.40000000000003" y2="115.13" stroke="#000000" stroke-width="1" /><text x="290.40000000000003" y="119.33" font-size="12" text-anchor="end">8</text><line x1="293.40000000000003" y1="58" x2="297.40000000000003" y2="58" stroke="#000000" stroke-width="1" /><text x="290.40000000000003" y="62.2" font-size="12" text-anchor="end">11</text><text x="253.4" y="172.25" font-size="14" text-anchor="middle" transform="rotate(-90,253.4,172.25)">Intersection size</text><rect x="306.77" y="58" width="28.11" height="228.5" fill="#333333" /><text x="320.83" y="56" font-size="12" text-anchor="middle">11</text><rect x="353.62" y="78.77" width="28.11" height="207.73000000000002" fill="#333333" /><text x="367.67" y="76.77" font-size="12" text-anchor="middle">10</text><rect x="400.47" y="78.77" width="28.11" height="207.73000000000002" fill="#333333" /><text x="414.53000000000003" y="76.77" font-size="12" text-anchor="middle">10</text><rect x="447.32" y="78.77" width="28.11" height="207.73000000000002" fill="#333333" /><text x="461.38" y="76.77" font-size="12" text-anchor="middle">10</text><rect x="494.17" y="78.77" width="28.11" height="207.73000000000002" fill="#333333" /><text x="508.23" y="76.77" font-size="12" text-anchor="middle">10</text><rect x="541.02" y="203.41" width="28.11" height="83.09" fill="#333333" /><text x="555.08" y="201.41" font-size="12" text-anchor="middle">4</text><rect x="587.87" y="224.18" width="28.11" height="62.32" fill="#333333" /><text x="601.92" y="222.18" font-size="12" text-anchor="middle">3</text><rect x="634.72" y="244.95000000000002" width="28.11" height="41.550000000000004" fill="#333333" /><text x="648.78" y="242.95000000000002" font-size="12" text-anchor="middle">2</text><line x1="297.40000000000003" y1="291.5" x2="672.2" y2="291.5" stroke="#cccccc" stroke-width="0.5" /><line x1="297.40000000000003" y1="342.13" x2="672.2" y2="342.13" stroke="#cccccc" stroke-width="0.5" /><line x1="297.40000000000003" y1="392.75" x2="672.2" y2="392.75" stroke="#cccccc" stroke-width="0.5" /><line x1="297.40000000000003" y1="443.38" x2="672.2" y2="443.38" stroke="#cccccc" stroke-width="0.5" /><line x1="297.40000000000003" y1="494" x2="672.2" y2="494" stroke="#cccccc" stroke-width="0.5" /><line x1="320.83" y1="367.44" x2="320.83" y2="468.69" stroke="#333333" stroke-width="6" /><circle cx="320.83" cy="316.81" r="12" fill="#dddddd" /><circle cx="320.83" cy="367.44" r="12" fill="#333333" /><circle cx="320.83" cy="418.06" r="12" fill="#333333" /><circle cx="320.83" cy="468.69" r="12" fill="#333333" /><circle cx="367.67" cy="316.81" r="12" fill="#333333" /><circle cx="367.67" cy="367.44" r="12" fill="#dddddd" /><circle cx="367.67" cy="418.06" r="12" fill="#dddddd" /><circle cx="367.67" cy="468.69" r="12" fill="#dddddd" /><line x1="414.53000000000003" y1="316.81" x2="414.53000000000003" y2="367.44" stroke="#333333" stroke-width="6" /><circle cx="414.53000000000003" cy="316.81" r="12" fill="#333333" /><circle cx="414.53000000000003" cy="367.44" r="12" fill="#333333" /><circle cx="414.53000000000003" cy="418.06" r="12" fill="#dddddd" /><circle cx="414.53000000000003" cy="468.69" r="12" fill="#dddddd" /><line x1="461.38" y1="316.81" x2="461.38" y2="418.06" stroke="#333333" stroke-width="6" /><circle cx="461.38" cy="316.81" r="12" fill="#333333" /><circle cx="461.38" cy="367.44" r="12" fill="#333333" /><circle cx="461.38" cy="418.06" r="12" fill="#333333" /><circle cx="461.38" cy="468.69" r="12" fill="#dddddd" /><line x1="508.23" y1="316.81" x2="508.23" y2="468.69" stroke="#333333" stroke-width="6" /><circle cx="508.23" cy="316.81" r="12" fill="#333333" /><circle cx="508.23" cy="367.44" r="12" fill="#dddddd" /><circle cx="508.23" cy="418.06" r="12" fill="#dddddd" /><circle cx="508.23" cy="468.69" r="12" fill="#333333" /><line x1="555.08" y1="367.44" x2="555.08" y2="418.06" stroke="#333333" stroke-width="6" /><circle cx="555.08" cy="316.81" r="12" fill="#dddddd" /><circle cx="555.08" cy="367.44" r="12" fill="#333333" /><circle cx="555.08" cy="418.06" r="12" fill="#333333" /><circle cx="555.08" cy="468.69" r="12" fill="#dddddd" /><line x1="601.92" y1="418.06" x2="601.92" y2="468.69" stroke="#333333" stroke-width="6" /><circle cx="601.92" cy="316.81" r="12" fill="#dddddd" /><circle cx="601.92" cy="367.44" r="12" fill="#dddddd" /><circle cx="601.92" cy="418.06" r="12" fill="#333333" /><circle cx="601.92" cy="468.69" r="12" fill="#333333" /><circle cx="648.78" cy="316.81" r="12" fill="#dddddd" /><circle cx="648.78" cy="367.44" r="12" fill="#dddddd" /><circle cx="648.78" cy="418.06" r="12" fill="#dddddd" /><circle cx="648.78" cy="468.69" r="12" fill="#333333" /></svg>