<svg xmlns="http://www.w3.org/2000/svg" width="673.4" height="545" font-family="DejaVu Sans, Liberation Sans, Arial, sans-serif" fill="black"><rect width="100%" height="100%" fill="white" /><text x="359" y="22" font-size="18" text-anchor="middle">DEG Overlap — Sorted by Degree</text><line x1="167" y1="291.5" x2="167" y2="494" stroke="#000000" stroke-width="1" /><line x1="59" y1="494" x2="167" y2="494" stroke="#000000" stroke-width="1" /><rect x="59" y="304.81" width="108" height="24" fill="#1d4ed8" /><text x="170" y="321.01" font-size="12" text-anchor="start">40</text><rect x="72.5" y="355.44" width="94.5" height="24" fill="#1d4ed8" /><text x="170" y="371.64" font-size="12" text-anchor="start">35</text><rect x="91.4" y="406.06" width="75.60000000000001" height="24" fill="#1d4ed8" /><text x="170" y="422.26" font-size="12" text-anchor="start">28</text><rect x="96.8" y="456.69" width="70.2" height="24" fill="#1d4ed8" /><text x="170" y="472.89" font-size="12" text-anchor="start">26</text><text x="113" y="275.5" font-size="14" text-anchor="middle">Set size</text><text x="279.2" y="321.01" font-size="12" text-anchor="end">Condition A</text><text x="279.2" y="371.64" font-size="12" text-anchor="end">Condition B</text><text x="279.2" y="422.26" font-size="12" text-anchor="end">Condition C</text><text x="279.2" y="472.89" font-size="12" text-anchor="end">Condition D</text><line x1="284.2" y1="58" x2="284.2" y2="286.5" stroke="#000000" stroke-width="1" /><line x1="284.2" y1="286.5" x2="659" y2="286.5" stroke="#000000" stroke-width="1" /><line x1="280.2" y1="286.5" x2="284.2" y2="286.5" stroke="#000000" stroke-width="1" /><text x="277.2" y="290.7" font-size="12" text-anchor="end">0</text><line x1="280.2" y1="229.38" x2="284.2" y2="229.38" stroke="#000000" stroke-width="1" /><text x="277.2" y="233.58" font-size="12" text-anchor="end">3</text><line x1="280.2" y1="172.25" x2="284.2" y2="172.25" stroke="#000000" stroke-width="1" /><text x="277.2" y="176.45000000000002" font-size="12" text-anchor="end">6</text><line x1="280.2" y1="115.13" x2="284.2" y2="115.13" stroke="#000000" stroke-width="1" /><text x="277.2" y="119.33" font-size="12" text-anchor="end">8</text><line x1="280.2" y1="58" x2="284.2" y2="58" stroke="#000000" stroke-width="1" /><text x="277.2" y="62.2" font-size="12" text-anchor="end">11</text><text x="240.20000000000002" y="172.25" font-size="14" text-anchor="middle" transform="rotate(-90,240.20000000000002,172.25)">Intersection size</text><rect x="293.57" y="58" width="28.11" height="228.5" fill="#1d4ed8" /><text x="307.63" y="56" font-size="12" text-anchor="middle">11</text><rect x="340.42" y="78.77" width="28.11" height="207.73000000000002" fill="#1d4ed8" /><text x="354.48" y="76.77" font-size="12" text-anchor="middle">10</text><rect x="387.27" y="78.77" width="28.11" height="207.73000000000002" fill="#1d4ed8" /><text x="401.33" y="76.77" font-size="12" text-anchor="middle">10</text><rect x="434.12" y="78.77" width="28.11" height="207.73000000000002" fill="#1d4ed8" /><text x="448.17" y="76.77" font-size="12" text-anchor="middle">10</text><rect x="480.97" y="203.41" width="28.11" height="83.09" fill="#1d4ed8" /><text x="495.03000000000003" y="201.41" font-size="12" text-anchor="middle">4</text><rect x="527.82" y="224.18" width="28.11" height="62.32" fill="#1d4ed8" /><text x="541.88" y="222.18" font-size="12" text-anchor="middle">3</text><rect x="574.67" y="78.77" width="28.11" height="207.73000000000002" fill="#1d4ed8" /><text x="588.73" y="76.77" font-size="12" text-anchor="middle">10</text><rect x="621.52" y="244.95000000000002" width="28.11" height="41.550000000000004" fill="#1d4ed8" /><text x="635.58" y="242.95000000000002" font-size="12" text-anchor="middle">2</text><line x1="284.2" y1="291.5" x2="659" y2="291.5" stroke="#cccccc" stroke-width="0.5" /><line x1="284.2" y1="342.13" x2="659" y2="342.13" stroke="#cccccc" stroke-width="0.5" /><line x1="284.2" y1="392.75" x2="659" y2="392.75" stroke="#cccccc" stroke-width="0.5" /><line x1="284.2" y1="443.38" x2="659" y2="443.38" stroke="#cccccc" stroke-width="0.5" /><line x1="284.2" y1="494" x2="659" y2="494" stroke="#cccccc" stroke-width="0.5" /><line x1="307.63" y1="367.44" x2="307.63" y2="468.69" stroke="#1e3a8a" stroke-width="6" /><circle cx="307.63" cy="316.81" r="12" fill="#dddddd" /><circle cx="307.63" cy="367.44" r="12" fill="#1e3a8a" /><circle cx="307.63" cy="418.06" r="12" fill="#1e3a8a" /><circle cx="307.63" cy="468.69" r="12" fill="#1e3a8a" /><line x1="354.48" y1="316.81" x2="354.48" y2="418.06" stroke="#1e3a8a" stroke-width="6" /><circle cx="354.48" cy="316.81" r="12" fill="#1e3a8a" /><circle cx="354.48" cy="367.44" r="12" fill="#1e3a8a" /><circle cx="354.48" cy="418.06" r="12" fill="#1e3a8a" /><circle cx="354.48" cy="468.69" r="12" fill="#dddddd" /><line x1="401.33" y1="316.81" x2="401.33" y2="367.44" stroke="#1e3a8a" stroke-width="6" /><circle cx="401.33" cy="316.81" r="12" fill="#1e3a8a" /><circle cx="401.33" cy="367.44" r="12" fill="#1e3a8a" /><circle cx="401.33" cy="418.06" r="12" fill="#dddddd" /><circle cx="401.33" cy="468.69" r="12" fill="#dddddd" /><line x1="448.17" y1="316.81" x2="448.17" y2="468.69" stroke="#1e3a8a" stroke-width="6" /><circle cx="448.17" cy="316.81" r="12" fill="#1e3a8a" /><circle cx="448.17" cy="367.44" r="12" fill="#dddddd" /><circle cx="448.17" cy="418.06" r="12" fill="#dddddd" /><circle cx="448.17" cy="468.69" r="12" fill="#1e3a8a" /><line x1="495.03000000000003" y1="367.44" x2="495.03000000000003" y2="418.06" stroke="#1e3a8a" stroke-width="6" /><circle cx="495.03000000000003" cy="316.81" r="12" fill="#dddddd" /><circle cx="495.03000000000003" cy="367.44" r="12" fill="#1e3a8a" /><circle cx="495.03000000000003" cy="418.06" r="12" fill="#1e3a8a" /><circle cx="495.03000000000003" cy="468.69" r="12" fill="#dddddd" /><line x1="541.88" y1="418.06" x2="541.88" y2="468.69" stroke="#1e3a8a" stroke-width="6" /><circle cx="541.88" cy="316.81" r="12" fill="#dddddd" /><circle cx="541.88" cy="367.44" r="12" fill="#dddddd" /><circle cx="541.88" cy="418.06" r="12" fill="#1e3a8a" /><circle cx="541.88" cy="468.69" r="12" fill="#1e3a8a" /><circle cx="588.73" cy="316.81" r="12" fill="#1e3a8a" /><circle cx="588.73" cy="367.44" r="12" fill="#dddddd" /><circle cx="588.73" cy="418.06" r="12" fill="#dddddd" /><circle cx="588.73" cy="468.69" r="12" fill="#dddddd" /><circle cx="635.58" cy="316.81" r="12" fill="#dddddd" /><circle cx="635.58" cy="367.44" r="12" fill="#dddddd" /><circle cx="635.58" cy="418.06" r="12" fill="#dddddd" /><circle cx="635.58" cy="468.69" r="12" fill="#1e3a8a" /></svg>