<svg xmlns="http://www.w3.org/2000/svg" width="673.4" height="545" font-family="DejaVu Sans, Liberation Sans, Arial, sans-serif" fill="black"><rect width="100%" height="100%" fill="white" /><text x="336.7" y="27.400000000000002" font-size="18" text-anchor="middle">Variant Calls by Pipeline (top 5 intersections)</text><text x="128.8" y="329.45" font-size="12" text-anchor="end">GATK</text><text x="128.8" y="396.95" font-size="12" text-anchor="end">FreeBayes</text><text x="128.8" y="464.45" font-size="12" text-anchor="end">Strelka</text><line x1="133.8" y1="58" x2="133.8" y2="286.5" stroke="#000000" stroke-width="1" /><line x1="133.8" y1="286.5" x2="659" y2="286.5" stroke="#000000" stroke-width="1" /><line x1="129.8" y1="286.5" x2="133.8" y2="286.5" stroke="#000000" stroke-width="1" /><text x="126.8" y="290.7" font-size="12" text-anchor="end">0</text><line x1="129.8" y1="229.38" x2="133.8" y2="229.38" stroke="#000000" stroke-width="1" /><text x="126.8" y="233.58" font-size="12" text-anchor="end">30</text><line x1="129.8" y1="172.25" x2="133.8" y2="172.25" stroke="#000000" stroke-width="1" /><text x="126.8" y="176.45000000000002" font-size="12" text-anchor="end">59</text><line x1="129.8" y1="115.13" x2="133.8" y2="115.13" stroke="#000000" stroke-width="1" /><text x="126.8" y="119.33" font-size="12" text-anchor="end">89</text><line x1="129.8" y1="58" x2="133.8" y2="58" stroke="#000000" stroke-width="1" /><text x="126.8" y="62.2" font-size="12" text-anchor="end">118</text><text x="89.8" y="172.25" font-size="14" text-anchor="middle" transform="rotate(-90,89.8,172.25)">Intersection size</text><rect x="154.81" y="58" width="63.02" height="228.5" fill="#333333" /><text x="186.32" y="56" font-size="12" text-anchor="middle">118</text><rect x="259.85" y="166.44" width="63.02" height="120.06" fill="#333333" /><text x="291.36" y="164.44" font-size="12" text-anchor="middle">62</text><rect x="364.89" y="180" width="63.02" height="106.5" fill="#333333" /><text x="396.40000000000003" y="178" font-size="12" text-anchor="middle">55</text><rect x="469.93" y="193.55" width="63.02" height="92.95" fill="#333333" /><text x="501.44" y="191.55" font-size="12" text-anchor="middle">48</text><rect x="574.97" y="199.36" width="63.02" height="87.14" fill="#333333" /><text x="606.48" y="197.36" font-size="12" text-anchor="middle">45</text><line x1="133.8" y1="291.5" x2="659" y2="291.5" stroke="#cccccc" stroke-width="0.5" /><line x1="133.8" y1="359" x2="659" y2="359" stroke="#cccccc" stroke-width="0.5" /><line x1="133.8" y1="426.5" x2="659" y2="426.5" stroke="#cccccc" stroke-width="0.5" /><line x1="133.8" y1="494" x2="659" y2="494" stroke="#cccccc" stroke-width="0.5" /><line x1="186.32" y1="325.25" x2="186.32" y2="460.25" stroke="#333333" stroke-width="6" /><circle cx="186.32" cy="325.25" r="12" fill="#333333" /><circle cx="186.32" cy="392.75" r="12" fill="#333333" /><circle cx="186.32" cy="460.25" r="12" fill="#333333" /><line x1="291.36" y1="325.25" x2="291.36" y2="392.75" stroke="#333333" stroke-width="6" /><circle cx="291.36" cy="325.25" r="12" fill="#333333" /><circle cx="291.36" cy="392.75" r="12" fill="#333333" /><circle cx="291.36" cy="460.25" r="12" fill="#dddddd" /><line x1="396.40000000000003" y1="325.25" x2="396.40000000000003" y2="460.25" stroke="#333333" stroke-width="6" /><circle cx="396.40000000000003" cy="325.25" r="12" fill="#333333" /><circle cx="396.40000000000003" cy="392.75" r="12" fill="#dddddd" /><circle cx="396.40000000000003" cy="460.25" r="12" fill="#333333" /><line x1="501.44" y1="392.75" x2="501.44" y2="460.25" stroke="#333333" stroke-width="6" /><circle cx="501.44" cy="325.25" r="12" fill="#dddddd" /><circle cx="501.44" cy="392.75" r="12" fill="#333333" /><circle cx="501.44" cy="460.25" r="12" fill="#333333" /><circle cx="606.48" cy="325.25" r="12" fill="#333333" /><circle cx="606.48" cy="392.75" r="12" fill="#dddddd" /><circle cx="606.48" cy="460.25" r="12" fill="#dddddd" /></svg>