<svg xmlns="http://www.w3.org/2000/svg" width="769.4" height="545" font-family="DejaVu Sans, Liberation Sans, Arial, sans-serif" fill="black"><rect width="100%" height="100%" fill="white" /><defs><clipPath id="kuva-clip-5"><rect x="59" y="44" width="600" height="450"/></clipPath></defs><line x1="144.71" y1="44" x2="144.71" y2="494" stroke="#cccccc" stroke-width="1" /><line x1="230.43" y1="44" x2="230.43" y2="494" stroke="#cccccc" stroke-width="1" /><line x1="316.14" y1="44" x2="316.14" y2="494" stroke="#cccccc" stroke-width="1" /><line x1="401.86" y1="44" x2="401.86" y2="494" stroke="#cccccc" stroke-width="1" /><line x1="487.57" y1="44" x2="487.57" y2="494" stroke="#cccccc" stroke-width="1" /><line x1="573.29" y1="44" x2="573.29" y2="494" stroke="#cccccc" stroke-width="1" /><line x1="659" y1="44" x2="659" y2="494" stroke="#cccccc" stroke-width="1" /><line x1="59" y1="419" x2="659" y2="419" stroke="#cccccc" stroke-width="1" /><line x1="59" y1="344" x2="659" y2="344" stroke="#cccccc" stroke-width="1" /><line x1="59" y1="269" x2="659" y2="269" stroke="#cccccc" stroke-width="1" /><line x1="59" y1="194" x2="659" y2="194" stroke="#cccccc" stroke-width="1" /><line x1="59" y1="119" x2="659" y2="119" stroke="#cccccc" stroke-width="1" /><line x1="59" y1="44" x2="659" y2="44" stroke="#cccccc" stroke-width="1" /><line x1="59" y1="494" x2="659" y2="494" stroke="#000000" stroke-width="1" /><line x1="59" y1="44" x2="59" y2="494" stroke="#000000" stroke-width="1" /><line x1="59" y1="494" x2="59" y2="499" stroke="#000000" stroke-width="1" /><text x="59" y="511" font-size="12" text-anchor="middle">0</text><line x1="144.71" y1="494" x2="144.71" y2="499" stroke="#000000" stroke-width="1" /><text x="144.71" y="511" font-size="12" text-anchor="middle">0.5</text><line x1="230.43" y1="494" x2="230.43" y2="499" stroke="#000000" stroke-width="1" /><text x="230.43" y="511" font-size="12" text-anchor="middle">1</text><line x1="316.14" y1="494" x2="316.14" y2="499" stroke="#000000" stroke-width="1" /><text x="316.14" y="511" font-size="12" text-anchor="middle">1.5</text><line x1="401.86" y1="494" x2="401.86" y2="499" stroke="#000000" stroke-width="1" /><text x="401.86" y="511" font-size="12" text-anchor="middle">2</text><line x1="487.57" y1="494" x2="487.57" y2="499" stroke="#000000" stroke-width="1" /><text x="487.57" y="511" font-size="12" text-anchor="middle">2.5</text><line x1="573.29" y1="494" x2="573.29" y2="499" stroke="#000000" stroke-width="1" /><text x="573.29" y="511" font-size="12" text-anchor="middle">3</text><line x1="659" y1="494" x2="659" y2="499" stroke="#000000" stroke-width="1" /><text x="659" y="511" font-size="12" text-anchor="middle">3.5</text><line x1="54" y1="494" x2="59" y2="494" stroke="#000000" stroke-width="1" /><text x="51" y="498.2" font-size="12" text-anchor="end">0</text><line x1="54" y1="419" x2="59" y2="419" stroke="#000000" stroke-width="1" /><text x="51" y="423.2" font-size="12" text-anchor="end">0.5</text><line x1="54" y1="344" x2="59" y2="344" stroke="#000000" stroke-width="1" /><text x="51" y="348.2" font-size="12" text-anchor="end">1</text><line x1="54" y1="269" x2="59" y2="269" stroke="#000000" stroke-width="1" /><text x="51" y="273.2" font-size="12" text-anchor="end">1.5</text><line x1="54" y1="194" x2="59" y2="194" stroke="#000000" stroke-width="1" /><text x="51" y="198.20000000000002" font-size="12" text-anchor="end">2</text><line x1="54" y1="119" x2="59" y2="119" stroke="#000000" stroke-width="1" /><text x="51" y="123.2" font-size="12" text-anchor="end">2.5</text><line x1="54" y1="44" x2="59" y2="44" stroke="#000000" stroke-width="1" /><text x="51" y="48.2" font-size="12" text-anchor="end">3</text><text x="359" y="538" font-size="14" text-anchor="middle">Expected −log₁₀(p)</text><text x="15" y="272.5" font-size="14" text-anchor="middle" transform="rotate(-90,15,272.5)">Observed −log₁₀(p)</text><text x="384.7" y="27.400000000000002" font-size="18" text-anchor="middle">Multi-study Genomic Q-Q</text><g clip-path="url(#kuva-clip-5)"><path d="M 573.29,-44506 L 491.49,-44506 L 453.46000000000004,-44506 L 428.41,-61.26 L 409.7,60.31 L 394.76,102.65 L 382.32,129.3 L 371.67,148.88 L 362.35,164.37 L 354.07,177.18 L 346.62,188.12 L 339.85,197.65 L 333.64,206.1 L 327.91,213.68 L 322.59000000000003,220.55 L 317.62,226.84 L 312.97,232.63 L 308.59000000000003,238 L 304.45,242.99 L 300.53000000000003,247.67000000000002 L 296.81,252.07 L 293.26,256.22 L 289.88,260.14 L 286.64,263.86 L 283.54,267.39 L 280.56,270.77 L 277.7,273.99 L 274.94,277.07 L 272.28000000000003,280.03000000000003 L 269.71,282.87 L 267.23,285.6 L 264.83,288.23 L 262.5,290.77 L 260.24,293.22 L 258.05,295.59000000000003 L 255.93,297.88 L 253.86,300.1 L 251.85,302.26 L 249.89000000000001,304.35 L 247.98000000000002,306.38 L 246.12,308.35 L 244.3,310.27 L 242.53,312.15000000000003 L 240.8,313.97 L 239.1,315.74 L 237.45000000000002,317.48 L 235.83,319.17 L 234.25,320.82 L 232.70000000000002,322.44 L 231.18,324.01 L 229.69,325.56 L 228.23000000000002,327.07 L 226.8,328.55 L 225.39000000000001,330 L 224.01,331.42 L 222.66,332.81 L 221.33,334.17 L 220.02,335.51 L 218.74,336.82 L 217.48000000000002,338.11 L 216.24,339.38 L 215.02,340.62 L 213.82,341.84000000000003 L 212.63,343.04 L 211.47,344.23 L 210.32,345.39 L 209.20000000000002,346.53000000000003 L 208.09,347.65000000000003 L 206.99,348.76 L 205.91,349.85 L 204.85,350.92 L 203.8,351.98 L 202.77,353.02 L 201.75,354.04 L 200.74,355.05 L 199.75,356.05 L 198.77,357.03000000000003 L 197.8,358 L 196.85,358.95 L 195.9,359.90000000000003 L 194.97,360.83 L 194.05,361.74 L 193.15,362.65000000000003 L 192.25,363.54 L 191.36,364.43 L 190.49,365.3 L 189.62,366.16 L 188.76,367.01 L 187.92000000000002,367.85 L 187.08,368.68 L 186.26,369.5 L 185.44,370.31 L 184.63,371.11 L 183.83,371.90000000000003 L 183.04,372.69 L 182.25,373.46 L 181.48,374.23 L 180.71,374.99 L 179.95000000000002,375.74 L 179.20000000000002,376.48 L 178.45000000000002,377.21 L 177.71,377.94 L 176.99,378.66 L 176.26,379.37 L 175.55,380.07 L 174.84,380.77 L 174.13,381.46 L 173.44,382.14 L 172.75,382.82 L 172.07,383.49 L 171.39000000000001,384.16 L 170.72,384.81 L 170.05,385.46000000000004 L 169.4,386.11 L 168.74,386.75 L 168.1,387.38 L 167.45000000000002,388.01 L 166.82,388.63 L 166.19,389.25 L 165.56,389.86 L 164.94,390.47 L 164.32,391.07 L 163.71,391.67 L 163.11,392.26 L 162.51,392.84000000000003 L 161.91,393.42 L 161.32,394 L 160.74,394.57 L 160.15,395.14 L 159.58,395.7 L 159,396.26 L 158.44,396.81 L 157.87,397.36 L 157.31,397.90000000000003 L 156.76,398.44 L 156.21,398.98 L 155.66,399.51 L 155.11,400.04 L 154.57,400.56 L 154.04,401.08 L 153.51,401.6 L 152.98,402.11 L 152.46,402.62 L 151.93,403.12 L 151.42000000000002,403.63 L 150.9,404.12 L 150.39000000000001,404.62 L 149.89000000000001,405.11 L 149.38,405.6 L 148.88,406.08 L 148.39000000000001,406.56 L 147.9,407.04 L 147.41,407.51 L 146.92000000000002,407.98 L 146.44,408.45 L 145.96,408.91 L 145.48,409.38 L 145,409.83 L 144.53,410.29 L 144.06,410.74 L 143.6,411.19 L 143.14000000000001,411.64 L 142.68,412.08 L 142.22,412.52 L 141.77,412.96000000000004 L 141.32,413.40000000000003 L 140.87,413.83 L 140.42000000000002,414.26 L 139.98,414.69 L 139.54,415.11 L 139.1,415.53000000000003 L 138.66,415.95 L 138.23,416.37 L 137.8,416.78000000000003 L 137.37,417.2 L 136.95000000000002,417.61 L 136.52,418.01 L 136.1,418.42 L 135.69,418.82 L 135.27,419.22 L 134.86,419.62 L 134.44,420.02 L 134.04,420.41 L 133.63,420.8 L 133.22,421.19 L 132.82,421.58 L 132.42000000000002,421.96000000000004 L 132.02,422.35 L 131.63,422.73 L 131.23,423.11 L 130.84,423.48 L 130.45,423.86 L 130.06,424.23 L 129.68,424.6 L 129.29,424.97 L 128.91,425.34000000000003 L 128.53,425.7 L 128.15,426.06 L 127.78,426.42 L 127.4,426.78000000000003 L 127.03,427.14 L 126.66,427.5 L 126.29,427.85 L 125.93,428.2 L 125.56,428.55 L 125.2,428.90000000000003 L 124.84,429.25 L 124.48,429.59000000000003 L 124.12,429.94 L 123.76,430.28000000000003 L 123.41,430.62 L 123.06,430.96000000000004 L 122.7,431.29 L 122.36,431.63 L 122.01,431.96000000000004 L 121.66,432.29 L 121.32000000000001,432.62 L 120.97,432.95 L 120.63,433.28000000000003 L 120.29,433.61 L 119.95,433.93 L 119.62,434.25 L 119.28,434.57 L 118.95,434.89 L 118.61,435.21000000000004 L 118.28,435.53000000000003 L 117.95,435.85 L 117.63,436.16 L 117.3,436.47 L 116.97,436.78000000000003 L 116.65,437.09000000000003 L 116.33,437.40000000000003 L 116.01,437.71000000000004 L 115.69,438.02 L 115.37,438.32 L 115.05,438.62 L 114.74000000000001,438.93 L 114.42,439.23 L 114.11,439.53000000000003 L 113.8,439.82 L 113.49000000000001,440.12 L 113.18,440.42 L 112.87,440.71000000000004 L 112.57000000000001,441 L 112.26,441.3 L 111.96000000000001,441.59000000000003 L 111.65,441.88 L 111.35000000000001,442.17 L 111.05,442.45 L 110.75,442.74 L 110.46000000000001,443.02 L 110.16,443.31 L 109.86,443.59000000000003 L 109.57000000000001,443.87 L 109.28,444.15000000000003 L 108.98,444.43 L 108.69,444.71000000000004 L 108.4,444.99 L 108.12,445.26 L 107.83,445.54 L 107.54,445.81 L 107.26,446.09000000000003 L 106.97,446.36 L 106.69,446.63 L 106.41,446.90000000000003 L 106.13,447.17 L 105.85000000000001,447.43 L 105.57000000000001,447.7 L 105.29,447.97 L 105.01,448.23 L 104.74000000000001,448.5 L 104.46000000000001,448.76 L 104.19,449.02 L 103.92,449.28000000000003 L 103.64,449.54 L 103.37,449.8 L 103.10000000000001,450.06 L 102.84,450.32 L 102.57000000000001,450.57 L 102.3,450.83 L 102.03,451.08 L 101.77,451.34000000000003 L 101.51,451.59000000000003 L 101.24000000000001,451.84000000000003 L 100.98,452.09000000000003 L 100.72,452.34000000000003 L 100.46000000000001,452.59000000000003 L 100.2,452.84000000000003 L 99.94,453.09000000000003 L 99.68,453.33 L 99.43,453.58 L 99.17,453.82 L 98.92,454.07 L 98.66,454.31 L 98.41,454.55 L 98.16,454.79 L 97.9,455.03000000000003 L 97.65,455.27 L 97.4,455.51 L 97.16,455.75 L 96.91,455.99 L 96.66,456.23 L 96.41,456.46000000000004 L 96.17,456.7 L 95.92,456.93 L 95.68,457.17 L 95.44,457.40000000000003 L 95.19,457.63 L 94.95,457.86 L 94.71000000000001,458.09000000000003 L 94.47,458.32 L 94.23,458.55 L 93.99,458.78000000000003 L 93.75,459.01 L 93.52,459.24 L 93.28,459.46000000000004 L 93.05,459.69 L 92.81,459.92 L 92.58,460.14 L 92.34,460.36 L 92.11,460.59000000000003 L 91.88,460.81 L 91.65,461.03000000000003 L 91.42,461.25 L 91.19,461.47 L 90.96000000000001,461.69 L 90.73,461.91 L 90.5,462.13 L 90.27,462.35 L 90.05,462.56 L 89.82000000000001,462.78000000000003 L 89.60000000000001,463 L 89.37,463.21000000000004 L 89.15,463.43 L 88.93,463.64 L 88.7,463.85 L 88.48,464.07 L 88.26,464.28000000000003 L 88.04,464.49 L 87.82000000000001,464.7 L 87.60000000000001,464.91 L 87.39,465.12 L 87.17,465.33 L 86.95,465.54 L 86.73,465.75 L 86.52,465.96000000000004 L 86.3,466.16 L 86.09,466.37 L 85.87,466.57 L 85.66,466.78000000000003 L 85.45,466.98 L 85.24,467.19 L 85.02,467.39 L 84.81,467.59000000000003 L 84.60000000000001,467.8 L 84.39,468 L 84.18,468.2 L 83.98,468.40000000000003 L 83.77,468.6 L 83.56,468.8 L 83.35000000000001,469 L 83.15,469.2 L 82.94,469.40000000000003 L 82.74,469.6 L 82.53,469.79 L 82.33,469.99 L 82.13,470.19 L 81.92,470.38 L 81.72,470.58 L 81.52,470.77 L 81.32000000000001,470.97 L 81.12,471.16 L 80.92,471.35 L 80.72,471.55 L 80.52,471.74 L 80.32000000000001,471.93 L 80.12,472.12 L 79.92,472.31 L 79.73,472.5 L 79.53,472.69 L 79.33,472.88 L 79.14,473.07 L 78.94,473.26 L 78.75,473.45 L 78.56,473.64 L 78.36,473.83 L 78.17,474.01 L 77.98,474.2 L 77.78,474.38 L 77.59,474.57 L 77.4,474.76 L 77.21000000000001,474.94 L 77.02,475.13 L 76.83,475.31 L 76.64,475.49 L 76.46000000000001,475.68 L 76.27,475.86 L 76.08,476.04 L 75.89,476.22 L 75.71000000000001,476.40000000000003 L 75.52,476.59000000000003 L 75.33,476.77 L 75.15,476.95 L 74.96000000000001,477.13 L 74.78,477.31 L 74.60000000000001,477.49 L 74.41,477.67 L 74.23,477.84000000000003 L 74.05,478.02 L 73.87,478.2 L 73.68,478.38 L 73.5,478.55 L 73.32000000000001,478.73 L 73.14,478.91 L 72.96000000000001,479.08 L 72.78,479.26 L 72.60000000000001,479.44 L 72.43,479.61 L 72.25,479.79 L 72.07000000000001,479.96000000000004 L 71.89,480.13 L 71.72,480.31 L 71.54,480.48 L 71.36,480.65000000000003 L 71.19,480.83 L 71.01,481 L 70.84,481.17 L 70.66,481.34000000000003 L 70.49,481.52 L 70.32000000000001,481.69 L 70.14,481.86 L 69.97,482.03000000000003 L 69.8,482.2 L 69.63,482.37 L 69.45,482.54 L 69.28,482.71000000000004 L 69.11,482.88 L 68.94,483.05 L 68.77,483.22 L 68.60000000000001,483.39 L 68.43,483.55 L 68.26,483.72 L 68.1,483.89 L 67.93,484.06 L 67.76,484.22 L 67.59,484.39 L 67.43,484.56 L 67.26,484.73 L 67.09,484.89 L 66.93,485.06 L 66.76,485.23 L 66.6,485.39 L 66.43,485.56 L 66.27,485.72 L 66.1,485.89 L 65.94,486.05 L 65.78,486.22 L 65.61,486.38 L 65.45,486.55 L 65.29,486.71000000000004 L 65.13,486.88 L 64.97,487.04 L 64.8,487.21000000000004 L 64.64,487.37 L 64.48,487.54 L 64.32000000000001,487.7 L 64.16,487.87 L 64,488.03000000000003 L 63.84,488.19 L 63.690000000000005,488.36 L 63.53,488.52 L 63.370000000000005,488.69 L 63.21,488.85 L 63.050000000000004,489.02 L 62.9,489.18 L 62.74,489.35 L 62.58,489.51 L 62.43,489.68 L 62.27,489.84000000000003 L 62.120000000000005,490.01 L 61.96,490.17 L 61.81,490.34000000000003 L 61.65,490.51 L 61.5,490.67 L 61.34,490.84000000000003 L 61.19,491.01 L 61.04,491.18 L 60.88,491.35 L 60.730000000000004,491.52 L 60.58,491.69 L 60.43,491.87 L 60.28,492.04 L 60.13,492.22 L 59.97,492.40000000000003 L 59.82,492.58 L 59.67,492.77000000000004 L 59.52,492.96000000000004 L 59.370000000000005,493.16 L 59.22,493.38 L 59.07,493.61 L 59.07,494 L 59.22,494 L 59.370000000000005,494 L 59.52,493.99 L 59.67,493.92 L 59.82,493.84000000000003 L 59.97,493.76 L 60.13,493.67 L 60.28,493.59000000000003 L 60.43,493.49 L 60.58,493.40000000000003 L 60.730000000000004,493.31 L 60.88,493.21000000000004 L 61.04,493.11 L 61.19,493.01 L 61.34,492.91 L 61.5,492.81 L 61.65,492.71000000000004 L 61.81,492.6 L 61.96,492.5 L 62.120000000000005,492.39 L 62.27,492.28000000000003 L 62.43,492.18 L 62.58,492.07 L 62.74,491.96000000000004 L 62.9,491.85 L 63.050000000000004,491.74 L 63.21,491.63 L 63.370000000000005,491.51 L 63.53,491.40000000000003 L 63.690000000000005,491.29 L 63.84,491.17 L 64,491.06 L 64.16,490.94 L 64.32000000000001,490.83 L 64.48,490.71000000000004 L 64.64,490.59000000000003 L 64.8,490.47 L 64.97,490.36 L 65.13,490.24 L 65.29,490.12 L 65.45,490 L 65.61,489.88 L 65.78,489.76 L 65.94,489.64 L 66.1,489.51 L 66.27,489.39 L 66.43,489.27 L 66.6,489.14 L 66.76,489.02 L 66.93,488.90000000000003 L 67.09,488.77 L 67.26,488.65000000000003 L 67.43,488.52 L 67.59,488.40000000000003 L 67.76,488.27 L 67.93,488.14 L 68.1,488.01 L 68.26,487.89 L 68.43,487.76 L 68.60000000000001,487.63 L 68.77,487.5 L 68.94,487.37 L 69.11,487.24 L 69.28,487.11 L 69.45,486.98 L 69.63,486.85 L 69.8,486.72 L 69.97,486.59000000000003 L 70.14,486.45 L 70.32000000000001,486.32 L 70.49,486.19 L 70.66,486.05 L 70.84,485.92 L 71.01,485.78000000000003 L 71.19,485.65000000000003 L 71.36,485.51 L 71.54,485.38 L 71.72,485.24 L 71.89,485.1 L 72.07000000000001,484.97 L 72.25,484.83 L 72.43,484.69 L 72.60000000000001,484.55 L 72.78,484.41 L 72.96000000000001,484.28000000000003 L 73.14,484.14 L 73.32000000000001,484 L 73.5,483.86 L 73.68,483.71000000000004 L 73.87,483.57 L 74.05,483.43 L 74.23,483.29 L 74.41,483.15000000000003 L 74.60000000000001,483 L 74.78,482.86 L 74.96000000000001,482.72 L 75.15,482.57 L 75.33,482.43 L 75.52,482.28000000000003 L 75.71000000000001,482.14 L 75.89,481.99 L 76.08,481.84000000000003 L 76.27,481.7 L 76.46000000000001,481.55 L 76.64,481.40000000000003 L 76.83,481.25 L 77.02,481.1 L 77.21000000000001,480.96000000000004 L 77.4,480.81 L 77.59,480.66 L 77.78,480.51 L 77.98,480.35 L 78.17,480.2 L 78.36,480.05 L 78.56,479.90000000000003 L 78.75,479.75 L 78.94,479.59000000000003 L 79.14,479.44 L 79.33,479.29 L 79.53,479.13 L 79.73,478.98 L 79.92,478.82 L 80.12,478.66 L 80.32000000000001,478.51 L 80.52,478.35 L 80.72,478.19 L 80.92,478.04 L 81.12,477.88 L 81.32000000000001,477.72 L 81.52,477.56 L 81.72,477.40000000000003 L 81.92,477.24 L 82.13,477.08 L 82.33,476.92 L 82.53,476.76 L 82.74,476.6 L 82.94,476.43 L 83.15,476.27 L 83.35000000000001,476.11 L 83.56,475.94 L 83.77,475.78000000000003 L 83.98,475.61 L 84.18,475.45 L 84.39,475.28000000000003 L 84.60000000000001,475.11 L 84.81,474.95 L 85.02,474.78000000000003 L 85.24,474.61 L 85.45,474.44 L 85.66,474.27 L 85.87,474.1 L 86.09,473.93 L 86.3,473.76 L 86.52,473.59000000000003 L 86.73,473.42 L 86.95,473.25 L 87.17,473.08 L 87.39,472.90000000000003 L 87.60000000000001,472.73 L 87.82000000000001,472.55 L 88.04,472.38 L 88.26,472.2 L 88.48,472.03000000000003 L 88.7,471.85 L 88.93,471.67 L 89.15,471.5 L 89.37,471.32 L 89.60000000000001,471.14 L 89.82000000000001,470.96000000000004 L 90.05,470.78000000000003 L 90.27,470.6 L 90.5,470.42 L 90.73,470.24 L 90.96000000000001,470.05 L 91.19,469.87 L 91.42,469.69 L 91.65,469.5 L 91.88,469.32 L 92.11,469.13 L 92.34,468.95 L 92.58,468.76 L 92.81,468.57 L 93.05,468.39 L 93.28,468.2 L 93.52,468.01 L 93.75,467.82 L 93.99,467.63 L 94.23,467.44 L 94.47,467.25 L 94.71000000000001,467.05 L 94.95,466.86 L 95.19,466.67 L 95.44,466.47 L 95.68,466.28000000000003 L 95.92,466.08 L 96.17,465.89 L 96.41,465.69 L 96.66,465.49 L 96.91,465.3 L 97.16,465.1 L 97.4,464.90000000000003 L 97.65,464.7 L 97.9,464.5 L 98.16,464.3 L 98.41,464.09000000000003 L 98.66,463.89 L 98.92,463.69 L 99.17,463.48 L 99.43,463.28000000000003 L 99.68,463.07 L 99.94,462.87 L 100.2,462.66 L 100.46000000000001,462.45 L 100.72,462.24 L 100.98,462.03000000000003 L 101.24000000000001,461.82 L 101.51,461.61 L 101.77,461.40000000000003 L 102.03,461.19 L 102.3,460.97 L 102.57000000000001,460.76 L 102.84,460.54 L 103.10000000000001,460.33 L 103.37,460.11 L 103.64,459.90000000000003 L 103.92,459.68 L 104.19,459.46000000000004 L 104.46000000000001,459.24 L 104.74000000000001,459.02 L 105.01,458.8 L 105.29,458.58 L 105.57000000000001,458.35 L 105.85000000000001,458.13 L 106.13,457.90000000000003 L 106.41,457.68 L 106.69,457.45 L 106.97,457.23 L 107.26,457 L 107.54,456.77 L 107.83,456.54 L 108.12,456.31 L 108.4,456.08 L 108.69,455.84000000000003 L 108.98,455.61 L 109.28,455.38 L 109.57000000000001,455.14 L 109.86,454.90000000000003 L 110.16,454.67 L 110.46000000000001,454.43 L 110.75,454.19 L 111.05,453.95 L 111.35000000000001,453.71000000000004 L 111.65,453.47 L 111.96000000000001,453.22 L 112.26,452.98 L 112.57000000000001,452.73 L 112.87,452.49 L 113.18,452.24 L 113.49000000000001,451.99 L 113.8,451.74 L 114.11,451.49 L 114.42,451.24 L 114.74000000000001,450.99 L 115.05,450.74 L 115.37,450.48 L 115.69,450.23 L 116.01,449.97 L 116.33,449.71000000000004 L 116.65,449.45 L 116.97,449.19 L 117.3,448.93 L 117.63,448.67 L 117.95,448.41 L 118.28,448.14 L 118.61,447.88 L 118.95,447.61 L 119.28,447.34000000000003 L 119.62,447.07 L 119.95,446.8 L 120.29,446.53000000000003 L 120.63,446.26 L 120.97,445.98 L 121.32000000000001,445.71000000000004 L 121.66,445.43 L 122.01,445.15000000000003 L 122.36,444.87 L 122.7,444.59000000000003 L 123.06,444.31 L 123.41,444.03000000000003 L 123.76,443.74 L 124.12,443.46000000000004 L 124.48,443.17 L 124.84,442.88 L 125.2,442.59000000000003 L 125.56,442.3 L 125.93,442.01 L 126.29,441.71000000000004 L 126.66,441.42 L 127.03,441.12 L 127.4,440.82 L 127.78,440.52 L 128.15,440.22 L 128.53,439.91 L 128.91,439.61 L 129.29,439.3 L 129.68,439 L 130.06,438.69 L 130.45,438.38 L 130.84,438.06 L 131.23,437.75 L 131.63,437.43 L 132.02,437.11 L 132.42000000000002,436.8 L 132.82,436.47 L 133.22,436.15000000000003 L 133.63,435.83 L 134.04,435.5 L 134.44,435.17 L 134.86,434.84000000000003 L 135.27,434.51 L 135.69,434.18 L 136.1,433.84000000000003 L 136.52,433.51 L 136.95000000000002,433.17 L 137.37,432.83 L 137.8,432.48 L 138.23,432.14 L 138.66,431.79 L 139.1,431.45 L 139.54,431.09000000000003 L 139.98,430.74 L 140.42000000000002,430.39 L 140.87,430.03000000000003 L 141.32,429.67 L 141.77,429.31 L 142.22,428.95 L 142.68,428.58 L 143.14000000000001,428.21000000000004 L 143.6,427.84000000000003 L 144.06,427.47 L 144.53,427.1 L 145,426.72 L 145.48,426.34000000000003 L 145.96,425.96000000000004 L 146.44,425.58 L 146.92000000000002,425.19 L 147.41,424.8 L 147.9,424.41 L 148.39000000000001,424.02 L 148.88,423.62 L 149.38,423.22 L 149.89000000000001,422.82 L 150.39000000000001,422.41 L 150.9,422.01 L 151.42000000000002,421.6 L 151.93,421.19 L 152.46,420.77 L 152.98,420.35 L 153.51,419.93 L 154.04,419.51 L 154.57,419.08 L 155.11,418.65000000000003 L 155.66,418.22 L 156.21,417.78000000000003 L 156.76,417.34000000000003 L 157.31,416.90000000000003 L 157.87,416.45 L 158.44,416 L 159,415.55 L 159.58,415.09000000000003 L 160.15,414.64 L 160.74,414.17 L 161.32,413.71000000000004 L 161.91,413.24 L 162.51,412.76 L 163.11,412.29 L 163.71,411.8 L 164.32,411.32 L 164.94,410.83 L 165.56,410.34000000000003 L 166.19,409.84000000000003 L 166.82,409.34000000000003 L 167.45000000000002,408.84000000000003 L 168.1,408.33 L 168.74,407.81 L 169.4,407.29 L 170.05,406.77 L 170.72,406.25 L 171.39000000000001,405.71000000000004 L 172.07,405.18 L 172.75,404.64 L 173.44,404.09000000000003 L 174.13,403.54 L 174.84,402.99 L 175.55,402.42 L 176.26,401.86 L 176.99,401.29 L 177.71,400.71000000000004 L 178.45000000000002,400.13 L 179.20000000000002,399.54 L 179.95000000000002,398.95 L 180.71,398.35 L 181.48,397.74 L 182.25,397.13 L 183.04,396.51 L 183.83,395.89 L 184.63,395.26 L 185.44,394.62 L 186.26,393.98 L 187.08,393.33 L 187.92000000000002,392.67 L 188.76,392 L 189.62,391.33 L 190.49,390.65000000000003 L 191.36,389.96000000000004 L 192.25,389.27 L 193.15,388.56 L 194.05,387.85 L 194.97,387.13 L 195.9,386.40000000000003 L 196.85,385.66 L 197.8,384.92 L 198.77,384.16 L 199.75,383.40000000000003 L 200.74,382.62 L 201.75,381.83 L 202.77,381.04 L 203.8,380.23 L 204.85,379.41 L 205.91,378.59000000000003 L 206.99,377.75 L 208.09,376.89 L 209.20000000000002,376.03000000000003 L 210.32,375.15000000000003 L 211.47,374.26 L 212.63,373.36 L 213.82,372.45 L 215.02,371.52 L 216.24,370.57 L 217.48000000000002,369.61 L 218.74,368.64 L 220.02,367.64 L 221.33,366.64 L 222.66,365.61 L 224.01,364.57 L 225.39000000000001,363.51 L 226.8,362.43 L 228.23000000000002,361.33 L 229.69,360.21 L 231.18,359.07 L 232.70000000000002,357.90000000000003 L 234.25,356.72 L 235.83,355.51 L 237.45000000000002,354.27 L 239.1,353.01 L 240.8,351.72 L 242.53,350.41 L 244.3,349.06 L 246.12,347.68 L 247.98000000000002,346.27 L 249.89000000000001,344.83 L 251.85,343.35 L 253.86,341.83 L 255.93,340.28000000000003 L 258.05,338.68 L 260.24,337.04 L 262.5,335.35 L 264.83,333.61 L 267.23,331.82 L 269.71,329.98 L 272.28000000000003,328.07 L 274.94,326.11 L 277.7,324.07 L 280.56,321.96 L 283.54,319.78000000000003 L 286.64,317.51 L 289.88,315.15000000000003 L 293.26,312.69 L 296.81,310.12 L 300.53000000000003,307.43 L 304.45,304.62 L 308.59000000000003,301.66 L 312.97,298.55 L 317.62,295.25 L 322.59000000000003,291.76 L 327.91,288.05 L 333.64,284.07 L 339.85,279.8 L 346.62,275.19 L 354.07,270.17 L 362.35,264.66 L 371.67,258.54 L 382.32,251.68 L 394.76,243.84 L 409.7,234.69 L 428.41,223.67000000000002 L 453.46000000000004,209.76 L 491.49,190.71 L 573.29,159.63 Z" stroke="none" stroke-width="0" fill="#aaaaaa" fill-opacity="0.15" /><line x1="59" y1="494" x2="573.29" y2="44" stroke="#999999" stroke-width="1.5" stroke-dasharray="5,3" /><circle cx="573.29" cy="89.02" r="3" fill="#1f77b4" /><circle cx="491.49" cy="134.18" r="3" fill="#1f77b4" /><circle cx="453.46000000000004" cy="160.59" r="3" fill="#1f77b4" /><circle cx="428.41" cy="179.33" r="3" fill="#1f77b4" /><circle cx="409.7" cy="193.87" r="3" fill="#1f77b4" /><circle cx="394.76" cy="205.75" r="3" fill="#1f77b4" /><circle cx="382.32" cy="215.79" r="3" fill="#1f77b4" /><circle cx="371.67" cy="224.49" r="3" fill="#1f77b4" /><circle cx="362.35" cy="232.16" r="3" fill="#1f77b4" /><circle cx="354.07" cy="239.02" r="3" fill="#1f77b4" /><circle cx="346.62" cy="245.23000000000002" r="3" fill="#1f77b4" /><circle cx="339.85" cy="250.9" r="3" fill="#1f77b4" /><circle cx="333.64" cy="256.12" r="3" fill="#1f77b4" /><circle cx="327.91" cy="260.94" r="3" fill="#1f77b4" /><circle cx="322.59000000000003" cy="265.44" r="3" fill="#1f77b4" /><circle cx="317.62" cy="269.64" r="3" fill="#1f77b4" /><circle cx="312.97" cy="273.59000000000003" r="3" fill="#1f77b4" /><circle cx="308.59000000000003" cy="277.32" r="3" fill="#1f77b4" /><circle cx="304.45" cy="280.84000000000003" r="3" fill="#1f77b4" /><circle cx="300.53000000000003" cy="284.18" r="3" fill="#1f77b4" /><circle cx="296.81" cy="287.36" r="3" fill="#1f77b4" /><circle cx="293.26" cy="290.39" r="3" fill="#1f77b4" /><circle cx="289.88" cy="293.28000000000003" r="3" fill="#1f77b4" /><circle cx="286.64" cy="296.06" r="3" fill="#1f77b4" /><circle cx="283.54" cy="298.72" r="3" fill="#1f77b4" /><circle cx="280.56" cy="301.27" r="3" fill="#1f77b4" /><circle cx="277.7" cy="303.73" r="3" fill="#1f77b4" /><circle cx="274.94" cy="306.1" r="3" fill="#1f77b4" /><circle cx="272.28000000000003" cy="308.38" r="3" fill="#1f77b4" /><circle cx="269.71" cy="310.59000000000003" r="3" fill="#1f77b4" /><circle cx="267.23" cy="312.73" r="3" fill="#1f77b4" /><circle cx="264.83" cy="314.8" r="3" fill="#1f77b4" /><circle cx="262.5" cy="316.8" r="3" fill="#1f77b4" /><circle cx="260.24" cy="318.75" r="3" fill="#1f77b4" /><circle cx="258.05" cy="320.63" r="3" fill="#1f77b4" /><circle cx="255.93" cy="322.47" r="3" fill="#1f77b4" /><circle cx="253.86" cy="324.25" r="3" fill="#1f77b4" /><circle cx="251.85" cy="325.99" r="3" fill="#1f77b4" /><circle cx="249.89000000000001" cy="327.68" r="3" fill="#1f77b4" /><circle cx="247.98000000000002" cy="329.33" r="3" fill="#1f77b4" /><circle cx="246.12" cy="330.94" r="3" fill="#1f77b4" /><circle cx="244.3" cy="332.51" r="3" fill="#1f77b4" /><circle cx="242.53" cy="334.04" r="3" fill="#1f77b4" /><circle cx="240.8" cy="335.54" r="3" fill="#1f77b4" /><circle cx="239.1" cy="337.01" r="3" fill="#1f77b4" /><circle cx="237.45000000000002" cy="338.44" r="3" fill="#1f77b4" /><circle cx="235.83" cy="339.84000000000003" r="3" fill="#1f77b4" /><circle cx="234.25" cy="341.21" r="3" fill="#1f77b4" /><circle cx="232.70000000000002" cy="342.55" r="3" fill="#1f77b4" /><circle cx="231.18" cy="343.87" r="3" fill="#1f77b4" /><circle cx="229.69" cy="345.16" r="3" fill="#1f77b4" /><circle cx="228.23000000000002" cy="346.42" r="3" fill="#1f77b4" /><circle cx="226.8" cy="347.67" r="3" fill="#1f77b4" /><circle cx="225.39000000000001" cy="348.88" r="3" fill="#1f77b4" /><circle cx="224.01" cy="350.08" r="3" fill="#1f77b4" /><circle cx="222.66" cy="351.25" r="3" fill="#1f77b4" /><circle cx="221.33" cy="352.41" r="3" fill="#1f77b4" /><circle cx="220.02" cy="353.54" r="3" fill="#1f77b4" /><circle cx="218.74" cy="354.65000000000003" r="3" fill="#1f77b4" /><circle cx="217.48000000000002" cy="355.75" r="3" fill="#1f77b4" /><circle cx="216.24" cy="356.82" r="3" fill="#1f77b4" /><circle cx="215.02" cy="357.88" r="3" fill="#1f77b4" /><circle cx="213.82" cy="358.93" r="3" fill="#1f77b4" /><circle cx="212.63" cy="359.95" r="3" fill="#1f77b4" /><circle cx="211.47" cy="360.96" r="3" fill="#1f77b4" /><circle cx="210.32" cy="361.96" r="3" fill="#1f77b4" /><circle cx="209.20000000000002" cy="362.94" r="3" fill="#1f77b4" /><circle cx="208.09" cy="363.90000000000003" r="3" fill="#1f77b4" /><circle cx="206.99" cy="364.85" r="3" fill="#1f77b4" /><circle cx="205.91" cy="365.79" r="3" fill="#1f77b4" /><circle cx="204.85" cy="366.71" r="3" fill="#1f77b4" /><circle cx="203.8" cy="367.62" r="3" fill="#1f77b4" /><circle cx="202.77" cy="368.52" r="3" fill="#1f77b4" /><circle cx="201.75" cy="369.41" r="3" fill="#1f77b4" /><circle cx="200.74" cy="370.28000000000003" r="3" fill="#1f77b4" /><circle cx="199.75" cy="371.15000000000003" r="3" fill="#1f77b4" /><circle cx="198.77" cy="372" r="3" fill="#1f77b4" /><circle cx="197.8" cy="372.84000000000003" r="3" fill="#1f77b4" /><circle cx="196.85" cy="373.67" r="3" fill="#1f77b4" /><circle cx="195.9" cy="374.49" r="3" fill="#1f77b4" /><circle cx="194.97" cy="375.3" r="3" fill="#1f77b4" /><circle cx="194.05" cy="376.1" r="3" fill="#1f77b4" /><circle cx="193.15" cy="376.89" r="3" fill="#1f77b4" /><circle cx="192.25" cy="377.67" r="3" fill="#1f77b4" /><circle cx="191.36" cy="378.44" r="3" fill="#1f77b4" /><circle cx="190.49" cy="379.2" r="3" fill="#1f77b4" /><circle cx="189.62" cy="379.95" r="3" fill="#1f77b4" /><circle cx="188.76" cy="380.7" r="3" fill="#1f77b4" /><circle cx="187.92000000000002" cy="381.43" r="3" fill="#1f77b4" /><circle cx="187.08" cy="382.16" r="3" fill="#1f77b4" /><circle cx="186.26" cy="382.88" r="3" fill="#1f77b4" /><circle cx="185.44" cy="383.59000000000003" r="3" fill="#1f77b4" /><circle cx="184.63" cy="384.3" r="3" fill="#1f77b4" /><circle cx="183.83" cy="384.99" r="3" fill="#1f77b4" /><circle cx="183.04" cy="385.68" r="3" fill="#1f77b4" /><circle cx="182.25" cy="386.37" r="3" fill="#1f77b4" /><circle cx="181.48" cy="387.04" r="3" fill="#1f77b4" /><circle cx="180.71" cy="387.71000000000004" r="3" fill="#1f77b4" /><circle cx="179.95000000000002" cy="388.37" r="3" fill="#1f77b4" /><circle cx="179.20000000000002" cy="389.02" r="3" fill="#1f77b4" /><circle cx="178.45000000000002" cy="389.67" r="3" fill="#1f77b4" /><circle cx="177.71" cy="390.31" r="3" fill="#1f77b4" /><circle cx="176.99" cy="390.95" r="3" fill="#1f77b4" /><circle cx="176.26" cy="391.58" r="3" fill="#1f77b4" /><circle cx="175.55" cy="392.2" r="3" fill="#1f77b4" /><circle cx="174.84" cy="392.82" r="3" fill="#1f77b4" /><circle cx="174.13" cy="393.43" r="3" fill="#1f77b4" /><circle cx="173.44" cy="394.04" r="3" fill="#1f77b4" /><circle cx="172.75" cy="394.64" r="3" fill="#1f77b4" /><circle cx="172.07" cy="395.23" r="3" fill="#1f77b4" /><circle cx="171.39000000000001" cy="395.82" r="3" fill="#1f77b4" /><circle cx="170.72" cy="396.41" r="3" fill="#1f77b4" /><circle cx="170.05" cy="396.99" r="3" fill="#1f77b4" /><circle cx="169.4" cy="397.56" r="3" fill="#1f77b4" /><circle cx="168.74" cy="398.13" r="3" fill="#1f77b4" /><circle cx="168.1" cy="398.69" r="3" fill="#1f77b4" /><circle cx="167.45000000000002" cy="399.25" r="3" fill="#1f77b4" /><circle cx="166.82" cy="399.81" r="3" fill="#1f77b4" /><circle cx="166.19" cy="400.36" r="3" fill="#1f77b4" /><circle cx="165.56" cy="400.90000000000003" r="3" fill="#1f77b4" /><circle cx="164.94" cy="401.44" r="3" fill="#1f77b4" /><circle cx="164.32" cy="401.98" r="3" fill="#1f77b4" /><circle cx="163.71" cy="402.51" r="3" fill="#1f77b4" /><circle cx="163.11" cy="403.04" r="3" fill="#1f77b4" /><circle cx="162.51" cy="403.56" r="3" fill="#1f77b4" /><circle cx="161.91" cy="404.08" r="3" fill="#1f77b4" /><circle cx="161.32" cy="404.59000000000003" r="3" fill="#1f77b4" /><circle cx="160.74" cy="405.11" r="3" fill="#1f77b4" /><circle cx="160.15" cy="405.61" r="3" fill="#1f77b4" /><circle cx="159.58" cy="406.12" r="3" fill="#1f77b4" /><circle cx="159" cy="406.62" r="3" fill="#1f77b4" /><circle cx="158.44" cy="407.11" r="3" fill="#1f77b4" /><circle cx="157.87" cy="407.6" r="3" fill="#1f77b4" /><circle cx="157.31" cy="408.09000000000003" r="3" fill="#1f77b4" /><circle cx="156.76" cy="408.57" r="3" fill="#1f77b4" /><circle cx="156.21" cy="409.06" r="3" fill="#1f77b4" /><circle cx="155.66" cy="409.53000000000003" r="3" fill="#1f77b4" /><circle cx="155.11" cy="410.01" r="3" fill="#1f77b4" /><circle cx="154.57" cy="410.48" r="3" fill="#1f77b4" /><circle cx="154.04" cy="410.94" r="3" fill="#1f77b4" /><circle cx="153.51" cy="411.41" r="3" fill="#1f77b4" /><circle cx="152.98" cy="411.87" r="3" fill="#1f77b4" /><circle cx="152.46" cy="412.32" r="3" fill="#1f77b4" /><circle cx="151.93" cy="412.78000000000003" r="3" fill="#1f77b4" /><circle cx="151.42000000000002" cy="413.23" r="3" fill="#1f77b4" /><circle cx="150.9" cy="413.68" r="3" fill="#1f77b4" /><circle cx="150.39000000000001" cy="414.12" r="3" fill="#1f77b4" /><circle cx="149.89000000000001" cy="414.56" r="3" fill="#1f77b4" /><circle cx="149.38" cy="415" r="3" fill="#1f77b4" /><circle cx="148.88" cy="415.44" r="3" fill="#1f77b4" /><circle cx="148.39000000000001" cy="415.87" r="3" fill="#1f77b4" /><circle cx="147.9" cy="416.3" r="3" fill="#1f77b4" /><circle cx="147.41" cy="416.73" r="3" fill="#1f77b4" /><circle cx="146.92000000000002" cy="417.15000000000003" r="3" fill="#1f77b4" /><circle cx="146.44" cy="417.57" r="3" fill="#1f77b4" /><circle cx="145.96" cy="417.99" r="3" fill="#1f77b4" /><circle cx="145.48" cy="418.41" r="3" fill="#1f77b4" /><circle cx="145" cy="418.82" r="3" fill="#1f77b4" /><circle cx="144.53" cy="419.23" r="3" fill="#1f77b4" /><circle cx="144.06" cy="419.64" r="3" fill="#1f77b4" /><circle cx="143.6" cy="420.05" r="3" fill="#1f77b4" /><circle cx="143.14000000000001" cy="420.45" r="3" fill="#1f77b4" /><circle cx="142.68" cy="420.85" r="3" fill="#1f77b4" /><circle cx="142.22" cy="421.25" r="3" fill="#1f77b4" /><circle cx="141.77" cy="421.65000000000003" r="3" fill="#1f77b4" /><circle cx="141.32" cy="422.04" r="3" fill="#1f77b4" /><circle cx="140.87" cy="422.43" r="3" fill="#1f77b4" /><circle cx="140.42000000000002" cy="422.82" r="3" fill="#1f77b4" /><circle cx="139.98" cy="423.21000000000004" r="3" fill="#1f77b4" /><circle cx="139.54" cy="423.59000000000003" r="3" fill="#1f77b4" /><circle cx="139.1" cy="423.97" r="3" fill="#1f77b4" /><circle cx="138.66" cy="424.35" r="3" fill="#1f77b4" /><circle cx="138.23" cy="424.73" r="3" fill="#1f77b4" /><circle cx="137.8" cy="425.11" r="3" fill="#1f77b4" /><circle cx="137.37" cy="425.48" r="3" fill="#1f77b4" /><circle cx="136.95000000000002" cy="425.85" r="3" fill="#1f77b4" /><circle cx="136.52" cy="426.22" r="3" fill="#1f77b4" /><circle cx="136.1" cy="426.59000000000003" r="3" fill="#1f77b4" /><circle cx="135.69" cy="426.95" r="3" fill="#1f77b4" /><circle cx="135.27" cy="427.32" r="3" fill="#1f77b4" /><circle cx="134.86" cy="427.68" r="3" fill="#1f77b4" /><circle cx="134.44" cy="428.04" r="3" fill="#1f77b4" /><circle cx="134.04" cy="428.39" r="3" fill="#1f77b4" /><circle cx="133.63" cy="428.75" r="3" fill="#1f77b4" /><circle cx="133.22" cy="429.1" r="3" fill="#1f77b4" /><circle cx="132.82" cy="429.45" r="3" fill="#1f77b4" /><circle cx="132.42000000000002" cy="429.8" r="3" fill="#1f77b4" /><circle cx="132.02" cy="430.15000000000003" r="3" fill="#1f77b4" /><circle cx="131.63" cy="430.49" r="3" fill="#1f77b4" /><circle cx="131.23" cy="430.84000000000003" r="3" fill="#1f77b4" /><circle cx="130.84" cy="431.18" r="3" fill="#1f77b4" /><circle cx="130.45" cy="431.52" r="3" fill="#1f77b4" /><circle cx="130.06" cy="431.86" r="3" fill="#1f77b4" /><circle cx="129.68" cy="432.19" r="3" fill="#1f77b4" /><circle cx="129.29" cy="432.53000000000003" r="3" fill="#1f77b4" /><circle cx="128.91" cy="432.86" r="3" fill="#1f77b4" /><circle cx="128.53" cy="433.19" r="3" fill="#1f77b4" /><circle cx="128.15" cy="433.52" r="3" fill="#1f77b4" /><circle cx="127.78" cy="433.85" r="3" fill="#1f77b4" /><circle cx="127.4" cy="434.18" r="3" fill="#1f77b4" /><circle cx="127.03" cy="434.5" r="3" fill="#1f77b4" /><circle cx="126.66" cy="434.83" r="3" fill="#1f77b4" /><circle cx="126.29" cy="435.15000000000003" r="3" fill="#1f77b4" /><circle cx="125.93" cy="435.47" r="3" fill="#1f77b4" /><circle cx="125.56" cy="435.79" r="3" fill="#1f77b4" /><circle cx="125.2" cy="436.1" r="3" fill="#1f77b4" /><circle cx="124.84" cy="436.42" r="3" fill="#1f77b4" /><circle cx="124.48" cy="436.73" r="3" fill="#1f77b4" /><circle cx="124.12" cy="437.05" r="3" fill="#1f77b4" /><circle cx="123.76" cy="437.36" r="3" fill="#1f77b4" /><circle cx="123.41" cy="437.67" r="3" fill="#1f77b4" /><circle cx="123.06" cy="437.97" r="3" fill="#1f77b4" /><circle cx="122.7" cy="438.28000000000003" r="3" fill="#1f77b4" /><circle cx="122.36" cy="438.59000000000003" r="3" fill="#1f77b4" /><circle cx="122.01" cy="438.89" r="3" fill="#1f77b4" /><circle cx="121.66" cy="439.19" r="3" fill="#1f77b4" /><circle cx="121.32000000000001" cy="439.49" r="3" fill="#1f77b4" /><circle cx="120.97" cy="439.79" r="3" fill="#1f77b4" /><circle cx="120.63" cy="440.09000000000003" r="3" fill="#1f77b4" /><circle cx="120.29" cy="440.39" r="3" fill="#1f77b4" /><circle cx="119.95" cy="440.68" r="3" fill="#1f77b4" /><circle cx="119.62" cy="440.98" r="3" fill="#1f77b4" /><circle cx="119.28" cy="441.27" r="3" fill="#1f77b4" /><circle cx="118.95" cy="441.56" r="3" fill="#1f77b4" /><circle cx="118.61" cy="441.85" r="3" fill="#1f77b4" /><circle cx="118.28" cy="442.14" r="3" fill="#1f77b4" /><circle cx="117.95" cy="442.43" r="3" fill="#1f77b4" /><circle cx="117.63" cy="442.71000000000004" r="3" fill="#1f77b4" /><circle cx="117.3" cy="443" r="3" fill="#1f77b4" /><circle cx="116.97" cy="443.28000000000003" r="3" fill="#1f77b4" /><circle cx="116.65" cy="443.57" r="3" fill="#1f77b4" /><circle cx="116.33" cy="443.85" r="3" fill="#1f77b4" /><circle cx="116.01" cy="444.13" r="3" fill="#1f77b4" /><circle cx="115.69" cy="444.41" r="3" fill="#1f77b4" /><circle cx="115.37" cy="444.68" r="3" fill="#1f77b4" /><circle cx="115.05" cy="444.96000000000004" r="3" fill="#1f77b4" /><circle cx="114.74000000000001" cy="445.24" r="3" fill="#1f77b4" /><circle cx="114.42" cy="445.51" r="3" fill="#1f77b4" /><circle cx="114.11" cy="445.78000000000003" r="3" fill="#1f77b4" /><circle cx="113.8" cy="446.06" r="3" fill="#1f77b4" /><circle cx="113.49000000000001" cy="446.33" r="3" fill="#1f77b4" /><circle cx="113.18" cy="446.6" r="3" fill="#1f77b4" /><circle cx="112.87" cy="446.87" r="3" fill="#1f77b4" /><circle cx="112.57000000000001" cy="447.13" r="3" fill="#1f77b4" /><circle cx="112.26" cy="447.40000000000003" r="3" fill="#1f77b4" /><circle cx="111.96000000000001" cy="447.66" r="3" fill="#1f77b4" /><circle cx="111.65" cy="447.93" r="3" fill="#1f77b4" /><circle cx="111.35000000000001" cy="448.19" r="3" fill="#1f77b4" /><circle cx="111.05" cy="448.45" r="3" fill="#1f77b4" /><circle cx="110.75" cy="448.72" r="3" fill="#1f77b4" /><circle cx="110.46000000000001" cy="448.98" r="3" fill="#1f77b4" /><circle cx="110.16" cy="449.23" r="3" fill="#1f77b4" /><circle cx="109.86" cy="449.49" r="3" fill="#1f77b4" /><circle cx="109.57000000000001" cy="449.75" r="3" fill="#1f77b4" /><circle cx="109.28" cy="450.01" r="3" fill="#1f77b4" /><circle cx="108.98" cy="450.26" r="3" fill="#1f77b4" /><circle cx="108.69" cy="450.51" r="3" fill="#1f77b4" /><circle cx="108.4" cy="450.77" r="3" fill="#1f77b4" /><circle cx="108.12" cy="451.02" r="3" fill="#1f77b4" /><circle cx="107.83" cy="451.27" r="3" fill="#1f77b4" /><circle cx="107.54" cy="451.52" r="3" fill="#1f77b4" /><circle cx="107.26" cy="451.77" r="3" fill="#1f77b4" /><circle cx="106.97" cy="452.02" r="3" fill="#1f77b4" /><circle cx="106.69" cy="452.26" r="3" fill="#1f77b4" /><circle cx="106.41" cy="452.51" r="3" fill="#1f77b4" /><circle cx="106.13" cy="452.76" r="3" fill="#1f77b4" /><circle cx="105.85000000000001" cy="453" r="3" fill="#1f77b4" /><circle cx="105.57000000000001" cy="453.24" r="3" fill="#1f77b4" /><circle cx="105.29" cy="453.49" r="3" fill="#1f77b4" /><circle cx="105.01" cy="453.73" r="3" fill="#1f77b4" /><circle cx="104.74000000000001" cy="453.97" r="3" fill="#1f77b4" /><circle cx="104.46000000000001" cy="454.21000000000004" r="3" fill="#1f77b4" /><circle cx="104.19" cy="454.45" r="3" fill="#1f77b4" /><circle cx="103.92" cy="454.69" r="3" fill="#1f77b4" /><circle cx="103.64" cy="454.92" r="3" fill="#1f77b4" /><circle cx="103.37" cy="455.16" r="3" fill="#1f77b4" /><circle cx="103.10000000000001" cy="455.40000000000003" r="3" fill="#1f77b4" /><circle cx="102.84" cy="455.63" r="3" fill="#1f77b4" /><circle cx="102.57000000000001" cy="455.86" r="3" fill="#1f77b4" /><circle cx="102.3" cy="456.1" r="3" fill="#1f77b4" /><circle cx="102.03" cy="456.33" r="3" fill="#1f77b4" /><circle cx="101.77" cy="456.56" r="3" fill="#1f77b4" /><circle cx="101.51" cy="456.79" r="3" fill="#1f77b4" /><circle cx="101.24000000000001" cy="457.02" r="3" fill="#1f77b4" /><circle cx="100.98" cy="457.25" r="3" fill="#1f77b4" /><circle cx="100.72" cy="457.48" r="3" fill="#1f77b4" /><circle cx="100.46000000000001" cy="457.71000000000004" r="3" fill="#1f77b4" /><circle cx="100.2" cy="457.93" r="3" fill="#1f77b4" /><circle cx="99.94" cy="458.16" r="3" fill="#1f77b4" /><circle cx="99.68" cy="458.38" r="3" fill="#1f77b4" /><circle cx="99.43" cy="458.61" r="3" fill="#1f77b4" /><circle cx="99.17" cy="458.83" r="3" fill="#1f77b4" /><circle cx="98.92" cy="459.05" r="3" fill="#1f77b4" /><circle cx="98.66" cy="459.28000000000003" r="3" fill="#1f77b4" /><circle cx="98.41" cy="459.5" r="3" fill="#1f77b4" /><circle cx="98.16" cy="459.72" r="3" fill="#1f77b4" /><circle cx="97.9" cy="459.94" r="3" fill="#1f77b4" /><circle cx="97.65" cy="460.16" r="3" fill="#1f77b4" /><circle cx="97.4" cy="460.38" r="3" fill="#1f77b4" /><circle cx="97.16" cy="460.59000000000003" r="3" fill="#1f77b4" /><circle cx="96.91" cy="460.81" r="3" fill="#1f77b4" /><circle cx="96.66" cy="461.03000000000003" r="3" fill="#1f77b4" /><circle cx="96.41" cy="461.24" r="3" fill="#1f77b4" /><circle cx="96.17" cy="461.46000000000004" r="3" fill="#1f77b4" /><circle cx="95.92" cy="461.67" r="3" fill="#1f77b4" /><circle cx="95.68" cy="461.88" r="3" fill="#1f77b4" /><circle cx="95.44" cy="462.1" r="3" fill="#1f77b4" /><circle cx="95.19" cy="462.31" r="3" fill="#1f77b4" /><circle cx="94.95" cy="462.52" r="3" fill="#1f77b4" /><circle cx="94.71000000000001" cy="462.73" r="3" fill="#1f77b4" /><circle cx="94.47" cy="462.94" r="3" fill="#1f77b4" /><circle cx="94.23" cy="463.15000000000003" r="3" fill="#1f77b4" /><circle cx="93.99" cy="463.36" r="3" fill="#1f77b4" /><circle cx="93.75" cy="463.56" r="3" fill="#1f77b4" /><circle cx="93.52" cy="463.77" r="3" fill="#1f77b4" /><circle cx="93.28" cy="463.98" r="3" fill="#1f77b4" /><circle cx="93.05" cy="464.18" r="3" fill="#1f77b4" /><circle cx="92.81" cy="464.39" r="3" fill="#1f77b4" /><circle cx="92.58" cy="464.59000000000003" r="3" fill="#1f77b4" /><circle cx="92.34" cy="464.8" r="3" fill="#1f77b4" /><circle cx="92.11" cy="465" r="3" fill="#1f77b4" /><circle cx="91.88" cy="465.2" r="3" fill="#1f77b4" /><circle cx="91.65" cy="465.40000000000003" r="3" fill="#1f77b4" /><circle cx="91.42" cy="465.61" r="3" fill="#1f77b4" /><circle cx="91.19" cy="465.81" r="3" fill="#1f77b4" /><circle cx="90.96000000000001" cy="466.01" r="3" fill="#1f77b4" /><circle cx="90.73" cy="466.21000000000004" r="3" fill="#1f77b4" /><circle cx="90.5" cy="466.41" r="3" fill="#1f77b4" /><circle cx="90.27" cy="466.6" r="3" fill="#1f77b4" /><circle cx="90.05" cy="466.8" r="3" fill="#1f77b4" /><circle cx="89.82000000000001" cy="467" r="3" fill="#1f77b4" /><circle cx="89.60000000000001" cy="467.2" r="3" fill="#1f77b4" /><circle cx="89.37" cy="467.39" r="3" fill="#1f77b4" /><circle cx="89.15" cy="467.59000000000003" r="3" fill="#1f77b4" /><circle cx="88.93" cy="467.78000000000003" r="3" fill="#1f77b4" /><circle cx="88.7" cy="467.98" r="3" fill="#1f77b4" /><circle cx="88.48" cy="468.17" r="3" fill="#1f77b4" /><circle cx="88.26" cy="468.36" r="3" fill="#1f77b4" /><circle cx="88.04" cy="468.55" r="3" fill="#1f77b4" /><circle cx="87.82000000000001" cy="468.75" r="3" fill="#1f77b4" /><circle cx="87.60000000000001" cy="468.94" r="3" fill="#1f77b4" /><circle cx="87.39" cy="469.13" r="3" fill="#1f77b4" /><circle cx="87.17" cy="469.32" r="3" fill="#1f77b4" /><circle cx="86.95" cy="469.51" r="3" fill="#1f77b4" /><circle cx="86.73" cy="469.7" r="3" fill="#1f77b4" /><circle cx="86.52" cy="469.89" r="3" fill="#1f77b4" /><circle cx="86.3" cy="470.07" r="3" fill="#1f77b4" /><circle cx="86.09" cy="470.26" r="3" fill="#1f77b4" /><circle cx="85.87" cy="470.45" r="3" fill="#1f77b4" /><circle cx="85.66" cy="470.63" r="3" fill="#1f77b4" /><circle cx="85.45" cy="470.82" r="3" fill="#1f77b4" /><circle cx="85.24" cy="471.01" r="3" fill="#1f77b4" /><circle cx="85.02" cy="471.19" r="3" fill="#1f77b4" /><circle cx="84.81" cy="471.37" r="3" fill="#1f77b4" /><circle cx="84.60000000000001" cy="471.56" r="3" fill="#1f77b4" /><circle cx="84.39" cy="471.74" r="3" fill="#1f77b4" /><circle cx="84.18" cy="471.92" r="3" fill="#1f77b4" /><circle cx="83.98" cy="472.11" r="3" fill="#1f77b4" /><circle cx="83.77" cy="472.29" r="3" fill="#1f77b4" /><circle cx="83.56" cy="472.47" r="3" fill="#1f77b4" /><circle cx="83.35000000000001" cy="472.65000000000003" r="3" fill="#1f77b4" /><circle cx="83.15" cy="472.83" r="3" fill="#1f77b4" /><circle cx="82.94" cy="473.01" r="3" fill="#1f77b4" /><circle cx="82.74" cy="473.19" r="3" fill="#1f77b4" /><circle cx="82.53" cy="473.37" r="3" fill="#1f77b4" /><circle cx="82.33" cy="473.55" r="3" fill="#1f77b4" /><circle cx="82.13" cy="473.72" r="3" fill="#1f77b4" /><circle cx="81.92" cy="473.90000000000003" r="3" fill="#1f77b4" /><circle cx="81.72" cy="474.08" r="3" fill="#1f77b4" /><circle cx="81.52" cy="474.25" r="3" fill="#1f77b4" /><circle cx="81.32000000000001" cy="474.43" r="3" fill="#1f77b4" /><circle cx="81.12" cy="474.61" r="3" fill="#1f77b4" /><circle cx="80.92" cy="474.78000000000003" r="3" fill="#1f77b4" /><circle cx="80.72" cy="474.96000000000004" r="3" fill="#1f77b4" /><circle cx="80.52" cy="475.13" r="3" fill="#1f77b4" /><circle cx="80.32000000000001" cy="475.3" r="3" fill="#1f77b4" /><circle cx="80.12" cy="475.48" r="3" fill="#1f77b4" /><circle cx="79.92" cy="475.65000000000003" r="3" fill="#1f77b4" /><circle cx="79.73" cy="475.82" r="3" fill="#1f77b4" /><circle cx="79.53" cy="475.99" r="3" fill="#1f77b4" /><circle cx="79.33" cy="476.16" r="3" fill="#1f77b4" /><circle cx="79.14" cy="476.33" r="3" fill="#1f77b4" /><circle cx="78.94" cy="476.5" r="3" fill="#1f77b4" /><circle cx="78.75" cy="476.67" r="3" fill="#1f77b4" /><circle cx="78.56" cy="476.84000000000003" r="3" fill="#1f77b4" /><circle cx="78.36" cy="477.01" r="3" fill="#1f77b4" /><circle cx="78.17" cy="477.18" r="3" fill="#1f77b4" /><circle cx="77.98" cy="477.35" r="3" fill="#1f77b4" /><circle cx="77.78" cy="477.52" r="3" fill="#1f77b4" /><circle cx="77.59" cy="477.68" r="3" fill="#1f77b4" /><circle cx="77.4" cy="477.85" r="3" fill="#1f77b4" /><circle cx="77.21000000000001" cy="478.02" r="3" fill="#1f77b4" /><circle cx="77.02" cy="478.18" r="3" fill="#1f77b4" /><circle cx="76.83" cy="478.35" r="3" fill="#1f77b4" /><circle cx="76.64" cy="478.51" r="3" fill="#1f77b4" /><circle cx="76.46000000000001" cy="478.68" r="3" fill="#1f77b4" /><circle cx="76.27" cy="478.84000000000003" r="3" fill="#1f77b4" /><circle cx="76.08" cy="479.01" r="3" fill="#1f77b4" /><circle cx="75.89" cy="479.17" r="3" fill="#1f77b4" /><circle cx="75.71000000000001" cy="479.33" r="3" fill="#1f77b4" /><circle cx="75.52" cy="479.5" r="3" fill="#1f77b4" /><circle cx="75.33" cy="479.66" r="3" fill="#1f77b4" /><circle cx="75.15" cy="479.82" r="3" fill="#1f77b4" /><circle cx="74.96000000000001" cy="479.98" r="3" fill="#1f77b4" /><circle cx="74.78" cy="480.14" r="3" fill="#1f77b4" /><circle cx="74.60000000000001" cy="480.3" r="3" fill="#1f77b4" /><circle cx="74.41" cy="480.46000000000004" r="3" fill="#1f77b4" /><circle cx="74.23" cy="480.62" r="3" fill="#1f77b4" /><circle cx="74.05" cy="480.78000000000003" r="3" fill="#1f77b4" /><circle cx="73.87" cy="480.94" r="3" fill="#1f77b4" /><circle cx="73.68" cy="481.1" r="3" fill="#1f77b4" /><circle cx="73.5" cy="481.26" r="3" fill="#1f77b4" /><circle cx="73.32000000000001" cy="481.42" r="3" fill="#1f77b4" /><circle cx="73.14" cy="481.57" r="3" fill="#1f77b4" /><circle cx="72.96000000000001" cy="481.73" r="3" fill="#1f77b4" /><circle cx="72.78" cy="481.89" r="3" fill="#1f77b4" /><circle cx="72.60000000000001" cy="482.04" r="3" fill="#1f77b4" /><circle cx="72.43" cy="482.2" r="3" fill="#1f77b4" /><circle cx="72.25" cy="482.36" r="3" fill="#1f77b4" /><circle cx="72.07000000000001" cy="482.51" r="3" fill="#1f77b4" /><circle cx="71.89" cy="482.67" r="3" fill="#1f77b4" /><circle cx="71.72" cy="482.82" r="3" fill="#1f77b4" /><circle cx="71.54" cy="482.98" r="3" fill="#1f77b4" /><circle cx="71.36" cy="483.13" r="3" fill="#1f77b4" /><circle cx="71.19" cy="483.28000000000003" r="3" fill="#1f77b4" /><circle cx="71.01" cy="483.44" r="3" fill="#1f77b4" /><circle cx="70.84" cy="483.59000000000003" r="3" fill="#1f77b4" /><circle cx="70.66" cy="483.74" r="3" fill="#1f77b4" /><circle cx="70.49" cy="483.89" r="3" fill="#1f77b4" /><circle cx="70.32000000000001" cy="484.04" r="3" fill="#1f77b4" /><circle cx="70.14" cy="484.2" r="3" fill="#1f77b4" /><circle cx="69.97" cy="484.35" r="3" fill="#1f77b4" /><circle cx="69.8" cy="484.5" r="3" fill="#1f77b4" /><circle cx="69.63" cy="484.65000000000003" r="3" fill="#1f77b4" /><circle cx="69.45" cy="484.8" r="3" fill="#1f77b4" /><circle cx="69.28" cy="484.95" r="3" fill="#1f77b4" /><circle cx="69.11" cy="485.1" r="3" fill="#1f77b4" /><circle cx="68.94" cy="485.25" r="3" fill="#1f77b4" /><circle cx="68.77" cy="485.39" r="3" fill="#1f77b4" /><circle cx="68.60000000000001" cy="485.54" r="3" fill="#1f77b4" /><circle cx="68.43" cy="485.69" r="3" fill="#1f77b4" /><circle cx="68.26" cy="485.84000000000003" r="3" fill="#1f77b4" /><circle cx="68.1" cy="485.98" r="3" fill="#1f77b4" /><circle cx="67.93" cy="486.13" r="3" fill="#1f77b4" /><circle cx="67.76" cy="486.28000000000003" r="3" fill="#1f77b4" /><circle cx="67.59" cy="486.42" r="3" fill="#1f77b4" /><circle cx="67.43" cy="486.57" r="3" fill="#1f77b4" /><circle cx="67.26" cy="486.72" r="3" fill="#1f77b4" /><circle cx="67.09" cy="486.86" r="3" fill="#1f77b4" /><circle cx="66.93" cy="487.01" r="3" fill="#1f77b4" /><circle cx="66.76" cy="487.15000000000003" r="3" fill="#1f77b4" /><circle cx="66.6" cy="487.3" r="3" fill="#1f77b4" /><circle cx="66.43" cy="487.44" r="3" fill="#1f77b4" /><circle cx="66.27" cy="487.58" r="3" fill="#1f77b4" /><circle cx="66.1" cy="487.73" r="3" fill="#1f77b4" /><circle cx="65.94" cy="487.87" r="3" fill="#1f77b4" /><circle cx="65.78" cy="488.01" r="3" fill="#1f77b4" /><circle cx="65.61" cy="488.15000000000003" r="3" fill="#1f77b4" /><circle cx="65.45" cy="488.3" r="3" fill="#1f77b4" /><circle cx="65.29" cy="488.44" r="3" fill="#1f77b4" /><circle cx="65.13" cy="488.58" r="3" fill="#1f77b4" /><circle cx="64.97" cy="488.72" r="3" fill="#1f77b4" /><circle cx="64.8" cy="488.86" r="3" fill="#1f77b4" /><circle cx="64.64" cy="489" r="3" fill="#1f77b4" /><circle cx="64.48" cy="489.14" r="3" fill="#1f77b4" /><circle cx="64.32000000000001" cy="489.28000000000003" r="3" fill="#1f77b4" /><circle cx="64.16" cy="489.42" r="3" fill="#1f77b4" /><circle cx="64" cy="489.56" r="3" fill="#1f77b4" /><circle cx="63.84" cy="489.7" r="3" fill="#1f77b4" /><circle cx="63.690000000000005" cy="489.84000000000003" r="3" fill="#1f77b4" /><circle cx="63.53" cy="489.98" r="3" fill="#1f77b4" /><circle cx="63.370000000000005" cy="490.12" r="3" fill="#1f77b4" /><circle cx="63.21" cy="490.25" r="3" fill="#1f77b4" /><circle cx="63.050000000000004" cy="490.39" r="3" fill="#1f77b4" /><circle cx="62.9" cy="490.53000000000003" r="3" fill="#1f77b4" /><circle cx="62.74" cy="490.67" r="3" fill="#1f77b4" /><circle cx="62.58" cy="490.8" r="3" fill="#1f77b4" /><circle cx="62.43" cy="490.94" r="3" fill="#1f77b4" /><circle cx="62.27" cy="491.07" r="3" fill="#1f77b4" /><circle cx="62.120000000000005" cy="491.21000000000004" r="3" fill="#1f77b4" /><circle cx="61.96" cy="491.35" r="3" fill="#1f77b4" /><circle cx="61.81" cy="491.48" r="3" fill="#1f77b4" /><circle cx="61.65" cy="491.62" r="3" fill="#1f77b4" /><circle cx="61.5" cy="491.75" r="3" fill="#1f77b4" /><circle cx="61.34" cy="491.89" r="3" fill="#1f77b4" /><circle cx="61.19" cy="492.02000000000004" r="3" fill="#1f77b4" /><circle cx="61.04" cy="492.15000000000003" r="3" fill="#1f77b4" /><circle cx="60.88" cy="492.29" r="3" fill="#1f77b4" /><circle cx="60.730000000000004" cy="492.42" r="3" fill="#1f77b4" /><circle cx="60.58" cy="492.55" r="3" fill="#1f77b4" /><circle cx="60.43" cy="492.69" r="3" fill="#1f77b4" /><circle cx="60.28" cy="492.82" r="3" fill="#1f77b4" /><circle cx="60.13" cy="492.95" r="3" fill="#1f77b4" /><circle cx="59.97" cy="493.08" r="3" fill="#1f77b4" /><circle cx="59.82" cy="493.22" r="3" fill="#1f77b4" /><circle cx="59.67" cy="493.35" r="3" fill="#1f77b4" /><circle cx="59.52" cy="493.48" r="3" fill="#1f77b4" /><circle cx="59.370000000000005" cy="493.61" r="3" fill="#1f77b4" /><circle cx="59.22" cy="493.74" r="3" fill="#1f77b4" /><circle cx="59.07" cy="493.87" r="3" fill="#1f77b4" /><text x="89" y="62" font-size="12" text-anchor="start" fill="#1f77b4">Study A λ = 1.000</text><circle cx="573.29" cy="149.77" r="3" fill="#ff7f0e" /><circle cx="491.49" cy="188.15" r="3" fill="#ff7f0e" /><circle cx="453.46000000000004" cy="210.6" r="3" fill="#ff7f0e" /><circle cx="428.41" cy="226.53" r="3" fill="#ff7f0e" /><circle cx="409.7" cy="238.89000000000001" r="3" fill="#ff7f0e" /><circle cx="394.76" cy="248.98000000000002" r="3" fill="#ff7f0e" /><circle cx="382.32" cy="257.52" r="3" fill="#ff7f0e" /><circle cx="371.67" cy="264.91" r="3" fill="#ff7f0e" /><circle cx="362.35" cy="271.44" r="3" fill="#ff7f0e" /><circle cx="354.07" cy="277.27" r="3" fill="#ff7f0e" /><circle cx="346.62" cy="282.55" r="3" fill="#ff7f0e" /><circle cx="339.85" cy="287.37" r="3" fill="#ff7f0e" /><circle cx="333.64" cy="291.8" r="3" fill="#ff7f0e" /><circle cx="327.91" cy="295.90000000000003" r="3" fill="#ff7f0e" /><circle cx="322.59000000000003" cy="299.72" r="3" fill="#ff7f0e" /><circle cx="317.62" cy="303.3" r="3" fill="#ff7f0e" /><circle cx="312.97" cy="306.65000000000003" r="3" fill="#ff7f0e" /><circle cx="308.59000000000003" cy="309.82" r="3" fill="#ff7f0e" /><circle cx="304.45" cy="312.81" r="3" fill="#ff7f0e" /><circle cx="300.53000000000003" cy="315.65000000000003" r="3" fill="#ff7f0e" /><circle cx="296.81" cy="318.35" r="3" fill="#ff7f0e" /><circle cx="293.26" cy="320.93" r="3" fill="#ff7f0e" /><circle cx="289.88" cy="323.39" r="3" fill="#ff7f0e" /><circle cx="286.64" cy="325.75" r="3" fill="#ff7f0e" /><circle cx="283.54" cy="328.01" r="3" fill="#ff7f0e" /><circle cx="280.56" cy="330.18" r="3" fill="#ff7f0e" /><circle cx="277.7" cy="332.27" r="3" fill="#ff7f0e" /><circle cx="274.94" cy="334.28000000000003" r="3" fill="#ff7f0e" /><circle cx="272.28000000000003" cy="336.23" r="3" fill="#ff7f0e" /><circle cx="269.71" cy="338.1" r="3" fill="#ff7f0e" /><circle cx="267.23" cy="339.92" r="3" fill="#ff7f0e" /><circle cx="264.83" cy="341.68" r="3" fill="#ff7f0e" /><circle cx="262.5" cy="343.38" r="3" fill="#ff7f0e" /><circle cx="260.24" cy="345.03000000000003" r="3" fill="#ff7f0e" /><circle cx="258.05" cy="346.64" r="3" fill="#ff7f0e" /><circle cx="255.93" cy="348.2" r="3" fill="#ff7f0e" /><circle cx="253.86" cy="349.72" r="3" fill="#ff7f0e" /><circle cx="251.85" cy="351.19" r="3" fill="#ff7f0e" /><circle cx="249.89000000000001" cy="352.63" r="3" fill="#ff7f0e" /><circle cx="247.98000000000002" cy="354.03000000000003" r="3" fill="#ff7f0e" /><circle cx="246.12" cy="355.40000000000003" r="3" fill="#ff7f0e" /><circle cx="244.3" cy="356.73" r="3" fill="#ff7f0e" /><circle cx="242.53" cy="358.04" r="3" fill="#ff7f0e" /><circle cx="240.8" cy="359.31" r="3" fill="#ff7f0e" /><circle cx="239.1" cy="360.56" r="3" fill="#ff7f0e" /><circle cx="237.45000000000002" cy="361.77" r="3" fill="#ff7f0e" /><circle cx="235.83" cy="362.96" r="3" fill="#ff7f0e" /><circle cx="234.25" cy="364.13" r="3" fill="#ff7f0e" /><circle cx="232.70000000000002" cy="365.27" r="3" fill="#ff7f0e" /><circle cx="231.18" cy="366.39" r="3" fill="#ff7f0e" /><circle cx="229.69" cy="367.49" r="3" fill="#ff7f0e" /><circle cx="228.23000000000002" cy="368.56" r="3" fill="#ff7f0e" /><circle cx="226.8" cy="369.62" r="3" fill="#ff7f0e" /><circle cx="225.39000000000001" cy="370.65000000000003" r="3" fill="#ff7f0e" /><circle cx="224.01" cy="371.67" r="3" fill="#ff7f0e" /><circle cx="222.66" cy="372.66" r="3" fill="#ff7f0e" /><circle cx="221.33" cy="373.64" r="3" fill="#ff7f0e" /><circle cx="220.02" cy="374.61" r="3" fill="#ff7f0e" /><circle cx="218.74" cy="375.55" r="3" fill="#ff7f0e" /><circle cx="217.48000000000002" cy="376.48" r="3" fill="#ff7f0e" /><circle cx="216.24" cy="377.40000000000003" r="3" fill="#ff7f0e" /><circle cx="215.02" cy="378.3" r="3" fill="#ff7f0e" /><circle cx="213.82" cy="379.19" r="3" fill="#ff7f0e" /><circle cx="212.63" cy="380.06" r="3" fill="#ff7f0e" /><circle cx="211.47" cy="380.92" r="3" fill="#ff7f0e" /><circle cx="210.32" cy="381.76" r="3" fill="#ff7f0e" /><circle cx="209.20000000000002" cy="382.6" r="3" fill="#ff7f0e" /><circle cx="208.09" cy="383.42" r="3" fill="#ff7f0e" /><circle cx="206.99" cy="384.22" r="3" fill="#ff7f0e" /><circle cx="205.91" cy="385.02" r="3" fill="#ff7f0e" /><circle cx="204.85" cy="385.81" r="3" fill="#ff7f0e" /><circle cx="203.8" cy="386.58" r="3" fill="#ff7f0e" /><circle cx="202.77" cy="387.34000000000003" r="3" fill="#ff7f0e" /><circle cx="201.75" cy="388.1" r="3" fill="#ff7f0e" /><circle cx="200.74" cy="388.84000000000003" r="3" fill="#ff7f0e" /><circle cx="199.75" cy="389.57" r="3" fill="#ff7f0e" /><circle cx="198.77" cy="390.3" r="3" fill="#ff7f0e" /><circle cx="197.8" cy="391.01" r="3" fill="#ff7f0e" /><circle cx="196.85" cy="391.72" r="3" fill="#ff7f0e" /><circle cx="195.9" cy="392.41" r="3" fill="#ff7f0e" /><circle cx="194.97" cy="393.1" r="3" fill="#ff7f0e" /><circle cx="194.05" cy="393.78000000000003" r="3" fill="#ff7f0e" /><circle cx="193.15" cy="394.45" r="3" fill="#ff7f0e" /><circle cx="192.25" cy="395.12" r="3" fill="#ff7f0e" /><circle cx="191.36" cy="395.77" r="3" fill="#ff7f0e" /><circle cx="190.49" cy="396.42" r="3" fill="#ff7f0e" /><circle cx="189.62" cy="397.06" r="3" fill="#ff7f0e" /><circle cx="188.76" cy="397.69" r="3" fill="#ff7f0e" /><circle cx="187.92000000000002" cy="398.32" r="3" fill="#ff7f0e" /><circle cx="187.08" cy="398.94" r="3" fill="#ff7f0e" /><circle cx="186.26" cy="399.55" r="3" fill="#ff7f0e" /><circle cx="185.44" cy="400.15000000000003" r="3" fill="#ff7f0e" /><circle cx="184.63" cy="400.75" r="3" fill="#ff7f0e" /><circle cx="183.83" cy="401.34000000000003" r="3" fill="#ff7f0e" /><circle cx="183.04" cy="401.93" r="3" fill="#ff7f0e" /><circle cx="182.25" cy="402.51" r="3" fill="#ff7f0e" /><circle cx="181.48" cy="403.08" r="3" fill="#ff7f0e" /><circle cx="180.71" cy="403.65000000000003" r="3" fill="#ff7f0e" /><circle cx="179.95000000000002" cy="404.21000000000004" r="3" fill="#ff7f0e" /><circle cx="179.20000000000002" cy="404.77" r="3" fill="#ff7f0e" /><circle cx="178.45000000000002" cy="405.32" r="3" fill="#ff7f0e" /><circle cx="177.71" cy="405.87" r="3" fill="#ff7f0e" /><circle cx="176.99" cy="406.41" r="3" fill="#ff7f0e" /><circle cx="176.26" cy="406.94" r="3" fill="#ff7f0e" /><circle cx="175.55" cy="407.47" r="3" fill="#ff7f0e" /><circle cx="174.84" cy="408" r="3" fill="#ff7f0e" /><circle cx="174.13" cy="408.52" r="3" fill="#ff7f0e" /><circle cx="173.44" cy="409.03000000000003" r="3" fill="#ff7f0e" /><circle cx="172.75" cy="409.54" r="3" fill="#ff7f0e" /><circle cx="172.07" cy="410.05" r="3" fill="#ff7f0e" /><circle cx="171.39000000000001" cy="410.55" r="3" fill="#ff7f0e" /><circle cx="170.72" cy="411.05" r="3" fill="#ff7f0e" /><circle cx="170.05" cy="411.54" r="3" fill="#ff7f0e" /><circle cx="169.4" cy="412.03000000000003" r="3" fill="#ff7f0e" /><circle cx="168.74" cy="412.51" r="3" fill="#ff7f0e" /><circle cx="168.1" cy="412.99" r="3" fill="#ff7f0e" /><circle cx="167.45000000000002" cy="413.46000000000004" r="3" fill="#ff7f0e" /><circle cx="166.82" cy="413.94" r="3" fill="#ff7f0e" /><circle cx="166.19" cy="414.40000000000003" r="3" fill="#ff7f0e" /><circle cx="165.56" cy="414.87" r="3" fill="#ff7f0e" /><circle cx="164.94" cy="415.33" r="3" fill="#ff7f0e" /><circle cx="164.32" cy="415.78000000000003" r="3" fill="#ff7f0e" /><circle cx="163.71" cy="416.23" r="3" fill="#ff7f0e" /><circle cx="163.11" cy="416.68" r="3" fill="#ff7f0e" /><circle cx="162.51" cy="417.13" r="3" fill="#ff7f0e" /><circle cx="161.91" cy="417.57" r="3" fill="#ff7f0e" /><circle cx="161.32" cy="418.01" r="3" fill="#ff7f0e" /><circle cx="160.74" cy="418.44" r="3" fill="#ff7f0e" /><circle cx="160.15" cy="418.87" r="3" fill="#ff7f0e" /><circle cx="159.58" cy="419.3" r="3" fill="#ff7f0e" /><circle cx="159" cy="419.72" r="3" fill="#ff7f0e" /><circle cx="158.44" cy="420.14" r="3" fill="#ff7f0e" /><circle cx="157.87" cy="420.56" r="3" fill="#ff7f0e" /><circle cx="157.31" cy="420.98" r="3" fill="#ff7f0e" /><circle cx="156.76" cy="421.39" r="3" fill="#ff7f0e" /><circle cx="156.21" cy="421.8" r="3" fill="#ff7f0e" /><circle cx="155.66" cy="422.2" r="3" fill="#ff7f0e" /><circle cx="155.11" cy="422.61" r="3" fill="#ff7f0e" /><circle cx="154.57" cy="423.01" r="3" fill="#ff7f0e" /><circle cx="154.04" cy="423.40000000000003" r="3" fill="#ff7f0e" /><circle cx="153.51" cy="423.8" r="3" fill="#ff7f0e" /><circle cx="152.98" cy="424.19" r="3" fill="#ff7f0e" /><circle cx="152.46" cy="424.58" r="3" fill="#ff7f0e" /><circle cx="151.93" cy="424.96000000000004" r="3" fill="#ff7f0e" /><circle cx="151.42000000000002" cy="425.35" r="3" fill="#ff7f0e" /><circle cx="150.9" cy="425.73" r="3" fill="#ff7f0e" /><circle cx="150.39000000000001" cy="426.1" r="3" fill="#ff7f0e" /><circle cx="149.89000000000001" cy="426.48" r="3" fill="#ff7f0e" /><circle cx="149.38" cy="426.85" r="3" fill="#ff7f0e" /><circle cx="148.88" cy="427.22" r="3" fill="#ff7f0e" /><circle cx="148.39000000000001" cy="427.59000000000003" r="3" fill="#ff7f0e" /><circle cx="147.9" cy="427.96000000000004" r="3" fill="#ff7f0e" /><circle cx="147.41" cy="428.32" r="3" fill="#ff7f0e" /><circle cx="146.92000000000002" cy="428.68" r="3" fill="#ff7f0e" /><circle cx="146.44" cy="429.04" r="3" fill="#ff7f0e" /><circle cx="145.96" cy="429.39" r="3" fill="#ff7f0e" /><circle cx="145.48" cy="429.75" r="3" fill="#ff7f0e" /><circle cx="145" cy="430.1" r="3" fill="#ff7f0e" /><circle cx="144.53" cy="430.45" r="3" fill="#ff7f0e" /><circle cx="144.06" cy="430.8" r="3" fill="#ff7f0e" /><circle cx="143.6" cy="431.14" r="3" fill="#ff7f0e" /><circle cx="143.14000000000001" cy="431.48" r="3" fill="#ff7f0e" /><circle cx="142.68" cy="431.82" r="3" fill="#ff7f0e" /><circle cx="142.22" cy="432.16" r="3" fill="#ff7f0e" /><circle cx="141.77" cy="432.5" r="3" fill="#ff7f0e" /><circle cx="141.32" cy="432.83" r="3" fill="#ff7f0e" /><circle cx="140.87" cy="433.17" r="3" fill="#ff7f0e" /><circle cx="140.42000000000002" cy="433.5" r="3" fill="#ff7f0e" /><circle cx="139.98" cy="433.83" r="3" fill="#ff7f0e" /><circle cx="139.54" cy="434.15000000000003" r="3" fill="#ff7f0e" /><circle cx="139.1" cy="434.48" r="3" fill="#ff7f0e" /><circle cx="138.66" cy="434.8" r="3" fill="#ff7f0e" /><circle cx="138.23" cy="435.12" r="3" fill="#ff7f0e" /><circle cx="137.8" cy="435.44" r="3" fill="#ff7f0e" /><circle cx="137.37" cy="435.76" r="3" fill="#ff7f0e" /><circle cx="136.95000000000002" cy="436.07" r="3" fill="#ff7f0e" /><circle cx="136.52" cy="436.39" r="3" fill="#ff7f0e" /><circle cx="136.1" cy="436.7" r="3" fill="#ff7f0e" /><circle cx="135.69" cy="437.01" r="3" fill="#ff7f0e" /><circle cx="135.27" cy="437.32" r="3" fill="#ff7f0e" /><circle cx="134.86" cy="437.62" r="3" fill="#ff7f0e" /><circle cx="134.44" cy="437.93" r="3" fill="#ff7f0e" /><circle cx="134.04" cy="438.23" r="3" fill="#ff7f0e" /><circle cx="133.63" cy="438.53000000000003" r="3" fill="#ff7f0e" /><circle cx="133.22" cy="438.84000000000003" r="3" fill="#ff7f0e" /><circle cx="132.82" cy="439.13" r="3" fill="#ff7f0e" /><circle cx="132.42000000000002" cy="439.43" r="3" fill="#ff7f0e" /><circle cx="132.02" cy="439.73" r="3" fill="#ff7f0e" /><circle cx="131.63" cy="440.02" r="3" fill="#ff7f0e" /><circle cx="131.23" cy="440.31" r="3" fill="#ff7f0e" /><circle cx="130.84" cy="440.6" r="3" fill="#ff7f0e" /><circle cx="130.45" cy="440.89" r="3" fill="#ff7f0e" /><circle cx="130.06" cy="441.18" r="3" fill="#ff7f0e" /><circle cx="129.68" cy="441.47" r="3" fill="#ff7f0e" /><circle cx="129.29" cy="441.75" r="3" fill="#ff7f0e" /><circle cx="128.91" cy="442.03000000000003" r="3" fill="#ff7f0e" /><circle cx="128.53" cy="442.32" r="3" fill="#ff7f0e" /><circle cx="128.15" cy="442.6" r="3" fill="#ff7f0e" /><circle cx="127.78" cy="442.87" r="3" fill="#ff7f0e" /><circle cx="127.4" cy="443.15000000000003" r="3" fill="#ff7f0e" /><circle cx="127.03" cy="443.43" r="3" fill="#ff7f0e" /><circle cx="126.66" cy="443.7" r="3" fill="#ff7f0e" /><circle cx="126.29" cy="443.98" r="3" fill="#ff7f0e" /><circle cx="125.93" cy="444.25" r="3" fill="#ff7f0e" /><circle cx="125.56" cy="444.52" r="3" fill="#ff7f0e" /><circle cx="125.2" cy="444.79" r="3" fill="#ff7f0e" /><circle cx="124.84" cy="445.06" r="3" fill="#ff7f0e" /><circle cx="124.48" cy="445.32" r="3" fill="#ff7f0e" /><circle cx="124.12" cy="445.59000000000003" r="3" fill="#ff7f0e" /><circle cx="123.76" cy="445.85" r="3" fill="#ff7f0e" /><circle cx="123.41" cy="446.12" r="3" fill="#ff7f0e" /><circle cx="123.06" cy="446.38" r="3" fill="#ff7f0e" /><circle cx="122.7" cy="446.64" r="3" fill="#ff7f0e" /><circle cx="122.36" cy="446.90000000000003" r="3" fill="#ff7f0e" /><circle cx="122.01" cy="447.16" r="3" fill="#ff7f0e" /><circle cx="121.66" cy="447.41" r="3" fill="#ff7f0e" /><circle cx="121.32000000000001" cy="447.67" r="3" fill="#ff7f0e" /><circle cx="120.97" cy="447.92" r="3" fill="#ff7f0e" /><circle cx="120.63" cy="448.18" r="3" fill="#ff7f0e" /><circle cx="120.29" cy="448.43" r="3" fill="#ff7f0e" /><circle cx="119.95" cy="448.68" r="3" fill="#ff7f0e" /><circle cx="119.62" cy="448.93" r="3" fill="#ff7f0e" /><circle cx="119.28" cy="449.18" r="3" fill="#ff7f0e" /><circle cx="118.95" cy="449.43" r="3" fill="#ff7f0e" /><circle cx="118.61" cy="449.67" r="3" fill="#ff7f0e" /><circle cx="118.28" cy="449.92" r="3" fill="#ff7f0e" /><circle cx="117.95" cy="450.16" r="3" fill="#ff7f0e" /><circle cx="117.63" cy="450.41" r="3" fill="#ff7f0e" /><circle cx="117.3" cy="450.65000000000003" r="3" fill="#ff7f0e" /><circle cx="116.97" cy="450.89" r="3" fill="#ff7f0e" /><circle cx="116.65" cy="451.13" r="3" fill="#ff7f0e" /><circle cx="116.33" cy="451.37" r="3" fill="#ff7f0e" /><circle cx="116.01" cy="451.61" r="3" fill="#ff7f0e" /><circle cx="115.69" cy="451.85" r="3" fill="#ff7f0e" /><circle cx="115.37" cy="452.08" r="3" fill="#ff7f0e" /><circle cx="115.05" cy="452.32" r="3" fill="#ff7f0e" /><circle cx="114.74000000000001" cy="452.55" r="3" fill="#ff7f0e" /><circle cx="114.42" cy="452.78000000000003" r="3" fill="#ff7f0e" /><circle cx="114.11" cy="453.02" r="3" fill="#ff7f0e" /><circle cx="113.8" cy="453.25" r="3" fill="#ff7f0e" /><circle cx="113.49000000000001" cy="453.48" r="3" fill="#ff7f0e" /><circle cx="113.18" cy="453.71000000000004" r="3" fill="#ff7f0e" /><circle cx="112.87" cy="453.94" r="3" fill="#ff7f0e" /><circle cx="112.57000000000001" cy="454.16" r="3" fill="#ff7f0e" /><circle cx="112.26" cy="454.39" r="3" fill="#ff7f0e" /><circle cx="111.96000000000001" cy="454.61" r="3" fill="#ff7f0e" /><circle cx="111.65" cy="454.84000000000003" r="3" fill="#ff7f0e" /><circle cx="111.35000000000001" cy="455.06" r="3" fill="#ff7f0e" /><circle cx="111.05" cy="455.29" r="3" fill="#ff7f0e" /><circle cx="110.75" cy="455.51" r="3" fill="#ff7f0e" /><circle cx="110.46000000000001" cy="455.73" r="3" fill="#ff7f0e" /><circle cx="110.16" cy="455.95" r="3" fill="#ff7f0e" /><circle cx="109.86" cy="456.17" r="3" fill="#ff7f0e" /><circle cx="109.57000000000001" cy="456.39" r="3" fill="#ff7f0e" /><circle cx="109.28" cy="456.6" r="3" fill="#ff7f0e" /><circle cx="108.98" cy="456.82" r="3" fill="#ff7f0e" /><circle cx="108.69" cy="457.04" r="3" fill="#ff7f0e" /><circle cx="108.4" cy="457.25" r="3" fill="#ff7f0e" /><circle cx="108.12" cy="457.47" r="3" fill="#ff7f0e" /><circle cx="107.83" cy="457.68" r="3" fill="#ff7f0e" /><circle cx="107.54" cy="457.89" r="3" fill="#ff7f0e" /><circle cx="107.26" cy="458.1" r="3" fill="#ff7f0e" /><circle cx="106.97" cy="458.32" r="3" fill="#ff7f0e" /><circle cx="106.69" cy="458.53000000000003" r="3" fill="#ff7f0e" /><circle cx="106.41" cy="458.73" r="3" fill="#ff7f0e" /><circle cx="106.13" cy="458.94" r="3" fill="#ff7f0e" /><circle cx="105.85000000000001" cy="459.15000000000003" r="3" fill="#ff7f0e" /><circle cx="105.57000000000001" cy="459.36" r="3" fill="#ff7f0e" /><circle cx="105.29" cy="459.56" r="3" fill="#ff7f0e" /><circle cx="105.01" cy="459.77" r="3" fill="#ff7f0e" /><circle cx="104.74000000000001" cy="459.97" r="3" fill="#ff7f0e" /><circle cx="104.46000000000001" cy="460.18" r="3" fill="#ff7f0e" /><circle cx="104.19" cy="460.38" r="3" fill="#ff7f0e" /><circle cx="103.92" cy="460.58" r="3" fill="#ff7f0e" /><circle cx="103.64" cy="460.79" r="3" fill="#ff7f0e" /><circle cx="103.37" cy="460.99" r="3" fill="#ff7f0e" /><circle cx="103.10000000000001" cy="461.19" r="3" fill="#ff7f0e" /><circle cx="102.84" cy="461.39" r="3" fill="#ff7f0e" /><circle cx="102.57000000000001" cy="461.59000000000003" r="3" fill="#ff7f0e" /><circle cx="102.3" cy="461.78000000000003" r="3" fill="#ff7f0e" /><circle cx="102.03" cy="461.98" r="3" fill="#ff7f0e" /><circle cx="101.77" cy="462.18" r="3" fill="#ff7f0e" /><circle cx="101.51" cy="462.37" r="3" fill="#ff7f0e" /><circle cx="101.24000000000001" cy="462.57" r="3" fill="#ff7f0e" /><circle cx="100.98" cy="462.76" r="3" fill="#ff7f0e" /><circle cx="100.72" cy="462.96000000000004" r="3" fill="#ff7f0e" /><circle cx="100.46000000000001" cy="463.15000000000003" r="3" fill="#ff7f0e" /><circle cx="100.2" cy="463.34000000000003" r="3" fill="#ff7f0e" /><circle cx="99.94" cy="463.54" r="3" fill="#ff7f0e" /><circle cx="99.68" cy="463.73" r="3" fill="#ff7f0e" /><circle cx="99.43" cy="463.92" r="3" fill="#ff7f0e" /><circle cx="99.17" cy="464.11" r="3" fill="#ff7f0e" /><circle cx="98.92" cy="464.3" r="3" fill="#ff7f0e" /><circle cx="98.66" cy="464.48" r="3" fill="#ff7f0e" /><circle cx="98.41" cy="464.67" r="3" fill="#ff7f0e" /><circle cx="98.16" cy="464.86" r="3" fill="#ff7f0e" /><circle cx="97.9" cy="465.05" r="3" fill="#ff7f0e" /><circle cx="97.65" cy="465.23" r="3" fill="#ff7f0e" /><circle cx="97.4" cy="465.42" r="3" fill="#ff7f0e" /><circle cx="97.16" cy="465.6" r="3" fill="#ff7f0e" /><circle cx="96.91" cy="465.79" r="3" fill="#ff7f0e" /><circle cx="96.66" cy="465.97" r="3" fill="#ff7f0e" /><circle cx="96.41" cy="466.15000000000003" r="3" fill="#ff7f0e" /><circle cx="96.17" cy="466.34000000000003" r="3" fill="#ff7f0e" /><circle cx="95.92" cy="466.52" r="3" fill="#ff7f0e" /><circle cx="95.68" cy="466.7" r="3" fill="#ff7f0e" /><circle cx="95.44" cy="466.88" r="3" fill="#ff7f0e" /><circle cx="95.19" cy="467.06" r="3" fill="#ff7f0e" /><circle cx="94.95" cy="467.24" r="3" fill="#ff7f0e" /><circle cx="94.71000000000001" cy="467.42" r="3" fill="#ff7f0e" /><circle cx="94.47" cy="467.6" r="3" fill="#ff7f0e" /><circle cx="94.23" cy="467.78000000000003" r="3" fill="#ff7f0e" /><circle cx="93.99" cy="467.95" r="3" fill="#ff7f0e" /><circle cx="93.75" cy="468.13" r="3" fill="#ff7f0e" /><circle cx="93.52" cy="468.31" r="3" fill="#ff7f0e" /><circle cx="93.28" cy="468.48" r="3" fill="#ff7f0e" /><circle cx="93.05" cy="468.66" r="3" fill="#ff7f0e" /><circle cx="92.81" cy="468.83" r="3" fill="#ff7f0e" /><circle cx="92.58" cy="469" r="3" fill="#ff7f0e" /><circle cx="92.34" cy="469.18" r="3" fill="#ff7f0e" /><circle cx="92.11" cy="469.35" r="3" fill="#ff7f0e" /><circle cx="91.88" cy="469.52" r="3" fill="#ff7f0e" /><circle cx="91.65" cy="469.69" r="3" fill="#ff7f0e" /><circle cx="91.42" cy="469.87" r="3" fill="#ff7f0e" /><circle cx="91.19" cy="470.04" r="3" fill="#ff7f0e" /><circle cx="90.96000000000001" cy="470.21000000000004" r="3" fill="#ff7f0e" /><circle cx="90.73" cy="470.38" r="3" fill="#ff7f0e" /><circle cx="90.5" cy="470.54" r="3" fill="#ff7f0e" /><circle cx="90.27" cy="470.71000000000004" r="3" fill="#ff7f0e" /><circle cx="90.05" cy="470.88" r="3" fill="#ff7f0e" /><circle cx="89.82000000000001" cy="471.05" r="3" fill="#ff7f0e" /><circle cx="89.60000000000001" cy="471.22" r="3" fill="#ff7f0e" /><circle cx="89.37" cy="471.38" r="3" fill="#ff7f0e" /><circle cx="89.15" cy="471.55" r="3" fill="#ff7f0e" /><circle cx="88.93" cy="471.71000000000004" r="3" fill="#ff7f0e" /><circle cx="88.7" cy="471.88" r="3" fill="#ff7f0e" /><circle cx="88.48" cy="472.04" r="3" fill="#ff7f0e" /><circle cx="88.26" cy="472.21000000000004" r="3" fill="#ff7f0e" /><circle cx="88.04" cy="472.37" r="3" fill="#ff7f0e" /><circle cx="87.82000000000001" cy="472.53000000000003" r="3" fill="#ff7f0e" /><circle cx="87.60000000000001" cy="472.7" r="3" fill="#ff7f0e" /><circle cx="87.39" cy="472.86" r="3" fill="#ff7f0e" /><circle cx="87.17" cy="473.02" r="3" fill="#ff7f0e" /><circle cx="86.95" cy="473.18" r="3" fill="#ff7f0e" /><circle cx="86.73" cy="473.34000000000003" r="3" fill="#ff7f0e" /><circle cx="86.52" cy="473.5" r="3" fill="#ff7f0e" /><circle cx="86.3" cy="473.66" r="3" fill="#ff7f0e" /><circle cx="86.09" cy="473.82" r="3" fill="#ff7f0e" /><circle cx="85.87" cy="473.98" r="3" fill="#ff7f0e" /><circle cx="85.66" cy="474.14" r="3" fill="#ff7f0e" /><circle cx="85.45" cy="474.3" r="3" fill="#ff7f0e" /><circle cx="85.24" cy="474.45" r="3" fill="#ff7f0e" /><circle cx="85.02" cy="474.61" r="3" fill="#ff7f0e" /><circle cx="84.81" cy="474.77" r="3" fill="#ff7f0e" /><circle cx="84.60000000000001" cy="474.92" r="3" fill="#ff7f0e" /><circle cx="84.39" cy="475.08" r="3" fill="#ff7f0e" /><circle cx="84.18" cy="475.24" r="3" fill="#ff7f0e" /><circle cx="83.98" cy="475.39" r="3" fill="#ff7f0e" /><circle cx="83.77" cy="475.55" r="3" fill="#ff7f0e" /><circle cx="83.56" cy="475.7" r="3" fill="#ff7f0e" /><circle cx="83.35000000000001" cy="475.85" r="3" fill="#ff7f0e" /><circle cx="83.15" cy="476.01" r="3" fill="#ff7f0e" /><circle cx="82.94" cy="476.16" r="3" fill="#ff7f0e" /><circle cx="82.74" cy="476.31" r="3" fill="#ff7f0e" /><circle cx="82.53" cy="476.46000000000004" r="3" fill="#ff7f0e" /><circle cx="82.33" cy="476.61" r="3" fill="#ff7f0e" /><circle cx="82.13" cy="476.77" r="3" fill="#ff7f0e" /><circle cx="81.92" cy="476.92" r="3" fill="#ff7f0e" /><circle cx="81.72" cy="477.07" r="3" fill="#ff7f0e" /><circle cx="81.52" cy="477.22" r="3" fill="#ff7f0e" /><circle cx="81.32000000000001" cy="477.37" r="3" fill="#ff7f0e" /><circle cx="81.12" cy="477.51" r="3" fill="#ff7f0e" /><circle cx="80.92" cy="477.66" r="3" fill="#ff7f0e" /><circle cx="80.72" cy="477.81" r="3" fill="#ff7f0e" /><circle cx="80.52" cy="477.96000000000004" r="3" fill="#ff7f0e" /><circle cx="80.32000000000001" cy="478.11" r="3" fill="#ff7f0e" /><circle cx="80.12" cy="478.25" r="3" fill="#ff7f0e" /><circle cx="79.92" cy="478.40000000000003" r="3" fill="#ff7f0e" /><circle cx="79.73" cy="478.55" r="3" fill="#ff7f0e" /><circle cx="79.53" cy="478.69" r="3" fill="#ff7f0e" /><circle cx="79.33" cy="478.84000000000003" r="3" fill="#ff7f0e" /><circle cx="79.14" cy="478.98" r="3" fill="#ff7f0e" /><circle cx="78.94" cy="479.13" r="3" fill="#ff7f0e" /><circle cx="78.75" cy="479.27" r="3" fill="#ff7f0e" /><circle cx="78.56" cy="479.42" r="3" fill="#ff7f0e" /><circle cx="78.36" cy="479.56" r="3" fill="#ff7f0e" /><circle cx="78.17" cy="479.7" r="3" fill="#ff7f0e" /><circle cx="77.98" cy="479.85" r="3" fill="#ff7f0e" /><circle cx="77.78" cy="479.99" r="3" fill="#ff7f0e" /><circle cx="77.59" cy="480.13" r="3" fill="#ff7f0e" /><circle cx="77.4" cy="480.27" r="3" fill="#ff7f0e" /><circle cx="77.21000000000001" cy="480.41" r="3" fill="#ff7f0e" /><circle cx="77.02" cy="480.56" r="3" fill="#ff7f0e" /><circle cx="76.83" cy="480.7" r="3" fill="#ff7f0e" /><circle cx="76.64" cy="480.84000000000003" r="3" fill="#ff7f0e" /><circle cx="76.46000000000001" cy="480.98" r="3" fill="#ff7f0e" /><circle cx="76.27" cy="481.12" r="3" fill="#ff7f0e" /><circle cx="76.08" cy="481.26" r="3" fill="#ff7f0e" /><circle cx="75.89" cy="481.39" r="3" fill="#ff7f0e" /><circle cx="75.71000000000001" cy="481.53000000000003" r="3" fill="#ff7f0e" /><circle cx="75.52" cy="481.67" r="3" fill="#ff7f0e" /><circle cx="75.33" cy="481.81" r="3" fill="#ff7f0e" /><circle cx="75.15" cy="481.95" r="3" fill="#ff7f0e" /><circle cx="74.96000000000001" cy="482.08" r="3" fill="#ff7f0e" /><circle cx="74.78" cy="482.22" r="3" fill="#ff7f0e" /><circle cx="74.60000000000001" cy="482.36" r="3" fill="#ff7f0e" /><circle cx="74.41" cy="482.49" r="3" fill="#ff7f0e" /><circle cx="74.23" cy="482.63" r="3" fill="#ff7f0e" /><circle cx="74.05" cy="482.77" r="3" fill="#ff7f0e" /><circle cx="73.87" cy="482.90000000000003" r="3" fill="#ff7f0e" /><circle cx="73.68" cy="483.04" r="3" fill="#ff7f0e" /><circle cx="73.5" cy="483.17" r="3" fill="#ff7f0e" /><circle cx="73.32000000000001" cy="483.3" r="3" fill="#ff7f0e" /><circle cx="73.14" cy="483.44" r="3" fill="#ff7f0e" /><circle cx="72.96000000000001" cy="483.57" r="3" fill="#ff7f0e" /><circle cx="72.78" cy="483.71000000000004" r="3" fill="#ff7f0e" /><circle cx="72.60000000000001" cy="483.84000000000003" r="3" fill="#ff7f0e" /><circle cx="72.43" cy="483.97" r="3" fill="#ff7f0e" /><circle cx="72.25" cy="484.1" r="3" fill="#ff7f0e" /><circle cx="72.07000000000001" cy="484.23" r="3" fill="#ff7f0e" /><circle cx="71.89" cy="484.37" r="3" fill="#ff7f0e" /><circle cx="71.72" cy="484.5" r="3" fill="#ff7f0e" /><circle cx="71.54" cy="484.63" r="3" fill="#ff7f0e" /><circle cx="71.36" cy="484.76" r="3" fill="#ff7f0e" /><circle cx="71.19" cy="484.89" r="3" fill="#ff7f0e" /><circle cx="71.01" cy="485.02" r="3" fill="#ff7f0e" /><circle cx="70.84" cy="485.15000000000003" r="3" fill="#ff7f0e" /><circle cx="70.66" cy="485.28000000000003" r="3" fill="#ff7f0e" /><circle cx="70.49" cy="485.41" r="3" fill="#ff7f0e" /><circle cx="70.32000000000001" cy="485.54" r="3" fill="#ff7f0e" /><circle cx="70.14" cy="485.67" r="3" fill="#ff7f0e" /><circle cx="69.97" cy="485.79" r="3" fill="#ff7f0e" /><circle cx="69.8" cy="485.92" r="3" fill="#ff7f0e" /><circle cx="69.63" cy="486.05" r="3" fill="#ff7f0e" /><circle cx="69.45" cy="486.18" r="3" fill="#ff7f0e" /><circle cx="69.28" cy="486.31" r="3" fill="#ff7f0e" /><circle cx="69.11" cy="486.43" r="3" fill="#ff7f0e" /><circle cx="68.94" cy="486.56" r="3" fill="#ff7f0e" /><circle cx="68.77" cy="486.68" r="3" fill="#ff7f0e" /><circle cx="68.60000000000001" cy="486.81" r="3" fill="#ff7f0e" /><circle cx="68.43" cy="486.94" r="3" fill="#ff7f0e" /><circle cx="68.26" cy="487.06" r="3" fill="#ff7f0e" /><circle cx="68.1" cy="487.19" r="3" fill="#ff7f0e" /><circle cx="67.93" cy="487.31" r="3" fill="#ff7f0e" /><circle cx="67.76" cy="487.44" r="3" fill="#ff7f0e" /><circle cx="67.59" cy="487.56" r="3" fill="#ff7f0e" /><circle cx="67.43" cy="487.68" r="3" fill="#ff7f0e" /><circle cx="67.26" cy="487.81" r="3" fill="#ff7f0e" /><circle cx="67.09" cy="487.93" r="3" fill="#ff7f0e" /><circle cx="66.93" cy="488.06" r="3" fill="#ff7f0e" /><circle cx="66.76" cy="488.18" r="3" fill="#ff7f0e" /><circle cx="66.6" cy="488.3" r="3" fill="#ff7f0e" /><circle cx="66.43" cy="488.42" r="3" fill="#ff7f0e" /><circle cx="66.27" cy="488.55" r="3" fill="#ff7f0e" /><circle cx="66.1" cy="488.67" r="3" fill="#ff7f0e" /><circle cx="65.94" cy="488.79" r="3" fill="#ff7f0e" /><circle cx="65.78" cy="488.91" r="3" fill="#ff7f0e" /><circle cx="65.61" cy="489.03000000000003" r="3" fill="#ff7f0e" /><circle cx="65.45" cy="489.15000000000003" r="3" fill="#ff7f0e" /><circle cx="65.29" cy="489.27" r="3" fill="#ff7f0e" /><circle cx="65.13" cy="489.39" r="3" fill="#ff7f0e" /><circle cx="64.97" cy="489.51" r="3" fill="#ff7f0e" /><circle cx="64.8" cy="489.63" r="3" fill="#ff7f0e" /><circle cx="64.64" cy="489.75" r="3" fill="#ff7f0e" /><circle cx="64.48" cy="489.87" r="3" fill="#ff7f0e" /><circle cx="64.32000000000001" cy="489.99" r="3" fill="#ff7f0e" /><circle cx="64.16" cy="490.11" r="3" fill="#ff7f0e" /><circle cx="64" cy="490.23" r="3" fill="#ff7f0e" /><circle cx="63.84" cy="490.35" r="3" fill="#ff7f0e" /><circle cx="63.690000000000005" cy="490.46000000000004" r="3" fill="#ff7f0e" /><circle cx="63.53" cy="490.58" r="3" fill="#ff7f0e" /><circle cx="63.370000000000005" cy="490.7" r="3" fill="#ff7f0e" /><circle cx="63.21" cy="490.82" r="3" fill="#ff7f0e" /><circle cx="63.050000000000004" cy="490.93" r="3" fill="#ff7f0e" /><circle cx="62.9" cy="491.05" r="3" fill="#ff7f0e" /><circle cx="62.74" cy="491.17" r="3" fill="#ff7f0e" /><circle cx="62.58" cy="491.28000000000003" r="3" fill="#ff7f0e" /><circle cx="62.43" cy="491.40000000000003" r="3" fill="#ff7f0e" /><circle cx="62.27" cy="491.51" r="3" fill="#ff7f0e" /><circle cx="62.120000000000005" cy="491.63" r="3" fill="#ff7f0e" /><circle cx="61.96" cy="491.74" r="3" fill="#ff7f0e" /><circle cx="61.81" cy="491.86" r="3" fill="#ff7f0e" /><circle cx="61.65" cy="491.97" r="3" fill="#ff7f0e" /><circle cx="61.5" cy="492.09000000000003" r="3" fill="#ff7f0e" /><circle cx="61.34" cy="492.2" r="3" fill="#ff7f0e" /><circle cx="61.19" cy="492.32" r="3" fill="#ff7f0e" /><circle cx="61.04" cy="492.43" r="3" fill="#ff7f0e" /><circle cx="60.88" cy="492.54" r="3" fill="#ff7f0e" /><circle cx="60.730000000000004" cy="492.66" r="3" fill="#ff7f0e" /><circle cx="60.58" cy="492.77000000000004" r="3" fill="#ff7f0e" /><circle cx="60.43" cy="492.88" r="3" fill="#ff7f0e" /><circle cx="60.28" cy="493" r="3" fill="#ff7f0e" /><circle cx="60.13" cy="493.11" r="3" fill="#ff7f0e" /><circle cx="59.97" cy="493.22" r="3" fill="#ff7f0e" /><circle cx="59.82" cy="493.33" r="3" fill="#ff7f0e" /><circle cx="59.67" cy="493.44" r="3" fill="#ff7f0e" /><circle cx="59.52" cy="493.56" r="3" fill="#ff7f0e" /><circle cx="59.370000000000005" cy="493.67" r="3" fill="#ff7f0e" /><circle cx="59.22" cy="493.78000000000003" r="3" fill="#ff7f0e" /><circle cx="59.07" cy="493.89" r="3" fill="#ff7f0e" /><text x="89" y="78" font-size="12" text-anchor="start" fill="#ff7f0e">Study B λ = 0.767</text></g><rect x="664" y="34" width="96" height="56" fill="#ffffff" /><rect x="664" y="34" width="96" height="56" fill="none" stroke="#000000" stroke-width="1" /><text x="694" y="53.2" font-size="12" text-anchor="start">Study A</text><circle cx="679" cy="49" r="5" fill="#1f77b4" /><text x="694" y="71.2" font-size="12" text-anchor="start">Study B</text><circle cx="679" cy="67" r="5" fill="#ff7f0e" /></svg>