<svg xmlns="http://www.w3.org/2000/svg" width="677" height="545" font-family="DejaVu Sans, Liberation Sans, Arial, sans-serif" fill="black"><rect width="100%" height="100%" fill="white" /><defs><clipPath id="kuva-clip-0"><rect x="59" y="44" width="600" height="450"/></clipPath></defs><line x1="159" y1="44" x2="159" y2="494" stroke="#cccccc" stroke-width="1" /><line x1="259" y1="44" x2="259" y2="494" stroke="#cccccc" stroke-width="1" /><line x1="359" y1="44" x2="359" y2="494" stroke="#cccccc" stroke-width="1" /><line x1="459" y1="44" x2="459" y2="494" stroke="#cccccc" stroke-width="1" /><line x1="559" y1="44" x2="559" y2="494" stroke="#cccccc" stroke-width="1" /><line x1="659" y1="44" x2="659" y2="494" stroke="#cccccc" stroke-width="1" /><line x1="59" y1="419" x2="659" y2="419" stroke="#cccccc" stroke-width="1" /><line x1="59" y1="344" x2="659" y2="344" stroke="#cccccc" stroke-width="1" /><line x1="59" y1="269" x2="659" y2="269" stroke="#cccccc" stroke-width="1" /><line x1="59" y1="194" x2="659" y2="194" stroke="#cccccc" stroke-width="1" /><line x1="59" y1="119" x2="659" y2="119" stroke="#cccccc" stroke-width="1" /><line x1="59" y1="44" x2="659" y2="44" stroke="#cccccc" stroke-width="1" /><line x1="59" y1="494" x2="659" y2="494" stroke="#000000" stroke-width="1" /><line x1="59" y1="44" x2="59" y2="494" stroke="#000000" stroke-width="1" /><line x1="59" y1="494" x2="59" y2="499" stroke="#000000" stroke-width="1" /><text x="59" y="511" font-size="12" text-anchor="middle">-3</text><line x1="159" y1="494" x2="159" y2="499" stroke="#000000" stroke-width="1" /><text x="159" y="511" font-size="12" text-anchor="middle">-2</text><line x1="259" y1="494" x2="259" y2="499" stroke="#000000" stroke-width="1" /><text x="259" y="511" font-size="12" text-anchor="middle">-1</text><line x1="359" y1="494" x2="359" y2="499" stroke="#000000" stroke-width="1" /><text x="359" y="511" font-size="12" text-anchor="middle">0</text><line x1="459" y1="494" x2="459" y2="499" stroke="#000000" stroke-width="1" /><text x="459" y="511" font-size="12" text-anchor="middle">1</text><line x1="559" y1="494" x2="559" y2="499" stroke="#000000" stroke-width="1" /><text x="559" y="511" font-size="12" text-anchor="middle">2</text><line x1="659" y1="494" x2="659" y2="499" stroke="#000000" stroke-width="1" /><text x="659" y="511" font-size="12" text-anchor="middle">3</text><line x1="54" y1="494" x2="59" y2="494" stroke="#000000" stroke-width="1" /><text x="51" y="498.2" font-size="12" text-anchor="end">-3</text><line x1="54" y1="419" x2="59" y2="419" stroke="#000000" stroke-width="1" /><text x="51" y="423.2" font-size="12" text-anchor="end">-2</text><line x1="54" y1="344" x2="59" y2="344" stroke="#000000" stroke-width="1" /><text x="51" y="348.2" font-size="12" text-anchor="end">-1</text><line x1="54" y1="269" x2="59" y2="269" stroke="#000000" stroke-width="1" /><text x="51" y="273.2" font-size="12" text-anchor="end">0</text><line x1="54" y1="194" x2="59" y2="194" stroke="#000000" stroke-width="1" /><text x="51" y="198.20000000000002" font-size="12" text-anchor="end">1</text><line x1="54" y1="119" x2="59" y2="119" stroke="#000000" stroke-width="1" /><text x="51" y="123.2" font-size="12" text-anchor="end">2</text><line x1="54" y1="44" x2="59" y2="44" stroke="#000000" stroke-width="1" /><text x="51" y="48.2" font-size="12" text-anchor="end">3</text><text x="359" y="538" font-size="14" text-anchor="middle">Theoretical Quantiles</text><text x="15" y="272.5" font-size="14" text-anchor="middle" transform="rotate(-90,15,272.5)">Sample Quantiles</text><text x="338.5" y="27.400000000000002" font-size="18" text-anchor="middle">Normal Q-Q</text><g clip-path="url(#kuva-clip-0)"><line x1="78.3" y1="472.89" x2="639.7" y2="62.09" stroke="#999999" stroke-width="1.5" stroke-dasharray="5,3" /><circle cx="78.3" cy="462.54" r="3" fill="#4682b4" /><circle cx="115.76" cy="444.6" r="3" fill="#4682b4" /><circle cx="134.86" cy="419.27" r="3" fill="#4682b4" /><circle cx="148.16" cy="408.62" r="3" fill="#4682b4" /><circle cx="158.53" cy="408.19" r="3" fill="#4682b4" /><circle cx="167.11" cy="406.08" r="3" fill="#4682b4" /><circle cx="174.47" cy="389.34000000000003" r="3" fill="#4682b4" /><circle cx="180.95000000000002" cy="385.35" r="3" fill="#4682b4" /><circle cx="186.76" cy="379.82" r="3" fill="#4682b4" /><circle cx="192.04" cy="379.6" r="3" fill="#4682b4" /><circle cx="196.89000000000001" cy="378.46" r="3" fill="#4682b4" /><circle cx="201.39000000000001" cy="375.83" r="3" fill="#4682b4" /><circle cx="205.59" cy="373.48" r="3" fill="#4682b4" /><circle cx="209.53" cy="373.17" r="3" fill="#4682b4" /><circle cx="213.26" cy="372.3" r="3" fill="#4682b4" /><circle cx="216.79" cy="372.2" r="3" fill="#4682b4" /><circle cx="220.15" cy="370.23" r="3" fill="#4682b4" /><circle cx="223.37" cy="369.78000000000003" r="3" fill="#4682b4" /><circle cx="226.45000000000002" cy="369.27" r="3" fill="#4682b4" /><circle cx="229.41" cy="365.35" r="3" fill="#4682b4" /><circle cx="232.26" cy="364.28000000000003" r="3" fill="#4682b4" /><circle cx="235.01" cy="363.22" r="3" fill="#4682b4" /><circle cx="237.67000000000002" cy="362.7" r="3" fill="#4682b4" /><circle cx="240.24" cy="362.55" r="3" fill="#4682b4" /><circle cx="242.74" cy="362.46" r="3" fill="#4682b4" /><circle cx="245.17000000000002" cy="362.46" r="3" fill="#4682b4" /><circle cx="247.53" cy="358.38" r="3" fill="#4682b4" /><circle cx="249.84" cy="353.08" r="3" fill="#4682b4" /><circle cx="252.08" cy="349.75" r="3" fill="#4682b4" /><circle cx="254.28" cy="348.13" r="3" fill="#4682b4" /><circle cx="256.42" cy="346.84000000000003" r="3" fill="#4682b4" /><circle cx="258.52" cy="342.14" r="3" fill="#4682b4" /><circle cx="260.58" cy="341.68" r="3" fill="#4682b4" /><circle cx="262.59000000000003" cy="341.21" r="3" fill="#4682b4" /><circle cx="264.57" cy="337.23" r="3" fill="#4682b4" /><circle cx="266.51" cy="336.27" r="3" fill="#4682b4" /><circle cx="268.41" cy="334.85" r="3" fill="#4682b4" /><circle cx="270.29" cy="334.64" r="3" fill="#4682b4" /><circle cx="272.13" cy="334.52" r="3" fill="#4682b4" /><circle cx="273.94" cy="330.07" r="3" fill="#4682b4" /><circle cx="275.73" cy="327.78000000000003" r="3" fill="#4682b4" /><circle cx="277.49" cy="326.31" r="3" fill="#4682b4" /><circle cx="279.22" cy="324.97" r="3" fill="#4682b4" /><circle cx="280.93" cy="320.84000000000003" r="3" fill="#4682b4" /><circle cx="282.62" cy="320.37" r="3" fill="#4682b4" /><circle cx="284.29" cy="319.02" r="3" fill="#4682b4" /><circle cx="285.94" cy="318.90000000000003" r="3" fill="#4682b4" /><circle cx="287.56" cy="318.88" r="3" fill="#4682b4" /><circle cx="289.17" cy="318.3" r="3" fill="#4682b4" /><circle cx="290.76" cy="317.01" r="3" fill="#4682b4" /><circle cx="292.34000000000003" cy="316.79" r="3" fill="#4682b4" /><circle cx="293.89" cy="314.72" r="3" fill="#4682b4" /><circle cx="295.43" cy="311.58" r="3" fill="#4682b4" /><circle cx="296.96" cy="311.17" r="3" fill="#4682b4" /><circle cx="298.47" cy="310.02" r="3" fill="#4682b4" /><circle cx="299.97" cy="309.7" r="3" fill="#4682b4" /><circle cx="301.46" cy="309.19" r="3" fill="#4682b4" /><circle cx="302.93" cy="308.86" r="3" fill="#4682b4" /><circle cx="304.39" cy="307.62" r="3" fill="#4682b4" /><circle cx="305.84000000000003" cy="299.59000000000003" r="3" fill="#4682b4" /><circle cx="307.28000000000003" cy="298.12" r="3" fill="#4682b4" /><circle cx="308.71" cy="298.05" r="3" fill="#4682b4" /><circle cx="310.12" cy="298.02" r="3" fill="#4682b4" /><circle cx="311.53000000000003" cy="297.85" r="3" fill="#4682b4" /><circle cx="312.93" cy="296.83" r="3" fill="#4682b4" /><circle cx="314.32" cy="296.71" r="3" fill="#4682b4" /><circle cx="315.7" cy="296.40000000000003" r="3" fill="#4682b4" /><circle cx="317.07" cy="296.27" r="3" fill="#4682b4" /><circle cx="318.44" cy="295.83" r="3" fill="#4682b4" /><circle cx="319.79" cy="295.57" r="3" fill="#4682b4" /><circle cx="321.14" cy="295.34000000000003" r="3" fill="#4682b4" /><circle cx="322.49" cy="295.17" r="3" fill="#4682b4" /><circle cx="323.82" cy="293.99" r="3" fill="#4682b4" /><circle cx="325.15000000000003" cy="291.3" r="3" fill="#4682b4" /><circle cx="326.48" cy="290.96" r="3" fill="#4682b4" /><circle cx="327.79" cy="290.95" r="3" fill="#4682b4" /><circle cx="329.11" cy="290.74" r="3" fill="#4682b4" /><circle cx="330.42" cy="289.95" r="3" fill="#4682b4" /><circle cx="331.72" cy="289.61" r="3" fill="#4682b4" /><circle cx="333.02" cy="288.2" r="3" fill="#4682b4" /><circle cx="334.31" cy="285.75" r="3" fill="#4682b4" /><circle cx="335.6" cy="285.26" r="3" fill="#4682b4" /><circle cx="336.89" cy="285.12" r="3" fill="#4682b4" /><circle cx="338.17" cy="284.3" r="3" fill="#4682b4" /><circle cx="339.45" cy="281.16" r="3" fill="#4682b4" /><circle cx="340.73" cy="280.51" r="3" fill="#4682b4" /><circle cx="342" cy="280.01" r="3" fill="#4682b4" /><circle cx="343.27" cy="279.90000000000003" r="3" fill="#4682b4" /><circle cx="344.54" cy="278.32" r="3" fill="#4682b4" /><circle cx="345.8" cy="277.53000000000003" r="3" fill="#4682b4" /><circle cx="347.07" cy="276.84000000000003" r="3" fill="#4682b4" /><circle cx="348.33" cy="276.8" r="3" fill="#4682b4" /><circle cx="349.59000000000003" cy="276.8" r="3" fill="#4682b4" /><circle cx="350.84000000000003" cy="273.26" r="3" fill="#4682b4" /><circle cx="352.1" cy="273.09000000000003" r="3" fill="#4682b4" /><circle cx="353.36" cy="272.18" r="3" fill="#4682b4" /><circle cx="354.61" cy="271.49" r="3" fill="#4682b4" /><circle cx="355.87" cy="267.42" r="3" fill="#4682b4" /><circle cx="357.12" cy="265.43" r="3" fill="#4682b4" /><circle cx="358.37" cy="265.38" r="3" fill="#4682b4" /><circle cx="359.63" cy="264.69" r="3" fill="#4682b4" /><circle cx="360.88" cy="263.64" r="3" fill="#4682b4" /><circle cx="362.13" cy="262.26" r="3" fill="#4682b4" /><circle cx="363.39" cy="261.72" r="3" fill="#4682b4" /><circle cx="364.64" cy="261.57" r="3" fill="#4682b4" /><circle cx="365.90000000000003" cy="260.93" r="3" fill="#4682b4" /><circle cx="367.16" cy="259.59000000000003" r="3" fill="#4682b4" /><circle cx="368.41" cy="258.68" r="3" fill="#4682b4" /><circle cx="369.67" cy="258.51" r="3" fill="#4682b4" /><circle cx="370.93" cy="258.36" r="3" fill="#4682b4" /><circle cx="372.2" cy="257.25" r="3" fill="#4682b4" /><circle cx="373.46" cy="255.06" r="3" fill="#4682b4" /><circle cx="374.73" cy="253.48000000000002" r="3" fill="#4682b4" /><circle cx="376" cy="252.87" r="3" fill="#4682b4" /><circle cx="377.27" cy="251.07" r="3" fill="#4682b4" /><circle cx="378.55" cy="250.24" r="3" fill="#4682b4" /><circle cx="379.83" cy="248.44" r="3" fill="#4682b4" /><circle cx="381.11" cy="248.36" r="3" fill="#4682b4" /><circle cx="382.40000000000003" cy="248.25" r="3" fill="#4682b4" /><circle cx="383.69" cy="247.92000000000002" r="3" fill="#4682b4" /><circle cx="384.98" cy="247.59" r="3" fill="#4682b4" /><circle cx="386.28000000000003" cy="246.36" r="3" fill="#4682b4" /><circle cx="387.58" cy="245.14000000000001" r="3" fill="#4682b4" /><circle cx="388.89" cy="245.1" r="3" fill="#4682b4" /><circle cx="390.21000000000004" cy="242.09" r="3" fill="#4682b4" /><circle cx="391.52" cy="241.64000000000001" r="3" fill="#4682b4" /><circle cx="392.85" cy="240.8" r="3" fill="#4682b4" /><circle cx="394.18" cy="239.96" r="3" fill="#4682b4" /><circle cx="395.51" cy="239.56" r="3" fill="#4682b4" /><circle cx="396.86" cy="239.47" r="3" fill="#4682b4" /><circle cx="398.21000000000004" cy="237.92000000000002" r="3" fill="#4682b4" /><circle cx="399.56" cy="235.72" r="3" fill="#4682b4" /><circle cx="400.93" cy="234.31" r="3" fill="#4682b4" /><circle cx="402.3" cy="234.17000000000002" r="3" fill="#4682b4" /><circle cx="403.68" cy="231.89000000000001" r="3" fill="#4682b4" /><circle cx="405.07" cy="230.25" r="3" fill="#4682b4" /><circle cx="406.47" cy="229.92000000000002" r="3" fill="#4682b4" /><circle cx="407.88" cy="229.39000000000001" r="3" fill="#4682b4" /><circle cx="409.29" cy="229.20000000000002" r="3" fill="#4682b4" /><circle cx="410.72" cy="228.23000000000002" r="3" fill="#4682b4" /><circle cx="412.16" cy="225.84" r="3" fill="#4682b4" /><circle cx="413.61" cy="225.55" r="3" fill="#4682b4" /><circle cx="415.07" cy="225.1" r="3" fill="#4682b4" /><circle cx="416.54" cy="223.64000000000001" r="3" fill="#4682b4" /><circle cx="418.03000000000003" cy="220.31" r="3" fill="#4682b4" /><circle cx="419.53000000000003" cy="220.16" r="3" fill="#4682b4" /><circle cx="421.04" cy="219.74" r="3" fill="#4682b4" /><circle cx="422.57" cy="219.43" r="3" fill="#4682b4" /><circle cx="424.11" cy="218.84" r="3" fill="#4682b4" /><circle cx="425.66" cy="218.64000000000001" r="3" fill="#4682b4" /><circle cx="427.24" cy="216.63" r="3" fill="#4682b4" /><circle cx="428.83" cy="214.86" r="3" fill="#4682b4" /><circle cx="430.44" cy="214.36" r="3" fill="#4682b4" /><circle cx="432.06" cy="213.73000000000002" r="3" fill="#4682b4" /><circle cx="433.71000000000004" cy="212.34" r="3" fill="#4682b4" /><circle cx="435.38" cy="211.07" r="3" fill="#4682b4" /><circle cx="437.07" cy="210.39000000000001" r="3" fill="#4682b4" /><circle cx="438.78000000000003" cy="210.05" r="3" fill="#4682b4" /><circle cx="440.51" cy="209.92000000000002" r="3" fill="#4682b4" /><circle cx="442.27" cy="209.8" r="3" fill="#4682b4" /><circle cx="444.06" cy="208.66" r="3" fill="#4682b4" /><circle cx="445.87" cy="208.13" r="3" fill="#4682b4" /><circle cx="447.71000000000004" cy="206.81" r="3" fill="#4682b4" /><circle cx="449.59000000000003" cy="206.42000000000002" r="3" fill="#4682b4" /><circle cx="451.49" cy="205.91" r="3" fill="#4682b4" /><circle cx="453.43" cy="205.6" r="3" fill="#4682b4" /><circle cx="455.41" cy="205.52" r="3" fill="#4682b4" /><circle cx="457.42" cy="204.87" r="3" fill="#4682b4" /><circle cx="459.48" cy="204.27" r="3" fill="#4682b4" /><circle cx="461.58" cy="202.3" r="3" fill="#4682b4" /><circle cx="463.72" cy="202.22" r="3" fill="#4682b4" /><circle cx="465.92" cy="200.92000000000002" r="3" fill="#4682b4" /><circle cx="468.16" cy="200.47" r="3" fill="#4682b4" /><circle cx="470.47" cy="199.78" r="3" fill="#4682b4" /><circle cx="472.83" cy="198.32" r="3" fill="#4682b4" /><circle cx="475.26" cy="198.28" r="3" fill="#4682b4" /><circle cx="477.76" cy="197.47" r="3" fill="#4682b4" /><circle cx="480.33" cy="192.71" r="3" fill="#4682b4" /><circle cx="482.99" cy="189.1" r="3" fill="#4682b4" /><circle cx="485.74" cy="184.91" r="3" fill="#4682b4" /><circle cx="488.59000000000003" cy="182.3" r="3" fill="#4682b4" /><circle cx="491.55" cy="180.70000000000002" r="3" fill="#4682b4" /><circle cx="494.63" cy="176.74" r="3" fill="#4682b4" /><circle cx="497.85" cy="175.75" r="3" fill="#4682b4" /><circle cx="501.21000000000004" cy="172.63" r="3" fill="#4682b4" /><circle cx="504.74" cy="163.42000000000002" r="3" fill="#4682b4" /><circle cx="508.47" cy="162.75" r="3" fill="#4682b4" /><circle cx="512.41" cy="161.81" r="3" fill="#4682b4" /><circle cx="516.61" cy="160.15" r="3" fill="#4682b4" /><circle cx="521.11" cy="135.95" r="3" fill="#4682b4" /><circle cx="525.96" cy="134.05" r="3" fill="#4682b4" /><circle cx="531.24" cy="127.86" r="3" fill="#4682b4" /><circle cx="537.05" cy="124.79" r="3" fill="#4682b4" /><circle cx="543.53" cy="122.46000000000001" r="3" fill="#4682b4" /><circle cx="550.89" cy="117.74000000000001" r="3" fill="#4682b4" /><circle cx="559.47" cy="116.55" r="3" fill="#4682b4" /><circle cx="569.84" cy="114.68" r="3" fill="#4682b4" /><circle cx="583.14" cy="110.22" r="3" fill="#4682b4" /><circle cx="602.24" cy="85.95" r="3" fill="#4682b4" /><circle cx="639.7" cy="85.23" r="3" fill="#4682b4" /></g></svg>