<svg xmlns="http://www.w3.org/2000/svg" width="773" height="545" font-family="DejaVu Sans, Liberation Sans, Arial, sans-serif" fill="black"><rect width="100%" height="100%" fill="white" /><defs><clipPath id="kuva-clip-2"><rect x="59" y="44" width="600" height="450"/></clipPath></defs><line x1="159" y1="44" x2="159" y2="494" stroke="#cccccc" stroke-width="1" /><line x1="259" y1="44" x2="259" y2="494" stroke="#cccccc" stroke-width="1" /><line x1="359" y1="44" x2="359" y2="494" stroke="#cccccc" stroke-width="1" /><line x1="459" y1="44" x2="459" y2="494" stroke="#cccccc" stroke-width="1" /><line x1="559" y1="44" x2="559" y2="494" stroke="#cccccc" stroke-width="1" /><line x1="659" y1="44" x2="659" y2="494" stroke="#cccccc" stroke-width="1" /><line x1="59" y1="437.75" x2="659" y2="437.75" stroke="#cccccc" stroke-width="1" /><line x1="59" y1="325.25" x2="659" y2="325.25" stroke="#cccccc" stroke-width="1" /><line x1="59" y1="212.75" x2="659" y2="212.75" stroke="#cccccc" stroke-width="1" /><line x1="59" y1="100.25" x2="659" y2="100.25" stroke="#cccccc" stroke-width="1" /><line x1="59" y1="494" x2="659" y2="494" stroke="#000000" stroke-width="1" /><line x1="59" y1="44" x2="59" y2="494" stroke="#000000" stroke-width="1" /><line x1="59" y1="494" x2="59" y2="499" stroke="#000000" stroke-width="1" /><text x="59" y="511" font-size="12" text-anchor="middle">-3</text><line x1="159" y1="494" x2="159" y2="499" stroke="#000000" stroke-width="1" /><text x="159" y="511" font-size="12" text-anchor="middle">-2</text><line x1="259" y1="494" x2="259" y2="499" stroke="#000000" stroke-width="1" /><text x="259" y="511" font-size="12" text-anchor="middle">-1</text><line x1="359" y1="494" x2="359" y2="499" stroke="#000000" stroke-width="1" /><text x="359" y="511" font-size="12" text-anchor="middle">0</text><line x1="459" y1="494" x2="459" y2="499" stroke="#000000" stroke-width="1" /><text x="459" y="511" font-size="12" text-anchor="middle">1</text><line x1="559" y1="494" x2="559" y2="499" stroke="#000000" stroke-width="1" /><text x="559" y="511" font-size="12" text-anchor="middle">2</text><line x1="659" y1="494" x2="659" y2="499" stroke="#000000" stroke-width="1" /><text x="659" y="511" font-size="12" text-anchor="middle">3</text><line x1="54" y1="437.75" x2="59" y2="437.75" stroke="#000000" stroke-width="1" /><text x="51" y="441.95" font-size="12" text-anchor="end">-2</text><line x1="54" y1="325.25" x2="59" y2="325.25" stroke="#000000" stroke-width="1" /><text x="51" y="329.45" font-size="12" text-anchor="end">0</text><line x1="54" y1="212.75" x2="59" y2="212.75" stroke="#000000" stroke-width="1" /><text x="51" y="216.95000000000002" font-size="12" text-anchor="end">2</text><line x1="54" y1="100.25" x2="59" y2="100.25" stroke="#000000" stroke-width="1" /><text x="51" y="104.45" font-size="12" text-anchor="end">4</text><text x="359" y="538" font-size="14" text-anchor="middle">Theoretical Quantiles</text><text x="15" y="272.5" font-size="14" text-anchor="middle" transform="rotate(-90,15,272.5)">Sample Quantiles</text><text x="386.5" y="27.400000000000002" font-size="18" text-anchor="middle">Normal Q-Q — two groups</text><g clip-path="url(#kuva-clip-2)"><line x1="87.69" y1="462.26" x2="630.3100000000001" y2="201.39000000000001" stroke="#999999" stroke-width="1.5" stroke-dasharray="5,3" /><circle cx="87.69" cy="465.27" r="3" fill="#1f77b4" /><circle cx="126.37" cy="443.24" r="3" fill="#1f77b4" /><circle cx="146.20000000000002" cy="436.99" r="3" fill="#1f77b4" /><circle cx="160.07" cy="433.02" r="3" fill="#1f77b4" /><circle cx="170.92000000000002" cy="430.95" r="3" fill="#1f77b4" /><circle cx="179.92000000000002" cy="427.37" r="3" fill="#1f77b4" /><circle cx="187.68" cy="424.14" r="3" fill="#1f77b4" /><circle cx="194.51" cy="412.97" r="3" fill="#1f77b4" /><circle cx="200.66" cy="407.53000000000003" r="3" fill="#1f77b4" /><circle cx="206.26" cy="401.11" r="3" fill="#1f77b4" /><circle cx="211.42000000000002" cy="400.39" r="3" fill="#1f77b4" /><circle cx="216.21" cy="385.23" r="3" fill="#1f77b4" /><circle cx="220.70000000000002" cy="381.32" r="3" fill="#1f77b4" /><circle cx="224.92000000000002" cy="380.92" r="3" fill="#1f77b4" /><circle cx="228.92000000000002" cy="380.89" r="3" fill="#1f77b4" /><circle cx="232.72" cy="378.63" r="3" fill="#1f77b4" /><circle cx="236.35" cy="378.08" r="3" fill="#1f77b4" /><circle cx="239.82" cy="377.90000000000003" r="3" fill="#1f77b4" /><circle cx="243.15" cy="377.82" r="3" fill="#1f77b4" /><circle cx="246.36" cy="376.02" r="3" fill="#1f77b4" /><circle cx="249.46" cy="375.33" r="3" fill="#1f77b4" /><circle cx="252.45000000000002" cy="374.91" r="3" fill="#1f77b4" /><circle cx="255.36" cy="374.86" r="3" fill="#1f77b4" /><circle cx="258.17" cy="374.48" r="3" fill="#1f77b4" /><circle cx="260.91" cy="373.43" r="3" fill="#1f77b4" /><circle cx="263.58" cy="371.40000000000003" r="3" fill="#1f77b4" /><circle cx="266.19" cy="371.14" r="3" fill="#1f77b4" /><circle cx="268.73" cy="370.96" r="3" fill="#1f77b4" /><circle cx="271.21" cy="370.82" r="3" fill="#1f77b4" /><circle cx="273.64" cy="369.61" r="3" fill="#1f77b4" /><circle cx="276.02" cy="369.45" r="3" fill="#1f77b4" /><circle cx="278.36" cy="369.29" r="3" fill="#1f77b4" /><circle cx="280.65000000000003" cy="369.05" r="3" fill="#1f77b4" /><circle cx="282.90000000000003" cy="366.38" r="3" fill="#1f77b4" /><circle cx="285.12" cy="365.59000000000003" r="3" fill="#1f77b4" /><circle cx="287.29" cy="364.57" r="3" fill="#1f77b4" /><circle cx="289.44" cy="364.45" r="3" fill="#1f77b4" /><circle cx="291.55" cy="364.28000000000003" r="3" fill="#1f77b4" /><circle cx="293.63" cy="364.16" r="3" fill="#1f77b4" /><circle cx="295.69" cy="363.37" r="3" fill="#1f77b4" /><circle cx="297.72" cy="361.32" r="3" fill="#1f77b4" /><circle cx="299.72" cy="361.02" r="3" fill="#1f77b4" /><circle cx="301.7" cy="360" r="3" fill="#1f77b4" /><circle cx="303.66" cy="358.57" r="3" fill="#1f77b4" /><circle cx="305.6" cy="357.87" r="3" fill="#1f77b4" /><circle cx="307.52" cy="352.15000000000003" r="3" fill="#1f77b4" /><circle cx="309.41" cy="351.82" r="3" fill="#1f77b4" /><circle cx="311.3" cy="351.18" r="3" fill="#1f77b4" /><circle cx="313.16" cy="350.39" r="3" fill="#1f77b4" /><circle cx="315.01" cy="349.75" r="3" fill="#1f77b4" /><circle cx="316.84000000000003" cy="349.7" r="3" fill="#1f77b4" /><circle cx="318.66" cy="348.5" r="3" fill="#1f77b4" /><circle cx="320.47" cy="348.32" r="3" fill="#1f77b4" /><circle cx="322.26" cy="347.65000000000003" r="3" fill="#1f77b4" /><circle cx="324.04" cy="346.2" r="3" fill="#1f77b4" /><circle cx="325.81" cy="345.90000000000003" r="3" fill="#1f77b4" /><circle cx="327.58" cy="345.35" r="3" fill="#1f77b4" /><circle cx="329.33" cy="344.38" r="3" fill="#1f77b4" /><circle cx="331.07" cy="340.86" r="3" fill="#1f77b4" /><circle cx="332.8" cy="340.05" r="3" fill="#1f77b4" /><circle cx="334.53000000000003" cy="339.66" r="3" fill="#1f77b4" /><circle cx="336.25" cy="337.98" r="3" fill="#1f77b4" /><circle cx="337.96" cy="337.84000000000003" r="3" fill="#1f77b4" /><circle cx="339.66" cy="335.53000000000003" r="3" fill="#1f77b4" /><circle cx="341.36" cy="335.1" r="3" fill="#1f77b4" /><circle cx="343.06" cy="334.61" r="3" fill="#1f77b4" /><circle cx="344.75" cy="333.86" r="3" fill="#1f77b4" /><circle cx="346.43" cy="333.81" r="3" fill="#1f77b4" /><circle cx="348.12" cy="333.69" r="3" fill="#1f77b4" /><circle cx="349.8" cy="332.90000000000003" r="3" fill="#1f77b4" /><circle cx="351.47" cy="331.41" r="3" fill="#1f77b4" /><circle cx="353.15000000000003" cy="331.33" r="3" fill="#1f77b4" /><circle cx="354.82" cy="328.71" r="3" fill="#1f77b4" /><circle cx="356.49" cy="328.6" r="3" fill="#1f77b4" /><circle cx="358.16" cy="328.47" r="3" fill="#1f77b4" /><circle cx="359.84000000000003" cy="327.24" r="3" fill="#1f77b4" /><circle cx="361.51" cy="327.03000000000003" r="3" fill="#1f77b4" /><circle cx="363.18" cy="327.03000000000003" r="3" fill="#1f77b4" /><circle cx="364.85" cy="326.43" r="3" fill="#1f77b4" /><circle cx="366.53000000000003" cy="325.36" r="3" fill="#1f77b4" /><circle cx="368.2" cy="324.2" r="3" fill="#1f77b4" /><circle cx="369.88" cy="323.93" r="3" fill="#1f77b4" /><circle cx="371.57" cy="322.94" r="3" fill="#1f77b4" /><circle cx="373.25" cy="321.34000000000003" r="3" fill="#1f77b4" /><circle cx="374.94" cy="321.03000000000003" r="3" fill="#1f77b4" /><circle cx="376.64" cy="320.71" r="3" fill="#1f77b4" /><circle cx="378.34000000000003" cy="320.40000000000003" r="3" fill="#1f77b4" /><circle cx="380.04" cy="319.15000000000003" r="3" fill="#1f77b4" /><circle cx="381.75" cy="318.98" r="3" fill="#1f77b4" /><circle cx="383.47" cy="318.14" r="3" fill="#1f77b4" /><circle cx="385.2" cy="316.85" r="3" fill="#1f77b4" /><circle cx="386.93" cy="313.28000000000003" r="3" fill="#1f77b4" /><circle cx="388.67" cy="312.43" r="3" fill="#1f77b4" /><circle cx="390.42" cy="311.21" r="3" fill="#1f77b4" /><circle cx="392.19" cy="311.16" r="3" fill="#1f77b4" /><circle cx="393.96000000000004" cy="311.14" r="3" fill="#1f77b4" /><circle cx="395.74" cy="310.72" r="3" fill="#1f77b4" /><circle cx="397.53000000000003" cy="309.96" r="3" fill="#1f77b4" /><circle cx="399.34000000000003" cy="309.31" r="3" fill="#1f77b4" /><circle cx="401.16" cy="308.17" r="3" fill="#1f77b4" /><circle cx="402.99" cy="306.85" r="3" fill="#1f77b4" /><circle cx="404.84000000000003" cy="306.76" r="3" fill="#1f77b4" /><circle cx="406.7" cy="306.45" r="3" fill="#1f77b4" /><circle cx="408.59000000000003" cy="306.22" r="3" fill="#1f77b4" /><circle cx="410.48" cy="305.64" r="3" fill="#1f77b4" /><circle cx="412.40000000000003" cy="305.09000000000003" r="3" fill="#1f77b4" /><circle cx="414.34000000000003" cy="304.99" r="3" fill="#1f77b4" /><circle cx="416.3" cy="304.17" r="3" fill="#1f77b4" /><circle cx="418.28000000000003" cy="303.64" r="3" fill="#1f77b4" /><circle cx="420.28000000000003" cy="300.96" r="3" fill="#1f77b4" /><circle cx="422.31" cy="299.8" r="3" fill="#1f77b4" /><circle cx="424.37" cy="299.56" r="3" fill="#1f77b4" /><circle cx="426.45" cy="299.34000000000003" r="3" fill="#1f77b4" /><circle cx="428.56" cy="298.2" r="3" fill="#1f77b4" /><circle cx="430.71000000000004" cy="297.95" r="3" fill="#1f77b4" /><circle cx="432.88" cy="294.69" r="3" fill="#1f77b4" /><circle cx="435.1" cy="294.26" r="3" fill="#1f77b4" /><circle cx="437.35" cy="292.27" r="3" fill="#1f77b4" /><circle cx="439.64" cy="291.78000000000003" r="3" fill="#1f77b4" /><circle cx="441.98" cy="290.79" r="3" fill="#1f77b4" /><circle cx="444.36" cy="288.37" r="3" fill="#1f77b4" /><circle cx="446.79" cy="287.7" r="3" fill="#1f77b4" /><circle cx="449.27" cy="286.28000000000003" r="3" fill="#1f77b4" /><circle cx="451.81" cy="285" r="3" fill="#1f77b4" /><circle cx="454.42" cy="277.78000000000003" r="3" fill="#1f77b4" /><circle cx="457.09000000000003" cy="274.05" r="3" fill="#1f77b4" /><circle cx="459.83" cy="273.57" r="3" fill="#1f77b4" /><circle cx="462.64" cy="273.47" r="3" fill="#1f77b4" /><circle cx="465.55" cy="270.8" r="3" fill="#1f77b4" /><circle cx="468.54" cy="270.27" r="3" fill="#1f77b4" /><circle cx="471.64" cy="269.49" r="3" fill="#1f77b4" /><circle cx="474.85" cy="267.31" r="3" fill="#1f77b4" /><circle cx="478.18" cy="265.57" r="3" fill="#1f77b4" /><circle cx="481.65000000000003" cy="262.53000000000003" r="3" fill="#1f77b4" /><circle cx="485.28000000000003" cy="262.37" r="3" fill="#1f77b4" /><circle cx="489.08" cy="260.72" r="3" fill="#1f77b4" /><circle cx="493.08" cy="257.52" r="3" fill="#1f77b4" /><circle cx="497.3" cy="256.53000000000003" r="3" fill="#1f77b4" /><circle cx="501.79" cy="253.65" r="3" fill="#1f77b4" /><circle cx="506.58" cy="248.54" r="3" fill="#1f77b4" /><circle cx="511.74" cy="248.16" r="3" fill="#1f77b4" /><circle cx="517.34" cy="244.20000000000002" r="3" fill="#1f77b4" /><circle cx="523.49" cy="233.26" r="3" fill="#1f77b4" /><circle cx="530.32" cy="230.52" r="3" fill="#1f77b4" /><circle cx="538.08" cy="229.87" r="3" fill="#1f77b4" /><circle cx="547.08" cy="229.73000000000002" r="3" fill="#1f77b4" /><circle cx="557.9300000000001" cy="229.55" r="3" fill="#1f77b4" /><circle cx="571.8000000000001" cy="216.70000000000002" r="3" fill="#1f77b4" /><circle cx="591.63" cy="196.33" r="3" fill="#1f77b4" /><circle cx="630.3100000000001" cy="159.41" r="3" fill="#1f77b4" /><line x1="87.69" y1="382.32" x2="630.3100000000001" y2="102.57000000000001" stroke="#999999" stroke-width="1.5" stroke-dasharray="5,3" /><circle cx="87.69" cy="357.66" r="3" fill="#ff7f0e" /><circle cx="126.37" cy="356.16" r="3" fill="#ff7f0e" /><circle cx="146.20000000000002" cy="343.73" r="3" fill="#ff7f0e" /><circle cx="160.07" cy="342.51" r="3" fill="#ff7f0e" /><circle cx="170.92000000000002" cy="336.55" r="3" fill="#ff7f0e" /><circle cx="179.92000000000002" cy="332.78000000000003" r="3" fill="#ff7f0e" /><circle cx="187.68" cy="325.90000000000003" r="3" fill="#ff7f0e" /><circle cx="194.51" cy="321.98" r="3" fill="#ff7f0e" /><circle cx="200.66" cy="320.6" r="3" fill="#ff7f0e" /><circle cx="206.26" cy="313.14" r="3" fill="#ff7f0e" /><circle cx="211.42000000000002" cy="311.93" r="3" fill="#ff7f0e" /><circle cx="216.21" cy="311.88" r="3" fill="#ff7f0e" /><circle cx="220.70000000000002" cy="311.71" r="3" fill="#ff7f0e" /><circle cx="224.92000000000002" cy="311.38" r="3" fill="#ff7f0e" /><circle cx="228.92000000000002" cy="311.35" r="3" fill="#ff7f0e" /><circle cx="232.72" cy="311.17" r="3" fill="#ff7f0e" /><circle cx="236.35" cy="309.99" r="3" fill="#ff7f0e" /><circle cx="239.82" cy="308.68" r="3" fill="#ff7f0e" /><circle cx="243.15" cy="308.56" r="3" fill="#ff7f0e" /><circle cx="246.36" cy="305.33" r="3" fill="#ff7f0e" /><circle cx="249.46" cy="303.55" r="3" fill="#ff7f0e" /><circle cx="252.45000000000002" cy="303.40000000000003" r="3" fill="#ff7f0e" /><circle cx="255.36" cy="297.71" r="3" fill="#ff7f0e" /><circle cx="258.17" cy="297.21" r="3" fill="#ff7f0e" /><circle cx="260.91" cy="296.68" r="3" fill="#ff7f0e" /><circle cx="263.58" cy="295.68" r="3" fill="#ff7f0e" /><circle cx="266.19" cy="288.67" r="3" fill="#ff7f0e" /><circle cx="268.73" cy="286.92" r="3" fill="#ff7f0e" /><circle cx="271.21" cy="283.91" r="3" fill="#ff7f0e" /><circle cx="273.64" cy="282.46" r="3" fill="#ff7f0e" /><circle cx="276.02" cy="282.24" r="3" fill="#ff7f0e" /><circle cx="278.36" cy="279.8" r="3" fill="#ff7f0e" /><circle cx="280.65000000000003" cy="279.34000000000003" r="3" fill="#ff7f0e" /><circle cx="282.90000000000003" cy="278.74" r="3" fill="#ff7f0e" /><circle cx="285.12" cy="278.51" r="3" fill="#ff7f0e" /><circle cx="287.29" cy="277.78000000000003" r="3" fill="#ff7f0e" /><circle cx="289.44" cy="277.65000000000003" r="3" fill="#ff7f0e" /><circle cx="291.55" cy="277.42" r="3" fill="#ff7f0e" /><circle cx="293.63" cy="276.61" r="3" fill="#ff7f0e" /><circle cx="295.69" cy="276.06" r="3" fill="#ff7f0e" /><circle cx="297.72" cy="272.77" r="3" fill="#ff7f0e" /><circle cx="299.72" cy="272.67" r="3" fill="#ff7f0e" /><circle cx="301.7" cy="270.37" r="3" fill="#ff7f0e" /><circle cx="303.66" cy="269.49" r="3" fill="#ff7f0e" /><circle cx="305.6" cy="269.49" r="3" fill="#ff7f0e" /><circle cx="307.52" cy="267.78000000000003" r="3" fill="#ff7f0e" /><circle cx="309.41" cy="267.49" r="3" fill="#ff7f0e" /><circle cx="311.3" cy="265.56" r="3" fill="#ff7f0e" /><circle cx="313.16" cy="264.68" r="3" fill="#ff7f0e" /><circle cx="315.01" cy="264.31" r="3" fill="#ff7f0e" /><circle cx="316.84000000000003" cy="263.14" r="3" fill="#ff7f0e" /><circle cx="318.66" cy="261.68" r="3" fill="#ff7f0e" /><circle cx="320.47" cy="261.65" r="3" fill="#ff7f0e" /><circle cx="322.26" cy="260.84000000000003" r="3" fill="#ff7f0e" /><circle cx="324.04" cy="260.59000000000003" r="3" fill="#ff7f0e" /><circle cx="325.81" cy="260.3" r="3" fill="#ff7f0e" /><circle cx="327.58" cy="259.9" r="3" fill="#ff7f0e" /><circle cx="329.33" cy="258.94" r="3" fill="#ff7f0e" /><circle cx="331.07" cy="257.25" r="3" fill="#ff7f0e" /><circle cx="332.8" cy="255.28" r="3" fill="#ff7f0e" /><circle cx="334.53000000000003" cy="254.99" r="3" fill="#ff7f0e" /><circle cx="336.25" cy="254.75" r="3" fill="#ff7f0e" /><circle cx="337.96" cy="253.8" r="3" fill="#ff7f0e" /><circle cx="339.66" cy="253.58" r="3" fill="#ff7f0e" /><circle cx="341.36" cy="252.71" r="3" fill="#ff7f0e" /><circle cx="343.06" cy="251.01000000000002" r="3" fill="#ff7f0e" /><circle cx="344.75" cy="249.53" r="3" fill="#ff7f0e" /><circle cx="346.43" cy="248.61" r="3" fill="#ff7f0e" /><circle cx="348.12" cy="247.97" r="3" fill="#ff7f0e" /><circle cx="349.8" cy="247.96" r="3" fill="#ff7f0e" /><circle cx="351.47" cy="247.38" r="3" fill="#ff7f0e" /><circle cx="353.15000000000003" cy="247.18" r="3" fill="#ff7f0e" /><circle cx="354.82" cy="246.72" r="3" fill="#ff7f0e" /><circle cx="356.49" cy="246.11" r="3" fill="#ff7f0e" /><circle cx="358.16" cy="245.9" r="3" fill="#ff7f0e" /><circle cx="359.84000000000003" cy="244.77" r="3" fill="#ff7f0e" /><circle cx="361.51" cy="243.75" r="3" fill="#ff7f0e" /><circle cx="363.18" cy="243.06" r="3" fill="#ff7f0e" /><circle cx="364.85" cy="241.39000000000001" r="3" fill="#ff7f0e" /><circle cx="366.53000000000003" cy="240.70000000000002" r="3" fill="#ff7f0e" /><circle cx="368.2" cy="240.12" r="3" fill="#ff7f0e" /><circle cx="369.88" cy="240.09" r="3" fill="#ff7f0e" /><circle cx="371.57" cy="239.69" r="3" fill="#ff7f0e" /><circle cx="373.25" cy="239.61" r="3" fill="#ff7f0e" /><circle cx="374.94" cy="238.87" r="3" fill="#ff7f0e" /><circle cx="376.64" cy="238.67000000000002" r="3" fill="#ff7f0e" /><circle cx="378.34000000000003" cy="236.55" r="3" fill="#ff7f0e" /><circle cx="380.04" cy="235.99" r="3" fill="#ff7f0e" /><circle cx="381.75" cy="235.22" r="3" fill="#ff7f0e" /><circle cx="383.47" cy="235" r="3" fill="#ff7f0e" /><circle cx="385.2" cy="232.77" r="3" fill="#ff7f0e" /><circle cx="386.93" cy="230.13" r="3" fill="#ff7f0e" /><circle cx="388.67" cy="230.03" r="3" fill="#ff7f0e" /><circle cx="390.42" cy="229.72" r="3" fill="#ff7f0e" /><circle cx="392.19" cy="229.01" r="3" fill="#ff7f0e" /><circle cx="393.96000000000004" cy="228.37" r="3" fill="#ff7f0e" /><circle cx="395.74" cy="227.12" r="3" fill="#ff7f0e" /><circle cx="397.53000000000003" cy="226.75" r="3" fill="#ff7f0e" /><circle cx="399.34000000000003" cy="225.99" r="3" fill="#ff7f0e" /><circle cx="401.16" cy="225.96" r="3" fill="#ff7f0e" /><circle cx="402.99" cy="225.73000000000002" r="3" fill="#ff7f0e" /><circle cx="404.84000000000003" cy="225.31" r="3" fill="#ff7f0e" /><circle cx="406.7" cy="224.87" r="3" fill="#ff7f0e" /><circle cx="408.59000000000003" cy="224.84" r="3" fill="#ff7f0e" /><circle cx="410.48" cy="223.99" r="3" fill="#ff7f0e" /><circle cx="412.40000000000003" cy="223.94" r="3" fill="#ff7f0e" /><circle cx="414.34000000000003" cy="222.83" r="3" fill="#ff7f0e" /><circle cx="416.3" cy="216.71" r="3" fill="#ff7f0e" /><circle cx="418.28000000000003" cy="215.72" r="3" fill="#ff7f0e" /><circle cx="420.28000000000003" cy="212.19" r="3" fill="#ff7f0e" /><circle cx="422.31" cy="211.18" r="3" fill="#ff7f0e" /><circle cx="424.37" cy="208.09" r="3" fill="#ff7f0e" /><circle cx="426.45" cy="207.53" r="3" fill="#ff7f0e" /><circle cx="428.56" cy="206.78" r="3" fill="#ff7f0e" /><circle cx="430.71000000000004" cy="206.15" r="3" fill="#ff7f0e" /><circle cx="432.88" cy="204.35" r="3" fill="#ff7f0e" /><circle cx="435.1" cy="203.48000000000002" r="3" fill="#ff7f0e" /><circle cx="437.35" cy="202.98000000000002" r="3" fill="#ff7f0e" /><circle cx="439.64" cy="201.92000000000002" r="3" fill="#ff7f0e" /><circle cx="441.98" cy="199.76" r="3" fill="#ff7f0e" /><circle cx="444.36" cy="194.71" r="3" fill="#ff7f0e" /><circle cx="446.79" cy="194.20000000000002" r="3" fill="#ff7f0e" /><circle cx="449.27" cy="193.68" r="3" fill="#ff7f0e" /><circle cx="451.81" cy="191.85" r="3" fill="#ff7f0e" /><circle cx="454.42" cy="189.89000000000001" r="3" fill="#ff7f0e" /><circle cx="457.09000000000003" cy="189.06" r="3" fill="#ff7f0e" /><circle cx="459.83" cy="184.59" r="3" fill="#ff7f0e" /><circle cx="462.64" cy="183.08" r="3" fill="#ff7f0e" /><circle cx="465.55" cy="182.27" r="3" fill="#ff7f0e" /><circle cx="468.54" cy="179.74" r="3" fill="#ff7f0e" /><circle cx="471.64" cy="178.41" r="3" fill="#ff7f0e" /><circle cx="474.85" cy="175.12" r="3" fill="#ff7f0e" /><circle cx="478.18" cy="173.91" r="3" fill="#ff7f0e" /><circle cx="481.65000000000003" cy="173.45000000000002" r="3" fill="#ff7f0e" /><circle cx="485.28000000000003" cy="171.71" r="3" fill="#ff7f0e" /><circle cx="489.08" cy="170.75" r="3" fill="#ff7f0e" /><circle cx="493.08" cy="163.52" r="3" fill="#ff7f0e" /><circle cx="497.3" cy="161.63" r="3" fill="#ff7f0e" /><circle cx="501.79" cy="160.3" r="3" fill="#ff7f0e" /><circle cx="506.58" cy="159.4" r="3" fill="#ff7f0e" /><circle cx="511.74" cy="158.95000000000002" r="3" fill="#ff7f0e" /><circle cx="517.34" cy="157.81" r="3" fill="#ff7f0e" /><circle cx="523.49" cy="153.24" r="3" fill="#ff7f0e" /><circle cx="530.32" cy="146.83" r="3" fill="#ff7f0e" /><circle cx="538.08" cy="144.32" r="3" fill="#ff7f0e" /><circle cx="547.08" cy="144.31" r="3" fill="#ff7f0e" /><circle cx="557.9300000000001" cy="141.14000000000001" r="3" fill="#ff7f0e" /><circle cx="571.8000000000001" cy="138.44" r="3" fill="#ff7f0e" /><circle cx="591.63" cy="101.85000000000001" r="3" fill="#ff7f0e" /><circle cx="630.3100000000001" cy="90.55" r="3" fill="#ff7f0e" /></g><rect x="664" y="34" width="96" height="56" fill="#ffffff" /><rect x="664" y="34" width="96" height="56" fill="none" stroke="#000000" stroke-width="1" /><text x="694" y="53.2" font-size="12" text-anchor="start">Control</text><circle cx="679" cy="49" r="5" fill="#1f77b4" /><text x="694" y="71.2" font-size="12" text-anchor="start">Treated</text><circle cx="679" cy="67" r="5" fill="#ff7f0e" /></svg>