<svg xmlns="http://www.w3.org/2000/svg" width="681.8000000000001" height="545" font-family="DejaVu Sans, Liberation Sans, Arial, sans-serif" fill="black"><rect width="100%" height="100%" fill="white" /><defs><clipPath id="kuva-clip-1"><rect x="63.800000000000004" y="44" width="600" height="450"/></clipPath></defs><line x1="163.8" y1="44" x2="163.8" y2="494" stroke="#cccccc" stroke-width="1" /><line x1="263.8" y1="44" x2="263.8" y2="494" stroke="#cccccc" stroke-width="1" /><line x1="363.8" y1="44" x2="363.8" y2="494" stroke="#cccccc" stroke-width="1" /><line x1="463.8" y1="44" x2="463.8" y2="494" stroke="#cccccc" stroke-width="1" /><line x1="563.8000000000001" y1="44" x2="563.8000000000001" y2="494" stroke="#cccccc" stroke-width="1" /><line x1="663.8000000000001" y1="44" x2="663.8000000000001" y2="494" stroke="#cccccc" stroke-width="1" /><line x1="63.800000000000004" y1="365.43" x2="663.8000000000001" y2="365.43" stroke="#cccccc" stroke-width="1" /><line x1="63.800000000000004" y1="236.86" x2="663.8000000000001" y2="236.86" stroke="#cccccc" stroke-width="1" /><line x1="63.800000000000004" y1="108.29" x2="663.8000000000001" y2="108.29" stroke="#cccccc" stroke-width="1" /><line x1="63.800000000000004" y1="494" x2="663.8000000000001" y2="494" stroke="#000000" stroke-width="1" /><line x1="63.800000000000004" y1="44" x2="63.800000000000004" y2="494" stroke="#000000" stroke-width="1" /><line x1="63.800000000000004" y1="494" x2="63.800000000000004" y2="499" stroke="#000000" stroke-width="1" /><text x="63.800000000000004" y="511" font-size="12" text-anchor="middle">-3</text><line x1="163.8" y1="494" x2="163.8" y2="499" stroke="#000000" stroke-width="1" /><text x="163.8" y="511" font-size="12" text-anchor="middle">-2</text><line x1="263.8" y1="494" x2="263.8" y2="499" stroke="#000000" stroke-width="1" /><text x="263.8" y="511" font-size="12" text-anchor="middle">-1</text><line x1="363.8" y1="494" x2="363.8" y2="499" stroke="#000000" stroke-width="1" /><text x="363.8" y="511" font-size="12" text-anchor="middle">0</text><line x1="463.8" y1="494" x2="463.8" y2="499" stroke="#000000" stroke-width="1" /><text x="463.8" y="511" font-size="12" text-anchor="middle">1</text><line x1="563.8000000000001" y1="494" x2="563.8000000000001" y2="499" stroke="#000000" stroke-width="1" /><text x="563.8000000000001" y="511" font-size="12" text-anchor="middle">2</text><line x1="663.8000000000001" y1="494" x2="663.8000000000001" y2="499" stroke="#000000" stroke-width="1" /><text x="663.8000000000001" y="511" font-size="12" text-anchor="middle">3</text><line x1="58.800000000000004" y1="494" x2="63.800000000000004" y2="494" stroke="#000000" stroke-width="1" /><text x="55.800000000000004" y="498.2" font-size="12" text-anchor="end">0</text><line x1="58.800000000000004" y1="365.43" x2="63.800000000000004" y2="365.43" stroke="#000000" stroke-width="1" /><text x="55.800000000000004" y="369.63" font-size="12" text-anchor="end">5</text><line x1="58.800000000000004" y1="236.86" x2="63.800000000000004" y2="236.86" stroke="#000000" stroke-width="1" /><text x="55.800000000000004" y="241.06" font-size="12" text-anchor="end">10</text><line x1="58.800000000000004" y1="108.29" x2="63.800000000000004" y2="108.29" stroke="#000000" stroke-width="1" /><text x="55.800000000000004" y="112.49000000000001" font-size="12" text-anchor="end">15</text><text x="363.8" y="538" font-size="14" text-anchor="middle">Theoretical Quantiles</text><text x="15" y="272.5" font-size="14" text-anchor="middle" transform="rotate(-90,15,272.5)">Sample Quantiles</text><text x="340.90000000000003" y="27.400000000000002" font-size="18" text-anchor="middle">Normal Q-Q — right-skewed data</text><g clip-path="url(#kuva-clip-1)"><line x1="83.10000000000001" y1="527.19" x2="644.5" y2="406.45" stroke="#999999" stroke-width="1.5" stroke-dasharray="5,3" /><circle cx="83.10000000000001" cy="492.78000000000003" r="3" fill="#ff6347" /><circle cx="120.56" cy="492.6" r="3" fill="#ff6347" /><circle cx="139.66" cy="492.42" r="3" fill="#ff6347" /><circle cx="152.96" cy="491.86" r="3" fill="#ff6347" /><circle cx="163.33" cy="491.09000000000003" r="3" fill="#ff6347" /><circle cx="171.91" cy="490.62" r="3" fill="#ff6347" /><circle cx="179.27" cy="489.86" r="3" fill="#ff6347" /><circle cx="185.75" cy="489.55" r="3" fill="#ff6347" /><circle cx="191.56" cy="489.36" r="3" fill="#ff6347" /><circle cx="196.84" cy="489.25" r="3" fill="#ff6347" /><circle cx="201.69" cy="488.89" r="3" fill="#ff6347" /><circle cx="206.19" cy="488.83" r="3" fill="#ff6347" /><circle cx="210.39000000000001" cy="487.96000000000004" r="3" fill="#ff6347" /><circle cx="214.33" cy="487.96000000000004" r="3" fill="#ff6347" /><circle cx="218.06" cy="487.78000000000003" r="3" fill="#ff6347" /><circle cx="221.59" cy="487.41" r="3" fill="#ff6347" /><circle cx="224.95000000000002" cy="487.2" r="3" fill="#ff6347" /><circle cx="228.17000000000002" cy="487.03000000000003" r="3" fill="#ff6347" /><circle cx="231.25" cy="486.88" r="3" fill="#ff6347" /><circle cx="234.21" cy="486.84000000000003" r="3" fill="#ff6347" /><circle cx="237.06" cy="486.18" r="3" fill="#ff6347" /><circle cx="239.81" cy="486.17" r="3" fill="#ff6347" /><circle cx="242.47" cy="485.7" r="3" fill="#ff6347" /><circle cx="245.04" cy="485.5" r="3" fill="#ff6347" /><circle cx="247.54" cy="485.38" r="3" fill="#ff6347" /><circle cx="249.97" cy="485.14" r="3" fill="#ff6347" /><circle cx="252.33" cy="484.95" r="3" fill="#ff6347" /><circle cx="254.64000000000001" cy="484.81" r="3" fill="#ff6347" /><circle cx="256.88" cy="484.8" r="3" fill="#ff6347" /><circle cx="259.08" cy="484.69" r="3" fill="#ff6347" /><circle cx="261.22" cy="484.66" r="3" fill="#ff6347" /><circle cx="263.32" cy="484.5" r="3" fill="#ff6347" /><circle cx="265.38" cy="484.40000000000003" r="3" fill="#ff6347" /><circle cx="267.39" cy="484.25" r="3" fill="#ff6347" /><circle cx="269.37" cy="483.77" r="3" fill="#ff6347" /><circle cx="271.31" cy="483.24" r="3" fill="#ff6347" /><circle cx="273.21" cy="483.18" r="3" fill="#ff6347" /><circle cx="275.09000000000003" cy="483.14" r="3" fill="#ff6347" /><circle cx="276.93" cy="483.09000000000003" r="3" fill="#ff6347" /><circle cx="278.74" cy="483.07" r="3" fill="#ff6347" /><circle cx="280.53000000000003" cy="482.87" r="3" fill="#ff6347" /><circle cx="282.29" cy="482.79" r="3" fill="#ff6347" /><circle cx="284.02" cy="482.69" r="3" fill="#ff6347" /><circle cx="285.73" cy="482.66" r="3" fill="#ff6347" /><circle cx="287.42" cy="482.37" r="3" fill="#ff6347" /><circle cx="289.09000000000003" cy="482.18" r="3" fill="#ff6347" /><circle cx="290.74" cy="482.07" r="3" fill="#ff6347" /><circle cx="292.36" cy="482.04" r="3" fill="#ff6347" /><circle cx="293.97" cy="481.92" r="3" fill="#ff6347" /><circle cx="295.56" cy="481.42" r="3" fill="#ff6347" /><circle cx="297.14" cy="481.29" r="3" fill="#ff6347" /><circle cx="298.69" cy="481.25" r="3" fill="#ff6347" /><circle cx="300.23" cy="481.15000000000003" r="3" fill="#ff6347" /><circle cx="301.76" cy="480.77" r="3" fill="#ff6347" /><circle cx="303.27" cy="480.62" r="3" fill="#ff6347" /><circle cx="304.77" cy="480.48" r="3" fill="#ff6347" /><circle cx="306.26" cy="480.16" r="3" fill="#ff6347" /><circle cx="307.73" cy="480.14" r="3" fill="#ff6347" /><circle cx="309.19" cy="479.98" r="3" fill="#ff6347" /><circle cx="310.64" cy="479.7" r="3" fill="#ff6347" /><circle cx="312.08" cy="479.54" r="3" fill="#ff6347" /><circle cx="313.51" cy="479.46000000000004" r="3" fill="#ff6347" /><circle cx="314.92" cy="479.38" r="3" fill="#ff6347" /><circle cx="316.33" cy="479.21000000000004" r="3" fill="#ff6347" /><circle cx="317.73" cy="479.14" r="3" fill="#ff6347" /><circle cx="319.12" cy="478.87" r="3" fill="#ff6347" /><circle cx="320.5" cy="478.72" r="3" fill="#ff6347" /><circle cx="321.87" cy="478.69" r="3" fill="#ff6347" /><circle cx="323.24" cy="478.54" r="3" fill="#ff6347" /><circle cx="324.59000000000003" cy="478.04" r="3" fill="#ff6347" /><circle cx="325.94" cy="477.99" r="3" fill="#ff6347" /><circle cx="327.29" cy="477.14" r="3" fill="#ff6347" /><circle cx="328.62" cy="476.98" r="3" fill="#ff6347" /><circle cx="329.95" cy="476.78000000000003" r="3" fill="#ff6347" /><circle cx="331.28000000000003" cy="476.67" r="3" fill="#ff6347" /><circle cx="332.59000000000003" cy="476.53000000000003" r="3" fill="#ff6347" /><circle cx="333.91" cy="476.52" r="3" fill="#ff6347" /><circle cx="335.22" cy="476.46000000000004" r="3" fill="#ff6347" /><circle cx="336.52" cy="475.98" r="3" fill="#ff6347" /><circle cx="337.82" cy="475.78000000000003" r="3" fill="#ff6347" /><circle cx="339.11" cy="475.75" r="3" fill="#ff6347" /><circle cx="340.40000000000003" cy="475.48" r="3" fill="#ff6347" /><circle cx="341.69" cy="475.47" r="3" fill="#ff6347" /><circle cx="342.97" cy="475.43" r="3" fill="#ff6347" /><circle cx="344.25" cy="475.34000000000003" r="3" fill="#ff6347" /><circle cx="345.53000000000003" cy="475.34000000000003" r="3" fill="#ff6347" /><circle cx="346.8" cy="475.12" r="3" fill="#ff6347" /><circle cx="348.07" cy="475.05" r="3" fill="#ff6347" /><circle cx="349.34000000000003" cy="475.02" r="3" fill="#ff6347" /><circle cx="350.6" cy="474.96000000000004" r="3" fill="#ff6347" /><circle cx="351.87" cy="474.91" r="3" fill="#ff6347" /><circle cx="353.13" cy="474.19" r="3" fill="#ff6347" /><circle cx="354.39" cy="473.34000000000003" r="3" fill="#ff6347" /><circle cx="355.64" cy="473.34000000000003" r="3" fill="#ff6347" /><circle cx="356.90000000000003" cy="473.11" r="3" fill="#ff6347" /><circle cx="358.16" cy="472.62" r="3" fill="#ff6347" /><circle cx="359.41" cy="471.29" r="3" fill="#ff6347" /><circle cx="360.67" cy="471.08" r="3" fill="#ff6347" /><circle cx="361.92" cy="470.76" r="3" fill="#ff6347" /><circle cx="363.17" cy="470.46000000000004" r="3" fill="#ff6347" /><circle cx="364.43" cy="470.16" r="3" fill="#ff6347" /><circle cx="365.68" cy="470.05" r="3" fill="#ff6347" /><circle cx="366.93" cy="469.92" r="3" fill="#ff6347" /><circle cx="368.19" cy="469.91" r="3" fill="#ff6347" /><circle cx="369.44" cy="469.62" r="3" fill="#ff6347" /><circle cx="370.7" cy="468.91" r="3" fill="#ff6347" /><circle cx="371.96" cy="468.84000000000003" r="3" fill="#ff6347" /><circle cx="373.21" cy="468.8" r="3" fill="#ff6347" /><circle cx="374.47" cy="468.77" r="3" fill="#ff6347" /><circle cx="375.73" cy="468.47" r="3" fill="#ff6347" /><circle cx="377" cy="467.97" r="3" fill="#ff6347" /><circle cx="378.26" cy="467.89" r="3" fill="#ff6347" /><circle cx="379.53000000000003" cy="467.73" r="3" fill="#ff6347" /><circle cx="380.8" cy="466.96000000000004" r="3" fill="#ff6347" /><circle cx="382.07" cy="466.96000000000004" r="3" fill="#ff6347" /><circle cx="383.35" cy="466.86" r="3" fill="#ff6347" /><circle cx="384.63" cy="466.85" r="3" fill="#ff6347" /><circle cx="385.91" cy="466.31" r="3" fill="#ff6347" /><circle cx="387.2" cy="465.68" r="3" fill="#ff6347" /><circle cx="388.49" cy="465.49" r="3" fill="#ff6347" /><circle cx="389.78000000000003" cy="465.48" r="3" fill="#ff6347" /><circle cx="391.08" cy="465.31" r="3" fill="#ff6347" /><circle cx="392.38" cy="464.98" r="3" fill="#ff6347" /><circle cx="393.69" cy="464" r="3" fill="#ff6347" /><circle cx="395.01" cy="463.03000000000003" r="3" fill="#ff6347" /><circle cx="396.32" cy="462.62" r="3" fill="#ff6347" /><circle cx="397.65000000000003" cy="462.40000000000003" r="3" fill="#ff6347" /><circle cx="398.98" cy="462.38" r="3" fill="#ff6347" /><circle cx="400.31" cy="461.16" r="3" fill="#ff6347" /><circle cx="401.66" cy="461.11" r="3" fill="#ff6347" /><circle cx="403.01" cy="460.85" r="3" fill="#ff6347" /><circle cx="404.36" cy="460.27" r="3" fill="#ff6347" /><circle cx="405.73" cy="460.07" r="3" fill="#ff6347" /><circle cx="407.1" cy="460.05" r="3" fill="#ff6347" /><circle cx="408.48" cy="459.84000000000003" r="3" fill="#ff6347" /><circle cx="409.87" cy="459.6" r="3" fill="#ff6347" /><circle cx="411.27" cy="458.49" r="3" fill="#ff6347" /><circle cx="412.68" cy="458.19" r="3" fill="#ff6347" /><circle cx="414.09000000000003" cy="457.75" r="3" fill="#ff6347" /><circle cx="415.52" cy="456.82" r="3" fill="#ff6347" /><circle cx="416.96000000000004" cy="456.56" r="3" fill="#ff6347" /><circle cx="418.41" cy="455.38" r="3" fill="#ff6347" /><circle cx="419.87" cy="454.72" r="3" fill="#ff6347" /><circle cx="421.34000000000003" cy="453.99" r="3" fill="#ff6347" /><circle cx="422.83" cy="453.49" r="3" fill="#ff6347" /><circle cx="424.33" cy="453.46000000000004" r="3" fill="#ff6347" /><circle cx="425.84000000000003" cy="453.13" r="3" fill="#ff6347" /><circle cx="427.37" cy="452.71000000000004" r="3" fill="#ff6347" /><circle cx="428.91" cy="452.56" r="3" fill="#ff6347" /><circle cx="430.46000000000004" cy="452.33" r="3" fill="#ff6347" /><circle cx="432.04" cy="452.27" r="3" fill="#ff6347" /><circle cx="433.63" cy="451.76" r="3" fill="#ff6347" /><circle cx="435.24" cy="451.27" r="3" fill="#ff6347" /><circle cx="436.86" cy="450.28000000000003" r="3" fill="#ff6347" /><circle cx="438.51" cy="450.24" r="3" fill="#ff6347" /><circle cx="440.18" cy="448.91" r="3" fill="#ff6347" /><circle cx="441.87" cy="447.13" r="3" fill="#ff6347" /><circle cx="443.58" cy="447.05" r="3" fill="#ff6347" /><circle cx="445.31" cy="442.86" r="3" fill="#ff6347" /><circle cx="447.07" cy="441.98" r="3" fill="#ff6347" /><circle cx="448.86" cy="441.7" r="3" fill="#ff6347" /><circle cx="450.67" cy="441.51" r="3" fill="#ff6347" /><circle cx="452.51" cy="440.02" r="3" fill="#ff6347" /><circle cx="454.39" cy="439.84000000000003" r="3" fill="#ff6347" /><circle cx="456.29" cy="439.56" r="3" fill="#ff6347" /><circle cx="458.23" cy="437.88" r="3" fill="#ff6347" /><circle cx="460.21000000000004" cy="437.83" r="3" fill="#ff6347" /><circle cx="462.22" cy="437.17" r="3" fill="#ff6347" /><circle cx="464.28000000000003" cy="436.26" r="3" fill="#ff6347" /><circle cx="466.38" cy="435.38" r="3" fill="#ff6347" /><circle cx="468.52" cy="434.68" r="3" fill="#ff6347" /><circle cx="470.72" cy="432.59000000000003" r="3" fill="#ff6347" /><circle cx="472.96000000000004" cy="429.46000000000004" r="3" fill="#ff6347" /><circle cx="475.27" cy="428.78000000000003" r="3" fill="#ff6347" /><circle cx="477.63" cy="428.53000000000003" r="3" fill="#ff6347" /><circle cx="480.06" cy="427.58" r="3" fill="#ff6347" /><circle cx="482.56" cy="426.24" r="3" fill="#ff6347" /><circle cx="485.13" cy="425.28000000000003" r="3" fill="#ff6347" /><circle cx="487.79" cy="422.86" r="3" fill="#ff6347" /><circle cx="490.54" cy="422.49" r="3" fill="#ff6347" /><circle cx="493.39" cy="414.67" r="3" fill="#ff6347" /><circle cx="496.35" cy="412.73" r="3" fill="#ff6347" /><circle cx="499.43" cy="410.62" r="3" fill="#ff6347" /><circle cx="502.65000000000003" cy="408" r="3" fill="#ff6347" /><circle cx="506.01" cy="406.28000000000003" r="3" fill="#ff6347" /><circle cx="509.54" cy="399.69" r="3" fill="#ff6347" /><circle cx="513.27" cy="392.58" r="3" fill="#ff6347" /><circle cx="517.21" cy="389.82" r="3" fill="#ff6347" /><circle cx="521.41" cy="389.19" r="3" fill="#ff6347" /><circle cx="525.91" cy="387.04" r="3" fill="#ff6347" /><circle cx="530.76" cy="380.22" r="3" fill="#ff6347" /><circle cx="536.04" cy="370.54" r="3" fill="#ff6347" /><circle cx="541.85" cy="368.5" r="3" fill="#ff6347" /><circle cx="548.33" cy="365.36" r="3" fill="#ff6347" /><circle cx="555.69" cy="358.92" r="3" fill="#ff6347" /><circle cx="564.27" cy="323.2" r="3" fill="#ff6347" /><circle cx="574.64" cy="295.13" r="3" fill="#ff6347" /><circle cx="587.94" cy="283" r="3" fill="#ff6347" /><circle cx="607.04" cy="270.33" r="3" fill="#ff6347" /><circle cx="644.5" cy="106.45" r="3" fill="#ff6347" /></g></svg>