<svg xmlns="http://www.w3.org/2000/svg" width="673" height="551.5500000000001" font-family="DejaVu Sans, Liberation Sans, Arial, sans-serif" fill="black"><rect width="100%" height="100%" fill="white" /><defs><clipPath id="kuva-clip-0"><rect x="59" y="44" width="600" height="450"/></clipPath></defs><line x1="59" y1="365.43" x2="659" y2="365.43" stroke="#cccccc" stroke-width="1" /><line x1="59" y1="236.86" x2="659" y2="236.86" stroke="#cccccc" stroke-width="1" /><line x1="59" y1="108.29" x2="659" y2="108.29" stroke="#cccccc" stroke-width="1" /><line x1="59" y1="494" x2="659" y2="494" stroke="#000000" stroke-width="1" /><line x1="59" y1="44" x2="59" y2="494" stroke="#000000" stroke-width="1" /><text x="83" y="511" font-size="12" text-anchor="end" transform="rotate(-45,83,511)">Nov 01</text><line x1="83" y1="494" x2="83" y2="499" stroke="#000000" stroke-width="1" /><text x="107" y="511" font-size="12" text-anchor="end" transform="rotate(-45,107,511)">Nov 02</text><line x1="107" y1="494" x2="107" y2="499" stroke="#000000" stroke-width="1" /><text x="131" y="511" font-size="12" text-anchor="end" transform="rotate(-45,131,511)">Nov 03</text><line x1="131" y1="494" x2="131" y2="499" stroke="#000000" stroke-width="1" /><text x="155" y="511" font-size="12" text-anchor="end" transform="rotate(-45,155,511)">Nov 04</text><line x1="155" y1="494" x2="155" y2="499" stroke="#000000" stroke-width="1" /><text x="179" y="511" font-size="12" text-anchor="end" transform="rotate(-45,179,511)">Nov 05</text><line x1="179" y1="494" x2="179" y2="499" stroke="#000000" stroke-width="1" /><text x="203" y="511" font-size="12" text-anchor="end" transform="rotate(-45,203,511)">Nov 06</text><line x1="203" y1="494" x2="203" y2="499" stroke="#000000" stroke-width="1" /><text x="227" y="511" font-size="12" text-anchor="end" transform="rotate(-45,227,511)">Nov 07</text><line x1="227" y1="494" x2="227" y2="499" stroke="#000000" stroke-width="1" /><text x="251" y="511" font-size="12" text-anchor="end" transform="rotate(-45,251,511)">Nov 08</text><line x1="251" y1="494" x2="251" y2="499" stroke="#000000" stroke-width="1" /><text x="275" y="511" font-size="12" text-anchor="end" transform="rotate(-45,275,511)">Nov 11</text><line x1="275" y1="494" x2="275" y2="499" stroke="#000000" stroke-width="1" /><text x="299" y="511" font-size="12" text-anchor="end" transform="rotate(-45,299,511)">Nov 12</text><line x1="299" y1="494" x2="299" y2="499" stroke="#000000" stroke-width="1" /><text x="323" y="511" font-size="12" text-anchor="end" transform="rotate(-45,323,511)">Nov 13</text><line x1="323" y1="494" x2="323" y2="499" stroke="#000000" stroke-width="1" /><text x="347" y="511" font-size="12" text-anchor="end" transform="rotate(-45,347,511)">Nov 14</text><line x1="347" y1="494" x2="347" y2="499" stroke="#000000" stroke-width="1" /><text x="371" y="511" font-size="12" text-anchor="end" transform="rotate(-45,371,511)">Nov 15</text><line x1="371" y1="494" x2="371" y2="499" stroke="#000000" stroke-width="1" /><text x="395" y="511" font-size="12" text-anchor="end" transform="rotate(-45,395,511)">Nov 18</text><line x1="395" y1="494" x2="395" y2="499" stroke="#000000" stroke-width="1" /><text x="419" y="511" font-size="12" text-anchor="end" transform="rotate(-45,419,511)">Nov 19</text><line x1="419" y1="494" x2="419" y2="499" stroke="#000000" stroke-width="1" /><text x="443" y="511" font-size="12" text-anchor="end" transform="rotate(-45,443,511)">Nov 20</text><line x1="443" y1="494" x2="443" y2="499" stroke="#000000" stroke-width="1" /><text x="467" y="511" font-size="12" text-anchor="end" transform="rotate(-45,467,511)">Nov 21</text><line x1="467" y1="494" x2="467" y2="499" stroke="#000000" stroke-width="1" /><text x="491" y="511" font-size="12" text-anchor="end" transform="rotate(-45,491,511)">Nov 22</text><line x1="491" y1="494" x2="491" y2="499" stroke="#000000" stroke-width="1" /><text x="515" y="511" font-size="12" text-anchor="end" transform="rotate(-45,515,511)">Nov 25</text><line x1="515" y1="494" x2="515" y2="499" stroke="#000000" stroke-width="1" /><text x="539" y="511" font-size="12" text-anchor="end" transform="rotate(-45,539,511)">Nov 26</text><line x1="539" y1="494" x2="539" y2="499" stroke="#000000" stroke-width="1" /><line x1="54" y1="494" x2="59" y2="494" stroke="#000000" stroke-width="1" /><text x="51" y="498.2" font-size="12" text-anchor="end">0</text><line x1="54" y1="365.43" x2="59" y2="365.43" stroke="#000000" stroke-width="1" /><text x="51" y="369.63" font-size="12" text-anchor="end">50</text><line x1="54" y1="236.86" x2="59" y2="236.86" stroke="#000000" stroke-width="1" /><text x="51" y="241.06" font-size="12" text-anchor="end">100</text><line x1="54" y1="108.29" x2="59" y2="108.29" stroke="#000000" stroke-width="1" /><text x="51" y="112.49000000000001" font-size="12" text-anchor="end">150</text><text x="359" y="544.55" font-size="14" text-anchor="middle">Date</text><text x="15" y="275.77" font-size="14" text-anchor="middle" transform="rotate(-90,15,275.77)">Price (USD)</text><text x="359" y="22" font-size="18" text-anchor="middle">Daily OHLC — November</text><g clip-path="url(#kuva-clip-0)"><line x1="83" y1="118.06" x2="83" y2="129.37" stroke="#44aa44" stroke-width="1.5" /><rect x="74.60000000000001" y="120.37" width="16.8" height="7.2" fill="#44aa44" stroke="#44aa44" stroke-width="0.5" /><line x1="107" y1="113.94" x2="107" y2="125" stroke="#cc4444" stroke-width="1.5" /><rect x="98.60000000000001" y="120.11" width="16.8" height="3.34" fill="#cc4444" stroke="#cc4444" stroke-width="0.5" /><line x1="131" y1="121.4" x2="131" y2="128.34" stroke="#888888" stroke-width="1.5" /><rect x="122.60000000000001" y="123.46000000000001" width="16.8" height="1" fill="#888888" stroke="#888888" stroke-width="0.5" /><line x1="155" y1="112.14" x2="155" y2="125.77" stroke="#44aa44" stroke-width="1.5" /><rect x="146.6" y="113.69" width="16.8" height="10.540000000000001" fill="#44aa44" stroke="#44aa44" stroke-width="0.5" /><line x1="179" y1="107.77" x2="179" y2="117.8" stroke="#44aa44" stroke-width="1.5" /><rect x="170.6" y="108.8" width="16.8" height="4.89" fill="#44aa44" stroke="#44aa44" stroke-width="0.5" /><line x1="203" y1="105.71000000000001" x2="203" y2="117.29" stroke="#cc4444" stroke-width="1.5" /><rect x="194.6" y="108.8" width="16.8" height="6.69" fill="#cc4444" stroke="#cc4444" stroke-width="0.5" /><line x1="227" y1="113.17" x2="227" y2="124.23" stroke="#cc4444" stroke-width="1.5" /><rect x="218.6" y="115.49000000000001" width="16.8" height="6.94" fill="#cc4444" stroke="#cc4444" stroke-width="0.5" /><line x1="251" y1="116.51" x2="251" y2="125.77" stroke="#44aa44" stroke-width="1.5" /><rect x="242.6" y="118.83" width="16.8" height="3.6" fill="#44aa44" stroke="#44aa44" stroke-width="0.5" /><line x1="275" y1="110.09" x2="275" y2="119.86" stroke="#44aa44" stroke-width="1.5" /><rect x="266.6" y="111.63" width="16.8" height="7.2" fill="#44aa44" stroke="#44aa44" stroke-width="0.5" /><line x1="299" y1="103.14" x2="299" y2="113.17" stroke="#44aa44" stroke-width="1.5" /><rect x="290.6" y="104.43" width="16.8" height="7.2" fill="#44aa44" stroke="#44aa44" stroke-width="0.5" /><line x1="323" y1="95.94" x2="323" y2="105.97" stroke="#44aa44" stroke-width="1.5" /><rect x="314.6" y="98.51" width="16.8" height="5.91" fill="#44aa44" stroke="#44aa44" stroke-width="0.5" /><line x1="347" y1="97.49000000000001" x2="347" y2="107.51" stroke="#cc4444" stroke-width="1.5" /><rect x="338.6" y="98.51" width="16.8" height="8.23" fill="#cc4444" stroke="#cc4444" stroke-width="0.5" /><line x1="371" y1="102.89" x2="371" y2="111.37" stroke="#44aa44" stroke-width="1.5" /><rect x="362.6" y="105.2" width="16.8" height="1.54" fill="#44aa44" stroke="#44aa44" stroke-width="0.5" /><line x1="395" y1="99.54" x2="395" y2="106.23" stroke="#44aa44" stroke-width="1.5" /><rect x="386.6" y="99.54" width="16.8" height="5.66" fill="#44aa44" stroke="#44aa44" stroke-width="0.5" /><line x1="419" y1="89.77" x2="419" y2="101.09" stroke="#44aa44" stroke-width="1.5" /><rect x="410.6" y="91.57000000000001" width="16.8" height="7.97" fill="#44aa44" stroke="#44aa44" stroke-width="0.5" /><line x1="443" y1="87.46000000000001" x2="443" y2="97.49000000000001" stroke="#cc4444" stroke-width="1.5" /><rect x="434.6" y="91.57000000000001" width="16.8" height="4.37" fill="#cc4444" stroke="#cc4444" stroke-width="0.5" /><line x1="467" y1="94.91" x2="467" y2="102.89" stroke="#888888" stroke-width="1.5" /><rect x="458.6" y="95.94" width="16.8" height="1" fill="#888888" stroke="#888888" stroke-width="0.5" /><line x1="491" y1="86.43" x2="491" y2="97.23" stroke="#44aa44" stroke-width="1.5" /><rect x="482.6" y="87.97" width="16.8" height="7.97" fill="#44aa44" stroke="#44aa44" stroke-width="0.5" /><line x1="515" y1="82.31" x2="515" y2="90.8" stroke="#44aa44" stroke-width="1.5" /><rect x="506.6" y="83.86" width="16.8" height="4.11" fill="#44aa44" stroke="#44aa44" stroke-width="0.5" /><line x1="539" y1="79.49" x2="539" y2="89.51" stroke="#cc4444" stroke-width="1.5" /><rect x="530.6" y="83.86" width="16.8" height="2.83" fill="#cc4444" stroke="#cc4444" stroke-width="0.5" /></g></svg>