<svg xmlns="http://www.w3.org/2000/svg" width="673" height="551.5500000000001" font-family="DejaVu Sans, Liberation Sans, Arial, sans-serif" fill="black"><rect width="100%" height="100%" fill="white" /><defs><clipPath id="kuva-clip-0"><rect x="59" y="44" width="600" height="450"/></clipPath></defs><line x1="59" y1="404" x2="659" y2="404" stroke="#cccccc" stroke-width="1" /><line x1="59" y1="314" x2="659" y2="314" stroke="#cccccc" stroke-width="1" /><line x1="59" y1="224" x2="659" y2="224" stroke="#cccccc" stroke-width="1" /><line x1="59" y1="134" x2="659" y2="134" stroke="#cccccc" stroke-width="1" /><line x1="59" y1="44" x2="659" y2="44" stroke="#cccccc" stroke-width="1" /><line x1="59" y1="494" x2="659" y2="494" stroke="#000000" stroke-width="1" /><line x1="59" y1="44" x2="59" y2="494" stroke="#000000" stroke-width="1" /><text x="83" y="511" font-size="12" text-anchor="end" transform="rotate(-45,83,511)">Nov 01</text><line x1="83" y1="494" x2="83" y2="499" stroke="#000000" stroke-width="1" /><text x="107" y="511" font-size="12" text-anchor="end" transform="rotate(-45,107,511)">Nov 02</text><line x1="107" y1="494" x2="107" y2="499" stroke="#000000" stroke-width="1" /><text x="131" y="511" font-size="12" text-anchor="end" transform="rotate(-45,131,511)">Nov 03</text><line x1="131" y1="494" x2="131" y2="499" stroke="#000000" stroke-width="1" /><text x="155" y="511" font-size="12" text-anchor="end" transform="rotate(-45,155,511)">Nov 04</text><line x1="155" y1="494" x2="155" y2="499" stroke="#000000" stroke-width="1" /><text x="179" y="511" font-size="12" text-anchor="end" transform="rotate(-45,179,511)">Nov 05</text><line x1="179" y1="494" x2="179" y2="499" stroke="#000000" stroke-width="1" /><text x="203" y="511" font-size="12" text-anchor="end" transform="rotate(-45,203,511)">Nov 06</text><line x1="203" y1="494" x2="203" y2="499" stroke="#000000" stroke-width="1" /><text x="227" y="511" font-size="12" text-anchor="end" transform="rotate(-45,227,511)">Nov 07</text><line x1="227" y1="494" x2="227" y2="499" stroke="#000000" stroke-width="1" /><text x="251" y="511" font-size="12" text-anchor="end" transform="rotate(-45,251,511)">Nov 08</text><line x1="251" y1="494" x2="251" y2="499" stroke="#000000" stroke-width="1" /><text x="275" y="511" font-size="12" text-anchor="end" transform="rotate(-45,275,511)">Nov 11</text><line x1="275" y1="494" x2="275" y2="499" stroke="#000000" stroke-width="1" /><text x="299" y="511" font-size="12" text-anchor="end" transform="rotate(-45,299,511)">Nov 12</text><line x1="299" y1="494" x2="299" y2="499" stroke="#000000" stroke-width="1" /><text x="323" y="511" font-size="12" text-anchor="end" transform="rotate(-45,323,511)">Nov 13</text><line x1="323" y1="494" x2="323" y2="499" stroke="#000000" stroke-width="1" /><text x="347" y="511" font-size="12" text-anchor="end" transform="rotate(-45,347,511)">Nov 14</text><line x1="347" y1="494" x2="347" y2="499" stroke="#000000" stroke-width="1" /><text x="371" y="511" font-size="12" text-anchor="end" transform="rotate(-45,371,511)">Nov 15</text><line x1="371" y1="494" x2="371" y2="499" stroke="#000000" stroke-width="1" /><text x="395" y="511" font-size="12" text-anchor="end" transform="rotate(-45,395,511)">Nov 18</text><line x1="395" y1="494" x2="395" y2="499" stroke="#000000" stroke-width="1" /><text x="419" y="511" font-size="12" text-anchor="end" transform="rotate(-45,419,511)">Nov 19</text><line x1="419" y1="494" x2="419" y2="499" stroke="#000000" stroke-width="1" /><text x="443" y="511" font-size="12" text-anchor="end" transform="rotate(-45,443,511)">Nov 20</text><line x1="443" y1="494" x2="443" y2="499" stroke="#000000" stroke-width="1" /><text x="467" y="511" font-size="12" text-anchor="end" transform="rotate(-45,467,511)">Nov 21</text><line x1="467" y1="494" x2="467" y2="499" stroke="#000000" stroke-width="1" /><text x="491" y="511" font-size="12" text-anchor="end" transform="rotate(-45,491,511)">Nov 22</text><line x1="491" y1="494" x2="491" y2="499" stroke="#000000" stroke-width="1" /><text x="515" y="511" font-size="12" text-anchor="end" transform="rotate(-45,515,511)">Nov 25</text><line x1="515" y1="494" x2="515" y2="499" stroke="#000000" stroke-width="1" /><text x="539" y="511" font-size="12" text-anchor="end" transform="rotate(-45,539,511)">Nov 26</text><line x1="539" y1="494" x2="539" y2="499" stroke="#000000" stroke-width="1" /><line x1="54" y1="494" x2="59" y2="494" stroke="#000000" stroke-width="1" /><text x="51" y="498.2" font-size="12" text-anchor="end">140</text><line x1="54" y1="404" x2="59" y2="404" stroke="#000000" stroke-width="1" /><text x="51" y="408.2" font-size="12" text-anchor="end">145</text><line x1="54" y1="314" x2="59" y2="314" stroke="#000000" stroke-width="1" /><text x="51" y="318.2" font-size="12" text-anchor="end">150</text><line x1="54" y1="224" x2="59" y2="224" stroke="#000000" stroke-width="1" /><text x="51" y="228.20000000000002" font-size="12" text-anchor="end">155</text><line x1="54" y1="134" x2="59" y2="134" stroke="#000000" stroke-width="1" /><text x="51" y="138.20000000000002" font-size="12" text-anchor="end">160</text><line x1="54" y1="44" x2="59" y2="44" stroke="#000000" stroke-width="1" /><text x="51" y="48.2" font-size="12" text-anchor="end">165</text><text x="359" y="544.55" font-size="14" text-anchor="middle">Date</text><text x="15" y="275.77" font-size="14" text-anchor="middle" transform="rotate(-90,15,275.77)">Price (USD)</text><text x="336.5" y="27.400000000000002" font-size="18" text-anchor="middle">Daily OHLC — November</text><g clip-path="url(#kuva-clip-0)"><line x1="83" y1="382.40000000000003" x2="83" y2="461.6" stroke="#44aa44" stroke-width="1.5" /><rect x="74.60000000000001" y="398.6" width="16.8" height="50.4" fill="#44aa44" stroke="#44aa44" stroke-width="0.5" /><line x1="107" y1="353.6" x2="107" y2="431" stroke="#cc4444" stroke-width="1.5" /><rect x="98.60000000000001" y="396.8" width="16.8" height="23.400000000000002" fill="#cc4444" stroke="#cc4444" stroke-width="0.5" /><line x1="131" y1="405.8" x2="131" y2="454.40000000000003" stroke="#888888" stroke-width="1.5" /><rect x="122.60000000000001" y="420.2" width="16.8" height="1" fill="#888888" stroke="#888888" stroke-width="0.5" /><line x1="155" y1="341" x2="155" y2="436.40000000000003" stroke="#44aa44" stroke-width="1.5" /><rect x="146.6" y="351.8" width="16.8" height="73.8" fill="#44aa44" stroke="#44aa44" stroke-width="0.5" /><line x1="179" y1="310.40000000000003" x2="179" y2="380.6" stroke="#44aa44" stroke-width="1.5" /><rect x="170.6" y="317.6" width="16.8" height="34.2" fill="#44aa44" stroke="#44aa44" stroke-width="0.5" /><line x1="203" y1="296" x2="203" y2="377" stroke="#cc4444" stroke-width="1.5" /><rect x="194.6" y="317.6" width="16.8" height="46.800000000000004" fill="#cc4444" stroke="#cc4444" stroke-width="0.5" /><line x1="227" y1="348.2" x2="227" y2="425.6" stroke="#cc4444" stroke-width="1.5" /><rect x="218.6" y="364.40000000000003" width="16.8" height="48.6" fill="#cc4444" stroke="#cc4444" stroke-width="0.5" /><line x1="251" y1="371.6" x2="251" y2="436.40000000000003" stroke="#44aa44" stroke-width="1.5" /><rect x="242.6" y="387.8" width="16.8" height="25.2" fill="#44aa44" stroke="#44aa44" stroke-width="0.5" /><line x1="275" y1="326.6" x2="275" y2="395" stroke="#44aa44" stroke-width="1.5" /><rect x="266.6" y="337.40000000000003" width="16.8" height="50.4" fill="#44aa44" stroke="#44aa44" stroke-width="0.5" /><line x1="299" y1="278" x2="299" y2="348.2" stroke="#44aa44" stroke-width="1.5" /><rect x="290.6" y="287" width="16.8" height="50.4" fill="#44aa44" stroke="#44aa44" stroke-width="0.5" /><line x1="323" y1="227.6" x2="323" y2="297.8" stroke="#44aa44" stroke-width="1.5" /><rect x="314.6" y="245.6" width="16.8" height="41.4" fill="#44aa44" stroke="#44aa44" stroke-width="0.5" /><line x1="347" y1="238.4" x2="347" y2="308.6" stroke="#cc4444" stroke-width="1.5" /><rect x="338.6" y="245.6" width="16.8" height="57.6" fill="#cc4444" stroke="#cc4444" stroke-width="0.5" /><line x1="371" y1="276.2" x2="371" y2="335.6" stroke="#44aa44" stroke-width="1.5" /><rect x="362.6" y="292.40000000000003" width="16.8" height="10.8" fill="#44aa44" stroke="#44aa44" stroke-width="0.5" /><line x1="395" y1="252.8" x2="395" y2="299.6" stroke="#44aa44" stroke-width="1.5" /><rect x="386.6" y="252.8" width="16.8" height="39.6" fill="#44aa44" stroke="#44aa44" stroke-width="0.5" /><line x1="419" y1="184.4" x2="419" y2="263.6" stroke="#44aa44" stroke-width="1.5" /><rect x="410.6" y="197" width="16.8" height="55.800000000000004" fill="#44aa44" stroke="#44aa44" stroke-width="0.5" /><line x1="443" y1="168.20000000000002" x2="443" y2="238.4" stroke="#cc4444" stroke-width="1.5" /><rect x="434.6" y="197" width="16.8" height="30.6" fill="#cc4444" stroke="#cc4444" stroke-width="0.5" /><line x1="467" y1="220.4" x2="467" y2="276.2" stroke="#888888" stroke-width="1.5" /><rect x="458.6" y="227.6" width="16.8" height="1" fill="#888888" stroke="#888888" stroke-width="0.5" /><line x1="491" y1="161" x2="491" y2="236.6" stroke="#44aa44" stroke-width="1.5" /><rect x="482.6" y="171.8" width="16.8" height="55.800000000000004" fill="#44aa44" stroke="#44aa44" stroke-width="0.5" /><line x1="515" y1="132.2" x2="515" y2="191.6" stroke="#44aa44" stroke-width="1.5" /><rect x="506.6" y="143" width="16.8" height="28.8" fill="#44aa44" stroke="#44aa44" stroke-width="0.5" /><line x1="539" y1="112.4" x2="539" y2="182.6" stroke="#cc4444" stroke-width="1.5" /><rect x="530.6" y="143" width="16.8" height="19.8" fill="#cc4444" stroke="#cc4444" stroke-width="0.5" /></g></svg>