<svg xmlns="http://www.w3.org/2000/svg" width="686.2" height="545" font-family="DejaVu Sans, Liberation Sans, Arial, sans-serif" fill="black"><rect width="100%" height="100%" fill="white" /><line x1="72.2" y1="494" x2="672.2" y2="494" stroke="#000000" stroke-width="1" /><line x1="72.2" y1="44" x2="72.2" y2="494" stroke="#000000" stroke-width="1" /><line x1="157.91" y1="44" x2="157.91" y2="494" stroke="#cccccc" stroke-width="1" /><line x1="243.63" y1="44" x2="243.63" y2="494" stroke="#cccccc" stroke-width="1" /><line x1="329.34000000000003" y1="44" x2="329.34000000000003" y2="494" stroke="#cccccc" stroke-width="1" /><line x1="415.06" y1="44" x2="415.06" y2="494" stroke="#cccccc" stroke-width="1" /><line x1="500.77000000000004" y1="44" x2="500.77000000000004" y2="494" stroke="#cccccc" stroke-width="1" /><line x1="586.49" y1="44" x2="586.49" y2="494" stroke="#cccccc" stroke-width="1" /><line x1="672.2" y1="44" x2="672.2" y2="494" stroke="#cccccc" stroke-width="1" /><line x1="72.2" y1="419" x2="672.2" y2="419" stroke="#cccccc" stroke-width="1" /><line x1="72.2" y1="344" x2="672.2" y2="344" stroke="#cccccc" stroke-width="1" /><line x1="72.2" y1="269" x2="672.2" y2="269" stroke="#cccccc" stroke-width="1" /><line x1="72.2" y1="194" x2="672.2" y2="194" stroke="#cccccc" stroke-width="1" /><line x1="72.2" y1="119" x2="672.2" y2="119" stroke="#cccccc" stroke-width="1" /><line x1="72.2" y1="44" x2="672.2" y2="44" stroke="#cccccc" stroke-width="1" /><line x1="72.2" y1="494" x2="72.2" y2="499" stroke="#000000" stroke-width="1" /><text x="72.2" y="511" font-size="12" text-anchor="middle">2021.5</text><line x1="157.91" y1="494" x2="157.91" y2="499" stroke="#000000" stroke-width="1" /><text x="157.91" y="511" font-size="12" text-anchor="middle">2022</text><line x1="243.63" y1="494" x2="243.63" y2="499" stroke="#000000" stroke-width="1" /><text x="243.63" y="511" font-size="12" text-anchor="middle">2022.5</text><line x1="329.34000000000003" y1="494" x2="329.34000000000003" y2="499" stroke="#000000" stroke-width="1" /><text x="329.34000000000003" y="511" font-size="12" text-anchor="middle">2023</text><line x1="415.06" y1="494" x2="415.06" y2="499" stroke="#000000" stroke-width="1" /><text x="415.06" y="511" font-size="12" text-anchor="middle">2023.5</text><line x1="500.77000000000004" y1="494" x2="500.77000000000004" y2="499" stroke="#000000" stroke-width="1" /><text x="500.77000000000004" y="511" font-size="12" text-anchor="middle">2024</text><line x1="586.49" y1="494" x2="586.49" y2="499" stroke="#000000" stroke-width="1" /><text x="586.49" y="511" font-size="12" text-anchor="middle">2024.5</text><line x1="672.2" y1="494" x2="672.2" y2="499" stroke="#000000" stroke-width="1" /><text x="672.2" y="511" font-size="12" text-anchor="middle">2025</text><line x1="67.2" y1="494" x2="72.2" y2="494" stroke="#000000" stroke-width="1" /><text x="64.2" y="498.2" font-size="12" text-anchor="end">0</text><line x1="67.2" y1="419" x2="72.2" y2="419" stroke="#000000" stroke-width="1" /><text x="64.2" y="423.2" font-size="12" text-anchor="end">25</text><line x1="67.2" y1="344" x2="72.2" y2="344" stroke="#000000" stroke-width="1" /><text x="64.2" y="348.2" font-size="12" text-anchor="end">50</text><line x1="67.2" y1="269" x2="72.2" y2="269" stroke="#000000" stroke-width="1" /><text x="64.2" y="273.2" font-size="12" text-anchor="end">75</text><line x1="67.2" y1="194" x2="72.2" y2="194" stroke="#000000" stroke-width="1" /><text x="64.2" y="198.20000000000002" font-size="12" text-anchor="end">100</text><line x1="67.2" y1="119" x2="72.2" y2="119" stroke="#000000" stroke-width="1" /><text x="64.2" y="123.2" font-size="12" text-anchor="end">125</text><line x1="67.2" y1="44" x2="72.2" y2="44" stroke="#000000" stroke-width="1" /><text x="64.2" y="48.2" font-size="12" text-anchor="end">150</text><text x="372.2" y="538" font-size="14" text-anchor="middle">Quarter</text><text x="7" y="272.5" font-size="14" text-anchor="middle" transform="rotate(-90,7,272.5)">Price</text><text x="372.2" y="22" font-size="18" text-anchor="middle">Quarterly OHLC — Numeric x-axis</text><line x1="157.91" y1="170" x2="157.91" y2="209" stroke="#44aa44" stroke-width="1.5" /><rect x="154.70000000000002" y="179" width="6.43" height="21" fill="#44aa44" stroke="#44aa44" stroke-width="0.5" /><line x1="200.77" y1="158" x2="200.77" y2="191" stroke="#44aa44" stroke-width="1.5" /><rect x="197.56" y="168.5" width="6.43" height="10.5" fill="#44aa44" stroke="#44aa44" stroke-width="0.5" /><line x1="243.63" y1="149" x2="243.63" y2="173" stroke="#44aa44" stroke-width="1.5" /><rect x="240.41" y="155" width="6.43" height="13.5" fill="#44aa44" stroke="#44aa44" stroke-width="0.5" /><line x1="286.49" y1="146" x2="286.49" y2="167" stroke="#cc4444" stroke-width="1.5" /><rect x="283.27" y="155" width="6.43" height="7.5" fill="#cc4444" stroke="#cc4444" stroke-width="0.5" /><line x1="329.34000000000003" y1="140" x2="329.34000000000003" y2="164" stroke="#44aa44" stroke-width="1.5" /><rect x="326.13" y="143.6" width="6.43" height="18.900000000000002" fill="#44aa44" stroke="#44aa44" stroke-width="0.5" /><line x1="372.2" y1="128" x2="372.2" y2="147.5" stroke="#44aa44" stroke-width="1.5" /><rect x="368.99" y="131" width="6.43" height="12.6" fill="#44aa44" stroke="#44aa44" stroke-width="0.5" /><line x1="415.06" y1="117.5" x2="415.06" y2="137" stroke="#cc4444" stroke-width="1.5" /><rect x="411.84000000000003" y="131" width="6.43" height="2.4" fill="#cc4444" stroke="#cc4444" stroke-width="0.5" /><line x1="457.91" y1="110" x2="457.91" y2="134.6" stroke="#44aa44" stroke-width="1.5" /><rect x="454.7" y="113" width="6.43" height="20.400000000000002" fill="#44aa44" stroke="#44aa44" stroke-width="0.5" /><line x1="500.77000000000004" y1="89" x2="500.77000000000004" y2="116" stroke="#44aa44" stroke-width="1.5" /><rect x="497.56" y="93.5" width="6.43" height="19.5" fill="#44aa44" stroke="#44aa44" stroke-width="0.5" /><line x1="543.63" y1="80" x2="543.63" y2="101" stroke="#44aa44" stroke-width="1.5" /><rect x="540.41" y="92" width="6.43" height="1.5" fill="#44aa44" stroke="#44aa44" stroke-width="0.5" /><line x1="586.49" y1="71" x2="586.49" y2="93.5" stroke="#44aa44" stroke-width="1.5" /><rect x="583.27" y="74" width="6.43" height="18" fill="#44aa44" stroke="#44aa44" stroke-width="0.5" /><line x1="629.34" y1="60.5" x2="629.34" y2="83" stroke="#44aa44" stroke-width="1.5" /><rect x="626.13" y="65.6" width="6.43" height="8.4" fill="#44aa44" stroke="#44aa44" stroke-width="0.5" /></svg>