<svg xmlns="http://www.w3.org/2000/svg" width="687.8000000000001" height="545" font-family="DejaVu Sans, Liberation Sans, Arial, sans-serif" fill="black"><rect width="100%" height="100%" fill="white" /><defs><clipPath id="kuva-clip-3"><rect x="59" y="44" width="600" height="450"/></clipPath></defs><line x1="144.71" y1="44" x2="144.71" y2="494" stroke="#cccccc" stroke-width="1" /><line x1="230.43" y1="44" x2="230.43" y2="494" stroke="#cccccc" stroke-width="1" /><line x1="316.14" y1="44" x2="316.14" y2="494" stroke="#cccccc" stroke-width="1" /><line x1="401.86" y1="44" x2="401.86" y2="494" stroke="#cccccc" stroke-width="1" /><line x1="487.57" y1="44" x2="487.57" y2="494" stroke="#cccccc" stroke-width="1" /><line x1="573.29" y1="44" x2="573.29" y2="494" stroke="#cccccc" stroke-width="1" /><line x1="659" y1="44" x2="659" y2="494" stroke="#cccccc" stroke-width="1" /><line x1="59" y1="419" x2="659" y2="419" stroke="#cccccc" stroke-width="1" /><line x1="59" y1="344" x2="659" y2="344" stroke="#cccccc" stroke-width="1" /><line x1="59" y1="269" x2="659" y2="269" stroke="#cccccc" stroke-width="1" /><line x1="59" y1="194" x2="659" y2="194" stroke="#cccccc" stroke-width="1" /><line x1="59" y1="119" x2="659" y2="119" stroke="#cccccc" stroke-width="1" /><line x1="59" y1="44" x2="659" y2="44" stroke="#cccccc" stroke-width="1" /><line x1="59" y1="494" x2="659" y2="494" stroke="#000000" stroke-width="1" /><line x1="59" y1="44" x2="59" y2="494" stroke="#000000" stroke-width="1" /><line x1="59" y1="494" x2="59" y2="499" stroke="#000000" stroke-width="1" /><text x="59" y="511" font-size="12" text-anchor="middle">2021.5</text><line x1="144.71" y1="494" x2="144.71" y2="499" stroke="#000000" stroke-width="1" /><text x="144.71" y="511" font-size="12" text-anchor="middle">2022</text><line x1="230.43" y1="494" x2="230.43" y2="499" stroke="#000000" stroke-width="1" /><text x="230.43" y="511" font-size="12" text-anchor="middle">2022.5</text><line x1="316.14" y1="494" x2="316.14" y2="499" stroke="#000000" stroke-width="1" /><text x="316.14" y="511" font-size="12" text-anchor="middle">2023</text><line x1="401.86" y1="494" x2="401.86" y2="499" stroke="#000000" stroke-width="1" /><text x="401.86" y="511" font-size="12" text-anchor="middle">2023.5</text><line x1="487.57" y1="494" x2="487.57" y2="499" stroke="#000000" stroke-width="1" /><text x="487.57" y="511" font-size="12" text-anchor="middle">2024</text><line x1="573.29" y1="494" x2="573.29" y2="499" stroke="#000000" stroke-width="1" /><text x="573.29" y="511" font-size="12" text-anchor="middle">2024.5</text><line x1="659" y1="494" x2="659" y2="499" stroke="#000000" stroke-width="1" /><text x="659" y="511" font-size="12" text-anchor="middle">2025</text><line x1="54" y1="494" x2="59" y2="494" stroke="#000000" stroke-width="1" /><text x="51" y="498.2" font-size="12" text-anchor="end">90</text><line x1="54" y1="419" x2="59" y2="419" stroke="#000000" stroke-width="1" /><text x="51" y="423.2" font-size="12" text-anchor="end">100</text><line x1="54" y1="344" x2="59" y2="344" stroke="#000000" stroke-width="1" /><text x="51" y="348.2" font-size="12" text-anchor="end">110</text><line x1="54" y1="269" x2="59" y2="269" stroke="#000000" stroke-width="1" /><text x="51" y="273.2" font-size="12" text-anchor="end">120</text><line x1="54" y1="194" x2="59" y2="194" stroke="#000000" stroke-width="1" /><text x="51" y="198.20000000000002" font-size="12" text-anchor="end">130</text><line x1="54" y1="119" x2="59" y2="119" stroke="#000000" stroke-width="1" /><text x="51" y="123.2" font-size="12" text-anchor="end">140</text><line x1="54" y1="44" x2="59" y2="44" stroke="#000000" stroke-width="1" /><text x="51" y="48.2" font-size="12" text-anchor="end">150</text><text x="359" y="538" font-size="14" text-anchor="middle">Quarter</text><text x="15" y="272.5" font-size="14" text-anchor="middle" transform="rotate(-90,15,272.5)">Price</text><text x="343.90000000000003" y="27.400000000000002" font-size="18" text-anchor="middle">Quarterly OHLC — Numeric x-axis</text><g clip-path="url(#kuva-clip-3)"><line x1="144.71" y1="359" x2="144.71" y2="456.5" stroke="#44aa44" stroke-width="1.5" /><rect x="141.5" y="381.5" width="6.43" height="52.5" fill="#44aa44" stroke="#44aa44" stroke-width="0.5" /><line x1="187.57" y1="329" x2="187.57" y2="411.5" stroke="#44aa44" stroke-width="1.5" /><rect x="184.36" y="355.25" width="6.43" height="26.25" fill="#44aa44" stroke="#44aa44" stroke-width="0.5" /><line x1="230.43" y1="306.5" x2="230.43" y2="366.5" stroke="#44aa44" stroke-width="1.5" /><rect x="227.21" y="321.5" width="6.43" height="33.75" fill="#44aa44" stroke="#44aa44" stroke-width="0.5" /><line x1="273.29" y1="299" x2="273.29" y2="351.5" stroke="#cc4444" stroke-width="1.5" /><rect x="270.07" y="321.5" width="6.43" height="18.75" fill="#cc4444" stroke="#cc4444" stroke-width="0.5" /><line x1="316.14" y1="284" x2="316.14" y2="344" stroke="#44aa44" stroke-width="1.5" /><rect x="312.93" y="293" width="6.43" height="47.25" fill="#44aa44" stroke="#44aa44" stroke-width="0.5" /><line x1="359" y1="254" x2="359" y2="302.75" stroke="#44aa44" stroke-width="1.5" /><rect x="355.79" y="261.5" width="6.43" height="31.5" fill="#44aa44" stroke="#44aa44" stroke-width="0.5" /><line x1="401.86" y1="227.75" x2="401.86" y2="276.5" stroke="#cc4444" stroke-width="1.5" /><rect x="398.64" y="261.5" width="6.43" height="6" fill="#cc4444" stroke="#cc4444" stroke-width="0.5" /><line x1="444.71000000000004" y1="209" x2="444.71000000000004" y2="270.5" stroke="#44aa44" stroke-width="1.5" /><rect x="441.5" y="216.5" width="6.43" height="51" fill="#44aa44" stroke="#44aa44" stroke-width="0.5" /><line x1="487.57" y1="156.5" x2="487.57" y2="224" stroke="#44aa44" stroke-width="1.5" /><rect x="484.36" y="167.75" width="6.43" height="48.75" fill="#44aa44" stroke="#44aa44" stroke-width="0.5" /><line x1="530.4300000000001" y1="134" x2="530.4300000000001" y2="186.5" stroke="#44aa44" stroke-width="1.5" /><rect x="527.21" y="164" width="6.43" height="3.75" fill="#44aa44" stroke="#44aa44" stroke-width="0.5" /><line x1="573.29" y1="111.5" x2="573.29" y2="167.75" stroke="#44aa44" stroke-width="1.5" /><rect x="570.07" y="119" width="6.43" height="45" fill="#44aa44" stroke="#44aa44" stroke-width="0.5" /><line x1="616.14" y1="85.25" x2="616.14" y2="141.5" stroke="#44aa44" stroke-width="1.5" /><rect x="612.9300000000001" y="98" width="6.43" height="21" fill="#44aa44" stroke="#44aa44" stroke-width="0.5" /></g></svg>