<svg xmlns="http://www.w3.org/2000/svg" width="687.8000000000001" height="545" font-family="DejaVu Sans, Liberation Sans, Arial, sans-serif" fill="black"><rect width="100%" height="100%" fill="white" /><defs><clipPath id="kuva-clip-3"><rect x="59" y="44" width="600" height="450"/></clipPath></defs><line x1="144.71" y1="44" x2="144.71" y2="494" stroke="#cccccc" stroke-width="1" /><line x1="230.43" y1="44" x2="230.43" y2="494" stroke="#cccccc" stroke-width="1" /><line x1="316.14" y1="44" x2="316.14" y2="494" stroke="#cccccc" stroke-width="1" /><line x1="401.86" y1="44" x2="401.86" y2="494" stroke="#cccccc" stroke-width="1" /><line x1="487.57" y1="44" x2="487.57" y2="494" stroke="#cccccc" stroke-width="1" /><line x1="573.29" y1="44" x2="573.29" y2="494" stroke="#cccccc" stroke-width="1" /><line x1="659" y1="44" x2="659" y2="494" stroke="#cccccc" stroke-width="1" /><line x1="59" y1="419" x2="659" y2="419" stroke="#cccccc" stroke-width="1" /><line x1="59" y1="344" x2="659" y2="344" stroke="#cccccc" stroke-width="1" /><line x1="59" y1="269" x2="659" y2="269" stroke="#cccccc" stroke-width="1" /><line x1="59" y1="194" x2="659" y2="194" stroke="#cccccc" stroke-width="1" /><line x1="59" y1="119" x2="659" y2="119" stroke="#cccccc" stroke-width="1" /><line x1="59" y1="44" x2="659" y2="44" stroke="#cccccc" stroke-width="1" /><line x1="59" y1="494" x2="659" y2="494" stroke="#000000" stroke-width="1" /><line x1="59" y1="44" x2="59" y2="494" stroke="#000000" stroke-width="1" /><line x1="59" y1="494" x2="59" y2="499" stroke="#000000" stroke-width="1" /><text x="59" y="511" font-size="12" text-anchor="middle">2021.5</text><line x1="144.71" y1="494" x2="144.71" y2="499" stroke="#000000" stroke-width="1" /><text x="144.71" y="511" font-size="12" text-anchor="middle">2022</text><line x1="230.43" y1="494" x2="230.43" y2="499" stroke="#000000" stroke-width="1" /><text x="230.43" y="511" font-size="12" text-anchor="middle">2022.5</text><line x1="316.14" y1="494" x2="316.14" y2="499" stroke="#000000" stroke-width="1" /><text x="316.14" y="511" font-size="12" text-anchor="middle">2023</text><line x1="401.86" y1="494" x2="401.86" y2="499" stroke="#000000" stroke-width="1" /><text x="401.86" y="511" font-size="12" text-anchor="middle">2023.5</text><line x1="487.57" y1="494" x2="487.57" y2="499" stroke="#000000" stroke-width="1" /><text x="487.57" y="511" font-size="12" text-anchor="middle">2024</text><line x1="573.29" y1="494" x2="573.29" y2="499" stroke="#000000" stroke-width="1" /><text x="573.29" y="511" font-size="12" text-anchor="middle">2024.5</text><line x1="659" y1="494" x2="659" y2="499" stroke="#000000" stroke-width="1" /><text x="659" y="511" font-size="12" text-anchor="middle">2025</text><line x1="54" y1="494" x2="59" y2="494" stroke="#000000" stroke-width="1" /><text x="51" y="498.2" font-size="12" text-anchor="end">0</text><line x1="54" y1="419" x2="59" y2="419" stroke="#000000" stroke-width="1" /><text x="51" y="423.2" font-size="12" text-anchor="end">25</text><line x1="54" y1="344" x2="59" y2="344" stroke="#000000" stroke-width="1" /><text x="51" y="348.2" font-size="12" text-anchor="end">50</text><line x1="54" y1="269" x2="59" y2="269" stroke="#000000" stroke-width="1" /><text x="51" y="273.2" font-size="12" text-anchor="end">75</text><line x1="54" y1="194" x2="59" y2="194" stroke="#000000" stroke-width="1" /><text x="51" y="198.20000000000002" font-size="12" text-anchor="end">100</text><line x1="54" y1="119" x2="59" y2="119" stroke="#000000" stroke-width="1" /><text x="51" y="123.2" font-size="12" text-anchor="end">125</text><line x1="54" y1="44" x2="59" y2="44" stroke="#000000" stroke-width="1" /><text x="51" y="48.2" font-size="12" text-anchor="end">150</text><text x="359" y="538" font-size="14" text-anchor="middle">Quarter</text><text x="15" y="272.5" font-size="14" text-anchor="middle" transform="rotate(-90,15,272.5)">Price</text><text x="359" y="22" font-size="18" text-anchor="middle">Quarterly OHLC — Numeric x-axis</text><g clip-path="url(#kuva-clip-3)"><line x1="144.71" y1="170" x2="144.71" y2="209" stroke="#44aa44" stroke-width="1.5" /><rect x="141.5" y="179" width="6.43" height="21" fill="#44aa44" stroke="#44aa44" stroke-width="0.5" /><line x1="187.57" y1="158" x2="187.57" y2="191" stroke="#44aa44" stroke-width="1.5" /><rect x="184.36" y="168.5" width="6.43" height="10.5" fill="#44aa44" stroke="#44aa44" stroke-width="0.5" /><line x1="230.43" y1="149" x2="230.43" y2="173" stroke="#44aa44" stroke-width="1.5" /><rect x="227.21" y="155" width="6.43" height="13.5" fill="#44aa44" stroke="#44aa44" stroke-width="0.5" /><line x1="273.29" y1="146" x2="273.29" y2="167" stroke="#cc4444" stroke-width="1.5" /><rect x="270.07" y="155" width="6.43" height="7.5" fill="#cc4444" stroke="#cc4444" stroke-width="0.5" /><line x1="316.14" y1="140" x2="316.14" y2="164" stroke="#44aa44" stroke-width="1.5" /><rect x="312.93" y="143.6" width="6.43" height="18.900000000000002" fill="#44aa44" stroke="#44aa44" stroke-width="0.5" /><line x1="359" y1="128" x2="359" y2="147.5" stroke="#44aa44" stroke-width="1.5" /><rect x="355.79" y="131" width="6.43" height="12.6" fill="#44aa44" stroke="#44aa44" stroke-width="0.5" /><line x1="401.86" y1="117.5" x2="401.86" y2="137" stroke="#cc4444" stroke-width="1.5" /><rect x="398.64" y="131" width="6.43" height="2.4" fill="#cc4444" stroke="#cc4444" stroke-width="0.5" /><line x1="444.71000000000004" y1="110" x2="444.71000000000004" y2="134.6" stroke="#44aa44" stroke-width="1.5" /><rect x="441.5" y="113" width="6.43" height="20.400000000000002" fill="#44aa44" stroke="#44aa44" stroke-width="0.5" /><line x1="487.57" y1="89" x2="487.57" y2="116" stroke="#44aa44" stroke-width="1.5" /><rect x="484.36" y="93.5" width="6.43" height="19.5" fill="#44aa44" stroke="#44aa44" stroke-width="0.5" /><line x1="530.4300000000001" y1="80" x2="530.4300000000001" y2="101" stroke="#44aa44" stroke-width="1.5" /><rect x="527.21" y="92" width="6.43" height="1.5" fill="#44aa44" stroke="#44aa44" stroke-width="0.5" /><line x1="573.29" y1="71" x2="573.29" y2="93.5" stroke="#44aa44" stroke-width="1.5" /><rect x="570.07" y="74" width="6.43" height="18" fill="#44aa44" stroke="#44aa44" stroke-width="0.5" /><line x1="616.14" y1="60.5" x2="616.14" y2="83" stroke="#44aa44" stroke-width="1.5" /><rect x="612.9300000000001" y="65.6" width="6.43" height="8.4" fill="#44aa44" stroke="#44aa44" stroke-width="0.5" /></g></svg>