<svg xmlns="http://www.w3.org/2000/svg" width="686.2" height="545" font-family="DejaVu Sans, Liberation Sans, Arial, sans-serif" fill="black"><rect width="100%" height="100%" fill="white" /><line x1="72.2" y1="494" x2="672.2" y2="494" stroke="#000000" stroke-width="1" /><line x1="72.2" y1="44" x2="72.2" y2="494" stroke="#000000" stroke-width="1" /><line x1="72.2" y1="404" x2="672.2" y2="404" stroke="#cccccc" stroke-width="1" /><line x1="72.2" y1="314" x2="672.2" y2="314" stroke="#cccccc" stroke-width="1" /><line x1="72.2" y1="224" x2="672.2" y2="224" stroke="#cccccc" stroke-width="1" /><line x1="72.2" y1="134" x2="672.2" y2="134" stroke="#cccccc" stroke-width="1" /><line x1="72.2" y1="44" x2="672.2" y2="44" stroke="#cccccc" stroke-width="1" /><text x="122.2" y="511" font-size="12" text-anchor="middle">Mon</text><line x1="122.2" y1="494" x2="122.2" y2="499" stroke="#000000" stroke-width="1" /><text x="172.20000000000002" y="511" font-size="12" text-anchor="middle">Tue</text><line x1="172.20000000000002" y1="494" x2="172.20000000000002" y2="499" stroke="#000000" stroke-width="1" /><text x="222.20000000000002" y="511" font-size="12" text-anchor="middle">Wed</text><line x1="222.20000000000002" y1="494" x2="222.20000000000002" y2="499" stroke="#000000" stroke-width="1" /><text x="272.2" y="511" font-size="12" text-anchor="middle">Thu</text><line x1="272.2" y1="494" x2="272.2" y2="499" stroke="#000000" stroke-width="1" /><text x="322.2" y="511" font-size="12" text-anchor="middle">Fri</text><line x1="322.2" y1="494" x2="322.2" y2="499" stroke="#000000" stroke-width="1" /><text x="372.2" y="511" font-size="12" text-anchor="middle">Mon</text><line x1="372.2" y1="494" x2="372.2" y2="499" stroke="#000000" stroke-width="1" /><text x="422.2" y="511" font-size="12" text-anchor="middle">Tue</text><line x1="422.2" y1="494" x2="422.2" y2="499" stroke="#000000" stroke-width="1" /><text x="472.2" y="511" font-size="12" text-anchor="middle">Wed</text><line x1="472.2" y1="494" x2="472.2" y2="499" stroke="#000000" stroke-width="1" /><text x="522.2" y="511" font-size="12" text-anchor="middle">Thu</text><line x1="522.2" y1="494" x2="522.2" y2="499" stroke="#000000" stroke-width="1" /><text x="572.2" y="511" font-size="12" text-anchor="middle">Fri</text><line x1="572.2" y1="494" x2="572.2" y2="499" stroke="#000000" stroke-width="1" /><line x1="67.2" y1="494" x2="72.2" y2="494" stroke="#000000" stroke-width="1" /><text x="64.2" y="498.2" font-size="12" text-anchor="end">0</text><line x1="67.2" y1="404" x2="72.2" y2="404" stroke="#000000" stroke-width="1" /><text x="64.2" y="408.2" font-size="12" text-anchor="end">25</text><line x1="67.2" y1="314" x2="72.2" y2="314" stroke="#000000" stroke-width="1" /><text x="64.2" y="318.2" font-size="12" text-anchor="end">50</text><line x1="67.2" y1="224" x2="72.2" y2="224" stroke="#000000" stroke-width="1" /><text x="64.2" y="228.20000000000002" font-size="12" text-anchor="end">75</text><line x1="67.2" y1="134" x2="72.2" y2="134" stroke="#000000" stroke-width="1" /><text x="64.2" y="138.20000000000002" font-size="12" text-anchor="end">100</text><line x1="67.2" y1="44" x2="72.2" y2="44" stroke="#000000" stroke-width="1" /><text x="64.2" y="48.2" font-size="12" text-anchor="end">125</text><text x="372.2" y="538" font-size="14" text-anchor="middle">Day</text><text x="7" y="272.5" font-size="14" text-anchor="middle" transform="rotate(-90,7,272.5)">Price</text><text x="372.2" y="22" font-size="18" text-anchor="middle">Custom Colors</text><line x1="122.2" y1="113.12" x2="122.2" y2="136.88" stroke="#00c896" stroke-width="1.5" /><rect x="104.7" y="117.8" width="35" height="16.2" fill="#00c896" stroke="#00c896" stroke-width="0.5" /><line x1="172.20000000000002" y1="111.68" x2="172.20000000000002" y2="122.84" stroke="#ff4560" stroke-width="1.5" /><rect x="154.70000000000002" y="117.8" width="35" height="3.96" fill="#ff4560" stroke="#ff4560" stroke-width="0.5" /><line x1="222.20000000000002" y1="107" x2="222.20000000000002" y2="123.92" stroke="#00c896" stroke-width="1.5" /><rect x="204.70000000000002" y="109.16" width="35" height="12.6" fill="#00c896" stroke="#00c896" stroke-width="0.5" /><line x1="272.2" y1="101.24000000000001" x2="272.2" y2="111.32000000000001" stroke="#00c896" stroke-width="1.5" /><rect x="254.70000000000002" y="103.04" width="35" height="6.12" fill="#00c896" stroke="#00c896" stroke-width="0.5" /><line x1="322.2" y1="101.60000000000001" x2="322.2" y2="113.48" stroke="#aaaaaa" stroke-width="1.5" /><rect x="304.7" y="103.04" width="35" height="1" fill="#aaaaaa" stroke="#aaaaaa" stroke-width="0.5" /><line x1="372.2" y1="89.72" x2="372.2" y2="104.84" stroke="#00c896" stroke-width="1.5" /><rect x="354.7" y="92.60000000000001" width="35" height="10.44" fill="#00c896" stroke="#00c896" stroke-width="0.5" /><line x1="422.2" y1="84.32000000000001" x2="422.2" y2="98.36" stroke="#ff4560" stroke-width="1.5" /><rect x="404.7" y="92.60000000000001" width="35" height="4.68" fill="#ff4560" stroke="#ff4560" stroke-width="0.5" /><line x1="472.2" y1="94.4" x2="472.2" y2="107.36" stroke="#ff4560" stroke-width="1.5" /><rect x="454.7" y="97.28" width="35" height="5.04" fill="#ff4560" stroke="#ff4560" stroke-width="0.5" /><line x1="522.2" y1="85.4" x2="522.2" y2="103.4" stroke="#00c896" stroke-width="1.5" /><rect x="504.7" y="88.28" width="35" height="14.040000000000001" fill="#00c896" stroke="#00c896" stroke-width="0.5" /><line x1="572.2" y1="79.28" x2="572.2" y2="91.52" stroke="#00c896" stroke-width="1.5" /><rect x="554.7" y="80.36" width="35" height="7.92" fill="#00c896" stroke="#00c896" stroke-width="0.5" /></svg>