<svg xmlns="http://www.w3.org/2000/svg" width="673" height="545" font-family="DejaVu Sans, Liberation Sans, Arial, sans-serif" fill="black"><rect width="100%" height="100%" fill="white" /><defs><clipPath id="kuva-clip-2"><rect x="59" y="44" width="600" height="450"/></clipPath></defs><line x1="59" y1="404" x2="659" y2="404" stroke="#cccccc" stroke-width="1" /><line x1="59" y1="314" x2="659" y2="314" stroke="#cccccc" stroke-width="1" /><line x1="59" y1="224" x2="659" y2="224" stroke="#cccccc" stroke-width="1" /><line x1="59" y1="134" x2="659" y2="134" stroke="#cccccc" stroke-width="1" /><line x1="59" y1="44" x2="659" y2="44" stroke="#cccccc" stroke-width="1" /><line x1="59" y1="494" x2="659" y2="494" stroke="#000000" stroke-width="1" /><line x1="59" y1="44" x2="59" y2="494" stroke="#000000" stroke-width="1" /><text x="109" y="511" font-size="12" text-anchor="middle">Mon</text><line x1="109" y1="494" x2="109" y2="499" stroke="#000000" stroke-width="1" /><text x="159" y="511" font-size="12" text-anchor="middle">Tue</text><line x1="159" y1="494" x2="159" y2="499" stroke="#000000" stroke-width="1" /><text x="209" y="511" font-size="12" text-anchor="middle">Wed</text><line x1="209" y1="494" x2="209" y2="499" stroke="#000000" stroke-width="1" /><text x="259" y="511" font-size="12" text-anchor="middle">Thu</text><line x1="259" y1="494" x2="259" y2="499" stroke="#000000" stroke-width="1" /><text x="309" y="511" font-size="12" text-anchor="middle">Fri</text><line x1="309" y1="494" x2="309" y2="499" stroke="#000000" stroke-width="1" /><text x="359" y="511" font-size="12" text-anchor="middle">Mon</text><line x1="359" y1="494" x2="359" y2="499" stroke="#000000" stroke-width="1" /><text x="409" y="511" font-size="12" text-anchor="middle">Tue</text><line x1="409" y1="494" x2="409" y2="499" stroke="#000000" stroke-width="1" /><text x="459" y="511" font-size="12" text-anchor="middle">Wed</text><line x1="459" y1="494" x2="459" y2="499" stroke="#000000" stroke-width="1" /><text x="509" y="511" font-size="12" text-anchor="middle">Thu</text><line x1="509" y1="494" x2="509" y2="499" stroke="#000000" stroke-width="1" /><text x="559" y="511" font-size="12" text-anchor="middle">Fri</text><line x1="559" y1="494" x2="559" y2="499" stroke="#000000" stroke-width="1" /><line x1="54" y1="494" x2="59" y2="494" stroke="#000000" stroke-width="1" /><text x="51" y="498.2" font-size="12" text-anchor="end">0</text><line x1="54" y1="404" x2="59" y2="404" stroke="#000000" stroke-width="1" /><text x="51" y="408.2" font-size="12" text-anchor="end">25</text><line x1="54" y1="314" x2="59" y2="314" stroke="#000000" stroke-width="1" /><text x="51" y="318.2" font-size="12" text-anchor="end">50</text><line x1="54" y1="224" x2="59" y2="224" stroke="#000000" stroke-width="1" /><text x="51" y="228.20000000000002" font-size="12" text-anchor="end">75</text><line x1="54" y1="134" x2="59" y2="134" stroke="#000000" stroke-width="1" /><text x="51" y="138.20000000000002" font-size="12" text-anchor="end">100</text><line x1="54" y1="44" x2="59" y2="44" stroke="#000000" stroke-width="1" /><text x="51" y="48.2" font-size="12" text-anchor="end">125</text><text x="359" y="538" font-size="14" text-anchor="middle">Day</text><text x="15" y="272.5" font-size="14" text-anchor="middle" transform="rotate(-90,15,272.5)">Price</text><text x="359" y="22" font-size="18" text-anchor="middle">Custom Colors</text><g clip-path="url(#kuva-clip-2)"><line x1="109" y1="113.12" x2="109" y2="136.88" stroke="#00c896" stroke-width="1.5" /><rect x="91.5" y="117.8" width="35" height="16.2" fill="#00c896" stroke="#00c896" stroke-width="0.5" /><line x1="159" y1="111.68" x2="159" y2="122.84" stroke="#ff4560" stroke-width="1.5" /><rect x="141.5" y="117.8" width="35" height="3.96" fill="#ff4560" stroke="#ff4560" stroke-width="0.5" /><line x1="209" y1="107" x2="209" y2="123.92" stroke="#00c896" stroke-width="1.5" /><rect x="191.5" y="109.16" width="35" height="12.6" fill="#00c896" stroke="#00c896" stroke-width="0.5" /><line x1="259" y1="101.24000000000001" x2="259" y2="111.32000000000001" stroke="#00c896" stroke-width="1.5" /><rect x="241.5" y="103.04" width="35" height="6.12" fill="#00c896" stroke="#00c896" stroke-width="0.5" /><line x1="309" y1="101.60000000000001" x2="309" y2="113.48" stroke="#aaaaaa" stroke-width="1.5" /><rect x="291.5" y="103.04" width="35" height="1" fill="#aaaaaa" stroke="#aaaaaa" stroke-width="0.5" /><line x1="359" y1="89.72" x2="359" y2="104.84" stroke="#00c896" stroke-width="1.5" /><rect x="341.5" y="92.60000000000001" width="35" height="10.44" fill="#00c896" stroke="#00c896" stroke-width="0.5" /><line x1="409" y1="84.32000000000001" x2="409" y2="98.36" stroke="#ff4560" stroke-width="1.5" /><rect x="391.5" y="92.60000000000001" width="35" height="4.68" fill="#ff4560" stroke="#ff4560" stroke-width="0.5" /><line x1="459" y1="94.4" x2="459" y2="107.36" stroke="#ff4560" stroke-width="1.5" /><rect x="441.5" y="97.28" width="35" height="5.04" fill="#ff4560" stroke="#ff4560" stroke-width="0.5" /><line x1="509" y1="85.4" x2="509" y2="103.4" stroke="#00c896" stroke-width="1.5" /><rect x="491.5" y="88.28" width="35" height="14.040000000000001" fill="#00c896" stroke="#00c896" stroke-width="0.5" /><line x1="559" y1="79.28" x2="559" y2="91.52" stroke="#00c896" stroke-width="1.5" /><rect x="541.5" y="80.36" width="35" height="7.92" fill="#00c896" stroke="#00c896" stroke-width="0.5" /></g></svg>