<svg xmlns="http://www.w3.org/2000/svg" width="685" height="545" font-family="DejaVu Sans, Liberation Sans, Arial, sans-serif" fill="black"><rect width="100%" height="100%" fill="white" /><defs><clipPath id="kuva-clip-2"><rect x="71" y="44" width="600" height="450"/></clipPath></defs><line x1="71" y1="437.75" x2="671" y2="437.75" stroke="#cccccc" stroke-width="1" /><line x1="71" y1="325.25" x2="671" y2="325.25" stroke="#cccccc" stroke-width="1" /><line x1="71" y1="212.75" x2="671" y2="212.75" stroke="#cccccc" stroke-width="1" /><line x1="71" y1="100.25" x2="671" y2="100.25" stroke="#cccccc" stroke-width="1" /><line x1="71" y1="494" x2="671" y2="494" stroke="#000000" stroke-width="1" /><line x1="71" y1="44" x2="71" y2="494" stroke="#000000" stroke-width="1" /><text x="121" y="511" font-size="12" text-anchor="middle">Mon</text><line x1="121" y1="494" x2="121" y2="499" stroke="#000000" stroke-width="1" /><text x="171" y="511" font-size="12" text-anchor="middle">Tue</text><line x1="171" y1="494" x2="171" y2="499" stroke="#000000" stroke-width="1" /><text x="221" y="511" font-size="12" text-anchor="middle">Wed</text><line x1="221" y1="494" x2="221" y2="499" stroke="#000000" stroke-width="1" /><text x="271" y="511" font-size="12" text-anchor="middle">Thu</text><line x1="271" y1="494" x2="271" y2="499" stroke="#000000" stroke-width="1" /><text x="321" y="511" font-size="12" text-anchor="middle">Fri</text><line x1="321" y1="494" x2="321" y2="499" stroke="#000000" stroke-width="1" /><text x="371" y="511" font-size="12" text-anchor="middle">Mon</text><line x1="371" y1="494" x2="371" y2="499" stroke="#000000" stroke-width="1" /><text x="421" y="511" font-size="12" text-anchor="middle">Tue</text><line x1="421" y1="494" x2="421" y2="499" stroke="#000000" stroke-width="1" /><text x="471" y="511" font-size="12" text-anchor="middle">Wed</text><line x1="471" y1="494" x2="471" y2="499" stroke="#000000" stroke-width="1" /><text x="521" y="511" font-size="12" text-anchor="middle">Thu</text><line x1="521" y1="494" x2="521" y2="499" stroke="#000000" stroke-width="1" /><text x="571" y="511" font-size="12" text-anchor="middle">Fri</text><line x1="571" y1="494" x2="571" y2="499" stroke="#000000" stroke-width="1" /><line x1="66" y1="437.75" x2="71" y2="437.75" stroke="#000000" stroke-width="1" /><text x="63" y="441.95" font-size="12" text-anchor="end">100</text><line x1="66" y1="325.25" x2="71" y2="325.25" stroke="#000000" stroke-width="1" /><text x="63" y="329.45" font-size="12" text-anchor="end">105</text><line x1="66" y1="212.75" x2="71" y2="212.75" stroke="#000000" stroke-width="1" /><text x="63" y="216.95000000000002" font-size="12" text-anchor="end">110</text><line x1="66" y1="100.25" x2="71" y2="100.25" stroke="#000000" stroke-width="1" /><text x="63" y="104.45" font-size="12" text-anchor="end">115</text><text x="371" y="538" font-size="14" text-anchor="middle">Day</text><text x="15" y="272.5" font-size="14" text-anchor="middle" transform="rotate(-90,15,272.5)">Price</text><text x="342.5" y="27.400000000000002" font-size="18" text-anchor="middle">Custom Colors</text><g clip-path="url(#kuva-clip-2)"><line x1="121" y1="307.25" x2="121" y2="455.75" stroke="#00c896" stroke-width="1.5" /><rect x="103.5" y="336.5" width="35" height="101.25" fill="#00c896" stroke="#00c896" stroke-width="0.5" /><line x1="171" y1="298.25" x2="171" y2="368" stroke="#ff4560" stroke-width="1.5" /><rect x="153.5" y="336.5" width="35" height="24.75" fill="#ff4560" stroke="#ff4560" stroke-width="0.5" /><line x1="221" y1="269" x2="221" y2="374.75" stroke="#00c896" stroke-width="1.5" /><rect x="203.5" y="282.5" width="35" height="78.75" fill="#00c896" stroke="#00c896" stroke-width="0.5" /><line x1="271" y1="233" x2="271" y2="296" stroke="#00c896" stroke-width="1.5" /><rect x="253.5" y="244.25" width="35" height="38.25" fill="#00c896" stroke="#00c896" stroke-width="0.5" /><line x1="321" y1="235.25" x2="321" y2="309.5" stroke="#aaaaaa" stroke-width="1.5" /><rect x="303.5" y="244.25" width="35" height="1" fill="#aaaaaa" stroke="#aaaaaa" stroke-width="0.5" /><line x1="371" y1="161" x2="371" y2="255.5" stroke="#00c896" stroke-width="1.5" /><rect x="353.5" y="179" width="35" height="65.25" fill="#00c896" stroke="#00c896" stroke-width="0.5" /><line x1="421" y1="127.25" x2="421" y2="215" stroke="#ff4560" stroke-width="1.5" /><rect x="403.5" y="179" width="35" height="29.25" fill="#ff4560" stroke="#ff4560" stroke-width="0.5" /><line x1="471" y1="190.25" x2="471" y2="271.25" stroke="#ff4560" stroke-width="1.5" /><rect x="453.5" y="208.25" width="35" height="31.5" fill="#ff4560" stroke="#ff4560" stroke-width="0.5" /><line x1="521" y1="134" x2="521" y2="246.5" stroke="#00c896" stroke-width="1.5" /><rect x="503.5" y="152" width="35" height="87.75" fill="#00c896" stroke="#00c896" stroke-width="0.5" /><line x1="571" y1="95.75" x2="571" y2="172.25" stroke="#00c896" stroke-width="1.5" /><rect x="553.5" y="102.5" width="35" height="49.5" fill="#00c896" stroke="#00c896" stroke-width="0.5" /></g></svg>