<svg xmlns="http://www.w3.org/2000/svg" width="673" height="551.5500000000001" font-family="DejaVu Sans, Liberation Sans, Arial, sans-serif" fill="black"><rect width="100%" height="100%" fill="white" /><defs><clipPath id="kuva-clip-1"><rect x="59" y="44" width="600" height="450"/></clipPath></defs><line x1="59" y1="365.43" x2="659" y2="365.43" stroke="#cccccc" stroke-width="1" /><line x1="59" y1="236.86" x2="659" y2="236.86" stroke="#cccccc" stroke-width="1" /><line x1="59" y1="108.29" x2="659" y2="108.29" stroke="#cccccc" stroke-width="1" /><line x1="59" y1="494" x2="659" y2="494" stroke="#000000" stroke-width="1" /><line x1="59" y1="44" x2="59" y2="494" stroke="#000000" stroke-width="1" /><text x="83" y="511" font-size="12" text-anchor="end" transform="rotate(-45,83,511)">Nov 01</text><line x1="83" y1="494" x2="83" y2="499" stroke="#000000" stroke-width="1" /><text x="107" y="511" font-size="12" text-anchor="end" transform="rotate(-45,107,511)">Nov 02</text><line x1="107" y1="494" x2="107" y2="499" stroke="#000000" stroke-width="1" /><text x="131" y="511" font-size="12" text-anchor="end" transform="rotate(-45,131,511)">Nov 03</text><line x1="131" y1="494" x2="131" y2="499" stroke="#000000" stroke-width="1" /><text x="155" y="511" font-size="12" text-anchor="end" transform="rotate(-45,155,511)">Nov 04</text><line x1="155" y1="494" x2="155" y2="499" stroke="#000000" stroke-width="1" /><text x="179" y="511" font-size="12" text-anchor="end" transform="rotate(-45,179,511)">Nov 05</text><line x1="179" y1="494" x2="179" y2="499" stroke="#000000" stroke-width="1" /><text x="203" y="511" font-size="12" text-anchor="end" transform="rotate(-45,203,511)">Nov 06</text><line x1="203" y1="494" x2="203" y2="499" stroke="#000000" stroke-width="1" /><text x="227" y="511" font-size="12" text-anchor="end" transform="rotate(-45,227,511)">Nov 07</text><line x1="227" y1="494" x2="227" y2="499" stroke="#000000" stroke-width="1" /><text x="251" y="511" font-size="12" text-anchor="end" transform="rotate(-45,251,511)">Nov 08</text><line x1="251" y1="494" x2="251" y2="499" stroke="#000000" stroke-width="1" /><text x="275" y="511" font-size="12" text-anchor="end" transform="rotate(-45,275,511)">Nov 11</text><line x1="275" y1="494" x2="275" y2="499" stroke="#000000" stroke-width="1" /><text x="299" y="511" font-size="12" text-anchor="end" transform="rotate(-45,299,511)">Nov 12</text><line x1="299" y1="494" x2="299" y2="499" stroke="#000000" stroke-width="1" /><text x="323" y="511" font-size="12" text-anchor="end" transform="rotate(-45,323,511)">Nov 13</text><line x1="323" y1="494" x2="323" y2="499" stroke="#000000" stroke-width="1" /><text x="347" y="511" font-size="12" text-anchor="end" transform="rotate(-45,347,511)">Nov 14</text><line x1="347" y1="494" x2="347" y2="499" stroke="#000000" stroke-width="1" /><text x="371" y="511" font-size="12" text-anchor="end" transform="rotate(-45,371,511)">Nov 15</text><line x1="371" y1="494" x2="371" y2="499" stroke="#000000" stroke-width="1" /><text x="395" y="511" font-size="12" text-anchor="end" transform="rotate(-45,395,511)">Nov 18</text><line x1="395" y1="494" x2="395" y2="499" stroke="#000000" stroke-width="1" /><text x="419" y="511" font-size="12" text-anchor="end" transform="rotate(-45,419,511)">Nov 19</text><line x1="419" y1="494" x2="419" y2="499" stroke="#000000" stroke-width="1" /><text x="443" y="511" font-size="12" text-anchor="end" transform="rotate(-45,443,511)">Nov 20</text><line x1="443" y1="494" x2="443" y2="499" stroke="#000000" stroke-width="1" /><text x="467" y="511" font-size="12" text-anchor="end" transform="rotate(-45,467,511)">Nov 21</text><line x1="467" y1="494" x2="467" y2="499" stroke="#000000" stroke-width="1" /><text x="491" y="511" font-size="12" text-anchor="end" transform="rotate(-45,491,511)">Nov 22</text><line x1="491" y1="494" x2="491" y2="499" stroke="#000000" stroke-width="1" /><text x="515" y="511" font-size="12" text-anchor="end" transform="rotate(-45,515,511)">Nov 25</text><line x1="515" y1="494" x2="515" y2="499" stroke="#000000" stroke-width="1" /><text x="539" y="511" font-size="12" text-anchor="end" transform="rotate(-45,539,511)">Nov 26</text><line x1="539" y1="494" x2="539" y2="499" stroke="#000000" stroke-width="1" /><line x1="54" y1="494" x2="59" y2="494" stroke="#000000" stroke-width="1" /><text x="51" y="498.2" font-size="12" text-anchor="end">0</text><line x1="54" y1="365.43" x2="59" y2="365.43" stroke="#000000" stroke-width="1" /><text x="51" y="369.63" font-size="12" text-anchor="end">50</text><line x1="54" y1="236.86" x2="59" y2="236.86" stroke="#000000" stroke-width="1" /><text x="51" y="241.06" font-size="12" text-anchor="end">100</text><line x1="54" y1="108.29" x2="59" y2="108.29" stroke="#000000" stroke-width="1" /><text x="51" y="112.49000000000001" font-size="12" text-anchor="end">150</text><text x="359" y="544.55" font-size="14" text-anchor="middle">Date</text><text x="15" y="275.77" font-size="14" text-anchor="middle" transform="rotate(-90,15,275.77)">Price (USD)</text><text x="359" y="22" font-size="18" text-anchor="middle">Daily OHLC with Volume Panel</text><g clip-path="url(#kuva-clip-1)"><line x1="83" y1="101.11" x2="83" y2="109.83" stroke="#44aa44" stroke-width="1.5" /><rect x="74.60000000000001" y="102.89" width="16.8" height="5.55" fill="#44aa44" stroke="#44aa44" stroke-width="0.5" /><line x1="107" y1="97.93" x2="107" y2="106.46000000000001" stroke="#cc4444" stroke-width="1.5" /><rect x="98.60000000000001" y="102.69" width="16.8" height="2.58" fill="#cc4444" stroke="#cc4444" stroke-width="0.5" /><line x1="131" y1="103.68" x2="131" y2="109.04" stroke="#888888" stroke-width="1.5" /><rect x="122.60000000000001" y="105.27" width="16.8" height="1" fill="#888888" stroke="#888888" stroke-width="0.5" /><line x1="155" y1="96.55" x2="155" y2="107.05" stroke="#44aa44" stroke-width="1.5" /><rect x="146.6" y="97.74000000000001" width="16.8" height="8.13" fill="#44aa44" stroke="#44aa44" stroke-width="0.5" /><line x1="179" y1="93.17" x2="179" y2="100.91" stroke="#44aa44" stroke-width="1.5" /><rect x="170.6" y="93.97" width="16.8" height="3.77" fill="#44aa44" stroke="#44aa44" stroke-width="0.5" /><line x1="203" y1="91.59" x2="203" y2="100.51" stroke="#cc4444" stroke-width="1.5" /><rect x="194.6" y="93.97" width="16.8" height="5.16" fill="#cc4444" stroke="#cc4444" stroke-width="0.5" /><line x1="227" y1="97.34" x2="227" y2="105.87" stroke="#cc4444" stroke-width="1.5" /><rect x="218.6" y="99.12" width="16.8" height="5.3500000000000005" fill="#cc4444" stroke="#cc4444" stroke-width="0.5" /><line x1="251" y1="99.92" x2="251" y2="107.05" stroke="#44aa44" stroke-width="1.5" /><rect x="242.6" y="101.7" width="16.8" height="2.7800000000000002" fill="#44aa44" stroke="#44aa44" stroke-width="0.5" /><line x1="275" y1="94.96000000000001" x2="275" y2="102.49000000000001" stroke="#44aa44" stroke-width="1.5" /><rect x="266.6" y="96.15" width="16.8" height="5.55" fill="#44aa44" stroke="#44aa44" stroke-width="0.5" /><line x1="299" y1="89.61" x2="299" y2="97.34" stroke="#44aa44" stroke-width="1.5" /><rect x="290.6" y="90.60000000000001" width="16.8" height="5.55" fill="#44aa44" stroke="#44aa44" stroke-width="0.5" /><line x1="323" y1="84.05" x2="323" y2="91.79" stroke="#44aa44" stroke-width="1.5" /><rect x="314.6" y="86.04" width="16.8" height="4.5600000000000005" fill="#44aa44" stroke="#44aa44" stroke-width="0.5" /><line x1="347" y1="85.24" x2="347" y2="92.98" stroke="#cc4444" stroke-width="1.5" /><rect x="338.6" y="86.04" width="16.8" height="6.3500000000000005" fill="#cc4444" stroke="#cc4444" stroke-width="0.5" /><line x1="371" y1="89.41" x2="371" y2="95.95" stroke="#44aa44" stroke-width="1.5" /><rect x="362.6" y="91.19" width="16.8" height="1.19" fill="#44aa44" stroke="#44aa44" stroke-width="0.5" /><line x1="395" y1="86.83" x2="395" y2="91.99" stroke="#44aa44" stroke-width="1.5" /><rect x="386.6" y="86.83" width="16.8" height="4.36" fill="#44aa44" stroke="#44aa44" stroke-width="0.5" /><line x1="419" y1="79.29" x2="419" y2="88.02" stroke="#44aa44" stroke-width="1.5" /><rect x="410.6" y="80.68" width="16.8" height="6.15" fill="#44aa44" stroke="#44aa44" stroke-width="0.5" /><line x1="443" y1="77.51" x2="443" y2="85.24" stroke="#cc4444" stroke-width="1.5" /><rect x="434.6" y="80.68" width="16.8" height="3.37" fill="#cc4444" stroke="#cc4444" stroke-width="0.5" /><line x1="467" y1="83.26" x2="467" y2="89.41" stroke="#888888" stroke-width="1.5" /><rect x="458.6" y="84.05" width="16.8" height="1" fill="#888888" stroke="#888888" stroke-width="0.5" /><line x1="491" y1="76.72" x2="491" y2="85.05" stroke="#44aa44" stroke-width="1.5" /><rect x="482.6" y="77.91" width="16.8" height="6.15" fill="#44aa44" stroke="#44aa44" stroke-width="0.5" /><line x1="515" y1="73.54" x2="515" y2="80.09" stroke="#44aa44" stroke-width="1.5" /><rect x="506.6" y="74.73" width="16.8" height="3.17" fill="#44aa44" stroke="#44aa44" stroke-width="0.5" /><line x1="539" y1="71.36" x2="539" y2="79.10000000000001" stroke="#cc4444" stroke-width="1.5" /><rect x="530.6" y="74.73" width="16.8" height="2.18" fill="#cc4444" stroke="#cc4444" stroke-width="0.5" /><rect x="74.60000000000001" y="434.26" width="16.8" height="57.74" fill="#44aa44" fill-opacity="0.5" /><rect x="98.60000000000001" y="446.73" width="16.8" height="45.27" fill="#cc4444" fill-opacity="0.5" /><rect x="122.60000000000001" y="458.74" width="16.8" height="33.26" fill="#888888" fill-opacity="0.5" /><rect x="146.6" y="419.02" width="16.8" height="72.98" fill="#44aa44" fill-opacity="0.5" /><rect x="170.6" y="426.41" width="16.8" height="65.59" fill="#44aa44" fill-opacity="0.5" /><rect x="194.6" y="441.19" width="16.8" height="50.81" fill="#cc4444" fill-opacity="0.5" /><rect x="218.6" y="429.64" width="16.8" height="62.36" fill="#cc4444" fill-opacity="0.5" /><rect x="242.6" y="450.89" width="16.8" height="41.11" fill="#44aa44" fill-opacity="0.5" /><rect x="266.6" y="437.5" width="16.8" height="54.5" fill="#44aa44" fill-opacity="0.5" /><rect x="290.6" y="417.17" width="16.8" height="74.83" fill="#44aa44" fill-opacity="0.5" /><rect x="314.6" y="409.78000000000003" width="16.8" height="82.22" fill="#44aa44" fill-opacity="0.5" /><rect x="338.6" y="432.41" width="16.8" height="59.59" fill="#cc4444" fill-opacity="0.5" /><rect x="362.6" y="443.5" width="16.8" height="48.5" fill="#44aa44" fill-opacity="0.5" /><rect x="386.6" y="430.1" width="16.8" height="61.9" fill="#44aa44" fill-opacity="0.5" /><rect x="410.6" y="395" width="16.8" height="97" fill="#44aa44" fill-opacity="0.5" /><rect x="434.6" y="415.79" width="16.8" height="76.21000000000001" fill="#cc4444" fill-opacity="0.5" /><rect x="458.6" y="446.73" width="16.8" height="45.27" fill="#888888" fill-opacity="0.5" /><rect x="482.6" y="426.41" width="16.8" height="65.59" fill="#44aa44" fill-opacity="0.5" /><rect x="506.6" y="404.7" width="16.8" height="87.3" fill="#44aa44" fill-opacity="0.5" /><rect x="530.6" y="419.94" width="16.8" height="72.06" fill="#cc4444" fill-opacity="0.5" /></g></svg>