<svg xmlns="http://www.w3.org/2000/svg" width="686.2" height="551.5500000000001" font-family="DejaVu Sans, Liberation Sans, Arial, sans-serif" fill="black"><rect width="100%" height="100%" fill="white" /><line x1="72.2" y1="494" x2="672.2" y2="494" stroke="#000000" stroke-width="1" /><line x1="72.2" y1="44" x2="72.2" y2="494" stroke="#000000" stroke-width="1" /><line x1="72.2" y1="365.43" x2="672.2" y2="365.43" stroke="#cccccc" stroke-width="1" /><line x1="72.2" y1="236.86" x2="672.2" y2="236.86" stroke="#cccccc" stroke-width="1" /><line x1="72.2" y1="108.29" x2="672.2" y2="108.29" stroke="#cccccc" stroke-width="1" /><text x="96.2" y="511" font-size="12" text-anchor="end" transform="rotate(-45,96.2,511)">Nov 01</text><line x1="96.2" y1="494" x2="96.2" y2="499" stroke="#000000" stroke-width="1" /><text x="120.2" y="511" font-size="12" text-anchor="end" transform="rotate(-45,120.2,511)">Nov 02</text><line x1="120.2" y1="494" x2="120.2" y2="499" stroke="#000000" stroke-width="1" /><text x="144.20000000000002" y="511" font-size="12" text-anchor="end" transform="rotate(-45,144.20000000000002,511)">Nov 03</text><line x1="144.20000000000002" y1="494" x2="144.20000000000002" y2="499" stroke="#000000" stroke-width="1" /><text x="168.20000000000002" y="511" font-size="12" text-anchor="end" transform="rotate(-45,168.20000000000002,511)">Nov 04</text><line x1="168.20000000000002" y1="494" x2="168.20000000000002" y2="499" stroke="#000000" stroke-width="1" /><text x="192.20000000000002" y="511" font-size="12" text-anchor="end" transform="rotate(-45,192.20000000000002,511)">Nov 05</text><line x1="192.20000000000002" y1="494" x2="192.20000000000002" y2="499" stroke="#000000" stroke-width="1" /><text x="216.20000000000002" y="511" font-size="12" text-anchor="end" transform="rotate(-45,216.20000000000002,511)">Nov 06</text><line x1="216.20000000000002" y1="494" x2="216.20000000000002" y2="499" stroke="#000000" stroke-width="1" /><text x="240.20000000000002" y="511" font-size="12" text-anchor="end" transform="rotate(-45,240.20000000000002,511)">Nov 07</text><line x1="240.20000000000002" y1="494" x2="240.20000000000002" y2="499" stroke="#000000" stroke-width="1" /><text x="264.2" y="511" font-size="12" text-anchor="end" transform="rotate(-45,264.2,511)">Nov 08</text><line x1="264.2" y1="494" x2="264.2" y2="499" stroke="#000000" stroke-width="1" /><text x="288.2" y="511" font-size="12" text-anchor="end" transform="rotate(-45,288.2,511)">Nov 11</text><line x1="288.2" y1="494" x2="288.2" y2="499" stroke="#000000" stroke-width="1" /><text x="312.2" y="511" font-size="12" text-anchor="end" transform="rotate(-45,312.2,511)">Nov 12</text><line x1="312.2" y1="494" x2="312.2" y2="499" stroke="#000000" stroke-width="1" /><text x="336.2" y="511" font-size="12" text-anchor="end" transform="rotate(-45,336.2,511)">Nov 13</text><line x1="336.2" y1="494" x2="336.2" y2="499" stroke="#000000" stroke-width="1" /><text x="360.2" y="511" font-size="12" text-anchor="end" transform="rotate(-45,360.2,511)">Nov 14</text><line x1="360.2" y1="494" x2="360.2" y2="499" stroke="#000000" stroke-width="1" /><text x="384.2" y="511" font-size="12" text-anchor="end" transform="rotate(-45,384.2,511)">Nov 15</text><line x1="384.2" y1="494" x2="384.2" y2="499" stroke="#000000" stroke-width="1" /><text x="408.2" y="511" font-size="12" text-anchor="end" transform="rotate(-45,408.2,511)">Nov 18</text><line x1="408.2" y1="494" x2="408.2" y2="499" stroke="#000000" stroke-width="1" /><text x="432.2" y="511" font-size="12" text-anchor="end" transform="rotate(-45,432.2,511)">Nov 19</text><line x1="432.2" y1="494" x2="432.2" y2="499" stroke="#000000" stroke-width="1" /><text x="456.2" y="511" font-size="12" text-anchor="end" transform="rotate(-45,456.2,511)">Nov 20</text><line x1="456.2" y1="494" x2="456.2" y2="499" stroke="#000000" stroke-width="1" /><text x="480.2" y="511" font-size="12" text-anchor="end" transform="rotate(-45,480.2,511)">Nov 21</text><line x1="480.2" y1="494" x2="480.2" y2="499" stroke="#000000" stroke-width="1" /><text x="504.2" y="511" font-size="12" text-anchor="end" transform="rotate(-45,504.2,511)">Nov 22</text><line x1="504.2" y1="494" x2="504.2" y2="499" stroke="#000000" stroke-width="1" /><text x="528.2" y="511" font-size="12" text-anchor="end" transform="rotate(-45,528.2,511)">Nov 25</text><line x1="528.2" y1="494" x2="528.2" y2="499" stroke="#000000" stroke-width="1" /><text x="552.2" y="511" font-size="12" text-anchor="end" transform="rotate(-45,552.2,511)">Nov 26</text><line x1="552.2" y1="494" x2="552.2" y2="499" stroke="#000000" stroke-width="1" /><line x1="67.2" y1="494" x2="72.2" y2="494" stroke="#000000" stroke-width="1" /><text x="64.2" y="498.2" font-size="12" text-anchor="end">0</text><line x1="67.2" y1="365.43" x2="72.2" y2="365.43" stroke="#000000" stroke-width="1" /><text x="64.2" y="369.63" font-size="12" text-anchor="end">50</text><line x1="67.2" y1="236.86" x2="72.2" y2="236.86" stroke="#000000" stroke-width="1" /><text x="64.2" y="241.06" font-size="12" text-anchor="end">100</text><line x1="67.2" y1="108.29" x2="72.2" y2="108.29" stroke="#000000" stroke-width="1" /><text x="64.2" y="112.49000000000001" font-size="12" text-anchor="end">150</text><text x="372.2" y="544.55" font-size="14" text-anchor="middle">Date</text><text x="7" y="275.77" font-size="14" text-anchor="middle" transform="rotate(-90,7,275.77)">Price (USD)</text><text x="372.2" y="22" font-size="18" text-anchor="middle">Daily OHLC with Volume Panel</text><line x1="96.2" y1="101.11" x2="96.2" y2="109.83" stroke="#44aa44" stroke-width="1.5" /><rect x="87.8" y="102.89" width="16.8" height="5.55" fill="#44aa44" stroke="#44aa44" stroke-width="0.5" /><line x1="120.2" y1="97.93" x2="120.2" y2="106.46000000000001" stroke="#cc4444" stroke-width="1.5" /><rect x="111.8" y="102.69" width="16.8" height="2.58" fill="#cc4444" stroke="#cc4444" stroke-width="0.5" /><line x1="144.20000000000002" y1="103.68" x2="144.20000000000002" y2="109.04" stroke="#888888" stroke-width="1.5" /><rect x="135.8" y="105.27" width="16.8" height="1" fill="#888888" stroke="#888888" stroke-width="0.5" /><line x1="168.20000000000002" y1="96.55" x2="168.20000000000002" y2="107.05" stroke="#44aa44" stroke-width="1.5" /><rect x="159.8" y="97.74000000000001" width="16.8" height="8.13" fill="#44aa44" stroke="#44aa44" stroke-width="0.5" /><line x1="192.20000000000002" y1="93.17" x2="192.20000000000002" y2="100.91" stroke="#44aa44" stroke-width="1.5" /><rect x="183.8" y="93.97" width="16.8" height="3.77" fill="#44aa44" stroke="#44aa44" stroke-width="0.5" /><line x1="216.20000000000002" y1="91.59" x2="216.20000000000002" y2="100.51" stroke="#cc4444" stroke-width="1.5" /><rect x="207.8" y="93.97" width="16.8" height="5.16" fill="#cc4444" stroke="#cc4444" stroke-width="0.5" /><line x1="240.20000000000002" y1="97.34" x2="240.20000000000002" y2="105.87" stroke="#cc4444" stroke-width="1.5" /><rect x="231.8" y="99.12" width="16.8" height="5.3500000000000005" fill="#cc4444" stroke="#cc4444" stroke-width="0.5" /><line x1="264.2" y1="99.92" x2="264.2" y2="107.05" stroke="#44aa44" stroke-width="1.5" /><rect x="255.8" y="101.7" width="16.8" height="2.7800000000000002" fill="#44aa44" stroke="#44aa44" stroke-width="0.5" /><line x1="288.2" y1="94.96000000000001" x2="288.2" y2="102.49000000000001" stroke="#44aa44" stroke-width="1.5" /><rect x="279.8" y="96.15" width="16.8" height="5.55" fill="#44aa44" stroke="#44aa44" stroke-width="0.5" /><line x1="312.2" y1="89.61" x2="312.2" y2="97.34" stroke="#44aa44" stroke-width="1.5" /><rect x="303.8" y="90.60000000000001" width="16.8" height="5.55" fill="#44aa44" stroke="#44aa44" stroke-width="0.5" /><line x1="336.2" y1="84.05" x2="336.2" y2="91.79" stroke="#44aa44" stroke-width="1.5" /><rect x="327.8" y="86.04" width="16.8" height="4.5600000000000005" fill="#44aa44" stroke="#44aa44" stroke-width="0.5" /><line x1="360.2" y1="85.24" x2="360.2" y2="92.98" stroke="#cc4444" stroke-width="1.5" /><rect x="351.8" y="86.04" width="16.8" height="6.3500000000000005" fill="#cc4444" stroke="#cc4444" stroke-width="0.5" /><line x1="384.2" y1="89.41" x2="384.2" y2="95.95" stroke="#44aa44" stroke-width="1.5" /><rect x="375.8" y="91.19" width="16.8" height="1.19" fill="#44aa44" stroke="#44aa44" stroke-width="0.5" /><line x1="408.2" y1="86.83" x2="408.2" y2="91.99" stroke="#44aa44" stroke-width="1.5" /><rect x="399.8" y="86.83" width="16.8" height="4.36" fill="#44aa44" stroke="#44aa44" stroke-width="0.5" /><line x1="432.2" y1="79.29" x2="432.2" y2="88.02" stroke="#44aa44" stroke-width="1.5" /><rect x="423.8" y="80.68" width="16.8" height="6.15" fill="#44aa44" stroke="#44aa44" stroke-width="0.5" /><line x1="456.2" y1="77.51" x2="456.2" y2="85.24" stroke="#cc4444" stroke-width="1.5" /><rect x="447.8" y="80.68" width="16.8" height="3.37" fill="#cc4444" stroke="#cc4444" stroke-width="0.5" /><line x1="480.2" y1="83.26" x2="480.2" y2="89.41" stroke="#888888" stroke-width="1.5" /><rect x="471.8" y="84.05" width="16.8" height="1" fill="#888888" stroke="#888888" stroke-width="0.5" /><line x1="504.2" y1="76.72" x2="504.2" y2="85.05" stroke="#44aa44" stroke-width="1.5" /><rect x="495.8" y="77.91" width="16.8" height="6.15" fill="#44aa44" stroke="#44aa44" stroke-width="0.5" /><line x1="528.2" y1="73.54" x2="528.2" y2="80.09" stroke="#44aa44" stroke-width="1.5" /><rect x="519.8" y="74.73" width="16.8" height="3.17" fill="#44aa44" stroke="#44aa44" stroke-width="0.5" /><line x1="552.2" y1="71.36" x2="552.2" y2="79.10000000000001" stroke="#cc4444" stroke-width="1.5" /><rect x="543.8" y="74.73" width="16.8" height="2.18" fill="#cc4444" stroke="#cc4444" stroke-width="0.5" /><rect x="87.8" y="434.26" width="16.8" height="57.74" fill="#44aa44" fill-opacity="0.5" /><rect x="111.8" y="446.73" width="16.8" height="45.27" fill="#cc4444" fill-opacity="0.5" /><rect x="135.8" y="458.74" width="16.8" height="33.26" fill="#888888" fill-opacity="0.5" /><rect x="159.8" y="419.02" width="16.8" height="72.98" fill="#44aa44" fill-opacity="0.5" /><rect x="183.8" y="426.41" width="16.8" height="65.59" fill="#44aa44" fill-opacity="0.5" /><rect x="207.8" y="441.19" width="16.8" height="50.81" fill="#cc4444" fill-opacity="0.5" /><rect x="231.8" y="429.64" width="16.8" height="62.36" fill="#cc4444" fill-opacity="0.5" /><rect x="255.8" y="450.89" width="16.8" height="41.11" fill="#44aa44" fill-opacity="0.5" /><rect x="279.8" y="437.5" width="16.8" height="54.5" fill="#44aa44" fill-opacity="0.5" /><rect x="303.8" y="417.17" width="16.8" height="74.83" fill="#44aa44" fill-opacity="0.5" /><rect x="327.8" y="409.78000000000003" width="16.8" height="82.22" fill="#44aa44" fill-opacity="0.5" /><rect x="351.8" y="432.41" width="16.8" height="59.59" fill="#cc4444" fill-opacity="0.5" /><rect x="375.8" y="443.5" width="16.8" height="48.5" fill="#44aa44" fill-opacity="0.5" /><rect x="399.8" y="430.1" width="16.8" height="61.9" fill="#44aa44" fill-opacity="0.5" /><rect x="423.8" y="395" width="16.8" height="97" fill="#44aa44" fill-opacity="0.5" /><rect x="447.8" y="415.79" width="16.8" height="76.21000000000001" fill="#cc4444" fill-opacity="0.5" /><rect x="471.8" y="446.73" width="16.8" height="45.27" fill="#888888" fill-opacity="0.5" /><rect x="495.8" y="426.41" width="16.8" height="65.59" fill="#44aa44" fill-opacity="0.5" /><rect x="519.8" y="404.7" width="16.8" height="87.3" fill="#44aa44" fill-opacity="0.5" /><rect x="543.8" y="419.94" width="16.8" height="72.06" fill="#cc4444" fill-opacity="0.5" /></svg>