<svg xmlns="http://www.w3.org/2000/svg" width="520" height="460" font-family="DejaVu Sans, Liberation Sans, Arial, sans-serif" fill="black"><rect width="100%" height="100%" fill="white" /><defs><clipPath id="kuva-clip-0"><rect x="59" y="10" width="359" height="280"/></clipPath></defs><text x="260" y="27.400000000000002" font-size="18" text-anchor="middle">Joint Plot — histogram marginals</text><g transform="translate(0,119.0)"><line x1="148.75" y1="10" x2="148.75" y2="290" stroke="#cccccc" stroke-width="1" /><line x1="238.5" y1="10" x2="238.5" y2="290" stroke="#cccccc" stroke-width="1" /><line x1="328.25" y1="10" x2="328.25" y2="290" stroke="#cccccc" stroke-width="1" /><line x1="418" y1="10" x2="418" y2="290" stroke="#cccccc" stroke-width="1" /><line x1="59" y1="255" x2="418" y2="255" stroke="#cccccc" stroke-width="1" /><line x1="59" y1="196.67000000000002" x2="418" y2="196.67000000000002" stroke="#cccccc" stroke-width="1" /><line x1="59" y1="138.33" x2="418" y2="138.33" stroke="#cccccc" stroke-width="1" /><line x1="59" y1="80" x2="418" y2="80" stroke="#cccccc" stroke-width="1" /><line x1="59" y1="21.67" x2="418" y2="21.67" stroke="#cccccc" stroke-width="1" /><line x1="59" y1="290" x2="418" y2="290" stroke="#000000" stroke-width="1" /><line x1="59" y1="10" x2="59" y2="290" stroke="#000000" stroke-width="1" /><line x1="59" y1="290" x2="59" y2="295" stroke="#000000" stroke-width="1" /><text x="59" y="307" font-size="12" text-anchor="middle">-2</text><line x1="148.75" y1="290" x2="148.75" y2="295" stroke="#000000" stroke-width="1" /><text x="148.75" y="307" font-size="12" text-anchor="middle">0</text><line x1="238.5" y1="290" x2="238.5" y2="295" stroke="#000000" stroke-width="1" /><text x="238.5" y="307" font-size="12" text-anchor="middle">2</text><line x1="328.25" y1="290" x2="328.25" y2="295" stroke="#000000" stroke-width="1" /><text x="328.25" y="307" font-size="12" text-anchor="middle">4</text><line x1="418" y1="290" x2="418" y2="295" stroke="#000000" stroke-width="1" /><text x="418" y="307" font-size="12" text-anchor="middle">6</text><line x1="54" y1="255" x2="59" y2="255" stroke="#000000" stroke-width="1" /><text x="51" y="259.2" font-size="12" text-anchor="end">-2.5</text><line x1="54" y1="196.67000000000002" x2="59" y2="196.67000000000002" stroke="#000000" stroke-width="1" /><text x="51" y="200.87" font-size="12" text-anchor="end">0</text><line x1="54" y1="138.33" x2="59" y2="138.33" stroke="#000000" stroke-width="1" /><text x="51" y="142.53" font-size="12" text-anchor="end">2.5</text><line x1="54" y1="80" x2="59" y2="80" stroke="#000000" stroke-width="1" /><text x="51" y="84.2" font-size="12" text-anchor="end">5</text><line x1="54" y1="21.67" x2="59" y2="21.67" stroke="#000000" stroke-width="1" /><text x="51" y="25.87" font-size="12" text-anchor="end">7.5</text><g clip-path="url(#kuva-clip-0)"><circle cx="303.38" cy="153.70000000000002" r="4" fill="#1f77b4" fill-opacity="0.8" /><circle cx="200.4" cy="203.31" r="4" fill="#1f77b4" fill-opacity="0.8" /><circle cx="317.32" cy="155.39000000000001" r="4" fill="#1f77b4" fill-opacity="0.8" /><circle cx="382.2" cy="77.3" r="4" fill="#1f77b4" fill-opacity="0.8" /><circle cx="329.6" cy="135.3" r="4" fill="#1f77b4" fill-opacity="0.8" /><circle cx="229.43" cy="156.57" r="4" fill="#1f77b4" fill-opacity="0.8" /><circle cx="273.28000000000003" cy="159.73" r="4" fill="#1f77b4" fill-opacity="0.8" /><circle cx="263.07" cy="174.03" r="4" fill="#1f77b4" fill-opacity="0.8" /><circle cx="310.35" cy="116.72" r="4" fill="#1f77b4" fill-opacity="0.8" /><circle cx="180.86" cy="202.93" r="4" fill="#1f77b4" fill-opacity="0.8" /><circle cx="260.71" cy="175.51" r="4" fill="#1f77b4" fill-opacity="0.8" /><circle cx="283.38" cy="131.06" r="4" fill="#1f77b4" fill-opacity="0.8" /><circle cx="230.89000000000001" cy="136.15" r="4" fill="#1f77b4" fill-opacity="0.8" /><circle cx="242.73000000000002" cy="113.47" r="4" fill="#1f77b4" fill-opacity="0.8" /><circle cx="203.96" cy="131.1" r="4" fill="#1f77b4" fill-opacity="0.8" /><circle cx="197.95000000000002" cy="162.57" r="4" fill="#1f77b4" fill-opacity="0.8" /><circle cx="196.58" cy="168.92000000000002" r="4" fill="#1f77b4" fill-opacity="0.8" /><circle cx="174.76" cy="171.25" r="4" fill="#1f77b4" fill-opacity="0.8" /><circle cx="289.87" cy="107.43" r="4" fill="#1f77b4" fill-opacity="0.8" /><circle cx="208.57" cy="192.48000000000002" r="4" fill="#1f77b4" fill-opacity="0.8" /><circle cx="117.12" cy="179.93" r="4" fill="#1f77b4" fill-opacity="0.8" /><circle cx="170.07" cy="200.87" r="4" fill="#1f77b4" fill-opacity="0.8" /><circle cx="153.79" cy="221.20000000000002" r="4" fill="#1f77b4" fill-opacity="0.8" /><circle cx="335.36" cy="138.53" r="4" fill="#1f77b4" fill-opacity="0.8" /><circle cx="343.56" cy="130.94" r="4" fill="#1f77b4" fill-opacity="0.8" /><circle cx="251.83" cy="130.5" r="4" fill="#1f77b4" fill-opacity="0.8" /><circle cx="234.66" cy="135.6" r="4" fill="#1f77b4" fill-opacity="0.8" /><circle cx="270.28000000000003" cy="146.62" r="4" fill="#1f77b4" fill-opacity="0.8" /><circle cx="165.15" cy="160.14000000000001" r="4" fill="#1f77b4" fill-opacity="0.8" /><circle cx="337.46" cy="133.87" r="4" fill="#1f77b4" fill-opacity="0.8" /><circle cx="331.65000000000003" cy="104.64" r="4" fill="#1f77b4" fill-opacity="0.8" /><circle cx="187.98" cy="157.07" r="4" fill="#1f77b4" fill-opacity="0.8" /><circle cx="318.74" cy="115.84" r="4" fill="#1f77b4" fill-opacity="0.8" /><circle cx="175.70000000000002" cy="232.68" r="4" fill="#1f77b4" fill-opacity="0.8" /><circle cx="325.01" cy="123.14" r="4" fill="#1f77b4" fill-opacity="0.8" /><circle cx="174.36" cy="209.48000000000002" r="4" fill="#1f77b4" fill-opacity="0.8" /><circle cx="88.81" cy="191.14000000000001" r="4" fill="#1f77b4" fill-opacity="0.8" /><circle cx="286.45" cy="138.26" r="4" fill="#1f77b4" fill-opacity="0.8" /><circle cx="175.81" cy="162.61" r="4" fill="#1f77b4" fill-opacity="0.8" /><circle cx="139.58" cy="154.96" r="4" fill="#1f77b4" fill-opacity="0.8" /><circle cx="252.97" cy="141.97" r="4" fill="#1f77b4" fill-opacity="0.8" /><circle cx="275.04" cy="187.4" r="4" fill="#1f77b4" fill-opacity="0.8" /><circle cx="215.57" cy="137.56" r="4" fill="#1f77b4" fill-opacity="0.8" /><circle cx="154.78" cy="176.3" r="4" fill="#1f77b4" fill-opacity="0.8" /><circle cx="205.17000000000002" cy="163.97" r="4" fill="#1f77b4" fill-opacity="0.8" /><circle cx="206.16" cy="176.54" r="4" fill="#1f77b4" fill-opacity="0.8" /><circle cx="113.43" cy="211.33" r="4" fill="#1f77b4" fill-opacity="0.8" /><circle cx="398.25" cy="71.99" r="4" fill="#1f77b4" fill-opacity="0.8" /><circle cx="273.87" cy="181.56" r="4" fill="#1f77b4" fill-opacity="0.8" /><circle cx="295.36" cy="121.62" r="4" fill="#1f77b4" fill-opacity="0.8" /><circle cx="72.8" cy="215.85" r="4" fill="#1f77b4" fill-opacity="0.8" /><circle cx="266.63" cy="122.77" r="4" fill="#1f77b4" fill-opacity="0.8" /><circle cx="286.97" cy="145.64000000000001" r="4" fill="#1f77b4" fill-opacity="0.8" /><circle cx="260.53000000000003" cy="159.51" r="4" fill="#1f77b4" fill-opacity="0.8" /><circle cx="318.46" cy="110.57000000000001" r="4" fill="#1f77b4" fill-opacity="0.8" /><circle cx="221.57" cy="133.26" r="4" fill="#1f77b4" fill-opacity="0.8" /><circle cx="187.13" cy="209.9" r="4" fill="#1f77b4" fill-opacity="0.8" /><circle cx="181.57" cy="212.43" r="4" fill="#1f77b4" fill-opacity="0.8" /><circle cx="256.65" cy="172.49" r="4" fill="#1f77b4" fill-opacity="0.8" /><circle cx="183.54" cy="210.77" r="4" fill="#1f77b4" fill-opacity="0.8" /><circle cx="248.81" cy="136.57" r="4" fill="#1f77b4" fill-opacity="0.8" /><circle cx="312.62" cy="101.02" r="4" fill="#1f77b4" fill-opacity="0.8" /><circle cx="185.65" cy="149.22" r="4" fill="#1f77b4" fill-opacity="0.8" /><circle cx="130.25" cy="192.70000000000002" r="4" fill="#1f77b4" fill-opacity="0.8" /><circle cx="237.43" cy="128.09" r="4" fill="#1f77b4" fill-opacity="0.8" /><circle cx="227.76" cy="141.52" r="4" fill="#1f77b4" fill-opacity="0.8" /><circle cx="194.61" cy="203.63" r="4" fill="#1f77b4" fill-opacity="0.8" /><circle cx="205.4" cy="137.51" r="4" fill="#1f77b4" fill-opacity="0.8" /><circle cx="118.51" cy="188.55" r="4" fill="#1f77b4" fill-opacity="0.8" /><circle cx="386.72" cy="117.61" r="4" fill="#1f77b4" fill-opacity="0.8" /><circle cx="328.18" cy="96.12" r="4" fill="#1f77b4" fill-opacity="0.8" /><circle cx="126.27" cy="176.86" r="4" fill="#1f77b4" fill-opacity="0.8" /><circle cx="152.95000000000002" cy="238.08" r="4" fill="#1f77b4" fill-opacity="0.8" /><circle cx="178.92000000000002" cy="179.78" r="4" fill="#1f77b4" fill-opacity="0.8" /><circle cx="279.43" cy="143.32" r="4" fill="#1f77b4" fill-opacity="0.8" /><circle cx="217.06" cy="156.76" r="4" fill="#1f77b4" fill-opacity="0.8" /><circle cx="334.65000000000003" cy="150.32" r="4" fill="#1f77b4" fill-opacity="0.8" /><circle cx="212.37" cy="148.34" r="4" fill="#1f77b4" fill-opacity="0.8" /><circle cx="145.98" cy="175.87" r="4" fill="#1f77b4" fill-opacity="0.8" /><circle cx="215.33" cy="202.70000000000002" r="4" fill="#1f77b4" fill-opacity="0.8" /><circle cx="233.53" cy="150.27" r="4" fill="#1f77b4" fill-opacity="0.8" /><circle cx="308.05" cy="118.11" r="4" fill="#1f77b4" fill-opacity="0.8" /><circle cx="278.35" cy="124.95" r="4" fill="#1f77b4" fill-opacity="0.8" /><circle cx="330.24" cy="125.44" r="4" fill="#1f77b4" fill-opacity="0.8" /><circle cx="223.59" cy="202.82" r="4" fill="#1f77b4" fill-opacity="0.8" /><circle cx="340.40000000000003" cy="150.67000000000002" r="4" fill="#1f77b4" fill-opacity="0.8" /><circle cx="140.31" cy="215.97" r="4" fill="#1f77b4" fill-opacity="0.8" /><circle cx="148.92000000000002" cy="179.84" r="4" fill="#1f77b4" fill-opacity="0.8" /><circle cx="178.03" cy="170.5" r="4" fill="#1f77b4" fill-opacity="0.8" /><circle cx="326.91" cy="101.47" r="4" fill="#1f77b4" fill-opacity="0.8" /><circle cx="152.41" cy="212.62" r="4" fill="#1f77b4" fill-opacity="0.8" /><circle cx="309.53000000000003" cy="176.93" r="4" fill="#1f77b4" fill-opacity="0.8" /><circle cx="404.22" cy="56.230000000000004" r="4" fill="#1f77b4" fill-opacity="0.8" /><circle cx="183.74" cy="153.95000000000002" r="4" fill="#1f77b4" fill-opacity="0.8" /><circle cx="241.75" cy="178.8" r="4" fill="#1f77b4" fill-opacity="0.8" /><circle cx="235.47" cy="208.96" r="4" fill="#1f77b4" fill-opacity="0.8" /><circle cx="250.3" cy="190.21" r="4" fill="#1f77b4" fill-opacity="0.8" /><circle cx="238.64000000000001" cy="156" r="4" fill="#1f77b4" fill-opacity="0.8" /><circle cx="138.21" cy="226.04" r="4" fill="#1f77b4" fill-opacity="0.8" /><circle cx="220.70000000000002" cy="128.76" r="4" fill="#1f77b4" fill-opacity="0.8" /><circle cx="359.52" cy="93.61" r="4" fill="#1f77b4" fill-opacity="0.8" /><circle cx="161.11" cy="159.22" r="4" fill="#1f77b4" fill-opacity="0.8" /><circle cx="154.41" cy="198.5" r="4" fill="#1f77b4" fill-opacity="0.8" /><circle cx="172.42000000000002" cy="189.83" r="4" fill="#1f77b4" fill-opacity="0.8" /><circle cx="154.06" cy="225.58" r="4" fill="#1f77b4" fill-opacity="0.8" /><circle cx="265.58" cy="145.79" r="4" fill="#1f77b4" fill-opacity="0.8" /><circle cx="143.26" cy="165.55" r="4" fill="#1f77b4" fill-opacity="0.8" /><circle cx="168.69" cy="210.23000000000002" r="4" fill="#1f77b4" fill-opacity="0.8" /><circle cx="229.63" cy="219.37" r="4" fill="#1f77b4" fill-opacity="0.8" /><circle cx="273.36" cy="141.20000000000002" r="4" fill="#1f77b4" fill-opacity="0.8" /><circle cx="327.06" cy="112.39" r="4" fill="#1f77b4" fill-opacity="0.8" /><circle cx="306.49" cy="134.44" r="4" fill="#1f77b4" fill-opacity="0.8" /><circle cx="312.26" cy="104.87" r="4" fill="#1f77b4" fill-opacity="0.8" /><circle cx="369.99" cy="124.52" r="4" fill="#1f77b4" fill-opacity="0.8" /><circle cx="167.07" cy="211.81" r="4" fill="#1f77b4" fill-opacity="0.8" /><circle cx="156.96" cy="222.13" r="4" fill="#1f77b4" fill-opacity="0.8" /><circle cx="79.43" cy="201.58" r="4" fill="#1f77b4" fill-opacity="0.8" /><circle cx="234.58" cy="166.94" r="4" fill="#1f77b4" fill-opacity="0.8" /><circle cx="173.1" cy="205.45000000000002" r="4" fill="#1f77b4" fill-opacity="0.8" /><circle cx="165.58" cy="183.08" r="4" fill="#1f77b4" fill-opacity="0.8" /><circle cx="260.3" cy="130.3" r="4" fill="#1f77b4" fill-opacity="0.8" /><circle cx="126.04" cy="219.24" r="4" fill="#1f77b4" fill-opacity="0.8" /><circle cx="203.70000000000002" cy="149.54" r="4" fill="#1f77b4" fill-opacity="0.8" /><circle cx="193.34" cy="201.01" r="4" fill="#1f77b4" fill-opacity="0.8" /><circle cx="194.83" cy="159.76" r="4" fill="#1f77b4" fill-opacity="0.8" /><circle cx="248.87" cy="159.75" r="4" fill="#1f77b4" fill-opacity="0.8" /><circle cx="205.36" cy="147.34" r="4" fill="#1f77b4" fill-opacity="0.8" /><circle cx="219.35" cy="200.95000000000002" r="4" fill="#1f77b4" fill-opacity="0.8" /><circle cx="80.77" cy="248.43" r="4" fill="#1f77b4" fill-opacity="0.8" /><circle cx="221.02" cy="142.09" r="4" fill="#1f77b4" fill-opacity="0.8" /><circle cx="192.21" cy="186.53" r="4" fill="#1f77b4" fill-opacity="0.8" /><circle cx="301.54" cy="141.04" r="4" fill="#1f77b4" fill-opacity="0.8" /><circle cx="349.77" cy="81.14" r="4" fill="#1f77b4" fill-opacity="0.8" /><circle cx="153.42000000000002" cy="154.97" r="4" fill="#1f77b4" fill-opacity="0.8" /><circle cx="160.21" cy="158.01" r="4" fill="#1f77b4" fill-opacity="0.8" /><circle cx="121.94" cy="185.95000000000002" r="4" fill="#1f77b4" fill-opacity="0.8" /><circle cx="320.17" cy="95.62" r="4" fill="#1f77b4" fill-opacity="0.8" /><circle cx="204.37" cy="143.71" r="4" fill="#1f77b4" fill-opacity="0.8" /><circle cx="283.99" cy="179.8" r="4" fill="#1f77b4" fill-opacity="0.8" /><circle cx="314.14" cy="108.32000000000001" r="4" fill="#1f77b4" fill-opacity="0.8" /><circle cx="310.39" cy="109.97" r="4" fill="#1f77b4" fill-opacity="0.8" /><circle cx="146.38" cy="174.49" r="4" fill="#1f77b4" fill-opacity="0.8" /><circle cx="299.34000000000003" cy="171.15" r="4" fill="#1f77b4" fill-opacity="0.8" /><circle cx="333.61" cy="127.67" r="4" fill="#1f77b4" fill-opacity="0.8" /><circle cx="257.52" cy="129.51" r="4" fill="#1f77b4" fill-opacity="0.8" /><circle cx="154.32" cy="221.14000000000001" r="4" fill="#1f77b4" fill-opacity="0.8" /><circle cx="195.17000000000002" cy="207.37" r="4" fill="#1f77b4" fill-opacity="0.8" /><circle cx="169.17000000000002" cy="212.63" r="4" fill="#1f77b4" fill-opacity="0.8" /><circle cx="212.27" cy="173.35" r="4" fill="#1f77b4" fill-opacity="0.8" /><circle cx="249.86" cy="144.75" r="4" fill="#1f77b4" fill-opacity="0.8" /><circle cx="211.86" cy="184.53" r="4" fill="#1f77b4" fill-opacity="0.8" /><circle cx="297.13" cy="158.42000000000002" r="4" fill="#1f77b4" fill-opacity="0.8" /><circle cx="278.19" cy="114.54" r="4" fill="#1f77b4" fill-opacity="0.8" /><circle cx="325.6" cy="112.77" r="4" fill="#1f77b4" fill-opacity="0.8" /><circle cx="328.35" cy="138.18" r="4" fill="#1f77b4" fill-opacity="0.8" /><circle cx="213.27" cy="123.86" r="4" fill="#1f77b4" fill-opacity="0.8" /><circle cx="215.54" cy="149.47" r="4" fill="#1f77b4" fill-opacity="0.8" /><circle cx="182.58" cy="145.94" r="4" fill="#1f77b4" fill-opacity="0.8" /><circle cx="156.58" cy="162.06" r="4" fill="#1f77b4" fill-opacity="0.8" /><circle cx="152.16" cy="223.48000000000002" r="4" fill="#1f77b4" fill-opacity="0.8" /><circle cx="335.05" cy="109.12" r="4" fill="#1f77b4" fill-opacity="0.8" /><circle cx="165.49" cy="167.42000000000002" r="4" fill="#1f77b4" fill-opacity="0.8" /><circle cx="181.47" cy="163.67000000000002" r="4" fill="#1f77b4" fill-opacity="0.8" /><circle cx="151.02" cy="239.27" r="4" fill="#1f77b4" fill-opacity="0.8" /><circle cx="306.72" cy="113.09" r="4" fill="#1f77b4" fill-opacity="0.8" /><circle cx="195.51" cy="210.6" r="4" fill="#1f77b4" fill-opacity="0.8" /><circle cx="298.02" cy="168.13" r="4" fill="#1f77b4" fill-opacity="0.8" /><circle cx="252.68" cy="133.94" r="4" fill="#1f77b4" fill-opacity="0.8" /><circle cx="179.97" cy="175.31" r="4" fill="#1f77b4" fill-opacity="0.8" /><circle cx="295.03000000000003" cy="141.85" r="4" fill="#1f77b4" fill-opacity="0.8" /><circle cx="310.65000000000003" cy="127.63000000000001" r="4" fill="#1f77b4" fill-opacity="0.8" /><circle cx="228.8" cy="152.46" r="4" fill="#1f77b4" fill-opacity="0.8" /><circle cx="236.75" cy="186.09" r="4" fill="#1f77b4" fill-opacity="0.8" /><circle cx="271.94" cy="167.39000000000001" r="4" fill="#1f77b4" fill-opacity="0.8" /><circle cx="205.61" cy="195.72" r="4" fill="#1f77b4" fill-opacity="0.8" /><circle cx="301.51" cy="110.08" r="4" fill="#1f77b4" fill-opacity="0.8" /><circle cx="305.03000000000003" cy="117.29" r="4" fill="#1f77b4" fill-opacity="0.8" /><circle cx="171.81" cy="214.24" r="4" fill="#1f77b4" fill-opacity="0.8" /><circle cx="172.46" cy="176.88" r="4" fill="#1f77b4" fill-opacity="0.8" /><circle cx="289.94" cy="143.06" r="4" fill="#1f77b4" fill-opacity="0.8" /><circle cx="293.46" cy="117.43" r="4" fill="#1f77b4" fill-opacity="0.8" /><circle cx="350.87" cy="123.92" r="4" fill="#1f77b4" fill-opacity="0.8" /><circle cx="250.70000000000002" cy="166.06" r="4" fill="#1f77b4" fill-opacity="0.8" /><circle cx="220.86" cy="161.08" r="4" fill="#1f77b4" fill-opacity="0.8" /><circle cx="119.95" cy="191.75" r="4" fill="#1f77b4" fill-opacity="0.8" /><circle cx="251.54" cy="165.49" r="4" fill="#1f77b4" fill-opacity="0.8" /><circle cx="216.29" cy="166.36" r="4" fill="#1f77b4" fill-opacity="0.8" /><circle cx="325.97" cy="161.79" r="4" fill="#1f77b4" fill-opacity="0.8" /><circle cx="214.49" cy="167.1" r="4" fill="#1f77b4" fill-opacity="0.8" /><circle cx="158.37" cy="216.89000000000001" r="4" fill="#1f77b4" fill-opacity="0.8" /><circle cx="148.11" cy="217.86" r="4" fill="#1f77b4" fill-opacity="0.8" /><circle cx="287.51" cy="114.49000000000001" r="4" fill="#1f77b4" fill-opacity="0.8" /><circle cx="255.36" cy="175.94" r="4" fill="#1f77b4" fill-opacity="0.8" /><circle cx="171.94" cy="181.94" r="4" fill="#1f77b4" fill-opacity="0.8" /><circle cx="161.06" cy="160.20000000000002" r="4" fill="#1f77b4" fill-opacity="0.8" /><circle cx="310.23" cy="148.83" r="4" fill="#1f77b4" fill-opacity="0.8" /><circle cx="343.24" cy="97.58" r="4" fill="#1f77b4" fill-opacity="0.8" /><circle cx="239.58" cy="130.13" r="4" fill="#1f77b4" fill-opacity="0.8" /><circle cx="320.98" cy="78.61" r="4" fill="#1f77b4" fill-opacity="0.8" /><circle cx="310.87" cy="149.74" r="4" fill="#1f77b4" fill-opacity="0.8" /></g></g><rect x="59.5" y="115.73" width="16.95" height="3.27" fill="#1f77b4" fill-opacity="0.6" /><rect x="77.45" y="109.18" width="16.95" height="9.82" fill="#1f77b4" fill-opacity="0.6" /><rect x="113.35000000000001" y="92.82000000000001" width="16.95" height="26.18" fill="#1f77b4" fill-opacity="0.6" /><rect x="131.3" y="96.09" width="16.95" height="22.91" fill="#1f77b4" fill-opacity="0.6" /><rect x="149.25" y="53.550000000000004" width="16.95" height="65.45" fill="#1f77b4" fill-opacity="0.6" /><rect x="167.20000000000002" y="47" width="16.95" height="72" fill="#1f77b4" fill-opacity="0.6" /><rect x="185.15" y="79.73" width="16.95" height="39.27" fill="#1f77b4" fill-opacity="0.6" /><rect x="203.1" y="53.550000000000004" width="16.95" height="65.45" fill="#1f77b4" fill-opacity="0.6" /><rect x="221.05" y="66.64" width="16.95" height="52.36" fill="#1f77b4" fill-opacity="0.6" /><rect x="239" y="73.18" width="16.95" height="45.82" fill="#1f77b4" fill-opacity="0.6" /><rect x="256.95" y="76.45" width="16.95" height="42.550000000000004" fill="#1f77b4" fill-opacity="0.6" /><rect x="274.90000000000003" y="83" width="16.95" height="36" fill="#1f77b4" fill-opacity="0.6" /><rect x="292.85" y="69.91" width="16.95" height="49.09" fill="#1f77b4" fill-opacity="0.6" /><rect x="310.8" y="60.09" width="16.95" height="58.910000000000004" fill="#1f77b4" fill-opacity="0.6" /><rect x="328.75" y="79.73" width="16.95" height="39.27" fill="#1f77b4" fill-opacity="0.6" /><rect x="346.7" y="109.18" width="16.95" height="9.82" fill="#1f77b4" fill-opacity="0.6" /><rect x="364.65000000000003" y="115.73" width="16.95" height="3.27" fill="#1f77b4" fill-opacity="0.6" /><rect x="382.6" y="109.18" width="16.95" height="9.82" fill="#1f77b4" fill-opacity="0.6" /><rect x="400.55" y="115.73" width="16.95" height="3.27" fill="#1f77b4" fill-opacity="0.6" /><line x1="59" y1="119" x2="418" y2="119" stroke="#cccccc" stroke-width="1" /><rect x="422" y="367.5" width="2.48" height="13" fill="#1f77b4" fill-opacity="0.6" /><rect x="422" y="353.5" width="4.97" height="13" fill="#1f77b4" fill-opacity="0.6" /><rect x="422" y="339.5" width="17.38" height="13" fill="#1f77b4" fill-opacity="0.6" /><rect x="422" y="325.5" width="47.17" height="13" fill="#1f77b4" fill-opacity="0.6" /><rect x="422" y="311.5" width="34.76" height="13" fill="#1f77b4" fill-opacity="0.6" /><rect x="422" y="297.5" width="44.69" height="13" fill="#1f77b4" fill-opacity="0.6" /><rect x="422" y="283.5" width="64.55" height="13" fill="#1f77b4" fill-opacity="0.6" /><rect x="422" y="269.5" width="72" height="13" fill="#1f77b4" fill-opacity="0.6" /><rect x="422" y="255.5" width="69.52" height="13" fill="#1f77b4" fill-opacity="0.6" /><rect x="422" y="241.5" width="59.59" height="13" fill="#1f77b4" fill-opacity="0.6" /><rect x="422" y="227.5" width="44.69" height="13" fill="#1f77b4" fill-opacity="0.6" /><rect x="422" y="213.5" width="19.86" height="13" fill="#1f77b4" fill-opacity="0.6" /><rect x="422" y="199.5" width="4.97" height="13" fill="#1f77b4" fill-opacity="0.6" /><rect x="422" y="185.5" width="7.45" height="13" fill="#1f77b4" fill-opacity="0.6" /><rect x="422" y="171.5" width="2.48" height="13" fill="#1f77b4" fill-opacity="0.6" /><line x1="422" y1="129" x2="422" y2="409" stroke="#cccccc" stroke-width="1" /></svg>