<svg xmlns="http://www.w3.org/2000/svg" width="520" height="460" font-family="DejaVu Sans, Liberation Sans, Arial, sans-serif" fill="black"><rect width="100%" height="100%" fill="white" /><defs><clipPath id="kuva-clip-1"><rect x="59" y="10" width="229" height="280"/></clipPath></defs><text x="260" y="27.400000000000002" font-size="18" text-anchor="middle">Joint Plot — KDE marginals</text><g transform="translate(0,119.0)"><line x1="91.71000000000001" y1="10" x2="91.71000000000001" y2="290" stroke="#cccccc" stroke-width="1" /><line x1="124.43" y1="10" x2="124.43" y2="290" stroke="#cccccc" stroke-width="1" /><line x1="157.14000000000001" y1="10" x2="157.14000000000001" y2="290" stroke="#cccccc" stroke-width="1" /><line x1="189.86" y1="10" x2="189.86" y2="290" stroke="#cccccc" stroke-width="1" /><line x1="222.57" y1="10" x2="222.57" y2="290" stroke="#cccccc" stroke-width="1" /><line x1="255.29" y1="10" x2="255.29" y2="290" stroke="#cccccc" stroke-width="1" /><line x1="288" y1="10" x2="288" y2="290" stroke="#cccccc" stroke-width="1" /><line x1="59" y1="234" x2="288" y2="234" stroke="#cccccc" stroke-width="1" /><line x1="59" y1="178" x2="288" y2="178" stroke="#cccccc" stroke-width="1" /><line x1="59" y1="122" x2="288" y2="122" stroke="#cccccc" stroke-width="1" /><line x1="59" y1="66" x2="288" y2="66" stroke="#cccccc" stroke-width="1" /><line x1="59" y1="10" x2="288" y2="10" stroke="#cccccc" stroke-width="1" /><line x1="59" y1="290" x2="288" y2="290" stroke="#000000" stroke-width="1" /><line x1="59" y1="10" x2="59" y2="290" stroke="#000000" stroke-width="1" /><line x1="59" y1="290" x2="59" y2="295" stroke="#000000" stroke-width="1" /><text x="59" y="307" font-size="12" text-anchor="middle">-2</text><line x1="91.71000000000001" y1="290" x2="91.71000000000001" y2="295" stroke="#000000" stroke-width="1" /><text x="91.71000000000001" y="307" font-size="12" text-anchor="middle">-1</text><line x1="124.43" y1="290" x2="124.43" y2="295" stroke="#000000" stroke-width="1" /><text x="124.43" y="307" font-size="12" text-anchor="middle">0</text><line x1="157.14000000000001" y1="290" x2="157.14000000000001" y2="295" stroke="#000000" stroke-width="1" /><text x="157.14000000000001" y="307" font-size="12" text-anchor="middle">1</text><line x1="189.86" y1="290" x2="189.86" y2="295" stroke="#000000" stroke-width="1" /><text x="189.86" y="307" font-size="12" text-anchor="middle">2</text><line x1="222.57" y1="290" x2="222.57" y2="295" stroke="#000000" stroke-width="1" /><text x="222.57" y="307" font-size="12" text-anchor="middle">3</text><line x1="255.29" y1="290" x2="255.29" y2="295" stroke="#000000" stroke-width="1" /><text x="255.29" y="307" font-size="12" text-anchor="middle">4</text><line x1="288" y1="290" x2="288" y2="295" stroke="#000000" stroke-width="1" /><text x="288" y="307" font-size="12" text-anchor="middle">5</text><line x1="54" y1="290" x2="59" y2="290" stroke="#000000" stroke-width="1" /><text x="51" y="294.2" font-size="12" text-anchor="end">-4</text><line x1="54" y1="234" x2="59" y2="234" stroke="#000000" stroke-width="1" /><text x="51" y="238.20000000000002" font-size="12" text-anchor="end">-2</text><line x1="54" y1="178" x2="59" y2="178" stroke="#000000" stroke-width="1" /><text x="51" y="182.20000000000002" font-size="12" text-anchor="end">0</text><line x1="54" y1="122" x2="59" y2="122" stroke="#000000" stroke-width="1" /><text x="51" y="126.2" font-size="12" text-anchor="end">2</text><line x1="54" y1="66" x2="59" y2="66" stroke="#000000" stroke-width="1" /><text x="51" y="70.2" font-size="12" text-anchor="end">4</text><line x1="54" y1="10" x2="59" y2="10" stroke="#000000" stroke-width="1" /><text x="51" y="14.200000000000001" font-size="12" text-anchor="end">6</text><g clip-path="url(#kuva-clip-1)"><circle cx="228.24" cy="143.61" r="4" fill="#ff7f50" fill-opacity="0.8" /><circle cx="188.84" cy="82.87" r="4" fill="#ff7f50" fill-opacity="0.8" /><circle cx="183.29" cy="142.52" r="4" fill="#ff7f50" fill-opacity="0.8" /><circle cx="233.01" cy="90.19" r="4" fill="#ff7f50" fill-opacity="0.8" /><circle cx="142.13" cy="214.56" r="4" fill="#ff7f50" fill-opacity="0.8" /><circle cx="241.15" cy="107.44" r="4" fill="#ff7f50" fill-opacity="0.8" /><circle cx="154.6" cy="134.56" r="4" fill="#ff7f50" fill-opacity="0.8" /><circle cx="101.75" cy="205.14000000000001" r="4" fill="#ff7f50" fill-opacity="0.8" /><circle cx="247.32" cy="66.65" r="4" fill="#ff7f50" fill-opacity="0.8" /><circle cx="111.39" cy="210.98000000000002" r="4" fill="#ff7f50" fill-opacity="0.8" /><circle cx="179.34" cy="110.05" r="4" fill="#ff7f50" fill-opacity="0.8" /><circle cx="151.92000000000002" cy="113.11" r="4" fill="#ff7f50" fill-opacity="0.8" /><circle cx="205.77" cy="52.4" r="4" fill="#ff7f50" fill-opacity="0.8" /><circle cx="199.91" cy="108.15" r="4" fill="#ff7f50" fill-opacity="0.8" /><circle cx="168.82" cy="147.4" r="4" fill="#ff7f50" fill-opacity="0.8" /><circle cx="166.17000000000002" cy="157.57" r="4" fill="#ff7f50" fill-opacity="0.8" /><circle cx="137.55" cy="167" r="4" fill="#ff7f50" fill-opacity="0.8" /><circle cx="177.12" cy="170.24" r="4" fill="#ff7f50" fill-opacity="0.8" /><circle cx="121.87" cy="133.73" r="4" fill="#ff7f50" fill-opacity="0.8" /><circle cx="205.99" cy="109.17" r="4" fill="#ff7f50" fill-opacity="0.8" /><circle cx="182.81" cy="115.75" r="4" fill="#ff7f50" fill-opacity="0.8" /><circle cx="206" cy="84.69" r="4" fill="#ff7f50" fill-opacity="0.8" /><circle cx="146.34" cy="111.27" r="4" fill="#ff7f50" fill-opacity="0.8" /><circle cx="202.8" cy="82.25" r="4" fill="#ff7f50" fill-opacity="0.8" /><circle cx="125.04" cy="122.5" r="4" fill="#ff7f50" fill-opacity="0.8" /><circle cx="152.72" cy="199.57" r="4" fill="#ff7f50" fill-opacity="0.8" /><circle cx="161.83" cy="164.36" r="4" fill="#ff7f50" fill-opacity="0.8" /><circle cx="115.53" cy="200.15" r="4" fill="#ff7f50" fill-opacity="0.8" /><circle cx="195.18" cy="156.74" r="4" fill="#ff7f50" fill-opacity="0.8" /><circle cx="226.07" cy="48.4" r="4" fill="#ff7f50" fill-opacity="0.8" /><circle cx="104" cy="224.47" r="4" fill="#ff7f50" fill-opacity="0.8" /><circle cx="205.73000000000002" cy="153.11" r="4" fill="#ff7f50" fill-opacity="0.8" /><circle cx="219.25" cy="61.46" r="4" fill="#ff7f50" fill-opacity="0.8" /><circle cx="227.59" cy="53.95" r="4" fill="#ff7f50" fill-opacity="0.8" /><circle cx="217.55" cy="156.84" r="4" fill="#ff7f50" fill-opacity="0.8" /><circle cx="239.16" cy="102.53" r="4" fill="#ff7f50" fill-opacity="0.8" /><circle cx="207.39000000000001" cy="148.05" r="4" fill="#ff7f50" fill-opacity="0.8" /><circle cx="188.78" cy="187.45000000000002" r="4" fill="#ff7f50" fill-opacity="0.8" /><circle cx="136.39000000000001" cy="177.32" r="4" fill="#ff7f50" fill-opacity="0.8" /><circle cx="85.96000000000001" cy="203.89000000000001" r="4" fill="#ff7f50" fill-opacity="0.8" /><circle cx="144.84" cy="163.42000000000002" r="4" fill="#ff7f50" fill-opacity="0.8" /><circle cx="99.51" cy="111.53" r="4" fill="#ff7f50" fill-opacity="0.8" /><circle cx="213.4" cy="110.37" r="4" fill="#ff7f50" fill-opacity="0.8" /><circle cx="256.98" cy="139.34" r="4" fill="#ff7f50" fill-opacity="0.8" /><circle cx="199.06" cy="138.34" r="4" fill="#ff7f50" fill-opacity="0.8" /><circle cx="153.51" cy="116.67" r="4" fill="#ff7f50" fill-opacity="0.8" /><circle cx="249.42000000000002" cy="141.22" r="4" fill="#ff7f50" fill-opacity="0.8" /><circle cx="209.16" cy="160.71" r="4" fill="#ff7f50" fill-opacity="0.8" /><circle cx="208.4" cy="100.13" r="4" fill="#ff7f50" fill-opacity="0.8" /><circle cx="237.78" cy="97.54" r="4" fill="#ff7f50" fill-opacity="0.8" /><circle cx="202.81" cy="158.16" r="4" fill="#ff7f50" fill-opacity="0.8" /><circle cx="131.91" cy="124.82000000000001" r="4" fill="#ff7f50" fill-opacity="0.8" /><circle cx="145.98" cy="172.84" r="4" fill="#ff7f50" fill-opacity="0.8" /><circle cx="171.82" cy="167.66" r="4" fill="#ff7f50" fill-opacity="0.8" /><circle cx="187.57" cy="111.47" r="4" fill="#ff7f50" fill-opacity="0.8" /><circle cx="206.45000000000002" cy="124.25" r="4" fill="#ff7f50" fill-opacity="0.8" /><circle cx="141.92000000000002" cy="95.99000000000001" r="4" fill="#ff7f50" fill-opacity="0.8" /><circle cx="99.27" cy="159.70000000000002" r="4" fill="#ff7f50" fill-opacity="0.8" /><circle cx="257.2" cy="120.63" r="4" fill="#ff7f50" fill-opacity="0.8" /><circle cx="107.15" cy="218.94" r="4" fill="#ff7f50" fill-opacity="0.8" /><circle cx="168.67000000000002" cy="156.74" r="4" fill="#ff7f50" fill-opacity="0.8" /><circle cx="132.94" cy="124.29" r="4" fill="#ff7f50" fill-opacity="0.8" /><circle cx="239.77" cy="84.94" r="4" fill="#ff7f50" fill-opacity="0.8" /><circle cx="179.79" cy="135.76" r="4" fill="#ff7f50" fill-opacity="0.8" /><circle cx="111.39" cy="139.84" r="4" fill="#ff7f50" fill-opacity="0.8" /><circle cx="156.47" cy="126.54" r="4" fill="#ff7f50" fill-opacity="0.8" /><circle cx="217.64000000000001" cy="117.31" r="4" fill="#ff7f50" fill-opacity="0.8" /><circle cx="181.07" cy="115.37" r="4" fill="#ff7f50" fill-opacity="0.8" /><circle cx="119.77" cy="198.99" r="4" fill="#ff7f50" fill-opacity="0.8" /><circle cx="108.19" cy="141.36" r="4" fill="#ff7f50" fill-opacity="0.8" /><circle cx="214.17000000000002" cy="87.88" r="4" fill="#ff7f50" fill-opacity="0.8" /><circle cx="142.89000000000001" cy="137.15" r="4" fill="#ff7f50" fill-opacity="0.8" /><circle cx="136.49" cy="112.69" r="4" fill="#ff7f50" fill-opacity="0.8" /><circle cx="166.1" cy="125.77" r="4" fill="#ff7f50" fill-opacity="0.8" /><circle cx="188.65" cy="56.480000000000004" r="4" fill="#ff7f50" fill-opacity="0.8" /><circle cx="202.46" cy="82.33" r="4" fill="#ff7f50" fill-opacity="0.8" /><circle cx="150.42000000000002" cy="68.91" r="4" fill="#ff7f50" fill-opacity="0.8" /><circle cx="184.42000000000002" cy="150.28" r="4" fill="#ff7f50" fill-opacity="0.8" /><circle cx="143.49" cy="180.62" r="4" fill="#ff7f50" fill-opacity="0.8" /><circle cx="140.91" cy="181.01" r="4" fill="#ff7f50" fill-opacity="0.8" /><circle cx="126.09" cy="176.09" r="4" fill="#ff7f50" fill-opacity="0.8" /><circle cx="201.68" cy="114.64" r="4" fill="#ff7f50" fill-opacity="0.8" /><circle cx="213.22" cy="113.05" r="4" fill="#ff7f50" fill-opacity="0.8" /><circle cx="132.04" cy="211.31" r="4" fill="#ff7f50" fill-opacity="0.8" /><circle cx="212.51" cy="119.77" r="4" fill="#ff7f50" fill-opacity="0.8" /><circle cx="143.36" cy="187.11" r="4" fill="#ff7f50" fill-opacity="0.8" /><circle cx="221.82" cy="106.23" r="4" fill="#ff7f50" fill-opacity="0.8" /><circle cx="146.59" cy="178.29" r="4" fill="#ff7f50" fill-opacity="0.8" /><circle cx="236.84" cy="73.05" r="4" fill="#ff7f50" fill-opacity="0.8" /><circle cx="127.68" cy="187.25" r="4" fill="#ff7f50" fill-opacity="0.8" /><circle cx="214.16" cy="108" r="4" fill="#ff7f50" fill-opacity="0.8" /><circle cx="115.47" cy="149.14000000000001" r="4" fill="#ff7f50" fill-opacity="0.8" /><circle cx="134.2" cy="207.75" r="4" fill="#ff7f50" fill-opacity="0.8" /><circle cx="125.11" cy="145.97" r="4" fill="#ff7f50" fill-opacity="0.8" /><circle cx="206.49" cy="73.46000000000001" r="4" fill="#ff7f50" fill-opacity="0.8" /><circle cx="130.32" cy="119.84" r="4" fill="#ff7f50" fill-opacity="0.8" /><circle cx="183.85" cy="161.01" r="4" fill="#ff7f50" fill-opacity="0.8" /><circle cx="220.25" cy="113.77" r="4" fill="#ff7f50" fill-opacity="0.8" /><circle cx="212.51" cy="58.49" r="4" fill="#ff7f50" fill-opacity="0.8" /><circle cx="222.47" cy="75.93" r="4" fill="#ff7f50" fill-opacity="0.8" /><circle cx="142.26" cy="123.41" r="4" fill="#ff7f50" fill-opacity="0.8" /><circle cx="256.14" cy="96.49000000000001" r="4" fill="#ff7f50" fill-opacity="0.8" /><circle cx="208.70000000000002" cy="64.4" r="4" fill="#ff7f50" fill-opacity="0.8" /><circle cx="267.94" cy="35.86" r="4" fill="#ff7f50" fill-opacity="0.8" /><circle cx="206.87" cy="137.99" r="4" fill="#ff7f50" fill-opacity="0.8" /><circle cx="216.13" cy="148.49" r="4" fill="#ff7f50" fill-opacity="0.8" /><circle cx="178.01" cy="175.44" r="4" fill="#ff7f50" fill-opacity="0.8" /><circle cx="160.08" cy="88.85000000000001" r="4" fill="#ff7f50" fill-opacity="0.8" /><circle cx="226.36" cy="133.5" r="4" fill="#ff7f50" fill-opacity="0.8" /><circle cx="160.11" cy="96.14" r="4" fill="#ff7f50" fill-opacity="0.8" /><circle cx="172.89000000000001" cy="122.27" r="4" fill="#ff7f50" fill-opacity="0.8" /><circle cx="196.41" cy="134.08" r="4" fill="#ff7f50" fill-opacity="0.8" /><circle cx="240.92000000000002" cy="102.23" r="4" fill="#ff7f50" fill-opacity="0.8" /><circle cx="151.94" cy="187.47" r="4" fill="#ff7f50" fill-opacity="0.8" /><circle cx="119.55" cy="120.84" r="4" fill="#ff7f50" fill-opacity="0.8" /><circle cx="90.55" cy="257.02" r="4" fill="#ff7f50" fill-opacity="0.8" /><circle cx="224.63" cy="115.69" r="4" fill="#ff7f50" fill-opacity="0.8" /><circle cx="205.39000000000001" cy="150.09" r="4" fill="#ff7f50" fill-opacity="0.8" /><circle cx="165.05" cy="183.19" r="4" fill="#ff7f50" fill-opacity="0.8" /><circle cx="129.94" cy="128" r="4" fill="#ff7f50" fill-opacity="0.8" /><circle cx="243.58" cy="58.02" r="4" fill="#ff7f50" fill-opacity="0.8" /><circle cx="178.14000000000001" cy="163.44" r="4" fill="#ff7f50" fill-opacity="0.8" /><circle cx="182.67000000000002" cy="122.65" r="4" fill="#ff7f50" fill-opacity="0.8" /><circle cx="90.64" cy="141.01" r="4" fill="#ff7f50" fill-opacity="0.8" /><circle cx="182.49" cy="86.98" r="4" fill="#ff7f50" fill-opacity="0.8" /><circle cx="120.60000000000001" cy="189.96" r="4" fill="#ff7f50" fill-opacity="0.8" /><circle cx="191.85" cy="163.09" r="4" fill="#ff7f50" fill-opacity="0.8" /><circle cx="192.4" cy="96.51" r="4" fill="#ff7f50" fill-opacity="0.8" /><circle cx="171.75" cy="104.29" r="4" fill="#ff7f50" fill-opacity="0.8" /><circle cx="130.08" cy="198.34" r="4" fill="#ff7f50" fill-opacity="0.8" /><circle cx="210.57" cy="130.14000000000001" r="4" fill="#ff7f50" fill-opacity="0.8" /><circle cx="166.31" cy="107.08" r="4" fill="#ff7f50" fill-opacity="0.8" /><circle cx="106.17" cy="222.09" r="4" fill="#ff7f50" fill-opacity="0.8" /><circle cx="156.58" cy="187.68" r="4" fill="#ff7f50" fill-opacity="0.8" /><circle cx="168.58" cy="126.91" r="4" fill="#ff7f50" fill-opacity="0.8" /><circle cx="223.29" cy="135.99" r="4" fill="#ff7f50" fill-opacity="0.8" /><circle cx="122.09" cy="177.76" r="4" fill="#ff7f50" fill-opacity="0.8" /><circle cx="87.39" cy="194.09" r="4" fill="#ff7f50" fill-opacity="0.8" /><circle cx="123.57000000000001" cy="215.1" r="4" fill="#ff7f50" fill-opacity="0.8" /><circle cx="107.39" cy="197.93" r="4" fill="#ff7f50" fill-opacity="0.8" /><circle cx="134.26" cy="170.36" r="4" fill="#ff7f50" fill-opacity="0.8" /><circle cx="200.88" cy="108.56" r="4" fill="#ff7f50" fill-opacity="0.8" /><circle cx="142.02" cy="171.26" r="4" fill="#ff7f50" fill-opacity="0.8" /><circle cx="200.71" cy="86.55" r="4" fill="#ff7f50" fill-opacity="0.8" /><circle cx="187.09" cy="123.18" r="4" fill="#ff7f50" fill-opacity="0.8" /><circle cx="224.65" cy="67.53" r="4" fill="#ff7f50" fill-opacity="0.8" /><circle cx="180.13" cy="168.03" r="4" fill="#ff7f50" fill-opacity="0.8" /><circle cx="166.41" cy="159.6" r="4" fill="#ff7f50" fill-opacity="0.8" /><circle cx="172.36" cy="147.3" r="4" fill="#ff7f50" fill-opacity="0.8" /><circle cx="207.95000000000002" cy="136.72" r="4" fill="#ff7f50" fill-opacity="0.8" /><circle cx="221.51" cy="142.27" r="4" fill="#ff7f50" fill-opacity="0.8" /><circle cx="181.02" cy="179.05" r="4" fill="#ff7f50" fill-opacity="0.8" /><circle cx="103.76" cy="129.23" r="4" fill="#ff7f50" fill-opacity="0.8" /><circle cx="193.41" cy="99.62" r="4" fill="#ff7f50" fill-opacity="0.8" /><circle cx="176.41" cy="163.85" r="4" fill="#ff7f50" fill-opacity="0.8" /><circle cx="179.28" cy="166.22" r="4" fill="#ff7f50" fill-opacity="0.8" /><circle cx="207.83" cy="61.47" r="4" fill="#ff7f50" fill-opacity="0.8" /><circle cx="174.12" cy="121" r="4" fill="#ff7f50" fill-opacity="0.8" /><circle cx="223.27" cy="136.46" r="4" fill="#ff7f50" fill-opacity="0.8" /><circle cx="227.15" cy="83.78" r="4" fill="#ff7f50" fill-opacity="0.8" /><circle cx="139.71" cy="137.81" r="4" fill="#ff7f50" fill-opacity="0.8" /><circle cx="219.26" cy="137" r="4" fill="#ff7f50" fill-opacity="0.8" /><circle cx="163.53" cy="157.1" r="4" fill="#ff7f50" fill-opacity="0.8" /><circle cx="96.18" cy="183.56" r="4" fill="#ff7f50" fill-opacity="0.8" /><circle cx="205.83" cy="121.22" r="4" fill="#ff7f50" fill-opacity="0.8" /><circle cx="213.89000000000001" cy="85.86" r="4" fill="#ff7f50" fill-opacity="0.8" /><circle cx="228.96" cy="57.11" r="4" fill="#ff7f50" fill-opacity="0.8" /><circle cx="143.68" cy="145.67000000000002" r="4" fill="#ff7f50" fill-opacity="0.8" /><circle cx="186.56" cy="157.76" r="4" fill="#ff7f50" fill-opacity="0.8" /><circle cx="162.79" cy="189.24" r="4" fill="#ff7f50" fill-opacity="0.8" /><circle cx="160.37" cy="198.62" r="4" fill="#ff7f50" fill-opacity="0.8" /><circle cx="172.84" cy="155.64000000000001" r="4" fill="#ff7f50" fill-opacity="0.8" /><circle cx="215.92000000000002" cy="72.65" r="4" fill="#ff7f50" fill-opacity="0.8" /><circle cx="106.82000000000001" cy="198.18" r="4" fill="#ff7f50" fill-opacity="0.8" /><circle cx="160.15" cy="67.19" r="4" fill="#ff7f50" fill-opacity="0.8" /><circle cx="216.64000000000001" cy="78.47" r="4" fill="#ff7f50" fill-opacity="0.8" /><circle cx="207.95000000000002" cy="83.28" r="4" fill="#ff7f50" fill-opacity="0.8" /><circle cx="218.48000000000002" cy="118.29" r="4" fill="#ff7f50" fill-opacity="0.8" /><circle cx="136.11" cy="118.38" r="4" fill="#ff7f50" fill-opacity="0.8" /><circle cx="207.72" cy="114.08" r="4" fill="#ff7f50" fill-opacity="0.8" /><circle cx="254.43" cy="57.870000000000005" r="4" fill="#ff7f50" fill-opacity="0.8" /><circle cx="150.81" cy="147.36" r="4" fill="#ff7f50" fill-opacity="0.8" /><circle cx="183.61" cy="88.25" r="4" fill="#ff7f50" fill-opacity="0.8" /><circle cx="150.03" cy="163.93" r="4" fill="#ff7f50" fill-opacity="0.8" /><circle cx="138.48" cy="173.41" r="4" fill="#ff7f50" fill-opacity="0.8" /><circle cx="118.36" cy="221.51" r="4" fill="#ff7f50" fill-opacity="0.8" /><circle cx="152.02" cy="86.69" r="4" fill="#ff7f50" fill-opacity="0.8" /><circle cx="133.58" cy="165.07" r="4" fill="#ff7f50" fill-opacity="0.8" /><circle cx="102.24000000000001" cy="200.82" r="4" fill="#ff7f50" fill-opacity="0.8" /><circle cx="257.58" cy="56.75" r="4" fill="#ff7f50" fill-opacity="0.8" /><circle cx="221.22" cy="40.51" r="4" fill="#ff7f50" fill-opacity="0.8" /><circle cx="202.79" cy="81.49" r="4" fill="#ff7f50" fill-opacity="0.8" /><circle cx="223.71" cy="89.53" r="4" fill="#ff7f50" fill-opacity="0.8" /><circle cx="244.96" cy="127.5" r="4" fill="#ff7f50" fill-opacity="0.8" /><circle cx="212.15" cy="86.25" r="4" fill="#ff7f50" fill-opacity="0.8" /><circle cx="175.20000000000002" cy="100.93" r="4" fill="#ff7f50" fill-opacity="0.8" /><circle cx="120.3" cy="222.81" r="4" fill="#ff7f50" fill-opacity="0.8" /><circle cx="222.15" cy="101.08" r="4" fill="#ff7f50" fill-opacity="0.8" /><circle cx="218.74" cy="103.5" r="4" fill="#ff7f50" fill-opacity="0.8" /><circle cx="121.44" cy="159.71" r="4" fill="#ff7f50" fill-opacity="0.8" /></g></g><path d="M 59.8 119.0 L 59.8 118.3 L 61.2 118.2 L 62.5 118.0 L 63.8 117.8 L 65.1 117.5 L 66.5 117.2 L 67.8 116.8 L 69.1 116.4 L 70.4 116.0 L 71.8 115.5 L 73.1 114.9 L 74.4 114.3 L 75.7 113.6 L 77.0 112.8 L 78.4 112.0 L 79.7 111.1 L 81.0 110.2 L 82.3 109.2 L 83.7 108.2 L 85.0 107.1 L 86.3 105.9 L 87.6 104.8 L 89.0 103.5 L 90.3 102.3 L 91.6 101.1 L 92.9 99.8 L 94.2 98.5 L 95.6 97.2 L 96.9 95.9 L 98.2 94.6 L 99.5 93.4 L 100.9 92.1 L 102.2 90.9 L 103.5 89.6 L 104.8 88.4 L 106.2 87.2 L 107.5 86.0 L 108.8 84.9 L 110.1 83.7 L 111.5 82.6 L 112.8 81.5 L 114.1 80.3 L 115.4 79.2 L 116.7 78.1 L 118.1 77.1 L 119.4 76.0 L 120.7 74.9 L 122.0 73.9 L 123.4 72.9 L 124.7 71.9 L 126.0 70.9 L 127.3 70.0 L 128.7 69.1 L 130.0 68.3 L 131.3 67.5 L 132.6 66.8 L 133.9 66.2 L 135.3 65.6 L 136.6 65.2 L 137.9 64.8 L 139.2 64.4 L 140.6 64.2 L 141.9 64.0 L 143.2 63.9 L 144.5 63.8 L 145.9 63.8 L 147.2 63.9 L 148.5 63.9 L 149.8 64.0 L 151.1 64.1 L 152.5 64.2 L 153.8 64.2 L 155.1 64.3 L 156.4 64.3 L 157.8 64.3 L 159.1 64.2 L 160.4 64.1 L 161.7 64.0 L 163.1 63.8 L 164.4 63.6 L 165.7 63.4 L 167.0 63.1 L 168.3 62.8 L 169.7 62.6 L 171.0 62.3 L 172.3 62.0 L 173.6 61.7 L 175.0 61.5 L 176.3 61.3 L 177.6 61.0 L 178.9 60.8 L 180.3 60.6 L 181.6 60.4 L 182.9 60.1 L 184.2 59.9 L 185.6 59.5 L 186.9 59.2 L 188.2 58.7 L 189.5 58.2 L 190.8 57.6 L 192.2 57.0 L 193.5 56.2 L 194.8 55.4 L 196.1 54.5 L 197.5 53.6 L 198.8 52.6 L 200.1 51.6 L 201.4 50.7 L 202.8 49.8 L 204.1 48.9 L 205.4 48.2 L 206.7 47.6 L 208.0 47.2 L 209.4 47.0 L 210.7 47.0 L 212.0 47.2 L 213.3 47.7 L 214.7 48.3 L 216.0 49.3 L 217.3 50.4 L 218.6 51.8 L 220.0 53.4 L 221.3 55.2 L 222.6 57.1 L 223.9 59.2 L 225.2 61.3 L 226.6 63.6 L 227.9 65.9 L 229.2 68.3 L 230.5 70.6 L 231.9 72.9 L 233.2 75.2 L 234.5 77.4 L 235.8 79.6 L 237.2 81.7 L 238.5 83.6 L 239.8 85.5 L 241.1 87.3 L 242.5 89.0 L 243.8 90.6 L 245.1 92.1 L 246.4 93.6 L 247.7 94.9 L 249.1 96.2 L 250.4 97.5 L 251.7 98.7 L 253.0 99.8 L 254.4 100.9 L 255.7 102.0 L 257.0 103.1 L 258.3 104.1 L 259.7 105.1 L 261.0 106.1 L 262.3 107.1 L 263.6 108.0 L 264.9 108.9 L 266.3 109.8 L 267.6 110.6 L 268.9 111.4 L 270.2 112.2 L 271.6 112.9 L 272.9 113.6 L 274.2 114.2 L 275.5 114.8 L 276.9 115.3 L 278.2 115.8 L 279.5 116.2 L 280.8 116.6 L 282.1 117.0 L 283.5 117.3 L 284.8 117.6 L 286.1 117.8 L 287.4 118.0 L 287.4 119.0 Z" stroke="#ff7f50" stroke-width="1.5" fill="#ff7f50" fill-opacity="0.6" /><line x1="59" y1="119" x2="288" y2="119" stroke="#cccccc" stroke-width="1" /><path d="M 292.0 408.6 L 292.1 408.6 L 292.1 407.1 L 292.1 405.6 L 292.2 404.0 L 292.2 402.5 L 292.3 401.0 L 292.3 399.4 L 292.4 397.9 L 292.4 396.4 L 292.5 394.9 L 292.6 393.3 L 292.7 391.8 L 292.8 390.3 L 292.8 388.7 L 292.9 387.2 L 293.0 385.7 L 293.1 384.1 L 293.2 382.6 L 293.3 381.1 L 293.4 379.5 L 293.5 378.0 L 293.5 376.5 L 293.6 374.9 L 293.7 373.4 L 293.9 371.9 L 294.0 370.3 L 294.2 368.8 L 294.4 367.3 L 294.6 365.8 L 294.9 364.2 L 295.3 362.7 L 295.7 361.2 L 296.2 359.6 L 296.8 358.1 L 297.4 356.6 L 298.2 355.0 L 299.0 353.5 L 299.8 352.0 L 300.8 350.4 L 301.8 348.9 L 302.8 347.4 L 303.9 345.8 L 305.1 344.3 L 306.2 342.8 L 307.4 341.2 L 308.6 339.7 L 309.8 338.2 L 311.0 336.7 L 312.2 335.1 L 313.3 333.6 L 314.5 332.1 L 315.6 330.5 L 316.8 329.0 L 317.9 327.5 L 319.0 325.9 L 320.0 324.4 L 321.1 322.9 L 322.1 321.3 L 323.1 319.8 L 324.1 318.3 L 325.1 316.7 L 326.0 315.2 L 327.0 313.7 L 328.0 312.1 L 328.9 310.6 L 329.9 309.1 L 330.9 307.6 L 331.9 306.0 L 333.0 304.5 L 334.0 303.0 L 335.1 301.4 L 336.2 299.9 L 337.4 298.4 L 338.5 296.8 L 339.7 295.3 L 340.9 293.8 L 342.0 292.2 L 343.2 290.7 L 344.3 289.2 L 345.4 287.6 L 346.5 286.1 L 347.5 284.6 L 348.4 283.0 L 349.3 281.5 L 350.1 280.0 L 350.9 278.5 L 351.6 276.9 L 352.2 275.4 L 352.9 273.9 L 353.4 272.3 L 354.0 270.8 L 354.6 269.3 L 355.1 267.7 L 355.6 266.2 L 356.2 264.7 L 356.7 263.1 L 357.3 261.6 L 357.9 260.1 L 358.5 258.5 L 359.1 257.0 L 359.8 255.5 L 360.4 254.0 L 361.0 252.4 L 361.6 250.9 L 362.2 249.4 L 362.7 247.8 L 363.2 246.3 L 363.5 244.8 L 363.8 243.2 L 364.0 241.7 L 364.0 240.2 L 363.9 238.6 L 363.6 237.1 L 363.2 235.6 L 362.6 234.0 L 361.9 232.5 L 361.1 231.0 L 360.1 229.4 L 358.9 227.9 L 357.7 226.4 L 356.4 224.9 L 355.1 223.3 L 353.7 221.8 L 352.3 220.3 L 350.9 218.7 L 349.5 217.2 L 348.2 215.7 L 346.8 214.1 L 345.5 212.6 L 344.2 211.1 L 342.9 209.5 L 341.7 208.0 L 340.5 206.5 L 339.3 204.9 L 338.1 203.4 L 336.9 201.9 L 335.7 200.3 L 334.5 198.8 L 333.3 197.3 L 332.2 195.8 L 331.0 194.2 L 329.8 192.7 L 328.7 191.2 L 327.6 189.6 L 326.4 188.1 L 325.3 186.6 L 324.1 185.0 L 323.0 183.5 L 321.8 182.0 L 320.7 180.4 L 319.5 178.9 L 318.2 177.4 L 317.0 175.8 L 315.7 174.3 L 314.4 172.8 L 313.0 171.2 L 311.7 169.7 L 310.3 168.2 L 309.0 166.7 L 307.7 165.1 L 306.4 163.6 L 305.1 162.1 L 303.9 160.5 L 302.7 159.0 L 301.6 157.5 L 300.6 155.9 L 299.6 154.4 L 298.7 152.9 L 297.9 151.3 L 297.1 149.8 L 296.5 148.3 L 295.8 146.7 L 295.3 145.2 L 294.8 143.7 L 294.4 142.2 L 294.0 140.6 L 293.7 139.1 L 293.4 137.6 L 293.1 136.0 L 292.9 134.5 L 292.7 133.0 L 292.6 131.4 L 292.5 129.9 L 292.0 129.9 Z" stroke="#ff7f50" stroke-width="1.5" fill="#ff7f50" fill-opacity="0.6" /><line x1="292" y1="129" x2="292" y2="409" stroke="#cccccc" stroke-width="1" /><rect x="377" y="129" width="120" height="38" fill="#ffffff" /><rect x="377" y="129" width="120" height="38" fill="none" stroke="#000000" stroke-width="1" /><circle cx="387" cy="146" r="5" fill="#ff7f50" /><text x="400" y="148.6" font-size="12" text-anchor="start">samples</text></svg>