<svg xmlns="http://www.w3.org/2000/svg" width="560" height="480" font-family="DejaVu Sans, Liberation Sans, Arial, sans-serif" fill="black"><rect width="100%" height="100%" fill="white" /><defs><clipPath id="kuva-clip-2"><rect x="59" y="10" width="269" height="300"/></clipPath></defs><text x="280" y="27.400000000000002" font-size="18" text-anchor="middle">Joint Plot — two groups</text><g transform="translate(0,119.0)"><line x1="92.63" y1="10" x2="92.63" y2="310" stroke="#cccccc" stroke-width="1" /><line x1="148.67000000000002" y1="10" x2="148.67000000000002" y2="310" stroke="#cccccc" stroke-width="1" /><line x1="204.71" y1="10" x2="204.71" y2="310" stroke="#cccccc" stroke-width="1" /><line x1="260.75" y1="10" x2="260.75" y2="310" stroke="#cccccc" stroke-width="1" /><line x1="316.79" y1="10" x2="316.79" y2="310" stroke="#cccccc" stroke-width="1" /><line x1="59" y1="250" x2="328" y2="250" stroke="#cccccc" stroke-width="1" /><line x1="59" y1="190" x2="328" y2="190" stroke="#cccccc" stroke-width="1" /><line x1="59" y1="130" x2="328" y2="130" stroke="#cccccc" stroke-width="1" /><line x1="59" y1="70" x2="328" y2="70" stroke="#cccccc" stroke-width="1" /><line x1="59" y1="10" x2="328" y2="10" stroke="#cccccc" stroke-width="1" /><line x1="59" y1="310" x2="328" y2="310" stroke="#000000" stroke-width="1" /><line x1="59" y1="10" x2="59" y2="310" stroke="#000000" stroke-width="1" /><line x1="92.63" y1="310" x2="92.63" y2="315" stroke="#000000" stroke-width="1" /><text x="92.63" y="327" font-size="12" text-anchor="middle">-2.5</text><line x1="148.67000000000002" y1="310" x2="148.67000000000002" y2="315" stroke="#000000" stroke-width="1" /><text x="148.67000000000002" y="327" font-size="12" text-anchor="middle">0</text><line x1="204.71" y1="310" x2="204.71" y2="315" stroke="#000000" stroke-width="1" /><text x="204.71" y="327" font-size="12" text-anchor="middle">2.5</text><line x1="260.75" y1="310" x2="260.75" y2="315" stroke="#000000" stroke-width="1" /><text x="260.75" y="327" font-size="12" text-anchor="middle">5</text><line x1="316.79" y1="310" x2="316.79" y2="315" stroke="#000000" stroke-width="1" /><text x="316.79" y="327" font-size="12" text-anchor="middle">7.5</text><line x1="54" y1="310" x2="59" y2="310" stroke="#000000" stroke-width="1" /><text x="51" y="314.2" font-size="12" text-anchor="end">-4</text><line x1="54" y1="250" x2="59" y2="250" stroke="#000000" stroke-width="1" /><text x="51" y="254.20000000000002" font-size="12" text-anchor="end">-2</text><line x1="54" y1="190" x2="59" y2="190" stroke="#000000" stroke-width="1" /><text x="51" y="194.20000000000002" font-size="12" text-anchor="end">0</text><line x1="54" y1="130" x2="59" y2="130" stroke="#000000" stroke-width="1" /><text x="51" y="134.2" font-size="12" text-anchor="end">2</text><line x1="54" y1="70" x2="59" y2="70" stroke="#000000" stroke-width="1" /><text x="51" y="74.2" font-size="12" text-anchor="end">4</text><line x1="54" y1="10" x2="59" y2="10" stroke="#000000" stroke-width="1" /><text x="51" y="14.200000000000001" font-size="12" text-anchor="end">6</text><g clip-path="url(#kuva-clip-2)"><circle cx="172.87" cy="192.17000000000002" r="4" fill="#4682b4" fill-opacity="0.8" /><circle cx="200.62" cy="153.49" r="4" fill="#4682b4" fill-opacity="0.8" /><circle cx="184.38" cy="175.18" r="4" fill="#4682b4" fill-opacity="0.8" /><circle cx="144.47" cy="220.64000000000001" r="4" fill="#4682b4" fill-opacity="0.8" /><circle cx="133.53" cy="194.91" r="4" fill="#4682b4" fill-opacity="0.8" /><circle cx="172.57" cy="191.13" r="4" fill="#4682b4" fill-opacity="0.8" /><circle cx="137.16" cy="188.17000000000002" r="4" fill="#4682b4" fill-opacity="0.8" /><circle cx="187.53" cy="136.53" r="4" fill="#4682b4" fill-opacity="0.8" /><circle cx="195.17000000000002" cy="129.17000000000002" r="4" fill="#4682b4" fill-opacity="0.8" /><circle cx="133.16" cy="182.97" r="4" fill="#4682b4" fill-opacity="0.8" /><circle cx="121.55" cy="192.52" r="4" fill="#4682b4" fill-opacity="0.8" /><circle cx="164.53" cy="155.18" r="4" fill="#4682b4" fill-opacity="0.8" /><circle cx="198.13" cy="143.4" r="4" fill="#4682b4" fill-opacity="0.8" /><circle cx="216.98000000000002" cy="133.48" r="4" fill="#4682b4" fill-opacity="0.8" /><circle cx="150.63" cy="178.29" r="4" fill="#4682b4" fill-opacity="0.8" /><circle cx="192.42000000000002" cy="122.81" r="4" fill="#4682b4" fill-opacity="0.8" /><circle cx="189.49" cy="180.59" r="4" fill="#4682b4" fill-opacity="0.8" /><circle cx="183.06" cy="171" r="4" fill="#4682b4" fill-opacity="0.8" /><circle cx="130.38" cy="227.15" r="4" fill="#4682b4" fill-opacity="0.8" /><circle cx="157.47" cy="204.12" r="4" fill="#4682b4" fill-opacity="0.8" /><circle cx="193.29" cy="156.93" r="4" fill="#4682b4" fill-opacity="0.8" /><circle cx="147.06" cy="169.53" r="4" fill="#4682b4" fill-opacity="0.8" /><circle cx="168.46" cy="157" r="4" fill="#4682b4" fill-opacity="0.8" /><circle cx="112.86" cy="233.3" r="4" fill="#4682b4" fill-opacity="0.8" /><circle cx="189.12" cy="158.07" r="4" fill="#4682b4" fill-opacity="0.8" /><circle cx="134.31" cy="220.48000000000002" r="4" fill="#4682b4" fill-opacity="0.8" /><circle cx="187.65" cy="125.2" r="4" fill="#4682b4" fill-opacity="0.8" /><circle cx="161.97" cy="194.17000000000002" r="4" fill="#4682b4" fill-opacity="0.8" /><circle cx="164.77" cy="202.93" r="4" fill="#4682b4" fill-opacity="0.8" /><circle cx="179.71" cy="167.61" r="4" fill="#4682b4" fill-opacity="0.8" /><circle cx="178.04" cy="169.58" r="4" fill="#4682b4" fill-opacity="0.8" /><circle cx="152.20000000000002" cy="195.46" r="4" fill="#4682b4" fill-opacity="0.8" /><circle cx="143.86" cy="212.95000000000002" r="4" fill="#4682b4" fill-opacity="0.8" /><circle cx="204.32" cy="160.17000000000002" r="4" fill="#4682b4" fill-opacity="0.8" /><circle cx="204.27" cy="104.16" r="4" fill="#4682b4" fill-opacity="0.8" /><circle cx="173.77" cy="176.47" r="4" fill="#4682b4" fill-opacity="0.8" /><circle cx="179.07" cy="170.26" r="4" fill="#4682b4" fill-opacity="0.8" /><circle cx="156.77" cy="159.41" r="4" fill="#4682b4" fill-opacity="0.8" /><circle cx="95" cy="270.07" r="4" fill="#4682b4" fill-opacity="0.8" /><circle cx="202.1" cy="146.43" r="4" fill="#4682b4" fill-opacity="0.8" /><circle cx="129.28" cy="207.39000000000001" r="4" fill="#4682b4" fill-opacity="0.8" /><circle cx="133.06" cy="196.32" r="4" fill="#4682b4" fill-opacity="0.8" /><circle cx="193.8" cy="140.21" r="4" fill="#4682b4" fill-opacity="0.8" /><circle cx="149.14000000000001" cy="189.23" r="4" fill="#4682b4" fill-opacity="0.8" /><circle cx="149.42000000000002" cy="220.72" r="4" fill="#4682b4" fill-opacity="0.8" /><circle cx="205.18" cy="102.48" r="4" fill="#4682b4" fill-opacity="0.8" /><circle cx="199.12" cy="148.08" r="4" fill="#4682b4" fill-opacity="0.8" /><circle cx="199.04" cy="157.67000000000002" r="4" fill="#4682b4" fill-opacity="0.8" /><circle cx="186.23" cy="166.95000000000002" r="4" fill="#4682b4" fill-opacity="0.8" /><circle cx="175.1" cy="183.54" r="4" fill="#4682b4" fill-opacity="0.8" /><circle cx="201.48000000000002" cy="122.38" r="4" fill="#4682b4" fill-opacity="0.8" /><circle cx="203.63" cy="114.34" r="4" fill="#4682b4" fill-opacity="0.8" /><circle cx="143.86" cy="178.62" r="4" fill="#4682b4" fill-opacity="0.8" /><circle cx="214.5" cy="99.84" r="4" fill="#4682b4" fill-opacity="0.8" /><circle cx="196.38" cy="129.37" r="4" fill="#4682b4" fill-opacity="0.8" /><circle cx="204.18" cy="134.88" r="4" fill="#4682b4" fill-opacity="0.8" /><circle cx="167.35" cy="186.31" r="4" fill="#4682b4" fill-opacity="0.8" /><circle cx="217.13" cy="99.55" r="4" fill="#4682b4" fill-opacity="0.8" /><circle cx="143.24" cy="194.17000000000002" r="4" fill="#4682b4" fill-opacity="0.8" /><circle cx="150.38" cy="203.12" r="4" fill="#4682b4" fill-opacity="0.8" /><circle cx="154.44" cy="182.09" r="4" fill="#4682b4" fill-opacity="0.8" /><circle cx="189.18" cy="130.15" r="4" fill="#4682b4" fill-opacity="0.8" /><circle cx="204.06" cy="111.33" r="4" fill="#4682b4" fill-opacity="0.8" /><circle cx="145.09" cy="218.9" r="4" fill="#4682b4" fill-opacity="0.8" /><circle cx="110.49000000000001" cy="199.67000000000002" r="4" fill="#4682b4" fill-opacity="0.8" /><circle cx="180.67000000000002" cy="151.41" r="4" fill="#4682b4" fill-opacity="0.8" /><circle cx="162.31" cy="158.5" r="4" fill="#4682b4" fill-opacity="0.8" /><circle cx="162.81" cy="209.79" r="4" fill="#4682b4" fill-opacity="0.8" /><circle cx="170.75" cy="145.71" r="4" fill="#4682b4" fill-opacity="0.8" /><circle cx="125.65" cy="225.63" r="4" fill="#4682b4" fill-opacity="0.8" /><circle cx="212.70000000000002" cy="123.07000000000001" r="4" fill="#4682b4" fill-opacity="0.8" /><circle cx="167.96" cy="191.63" r="4" fill="#4682b4" fill-opacity="0.8" /><circle cx="144.51" cy="203.62" r="4" fill="#4682b4" fill-opacity="0.8" /><circle cx="142.98" cy="178.99" r="4" fill="#4682b4" fill-opacity="0.8" /><circle cx="168.34" cy="144.66" r="4" fill="#4682b4" fill-opacity="0.8" /><circle cx="215.1" cy="88.2" r="4" fill="#4682b4" fill-opacity="0.8" /><circle cx="117.16" cy="241.12" r="4" fill="#4682b4" fill-opacity="0.8" /><circle cx="146.21" cy="175.24" r="4" fill="#4682b4" fill-opacity="0.8" /><circle cx="189.58" cy="159.38" r="4" fill="#4682b4" fill-opacity="0.8" /><circle cx="150.9" cy="156.88" r="4" fill="#4682b4" fill-opacity="0.8" /><circle cx="205.3" cy="120.86" r="4" fill="#4682b4" fill-opacity="0.8" /><circle cx="159.1" cy="190.39000000000001" r="4" fill="#4682b4" fill-opacity="0.8" /><circle cx="223.94" cy="90.22" r="4" fill="#4682b4" fill-opacity="0.8" /><circle cx="212.03" cy="99.52" r="4" fill="#4682b4" fill-opacity="0.8" /><circle cx="141.42000000000002" cy="212.88" r="4" fill="#4682b4" fill-opacity="0.8" /><circle cx="184.26" cy="142.65" r="4" fill="#4682b4" fill-opacity="0.8" /><circle cx="153.79" cy="209.4" r="4" fill="#4682b4" fill-opacity="0.8" /><circle cx="126.37" cy="194.79" r="4" fill="#4682b4" fill-opacity="0.8" /><circle cx="133.26" cy="243.56" r="4" fill="#4682b4" fill-opacity="0.8" /><circle cx="183.28" cy="179.79" r="4" fill="#4682b4" fill-opacity="0.8" /><circle cx="142.01" cy="229.02" r="4" fill="#4682b4" fill-opacity="0.8" /><circle cx="176.26" cy="133.5" r="4" fill="#4682b4" fill-opacity="0.8" /><circle cx="178.34" cy="134.19" r="4" fill="#4682b4" fill-opacity="0.8" /><circle cx="201.01" cy="88.10000000000001" r="4" fill="#4682b4" fill-opacity="0.8" /><circle cx="134.21" cy="233.51" r="4" fill="#4682b4" fill-opacity="0.8" /><circle cx="133.32" cy="203.94" r="4" fill="#4682b4" fill-opacity="0.8" /><circle cx="149.6" cy="173.99" r="4" fill="#4682b4" fill-opacity="0.8" /><circle cx="161.12" cy="160.38" r="4" fill="#4682b4" fill-opacity="0.8" /><circle cx="155.02" cy="152.63" r="4" fill="#4682b4" fill-opacity="0.8" /><circle cx="174.12" cy="198.31" r="4" fill="#4682b4" fill-opacity="0.8" /><circle cx="131.6" cy="212.32" r="4" fill="#4682b4" fill-opacity="0.8" /><circle cx="195.59" cy="130.41" r="4" fill="#4682b4" fill-opacity="0.8" /><circle cx="203.91" cy="114.95" r="4" fill="#4682b4" fill-opacity="0.8" /><circle cx="137.41" cy="187.07" r="4" fill="#4682b4" fill-opacity="0.8" /><circle cx="195.76" cy="163" r="4" fill="#4682b4" fill-opacity="0.8" /><circle cx="190.54" cy="159.55" r="4" fill="#4682b4" fill-opacity="0.8" /><circle cx="198.01" cy="159.69" r="4" fill="#4682b4" fill-opacity="0.8" /><circle cx="151.52" cy="165.33" r="4" fill="#4682b4" fill-opacity="0.8" /><circle cx="127.37" cy="215.97" r="4" fill="#4682b4" fill-opacity="0.8" /><circle cx="147.26" cy="159.32" r="4" fill="#4682b4" fill-opacity="0.8" /><circle cx="180.37" cy="144.62" r="4" fill="#4682b4" fill-opacity="0.8" /><circle cx="178.27" cy="111.17" r="4" fill="#4682b4" fill-opacity="0.8" /><circle cx="141.36" cy="201.62" r="4" fill="#4682b4" fill-opacity="0.8" /><circle cx="182.37" cy="130.39000000000001" r="4" fill="#4682b4" fill-opacity="0.8" /><circle cx="197.48000000000002" cy="127.28" r="4" fill="#4682b4" fill-opacity="0.8" /><circle cx="165.6" cy="178.71" r="4" fill="#4682b4" fill-opacity="0.8" /><circle cx="148.18" cy="214.13" r="4" fill="#4682b4" fill-opacity="0.8" /><circle cx="156.87" cy="152.82" r="4" fill="#4682b4" fill-opacity="0.8" /><circle cx="146.14000000000001" cy="191.4" r="4" fill="#4682b4" fill-opacity="0.8" /><circle cx="162.3" cy="154.67000000000002" r="4" fill="#4682b4" fill-opacity="0.8" /><circle cx="211.21" cy="108.22" r="4" fill="#ff6347" fill-opacity="0.8" /><circle cx="228.11" cy="144.62" r="4" fill="#ff6347" fill-opacity="0.8" /><circle cx="189.69" cy="124.21000000000001" r="4" fill="#ff6347" fill-opacity="0.8" /><circle cx="228.9" cy="79.93" r="4" fill="#ff6347" fill-opacity="0.8" /><circle cx="233.71" cy="74.61" r="4" fill="#ff6347" fill-opacity="0.8" /><circle cx="241.70000000000002" cy="131.37" r="4" fill="#ff6347" fill-opacity="0.8" /><circle cx="207.9" cy="163" r="4" fill="#ff6347" fill-opacity="0.8" /><circle cx="216.37" cy="103.06" r="4" fill="#ff6347" fill-opacity="0.8" /><circle cx="206.03" cy="148.71" r="4" fill="#ff6347" fill-opacity="0.8" /><circle cx="265.06" cy="74.51" r="4" fill="#ff6347" fill-opacity="0.8" /><circle cx="227.05" cy="120.07000000000001" r="4" fill="#ff6347" fill-opacity="0.8" /><circle cx="211.69" cy="148.17000000000002" r="4" fill="#ff6347" fill-opacity="0.8" /><circle cx="221.07" cy="136.54" r="4" fill="#ff6347" fill-opacity="0.8" /><circle cx="208.6" cy="154.1" r="4" fill="#ff6347" fill-opacity="0.8" /><circle cx="284.44" cy="73.11" r="4" fill="#ff6347" fill-opacity="0.8" /><circle cx="247.95000000000002" cy="87.07000000000001" r="4" fill="#ff6347" fill-opacity="0.8" /><circle cx="215.68" cy="95.81" r="4" fill="#ff6347" fill-opacity="0.8" /><circle cx="253.43" cy="126.06" r="4" fill="#ff6347" fill-opacity="0.8" /><circle cx="264" cy="101.39" r="4" fill="#ff6347" fill-opacity="0.8" /><circle cx="250.37" cy="64.43" r="4" fill="#ff6347" fill-opacity="0.8" /><circle cx="226.41" cy="136.25" r="4" fill="#ff6347" fill-opacity="0.8" /><circle cx="219.35" cy="151.25" r="4" fill="#ff6347" fill-opacity="0.8" /><circle cx="221.23000000000002" cy="90.24" r="4" fill="#ff6347" fill-opacity="0.8" /><circle cx="228.93" cy="69.95" r="4" fill="#ff6347" fill-opacity="0.8" /><circle cx="235.21" cy="114" r="4" fill="#ff6347" fill-opacity="0.8" /><circle cx="202.91" cy="166.81" r="4" fill="#ff6347" fill-opacity="0.8" /><circle cx="217.5" cy="87.51" r="4" fill="#ff6347" fill-opacity="0.8" /><circle cx="216.92000000000002" cy="151.14000000000001" r="4" fill="#ff6347" fill-opacity="0.8" /><circle cx="266.53000000000003" cy="83.04" r="4" fill="#ff6347" fill-opacity="0.8" /><circle cx="211.08" cy="116.23" r="4" fill="#ff6347" fill-opacity="0.8" /><circle cx="243.6" cy="159.39000000000001" r="4" fill="#ff6347" fill-opacity="0.8" /><circle cx="265.7" cy="50.93" r="4" fill="#ff6347" fill-opacity="0.8" /><circle cx="192.72" cy="170.09" r="4" fill="#ff6347" fill-opacity="0.8" /><circle cx="253.5" cy="112.71000000000001" r="4" fill="#ff6347" fill-opacity="0.8" /><circle cx="267.59000000000003" cy="114.64" r="4" fill="#ff6347" fill-opacity="0.8" /><circle cx="265.79" cy="94.76" r="4" fill="#ff6347" fill-opacity="0.8" /><circle cx="234.79" cy="96.47" r="4" fill="#ff6347" fill-opacity="0.8" /><circle cx="287.51" cy="46.29" r="4" fill="#ff6347" fill-opacity="0.8" /><circle cx="208.26" cy="144.98" r="4" fill="#ff6347" fill-opacity="0.8" /><circle cx="205.46" cy="110.82000000000001" r="4" fill="#ff6347" fill-opacity="0.8" /><circle cx="260.93" cy="76.68" r="4" fill="#ff6347" fill-opacity="0.8" /><circle cx="221.64000000000001" cy="115.88" r="4" fill="#ff6347" fill-opacity="0.8" /><circle cx="217.23000000000002" cy="89.75" r="4" fill="#ff6347" fill-opacity="0.8" /><circle cx="267.47" cy="96.82000000000001" r="4" fill="#ff6347" fill-opacity="0.8" /><circle cx="260.37" cy="42.68" r="4" fill="#ff6347" fill-opacity="0.8" /><circle cx="259.43" cy="64.33" r="4" fill="#ff6347" fill-opacity="0.8" /><circle cx="244.89000000000001" cy="123.69" r="4" fill="#ff6347" fill-opacity="0.8" /><circle cx="224.66" cy="110.02" r="4" fill="#ff6347" fill-opacity="0.8" /><circle cx="218.12" cy="116.15" r="4" fill="#ff6347" fill-opacity="0.8" /><circle cx="271.64" cy="97.61" r="4" fill="#ff6347" fill-opacity="0.8" /><circle cx="212.84" cy="149.38" r="4" fill="#ff6347" fill-opacity="0.8" /><circle cx="208.21" cy="145.77" r="4" fill="#ff6347" fill-opacity="0.8" /><circle cx="285.98" cy="68.1" r="4" fill="#ff6347" fill-opacity="0.8" /><circle cx="206.34" cy="115.67" r="4" fill="#ff6347" fill-opacity="0.8" /><circle cx="242.54" cy="96.82000000000001" r="4" fill="#ff6347" fill-opacity="0.8" /><circle cx="257.72" cy="102.15" r="4" fill="#ff6347" fill-opacity="0.8" /><circle cx="225.27" cy="133.39000000000001" r="4" fill="#ff6347" fill-opacity="0.8" /><circle cx="204.51" cy="164.02" r="4" fill="#ff6347" fill-opacity="0.8" /><circle cx="272.14" cy="59.660000000000004" r="4" fill="#ff6347" fill-opacity="0.8" /><circle cx="275.55" cy="48.94" r="4" fill="#ff6347" fill-opacity="0.8" /><circle cx="221.53" cy="162.85" r="4" fill="#ff6347" fill-opacity="0.8" /><circle cx="236.22" cy="75.53" r="4" fill="#ff6347" fill-opacity="0.8" /><circle cx="206.67000000000002" cy="130.66" r="4" fill="#ff6347" fill-opacity="0.8" /><circle cx="239.08" cy="71.54" r="4" fill="#ff6347" fill-opacity="0.8" /><circle cx="211.78" cy="136.81" r="4" fill="#ff6347" fill-opacity="0.8" /><circle cx="243.79" cy="115.77" r="4" fill="#ff6347" fill-opacity="0.8" /><circle cx="204.71" cy="115.8" r="4" fill="#ff6347" fill-opacity="0.8" /><circle cx="267.98" cy="94.86" r="4" fill="#ff6347" fill-opacity="0.8" /><circle cx="255.96" cy="69.75" r="4" fill="#ff6347" fill-opacity="0.8" /><circle cx="239.01" cy="99.59" r="4" fill="#ff6347" fill-opacity="0.8" /><circle cx="223.5" cy="141.83" r="4" fill="#ff6347" fill-opacity="0.8" /><circle cx="207.82" cy="167.75" r="4" fill="#ff6347" fill-opacity="0.8" /><circle cx="223.31" cy="87.01" r="4" fill="#ff6347" fill-opacity="0.8" /><circle cx="202.74" cy="143.88" r="4" fill="#ff6347" fill-opacity="0.8" /><circle cx="214.51" cy="109.23" r="4" fill="#ff6347" fill-opacity="0.8" /><circle cx="220.20000000000002" cy="102.42" r="4" fill="#ff6347" fill-opacity="0.8" /><circle cx="248.05" cy="122.49000000000001" r="4" fill="#ff6347" fill-opacity="0.8" /><circle cx="208.65" cy="97.48" r="4" fill="#ff6347" fill-opacity="0.8" /><circle cx="273.55" cy="103.33" r="4" fill="#ff6347" fill-opacity="0.8" /><circle cx="269.07" cy="102" r="4" fill="#ff6347" fill-opacity="0.8" /><circle cx="197.82" cy="97.69" r="4" fill="#ff6347" fill-opacity="0.8" /><circle cx="215.19" cy="141.89000000000001" r="4" fill="#ff6347" fill-opacity="0.8" /><circle cx="182.97" cy="116.35000000000001" r="4" fill="#ff6347" fill-opacity="0.8" /><circle cx="216.19" cy="107.52" r="4" fill="#ff6347" fill-opacity="0.8" /><circle cx="269.05" cy="52.730000000000004" r="4" fill="#ff6347" fill-opacity="0.8" /><circle cx="242.3" cy="84.8" r="4" fill="#ff6347" fill-opacity="0.8" /><circle cx="236.36" cy="133.13" r="4" fill="#ff6347" fill-opacity="0.8" /><circle cx="262.23" cy="36.78" r="4" fill="#ff6347" fill-opacity="0.8" /><circle cx="251.02" cy="84.37" r="4" fill="#ff6347" fill-opacity="0.8" /><circle cx="262.96" cy="88.49" r="4" fill="#ff6347" fill-opacity="0.8" /><circle cx="275.91" cy="49.29" r="4" fill="#ff6347" fill-opacity="0.8" /><circle cx="212.29" cy="88.53" r="4" fill="#ff6347" fill-opacity="0.8" /><circle cx="252.47" cy="114.94" r="4" fill="#ff6347" fill-opacity="0.8" /><circle cx="227.03" cy="98.25" r="4" fill="#ff6347" fill-opacity="0.8" /><circle cx="230.44" cy="84.56" r="4" fill="#ff6347" fill-opacity="0.8" /><circle cx="223.22" cy="138.14000000000001" r="4" fill="#ff6347" fill-opacity="0.8" /><circle cx="233.26" cy="115.29" r="4" fill="#ff6347" fill-opacity="0.8" /><circle cx="260.48" cy="76.79" r="4" fill="#ff6347" fill-opacity="0.8" /><circle cx="207.22" cy="144.88" r="4" fill="#ff6347" fill-opacity="0.8" /><circle cx="210.89000000000001" cy="152.21" r="4" fill="#ff6347" fill-opacity="0.8" /><circle cx="202.76" cy="96.2" r="4" fill="#ff6347" fill-opacity="0.8" /><circle cx="208.01" cy="107.64" r="4" fill="#ff6347" fill-opacity="0.8" /><circle cx="189.14000000000001" cy="172.16" r="4" fill="#ff6347" fill-opacity="0.8" /><circle cx="225.44" cy="137.12" r="4" fill="#ff6347" fill-opacity="0.8" /><circle cx="237.45000000000002" cy="81.52" r="4" fill="#ff6347" fill-opacity="0.8" /><circle cx="260.13" cy="80.99" r="4" fill="#ff6347" fill-opacity="0.8" /><circle cx="238.27" cy="123.28" r="4" fill="#ff6347" fill-opacity="0.8" /><circle cx="257.78000000000003" cy="54.32" r="4" fill="#ff6347" fill-opacity="0.8" /><circle cx="266.55" cy="116.25" r="4" fill="#ff6347" fill-opacity="0.8" /><circle cx="267.25" cy="68.16" r="4" fill="#ff6347" fill-opacity="0.8" /><circle cx="252.16" cy="76.15" r="4" fill="#ff6347" fill-opacity="0.8" /><circle cx="215.55" cy="102.83" r="4" fill="#ff6347" fill-opacity="0.8" /><circle cx="223.65" cy="86.47" r="4" fill="#ff6347" fill-opacity="0.8" /><circle cx="210.14000000000001" cy="128.56" r="4" fill="#ff6347" fill-opacity="0.8" /><circle cx="266.36" cy="70.68" r="4" fill="#ff6347" fill-opacity="0.8" /><circle cx="258.99" cy="110.76" r="4" fill="#ff6347" fill-opacity="0.8" /><circle cx="221.35" cy="143.44" r="4" fill="#ff6347" fill-opacity="0.8" /><circle cx="251.07" cy="71.10000000000001" r="4" fill="#ff6347" fill-opacity="0.8" /><circle cx="275.99" cy="97.18" r="4" fill="#ff6347" fill-opacity="0.8" /><circle cx="196.81" cy="130.56" r="4" fill="#ff6347" fill-opacity="0.8" /></g></g><path d="M 65.8 119.0 L 65.8 119.0 L 66.7 119.0 L 67.7 119.0 L 68.6 118.9 L 69.5 118.9 L 70.5 118.9 L 71.4 118.9 L 72.4 118.9 L 73.3 118.8 L 74.2 118.8 L 75.2 118.7 L 76.1 118.7 L 77.1 118.6 L 78.0 118.5 L 79.0 118.4 L 79.9 118.3 L 80.8 118.2 L 81.8 118.1 L 82.7 118.0 L 83.7 117.8 L 84.6 117.7 L 85.5 117.5 L 86.5 117.4 L 87.4 117.2 L 88.4 117.0 L 89.3 116.8 L 90.3 116.7 L 91.2 116.5 L 92.1 116.3 L 93.1 116.1 L 94.0 115.9 L 95.0 115.6 L 95.9 115.4 L 96.8 115.1 L 97.8 114.9 L 98.7 114.6 L 99.7 114.3 L 100.6 113.9 L 101.6 113.6 L 102.5 113.2 L 103.4 112.7 L 104.4 112.2 L 105.3 111.7 L 106.3 111.1 L 107.2 110.5 L 108.1 109.8 L 109.1 109.1 L 110.0 108.3 L 111.0 107.4 L 111.9 106.5 L 112.9 105.4 L 113.8 104.3 L 114.7 103.2 L 115.7 101.9 L 116.6 100.5 L 117.6 99.1 L 118.5 97.6 L 119.4 95.9 L 120.4 94.2 L 121.3 92.4 L 122.3 90.6 L 123.2 88.6 L 124.2 86.6 L 125.1 84.5 L 126.0 82.4 L 127.0 80.3 L 127.9 78.1 L 128.9 75.9 L 129.8 73.8 L 130.7 71.6 L 131.7 69.5 L 132.6 67.4 L 133.6 65.3 L 134.5 63.3 L 135.5 61.4 L 136.4 59.5 L 137.3 57.7 L 138.3 56.1 L 139.2 54.5 L 140.2 53.1 L 141.1 51.8 L 142.0 50.6 L 143.0 49.6 L 143.9 48.8 L 144.9 48.1 L 145.8 47.6 L 146.8 47.2 L 147.7 47.0 L 148.6 47.0 L 149.6 47.1 L 150.5 47.4 L 151.5 47.8 L 152.4 48.3 L 153.3 48.9 L 154.3 49.6 L 155.2 50.3 L 156.2 51.1 L 157.1 51.9 L 158.1 52.6 L 159.0 53.4 L 159.9 54.1 L 160.9 54.8 L 161.8 55.4 L 162.8 55.9 L 163.7 56.4 L 164.6 56.8 L 165.6 57.1 L 166.5 57.3 L 167.5 57.5 L 168.4 57.5 L 169.4 57.5 L 170.3 57.4 L 171.2 57.3 L 172.2 57.0 L 173.1 56.8 L 174.1 56.5 L 175.0 56.1 L 175.9 55.7 L 176.9 55.3 L 177.8 54.9 L 178.8 54.4 L 179.7 53.9 L 180.7 53.5 L 181.6 53.0 L 182.5 52.5 L 183.5 52.1 L 184.4 51.7 L 185.4 51.2 L 186.3 50.9 L 187.3 50.5 L 188.2 50.2 L 189.1 49.9 L 190.1 49.7 L 191.0 49.6 L 192.0 49.6 L 192.9 49.7 L 193.8 49.8 L 194.8 50.2 L 195.7 50.6 L 196.7 51.2 L 197.6 52.0 L 198.6 52.9 L 199.5 54.0 L 200.4 55.2 L 201.4 56.6 L 202.3 58.2 L 203.3 60.0 L 204.2 61.8 L 205.1 63.9 L 206.1 66.0 L 207.0 68.2 L 208.0 70.4 L 208.9 72.8 L 209.9 75.1 L 210.8 77.5 L 211.7 79.9 L 212.7 82.2 L 213.6 84.5 L 214.6 86.8 L 215.5 89.0 L 216.4 91.2 L 217.4 93.2 L 218.3 95.2 L 219.3 97.2 L 220.2 99.0 L 221.2 100.7 L 222.1 102.4 L 223.0 103.9 L 224.0 105.4 L 224.9 106.8 L 225.9 108.1 L 226.8 109.3 L 227.7 110.4 L 228.7 111.4 L 229.6 112.3 L 230.6 113.2 L 231.5 114.0 L 232.5 114.6 L 233.4 115.3 L 234.3 115.8 L 235.3 116.3 L 236.2 116.7 L 237.2 117.1 L 238.1 117.4 L 239.0 117.7 L 240.0 117.9 L 240.9 118.1 L 241.9 118.3 L 242.8 118.4 L 243.8 118.6 L 244.7 118.6 L 245.6 118.7 L 246.6 118.8 L 247.5 118.8 L 248.5 118.9 L 249.4 118.9 L 250.3 118.9 L 251.3 118.9 L 252.2 119.0 L 253.2 119.0 L 253.2 119.0 Z" stroke="#4682b4" stroke-width="1.5" fill="#4682b4" fill-opacity="0.6" /><path d="M 156.8 119.0 L 156.8 119.0 L 157.6 119.0 L 158.4 119.0 L 159.2 118.9 L 160.0 118.9 L 160.8 118.9 L 161.5 118.9 L 162.3 118.9 L 163.1 118.8 L 163.9 118.8 L 164.7 118.7 L 165.5 118.7 L 166.3 118.6 L 167.1 118.5 L 167.8 118.4 L 168.6 118.3 L 169.4 118.1 L 170.2 118.0 L 171.0 117.8 L 171.8 117.6 L 172.6 117.4 L 173.4 117.1 L 174.2 116.8 L 174.9 116.5 L 175.7 116.2 L 176.5 115.8 L 177.3 115.4 L 178.1 115.0 L 178.9 114.5 L 179.7 114.0 L 180.5 113.5 L 181.2 112.9 L 182.0 112.3 L 182.8 111.6 L 183.6 111.0 L 184.4 110.2 L 185.2 109.5 L 186.0 108.6 L 186.8 107.7 L 187.6 106.8 L 188.3 105.8 L 189.1 104.7 L 189.9 103.5 L 190.7 102.2 L 191.5 100.8 L 192.3 99.3 L 193.1 97.7 L 193.9 96.0 L 194.6 94.2 L 195.4 92.2 L 196.2 90.2 L 197.0 88.0 L 197.8 85.8 L 198.6 83.4 L 199.4 81.0 L 200.2 78.5 L 201.0 76.0 L 201.7 73.5 L 202.5 71.0 L 203.3 68.5 L 204.1 66.1 L 204.9 63.7 L 205.7 61.4 L 206.5 59.3 L 207.3 57.3 L 208.0 55.4 L 208.8 53.7 L 209.6 52.2 L 210.4 50.9 L 211.2 49.8 L 212.0 48.8 L 212.8 48.1 L 213.6 47.6 L 214.4 47.2 L 215.1 47.0 L 215.9 47.0 L 216.7 47.2 L 217.5 47.5 L 218.3 47.9 L 219.1 48.5 L 219.9 49.2 L 220.7 50.0 L 221.4 51.0 L 222.2 52.0 L 223.0 53.0 L 223.8 54.2 L 224.6 55.4 L 225.4 56.6 L 226.2 57.9 L 227.0 59.1 L 227.8 60.4 L 228.5 61.7 L 229.3 62.9 L 230.1 64.1 L 230.9 65.3 L 231.7 66.5 L 232.5 67.5 L 233.3 68.6 L 234.1 69.5 L 234.8 70.4 L 235.6 71.3 L 236.4 72.1 L 237.2 72.8 L 238.0 73.4 L 238.8 74.0 L 239.6 74.5 L 240.4 74.9 L 241.2 75.3 L 241.9 75.6 L 242.7 75.9 L 243.5 76.0 L 244.3 76.1 L 245.1 76.1 L 245.9 76.1 L 246.7 76.0 L 247.5 75.8 L 248.2 75.6 L 249.0 75.2 L 249.8 74.9 L 250.6 74.4 L 251.4 73.9 L 252.2 73.4 L 253.0 72.8 L 253.8 72.2 L 254.6 71.6 L 255.3 70.9 L 256.1 70.3 L 256.9 69.7 L 257.7 69.2 L 258.5 68.7 L 259.3 68.3 L 260.1 67.9 L 260.9 67.7 L 261.6 67.6 L 262.4 67.6 L 263.2 67.7 L 264.0 68.1 L 264.8 68.5 L 265.6 69.1 L 266.4 69.9 L 267.2 70.9 L 268.0 71.9 L 268.7 73.2 L 269.5 74.5 L 270.3 76.0 L 271.1 77.6 L 271.9 79.3 L 272.7 81.0 L 273.5 82.8 L 274.3 84.6 L 275.0 86.4 L 275.8 88.3 L 276.6 90.1 L 277.4 91.8 L 278.2 93.6 L 279.0 95.2 L 279.8 96.8 L 280.6 98.4 L 281.4 99.9 L 282.1 101.2 L 282.9 102.6 L 283.7 103.8 L 284.5 104.9 L 285.3 106.0 L 286.1 107.1 L 286.9 108.0 L 287.7 108.9 L 288.4 109.8 L 289.2 110.6 L 290.0 111.3 L 290.8 112.0 L 291.6 112.7 L 292.4 113.3 L 293.2 113.9 L 294.0 114.4 L 294.8 114.9 L 295.5 115.4 L 296.3 115.8 L 297.1 116.2 L 297.9 116.5 L 298.7 116.9 L 299.5 117.2 L 300.3 117.4 L 301.1 117.7 L 301.8 117.9 L 302.6 118.0 L 303.4 118.2 L 304.2 118.3 L 305.0 118.5 L 305.8 118.6 L 306.6 118.6 L 307.4 118.7 L 308.2 118.8 L 308.9 118.8 L 309.7 118.9 L 310.5 118.9 L 311.3 118.9 L 312.1 118.9 L 312.9 119.0 L 313.7 119.0 L 313.7 119.0 Z" stroke="#ff6347" stroke-width="1.5" fill="#ff6347" fill-opacity="0.6" /><line x1="59" y1="119" x2="328" y2="119" stroke="#cccccc" stroke-width="1" /><path d="M 332.0 428.5 L 332.0 428.5 L 332.0 427.2 L 332.0 425.9 L 332.1 424.6 L 332.1 423.2 L 332.1 421.9 L 332.1 420.6 L 332.1 419.3 L 332.2 418.0 L 332.2 416.7 L 332.3 415.4 L 332.3 414.1 L 332.4 412.8 L 332.5 411.4 L 332.6 410.1 L 332.7 408.8 L 332.8 407.5 L 332.9 406.2 L 333.0 404.9 L 333.1 403.6 L 333.2 402.3 L 333.4 401.0 L 333.5 399.7 L 333.6 398.3 L 333.8 397.0 L 333.9 395.7 L 334.0 394.4 L 334.2 393.1 L 334.3 391.8 L 334.4 390.5 L 334.5 389.2 L 334.7 387.9 L 334.8 386.5 L 335.0 385.2 L 335.1 383.9 L 335.3 382.6 L 335.5 381.3 L 335.8 380.0 L 336.1 378.7 L 336.4 377.4 L 336.8 376.1 L 337.3 374.8 L 337.8 373.4 L 338.4 372.1 L 339.0 370.8 L 339.7 369.5 L 340.5 368.2 L 341.4 366.9 L 342.3 365.6 L 343.3 364.3 L 344.4 363.0 L 345.5 361.6 L 346.7 360.3 L 347.9 359.0 L 349.2 357.7 L 350.6 356.4 L 351.9 355.1 L 353.4 353.8 L 354.9 352.5 L 356.4 351.2 L 357.9 349.9 L 359.5 348.5 L 361.1 347.2 L 362.7 345.9 L 364.4 344.6 L 366.1 343.3 L 367.7 342.0 L 369.4 340.7 L 371.2 339.4 L 372.9 338.1 L 374.6 336.7 L 376.3 335.4 L 378.1 334.1 L 379.8 332.8 L 381.5 331.5 L 383.2 330.2 L 384.9 328.9 L 386.5 327.6 L 388.2 326.3 L 389.7 325.0 L 391.2 323.6 L 392.7 322.3 L 394.1 321.0 L 395.3 319.7 L 396.5 318.4 L 397.6 317.1 L 398.6 315.8 L 399.5 314.5 L 400.3 313.2 L 400.9 311.8 L 401.4 310.5 L 401.9 309.2 L 402.2 307.9 L 402.5 306.6 L 402.6 305.3 L 402.7 304.0 L 402.8 302.7 L 402.8 301.4 L 402.9 300.1 L 402.9 298.7 L 402.9 297.4 L 402.9 296.1 L 403.0 294.8 L 403.1 293.5 L 403.2 292.2 L 403.3 290.9 L 403.5 289.6 L 403.6 288.3 L 403.8 286.9 L 403.9 285.6 L 404.0 284.3 L 404.0 283.0 L 404.0 281.7 L 403.8 280.4 L 403.6 279.1 L 403.2 277.8 L 402.8 276.5 L 402.2 275.2 L 401.5 273.8 L 400.7 272.5 L 399.7 271.2 L 398.7 269.9 L 397.7 268.6 L 396.5 267.3 L 395.3 266.0 L 394.1 264.7 L 392.9 263.4 L 391.7 262.0 L 390.5 260.7 L 389.3 259.4 L 388.2 258.1 L 387.0 256.8 L 385.9 255.5 L 384.8 254.2 L 383.7 252.9 L 382.5 251.6 L 381.4 250.3 L 380.3 248.9 L 379.1 247.6 L 378.0 246.3 L 376.8 245.0 L 375.5 243.7 L 374.3 242.4 L 373.0 241.1 L 371.7 239.8 L 370.5 238.5 L 369.2 237.1 L 368.0 235.8 L 366.7 234.5 L 365.5 233.2 L 364.4 231.9 L 363.2 230.6 L 362.1 229.3 L 361.1 228.0 L 360.0 226.7 L 359.1 225.4 L 358.1 224.0 L 357.2 222.7 L 356.2 221.4 L 355.3 220.1 L 354.4 218.8 L 353.5 217.5 L 352.6 216.2 L 351.6 214.9 L 350.7 213.6 L 349.7 212.2 L 348.8 210.9 L 347.8 209.6 L 346.8 208.3 L 345.8 207.0 L 344.8 205.7 L 343.8 204.4 L 342.9 203.1 L 341.9 201.8 L 341.0 200.5 L 340.1 199.1 L 339.2 197.8 L 338.4 196.5 L 337.7 195.2 L 337.0 193.9 L 336.3 192.6 L 335.7 191.3 L 335.2 190.0 L 334.7 188.7 L 334.3 187.3 L 333.9 186.0 L 333.6 184.7 L 333.3 183.4 L 333.1 182.1 L 332.9 180.8 L 332.7 179.5 L 332.5 178.2 L 332.4 176.9 L 332.3 175.6 L 332.3 174.2 L 332.2 172.9 L 332.1 171.6 L 332.1 170.3 L 332.1 169.0 L 332.1 167.7 L 332.0 167.7 Z" stroke="#4682b4" stroke-width="1.5" fill="#4682b4" fill-opacity="0.6" /><path d="M 332.0 324.3 L 332.0 324.3 L 332.1 323.3 L 332.1 322.3 L 332.1 321.3 L 332.1 320.3 L 332.2 319.3 L 332.2 318.3 L 332.3 317.2 L 332.4 316.2 L 332.5 315.2 L 332.6 314.2 L 332.8 313.2 L 333.0 312.2 L 333.2 311.2 L 333.4 310.2 L 333.7 309.1 L 334.0 308.1 L 334.4 307.1 L 334.9 306.1 L 335.4 305.1 L 335.9 304.1 L 336.5 303.1 L 337.2 302.0 L 337.9 301.0 L 338.6 300.0 L 339.5 299.0 L 340.4 298.0 L 341.3 297.0 L 342.2 296.0 L 343.3 294.9 L 344.3 293.9 L 345.4 292.9 L 346.5 291.9 L 347.6 290.9 L 348.7 289.9 L 349.8 288.9 L 351.0 287.8 L 352.1 286.8 L 353.3 285.8 L 354.5 284.8 L 355.6 283.8 L 356.8 282.8 L 358.0 281.8 L 359.1 280.8 L 360.3 279.7 L 361.5 278.7 L 362.7 277.7 L 363.9 276.7 L 365.1 275.7 L 366.4 274.7 L 367.5 273.7 L 368.7 272.6 L 369.9 271.6 L 371.0 270.6 L 372.1 269.6 L 373.2 268.6 L 374.2 267.6 L 375.1 266.6 L 376.0 265.5 L 376.8 264.5 L 377.5 263.5 L 378.1 262.5 L 378.7 261.5 L 379.2 260.5 L 379.7 259.5 L 380.1 258.4 L 380.5 257.4 L 380.9 256.4 L 381.2 255.4 L 381.6 254.4 L 381.9 253.4 L 382.3 252.4 L 382.7 251.3 L 383.2 250.3 L 383.8 249.3 L 384.4 248.3 L 385.0 247.3 L 385.8 246.3 L 386.6 245.3 L 387.4 244.3 L 388.4 243.2 L 389.3 242.2 L 390.4 241.2 L 391.4 240.2 L 392.5 239.2 L 393.6 238.2 L 394.6 237.2 L 395.7 236.1 L 396.7 235.1 L 397.7 234.1 L 398.6 233.1 L 399.5 232.1 L 400.3 231.1 L 401.0 230.1 L 401.6 229.0 L 402.2 228.0 L 402.7 227.0 L 403.1 226.0 L 403.5 225.0 L 403.7 224.0 L 403.9 223.0 L 404.0 221.9 L 404.0 220.9 L 403.9 219.9 L 403.8 218.9 L 403.6 217.9 L 403.3 216.9 L 403.0 215.9 L 402.5 214.8 L 402.1 213.8 L 401.5 212.8 L 400.9 211.8 L 400.3 210.8 L 399.6 209.8 L 398.8 208.8 L 398.1 207.8 L 397.3 206.7 L 396.4 205.7 L 395.5 204.7 L 394.6 203.7 L 393.7 202.7 L 392.7 201.7 L 391.7 200.7 L 390.7 199.6 L 389.6 198.6 L 388.5 197.6 L 387.3 196.6 L 386.1 195.6 L 384.8 194.6 L 383.5 193.6 L 382.1 192.5 L 380.7 191.5 L 379.3 190.5 L 377.8 189.5 L 376.3 188.5 L 374.8 187.5 L 373.3 186.5 L 371.8 185.4 L 370.2 184.4 L 368.8 183.4 L 367.3 182.4 L 365.9 181.4 L 364.5 180.4 L 363.2 179.4 L 361.9 178.3 L 360.7 177.3 L 359.5 176.3 L 358.4 175.3 L 357.4 174.3 L 356.4 173.3 L 355.4 172.3 L 354.5 171.3 L 353.6 170.2 L 352.8 169.2 L 351.9 168.2 L 351.1 167.2 L 350.2 166.2 L 349.4 165.2 L 348.6 164.2 L 347.7 163.1 L 346.9 162.1 L 346.0 161.1 L 345.2 160.1 L 344.3 159.1 L 343.5 158.1 L 342.7 157.1 L 341.9 156.0 L 341.1 155.0 L 340.3 154.0 L 339.5 153.0 L 338.8 152.0 L 338.1 151.0 L 337.5 150.0 L 336.9 148.9 L 336.3 147.9 L 335.8 146.9 L 335.4 145.9 L 334.9 144.9 L 334.5 143.9 L 334.2 142.9 L 333.9 141.8 L 333.6 140.8 L 333.3 139.8 L 333.1 138.8 L 332.9 137.8 L 332.8 136.8 L 332.6 135.8 L 332.5 134.8 L 332.4 133.7 L 332.3 132.7 L 332.3 131.7 L 332.2 130.7 L 332.2 129.7 L 332.0 129.7 Z" stroke="#ff6347" stroke-width="1.5" fill="#ff6347" fill-opacity="0.6" /><line x1="332" y1="129" x2="332" y2="429" stroke="#cccccc" stroke-width="1" /><rect x="417" y="129" width="120" height="56" fill="#ffffff" /><rect x="417" y="129" width="120" height="56" fill="none" stroke="#000000" stroke-width="1" /><circle cx="427" cy="146" r="5" fill="#4682b4" /><text x="440" y="148.6" font-size="12" text-anchor="start">Group A</text><circle cx="427" cy="164" r="5" fill="#ff6347" /><text x="440" y="166.6" font-size="12" text-anchor="start">Group B</text></svg>