<svg xmlns="http://www.w3.org/2000/svg" width="560" height="380" font-family="DejaVu Sans, Liberation Sans, Arial, sans-serif" fill="black"><rect width="100%" height="100%" fill="white" /><defs><style>g.tt{cursor:pointer;}g.tt:hover>*{opacity:0.75;}</style></defs><text x="280" y="27.400000000000002" font-size="18" text-anchor="middle">Treemap — continuous color scale</text><g class="tt"><title>Alpha
120.0000</title><rect x="63.800000000000004" y="44" width="229.58" height="157.06" fill="#5e4ea2" stroke="#ffffff" stroke-width="2" /><text x="178.59" y="126.73" font-size="12" text-anchor="middle" fill="#ffffff">Alpha</text></g><g class="tt"><title>Beta
85.0000</title><rect x="293.38" y="44" width="162.62" height="157.06" fill="#b8e2a0" stroke="#ffffff" stroke-width="2" /><text x="374.69" y="126.73" font-size="12" text-anchor="middle" fill="#ffffff">Beta</text></g><g class="tt"><title>Gamma
60.0000</title><rect x="63.800000000000004" y="201.06" width="392.2" height="45.97" fill="#feeca1" stroke="#ffffff" stroke-width="2" /><text x="259.9" y="228.24" font-size="12" text-anchor="middle" fill="#ffffff">Gamma</text></g><g class="tt"><title>Delta
45.0000</title><rect x="63.800000000000004" y="247.02" width="392.2" height="34.480000000000004" fill="#fbae65" stroke="#ffffff" stroke-width="2" /><text x="259.9" y="268.46" font-size="12" text-anchor="middle" fill="#ffffff">Delta</text></g><g class="tt"><title>Epsilon
30.0000</title><rect x="63.800000000000004" y="281.5" width="392.2" height="22.98" fill="#e85e48" stroke="#ffffff" stroke-width="2" /><text x="259.9" y="297.19" font-size="12" text-anchor="middle" fill="#ffffff">Epsilon</text></g><g class="tt"><title>Zeta
20.0000</title><rect x="63.800000000000004" y="304.48" width="392.2" height="15.32" fill="#c52d49" stroke="#ffffff" stroke-width="2" /></g><g class="tt"><title>Eta
12.0000</title><rect x="63.800000000000004" y="319.81" width="392.2" height="9.19" fill="#9e0142" stroke="#ffffff" stroke-width="2" /></g><rect x="495" y="72.5" width="20" height="5.0600000000000005" fill="#5e4ea2" /><rect x="495" y="77.06" width="20" height="5.0600000000000005" fill="#555aa7" /><rect x="495" y="81.62" width="20" height="5.0600000000000005" fill="#4d66ac" /><rect x="495" y="86.18" width="20" height="5.0600000000000005" fill="#4671b0" /><rect x="495" y="90.74" width="20" height="5.0600000000000005" fill="#427db3" /><rect x="495" y="95.3" width="20" height="5.0600000000000005" fill="#4289b4" /><rect x="495" y="99.86" width="20" height="5.0600000000000005" fill="#4595b3" /><rect x="495" y="104.42" width="20" height="5.0600000000000005" fill="#4ba0b1" /><rect x="495" y="108.98" width="20" height="5.0600000000000005" fill="#54abae" /><rect x="495" y="113.54" width="20" height="5.0600000000000005" fill="#5fb5ab" /><rect x="495" y="118.10000000000001" width="20" height="5.0600000000000005" fill="#6bbea8" /><rect x="495" y="122.66" width="20" height="5.0600000000000005" fill="#78c6a6" /><rect x="495" y="127.22" width="20" height="5.0600000000000005" fill="#85cda5" /><rect x="495" y="131.78" width="20" height="5.0600000000000005" fill="#92d3a3" /><rect x="495" y="136.34" width="20" height="5.0600000000000005" fill="#a0d8a2" /><rect x="495" y="140.9" width="20" height="5.0600000000000005" fill="#addea1" /><rect x="495" y="145.46" width="20" height="5.0600000000000005" fill="#b9e3a0" /><rect x="495" y="150.02" width="20" height="5.0600000000000005" fill="#c5e79e" /><rect x="495" y="154.58" width="20" height="5.0600000000000005" fill="#d0ec9e" /><rect x="495" y="159.14000000000001" width="20" height="5.0600000000000005" fill="#daf09f" /><rect x="495" y="163.70000000000002" width="20" height="5.0600000000000005" fill="#e3f4a1" /><rect x="495" y="168.26" width="20" height="5.0600000000000005" fill="#eaf6a5" /><rect x="495" y="172.82" width="20" height="5.0600000000000005" fill="#f0f8aa" /><rect x="495" y="177.38" width="20" height="5.0600000000000005" fill="#f5f9ae" /><rect x="495" y="181.94" width="20" height="5.0600000000000005" fill="#f9f9b0" /><rect x="495" y="186.5" width="20" height="5.0600000000000005" fill="#fbf6ae" /><rect x="495" y="191.06" width="20" height="5.0600000000000005" fill="#fdf3aa" /><rect x="495" y="195.62" width="20" height="5.0600000000000005" fill="#fdeda2" /><rect x="495" y="200.18" width="20" height="5.0600000000000005" fill="#fee79a" /><rect x="495" y="204.74" width="20" height="5.0600000000000005" fill="#fee090" /><rect x="495" y="209.3" width="20" height="5.0600000000000005" fill="#fdd786" /><rect x="495" y="213.86" width="20" height="5.0600000000000005" fill="#fdce7d" /><rect x="495" y="218.42000000000002" width="20" height="5.0600000000000005" fill="#fdc475" /><rect x="495" y="222.98000000000002" width="20" height="5.0600000000000005" fill="#fcba6c" /><rect x="495" y="227.54" width="20" height="5.0600000000000005" fill="#fbae65" /><rect x="495" y="232.1" width="20" height="5.0600000000000005" fill="#faa35d" /><rect x="495" y="236.66" width="20" height="5.0600000000000005" fill="#f99657" /><rect x="495" y="241.22" width="20" height="5.0600000000000005" fill="#f78a51" /><rect x="495" y="245.78" width="20" height="5.0600000000000005" fill="#f47e4d" /><rect x="495" y="250.34" width="20" height="5.0600000000000005" fill="#f1724a" /><rect x="495" y="254.9" width="20" height="5.0600000000000005" fill="#ec6749" /><rect x="495" y="259.46" width="20" height="5.0600000000000005" fill="#e75c48" /><rect x="495" y="264.02" width="20" height="5.0600000000000005" fill="#e15149" /><rect x="495" y="268.58" width="20" height="5.0600000000000005" fill="#da474a" /><rect x="495" y="273.14" width="20" height="5.0600000000000005" fill="#d13c4a" /><rect x="495" y="277.7" width="20" height="5.0600000000000005" fill="#c8314a" /><rect x="495" y="282.26" width="20" height="5.0600000000000005" fill="#be2549" /><rect x="495" y="286.82" width="20" height="5.0600000000000005" fill="#b41947" /><rect x="495" y="291.38" width="20" height="5.0600000000000005" fill="#a90d44" /><rect x="495" y="295.94" width="20" height="5.0600000000000005" fill="#9e0142" /><rect x="495" y="72.5" width="20" height="228" fill="none" stroke="#000000" stroke-width="1" /><line x1="515" y1="283.61" x2="519" y2="283.61" stroke="#000000" stroke-width="1" /><text x="520" y="287.61" font-size="12" text-anchor="start">20</text><line x1="515" y1="241.39000000000001" x2="519" y2="241.39000000000001" stroke="#000000" stroke-width="1" /><text x="520" y="245.39000000000001" font-size="12" text-anchor="start">40</text><line x1="515" y1="199.17000000000002" x2="519" y2="199.17000000000002" stroke="#000000" stroke-width="1" /><text x="520" y="203.17000000000002" font-size="12" text-anchor="start">60</text><line x1="515" y1="156.94" x2="519" y2="156.94" stroke="#000000" stroke-width="1" /><text x="520" y="160.94" font-size="12" text-anchor="start">80</text><line x1="515" y1="114.72" x2="519" y2="114.72" stroke="#000000" stroke-width="1" /><text x="520" y="118.72" font-size="12" text-anchor="start">100</text><line x1="515" y1="72.5" x2="519" y2="72.5" stroke="#000000" stroke-width="1" /><text x="520" y="76.5" font-size="12" text-anchor="start">120</text><text x="485" y="186.5" font-size="12" text-anchor="middle" transform="rotate(-90,485,186.5)">value</text></svg>