<svg xmlns="http://www.w3.org/2000/svg" width="677" height="545" font-family="DejaVu Sans, Liberation Sans, Arial, sans-serif" fill="black"><rect width="100%" height="100%" fill="white" /><defs><clipPath id="kuva-clip-0"><rect x="59" y="44" width="600" height="450"/></clipPath></defs><line x1="179" y1="44" x2="179" y2="494" stroke="#cccccc" stroke-width="1" /><line x1="299" y1="44" x2="299" y2="494" stroke="#cccccc" stroke-width="1" /><line x1="419" y1="44" x2="419" y2="494" stroke="#cccccc" stroke-width="1" /><line x1="539" y1="44" x2="539" y2="494" stroke="#cccccc" stroke-width="1" /><line x1="659" y1="44" x2="659" y2="494" stroke="#cccccc" stroke-width="1" /><line x1="59" y1="404" x2="659" y2="404" stroke="#cccccc" stroke-width="1" /><line x1="59" y1="314" x2="659" y2="314" stroke="#cccccc" stroke-width="1" /><line x1="59" y1="224" x2="659" y2="224" stroke="#cccccc" stroke-width="1" /><line x1="59" y1="134" x2="659" y2="134" stroke="#cccccc" stroke-width="1" /><line x1="59" y1="44" x2="659" y2="44" stroke="#cccccc" stroke-width="1" /><line x1="59" y1="494" x2="659" y2="494" stroke="#000000" stroke-width="1" /><line x1="59" y1="44" x2="59" y2="494" stroke="#000000" stroke-width="1" /><line x1="59" y1="494" x2="59" y2="499" stroke="#000000" stroke-width="1" /><text x="59" y="511" font-size="12" text-anchor="middle">0</text><line x1="179" y1="494" x2="179" y2="499" stroke="#000000" stroke-width="1" /><text x="179" y="511" font-size="12" text-anchor="middle">2</text><line x1="299" y1="494" x2="299" y2="499" stroke="#000000" stroke-width="1" /><text x="299" y="511" font-size="12" text-anchor="middle">4</text><line x1="419" y1="494" x2="419" y2="499" stroke="#000000" stroke-width="1" /><text x="419" y="511" font-size="12" text-anchor="middle">6</text><line x1="539" y1="494" x2="539" y2="499" stroke="#000000" stroke-width="1" /><text x="539" y="511" font-size="12" text-anchor="middle">8</text><line x1="659" y1="494" x2="659" y2="499" stroke="#000000" stroke-width="1" /><text x="659" y="511" font-size="12" text-anchor="middle">10</text><line x1="54" y1="494" x2="59" y2="494" stroke="#000000" stroke-width="1" /><text x="51" y="498.2" font-size="12" text-anchor="end">0</text><line x1="54" y1="404" x2="59" y2="404" stroke="#000000" stroke-width="1" /><text x="51" y="408.2" font-size="12" text-anchor="end">2</text><line x1="54" y1="314" x2="59" y2="314" stroke="#000000" stroke-width="1" /><text x="51" y="318.2" font-size="12" text-anchor="end">4</text><line x1="54" y1="224" x2="59" y2="224" stroke="#000000" stroke-width="1" /><text x="51" y="228.20000000000002" font-size="12" text-anchor="end">6</text><line x1="54" y1="134" x2="59" y2="134" stroke="#000000" stroke-width="1" /><text x="51" y="138.20000000000002" font-size="12" text-anchor="end">8</text><line x1="54" y1="44" x2="59" y2="44" stroke="#000000" stroke-width="1" /><text x="51" y="48.2" font-size="12" text-anchor="end">10</text><text x="359" y="538" font-size="14" text-anchor="middle">Category</text><text x="15" y="272.5" font-size="14" text-anchor="middle" transform="rotate(-90,15,272.5)">Value</text><text x="338.5" y="27.400000000000002" font-size="18" text-anchor="middle">Lollipop Plot</text><g clip-path="url(#kuva-clip-0)"><line x1="119" y1="494" x2="539" y2="494" stroke="#888888" stroke-width="1" /><line x1="119" y1="494" x2="119" y2="359" stroke="#4682b4" stroke-width="1.5" /><circle cx="119" cy="359" r="5" fill="#4682b4" stroke="#4682b4" stroke-width="1" /><line x1="179" y1="494" x2="179" y2="449" stroke="#4682b4" stroke-width="1.5" /><circle cx="179" cy="449" r="5" fill="#4682b4" stroke="#4682b4" stroke-width="1" /><line x1="239" y1="494" x2="239" y2="179" stroke="#4682b4" stroke-width="1.5" /><circle cx="239" cy="179" r="5" fill="#4682b4" stroke="#4682b4" stroke-width="1" /><line x1="299" y1="494" x2="299" y2="404" stroke="#4682b4" stroke-width="1.5" /><circle cx="299" cy="404" r="5" fill="#4682b4" stroke="#4682b4" stroke-width="1" /><line x1="359" y1="494" x2="359" y2="269" stroke="#4682b4" stroke-width="1.5" /><circle cx="359" cy="269" r="5" fill="#4682b4" stroke="#4682b4" stroke-width="1" /><line x1="419" y1="494" x2="419" y2="314" stroke="#4682b4" stroke-width="1.5" /><circle cx="419" cy="314" r="5" fill="#4682b4" stroke="#4682b4" stroke-width="1" /><line x1="479" y1="494" x2="479" y2="134" stroke="#4682b4" stroke-width="1.5" /><circle cx="479" cy="134" r="5" fill="#4682b4" stroke="#4682b4" stroke-width="1" /><line x1="539" y1="494" x2="539" y2="404" stroke="#4682b4" stroke-width="1.5" /><circle cx="539" cy="404" r="5" fill="#4682b4" stroke="#4682b4" stroke-width="1" /></g></svg>