<svg xmlns="http://www.w3.org/2000/svg" width="677" height="545" font-family="DejaVu Sans, Liberation Sans, Arial, sans-serif" fill="black"><rect width="100%" height="100%" fill="white" /><defs><clipPath id="kuva-clip-2"><rect x="59" y="44" width="600" height="450"/></clipPath></defs><line x1="179" y1="44" x2="179" y2="494" stroke="#cccccc" stroke-width="1" /><line x1="299" y1="44" x2="299" y2="494" stroke="#cccccc" stroke-width="1" /><line x1="419" y1="44" x2="419" y2="494" stroke="#cccccc" stroke-width="1" /><line x1="539" y1="44" x2="539" y2="494" stroke="#cccccc" stroke-width="1" /><line x1="659" y1="44" x2="659" y2="494" stroke="#cccccc" stroke-width="1" /><line x1="59" y1="429.71000000000004" x2="659" y2="429.71000000000004" stroke="#cccccc" stroke-width="1" /><line x1="59" y1="365.43" x2="659" y2="365.43" stroke="#cccccc" stroke-width="1" /><line x1="59" y1="301.14" x2="659" y2="301.14" stroke="#cccccc" stroke-width="1" /><line x1="59" y1="236.86" x2="659" y2="236.86" stroke="#cccccc" stroke-width="1" /><line x1="59" y1="172.57" x2="659" y2="172.57" stroke="#cccccc" stroke-width="1" /><line x1="59" y1="108.29" x2="659" y2="108.29" stroke="#cccccc" stroke-width="1" /><line x1="59" y1="44" x2="659" y2="44" stroke="#cccccc" stroke-width="1" /><line x1="59" y1="494" x2="659" y2="494" stroke="#000000" stroke-width="1" /><line x1="59" y1="44" x2="59" y2="494" stroke="#000000" stroke-width="1" /><line x1="59" y1="494" x2="59" y2="499" stroke="#000000" stroke-width="1" /><text x="59" y="511" font-size="12" text-anchor="middle">0</text><line x1="179" y1="494" x2="179" y2="499" stroke="#000000" stroke-width="1" /><text x="179" y="511" font-size="12" text-anchor="middle">2</text><line x1="299" y1="494" x2="299" y2="499" stroke="#000000" stroke-width="1" /><text x="299" y="511" font-size="12" text-anchor="middle">4</text><line x1="419" y1="494" x2="419" y2="499" stroke="#000000" stroke-width="1" /><text x="419" y="511" font-size="12" text-anchor="middle">6</text><line x1="539" y1="494" x2="539" y2="499" stroke="#000000" stroke-width="1" /><text x="539" y="511" font-size="12" text-anchor="middle">8</text><line x1="659" y1="494" x2="659" y2="499" stroke="#000000" stroke-width="1" /><text x="659" y="511" font-size="12" text-anchor="middle">10</text><line x1="54" y1="494" x2="59" y2="494" stroke="#000000" stroke-width="1" /><text x="51" y="498.2" font-size="12" text-anchor="end">-3</text><line x1="54" y1="429.71000000000004" x2="59" y2="429.71000000000004" stroke="#000000" stroke-width="1" /><text x="51" y="433.91" font-size="12" text-anchor="end">-2</text><line x1="54" y1="365.43" x2="59" y2="365.43" stroke="#000000" stroke-width="1" /><text x="51" y="369.63" font-size="12" text-anchor="end">-1</text><line x1="54" y1="301.14" x2="59" y2="301.14" stroke="#000000" stroke-width="1" /><text x="51" y="305.34000000000003" font-size="12" text-anchor="end">0</text><line x1="54" y1="236.86" x2="59" y2="236.86" stroke="#000000" stroke-width="1" /><text x="51" y="241.06" font-size="12" text-anchor="end">1</text><line x1="54" y1="172.57" x2="59" y2="172.57" stroke="#000000" stroke-width="1" /><text x="51" y="176.77" font-size="12" text-anchor="end">2</text><line x1="54" y1="108.29" x2="59" y2="108.29" stroke="#000000" stroke-width="1" /><text x="51" y="112.49000000000001" font-size="12" text-anchor="end">3</text><line x1="54" y1="44" x2="59" y2="44" stroke="#000000" stroke-width="1" /><text x="51" y="48.2" font-size="12" text-anchor="end">4</text><text x="359" y="538" font-size="14" text-anchor="middle">Gene</text><text x="15" y="272.5" font-size="14" text-anchor="middle" transform="rotate(-90,15,272.5)">log₂ fold change</text><text x="338.5" y="27.400000000000002" font-size="18" text-anchor="middle">Gene Expression Changes</text><g clip-path="url(#kuva-clip-2)"><line x1="119" y1="301.14" x2="539" y2="301.14" stroke="#888888" stroke-width="1" stroke-dasharray="4,3" /><line x1="119" y1="301.14" x2="119" y2="166.14000000000001" stroke="#4682b4" stroke-width="1.5" /><circle cx="119" cy="166.14000000000001" r="5" fill="#4682b4" stroke="#4682b4" stroke-width="1" /><line x1="179" y1="301.14" x2="179" y2="384.71000000000004" stroke="#4682b4" stroke-width="1.5" /><circle cx="179" cy="384.71000000000004" r="5" fill="#4682b4" stroke="#4682b4" stroke-width="1" /><line x1="239" y1="301.14" x2="239" y2="76.14" stroke="#4682b4" stroke-width="1.5" /><circle cx="239" cy="76.14" r="5" fill="#4682b4" stroke="#4682b4" stroke-width="1" /><line x1="299" y1="301.14" x2="299" y2="481.14" stroke="#4682b4" stroke-width="1.5" /><circle cx="299" cy="481.14" r="5" fill="#4682b4" stroke="#4682b4" stroke-width="1" /><line x1="359" y1="301.14" x2="359" y2="211.14000000000001" stroke="#4682b4" stroke-width="1.5" /><circle cx="359" cy="211.14000000000001" r="5" fill="#4682b4" stroke="#4682b4" stroke-width="1" /><line x1="419" y1="301.14" x2="419" y2="346.14" stroke="#4682b4" stroke-width="1.5" /><circle cx="419" cy="346.14" r="5" fill="#4682b4" stroke="#4682b4" stroke-width="1" /><line x1="479" y1="301.14" x2="479" y2="114.71000000000001" stroke="#4682b4" stroke-width="1.5" /><circle cx="479" cy="114.71000000000001" r="5" fill="#4682b4" stroke="#4682b4" stroke-width="1" /><line x1="539" y1="301.14" x2="539" y2="423.29" stroke="#4682b4" stroke-width="1.5" /><circle cx="539" cy="423.29" r="5" fill="#4682b4" stroke="#4682b4" stroke-width="1" /></g></svg>