<svg xmlns="http://www.w3.org/2000/svg" width="620" height="360" font-family="DejaVu Sans, Liberation Sans, Arial, sans-serif" fill="black"><rect width="100%" height="100%" fill="white" /><defs><clipPath id="kuva-clip-1"><rect x="59" y="44" width="535.8" height="265"/></clipPath></defs><line x1="166.16" y1="44" x2="166.16" y2="309" stroke="#cccccc" stroke-width="1" /><line x1="273.32" y1="44" x2="273.32" y2="309" stroke="#cccccc" stroke-width="1" /><line x1="380.48" y1="44" x2="380.48" y2="309" stroke="#cccccc" stroke-width="1" /><line x1="487.64" y1="44" x2="487.64" y2="309" stroke="#cccccc" stroke-width="1" /><line x1="594.8000000000001" y1="44" x2="594.8000000000001" y2="309" stroke="#cccccc" stroke-width="1" /><line x1="59" y1="264.83" x2="594.8000000000001" y2="264.83" stroke="#cccccc" stroke-width="1" /><line x1="59" y1="209.63" x2="594.8000000000001" y2="209.63" stroke="#cccccc" stroke-width="1" /><line x1="59" y1="154.42000000000002" x2="594.8000000000001" y2="154.42000000000002" stroke="#cccccc" stroke-width="1" /><line x1="59" y1="99.21000000000001" x2="594.8000000000001" y2="99.21000000000001" stroke="#cccccc" stroke-width="1" /><line x1="59" y1="44" x2="594.8000000000001" y2="44" stroke="#cccccc" stroke-width="1" /><line x1="59" y1="309" x2="594.8000000000001" y2="309" stroke="#000000" stroke-width="1" /><line x1="59" y1="44" x2="59" y2="309" stroke="#000000" stroke-width="1" /><line x1="59" y1="309" x2="59" y2="314" stroke="#000000" stroke-width="1" /><text x="59" y="326" font-size="12" text-anchor="middle">-50</text><line x1="166.16" y1="309" x2="166.16" y2="314" stroke="#000000" stroke-width="1" /><text x="166.16" y="326" font-size="12" text-anchor="middle">0</text><line x1="273.32" y1="309" x2="273.32" y2="314" stroke="#000000" stroke-width="1" /><text x="273.32" y="326" font-size="12" text-anchor="middle">50</text><line x1="380.48" y1="309" x2="380.48" y2="314" stroke="#000000" stroke-width="1" /><text x="380.48" y="326" font-size="12" text-anchor="middle">100</text><line x1="487.64" y1="309" x2="487.64" y2="314" stroke="#000000" stroke-width="1" /><text x="487.64" y="326" font-size="12" text-anchor="middle">150</text><line x1="594.8000000000001" y1="309" x2="594.8000000000001" y2="314" stroke="#000000" stroke-width="1" /><text x="594.8000000000001" y="326" font-size="12" text-anchor="middle">200</text><line x1="54" y1="264.83" x2="59" y2="264.83" stroke="#000000" stroke-width="1" /><text x="51" y="269.03000000000003" font-size="12" text-anchor="end">0</text><line x1="54" y1="209.63" x2="59" y2="209.63" stroke="#000000" stroke-width="1" /><text x="51" y="213.83" font-size="12" text-anchor="end">2.5</text><line x1="54" y1="154.42000000000002" x2="59" y2="154.42000000000002" stroke="#000000" stroke-width="1" /><text x="51" y="158.62" font-size="12" text-anchor="end">5</text><line x1="54" y1="99.21000000000001" x2="59" y2="99.21000000000001" stroke="#000000" stroke-width="1" /><text x="51" y="103.41" font-size="12" text-anchor="end">7.5</text><line x1="54" y1="44" x2="59" y2="44" stroke="#000000" stroke-width="1" /><text x="51" y="48.2" font-size="12" text-anchor="end">10</text><text x="326.90000000000003" y="353" font-size="14" text-anchor="middle">Amino acid position</text><text x="15" y="180" font-size="14" text-anchor="middle" transform="rotate(-90,15,180)">Mutation count</text><text x="310" y="27.400000000000002" font-size="18" text-anchor="middle">TP53 Mutation Landscape</text><g clip-path="url(#kuva-clip-1)"><rect x="168.3" y="264.83" width="141.45000000000002" height="33.13" fill="#4e79a7" fill-opacity="0.35000000000000003" /><text x="239.03" y="285.6" font-size="9" text-anchor="middle">N-terminal</text><rect x="311.90000000000003" y="264.83" width="132.88" height="33.13" fill="#f28e2b" fill-opacity="0.35000000000000003" /><text x="378.34000000000003" y="285.6" font-size="9" text-anchor="middle">DNA-binding</text><rect x="446.92" y="264.83" width="115.73" height="33.13" fill="#59a14f" fill-opacity="0.35000000000000003" /><text x="504.79" y="285.6" font-size="9" text-anchor="middle">C-terminal</text><line x1="168.3" y1="264.83" x2="562.65" y2="264.83" stroke="#888888" stroke-width="1" /><line x1="183.31" y1="264.83" x2="183.31" y2="242.75" stroke="#4682b4" stroke-width="1.5" /><circle cx="183.31" cy="242.75" r="4.5" fill="#4682b4" stroke="#4682b4" stroke-width="1" /><line x1="191.88" y1="264.83" x2="191.88" y2="198.58" stroke="#4682b4" stroke-width="1.5" /><circle cx="191.88" cy="198.58" r="4.5" fill="#4682b4" stroke="#4682b4" stroke-width="1" /><line x1="206.88" y1="264.83" x2="206.88" y2="242.75" stroke="#4682b4" stroke-width="1.5" /><circle cx="206.88" cy="242.75" r="4.5" fill="#4682b4" stroke="#4682b4" stroke-width="1" /><line x1="219.74" y1="264.83" x2="219.74" y2="220.67000000000002" stroke="#4682b4" stroke-width="1.5" /><circle cx="219.74" cy="220.67000000000002" r="4.5" fill="#4682b4" stroke="#4682b4" stroke-width="1" /><line x1="254.03" y1="264.83" x2="254.03" y2="110.25" stroke="#4682b4" stroke-width="1.5" /><circle cx="254.03" cy="110.25" r="4.5" fill="#4682b4" stroke="#4682b4" stroke-width="1" /><line x1="279.75" y1="264.83" x2="279.75" y2="220.67000000000002" stroke="#4682b4" stroke-width="1.5" /><circle cx="279.75" cy="220.67000000000002" r="4.5" fill="#4682b4" stroke="#4682b4" stroke-width="1" /><line x1="284.04" y1="264.83" x2="284.04" y2="242.75" stroke="#4682b4" stroke-width="1.5" /><circle cx="284.04" cy="242.75" r="4.5" fill="#4682b4" stroke="#4682b4" stroke-width="1" /><line x1="299.04" y1="264.83" x2="299.04" y2="176.5" stroke="#4682b4" stroke-width="1.5" /><circle cx="299.04" cy="176.5" r="4.5" fill="#4682b4" stroke="#4682b4" stroke-width="1" /><line x1="335.47" y1="264.83" x2="335.47" y2="242.75" stroke="#4682b4" stroke-width="1.5" /><circle cx="335.47" cy="242.75" r="4.5" fill="#4682b4" stroke="#4682b4" stroke-width="1" /><line x1="354.76" y1="264.83" x2="354.76" y2="198.58" stroke="#4682b4" stroke-width="1.5" /><circle cx="354.76" cy="198.58" r="4.5" fill="#4682b4" stroke="#4682b4" stroke-width="1" /><line x1="374.05" y1="264.83" x2="374.05" y2="154.42000000000002" stroke="#4682b4" stroke-width="1.5" /><circle cx="374.05" cy="154.42000000000002" r="4.5" fill="#4682b4" stroke="#4682b4" stroke-width="1" /><line x1="401.91" y1="264.83" x2="401.91" y2="220.67000000000002" stroke="#4682b4" stroke-width="1.5" /><circle cx="401.91" cy="220.67000000000002" r="4.5" fill="#4682b4" stroke="#4682b4" stroke-width="1" /><line x1="431.92" y1="264.83" x2="431.92" y2="88.17" stroke="#4682b4" stroke-width="1.5" /><circle cx="431.92" cy="88.17" r="4.5" fill="#4682b4" stroke="#4682b4" stroke-width="1" /><line x1="446.92" y1="264.83" x2="446.92" y2="242.75" stroke="#4682b4" stroke-width="1.5" /><circle cx="446.92" cy="242.75" r="4.5" fill="#4682b4" stroke="#4682b4" stroke-width="1" /><line x1="461.92" y1="264.83" x2="461.92" y2="198.58" stroke="#4682b4" stroke-width="1.5" /><circle cx="461.92" cy="198.58" r="4.5" fill="#4682b4" stroke="#4682b4" stroke-width="1" /><line x1="487.64" y1="264.83" x2="487.64" y2="242.75" stroke="#4682b4" stroke-width="1.5" /><circle cx="487.64" cy="242.75" r="4.5" fill="#4682b4" stroke="#4682b4" stroke-width="1" /><line x1="504.79" y1="264.83" x2="504.79" y2="220.67000000000002" stroke="#4682b4" stroke-width="1.5" /><circle cx="504.79" cy="220.67000000000002" r="4.5" fill="#4682b4" stroke="#4682b4" stroke-width="1" /><line x1="515.5" y1="264.83" x2="515.5" y2="132.33" stroke="#4682b4" stroke-width="1.5" /><circle cx="515.5" cy="132.33" r="4.5" fill="#4682b4" stroke="#4682b4" stroke-width="1" /><line x1="534.79" y1="264.83" x2="534.79" y2="242.75" stroke="#4682b4" stroke-width="1.5" /><circle cx="534.79" cy="242.75" r="4.5" fill="#4682b4" stroke="#4682b4" stroke-width="1" /><line x1="551.94" y1="264.83" x2="551.94" y2="220.67000000000002" stroke="#4682b4" stroke-width="1.5" /><circle cx="551.94" cy="220.67000000000002" r="4.5" fill="#4682b4" stroke="#4682b4" stroke-width="1" /><line x1="254.03" y1="264.83" x2="254.03" y2="110.25" stroke="#ff6347" stroke-width="1.5" /><circle cx="254.03" cy="110.25" r="4.5" fill="#ff6347" stroke="#ff6347" stroke-width="1" /><text x="254.03" y="101.75" font-size="9" text-anchor="middle">R175H</text><line x1="431.92" y1="264.83" x2="431.92" y2="88.17" stroke="#ff6347" stroke-width="1.5" /><circle cx="431.92" cy="88.17" r="4.5" fill="#ff6347" stroke="#ff6347" stroke-width="1" /><text x="431.92" y="79.67" font-size="9" text-anchor="middle">R248W</text><line x1="515.5" y1="264.83" x2="515.5" y2="132.33" stroke="#ff6347" stroke-width="1.5" /><circle cx="515.5" cy="132.33" r="4.5" fill="#ff6347" stroke="#ff6347" stroke-width="1" /><text x="515.5" y="123.83" font-size="9" text-anchor="middle">R273H</text></g></svg>