<svg xmlns="http://www.w3.org/2000/svg" width="686.2" height="545" font-family="DejaVu Sans, Liberation Sans, Arial, sans-serif" fill="black"><rect width="100%" height="100%" fill="white" /><line x1="72.2" y1="494" x2="672.2" y2="494" stroke="#000000" stroke-width="1" /><line x1="72.2" y1="44" x2="72.2" y2="494" stroke="#000000" stroke-width="1" /><line x1="72.2" y1="419" x2="672.2" y2="419" stroke="#cccccc" stroke-width="1" /><line x1="72.2" y1="344" x2="672.2" y2="344" stroke="#cccccc" stroke-width="1" /><line x1="72.2" y1="269" x2="672.2" y2="269" stroke="#cccccc" stroke-width="1" /><line x1="72.2" y1="194" x2="672.2" y2="194" stroke="#cccccc" stroke-width="1" /><line x1="72.2" y1="119" x2="672.2" y2="119" stroke="#cccccc" stroke-width="1" /><line x1="72.2" y1="44" x2="672.2" y2="44" stroke="#cccccc" stroke-width="1" /><text x="172.20000000000002" y="511" font-size="12" text-anchor="middle">Apples</text><line x1="172.20000000000002" y1="494" x2="172.20000000000002" y2="499" stroke="#000000" stroke-width="1" /><text x="272.2" y="511" font-size="12" text-anchor="middle">Bananas</text><line x1="272.2" y1="494" x2="272.2" y2="499" stroke="#000000" stroke-width="1" /><text x="372.2" y="511" font-size="12" text-anchor="middle">Cherries</text><line x1="372.2" y1="494" x2="372.2" y2="499" stroke="#000000" stroke-width="1" /><text x="472.2" y="511" font-size="12" text-anchor="middle">Dates</text><line x1="472.2" y1="494" x2="472.2" y2="499" stroke="#000000" stroke-width="1" /><text x="572.2" y="511" font-size="12" text-anchor="middle">Elderberry</text><line x1="572.2" y1="494" x2="572.2" y2="499" stroke="#000000" stroke-width="1" /><line x1="67.2" y1="494" x2="72.2" y2="494" stroke="#000000" stroke-width="1" /><text x="64.2" y="498.2" font-size="12" text-anchor="end">0</text><line x1="67.2" y1="419" x2="72.2" y2="419" stroke="#000000" stroke-width="1" /><text x="64.2" y="423.2" font-size="12" text-anchor="end">10</text><line x1="67.2" y1="344" x2="72.2" y2="344" stroke="#000000" stroke-width="1" /><text x="64.2" y="348.2" font-size="12" text-anchor="end">20</text><line x1="67.2" y1="269" x2="72.2" y2="269" stroke="#000000" stroke-width="1" /><text x="64.2" y="273.2" font-size="12" text-anchor="end">30</text><line x1="67.2" y1="194" x2="72.2" y2="194" stroke="#000000" stroke-width="1" /><text x="64.2" y="198.20000000000002" font-size="12" text-anchor="end">40</text><line x1="67.2" y1="119" x2="72.2" y2="119" stroke="#000000" stroke-width="1" /><text x="64.2" y="123.2" font-size="12" text-anchor="end">50</text><line x1="67.2" y1="44" x2="72.2" y2="44" stroke="#000000" stroke-width="1" /><text x="64.2" y="48.2" font-size="12" text-anchor="end">60</text><text x="7" y="272.5" font-size="14" text-anchor="middle" transform="rotate(-90,7,272.5)">Count</text><text x="372.2" y="22" font-size="18" text-anchor="middle">Bar Chart</text><rect x="132.2" y="179" width="80" height="315" fill="#4682b4" /><rect x="232.20000000000002" y="59" width="80" height="435" fill="#4682b4" /><rect x="332.2" y="261.5" width="80" height="232.5" fill="#4682b4" /><rect x="432.2" y="141.5" width="80" height="352.5" fill="#4682b4" /><rect x="532.2" y="306.5" width="80" height="187.5" fill="#4682b4" /></svg>