<svg xmlns="http://www.w3.org/2000/svg" width="784.5" height="545" font-family="DejaVu Sans, Liberation Sans, Arial, sans-serif" fill="black"><rect width="100%" height="100%" fill="white" /><defs><clipPath id="kuva-clip-1"><rect x="59" y="44" width="600" height="450"/></clipPath></defs><line x1="59" y1="419" x2="659" y2="419" stroke="#cccccc" stroke-width="1" /><line x1="59" y1="344" x2="659" y2="344" stroke="#cccccc" stroke-width="1" /><line x1="59" y1="269" x2="659" y2="269" stroke="#cccccc" stroke-width="1" /><line x1="59" y1="194" x2="659" y2="194" stroke="#cccccc" stroke-width="1" /><line x1="59" y1="119" x2="659" y2="119" stroke="#cccccc" stroke-width="1" /><line x1="59" y1="44" x2="659" y2="44" stroke="#cccccc" stroke-width="1" /><line x1="59" y1="494" x2="659" y2="494" stroke="#000000" stroke-width="1" /><line x1="59" y1="44" x2="59" y2="494" stroke="#000000" stroke-width="1" /><text x="179" y="511" font-size="12" text-anchor="middle">Q1</text><line x1="179" y1="494" x2="179" y2="499" stroke="#000000" stroke-width="1" /><text x="299" y="511" font-size="12" text-anchor="middle">Q2</text><line x1="299" y1="494" x2="299" y2="499" stroke="#000000" stroke-width="1" /><text x="419" y="511" font-size="12" text-anchor="middle">Q3</text><line x1="419" y1="494" x2="419" y2="499" stroke="#000000" stroke-width="1" /><text x="539" y="511" font-size="12" text-anchor="middle">Q4</text><line x1="539" y1="494" x2="539" y2="499" stroke="#000000" stroke-width="1" /><line x1="54" y1="494" x2="59" y2="494" stroke="#000000" stroke-width="1" /><text x="51" y="498.2" font-size="12" text-anchor="end">0</text><line x1="54" y1="419" x2="59" y2="419" stroke="#000000" stroke-width="1" /><text x="51" y="423.2" font-size="12" text-anchor="end">5</text><line x1="54" y1="344" x2="59" y2="344" stroke="#000000" stroke-width="1" /><text x="51" y="348.2" font-size="12" text-anchor="end">10</text><line x1="54" y1="269" x2="59" y2="269" stroke="#000000" stroke-width="1" /><text x="51" y="273.2" font-size="12" text-anchor="end">15</text><line x1="54" y1="194" x2="59" y2="194" stroke="#000000" stroke-width="1" /><text x="51" y="198.20000000000002" font-size="12" text-anchor="end">20</text><line x1="54" y1="119" x2="59" y2="119" stroke="#000000" stroke-width="1" /><text x="51" y="123.2" font-size="12" text-anchor="end">25</text><line x1="54" y1="44" x2="59" y2="44" stroke="#000000" stroke-width="1" /><text x="51" y="48.2" font-size="12" text-anchor="end">30</text><text x="15" y="272.5" font-size="14" text-anchor="middle" transform="rotate(-90,15,272.5)">Sales (units)</text><text x="359" y="22" font-size="18" text-anchor="middle">Grouped Bar Chart</text><g clip-path="url(#kuva-clip-1)"><rect x="131" y="224" width="32" height="270" fill="#4682b4" /><rect x="163" y="314" width="32" height="180" fill="#dc143c" /><rect x="195" y="359" width="32" height="135" fill="seagreen" /><rect x="251" y="164" width="32" height="330" fill="#4682b4" /><rect x="283" y="239" width="32" height="255" fill="#dc143c" /><rect x="315" y="284" width="32" height="210" fill="seagreen" /><rect x="371" y="209" width="32" height="285" fill="#4682b4" /><rect x="403" y="179" width="32" height="315" fill="#dc143c" /><rect x="435" y="329" width="32" height="165" fill="seagreen" /><rect x="491" y="119" width="32" height="375" fill="#4682b4" /><rect x="523" y="269" width="32" height="225" fill="#dc143c" /><rect x="555" y="224" width="32" height="270" fill="seagreen" /></g><rect x="664" y="34" width="111.5" height="74" fill="#ffffff" /><rect x="664" y="34" width="111.5" height="74" fill="none" stroke="#000000" stroke-width="1" /><text x="694" y="53.2" font-size="12" text-anchor="start">Product A</text><rect x="674" y="43" width="12" height="12" fill="#4682b4" /><text x="694" y="71.2" font-size="12" text-anchor="start">Product B</text><rect x="674" y="61" width="12" height="12" fill="#dc143c" /><text x="694" y="89.2" font-size="12" text-anchor="start">Product C</text><rect x="674" y="79" width="12" height="12" fill="seagreen" /></svg>