<svg xmlns="http://www.w3.org/2000/svg" width="797.7" height="545" font-family="DejaVu Sans, Liberation Sans, Arial, sans-serif" fill="black"><rect width="100%" height="100%" fill="white" /><line x1="72.2" y1="494" x2="672.2" y2="494" stroke="#000000" stroke-width="1" /><line x1="72.2" y1="44" x2="72.2" y2="494" stroke="#000000" stroke-width="1" /><line x1="72.2" y1="419" x2="672.2" y2="419" stroke="#cccccc" stroke-width="1" /><line x1="72.2" y1="344" x2="672.2" y2="344" stroke="#cccccc" stroke-width="1" /><line x1="72.2" y1="269" x2="672.2" y2="269" stroke="#cccccc" stroke-width="1" /><line x1="72.2" y1="194" x2="672.2" y2="194" stroke="#cccccc" stroke-width="1" /><line x1="72.2" y1="119" x2="672.2" y2="119" stroke="#cccccc" stroke-width="1" /><line x1="72.2" y1="44" x2="672.2" y2="44" stroke="#cccccc" stroke-width="1" /><text x="192.20000000000002" y="511" font-size="12" text-anchor="middle">Q1</text><line x1="192.20000000000002" y1="494" x2="192.20000000000002" y2="499" stroke="#000000" stroke-width="1" /><text x="312.2" y="511" font-size="12" text-anchor="middle">Q2</text><line x1="312.2" y1="494" x2="312.2" y2="499" stroke="#000000" stroke-width="1" /><text x="432.2" y="511" font-size="12" text-anchor="middle">Q3</text><line x1="432.2" y1="494" x2="432.2" y2="499" stroke="#000000" stroke-width="1" /><text x="552.2" y="511" font-size="12" text-anchor="middle">Q4</text><line x1="552.2" y1="494" x2="552.2" y2="499" stroke="#000000" stroke-width="1" /><line x1="67.2" y1="494" x2="72.2" y2="494" stroke="#000000" stroke-width="1" /><text x="64.2" y="498.2" font-size="12" text-anchor="end">0</text><line x1="67.2" y1="419" x2="72.2" y2="419" stroke="#000000" stroke-width="1" /><text x="64.2" y="423.2" font-size="12" text-anchor="end">10</text><line x1="67.2" y1="344" x2="72.2" y2="344" stroke="#000000" stroke-width="1" /><text x="64.2" y="348.2" font-size="12" text-anchor="end">20</text><line x1="67.2" y1="269" x2="72.2" y2="269" stroke="#000000" stroke-width="1" /><text x="64.2" y="273.2" font-size="12" text-anchor="end">30</text><line x1="67.2" y1="194" x2="72.2" y2="194" stroke="#000000" stroke-width="1" /><text x="64.2" y="198.20000000000002" font-size="12" text-anchor="end">40</text><line x1="67.2" y1="119" x2="72.2" y2="119" stroke="#000000" stroke-width="1" /><text x="64.2" y="123.2" font-size="12" text-anchor="end">50</text><line x1="67.2" y1="44" x2="72.2" y2="44" stroke="#000000" stroke-width="1" /><text x="64.2" y="48.2" font-size="12" text-anchor="end">60</text><text x="7" y="272.5" font-size="14" text-anchor="middle" transform="rotate(-90,7,272.5)">Sales (units)</text><text x="372.2" y="22" font-size="18" text-anchor="middle">Stacked Bar Chart</text><rect x="144.20000000000002" y="359" width="96" height="135" fill="#4682b4" /><rect x="144.20000000000002" y="269" width="96" height="90" fill="#dc143c" /><rect x="144.20000000000002" y="201.5" width="96" height="67.5" fill="seagreen" /><rect x="264.2" y="329" width="96" height="165" fill="#4682b4" /><rect x="264.2" y="201.5" width="96" height="127.5" fill="#dc143c" /><rect x="264.2" y="96.5" width="96" height="105" fill="seagreen" /><rect x="384.2" y="351.5" width="96" height="142.5" fill="#4682b4" /><rect x="384.2" y="194" width="96" height="157.5" fill="#dc143c" /><rect x="384.2" y="111.5" width="96" height="82.5" fill="seagreen" /><rect x="504.2" y="306.5" width="96" height="187.5" fill="#4682b4" /><rect x="504.2" y="194" width="96" height="112.5" fill="#dc143c" /><rect x="504.2" y="59" width="96" height="135" fill="seagreen" /><rect x="677.2" y="34" width="111.5" height="74" fill="#ffffff" /><rect x="677.2" y="34" width="111.5" height="74" fill="none" stroke="#000000" stroke-width="1" /><text x="707.2" y="53.2" font-size="12" text-anchor="start">Product A</text><rect x="687.2" y="43" width="12" height="12" fill="#4682b4" /><text x="707.2" y="71.2" font-size="12" text-anchor="start">Product B</text><rect x="687.2" y="61" width="12" height="12" fill="#dc143c" /><text x="707.2" y="89.2" font-size="12" text-anchor="start">Product C</text><rect x="687.2" y="79" width="12" height="12" fill="seagreen" /></svg>