<svg xmlns="http://www.w3.org/2000/svg" width="678.2" height="545" font-family="DejaVu Sans, Liberation Sans, Arial, sans-serif" fill="black"><rect width="100%" height="100%" fill="white" /><text x="339.1" y="27.400000000000002" font-size="18" text-anchor="middle">3D Scatter — Helix</text><line x1="532.45" y1="353.33" x2="408.99" y2="460.25" stroke="#000000" stroke-width="1" /><line x1="408.99" y1="460.25" x2="195.15" y2="398.52" stroke="#000000" stroke-width="1" /><line x1="195.15" y1="398.52" x2="318.61" y2="291.6" stroke="#cccccc" stroke-width="0.5" /><line x1="318.61" y1="291.6" x2="532.45" y2="353.33" stroke="#cccccc" stroke-width="0.5" /><line x1="195.15" y1="184.67000000000002" x2="318.61" y2="77.75" stroke="#000000" stroke-width="1" /><line x1="318.61" y1="77.75" x2="532.45" y2="139.48" stroke="#000000" stroke-width="1" /><line x1="532.45" y1="353.33" x2="532.45" y2="139.48" stroke="#000000" stroke-width="1" /><line x1="195.15" y1="398.52" x2="195.15" y2="184.67000000000002" stroke="#000000" stroke-width="1" /><line x1="318.61" y1="291.6" x2="318.61" y2="77.75" stroke="#cccccc" stroke-width="0.5" /><path d="M 532.45 353.33 L 408.99 460.25 L 195.15 398.52 L 318.61 291.6 Z" stroke="none" stroke-width="0" fill="#cccccc" fill-opacity="0.15" /><path d="M 532.45 353.33 L 318.61 291.6 L 318.61 77.75 L 532.45 139.48 Z" stroke="none" stroke-width="0" fill="#cccccc" fill-opacity="0.15" /><path d="M 318.61 291.6 L 195.15 398.52 L 195.15 184.67000000000002 L 318.61 77.75 Z" stroke="none" stroke-width="0" fill="#cccccc" fill-opacity="0.15" /><line x1="532.45" y1="353.33" x2="408.99" y2="460.25" stroke="#cccccc" stroke-width="0.5" /><line x1="532.45" y1="353.33" x2="318.61" y2="291.6" stroke="#cccccc" stroke-width="0.5" /><line x1="532.45" y1="353.33" x2="532.45" y2="139.48" stroke="#cccccc" stroke-width="0.5" /><line x1="532.45" y1="353.33" x2="318.61" y2="291.6" stroke="#cccccc" stroke-width="0.5" /><line x1="318.61" y1="291.6" x2="318.61" y2="77.75" stroke="#cccccc" stroke-width="0.5" /><line x1="318.61" y1="291.6" x2="195.15" y2="398.52" stroke="#cccccc" stroke-width="0.5" /><line x1="489.69" y1="340.98" x2="366.22" y2="447.90000000000003" stroke="#cccccc" stroke-width="0.5" /><line x1="507.76" y1="374.71" x2="293.92" y2="312.98" stroke="#cccccc" stroke-width="0.5" /><line x1="489.69" y1="340.98" x2="489.69" y2="127.14" stroke="#cccccc" stroke-width="0.5" /><line x1="532.45" y1="310.56" x2="318.61" y2="248.83" stroke="#cccccc" stroke-width="0.5" /><line x1="293.92" y1="312.98" x2="293.92" y2="99.13" stroke="#cccccc" stroke-width="0.5" /><line x1="318.61" y1="248.83" x2="195.15" y2="355.75" stroke="#cccccc" stroke-width="0.5" /><line x1="446.92" y1="328.63" x2="323.45" y2="435.56" stroke="#cccccc" stroke-width="0.5" /><line x1="483.07" y1="396.1" x2="269.22" y2="334.36" stroke="#cccccc" stroke-width="0.5" /><line x1="446.92" y1="328.63" x2="446.92" y2="114.79" stroke="#cccccc" stroke-width="0.5" /><line x1="532.45" y1="267.79" x2="318.61" y2="206.06" stroke="#cccccc" stroke-width="0.5" /><line x1="269.22" y1="334.36" x2="269.22" y2="120.52" stroke="#cccccc" stroke-width="0.5" /><line x1="318.61" y1="206.06" x2="195.15" y2="312.98" stroke="#cccccc" stroke-width="0.5" /><line x1="404.15000000000003" y1="316.29" x2="280.68" y2="423.21000000000004" stroke="#cccccc" stroke-width="0.5" /><line x1="458.38" y1="417.48" x2="244.53" y2="355.75" stroke="#cccccc" stroke-width="0.5" /><line x1="404.15000000000003" y1="316.29" x2="404.15000000000003" y2="102.44" stroke="#cccccc" stroke-width="0.5" /><line x1="532.45" y1="225.02" x2="318.61" y2="163.29" stroke="#cccccc" stroke-width="0.5" /><line x1="244.53" y1="355.75" x2="244.53" y2="141.9" stroke="#cccccc" stroke-width="0.5" /><line x1="318.61" y1="163.29" x2="195.15" y2="270.21" stroke="#cccccc" stroke-width="0.5" /><line x1="361.38" y1="303.94" x2="237.91" y2="410.86" stroke="#cccccc" stroke-width="0.5" /><line x1="433.68" y1="438.87" x2="219.84" y2="377.13" stroke="#cccccc" stroke-width="0.5" /><line x1="361.38" y1="303.94" x2="361.38" y2="90.10000000000001" stroke="#cccccc" stroke-width="0.5" /><line x1="532.45" y1="182.25" x2="318.61" y2="120.52" stroke="#cccccc" stroke-width="0.5" /><line x1="219.84" y1="377.13" x2="219.84" y2="163.29" stroke="#cccccc" stroke-width="0.5" /><line x1="318.61" y1="120.52" x2="195.15" y2="227.44" stroke="#cccccc" stroke-width="0.5" /><line x1="318.61" y1="291.6" x2="195.15" y2="398.52" stroke="#cccccc" stroke-width="0.5" /><line x1="408.99" y1="460.25" x2="195.15" y2="398.52" stroke="#cccccc" stroke-width="0.5" /><line x1="318.61" y1="291.6" x2="318.61" y2="77.75" stroke="#cccccc" stroke-width="0.5" /><line x1="532.45" y1="139.48" x2="318.61" y2="77.75" stroke="#cccccc" stroke-width="0.5" /><line x1="195.15" y1="398.52" x2="195.15" y2="184.67000000000002" stroke="#cccccc" stroke-width="0.5" /><line x1="318.61" y1="77.75" x2="195.15" y2="184.67000000000002" stroke="#cccccc" stroke-width="0.5" /><line x1="433.52" y1="439.01" x2="439.29" y2="440.67" stroke="#000000" stroke-width="0.8" /><text x="448.89" y="446.44" font-size="10" text-anchor="middle" transform="rotate(-40.89,448.89,446.44)">-1</text><line x1="458.99" y1="416.95" x2="464.75" y2="418.62" stroke="#000000" stroke-width="0.8" /><text x="474.36" y="424.39" font-size="10" text-anchor="middle" transform="rotate(-40.89,474.36,424.39)">0</text><line x1="484.45" y1="394.90000000000003" x2="490.22" y2="396.56" stroke="#000000" stroke-width="0.8" /><text x="499.83" y="402.34000000000003" font-size="10" text-anchor="middle" transform="rotate(-40.89,499.83,402.34000000000003)">1</text><line x1="509.92" y1="372.84000000000003" x2="515.6800000000001" y2="374.51" stroke="#000000" stroke-width="0.8" /><text x="525.29" y="380.28000000000003" font-size="10" text-anchor="middle" transform="rotate(-40.89,525.29,380.28000000000003)">2</text><text x="511.08" y="422.44" font-size="12" text-anchor="middle" font-weight="bold" transform="rotate(-40.89,511.08,422.44)">X</text><line x1="218.56" y1="405.28000000000003" x2="214.02" y2="409.2" stroke="#000000" stroke-width="0.8" /><text x="206.46" y="418.75" font-size="10" text-anchor="middle" transform="rotate(16.1,206.46,418.75)">-2</text><line x1="272.97" y1="420.98" x2="268.43" y2="424.91" stroke="#000000" stroke-width="0.8" /><text x="260.87" y="434.46000000000004" font-size="10" text-anchor="middle" transform="rotate(16.1,260.87,434.46000000000004)">-1</text><line x1="327.38" y1="436.69" x2="322.84000000000003" y2="440.62" stroke="#000000" stroke-width="0.8" /><text x="315.28000000000003" y="450.16" font-size="10" text-anchor="middle" transform="rotate(16.1,315.28000000000003,450.16)">0</text><line x1="381.79" y1="452.40000000000003" x2="377.25" y2="456.32" stroke="#000000" stroke-width="0.8" /><text x="369.69" y="465.87" font-size="10" text-anchor="middle" transform="rotate(16.1,369.69,465.87)">1</text><text x="270.32" y="460.88" font-size="12" text-anchor="middle" font-weight="bold" transform="rotate(16.1,270.32,460.88)">Y</text><line x1="532.45" y1="353.33" x2="538.4" y2="352.53000000000003" stroke="#000000" stroke-width="0.8" /><text x="548.3100000000001" y="354.2" font-size="10" text-anchor="start" transform="rotate(-90,548.3100000000001,354.2)">0</text><line x1="532.45" y1="319.29" x2="538.4" y2="318.5" stroke="#000000" stroke-width="0.8" /><text x="548.3100000000001" y="320.17" font-size="10" text-anchor="start" transform="rotate(-90,548.3100000000001,320.17)">1</text><line x1="532.45" y1="285.26" x2="538.4" y2="284.46" stroke="#000000" stroke-width="0.8" /><text x="548.3100000000001" y="286.13" font-size="10" text-anchor="start" transform="rotate(-90,548.3100000000001,286.13)">2</text><line x1="532.45" y1="251.22" x2="538.4" y2="250.43" stroke="#000000" stroke-width="0.8" /><text x="548.3100000000001" y="252.1" font-size="10" text-anchor="start" transform="rotate(-90,548.3100000000001,252.1)">3</text><line x1="532.45" y1="217.19" x2="538.4" y2="216.39000000000001" stroke="#000000" stroke-width="0.8" /><text x="548.3100000000001" y="218.06" font-size="10" text-anchor="start" transform="rotate(-90,548.3100000000001,218.06)">4</text><line x1="532.45" y1="183.15" x2="538.4" y2="182.36" stroke="#000000" stroke-width="0.8" /><text x="548.3100000000001" y="184.03" font-size="10" text-anchor="start" transform="rotate(-90,548.3100000000001,184.03)">5</text><line x1="532.45" y1="149.12" x2="538.4" y2="148.32" stroke="#000000" stroke-width="0.8" /><text x="548.3100000000001" y="150" font-size="10" text-anchor="start" transform="rotate(-90,548.3100000000001,150)">6</text><text x="580.03" y="244.03" font-size="12" text-anchor="middle" font-weight="bold" transform="rotate(-90,580.03,244.03)">Z</text><circle cx="402.84000000000003" cy="371.34000000000003" r="3" fill="#4682b4" /><circle cx="410.83" cy="368.40000000000003" r="3" fill="#4682b4" /><circle cx="418.76" cy="365.98" r="3" fill="#4682b4" /><circle cx="426.48" cy="364.07" r="3" fill="#4682b4" /><circle cx="344.7" cy="128.48" r="3" fill="#4682b4" /><circle cx="325.46" cy="134.68" r="3" fill="#4682b4" /><circle cx="365.05" cy="123.47" r="3" fill="#4682b4" /><circle cx="433.78000000000003" cy="362.66" r="3" fill="#4682b4" /><circle cx="307.63" cy="142.01" r="3" fill="#4682b4" /><circle cx="386.2" cy="119.7" r="3" fill="#4682b4" /><circle cx="291.48" cy="150.38" r="3" fill="#4682b4" /><circle cx="407.79" cy="117.18" r="3" fill="#4682b4" /><circle cx="440.51" cy="361.7" r="3" fill="#4682b4" /><circle cx="277.23" cy="159.70000000000002" r="3" fill="#4682b4" /><circle cx="429.46000000000004" cy="115.93" r="3" fill="#4682b4" /><circle cx="446.48" cy="361.16" r="3" fill="#4682b4" /><circle cx="265.07" cy="169.85" r="3" fill="#4682b4" /><circle cx="450.84000000000003" cy="115.92" r="3" fill="#4682b4" /><circle cx="451.52" cy="360.98" r="3" fill="#4682b4" /><circle cx="255.15" cy="180.72" r="3" fill="#4682b4" /><circle cx="247.56" cy="192.16" r="3" fill="#4682b4" /><circle cx="455.48" cy="361.09000000000003" r="3" fill="#4682b4" /><circle cx="242.38" cy="204.05" r="3" fill="#4682b4" /><circle cx="458.23" cy="361.43" r="3" fill="#4682b4" /><circle cx="239.61" cy="216.23000000000002" r="3" fill="#4682b4" /><circle cx="459.63" cy="361.91" r="3" fill="#4682b4" /><circle cx="239.23000000000002" cy="228.57" r="3" fill="#4682b4" /><circle cx="459.6" cy="362.44" r="3" fill="#4682b4" /><circle cx="458.05" cy="362.93" r="3" fill="#4682b4" /><circle cx="241.16" cy="240.92000000000002" r="3" fill="#4682b4" /><circle cx="454.95" cy="363.29" r="3" fill="#4682b4" /><circle cx="245.31" cy="253.15" r="3" fill="#4682b4" /><circle cx="450.27" cy="363.40000000000003" r="3" fill="#4682b4" /><circle cx="251.52" cy="265.12" r="3" fill="#4682b4" /><circle cx="444.03000000000003" cy="363.19" r="3" fill="#4682b4" /><circle cx="259.63" cy="276.71" r="3" fill="#4682b4" /><circle cx="436.28000000000003" cy="362.54" r="3" fill="#4682b4" /><circle cx="269.42" cy="287.8" r="3" fill="#4682b4" /><circle cx="427.09000000000003" cy="361.38" r="3" fill="#4682b4" /><circle cx="280.68" cy="298.31" r="3" fill="#4682b4" /><circle cx="416.57" cy="359.61" r="3" fill="#4682b4" /><circle cx="293.15000000000003" cy="308.14" r="3" fill="#4682b4" /><circle cx="404.86" cy="357.16" r="3" fill="#4682b4" /><circle cx="306.57" cy="317.22" r="3" fill="#4682b4" /><circle cx="392.13" cy="353.97" r="3" fill="#4682b4" /><circle cx="320.68" cy="325.49" r="3" fill="#4682b4" /><circle cx="378.57" cy="349.99" r="3" fill="#4682b4" /><circle cx="335.2" cy="332.91" r="3" fill="#4682b4" /><circle cx="364.41" cy="345.16" r="3" fill="#4682b4" /><circle cx="349.86" cy="339.47" r="3" fill="#4682b4" /></svg>