<svg xmlns="http://www.w3.org/2000/svg" width="678.2" height="545" font-family="DejaVu Sans, Liberation Sans, Arial, sans-serif" fill="black"><rect width="100%" height="100%" fill="white" /><text x="339.1" y="27.400000000000002" font-size="18" text-anchor="middle">3D Scatter — Custom View</text><line x1="413.56" y1="333.23" x2="549.49" y2="413.76" stroke="#cccccc" stroke-width="0.5" /><line x1="549.49" y1="413.76" x2="314.04" y2="460.25" stroke="#000000" stroke-width="1" /><line x1="314.04" y1="460.25" x2="178.11" y2="379.72" stroke="#000000" stroke-width="1" /><line x1="178.11" y1="379.72" x2="413.56" y2="333.23" stroke="#cccccc" stroke-width="0.5" /><line x1="413.56" y1="77.75" x2="549.49" y2="158.28" stroke="#000000" stroke-width="1" /><line x1="178.11" y1="124.24000000000001" x2="413.56" y2="77.75" stroke="#000000" stroke-width="1" /><line x1="413.56" y1="333.23" x2="413.56" y2="77.75" stroke="#cccccc" stroke-width="0.5" /><line x1="549.49" y1="413.76" x2="549.49" y2="158.28" stroke="#000000" stroke-width="1" /><line x1="178.11" y1="379.72" x2="178.11" y2="124.24000000000001" stroke="#000000" stroke-width="1" /><path d="M 413.56 333.23 L 549.49 413.76 L 314.04 460.25 L 178.11 379.72 Z" stroke="none" stroke-width="0" fill="#cccccc" fill-opacity="0.15" /><path d="M 413.56 333.23 L 178.11 379.72 L 178.11 124.24000000000001 L 413.56 77.75 Z" stroke="none" stroke-width="0" fill="#cccccc" fill-opacity="0.15" /><path d="M 413.56 333.23 L 549.49 413.76 L 549.49 158.28 L 413.56 77.75 Z" stroke="none" stroke-width="0" fill="#cccccc" fill-opacity="0.15" /><line x1="413.56" y1="333.23" x2="549.49" y2="413.76" stroke="#cccccc" stroke-width="0.5" /><line x1="413.56" y1="333.23" x2="178.11" y2="379.72" stroke="#cccccc" stroke-width="0.5" /><line x1="413.56" y1="333.23" x2="413.56" y2="77.75" stroke="#cccccc" stroke-width="0.5" /><line x1="413.56" y1="333.23" x2="178.11" y2="379.72" stroke="#cccccc" stroke-width="0.5" /><line x1="413.56" y1="333.23" x2="413.56" y2="77.75" stroke="#cccccc" stroke-width="0.5" /><line x1="413.56" y1="333.23" x2="549.49" y2="413.76" stroke="#cccccc" stroke-width="0.5" /><line x1="366.47" y1="342.53000000000003" x2="502.40000000000003" y2="423.06" stroke="#cccccc" stroke-width="0.5" /><line x1="440.74" y1="349.33" x2="205.29" y2="395.83" stroke="#cccccc" stroke-width="0.5" /><line x1="366.47" y1="342.53000000000003" x2="366.47" y2="87.05" stroke="#cccccc" stroke-width="0.5" /><line x1="413.56" y1="282.13" x2="178.11" y2="328.63" stroke="#cccccc" stroke-width="0.5" /><line x1="440.74" y1="349.33" x2="440.74" y2="93.86" stroke="#cccccc" stroke-width="0.5" /><line x1="413.56" y1="282.13" x2="549.49" y2="362.66" stroke="#cccccc" stroke-width="0.5" /><line x1="319.38" y1="351.83" x2="455.31" y2="432.35" stroke="#cccccc" stroke-width="0.5" /><line x1="467.93" y1="365.44" x2="232.48000000000002" y2="411.93" stroke="#cccccc" stroke-width="0.5" /><line x1="319.38" y1="351.83" x2="319.38" y2="96.35000000000001" stroke="#cccccc" stroke-width="0.5" /><line x1="413.56" y1="231.04" x2="178.11" y2="277.53000000000003" stroke="#cccccc" stroke-width="0.5" /><line x1="467.93" y1="365.44" x2="467.93" y2="109.96000000000001" stroke="#cccccc" stroke-width="0.5" /><line x1="413.56" y1="231.04" x2="549.49" y2="311.57" stroke="#cccccc" stroke-width="0.5" /><line x1="272.29" y1="361.12" x2="408.22" y2="441.65000000000003" stroke="#cccccc" stroke-width="0.5" /><line x1="495.12" y1="381.55" x2="259.67" y2="428.04" stroke="#cccccc" stroke-width="0.5" /><line x1="272.29" y1="361.12" x2="272.29" y2="105.65" stroke="#cccccc" stroke-width="0.5" /><line x1="413.56" y1="179.94" x2="178.11" y2="226.43" stroke="#cccccc" stroke-width="0.5" /><line x1="495.12" y1="381.55" x2="495.12" y2="126.07000000000001" stroke="#cccccc" stroke-width="0.5" /><line x1="413.56" y1="179.94" x2="549.49" y2="260.47" stroke="#cccccc" stroke-width="0.5" /><line x1="225.20000000000002" y1="370.42" x2="361.13" y2="450.95" stroke="#cccccc" stroke-width="0.5" /><line x1="522.3100000000001" y1="397.65000000000003" x2="286.86" y2="444.14" stroke="#cccccc" stroke-width="0.5" /><line x1="225.20000000000002" y1="370.42" x2="225.20000000000002" y2="114.94" stroke="#cccccc" stroke-width="0.5" /><line x1="413.56" y1="128.85" x2="178.11" y2="175.34" stroke="#cccccc" stroke-width="0.5" /><line x1="522.3100000000001" y1="397.65000000000003" x2="522.3100000000001" y2="142.17000000000002" stroke="#cccccc" stroke-width="0.5" /><line x1="413.56" y1="128.85" x2="549.49" y2="209.37" stroke="#cccccc" stroke-width="0.5" /><line x1="178.11" y1="379.72" x2="314.04" y2="460.25" stroke="#cccccc" stroke-width="0.5" /><line x1="549.49" y1="413.76" x2="314.04" y2="460.25" stroke="#cccccc" stroke-width="0.5" /><line x1="178.11" y1="379.72" x2="178.11" y2="124.24000000000001" stroke="#cccccc" stroke-width="0.5" /><line x1="413.56" y1="77.75" x2="178.11" y2="124.24000000000001" stroke="#cccccc" stroke-width="0.5" /><line x1="549.49" y1="413.76" x2="549.49" y2="158.28" stroke="#cccccc" stroke-width="0.5" /><line x1="413.56" y1="77.75" x2="549.49" y2="158.28" stroke="#cccccc" stroke-width="0.5" /><line x1="314.04" y1="460.25" x2="308.16" y2="461.41" stroke="#000000" stroke-width="0.8" /><text x="298.35" y="466.35" font-size="10" text-anchor="middle" transform="rotate(30.64,298.35,466.35)">0</text><line x1="286.86" y1="444.14" x2="280.97" y2="445.31" stroke="#000000" stroke-width="0.8" /><text x="271.16" y="450.24" font-size="10" text-anchor="middle" transform="rotate(30.64,271.16,450.24)">2</text><line x1="259.67" y1="428.04" x2="253.78" y2="429.2" stroke="#000000" stroke-width="0.8" /><text x="243.97" y="434.14" font-size="10" text-anchor="middle" transform="rotate(30.64,243.97,434.14)">4</text><line x1="232.48000000000002" y1="411.93" x2="226.59" y2="413.1" stroke="#000000" stroke-width="0.8" /><text x="216.78" y="418.03000000000003" font-size="10" text-anchor="middle" transform="rotate(30.64,216.78,418.03000000000003)">6</text><line x1="205.29" y1="395.83" x2="199.41" y2="396.99" stroke="#000000" stroke-width="0.8" /><text x="189.6" y="401.93" font-size="10" text-anchor="middle" transform="rotate(30.64,189.6,401.93)">8</text><line x1="178.11" y1="379.72" x2="172.22" y2="380.88" stroke="#000000" stroke-width="0.8" /><text x="162.41" y="385.82" font-size="10" text-anchor="middle" transform="rotate(30.64,162.41,385.82)">10</text><text x="204.87" y="432.12" font-size="12" text-anchor="middle" font-weight="bold" transform="rotate(30.64,204.87,432.12)">X</text><line x1="501.64" y1="423.21000000000004" x2="506.8" y2="426.27" stroke="#000000" stroke-width="0.8" /><text x="515.4" y="434.36" font-size="10" text-anchor="middle" transform="rotate(-11.17,515.4,434.36)">-2</text><line x1="447.98" y1="433.8" x2="453.14" y2="436.86" stroke="#000000" stroke-width="0.8" /><text x="461.75" y="444.96000000000004" font-size="10" text-anchor="middle" transform="rotate(-11.17,461.75,444.96000000000004)">0</text><line x1="394.33" y1="444.40000000000003" x2="399.49" y2="447.45" stroke="#000000" stroke-width="0.8" /><text x="408.1" y="455.55" font-size="10" text-anchor="middle" transform="rotate(-11.17,408.1,455.55)">2</text><line x1="340.68" y1="454.99" x2="345.84000000000003" y2="458.05" stroke="#000000" stroke-width="0.8" /><text x="354.44" y="466.15000000000003" font-size="10" text-anchor="middle" transform="rotate(-11.17,354.44,466.15000000000003)">4</text><text x="467.90000000000003" y="462.41" font-size="12" text-anchor="middle" font-weight="bold" transform="rotate(-11.17,467.90000000000003,462.41)">Y</text><line x1="549.49" y1="389.37" x2="555.47" y2="389.91" stroke="#000000" stroke-width="0.8" /><text x="565.4300000000001" y="393.83" font-size="10" text-anchor="start" transform="rotate(-90,565.4300000000001,393.83)">-4</text><line x1="549.49" y1="338.01" x2="555.47" y2="338.56" stroke="#000000" stroke-width="0.8" /><text x="565.4300000000001" y="342.47" font-size="10" text-anchor="start" transform="rotate(-90,565.4300000000001,342.47)">-2</text><line x1="549.49" y1="286.66" x2="555.47" y2="287.21" stroke="#000000" stroke-width="0.8" /><text x="565.4300000000001" y="291.12" font-size="10" text-anchor="start" transform="rotate(-90,565.4300000000001,291.12)">0</text><line x1="549.49" y1="235.31" x2="555.47" y2="235.86" stroke="#000000" stroke-width="0.8" /><text x="565.4300000000001" y="239.77" font-size="10" text-anchor="start" transform="rotate(-90,565.4300000000001,239.77)">2</text><line x1="549.49" y1="183.95000000000002" x2="555.47" y2="184.5" stroke="#000000" stroke-width="0.8" /><text x="565.4300000000001" y="188.42000000000002" font-size="10" text-anchor="start" transform="rotate(-90,565.4300000000001,188.42000000000002)">4</text><text x="597.29" y="294.40000000000003" font-size="12" text-anchor="middle" font-weight="bold" transform="rotate(-90,597.29,294.40000000000003)">Z</text><circle cx="413.56" cy="333.23" r="3" fill="#dc143c" fill-opacity="0.3" /><circle cx="405.23" cy="336.03000000000003" r="3" fill="#dc143c" fill-opacity="0.33" /><circle cx="395.21000000000004" cy="337.82" r="3" fill="#dc143c" fill-opacity="0.36" /><circle cx="383.8" cy="338.61" r="3" fill="#dc143c" fill-opacity="0.4" /><circle cx="371.29" cy="338.37" r="3" fill="#dc143c" fill-opacity="0.43" /><circle cx="358.01" cy="337.12" r="3" fill="#dc143c" fill-opacity="0.47000000000000003" /><circle cx="344.3" cy="334.87" r="3" fill="#dc143c" fill-opacity="0.51" /><circle cx="330.52" cy="331.65000000000003" r="3" fill="#dc143c" fill-opacity="0.55" /><circle cx="317.01" cy="327.48" r="3" fill="#dc143c" fill-opacity="0.59" /><circle cx="304.11" cy="322.41" r="3" fill="#dc143c" fill-opacity="0.63" /><circle cx="292.17" cy="316.5" r="3" fill="#dc143c" fill-opacity="0.67" /><circle cx="281.49" cy="309.8" r="3" fill="#dc143c" fill-opacity="0.71" /><circle cx="272.38" cy="302.41" r="3" fill="#dc143c" fill-opacity="0.74" /><circle cx="265.09000000000003" cy="294.40000000000003" r="3" fill="#dc143c" fill-opacity="0.78" /><circle cx="259.84000000000003" cy="285.87" r="3" fill="#dc143c" fill-opacity="0.81" /><circle cx="256.84000000000003" cy="276.93" r="3" fill="#dc143c" fill-opacity="0.84" /><circle cx="256.21" cy="267.68" r="3" fill="#dc143c" fill-opacity="0.87" /><circle cx="258.08" cy="258.24" r="3" fill="#dc143c" fill-opacity="0.9" /><circle cx="262.48" cy="248.76000000000002" r="3" fill="#dc143c" fill-opacity="0.92" /><circle cx="269.43" cy="239.34" r="3" fill="#dc143c" fill-opacity="0.9400000000000001" /><circle cx="278.88" cy="230.13" r="3" fill="#dc143c" fill-opacity="0.96" /><circle cx="290.73" cy="221.27" r="3" fill="#dc143c" fill-opacity="0.97" /><circle cx="304.87" cy="212.88" r="3" fill="#dc143c" fill-opacity="0.98" /><circle cx="321.1" cy="205.11" r="3" fill="#dc143c" fill-opacity="0.99" /><circle cx="447.98" cy="178.32" r="3" fill="#dc143c" fill-opacity="0.99" /><circle cx="339.2" cy="198.09" r="3" fill="#dc143c" fill-opacity="1" /><circle cx="424.85" cy="179.87" r="3" fill="#dc143c" fill-opacity="1" /><circle cx="402.07" cy="182.72" r="3" fill="#dc143c" fill-opacity="1" /><circle cx="358.93" cy="191.93" r="3" fill="#dc143c" fill-opacity="1" /><circle cx="379.99" cy="186.78" r="3" fill="#dc143c" fill-opacity="1" /></svg>