<svg xmlns="http://www.w3.org/2000/svg" width="767.8000000000001" height="545" font-family="DejaVu Sans, Liberation Sans, Arial, sans-serif" fill="black"><rect width="100%" height="100%" fill="white" /><text x="383.90000000000003" y="27.400000000000002" font-size="18" text-anchor="middle">3D Scatter — Z Colormap</text><line x1="532.45" y1="353.33" x2="408.99" y2="460.25" stroke="#000000" stroke-width="1" /><line x1="408.99" y1="460.25" x2="195.15" y2="398.52" stroke="#000000" stroke-width="1" /><line x1="195.15" y1="398.52" x2="318.61" y2="291.6" stroke="#cccccc" stroke-width="0.5" /><line x1="318.61" y1="291.6" x2="532.45" y2="353.33" stroke="#cccccc" stroke-width="0.5" /><line x1="195.15" y1="184.67000000000002" x2="318.61" y2="77.75" stroke="#000000" stroke-width="1" /><line x1="318.61" y1="77.75" x2="532.45" y2="139.48" stroke="#000000" stroke-width="1" /><line x1="532.45" y1="353.33" x2="532.45" y2="139.48" stroke="#000000" stroke-width="1" /><line x1="195.15" y1="398.52" x2="195.15" y2="184.67000000000002" stroke="#000000" stroke-width="1" /><line x1="318.61" y1="291.6" x2="318.61" y2="77.75" stroke="#cccccc" stroke-width="0.5" /><path d="M 532.45 353.33 L 408.99 460.25 L 195.15 398.52 L 318.61 291.6 Z" stroke="none" stroke-width="0" fill="#cccccc" fill-opacity="0.15" /><path d="M 532.45 353.33 L 318.61 291.6 L 318.61 77.75 L 532.45 139.48 Z" stroke="none" stroke-width="0" fill="#cccccc" fill-opacity="0.15" /><path d="M 318.61 291.6 L 195.15 398.52 L 195.15 184.67000000000002 L 318.61 77.75 Z" stroke="none" stroke-width="0" fill="#cccccc" fill-opacity="0.15" /><line x1="532.45" y1="353.33" x2="408.99" y2="460.25" stroke="#cccccc" stroke-width="0.5" /><line x1="532.45" y1="353.33" x2="318.61" y2="291.6" stroke="#cccccc" stroke-width="0.5" /><line x1="532.45" y1="353.33" x2="532.45" y2="139.48" stroke="#cccccc" stroke-width="0.5" /><line x1="532.45" y1="353.33" x2="318.61" y2="291.6" stroke="#cccccc" stroke-width="0.5" /><line x1="318.61" y1="291.6" x2="318.61" y2="77.75" stroke="#cccccc" stroke-width="0.5" /><line x1="318.61" y1="291.6" x2="195.15" y2="398.52" stroke="#cccccc" stroke-width="0.5" /><line x1="489.69" y1="340.98" x2="366.22" y2="447.90000000000003" stroke="#cccccc" stroke-width="0.5" /><line x1="507.76" y1="374.71" x2="293.92" y2="312.98" stroke="#cccccc" stroke-width="0.5" /><line x1="489.69" y1="340.98" x2="489.69" y2="127.14" stroke="#cccccc" stroke-width="0.5" /><line x1="532.45" y1="310.56" x2="318.61" y2="248.83" stroke="#cccccc" stroke-width="0.5" /><line x1="293.92" y1="312.98" x2="293.92" y2="99.13" stroke="#cccccc" stroke-width="0.5" /><line x1="318.61" y1="248.83" x2="195.15" y2="355.75" stroke="#cccccc" stroke-width="0.5" /><line x1="446.92" y1="328.63" x2="323.45" y2="435.56" stroke="#cccccc" stroke-width="0.5" /><line x1="483.07" y1="396.1" x2="269.22" y2="334.36" stroke="#cccccc" stroke-width="0.5" /><line x1="446.92" y1="328.63" x2="446.92" y2="114.79" stroke="#cccccc" stroke-width="0.5" /><line x1="532.45" y1="267.79" x2="318.61" y2="206.06" stroke="#cccccc" stroke-width="0.5" /><line x1="269.22" y1="334.36" x2="269.22" y2="120.52" stroke="#cccccc" stroke-width="0.5" /><line x1="318.61" y1="206.06" x2="195.15" y2="312.98" stroke="#cccccc" stroke-width="0.5" /><line x1="404.15000000000003" y1="316.29" x2="280.68" y2="423.21000000000004" stroke="#cccccc" stroke-width="0.5" /><line x1="458.38" y1="417.48" x2="244.53" y2="355.75" stroke="#cccccc" stroke-width="0.5" /><line x1="404.15000000000003" y1="316.29" x2="404.15000000000003" y2="102.44" stroke="#cccccc" stroke-width="0.5" /><line x1="532.45" y1="225.02" x2="318.61" y2="163.29" stroke="#cccccc" stroke-width="0.5" /><line x1="244.53" y1="355.75" x2="244.53" y2="141.9" stroke="#cccccc" stroke-width="0.5" /><line x1="318.61" y1="163.29" x2="195.15" y2="270.21" stroke="#cccccc" stroke-width="0.5" /><line x1="361.38" y1="303.94" x2="237.91" y2="410.86" stroke="#cccccc" stroke-width="0.5" /><line x1="433.68" y1="438.87" x2="219.84" y2="377.13" stroke="#cccccc" stroke-width="0.5" /><line x1="361.38" y1="303.94" x2="361.38" y2="90.10000000000001" stroke="#cccccc" stroke-width="0.5" /><line x1="532.45" y1="182.25" x2="318.61" y2="120.52" stroke="#cccccc" stroke-width="0.5" /><line x1="219.84" y1="377.13" x2="219.84" y2="163.29" stroke="#cccccc" stroke-width="0.5" /><line x1="318.61" y1="120.52" x2="195.15" y2="227.44" stroke="#cccccc" stroke-width="0.5" /><line x1="318.61" y1="291.6" x2="195.15" y2="398.52" stroke="#cccccc" stroke-width="0.5" /><line x1="408.99" y1="460.25" x2="195.15" y2="398.52" stroke="#cccccc" stroke-width="0.5" /><line x1="318.61" y1="291.6" x2="318.61" y2="77.75" stroke="#cccccc" stroke-width="0.5" /><line x1="532.45" y1="139.48" x2="318.61" y2="77.75" stroke="#cccccc" stroke-width="0.5" /><line x1="195.15" y1="398.52" x2="195.15" y2="184.67000000000002" stroke="#cccccc" stroke-width="0.5" /><line x1="318.61" y1="77.75" x2="195.15" y2="184.67000000000002" stroke="#cccccc" stroke-width="0.5" /><line x1="421.34000000000003" y1="449.56" x2="427.1" y2="451.22" stroke="#000000" stroke-width="0.8" /><text x="436.71000000000004" y="457" font-size="10" text-anchor="middle" transform="rotate(-40.89,436.71000000000004,457)">-4</text><line x1="446.03000000000003" y1="428.17" x2="451.79" y2="429.84000000000003" stroke="#000000" stroke-width="0.8" /><text x="461.40000000000003" y="435.61" font-size="10" text-anchor="middle" transform="rotate(-40.89,461.40000000000003,435.61)">-2</text><line x1="470.72" y1="406.79" x2="476.49" y2="408.45" stroke="#000000" stroke-width="0.8" /><text x="486.1" y="414.23" font-size="10" text-anchor="middle" transform="rotate(-40.89,486.1,414.23)">0</text><line x1="495.42" y1="385.40000000000003" x2="501.18" y2="387.07" stroke="#000000" stroke-width="0.8" /><text x="510.79" y="392.84000000000003" font-size="10" text-anchor="middle" transform="rotate(-40.89,510.79,392.84000000000003)">2</text><line x1="520.11" y1="364.02" x2="525.87" y2="365.68" stroke="#000000" stroke-width="0.8" /><text x="535.48" y="371.46" font-size="10" text-anchor="middle" transform="rotate(-40.89,535.48,371.46)">4</text><text x="511.08" y="422.44" font-size="12" text-anchor="middle" font-weight="bold" transform="rotate(-40.89,511.08,422.44)">X</text><line x1="230.78" y1="408.8" x2="226.24" y2="412.73" stroke="#000000" stroke-width="0.8" /><text x="218.68" y="422.28000000000003" font-size="10" text-anchor="middle" transform="rotate(16.1,218.68,422.28000000000003)">-2</text><line x1="266.42" y1="419.09000000000003" x2="261.88" y2="423.02" stroke="#000000" stroke-width="0.8" /><text x="254.32" y="432.57" font-size="10" text-anchor="middle" transform="rotate(16.1,254.32,432.57)">-1</text><line x1="302.06" y1="429.38" x2="297.53000000000003" y2="433.31" stroke="#000000" stroke-width="0.8" /><text x="289.97" y="442.86" font-size="10" text-anchor="middle" transform="rotate(16.1,289.97,442.86)">0</text><line x1="337.71" y1="439.67" x2="333.17" y2="443.6" stroke="#000000" stroke-width="0.8" /><text x="325.61" y="453.15000000000003" font-size="10" text-anchor="middle" transform="rotate(16.1,325.61,453.15000000000003)">1</text><line x1="373.35" y1="449.96000000000004" x2="368.81" y2="453.89" stroke="#000000" stroke-width="0.8" /><text x="361.25" y="463.44" font-size="10" text-anchor="middle" transform="rotate(16.1,361.25,463.44)">2</text><text x="270.32" y="460.88" font-size="12" text-anchor="middle" font-weight="bold" transform="rotate(16.1,270.32,460.88)">Y</text><line x1="532.45" y1="312.04" x2="538.4" y2="311.24" stroke="#000000" stroke-width="0.8" /><text x="548.3100000000001" y="312.91" font-size="10" text-anchor="start" transform="rotate(-90,548.3100000000001,312.91)">5</text><line x1="532.45" y1="270.36" x2="538.4" y2="269.57" stroke="#000000" stroke-width="0.8" /><text x="548.3100000000001" y="271.24" font-size="10" text-anchor="start" transform="rotate(-90,548.3100000000001,271.24)">10</text><line x1="532.45" y1="228.69" x2="538.4" y2="227.89000000000001" stroke="#000000" stroke-width="0.8" /><text x="548.3100000000001" y="229.56" font-size="10" text-anchor="start" transform="rotate(-90,548.3100000000001,229.56)">15</text><line x1="532.45" y1="187.01" x2="538.4" y2="186.22" stroke="#000000" stroke-width="0.8" /><text x="548.3100000000001" y="187.89000000000001" font-size="10" text-anchor="start" transform="rotate(-90,548.3100000000001,187.89000000000001)">20</text><line x1="532.45" y1="145.34" x2="538.4" y2="144.54" stroke="#000000" stroke-width="0.8" /><text x="548.3100000000001" y="146.21" font-size="10" text-anchor="start" transform="rotate(-90,548.3100000000001,146.21)">25</text><text x="580.03" y="244.03" font-size="12" text-anchor="middle" font-weight="bold" transform="rotate(-90,580.03,244.03)">Z = X² + Y²</text><circle cx="306.58" cy="278.6" r="3" fill="#37588c" /><circle cx="310" cy="288.12" r="3" fill="#3c4f8a" /><circle cx="303.45" cy="269.01" r="3" fill="#33618d" /><circle cx="300.61" cy="259.41" r="3" fill="#2f6a8e" /><circle cx="313.68" cy="297.49" r="3" fill="#3f4688" /><circle cx="298.08" cy="249.88" r="3" fill="#2c718e" /><circle cx="317.6" cy="306.64" r="3" fill="#433d84" /><circle cx="295.88" cy="240.48000000000002" r="3" fill="#287a8e" /><circle cx="321.76" cy="315.51" r="3" fill="#45337f" /><circle cx="294.02" cy="231.27" r="3" fill="#25828d" /><circle cx="292.51" cy="222.33" r="3" fill="#228a8d" /><circle cx="326.12" cy="324.02" r="3" fill="#472b7a" /><circle cx="291.36" cy="213.69" r="3" fill="#20928b" /><circle cx="290.58" cy="205.41" r="3" fill="#1e998a" /><circle cx="330.66" cy="332.11" r="3" fill="#482374" /><circle cx="290.18" cy="197.53" r="3" fill="#1ea087" /><circle cx="290.15000000000003" cy="190.08" r="3" fill="#21a784" /><circle cx="335.37" cy="339.73" r="3" fill="#481b6d" /><circle cx="290.52" cy="183.1" r="3" fill="#27ad80" /><circle cx="291.27" cy="176.6" r="3" fill="#2eb37c" /><circle cx="340.23" cy="346.81" r="3" fill="#471567" /><circle cx="292.42" cy="170.59" r="3" fill="#37b877" /><circle cx="293.96" cy="165.07" r="3" fill="#3fbc72" /><circle cx="295.89" cy="160.04" r="3" fill="#49c16d" /><circle cx="298.21" cy="155.48" r="3" fill="#52c468" /><circle cx="345.2" cy="353.31" r="3" fill="#470e61" /><circle cx="300.92" cy="151.37" r="3" fill="#5ac763" /><circle cx="304" cy="147.68" r="3" fill="#62ca5e" /><circle cx="307.46" cy="144.37" r="3" fill="#6acc5a" /><circle cx="311.28000000000003" cy="141.4" r="3" fill="#71cf56" /><circle cx="350.28000000000003" cy="359.19" r="3" fill="#45095c" /><circle cx="315.46" cy="138.71" r="3" fill="#78d151" /><circle cx="319.98" cy="136.24" r="3" fill="#7fd24d" /><circle cx="324.84000000000003" cy="133.94" r="3" fill="#86d449" /><circle cx="355.42" cy="364.40000000000003" r="3" fill="#450559" /><circle cx="330.01" cy="131.75" r="3" fill="#8dd645" /><circle cx="335.49" cy="129.58" r="3" fill="#93d740" /><circle cx="360.62" cy="368.94" r="3" fill="#440256" /><circle cx="341.26" cy="127.37" r="3" fill="#9bd83b" /><circle cx="347.31" cy="125.06" r="3" fill="#a3da36" /><circle cx="353.6" cy="122.56" r="3" fill="#acdc30" /><circle cx="365.85" cy="372.76" r="3" fill="#440154" /><circle cx="360.14" cy="119.81" r="3" fill="#b7dd29" /><circle cx="371.08" cy="375.86" r="3" fill="#440154" /><circle cx="366.89" cy="116.73" r="3" fill="#c2df22" /><circle cx="373.84000000000003" cy="113.28" r="3" fill="#cfe11c" /><circle cx="376.29" cy="378.25" r="3" fill="#440155" /><circle cx="380.96" cy="109.37" r="3" fill="#dde318" /><circle cx="381.46" cy="379.91" r="3" fill="#440457" /><circle cx="388.24" cy="104.96000000000001" r="3" fill="#ece51b" /><circle cx="395.65000000000003" cy="99.99000000000001" r="3" fill="#fde725" /><circle cx="386.56" cy="380.86" r="3" fill="#45075b" /><circle cx="391.57" cy="381.13" r="3" fill="#460c5f" /><circle cx="396.47" cy="380.74" r="3" fill="#471264" /><circle cx="401.23" cy="379.71" r="3" fill="#48186a" /><circle cx="405.83" cy="378.1" r="3" fill="#471f70" /><circle cx="410.25" cy="375.95" r="3" fill="#482677" /><circle cx="414.48" cy="373.31" r="3" fill="#462e7c" /><circle cx="418.48" cy="370.22" r="3" fill="#443781" /><circle cx="422.24" cy="366.76" r="3" fill="#423f85" /><circle cx="425.75" cy="362.98" r="3" fill="#3e4788" /><circle cx="428.97" cy="358.95" r="3" fill="#3b508a" /><circle cx="431.91" cy="354.71" r="3" fill="#37598c" /><circle cx="434.54" cy="350.35" r="3" fill="#33618d" /><circle cx="436.85" cy="345.90000000000003" r="3" fill="#30688e" /><circle cx="438.82" cy="341.44" r="3" fill="#2c708e" /><circle cx="440.45" cy="337.02" r="3" fill="#29778d" /><circle cx="441.72" cy="332.68" r="3" fill="#277e8e" /><circle cx="442.62" cy="328.47" r="3" fill="#24848e" /><circle cx="443.15000000000003" cy="324.44" r="3" fill="#228b8d" /><circle cx="443.3" cy="320.61" r="3" fill="#20918c" /><circle cx="443.06" cy="317.01" r="3" fill="#1f968b" /><circle cx="442.43" cy="313.66" r="3" fill="#1e9b89" /><circle cx="441.42" cy="310.58" r="3" fill="#1fa087" /><circle cx="440" cy="307.76" r="3" fill="#20a485" /><circle cx="438.2" cy="305.2" r="3" fill="#22a883" /><circle cx="436.01" cy="302.90000000000003" r="3" fill="#25ac81" /><circle cx="433.43" cy="300.83" r="3" fill="#28ae7f" /><circle cx="430.47" cy="298.97" r="3" fill="#2cb17d" /><circle cx="427.13" cy="297.29" r="3" fill="#2fb47b" /><circle cx="423.43" cy="295.75" r="3" fill="#33b679" /><circle cx="419.36" cy="294.3" r="3" fill="#36b778" /><circle cx="414.95" cy="292.90000000000003" r="3" fill="#38b976" /><circle cx="410.2" cy="291.48" r="3" fill="#3bbb74" /><circle cx="405.13" cy="290.01" r="3" fill="#3ebc73" /><circle cx="399.75" cy="288.41" r="3" fill="#41bd71" /><circle cx="394.07" cy="286.62" r="3" fill="#45bf6f" /><circle cx="388.12" cy="284.58" r="3" fill="#49c16d" /><circle cx="381.90000000000003" cy="282.24" r="3" fill="#4ec36a" /><circle cx="375.44" cy="279.52" r="3" fill="#53c568" /><circle cx="368.76" cy="276.38" r="3" fill="#59c764" /><circle cx="361.88" cy="272.76" r="3" fill="#61ca5f" /><circle cx="354.81" cy="268.6" r="3" fill="#6bcd5a" /><circle cx="347.58" cy="263.86" r="3" fill="#76d053" /><circle cx="340.21" cy="258.49" r="3" fill="#84d44a" /><circle cx="332.72" cy="252.48000000000002" r="3" fill="#94d740" /><circle cx="325.14" cy="245.77" r="3" fill="#a7db34" /><circle cx="317.49" cy="238.37" r="3" fill="#bbde26" /><circle cx="309.79" cy="230.24" r="3" fill="#d3e11a" /><circle cx="302.06" cy="221.39000000000001" r="3" fill="#ece51b" /><rect x="702.8000000000001" y="89" width="20" height="7.7" fill="#fde725" /><rect x="702.8000000000001" y="96.2" width="20" height="7.7" fill="#f0e51c" /><rect x="702.8000000000001" y="103.4" width="20" height="7.7" fill="#e3e318" /><rect x="702.8000000000001" y="110.60000000000001" width="20" height="7.7" fill="#d6e219" /><rect x="702.8000000000001" y="117.8" width="20" height="7.7" fill="#c8e01f" /><rect x="702.8000000000001" y="125" width="20" height="7.7" fill="#bade27" /><rect x="702.8000000000001" y="132.2" width="20" height="7.7" fill="#acdc30" /><rect x="702.8000000000001" y="139.4" width="20" height="7.7" fill="#9ed939" /><rect x="702.8000000000001" y="146.6" width="20" height="7.7" fill="#91d642" /><rect x="702.8000000000001" y="153.8" width="20" height="7.7" fill="#84d44a" /><rect x="702.8000000000001" y="161" width="20" height="7.7" fill="#77d052" /><rect x="702.8000000000001" y="168.20000000000002" width="20" height="7.7" fill="#6bcd5a" /><rect x="702.8000000000001" y="175.4" width="20" height="7.7" fill="#5fc960" /><rect x="702.8000000000001" y="182.6" width="20" height="7.7" fill="#54c567" /><rect x="702.8000000000001" y="189.8" width="20" height="7.7" fill="#4ac16c" /><rect x="702.8000000000001" y="197" width="20" height="7.7" fill="#40bc72" /><rect x="702.8000000000001" y="204.20000000000002" width="20" height="7.7" fill="#37b877" /><rect x="702.8000000000001" y="211.4" width="20" height="7.7" fill="#30b47b" /><rect x="702.8000000000001" y="218.6" width="20" height="7.7" fill="#29af7f" /><rect x="702.8000000000001" y="225.8" width="20" height="7.7" fill="#24ab82" /><rect x="702.8000000000001" y="233" width="20" height="7.7" fill="#21a585" /><rect x="702.8000000000001" y="240.20000000000002" width="20" height="7.7" fill="#1fa187" /><rect x="702.8000000000001" y="247.4" width="20" height="7.7" fill="#1e9c89" /><rect x="702.8000000000001" y="254.6" width="20" height="7.7" fill="#1f978a" /><rect x="702.8000000000001" y="261.8" width="20" height="7.7" fill="#1f928c" /><rect x="702.8000000000001" y="269" width="20" height="7.7" fill="#218d8d" /><rect x="702.8000000000001" y="276.2" width="20" height="7.7" fill="#23888d" /><rect x="702.8000000000001" y="283.40000000000003" width="20" height="7.7" fill="#25838e" /><rect x="702.8000000000001" y="290.6" width="20" height="7.7" fill="#267f8d" /><rect x="702.8000000000001" y="297.8" width="20" height="7.7" fill="#287a8e" /><rect x="702.8000000000001" y="305" width="20" height="7.7" fill="#2a748d" /><rect x="702.8000000000001" y="312.2" width="20" height="7.7" fill="#2c708e" /><rect x="702.8000000000001" y="319.40000000000003" width="20" height="7.7" fill="#2f6b8e" /><rect x="702.8000000000001" y="326.6" width="20" height="7.7" fill="#31668e" /><rect x="702.8000000000001" y="333.8" width="20" height="7.7" fill="#33618c" /><rect x="702.8000000000001" y="341" width="20" height="7.7" fill="#365b8c" /><rect x="702.8000000000001" y="348.2" width="20" height="7.7" fill="#38558c" /><rect x="702.8000000000001" y="355.40000000000003" width="20" height="7.7" fill="#3b508a" /><rect x="702.8000000000001" y="362.6" width="20" height="7.7" fill="#3d4a89" /><rect x="702.8000000000001" y="369.8" width="20" height="7.7" fill="#404587" /><rect x="702.8000000000001" y="377" width="20" height="7.7" fill="#423e85" /><rect x="702.8000000000001" y="384.2" width="20" height="7.7" fill="#443882" /><rect x="702.8000000000001" y="391.40000000000003" width="20" height="7.7" fill="#46327e" /><rect x="702.8000000000001" y="398.6" width="20" height="7.7" fill="#472c7a" /><rect x="702.8000000000001" y="405.8" width="20" height="7.7" fill="#482576" /><rect x="702.8000000000001" y="413" width="20" height="7.7" fill="#471e6f" /><rect x="702.8000000000001" y="420.2" width="20" height="7.7" fill="#481769" /><rect x="702.8000000000001" y="427.40000000000003" width="20" height="7.7" fill="#471063" /><rect x="702.8000000000001" y="434.6" width="20" height="7.7" fill="#46085c" /><rect x="702.8000000000001" y="441.8" width="20" height="7.7" fill="#440154" /><rect x="702.8000000000001" y="89" width="20" height="360" fill="none" stroke="#000000" stroke-width="1" /><line x1="722.8000000000001" y1="379.49" x2="726.8000000000001" y2="379.49" stroke="#000000" stroke-width="1" /><text x="727.8000000000001" y="383.49" font-size="12" text-anchor="start">5</text><line x1="722.8000000000001" y1="309.33" x2="726.8000000000001" y2="309.33" stroke="#000000" stroke-width="1" /><text x="727.8000000000001" y="313.33" font-size="12" text-anchor="start">10</text><line x1="722.8000000000001" y1="239.17000000000002" x2="726.8000000000001" y2="239.17000000000002" stroke="#000000" stroke-width="1" /><text x="727.8000000000001" y="243.17000000000002" font-size="12" text-anchor="start">15</text><line x1="722.8000000000001" y1="169.02" x2="726.8000000000001" y2="169.02" stroke="#000000" stroke-width="1" /><text x="727.8000000000001" y="173.02" font-size="12" text-anchor="start">20</text><line x1="722.8000000000001" y1="98.86" x2="726.8000000000001" y2="98.86" stroke="#000000" stroke-width="1" /><text x="727.8000000000001" y="102.86" font-size="12" text-anchor="start">25</text><text x="692.8000000000001" y="269" font-size="12" text-anchor="middle" transform="rotate(-90,692.8000000000001,269)">Z = X² + Y²</text></svg>