<svg xmlns="http://www.w3.org/2000/svg" width="686.2" height="545" font-family="DejaVu Sans, Liberation Sans, Arial, sans-serif" fill="black"><rect width="100%" height="100%" fill="white" /><line x1="72.2" y1="494" x2="672.2" y2="494" stroke="#000000" stroke-width="1" /><line x1="72.2" y1="44" x2="72.2" y2="494" stroke="#000000" stroke-width="1" /><line x1="222.20000000000002" y1="44" x2="222.20000000000002" y2="494" stroke="#cccccc" stroke-width="1" /><line x1="372.2" y1="44" x2="372.2" y2="494" stroke="#cccccc" stroke-width="1" /><line x1="522.2" y1="44" x2="522.2" y2="494" stroke="#cccccc" stroke-width="1" /><line x1="672.2" y1="44" x2="672.2" y2="494" stroke="#cccccc" stroke-width="1" /><line x1="72.2" y1="381.5" x2="672.2" y2="381.5" stroke="#cccccc" stroke-width="1" /><line x1="72.2" y1="269" x2="672.2" y2="269" stroke="#cccccc" stroke-width="1" /><line x1="72.2" y1="156.5" x2="672.2" y2="156.5" stroke="#cccccc" stroke-width="1" /><line x1="72.2" y1="44" x2="672.2" y2="44" stroke="#cccccc" stroke-width="1" /><line x1="72.2" y1="494" x2="72.2" y2="499" stroke="#000000" stroke-width="1" /><text x="72.2" y="511" font-size="12" text-anchor="middle">-4</text><line x1="222.20000000000002" y1="494" x2="222.20000000000002" y2="499" stroke="#000000" stroke-width="1" /><text x="222.20000000000002" y="511" font-size="12" text-anchor="middle">-2</text><line x1="372.2" y1="494" x2="372.2" y2="499" stroke="#000000" stroke-width="1" /><text x="372.2" y="511" font-size="12" text-anchor="middle">0</text><line x1="522.2" y1="494" x2="522.2" y2="499" stroke="#000000" stroke-width="1" /><text x="522.2" y="511" font-size="12" text-anchor="middle">2</text><line x1="672.2" y1="494" x2="672.2" y2="499" stroke="#000000" stroke-width="1" /><text x="672.2" y="511" font-size="12" text-anchor="middle">4</text><line x1="67.2" y1="494" x2="72.2" y2="494" stroke="#000000" stroke-width="1" /><text x="64.2" y="498.2" font-size="12" text-anchor="end">-4</text><line x1="67.2" y1="381.5" x2="72.2" y2="381.5" stroke="#000000" stroke-width="1" /><text x="64.2" y="385.7" font-size="12" text-anchor="end">-2</text><line x1="67.2" y1="269" x2="72.2" y2="269" stroke="#000000" stroke-width="1" /><text x="64.2" y="273.2" font-size="12" text-anchor="end">0</text><line x1="67.2" y1="156.5" x2="72.2" y2="156.5" stroke="#000000" stroke-width="1" /><text x="64.2" y="160.70000000000002" font-size="12" text-anchor="end">2</text><line x1="67.2" y1="44" x2="72.2" y2="44" stroke="#000000" stroke-width="1" /><text x="64.2" y="48.2" font-size="12" text-anchor="end">4</text><text x="372.2" y="538" font-size="14" text-anchor="middle">x</text><text x="7" y="272.5" font-size="14" text-anchor="middle" transform="rotate(-90,7,272.5)">y</text><text x="372.2" y="22" font-size="18" text-anchor="middle">Explicit Iso-levels: 0.1, 0.25, 0.5, 0.75, 0.9</text><path d="M334.17 386.27 L337.88 386.98 M337.88 386.98 L345.51 388.14 M345.51 388.14 L353.13 388.98 M353.13 388.98 L360.76 389.53 M360.76 389.53 L368.39 389.79 M368.39 389.79 L376.01 389.79 M376.01 389.79 L383.64 389.53 M383.64 389.53 L391.27 388.98 M391.27 388.98 L398.89 388.14 M398.89 388.14 L406.52 386.98 M406.52 386.98 L410.23 386.27 M310.73 380.55 L315.00 381.91 M315.00 381.91 L322.62 383.95 M322.62 383.95 L330.25 385.59 M334.17 386.27 L330.25 385.59 M410.23 386.27 L414.15 385.59 M414.15 385.59 L421.78 383.95 M421.78 383.95 L429.40 381.91 M429.40 381.91 L433.67 380.55 M294.77 374.83 L299.74 376.88 M299.74 376.88 L307.37 379.55 M310.73 380.55 L307.37 379.55 M433.67 380.55 L437.03 379.55 M437.03 379.55 L444.66 376.88 M444.66 376.88 L449.63 374.83 M282.23 369.11 L284.49 370.27 M284.49 370.27 L292.12 373.76 M294.77 374.83 L292.12 373.76 M449.63 374.83 L452.28 373.76 M452.28 373.76 L459.91 370.27 M459.91 370.27 L462.17 369.11 M271.82 363.39 L276.86 366.34 M282.23 369.11 L276.86 366.34 M462.17 369.11 L467.54 366.34 M467.54 366.34 L472.58 363.39 M262.94 357.67 L269.23 361.84 M271.82 363.39 L269.23 361.84 M472.58 363.39 L475.17 361.84 M475.17 361.84 L481.46 357.67 M255.22 351.94 L261.61 356.74 M262.94 357.67 L261.61 356.74 M481.46 357.67 L482.79 356.74 M482.79 356.74 L489.18 351.94 M248.42 346.22 L253.98 350.94 M255.22 351.94 L253.98 350.94 M489.18 351.94 L490.42 350.94 M490.42 350.94 L495.98 346.22 M242.42 340.50 L246.35 344.29 M248.42 346.22 L246.35 344.29 M495.98 346.22 L498.05 344.29 M498.05 344.29 L501.98 340.50 M237.18 334.78 L238.73 336.48 M242.42 340.50 L238.73 336.48 M501.98 340.50 L505.67 336.48 M505.67 336.48 L507.22 334.78 M237.18 334.78 L232.51 329.06 M507.22 334.78 L511.89 329.06 M228.36 323.34 L231.10 327.07 M232.51 329.06 L231.10 327.07 M511.89 329.06 L513.30 327.07 M513.30 327.07 L516.04 323.34 M228.36 323.34 L224.80 317.62 M516.04 323.34 L519.60 317.62 M221.66 311.90 L223.47 315.11 M224.80 317.62 L223.47 315.11 M519.60 317.62 L520.93 315.11 M520.93 315.11 L522.74 311.90 M221.66 311.90 L218.93 306.18 M522.74 311.90 L525.47 306.18 M218.93 306.18 L216.75 300.46 M525.47 306.18 L527.65 300.46 M214.89 294.74 L215.84 297.52 M216.75 300.46 L215.84 297.52 M527.65 300.46 L528.56 297.52 M528.56 297.52 L529.51 294.74 M214.89 294.74 L213.34 289.02 M529.51 294.74 L531.06 289.02 M213.34 289.02 L212.23 283.30 M531.06 289.02 L532.17 283.30 M212.23 283.30 L211.50 277.58 M532.17 283.30 L532.90 277.58 M211.50 277.58 L211.14 271.86 M532.90 277.58 L533.26 271.86 M211.14 271.86 L211.14 266.14 M533.26 271.86 L533.26 266.14 M211.14 266.14 L211.50 260.42 M533.26 266.14 L532.90 260.42 M211.50 260.42 L212.23 254.70 M532.90 260.42 L532.17 254.70 M212.23 254.70 L213.34 248.98 M532.17 254.70 L531.06 248.98 M213.34 248.98 L214.89 243.26 M531.06 248.98 L529.51 243.26 M214.89 243.26 L215.84 240.48 M215.84 240.48 L216.75 237.54 M528.56 240.48 L527.65 237.54 M529.51 243.26 L528.56 240.48 M216.75 237.54 L218.93 231.82 M527.65 237.54 L525.47 231.82 M218.93 231.82 L221.66 226.10 M525.47 231.82 L522.74 226.10 M221.66 226.10 L223.47 222.89 M223.47 222.89 L224.80 220.38 M520.93 222.89 L519.60 220.38 M522.74 226.10 L520.93 222.89 M224.80 220.38 L228.36 214.66 M519.60 220.38 L516.04 214.66 M228.36 214.66 L231.10 210.93 M231.10 210.93 L232.51 208.94 M513.30 210.93 L511.89 208.94 M516.04 214.66 L513.30 210.93 M232.51 208.94 L237.18 203.22 M511.89 208.94 L507.22 203.22 M237.18 203.22 L238.73 201.52 M238.73 201.52 L242.42 197.50 M505.67 201.52 L501.98 197.50 M507.22 203.22 L505.67 201.52 M242.42 197.50 L246.35 193.71 M246.35 193.71 L248.42 191.78 M498.05 193.71 L495.98 191.78 M501.98 197.50 L498.05 193.71 M248.42 191.78 L253.98 187.06 M253.98 187.06 L255.22 186.06 M490.42 187.06 L489.18 186.06 M495.98 191.78 L490.42 187.06 M255.22 186.06 L261.61 181.26 M261.61 181.26 L262.94 180.33 M482.79 181.26 L481.46 180.33 M489.18 186.06 L482.79 181.26 M262.94 180.33 L269.23 176.16 M269.23 176.16 L271.82 174.61 M475.17 176.16 L472.58 174.61 M481.46 180.33 L475.17 176.16 M271.82 174.61 L276.86 171.66 M276.86 171.66 L282.23 168.89 M467.54 171.66 L462.17 168.89 M472.58 174.61 L467.54 171.66 M282.23 168.89 L284.49 167.73 M284.49 167.73 L292.12 164.24 M292.12 164.24 L294.77 163.17 M452.28 164.24 L449.63 163.17 M452.28 164.24 L459.91 167.73 M462.17 168.89 L459.91 167.73 M294.77 163.17 L299.74 161.12 M299.74 161.12 L307.37 158.45 M307.37 158.45 L310.73 157.45 M437.03 158.45 L433.67 157.45 M437.03 158.45 L444.66 161.12 M449.63 163.17 L444.66 161.12 M310.73 157.45 L315.00 156.09 M315.00 156.09 L322.62 154.05 M322.62 154.05 L330.25 152.41 M330.25 152.41 L334.17 151.73 M414.15 152.41 L410.23 151.73 M414.15 152.41 L421.78 154.05 M421.78 154.05 L429.40 156.09 M433.67 157.45 L429.40 156.09 M334.17 151.73 L337.88 151.02 M337.88 151.02 L345.51 149.86 M345.51 149.86 L353.13 149.02 M353.13 149.02 L360.76 148.47 M360.76 148.47 L368.39 148.21 M368.39 148.21 L376.01 148.21 M376.01 148.21 L383.64 148.47 M383.64 148.47 L391.27 149.02 M391.27 149.02 L398.89 149.86 M398.89 149.86 L406.52 151.02 M410.23 151.73 L406.52 151.02 " stroke="#006400" stroke-width="1.5" fill="none" /><path d="M332.05 357.67 L337.88 359.11 M337.88 359.11 L345.51 360.57 M345.51 360.57 L353.13 361.63 M353.13 361.63 L360.76 362.31 M360.76 362.31 L368.39 362.65 M368.39 362.65 L376.01 362.65 M376.01 362.65 L383.64 362.31 M383.64 362.31 L391.27 361.63 M391.27 361.63 L398.89 360.57 M398.89 360.57 L406.52 359.11 M406.52 359.11 L412.35 357.67 M314.21 351.94 L315.00 352.27 M315.00 352.27 L322.62 355.03 M322.62 355.03 L330.25 357.24 M332.05 357.67 L330.25 357.24 M412.35 357.67 L414.15 357.24 M414.15 357.24 L421.78 355.03 M421.78 355.03 L429.40 352.27 M429.40 352.27 L430.19 351.94 M301.54 346.22 L307.37 349.11 M314.21 351.94 L307.37 349.11 M430.19 351.94 L437.03 349.11 M437.03 349.11 L442.86 346.22 M291.53 340.50 L292.12 340.88 M292.12 340.88 L299.74 345.31 M301.54 346.22 L299.74 345.31 M442.86 346.22 L444.66 345.31 M444.66 345.31 L452.28 340.88 M452.28 340.88 L452.87 340.50 M283.28 334.78 L284.49 335.69 M291.53 340.50 L284.49 335.69 M452.87 340.50 L459.91 335.69 M459.91 335.69 L461.12 334.78 M276.36 329.06 L276.86 329.50 M283.28 334.78 L276.86 329.50 M461.12 334.78 L467.54 329.50 M467.54 329.50 L468.04 329.06 M276.36 329.06 L270.46 323.34 M468.04 329.06 L473.94 323.34 M265.39 317.62 L269.23 321.99 M270.46 323.34 L269.23 321.99 M473.94 323.34 L475.17 321.99 M475.17 321.99 L479.01 317.62 M261.17 311.90 L261.61 312.49 M265.39 317.62 L261.61 312.49 M479.01 317.62 L482.79 312.49 M482.79 312.49 L483.23 311.90 M261.17 311.90 L257.49 306.18 M483.23 311.90 L486.91 306.18 M257.49 306.18 L254.55 300.46 M486.91 306.18 L489.85 300.46 M252.05 294.74 L253.98 299.11 M254.55 300.46 L253.98 299.11 M489.85 300.46 L490.42 299.11 M490.42 299.11 L492.35 294.74 M252.05 294.74 L250.11 289.02 M492.35 294.74 L494.29 289.02 M250.11 289.02 L248.70 283.30 M494.29 289.02 L495.70 283.30 M248.70 283.30 L247.78 277.58 M495.70 283.30 L496.62 277.58 M247.78 277.58 L247.33 271.86 M496.62 277.58 L497.07 271.86 M247.33 271.86 L247.33 266.14 M497.07 271.86 L497.07 266.14 M247.33 266.14 L247.78 260.42 M497.07 266.14 L496.62 260.42 M247.78 260.42 L248.70 254.70 M496.62 260.42 L495.70 254.70 M248.70 254.70 L250.11 248.98 M495.70 254.70 L494.29 248.98 M250.11 248.98 L252.05 243.26 M494.29 248.98 L492.35 243.26 M252.05 243.26 L253.98 238.89 M253.98 238.89 L254.55 237.54 M490.42 238.89 L489.85 237.54 M492.35 243.26 L490.42 238.89 M254.55 237.54 L257.49 231.82 M489.85 237.54 L486.91 231.82 M257.49 231.82 L261.17 226.10 M486.91 231.82 L483.23 226.10 M261.17 226.10 L261.61 225.51 M261.61 225.51 L265.39 220.38 M482.79 225.51 L479.01 220.38 M483.23 226.10 L482.79 225.51 M265.39 220.38 L269.23 216.01 M269.23 216.01 L270.46 214.66 M475.17 216.01 L473.94 214.66 M479.01 220.38 L475.17 216.01 M270.46 214.66 L276.36 208.94 M473.94 214.66 L468.04 208.94 M276.36 208.94 L276.86 208.50 M276.86 208.50 L283.28 203.22 M467.54 208.50 L461.12 203.22 M468.04 208.94 L467.54 208.50 M283.28 203.22 L284.49 202.31 M284.49 202.31 L291.53 197.50 M459.91 202.31 L452.87 197.50 M461.12 203.22 L459.91 202.31 M291.53 197.50 L292.12 197.12 M292.12 197.12 L299.74 192.69 M299.74 192.69 L301.54 191.78 M444.66 192.69 L442.86 191.78 M444.66 192.69 L452.28 197.12 M452.87 197.50 L452.28 197.12 M301.54 191.78 L307.37 188.89 M307.37 188.89 L314.21 186.06 M437.03 188.89 L430.19 186.06 M442.86 191.78 L437.03 188.89 M314.21 186.06 L315.00 185.73 M315.00 185.73 L322.62 182.97 M322.62 182.97 L330.25 180.76 M330.25 180.76 L332.05 180.33 M414.15 180.76 L412.35 180.33 M414.15 180.76 L421.78 182.97 M421.78 182.97 L429.40 185.73 M430.19 186.06 L429.40 185.73 M332.05 180.33 L337.88 178.89 M337.88 178.89 L345.51 177.43 M345.51 177.43 L353.13 176.37 M353.13 176.37 L360.76 175.69 M360.76 175.69 L368.39 175.35 M368.39 175.35 L376.01 175.35 M376.01 175.35 L383.64 175.69 M383.64 175.69 L391.27 176.37 M391.27 176.37 L398.89 177.43 M398.89 177.43 L406.52 178.89 M412.35 180.33 L406.52 178.89 " stroke="#006400" stroke-width="1.5" fill="none" /><path d="M362.48 334.78 L368.39 335.17 M368.39 335.17 L376.01 335.17 M376.01 335.17 L381.92 334.78 M335.13 329.06 L337.88 330.03 M337.88 330.03 L345.51 332.15 M345.51 332.15 L353.13 333.68 M353.13 333.68 L360.76 334.67 M362.48 334.78 L360.76 334.67 M381.92 334.78 L383.64 334.67 M383.64 334.67 L391.27 333.68 M391.27 333.68 L398.89 332.15 M398.89 332.15 L406.52 330.03 M406.52 330.03 L409.27 329.06 M321.75 323.34 L322.62 323.81 M322.62 323.81 L330.25 327.28 M335.13 329.06 L330.25 327.28 M409.27 329.06 L414.15 327.28 M414.15 327.28 L421.78 323.81 M421.78 323.81 L422.65 323.34 M312.28 317.62 L315.00 319.44 M321.75 323.34 L315.00 319.44 M422.65 323.34 L429.40 319.44 M429.40 319.44 L432.12 317.62 M304.94 311.90 L307.37 313.94 M312.28 317.62 L307.37 313.94 M432.12 317.62 L437.03 313.94 M437.03 313.94 L439.46 311.90 M299.12 306.18 L299.74 306.83 M304.94 311.90 L299.74 306.83 M439.46 311.90 L444.66 306.83 M444.66 306.83 L445.28 306.18 M299.12 306.18 L294.49 300.46 M445.28 306.18 L449.91 300.46 M290.83 294.74 L292.12 296.80 M294.49 300.46 L292.12 296.80 M449.91 300.46 L452.28 296.80 M452.28 296.80 L453.57 294.74 M290.83 294.74 L288.00 289.02 M453.57 294.74 L456.40 289.02 M288.00 289.02 L285.96 283.30 M456.40 289.02 L458.44 283.30 M285.96 283.30 L284.64 277.58 M458.44 283.30 L459.76 277.58 M283.97 271.86 L284.49 276.29 M284.64 277.58 L284.49 276.29 M459.76 277.58 L459.91 276.29 M459.91 276.29 L460.43 271.86 M283.97 271.86 L283.97 266.14 M460.43 271.86 L460.43 266.14 M283.97 266.14 L284.49 261.71 M284.49 261.71 L284.64 260.42 M459.91 261.71 L459.76 260.42 M460.43 266.14 L459.91 261.71 M284.64 260.42 L285.96 254.70 M459.76 260.42 L458.44 254.70 M285.96 254.70 L288.00 248.98 M458.44 254.70 L456.40 248.98 M288.00 248.98 L290.83 243.26 M456.40 248.98 L453.57 243.26 M290.83 243.26 L292.12 241.20 M292.12 241.20 L294.49 237.54 M452.28 241.20 L449.91 237.54 M453.57 243.26 L452.28 241.20 M294.49 237.54 L299.12 231.82 M449.91 237.54 L445.28 231.82 M299.12 231.82 L299.74 231.17 M299.74 231.17 L304.94 226.10 M444.66 231.17 L439.46 226.10 M445.28 231.82 L444.66 231.17 M304.94 226.10 L307.37 224.06 M307.37 224.06 L312.28 220.38 M437.03 224.06 L432.12 220.38 M439.46 226.10 L437.03 224.06 M312.28 220.38 L315.00 218.56 M315.00 218.56 L321.75 214.66 M429.40 218.56 L422.65 214.66 M432.12 220.38 L429.40 218.56 M321.75 214.66 L322.62 214.19 M322.62 214.19 L330.25 210.72 M330.25 210.72 L335.13 208.94 M414.15 210.72 L409.27 208.94 M414.15 210.72 L421.78 214.19 M422.65 214.66 L421.78 214.19 M335.13 208.94 L337.88 207.97 M337.88 207.97 L345.51 205.85 M345.51 205.85 L353.13 204.32 M353.13 204.32 L360.76 203.33 M360.76 203.33 L362.48 203.22 M383.64 203.33 L381.92 203.22 M383.64 203.33 L391.27 204.32 M391.27 204.32 L398.89 205.85 M398.89 205.85 L406.52 207.97 M409.27 208.94 L406.52 207.97 M362.48 203.22 L368.39 202.83 M368.39 202.83 L376.01 202.83 M381.92 203.22 L376.01 202.83 " stroke="#006400" stroke-width="1.5" fill="none" /><path d="M344.40 306.18 L345.51 306.66 M345.51 306.66 L353.13 309.15 M353.13 309.15 L360.76 310.77 M360.76 310.77 L368.39 311.56 M368.39 311.56 L376.01 311.56 M376.01 311.56 L383.64 310.77 M383.64 310.77 L391.27 309.15 M391.27 309.15 L398.89 306.66 M398.89 306.66 L400.00 306.18 M333.91 300.46 L337.88 302.95 M344.40 306.18 L337.88 302.95 M400.00 306.18 L406.52 302.95 M406.52 302.95 L410.49 300.46 M326.93 294.74 L330.25 297.72 M333.91 300.46 L330.25 297.72 M410.49 300.46 L414.15 297.72 M414.15 297.72 L417.47 294.74 M321.98 289.02 L322.62 289.85 M326.93 294.74 L322.62 289.85 M417.47 294.74 L421.78 289.85 M421.78 289.85 L422.42 289.02 M321.98 289.02 L318.67 283.30 M422.42 289.02 L425.73 283.30 M318.67 283.30 L316.51 277.58 M425.73 283.30 L427.89 277.58 M316.51 277.58 L315.45 271.86 M427.89 277.58 L428.95 271.86 M315.45 271.86 L315.45 266.14 M428.95 271.86 L428.95 266.14 M315.45 266.14 L316.51 260.42 M428.95 266.14 L427.89 260.42 M316.51 260.42 L318.67 254.70 M427.89 260.42 L425.73 254.70 M318.67 254.70 L321.98 248.98 M425.73 254.70 L422.42 248.98 M321.98 248.98 L322.62 248.15 M322.62 248.15 L326.93 243.26 M421.78 248.15 L417.47 243.26 M422.42 248.98 L421.78 248.15 M326.93 243.26 L330.25 240.28 M330.25 240.28 L333.91 237.54 M414.15 240.28 L410.49 237.54 M417.47 243.26 L414.15 240.28 M333.91 237.54 L337.88 235.05 M337.88 235.05 L344.40 231.82 M406.52 235.05 L400.00 231.82 M410.49 237.54 L406.52 235.05 M344.40 231.82 L345.51 231.34 M345.51 231.34 L353.13 228.85 M353.13 228.85 L360.76 227.23 M360.76 227.23 L368.39 226.44 M368.39 226.44 L376.01 226.44 M376.01 226.44 L383.64 227.23 M383.64 227.23 L391.27 228.85 M391.27 228.85 L398.89 231.34 M400.00 231.82 L398.89 231.34 " stroke="#006400" stroke-width="1.5" fill="none" /><path d="M350.72 289.02 L353.13 290.38 M353.13 290.38 L360.76 293.25 M360.76 293.25 L368.39 294.65 M368.39 294.65 L376.01 294.65 M376.01 294.65 L383.64 293.25 M383.64 293.25 L391.27 290.38 M391.27 290.38 L393.68 289.02 M343.69 283.30 L345.51 285.11 M350.72 289.02 L345.51 285.11 M393.68 289.02 L398.89 285.11 M398.89 285.11 L400.71 283.30 M343.69 283.30 L339.87 277.58 M400.71 283.30 L404.53 277.58 M339.87 277.58 L337.99 271.86 M404.53 277.58 L406.41 271.86 M337.99 271.86 L337.99 266.14 M406.41 271.86 L406.41 266.14 M337.99 266.14 L339.87 260.42 M406.41 266.14 L404.53 260.42 M339.87 260.42 L343.69 254.70 M404.53 260.42 L400.71 254.70 M343.69 254.70 L345.51 252.89 M345.51 252.89 L350.72 248.98 M398.89 252.89 L393.68 248.98 M400.71 254.70 L398.89 252.89 M350.72 248.98 L353.13 247.62 M353.13 247.62 L360.76 244.75 M360.76 244.75 L368.39 243.35 M368.39 243.35 L376.01 243.35 M376.01 243.35 L383.64 244.75 M383.64 244.75 L391.27 247.62 M393.68 248.98 L391.27 247.62 " stroke="#006400" stroke-width="1.5" fill="none" /></svg>