<svg xmlns="http://www.w3.org/2000/svg" width="673.4" height="545" font-family="DejaVu Sans, Liberation Sans, Arial, sans-serif" fill="black"><rect width="100%" height="100%" fill="white" /><defs><clipPath id="kuva-clip-3"><rect x="59" y="44" width="600" height="450"/></clipPath></defs><line x1="209" y1="44" x2="209" y2="494" stroke="#cccccc" stroke-width="1" /><line x1="359" y1="44" x2="359" y2="494" stroke="#cccccc" stroke-width="1" /><line x1="509" y1="44" x2="509" y2="494" stroke="#cccccc" stroke-width="1" /><line x1="659" y1="44" x2="659" y2="494" stroke="#cccccc" stroke-width="1" /><line x1="59" y1="381.5" x2="659" y2="381.5" stroke="#cccccc" stroke-width="1" /><line x1="59" y1="269" x2="659" y2="269" stroke="#cccccc" stroke-width="1" /><line x1="59" y1="156.5" x2="659" y2="156.5" stroke="#cccccc" stroke-width="1" /><line x1="59" y1="44" x2="659" y2="44" stroke="#cccccc" stroke-width="1" /><line x1="59" y1="494" x2="659" y2="494" stroke="#000000" stroke-width="1" /><line x1="59" y1="44" x2="59" y2="494" stroke="#000000" stroke-width="1" /><line x1="59" y1="494" x2="59" y2="499" stroke="#000000" stroke-width="1" /><text x="59" y="511" font-size="12" text-anchor="middle">-4</text><line x1="209" y1="494" x2="209" y2="499" stroke="#000000" stroke-width="1" /><text x="209" y="511" font-size="12" text-anchor="middle">-2</text><line x1="359" y1="494" x2="359" y2="499" stroke="#000000" stroke-width="1" /><text x="359" y="511" font-size="12" text-anchor="middle">0</text><line x1="509" y1="494" x2="509" y2="499" stroke="#000000" stroke-width="1" /><text x="509" y="511" font-size="12" text-anchor="middle">2</text><line x1="659" y1="494" x2="659" y2="499" stroke="#000000" stroke-width="1" /><text x="659" y="511" font-size="12" text-anchor="middle">4</text><line x1="54" y1="494" x2="59" y2="494" stroke="#000000" stroke-width="1" /><text x="51" y="498.2" font-size="12" text-anchor="end">-4</text><line x1="54" y1="381.5" x2="59" y2="381.5" stroke="#000000" stroke-width="1" /><text x="51" y="385.7" font-size="12" text-anchor="end">-2</text><line x1="54" y1="269" x2="59" y2="269" stroke="#000000" stroke-width="1" /><text x="51" y="273.2" font-size="12" text-anchor="end">0</text><line x1="54" y1="156.5" x2="59" y2="156.5" stroke="#000000" stroke-width="1" /><text x="51" y="160.70000000000002" font-size="12" text-anchor="end">2</text><line x1="54" y1="44" x2="59" y2="44" stroke="#000000" stroke-width="1" /><text x="51" y="48.2" font-size="12" text-anchor="end">4</text><text x="359" y="538" font-size="14" text-anchor="middle">x</text><text x="15" y="272.5" font-size="14" text-anchor="middle" transform="rotate(-90,15,272.5)">y</text><text x="359" y="22" font-size="18" text-anchor="middle">Explicit Iso-levels: 0.1, 0.25, 0.5, 0.75, 0.9</text><g clip-path="url(#kuva-clip-3)"><path d="M320.97 386.27 L324.68 386.98 M324.68 386.98 L332.31 388.14 M332.31 388.14 L339.93 388.98 M339.93 388.98 L347.56 389.53 M347.56 389.53 L355.19 389.79 M355.19 389.79 L362.81 389.79 M362.81 389.79 L370.44 389.53 M370.44 389.53 L378.07 388.98 M378.07 388.98 L385.69 388.14 M385.69 388.14 L393.32 386.98 M393.32 386.98 L397.03 386.27 M297.53 380.55 L301.80 381.91 M301.80 381.91 L309.42 383.95 M309.42 383.95 L317.05 385.59 M320.97 386.27 L317.05 385.59 M397.03 386.27 L400.95 385.59 M400.95 385.59 L408.58 383.95 M408.58 383.95 L416.20 381.91 M416.20 381.91 L420.47 380.55 M281.57 374.83 L286.54 376.88 M286.54 376.88 L294.17 379.55 M297.53 380.55 L294.17 379.55 M420.47 380.55 L423.83 379.55 M423.83 379.55 L431.46 376.88 M431.46 376.88 L436.43 374.83 M269.03 369.11 L271.29 370.27 M271.29 370.27 L278.92 373.76 M281.57 374.83 L278.92 373.76 M436.43 374.83 L439.08 373.76 M439.08 373.76 L446.71 370.27 M446.71 370.27 L448.97 369.11 M258.62 363.39 L263.66 366.34 M269.03 369.11 L263.66 366.34 M448.97 369.11 L454.34 366.34 M454.34 366.34 L459.38 363.39 M249.74 357.67 L256.03 361.84 M258.62 363.39 L256.03 361.84 M459.38 363.39 L461.97 361.84 M461.97 361.84 L468.26 357.67 M242.02 351.94 L248.41 356.74 M249.74 357.67 L248.41 356.74 M468.26 357.67 L469.59 356.74 M469.59 356.74 L475.98 351.94 M235.22 346.22 L240.78 350.94 M242.02 351.94 L240.78 350.94 M475.98 351.94 L477.22 350.94 M477.22 350.94 L482.78 346.22 M229.22 340.50 L233.15 344.29 M235.22 346.22 L233.15 344.29 M482.78 346.22 L484.85 344.29 M484.85 344.29 L488.78 340.50 M223.98 334.78 L225.53 336.48 M229.22 340.50 L225.53 336.48 M488.78 340.50 L492.47 336.48 M492.47 336.48 L494.02 334.78 M223.98 334.78 L219.31 329.06 M494.02 334.78 L498.69 329.06 M215.16 323.34 L217.90 327.07 M219.31 329.06 L217.90 327.07 M498.69 329.06 L500.10 327.07 M500.10 327.07 L502.84 323.34 M215.16 323.34 L211.60 317.62 M502.84 323.34 L506.40 317.62 M208.46 311.90 L210.27 315.11 M211.60 317.62 L210.27 315.11 M506.40 317.62 L507.73 315.11 M507.73 315.11 L509.54 311.90 M208.46 311.90 L205.73 306.18 M509.54 311.90 L512.27 306.18 M205.73 306.18 L203.55 300.46 M512.27 306.18 L514.45 300.46 M201.69 294.74 L202.64 297.52 M203.55 300.46 L202.64 297.52 M514.45 300.46 L515.36 297.52 M515.36 297.52 L516.31 294.74 M201.69 294.74 L200.14 289.02 M516.31 294.74 L517.86 289.02 M200.14 289.02 L199.03 283.30 M517.86 289.02 L518.97 283.30 M199.03 283.30 L198.30 277.58 M518.97 283.30 L519.70 277.58 M198.30 277.58 L197.94 271.86 M519.70 277.58 L520.06 271.86 M197.94 271.86 L197.94 266.14 M520.06 271.86 L520.06 266.14 M197.94 266.14 L198.30 260.42 M520.06 266.14 L519.70 260.42 M198.30 260.42 L199.03 254.70 M519.70 260.42 L518.97 254.70 M199.03 254.70 L200.14 248.98 M518.97 254.70 L517.86 248.98 M200.14 248.98 L201.69 243.26 M517.86 248.98 L516.31 243.26 M201.69 243.26 L202.64 240.48 M202.64 240.48 L203.55 237.54 M515.36 240.48 L514.45 237.54 M516.31 243.26 L515.36 240.48 M203.55 237.54 L205.73 231.82 M514.45 237.54 L512.27 231.82 M205.73 231.82 L208.46 226.10 M512.27 231.82 L509.54 226.10 M208.46 226.10 L210.27 222.89 M210.27 222.89 L211.60 220.38 M507.73 222.89 L506.40 220.38 M509.54 226.10 L507.73 222.89 M211.60 220.38 L215.16 214.66 M506.40 220.38 L502.84 214.66 M215.16 214.66 L217.90 210.93 M217.90 210.93 L219.31 208.94 M500.10 210.93 L498.69 208.94 M502.84 214.66 L500.10 210.93 M219.31 208.94 L223.98 203.22 M498.69 208.94 L494.02 203.22 M223.98 203.22 L225.53 201.52 M225.53 201.52 L229.22 197.50 M492.47 201.52 L488.78 197.50 M494.02 203.22 L492.47 201.52 M229.22 197.50 L233.15 193.71 M233.15 193.71 L235.22 191.78 M484.85 193.71 L482.78 191.78 M488.78 197.50 L484.85 193.71 M235.22 191.78 L240.78 187.06 M240.78 187.06 L242.02 186.06 M477.22 187.06 L475.98 186.06 M482.78 191.78 L477.22 187.06 M242.02 186.06 L248.41 181.26 M248.41 181.26 L249.74 180.33 M469.59 181.26 L468.26 180.33 M475.98 186.06 L469.59 181.26 M249.74 180.33 L256.03 176.16 M256.03 176.16 L258.62 174.61 M461.97 176.16 L459.38 174.61 M468.26 180.33 L461.97 176.16 M258.62 174.61 L263.66 171.66 M263.66 171.66 L269.03 168.89 M454.34 171.66 L448.97 168.89 M459.38 174.61 L454.34 171.66 M269.03 168.89 L271.29 167.73 M271.29 167.73 L278.92 164.24 M278.92 164.24 L281.57 163.17 M439.08 164.24 L436.43 163.17 M439.08 164.24 L446.71 167.73 M448.97 168.89 L446.71 167.73 M281.57 163.17 L286.54 161.12 M286.54 161.12 L294.17 158.45 M294.17 158.45 L297.53 157.45 M423.83 158.45 L420.47 157.45 M423.83 158.45 L431.46 161.12 M436.43 163.17 L431.46 161.12 M297.53 157.45 L301.80 156.09 M301.80 156.09 L309.42 154.05 M309.42 154.05 L317.05 152.41 M317.05 152.41 L320.97 151.73 M400.95 152.41 L397.03 151.73 M400.95 152.41 L408.58 154.05 M408.58 154.05 L416.20 156.09 M420.47 157.45 L416.20 156.09 M320.97 151.73 L324.68 151.02 M324.68 151.02 L332.31 149.86 M332.31 149.86 L339.93 149.02 M339.93 149.02 L347.56 148.47 M347.56 148.47 L355.19 148.21 M355.19 148.21 L362.81 148.21 M362.81 148.21 L370.44 148.47 M370.44 148.47 L378.07 149.02 M378.07 149.02 L385.69 149.86 M385.69 149.86 L393.32 151.02 M397.03 151.73 L393.32 151.02 " stroke="#006400" stroke-width="1.5" fill="none" /><path d="M318.85 357.67 L324.68 359.11 M324.68 359.11 L332.31 360.57 M332.31 360.57 L339.93 361.63 M339.93 361.63 L347.56 362.31 M347.56 362.31 L355.19 362.65 M355.19 362.65 L362.81 362.65 M362.81 362.65 L370.44 362.31 M370.44 362.31 L378.07 361.63 M378.07 361.63 L385.69 360.57 M385.69 360.57 L393.32 359.11 M393.32 359.11 L399.15 357.67 M301.01 351.94 L301.80 352.27 M301.80 352.27 L309.42 355.03 M309.42 355.03 L317.05 357.24 M318.85 357.67 L317.05 357.24 M399.15 357.67 L400.95 357.24 M400.95 357.24 L408.58 355.03 M408.58 355.03 L416.20 352.27 M416.20 352.27 L416.99 351.94 M288.34 346.22 L294.17 349.11 M301.01 351.94 L294.17 349.11 M416.99 351.94 L423.83 349.11 M423.83 349.11 L429.66 346.22 M278.33 340.50 L278.92 340.88 M278.92 340.88 L286.54 345.31 M288.34 346.22 L286.54 345.31 M429.66 346.22 L431.46 345.31 M431.46 345.31 L439.08 340.88 M439.08 340.88 L439.67 340.50 M270.08 334.78 L271.29 335.69 M278.33 340.50 L271.29 335.69 M439.67 340.50 L446.71 335.69 M446.71 335.69 L447.92 334.78 M263.16 329.06 L263.66 329.50 M270.08 334.78 L263.66 329.50 M447.92 334.78 L454.34 329.50 M454.34 329.50 L454.84 329.06 M263.16 329.06 L257.26 323.34 M454.84 329.06 L460.74 323.34 M252.19 317.62 L256.03 321.99 M257.26 323.34 L256.03 321.99 M460.74 323.34 L461.97 321.99 M461.97 321.99 L465.81 317.62 M247.97 311.90 L248.41 312.49 M252.19 317.62 L248.41 312.49 M465.81 317.62 L469.59 312.49 M469.59 312.49 L470.03 311.90 M247.97 311.90 L244.29 306.18 M470.03 311.90 L473.71 306.18 M244.29 306.18 L241.35 300.46 M473.71 306.18 L476.65 300.46 M238.85 294.74 L240.78 299.11 M241.35 300.46 L240.78 299.11 M476.65 300.46 L477.22 299.11 M477.22 299.11 L479.15 294.74 M238.85 294.74 L236.91 289.02 M479.15 294.74 L481.09 289.02 M236.91 289.02 L235.50 283.30 M481.09 289.02 L482.50 283.30 M235.50 283.30 L234.58 277.58 M482.50 283.30 L483.42 277.58 M234.58 277.58 L234.13 271.86 M483.42 277.58 L483.87 271.86 M234.13 271.86 L234.13 266.14 M483.87 271.86 L483.87 266.14 M234.13 266.14 L234.58 260.42 M483.87 266.14 L483.42 260.42 M234.58 260.42 L235.50 254.70 M483.42 260.42 L482.50 254.70 M235.50 254.70 L236.91 248.98 M482.50 254.70 L481.09 248.98 M236.91 248.98 L238.85 243.26 M481.09 248.98 L479.15 243.26 M238.85 243.26 L240.78 238.89 M240.78 238.89 L241.35 237.54 M477.22 238.89 L476.65 237.54 M479.15 243.26 L477.22 238.89 M241.35 237.54 L244.29 231.82 M476.65 237.54 L473.71 231.82 M244.29 231.82 L247.97 226.10 M473.71 231.82 L470.03 226.10 M247.97 226.10 L248.41 225.51 M248.41 225.51 L252.19 220.38 M469.59 225.51 L465.81 220.38 M470.03 226.10 L469.59 225.51 M252.19 220.38 L256.03 216.01 M256.03 216.01 L257.26 214.66 M461.97 216.01 L460.74 214.66 M465.81 220.38 L461.97 216.01 M257.26 214.66 L263.16 208.94 M460.74 214.66 L454.84 208.94 M263.16 208.94 L263.66 208.50 M263.66 208.50 L270.08 203.22 M454.34 208.50 L447.92 203.22 M454.84 208.94 L454.34 208.50 M270.08 203.22 L271.29 202.31 M271.29 202.31 L278.33 197.50 M446.71 202.31 L439.67 197.50 M447.92 203.22 L446.71 202.31 M278.33 197.50 L278.92 197.12 M278.92 197.12 L286.54 192.69 M286.54 192.69 L288.34 191.78 M431.46 192.69 L429.66 191.78 M431.46 192.69 L439.08 197.12 M439.67 197.50 L439.08 197.12 M288.34 191.78 L294.17 188.89 M294.17 188.89 L301.01 186.06 M423.83 188.89 L416.99 186.06 M429.66 191.78 L423.83 188.89 M301.01 186.06 L301.80 185.73 M301.80 185.73 L309.42 182.97 M309.42 182.97 L317.05 180.76 M317.05 180.76 L318.85 180.33 M400.95 180.76 L399.15 180.33 M400.95 180.76 L408.58 182.97 M408.58 182.97 L416.20 185.73 M416.99 186.06 L416.20 185.73 M318.85 180.33 L324.68 178.89 M324.68 178.89 L332.31 177.43 M332.31 177.43 L339.93 176.37 M339.93 176.37 L347.56 175.69 M347.56 175.69 L355.19 175.35 M355.19 175.35 L362.81 175.35 M362.81 175.35 L370.44 175.69 M370.44 175.69 L378.07 176.37 M378.07 176.37 L385.69 177.43 M385.69 177.43 L393.32 178.89 M399.15 180.33 L393.32 178.89 " stroke="#006400" stroke-width="1.5" fill="none" /><path d="M349.28 334.78 L355.19 335.17 M355.19 335.17 L362.81 335.17 M362.81 335.17 L368.72 334.78 M321.93 329.06 L324.68 330.03 M324.68 330.03 L332.31 332.15 M332.31 332.15 L339.93 333.68 M339.93 333.68 L347.56 334.67 M349.28 334.78 L347.56 334.67 M368.72 334.78 L370.44 334.67 M370.44 334.67 L378.07 333.68 M378.07 333.68 L385.69 332.15 M385.69 332.15 L393.32 330.03 M393.32 330.03 L396.07 329.06 M308.55 323.34 L309.42 323.81 M309.42 323.81 L317.05 327.28 M321.93 329.06 L317.05 327.28 M396.07 329.06 L400.95 327.28 M400.95 327.28 L408.58 323.81 M408.58 323.81 L409.45 323.34 M299.08 317.62 L301.80 319.44 M308.55 323.34 L301.80 319.44 M409.45 323.34 L416.20 319.44 M416.20 319.44 L418.92 317.62 M291.74 311.90 L294.17 313.94 M299.08 317.62 L294.17 313.94 M418.92 317.62 L423.83 313.94 M423.83 313.94 L426.26 311.90 M285.92 306.18 L286.54 306.83 M291.74 311.90 L286.54 306.83 M426.26 311.90 L431.46 306.83 M431.46 306.83 L432.08 306.18 M285.92 306.18 L281.29 300.46 M432.08 306.18 L436.71 300.46 M277.63 294.74 L278.92 296.80 M281.29 300.46 L278.92 296.80 M436.71 300.46 L439.08 296.80 M439.08 296.80 L440.37 294.74 M277.63 294.74 L274.80 289.02 M440.37 294.74 L443.20 289.02 M274.80 289.02 L272.76 283.30 M443.20 289.02 L445.24 283.30 M272.76 283.30 L271.44 277.58 M445.24 283.30 L446.56 277.58 M270.77 271.86 L271.29 276.29 M271.44 277.58 L271.29 276.29 M446.56 277.58 L446.71 276.29 M446.71 276.29 L447.23 271.86 M270.77 271.86 L270.77 266.14 M447.23 271.86 L447.23 266.14 M270.77 266.14 L271.29 261.71 M271.29 261.71 L271.44 260.42 M446.71 261.71 L446.56 260.42 M447.23 266.14 L446.71 261.71 M271.44 260.42 L272.76 254.70 M446.56 260.42 L445.24 254.70 M272.76 254.70 L274.80 248.98 M445.24 254.70 L443.20 248.98 M274.80 248.98 L277.63 243.26 M443.20 248.98 L440.37 243.26 M277.63 243.26 L278.92 241.20 M278.92 241.20 L281.29 237.54 M439.08 241.20 L436.71 237.54 M440.37 243.26 L439.08 241.20 M281.29 237.54 L285.92 231.82 M436.71 237.54 L432.08 231.82 M285.92 231.82 L286.54 231.17 M286.54 231.17 L291.74 226.10 M431.46 231.17 L426.26 226.10 M432.08 231.82 L431.46 231.17 M291.74 226.10 L294.17 224.06 M294.17 224.06 L299.08 220.38 M423.83 224.06 L418.92 220.38 M426.26 226.10 L423.83 224.06 M299.08 220.38 L301.80 218.56 M301.80 218.56 L308.55 214.66 M416.20 218.56 L409.45 214.66 M418.92 220.38 L416.20 218.56 M308.55 214.66 L309.42 214.19 M309.42 214.19 L317.05 210.72 M317.05 210.72 L321.93 208.94 M400.95 210.72 L396.07 208.94 M400.95 210.72 L408.58 214.19 M409.45 214.66 L408.58 214.19 M321.93 208.94 L324.68 207.97 M324.68 207.97 L332.31 205.85 M332.31 205.85 L339.93 204.32 M339.93 204.32 L347.56 203.33 M347.56 203.33 L349.28 203.22 M370.44 203.33 L368.72 203.22 M370.44 203.33 L378.07 204.32 M378.07 204.32 L385.69 205.85 M385.69 205.85 L393.32 207.97 M396.07 208.94 L393.32 207.97 M349.28 203.22 L355.19 202.83 M355.19 202.83 L362.81 202.83 M368.72 203.22 L362.81 202.83 " stroke="#006400" stroke-width="1.5" fill="none" /><path d="M331.20 306.18 L332.31 306.66 M332.31 306.66 L339.93 309.15 M339.93 309.15 L347.56 310.77 M347.56 310.77 L355.19 311.56 M355.19 311.56 L362.81 311.56 M362.81 311.56 L370.44 310.77 M370.44 310.77 L378.07 309.15 M378.07 309.15 L385.69 306.66 M385.69 306.66 L386.80 306.18 M320.71 300.46 L324.68 302.95 M331.20 306.18 L324.68 302.95 M386.80 306.18 L393.32 302.95 M393.32 302.95 L397.29 300.46 M313.73 294.74 L317.05 297.72 M320.71 300.46 L317.05 297.72 M397.29 300.46 L400.95 297.72 M400.95 297.72 L404.27 294.74 M308.78 289.02 L309.42 289.85 M313.73 294.74 L309.42 289.85 M404.27 294.74 L408.58 289.85 M408.58 289.85 L409.22 289.02 M308.78 289.02 L305.47 283.30 M409.22 289.02 L412.53 283.30 M305.47 283.30 L303.31 277.58 M412.53 283.30 L414.69 277.58 M303.31 277.58 L302.25 271.86 M414.69 277.58 L415.75 271.86 M302.25 271.86 L302.25 266.14 M415.75 271.86 L415.75 266.14 M302.25 266.14 L303.31 260.42 M415.75 266.14 L414.69 260.42 M303.31 260.42 L305.47 254.70 M414.69 260.42 L412.53 254.70 M305.47 254.70 L308.78 248.98 M412.53 254.70 L409.22 248.98 M308.78 248.98 L309.42 248.15 M309.42 248.15 L313.73 243.26 M408.58 248.15 L404.27 243.26 M409.22 248.98 L408.58 248.15 M313.73 243.26 L317.05 240.28 M317.05 240.28 L320.71 237.54 M400.95 240.28 L397.29 237.54 M404.27 243.26 L400.95 240.28 M320.71 237.54 L324.68 235.05 M324.68 235.05 L331.20 231.82 M393.32 235.05 L386.80 231.82 M397.29 237.54 L393.32 235.05 M331.20 231.82 L332.31 231.34 M332.31 231.34 L339.93 228.85 M339.93 228.85 L347.56 227.23 M347.56 227.23 L355.19 226.44 M355.19 226.44 L362.81 226.44 M362.81 226.44 L370.44 227.23 M370.44 227.23 L378.07 228.85 M378.07 228.85 L385.69 231.34 M386.80 231.82 L385.69 231.34 " stroke="#006400" stroke-width="1.5" fill="none" /><path d="M337.52 289.02 L339.93 290.38 M339.93 290.38 L347.56 293.25 M347.56 293.25 L355.19 294.65 M355.19 294.65 L362.81 294.65 M362.81 294.65 L370.44 293.25 M370.44 293.25 L378.07 290.38 M378.07 290.38 L380.48 289.02 M330.49 283.30 L332.31 285.11 M337.52 289.02 L332.31 285.11 M380.48 289.02 L385.69 285.11 M385.69 285.11 L387.51 283.30 M330.49 283.30 L326.67 277.58 M387.51 283.30 L391.33 277.58 M326.67 277.58 L324.79 271.86 M391.33 277.58 L393.21 271.86 M324.79 271.86 L324.79 266.14 M393.21 271.86 L393.21 266.14 M324.79 266.14 L326.67 260.42 M393.21 266.14 L391.33 260.42 M326.67 260.42 L330.49 254.70 M391.33 260.42 L387.51 254.70 M330.49 254.70 L332.31 252.89 M332.31 252.89 L337.52 248.98 M385.69 252.89 L380.48 248.98 M387.51 254.70 L385.69 252.89 M337.52 248.98 L339.93 247.62 M339.93 247.62 L347.56 244.75 M347.56 244.75 L355.19 243.35 M355.19 243.35 L362.81 243.35 M362.81 243.35 L370.44 244.75 M370.44 244.75 L378.07 247.62 M380.48 248.98 L378.07 247.62 " stroke="#006400" stroke-width="1.5" fill="none" /></g></svg>