<svg xmlns="http://www.w3.org/2000/svg" width="673.4" height="545" font-family="DejaVu Sans, Liberation Sans, Arial, sans-serif" fill="black"><rect width="100%" height="100%" fill="white" /><defs><clipPath id="kuva-clip-0"><rect x="59" y="44" width="600" height="450"/></clipPath></defs><line x1="209" y1="44" x2="209" y2="494" stroke="#cccccc" stroke-width="1" /><line x1="359" y1="44" x2="359" y2="494" stroke="#cccccc" stroke-width="1" /><line x1="509" y1="44" x2="509" y2="494" stroke="#cccccc" stroke-width="1" /><line x1="659" y1="44" x2="659" y2="494" stroke="#cccccc" stroke-width="1" /><line x1="59" y1="381.5" x2="659" y2="381.5" stroke="#cccccc" stroke-width="1" /><line x1="59" y1="269" x2="659" y2="269" stroke="#cccccc" stroke-width="1" /><line x1="59" y1="156.5" x2="659" y2="156.5" stroke="#cccccc" stroke-width="1" /><line x1="59" y1="44" x2="659" y2="44" stroke="#cccccc" stroke-width="1" /><line x1="59" y1="494" x2="659" y2="494" stroke="#000000" stroke-width="1" /><line x1="59" y1="44" x2="59" y2="494" stroke="#000000" stroke-width="1" /><line x1="59" y1="494" x2="59" y2="499" stroke="#000000" stroke-width="1" /><text x="59" y="511" font-size="12" text-anchor="middle">-4</text><line x1="209" y1="494" x2="209" y2="499" stroke="#000000" stroke-width="1" /><text x="209" y="511" font-size="12" text-anchor="middle">-2</text><line x1="359" y1="494" x2="359" y2="499" stroke="#000000" stroke-width="1" /><text x="359" y="511" font-size="12" text-anchor="middle">0</text><line x1="509" y1="494" x2="509" y2="499" stroke="#000000" stroke-width="1" /><text x="509" y="511" font-size="12" text-anchor="middle">2</text><line x1="659" y1="494" x2="659" y2="499" stroke="#000000" stroke-width="1" /><text x="659" y="511" font-size="12" text-anchor="middle">4</text><line x1="54" y1="494" x2="59" y2="494" stroke="#000000" stroke-width="1" /><text x="51" y="498.2" font-size="12" text-anchor="end">-4</text><line x1="54" y1="381.5" x2="59" y2="381.5" stroke="#000000" stroke-width="1" /><text x="51" y="385.7" font-size="12" text-anchor="end">-2</text><line x1="54" y1="269" x2="59" y2="269" stroke="#000000" stroke-width="1" /><text x="51" y="273.2" font-size="12" text-anchor="end">0</text><line x1="54" y1="156.5" x2="59" y2="156.5" stroke="#000000" stroke-width="1" /><text x="51" y="160.70000000000002" font-size="12" text-anchor="end">2</text><line x1="54" y1="44" x2="59" y2="44" stroke="#000000" stroke-width="1" /><text x="51" y="48.2" font-size="12" text-anchor="end">4</text><text x="359" y="538" font-size="14" text-anchor="middle">x</text><text x="15" y="272.5" font-size="14" text-anchor="middle" transform="rotate(-90,15,272.5)">y</text><text x="336.7" y="27.400000000000002" font-size="18" text-anchor="middle">Iso-line Contours — Gaussian Peak</text><g clip-path="url(#kuva-clip-0)"><path d="M349.51 391.99 L355.19 392.20 M355.19 392.20 L362.81 392.20 M362.81 392.20 L368.49 391.99 M308.59 386.27 L309.42 386.49 M309.42 386.49 L317.05 388.24 M317.05 388.24 L324.68 389.62 M324.68 389.62 L332.31 390.67 M332.31 390.67 L339.93 391.43 M339.93 391.43 L347.56 391.92 M349.51 391.99 L347.56 391.92 M368.49 391.99 L370.44 391.92 M370.44 391.92 L378.07 391.43 M378.07 391.43 L385.69 390.67 M385.69 390.67 L393.32 389.62 M393.32 389.62 L400.95 388.24 M400.95 388.24 L408.58 386.49 M408.58 386.49 L409.41 386.27 M289.22 380.55 L294.17 382.31 M294.17 382.31 L301.80 384.60 M308.59 386.27 L301.80 384.60 M409.41 386.27 L416.20 384.60 M416.20 384.60 L423.83 382.31 M423.83 382.31 L428.78 380.55 M274.82 374.83 L278.92 376.68 M278.92 376.68 L286.54 379.64 M289.22 380.55 L286.54 379.64 M428.78 380.55 L431.46 379.64 M431.46 379.64 L439.08 376.68 M439.08 376.68 L443.18 374.83 M263.20 369.11 L263.66 369.36 M263.66 369.36 L271.29 373.26 M274.82 374.83 L271.29 373.26 M443.18 374.83 L446.71 373.26 M446.71 373.26 L454.34 369.36 M454.34 369.36 L454.80 369.11 M253.33 363.39 L256.03 365.08 M263.20 369.11 L256.03 365.08 M454.80 369.11 L461.97 365.08 M461.97 365.08 L464.67 363.39 M244.83 357.67 L248.41 360.19 M253.33 363.39 L248.41 360.19 M464.67 363.39 L469.59 360.19 M469.59 360.19 L473.17 357.67 M237.41 351.94 L240.78 354.63 M244.83 357.67 L240.78 354.63 M473.17 357.67 L477.22 354.63 M477.22 354.63 L480.59 351.94 M230.89 346.22 L233.15 348.26 M237.41 351.94 L233.15 348.26 M480.59 351.94 L484.85 348.26 M484.85 348.26 L487.11 346.22 M225.18 340.50 L225.53 340.85 M230.89 346.22 L225.53 340.85 M487.11 346.22 L492.47 340.85 M492.47 340.85 L492.82 340.50 M225.18 340.50 L219.98 334.78 M492.82 340.50 L498.02 334.78 M215.43 329.06 L217.90 332.13 M219.98 334.78 L217.90 332.13 M498.02 334.78 L500.10 332.13 M500.10 332.13 L502.57 329.06 M215.43 329.06 L211.47 323.34 M502.57 329.06 L506.53 323.34 M207.92 317.62 L210.27 321.33 M211.47 323.34 L210.27 321.33 M506.53 323.34 L507.73 321.33 M507.73 321.33 L510.08 317.62 M207.92 317.62 L204.86 311.90 M510.08 317.62 L513.14 311.90 M202.34 306.18 L202.64 306.81 M204.86 311.90 L202.64 306.81 M513.14 311.90 L515.36 306.81 M515.36 306.81 L515.66 306.18 M202.34 306.18 L200.01 300.46 M515.66 306.18 L517.99 300.46 M200.01 300.46 L198.18 294.74 M517.99 300.46 L519.82 294.74 M198.18 294.74 L196.77 289.02 M519.82 294.74 L521.23 289.02 M196.77 289.02 L195.76 283.30 M521.23 289.02 L522.24 283.30 M195.76 283.30 L195.10 277.58 M522.24 283.30 L522.90 277.58 M194.73 271.86 L195.02 276.12 M195.10 277.58 L195.02 276.12 M522.90 277.58 L522.98 276.12 M522.98 276.12 L523.27 271.86 M194.73 271.86 L194.73 266.14 M523.27 271.86 L523.27 266.14 M194.73 266.14 L195.02 261.88 M195.02 261.88 L195.10 260.42 M522.98 261.88 L522.90 260.42 M523.27 266.14 L522.98 261.88 M195.10 260.42 L195.76 254.70 M522.90 260.42 L522.24 254.70 M195.76 254.70 L196.77 248.98 M522.24 254.70 L521.23 248.98 M196.77 248.98 L198.18 243.26 M521.23 248.98 L519.82 243.26 M198.18 243.26 L200.01 237.54 M519.82 243.26 L517.99 237.54 M200.01 237.54 L202.34 231.82 M517.99 237.54 L515.66 231.82 M202.34 231.82 L202.64 231.19 M202.64 231.19 L204.86 226.10 M515.36 231.19 L513.14 226.10 M515.66 231.82 L515.36 231.19 M204.86 226.10 L207.92 220.38 M513.14 226.10 L510.08 220.38 M207.92 220.38 L210.27 216.67 M210.27 216.67 L211.47 214.66 M507.73 216.67 L506.53 214.66 M510.08 220.38 L507.73 216.67 M211.47 214.66 L215.43 208.94 M506.53 214.66 L502.57 208.94 M215.43 208.94 L217.90 205.87 M217.90 205.87 L219.98 203.22 M500.10 205.87 L498.02 203.22 M502.57 208.94 L500.10 205.87 M219.98 203.22 L225.18 197.50 M498.02 203.22 L492.82 197.50 M225.18 197.50 L225.53 197.15 M225.53 197.15 L230.89 191.78 M492.47 197.15 L487.11 191.78 M492.82 197.50 L492.47 197.15 M230.89 191.78 L233.15 189.74 M233.15 189.74 L237.41 186.06 M484.85 189.74 L480.59 186.06 M487.11 191.78 L484.85 189.74 M237.41 186.06 L240.78 183.37 M240.78 183.37 L244.83 180.33 M477.22 183.37 L473.17 180.33 M480.59 186.06 L477.22 183.37 M244.83 180.33 L248.41 177.81 M248.41 177.81 L253.33 174.61 M469.59 177.81 L464.67 174.61 M473.17 180.33 L469.59 177.81 M253.33 174.61 L256.03 172.92 M256.03 172.92 L263.20 168.89 M461.97 172.92 L454.80 168.89 M464.67 174.61 L461.97 172.92 M263.20 168.89 L263.66 168.64 M263.66 168.64 L271.29 164.74 M271.29 164.74 L274.82 163.17 M446.71 164.74 L443.18 163.17 M446.71 164.74 L454.34 168.64 M454.80 168.89 L454.34 168.64 M274.82 163.17 L278.92 161.32 M278.92 161.32 L286.54 158.36 M286.54 158.36 L289.22 157.45 M431.46 158.36 L428.78 157.45 M431.46 158.36 L439.08 161.32 M443.18 163.17 L439.08 161.32 M289.22 157.45 L294.17 155.69 M294.17 155.69 L301.80 153.40 M301.80 153.40 L308.59 151.73 M416.20 153.40 L409.41 151.73 M416.20 153.40 L423.83 155.69 M428.78 157.45 L423.83 155.69 M308.59 151.73 L309.42 151.51 M309.42 151.51 L317.05 149.76 M317.05 149.76 L324.68 148.38 M324.68 148.38 L332.31 147.33 M332.31 147.33 L339.93 146.57 M339.93 146.57 L347.56 146.08 M347.56 146.08 L349.51 146.01 M370.44 146.08 L368.49 146.01 M370.44 146.08 L378.07 146.57 M378.07 146.57 L385.69 147.33 M385.69 147.33 L393.32 148.38 M393.32 148.38 L400.95 149.76 M400.95 149.76 L408.58 151.51 M409.41 151.73 L408.58 151.51 M349.51 146.01 L355.19 145.80 M355.19 145.80 L362.81 145.80 M368.49 146.01 L362.81 145.80 " stroke="#4682b4" stroke-width="1.2" fill="none" /><path d="M321.91 369.11 L324.68 369.72 M324.68 369.72 L332.31 371.06 M332.31 371.06 L339.93 372.03 M339.93 372.03 L347.56 372.66 M347.56 372.66 L355.19 372.97 M355.19 372.97 L362.81 372.97 M362.81 372.97 L370.44 372.66 M370.44 372.66 L378.07 372.03 M378.07 372.03 L385.69 371.06 M385.69 371.06 L393.32 369.72 M393.32 369.72 L396.09 369.11 M301.02 363.39 L301.80 363.67 M301.80 363.67 L309.42 366.13 M309.42 366.13 L317.05 368.10 M321.91 369.11 L317.05 368.10 M396.09 369.11 L400.95 368.10 M400.95 368.10 L408.58 366.13 M408.58 366.13 L416.20 363.67 M416.20 363.67 L416.98 363.39 M286.72 357.67 L294.17 360.92 M301.02 363.39 L294.17 360.92 M416.98 363.39 L423.83 360.92 M423.83 360.92 L431.28 357.67 M275.49 351.94 L278.92 353.87 M278.92 353.87 L286.54 357.59 M286.72 357.67 L286.54 357.59 M431.28 357.67 L431.46 357.59 M431.46 357.59 L439.08 353.87 M439.08 353.87 L442.51 351.94 M266.23 346.22 L271.29 349.51 M275.49 351.94 L271.29 349.51 M442.51 351.94 L446.71 349.51 M446.71 349.51 L451.77 346.22 M258.39 340.50 L263.66 344.45 M266.23 346.22 L263.66 344.45 M451.77 346.22 L454.34 344.45 M454.34 344.45 L459.61 340.50 M251.66 334.78 L256.03 338.58 M258.39 340.50 L256.03 338.58 M459.61 340.50 L461.97 338.58 M461.97 338.58 L466.34 334.78 M245.84 329.06 L248.41 331.63 M251.66 334.78 L248.41 331.63 M466.34 334.78 L469.59 331.63 M469.59 331.63 L472.16 329.06 M245.84 329.06 L240.88 323.34 M472.16 329.06 L477.12 323.34 M236.44 317.62 L240.78 323.21 M240.88 323.34 L240.78 323.21 M477.12 323.34 L477.22 323.21 M477.22 323.21 L481.56 317.62 M232.77 311.90 L233.15 312.49 M236.44 317.62 L233.15 312.49 M481.56 317.62 L484.85 312.49 M484.85 312.49 L485.23 311.90 M232.77 311.90 L229.49 306.18 M485.23 311.90 L488.51 306.18 M229.49 306.18 L226.87 300.46 M488.51 306.18 L491.13 300.46 M224.70 294.74 L225.53 296.82 M226.87 300.46 L225.53 296.82 M491.13 300.46 L492.47 296.82 M492.47 296.82 L493.30 294.74 M224.70 294.74 L222.92 289.02 M493.30 294.74 L495.08 289.02 M222.92 289.02 L221.63 283.30 M495.08 289.02 L496.37 283.30 M221.63 283.30 L220.79 277.58 M496.37 283.30 L497.21 277.58 M220.79 277.58 L220.37 271.86 M497.21 277.58 L497.63 271.86 M220.37 271.86 L220.37 266.14 M497.63 271.86 L497.63 266.14 M220.37 266.14 L220.79 260.42 M497.63 266.14 L497.21 260.42 M220.79 260.42 L221.63 254.70 M497.21 260.42 L496.37 254.70 M221.63 254.70 L222.92 248.98 M496.37 254.70 L495.08 248.98 M222.92 248.98 L224.70 243.26 M495.08 248.98 L493.30 243.26 M224.70 243.26 L225.53 241.18 M225.53 241.18 L226.87 237.54 M492.47 241.18 L491.13 237.54 M493.30 243.26 L492.47 241.18 M226.87 237.54 L229.49 231.82 M491.13 237.54 L488.51 231.82 M229.49 231.82 L232.77 226.10 M488.51 231.82 L485.23 226.10 M232.77 226.10 L233.15 225.51 M233.15 225.51 L236.44 220.38 M484.85 225.51 L481.56 220.38 M485.23 226.10 L484.85 225.51 M236.44 220.38 L240.78 214.79 M240.78 214.79 L240.88 214.66 M477.22 214.79 L477.12 214.66 M481.56 220.38 L477.22 214.79 M240.88 214.66 L245.84 208.94 M477.12 214.66 L472.16 208.94 M245.84 208.94 L248.41 206.37 M248.41 206.37 L251.66 203.22 M469.59 206.37 L466.34 203.22 M472.16 208.94 L469.59 206.37 M251.66 203.22 L256.03 199.42 M256.03 199.42 L258.39 197.50 M461.97 199.42 L459.61 197.50 M466.34 203.22 L461.97 199.42 M258.39 197.50 L263.66 193.55 M263.66 193.55 L266.23 191.78 M454.34 193.55 L451.77 191.78 M459.61 197.50 L454.34 193.55 M266.23 191.78 L271.29 188.49 M271.29 188.49 L275.49 186.06 M446.71 188.49 L442.51 186.06 M451.77 191.78 L446.71 188.49 M275.49 186.06 L278.92 184.13 M278.92 184.13 L286.54 180.41 M286.54 180.41 L286.72 180.33 M431.46 180.41 L431.28 180.33 M431.46 180.41 L439.08 184.13 M442.51 186.06 L439.08 184.13 M286.72 180.33 L294.17 177.08 M294.17 177.08 L301.02 174.61 M423.83 177.08 L416.98 174.61 M431.28 180.33 L423.83 177.08 M301.02 174.61 L301.80 174.33 M301.80 174.33 L309.42 171.87 M309.42 171.87 L317.05 169.90 M317.05 169.90 L321.91 168.89 M400.95 169.90 L396.09 168.89 M400.95 169.90 L408.58 171.87 M408.58 171.87 L416.20 174.33 M416.98 174.61 L416.20 174.33 M321.91 168.89 L324.68 168.28 M324.68 168.28 L332.31 166.94 M332.31 166.94 L339.93 165.97 M339.93 165.97 L347.56 165.34 M347.56 165.34 L355.19 165.03 M355.19 165.03 L362.81 165.03 M362.81 165.03 L370.44 165.34 M370.44 165.34 L378.07 165.97 M378.07 165.97 L385.69 166.94 M385.69 166.94 L393.32 168.28 M396.09 168.89 L393.32 168.28 " stroke="#4682b4" stroke-width="1.2" fill="none" /><path d="M333.30 357.67 L339.93 358.66 M339.93 358.66 L347.56 359.41 M347.56 359.41 L355.19 359.78 M355.19 359.78 L362.81 359.78 M362.81 359.78 L370.44 359.41 M370.44 359.41 L378.07 358.66 M378.07 358.66 L384.70 357.67 M309.92 351.94 L317.05 354.19 M317.05 354.19 L324.68 356.08 M324.68 356.08 L332.31 357.52 M333.30 357.67 L332.31 357.52 M384.70 357.67 L385.69 357.52 M385.69 357.52 L393.32 356.08 M393.32 356.08 L400.95 354.19 M400.95 354.19 L408.08 351.94 M295.46 346.22 L301.80 349.03 M301.80 349.03 L309.42 351.79 M309.92 351.94 L309.42 351.79 M408.08 351.94 L408.58 351.79 M408.58 351.79 L416.20 349.03 M416.20 349.03 L422.54 346.22 M284.48 340.50 L286.54 341.71 M286.54 341.71 L294.17 345.65 M295.46 346.22 L294.17 345.65 M422.54 346.22 L423.83 345.65 M423.83 345.65 L431.46 341.71 M431.46 341.71 L433.52 340.50 M275.62 334.78 L278.92 337.06 M284.48 340.50 L278.92 337.06 M433.52 340.50 L439.08 337.06 M439.08 337.06 L442.38 334.78 M268.25 329.06 L271.29 331.54 M275.62 334.78 L271.29 331.54 M442.38 334.78 L446.71 331.54 M446.71 331.54 L449.75 329.06 M262.05 323.34 L263.66 324.89 M268.25 329.06 L263.66 324.89 M449.75 329.06 L454.34 324.89 M454.34 324.89 L455.95 323.34 M262.05 323.34 L256.81 317.62 M455.95 323.34 L461.19 317.62 M252.30 311.90 L256.03 316.66 M256.81 317.62 L256.03 316.66 M461.19 317.62 L461.97 316.66 M461.97 316.66 L465.70 311.90 M252.30 311.90 L248.61 306.18 M465.70 311.90 L469.39 306.18 M245.42 300.46 L248.41 305.81 M248.61 306.18 L248.41 305.81 M469.39 306.18 L469.59 305.81 M469.59 305.81 L472.58 300.46 M245.42 300.46 L242.89 294.74 M472.58 300.46 L475.11 294.74 M242.89 294.74 L240.97 289.02 M475.11 294.74 L477.03 289.02 M239.45 283.30 L240.78 288.27 M240.97 289.02 L240.78 288.27 M477.03 289.02 L477.22 288.27 M477.22 288.27 L478.55 283.30 M239.45 283.30 L238.46 277.58 M478.55 283.30 L479.54 277.58 M238.46 277.58 L237.96 271.86 M479.54 277.58 L480.04 271.86 M237.96 271.86 L237.96 266.14 M480.04 271.86 L480.04 266.14 M237.96 266.14 L238.46 260.42 M480.04 266.14 L479.54 260.42 M238.46 260.42 L239.45 254.70 M479.54 260.42 L478.55 254.70 M239.45 254.70 L240.78 249.73 M240.78 249.73 L240.97 248.98 M477.22 249.73 L477.03 248.98 M478.55 254.70 L477.22 249.73 M240.97 248.98 L242.89 243.26 M477.03 248.98 L475.11 243.26 M242.89 243.26 L245.42 237.54 M475.11 243.26 L472.58 237.54 M245.42 237.54 L248.41 232.19 M248.41 232.19 L248.61 231.82 M469.59 232.19 L469.39 231.82 M472.58 237.54 L469.59 232.19 M248.61 231.82 L252.30 226.10 M469.39 231.82 L465.70 226.10 M252.30 226.10 L256.03 221.34 M256.03 221.34 L256.81 220.38 M461.97 221.34 L461.19 220.38 M465.70 226.10 L461.97 221.34 M256.81 220.38 L262.05 214.66 M461.19 220.38 L455.95 214.66 M262.05 214.66 L263.66 213.11 M263.66 213.11 L268.25 208.94 M454.34 213.11 L449.75 208.94 M455.95 214.66 L454.34 213.11 M268.25 208.94 L271.29 206.46 M271.29 206.46 L275.62 203.22 M446.71 206.46 L442.38 203.22 M449.75 208.94 L446.71 206.46 M275.62 203.22 L278.92 200.94 M278.92 200.94 L284.48 197.50 M439.08 200.94 L433.52 197.50 M442.38 203.22 L439.08 200.94 M284.48 197.50 L286.54 196.29 M286.54 196.29 L294.17 192.35 M294.17 192.35 L295.46 191.78 M423.83 192.35 L422.54 191.78 M423.83 192.35 L431.46 196.29 M433.52 197.50 L431.46 196.29 M295.46 191.78 L301.80 188.97 M301.80 188.97 L309.42 186.21 M309.42 186.21 L309.92 186.06 M408.58 186.21 L408.08 186.06 M408.58 186.21 L416.20 188.97 M422.54 191.78 L416.20 188.97 M309.92 186.06 L317.05 183.81 M317.05 183.81 L324.68 181.92 M324.68 181.92 L332.31 180.48 M332.31 180.48 L333.30 180.33 M385.69 180.48 L384.70 180.33 M385.69 180.48 L393.32 181.92 M393.32 181.92 L400.95 183.81 M408.08 186.06 L400.95 183.81 M333.30 180.33 L339.93 179.34 M339.93 179.34 L347.56 178.59 M347.56 178.59 L355.19 178.22 M355.19 178.22 L362.81 178.22 M362.81 178.22 L370.44 178.59 M370.44 178.59 L378.07 179.34 M384.70 180.33 L378.07 179.34 " stroke="#4682b4" stroke-width="1.2" fill="none" /><path d="M330.76 346.22 L332.31 346.57 M332.31 346.57 L339.93 347.86 M339.93 347.86 L347.56 348.69 M347.56 348.69 L355.19 349.10 M355.19 349.10 L362.81 349.10 M362.81 349.10 L370.44 348.69 M370.44 348.69 L378.07 347.86 M378.07 347.86 L385.69 346.57 M385.69 346.57 L387.24 346.22 M310.92 340.50 L317.05 342.70 M317.05 342.70 L324.68 344.88 M330.76 346.22 L324.68 344.88 M387.24 346.22 L393.32 344.88 M393.32 344.88 L400.95 342.70 M400.95 342.70 L407.08 340.50 M298.10 334.78 L301.80 336.67 M301.80 336.67 L309.42 339.96 M310.92 340.50 L309.42 339.96 M407.08 340.50 L408.58 339.96 M408.58 339.96 L416.20 336.67 M416.20 336.67 L419.90 334.78 M288.35 329.06 L294.17 332.67 M298.10 334.78 L294.17 332.67 M419.90 334.78 L423.83 332.67 M423.83 332.67 L429.65 329.06 M280.53 323.34 L286.54 327.85 M288.35 329.06 L286.54 327.85 M429.65 329.06 L431.46 327.85 M431.46 327.85 L437.47 323.34 M274.10 317.62 L278.92 321.99 M280.53 323.34 L278.92 321.99 M437.47 323.34 L439.08 321.99 M439.08 321.99 L443.90 317.62 M268.77 311.90 L271.29 314.68 M274.10 317.62 L271.29 314.68 M443.90 317.62 L446.71 314.68 M446.71 314.68 L449.23 311.90 M268.77 311.90 L264.38 306.18 M449.23 311.90 L453.62 306.18 M260.73 300.46 L263.66 305.06 M264.38 306.18 L263.66 305.06 M453.62 306.18 L454.34 305.06 M454.34 305.06 L457.27 300.46 M260.73 300.46 L257.82 294.74 M457.27 300.46 L460.18 294.74 M255.57 289.02 L256.03 290.18 M257.82 294.74 L256.03 290.18 M460.18 294.74 L461.97 290.18 M461.97 290.18 L462.43 289.02 M255.57 289.02 L253.86 283.30 M462.43 289.02 L464.14 283.30 M253.86 283.30 L252.74 277.58 M464.14 283.30 L465.26 277.58 M252.74 277.58 L252.19 271.86 M465.26 277.58 L465.81 271.86 M252.19 271.86 L252.19 266.14 M465.81 271.86 L465.81 266.14 M252.19 266.14 L252.74 260.42 M465.81 266.14 L465.26 260.42 M252.74 260.42 L253.86 254.70 M465.26 260.42 L464.14 254.70 M253.86 254.70 L255.57 248.98 M464.14 254.70 L462.43 248.98 M255.57 248.98 L256.03 247.82 M256.03 247.82 L257.82 243.26 M461.97 247.82 L460.18 243.26 M462.43 248.98 L461.97 247.82 M257.82 243.26 L260.73 237.54 M460.18 243.26 L457.27 237.54 M260.73 237.54 L263.66 232.94 M263.66 232.94 L264.38 231.82 M454.34 232.94 L453.62 231.82 M457.27 237.54 L454.34 232.94 M264.38 231.82 L268.77 226.10 M453.62 231.82 L449.23 226.10 M268.77 226.10 L271.29 223.32 M271.29 223.32 L274.10 220.38 M446.71 223.32 L443.90 220.38 M449.23 226.10 L446.71 223.32 M274.10 220.38 L278.92 216.01 M278.92 216.01 L280.53 214.66 M439.08 216.01 L437.47 214.66 M443.90 220.38 L439.08 216.01 M280.53 214.66 L286.54 210.15 M286.54 210.15 L288.35 208.94 M431.46 210.15 L429.65 208.94 M437.47 214.66 L431.46 210.15 M288.35 208.94 L294.17 205.33 M294.17 205.33 L298.10 203.22 M423.83 205.33 L419.90 203.22 M429.65 208.94 L423.83 205.33 M298.10 203.22 L301.80 201.33 M301.80 201.33 L309.42 198.04 M309.42 198.04 L310.92 197.50 M408.58 198.04 L407.08 197.50 M408.58 198.04 L416.20 201.33 M419.90 203.22 L416.20 201.33 M310.92 197.50 L317.05 195.30 M317.05 195.30 L324.68 193.12 M324.68 193.12 L330.76 191.78 M393.32 193.12 L387.24 191.78 M393.32 193.12 L400.95 195.30 M407.08 197.50 L400.95 195.30 M330.76 191.78 L332.31 191.43 M332.31 191.43 L339.93 190.14 M339.93 190.14 L347.56 189.31 M347.56 189.31 L355.19 188.90 M355.19 188.90 L362.81 188.90 M362.81 188.90 L370.44 189.31 M370.44 189.31 L378.07 190.14 M378.07 190.14 L385.69 191.43 M387.24 191.78 L385.69 191.43 " stroke="#4682b4" stroke-width="1.2" fill="none" /><path d="M324.33 334.78 L324.68 334.90 M324.68 334.90 L332.31 336.88 M332.31 336.88 L339.93 338.31 M339.93 338.31 L347.56 339.24 M347.56 339.24 L355.19 339.70 M355.19 339.70 L362.81 339.70 M362.81 339.70 L370.44 339.24 M370.44 339.24 L378.07 338.31 M378.07 338.31 L385.69 336.88 M385.69 336.88 L393.32 334.90 M393.32 334.90 L393.67 334.78 M309.17 329.06 L309.42 329.19 M309.42 329.19 L317.05 332.38 M324.33 334.78 L317.05 332.38 M393.67 334.78 L400.95 332.38 M400.95 332.38 L408.58 329.19 M408.58 329.19 L408.83 329.06 M298.65 323.34 L301.80 325.25 M309.17 329.06 L301.80 325.25 M408.83 329.06 L416.20 325.25 M416.20 325.25 L419.35 323.34 M290.50 317.62 L294.17 320.37 M298.65 323.34 L294.17 320.37 M419.35 323.34 L423.83 320.37 M423.83 320.37 L427.50 317.62 M284.00 311.90 L286.54 314.27 M290.50 317.62 L286.54 314.27 M427.50 317.62 L431.46 314.27 M431.46 314.27 L434.00 311.90 M278.75 306.18 L278.92 306.37 M284.00 311.90 L278.92 306.37 M434.00 311.90 L439.08 306.37 M439.08 306.37 L439.25 306.18 M278.75 306.18 L274.49 300.46 M439.25 306.18 L443.51 300.46 M271.14 294.74 L271.29 295.01 M274.49 300.46 L271.29 295.01 M443.51 300.46 L446.71 295.01 M446.71 295.01 L446.86 294.74 M271.14 294.74 L268.49 289.02 M446.86 294.74 L449.51 289.02 M268.49 289.02 L266.58 283.30 M449.51 289.02 L451.42 283.30 M266.58 283.30 L265.34 277.58 M451.42 283.30 L452.66 277.58 M265.34 277.58 L264.73 271.86 M452.66 277.58 L453.27 271.86 M264.73 271.86 L264.73 266.14 M453.27 271.86 L453.27 266.14 M264.73 266.14 L265.34 260.42 M453.27 266.14 L452.66 260.42 M265.34 260.42 L266.58 254.70 M452.66 260.42 L451.42 254.70 M266.58 254.70 L268.49 248.98 M451.42 254.70 L449.51 248.98 M268.49 248.98 L271.14 243.26 M449.51 248.98 L446.86 243.26 M271.14 243.26 L271.29 242.99 M271.29 242.99 L274.49 237.54 M446.71 242.99 L443.51 237.54 M446.86 243.26 L446.71 242.99 M274.49 237.54 L278.75 231.82 M443.51 237.54 L439.25 231.82 M278.75 231.82 L278.92 231.63 M278.92 231.63 L284.00 226.10 M439.08 231.63 L434.00 226.10 M439.25 231.82 L439.08 231.63 M284.00 226.10 L286.54 223.73 M286.54 223.73 L290.50 220.38 M431.46 223.73 L427.50 220.38 M434.00 226.10 L431.46 223.73 M290.50 220.38 L294.17 217.63 M294.17 217.63 L298.65 214.66 M423.83 217.63 L419.35 214.66 M427.50 220.38 L423.83 217.63 M298.65 214.66 L301.80 212.75 M301.80 212.75 L309.17 208.94 M416.20 212.75 L408.83 208.94 M419.35 214.66 L416.20 212.75 M309.17 208.94 L309.42 208.81 M309.42 208.81 L317.05 205.62 M317.05 205.62 L324.33 203.22 M400.95 205.62 L393.67 203.22 M400.95 205.62 L408.58 208.81 M408.83 208.94 L408.58 208.81 M324.33 203.22 L324.68 203.10 M324.68 203.10 L332.31 201.12 M332.31 201.12 L339.93 199.69 M339.93 199.69 L347.56 198.76 M347.56 198.76 L355.19 198.30 M355.19 198.30 L362.81 198.30 M362.81 198.30 L370.44 198.76 M370.44 198.76 L378.07 199.69 M378.07 199.69 L385.69 201.12 M385.69 201.12 L393.32 203.10 M393.67 203.22 L393.32 203.10 " stroke="#4682b4" stroke-width="1.2" fill="none" /><path d="M338.39 329.06 L339.93 329.39 M339.93 329.39 L347.56 330.47 M347.56 330.47 L355.19 331.01 M355.19 331.01 L362.81 331.01 M362.81 331.01 L370.44 330.47 M370.44 330.47 L378.07 329.39 M378.07 329.39 L379.61 329.06 M319.15 323.34 L324.68 325.47 M324.68 325.47 L332.31 327.74 M338.39 329.06 L332.31 327.74 M379.61 329.06 L385.69 327.74 M385.69 327.74 L393.32 325.47 M393.32 325.47 L398.85 323.34 M307.63 317.62 L309.42 318.68 M309.42 318.68 L317.05 322.49 M319.15 323.34 L317.05 322.49 M398.85 323.34 L400.95 322.49 M400.95 322.49 L408.58 318.68 M408.58 318.68 L410.37 317.62 M299.25 311.90 L301.80 313.81 M307.63 317.62 L301.80 313.81 M410.37 317.62 L416.20 313.81 M416.20 313.81 L418.75 311.90 M292.76 306.18 L294.17 307.53 M299.25 311.90 L294.17 307.53 M418.75 311.90 L423.83 307.53 M423.83 307.53 L425.24 306.18 M292.76 306.18 L287.68 300.46 M425.24 306.18 L430.32 300.46 M283.71 294.74 L286.54 298.89 M287.68 300.46 L286.54 298.89 M430.32 300.46 L431.46 298.89 M431.46 298.89 L434.29 294.74 M283.71 294.74 L280.67 289.02 M434.29 294.74 L437.33 289.02 M278.48 283.30 L278.92 284.46 M280.67 289.02 L278.92 284.46 M437.33 289.02 L439.08 284.46 M439.08 284.46 L439.52 283.30 M278.48 283.30 L277.03 277.58 M439.52 283.30 L440.97 277.58 M277.03 277.58 L276.32 271.86 M440.97 277.58 L441.68 271.86 M276.32 271.86 L276.32 266.14 M441.68 271.86 L441.68 266.14 M276.32 266.14 L277.03 260.42 M441.68 266.14 L440.97 260.42 M277.03 260.42 L278.48 254.70 M440.97 260.42 L439.52 254.70 M278.48 254.70 L278.92 253.54 M278.92 253.54 L280.67 248.98 M439.08 253.54 L437.33 248.98 M439.52 254.70 L439.08 253.54 M280.67 248.98 L283.71 243.26 M437.33 248.98 L434.29 243.26 M283.71 243.26 L286.54 239.11 M286.54 239.11 L287.68 237.54 M431.46 239.11 L430.32 237.54 M434.29 243.26 L431.46 239.11 M287.68 237.54 L292.76 231.82 M430.32 237.54 L425.24 231.82 M292.76 231.82 L294.17 230.47 M294.17 230.47 L299.25 226.10 M423.83 230.47 L418.75 226.10 M425.24 231.82 L423.83 230.47 M299.25 226.10 L301.80 224.19 M301.80 224.19 L307.63 220.38 M416.20 224.19 L410.37 220.38 M418.75 226.10 L416.20 224.19 M307.63 220.38 L309.42 219.32 M309.42 219.32 L317.05 215.51 M317.05 215.51 L319.15 214.66 M400.95 215.51 L398.85 214.66 M400.95 215.51 L408.58 219.32 M410.37 220.38 L408.58 219.32 M319.15 214.66 L324.68 212.53 M324.68 212.53 L332.31 210.26 M332.31 210.26 L338.39 208.94 M385.69 210.26 L379.61 208.94 M385.69 210.26 L393.32 212.53 M398.85 214.66 L393.32 212.53 M338.39 208.94 L339.93 208.61 M339.93 208.61 L347.56 207.53 M347.56 207.53 L355.19 206.99 M355.19 206.99 L362.81 206.99 M362.81 206.99 L370.44 207.53 M370.44 207.53 L378.07 208.61 M379.61 208.94 L378.07 208.61 " stroke="#4682b4" stroke-width="1.2" fill="none" /><path d="M329.03 317.62 L332.31 318.74 M332.31 318.74 L339.93 320.68 M339.93 320.68 L347.56 321.93 M347.56 321.93 L355.19 322.55 M355.19 322.55 L362.81 322.55 M362.81 322.55 L370.44 321.93 M370.44 321.93 L378.07 320.68 M378.07 320.68 L385.69 318.74 M385.69 318.74 L388.97 317.62 M316.14 311.90 L317.05 312.42 M317.05 312.42 L324.68 316.02 M329.03 317.62 L324.68 316.02 M388.97 317.62 L393.32 316.02 M393.32 316.02 L400.95 312.42 M400.95 312.42 L401.86 311.90 M307.52 306.18 L309.42 307.61 M316.14 311.90 L309.42 307.61 M401.86 311.90 L408.58 307.61 M408.58 307.61 L410.48 306.18 M301.11 300.46 L301.80 301.15 M307.52 306.18 L301.80 301.15 M410.48 306.18 L416.20 301.15 M416.20 301.15 L416.89 300.46 M301.11 300.46 L296.30 294.74 M416.89 300.46 L421.70 294.74 M292.68 289.02 L294.17 291.48 M296.30 294.74 L294.17 291.48 M421.70 294.74 L423.83 291.48 M423.83 291.48 L425.32 289.02 M292.68 289.02 L290.10 283.30 M425.32 289.02 L427.90 283.30 M290.10 283.30 L288.43 277.58 M427.90 283.30 L429.57 277.58 M288.43 277.58 L287.60 271.86 M429.57 277.58 L430.40 271.86 M287.60 271.86 L287.60 266.14 M430.40 271.86 L430.40 266.14 M287.60 266.14 L288.43 260.42 M430.40 266.14 L429.57 260.42 M288.43 260.42 L290.10 254.70 M429.57 260.42 L427.90 254.70 M290.10 254.70 L292.68 248.98 M427.90 254.70 L425.32 248.98 M292.68 248.98 L294.17 246.52 M294.17 246.52 L296.30 243.26 M423.83 246.52 L421.70 243.26 M425.32 248.98 L423.83 246.52 M296.30 243.26 L301.11 237.54 M421.70 243.26 L416.89 237.54 M301.11 237.54 L301.80 236.85 M301.80 236.85 L307.52 231.82 M416.20 236.85 L410.48 231.82 M416.89 237.54 L416.20 236.85 M307.52 231.82 L309.42 230.39 M309.42 230.39 L316.14 226.10 M408.58 230.39 L401.86 226.10 M410.48 231.82 L408.58 230.39 M316.14 226.10 L317.05 225.58 M317.05 225.58 L324.68 221.98 M324.68 221.98 L329.03 220.38 M393.32 221.98 L388.97 220.38 M393.32 221.98 L400.95 225.58 M401.86 226.10 L400.95 225.58 M329.03 220.38 L332.31 219.26 M332.31 219.26 L339.93 217.32 M339.93 217.32 L347.56 216.07 M347.56 216.07 L355.19 215.45 M355.19 215.45 L362.81 215.45 M362.81 215.45 L370.44 216.07 M370.44 216.07 L378.07 217.32 M378.07 217.32 L385.69 219.26 M388.97 220.38 L385.69 219.26 " stroke="#4682b4" stroke-width="1.2" fill="none" /><path d="M340.73 311.90 L347.56 313.22 M347.56 313.22 L355.19 313.95 M355.19 313.95 L362.81 313.95 M362.81 313.95 L370.44 313.22 M370.44 313.22 L377.27 311.90 M325.07 306.18 L332.31 309.33 M332.31 309.33 L339.93 311.74 M340.73 311.90 L339.93 311.74 M377.27 311.90 L378.07 311.74 M378.07 311.74 L385.69 309.33 M385.69 309.33 L392.93 306.18 M316.02 300.46 L317.05 301.23 M317.05 301.23 L324.68 305.99 M325.07 306.18 L324.68 305.99 M392.93 306.18 L393.32 305.99 M393.32 305.99 L400.95 301.23 M400.95 301.23 L401.98 300.46 M316.02 300.46 L309.68 294.74 M401.98 300.46 L408.32 294.74 M305.23 289.02 L309.42 294.44 M309.68 294.74 L309.42 294.44 M408.32 294.74 L408.58 294.44 M408.58 294.44 L412.77 289.02 M305.23 289.02 L302.02 283.30 M412.77 289.02 L415.98 283.30 M300.04 277.58 L301.80 282.70 M302.02 283.30 L301.80 282.70 M415.98 283.30 L416.20 282.70 M416.20 282.70 L417.96 277.58 M300.04 277.58 L299.07 271.86 M417.96 277.58 L418.93 271.86 M299.07 271.86 L299.07 266.14 M418.93 271.86 L418.93 266.14 M299.07 266.14 L300.04 260.42 M418.93 266.14 L417.96 260.42 M300.04 260.42 L301.80 255.30 M301.80 255.30 L302.02 254.70 M416.20 255.30 L415.98 254.70 M417.96 260.42 L416.20 255.30 M302.02 254.70 L305.23 248.98 M415.98 254.70 L412.77 248.98 M305.23 248.98 L309.42 243.56 M309.42 243.56 L309.68 243.26 M408.58 243.56 L408.32 243.26 M412.77 248.98 L408.58 243.56 M309.68 243.26 L316.02 237.54 M408.32 243.26 L401.98 237.54 M316.02 237.54 L317.05 236.77 M317.05 236.77 L324.68 232.01 M324.68 232.01 L325.07 231.82 M393.32 232.01 L392.93 231.82 M393.32 232.01 L400.95 236.77 M401.98 237.54 L400.95 236.77 M325.07 231.82 L332.31 228.67 M332.31 228.67 L339.93 226.26 M339.93 226.26 L340.73 226.10 M378.07 226.26 L377.27 226.10 M378.07 226.26 L385.69 228.67 M392.93 231.82 L385.69 228.67 M340.73 226.10 L347.56 224.78 M347.56 224.78 L355.19 224.05 M355.19 224.05 L362.81 224.05 M362.81 224.05 L370.44 224.78 M377.27 226.10 L370.44 224.78 " stroke="#4682b4" stroke-width="1.2" fill="none" /><path d="M336.34 300.46 L339.93 301.83 M339.93 301.83 L347.56 303.75 M347.56 303.75 L355.19 304.69 M355.19 304.69 L362.81 304.69 M362.81 304.69 L370.44 303.75 M370.44 303.75 L378.07 301.83 M378.07 301.83 L381.66 300.46 M325.80 294.74 L332.31 298.66 M336.34 300.46 L332.31 298.66 M381.66 300.46 L385.69 298.66 M385.69 298.66 L392.20 294.74 M319.45 289.02 L324.68 293.90 M325.80 294.74 L324.68 293.90 M392.20 294.74 L393.32 293.90 M393.32 293.90 L398.55 289.02 M315.23 283.30 L317.05 285.99 M319.45 289.02 L317.05 285.99 M398.55 289.02 L400.95 285.99 M400.95 285.99 L402.77 283.30 M315.23 283.30 L312.67 277.58 M402.77 283.30 L405.33 277.58 M312.67 277.58 L311.41 271.86 M405.33 277.58 L406.59 271.86 M311.41 271.86 L311.41 266.14 M406.59 271.86 L406.59 266.14 M311.41 266.14 L312.67 260.42 M406.59 266.14 L405.33 260.42 M312.67 260.42 L315.23 254.70 M405.33 260.42 L402.77 254.70 M315.23 254.70 L317.05 252.01 M317.05 252.01 L319.45 248.98 M400.95 252.01 L398.55 248.98 M402.77 254.70 L400.95 252.01 M319.45 248.98 L324.68 244.10 M324.68 244.10 L325.80 243.26 M393.32 244.10 L392.20 243.26 M398.55 248.98 L393.32 244.10 M325.80 243.26 L332.31 239.34 M332.31 239.34 L336.34 237.54 M385.69 239.34 L381.66 237.54 M392.20 243.26 L385.69 239.34 M336.34 237.54 L339.93 236.17 M339.93 236.17 L347.56 234.25 M347.56 234.25 L355.19 233.31 M355.19 233.31 L362.81 233.31 M362.81 233.31 L370.44 234.25 M370.44 234.25 L378.07 236.17 M381.66 237.54 L378.07 236.17 " stroke="#4682b4" stroke-width="1.2" fill="none" /><path d="M339.38 289.02 L339.93 289.33 M339.93 289.33 L347.56 292.22 M347.56 292.22 L355.19 293.64 M355.19 293.64 L362.81 293.64 M362.81 293.64 L370.44 292.22 M370.44 292.22 L378.07 289.33 M378.07 289.33 L378.62 289.02 M331.89 283.30 L332.31 283.72 M339.38 289.02 L332.31 283.72 M378.62 289.02 L385.69 283.72 M385.69 283.72 L386.11 283.30 M331.89 283.30 L328.04 277.58 M386.11 283.30 L389.96 277.58 M328.04 277.58 L326.15 271.86 M389.96 277.58 L391.85 271.86 M326.15 271.86 L326.15 266.14 M391.85 271.86 L391.85 266.14 M326.15 266.14 L328.04 260.42 M391.85 266.14 L389.96 260.42 M328.04 260.42 L331.89 254.70 M389.96 260.42 L386.11 254.70 M331.89 254.70 L332.31 254.28 M332.31 254.28 L339.38 248.98 M385.69 254.28 L378.62 248.98 M386.11 254.70 L385.69 254.28 M339.38 248.98 L339.93 248.67 M339.93 248.67 L347.56 245.78 M347.56 245.78 L355.19 244.36 M355.19 244.36 L362.81 244.36 M362.81 244.36 L370.44 245.78 M370.44 245.78 L378.07 248.67 M378.62 248.98 L378.07 248.67 " stroke="#4682b4" stroke-width="1.2" fill="none" /></g></svg>