<svg xmlns="http://www.w3.org/2000/svg" width="686.2" height="545" font-family="DejaVu Sans, Liberation Sans, Arial, sans-serif" fill="black"><rect width="100%" height="100%" fill="white" /><line x1="72.2" y1="494" x2="672.2" y2="494" stroke="#000000" stroke-width="1" /><line x1="72.2" y1="44" x2="72.2" y2="494" stroke="#000000" stroke-width="1" /><line x1="222.20000000000002" y1="44" x2="222.20000000000002" y2="494" stroke="#cccccc" stroke-width="1" /><line x1="372.2" y1="44" x2="372.2" y2="494" stroke="#cccccc" stroke-width="1" /><line x1="522.2" y1="44" x2="522.2" y2="494" stroke="#cccccc" stroke-width="1" /><line x1="672.2" y1="44" x2="672.2" y2="494" stroke="#cccccc" stroke-width="1" /><line x1="72.2" y1="381.5" x2="672.2" y2="381.5" stroke="#cccccc" stroke-width="1" /><line x1="72.2" y1="269" x2="672.2" y2="269" stroke="#cccccc" stroke-width="1" /><line x1="72.2" y1="156.5" x2="672.2" y2="156.5" stroke="#cccccc" stroke-width="1" /><line x1="72.2" y1="44" x2="672.2" y2="44" stroke="#cccccc" stroke-width="1" /><line x1="72.2" y1="494" x2="72.2" y2="499" stroke="#000000" stroke-width="1" /><text x="72.2" y="511" font-size="12" text-anchor="middle">-4</text><line x1="222.20000000000002" y1="494" x2="222.20000000000002" y2="499" stroke="#000000" stroke-width="1" /><text x="222.20000000000002" y="511" font-size="12" text-anchor="middle">-2</text><line x1="372.2" y1="494" x2="372.2" y2="499" stroke="#000000" stroke-width="1" /><text x="372.2" y="511" font-size="12" text-anchor="middle">0</text><line x1="522.2" y1="494" x2="522.2" y2="499" stroke="#000000" stroke-width="1" /><text x="522.2" y="511" font-size="12" text-anchor="middle">2</text><line x1="672.2" y1="494" x2="672.2" y2="499" stroke="#000000" stroke-width="1" /><text x="672.2" y="511" font-size="12" text-anchor="middle">4</text><line x1="67.2" y1="494" x2="72.2" y2="494" stroke="#000000" stroke-width="1" /><text x="64.2" y="498.2" font-size="12" text-anchor="end">-4</text><line x1="67.2" y1="381.5" x2="72.2" y2="381.5" stroke="#000000" stroke-width="1" /><text x="64.2" y="385.7" font-size="12" text-anchor="end">-2</text><line x1="67.2" y1="269" x2="72.2" y2="269" stroke="#000000" stroke-width="1" /><text x="64.2" y="273.2" font-size="12" text-anchor="end">0</text><line x1="67.2" y1="156.5" x2="72.2" y2="156.5" stroke="#000000" stroke-width="1" /><text x="64.2" y="160.70000000000002" font-size="12" text-anchor="end">2</text><line x1="67.2" y1="44" x2="72.2" y2="44" stroke="#000000" stroke-width="1" /><text x="64.2" y="48.2" font-size="12" text-anchor="end">4</text><text x="372.2" y="538" font-size="14" text-anchor="middle">x</text><text x="7" y="272.5" font-size="14" text-anchor="middle" transform="rotate(-90,7,272.5)">y</text><text x="372.2" y="22" font-size="18" text-anchor="middle">Iso-line Contours — Gaussian Peak</text><path d="M362.71 391.99 L368.39 392.20 M368.39 392.20 L376.01 392.20 M376.01 392.20 L381.69 391.99 M321.79 386.27 L322.62 386.49 M322.62 386.49 L330.25 388.24 M330.25 388.24 L337.88 389.62 M337.88 389.62 L345.51 390.67 M345.51 390.67 L353.13 391.43 M353.13 391.43 L360.76 391.92 M362.71 391.99 L360.76 391.92 M381.69 391.99 L383.64 391.92 M383.64 391.92 L391.27 391.43 M391.27 391.43 L398.89 390.67 M398.89 390.67 L406.52 389.62 M406.52 389.62 L414.15 388.24 M414.15 388.24 L421.78 386.49 M421.78 386.49 L422.61 386.27 M302.42 380.55 L307.37 382.31 M307.37 382.31 L315.00 384.60 M321.79 386.27 L315.00 384.60 M422.61 386.27 L429.40 384.60 M429.40 384.60 L437.03 382.31 M437.03 382.31 L441.98 380.55 M288.02 374.83 L292.12 376.68 M292.12 376.68 L299.74 379.64 M302.42 380.55 L299.74 379.64 M441.98 380.55 L444.66 379.64 M444.66 379.64 L452.28 376.68 M452.28 376.68 L456.38 374.83 M276.40 369.11 L276.86 369.36 M276.86 369.36 L284.49 373.26 M288.02 374.83 L284.49 373.26 M456.38 374.83 L459.91 373.26 M459.91 373.26 L467.54 369.36 M467.54 369.36 L468.00 369.11 M266.53 363.39 L269.23 365.08 M276.40 369.11 L269.23 365.08 M468.00 369.11 L475.17 365.08 M475.17 365.08 L477.87 363.39 M258.03 357.67 L261.61 360.19 M266.53 363.39 L261.61 360.19 M477.87 363.39 L482.79 360.19 M482.79 360.19 L486.37 357.67 M250.61 351.94 L253.98 354.63 M258.03 357.67 L253.98 354.63 M486.37 357.67 L490.42 354.63 M490.42 354.63 L493.79 351.94 M244.09 346.22 L246.35 348.26 M250.61 351.94 L246.35 348.26 M493.79 351.94 L498.05 348.26 M498.05 348.26 L500.31 346.22 M238.38 340.50 L238.73 340.85 M244.09 346.22 L238.73 340.85 M500.31 346.22 L505.67 340.85 M505.67 340.85 L506.02 340.50 M238.38 340.50 L233.18 334.78 M506.02 340.50 L511.22 334.78 M228.63 329.06 L231.10 332.13 M233.18 334.78 L231.10 332.13 M511.22 334.78 L513.30 332.13 M513.30 332.13 L515.77 329.06 M228.63 329.06 L224.67 323.34 M515.77 329.06 L519.73 323.34 M221.12 317.62 L223.47 321.33 M224.67 323.34 L223.47 321.33 M519.73 323.34 L520.93 321.33 M520.93 321.33 L523.28 317.62 M221.12 317.62 L218.06 311.90 M523.28 317.62 L526.34 311.90 M215.54 306.18 L215.84 306.81 M218.06 311.90 L215.84 306.81 M526.34 311.90 L528.56 306.81 M528.56 306.81 L528.86 306.18 M215.54 306.18 L213.21 300.46 M528.86 306.18 L531.19 300.46 M213.21 300.46 L211.38 294.74 M531.19 300.46 L533.02 294.74 M211.38 294.74 L209.97 289.02 M533.02 294.74 L534.43 289.02 M209.97 289.02 L208.96 283.30 M534.43 289.02 L535.44 283.30 M208.96 283.30 L208.30 277.58 M535.44 283.30 L536.10 277.58 M207.93 271.86 L208.22 276.12 M208.30 277.58 L208.22 276.12 M536.10 277.58 L536.18 276.12 M536.18 276.12 L536.47 271.86 M207.93 271.86 L207.93 266.14 M536.47 271.86 L536.47 266.14 M207.93 266.14 L208.22 261.88 M208.22 261.88 L208.30 260.42 M536.18 261.88 L536.10 260.42 M536.47 266.14 L536.18 261.88 M208.30 260.42 L208.96 254.70 M536.10 260.42 L535.44 254.70 M208.96 254.70 L209.97 248.98 M535.44 254.70 L534.43 248.98 M209.97 248.98 L211.38 243.26 M534.43 248.98 L533.02 243.26 M211.38 243.26 L213.21 237.54 M533.02 243.26 L531.19 237.54 M213.21 237.54 L215.54 231.82 M531.19 237.54 L528.86 231.82 M215.54 231.82 L215.84 231.19 M215.84 231.19 L218.06 226.10 M528.56 231.19 L526.34 226.10 M528.86 231.82 L528.56 231.19 M218.06 226.10 L221.12 220.38 M526.34 226.10 L523.28 220.38 M221.12 220.38 L223.47 216.67 M223.47 216.67 L224.67 214.66 M520.93 216.67 L519.73 214.66 M523.28 220.38 L520.93 216.67 M224.67 214.66 L228.63 208.94 M519.73 214.66 L515.77 208.94 M228.63 208.94 L231.10 205.87 M231.10 205.87 L233.18 203.22 M513.30 205.87 L511.22 203.22 M515.77 208.94 L513.30 205.87 M233.18 203.22 L238.38 197.50 M511.22 203.22 L506.02 197.50 M238.38 197.50 L238.73 197.15 M238.73 197.15 L244.09 191.78 M505.67 197.15 L500.31 191.78 M506.02 197.50 L505.67 197.15 M244.09 191.78 L246.35 189.74 M246.35 189.74 L250.61 186.06 M498.05 189.74 L493.79 186.06 M500.31 191.78 L498.05 189.74 M250.61 186.06 L253.98 183.37 M253.98 183.37 L258.03 180.33 M490.42 183.37 L486.37 180.33 M493.79 186.06 L490.42 183.37 M258.03 180.33 L261.61 177.81 M261.61 177.81 L266.53 174.61 M482.79 177.81 L477.87 174.61 M486.37 180.33 L482.79 177.81 M266.53 174.61 L269.23 172.92 M269.23 172.92 L276.40 168.89 M475.17 172.92 L468.00 168.89 M477.87 174.61 L475.17 172.92 M276.40 168.89 L276.86 168.64 M276.86 168.64 L284.49 164.74 M284.49 164.74 L288.02 163.17 M459.91 164.74 L456.38 163.17 M459.91 164.74 L467.54 168.64 M468.00 168.89 L467.54 168.64 M288.02 163.17 L292.12 161.32 M292.12 161.32 L299.74 158.36 M299.74 158.36 L302.42 157.45 M444.66 158.36 L441.98 157.45 M444.66 158.36 L452.28 161.32 M456.38 163.17 L452.28 161.32 M302.42 157.45 L307.37 155.69 M307.37 155.69 L315.00 153.40 M315.00 153.40 L321.79 151.73 M429.40 153.40 L422.61 151.73 M429.40 153.40 L437.03 155.69 M441.98 157.45 L437.03 155.69 M321.79 151.73 L322.62 151.51 M322.62 151.51 L330.25 149.76 M330.25 149.76 L337.88 148.38 M337.88 148.38 L345.51 147.33 M345.51 147.33 L353.13 146.57 M353.13 146.57 L360.76 146.08 M360.76 146.08 L362.71 146.01 M383.64 146.08 L381.69 146.01 M383.64 146.08 L391.27 146.57 M391.27 146.57 L398.89 147.33 M398.89 147.33 L406.52 148.38 M406.52 148.38 L414.15 149.76 M414.15 149.76 L421.78 151.51 M422.61 151.73 L421.78 151.51 M362.71 146.01 L368.39 145.80 M368.39 145.80 L376.01 145.80 M381.69 146.01 L376.01 145.80 " stroke="#4682b4" stroke-width="1.2" fill="none" /><path d="M335.11 369.11 L337.88 369.72 M337.88 369.72 L345.51 371.06 M345.51 371.06 L353.13 372.03 M353.13 372.03 L360.76 372.66 M360.76 372.66 L368.39 372.97 M368.39 372.97 L376.01 372.97 M376.01 372.97 L383.64 372.66 M383.64 372.66 L391.27 372.03 M391.27 372.03 L398.89 371.06 M398.89 371.06 L406.52 369.72 M406.52 369.72 L409.29 369.11 M314.22 363.39 L315.00 363.67 M315.00 363.67 L322.62 366.13 M322.62 366.13 L330.25 368.10 M335.11 369.11 L330.25 368.10 M409.29 369.11 L414.15 368.10 M414.15 368.10 L421.78 366.13 M421.78 366.13 L429.40 363.67 M429.40 363.67 L430.18 363.39 M299.92 357.67 L307.37 360.92 M314.22 363.39 L307.37 360.92 M430.18 363.39 L437.03 360.92 M437.03 360.92 L444.48 357.67 M288.69 351.94 L292.12 353.87 M292.12 353.87 L299.74 357.59 M299.92 357.67 L299.74 357.59 M444.48 357.67 L444.66 357.59 M444.66 357.59 L452.28 353.87 M452.28 353.87 L455.71 351.94 M279.43 346.22 L284.49 349.51 M288.69 351.94 L284.49 349.51 M455.71 351.94 L459.91 349.51 M459.91 349.51 L464.97 346.22 M271.59 340.50 L276.86 344.45 M279.43 346.22 L276.86 344.45 M464.97 346.22 L467.54 344.45 M467.54 344.45 L472.81 340.50 M264.86 334.78 L269.23 338.58 M271.59 340.50 L269.23 338.58 M472.81 340.50 L475.17 338.58 M475.17 338.58 L479.54 334.78 M259.04 329.06 L261.61 331.63 M264.86 334.78 L261.61 331.63 M479.54 334.78 L482.79 331.63 M482.79 331.63 L485.36 329.06 M259.04 329.06 L254.08 323.34 M485.36 329.06 L490.32 323.34 M249.64 317.62 L253.98 323.21 M254.08 323.34 L253.98 323.21 M490.32 323.34 L490.42 323.21 M490.42 323.21 L494.76 317.62 M245.97 311.90 L246.35 312.49 M249.64 317.62 L246.35 312.49 M494.76 317.62 L498.05 312.49 M498.05 312.49 L498.43 311.90 M245.97 311.90 L242.69 306.18 M498.43 311.90 L501.71 306.18 M242.69 306.18 L240.07 300.46 M501.71 306.18 L504.33 300.46 M237.90 294.74 L238.73 296.82 M240.07 300.46 L238.73 296.82 M504.33 300.46 L505.67 296.82 M505.67 296.82 L506.50 294.74 M237.90 294.74 L236.12 289.02 M506.50 294.74 L508.28 289.02 M236.12 289.02 L234.83 283.30 M508.28 289.02 L509.57 283.30 M234.83 283.30 L233.99 277.58 M509.57 283.30 L510.41 277.58 M233.99 277.58 L233.57 271.86 M510.41 277.58 L510.83 271.86 M233.57 271.86 L233.57 266.14 M510.83 271.86 L510.83 266.14 M233.57 266.14 L233.99 260.42 M510.83 266.14 L510.41 260.42 M233.99 260.42 L234.83 254.70 M510.41 260.42 L509.57 254.70 M234.83 254.70 L236.12 248.98 M509.57 254.70 L508.28 248.98 M236.12 248.98 L237.90 243.26 M508.28 248.98 L506.50 243.26 M237.90 243.26 L238.73 241.18 M238.73 241.18 L240.07 237.54 M505.67 241.18 L504.33 237.54 M506.50 243.26 L505.67 241.18 M240.07 237.54 L242.69 231.82 M504.33 237.54 L501.71 231.82 M242.69 231.82 L245.97 226.10 M501.71 231.82 L498.43 226.10 M245.97 226.10 L246.35 225.51 M246.35 225.51 L249.64 220.38 M498.05 225.51 L494.76 220.38 M498.43 226.10 L498.05 225.51 M249.64 220.38 L253.98 214.79 M253.98 214.79 L254.08 214.66 M490.42 214.79 L490.32 214.66 M494.76 220.38 L490.42 214.79 M254.08 214.66 L259.04 208.94 M490.32 214.66 L485.36 208.94 M259.04 208.94 L261.61 206.37 M261.61 206.37 L264.86 203.22 M482.79 206.37 L479.54 203.22 M485.36 208.94 L482.79 206.37 M264.86 203.22 L269.23 199.42 M269.23 199.42 L271.59 197.50 M475.17 199.42 L472.81 197.50 M479.54 203.22 L475.17 199.42 M271.59 197.50 L276.86 193.55 M276.86 193.55 L279.43 191.78 M467.54 193.55 L464.97 191.78 M472.81 197.50 L467.54 193.55 M279.43 191.78 L284.49 188.49 M284.49 188.49 L288.69 186.06 M459.91 188.49 L455.71 186.06 M464.97 191.78 L459.91 188.49 M288.69 186.06 L292.12 184.13 M292.12 184.13 L299.74 180.41 M299.74 180.41 L299.92 180.33 M444.66 180.41 L444.48 180.33 M444.66 180.41 L452.28 184.13 M455.71 186.06 L452.28 184.13 M299.92 180.33 L307.37 177.08 M307.37 177.08 L314.22 174.61 M437.03 177.08 L430.18 174.61 M444.48 180.33 L437.03 177.08 M314.22 174.61 L315.00 174.33 M315.00 174.33 L322.62 171.87 M322.62 171.87 L330.25 169.90 M330.25 169.90 L335.11 168.89 M414.15 169.90 L409.29 168.89 M414.15 169.90 L421.78 171.87 M421.78 171.87 L429.40 174.33 M430.18 174.61 L429.40 174.33 M335.11 168.89 L337.88 168.28 M337.88 168.28 L345.51 166.94 M345.51 166.94 L353.13 165.97 M353.13 165.97 L360.76 165.34 M360.76 165.34 L368.39 165.03 M368.39 165.03 L376.01 165.03 M376.01 165.03 L383.64 165.34 M383.64 165.34 L391.27 165.97 M391.27 165.97 L398.89 166.94 M398.89 166.94 L406.52 168.28 M409.29 168.89 L406.52 168.28 " stroke="#4682b4" stroke-width="1.2" fill="none" /><path d="M346.50 357.67 L353.13 358.66 M353.13 358.66 L360.76 359.41 M360.76 359.41 L368.39 359.78 M368.39 359.78 L376.01 359.78 M376.01 359.78 L383.64 359.41 M383.64 359.41 L391.27 358.66 M391.27 358.66 L397.90 357.67 M323.12 351.94 L330.25 354.19 M330.25 354.19 L337.88 356.08 M337.88 356.08 L345.51 357.52 M346.50 357.67 L345.51 357.52 M397.90 357.67 L398.89 357.52 M398.89 357.52 L406.52 356.08 M406.52 356.08 L414.15 354.19 M414.15 354.19 L421.28 351.94 M308.66 346.22 L315.00 349.03 M315.00 349.03 L322.62 351.79 M323.12 351.94 L322.62 351.79 M421.28 351.94 L421.78 351.79 M421.78 351.79 L429.40 349.03 M429.40 349.03 L435.74 346.22 M297.68 340.50 L299.74 341.71 M299.74 341.71 L307.37 345.65 M308.66 346.22 L307.37 345.65 M435.74 346.22 L437.03 345.65 M437.03 345.65 L444.66 341.71 M444.66 341.71 L446.72 340.50 M288.82 334.78 L292.12 337.06 M297.68 340.50 L292.12 337.06 M446.72 340.50 L452.28 337.06 M452.28 337.06 L455.58 334.78 M281.45 329.06 L284.49 331.54 M288.82 334.78 L284.49 331.54 M455.58 334.78 L459.91 331.54 M459.91 331.54 L462.95 329.06 M275.25 323.34 L276.86 324.89 M281.45 329.06 L276.86 324.89 M462.95 329.06 L467.54 324.89 M467.54 324.89 L469.15 323.34 M275.25 323.34 L270.01 317.62 M469.15 323.34 L474.39 317.62 M265.50 311.90 L269.23 316.66 M270.01 317.62 L269.23 316.66 M474.39 317.62 L475.17 316.66 M475.17 316.66 L478.90 311.90 M265.50 311.90 L261.81 306.18 M478.90 311.90 L482.59 306.18 M258.62 300.46 L261.61 305.81 M261.81 306.18 L261.61 305.81 M482.59 306.18 L482.79 305.81 M482.79 305.81 L485.78 300.46 M258.62 300.46 L256.09 294.74 M485.78 300.46 L488.31 294.74 M256.09 294.74 L254.17 289.02 M488.31 294.74 L490.23 289.02 M252.65 283.30 L253.98 288.27 M254.17 289.02 L253.98 288.27 M490.23 289.02 L490.42 288.27 M490.42 288.27 L491.75 283.30 M252.65 283.30 L251.66 277.58 M491.75 283.30 L492.74 277.58 M251.66 277.58 L251.16 271.86 M492.74 277.58 L493.24 271.86 M251.16 271.86 L251.16 266.14 M493.24 271.86 L493.24 266.14 M251.16 266.14 L251.66 260.42 M493.24 266.14 L492.74 260.42 M251.66 260.42 L252.65 254.70 M492.74 260.42 L491.75 254.70 M252.65 254.70 L253.98 249.73 M253.98 249.73 L254.17 248.98 M490.42 249.73 L490.23 248.98 M491.75 254.70 L490.42 249.73 M254.17 248.98 L256.09 243.26 M490.23 248.98 L488.31 243.26 M256.09 243.26 L258.62 237.54 M488.31 243.26 L485.78 237.54 M258.62 237.54 L261.61 232.19 M261.61 232.19 L261.81 231.82 M482.79 232.19 L482.59 231.82 M485.78 237.54 L482.79 232.19 M261.81 231.82 L265.50 226.10 M482.59 231.82 L478.90 226.10 M265.50 226.10 L269.23 221.34 M269.23 221.34 L270.01 220.38 M475.17 221.34 L474.39 220.38 M478.90 226.10 L475.17 221.34 M270.01 220.38 L275.25 214.66 M474.39 220.38 L469.15 214.66 M275.25 214.66 L276.86 213.11 M276.86 213.11 L281.45 208.94 M467.54 213.11 L462.95 208.94 M469.15 214.66 L467.54 213.11 M281.45 208.94 L284.49 206.46 M284.49 206.46 L288.82 203.22 M459.91 206.46 L455.58 203.22 M462.95 208.94 L459.91 206.46 M288.82 203.22 L292.12 200.94 M292.12 200.94 L297.68 197.50 M452.28 200.94 L446.72 197.50 M455.58 203.22 L452.28 200.94 M297.68 197.50 L299.74 196.29 M299.74 196.29 L307.37 192.35 M307.37 192.35 L308.66 191.78 M437.03 192.35 L435.74 191.78 M437.03 192.35 L444.66 196.29 M446.72 197.50 L444.66 196.29 M308.66 191.78 L315.00 188.97 M315.00 188.97 L322.62 186.21 M322.62 186.21 L323.12 186.06 M421.78 186.21 L421.28 186.06 M421.78 186.21 L429.40 188.97 M435.74 191.78 L429.40 188.97 M323.12 186.06 L330.25 183.81 M330.25 183.81 L337.88 181.92 M337.88 181.92 L345.51 180.48 M345.51 180.48 L346.50 180.33 M398.89 180.48 L397.90 180.33 M398.89 180.48 L406.52 181.92 M406.52 181.92 L414.15 183.81 M421.28 186.06 L414.15 183.81 M346.50 180.33 L353.13 179.34 M353.13 179.34 L360.76 178.59 M360.76 178.59 L368.39 178.22 M368.39 178.22 L376.01 178.22 M376.01 178.22 L383.64 178.59 M383.64 178.59 L391.27 179.34 M397.90 180.33 L391.27 179.34 " stroke="#4682b4" stroke-width="1.2" fill="none" /><path d="M343.96 346.22 L345.51 346.57 M345.51 346.57 L353.13 347.86 M353.13 347.86 L360.76 348.69 M360.76 348.69 L368.39 349.10 M368.39 349.10 L376.01 349.10 M376.01 349.10 L383.64 348.69 M383.64 348.69 L391.27 347.86 M391.27 347.86 L398.89 346.57 M398.89 346.57 L400.44 346.22 M324.12 340.50 L330.25 342.70 M330.25 342.70 L337.88 344.88 M343.96 346.22 L337.88 344.88 M400.44 346.22 L406.52 344.88 M406.52 344.88 L414.15 342.70 M414.15 342.70 L420.28 340.50 M311.30 334.78 L315.00 336.67 M315.00 336.67 L322.62 339.96 M324.12 340.50 L322.62 339.96 M420.28 340.50 L421.78 339.96 M421.78 339.96 L429.40 336.67 M429.40 336.67 L433.10 334.78 M301.55 329.06 L307.37 332.67 M311.30 334.78 L307.37 332.67 M433.10 334.78 L437.03 332.67 M437.03 332.67 L442.85 329.06 M293.73 323.34 L299.74 327.85 M301.55 329.06 L299.74 327.85 M442.85 329.06 L444.66 327.85 M444.66 327.85 L450.67 323.34 M287.30 317.62 L292.12 321.99 M293.73 323.34 L292.12 321.99 M450.67 323.34 L452.28 321.99 M452.28 321.99 L457.10 317.62 M281.97 311.90 L284.49 314.68 M287.30 317.62 L284.49 314.68 M457.10 317.62 L459.91 314.68 M459.91 314.68 L462.43 311.90 M281.97 311.90 L277.58 306.18 M462.43 311.90 L466.82 306.18 M273.93 300.46 L276.86 305.06 M277.58 306.18 L276.86 305.06 M466.82 306.18 L467.54 305.06 M467.54 305.06 L470.47 300.46 M273.93 300.46 L271.02 294.74 M470.47 300.46 L473.38 294.74 M268.77 289.02 L269.23 290.18 M271.02 294.74 L269.23 290.18 M473.38 294.74 L475.17 290.18 M475.17 290.18 L475.63 289.02 M268.77 289.02 L267.06 283.30 M475.63 289.02 L477.34 283.30 M267.06 283.30 L265.94 277.58 M477.34 283.30 L478.46 277.58 M265.94 277.58 L265.39 271.86 M478.46 277.58 L479.01 271.86 M265.39 271.86 L265.39 266.14 M479.01 271.86 L479.01 266.14 M265.39 266.14 L265.94 260.42 M479.01 266.14 L478.46 260.42 M265.94 260.42 L267.06 254.70 M478.46 260.42 L477.34 254.70 M267.06 254.70 L268.77 248.98 M477.34 254.70 L475.63 248.98 M268.77 248.98 L269.23 247.82 M269.23 247.82 L271.02 243.26 M475.17 247.82 L473.38 243.26 M475.63 248.98 L475.17 247.82 M271.02 243.26 L273.93 237.54 M473.38 243.26 L470.47 237.54 M273.93 237.54 L276.86 232.94 M276.86 232.94 L277.58 231.82 M467.54 232.94 L466.82 231.82 M470.47 237.54 L467.54 232.94 M277.58 231.82 L281.97 226.10 M466.82 231.82 L462.43 226.10 M281.97 226.10 L284.49 223.32 M284.49 223.32 L287.30 220.38 M459.91 223.32 L457.10 220.38 M462.43 226.10 L459.91 223.32 M287.30 220.38 L292.12 216.01 M292.12 216.01 L293.73 214.66 M452.28 216.01 L450.67 214.66 M457.10 220.38 L452.28 216.01 M293.73 214.66 L299.74 210.15 M299.74 210.15 L301.55 208.94 M444.66 210.15 L442.85 208.94 M450.67 214.66 L444.66 210.15 M301.55 208.94 L307.37 205.33 M307.37 205.33 L311.30 203.22 M437.03 205.33 L433.10 203.22 M442.85 208.94 L437.03 205.33 M311.30 203.22 L315.00 201.33 M315.00 201.33 L322.62 198.04 M322.62 198.04 L324.12 197.50 M421.78 198.04 L420.28 197.50 M421.78 198.04 L429.40 201.33 M433.10 203.22 L429.40 201.33 M324.12 197.50 L330.25 195.30 M330.25 195.30 L337.88 193.12 M337.88 193.12 L343.96 191.78 M406.52 193.12 L400.44 191.78 M406.52 193.12 L414.15 195.30 M420.28 197.50 L414.15 195.30 M343.96 191.78 L345.51 191.43 M345.51 191.43 L353.13 190.14 M353.13 190.14 L360.76 189.31 M360.76 189.31 L368.39 188.90 M368.39 188.90 L376.01 188.90 M376.01 188.90 L383.64 189.31 M383.64 189.31 L391.27 190.14 M391.27 190.14 L398.89 191.43 M400.44 191.78 L398.89 191.43 " stroke="#4682b4" stroke-width="1.2" fill="none" /><path d="M337.53 334.78 L337.88 334.90 M337.88 334.90 L345.51 336.88 M345.51 336.88 L353.13 338.31 M353.13 338.31 L360.76 339.24 M360.76 339.24 L368.39 339.70 M368.39 339.70 L376.01 339.70 M376.01 339.70 L383.64 339.24 M383.64 339.24 L391.27 338.31 M391.27 338.31 L398.89 336.88 M398.89 336.88 L406.52 334.90 M406.52 334.90 L406.87 334.78 M322.37 329.06 L322.62 329.19 M322.62 329.19 L330.25 332.38 M337.53 334.78 L330.25 332.38 M406.87 334.78 L414.15 332.38 M414.15 332.38 L421.78 329.19 M421.78 329.19 L422.03 329.06 M311.85 323.34 L315.00 325.25 M322.37 329.06 L315.00 325.25 M422.03 329.06 L429.40 325.25 M429.40 325.25 L432.55 323.34 M303.70 317.62 L307.37 320.37 M311.85 323.34 L307.37 320.37 M432.55 323.34 L437.03 320.37 M437.03 320.37 L440.70 317.62 M297.20 311.90 L299.74 314.27 M303.70 317.62 L299.74 314.27 M440.70 317.62 L444.66 314.27 M444.66 314.27 L447.20 311.90 M291.95 306.18 L292.12 306.37 M297.20 311.90 L292.12 306.37 M447.20 311.90 L452.28 306.37 M452.28 306.37 L452.45 306.18 M291.95 306.18 L287.69 300.46 M452.45 306.18 L456.71 300.46 M284.34 294.74 L284.49 295.01 M287.69 300.46 L284.49 295.01 M456.71 300.46 L459.91 295.01 M459.91 295.01 L460.06 294.74 M284.34 294.74 L281.69 289.02 M460.06 294.74 L462.71 289.02 M281.69 289.02 L279.78 283.30 M462.71 289.02 L464.62 283.30 M279.78 283.30 L278.54 277.58 M464.62 283.30 L465.86 277.58 M278.54 277.58 L277.93 271.86 M465.86 277.58 L466.47 271.86 M277.93 271.86 L277.93 266.14 M466.47 271.86 L466.47 266.14 M277.93 266.14 L278.54 260.42 M466.47 266.14 L465.86 260.42 M278.54 260.42 L279.78 254.70 M465.86 260.42 L464.62 254.70 M279.78 254.70 L281.69 248.98 M464.62 254.70 L462.71 248.98 M281.69 248.98 L284.34 243.26 M462.71 248.98 L460.06 243.26 M284.34 243.26 L284.49 242.99 M284.49 242.99 L287.69 237.54 M459.91 242.99 L456.71 237.54 M460.06 243.26 L459.91 242.99 M287.69 237.54 L291.95 231.82 M456.71 237.54 L452.45 231.82 M291.95 231.82 L292.12 231.63 M292.12 231.63 L297.20 226.10 M452.28 231.63 L447.20 226.10 M452.45 231.82 L452.28 231.63 M297.20 226.10 L299.74 223.73 M299.74 223.73 L303.70 220.38 M444.66 223.73 L440.70 220.38 M447.20 226.10 L444.66 223.73 M303.70 220.38 L307.37 217.63 M307.37 217.63 L311.85 214.66 M437.03 217.63 L432.55 214.66 M440.70 220.38 L437.03 217.63 M311.85 214.66 L315.00 212.75 M315.00 212.75 L322.37 208.94 M429.40 212.75 L422.03 208.94 M432.55 214.66 L429.40 212.75 M322.37 208.94 L322.62 208.81 M322.62 208.81 L330.25 205.62 M330.25 205.62 L337.53 203.22 M414.15 205.62 L406.87 203.22 M414.15 205.62 L421.78 208.81 M422.03 208.94 L421.78 208.81 M337.53 203.22 L337.88 203.10 M337.88 203.10 L345.51 201.12 M345.51 201.12 L353.13 199.69 M353.13 199.69 L360.76 198.76 M360.76 198.76 L368.39 198.30 M368.39 198.30 L376.01 198.30 M376.01 198.30 L383.64 198.76 M383.64 198.76 L391.27 199.69 M391.27 199.69 L398.89 201.12 M398.89 201.12 L406.52 203.10 M406.87 203.22 L406.52 203.10 " stroke="#4682b4" stroke-width="1.2" fill="none" /><path d="M351.59 329.06 L353.13 329.39 M353.13 329.39 L360.76 330.47 M360.76 330.47 L368.39 331.01 M368.39 331.01 L376.01 331.01 M376.01 331.01 L383.64 330.47 M383.64 330.47 L391.27 329.39 M391.27 329.39 L392.81 329.06 M332.35 323.34 L337.88 325.47 M337.88 325.47 L345.51 327.74 M351.59 329.06 L345.51 327.74 M392.81 329.06 L398.89 327.74 M398.89 327.74 L406.52 325.47 M406.52 325.47 L412.05 323.34 M320.83 317.62 L322.62 318.68 M322.62 318.68 L330.25 322.49 M332.35 323.34 L330.25 322.49 M412.05 323.34 L414.15 322.49 M414.15 322.49 L421.78 318.68 M421.78 318.68 L423.57 317.62 M312.45 311.90 L315.00 313.81 M320.83 317.62 L315.00 313.81 M423.57 317.62 L429.40 313.81 M429.40 313.81 L431.95 311.90 M305.96 306.18 L307.37 307.53 M312.45 311.90 L307.37 307.53 M431.95 311.90 L437.03 307.53 M437.03 307.53 L438.44 306.18 M305.96 306.18 L300.88 300.46 M438.44 306.18 L443.52 300.46 M296.91 294.74 L299.74 298.89 M300.88 300.46 L299.74 298.89 M443.52 300.46 L444.66 298.89 M444.66 298.89 L447.49 294.74 M296.91 294.74 L293.87 289.02 M447.49 294.74 L450.53 289.02 M291.68 283.30 L292.12 284.46 M293.87 289.02 L292.12 284.46 M450.53 289.02 L452.28 284.46 M452.28 284.46 L452.72 283.30 M291.68 283.30 L290.23 277.58 M452.72 283.30 L454.17 277.58 M290.23 277.58 L289.52 271.86 M454.17 277.58 L454.88 271.86 M289.52 271.86 L289.52 266.14 M454.88 271.86 L454.88 266.14 M289.52 266.14 L290.23 260.42 M454.88 266.14 L454.17 260.42 M290.23 260.42 L291.68 254.70 M454.17 260.42 L452.72 254.70 M291.68 254.70 L292.12 253.54 M292.12 253.54 L293.87 248.98 M452.28 253.54 L450.53 248.98 M452.72 254.70 L452.28 253.54 M293.87 248.98 L296.91 243.26 M450.53 248.98 L447.49 243.26 M296.91 243.26 L299.74 239.11 M299.74 239.11 L300.88 237.54 M444.66 239.11 L443.52 237.54 M447.49 243.26 L444.66 239.11 M300.88 237.54 L305.96 231.82 M443.52 237.54 L438.44 231.82 M305.96 231.82 L307.37 230.47 M307.37 230.47 L312.45 226.10 M437.03 230.47 L431.95 226.10 M438.44 231.82 L437.03 230.47 M312.45 226.10 L315.00 224.19 M315.00 224.19 L320.83 220.38 M429.40 224.19 L423.57 220.38 M431.95 226.10 L429.40 224.19 M320.83 220.38 L322.62 219.32 M322.62 219.32 L330.25 215.51 M330.25 215.51 L332.35 214.66 M414.15 215.51 L412.05 214.66 M414.15 215.51 L421.78 219.32 M423.57 220.38 L421.78 219.32 M332.35 214.66 L337.88 212.53 M337.88 212.53 L345.51 210.26 M345.51 210.26 L351.59 208.94 M398.89 210.26 L392.81 208.94 M398.89 210.26 L406.52 212.53 M412.05 214.66 L406.52 212.53 M351.59 208.94 L353.13 208.61 M353.13 208.61 L360.76 207.53 M360.76 207.53 L368.39 206.99 M368.39 206.99 L376.01 206.99 M376.01 206.99 L383.64 207.53 M383.64 207.53 L391.27 208.61 M392.81 208.94 L391.27 208.61 " stroke="#4682b4" stroke-width="1.2" fill="none" /><path d="M342.23 317.62 L345.51 318.74 M345.51 318.74 L353.13 320.68 M353.13 320.68 L360.76 321.93 M360.76 321.93 L368.39 322.55 M368.39 322.55 L376.01 322.55 M376.01 322.55 L383.64 321.93 M383.64 321.93 L391.27 320.68 M391.27 320.68 L398.89 318.74 M398.89 318.74 L402.17 317.62 M329.34 311.90 L330.25 312.42 M330.25 312.42 L337.88 316.02 M342.23 317.62 L337.88 316.02 M402.17 317.62 L406.52 316.02 M406.52 316.02 L414.15 312.42 M414.15 312.42 L415.06 311.90 M320.72 306.18 L322.62 307.61 M329.34 311.90 L322.62 307.61 M415.06 311.90 L421.78 307.61 M421.78 307.61 L423.68 306.18 M314.31 300.46 L315.00 301.15 M320.72 306.18 L315.00 301.15 M423.68 306.18 L429.40 301.15 M429.40 301.15 L430.09 300.46 M314.31 300.46 L309.50 294.74 M430.09 300.46 L434.90 294.74 M305.88 289.02 L307.37 291.48 M309.50 294.74 L307.37 291.48 M434.90 294.74 L437.03 291.48 M437.03 291.48 L438.52 289.02 M305.88 289.02 L303.30 283.30 M438.52 289.02 L441.10 283.30 M303.30 283.30 L301.63 277.58 M441.10 283.30 L442.77 277.58 M301.63 277.58 L300.80 271.86 M442.77 277.58 L443.60 271.86 M300.80 271.86 L300.80 266.14 M443.60 271.86 L443.60 266.14 M300.80 266.14 L301.63 260.42 M443.60 266.14 L442.77 260.42 M301.63 260.42 L303.30 254.70 M442.77 260.42 L441.10 254.70 M303.30 254.70 L305.88 248.98 M441.10 254.70 L438.52 248.98 M305.88 248.98 L307.37 246.52 M307.37 246.52 L309.50 243.26 M437.03 246.52 L434.90 243.26 M438.52 248.98 L437.03 246.52 M309.50 243.26 L314.31 237.54 M434.90 243.26 L430.09 237.54 M314.31 237.54 L315.00 236.85 M315.00 236.85 L320.72 231.82 M429.40 236.85 L423.68 231.82 M430.09 237.54 L429.40 236.85 M320.72 231.82 L322.62 230.39 M322.62 230.39 L329.34 226.10 M421.78 230.39 L415.06 226.10 M423.68 231.82 L421.78 230.39 M329.34 226.10 L330.25 225.58 M330.25 225.58 L337.88 221.98 M337.88 221.98 L342.23 220.38 M406.52 221.98 L402.17 220.38 M406.52 221.98 L414.15 225.58 M415.06 226.10 L414.15 225.58 M342.23 220.38 L345.51 219.26 M345.51 219.26 L353.13 217.32 M353.13 217.32 L360.76 216.07 M360.76 216.07 L368.39 215.45 M368.39 215.45 L376.01 215.45 M376.01 215.45 L383.64 216.07 M383.64 216.07 L391.27 217.32 M391.27 217.32 L398.89 219.26 M402.17 220.38 L398.89 219.26 " stroke="#4682b4" stroke-width="1.2" fill="none" /><path d="M353.93 311.90 L360.76 313.22 M360.76 313.22 L368.39 313.95 M368.39 313.95 L376.01 313.95 M376.01 313.95 L383.64 313.22 M383.64 313.22 L390.47 311.90 M338.27 306.18 L345.51 309.33 M345.51 309.33 L353.13 311.74 M353.93 311.90 L353.13 311.74 M390.47 311.90 L391.27 311.74 M391.27 311.74 L398.89 309.33 M398.89 309.33 L406.13 306.18 M329.22 300.46 L330.25 301.23 M330.25 301.23 L337.88 305.99 M338.27 306.18 L337.88 305.99 M406.13 306.18 L406.52 305.99 M406.52 305.99 L414.15 301.23 M414.15 301.23 L415.18 300.46 M329.22 300.46 L322.88 294.74 M415.18 300.46 L421.52 294.74 M318.43 289.02 L322.62 294.44 M322.88 294.74 L322.62 294.44 M421.52 294.74 L421.78 294.44 M421.78 294.44 L425.97 289.02 M318.43 289.02 L315.22 283.30 M425.97 289.02 L429.18 283.30 M313.24 277.58 L315.00 282.70 M315.22 283.30 L315.00 282.70 M429.18 283.30 L429.40 282.70 M429.40 282.70 L431.16 277.58 M313.24 277.58 L312.27 271.86 M431.16 277.58 L432.13 271.86 M312.27 271.86 L312.27 266.14 M432.13 271.86 L432.13 266.14 M312.27 266.14 L313.24 260.42 M432.13 266.14 L431.16 260.42 M313.24 260.42 L315.00 255.30 M315.00 255.30 L315.22 254.70 M429.40 255.30 L429.18 254.70 M431.16 260.42 L429.40 255.30 M315.22 254.70 L318.43 248.98 M429.18 254.70 L425.97 248.98 M318.43 248.98 L322.62 243.56 M322.62 243.56 L322.88 243.26 M421.78 243.56 L421.52 243.26 M425.97 248.98 L421.78 243.56 M322.88 243.26 L329.22 237.54 M421.52 243.26 L415.18 237.54 M329.22 237.54 L330.25 236.77 M330.25 236.77 L337.88 232.01 M337.88 232.01 L338.27 231.82 M406.52 232.01 L406.13 231.82 M406.52 232.01 L414.15 236.77 M415.18 237.54 L414.15 236.77 M338.27 231.82 L345.51 228.67 M345.51 228.67 L353.13 226.26 M353.13 226.26 L353.93 226.10 M391.27 226.26 L390.47 226.10 M391.27 226.26 L398.89 228.67 M406.13 231.82 L398.89 228.67 M353.93 226.10 L360.76 224.78 M360.76 224.78 L368.39 224.05 M368.39 224.05 L376.01 224.05 M376.01 224.05 L383.64 224.78 M390.47 226.10 L383.64 224.78 " stroke="#4682b4" stroke-width="1.2" fill="none" /><path d="M349.54 300.46 L353.13 301.83 M353.13 301.83 L360.76 303.75 M360.76 303.75 L368.39 304.69 M368.39 304.69 L376.01 304.69 M376.01 304.69 L383.64 303.75 M383.64 303.75 L391.27 301.83 M391.27 301.83 L394.86 300.46 M339.00 294.74 L345.51 298.66 M349.54 300.46 L345.51 298.66 M394.86 300.46 L398.89 298.66 M398.89 298.66 L405.40 294.74 M332.65 289.02 L337.88 293.90 M339.00 294.74 L337.88 293.90 M405.40 294.74 L406.52 293.90 M406.52 293.90 L411.75 289.02 M328.43 283.30 L330.25 285.99 M332.65 289.02 L330.25 285.99 M411.75 289.02 L414.15 285.99 M414.15 285.99 L415.97 283.30 M328.43 283.30 L325.87 277.58 M415.97 283.30 L418.53 277.58 M325.87 277.58 L324.61 271.86 M418.53 277.58 L419.79 271.86 M324.61 271.86 L324.61 266.14 M419.79 271.86 L419.79 266.14 M324.61 266.14 L325.87 260.42 M419.79 266.14 L418.53 260.42 M325.87 260.42 L328.43 254.70 M418.53 260.42 L415.97 254.70 M328.43 254.70 L330.25 252.01 M330.25 252.01 L332.65 248.98 M414.15 252.01 L411.75 248.98 M415.97 254.70 L414.15 252.01 M332.65 248.98 L337.88 244.10 M337.88 244.10 L339.00 243.26 M406.52 244.10 L405.40 243.26 M411.75 248.98 L406.52 244.10 M339.00 243.26 L345.51 239.34 M345.51 239.34 L349.54 237.54 M398.89 239.34 L394.86 237.54 M405.40 243.26 L398.89 239.34 M349.54 237.54 L353.13 236.17 M353.13 236.17 L360.76 234.25 M360.76 234.25 L368.39 233.31 M368.39 233.31 L376.01 233.31 M376.01 233.31 L383.64 234.25 M383.64 234.25 L391.27 236.17 M394.86 237.54 L391.27 236.17 " stroke="#4682b4" stroke-width="1.2" fill="none" /><path d="M352.58 289.02 L353.13 289.33 M353.13 289.33 L360.76 292.22 M360.76 292.22 L368.39 293.64 M368.39 293.64 L376.01 293.64 M376.01 293.64 L383.64 292.22 M383.64 292.22 L391.27 289.33 M391.27 289.33 L391.82 289.02 M345.09 283.30 L345.51 283.72 M352.58 289.02 L345.51 283.72 M391.82 289.02 L398.89 283.72 M398.89 283.72 L399.31 283.30 M345.09 283.30 L341.24 277.58 M399.31 283.30 L403.16 277.58 M341.24 277.58 L339.35 271.86 M403.16 277.58 L405.05 271.86 M339.35 271.86 L339.35 266.14 M405.05 271.86 L405.05 266.14 M339.35 266.14 L341.24 260.42 M405.05 266.14 L403.16 260.42 M341.24 260.42 L345.09 254.70 M403.16 260.42 L399.31 254.70 M345.09 254.70 L345.51 254.28 M345.51 254.28 L352.58 248.98 M398.89 254.28 L391.82 248.98 M399.31 254.70 L398.89 254.28 M352.58 248.98 L353.13 248.67 M353.13 248.67 L360.76 245.78 M360.76 245.78 L368.39 244.36 M368.39 244.36 L376.01 244.36 M376.01 244.36 L383.64 245.78 M383.64 245.78 L391.27 248.67 M391.82 248.98 L391.27 248.67 " stroke="#4682b4" stroke-width="1.2" fill="none" /></svg>