<svg xmlns="http://www.w3.org/2000/svg" width="793" height="545" font-family="DejaVu Sans, Liberation Sans, Arial, sans-serif" fill="black"><rect width="100%" height="100%" fill="white" /><defs><clipPath id="kuva-clip-0"><rect x="59" y="44" width="600" height="450"/></clipPath></defs><line x1="59" y1="494" x2="659" y2="494" stroke="#000000" stroke-width="1" /><line x1="59" y1="44" x2="59" y2="494" stroke="#000000" stroke-width="1" /><text x="51" y="433.91" font-size="12" text-anchor="end">6</text><line x1="54" y1="429.71000000000004" x2="59" y2="429.71000000000004" stroke="#000000" stroke-width="1" /><text x="51" y="369.63" font-size="12" text-anchor="end">5</text><line x1="54" y1="365.43" x2="59" y2="365.43" stroke="#000000" stroke-width="1" /><text x="51" y="305.34000000000003" font-size="12" text-anchor="end">4</text><line x1="54" y1="301.14" x2="59" y2="301.14" stroke="#000000" stroke-width="1" /><text x="51" y="241.06" font-size="12" text-anchor="end">3</text><line x1="54" y1="236.86" x2="59" y2="236.86" stroke="#000000" stroke-width="1" /><text x="51" y="176.77" font-size="12" text-anchor="end">2</text><line x1="54" y1="172.57" x2="59" y2="172.57" stroke="#000000" stroke-width="1" /><text x="51" y="112.49000000000001" font-size="12" text-anchor="end">1</text><line x1="54" y1="108.29" x2="59" y2="108.29" stroke="#000000" stroke-width="1" /><text x="159" y="511" font-size="12" text-anchor="middle">2020</text><line x1="159" y1="494" x2="159" y2="499" stroke="#000000" stroke-width="1" /><text x="259" y="511" font-size="12" text-anchor="middle">2021</text><line x1="259" y1="494" x2="259" y2="499" stroke="#000000" stroke-width="1" /><text x="359" y="511" font-size="12" text-anchor="middle">2022</text><line x1="359" y1="494" x2="359" y2="499" stroke="#000000" stroke-width="1" /><text x="459" y="511" font-size="12" text-anchor="middle">2023</text><line x1="459" y1="494" x2="459" y2="499" stroke="#000000" stroke-width="1" /><text x="559" y="511" font-size="12" text-anchor="middle">2024</text><line x1="559" y1="494" x2="559" y2="499" stroke="#000000" stroke-width="1" /><text x="359" y="538" font-size="14" text-anchor="middle">Year</text><text x="15" y="272.5" font-size="14" text-anchor="middle" transform="rotate(-90,15,272.5)">Rank</text><text x="396.5" y="27.400000000000002" font-size="18" text-anchor="middle">Programming Language Rankings</text><g clip-path="url(#kuva-clip-0)"><path d="M 159.00,108.29 C 209.00,108.29 209.00,108.29 259.00,108.29" stroke="#1f77b4" stroke-width="2.5" fill="none" fill-opacity="1" /><path d="M 259.00,108.29 C 309.00,108.29 309.00,108.29 359.00,108.29" stroke="#1f77b4" stroke-width="2.5" fill="none" fill-opacity="1" /><path d="M 359.00,108.29 C 409.00,108.29 409.00,108.29 459.00,108.29" stroke="#1f77b4" stroke-width="2.5" fill="none" fill-opacity="1" /><path d="M 459.00,108.29 C 509.00,108.29 509.00,108.29 559.00,108.29" stroke="#1f77b4" stroke-width="2.5" fill="none" fill-opacity="1" /><circle cx="159" cy="108.29" r="6" fill="#1f77b4" fill-opacity="1" stroke="#ffffff" stroke-width="1.25" /><text x="159" y="110.74000000000001" font-size="7" text-anchor="middle" fill="#ffffff">1</text><circle cx="259" cy="108.29" r="6" fill="#1f77b4" fill-opacity="1" stroke="#ffffff" stroke-width="1.25" /><text x="259" y="110.74000000000001" font-size="7" text-anchor="middle" fill="#ffffff">1</text><circle cx="359" cy="108.29" r="6" fill="#1f77b4" fill-opacity="1" stroke="#ffffff" stroke-width="1.25" /><text x="359" y="110.74000000000001" font-size="7" text-anchor="middle" fill="#ffffff">1</text><circle cx="459" cy="108.29" r="6" fill="#1f77b4" fill-opacity="1" stroke="#ffffff" stroke-width="1.25" /><text x="459" y="110.74000000000001" font-size="7" text-anchor="middle" fill="#ffffff">1</text><circle cx="559" cy="108.29" r="6" fill="#1f77b4" fill-opacity="1" stroke="#ffffff" stroke-width="1.25" /><text x="559" y="110.74000000000001" font-size="7" text-anchor="middle" fill="#ffffff">1</text><path d="M 159.00,236.86 C 209.00,236.86 209.00,172.57 259.00,172.57" stroke="#ff7f0e" stroke-width="2.5" fill="none" fill-opacity="1" /><path d="M 259.00,172.57 C 309.00,172.57 309.00,172.57 359.00,172.57" stroke="#ff7f0e" stroke-width="2.5" fill="none" fill-opacity="1" /><path d="M 359.00,172.57 C 409.00,172.57 409.00,172.57 459.00,172.57" stroke="#ff7f0e" stroke-width="2.5" fill="none" fill-opacity="1" /><path d="M 459.00,172.57 C 509.00,172.57 509.00,172.57 559.00,172.57" stroke="#ff7f0e" stroke-width="2.5" fill="none" fill-opacity="1" /><circle cx="159" cy="236.86" r="6" fill="#ff7f0e" fill-opacity="1" stroke="#ffffff" stroke-width="1.25" /><text x="159" y="239.31" font-size="7" text-anchor="middle" fill="#ffffff">3</text><circle cx="259" cy="172.57" r="6" fill="#ff7f0e" fill-opacity="1" stroke="#ffffff" stroke-width="1.25" /><text x="259" y="175.02" font-size="7" text-anchor="middle" fill="#ffffff">2</text><circle cx="359" cy="172.57" r="6" fill="#ff7f0e" fill-opacity="1" stroke="#ffffff" stroke-width="1.25" /><text x="359" y="175.02" font-size="7" text-anchor="middle" fill="#ffffff">2</text><circle cx="459" cy="172.57" r="6" fill="#ff7f0e" fill-opacity="1" stroke="#ffffff" stroke-width="1.25" /><text x="459" y="175.02" font-size="7" text-anchor="middle" fill="#ffffff">2</text><circle cx="559" cy="172.57" r="6" fill="#ff7f0e" fill-opacity="1" stroke="#ffffff" stroke-width="1.25" /><text x="559" y="175.02" font-size="7" text-anchor="middle" fill="#ffffff">2</text><path d="M 159.00,172.57 C 209.00,172.57 209.00,236.86 259.00,236.86" stroke="#2ca02c" stroke-width="2.5" fill="none" fill-opacity="1" /><path d="M 259.00,236.86 C 309.00,236.86 309.00,236.86 359.00,236.86" stroke="#2ca02c" stroke-width="2.5" fill="none" fill-opacity="1" /><path d="M 359.00,236.86 C 409.00,236.86 409.00,301.14 459.00,301.14" stroke="#2ca02c" stroke-width="2.5" fill="none" fill-opacity="1" /><path d="M 459.00,301.14 C 509.00,301.14 509.00,236.86 559.00,236.86" stroke="#2ca02c" stroke-width="2.5" fill="none" fill-opacity="1" /><circle cx="159" cy="172.57" r="6" fill="#2ca02c" fill-opacity="1" stroke="#ffffff" stroke-width="1.25" /><text x="159" y="175.02" font-size="7" text-anchor="middle" fill="#ffffff">2</text><circle cx="259" cy="236.86" r="6" fill="#2ca02c" fill-opacity="1" stroke="#ffffff" stroke-width="1.25" /><text x="259" y="239.31" font-size="7" text-anchor="middle" fill="#ffffff">3</text><circle cx="359" cy="236.86" r="6" fill="#2ca02c" fill-opacity="1" stroke="#ffffff" stroke-width="1.25" /><text x="359" y="239.31" font-size="7" text-anchor="middle" fill="#ffffff">3</text><circle cx="459" cy="301.14" r="6" fill="#2ca02c" fill-opacity="1" stroke="#ffffff" stroke-width="1.25" /><text x="459" y="303.59000000000003" font-size="7" text-anchor="middle" fill="#ffffff">4</text><circle cx="559" cy="236.86" r="6" fill="#2ca02c" fill-opacity="1" stroke="#ffffff" stroke-width="1.25" /><text x="559" y="239.31" font-size="7" text-anchor="middle" fill="#ffffff">3</text><path d="M 159.00,301.14 C 209.00,301.14 209.00,301.14 259.00,301.14" stroke="#d62728" stroke-width="2.5" fill="none" fill-opacity="1" /><path d="M 259.00,301.14 C 309.00,301.14 309.00,301.14 359.00,301.14" stroke="#d62728" stroke-width="2.5" fill="none" fill-opacity="1" /><path d="M 359.00,301.14 C 409.00,301.14 409.00,236.86 459.00,236.86" stroke="#d62728" stroke-width="2.5" fill="none" fill-opacity="1" /><path d="M 459.00,236.86 C 509.00,236.86 509.00,301.14 559.00,301.14" stroke="#d62728" stroke-width="2.5" fill="none" fill-opacity="1" /><circle cx="159" cy="301.14" r="6" fill="#d62728" fill-opacity="1" stroke="#ffffff" stroke-width="1.25" /><text x="159" y="303.59000000000003" font-size="7" text-anchor="middle" fill="#ffffff">4</text><circle cx="259" cy="301.14" r="6" fill="#d62728" fill-opacity="1" stroke="#ffffff" stroke-width="1.25" /><text x="259" y="303.59000000000003" font-size="7" text-anchor="middle" fill="#ffffff">4</text><circle cx="359" cy="301.14" r="6" fill="#d62728" fill-opacity="1" stroke="#ffffff" stroke-width="1.25" /><text x="359" y="303.59000000000003" font-size="7" text-anchor="middle" fill="#ffffff">4</text><circle cx="459" cy="236.86" r="6" fill="#d62728" fill-opacity="1" stroke="#ffffff" stroke-width="1.25" /><text x="459" y="239.31" font-size="7" text-anchor="middle" fill="#ffffff">3</text><circle cx="559" cy="301.14" r="6" fill="#d62728" fill-opacity="1" stroke="#ffffff" stroke-width="1.25" /><text x="559" y="303.59000000000003" font-size="7" text-anchor="middle" fill="#ffffff">4</text><path d="M 159.00,558.29 C 209.00,558.29 209.00,494.00 259.00,494.00" stroke="#9467bd" stroke-width="2.5" fill="none" fill-opacity="1" /><path d="M 259.00,494.00 C 309.00,494.00 309.00,429.71 359.00,429.71" stroke="#9467bd" stroke-width="2.5" fill="none" fill-opacity="1" /><path d="M 359.00,429.71 C 409.00,429.71 409.00,365.43 459.00,365.43" stroke="#9467bd" stroke-width="2.5" fill="none" fill-opacity="1" /><path d="M 459.00,365.43 C 509.00,365.43 509.00,365.43 559.00,365.43" stroke="#9467bd" stroke-width="2.5" fill="none" fill-opacity="1" /><circle cx="159" cy="558.29" r="6" fill="#9467bd" fill-opacity="1" stroke="#ffffff" stroke-width="1.25" /><text x="159" y="560.74" font-size="7" text-anchor="middle" fill="#ffffff">8</text><circle cx="259" cy="494" r="6" fill="#9467bd" fill-opacity="1" stroke="#ffffff" stroke-width="1.25" /><text x="259" y="496.45" font-size="7" text-anchor="middle" fill="#ffffff">7</text><circle cx="359" cy="429.71000000000004" r="6" fill="#9467bd" fill-opacity="1" stroke="#ffffff" stroke-width="1.25" /><text x="359" y="432.16" font-size="7" text-anchor="middle" fill="#ffffff">6</text><circle cx="459" cy="365.43" r="6" fill="#9467bd" fill-opacity="1" stroke="#ffffff" stroke-width="1.25" /><text x="459" y="367.88" font-size="7" text-anchor="middle" fill="#ffffff">5</text><circle cx="559" cy="365.43" r="6" fill="#9467bd" fill-opacity="1" stroke="#ffffff" stroke-width="1.25" /><text x="559" y="367.88" font-size="7" text-anchor="middle" fill="#ffffff">5</text><path d="M 159.00,429.71 C 209.00,429.71 209.00,429.71 259.00,429.71" stroke="#8c564b" stroke-width="2.5" fill="none" fill-opacity="1" /><path d="M 259.00,429.71 C 309.00,429.71 309.00,365.43 359.00,365.43" stroke="#8c564b" stroke-width="2.5" fill="none" fill-opacity="1" /><path d="M 359.00,365.43 C 409.00,365.43 409.00,429.71 459.00,429.71" stroke="#8c564b" stroke-width="2.5" fill="none" fill-opacity="1" /><path d="M 459.00,429.71 C 509.00,429.71 509.00,429.71 559.00,429.71" stroke="#8c564b" stroke-width="2.5" fill="none" fill-opacity="1" /><circle cx="159" cy="429.71000000000004" r="6" fill="#8c564b" fill-opacity="1" stroke="#ffffff" stroke-width="1.25" /><text x="159" y="432.16" font-size="7" text-anchor="middle" fill="#ffffff">6</text><circle cx="259" cy="429.71000000000004" r="6" fill="#8c564b" fill-opacity="1" stroke="#ffffff" stroke-width="1.25" /><text x="259" y="432.16" font-size="7" text-anchor="middle" fill="#ffffff">6</text><circle cx="359" cy="365.43" r="6" fill="#8c564b" fill-opacity="1" stroke="#ffffff" stroke-width="1.25" /><text x="359" y="367.88" font-size="7" text-anchor="middle" fill="#ffffff">5</text><circle cx="459" cy="429.71000000000004" r="6" fill="#8c564b" fill-opacity="1" stroke="#ffffff" stroke-width="1.25" /><text x="459" y="432.16" font-size="7" text-anchor="middle" fill="#ffffff">6</text><circle cx="559" cy="429.71000000000004" r="6" fill="#8c564b" fill-opacity="1" stroke="#ffffff" stroke-width="1.25" /><text x="559" y="432.16" font-size="7" text-anchor="middle" fill="#ffffff">6</text><text x="148" y="112.49000000000001" font-size="12" text-anchor="end" fill="#1f77b4">Python</text><text x="148" y="176.77" font-size="12" text-anchor="end" fill="#2ca02c">Java</text><text x="148" y="241.06" font-size="12" text-anchor="end" fill="#ff7f0e">JavaScript</text><text x="148" y="305.34000000000003" font-size="12" text-anchor="end" fill="#d62728">C/C++</text><text x="148" y="433.91" font-size="12" text-anchor="end" fill="#8c564b">Go</text><text x="148" y="562.49" font-size="12" text-anchor="end" fill="#9467bd">Rust</text><text x="570" y="112.49000000000001" font-size="12" text-anchor="start" fill="#1f77b4">Python</text><text x="570" y="176.77" font-size="12" text-anchor="start" fill="#ff7f0e">JavaScript</text><text x="570" y="241.06" font-size="12" text-anchor="start" fill="#2ca02c">Java</text><text x="570" y="305.34000000000003" font-size="12" text-anchor="start" fill="#d62728">C/C++</text><text x="570" y="369.63" font-size="12" text-anchor="start" fill="#9467bd">Rust</text><text x="570" y="433.91" font-size="12" text-anchor="start" fill="#8c564b">Go</text></g><rect x="664" y="34" width="120" height="128" fill="#ffffff" /><rect x="664" y="34" width="120" height="128" fill="none" stroke="#000000" stroke-width="1" /><text x="694" y="53.2" font-size="12" text-anchor="start">Python</text><line x1="674" y1="49" x2="686" y2="49" stroke="#1f77b4" stroke-width="2" /><text x="694" y="71.2" font-size="12" text-anchor="start">JavaScript</text><line x1="674" y1="67" x2="686" y2="67" stroke="#ff7f0e" stroke-width="2" /><text x="694" y="89.2" font-size="12" text-anchor="start">Java</text><line x1="674" y1="85" x2="686" y2="85" stroke="#2ca02c" stroke-width="2" /><text x="694" y="107.2" font-size="12" text-anchor="start">C/C++</text><line x1="674" y1="103" x2="686" y2="103" stroke="#d62728" stroke-width="2" /><text x="694" y="125.2" font-size="12" text-anchor="start">Rust</text><line x1="674" y1="121" x2="686" y2="121" stroke="#9467bd" stroke-width="2" /><text x="694" y="143.20000000000002" font-size="12" text-anchor="start">Go</text><line x1="674" y1="139" x2="686" y2="139" stroke="#8c564b" stroke-width="2" /></svg>