<svg xmlns="http://www.w3.org/2000/svg" width="600" height="320" font-family="DejaVu Sans, Liberation Sans, Arial, sans-serif" fill="black"><rect width="100%" height="100%" fill="white" /><defs><clipPath id="kuva-clip-1"><rect x="59" y="44" width="527" height="225"/></clipPath></defs><line x1="59" y1="269" x2="586" y2="269" stroke="#000000" stroke-width="1" /><line x1="59" y1="44" x2="59" y2="269" stroke="#000000" stroke-width="1" /><text x="51" y="228.20000000000002" font-size="12" text-anchor="end">4</text><line x1="54" y1="224" x2="59" y2="224" stroke="#000000" stroke-width="1" /><text x="51" y="183.20000000000002" font-size="12" text-anchor="end">3</text><line x1="54" y1="179" x2="59" y2="179" stroke="#000000" stroke-width="1" /><text x="51" y="138.20000000000002" font-size="12" text-anchor="end">2</text><line x1="54" y1="134" x2="59" y2="134" stroke="#000000" stroke-width="1" /><text x="51" y="93.2" font-size="12" text-anchor="end">1</text><line x1="54" y1="89" x2="59" y2="89" stroke="#000000" stroke-width="1" /><text x="146.83" y="286" font-size="12" text-anchor="middle">Q1</text><line x1="146.83" y1="269" x2="146.83" y2="274" stroke="#000000" stroke-width="1" /><text x="234.67000000000002" y="286" font-size="12" text-anchor="middle">Q2</text><line x1="234.67000000000002" y1="269" x2="234.67000000000002" y2="274" stroke="#000000" stroke-width="1" /><text x="322.5" y="286" font-size="12" text-anchor="middle">Q3</text><line x1="322.5" y1="269" x2="322.5" y2="274" stroke="#000000" stroke-width="1" /><text x="410.33" y="286" font-size="12" text-anchor="middle">Q4</text><line x1="410.33" y1="269" x2="410.33" y2="274" stroke="#000000" stroke-width="1" /><text x="498.17" y="286" font-size="12" text-anchor="middle">Q5</text><line x1="498.17" y1="269" x2="498.17" y2="274" stroke="#000000" stroke-width="1" /><text x="322.5" y="313" font-size="14" text-anchor="middle">Quarter</text><text x="15" y="160" font-size="14" text-anchor="middle" transform="rotate(-90,15,160)">Rank</text><text x="300" y="27.400000000000002" font-size="18" text-anchor="middle">Team Performance Rankings</text><g clip-path="url(#kuva-clip-1)"><path d="M 146.83,134.00 C 190.75,134.00 190.75,89.00 234.67,89.00" stroke="#1f77b4" stroke-width="2.5" fill="none" fill-opacity="1" /><path d="M 234.67,89.00 C 278.58,89.00 278.58,134.00 322.50,134.00" stroke="#1f77b4" stroke-width="2.5" fill="none" fill-opacity="1" /><path d="M 322.50,134.00 C 366.42,134.00 366.42,89.00 410.33,89.00" stroke="#1f77b4" stroke-width="2.5" fill="none" fill-opacity="1" /><path d="M 410.33,89.00 C 454.25,89.00 454.25,89.00 498.17,89.00" stroke="#1f77b4" stroke-width="2.5" fill="none" fill-opacity="1" /><circle cx="146.83" cy="134" r="6" fill="#1f77b4" fill-opacity="1" stroke="#ffffff" stroke-width="1.25" /><text x="146.83" y="136.45" font-size="7" text-anchor="middle" fill="#ffffff">2</text><circle cx="234.67000000000002" cy="89" r="6" fill="#1f77b4" fill-opacity="1" stroke="#ffffff" stroke-width="1.25" /><text x="234.67000000000002" y="91.45" font-size="7" text-anchor="middle" fill="#ffffff">1</text><circle cx="322.5" cy="134" r="6" fill="#1f77b4" fill-opacity="1" stroke="#ffffff" stroke-width="1.25" /><text x="322.5" y="136.45" font-size="7" text-anchor="middle" fill="#ffffff">2</text><circle cx="410.33" cy="89" r="6" fill="#1f77b4" fill-opacity="1" stroke="#ffffff" stroke-width="1.25" /><text x="410.33" y="91.45" font-size="7" text-anchor="middle" fill="#ffffff">1</text><circle cx="498.17" cy="89" r="6" fill="#1f77b4" fill-opacity="1" stroke="#ffffff" stroke-width="1.25" /><text x="498.17" y="91.45" font-size="7" text-anchor="middle" fill="#ffffff">1</text><path d="M 146.83,179.00 C 190.75,179.00 190.75,179.00 234.67,179.00" stroke="#ff7f0e" stroke-width="2.5" fill="none" fill-opacity="1" /><path d="M 234.67,179.00 C 278.58,179.00 278.58,89.00 322.50,89.00" stroke="#ff7f0e" stroke-width="2.5" fill="none" fill-opacity="1" /><path d="M 322.50,89.00 C 366.42,89.00 366.42,134.00 410.33,134.00" stroke="#ff7f0e" stroke-width="2.5" fill="none" fill-opacity="1" /><path d="M 410.33,134.00 C 454.25,134.00 454.25,179.00 498.17,179.00" stroke="#ff7f0e" stroke-width="2.5" fill="none" fill-opacity="1" /><circle cx="146.83" cy="179" r="6" fill="#ff7f0e" fill-opacity="1" stroke="#ffffff" stroke-width="1.25" /><text x="146.83" y="181.45000000000002" font-size="7" text-anchor="middle" fill="#ffffff">3</text><circle cx="234.67000000000002" cy="179" r="6" fill="#ff7f0e" fill-opacity="1" stroke="#ffffff" stroke-width="1.25" /><text x="234.67000000000002" y="181.45000000000002" font-size="7" text-anchor="middle" fill="#ffffff">3</text><circle cx="322.5" cy="89" r="6" fill="#ff7f0e" fill-opacity="1" stroke="#ffffff" stroke-width="1.25" /><text x="322.5" y="91.45" font-size="7" text-anchor="middle" fill="#ffffff">1</text><circle cx="410.33" cy="134" r="6" fill="#ff7f0e" fill-opacity="1" stroke="#ffffff" stroke-width="1.25" /><text x="410.33" y="136.45" font-size="7" text-anchor="middle" fill="#ffffff">2</text><circle cx="498.17" cy="179" r="6" fill="#ff7f0e" fill-opacity="1" stroke="#ffffff" stroke-width="1.25" /><text x="498.17" y="181.45000000000002" font-size="7" text-anchor="middle" fill="#ffffff">3</text><path d="M 146.83,224.00 C 190.75,224.00 190.75,224.00 234.67,224.00" stroke="#2ca02c" stroke-width="2.5" fill="none" fill-opacity="1" /><path d="M 234.67,224.00 C 278.58,224.00 278.58,224.00 322.50,224.00" stroke="#2ca02c" stroke-width="2.5" fill="none" fill-opacity="1" /><path d="M 322.50,224.00 C 366.42,224.00 366.42,179.00 410.33,179.00" stroke="#2ca02c" stroke-width="2.5" fill="none" fill-opacity="1" /><path d="M 410.33,179.00 C 454.25,179.00 454.25,134.00 498.17,134.00" stroke="#2ca02c" stroke-width="2.5" fill="none" fill-opacity="1" /><circle cx="146.83" cy="224" r="6" fill="#2ca02c" fill-opacity="1" stroke="#ffffff" stroke-width="1.25" /><text x="146.83" y="226.45000000000002" font-size="7" text-anchor="middle" fill="#ffffff">4</text><circle cx="234.67000000000002" cy="224" r="6" fill="#2ca02c" fill-opacity="1" stroke="#ffffff" stroke-width="1.25" /><text x="234.67000000000002" y="226.45000000000002" font-size="7" text-anchor="middle" fill="#ffffff">4</text><circle cx="322.5" cy="224" r="6" fill="#2ca02c" fill-opacity="1" stroke="#ffffff" stroke-width="1.25" /><text x="322.5" y="226.45000000000002" font-size="7" text-anchor="middle" fill="#ffffff">4</text><circle cx="410.33" cy="179" r="6" fill="#2ca02c" fill-opacity="1" stroke="#ffffff" stroke-width="1.25" /><text x="410.33" y="181.45000000000002" font-size="7" text-anchor="middle" fill="#ffffff">3</text><circle cx="498.17" cy="134" r="6" fill="#2ca02c" fill-opacity="1" stroke="#ffffff" stroke-width="1.25" /><text x="498.17" y="136.45" font-size="7" text-anchor="middle" fill="#ffffff">2</text><path d="M 146.83,89.00 C 190.75,89.00 190.75,134.00 234.67,134.00" stroke="#d62728" stroke-width="2.5" fill="none" fill-opacity="1" /><path d="M 234.67,134.00 C 278.58,134.00 278.58,179.00 322.50,179.00" stroke="#d62728" stroke-width="2.5" fill="none" fill-opacity="1" /><path d="M 322.50,179.00 C 366.42,179.00 366.42,224.00 410.33,224.00" stroke="#d62728" stroke-width="2.5" fill="none" fill-opacity="1" /><path d="M 410.33,224.00 C 454.25,224.00 454.25,224.00 498.17,224.00" stroke="#d62728" stroke-width="2.5" fill="none" fill-opacity="1" /><circle cx="146.83" cy="89" r="6" fill="#d62728" fill-opacity="1" stroke="#ffffff" stroke-width="1.25" /><text x="146.83" y="91.45" font-size="7" text-anchor="middle" fill="#ffffff">1</text><circle cx="234.67000000000002" cy="134" r="6" fill="#d62728" fill-opacity="1" stroke="#ffffff" stroke-width="1.25" /><text x="234.67000000000002" y="136.45" font-size="7" text-anchor="middle" fill="#ffffff">2</text><circle cx="322.5" cy="179" r="6" fill="#d62728" fill-opacity="1" stroke="#ffffff" stroke-width="1.25" /><text x="322.5" y="181.45000000000002" font-size="7" text-anchor="middle" fill="#ffffff">3</text><circle cx="410.33" cy="224" r="6" fill="#d62728" fill-opacity="1" stroke="#ffffff" stroke-width="1.25" /><text x="410.33" y="226.45000000000002" font-size="7" text-anchor="middle" fill="#ffffff">4</text><circle cx="498.17" cy="224" r="6" fill="#d62728" fill-opacity="1" stroke="#ffffff" stroke-width="1.25" /><text x="498.17" y="226.45000000000002" font-size="7" text-anchor="middle" fill="#ffffff">4</text><text x="135.83" y="93.2" font-size="12" text-anchor="end" fill="#d62728">Team D</text><text x="135.83" y="138.20000000000002" font-size="12" text-anchor="end" fill="#1f77b4">Team A</text><text x="135.83" y="183.20000000000002" font-size="12" text-anchor="end" fill="#ff7f0e">Team B</text><text x="135.83" y="228.20000000000002" font-size="12" text-anchor="end" fill="#2ca02c">Team C</text><text x="509.17" y="93.2" font-size="12" text-anchor="start" fill="#1f77b4">Team A</text><text x="509.17" y="138.20000000000002" font-size="12" text-anchor="start" fill="#2ca02c">Team C</text><text x="509.17" y="183.20000000000002" font-size="12" text-anchor="start" fill="#ff7f0e">Team B</text><text x="509.17" y="228.20000000000002" font-size="12" text-anchor="start" fill="#d62728">Team D</text></g></svg>