<svg xmlns="http://www.w3.org/2000/svg" width="699.4" height="545" font-family="DejaVu Sans, Liberation Sans, Arial, sans-serif" fill="black"><rect width="100%" height="100%" fill="white" /><defs><clipPath id="kuva-clip-0"><rect x="85.4" y="44" width="600" height="450"/></clipPath></defs><line x1="85.4" y1="494" x2="685.4" y2="494" stroke="#000000" stroke-width="1" /><line x1="85.4" y1="44" x2="85.4" y2="494" stroke="#000000" stroke-width="1" /><text x="77.4" y="472.49" font-size="12" text-anchor="end">0–4</text><line x1="80.4" y1="468.29" x2="85.4" y2="468.29" stroke="#000000" stroke-width="1" /><text x="77.4" y="446.77" font-size="12" text-anchor="end">5–9</text><line x1="80.4" y1="442.57" x2="85.4" y2="442.57" stroke="#000000" stroke-width="1" /><text x="77.4" y="421.06" font-size="12" text-anchor="end">10–14</text><line x1="80.4" y1="416.86" x2="85.4" y2="416.86" stroke="#000000" stroke-width="1" /><text x="77.4" y="395.34000000000003" font-size="12" text-anchor="end">15–19</text><line x1="80.4" y1="391.14" x2="85.4" y2="391.14" stroke="#000000" stroke-width="1" /><text x="77.4" y="369.63" font-size="12" text-anchor="end">20–24</text><line x1="80.4" y1="365.43" x2="85.4" y2="365.43" stroke="#000000" stroke-width="1" /><text x="77.4" y="343.91" font-size="12" text-anchor="end">25–29</text><line x1="80.4" y1="339.71" x2="85.4" y2="339.71" stroke="#000000" stroke-width="1" /><text x="77.4" y="318.2" font-size="12" text-anchor="end">30–34</text><line x1="80.4" y1="314" x2="85.4" y2="314" stroke="#000000" stroke-width="1" /><text x="77.4" y="292.49" font-size="12" text-anchor="end">35–39</text><line x1="80.4" y1="288.29" x2="85.4" y2="288.29" stroke="#000000" stroke-width="1" /><text x="77.4" y="266.77" font-size="12" text-anchor="end">40–44</text><line x1="80.4" y1="262.57" x2="85.4" y2="262.57" stroke="#000000" stroke-width="1" /><text x="77.4" y="241.06" font-size="12" text-anchor="end">45–49</text><line x1="80.4" y1="236.86" x2="85.4" y2="236.86" stroke="#000000" stroke-width="1" /><text x="77.4" y="215.34" font-size="12" text-anchor="end">50–54</text><line x1="80.4" y1="211.14000000000001" x2="85.4" y2="211.14000000000001" stroke="#000000" stroke-width="1" /><text x="77.4" y="189.63" font-size="12" text-anchor="end">55–59</text><line x1="80.4" y1="185.43" x2="85.4" y2="185.43" stroke="#000000" stroke-width="1" /><text x="77.4" y="163.91" font-size="12" text-anchor="end">60–64</text><line x1="80.4" y1="159.71" x2="85.4" y2="159.71" stroke="#000000" stroke-width="1" /><text x="77.4" y="138.20000000000002" font-size="12" text-anchor="end">65–69</text><line x1="80.4" y1="134" x2="85.4" y2="134" stroke="#000000" stroke-width="1" /><text x="77.4" y="112.49000000000001" font-size="12" text-anchor="end">70–74</text><line x1="80.4" y1="108.29" x2="85.4" y2="108.29" stroke="#000000" stroke-width="1" /><text x="77.4" y="86.77" font-size="12" text-anchor="end">75–79</text><line x1="80.4" y1="82.57000000000001" x2="85.4" y2="82.57000000000001" stroke="#000000" stroke-width="1" /><text x="77.4" y="61.06" font-size="12" text-anchor="end">80+</text><line x1="80.4" y1="56.86" x2="85.4" y2="56.86" stroke="#000000" stroke-width="1" /><line x1="85.4" y1="494" x2="85.4" y2="499" stroke="#000000" stroke-width="1" /><text x="85.4" y="511" font-size="12" text-anchor="middle">4.0</text><line x1="235.4" y1="494" x2="235.4" y2="499" stroke="#000000" stroke-width="1" /><text x="235.4" y="511" font-size="12" text-anchor="middle">2.0</text><line x1="385.40000000000003" y1="494" x2="385.40000000000003" y2="499" stroke="#000000" stroke-width="1" /><text x="385.40000000000003" y="511" font-size="12" text-anchor="middle">0</text><line x1="535.4" y1="494" x2="535.4" y2="499" stroke="#000000" stroke-width="1" /><text x="535.4" y="511" font-size="12" text-anchor="middle">2.0</text><line x1="685.4" y1="494" x2="685.4" y2="499" stroke="#000000" stroke-width="1" /><text x="685.4" y="511" font-size="12" text-anchor="middle">4.0</text><text x="385.40000000000003" y="538" font-size="14" text-anchor="middle">Population (millions)</text><text x="349.7" y="27.400000000000002" font-size="18" text-anchor="middle">Population Pyramid 2020</text><g clip-path="url(#kuva-clip-0)"><rect x="227.9" y="457.36" width="157.5" height="21.86" fill="#4c72b0" /><rect x="385.40000000000003" y="457.36" width="150" height="21.86" fill="#dd8452" /><rect x="212.9" y="431.64" width="172.5" height="21.86" fill="#4c72b0" /><rect x="385.40000000000003" y="431.64" width="165" height="21.86" fill="#dd8452" /><rect x="205.4" y="405.93" width="180" height="21.86" fill="#4c72b0" /><rect x="385.40000000000003" y="405.93" width="172.5" height="21.86" fill="#dd8452" /><rect x="190.4" y="380.21" width="195" height="21.86" fill="#4c72b0" /><rect x="385.40000000000003" y="380.21" width="187.5" height="21.86" fill="#dd8452" /><rect x="160.4" y="354.5" width="225" height="21.86" fill="#4c72b0" /><rect x="385.40000000000003" y="354.5" width="217.5" height="21.86" fill="#dd8452" /><rect x="145.4" y="328.79" width="240" height="21.86" fill="#4c72b0" /><rect x="385.40000000000003" y="328.79" width="232.5" height="21.86" fill="#dd8452" /><rect x="130.4" y="303.07" width="255" height="21.86" fill="#4c72b0" /><rect x="385.40000000000003" y="303.07" width="247.5" height="21.86" fill="#dd8452" /><rect x="137.9" y="277.36" width="247.5" height="21.86" fill="#4c72b0" /><rect x="385.40000000000003" y="277.36" width="240" height="21.86" fill="#dd8452" /><rect x="152.9" y="251.64000000000001" width="232.5" height="21.86" fill="#4c72b0" /><rect x="385.40000000000003" y="251.64000000000001" width="225" height="21.86" fill="#dd8452" /><rect x="167.9" y="225.93" width="217.5" height="21.86" fill="#4c72b0" /><rect x="385.40000000000003" y="225.93" width="210" height="21.86" fill="#dd8452" /><rect x="182.9" y="200.21" width="202.5" height="21.86" fill="#4c72b0" /><rect x="385.40000000000003" y="200.21" width="195" height="21.86" fill="#dd8452" /><rect x="205.4" y="174.5" width="180" height="21.86" fill="#4c72b0" /><rect x="385.40000000000003" y="174.5" width="172.5" height="21.86" fill="#dd8452" /><rect x="235.4" y="148.79" width="150" height="21.86" fill="#4c72b0" /><rect x="385.40000000000003" y="148.79" width="150" height="21.86" fill="#dd8452" /><rect x="265.4" y="123.07000000000001" width="120" height="21.86" fill="#4c72b0" /><rect x="385.40000000000003" y="123.07000000000001" width="127.5" height="21.86" fill="#dd8452" /><rect x="295.40000000000003" y="97.36" width="90" height="21.86" fill="#4c72b0" /><rect x="385.40000000000003" y="97.36" width="97.5" height="21.86" fill="#dd8452" /><rect x="325.40000000000003" y="71.64" width="60" height="21.86" fill="#4c72b0" /><rect x="385.40000000000003" y="71.64" width="75" height="21.86" fill="#dd8452" /><rect x="347.90000000000003" y="45.93" width="37.5" height="21.86" fill="#4c72b0" /><rect x="385.40000000000003" y="45.93" width="52.5" height="21.86" fill="#dd8452" /><text x="235.4" y="38" font-size="12" text-anchor="middle" font-weight="bold">Male</text><text x="535.4" y="38" font-size="12" text-anchor="middle" font-weight="bold">Female</text><line x1="385.40000000000003" y1="44" x2="385.40000000000003" y2="494" stroke="#aaaaaa" stroke-width="1" /></g></svg>