<svg xmlns="http://www.w3.org/2000/svg" width="779.4" height="545" font-family="DejaVu Sans, Liberation Sans, Arial, sans-serif" fill="black"><rect width="100%" height="100%" fill="white" /><defs><clipPath id="kuva-clip-2"><rect x="85.4" y="44" width="600" height="450"/></clipPath></defs><line x1="85.4" y1="494" x2="685.4" y2="494" stroke="#000000" stroke-width="1" /><line x1="85.4" y1="44" x2="85.4" y2="494" stroke="#000000" stroke-width="1" /><text x="77.4" y="472.49" font-size="12" text-anchor="end">0–4</text><line x1="80.4" y1="468.29" x2="85.4" y2="468.29" stroke="#000000" stroke-width="1" /><text x="77.4" y="446.77" font-size="12" text-anchor="end">5–9</text><line x1="80.4" y1="442.57" x2="85.4" y2="442.57" stroke="#000000" stroke-width="1" /><text x="77.4" y="421.06" font-size="12" text-anchor="end">10–14</text><line x1="80.4" y1="416.86" x2="85.4" y2="416.86" stroke="#000000" stroke-width="1" /><text x="77.4" y="395.34000000000003" font-size="12" text-anchor="end">15–19</text><line x1="80.4" y1="391.14" x2="85.4" y2="391.14" stroke="#000000" stroke-width="1" /><text x="77.4" y="369.63" font-size="12" text-anchor="end">20–24</text><line x1="80.4" y1="365.43" x2="85.4" y2="365.43" stroke="#000000" stroke-width="1" /><text x="77.4" y="343.91" font-size="12" text-anchor="end">25–29</text><line x1="80.4" y1="339.71" x2="85.4" y2="339.71" stroke="#000000" stroke-width="1" /><text x="77.4" y="318.2" font-size="12" text-anchor="end">30–34</text><line x1="80.4" y1="314" x2="85.4" y2="314" stroke="#000000" stroke-width="1" /><text x="77.4" y="292.49" font-size="12" text-anchor="end">35–39</text><line x1="80.4" y1="288.29" x2="85.4" y2="288.29" stroke="#000000" stroke-width="1" /><text x="77.4" y="266.77" font-size="12" text-anchor="end">40–44</text><line x1="80.4" y1="262.57" x2="85.4" y2="262.57" stroke="#000000" stroke-width="1" /><text x="77.4" y="241.06" font-size="12" text-anchor="end">45–49</text><line x1="80.4" y1="236.86" x2="85.4" y2="236.86" stroke="#000000" stroke-width="1" /><text x="77.4" y="215.34" font-size="12" text-anchor="end">50–54</text><line x1="80.4" y1="211.14000000000001" x2="85.4" y2="211.14000000000001" stroke="#000000" stroke-width="1" /><text x="77.4" y="189.63" font-size="12" text-anchor="end">55–59</text><line x1="80.4" y1="185.43" x2="85.4" y2="185.43" stroke="#000000" stroke-width="1" /><text x="77.4" y="163.91" font-size="12" text-anchor="end">60–64</text><line x1="80.4" y1="159.71" x2="85.4" y2="159.71" stroke="#000000" stroke-width="1" /><text x="77.4" y="138.20000000000002" font-size="12" text-anchor="end">65–69</text><line x1="80.4" y1="134" x2="85.4" y2="134" stroke="#000000" stroke-width="1" /><text x="77.4" y="112.49000000000001" font-size="12" text-anchor="end">70–74</text><line x1="80.4" y1="108.29" x2="85.4" y2="108.29" stroke="#000000" stroke-width="1" /><text x="77.4" y="86.77" font-size="12" text-anchor="end">75–79</text><line x1="80.4" y1="82.57000000000001" x2="85.4" y2="82.57000000000001" stroke="#000000" stroke-width="1" /><text x="77.4" y="61.06" font-size="12" text-anchor="end">80+</text><line x1="80.4" y1="56.86" x2="85.4" y2="56.86" stroke="#000000" stroke-width="1" /><line x1="85.4" y1="494" x2="85.4" y2="499" stroke="#000000" stroke-width="1" /><text x="85.4" y="511" font-size="12" text-anchor="middle">4.0</text><line x1="235.4" y1="494" x2="235.4" y2="499" stroke="#000000" stroke-width="1" /><text x="235.4" y="511" font-size="12" text-anchor="middle">2.0</text><line x1="385.40000000000003" y1="494" x2="385.40000000000003" y2="499" stroke="#000000" stroke-width="1" /><text x="385.40000000000003" y="511" font-size="12" text-anchor="middle">0</text><line x1="535.4" y1="494" x2="535.4" y2="499" stroke="#000000" stroke-width="1" /><text x="535.4" y="511" font-size="12" text-anchor="middle">2.0</text><line x1="685.4" y1="494" x2="685.4" y2="499" stroke="#000000" stroke-width="1" /><text x="685.4" y="511" font-size="12" text-anchor="middle">4.0</text><text x="385.40000000000003" y="538" font-size="14" text-anchor="middle">Population (millions)</text><text x="389.7" y="27.400000000000002" font-size="18" text-anchor="middle">Population Change 2000 vs 2020</text><g clip-path="url(#kuva-clip-2)"><rect x="205.4" y="468.8" width="180" height="10.41" fill="#1f77b4" /><rect x="385.40000000000003" y="468.8" width="172.5" height="10.41" fill="#1f77b4" /><rect x="197.9" y="443.09000000000003" width="187.5" height="10.41" fill="#1f77b4" /><rect x="385.40000000000003" y="443.09000000000003" width="180" height="10.41" fill="#1f77b4" /><rect x="190.4" y="417.37" width="195" height="10.41" fill="#1f77b4" /><rect x="385.40000000000003" y="417.37" width="187.5" height="10.41" fill="#1f77b4" /><rect x="175.4" y="391.66" width="210" height="10.41" fill="#1f77b4" /><rect x="385.40000000000003" y="391.66" width="202.5" height="10.41" fill="#1f77b4" /><rect x="152.9" y="365.94" width="232.5" height="10.41" fill="#1f77b4" /><rect x="385.40000000000003" y="365.94" width="225" height="10.41" fill="#1f77b4" /><rect x="137.9" y="340.23" width="247.5" height="10.41" fill="#1f77b4" /><rect x="385.40000000000003" y="340.23" width="240" height="10.41" fill="#1f77b4" /><rect x="145.4" y="314.51" width="240" height="10.41" fill="#1f77b4" /><rect x="385.40000000000003" y="314.51" width="232.5" height="10.41" fill="#1f77b4" /><rect x="160.4" y="288.8" width="225" height="10.41" fill="#1f77b4" /><rect x="385.40000000000003" y="288.8" width="217.5" height="10.41" fill="#1f77b4" /><rect x="175.4" y="263.09000000000003" width="210" height="10.41" fill="#1f77b4" /><rect x="385.40000000000003" y="263.09000000000003" width="202.5" height="10.41" fill="#1f77b4" /><rect x="197.9" y="237.37" width="187.5" height="10.41" fill="#1f77b4" /><rect x="385.40000000000003" y="237.37" width="180" height="10.41" fill="#1f77b4" /><rect x="220.4" y="211.66" width="165" height="10.41" fill="#1f77b4" /><rect x="385.40000000000003" y="211.66" width="165" height="10.41" fill="#1f77b4" /><rect x="242.9" y="185.94" width="142.5" height="10.41" fill="#1f77b4" /><rect x="385.40000000000003" y="185.94" width="142.5" height="10.41" fill="#1f77b4" /><rect x="272.9" y="160.23" width="112.5" height="10.41" fill="#1f77b4" /><rect x="385.40000000000003" y="160.23" width="120" height="10.41" fill="#1f77b4" /><rect x="302.90000000000003" y="134.51" width="82.5" height="10.41" fill="#1f77b4" /><rect x="385.40000000000003" y="134.51" width="90" height="10.41" fill="#1f77b4" /><rect x="325.40000000000003" y="108.8" width="60" height="10.41" fill="#1f77b4" /><rect x="385.40000000000003" y="108.8" width="67.5" height="10.41" fill="#1f77b4" /><rect x="347.90000000000003" y="83.09" width="37.5" height="10.41" fill="#1f77b4" /><rect x="385.40000000000003" y="83.09" width="45" height="10.41" fill="#1f77b4" /><rect x="362.90000000000003" y="57.370000000000005" width="22.5" height="10.41" fill="#1f77b4" /><rect x="385.40000000000003" y="57.370000000000005" width="30" height="10.41" fill="#1f77b4" /><rect x="227.9" y="457.36" width="157.5" height="10.41" fill="#ff7f0e" /><rect x="385.40000000000003" y="457.36" width="150" height="10.41" fill="#ff7f0e" /><rect x="212.9" y="431.64" width="172.5" height="10.41" fill="#ff7f0e" /><rect x="385.40000000000003" y="431.64" width="165" height="10.41" fill="#ff7f0e" /><rect x="205.4" y="405.93" width="180" height="10.41" fill="#ff7f0e" /><rect x="385.40000000000003" y="405.93" width="172.5" height="10.41" fill="#ff7f0e" /><rect x="190.4" y="380.21" width="195" height="10.41" fill="#ff7f0e" /><rect x="385.40000000000003" y="380.21" width="187.5" height="10.41" fill="#ff7f0e" /><rect x="160.4" y="354.5" width="225" height="10.41" fill="#ff7f0e" /><rect x="385.40000000000003" y="354.5" width="217.5" height="10.41" fill="#ff7f0e" /><rect x="145.4" y="328.79" width="240" height="10.41" fill="#ff7f0e" /><rect x="385.40000000000003" y="328.79" width="232.5" height="10.41" fill="#ff7f0e" /><rect x="130.4" y="303.07" width="255" height="10.41" fill="#ff7f0e" /><rect x="385.40000000000003" y="303.07" width="247.5" height="10.41" fill="#ff7f0e" /><rect x="137.9" y="277.36" width="247.5" height="10.41" fill="#ff7f0e" /><rect x="385.40000000000003" y="277.36" width="240" height="10.41" fill="#ff7f0e" /><rect x="152.9" y="251.64000000000001" width="232.5" height="10.41" fill="#ff7f0e" /><rect x="385.40000000000003" y="251.64000000000001" width="225" height="10.41" fill="#ff7f0e" /><rect x="167.9" y="225.93" width="217.5" height="10.41" fill="#ff7f0e" /><rect x="385.40000000000003" y="225.93" width="210" height="10.41" fill="#ff7f0e" /><rect x="182.9" y="200.21" width="202.5" height="10.41" fill="#ff7f0e" /><rect x="385.40000000000003" y="200.21" width="195" height="10.41" fill="#ff7f0e" /><rect x="205.4" y="174.5" width="180" height="10.41" fill="#ff7f0e" /><rect x="385.40000000000003" y="174.5" width="172.5" height="10.41" fill="#ff7f0e" /><rect x="235.4" y="148.79" width="150" height="10.41" fill="#ff7f0e" /><rect x="385.40000000000003" y="148.79" width="150" height="10.41" fill="#ff7f0e" /><rect x="265.4" y="123.07000000000001" width="120" height="10.41" fill="#ff7f0e" /><rect x="385.40000000000003" y="123.07000000000001" width="127.5" height="10.41" fill="#ff7f0e" /><rect x="295.40000000000003" y="97.36" width="90" height="10.41" fill="#ff7f0e" /><rect x="385.40000000000003" y="97.36" width="97.5" height="10.41" fill="#ff7f0e" /><rect x="325.40000000000003" y="71.64" width="60" height="10.41" fill="#ff7f0e" /><rect x="385.40000000000003" y="71.64" width="75" height="10.41" fill="#ff7f0e" /><rect x="347.90000000000003" y="45.93" width="37.5" height="10.41" fill="#ff7f0e" /><rect x="385.40000000000003" y="45.93" width="52.5" height="10.41" fill="#ff7f0e" /><text x="235.4" y="38" font-size="12" text-anchor="middle" font-weight="bold">Male</text><text x="535.4" y="38" font-size="12" text-anchor="middle" font-weight="bold">Female</text><line x1="385.40000000000003" y1="44" x2="385.40000000000003" y2="494" stroke="#aaaaaa" stroke-width="1" /></g><rect x="690.4" y="34" width="80" height="56" fill="#ffffff" /><rect x="690.4" y="34" width="80" height="56" fill="none" stroke="#000000" stroke-width="1" /><text x="720.4" y="53.2" font-size="12" text-anchor="start">2000</text><rect x="700.4" y="43" width="12" height="12" fill="#1f77b4" /><text x="720.4" y="71.2" font-size="12" text-anchor="start">2020</text><rect x="700.4" y="61" width="12" height="12" fill="#ff7f0e" /></svg>