<svg xmlns="http://www.w3.org/2000/svg" width="795" height="665" font-family="DejaVu Sans, Liberation Sans, Arial, sans-serif" fill="black"><rect width="100%" height="100%" fill="white" /><defs><clipPath id="kuva-clip-0"><rect x="63.800000000000004" y="44" width="301.8" height="205"/></clipPath><clipPath id="kuva-clip-1"><rect x="63.800000000000004" y="44" width="301.8" height="205"/></clipPath></defs><g transform="translate(10,40)"><line x1="124.16" y1="44" x2="124.16" y2="249" stroke="#cccccc" stroke-width="1" /><line x1="184.52" y1="44" x2="184.52" y2="249" stroke="#cccccc" stroke-width="1" /><line x1="244.88" y1="44" x2="244.88" y2="249" stroke="#cccccc" stroke-width="1" /><line x1="305.24" y1="44" x2="305.24" y2="249" stroke="#cccccc" stroke-width="1" /><line x1="365.6" y1="44" x2="365.6" y2="249" stroke="#cccccc" stroke-width="1" /><line x1="63.800000000000004" y1="190.43" x2="365.6" y2="190.43" stroke="#cccccc" stroke-width="1" /><line x1="63.800000000000004" y1="131.86" x2="365.6" y2="131.86" stroke="#cccccc" stroke-width="1" /><line x1="63.800000000000004" y1="73.29" x2="365.6" y2="73.29" stroke="#cccccc" stroke-width="1" /><line x1="63.800000000000004" y1="249" x2="365.6" y2="249" stroke="#000000" stroke-width="1" /><line x1="63.800000000000004" y1="44" x2="63.800000000000004" y2="249" stroke="#000000" stroke-width="1" /><line x1="63.800000000000004" y1="249" x2="63.800000000000004" y2="254" stroke="#000000" stroke-width="1" /><text x="63.800000000000004" y="266" font-size="12" text-anchor="middle">0</text><line x1="124.16" y1="249" x2="124.16" y2="254" stroke="#000000" stroke-width="1" /><text x="124.16" y="266" font-size="12" text-anchor="middle">1</text><line x1="184.52" y1="249" x2="184.52" y2="254" stroke="#000000" stroke-width="1" /><text x="184.52" y="266" font-size="12" text-anchor="middle">2</text><line x1="244.88" y1="249" x2="244.88" y2="254" stroke="#000000" stroke-width="1" /><text x="244.88" y="266" font-size="12" text-anchor="middle">3</text><line x1="305.24" y1="249" x2="305.24" y2="254" stroke="#000000" stroke-width="1" /><text x="305.24" y="266" font-size="12" text-anchor="middle">4</text><line x1="365.6" y1="249" x2="365.6" y2="254" stroke="#000000" stroke-width="1" /><text x="365.6" y="266" font-size="12" text-anchor="middle">5</text><line x1="58.800000000000004" y1="249" x2="63.800000000000004" y2="249" stroke="#000000" stroke-width="1" /><text x="55.800000000000004" y="253.20000000000002" font-size="12" text-anchor="end">0</text><line x1="58.800000000000004" y1="190.43" x2="63.800000000000004" y2="190.43" stroke="#000000" stroke-width="1" /><text x="55.800000000000004" y="194.63" font-size="12" text-anchor="end">5</text><line x1="58.800000000000004" y1="131.86" x2="63.800000000000004" y2="131.86" stroke="#000000" stroke-width="1" /><text x="55.800000000000004" y="136.06" font-size="12" text-anchor="end">10</text><line x1="58.800000000000004" y1="73.29" x2="63.800000000000004" y2="73.29" stroke="#000000" stroke-width="1" /><text x="55.800000000000004" y="77.49" font-size="12" text-anchor="end">15</text><text x="214.70000000000002" y="293" font-size="14" text-anchor="middle">Time (h)</text><text x="15" y="150" font-size="14" text-anchor="middle" transform="rotate(-90,15,150)">Signal</text><text x="190" y="27.400000000000002" font-size="18" text-anchor="middle">Cohort A</text><g clip-path="url(#kuva-clip-0)"><circle cx="93.98" cy="234.94" r="6" fill="#4477aa" /><circle cx="130.2" cy="225.57" r="6" fill="#4477aa" /><circle cx="172.45000000000002" cy="229.09" r="6" fill="#4477aa" /><circle cx="214.70000000000002" cy="216.20000000000002" r="6" fill="#4477aa" /><circle cx="256.95" cy="220.89000000000001" r="6" fill="#4477aa" /><circle cx="299.2" cy="208" r="6" fill="#4477aa" /><circle cx="106.05" cy="204.49" r="6" fill="#ee6677" /><circle cx="142.27" cy="196.29" r="6" fill="#ee6677" /><circle cx="184.52" cy="200.97" r="6" fill="#ee6677" /><circle cx="232.81" cy="188.09" r="6" fill="#ee6677" /><circle cx="269.02" cy="192.77" r="6" fill="#ee6677" /><circle cx="311.28000000000003" cy="181.06" r="6" fill="#ee6677" /><circle cx="100.02" cy="172.86" r="6" fill="#228833" /><circle cx="136.23" cy="165.83" r="6" fill="#228833" /><circle cx="178.48" cy="169.34" r="6" fill="#228833" /><circle cx="220.74" cy="157.63" r="6" fill="#228833" /><circle cx="262.99" cy="163.49" r="6" fill="#228833" /><circle cx="305.24" cy="152.94" r="6" fill="#228833" /><circle cx="87.94" cy="143.57" r="6" fill="#ccbb44" /><circle cx="124.16" cy="136.54" r="6" fill="#ccbb44" /><circle cx="166.41" cy="140.06" r="6" fill="#ccbb44" /><circle cx="208.66" cy="130.69" r="6" fill="#ccbb44" /><circle cx="250.92000000000002" cy="134.2" r="6" fill="#ccbb44" /><circle cx="293.17" cy="123.66" r="6" fill="#ccbb44" /><circle cx="112.09" cy="114.29" r="6" fill="#66ccee" /><circle cx="148.3" cy="108.43" r="6" fill="#66ccee" /><circle cx="190.56" cy="110.77" r="6" fill="#66ccee" /><circle cx="238.84" cy="101.4" r="6" fill="#66ccee" /><circle cx="281.1" cy="106.09" r="6" fill="#66ccee" /><circle cx="323.35" cy="96.71000000000001" r="6" fill="#66ccee" /><circle cx="81.91" cy="87.34" r="6" fill="#aa3377" /><circle cx="118.12" cy="80.31" r="6" fill="#aa3377" /><circle cx="160.38" cy="85" r="6" fill="#aa3377" /><circle cx="202.63" cy="74.46000000000001" r="6" fill="#aa3377" /><circle cx="244.88" cy="79.14" r="6" fill="#aa3377" /><circle cx="287.13" cy="70.94" r="6" fill="#aa3377" /></g></g><g transform="translate(405,40)"><line x1="124.16" y1="44" x2="124.16" y2="249" stroke="#cccccc" stroke-width="1" /><line x1="184.52" y1="44" x2="184.52" y2="249" stroke="#cccccc" stroke-width="1" /><line x1="244.88" y1="44" x2="244.88" y2="249" stroke="#cccccc" stroke-width="1" /><line x1="305.24" y1="44" x2="305.24" y2="249" stroke="#cccccc" stroke-width="1" /><line x1="365.6" y1="44" x2="365.6" y2="249" stroke="#cccccc" stroke-width="1" /><line x1="63.800000000000004" y1="214.83" x2="365.6" y2="214.83" stroke="#cccccc" stroke-width="1" /><line x1="63.800000000000004" y1="180.67000000000002" x2="365.6" y2="180.67000000000002" stroke="#cccccc" stroke-width="1" /><line x1="63.800000000000004" y1="146.5" x2="365.6" y2="146.5" stroke="#cccccc" stroke-width="1" /><line x1="63.800000000000004" y1="112.33" x2="365.6" y2="112.33" stroke="#cccccc" stroke-width="1" /><line x1="63.800000000000004" y1="78.17" x2="365.6" y2="78.17" stroke="#cccccc" stroke-width="1" /><line x1="63.800000000000004" y1="44" x2="365.6" y2="44" stroke="#cccccc" stroke-width="1" /><line x1="63.800000000000004" y1="249" x2="365.6" y2="249" stroke="#000000" stroke-width="1" /><line x1="63.800000000000004" y1="44" x2="63.800000000000004" y2="249" stroke="#000000" stroke-width="1" /><line x1="63.800000000000004" y1="249" x2="63.800000000000004" y2="254" stroke="#000000" stroke-width="1" /><text x="63.800000000000004" y="266" font-size="12" text-anchor="middle">0</text><line x1="124.16" y1="249" x2="124.16" y2="254" stroke="#000000" stroke-width="1" /><text x="124.16" y="266" font-size="12" text-anchor="middle">1</text><line x1="184.52" y1="249" x2="184.52" y2="254" stroke="#000000" stroke-width="1" /><text x="184.52" y="266" font-size="12" text-anchor="middle">2</text><line x1="244.88" y1="249" x2="244.88" y2="254" stroke="#000000" stroke-width="1" /><text x="244.88" y="266" font-size="12" text-anchor="middle">3</text><line x1="305.24" y1="249" x2="305.24" y2="254" stroke="#000000" stroke-width="1" /><text x="305.24" y="266" font-size="12" text-anchor="middle">4</text><line x1="365.6" y1="249" x2="365.6" y2="254" stroke="#000000" stroke-width="1" /><text x="365.6" y="266" font-size="12" text-anchor="middle">5</text><line x1="58.800000000000004" y1="249" x2="63.800000000000004" y2="249" stroke="#000000" stroke-width="1" /><text x="55.800000000000004" y="253.20000000000002" font-size="12" text-anchor="end">0</text><line x1="58.800000000000004" y1="214.83" x2="63.800000000000004" y2="214.83" stroke="#000000" stroke-width="1" /><text x="55.800000000000004" y="219.03" font-size="12" text-anchor="end">2.5</text><line x1="58.800000000000004" y1="180.67000000000002" x2="63.800000000000004" y2="180.67000000000002" stroke="#000000" stroke-width="1" /><text x="55.800000000000004" y="184.87" font-size="12" text-anchor="end">5</text><line x1="58.800000000000004" y1="146.5" x2="63.800000000000004" y2="146.5" stroke="#000000" stroke-width="1" /><text x="55.800000000000004" y="150.70000000000002" font-size="12" text-anchor="end">7.5</text><line x1="58.800000000000004" y1="112.33" x2="63.800000000000004" y2="112.33" stroke="#000000" stroke-width="1" /><text x="55.800000000000004" y="116.53" font-size="12" text-anchor="end">10</text><line x1="58.800000000000004" y1="78.17" x2="63.800000000000004" y2="78.17" stroke="#000000" stroke-width="1" /><text x="55.800000000000004" y="82.37" font-size="12" text-anchor="end">12.5</text><line x1="58.800000000000004" y1="44" x2="63.800000000000004" y2="44" stroke="#000000" stroke-width="1" /><text x="55.800000000000004" y="48.2" font-size="12" text-anchor="end">15</text><text x="214.70000000000002" y="293" font-size="14" text-anchor="middle">Time (h)</text><text x="15" y="150" font-size="14" text-anchor="middle" transform="rotate(-90,15,150)">Signal</text><text x="190" y="27.400000000000002" font-size="18" text-anchor="middle">Cohort B</text><g clip-path="url(#kuva-clip-1)"><circle cx="93.98" cy="228.23000000000002" r="6" fill="#4477aa" /><circle cx="130.2" cy="218.93" r="6" fill="#4477aa" /><circle cx="172.45000000000002" cy="222.42000000000002" r="6" fill="#4477aa" /><circle cx="214.70000000000002" cy="209.64000000000001" r="6" fill="#4477aa" /><circle cx="256.95" cy="214.29" r="6" fill="#4477aa" /><circle cx="299.2" cy="201.51" r="6" fill="#4477aa" /><circle cx="106.05" cy="198.02" r="6" fill="#ee6677" /><circle cx="142.27" cy="189.89000000000001" r="6" fill="#ee6677" /><circle cx="184.52" cy="194.54" r="6" fill="#ee6677" /><circle cx="232.81" cy="181.76" r="6" fill="#ee6677" /><circle cx="269.02" cy="186.41" r="6" fill="#ee6677" /><circle cx="311.28000000000003" cy="174.79" r="6" fill="#ee6677" /><circle cx="100.02" cy="166.66" r="6" fill="#228833" /><circle cx="136.23" cy="159.69" r="6" fill="#228833" /><circle cx="178.48" cy="163.17000000000002" r="6" fill="#228833" /><circle cx="220.74" cy="151.56" r="6" fill="#228833" /><circle cx="262.99" cy="157.37" r="6" fill="#228833" /><circle cx="305.24" cy="146.91" r="6" fill="#228833" /><circle cx="87.94" cy="137.62" r="6" fill="#ccbb44" /><circle cx="124.16" cy="130.65" r="6" fill="#ccbb44" /><circle cx="166.41" cy="134.13" r="6" fill="#ccbb44" /><circle cx="208.66" cy="124.84" r="6" fill="#ccbb44" /><circle cx="250.92000000000002" cy="128.32" r="6" fill="#ccbb44" /><circle cx="293.17" cy="117.87" r="6" fill="#ccbb44" /><circle cx="112.09" cy="108.57000000000001" r="6" fill="#66ccee" /><circle cx="148.3" cy="102.77" r="6" fill="#66ccee" /><circle cx="190.56" cy="105.09" r="6" fill="#66ccee" /><circle cx="238.84" cy="95.8" r="6" fill="#66ccee" /><circle cx="281.1" cy="100.44" r="6" fill="#66ccee" /><circle cx="323.35" cy="91.15" r="6" fill="#66ccee" /><circle cx="81.91" cy="81.86" r="6" fill="#aa3377" /><circle cx="118.12" cy="74.89" r="6" fill="#aa3377" /><circle cx="160.38" cy="79.53" r="6" fill="#aa3377" /><circle cx="202.63" cy="69.08" r="6" fill="#aa3377" /><circle cx="244.88" cy="73.73" r="6" fill="#aa3377" /><circle cx="287.13" cy="65.59" r="6" fill="#aa3377" /></g></g><g transform="translate(10,355)"><rect x="54" y="0" width="711.6" height="38" fill="#ffffff" /><rect x="54" y="0" width="711.6" height="38" fill="none" stroke="#000000" stroke-width="1" /><text x="84" y="19.2" font-size="12" text-anchor="start">Alpha</text><circle cx="69" cy="15" r="5" fill="#4477aa" /><text x="184.23" y="19.2" font-size="12" text-anchor="start">Beta</text><circle cx="169.23" cy="15" r="5" fill="#ee6677" /><text x="284.46" y="19.2" font-size="12" text-anchor="start">Gamma</text><circle cx="269.46" cy="15" r="5" fill="#228833" /><text x="384.69" y="19.2" font-size="12" text-anchor="start">Delta</text><circle cx="369.69" cy="15" r="5" fill="#ccbb44" /><text x="484.91" y="19.2" font-size="12" text-anchor="start">Epsilon</text><circle cx="469.91" cy="15" r="5" fill="#66ccee" /><text x="585.14" y="19.2" font-size="12" text-anchor="start">Zeta</text><circle cx="570.14" cy="15" r="5" fill="#aa3377" /></g><text x="397.5" y="22" font-size="20" text-anchor="middle">Two-panel figure with shared LegendPlot</text></svg>