<svg xmlns="http://www.w3.org/2000/svg" width="955" height="390" font-family="DejaVu Sans, Liberation Sans, Arial, sans-serif" fill="black"><rect width="100%" height="100%" fill="white" /><defs><clipPath id="kuva-clip-2"><rect x="63.800000000000004" y="44" width="381.8" height="245"/></clipPath></defs><g transform="translate(10,40)"><line x1="140.16" y1="44" x2="140.16" y2="289" stroke="#cccccc" stroke-width="1" /><line x1="216.52" y1="44" x2="216.52" y2="289" stroke="#cccccc" stroke-width="1" /><line x1="292.88" y1="44" x2="292.88" y2="289" stroke="#cccccc" stroke-width="1" /><line x1="369.24" y1="44" x2="369.24" y2="289" stroke="#cccccc" stroke-width="1" /><line x1="445.6" y1="44" x2="445.6" y2="289" stroke="#cccccc" stroke-width="1" /><line x1="63.800000000000004" y1="219" x2="445.6" y2="219" stroke="#cccccc" stroke-width="1" /><line x1="63.800000000000004" y1="149" x2="445.6" y2="149" stroke="#cccccc" stroke-width="1" /><line x1="63.800000000000004" y1="79" x2="445.6" y2="79" stroke="#cccccc" stroke-width="1" /><line x1="63.800000000000004" y1="289" x2="445.6" y2="289" stroke="#000000" stroke-width="1" /><line x1="63.800000000000004" y1="44" x2="63.800000000000004" y2="289" stroke="#000000" stroke-width="1" /><line x1="63.800000000000004" y1="289" x2="63.800000000000004" y2="294" stroke="#000000" stroke-width="1" /><text x="63.800000000000004" y="306" font-size="12" text-anchor="middle">0</text><line x1="140.16" y1="289" x2="140.16" y2="294" stroke="#000000" stroke-width="1" /><text x="140.16" y="306" font-size="12" text-anchor="middle">1</text><line x1="216.52" y1="289" x2="216.52" y2="294" stroke="#000000" stroke-width="1" /><text x="216.52" y="306" font-size="12" text-anchor="middle">2</text><line x1="292.88" y1="289" x2="292.88" y2="294" stroke="#000000" stroke-width="1" /><text x="292.88" y="306" font-size="12" text-anchor="middle">3</text><line x1="369.24" y1="289" x2="369.24" y2="294" stroke="#000000" stroke-width="1" /><text x="369.24" y="306" font-size="12" text-anchor="middle">4</text><line x1="445.6" y1="289" x2="445.6" y2="294" stroke="#000000" stroke-width="1" /><text x="445.6" y="306" font-size="12" text-anchor="middle">5</text><line x1="58.800000000000004" y1="289" x2="63.800000000000004" y2="289" stroke="#000000" stroke-width="1" /><text x="55.800000000000004" y="293.2" font-size="12" text-anchor="end">0</text><line x1="58.800000000000004" y1="219" x2="63.800000000000004" y2="219" stroke="#000000" stroke-width="1" /><text x="55.800000000000004" y="223.20000000000002" font-size="12" text-anchor="end">5</text><line x1="58.800000000000004" y1="149" x2="63.800000000000004" y2="149" stroke="#000000" stroke-width="1" /><text x="55.800000000000004" y="153.20000000000002" font-size="12" text-anchor="end">10</text><line x1="58.800000000000004" y1="79" x2="63.800000000000004" y2="79" stroke="#000000" stroke-width="1" /><text x="55.800000000000004" y="83.2" font-size="12" text-anchor="end">15</text><text x="254.70000000000002" y="333" font-size="14" text-anchor="middle">Time (h)</text><text x="15" y="170" font-size="14" text-anchor="middle" transform="rotate(-90,15,170)">Expression</text><text x="230" y="27.400000000000002" font-size="18" text-anchor="middle">Expression by Group</text><g clip-path="url(#kuva-clip-2)"><circle cx="101.98" cy="272.2" r="6" fill="#4477aa" /><circle cx="147.8" cy="261" r="6" fill="#4477aa" /><circle cx="201.25" cy="265.2" r="6" fill="#4477aa" /><circle cx="254.70000000000002" cy="249.8" r="6" fill="#4477aa" /><circle cx="308.15000000000003" cy="255.4" r="6" fill="#4477aa" /><circle cx="361.6" cy="240" r="6" fill="#4477aa" /><circle cx="117.25" cy="235.8" r="6" fill="#ee6677" /><circle cx="163.07" cy="226" r="6" fill="#ee6677" /><circle cx="216.52" cy="231.6" r="6" fill="#ee6677" /><circle cx="277.61" cy="216.20000000000002" r="6" fill="#ee6677" /><circle cx="323.42" cy="221.8" r="6" fill="#ee6677" /><circle cx="376.88" cy="207.8" r="6" fill="#ee6677" /><circle cx="109.62" cy="198" r="6" fill="#228833" /><circle cx="155.43" cy="189.6" r="6" fill="#228833" /><circle cx="208.88" cy="193.8" r="6" fill="#228833" /><circle cx="262.34000000000003" cy="179.8" r="6" fill="#228833" /><circle cx="315.79" cy="186.8" r="6" fill="#228833" /><circle cx="369.24" cy="174.20000000000002" r="6" fill="#228833" /><circle cx="94.34" cy="163" r="6" fill="#ccbb44" /><circle cx="140.16" cy="154.6" r="6" fill="#ccbb44" /><circle cx="193.61" cy="158.8" r="6" fill="#ccbb44" /><circle cx="247.06" cy="147.6" r="6" fill="#ccbb44" /><circle cx="300.52" cy="151.8" r="6" fill="#ccbb44" /><circle cx="353.97" cy="139.20000000000002" r="6" fill="#ccbb44" /><circle cx="124.89" cy="128" r="6" fill="#66ccee" /><circle cx="170.70000000000002" cy="121" r="6" fill="#66ccee" /><circle cx="224.16" cy="123.8" r="6" fill="#66ccee" /><circle cx="285.24" cy="112.60000000000001" r="6" fill="#66ccee" /><circle cx="338.7" cy="118.2" r="6" fill="#66ccee" /><circle cx="392.15000000000003" cy="107" r="6" fill="#66ccee" /><circle cx="86.71000000000001" cy="95.8" r="6" fill="#aa3377" /><circle cx="132.52" cy="87.4" r="6" fill="#aa3377" /><circle cx="185.98" cy="93" r="6" fill="#aa3377" /><circle cx="239.43" cy="80.4" r="6" fill="#aa3377" /><circle cx="292.88" cy="86" r="6" fill="#aa3377" /><circle cx="346.33" cy="76.2" r="6" fill="#aa3377" /></g></g><g transform="translate(485,40)"><rect x="54" y="0" width="396.6" height="128" fill="#ffffff" /><rect x="54" y="0" width="396.6" height="128" fill="none" stroke="#000000" stroke-width="1" /><text x="84" y="19.2" font-size="12" text-anchor="start">Alpha</text><circle cx="69" cy="15" r="5" fill="#4477aa" /><text x="84" y="37.2" font-size="12" text-anchor="start">Beta</text><circle cx="69" cy="33" r="5" fill="#ee6677" /><text x="84" y="55.2" font-size="12" text-anchor="start">Gamma</text><circle cx="69" cy="51" r="5" fill="#228833" /><text x="84" y="73.2" font-size="12" text-anchor="start">Delta</text><circle cx="69" cy="69" r="5" fill="#ccbb44" /><text x="84" y="91.2" font-size="12" text-anchor="start">Epsilon</text><circle cx="69" cy="87" r="5" fill="#66ccee" /><text x="84" y="109.2" font-size="12" text-anchor="start">Zeta</text><circle cx="69" cy="105" r="5" fill="#aa3377" /></g><text x="477.5" y="22" font-size="20" text-anchor="middle">Chart with LegendPlot to the right</text></svg>