<svg xmlns="http://www.w3.org/2000/svg" width="673.4" height="611" font-family="DejaVu Sans, Liberation Sans, Arial, sans-serif" fill="black"><rect width="100%" height="100%" fill="white" /><defs><clipPath id="kuva-clip-3"><rect x="59" y="44" width="600" height="450"/></clipPath></defs><line x1="144.71" y1="44" x2="144.71" y2="494" stroke="#cccccc" stroke-width="1" /><line x1="230.43" y1="44" x2="230.43" y2="494" stroke="#cccccc" stroke-width="1" /><line x1="316.14" y1="44" x2="316.14" y2="494" stroke="#cccccc" stroke-width="1" /><line x1="401.86" y1="44" x2="401.86" y2="494" stroke="#cccccc" stroke-width="1" /><line x1="487.57" y1="44" x2="487.57" y2="494" stroke="#cccccc" stroke-width="1" /><line x1="573.29" y1="44" x2="573.29" y2="494" stroke="#cccccc" stroke-width="1" /><line x1="659" y1="44" x2="659" y2="494" stroke="#cccccc" stroke-width="1" /><line x1="59" y1="381.5" x2="659" y2="381.5" stroke="#cccccc" stroke-width="1" /><line x1="59" y1="269" x2="659" y2="269" stroke="#cccccc" stroke-width="1" /><line x1="59" y1="156.5" x2="659" y2="156.5" stroke="#cccccc" stroke-width="1" /><line x1="59" y1="44" x2="659" y2="44" stroke="#cccccc" stroke-width="1" /><line x1="59" y1="494" x2="659" y2="494" stroke="#000000" stroke-width="1" /><line x1="59" y1="44" x2="59" y2="494" stroke="#000000" stroke-width="1" /><line x1="59" y1="494" x2="59" y2="499" stroke="#000000" stroke-width="1" /><text x="59" y="511" font-size="12" text-anchor="middle">0</text><line x1="144.71" y1="494" x2="144.71" y2="499" stroke="#000000" stroke-width="1" /><text x="144.71" y="511" font-size="12" text-anchor="middle">0.5</text><line x1="230.43" y1="494" x2="230.43" y2="499" stroke="#000000" stroke-width="1" /><text x="230.43" y="511" font-size="12" text-anchor="middle">1</text><line x1="316.14" y1="494" x2="316.14" y2="499" stroke="#000000" stroke-width="1" /><text x="316.14" y="511" font-size="12" text-anchor="middle">1.5</text><line x1="401.86" y1="494" x2="401.86" y2="499" stroke="#000000" stroke-width="1" /><text x="401.86" y="511" font-size="12" text-anchor="middle">2</text><line x1="487.57" y1="494" x2="487.57" y2="499" stroke="#000000" stroke-width="1" /><text x="487.57" y="511" font-size="12" text-anchor="middle">2.5</text><line x1="573.29" y1="494" x2="573.29" y2="499" stroke="#000000" stroke-width="1" /><text x="573.29" y="511" font-size="12" text-anchor="middle">3</text><line x1="659" y1="494" x2="659" y2="499" stroke="#000000" stroke-width="1" /><text x="659" y="511" font-size="12" text-anchor="middle">3.5</text><line x1="54" y1="494" x2="59" y2="494" stroke="#000000" stroke-width="1" /><text x="51" y="498.2" font-size="12" text-anchor="end">0</text><line x1="54" y1="381.5" x2="59" y2="381.5" stroke="#000000" stroke-width="1" /><text x="51" y="385.7" font-size="12" text-anchor="end">5</text><line x1="54" y1="269" x2="59" y2="269" stroke="#000000" stroke-width="1" /><text x="51" y="273.2" font-size="12" text-anchor="end">10</text><line x1="54" y1="156.5" x2="59" y2="156.5" stroke="#000000" stroke-width="1" /><text x="51" y="160.70000000000002" font-size="12" text-anchor="end">15</text><line x1="54" y1="44" x2="59" y2="44" stroke="#000000" stroke-width="1" /><text x="51" y="48.2" font-size="12" text-anchor="end">20</text><text x="359" y="538" font-size="14" text-anchor="middle">Time (h)</text><text x="15" y="305.5" font-size="14" text-anchor="middle" transform="rotate(-90,15,305.5)">Expression</text><text x="336.7" y="27.400000000000002" font-size="18" text-anchor="middle">OutsideBottomColumns — 12 groups, auto-packed columns</text><g clip-path="url(#kuva-clip-3)"><circle cx="230.43" cy="449" r="5" fill="#4477aa" /><circle cx="401.86" cy="437.75" r="5" fill="#4477aa" /><circle cx="573.29" cy="424.25" r="5" fill="#4477aa" /><circle cx="230.43" cy="415.25" r="5" fill="#ee6677" /><circle cx="401.86" cy="404" r="5" fill="#ee6677" /><circle cx="573.29" cy="386" r="5" fill="#ee6677" /><circle cx="230.43" cy="381.5" r="5" fill="#228833" /><circle cx="401.86" cy="368" r="5" fill="#228833" /><circle cx="573.29" cy="354.5" r="5" fill="#228833" /><circle cx="230.43" cy="460.25" r="5" fill="#ccbb44" /><circle cx="401.86" cy="451.25" r="5" fill="#ccbb44" /><circle cx="573.29" cy="440" r="5" fill="#ccbb44" /><circle cx="230.43" cy="336.5" r="5" fill="#66ccee" /><circle cx="401.86" cy="325.25" r="5" fill="#66ccee" /><circle cx="573.29" cy="311.75" r="5" fill="#66ccee" /><circle cx="230.43" cy="302.75" r="5" fill="#aa3377" /><circle cx="401.86" cy="291.5" r="5" fill="#aa3377" /><circle cx="573.29" cy="275.75" r="5" fill="#aa3377" /><circle cx="230.43" cy="269" r="5" fill="#bbbbbb" /><circle cx="401.86" cy="257.75" r="5" fill="#bbbbbb" /><circle cx="573.29" cy="246.5" r="5" fill="#bbbbbb" /><circle cx="230.43" cy="235.25" r="5" fill="#332288" /><circle cx="401.86" cy="221.75" r="5" fill="#332288" /><circle cx="573.29" cy="206" r="5" fill="#332288" /><circle cx="230.43" cy="201.5" r="5" fill="#882255" /><circle cx="401.86" cy="188" r="5" fill="#882255" /><circle cx="573.29" cy="172.25" r="5" fill="#882255" /><circle cx="230.43" cy="167.75" r="5" fill="#44aa99" /><circle cx="401.86" cy="154.25" r="5" fill="#44aa99" /><circle cx="573.29" cy="138.5" r="5" fill="#44aa99" /><circle cx="230.43" cy="134" r="5" fill="#ddcc77" /><circle cx="401.86" cy="120.5" r="5" fill="#ddcc77" /><circle cx="573.29" cy="107" r="5" fill="#ddcc77" /><circle cx="230.43" cy="100.25" r="5" fill="#117733" /><circle cx="401.86" cy="86.75" r="5" fill="#117733" /><circle cx="573.29" cy="71" r="5" fill="#117733" /></g><rect x="54" y="540" width="610" height="56" fill="#ffffff" /><rect x="54" y="540" width="610" height="56" fill="none" stroke="#000000" stroke-width="1" /><text x="84" y="559.2" font-size="12" text-anchor="start">Alpha</text><circle cx="69" cy="555" r="5" fill="#4477aa" /><text x="184" y="559.2" font-size="12" text-anchor="start">Beta</text><circle cx="169" cy="555" r="5" fill="#ee6677" /><text x="284" y="559.2" font-size="12" text-anchor="start">Gamma</text><circle cx="269" cy="555" r="5" fill="#228833" /><text x="384" y="559.2" font-size="12" text-anchor="start">Delta</text><circle cx="369" cy="555" r="5" fill="#ccbb44" /><text x="484" y="559.2" font-size="12" text-anchor="start">Epsilon</text><circle cx="469" cy="555" r="5" fill="#66ccee" /><text x="584" y="559.2" font-size="12" text-anchor="start">Zeta</text><circle cx="569" cy="555" r="5" fill="#aa3377" /><text x="84" y="577.2" font-size="12" text-anchor="start">Eta</text><circle cx="69" cy="573" r="5" fill="#bbbbbb" /><text x="184" y="577.2" font-size="12" text-anchor="start">Theta</text><circle cx="169" cy="573" r="5" fill="#332288" /><text x="284" y="577.2" font-size="12" text-anchor="start">Iota</text><circle cx="269" cy="573" r="5" fill="#882255" /><text x="384" y="577.2" font-size="12" text-anchor="start">Kappa</text><circle cx="369" cy="573" r="5" fill="#44aa99" /><text x="484" y="577.2" font-size="12" text-anchor="start">Lambda</text><circle cx="469" cy="573" r="5" fill="#ddcc77" /><text x="584" y="577.2" font-size="12" text-anchor="start">Mu</text><circle cx="569" cy="573" r="5" fill="#117733" /></svg>