<svg xmlns="http://www.w3.org/2000/svg" width="686.2" height="545" font-family="DejaVu Sans, Liberation Sans, Arial, sans-serif" fill="black"><rect width="100%" height="100%" fill="white" /><line x1="72.2" y1="494" x2="672.2" y2="494" stroke="#000000" stroke-width="1" /><line x1="72.2" y1="44" x2="72.2" y2="494" stroke="#000000" stroke-width="1" /><line x1="192.20000000000002" y1="44" x2="192.20000000000002" y2="494" stroke="#cccccc" stroke-width="1" /><line x1="312.2" y1="44" x2="312.2" y2="494" stroke="#cccccc" stroke-width="1" /><line x1="432.2" y1="44" x2="432.2" y2="494" stroke="#cccccc" stroke-width="1" /><line x1="552.2" y1="44" x2="552.2" y2="494" stroke="#cccccc" stroke-width="1" /><line x1="672.2" y1="44" x2="672.2" y2="494" stroke="#cccccc" stroke-width="1" /><line x1="72.2" y1="404" x2="672.2" y2="404" stroke="#cccccc" stroke-width="1" /><line x1="72.2" y1="314" x2="672.2" y2="314" stroke="#cccccc" stroke-width="1" /><line x1="72.2" y1="224" x2="672.2" y2="224" stroke="#cccccc" stroke-width="1" /><line x1="72.2" y1="134" x2="672.2" y2="134" stroke="#cccccc" stroke-width="1" /><line x1="72.2" y1="44" x2="672.2" y2="44" stroke="#cccccc" stroke-width="1" /><line x1="72.2" y1="494" x2="72.2" y2="499" stroke="#000000" stroke-width="1" /><text x="72.2" y="511" font-size="12" text-anchor="middle">0</text><line x1="192.20000000000002" y1="494" x2="192.20000000000002" y2="499" stroke="#000000" stroke-width="1" /><text x="192.20000000000002" y="511" font-size="12" text-anchor="middle">2</text><line x1="312.2" y1="494" x2="312.2" y2="499" stroke="#000000" stroke-width="1" /><text x="312.2" y="511" font-size="12" text-anchor="middle">4</text><line x1="432.2" y1="494" x2="432.2" y2="499" stroke="#000000" stroke-width="1" /><text x="432.2" y="511" font-size="12" text-anchor="middle">6</text><line x1="552.2" y1="494" x2="552.2" y2="499" stroke="#000000" stroke-width="1" /><text x="552.2" y="511" font-size="12" text-anchor="middle">8</text><line x1="672.2" y1="494" x2="672.2" y2="499" stroke="#000000" stroke-width="1" /><text x="672.2" y="511" font-size="12" text-anchor="middle">10</text><line x1="67.2" y1="494" x2="72.2" y2="494" stroke="#000000" stroke-width="1" /><text x="64.2" y="498.2" font-size="12" text-anchor="end">0</text><line x1="67.2" y1="404" x2="72.2" y2="404" stroke="#000000" stroke-width="1" /><text x="64.2" y="408.2" font-size="12" text-anchor="end">2</text><line x1="67.2" y1="314" x2="72.2" y2="314" stroke="#000000" stroke-width="1" /><text x="64.2" y="318.2" font-size="12" text-anchor="end">4</text><line x1="67.2" y1="224" x2="72.2" y2="224" stroke="#000000" stroke-width="1" /><text x="64.2" y="228.20000000000002" font-size="12" text-anchor="end">6</text><line x1="67.2" y1="134" x2="72.2" y2="134" stroke="#000000" stroke-width="1" /><text x="64.2" y="138.20000000000002" font-size="12" text-anchor="end">8</text><line x1="67.2" y1="44" x2="72.2" y2="44" stroke="#000000" stroke-width="1" /><text x="64.2" y="48.2" font-size="12" text-anchor="end">10</text><text x="372.2" y="538" font-size="14" text-anchor="middle">X</text><text x="7" y="272.5" font-size="14" text-anchor="middle" transform="rotate(-90,7,272.5)">Y</text><text x="372.2" y="22" font-size="18" text-anchor="middle">Bubble Plot</text><circle cx="132.2" cy="359" r="5" fill="#4682b4" /><circle cx="222.20000000000002" cy="201.5" r="14" fill="#4682b4" /><circle cx="312.2" cy="314" r="9" fill="#4682b4" /><circle cx="402.2" cy="134" r="18" fill="#4682b4" /><circle cx="492.2" cy="246.5" r="11" fill="#4682b4" /><circle cx="582.2" cy="89" r="7" fill="#4682b4" /></svg>