<svg xmlns="http://www.w3.org/2000/svg" width="677" height="545" font-family="DejaVu Sans, Liberation Sans, Arial, sans-serif" fill="black"><rect width="100%" height="100%" fill="white" /><defs><clipPath id="kuva-clip-2"><rect x="59" y="44" width="600" height="450"/></clipPath></defs><line x1="184" y1="44" x2="184" y2="494" stroke="#cccccc" stroke-width="1" /><line x1="309" y1="44" x2="309" y2="494" stroke="#cccccc" stroke-width="1" /><line x1="434" y1="44" x2="434" y2="494" stroke="#cccccc" stroke-width="1" /><line x1="559" y1="44" x2="559" y2="494" stroke="#cccccc" stroke-width="1" /><line x1="59" y1="381.5" x2="659" y2="381.5" stroke="#cccccc" stroke-width="1" /><line x1="59" y1="269" x2="659" y2="269" stroke="#cccccc" stroke-width="1" /><line x1="59" y1="156.5" x2="659" y2="156.5" stroke="#cccccc" stroke-width="1" /><line x1="59" y1="44" x2="659" y2="44" stroke="#cccccc" stroke-width="1" /><line x1="59" y1="494" x2="659" y2="494" stroke="#000000" stroke-width="1" /><line x1="59" y1="44" x2="59" y2="494" stroke="#000000" stroke-width="1" /><line x1="59" y1="494" x2="59" y2="499" stroke="#000000" stroke-width="1" /><text x="59" y="511" font-size="12" text-anchor="middle">0</text><line x1="184" y1="494" x2="184" y2="499" stroke="#000000" stroke-width="1" /><text x="184" y="511" font-size="12" text-anchor="middle">2.5</text><line x1="309" y1="494" x2="309" y2="499" stroke="#000000" stroke-width="1" /><text x="309" y="511" font-size="12" text-anchor="middle">5</text><line x1="434" y1="494" x2="434" y2="499" stroke="#000000" stroke-width="1" /><text x="434" y="511" font-size="12" text-anchor="middle">7.5</text><line x1="559" y1="494" x2="559" y2="499" stroke="#000000" stroke-width="1" /><text x="559" y="511" font-size="12" text-anchor="middle">10</text><line x1="54" y1="494" x2="59" y2="494" stroke="#000000" stroke-width="1" /><text x="51" y="498.2" font-size="12" text-anchor="end">0</text><line x1="54" y1="381.5" x2="59" y2="381.5" stroke="#000000" stroke-width="1" /><text x="51" y="385.7" font-size="12" text-anchor="end">5</text><line x1="54" y1="269" x2="59" y2="269" stroke="#000000" stroke-width="1" /><text x="51" y="273.2" font-size="12" text-anchor="end">10</text><line x1="54" y1="156.5" x2="59" y2="156.5" stroke="#000000" stroke-width="1" /><text x="51" y="160.70000000000002" font-size="12" text-anchor="end">15</text><line x1="54" y1="44" x2="59" y2="44" stroke="#000000" stroke-width="1" /><text x="51" y="48.2" font-size="12" text-anchor="end">20</text><text x="359" y="538" font-size="14" text-anchor="middle">X</text><text x="15" y="272.5" font-size="14" text-anchor="middle" transform="rotate(-90,15,272.5)">Y</text><text x="359" y="22" font-size="18" text-anchor="middle">Confidence Band</text><g clip-path="url(#kuva-clip-2)"><path d="M 109.0 415.25 L 159.0 374.75 L 209.0 334.25 L 259.0 293.75 L 309.0 253.25 L 359.0 212.75 L 409.0 172.25 L 459.0 131.75 L 509.0 91.25 L 559.0 50.75 L 559.0 104.75 L 509.0 145.25 L 459.0 185.75 L 409.0 226.25 L 359.0 266.75 L 309.0 307.25 L 259.0 347.75 L 209.0 388.25 L 159.0 428.75 L 109.0 469.25 Z" stroke="none" stroke-width="0" fill="#4682b4" fill-opacity="0.2" /><circle cx="109" cy="442.25" r="5" fill="#4682b4" /><circle cx="159" cy="401.75" r="5" fill="#4682b4" /><circle cx="209" cy="361.25" r="5" fill="#4682b4" /><circle cx="259" cy="320.75" r="5" fill="#4682b4" /><circle cx="309" cy="280.25" r="5" fill="#4682b4" /><circle cx="359" cy="239.75" r="5" fill="#4682b4" /><circle cx="409" cy="199.25" r="5" fill="#4682b4" /><circle cx="459" cy="158.75" r="5" fill="#4682b4" /><circle cx="509" cy="118.25" r="5" fill="#4682b4" /><circle cx="559" cy="77.75" r="5" fill="#4682b4" /></g></svg>