<svg xmlns="http://www.w3.org/2000/svg" width="686.2" height="545" font-family="DejaVu Sans, Liberation Sans, Arial, sans-serif" fill="black"><rect width="100%" height="100%" fill="white" /><line x1="72.2" y1="494" x2="672.2" y2="494" stroke="#000000" stroke-width="1" /><line x1="72.2" y1="44" x2="72.2" y2="494" stroke="#000000" stroke-width="1" /><line x1="197.20000000000002" y1="44" x2="197.20000000000002" y2="494" stroke="#cccccc" stroke-width="1" /><line x1="322.2" y1="44" x2="322.2" y2="494" stroke="#cccccc" stroke-width="1" /><line x1="447.2" y1="44" x2="447.2" y2="494" stroke="#cccccc" stroke-width="1" /><line x1="572.2" y1="44" x2="572.2" y2="494" stroke="#cccccc" stroke-width="1" /><line x1="72.2" y1="381.5" x2="672.2" y2="381.5" stroke="#cccccc" stroke-width="1" /><line x1="72.2" y1="269" x2="672.2" y2="269" stroke="#cccccc" stroke-width="1" /><line x1="72.2" y1="156.5" x2="672.2" y2="156.5" stroke="#cccccc" stroke-width="1" /><line x1="72.2" y1="44" x2="672.2" y2="44" stroke="#cccccc" stroke-width="1" /><line x1="72.2" y1="494" x2="72.2" y2="499" stroke="#000000" stroke-width="1" /><text x="72.2" y="511" font-size="12" text-anchor="middle">0</text><line x1="197.20000000000002" y1="494" x2="197.20000000000002" y2="499" stroke="#000000" stroke-width="1" /><text x="197.20000000000002" y="511" font-size="12" text-anchor="middle">2.5</text><line x1="322.2" y1="494" x2="322.2" y2="499" stroke="#000000" stroke-width="1" /><text x="322.2" y="511" font-size="12" text-anchor="middle">5</text><line x1="447.2" y1="494" x2="447.2" y2="499" stroke="#000000" stroke-width="1" /><text x="447.2" y="511" font-size="12" text-anchor="middle">7.5</text><line x1="572.2" y1="494" x2="572.2" y2="499" stroke="#000000" stroke-width="1" /><text x="572.2" y="511" font-size="12" text-anchor="middle">10</text><line x1="67.2" y1="494" x2="72.2" y2="494" stroke="#000000" stroke-width="1" /><text x="64.2" y="498.2" font-size="12" text-anchor="end">0</text><line x1="67.2" y1="381.5" x2="72.2" y2="381.5" stroke="#000000" stroke-width="1" /><text x="64.2" y="385.7" font-size="12" text-anchor="end">5</text><line x1="67.2" y1="269" x2="72.2" y2="269" stroke="#000000" stroke-width="1" /><text x="64.2" y="273.2" font-size="12" text-anchor="end">10</text><line x1="67.2" y1="156.5" x2="72.2" y2="156.5" stroke="#000000" stroke-width="1" /><text x="64.2" y="160.70000000000002" font-size="12" text-anchor="end">15</text><line x1="67.2" y1="44" x2="72.2" y2="44" stroke="#000000" stroke-width="1" /><text x="64.2" y="48.2" font-size="12" text-anchor="end">20</text><text x="372.2" y="538" font-size="14" text-anchor="middle">X</text><text x="7" y="272.5" font-size="14" text-anchor="middle" transform="rotate(-90,7,272.5)">Y</text><text x="372.2" y="22" font-size="18" text-anchor="middle">Confidence Band</text><path d="M 122.2 415.25 L 172.20000000000002 374.75 L 222.20000000000002 334.25 L 272.2 293.75 L 322.2 253.25 L 372.2 212.75 L 422.2 172.25 L 472.2 131.75 L 522.2 91.25 L 572.2 50.75 L 572.2 104.75 L 522.2 145.25 L 472.2 185.75 L 422.2 226.25 L 372.2 266.75 L 322.2 307.25 L 272.2 347.75 L 222.20000000000002 388.25 L 172.20000000000002 428.75 L 122.2 469.25 Z" stroke="none" stroke-width="0" fill="#4682b4" fill-opacity="0.2" /><circle cx="122.2" cy="442.25" r="5" fill="#4682b4" /><circle cx="172.20000000000002" cy="401.75" r="5" fill="#4682b4" /><circle cx="222.20000000000002" cy="361.25" r="5" fill="#4682b4" /><circle cx="272.2" cy="320.75" r="5" fill="#4682b4" /><circle cx="322.2" cy="280.25" r="5" fill="#4682b4" /><circle cx="372.2" cy="239.75" r="5" fill="#4682b4" /><circle cx="422.2" cy="199.25" r="5" fill="#4682b4" /><circle cx="472.2" cy="158.75" r="5" fill="#4682b4" /><circle cx="522.2" cy="118.25" r="5" fill="#4682b4" /><circle cx="572.2" cy="77.75" r="5" fill="#4682b4" /></svg>