<svg xmlns="http://www.w3.org/2000/svg" width="686.2" height="545" font-family="DejaVu Sans, Liberation Sans, Arial, sans-serif" fill="black"><rect width="100%" height="100%" fill="white" /><line x1="72.2" y1="494" x2="672.2" y2="494" stroke="#000000" stroke-width="1" /><line x1="72.2" y1="44" x2="72.2" y2="494" stroke="#000000" stroke-width="1" /><line x1="172.20000000000002" y1="44" x2="172.20000000000002" y2="494" stroke="#cccccc" stroke-width="1" /><line x1="272.2" y1="44" x2="272.2" y2="494" stroke="#cccccc" stroke-width="1" /><line x1="372.2" y1="44" x2="372.2" y2="494" stroke="#cccccc" stroke-width="1" /><line x1="472.2" y1="44" x2="472.2" y2="494" stroke="#cccccc" stroke-width="1" /><line x1="572.2" y1="44" x2="572.2" y2="494" stroke="#cccccc" stroke-width="1" /><line x1="672.2" y1="44" x2="672.2" y2="494" stroke="#cccccc" stroke-width="1" /><line x1="72.2" y1="400.25" x2="672.2" y2="400.25" stroke="#cccccc" stroke-width="1" /><line x1="72.2" y1="306.5" x2="672.2" y2="306.5" stroke="#cccccc" stroke-width="1" /><line x1="72.2" y1="212.75" x2="672.2" y2="212.75" stroke="#cccccc" stroke-width="1" /><line x1="72.2" y1="119" x2="672.2" y2="119" stroke="#cccccc" stroke-width="1" /><line x1="72.2" y1="494" x2="72.2" y2="499" stroke="#000000" stroke-width="1" /><text x="72.2" y="511" font-size="12" text-anchor="middle">0</text><line x1="172.20000000000002" y1="494" x2="172.20000000000002" y2="499" stroke="#000000" stroke-width="1" /><text x="172.20000000000002" y="511" font-size="12" text-anchor="middle">1</text><line x1="272.2" y1="494" x2="272.2" y2="499" stroke="#000000" stroke-width="1" /><text x="272.2" y="511" font-size="12" text-anchor="middle">2</text><line x1="372.2" y1="494" x2="372.2" y2="499" stroke="#000000" stroke-width="1" /><text x="372.2" y="511" font-size="12" text-anchor="middle">3</text><line x1="472.2" y1="494" x2="472.2" y2="499" stroke="#000000" stroke-width="1" /><text x="472.2" y="511" font-size="12" text-anchor="middle">4</text><line x1="572.2" y1="494" x2="572.2" y2="499" stroke="#000000" stroke-width="1" /><text x="572.2" y="511" font-size="12" text-anchor="middle">5</text><line x1="672.2" y1="494" x2="672.2" y2="499" stroke="#000000" stroke-width="1" /><text x="672.2" y="511" font-size="12" text-anchor="middle">6</text><line x1="67.2" y1="494" x2="72.2" y2="494" stroke="#000000" stroke-width="1" /><text x="64.2" y="498.2" font-size="12" text-anchor="end">0</text><line x1="67.2" y1="400.25" x2="72.2" y2="400.25" stroke="#000000" stroke-width="1" /><text x="64.2" y="404.45" font-size="12" text-anchor="end">2.5</text><line x1="67.2" y1="306.5" x2="72.2" y2="306.5" stroke="#000000" stroke-width="1" /><text x="64.2" y="310.7" font-size="12" text-anchor="end">5</text><line x1="67.2" y1="212.75" x2="72.2" y2="212.75" stroke="#000000" stroke-width="1" /><text x="64.2" y="216.95000000000002" font-size="12" text-anchor="end">7.5</text><line x1="67.2" y1="119" x2="72.2" y2="119" stroke="#000000" stroke-width="1" /><text x="64.2" y="123.2" font-size="12" text-anchor="end">10</text><text x="372.2" y="538" font-size="14" text-anchor="middle">X</text><text x="7" y="272.5" font-size="14" text-anchor="middle" transform="rotate(-90,7,272.5)">Y</text><text x="372.2" y="22" font-size="18" text-anchor="middle">Error Bars</text><circle cx="172.20000000000002" cy="419" r="5" fill="#4682b4" /><line x1="152.20000000000002" y1="419" x2="192.20000000000002" y2="419" stroke="#4682b4" stroke-width="1" /><line x1="152.20000000000002" y1="414" x2="152.20000000000002" y2="424" stroke="#4682b4" stroke-width="1" /><line x1="192.20000000000002" y1="414" x2="192.20000000000002" y2="424" stroke="#4682b4" stroke-width="1" /><line x1="172.20000000000002" y1="441.5" x2="172.20000000000002" y2="396.5" stroke="#4682b4" stroke-width="1" /><line x1="167.20000000000002" y1="441.5" x2="177.20000000000002" y2="441.5" stroke="#4682b4" stroke-width="1" /><line x1="167.20000000000002" y1="396.5" x2="177.20000000000002" y2="396.5" stroke="#4682b4" stroke-width="1" /><circle cx="272.2" cy="325.25" r="5" fill="#4682b4" /><line x1="257.2" y1="325.25" x2="287.2" y2="325.25" stroke="#4682b4" stroke-width="1" /><line x1="257.2" y1="320.25" x2="257.2" y2="330.25" stroke="#4682b4" stroke-width="1" /><line x1="287.2" y1="320.25" x2="287.2" y2="330.25" stroke="#4682b4" stroke-width="1" /><line x1="272.2" y1="355.25" x2="272.2" y2="295.25" stroke="#4682b4" stroke-width="1" /><line x1="267.2" y1="355.25" x2="277.2" y2="355.25" stroke="#4682b4" stroke-width="1" /><line x1="267.2" y1="295.25" x2="277.2" y2="295.25" stroke="#4682b4" stroke-width="1" /><circle cx="372.2" cy="276.5" r="5" fill="#4682b4" /><line x1="342.2" y1="276.5" x2="402.2" y2="276.5" stroke="#4682b4" stroke-width="1" /><line x1="342.2" y1="271.5" x2="342.2" y2="281.5" stroke="#4682b4" stroke-width="1" /><line x1="402.2" y1="271.5" x2="402.2" y2="281.5" stroke="#4682b4" stroke-width="1" /><line x1="372.2" y1="291.5" x2="372.2" y2="261.5" stroke="#4682b4" stroke-width="1" /><line x1="367.2" y1="291.5" x2="377.2" y2="291.5" stroke="#4682b4" stroke-width="1" /><line x1="367.2" y1="261.5" x2="377.2" y2="261.5" stroke="#4682b4" stroke-width="1" /><circle cx="472.2" cy="186.5" r="5" fill="#4682b4" /><line x1="462.2" y1="186.5" x2="482.2" y2="186.5" stroke="#4682b4" stroke-width="1" /><line x1="462.2" y1="181.5" x2="462.2" y2="191.5" stroke="#4682b4" stroke-width="1" /><line x1="482.2" y1="181.5" x2="482.2" y2="191.5" stroke="#4682b4" stroke-width="1" /><line x1="472.2" y1="220.25" x2="472.2" y2="152.75" stroke="#4682b4" stroke-width="1" /><line x1="467.2" y1="220.25" x2="477.2" y2="220.25" stroke="#4682b4" stroke-width="1" /><line x1="467.2" y1="152.75" x2="477.2" y2="152.75" stroke="#4682b4" stroke-width="1" /><circle cx="572.2" cy="115.25" r="5" fill="#4682b4" /><line x1="547.2" y1="115.25" x2="597.2" y2="115.25" stroke="#4682b4" stroke-width="1" /><line x1="547.2" y1="110.25" x2="547.2" y2="120.25" stroke="#4682b4" stroke-width="1" /><line x1="597.2" y1="110.25" x2="597.2" y2="120.25" stroke="#4682b4" stroke-width="1" /><line x1="572.2" y1="134" x2="572.2" y2="96.5" stroke="#4682b4" stroke-width="1" /><line x1="567.2" y1="134" x2="577.2" y2="134" stroke="#4682b4" stroke-width="1" /><line x1="567.2" y1="96.5" x2="577.2" y2="96.5" stroke="#4682b4" stroke-width="1" /></svg>