<svg xmlns="http://www.w3.org/2000/svg" width="677" height="545" font-family="DejaVu Sans, Liberation Sans, Arial, sans-serif" fill="black"><rect width="100%" height="100%" fill="white" /><defs><clipPath id="kuva-clip-3"><rect x="59" y="44" width="600" height="450"/></clipPath></defs><line x1="159" y1="44" x2="159" y2="494" stroke="#cccccc" stroke-width="1" /><line x1="259" y1="44" x2="259" y2="494" stroke="#cccccc" stroke-width="1" /><line x1="359" y1="44" x2="359" y2="494" stroke="#cccccc" stroke-width="1" /><line x1="459" y1="44" x2="459" y2="494" stroke="#cccccc" stroke-width="1" /><line x1="559" y1="44" x2="559" y2="494" stroke="#cccccc" stroke-width="1" /><line x1="659" y1="44" x2="659" y2="494" stroke="#cccccc" stroke-width="1" /><line x1="59" y1="400.25" x2="659" y2="400.25" stroke="#cccccc" stroke-width="1" /><line x1="59" y1="306.5" x2="659" y2="306.5" stroke="#cccccc" stroke-width="1" /><line x1="59" y1="212.75" x2="659" y2="212.75" stroke="#cccccc" stroke-width="1" /><line x1="59" y1="119" x2="659" y2="119" stroke="#cccccc" stroke-width="1" /><line x1="59" y1="494" x2="659" y2="494" stroke="#000000" stroke-width="1" /><line x1="59" y1="44" x2="59" y2="494" stroke="#000000" stroke-width="1" /><line x1="59" y1="494" x2="59" y2="499" stroke="#000000" stroke-width="1" /><text x="59" y="511" font-size="12" text-anchor="middle">0</text><line x1="159" y1="494" x2="159" y2="499" stroke="#000000" stroke-width="1" /><text x="159" y="511" font-size="12" text-anchor="middle">1</text><line x1="259" y1="494" x2="259" y2="499" stroke="#000000" stroke-width="1" /><text x="259" y="511" font-size="12" text-anchor="middle">2</text><line x1="359" y1="494" x2="359" y2="499" stroke="#000000" stroke-width="1" /><text x="359" y="511" font-size="12" text-anchor="middle">3</text><line x1="459" y1="494" x2="459" y2="499" stroke="#000000" stroke-width="1" /><text x="459" y="511" font-size="12" text-anchor="middle">4</text><line x1="559" y1="494" x2="559" y2="499" stroke="#000000" stroke-width="1" /><text x="559" y="511" font-size="12" text-anchor="middle">5</text><line x1="659" y1="494" x2="659" y2="499" stroke="#000000" stroke-width="1" /><text x="659" y="511" font-size="12" text-anchor="middle">6</text><line x1="54" y1="494" x2="59" y2="494" stroke="#000000" stroke-width="1" /><text x="51" y="498.2" font-size="12" text-anchor="end">0</text><line x1="54" y1="400.25" x2="59" y2="400.25" stroke="#000000" stroke-width="1" /><text x="51" y="404.45" font-size="12" text-anchor="end">2.5</text><line x1="54" y1="306.5" x2="59" y2="306.5" stroke="#000000" stroke-width="1" /><text x="51" y="310.7" font-size="12" text-anchor="end">5</text><line x1="54" y1="212.75" x2="59" y2="212.75" stroke="#000000" stroke-width="1" /><text x="51" y="216.95000000000002" font-size="12" text-anchor="end">7.5</text><line x1="54" y1="119" x2="59" y2="119" stroke="#000000" stroke-width="1" /><text x="51" y="123.2" font-size="12" text-anchor="end">10</text><text x="359" y="538" font-size="14" text-anchor="middle">X</text><text x="15" y="272.5" font-size="14" text-anchor="middle" transform="rotate(-90,15,272.5)">Y</text><text x="338.5" y="27.400000000000002" font-size="18" text-anchor="middle">Error Bars</text><g clip-path="url(#kuva-clip-3)"><circle cx="159" cy="419" r="5" fill="#4682b4" /><line x1="139" y1="419" x2="179" y2="419" stroke="#4682b4" stroke-width="1" /><line x1="139" y1="414" x2="139" y2="424" stroke="#4682b4" stroke-width="1" /><line x1="179" y1="414" x2="179" y2="424" stroke="#4682b4" stroke-width="1" /><line x1="159" y1="441.5" x2="159" y2="396.5" stroke="#4682b4" stroke-width="1" /><line x1="154" y1="441.5" x2="164" y2="441.5" stroke="#4682b4" stroke-width="1" /><line x1="154" y1="396.5" x2="164" y2="396.5" stroke="#4682b4" stroke-width="1" /><circle cx="259" cy="325.25" r="5" fill="#4682b4" /><line x1="244" y1="325.25" x2="274" y2="325.25" stroke="#4682b4" stroke-width="1" /><line x1="244" y1="320.25" x2="244" y2="330.25" stroke="#4682b4" stroke-width="1" /><line x1="274" y1="320.25" x2="274" y2="330.25" stroke="#4682b4" stroke-width="1" /><line x1="259" y1="355.25" x2="259" y2="295.25" stroke="#4682b4" stroke-width="1" /><line x1="254" y1="355.25" x2="264" y2="355.25" stroke="#4682b4" stroke-width="1" /><line x1="254" y1="295.25" x2="264" y2="295.25" stroke="#4682b4" stroke-width="1" /><circle cx="359" cy="276.5" r="5" fill="#4682b4" /><line x1="329" y1="276.5" x2="389" y2="276.5" stroke="#4682b4" stroke-width="1" /><line x1="329" y1="271.5" x2="329" y2="281.5" stroke="#4682b4" stroke-width="1" /><line x1="389" y1="271.5" x2="389" y2="281.5" stroke="#4682b4" stroke-width="1" /><line x1="359" y1="291.5" x2="359" y2="261.5" stroke="#4682b4" stroke-width="1" /><line x1="354" y1="291.5" x2="364" y2="291.5" stroke="#4682b4" stroke-width="1" /><line x1="354" y1="261.5" x2="364" y2="261.5" stroke="#4682b4" stroke-width="1" /><circle cx="459" cy="186.5" r="5" fill="#4682b4" /><line x1="449" y1="186.5" x2="469" y2="186.5" stroke="#4682b4" stroke-width="1" /><line x1="449" y1="181.5" x2="449" y2="191.5" stroke="#4682b4" stroke-width="1" /><line x1="469" y1="181.5" x2="469" y2="191.5" stroke="#4682b4" stroke-width="1" /><line x1="459" y1="220.25" x2="459" y2="152.75" stroke="#4682b4" stroke-width="1" /><line x1="454" y1="220.25" x2="464" y2="220.25" stroke="#4682b4" stroke-width="1" /><line x1="454" y1="152.75" x2="464" y2="152.75" stroke="#4682b4" stroke-width="1" /><circle cx="559" cy="115.25" r="5" fill="#4682b4" /><line x1="534" y1="115.25" x2="584" y2="115.25" stroke="#4682b4" stroke-width="1" /><line x1="534" y1="110.25" x2="534" y2="120.25" stroke="#4682b4" stroke-width="1" /><line x1="584" y1="110.25" x2="584" y2="120.25" stroke="#4682b4" stroke-width="1" /><line x1="559" y1="134" x2="559" y2="96.5" stroke="#4682b4" stroke-width="1" /><line x1="554" y1="134" x2="564" y2="134" stroke="#4682b4" stroke-width="1" /><line x1="554" y1="96.5" x2="564" y2="96.5" stroke="#4682b4" stroke-width="1" /></g></svg>