<svg xmlns="http://www.w3.org/2000/svg" width="789.2" height="545" font-family="DejaVu Sans, Liberation Sans, Arial, sans-serif" fill="black"><rect width="100%" height="100%" fill="white" /><line x1="72.2" y1="494" x2="672.2" y2="494" stroke="#000000" stroke-width="1" /><line x1="72.2" y1="44" x2="72.2" y2="494" stroke="#000000" stroke-width="1" /><line x1="157.91" y1="44" x2="157.91" y2="494" stroke="#cccccc" stroke-width="1" /><line x1="243.63" y1="44" x2="243.63" y2="494" stroke="#cccccc" stroke-width="1" /><line x1="329.34000000000003" y1="44" x2="329.34000000000003" y2="494" stroke="#cccccc" stroke-width="1" /><line x1="415.06" y1="44" x2="415.06" y2="494" stroke="#cccccc" stroke-width="1" /><line x1="500.77000000000004" y1="44" x2="500.77000000000004" y2="494" stroke="#cccccc" stroke-width="1" /><line x1="586.49" y1="44" x2="586.49" y2="494" stroke="#cccccc" stroke-width="1" /><line x1="672.2" y1="44" x2="672.2" y2="494" stroke="#cccccc" stroke-width="1" /><line x1="72.2" y1="429.71000000000004" x2="672.2" y2="429.71000000000004" stroke="#cccccc" stroke-width="1" /><line x1="72.2" y1="365.43" x2="672.2" y2="365.43" stroke="#cccccc" stroke-width="1" /><line x1="72.2" y1="301.14" x2="672.2" y2="301.14" stroke="#cccccc" stroke-width="1" /><line x1="72.2" y1="236.86" x2="672.2" y2="236.86" stroke="#cccccc" stroke-width="1" /><line x1="72.2" y1="172.57" x2="672.2" y2="172.57" stroke="#cccccc" stroke-width="1" /><line x1="72.2" y1="108.29" x2="672.2" y2="108.29" stroke="#cccccc" stroke-width="1" /><line x1="72.2" y1="44" x2="672.2" y2="44" stroke="#cccccc" stroke-width="1" /><line x1="72.2" y1="494" x2="72.2" y2="499" stroke="#000000" stroke-width="1" /><text x="72.2" y="511" font-size="12" text-anchor="middle">0</text><line x1="157.91" y1="494" x2="157.91" y2="499" stroke="#000000" stroke-width="1" /><text x="157.91" y="511" font-size="12" text-anchor="middle">0.5</text><line x1="243.63" y1="494" x2="243.63" y2="499" stroke="#000000" stroke-width="1" /><text x="243.63" y="511" font-size="12" text-anchor="middle">1</text><line x1="329.34000000000003" y1="494" x2="329.34000000000003" y2="499" stroke="#000000" stroke-width="1" /><text x="329.34000000000003" y="511" font-size="12" text-anchor="middle">1.5</text><line x1="415.06" y1="494" x2="415.06" y2="499" stroke="#000000" stroke-width="1" /><text x="415.06" y="511" font-size="12" text-anchor="middle">2</text><line x1="500.77000000000004" y1="494" x2="500.77000000000004" y2="499" stroke="#000000" stroke-width="1" /><text x="500.77000000000004" y="511" font-size="12" text-anchor="middle">2.5</text><line x1="586.49" y1="494" x2="586.49" y2="499" stroke="#000000" stroke-width="1" /><text x="586.49" y="511" font-size="12" text-anchor="middle">3</text><line x1="672.2" y1="494" x2="672.2" y2="499" stroke="#000000" stroke-width="1" /><text x="672.2" y="511" font-size="12" text-anchor="middle">3.5</text><line x1="67.2" y1="494" x2="72.2" y2="494" stroke="#000000" stroke-width="1" /><text x="64.2" y="498.2" font-size="12" text-anchor="end">0</text><line x1="67.2" y1="429.71000000000004" x2="72.2" y2="429.71000000000004" stroke="#000000" stroke-width="1" /><text x="64.2" y="433.91" font-size="12" text-anchor="end">1</text><line x1="67.2" y1="365.43" x2="72.2" y2="365.43" stroke="#000000" stroke-width="1" /><text x="64.2" y="369.63" font-size="12" text-anchor="end">2</text><line x1="67.2" y1="301.14" x2="72.2" y2="301.14" stroke="#000000" stroke-width="1" /><text x="64.2" y="305.34000000000003" font-size="12" text-anchor="end">3</text><line x1="67.2" y1="236.86" x2="72.2" y2="236.86" stroke="#000000" stroke-width="1" /><text x="64.2" y="241.06" font-size="12" text-anchor="end">4</text><line x1="67.2" y1="172.57" x2="72.2" y2="172.57" stroke="#000000" stroke-width="1" /><text x="64.2" y="176.77" font-size="12" text-anchor="end">5</text><line x1="67.2" y1="108.29" x2="72.2" y2="108.29" stroke="#000000" stroke-width="1" /><text x="64.2" y="112.49000000000001" font-size="12" text-anchor="end">6</text><line x1="67.2" y1="44" x2="72.2" y2="44" stroke="#000000" stroke-width="1" /><text x="64.2" y="48.2" font-size="12" text-anchor="end">7</text><text x="372.2" y="538" font-size="14" text-anchor="middle">X</text><text x="7" y="272.5" font-size="14" text-anchor="middle" transform="rotate(-90,7,272.5)"></text><text x="372.2" y="22" font-size="18" text-anchor="middle">Marker Shapes</text><circle cx="243.63" cy="429.71000000000004" r="7" fill="#4682b4" /><circle cx="415.06" cy="429.71000000000004" r="7" fill="#4682b4" /><circle cx="586.49" cy="429.71000000000004" r="7" fill="#4682b4" /><rect x="236.63" y="358.43" width="14" height="14" fill="#dc143c" /><rect x="408.06" y="358.43" width="14" height="14" fill="#dc143c" /><rect x="579.49" y="358.43" width="14" height="14" fill="#dc143c" /><path d="M243.63,294.0 L236.63,305.90000000000003 L250.63,305.90000000000003 Z" stroke="seagreen" stroke-width="0.5" fill="seagreen" /><path d="M415.06,294.0 L408.06,305.90000000000003 L422.06,305.90000000000003 Z" stroke="seagreen" stroke-width="0.5" fill="seagreen" /><path d="M586.49,294.0 L579.49,305.90000000000003 L593.49,305.90000000000003 Z" stroke="seagreen" stroke-width="0.5" fill="seagreen" /><path d="M243.63,227.76 L252.73000000000002,236.86 L243.63,245.96 L234.53,236.86 Z" stroke="#ff8c00" stroke-width="0.5" fill="#ff8c00" /><path d="M415.06,227.76 L424.16,236.86 L415.06,245.96 L405.96000000000004,236.86 Z" stroke="#ff8c00" stroke-width="0.5" fill="#ff8c00" /><path d="M586.49,227.76 L595.59,236.86 L586.49,245.96 L577.39,236.86 Z" stroke="#ff8c00" stroke-width="0.5" fill="#ff8c00" /><line x1="237.33" y1="166.27" x2="249.93" y2="178.87" stroke="#800080" stroke-width="1.5" /><line x1="237.33" y1="178.87" x2="249.93" y2="166.27" stroke="#800080" stroke-width="1.5" /><line x1="408.76" y1="166.27" x2="421.36" y2="178.87" stroke="#800080" stroke-width="1.5" /><line x1="408.76" y1="178.87" x2="421.36" y2="166.27" stroke="#800080" stroke-width="1.5" /><line x1="580.19" y1="166.27" x2="592.79" y2="178.87" stroke="#800080" stroke-width="1.5" /><line x1="580.19" y1="178.87" x2="592.79" y2="166.27" stroke="#800080" stroke-width="1.5" /><line x1="237.33" y1="108.29" x2="249.93" y2="108.29" stroke="saddlebrown" stroke-width="1.5" /><line x1="243.63" y1="101.99000000000001" x2="243.63" y2="114.59" stroke="saddlebrown" stroke-width="1.5" /><line x1="408.76" y1="108.29" x2="421.36" y2="108.29" stroke="saddlebrown" stroke-width="1.5" /><line x1="415.06" y1="101.99000000000001" x2="415.06" y2="114.59" stroke="saddlebrown" stroke-width="1.5" /><line x1="580.19" y1="108.29" x2="592.79" y2="108.29" stroke="saddlebrown" stroke-width="1.5" /><line x1="586.49" y1="101.99000000000001" x2="586.49" y2="114.59" stroke="saddlebrown" stroke-width="1.5" /><rect x="677.2" y="34" width="103" height="128" fill="#ffffff" /><rect x="677.2" y="34" width="103" height="128" fill="none" stroke="#000000" stroke-width="1" /><text x="707.2" y="53.2" font-size="12" text-anchor="start">Circle</text><circle cx="693.2" cy="49" r="5" fill="#4682b4" /><text x="707.2" y="71.2" font-size="12" text-anchor="start">Square</text><rect x="688.2" y="62" width="10" height="10" fill="#dc143c" /><text x="707.2" y="89.2" font-size="12" text-anchor="start">Triangle</text><path d="M693.2,79.9 L688.2,88.4 L698.2,88.4 Z" stroke="seagreen" stroke-width="0.5" fill="seagreen" /><text x="707.2" y="107.2" font-size="12" text-anchor="start">Diamond</text><path d="M693.2,96.5 L699.7,103.0 L693.2,109.5 L686.7,103.0 Z" stroke="#ff8c00" stroke-width="0.5" fill="#ff8c00" /><text x="707.2" y="125.2" font-size="12" text-anchor="start">Cross</text><line x1="688.7" y1="116.5" x2="697.7" y2="125.5" stroke="#800080" stroke-width="1.5" /><line x1="688.7" y1="125.5" x2="697.7" y2="116.5" stroke="#800080" stroke-width="1.5" /><text x="707.2" y="143.20000000000002" font-size="12" text-anchor="start">Plus</text><line x1="688.7" y1="139" x2="697.7" y2="139" stroke="saddlebrown" stroke-width="1.5" /><line x1="693.2" y1="134.5" x2="693.2" y2="143.5" stroke="saddlebrown" stroke-width="1.5" /></svg>