<svg xmlns="http://www.w3.org/2000/svg" width="776.4" height="545" font-family="DejaVu Sans, Liberation Sans, Arial, sans-serif" fill="black"><rect width="100%" height="100%" fill="white" /><defs><clipPath id="kuva-clip-4"><rect x="59" y="44" width="600" height="450"/></clipPath></defs><line x1="144.71" y1="44" x2="144.71" y2="494" stroke="#cccccc" stroke-width="1" /><line x1="230.43" y1="44" x2="230.43" y2="494" stroke="#cccccc" stroke-width="1" /><line x1="316.14" y1="44" x2="316.14" y2="494" stroke="#cccccc" stroke-width="1" /><line x1="401.86" y1="44" x2="401.86" y2="494" stroke="#cccccc" stroke-width="1" /><line x1="487.57" y1="44" x2="487.57" y2="494" stroke="#cccccc" stroke-width="1" /><line x1="573.29" y1="44" x2="573.29" y2="494" stroke="#cccccc" stroke-width="1" /><line x1="659" y1="44" x2="659" y2="494" stroke="#cccccc" stroke-width="1" /><line x1="59" y1="429.71000000000004" x2="659" y2="429.71000000000004" stroke="#cccccc" stroke-width="1" /><line x1="59" y1="365.43" x2="659" y2="365.43" stroke="#cccccc" stroke-width="1" /><line x1="59" y1="301.14" x2="659" y2="301.14" stroke="#cccccc" stroke-width="1" /><line x1="59" y1="236.86" x2="659" y2="236.86" stroke="#cccccc" stroke-width="1" /><line x1="59" y1="172.57" x2="659" y2="172.57" stroke="#cccccc" stroke-width="1" /><line x1="59" y1="108.29" x2="659" y2="108.29" stroke="#cccccc" stroke-width="1" /><line x1="59" y1="44" x2="659" y2="44" stroke="#cccccc" stroke-width="1" /><line x1="59" y1="494" x2="659" y2="494" stroke="#000000" stroke-width="1" /><line x1="59" y1="44" x2="59" y2="494" stroke="#000000" stroke-width="1" /><line x1="59" y1="494" x2="59" y2="499" stroke="#000000" stroke-width="1" /><text x="59" y="511" font-size="12" text-anchor="middle">0</text><line x1="144.71" y1="494" x2="144.71" y2="499" stroke="#000000" stroke-width="1" /><text x="144.71" y="511" font-size="12" text-anchor="middle">0.5</text><line x1="230.43" y1="494" x2="230.43" y2="499" stroke="#000000" stroke-width="1" /><text x="230.43" y="511" font-size="12" text-anchor="middle">1</text><line x1="316.14" y1="494" x2="316.14" y2="499" stroke="#000000" stroke-width="1" /><text x="316.14" y="511" font-size="12" text-anchor="middle">1.5</text><line x1="401.86" y1="494" x2="401.86" y2="499" stroke="#000000" stroke-width="1" /><text x="401.86" y="511" font-size="12" text-anchor="middle">2</text><line x1="487.57" y1="494" x2="487.57" y2="499" stroke="#000000" stroke-width="1" /><text x="487.57" y="511" font-size="12" text-anchor="middle">2.5</text><line x1="573.29" y1="494" x2="573.29" y2="499" stroke="#000000" stroke-width="1" /><text x="573.29" y="511" font-size="12" text-anchor="middle">3</text><line x1="659" y1="494" x2="659" y2="499" stroke="#000000" stroke-width="1" /><text x="659" y="511" font-size="12" text-anchor="middle">3.5</text><line x1="54" y1="494" x2="59" y2="494" stroke="#000000" stroke-width="1" /><text x="51" y="498.2" font-size="12" text-anchor="end">0</text><line x1="54" y1="429.71000000000004" x2="59" y2="429.71000000000004" stroke="#000000" stroke-width="1" /><text x="51" y="433.91" font-size="12" text-anchor="end">1</text><line x1="54" y1="365.43" x2="59" y2="365.43" stroke="#000000" stroke-width="1" /><text x="51" y="369.63" font-size="12" text-anchor="end">2</text><line x1="54" y1="301.14" x2="59" y2="301.14" stroke="#000000" stroke-width="1" /><text x="51" y="305.34000000000003" font-size="12" text-anchor="end">3</text><line x1="54" y1="236.86" x2="59" y2="236.86" stroke="#000000" stroke-width="1" /><text x="51" y="241.06" font-size="12" text-anchor="end">4</text><line x1="54" y1="172.57" x2="59" y2="172.57" stroke="#000000" stroke-width="1" /><text x="51" y="176.77" font-size="12" text-anchor="end">5</text><line x1="54" y1="108.29" x2="59" y2="108.29" stroke="#000000" stroke-width="1" /><text x="51" y="112.49000000000001" font-size="12" text-anchor="end">6</text><line x1="54" y1="44" x2="59" y2="44" stroke="#000000" stroke-width="1" /><text x="51" y="48.2" font-size="12" text-anchor="end">7</text><text x="359" y="538" font-size="14" text-anchor="middle">X</text><text x="15" y="272.5" font-size="14" text-anchor="middle" transform="rotate(-90,15,272.5)"></text><text x="359" y="22" font-size="18" text-anchor="middle">Marker Shapes</text><g clip-path="url(#kuva-clip-4)"><circle cx="230.43" cy="429.71000000000004" r="7" fill="#4682b4" /><circle cx="401.86" cy="429.71000000000004" r="7" fill="#4682b4" /><circle cx="573.29" cy="429.71000000000004" r="7" fill="#4682b4" /><rect x="223.43" y="358.43" width="14" height="14" fill="#dc143c" /><rect x="394.86" y="358.43" width="14" height="14" fill="#dc143c" /><rect x="566.29" y="358.43" width="14" height="14" fill="#dc143c" /><path d="M230.43,294.0 L223.43,305.90000000000003 L237.43,305.90000000000003 Z" stroke="seagreen" stroke-width="0.5" fill="seagreen" /><path d="M401.86,294.0 L394.86,305.90000000000003 L408.86,305.90000000000003 Z" stroke="seagreen" stroke-width="0.5" fill="seagreen" /><path d="M573.29,294.0 L566.29,305.90000000000003 L580.29,305.90000000000003 Z" stroke="seagreen" stroke-width="0.5" fill="seagreen" /><path d="M230.43,227.76 L239.53,236.86 L230.43,245.96 L221.33,236.86 Z" stroke="#ff8c00" stroke-width="0.5" fill="#ff8c00" /><path d="M401.86,227.76 L410.96000000000004,236.86 L401.86,245.96 L392.76,236.86 Z" stroke="#ff8c00" stroke-width="0.5" fill="#ff8c00" /><path d="M573.29,227.76 L582.39,236.86 L573.29,245.96 L564.19,236.86 Z" stroke="#ff8c00" stroke-width="0.5" fill="#ff8c00" /><line x1="224.13" y1="166.27" x2="236.73000000000002" y2="178.87" stroke="#800080" stroke-width="1.5" /><line x1="224.13" y1="178.87" x2="236.73000000000002" y2="166.27" stroke="#800080" stroke-width="1.5" /><line x1="395.56" y1="166.27" x2="408.16" y2="178.87" stroke="#800080" stroke-width="1.5" /><line x1="395.56" y1="178.87" x2="408.16" y2="166.27" stroke="#800080" stroke-width="1.5" /><line x1="566.99" y1="166.27" x2="579.59" y2="178.87" stroke="#800080" stroke-width="1.5" /><line x1="566.99" y1="178.87" x2="579.59" y2="166.27" stroke="#800080" stroke-width="1.5" /><line x1="224.13" y1="108.29" x2="236.73000000000002" y2="108.29" stroke="saddlebrown" stroke-width="1.5" /><line x1="230.43" y1="101.99000000000001" x2="230.43" y2="114.59" stroke="saddlebrown" stroke-width="1.5" /><line x1="395.56" y1="108.29" x2="408.16" y2="108.29" stroke="saddlebrown" stroke-width="1.5" /><line x1="401.86" y1="101.99000000000001" x2="401.86" y2="114.59" stroke="saddlebrown" stroke-width="1.5" /><line x1="566.99" y1="108.29" x2="579.59" y2="108.29" stroke="saddlebrown" stroke-width="1.5" /><line x1="573.29" y1="101.99000000000001" x2="573.29" y2="114.59" stroke="saddlebrown" stroke-width="1.5" /></g><rect x="664" y="34" width="103" height="128" fill="#ffffff" /><rect x="664" y="34" width="103" height="128" fill="none" stroke="#000000" stroke-width="1" /><text x="694" y="53.2" font-size="12" text-anchor="start">Circle</text><circle cx="679" cy="49" r="5" fill="#4682b4" /><text x="694" y="71.2" font-size="12" text-anchor="start">Square</text><rect x="674" y="62" width="10" height="10" fill="#dc143c" /><text x="694" y="89.2" font-size="12" text-anchor="start">Triangle</text><path d="M679.0,79.9 L674.0,88.4 L684.0,88.4 Z" stroke="seagreen" stroke-width="0.5" fill="seagreen" /><text x="694" y="107.2" font-size="12" text-anchor="start">Diamond</text><path d="M679.0,96.5 L685.5,103.0 L679.0,109.5 L672.5,103.0 Z" stroke="#ff8c00" stroke-width="0.5" fill="#ff8c00" /><text x="694" y="125.2" font-size="12" text-anchor="start">Cross</text><line x1="674.5" y1="116.5" x2="683.5" y2="125.5" stroke="#800080" stroke-width="1.5" /><line x1="674.5" y1="125.5" x2="683.5" y2="116.5" stroke="#800080" stroke-width="1.5" /><text x="694" y="143.20000000000002" font-size="12" text-anchor="start">Plus</text><line x1="674.5" y1="139" x2="683.5" y2="139" stroke="saddlebrown" stroke-width="1.5" /><line x1="679" y1="134.5" x2="679" y2="143.5" stroke="saddlebrown" stroke-width="1.5" /></svg>