<svg xmlns="http://www.w3.org/2000/svg" width="673.4" height="545" font-family="DejaVu Sans, Liberation Sans, Arial, sans-serif" fill="black"><rect width="100%" height="100%" fill="white" /><defs><clipPath id="kuva-clip-6"><rect x="59" y="44" width="600" height="450"/></clipPath></defs><line x1="179" y1="44" x2="179" y2="494" stroke="#cccccc" stroke-width="1" /><line x1="299" y1="44" x2="299" y2="494" stroke="#cccccc" stroke-width="1" /><line x1="419" y1="44" x2="419" y2="494" stroke="#cccccc" stroke-width="1" /><line x1="539" y1="44" x2="539" y2="494" stroke="#cccccc" stroke-width="1" /><line x1="659" y1="44" x2="659" y2="494" stroke="#cccccc" stroke-width="1" /><line x1="59" y1="394" x2="659" y2="394" stroke="#cccccc" stroke-width="1" /><line x1="59" y1="294" x2="659" y2="294" stroke="#cccccc" stroke-width="1" /><line x1="59" y1="194" x2="659" y2="194" stroke="#cccccc" stroke-width="1" /><line x1="59" y1="94" x2="659" y2="94" stroke="#cccccc" stroke-width="1" /><line x1="59" y1="494" x2="659" y2="494" stroke="#000000" stroke-width="1" /><line x1="59" y1="44" x2="59" y2="494" stroke="#000000" stroke-width="1" /><line x1="59" y1="494" x2="59" y2="499" stroke="#000000" stroke-width="1" /><text x="59" y="511" font-size="12" text-anchor="middle">0</text><line x1="179" y1="494" x2="179" y2="499" stroke="#000000" stroke-width="1" /><text x="179" y="511" font-size="12" text-anchor="middle">2</text><line x1="299" y1="494" x2="299" y2="499" stroke="#000000" stroke-width="1" /><text x="299" y="511" font-size="12" text-anchor="middle">4</text><line x1="419" y1="494" x2="419" y2="499" stroke="#000000" stroke-width="1" /><text x="419" y="511" font-size="12" text-anchor="middle">6</text><line x1="539" y1="494" x2="539" y2="499" stroke="#000000" stroke-width="1" /><text x="539" y="511" font-size="12" text-anchor="middle">8</text><line x1="659" y1="494" x2="659" y2="499" stroke="#000000" stroke-width="1" /><text x="659" y="511" font-size="12" text-anchor="middle">10</text><line x1="54" y1="494" x2="59" y2="494" stroke="#000000" stroke-width="1" /><text x="51" y="498.2" font-size="12" text-anchor="end">1</text><line x1="54" y1="394" x2="59" y2="394" stroke="#000000" stroke-width="1" /><text x="51" y="398.2" font-size="12" text-anchor="end">2</text><line x1="54" y1="294" x2="59" y2="294" stroke="#000000" stroke-width="1" /><text x="51" y="298.2" font-size="12" text-anchor="end">3</text><line x1="54" y1="194" x2="59" y2="194" stroke="#000000" stroke-width="1" /><text x="51" y="198.20000000000002" font-size="12" text-anchor="end">4</text><line x1="54" y1="94" x2="59" y2="94" stroke="#000000" stroke-width="1" /><text x="51" y="98.2" font-size="12" text-anchor="end">5</text><text x="359" y="538" font-size="14" text-anchor="middle">X</text><text x="15" y="272.5" font-size="14" text-anchor="middle" transform="rotate(-90,15,272.5)">Y</text><text x="336.7" y="27.400000000000002" font-size="18" text-anchor="middle">Per-Point Colors</text><g clip-path="url(#kuva-clip-6)"><circle cx="119" cy="444" r="6" fill="#4682b4" /><circle cx="149" cy="394" r="6" fill="#4682b4" /><circle cx="179" cy="414" r="6" fill="#4682b4" /><circle cx="299" cy="144" r="6" fill="#dc143c" /><circle cx="329" cy="94" r="6" fill="#dc143c" /><circle cx="359" cy="114" r="6" fill="#dc143c" /><circle cx="479" cy="394" r="6" fill="seagreen" /><circle cx="509" cy="344" r="6" fill="seagreen" /><circle cx="539" cy="374" r="6" fill="seagreen" /></g></svg>