<svg xmlns="http://www.w3.org/2000/svg" width="673.4" height="545" font-family="DejaVu Sans, Liberation Sans, Arial, sans-serif" fill="black"><rect width="100%" height="100%" fill="white" /><defs><clipPath id="kuva-clip-6"><rect x="59" y="44" width="600" height="450"/></clipPath></defs><line x1="179" y1="44" x2="179" y2="494" stroke="#cccccc" stroke-width="1" /><line x1="299" y1="44" x2="299" y2="494" stroke="#cccccc" stroke-width="1" /><line x1="419" y1="44" x2="419" y2="494" stroke="#cccccc" stroke-width="1" /><line x1="539" y1="44" x2="539" y2="494" stroke="#cccccc" stroke-width="1" /><line x1="659" y1="44" x2="659" y2="494" stroke="#cccccc" stroke-width="1" /><line x1="59" y1="419" x2="659" y2="419" stroke="#cccccc" stroke-width="1" /><line x1="59" y1="344" x2="659" y2="344" stroke="#cccccc" stroke-width="1" /><line x1="59" y1="269" x2="659" y2="269" stroke="#cccccc" stroke-width="1" /><line x1="59" y1="194" x2="659" y2="194" stroke="#cccccc" stroke-width="1" /><line x1="59" y1="119" x2="659" y2="119" stroke="#cccccc" stroke-width="1" /><line x1="59" y1="44" x2="659" y2="44" stroke="#cccccc" stroke-width="1" /><line x1="59" y1="494" x2="659" y2="494" stroke="#000000" stroke-width="1" /><line x1="59" y1="44" x2="59" y2="494" stroke="#000000" stroke-width="1" /><line x1="59" y1="494" x2="59" y2="499" stroke="#000000" stroke-width="1" /><text x="59" y="511" font-size="12" text-anchor="middle">0</text><line x1="179" y1="494" x2="179" y2="499" stroke="#000000" stroke-width="1" /><text x="179" y="511" font-size="12" text-anchor="middle">2</text><line x1="299" y1="494" x2="299" y2="499" stroke="#000000" stroke-width="1" /><text x="299" y="511" font-size="12" text-anchor="middle">4</text><line x1="419" y1="494" x2="419" y2="499" stroke="#000000" stroke-width="1" /><text x="419" y="511" font-size="12" text-anchor="middle">6</text><line x1="539" y1="494" x2="539" y2="499" stroke="#000000" stroke-width="1" /><text x="539" y="511" font-size="12" text-anchor="middle">8</text><line x1="659" y1="494" x2="659" y2="499" stroke="#000000" stroke-width="1" /><text x="659" y="511" font-size="12" text-anchor="middle">10</text><line x1="54" y1="494" x2="59" y2="494" stroke="#000000" stroke-width="1" /><text x="51" y="498.2" font-size="12" text-anchor="end">0</text><line x1="54" y1="419" x2="59" y2="419" stroke="#000000" stroke-width="1" /><text x="51" y="423.2" font-size="12" text-anchor="end">1</text><line x1="54" y1="344" x2="59" y2="344" stroke="#000000" stroke-width="1" /><text x="51" y="348.2" font-size="12" text-anchor="end">2</text><line x1="54" y1="269" x2="59" y2="269" stroke="#000000" stroke-width="1" /><text x="51" y="273.2" font-size="12" text-anchor="end">3</text><line x1="54" y1="194" x2="59" y2="194" stroke="#000000" stroke-width="1" /><text x="51" y="198.20000000000002" font-size="12" text-anchor="end">4</text><line x1="54" y1="119" x2="59" y2="119" stroke="#000000" stroke-width="1" /><text x="51" y="123.2" font-size="12" text-anchor="end">5</text><line x1="54" y1="44" x2="59" y2="44" stroke="#000000" stroke-width="1" /><text x="51" y="48.2" font-size="12" text-anchor="end">6</text><text x="359" y="538" font-size="14" text-anchor="middle">X</text><text x="15" y="272.5" font-size="14" text-anchor="middle" transform="rotate(-90,15,272.5)">Y</text><text x="359" y="22" font-size="18" text-anchor="middle">Per-Point Colors</text><g clip-path="url(#kuva-clip-6)"><circle cx="119" cy="381.5" r="6" fill="#4682b4" /><circle cx="149" cy="344" r="6" fill="#4682b4" /><circle cx="179" cy="359" r="6" fill="#4682b4" /><circle cx="299" cy="156.5" r="6" fill="#dc143c" /><circle cx="329" cy="119" r="6" fill="#dc143c" /><circle cx="359" cy="134" r="6" fill="#dc143c" /><circle cx="479" cy="344" r="6" fill="seagreen" /><circle cx="509" cy="306.5" r="6" fill="seagreen" /><circle cx="539" cy="329" r="6" fill="seagreen" /></g></svg>