<svg xmlns="http://www.w3.org/2000/svg" width="677" height="545" font-family="DejaVu Sans, Liberation Sans, Arial, sans-serif" fill="black"><rect width="100%" height="100%" fill="white" /><defs><clipPath id="kuva-clip-1"><rect x="59" y="44" width="600" height="450"/></clipPath></defs><line x1="184" y1="44" x2="184" y2="494" stroke="#cccccc" stroke-width="1" /><line x1="309" y1="44" x2="309" y2="494" stroke="#cccccc" stroke-width="1" /><line x1="434" y1="44" x2="434" y2="494" stroke="#cccccc" stroke-width="1" /><line x1="559" y1="44" x2="559" y2="494" stroke="#cccccc" stroke-width="1" /><line x1="59" y1="404" x2="659" y2="404" stroke="#cccccc" stroke-width="1" /><line x1="59" y1="314" x2="659" y2="314" stroke="#cccccc" stroke-width="1" /><line x1="59" y1="224" x2="659" y2="224" stroke="#cccccc" stroke-width="1" /><line x1="59" y1="134" x2="659" y2="134" stroke="#cccccc" stroke-width="1" /><line x1="59" y1="44" x2="659" y2="44" stroke="#cccccc" stroke-width="1" /><line x1="59" y1="494" x2="659" y2="494" stroke="#000000" stroke-width="1" /><line x1="59" y1="44" x2="59" y2="494" stroke="#000000" stroke-width="1" /><line x1="59" y1="494" x2="59" y2="499" stroke="#000000" stroke-width="1" /><text x="59" y="511" font-size="12" text-anchor="middle">0</text><line x1="184" y1="494" x2="184" y2="499" stroke="#000000" stroke-width="1" /><text x="184" y="511" font-size="12" text-anchor="middle">2.5</text><line x1="309" y1="494" x2="309" y2="499" stroke="#000000" stroke-width="1" /><text x="309" y="511" font-size="12" text-anchor="middle">5</text><line x1="434" y1="494" x2="434" y2="499" stroke="#000000" stroke-width="1" /><text x="434" y="511" font-size="12" text-anchor="middle">7.5</text><line x1="559" y1="494" x2="559" y2="499" stroke="#000000" stroke-width="1" /><text x="559" y="511" font-size="12" text-anchor="middle">10</text><line x1="54" y1="494" x2="59" y2="494" stroke="#000000" stroke-width="1" /><text x="51" y="498.2" font-size="12" text-anchor="end">0</text><line x1="54" y1="404" x2="59" y2="404" stroke="#000000" stroke-width="1" /><text x="51" y="408.2" font-size="12" text-anchor="end">5</text><line x1="54" y1="314" x2="59" y2="314" stroke="#000000" stroke-width="1" /><text x="51" y="318.2" font-size="12" text-anchor="end">10</text><line x1="54" y1="224" x2="59" y2="224" stroke="#000000" stroke-width="1" /><text x="51" y="228.20000000000002" font-size="12" text-anchor="end">15</text><line x1="54" y1="134" x2="59" y2="134" stroke="#000000" stroke-width="1" /><text x="51" y="138.20000000000002" font-size="12" text-anchor="end">20</text><line x1="54" y1="44" x2="59" y2="44" stroke="#000000" stroke-width="1" /><text x="51" y="48.2" font-size="12" text-anchor="end">25</text><text x="359" y="538" font-size="14" text-anchor="middle">X</text><text x="15" y="272.5" font-size="14" text-anchor="middle" transform="rotate(-90,15,272.5)">Y</text><text x="338.5" y="27.400000000000002" font-size="18" text-anchor="middle">Linear Trend Line</text><g clip-path="url(#kuva-clip-1)"><circle cx="109" cy="456.2" r="5" fill="#4682b4" /><circle cx="159" cy="423.8" r="5" fill="#4682b4" /><circle cx="209" cy="382.40000000000003" r="5" fill="#4682b4" /><circle cx="259" cy="353.6" r="5" fill="#4682b4" /><circle cx="309" cy="312.2" r="5" fill="#4682b4" /><circle cx="359" cy="272.6" r="5" fill="#4682b4" /><circle cx="409" cy="243.8" r="5" fill="#4682b4" /><circle cx="459" cy="202.4" r="5" fill="#4682b4" /><circle cx="509" cy="173.6" r="5" fill="#4682b4" /><circle cx="559" cy="139.4" r="5" fill="#4682b4" /><line x1="59" y1="491.72" x2="659" y2="64.69" stroke="#dc143c" stroke-width="1" /><text x="69" y="64" font-size="12" text-anchor="start">y = 1.98x + 0.13  r = 1.00</text></g></svg>