<svg xmlns="http://www.w3.org/2000/svg" width="520" height="440" font-family="DejaVu Sans, Liberation Sans, Arial, sans-serif" fill="black"><rect width="100%" height="100%" fill="white" /><defs><clipPath id="kuva-clip-2"><rect x="59" y="44" width="206.6" height="345"/></clipPath></defs><line x1="102.04" y1="44" x2="102.04" y2="389" stroke="#cccccc" stroke-width="1" /><line x1="145.08" y1="44" x2="145.08" y2="389" stroke="#cccccc" stroke-width="1" /><line x1="188.12" y1="44" x2="188.12" y2="389" stroke="#cccccc" stroke-width="1" /><line x1="231.17000000000002" y1="44" x2="231.17000000000002" y2="389" stroke="#cccccc" stroke-width="1" /><line x1="59" y1="317.13" x2="265.6" y2="317.13" stroke="#cccccc" stroke-width="1" /><line x1="59" y1="245.25" x2="265.6" y2="245.25" stroke="#cccccc" stroke-width="1" /><line x1="59" y1="173.38" x2="265.6" y2="173.38" stroke="#cccccc" stroke-width="1" /><line x1="59" y1="101.5" x2="265.6" y2="101.5" stroke="#cccccc" stroke-width="1" /><line x1="59" y1="389" x2="265.6" y2="389" stroke="#000000" stroke-width="1" /><line x1="59" y1="44" x2="59" y2="389" stroke="#000000" stroke-width="1" /><line x1="59" y1="389" x2="59" y2="394" stroke="#000000" stroke-width="1" /><text x="59" y="406" font-size="12" text-anchor="middle">0</text><line x1="102.04" y1="389" x2="102.04" y2="394" stroke="#000000" stroke-width="1" /><text x="102.04" y="406" font-size="12" text-anchor="middle">0.25</text><line x1="145.08" y1="389" x2="145.08" y2="394" stroke="#000000" stroke-width="1" /><text x="145.08" y="406" font-size="12" text-anchor="middle">0.5</text><line x1="188.12" y1="389" x2="188.12" y2="394" stroke="#000000" stroke-width="1" /><text x="188.12" y="406" font-size="12" text-anchor="middle">0.75</text><line x1="231.17000000000002" y1="389" x2="231.17000000000002" y2="394" stroke="#000000" stroke-width="1" /><text x="231.17000000000002" y="406" font-size="12" text-anchor="middle">1</text><line x1="54" y1="389" x2="59" y2="389" stroke="#000000" stroke-width="1" /><text x="51" y="393.2" font-size="12" text-anchor="end">0</text><line x1="54" y1="317.13" x2="59" y2="317.13" stroke="#000000" stroke-width="1" /><text x="51" y="321.33" font-size="12" text-anchor="end">0.25</text><line x1="54" y1="245.25" x2="59" y2="245.25" stroke="#000000" stroke-width="1" /><text x="51" y="249.45000000000002" font-size="12" text-anchor="end">0.5</text><line x1="54" y1="173.38" x2="59" y2="173.38" stroke="#000000" stroke-width="1" /><text x="51" y="177.58" font-size="12" text-anchor="end">0.75</text><line x1="54" y1="101.5" x2="59" y2="101.5" stroke="#000000" stroke-width="1" /><text x="51" y="105.7" font-size="12" text-anchor="end">1</text><text x="162.3" y="433" font-size="14" text-anchor="middle">Recall</text><text x="15" y="220" font-size="14" text-anchor="middle" transform="rotate(-90,15,220)">Precision</text><text x="260" y="27.400000000000002" font-size="18" text-anchor="middle">Multi-model Precision-Recall Comparison</text><g clip-path="url(#kuva-clip-2)"><line x1="59" y1="245.25" x2="231.17000000000002" y2="245.25" stroke="#aaaaaa" stroke-width="1" stroke-dasharray="5,3" /><path d="M 59,101.5 L 60.15,101.5 L 61.300000000000004,101.5 L 62.440000000000005,101.5 L 63.59,101.5 L 64.74,101.5 L 65.89,101.5 L 67.03,101.5 L 68.18,101.5 L 69.33,101.5 L 70.48,101.5 L 71.63,101.5 L 72.77,101.5 L 73.92,101.5 L 75.07000000000001,101.5 L 76.22,101.5 L 77.36,101.5 L 78.51,101.5 L 79.66,101.5 L 80.81,101.5 L 81.96000000000001,101.5 L 83.10000000000001,101.5 L 84.25,101.5 L 85.4,101.5 L 86.55,101.5 L 87.69,101.5 L 88.84,101.5 L 89.99,101.5 L 91.14,101.5 L 92.29,101.5 L 93.43,101.5 L 94.58,101.5 L 95.73,101.5 L 96.88,101.5 L 98.02,101.5 L 99.17,101.5 L 100.32000000000001,101.5 L 101.47,101.5 L 102.62,101.5 L 103.76,101.5 L 104.91,101.5 L 106.06,101.5 L 107.21000000000001,101.5 L 108.35000000000001,101.5 L 109.5,101.5 L 110.65,101.5 L 111.8,101.5 L 112.95,101.5 L 114.09,101.5 L 115.24000000000001,101.5 L 116.39,101.5 L 117.54,101.5 L 118.68,101.5 L 119.83,101.5 L 120.98,101.5 L 122.13,101.5 L 123.28,101.5 L 124.42,101.5 L 125.57000000000001,101.5 L 126.72,101.5 L 127.87,101.5 L 129.01,101.5 L 130.16,101.5 L 131.31,101.5 L 132.46,101.5 L 133.61,101.5 L 134.75,101.5 L 135.9,101.5 L 135.9,105.73 L 137.05,105.67 L 138.20000000000002,105.61 L 139.34,105.55 L 140.49,105.49000000000001 L 141.64000000000001,105.44 L 142.79,105.39 L 143.94,105.33 L 145.08,105.28 L 146.23,105.23 L 147.38,105.19 L 148.53,105.14 L 149.67000000000002,105.09 L 150.82,105.05 L 151.97,105.01 L 153.12,104.96000000000001 L 154.27,104.92 L 155.41,104.88 L 156.56,104.84 L 157.71,104.8 L 158.86,104.77 L 160,104.73 L 161.15,104.69 L 162.3,104.66 L 163.45000000000002,104.63 L 164.6,104.59 L 165.74,104.56 L 165.74,107.55 L 166.89000000000001,107.49000000000001 L 168.04,107.43 L 169.19,107.37 L 170.33,107.31 L 171.48,107.25 L 172.63,107.19 L 173.78,107.14 L 174.93,107.08 L 176.07,107.03 L 177.22,106.98 L 178.37,106.92 L 179.52,106.87 L 180.66,106.82000000000001 L 181.81,106.78 L 181.81,109.34 L 182.96,109.27 L 184.11,109.2 L 185.26,109.13 L 186.4,109.07000000000001 L 187.55,109 L 188.70000000000002,108.94 L 189.85,108.87 L 190.99,108.81 L 190.99,111.16 L 192.14000000000001,111.08 L 193.29,111 L 194.44,110.93 L 195.59,110.85000000000001 L 196.73000000000002,110.77 L 197.88,110.7 L 197.88,112.91 L 199.03,112.82000000000001 L 200.18,112.73 L 201.32,112.64 L 202.47,112.56 L 202.47,114.67 L 203.62,114.57000000000001 L 204.77,114.47 L 205.92000000000002,114.37 L 207.06,114.28 L 207.06,116.3 L 208.21,116.19 L 209.36,116.08 L 209.36,118.05 L 210.51,117.93 L 211.65,117.81 L 211.65,119.72 L 212.8,119.59 L 213.95000000000002,119.47 L 213.95000000000002,121.33 L 215.1,121.19 L 215.1,123.01 L 216.25,122.87 L 216.25,124.65 L 217.39000000000001,124.5 L 217.39000000000001,126.25 L 218.54,126.09 L 218.54,127.81 L 219.69,127.64 L 219.69,129.32 L 220.84,129.14000000000001 L 220.84,130.8 L 220.84,132.43 L 221.98000000000002,132.24 L 221.98000000000002,133.84 L 221.98000000000002,135.43 L 223.13,135.22 L 223.13,136.78 L 223.13,138.31 L 224.28,138.09 L 224.28,139.6 L 224.28,141.1 L 224.28,142.57 L 224.28,144.03 L 225.43,143.78 L 225.43,145.21 L 225.43,146.63 L 225.43,148.03 L 225.43,149.42000000000002 L 226.58,149.14000000000001 L 226.58,150.51 L 226.58,151.85 L 226.58,153.19 L 226.58,154.5 L 226.58,155.81 L 226.58,157.09 L 227.72,156.79 L 227.72,158.06 L 227.72,159.31 L 227.72,160.55 L 227.72,161.78 L 227.72,163 L 227.72,164.20000000000002 L 227.72,165.39000000000001 L 227.72,166.57 L 228.87,166.23 L 228.87,167.39000000000001 L 228.87,168.53 L 228.87,169.67000000000002 L 228.87,170.79 L 228.87,171.91 L 228.87,173.01 L 228.87,174.1 L 228.87,175.18 L 228.87,176.25 L 228.87,177.31 L 228.87,178.36 L 228.87,179.39000000000001 L 228.87,180.42000000000002 L 228.87,181.44 L 230.02,181.05 L 230.02,182.06 L 230.02,183.05 L 230.02,184.04 L 230.02,185.01 L 230.02,185.98 L 230.02,186.94 L 230.02,187.88 L 230.02,188.82 L 230.02,189.76 L 230.02,190.68 L 230.02,191.59 L 230.02,192.5 L 230.02,193.39000000000001 L 230.02,194.28 L 230.02,195.17000000000002 L 230.02,196.04 L 230.02,196.9 L 230.02,197.76 L 230.02,198.61 L 230.02,199.45000000000002 L 230.02,200.29 L 230.02,201.12 L 230.02,201.94 L 230.02,202.75 L 230.02,203.56 L 230.02,204.36 L 231.17000000000002,203.91 L 231.17000000000002,204.71 L 231.17000000000002,205.49 L 231.17000000000002,206.27 L 231.17000000000002,207.04 L 231.17000000000002,207.8 L 231.17000000000002,208.56 L 231.17000000000002,209.31 L 231.17000000000002,210.06 L 231.17000000000002,210.8 L 231.17000000000002,211.53 L 231.17000000000002,212.26 L 231.17000000000002,212.98000000000002 L 231.17000000000002,213.70000000000002 L 231.17000000000002,214.4 L 231.17000000000002,215.11 L 231.17000000000002,215.81 L 231.17000000000002,216.5 L 231.17000000000002,217.19 L 231.17000000000002,217.87 L 231.17000000000002,218.55 L 231.17000000000002,219.22 L 231.17000000000002,219.88 L 231.17000000000002,220.54 L 231.17000000000002,221.20000000000002 L 231.17000000000002,221.85 L 231.17000000000002,222.49 L 231.17000000000002,223.13 L 231.17000000000002,223.77 L 231.17000000000002,224.4 L 231.17000000000002,225.03 L 231.17000000000002,225.65 L 231.17000000000002,226.26 L 231.17000000000002,226.88 L 231.17000000000002,227.48000000000002 L 231.17000000000002,228.09 L 231.17000000000002,228.68 L 231.17000000000002,229.28 L 231.17000000000002,229.87 L 231.17000000000002,230.45000000000002 L 231.17000000000002,231.03 L 231.17000000000002,231.61 L 231.17000000000002,232.18 L 231.17000000000002,232.75 L 231.17000000000002,233.31 L 231.17000000000002,233.87 L 231.17000000000002,234.43 L 231.17000000000002,234.98000000000002 L 231.17000000000002,235.53 L 231.17000000000002,236.07 L 231.17000000000002,236.61 L 231.17000000000002,237.15 L 231.17000000000002,237.68 L 231.17000000000002,238.21 L 231.17000000000002,238.74 L 231.17000000000002,239.26 L 231.17000000000002,239.78 L 231.17000000000002,240.29 L 231.17000000000002,240.8 L 231.17000000000002,241.31 L 231.17000000000002,241.82 L 231.17000000000002,242.32 L 231.17000000000002,242.81 L 231.17000000000002,243.31 L 231.17000000000002,243.8 L 231.17000000000002,244.29 L 231.17000000000002,244.77 L 231.17000000000002,245.25" stroke="#1f77b4" stroke-width="2" fill="none" /><path d="M 59,101.5 L 60.15,101.5 L 61.300000000000004,101.5 L 62.440000000000005,101.5 L 63.59,101.5 L 64.74,101.5 L 65.89,101.5 L 67.03,101.5 L 68.18,101.5 L 69.33,101.5 L 70.48,101.5 L 70.48,127.64 L 71.63,125.46000000000001 L 72.77,123.62 L 73.92,122.04 L 75.07000000000001,120.67 L 76.22,119.47 L 77.36,118.41 L 78.51,117.47 L 79.66,116.63 L 80.81,115.88 L 80.81,128.88 L 81.96000000000001,127.64 L 83.10000000000001,126.5 L 84.25,125.46000000000001 L 85.4,124.5 L 86.55,123.62 L 87.69,122.8 L 88.84,122.04 L 89.99,121.33 L 89.99,130.25 L 91.14,129.32 L 92.29,128.45 L 93.43,127.64 L 94.58,126.87 L 95.73,126.14 L 96.88,125.46000000000001 L 98.02,124.81 L 98.02,131.76 L 99.17,130.99 L 100.32000000000001,130.25 L 101.47,129.55 L 102.62,128.88 L 103.76,128.24 L 104.91,127.64 L 106.06,127.06 L 106.06,132.75 L 107.21000000000001,132.09 L 108.35000000000001,131.45 L 109.5,130.84 L 110.65,130.25 L 111.8,129.69 L 112.95,129.14000000000001 L 112.95,134.05 L 114.09,133.44 L 115.24000000000001,132.86 L 116.39,132.3 L 117.54,131.76 L 118.68,131.24 L 118.68,135.61 L 119.83,135.04 L 120.98,134.49 L 122.13,133.96 L 123.28,133.44 L 124.42,132.95 L 124.42,136.88 L 125.57000000000001,136.35 L 126.72,135.83 L 127.87,135.32 L 129.01,134.83 L 130.16,134.36 L 130.16,137.94 L 131.31,137.44 L 132.46,136.95000000000002 L 133.61,136.47 L 134.75,136 L 134.75,139.33 L 135.9,138.84 L 137.05,138.36 L 138.20000000000002,137.89000000000001 L 139.34,137.44 L 139.34,140.54 L 140.49,140.07 L 141.64000000000001,139.6 L 142.79,139.15 L 142.79,142.09 L 143.94,141.62 L 145.08,141.16 L 146.23,140.70000000000002 L 146.23,143.49 L 147.38,143.03 L 148.53,142.57 L 149.67000000000002,142.13 L 149.67000000000002,144.78 L 150.82,144.32 L 151.97,143.87 L 153.12,143.43 L 153.12,145.96 L 154.27,145.51 L 155.41,145.06 L 156.56,144.63 L 156.56,147.04 L 157.71,146.6 L 158.86,146.16 L 160,145.73 L 160,148.05 L 161.15,147.61 L 162.3,147.18 L 162.3,149.42000000000002 L 163.45000000000002,148.98 L 164.6,148.55 L 164.6,150.71 L 165.74,150.27 L 166.89000000000001,149.84 L 166.89000000000001,151.94 L 168.04,151.5 L 169.19,151.07 L 169.19,153.1 L 170.33,152.67000000000002 L 171.48,152.24 L 171.48,154.21 L 172.63,153.77 L 173.78,153.34 L 173.78,155.26 L 174.93,154.83 L 176.07,154.4 L 176.07,156.26 L 177.22,155.83 L 177.22,157.65 L 178.37,157.22 L 179.52,156.79 L 179.52,158.56 L 180.66,158.13 L 180.66,159.86 L 181.81,159.43 L 181.81,161.13 L 182.96,160.69 L 184.11,160.26 L 184.11,161.92000000000002 L 185.26,161.48 L 185.26,163.11 L 186.4,162.67000000000002 L 186.4,164.26 L 187.55,163.83 L 187.55,165.39000000000001 L 188.70000000000002,164.95000000000002 L 189.85,164.51 L 189.85,166.04 L 190.99,165.6 L 190.99,167.1 L 192.14000000000001,166.67000000000002 L 192.14000000000001,168.14000000000001 L 193.29,167.70000000000002 L 193.29,169.15 L 194.44,168.71 L 194.44,170.13 L 194.44,171.53 L 195.59,171.09 L 195.59,172.47 L 196.73000000000002,172.02 L 196.73000000000002,173.38 L 197.88,172.93 L 197.88,174.26 L 199.03,173.82 L 199.03,175.13 L 199.03,176.42000000000002 L 200.18,175.97 L 200.18,177.25 L 201.32,176.8 L 201.32,178.05 L 202.47,177.6 L 202.47,178.84 L 202.47,180.06 L 203.62,179.61 L 203.62,180.81 L 204.77,180.36 L 204.77,181.54 L 204.77,182.71 L 205.92000000000002,182.26 L 205.92000000000002,183.41 L 205.92000000000002,184.56 L 207.06,184.1 L 207.06,185.22 L 207.06,186.34 L 208.21,185.88 L 208.21,186.97 L 208.21,188.06 L 209.36,187.6 L 209.36,188.67000000000002 L 209.36,189.73 L 210.51,189.26 L 210.51,190.31 L 210.51,191.34 L 211.65,190.88 L 211.65,191.9 L 211.65,192.91 L 212.8,192.44 L 212.8,193.44 L 212.8,194.43 L 212.8,195.41 L 213.95000000000002,194.94 L 213.95000000000002,195.9 L 213.95000000000002,196.86 L 213.95000000000002,197.81 L 215.1,197.33 L 215.1,198.27 L 215.1,199.19 L 215.1,200.11 L 216.25,199.64000000000001 L 216.25,200.54 L 216.25,201.44 L 216.25,202.33 L 217.39000000000001,201.85 L 217.39000000000001,202.73000000000002 L 217.39000000000001,203.6 L 217.39000000000001,204.47 L 218.54,203.99 L 218.54,204.84 L 218.54,205.69 L 218.54,206.52 L 219.69,206.05 L 219.69,206.87 L 219.69,207.69 L 219.69,208.51 L 219.69,209.31 L 220.84,208.83 L 220.84,209.63 L 220.84,210.42000000000002 L 220.84,211.20000000000002 L 220.84,211.98000000000002 L 221.98000000000002,211.5 L 221.98000000000002,212.27 L 221.98000000000002,213.03 L 221.98000000000002,213.79 L 221.98000000000002,214.53 L 221.98000000000002,215.28 L 223.13,214.79 L 223.13,215.53 L 223.13,216.26 L 223.13,216.98000000000002 L 223.13,217.70000000000002 L 223.13,218.41 L 224.28,217.93 L 224.28,218.63 L 224.28,219.33 L 224.28,220.02 L 224.28,220.71 L 224.28,221.39000000000001 L 225.43,220.91 L 225.43,221.58 L 225.43,222.25 L 225.43,222.91 L 225.43,223.57 L 225.43,224.23000000000002 L 225.43,224.88 L 226.58,224.39000000000001 L 226.58,225.04 L 226.58,225.67000000000002 L 226.58,226.31 L 226.58,226.93 L 226.58,227.56 L 226.58,228.18 L 226.58,228.79 L 227.72,228.31 L 227.72,228.91 L 227.72,229.52 L 227.72,230.12 L 227.72,230.71 L 227.72,231.3 L 227.72,231.89000000000001 L 227.72,232.47 L 228.87,231.99 L 228.87,232.57 L 228.87,233.14000000000001 L 228.87,233.71 L 228.87,234.27 L 228.87,234.83 L 228.87,235.39000000000001 L 228.87,235.94 L 228.87,236.49 L 230.02,236.01 L 230.02,236.55 L 230.02,237.09 L 230.02,237.63 L 230.02,238.16 L 230.02,238.69 L 230.02,239.22 L 230.02,239.74 L 230.02,240.26 L 230.02,240.77 L 231.17000000000002,240.29 L 231.17000000000002,240.8 L 231.17000000000002,241.31 L 231.17000000000002,241.82 L 231.17000000000002,242.32 L 231.17000000000002,242.81 L 231.17000000000002,243.31 L 231.17000000000002,243.8 L 231.17000000000002,244.29 L 231.17000000000002,244.77 L 231.17000000000002,245.25" stroke="#ff7f0e" stroke-width="2" fill="none" /><path d="M 59,101.5 L 60.15,101.5 L 61.300000000000004,101.5 L 61.300000000000004,197.33 L 62.440000000000005,173.38 L 63.59,159 L 63.59,197.33 L 64.74,183.64000000000001 L 65.89,173.38 L 65.89,197.33 L 67.03,187.75 L 68.18,179.91 L 68.18,197.33 L 69.33,189.96 L 70.48,183.64000000000001 L 70.48,197.33 L 71.63,191.34 L 72.77,186.06 L 72.77,197.33 L 73.92,192.29 L 75.07000000000001,187.75 L 75.07000000000001,197.33 L 76.22,192.98000000000002 L 77.36,189 L 77.36,197.33 L 78.51,193.5 L 79.66,189.96 L 79.66,197.33 L 80.81,193.91 L 81.96000000000001,190.72 L 81.96000000000001,197.33 L 83.10000000000001,194.24 L 84.25,191.34 L 84.25,197.33 L 85.4,194.51 L 86.55,191.86 L 86.55,197.33 L 87.69,194.74 L 88.84,192.29 L 88.84,197.33 L 89.99,194.94 L 89.99,199.67000000000002 L 91.14,197.33 L 92.29,195.1 L 92.29,199.51 L 93.43,197.33 L 94.58,195.25 L 94.58,199.37 L 95.73,197.33 L 96.88,195.38 L 96.88,199.25 L 98.02,197.33 L 98.02,201.02 L 99.17,199.14000000000001 L 100.32000000000001,197.33 L 100.32000000000001,200.82 L 101.47,199.04 L 102.62,197.33 L 102.62,200.64000000000001 L 103.76,198.96 L 103.76,202.13 L 104.91,200.48000000000002 L 106.06,198.88 L 106.06,201.9 L 107.21000000000001,200.33 L 108.35000000000001,198.81 L 108.35000000000001,201.69 L 109.5,200.19 L 109.5,202.97 L 110.65,201.5 L 111.8,200.07 L 111.8,202.73000000000002 L 112.95,201.33 L 112.95,203.9 L 114.09,202.51 L 115.24000000000001,201.17000000000002 L 115.24000000000001,203.64000000000001 L 116.39,202.31 L 116.39,204.71 L 117.54,203.4 L 118.68,202.13 L 118.68,204.43 L 119.83,203.18 L 119.83,205.42000000000002 L 120.98,204.18 L 122.13,202.97 L 122.13,205.13 L 123.28,203.94 L 123.28,206.05 L 124.42,204.87 L 124.42,206.92000000000002 L 125.57000000000001,205.76 L 126.72,204.63 L 126.72,206.61 L 127.87,205.49 L 127.87,207.42000000000002 L 129.01,206.32 L 130.16,205.24 L 130.16,207.11 L 131.31,206.05 L 131.31,207.88 L 132.46,206.82 L 132.46,208.61 L 133.61,207.57 L 133.61,209.31 L 134.75,208.29 L 135.9,207.28 L 135.9,208.98000000000002 L 137.05,207.98000000000002 L 137.05,209.64000000000001 L 138.20000000000002,208.66 L 138.20000000000002,210.28 L 139.34,209.31 L 139.34,210.9 L 140.49,209.94 L 141.64000000000001,209 L 141.64000000000001,210.55 L 142.79,209.62 L 142.79,211.14000000000001 L 143.94,210.22 L 143.94,211.71 L 145.08,210.8 L 145.08,212.26 L 146.23,211.36 L 146.23,212.79 L 147.38,211.9 L 148.53,211.02 L 148.53,212.43 L 149.67000000000002,211.56 L 149.67000000000002,212.93 L 150.82,212.08 L 150.82,213.43 L 151.97,212.58 L 151.97,213.91 L 153.12,213.07 L 153.12,214.37 L 154.27,213.54 L 154.27,214.82 L 155.41,214 L 155.41,215.26 L 156.56,214.45000000000002 L 156.56,215.68 L 157.71,214.88 L 157.71,216.1 L 158.86,215.3 L 158.86,216.5 L 160,215.71 L 160,216.89000000000001 L 161.15,216.11 L 161.15,217.27 L 162.3,216.5 L 162.3,217.64000000000001 L 163.45000000000002,216.88 L 163.45000000000002,218 L 164.6,217.25 L 164.6,218.35 L 165.74,217.61 L 165.74,218.70000000000002 L 166.89000000000001,217.96 L 166.89000000000001,219.03 L 168.04,218.3 L 168.04,219.36 L 169.19,218.63 L 169.19,219.67000000000002 L 170.33,218.95000000000002 L 170.33,219.98000000000002 L 171.48,219.27 L 171.48,220.29 L 172.63,219.58 L 172.63,220.58 L 173.78,219.88 L 173.78,220.87 L 174.93,220.18 L 174.93,221.15 L 176.07,220.47 L 176.07,221.43 L 176.07,222.38 L 177.22,221.70000000000002 L 177.22,222.64000000000001 L 178.37,221.96 L 178.37,222.89000000000001 L 179.52,222.22 L 179.52,223.13 L 180.66,222.47 L 180.66,223.38 L 181.81,222.72 L 181.81,223.61 L 181.81,224.49 L 182.96,223.84 L 182.96,224.71 L 184.11,224.07 L 184.11,224.93 L 185.26,224.29 L 185.26,225.14000000000001 L 186.4,224.5 L 186.4,225.35 L 186.4,226.18 L 187.55,225.55 L 187.55,226.37 L 188.70000000000002,225.75 L 188.70000000000002,226.56 L 189.85,225.94 L 189.85,226.75 L 190.99,226.13 L 190.99,226.93 L 190.99,227.72 L 192.14000000000001,227.11 L 192.14000000000001,227.89000000000001 L 193.29,227.28 L 193.29,228.06 L 193.29,228.82 L 194.44,228.22 L 194.44,228.98000000000002 L 195.59,228.38 L 195.59,229.13 L 196.73000000000002,228.53 L 196.73000000000002,229.28 L 196.73000000000002,230.01 L 197.88,229.42000000000002 L 197.88,230.15 L 199.03,229.57 L 199.03,230.29 L 199.03,231 L 200.18,230.42000000000002 L 200.18,231.13 L 201.32,230.56 L 201.32,231.26 L 201.32,231.95000000000002 L 202.47,231.38 L 202.47,232.07 L 203.62,231.5 L 203.62,232.18 L 203.62,232.86 L 204.77,232.29 L 204.77,232.96 L 205.92000000000002,232.4 L 205.92000000000002,233.07 L 205.92000000000002,233.73000000000002 L 207.06,233.17000000000002 L 207.06,233.82 L 207.06,234.47 L 208.21,233.92000000000002 L 208.21,234.56 L 209.36,234.01 L 209.36,234.65 L 209.36,235.28 L 210.51,234.73000000000002 L 210.51,235.36 L 210.51,235.98000000000002 L 211.65,235.44 L 211.65,236.05 L 212.8,235.51 L 212.8,236.12 L 212.8,236.73000000000002 L 213.95000000000002,236.19 L 213.95000000000002,236.79 L 213.95000000000002,237.39000000000001 L 215.1,236.86 L 215.1,237.45000000000002 L 215.1,238.03 L 216.25,237.51 L 216.25,238.09 L 217.39000000000001,237.57 L 217.39000000000001,238.14000000000001 L 217.39000000000001,238.72 L 218.54,238.20000000000002 L 218.54,238.77 L 218.54,239.33 L 219.69,238.81 L 219.69,239.37 L 219.69,239.93 L 220.84,239.42000000000002 L 220.84,239.97 L 220.84,240.51 L 221.98000000000002,240 L 221.98000000000002,240.55 L 221.98000000000002,241.08 L 223.13,240.58 L 223.13,241.11 L 223.13,241.64000000000001 L 224.28,241.14000000000001 L 224.28,241.67000000000002 L 224.28,242.19 L 225.43,241.69 L 225.43,242.21 L 225.43,242.73000000000002 L 226.58,242.23000000000002 L 226.58,242.75 L 226.58,243.25 L 227.72,242.76 L 227.72,243.27 L 227.72,243.77 L 228.87,243.28 L 228.87,243.78 L 228.87,244.27 L 230.02,243.79 L 230.02,244.28 L 230.02,244.77 L 231.17000000000002,244.29 L 231.17000000000002,244.77 L 231.17000000000002,245.25" stroke="#2ca02c" stroke-width="2" fill="none" /></g><rect x="270.6" y="34" width="240" height="74" fill="#ffffff" /><rect x="270.6" y="34" width="240" height="74" fill="none" stroke="#000000" stroke-width="1" /><text x="300.6" y="53.2" font-size="12" text-anchor="start">Model A  (AUC-PR = 0.974)</text><line x1="280.6" y1="49" x2="292.6" y2="49" stroke="#1f77b4" stroke-width="2" /><text x="300.6" y="71.2" font-size="12" text-anchor="start">Model B  (AUC-PR = 0.833)</text><line x1="280.6" y1="67" x2="292.6" y2="67" stroke="#ff7f0e" stroke-width="2" /><text x="300.6" y="89.2" font-size="12" text-anchor="start">Model C  (AUC-PR = 0.617)</text><line x1="280.6" y1="85" x2="292.6" y2="85" stroke="#2ca02c" stroke-width="2" /></svg>