<svg xmlns="http://www.w3.org/2000/svg" width="673.4" height="545" font-family="DejaVu Sans, Liberation Sans, Arial, sans-serif" fill="black"><rect width="100%" height="100%" fill="white" /><defs><clipPath id="kuva-clip-1"><rect x="59" y="44" width="600" height="450"/></clipPath></defs><line x1="184" y1="44" x2="184" y2="494" stroke="#cccccc" stroke-width="1" /><line x1="309" y1="44" x2="309" y2="494" stroke="#cccccc" stroke-width="1" /><line x1="434" y1="44" x2="434" y2="494" stroke="#cccccc" stroke-width="1" /><line x1="559" y1="44" x2="559" y2="494" stroke="#cccccc" stroke-width="1" /><line x1="59" y1="400.25" x2="659" y2="400.25" stroke="#cccccc" stroke-width="1" /><line x1="59" y1="306.5" x2="659" y2="306.5" stroke="#cccccc" stroke-width="1" /><line x1="59" y1="212.75" x2="659" y2="212.75" stroke="#cccccc" stroke-width="1" /><line x1="59" y1="119" x2="659" y2="119" stroke="#cccccc" stroke-width="1" /><line x1="59" y1="494" x2="659" y2="494" stroke="#000000" stroke-width="1" /><line x1="59" y1="44" x2="59" y2="494" stroke="#000000" stroke-width="1" /><line x1="59" y1="494" x2="59" y2="499" stroke="#000000" stroke-width="1" /><text x="59" y="511" font-size="12" text-anchor="middle">0</text><line x1="184" y1="494" x2="184" y2="499" stroke="#000000" stroke-width="1" /><text x="184" y="511" font-size="12" text-anchor="middle">0.25</text><line x1="309" y1="494" x2="309" y2="499" stroke="#000000" stroke-width="1" /><text x="309" y="511" font-size="12" text-anchor="middle">0.5</text><line x1="434" y1="494" x2="434" y2="499" stroke="#000000" stroke-width="1" /><text x="434" y="511" font-size="12" text-anchor="middle">0.75</text><line x1="559" y1="494" x2="559" y2="499" stroke="#000000" stroke-width="1" /><text x="559" y="511" font-size="12" text-anchor="middle">1</text><line x1="54" y1="494" x2="59" y2="494" stroke="#000000" stroke-width="1" /><text x="51" y="498.2" font-size="12" text-anchor="end">0</text><line x1="54" y1="400.25" x2="59" y2="400.25" stroke="#000000" stroke-width="1" /><text x="51" y="404.45" font-size="12" text-anchor="end">0.25</text><line x1="54" y1="306.5" x2="59" y2="306.5" stroke="#000000" stroke-width="1" /><text x="51" y="310.7" font-size="12" text-anchor="end">0.5</text><line x1="54" y1="212.75" x2="59" y2="212.75" stroke="#000000" stroke-width="1" /><text x="51" y="216.95000000000002" font-size="12" text-anchor="end">0.75</text><line x1="54" y1="119" x2="59" y2="119" stroke="#000000" stroke-width="1" /><text x="51" y="123.2" font-size="12" text-anchor="end">1</text><text x="359" y="538" font-size="14" text-anchor="middle">Recall</text><text x="15" y="272.5" font-size="14" text-anchor="middle" transform="rotate(-90,15,272.5)">Precision</text><text x="336.7" y="27.400000000000002" font-size="18" text-anchor="middle">PR Curve with Optimal F1 Threshold</text><g clip-path="url(#kuva-clip-1)"><line x1="59" y1="306.5" x2="559" y2="306.5" stroke="#aaaaaa" stroke-width="1" stroke-dasharray="5,3" /><path d="M 59,119 L 62.33,119 L 65.67,119 L 69,119 L 72.33,119 L 75.67,119 L 79,119 L 82.33,119 L 85.67,119 L 89,119 L 92.33,119 L 95.67,119 L 99,119 L 102.33,119 L 105.67,119 L 109,119 L 112.33,119 L 115.67,119 L 119,119 L 122.33,119 L 125.67,119 L 129,119 L 132.33,119 L 135.67000000000002,119 L 139,119 L 142.33,119 L 145.67000000000002,119 L 149,119 L 152.33,119 L 155.67000000000002,119 L 159,119 L 162.33,119 L 165.67000000000002,119 L 169,119 L 172.33,119 L 175.67000000000002,119 L 179,119 L 182.33,119 L 185.67000000000002,119 L 189,119 L 192.33,119 L 192.33,128.15 L 195.67000000000002,127.93 L 199,127.72 L 202.33,127.52 L 205.67000000000002,127.33 L 209,127.15 L 212.33,126.98 L 215.67000000000002,126.81 L 219,126.65 L 222.33,126.5 L 225.67000000000002,126.35000000000001 L 229,126.21000000000001 L 232.33,126.08 L 235.67000000000002,125.94 L 239,125.82000000000001 L 242.33,125.7 L 245.67000000000002,125.58 L 249,125.47 L 252.33,125.36 L 255.67000000000002,125.25 L 259,125.15 L 262.33,125.05 L 265.67,124.95 L 269,124.86 L 269,130.54 L 272.33,130.36 L 275.67,130.19 L 279,130.03 L 282.33,129.87 L 285.67,129.71 L 289,129.56 L 292.33,129.42000000000002 L 295.67,129.27 L 299,129.14000000000001 L 302.33,129 L 305.67,128.87 L 309,128.74 L 312.33,128.62 L 315.67,128.49 L 319,128.38 L 322.33,128.26 L 322.33,132.72 L 325.67,132.55 L 329,132.39000000000001 L 332.33,132.24 L 335.67,132.08 L 339,131.93 L 342.33,131.78 L 345.67,131.64000000000001 L 349,131.5 L 352.33,131.36 L 355.67,131.23 L 359,131.1 L 359,134.96 L 362.33,134.79 L 365.67,134.63 L 369,134.46 L 372.33,134.31 L 375.67,134.15 L 379,134 L 382.33,133.85 L 385.67,133.71 L 385.67,137.20000000000002 L 389,137.03 L 392.33,136.86 L 395.67,136.69 L 399,136.52 L 402.33,136.36 L 405.67,136.2 L 405.67,139.45000000000002 L 409,139.27 L 412.33,139.09 L 415.67,138.91 L 419,138.74 L 422.33,138.57 L 422.33,141.63 L 425.67,141.44 L 429,141.25 L 432.33,141.06 L 435.67,140.88 L 435.67,143.79 L 439,143.59 L 442.33,143.39000000000001 L 445.67,143.19 L 449,143 L 449,145.79 L 452.33,145.57 L 455.67,145.37 L 459,145.16 L 459,147.85 L 462.33,147.63 L 465.67,147.41 L 465.67,150.02 L 469,149.78 L 472.33,149.56 L 472.33,152.09 L 475.67,151.85 L 479,151.61 L 479,154.07 L 482.33,153.82 L 485.67,153.57 L 485.67,155.97 L 489,155.71 L 489,158.06 L 492.33,157.79 L 492.33,160.1 L 495.67,159.82 L 495.67,162.07 L 499,161.79 L 502.33,161.5 L 502.33,163.70000000000002 L 502.33,165.88 L 505.67,165.57 L 505.67,167.70000000000002 L 509,167.39000000000001 L 509,169.48 L 512.33,169.16 L 512.33,171.22 L 515.67,170.89000000000001 L 515.67,172.91 L 515.67,174.9 L 519,174.56 L 519,176.52 L 519,178.45000000000002 L 522.33,178.09 L 522.33,179.99 L 522.33,181.87 L 525.67,181.5 L 525.67,183.35 L 525.67,185.18 L 529,184.79 L 529,186.59 L 529,188.36 L 529,190.12 L 532.33,189.71 L 532.33,191.44 L 532.33,193.15 L 532.33,194.84 L 532.33,196.51 L 535.67,196.08 L 535.67,197.73000000000002 L 535.67,199.36 L 535.67,200.97 L 535.67,202.56 L 539,202.11 L 539,203.68 L 539,205.23000000000002 L 539,206.77 L 539,208.29 L 539,209.79 L 542.33,209.31 L 542.33,210.8 L 542.33,212.26 L 542.33,213.72 L 542.33,215.15 L 542.33,216.58 L 542.33,217.98000000000002 L 545.67,217.48000000000002 L 545.67,218.87 L 545.67,220.25 L 545.67,221.61 L 545.67,222.96 L 545.67,224.3 L 545.67,225.62 L 545.67,226.93 L 545.67,228.22 L 549,227.70000000000002 L 549,228.98000000000002 L 549,230.24 L 549,231.5 L 549,232.74 L 549,233.98000000000002 L 549,235.20000000000002 L 549,236.41 L 549,237.6 L 549,238.79 L 549,239.97 L 549,241.13 L 552.33,240.58 L 552.33,241.73000000000002 L 552.33,242.87 L 552.33,244 L 552.33,245.12 L 552.33,246.23000000000002 L 552.33,247.33 L 552.33,248.42000000000002 L 552.33,249.51000000000002 L 552.33,250.58 L 552.33,251.64000000000001 L 552.33,252.70000000000002 L 552.33,253.74 L 552.33,254.78 L 552.33,255.8 L 552.33,256.82 L 552.33,257.83 L 555.67,257.24 L 555.67,258.24 L 555.67,259.23 L 555.67,260.21 L 555.67,261.19 L 555.67,262.15 L 555.67,263.11 L 555.67,264.06 L 555.67,265 L 555.67,265.94 L 555.67,266.87 L 555.67,267.79 L 555.67,268.7 L 555.67,269.6 L 555.67,270.5 L 555.67,271.39 L 555.67,272.27 L 555.67,273.15000000000003 L 555.67,274.02 L 555.67,274.88 L 555.67,275.74 L 555.67,276.59000000000003 L 555.67,277.43 L 555.67,278.27 L 559,277.65000000000003 L 559,278.48 L 559,279.31 L 559,280.12 L 559,280.93 L 559,281.74 L 559,282.53000000000003 L 559,283.33 L 559,284.11 L 559,284.89 L 559,285.67 L 559,286.44 L 559,287.2 L 559,287.96 L 559,288.71 L 559,289.45 L 559,290.2 L 559,290.93 L 559,291.66 L 559,292.39 L 559,293.11 L 559,293.82 L 559,294.53000000000003 L 559,295.24 L 559,295.94 L 559,296.63 L 559,297.32 L 559,298.01 L 559,298.69 L 559,299.36 L 559,300.03000000000003 L 559,300.7 L 559,301.36 L 559,302.02 L 559,302.67 L 559,303.32 L 559,303.97 L 559,304.61 L 559,305.24 L 559,305.87 L 559,306.5" stroke="#4682b4" stroke-width="2" fill="none" /><circle cx="515.67" cy="170.89000000000001" r="5" fill="#4682b4" stroke="#ffffff" stroke-width="1" /></g></svg>