<svg xmlns="http://www.w3.org/2000/svg" width="677.8000000000001" height="545" font-family="DejaVu Sans, Liberation Sans, Arial, sans-serif" fill="black"><rect width="100%" height="100%" fill="white" /><defs><clipPath id="kuva-clip-3"><rect x="63.800000000000004" y="44" width="600" height="450"/></clipPath></defs><line x1="63.800000000000004" y1="381.5" x2="663.8000000000001" y2="381.5" stroke="#cccccc" stroke-width="1" /><line x1="63.800000000000004" y1="269" x2="663.8000000000001" y2="269" stroke="#cccccc" stroke-width="1" /><line x1="63.800000000000004" y1="156.5" x2="663.8000000000001" y2="156.5" stroke="#cccccc" stroke-width="1" /><line x1="63.800000000000004" y1="44" x2="663.8000000000001" y2="44" stroke="#cccccc" stroke-width="1" /><line x1="63.800000000000004" y1="494" x2="663.8000000000001" y2="494" stroke="#000000" stroke-width="1" /><line x1="63.800000000000004" y1="44" x2="63.800000000000004" y2="494" stroke="#000000" stroke-width="1" /><text x="163.8" y="511" font-size="12" text-anchor="middle">Control</text><line x1="163.8" y1="494" x2="163.8" y2="499" stroke="#000000" stroke-width="1" /><text x="363.8" y="511" font-size="12" text-anchor="middle">Bimodal</text><line x1="363.8" y1="494" x2="363.8" y2="499" stroke="#000000" stroke-width="1" /><text x="563.8000000000001" y="511" font-size="12" text-anchor="middle">High-spread</text><line x1="563.8000000000001" y1="494" x2="563.8000000000001" y2="499" stroke="#000000" stroke-width="1" /><line x1="58.800000000000004" y1="494" x2="63.800000000000004" y2="494" stroke="#000000" stroke-width="1" /><text x="55.800000000000004" y="498.2" font-size="12" text-anchor="end">-5</text><line x1="58.800000000000004" y1="381.5" x2="63.800000000000004" y2="381.5" stroke="#000000" stroke-width="1" /><text x="55.800000000000004" y="385.7" font-size="12" text-anchor="end">0</text><line x1="58.800000000000004" y1="269" x2="63.800000000000004" y2="269" stroke="#000000" stroke-width="1" /><text x="55.800000000000004" y="273.2" font-size="12" text-anchor="end">5</text><line x1="58.800000000000004" y1="156.5" x2="63.800000000000004" y2="156.5" stroke="#000000" stroke-width="1" /><text x="55.800000000000004" y="160.70000000000002" font-size="12" text-anchor="end">10</text><line x1="58.800000000000004" y1="44" x2="63.800000000000004" y2="44" stroke="#000000" stroke-width="1" /><text x="55.800000000000004" y="48.2" font-size="12" text-anchor="end">15</text><text x="15" y="272.5" font-size="14" text-anchor="middle" transform="rotate(-90,15,272.5)">Value</text><text x="363.8" y="22" font-size="18" text-anchor="middle">Box + Strip</text><g clip-path="url(#kuva-clip-3)"><rect x="83.8" y="278.23" width="160" height="28.66" fill="#4682b4" /><line x1="83.8" y1="295.28000000000003" x2="243.8" y2="295.28000000000003" stroke="#ffffff" stroke-width="1.5" /><line x1="163.8" y1="349.27" x2="163.8" y2="306.89" stroke="#4682b4" stroke-width="1" /><line x1="163.8" y1="278.23" x2="163.8" y2="240.1" stroke="#4682b4" stroke-width="1" /><line x1="123.8" y1="349.27" x2="203.8" y2="349.27" stroke="#4682b4" stroke-width="1" /><line x1="123.8" y1="240.1" x2="203.8" y2="240.1" stroke="#4682b4" stroke-width="1" /><rect x="283.8" y="230.25" width="160" height="89.29" fill="#4682b4" /><line x1="283.8" y1="280.42" x2="443.8" y2="280.42" stroke="#ffffff" stroke-width="1.5" /><line x1="363.8" y1="360.44" x2="363.8" y2="319.53000000000003" stroke="#4682b4" stroke-width="1" /><line x1="363.8" y1="230.25" x2="363.8" y2="200.39000000000001" stroke="#4682b4" stroke-width="1" /><line x1="323.8" y1="360.44" x2="403.8" y2="360.44" stroke="#4682b4" stroke-width="1" /><line x1="323.8" y1="200.39000000000001" x2="403.8" y2="200.39000000000001" stroke="#4682b4" stroke-width="1" /><rect x="483.8" y="230.41" width="160" height="59.44" fill="#4682b4" /><line x1="483.8" y1="261.43" x2="643.8000000000001" y2="261.43" stroke="#ffffff" stroke-width="1.5" /><line x1="563.8000000000001" y1="353.53000000000003" x2="563.8000000000001" y2="289.85" stroke="#4682b4" stroke-width="1" /><line x1="563.8000000000001" y1="230.41" x2="563.8000000000001" y2="195.20000000000002" stroke="#4682b4" stroke-width="1" /><line x1="523.8" y1="353.53000000000003" x2="603.8000000000001" y2="353.53000000000003" stroke="#4682b4" stroke-width="1" /><line x1="523.8" y1="195.20000000000002" x2="603.8000000000001" y2="195.20000000000002" stroke="#4682b4" stroke-width="1" /><circle cx="178.19" cy="299.66" r="2.5" fill="rgba(0,0,0,0.3)" /><circle cx="174.58" cy="306.88" r="2.5" fill="rgba(0,0,0,0.3)" /><circle cx="181.31" cy="331.53000000000003" r="2.5" fill="rgba(0,0,0,0.3)" /><circle cx="147.61" cy="301.48" r="2.5" fill="rgba(0,0,0,0.3)" /><circle cx="159.19" cy="261.69" r="2.5" fill="rgba(0,0,0,0.3)" /><circle cx="148.02" cy="293.15000000000003" r="2.5" fill="rgba(0,0,0,0.3)" /><circle cx="144.43" cy="281.14" r="2.5" fill="rgba(0,0,0,0.3)" /><circle cx="155.5" cy="301.23" r="2.5" fill="rgba(0,0,0,0.3)" /><circle cx="162.58" cy="305.95" r="2.5" fill="rgba(0,0,0,0.3)" /><circle cx="177.56" cy="349.27" r="2.5" fill="rgba(0,0,0,0.3)" /><circle cx="147.02" cy="301.07" r="2.5" fill="rgba(0,0,0,0.3)" /><circle cx="179.06" cy="301.57" r="2.5" fill="rgba(0,0,0,0.3)" /><circle cx="144.84" cy="302.16" r="2.5" fill="rgba(0,0,0,0.3)" /><circle cx="157.48" cy="300.76" r="2.5" fill="rgba(0,0,0,0.3)" /><circle cx="163.16" cy="262.12" r="2.5" fill="rgba(0,0,0,0.3)" /><circle cx="165.99" cy="306.84000000000003" r="2.5" fill="rgba(0,0,0,0.3)" /><circle cx="162.02" cy="300.65000000000003" r="2.5" fill="rgba(0,0,0,0.3)" /><circle cx="179.07" cy="240.1" r="2.5" fill="rgba(0,0,0,0.3)" /><circle cx="167.64000000000001" cy="274.43" r="2.5" fill="rgba(0,0,0,0.3)" /><circle cx="179.14000000000001" cy="263.67" r="2.5" fill="rgba(0,0,0,0.3)" /><circle cx="154.63" cy="328.26" r="2.5" fill="rgba(0,0,0,0.3)" /><circle cx="152.05" cy="292.69" r="2.5" fill="rgba(0,0,0,0.3)" /><circle cx="178.49" cy="246.05" r="2.5" fill="rgba(0,0,0,0.3)" /><circle cx="144.42000000000002" cy="287.34000000000003" r="2.5" fill="rgba(0,0,0,0.3)" /><circle cx="164.29" cy="285.24" r="2.5" fill="rgba(0,0,0,0.3)" /><circle cx="167.85" cy="314.13" r="2.5" fill="rgba(0,0,0,0.3)" /><circle cx="166.85" cy="259.81" r="2.5" fill="rgba(0,0,0,0.3)" /><circle cx="158.42000000000002" cy="310.6" r="2.5" fill="rgba(0,0,0,0.3)" /><circle cx="163.66" cy="283.92" r="2.5" fill="rgba(0,0,0,0.3)" /><circle cx="162.82" cy="247.03" r="2.5" fill="rgba(0,0,0,0.3)" /><circle cx="147.19" cy="262.87" r="2.5" fill="rgba(0,0,0,0.3)" /><circle cx="159.04" cy="338.78000000000003" r="2.5" fill="rgba(0,0,0,0.3)" /><circle cx="145.02" cy="278.85" r="2.5" fill="rgba(0,0,0,0.3)" /><circle cx="155.26" cy="300.34000000000003" r="2.5" fill="rgba(0,0,0,0.3)" /><circle cx="172.51" cy="315.01" r="2.5" fill="rgba(0,0,0,0.3)" /><circle cx="162.53" cy="305.05" r="2.5" fill="rgba(0,0,0,0.3)" /><circle cx="168.83" cy="251.54" r="2.5" fill="rgba(0,0,0,0.3)" /><circle cx="179.96" cy="261.79" r="2.5" fill="rgba(0,0,0,0.3)" /><circle cx="155.05" cy="283.97" r="2.5" fill="rgba(0,0,0,0.3)" /><circle cx="147.24" cy="229.59" r="2.5" fill="rgba(0,0,0,0.3)" /><circle cx="155.44" cy="262.34000000000003" r="2.5" fill="rgba(0,0,0,0.3)" /><circle cx="168.9" cy="357.47" r="2.5" fill="rgba(0,0,0,0.3)" /><circle cx="156.43" cy="343.87" r="2.5" fill="rgba(0,0,0,0.3)" /><circle cx="176.8" cy="255.38" r="2.5" fill="rgba(0,0,0,0.3)" /><circle cx="155.68" cy="322.82" r="2.5" fill="rgba(0,0,0,0.3)" /><circle cx="161.72" cy="298.38" r="2.5" fill="rgba(0,0,0,0.3)" /><circle cx="157.3" cy="324.97" r="2.5" fill="rgba(0,0,0,0.3)" /><circle cx="154.35" cy="304.94" r="2.5" fill="rgba(0,0,0,0.3)" /><circle cx="151.39000000000001" cy="296.3" r="2.5" fill="rgba(0,0,0,0.3)" /><circle cx="152.82" cy="323.91" r="2.5" fill="rgba(0,0,0,0.3)" /><circle cx="156.46" cy="276.37" r="2.5" fill="rgba(0,0,0,0.3)" /><circle cx="176.55" cy="319.98" r="2.5" fill="rgba(0,0,0,0.3)" /><circle cx="146.92000000000002" cy="295.39" r="2.5" fill="rgba(0,0,0,0.3)" /><circle cx="166.04" cy="275.37" r="2.5" fill="rgba(0,0,0,0.3)" /><circle cx="154.92000000000002" cy="304.73" r="2.5" fill="rgba(0,0,0,0.3)" /><circle cx="168.87" cy="284.75" r="2.5" fill="rgba(0,0,0,0.3)" /><circle cx="145.22" cy="284.04" r="2.5" fill="rgba(0,0,0,0.3)" /><circle cx="162.25" cy="314.39" r="2.5" fill="rgba(0,0,0,0.3)" /><circle cx="181.63" cy="288.93" r="2.5" fill="rgba(0,0,0,0.3)" /><circle cx="161.79" cy="306.93" r="2.5" fill="rgba(0,0,0,0.3)" /><circle cx="144.34" cy="268.98" r="2.5" fill="rgba(0,0,0,0.3)" /><circle cx="163.54" cy="295.18" r="2.5" fill="rgba(0,0,0,0.3)" /><circle cx="146.4" cy="308.51" r="2.5" fill="rgba(0,0,0,0.3)" /><circle cx="180.05" cy="313.16" r="2.5" fill="rgba(0,0,0,0.3)" /><circle cx="175.16" cy="281.33" r="2.5" fill="rgba(0,0,0,0.3)" /><circle cx="173.91" cy="269.96" r="2.5" fill="rgba(0,0,0,0.3)" /><circle cx="161.25" cy="279.26" r="2.5" fill="rgba(0,0,0,0.3)" /><circle cx="153.72" cy="301.67" r="2.5" fill="rgba(0,0,0,0.3)" /><circle cx="150.9" cy="279.73" r="2.5" fill="rgba(0,0,0,0.3)" /><circle cx="179.26" cy="286.43" r="2.5" fill="rgba(0,0,0,0.3)" /><circle cx="178.08" cy="254.16" r="2.5" fill="rgba(0,0,0,0.3)" /><circle cx="164.43" cy="301.25" r="2.5" fill="rgba(0,0,0,0.3)" /><circle cx="177.73" cy="314.69" r="2.5" fill="rgba(0,0,0,0.3)" /><circle cx="156.8" cy="311.78000000000003" r="2.5" fill="rgba(0,0,0,0.3)" /><circle cx="154.72" cy="290.29" r="2.5" fill="rgba(0,0,0,0.3)" /><circle cx="163.15" cy="254.12" r="2.5" fill="rgba(0,0,0,0.3)" /><circle cx="166.75" cy="286.86" r="2.5" fill="rgba(0,0,0,0.3)" /><circle cx="167.45000000000002" cy="281.37" r="2.5" fill="rgba(0,0,0,0.3)" /><circle cx="180.16" cy="282.34000000000003" r="2.5" fill="rgba(0,0,0,0.3)" /><circle cx="151.75" cy="309.97" r="2.5" fill="rgba(0,0,0,0.3)" /><circle cx="378.19" cy="360.44" r="2.5" fill="rgba(0,0,0,0.3)" /><circle cx="377.08" cy="307.52" r="2.5" fill="rgba(0,0,0,0.3)" /><circle cx="360.53000000000003" cy="321.12" r="2.5" fill="rgba(0,0,0,0.3)" /><circle cx="380.86" cy="290.39" r="2.5" fill="rgba(0,0,0,0.3)" /><circle cx="379.5" cy="306.42" r="2.5" fill="rgba(0,0,0,0.3)" /><circle cx="380.94" cy="332.41" r="2.5" fill="rgba(0,0,0,0.3)" /><circle cx="369.79" cy="323.89" r="2.5" fill="rgba(0,0,0,0.3)" /><circle cx="365.83" cy="317.61" r="2.5" fill="rgba(0,0,0,0.3)" /><circle cx="344.6" cy="333.21" r="2.5" fill="rgba(0,0,0,0.3)" /><circle cx="370.62" cy="312.51" r="2.5" fill="rgba(0,0,0,0.3)" /><circle cx="345.1" cy="337.74" r="2.5" fill="rgba(0,0,0,0.3)" /><circle cx="346" cy="323.35" r="2.5" fill="rgba(0,0,0,0.3)" /><circle cx="355.14" cy="309.06" r="2.5" fill="rgba(0,0,0,0.3)" /><circle cx="374.95" cy="316.32" r="2.5" fill="rgba(0,0,0,0.3)" /><circle cx="381.67" cy="300.07" r="2.5" fill="rgba(0,0,0,0.3)" /><circle cx="354.05" cy="319.18" r="2.5" fill="rgba(0,0,0,0.3)" /><circle cx="361.22" cy="305.68" r="2.5" fill="rgba(0,0,0,0.3)" /><circle cx="355.19" cy="318.51" r="2.5" fill="rgba(0,0,0,0.3)" /><circle cx="367.31" cy="315.29" r="2.5" fill="rgba(0,0,0,0.3)" /><circle cx="366.8" cy="306.09000000000003" r="2.5" fill="rgba(0,0,0,0.3)" /><circle cx="372.45" cy="341.73" r="2.5" fill="rgba(0,0,0,0.3)" /><circle cx="361.34000000000003" cy="318.27" r="2.5" fill="rgba(0,0,0,0.3)" /><circle cx="383.08" cy="354.15000000000003" r="2.5" fill="rgba(0,0,0,0.3)" /><circle cx="359.97" cy="310.55" r="2.5" fill="rgba(0,0,0,0.3)" /><circle cx="353.84000000000003" cy="322.03000000000003" r="2.5" fill="rgba(0,0,0,0.3)" /><circle cx="360.58" cy="336.57" r="2.5" fill="rgba(0,0,0,0.3)" /><circle cx="378.59000000000003" cy="333.01" r="2.5" fill="rgba(0,0,0,0.3)" /><circle cx="360.2" cy="318.34000000000003" r="2.5" fill="rgba(0,0,0,0.3)" /><circle cx="350.93" cy="307.55" r="2.5" fill="rgba(0,0,0,0.3)" /><circle cx="349.22" cy="323.98" r="2.5" fill="rgba(0,0,0,0.3)" /><circle cx="373.26" cy="328.95" r="2.5" fill="rgba(0,0,0,0.3)" /><circle cx="365.39" cy="340.97" r="2.5" fill="rgba(0,0,0,0.3)" /><circle cx="352.34000000000003" cy="329.23" r="2.5" fill="rgba(0,0,0,0.3)" /><circle cx="362.12" cy="298.21" r="2.5" fill="rgba(0,0,0,0.3)" /><circle cx="345.24" cy="320.6" r="2.5" fill="rgba(0,0,0,0.3)" /><circle cx="383.3" cy="347.88" r="2.5" fill="rgba(0,0,0,0.3)" /><circle cx="370.31" cy="335.84000000000003" r="2.5" fill="rgba(0,0,0,0.3)" /><circle cx="344.42" cy="314.79" r="2.5" fill="rgba(0,0,0,0.3)" /><circle cx="381.03000000000003" cy="344.48" r="2.5" fill="rgba(0,0,0,0.3)" /><circle cx="349.89" cy="315.99" r="2.5" fill="rgba(0,0,0,0.3)" /><circle cx="360.62" cy="270.44" r="2.5" fill="rgba(0,0,0,0.3)" /><circle cx="360.62" cy="217.52" r="2.5" fill="rgba(0,0,0,0.3)" /><circle cx="358.97" cy="231.12" r="2.5" fill="rgba(0,0,0,0.3)" /><circle cx="367.71" cy="200.39000000000001" r="2.5" fill="rgba(0,0,0,0.3)" /><circle cx="369.69" cy="216.42000000000002" r="2.5" fill="rgba(0,0,0,0.3)" /><circle cx="365.2" cy="242.41" r="2.5" fill="rgba(0,0,0,0.3)" /><circle cx="361.02" cy="233.89000000000001" r="2.5" fill="rgba(0,0,0,0.3)" /><circle cx="355.68" cy="227.61" r="2.5" fill="rgba(0,0,0,0.3)" /><circle cx="381.27" cy="243.21" r="2.5" fill="rgba(0,0,0,0.3)" /><circle cx="365.22" cy="222.51" r="2.5" fill="rgba(0,0,0,0.3)" /><circle cx="357.57" cy="247.74" r="2.5" fill="rgba(0,0,0,0.3)" /><circle cx="368.7" cy="233.35" r="2.5" fill="rgba(0,0,0,0.3)" /><circle cx="351.01" cy="219.06" r="2.5" fill="rgba(0,0,0,0.3)" /><circle cx="379.37" cy="226.32" r="2.5" fill="rgba(0,0,0,0.3)" /><circle cx="378.8" cy="210.07" r="2.5" fill="rgba(0,0,0,0.3)" /><circle cx="374.89" cy="229.18" r="2.5" fill="rgba(0,0,0,0.3)" /><circle cx="377.12" cy="215.68" r="2.5" fill="rgba(0,0,0,0.3)" /><circle cx="358.61" cy="228.51" r="2.5" fill="rgba(0,0,0,0.3)" /><circle cx="344.85" cy="225.29" r="2.5" fill="rgba(0,0,0,0.3)" /><circle cx="352.71" cy="216.09" r="2.5" fill="rgba(0,0,0,0.3)" /><circle cx="368.39" cy="251.73000000000002" r="2.5" fill="rgba(0,0,0,0.3)" /><circle cx="344.76" cy="228.27" r="2.5" fill="rgba(0,0,0,0.3)" /><circle cx="348.02" cy="264.15" r="2.5" fill="rgba(0,0,0,0.3)" /><circle cx="374.89" cy="220.55" r="2.5" fill="rgba(0,0,0,0.3)" /><circle cx="360.16" cy="232.03" r="2.5" fill="rgba(0,0,0,0.3)" /><circle cx="380.62" cy="246.57" r="2.5" fill="rgba(0,0,0,0.3)" /><circle cx="348.71" cy="243.01" r="2.5" fill="rgba(0,0,0,0.3)" /><circle cx="371.28000000000003" cy="228.34" r="2.5" fill="rgba(0,0,0,0.3)" /><circle cx="379.39" cy="217.55" r="2.5" fill="rgba(0,0,0,0.3)" /><circle cx="372.58" cy="233.98000000000002" r="2.5" fill="rgba(0,0,0,0.3)" /><circle cx="382.95" cy="238.95000000000002" r="2.5" fill="rgba(0,0,0,0.3)" /><circle cx="383.58" cy="250.97" r="2.5" fill="rgba(0,0,0,0.3)" /><circle cx="376.40000000000003" cy="239.23000000000002" r="2.5" fill="rgba(0,0,0,0.3)" /><circle cx="382.15000000000003" cy="208.21" r="2.5" fill="rgba(0,0,0,0.3)" /><circle cx="365.99" cy="230.6" r="2.5" fill="rgba(0,0,0,0.3)" /><circle cx="368.98" cy="257.88" r="2.5" fill="rgba(0,0,0,0.3)" /><circle cx="356.7" cy="245.84" r="2.5" fill="rgba(0,0,0,0.3)" /><circle cx="373.17" cy="224.79" r="2.5" fill="rgba(0,0,0,0.3)" /><circle cx="349.36" cy="254.48000000000002" r="2.5" fill="rgba(0,0,0,0.3)" /><circle cx="367.09000000000003" cy="225.99" r="2.5" fill="rgba(0,0,0,0.3)" /><circle cx="578.19" cy="216.63" r="2.5" fill="rgba(0,0,0,0.3)" /><circle cx="569.58" cy="281.72" r="2.5" fill="rgba(0,0,0,0.3)" /><circle cx="570.41" cy="225.72" r="2.5" fill="rgba(0,0,0,0.3)" /><circle cx="567.16" cy="263.52" r="2.5" fill="rgba(0,0,0,0.3)" /><circle cx="566.6" cy="195.9" r="2.5" fill="rgba(0,0,0,0.3)" /><circle cx="558.17" cy="223.20000000000002" r="2.5" fill="rgba(0,0,0,0.3)" /><circle cx="581.13" cy="208.1" r="2.5" fill="rgba(0,0,0,0.3)" /><circle cx="550.12" cy="312.31" r="2.5" fill="rgba(0,0,0,0.3)" /><circle cx="576.75" cy="296.12" r="2.5" fill="rgba(0,0,0,0.3)" /><circle cx="579.62" cy="218.23000000000002" r="2.5" fill="rgba(0,0,0,0.3)" /><circle cx="583.37" cy="279" r="2.5" fill="rgba(0,0,0,0.3)" /><circle cx="574.3000000000001" cy="280.22" r="2.5" fill="rgba(0,0,0,0.3)" /><circle cx="579.34" cy="287.59000000000003" r="2.5" fill="rgba(0,0,0,0.3)" /><circle cx="551.47" cy="276.95" r="2.5" fill="rgba(0,0,0,0.3)" /><circle cx="565.69" cy="214.32" r="2.5" fill="rgba(0,0,0,0.3)" /><circle cx="578.1" cy="232.98000000000002" r="2.5" fill="rgba(0,0,0,0.3)" /><circle cx="550.83" cy="248.23000000000002" r="2.5" fill="rgba(0,0,0,0.3)" /><circle cx="573.08" cy="250.88" r="2.5" fill="rgba(0,0,0,0.3)" /><circle cx="548.34" cy="291.87" r="2.5" fill="rgba(0,0,0,0.3)" /><circle cx="553.33" cy="258.35" r="2.5" fill="rgba(0,0,0,0.3)" /><circle cx="553.65" cy="282.93" r="2.5" fill="rgba(0,0,0,0.3)" /><circle cx="569.95" cy="294.31" r="2.5" fill="rgba(0,0,0,0.3)" /><circle cx="545.6" cy="204.8" r="2.5" fill="rgba(0,0,0,0.3)" /><circle cx="549.91" cy="228.65" r="2.5" fill="rgba(0,0,0,0.3)" /><circle cx="576.99" cy="304.36" r="2.5" fill="rgba(0,0,0,0.3)" /><circle cx="576.4" cy="266.18" r="2.5" fill="rgba(0,0,0,0.3)" /><circle cx="559.11" cy="270.84000000000003" r="2.5" fill="rgba(0,0,0,0.3)" /><circle cx="571.41" cy="219.81" r="2.5" fill="rgba(0,0,0,0.3)" /><circle cx="577.39" cy="259.93" r="2.5" fill="rgba(0,0,0,0.3)" /><circle cx="570.72" cy="292.88" r="2.5" fill="rgba(0,0,0,0.3)" /><circle cx="577.21" cy="329.88" r="2.5" fill="rgba(0,0,0,0.3)" /><circle cx="557.52" cy="220.71" r="2.5" fill="rgba(0,0,0,0.3)" /><circle cx="548.84" cy="233.39000000000001" r="2.5" fill="rgba(0,0,0,0.3)" /><circle cx="580.86" cy="201.95000000000002" r="2.5" fill="rgba(0,0,0,0.3)" /><circle cx="582.42" cy="307.71" r="2.5" fill="rgba(0,0,0,0.3)" /><circle cx="578.09" cy="251.14000000000001" r="2.5" fill="rgba(0,0,0,0.3)" /><circle cx="563.61" cy="353.53000000000003" r="2.5" fill="rgba(0,0,0,0.3)" /><circle cx="563.79" cy="312.23" r="2.5" fill="rgba(0,0,0,0.3)" /><circle cx="552.3000000000001" cy="289.17" r="2.5" fill="rgba(0,0,0,0.3)" /><circle cx="567.45" cy="327.96" r="2.5" fill="rgba(0,0,0,0.3)" /><circle cx="564.24" cy="257.07" r="2.5" fill="rgba(0,0,0,0.3)" /><circle cx="556.83" cy="237.14000000000001" r="2.5" fill="rgba(0,0,0,0.3)" /><circle cx="559.98" cy="310.14" r="2.5" fill="rgba(0,0,0,0.3)" /><circle cx="550.87" cy="231" r="2.5" fill="rgba(0,0,0,0.3)" /><circle cx="579.42" cy="298.67" r="2.5" fill="rgba(0,0,0,0.3)" /><circle cx="546.25" cy="320.03000000000003" r="2.5" fill="rgba(0,0,0,0.3)" /><circle cx="561.27" cy="268.09000000000003" r="2.5" fill="rgba(0,0,0,0.3)" /><circle cx="545.7" cy="297.82" r="2.5" fill="rgba(0,0,0,0.3)" /><circle cx="544.3" cy="327.74" r="2.5" fill="rgba(0,0,0,0.3)" /><circle cx="544.52" cy="228.39000000000001" r="2.5" fill="rgba(0,0,0,0.3)" /><circle cx="564.15" cy="326.66" r="2.5" fill="rgba(0,0,0,0.3)" /><circle cx="582.6" cy="288.88" r="2.5" fill="rgba(0,0,0,0.3)" /><circle cx="553.4300000000001" cy="260.57" r="2.5" fill="rgba(0,0,0,0.3)" /><circle cx="562.0600000000001" cy="256.52" r="2.5" fill="rgba(0,0,0,0.3)" /><circle cx="579.25" cy="263.04" r="2.5" fill="rgba(0,0,0,0.3)" /><circle cx="546.94" cy="285.44" r="2.5" fill="rgba(0,0,0,0.3)" /><circle cx="556.23" cy="248.05" r="2.5" fill="rgba(0,0,0,0.3)" /><circle cx="551.74" cy="206.87" r="2.5" fill="rgba(0,0,0,0.3)" /><circle cx="563.53" cy="277.04" r="2.5" fill="rgba(0,0,0,0.3)" /><circle cx="553.25" cy="254.70000000000002" r="2.5" fill="rgba(0,0,0,0.3)" /><circle cx="569.67" cy="200.84" r="2.5" fill="rgba(0,0,0,0.3)" /><circle cx="579.33" cy="349.86" r="2.5" fill="rgba(0,0,0,0.3)" /><circle cx="553.48" cy="249.57" r="2.5" fill="rgba(0,0,0,0.3)" /><circle cx="565.58" cy="195.20000000000002" r="2.5" fill="rgba(0,0,0,0.3)" /><circle cx="577.29" cy="255.21" r="2.5" fill="rgba(0,0,0,0.3)" /><circle cx="559.09" cy="233.73000000000002" r="2.5" fill="rgba(0,0,0,0.3)" /><circle cx="583.16" cy="240.41" r="2.5" fill="rgba(0,0,0,0.3)" /><circle cx="568.58" cy="208.57" r="2.5" fill="rgba(0,0,0,0.3)" /><circle cx="578.7" cy="223.81" r="2.5" fill="rgba(0,0,0,0.3)" /><circle cx="576.4300000000001" cy="204.91" r="2.5" fill="rgba(0,0,0,0.3)" /><circle cx="580.08" cy="263.07" r="2.5" fill="rgba(0,0,0,0.3)" /><circle cx="581.98" cy="261.66" r="2.5" fill="rgba(0,0,0,0.3)" /><circle cx="555.69" cy="305.45" r="2.5" fill="rgba(0,0,0,0.3)" /><circle cx="555.25" cy="261.21" r="2.5" fill="rgba(0,0,0,0.3)" /><circle cx="570.63" cy="240.97" r="2.5" fill="rgba(0,0,0,0.3)" /><circle cx="552.28" cy="270.71" r="2.5" fill="rgba(0,0,0,0.3)" /><circle cx="578.4300000000001" cy="277.40000000000003" r="2.5" fill="rgba(0,0,0,0.3)" /><circle cx="543.99" cy="295.91" r="2.5" fill="rgba(0,0,0,0.3)" /><circle cx="577.9300000000001" cy="268.49" r="2.5" fill="rgba(0,0,0,0.3)" /><circle cx="561.26" cy="217.20000000000002" r="2.5" fill="rgba(0,0,0,0.3)" /></g></svg>