<svg xmlns="http://www.w3.org/2000/svg" width="686.2" height="545" font-family="DejaVu Sans, Liberation Sans, Arial, sans-serif" fill="black"><rect width="100%" height="100%" fill="white" /><line x1="72.2" y1="494" x2="672.2" y2="494" stroke="#000000" stroke-width="1" /><line x1="72.2" y1="44" x2="72.2" y2="494" stroke="#000000" stroke-width="1" /><line x1="72.2" y1="381.5" x2="672.2" y2="381.5" stroke="#cccccc" stroke-width="1" /><line x1="72.2" y1="269" x2="672.2" y2="269" stroke="#cccccc" stroke-width="1" /><line x1="72.2" y1="156.5" x2="672.2" y2="156.5" stroke="#cccccc" stroke-width="1" /><line x1="72.2" y1="44" x2="672.2" y2="44" stroke="#cccccc" stroke-width="1" /><text x="172.20000000000002" y="511" font-size="12" text-anchor="middle">Control</text><line x1="172.20000000000002" y1="494" x2="172.20000000000002" y2="499" stroke="#000000" stroke-width="1" /><text x="372.2" y="511" font-size="12" text-anchor="middle">Bimodal</text><line x1="372.2" y1="494" x2="372.2" y2="499" stroke="#000000" stroke-width="1" /><text x="572.2" y="511" font-size="12" text-anchor="middle">High-spread</text><line x1="572.2" y1="494" x2="572.2" y2="499" stroke="#000000" stroke-width="1" /><line x1="67.2" y1="494" x2="72.2" y2="494" stroke="#000000" stroke-width="1" /><text x="64.2" y="498.2" font-size="12" text-anchor="end">-5</text><line x1="67.2" y1="381.5" x2="72.2" y2="381.5" stroke="#000000" stroke-width="1" /><text x="64.2" y="385.7" font-size="12" text-anchor="end">0</text><line x1="67.2" y1="269" x2="72.2" y2="269" stroke="#000000" stroke-width="1" /><text x="64.2" y="273.2" font-size="12" text-anchor="end">5</text><line x1="67.2" y1="156.5" x2="72.2" y2="156.5" stroke="#000000" stroke-width="1" /><text x="64.2" y="160.70000000000002" font-size="12" text-anchor="end">10</text><line x1="67.2" y1="44" x2="72.2" y2="44" stroke="#000000" stroke-width="1" /><text x="64.2" y="48.2" font-size="12" text-anchor="end">15</text><text x="7" y="272.5" font-size="14" text-anchor="middle" transform="rotate(-90,7,272.5)">Value</text><text x="372.2" y="22" font-size="18" text-anchor="middle">Box + Strip</text><rect x="92.2" y="278.23" width="160" height="28.66" fill="#4682b4" /><line x1="92.2" y1="295.28000000000003" x2="252.20000000000002" y2="295.28000000000003" stroke="#ffffff" stroke-width="1.5" /><line x1="172.20000000000002" y1="349.27" x2="172.20000000000002" y2="306.89" stroke="#4682b4" stroke-width="1" /><line x1="172.20000000000002" y1="278.23" x2="172.20000000000002" y2="240.1" stroke="#4682b4" stroke-width="1" /><line x1="132.2" y1="349.27" x2="212.20000000000002" y2="349.27" stroke="#4682b4" stroke-width="1" /><line x1="132.2" y1="240.1" x2="212.20000000000002" y2="240.1" stroke="#4682b4" stroke-width="1" /><rect x="292.2" y="230.25" width="160" height="89.29" fill="#4682b4" /><line x1="292.2" y1="280.42" x2="452.2" y2="280.42" stroke="#ffffff" stroke-width="1.5" /><line x1="372.2" y1="360.44" x2="372.2" y2="319.53000000000003" stroke="#4682b4" stroke-width="1" /><line x1="372.2" y1="230.25" x2="372.2" y2="200.39000000000001" stroke="#4682b4" stroke-width="1" /><line x1="332.2" y1="360.44" x2="412.2" y2="360.44" stroke="#4682b4" stroke-width="1" /><line x1="332.2" y1="200.39000000000001" x2="412.2" y2="200.39000000000001" stroke="#4682b4" stroke-width="1" /><rect x="492.2" y="230.41" width="160" height="59.44" fill="#4682b4" /><line x1="492.2" y1="261.43" x2="652.2" y2="261.43" stroke="#ffffff" stroke-width="1.5" /><line x1="572.2" y1="353.53000000000003" x2="572.2" y2="289.85" stroke="#4682b4" stroke-width="1" /><line x1="572.2" y1="230.41" x2="572.2" y2="195.20000000000002" stroke="#4682b4" stroke-width="1" /><line x1="532.2" y1="353.53000000000003" x2="612.2" y2="353.53000000000003" stroke="#4682b4" stroke-width="1" /><line x1="532.2" y1="195.20000000000002" x2="612.2" y2="195.20000000000002" stroke="#4682b4" stroke-width="1" /><circle cx="186.59" cy="299.66" r="2.5" fill="rgba(0,0,0,0.3)" /><circle cx="182.98" cy="306.88" r="2.5" fill="rgba(0,0,0,0.3)" /><circle cx="189.71" cy="331.53000000000003" r="2.5" fill="rgba(0,0,0,0.3)" /><circle cx="156.01" cy="301.48" r="2.5" fill="rgba(0,0,0,0.3)" /><circle cx="167.59" cy="261.69" r="2.5" fill="rgba(0,0,0,0.3)" /><circle cx="156.42000000000002" cy="293.15000000000003" r="2.5" fill="rgba(0,0,0,0.3)" /><circle cx="152.83" cy="281.14" r="2.5" fill="rgba(0,0,0,0.3)" /><circle cx="163.9" cy="301.23" r="2.5" fill="rgba(0,0,0,0.3)" /><circle cx="170.98" cy="305.95" r="2.5" fill="rgba(0,0,0,0.3)" /><circle cx="185.96" cy="349.27" r="2.5" fill="rgba(0,0,0,0.3)" /><circle cx="155.42000000000002" cy="301.07" r="2.5" fill="rgba(0,0,0,0.3)" /><circle cx="187.46" cy="301.57" r="2.5" fill="rgba(0,0,0,0.3)" /><circle cx="153.24" cy="302.16" r="2.5" fill="rgba(0,0,0,0.3)" /><circle cx="165.88" cy="300.76" r="2.5" fill="rgba(0,0,0,0.3)" /><circle cx="171.56" cy="262.12" r="2.5" fill="rgba(0,0,0,0.3)" /><circle cx="174.39000000000001" cy="306.84000000000003" r="2.5" fill="rgba(0,0,0,0.3)" /><circle cx="170.42000000000002" cy="300.65000000000003" r="2.5" fill="rgba(0,0,0,0.3)" /><circle cx="187.47" cy="240.1" r="2.5" fill="rgba(0,0,0,0.3)" /><circle cx="176.04" cy="274.43" r="2.5" fill="rgba(0,0,0,0.3)" /><circle cx="187.54" cy="263.67" r="2.5" fill="rgba(0,0,0,0.3)" /><circle cx="163.03" cy="328.26" r="2.5" fill="rgba(0,0,0,0.3)" /><circle cx="160.45000000000002" cy="292.69" r="2.5" fill="rgba(0,0,0,0.3)" /><circle cx="186.89000000000001" cy="246.05" r="2.5" fill="rgba(0,0,0,0.3)" /><circle cx="152.82" cy="287.34000000000003" r="2.5" fill="rgba(0,0,0,0.3)" /><circle cx="172.69" cy="285.24" r="2.5" fill="rgba(0,0,0,0.3)" /><circle cx="176.25" cy="314.13" r="2.5" fill="rgba(0,0,0,0.3)" /><circle cx="175.25" cy="259.81" r="2.5" fill="rgba(0,0,0,0.3)" /><circle cx="166.82" cy="310.6" r="2.5" fill="rgba(0,0,0,0.3)" /><circle cx="172.06" cy="283.92" r="2.5" fill="rgba(0,0,0,0.3)" /><circle cx="171.22" cy="247.03" r="2.5" fill="rgba(0,0,0,0.3)" /><circle cx="155.59" cy="262.87" r="2.5" fill="rgba(0,0,0,0.3)" /><circle cx="167.44" cy="338.78000000000003" r="2.5" fill="rgba(0,0,0,0.3)" /><circle cx="153.42000000000002" cy="278.85" r="2.5" fill="rgba(0,0,0,0.3)" /><circle cx="163.66" cy="300.34000000000003" r="2.5" fill="rgba(0,0,0,0.3)" /><circle cx="180.91" cy="315.01" r="2.5" fill="rgba(0,0,0,0.3)" /><circle cx="170.93" cy="305.05" r="2.5" fill="rgba(0,0,0,0.3)" /><circle cx="177.23" cy="251.54" r="2.5" fill="rgba(0,0,0,0.3)" /><circle cx="188.36" cy="261.79" r="2.5" fill="rgba(0,0,0,0.3)" /><circle cx="163.45000000000002" cy="283.97" r="2.5" fill="rgba(0,0,0,0.3)" /><circle cx="155.64000000000001" cy="229.59" r="2.5" fill="rgba(0,0,0,0.3)" /><circle cx="163.84" cy="262.34000000000003" r="2.5" fill="rgba(0,0,0,0.3)" /><circle cx="177.3" cy="357.47" r="2.5" fill="rgba(0,0,0,0.3)" /><circle cx="164.83" cy="343.87" r="2.5" fill="rgba(0,0,0,0.3)" /><circle cx="185.20000000000002" cy="255.38" r="2.5" fill="rgba(0,0,0,0.3)" /><circle cx="164.08" cy="322.82" r="2.5" fill="rgba(0,0,0,0.3)" /><circle cx="170.12" cy="298.38" r="2.5" fill="rgba(0,0,0,0.3)" /><circle cx="165.70000000000002" cy="324.97" r="2.5" fill="rgba(0,0,0,0.3)" /><circle cx="162.75" cy="304.94" r="2.5" fill="rgba(0,0,0,0.3)" /><circle cx="159.79" cy="296.3" r="2.5" fill="rgba(0,0,0,0.3)" /><circle cx="161.22" cy="323.91" r="2.5" fill="rgba(0,0,0,0.3)" /><circle cx="164.86" cy="276.37" r="2.5" fill="rgba(0,0,0,0.3)" /><circle cx="184.95000000000002" cy="319.98" r="2.5" fill="rgba(0,0,0,0.3)" /><circle cx="155.32" cy="295.39" r="2.5" fill="rgba(0,0,0,0.3)" /><circle cx="174.44" cy="275.37" r="2.5" fill="rgba(0,0,0,0.3)" /><circle cx="163.32" cy="304.73" r="2.5" fill="rgba(0,0,0,0.3)" /><circle cx="177.27" cy="284.75" r="2.5" fill="rgba(0,0,0,0.3)" /><circle cx="153.62" cy="284.04" r="2.5" fill="rgba(0,0,0,0.3)" /><circle cx="170.65" cy="314.39" r="2.5" fill="rgba(0,0,0,0.3)" /><circle cx="190.03" cy="288.93" r="2.5" fill="rgba(0,0,0,0.3)" /><circle cx="170.19" cy="306.93" r="2.5" fill="rgba(0,0,0,0.3)" /><circle cx="152.74" cy="268.98" r="2.5" fill="rgba(0,0,0,0.3)" /><circle cx="171.94" cy="295.18" r="2.5" fill="rgba(0,0,0,0.3)" /><circle cx="154.8" cy="308.51" r="2.5" fill="rgba(0,0,0,0.3)" /><circle cx="188.45000000000002" cy="313.16" r="2.5" fill="rgba(0,0,0,0.3)" /><circle cx="183.56" cy="281.33" r="2.5" fill="rgba(0,0,0,0.3)" /><circle cx="182.31" cy="269.96" r="2.5" fill="rgba(0,0,0,0.3)" /><circle cx="169.65" cy="279.26" r="2.5" fill="rgba(0,0,0,0.3)" /><circle cx="162.12" cy="301.67" r="2.5" fill="rgba(0,0,0,0.3)" /><circle cx="159.3" cy="279.73" r="2.5" fill="rgba(0,0,0,0.3)" /><circle cx="187.66" cy="286.43" r="2.5" fill="rgba(0,0,0,0.3)" /><circle cx="186.48" cy="254.16" r="2.5" fill="rgba(0,0,0,0.3)" /><circle cx="172.83" cy="301.25" r="2.5" fill="rgba(0,0,0,0.3)" /><circle cx="186.13" cy="314.69" r="2.5" fill="rgba(0,0,0,0.3)" /><circle cx="165.20000000000002" cy="311.78000000000003" r="2.5" fill="rgba(0,0,0,0.3)" /><circle cx="163.12" cy="290.29" r="2.5" fill="rgba(0,0,0,0.3)" /><circle cx="171.55" cy="254.12" r="2.5" fill="rgba(0,0,0,0.3)" /><circle cx="175.15" cy="286.86" r="2.5" fill="rgba(0,0,0,0.3)" /><circle cx="175.85" cy="281.37" r="2.5" fill="rgba(0,0,0,0.3)" /><circle cx="188.56" cy="282.34000000000003" r="2.5" fill="rgba(0,0,0,0.3)" /><circle cx="160.15" cy="309.97" r="2.5" fill="rgba(0,0,0,0.3)" /><circle cx="386.59000000000003" cy="360.44" r="2.5" fill="rgba(0,0,0,0.3)" /><circle cx="385.48" cy="307.52" r="2.5" fill="rgba(0,0,0,0.3)" /><circle cx="368.93" cy="321.12" r="2.5" fill="rgba(0,0,0,0.3)" /><circle cx="389.26" cy="290.39" r="2.5" fill="rgba(0,0,0,0.3)" /><circle cx="387.90000000000003" cy="306.42" r="2.5" fill="rgba(0,0,0,0.3)" /><circle cx="389.34000000000003" cy="332.41" r="2.5" fill="rgba(0,0,0,0.3)" /><circle cx="378.19" cy="323.89" r="2.5" fill="rgba(0,0,0,0.3)" /><circle cx="374.23" cy="317.61" r="2.5" fill="rgba(0,0,0,0.3)" /><circle cx="353" cy="333.21" r="2.5" fill="rgba(0,0,0,0.3)" /><circle cx="379.02" cy="312.51" r="2.5" fill="rgba(0,0,0,0.3)" /><circle cx="353.5" cy="337.74" r="2.5" fill="rgba(0,0,0,0.3)" /><circle cx="354.40000000000003" cy="323.35" r="2.5" fill="rgba(0,0,0,0.3)" /><circle cx="363.54" cy="309.06" r="2.5" fill="rgba(0,0,0,0.3)" /><circle cx="383.35" cy="316.32" r="2.5" fill="rgba(0,0,0,0.3)" /><circle cx="390.07" cy="300.07" r="2.5" fill="rgba(0,0,0,0.3)" /><circle cx="362.45" cy="319.18" r="2.5" fill="rgba(0,0,0,0.3)" /><circle cx="369.62" cy="305.68" r="2.5" fill="rgba(0,0,0,0.3)" /><circle cx="363.59000000000003" cy="318.51" r="2.5" fill="rgba(0,0,0,0.3)" /><circle cx="375.71" cy="315.29" r="2.5" fill="rgba(0,0,0,0.3)" /><circle cx="375.2" cy="306.09000000000003" r="2.5" fill="rgba(0,0,0,0.3)" /><circle cx="380.85" cy="341.73" r="2.5" fill="rgba(0,0,0,0.3)" /><circle cx="369.74" cy="318.27" r="2.5" fill="rgba(0,0,0,0.3)" /><circle cx="391.48" cy="354.15000000000003" r="2.5" fill="rgba(0,0,0,0.3)" /><circle cx="368.37" cy="310.55" r="2.5" fill="rgba(0,0,0,0.3)" /><circle cx="362.24" cy="322.03000000000003" r="2.5" fill="rgba(0,0,0,0.3)" /><circle cx="368.98" cy="336.57" r="2.5" fill="rgba(0,0,0,0.3)" /><circle cx="386.99" cy="333.01" r="2.5" fill="rgba(0,0,0,0.3)" /><circle cx="368.6" cy="318.34000000000003" r="2.5" fill="rgba(0,0,0,0.3)" /><circle cx="359.33" cy="307.55" r="2.5" fill="rgba(0,0,0,0.3)" /><circle cx="357.62" cy="323.98" r="2.5" fill="rgba(0,0,0,0.3)" /><circle cx="381.66" cy="328.95" r="2.5" fill="rgba(0,0,0,0.3)" /><circle cx="373.79" cy="340.97" r="2.5" fill="rgba(0,0,0,0.3)" /><circle cx="360.74" cy="329.23" r="2.5" fill="rgba(0,0,0,0.3)" /><circle cx="370.52" cy="298.21" r="2.5" fill="rgba(0,0,0,0.3)" /><circle cx="353.64" cy="320.6" r="2.5" fill="rgba(0,0,0,0.3)" /><circle cx="391.7" cy="347.88" r="2.5" fill="rgba(0,0,0,0.3)" /><circle cx="378.71" cy="335.84000000000003" r="2.5" fill="rgba(0,0,0,0.3)" /><circle cx="352.82" cy="314.79" r="2.5" fill="rgba(0,0,0,0.3)" /><circle cx="389.43" cy="344.48" r="2.5" fill="rgba(0,0,0,0.3)" /><circle cx="358.29" cy="315.99" r="2.5" fill="rgba(0,0,0,0.3)" /><circle cx="369.02" cy="270.44" r="2.5" fill="rgba(0,0,0,0.3)" /><circle cx="369.02" cy="217.52" r="2.5" fill="rgba(0,0,0,0.3)" /><circle cx="367.37" cy="231.12" r="2.5" fill="rgba(0,0,0,0.3)" /><circle cx="376.11" cy="200.39000000000001" r="2.5" fill="rgba(0,0,0,0.3)" /><circle cx="378.09000000000003" cy="216.42000000000002" r="2.5" fill="rgba(0,0,0,0.3)" /><circle cx="373.6" cy="242.41" r="2.5" fill="rgba(0,0,0,0.3)" /><circle cx="369.42" cy="233.89000000000001" r="2.5" fill="rgba(0,0,0,0.3)" /><circle cx="364.08" cy="227.61" r="2.5" fill="rgba(0,0,0,0.3)" /><circle cx="389.67" cy="243.21" r="2.5" fill="rgba(0,0,0,0.3)" /><circle cx="373.62" cy="222.51" r="2.5" fill="rgba(0,0,0,0.3)" /><circle cx="365.97" cy="247.74" r="2.5" fill="rgba(0,0,0,0.3)" /><circle cx="377.1" cy="233.35" r="2.5" fill="rgba(0,0,0,0.3)" /><circle cx="359.41" cy="219.06" r="2.5" fill="rgba(0,0,0,0.3)" /><circle cx="387.77" cy="226.32" r="2.5" fill="rgba(0,0,0,0.3)" /><circle cx="387.2" cy="210.07" r="2.5" fill="rgba(0,0,0,0.3)" /><circle cx="383.29" cy="229.18" r="2.5" fill="rgba(0,0,0,0.3)" /><circle cx="385.52" cy="215.68" r="2.5" fill="rgba(0,0,0,0.3)" /><circle cx="367.01" cy="228.51" r="2.5" fill="rgba(0,0,0,0.3)" /><circle cx="353.25" cy="225.29" r="2.5" fill="rgba(0,0,0,0.3)" /><circle cx="361.11" cy="216.09" r="2.5" fill="rgba(0,0,0,0.3)" /><circle cx="376.79" cy="251.73000000000002" r="2.5" fill="rgba(0,0,0,0.3)" /><circle cx="353.16" cy="228.27" r="2.5" fill="rgba(0,0,0,0.3)" /><circle cx="356.42" cy="264.15" r="2.5" fill="rgba(0,0,0,0.3)" /><circle cx="383.29" cy="220.55" r="2.5" fill="rgba(0,0,0,0.3)" /><circle cx="368.56" cy="232.03" r="2.5" fill="rgba(0,0,0,0.3)" /><circle cx="389.02" cy="246.57" r="2.5" fill="rgba(0,0,0,0.3)" /><circle cx="357.11" cy="243.01" r="2.5" fill="rgba(0,0,0,0.3)" /><circle cx="379.68" cy="228.34" r="2.5" fill="rgba(0,0,0,0.3)" /><circle cx="387.79" cy="217.55" r="2.5" fill="rgba(0,0,0,0.3)" /><circle cx="380.98" cy="233.98000000000002" r="2.5" fill="rgba(0,0,0,0.3)" /><circle cx="391.35" cy="238.95000000000002" r="2.5" fill="rgba(0,0,0,0.3)" /><circle cx="391.98" cy="250.97" r="2.5" fill="rgba(0,0,0,0.3)" /><circle cx="384.8" cy="239.23000000000002" r="2.5" fill="rgba(0,0,0,0.3)" /><circle cx="390.55" cy="208.21" r="2.5" fill="rgba(0,0,0,0.3)" /><circle cx="374.39" cy="230.6" r="2.5" fill="rgba(0,0,0,0.3)" /><circle cx="377.38" cy="257.88" r="2.5" fill="rgba(0,0,0,0.3)" /><circle cx="365.1" cy="245.84" r="2.5" fill="rgba(0,0,0,0.3)" /><circle cx="381.57" cy="224.79" r="2.5" fill="rgba(0,0,0,0.3)" /><circle cx="357.76" cy="254.48000000000002" r="2.5" fill="rgba(0,0,0,0.3)" /><circle cx="375.49" cy="225.99" r="2.5" fill="rgba(0,0,0,0.3)" /><circle cx="586.59" cy="216.63" r="2.5" fill="rgba(0,0,0,0.3)" /><circle cx="577.98" cy="281.72" r="2.5" fill="rgba(0,0,0,0.3)" /><circle cx="578.8100000000001" cy="225.72" r="2.5" fill="rgba(0,0,0,0.3)" /><circle cx="575.5600000000001" cy="263.52" r="2.5" fill="rgba(0,0,0,0.3)" /><circle cx="575" cy="195.9" r="2.5" fill="rgba(0,0,0,0.3)" /><circle cx="566.57" cy="223.20000000000002" r="2.5" fill="rgba(0,0,0,0.3)" /><circle cx="589.53" cy="208.1" r="2.5" fill="rgba(0,0,0,0.3)" /><circle cx="558.52" cy="312.31" r="2.5" fill="rgba(0,0,0,0.3)" /><circle cx="585.15" cy="296.12" r="2.5" fill="rgba(0,0,0,0.3)" /><circle cx="588.02" cy="218.23000000000002" r="2.5" fill="rgba(0,0,0,0.3)" /><circle cx="591.77" cy="279" r="2.5" fill="rgba(0,0,0,0.3)" /><circle cx="582.7" cy="280.22" r="2.5" fill="rgba(0,0,0,0.3)" /><circle cx="587.74" cy="287.59000000000003" r="2.5" fill="rgba(0,0,0,0.3)" /><circle cx="559.87" cy="276.95" r="2.5" fill="rgba(0,0,0,0.3)" /><circle cx="574.09" cy="214.32" r="2.5" fill="rgba(0,0,0,0.3)" /><circle cx="586.5" cy="232.98000000000002" r="2.5" fill="rgba(0,0,0,0.3)" /><circle cx="559.23" cy="248.23000000000002" r="2.5" fill="rgba(0,0,0,0.3)" /><circle cx="581.48" cy="250.88" r="2.5" fill="rgba(0,0,0,0.3)" /><circle cx="556.74" cy="291.87" r="2.5" fill="rgba(0,0,0,0.3)" /><circle cx="561.73" cy="258.35" r="2.5" fill="rgba(0,0,0,0.3)" /><circle cx="562.0500000000001" cy="282.93" r="2.5" fill="rgba(0,0,0,0.3)" /><circle cx="578.35" cy="294.31" r="2.5" fill="rgba(0,0,0,0.3)" /><circle cx="554" cy="204.8" r="2.5" fill="rgba(0,0,0,0.3)" /><circle cx="558.3100000000001" cy="228.65" r="2.5" fill="rgba(0,0,0,0.3)" /><circle cx="585.39" cy="304.36" r="2.5" fill="rgba(0,0,0,0.3)" /><circle cx="584.8000000000001" cy="266.18" r="2.5" fill="rgba(0,0,0,0.3)" /><circle cx="567.51" cy="270.84000000000003" r="2.5" fill="rgba(0,0,0,0.3)" /><circle cx="579.8100000000001" cy="219.81" r="2.5" fill="rgba(0,0,0,0.3)" /><circle cx="585.79" cy="259.93" r="2.5" fill="rgba(0,0,0,0.3)" /><circle cx="579.12" cy="292.88" r="2.5" fill="rgba(0,0,0,0.3)" /><circle cx="585.61" cy="329.88" r="2.5" fill="rgba(0,0,0,0.3)" /><circle cx="565.92" cy="220.71" r="2.5" fill="rgba(0,0,0,0.3)" /><circle cx="557.24" cy="233.39000000000001" r="2.5" fill="rgba(0,0,0,0.3)" /><circle cx="589.26" cy="201.95000000000002" r="2.5" fill="rgba(0,0,0,0.3)" /><circle cx="590.82" cy="307.71" r="2.5" fill="rgba(0,0,0,0.3)" /><circle cx="586.49" cy="251.14000000000001" r="2.5" fill="rgba(0,0,0,0.3)" /><circle cx="572.01" cy="353.53000000000003" r="2.5" fill="rgba(0,0,0,0.3)" /><circle cx="572.19" cy="312.23" r="2.5" fill="rgba(0,0,0,0.3)" /><circle cx="560.7" cy="289.17" r="2.5" fill="rgba(0,0,0,0.3)" /><circle cx="575.85" cy="327.96" r="2.5" fill="rgba(0,0,0,0.3)" /><circle cx="572.64" cy="257.07" r="2.5" fill="rgba(0,0,0,0.3)" /><circle cx="565.23" cy="237.14000000000001" r="2.5" fill="rgba(0,0,0,0.3)" /><circle cx="568.38" cy="310.14" r="2.5" fill="rgba(0,0,0,0.3)" /><circle cx="559.27" cy="231" r="2.5" fill="rgba(0,0,0,0.3)" /><circle cx="587.82" cy="298.67" r="2.5" fill="rgba(0,0,0,0.3)" /><circle cx="554.65" cy="320.03000000000003" r="2.5" fill="rgba(0,0,0,0.3)" /><circle cx="569.67" cy="268.09000000000003" r="2.5" fill="rgba(0,0,0,0.3)" /><circle cx="554.1" cy="297.82" r="2.5" fill="rgba(0,0,0,0.3)" /><circle cx="552.7" cy="327.74" r="2.5" fill="rgba(0,0,0,0.3)" /><circle cx="552.92" cy="228.39000000000001" r="2.5" fill="rgba(0,0,0,0.3)" /><circle cx="572.5500000000001" cy="326.66" r="2.5" fill="rgba(0,0,0,0.3)" /><circle cx="591" cy="288.88" r="2.5" fill="rgba(0,0,0,0.3)" /><circle cx="561.83" cy="260.57" r="2.5" fill="rgba(0,0,0,0.3)" /><circle cx="570.46" cy="256.52" r="2.5" fill="rgba(0,0,0,0.3)" /><circle cx="587.65" cy="263.04" r="2.5" fill="rgba(0,0,0,0.3)" /><circle cx="555.34" cy="285.44" r="2.5" fill="rgba(0,0,0,0.3)" /><circle cx="564.63" cy="248.05" r="2.5" fill="rgba(0,0,0,0.3)" /><circle cx="560.14" cy="206.87" r="2.5" fill="rgba(0,0,0,0.3)" /><circle cx="571.9300000000001" cy="277.04" r="2.5" fill="rgba(0,0,0,0.3)" /><circle cx="561.65" cy="254.70000000000002" r="2.5" fill="rgba(0,0,0,0.3)" /><circle cx="578.07" cy="200.84" r="2.5" fill="rgba(0,0,0,0.3)" /><circle cx="587.73" cy="349.86" r="2.5" fill="rgba(0,0,0,0.3)" /><circle cx="561.88" cy="249.57" r="2.5" fill="rgba(0,0,0,0.3)" /><circle cx="573.98" cy="195.20000000000002" r="2.5" fill="rgba(0,0,0,0.3)" /><circle cx="585.69" cy="255.21" r="2.5" fill="rgba(0,0,0,0.3)" /><circle cx="567.49" cy="233.73000000000002" r="2.5" fill="rgba(0,0,0,0.3)" /><circle cx="591.5600000000001" cy="240.41" r="2.5" fill="rgba(0,0,0,0.3)" /><circle cx="576.98" cy="208.57" r="2.5" fill="rgba(0,0,0,0.3)" /><circle cx="587.1" cy="223.81" r="2.5" fill="rgba(0,0,0,0.3)" /><circle cx="584.83" cy="204.91" r="2.5" fill="rgba(0,0,0,0.3)" /><circle cx="588.48" cy="263.07" r="2.5" fill="rgba(0,0,0,0.3)" /><circle cx="590.38" cy="261.66" r="2.5" fill="rgba(0,0,0,0.3)" /><circle cx="564.09" cy="305.45" r="2.5" fill="rgba(0,0,0,0.3)" /><circle cx="563.65" cy="261.21" r="2.5" fill="rgba(0,0,0,0.3)" /><circle cx="579.03" cy="240.97" r="2.5" fill="rgba(0,0,0,0.3)" /><circle cx="560.6800000000001" cy="270.71" r="2.5" fill="rgba(0,0,0,0.3)" /><circle cx="586.83" cy="277.40000000000003" r="2.5" fill="rgba(0,0,0,0.3)" /><circle cx="552.39" cy="295.91" r="2.5" fill="rgba(0,0,0,0.3)" /><circle cx="586.33" cy="268.49" r="2.5" fill="rgba(0,0,0,0.3)" /><circle cx="569.66" cy="217.20000000000002" r="2.5" fill="rgba(0,0,0,0.3)" /></svg>