<svg xmlns="http://www.w3.org/2000/svg" width="673" height="545" font-family="DejaVu Sans, Liberation Sans, Arial, sans-serif" fill="black"><rect width="100%" height="100%" fill="white" /><defs><clipPath id="kuva-clip-5"><rect x="59" y="44" width="600" height="450"/></clipPath></defs><line x1="59" y1="381.5" x2="659" y2="381.5" stroke="#cccccc" stroke-width="1" /><line x1="59" y1="269" x2="659" y2="269" stroke="#cccccc" stroke-width="1" /><line x1="59" y1="156.5" x2="659" y2="156.5" stroke="#cccccc" stroke-width="1" /><line x1="59" y1="44" x2="659" y2="44" stroke="#cccccc" stroke-width="1" /><line x1="59" y1="494" x2="659" y2="494" stroke="#000000" stroke-width="1" /><line x1="59" y1="44" x2="59" y2="494" stroke="#000000" stroke-width="1" /><text x="159" y="511" font-size="12" text-anchor="middle">Control</text><line x1="159" y1="494" x2="159" y2="499" stroke="#000000" stroke-width="1" /><text x="359" y="511" font-size="12" text-anchor="middle">Treatment</text><line x1="359" y1="494" x2="359" y2="499" stroke="#000000" stroke-width="1" /><text x="559" y="511" font-size="12" text-anchor="middle">Placebo</text><line x1="559" y1="494" x2="559" y2="499" stroke="#000000" stroke-width="1" /><line x1="54" y1="494" x2="59" y2="494" stroke="#000000" stroke-width="1" /><text x="51" y="498.2" font-size="12" text-anchor="end">0</text><line x1="54" y1="381.5" x2="59" y2="381.5" stroke="#000000" stroke-width="1" /><text x="51" y="385.7" font-size="12" text-anchor="end">2</text><line x1="54" y1="269" x2="59" y2="269" stroke="#000000" stroke-width="1" /><text x="51" y="273.2" font-size="12" text-anchor="end">4</text><line x1="54" y1="156.5" x2="59" y2="156.5" stroke="#000000" stroke-width="1" /><text x="51" y="160.70000000000002" font-size="12" text-anchor="end">6</text><line x1="54" y1="44" x2="59" y2="44" stroke="#000000" stroke-width="1" /><text x="51" y="48.2" font-size="12" text-anchor="end">8</text><text x="15" y="272.5" font-size="14" text-anchor="middle" transform="rotate(-90,15,272.5)">Measurement</text><text x="359" y="22" font-size="18" text-anchor="middle">Per-Group Colors</text><g clip-path="url(#kuva-clip-5)"><circle cx="180.59" cy="263.38" r="4" fill="#4682b4" /><circle cx="175.17000000000002" cy="212.75" r="4" fill="#4682b4" /><circle cx="185.27" cy="195.88" r="4" fill="#4682b4" /><circle cx="134.72" cy="167.75" r="4" fill="#4682b4" /><circle cx="152.08" cy="145.25" r="4" fill="#4682b4" /><circle cx="135.34" cy="229.63" r="4" fill="#4682b4" /><circle cx="380.59000000000003" cy="184.63" r="4" fill="#dc143c" /><circle cx="378.92" cy="150.88" r="4" fill="#dc143c" /><circle cx="354.09000000000003" cy="134" r="4" fill="#dc143c" /><circle cx="384.59000000000003" cy="89" r="4" fill="#dc143c" /><circle cx="382.55" cy="55.25" r="4" fill="#dc143c" /><circle cx="384.72" cy="105.88" r="4" fill="#dc143c" /><circle cx="580.59" cy="274.63" r="4" fill="seagreen" /><circle cx="567.67" cy="240.88" r="4" fill="seagreen" /><circle cx="568.92" cy="224" r="4" fill="seagreen" /><circle cx="564.0500000000001" cy="207.13" r="4" fill="seagreen" /><circle cx="563.2" cy="179" r="4" fill="seagreen" /><circle cx="550.5500000000001" cy="252.13" r="4" fill="seagreen" /></g></svg>