<svg xmlns="http://www.w3.org/2000/svg" width="686.2" height="545" font-family="DejaVu Sans, Liberation Sans, Arial, sans-serif" fill="black"><rect width="100%" height="100%" fill="white" /><line x1="72.2" y1="494" x2="672.2" y2="494" stroke="#000000" stroke-width="1" /><line x1="72.2" y1="44" x2="72.2" y2="494" stroke="#000000" stroke-width="1" /><line x1="72.2" y1="381.5" x2="672.2" y2="381.5" stroke="#cccccc" stroke-width="1" /><line x1="72.2" y1="269" x2="672.2" y2="269" stroke="#cccccc" stroke-width="1" /><line x1="72.2" y1="156.5" x2="672.2" y2="156.5" stroke="#cccccc" stroke-width="1" /><line x1="72.2" y1="44" x2="672.2" y2="44" stroke="#cccccc" stroke-width="1" /><text x="172.20000000000002" y="511" font-size="12" text-anchor="middle">Control</text><line x1="172.20000000000002" y1="494" x2="172.20000000000002" y2="499" stroke="#000000" stroke-width="1" /><text x="372.2" y="511" font-size="12" text-anchor="middle">Treatment</text><line x1="372.2" y1="494" x2="372.2" y2="499" stroke="#000000" stroke-width="1" /><text x="572.2" y="511" font-size="12" text-anchor="middle">Placebo</text><line x1="572.2" y1="494" x2="572.2" y2="499" stroke="#000000" stroke-width="1" /><line x1="67.2" y1="494" x2="72.2" y2="494" stroke="#000000" stroke-width="1" /><text x="64.2" y="498.2" font-size="12" text-anchor="end">0</text><line x1="67.2" y1="381.5" x2="72.2" y2="381.5" stroke="#000000" stroke-width="1" /><text x="64.2" y="385.7" font-size="12" text-anchor="end">2</text><line x1="67.2" y1="269" x2="72.2" y2="269" stroke="#000000" stroke-width="1" /><text x="64.2" y="273.2" font-size="12" text-anchor="end">4</text><line x1="67.2" y1="156.5" x2="72.2" y2="156.5" stroke="#000000" stroke-width="1" /><text x="64.2" y="160.70000000000002" font-size="12" text-anchor="end">6</text><line x1="67.2" y1="44" x2="72.2" y2="44" stroke="#000000" stroke-width="1" /><text x="64.2" y="48.2" font-size="12" text-anchor="end">8</text><text x="7" y="272.5" font-size="14" text-anchor="middle" transform="rotate(-90,7,272.5)">Measurement</text><text x="372.2" y="22" font-size="18" text-anchor="middle">Per-Group Colors</text><circle cx="193.79" cy="263.38" r="4" fill="#4682b4" /><circle cx="188.37" cy="212.75" r="4" fill="#4682b4" /><circle cx="198.47" cy="195.88" r="4" fill="#4682b4" /><circle cx="147.92000000000002" cy="167.75" r="4" fill="#4682b4" /><circle cx="165.28" cy="145.25" r="4" fill="#4682b4" /><circle cx="148.54" cy="229.63" r="4" fill="#4682b4" /><circle cx="393.79" cy="184.63" r="4" fill="#dc143c" /><circle cx="392.12" cy="150.88" r="4" fill="#dc143c" /><circle cx="367.29" cy="134" r="4" fill="#dc143c" /><circle cx="397.79" cy="89" r="4" fill="#dc143c" /><circle cx="395.75" cy="55.25" r="4" fill="#dc143c" /><circle cx="397.92" cy="105.88" r="4" fill="#dc143c" /><circle cx="593.79" cy="274.63" r="4" fill="seagreen" /><circle cx="580.87" cy="240.88" r="4" fill="seagreen" /><circle cx="582.12" cy="224" r="4" fill="seagreen" /><circle cx="577.25" cy="207.13" r="4" fill="seagreen" /><circle cx="576.4" cy="179" r="4" fill="seagreen" /><circle cx="563.75" cy="252.13" r="4" fill="seagreen" /></svg>