<svg xmlns="http://www.w3.org/2000/svg" width="673" height="545" font-family="DejaVu Sans, Liberation Sans, Arial, sans-serif" fill="black"><rect width="100%" height="100%" fill="white" /><defs><clipPath id="kuva-clip-5"><rect x="59" y="44" width="600" height="450"/></clipPath></defs><line x1="59" y1="404" x2="659" y2="404" stroke="#cccccc" stroke-width="1" /><line x1="59" y1="314" x2="659" y2="314" stroke="#cccccc" stroke-width="1" /><line x1="59" y1="224" x2="659" y2="224" stroke="#cccccc" stroke-width="1" /><line x1="59" y1="134" x2="659" y2="134" stroke="#cccccc" stroke-width="1" /><line x1="59" y1="44" x2="659" y2="44" stroke="#cccccc" stroke-width="1" /><line x1="59" y1="494" x2="659" y2="494" stroke="#000000" stroke-width="1" /><line x1="59" y1="44" x2="59" y2="494" stroke="#000000" stroke-width="1" /><text x="159" y="511" font-size="12" text-anchor="middle">Control</text><line x1="159" y1="494" x2="159" y2="499" stroke="#000000" stroke-width="1" /><text x="359" y="511" font-size="12" text-anchor="middle">Treatment</text><line x1="359" y1="494" x2="359" y2="499" stroke="#000000" stroke-width="1" /><text x="559" y="511" font-size="12" text-anchor="middle">Placebo</text><line x1="559" y1="494" x2="559" y2="499" stroke="#000000" stroke-width="1" /><line x1="54" y1="494" x2="59" y2="494" stroke="#000000" stroke-width="1" /><text x="51" y="498.2" font-size="12" text-anchor="end">3</text><line x1="54" y1="404" x2="59" y2="404" stroke="#000000" stroke-width="1" /><text x="51" y="408.2" font-size="12" text-anchor="end">4</text><line x1="54" y1="314" x2="59" y2="314" stroke="#000000" stroke-width="1" /><text x="51" y="318.2" font-size="12" text-anchor="end">5</text><line x1="54" y1="224" x2="59" y2="224" stroke="#000000" stroke-width="1" /><text x="51" y="228.20000000000002" font-size="12" text-anchor="end">6</text><line x1="54" y1="134" x2="59" y2="134" stroke="#000000" stroke-width="1" /><text x="51" y="138.20000000000002" font-size="12" text-anchor="end">7</text><line x1="54" y1="44" x2="59" y2="44" stroke="#000000" stroke-width="1" /><text x="51" y="48.2" font-size="12" text-anchor="end">8</text><text x="15" y="272.5" font-size="14" text-anchor="middle" transform="rotate(-90,15,272.5)">Measurement</text><text x="336.5" y="27.400000000000002" font-size="18" text-anchor="middle">Per-Group Colors</text><g clip-path="url(#kuva-clip-5)"><circle cx="180.59" cy="395" r="4" fill="#4682b4" /><circle cx="175.17000000000002" cy="314" r="4" fill="#4682b4" /><circle cx="185.27" cy="287" r="4" fill="#4682b4" /><circle cx="134.72" cy="242" r="4" fill="#4682b4" /><circle cx="152.08" cy="206" r="4" fill="#4682b4" /><circle cx="135.34" cy="341" r="4" fill="#4682b4" /><circle cx="380.59000000000003" cy="269" r="4" fill="#dc143c" /><circle cx="378.92" cy="215" r="4" fill="#dc143c" /><circle cx="354.09000000000003" cy="188" r="4" fill="#dc143c" /><circle cx="384.59000000000003" cy="116" r="4" fill="#dc143c" /><circle cx="382.55" cy="62" r="4" fill="#dc143c" /><circle cx="384.72" cy="143" r="4" fill="#dc143c" /><circle cx="580.59" cy="413" r="4" fill="seagreen" /><circle cx="567.67" cy="359" r="4" fill="seagreen" /><circle cx="568.92" cy="332" r="4" fill="seagreen" /><circle cx="564.0500000000001" cy="305" r="4" fill="seagreen" /><circle cx="563.2" cy="260" r="4" fill="seagreen" /><circle cx="550.5500000000001" cy="377" r="4" fill="seagreen" /></g></svg>