<svg xmlns="http://www.w3.org/2000/svg" width="757.8000000000001" height="545" font-family="DejaVu Sans, Liberation Sans, Arial, sans-serif" fill="black"><rect width="100%" height="100%" fill="white" /><defs><clipPath id="kuva-clip-7"><rect x="63.800000000000004" y="44" width="600" height="450"/></clipPath></defs><line x1="63.800000000000004" y1="419" x2="663.8000000000001" y2="419" stroke="#cccccc" stroke-width="1" /><line x1="63.800000000000004" y1="344" x2="663.8000000000001" y2="344" stroke="#cccccc" stroke-width="1" /><line x1="63.800000000000004" y1="269" x2="663.8000000000001" y2="269" stroke="#cccccc" stroke-width="1" /><line x1="63.800000000000004" y1="194" x2="663.8000000000001" y2="194" stroke="#cccccc" stroke-width="1" /><line x1="63.800000000000004" y1="119" x2="663.8000000000001" y2="119" stroke="#cccccc" stroke-width="1" /><line x1="63.800000000000004" y1="44" x2="663.8000000000001" y2="44" stroke="#cccccc" stroke-width="1" /><line x1="63.800000000000004" y1="494" x2="663.8000000000001" y2="494" stroke="#000000" stroke-width="1" /><line x1="63.800000000000004" y1="44" x2="63.800000000000004" y2="494" stroke="#000000" stroke-width="1" /><text x="363.8" y="511" font-size="12" text-anchor="middle">Sample</text><line x1="363.8" y1="494" x2="363.8" y2="499" stroke="#000000" stroke-width="1" /><line x1="58.800000000000004" y1="494" x2="63.800000000000004" y2="494" stroke="#000000" stroke-width="1" /><text x="55.800000000000004" y="498.2" font-size="12" text-anchor="end">0</text><line x1="58.800000000000004" y1="419" x2="63.800000000000004" y2="419" stroke="#000000" stroke-width="1" /><text x="55.800000000000004" y="423.2" font-size="12" text-anchor="end">2.5</text><line x1="58.800000000000004" y1="344" x2="63.800000000000004" y2="344" stroke="#000000" stroke-width="1" /><text x="55.800000000000004" y="348.2" font-size="12" text-anchor="end">5</text><line x1="58.800000000000004" y1="269" x2="63.800000000000004" y2="269" stroke="#000000" stroke-width="1" /><text x="55.800000000000004" y="273.2" font-size="12" text-anchor="end">7.5</text><line x1="58.800000000000004" y1="194" x2="63.800000000000004" y2="194" stroke="#000000" stroke-width="1" /><text x="55.800000000000004" y="198.20000000000002" font-size="12" text-anchor="end">10</text><line x1="58.800000000000004" y1="119" x2="63.800000000000004" y2="119" stroke="#000000" stroke-width="1" /><text x="55.800000000000004" y="123.2" font-size="12" text-anchor="end">12.5</text><line x1="58.800000000000004" y1="44" x2="63.800000000000004" y2="44" stroke="#000000" stroke-width="1" /><text x="55.800000000000004" y="48.2" font-size="12" text-anchor="end">15</text><text x="363.8" y="538" font-size="14" text-anchor="middle">Sample</text><text x="15" y="272.5" font-size="14" text-anchor="middle" transform="rotate(-90,15,272.5)">Repeat count</text><text x="363.8" y="22" font-size="18" text-anchor="middle">STR Repeat Counts — Per-point Motif Colors</text><g clip-path="url(#kuva-clip-7)"><circle cx="354.8" cy="270.67" r="4.5" fill="#ff6347" /><circle cx="336.8" cy="332.66" r="4.5" fill="goldenrod" /><circle cx="368.3" cy="274.05" r="4.5" fill="seagreen" /><circle cx="381.8" cy="150.91" r="4.5" fill="mediumpurple" /><circle cx="363.8" cy="253.57" r="4.5" fill="seagreen" /><circle cx="341.3" cy="228.92000000000002" r="4.5" fill="#4682b4" /><circle cx="390.8" cy="238.8" r="4.5" fill="#4682b4" /><circle cx="359.3" cy="191.08" r="4.5" fill="mediumpurple" /><circle cx="363.8" cy="292.05" r="4.5" fill="#4682b4" /><circle cx="395.3" cy="322.01" r="4.5" fill="goldenrod" /><circle cx="323.3" cy="236.93" r="4.5" fill="#4682b4" /><circle cx="363.8" cy="212.5" r="4.5" fill="mediumpurple" /><circle cx="386.3" cy="272.43" r="4.5" fill="#ff6347" /><circle cx="372.8" cy="143.87" r="4.5" fill="mediumpurple" /><circle cx="363.8" cy="169.37" r="4.5" fill="mediumpurple" /><circle cx="381.8" cy="235.69" r="4.5" fill="seagreen" /><circle cx="372.8" cy="318.66" r="4.5" fill="goldenrod" /><circle cx="327.8" cy="322.18" r="4.5" fill="#ff6347" /><circle cx="390.8" cy="215.43" r="4.5" fill="seagreen" /><circle cx="354.8" cy="148.99" r="4.5" fill="mediumpurple" /><circle cx="327.8" cy="254.77" r="4.5" fill="seagreen" /><circle cx="363.8" cy="417.56" r="4.5" fill="#ff6347" /><circle cx="314.3" cy="238.36" r="4.5" fill="#4682b4" /><circle cx="345.8" cy="249.89000000000001" r="4.5" fill="#4682b4" /><circle cx="390.8" cy="330.33" r="4.5" fill="goldenrod" /><circle cx="399.8" cy="216.91" r="4.5" fill="seagreen" /><circle cx="354.8" cy="158.33" r="4.5" fill="mediumpurple" /><circle cx="354.8" cy="283.88" r="4.5" fill="#4682b4" /><circle cx="354.8" cy="314.86" r="4.5" fill="#ff6347" /><circle cx="345.8" cy="337.38" r="4.5" fill="#ff6347" /><circle cx="386.3" cy="321.03000000000003" r="4.5" fill="goldenrod" /><circle cx="399.8" cy="250.96" r="4.5" fill="#4682b4" /><circle cx="404.3" cy="236.25" r="4.5" fill="seagreen" /><circle cx="363.8" cy="313.98" r="4.5" fill="#4682b4" /><circle cx="363.8" cy="282.14" r="4.5" fill="#4682b4" /><circle cx="372.8" cy="108.09" r="4.5" fill="mediumpurple" /><circle cx="363.8" cy="77.83" r="4.5" fill="mediumpurple" /><circle cx="372.8" cy="395.14" r="4.5" fill="goldenrod" /><circle cx="350.3" cy="225.45000000000002" r="4.5" fill="seagreen" /><circle cx="372.8" cy="349.44" r="4.5" fill="#ff6347" /><circle cx="363.8" cy="361.75" r="4.5" fill="goldenrod" /><circle cx="363.8" cy="345.6" r="4.5" fill="goldenrod" /><circle cx="336.8" cy="290.93" r="4.5" fill="#ff6347" /><circle cx="372.8" cy="235.19" r="4.5" fill="seagreen" /><circle cx="372.8" cy="258.34000000000003" r="4.5" fill="#4682b4" /><circle cx="363.8" cy="141.56" r="4.5" fill="mediumpurple" /><circle cx="372.8" cy="298.27" r="4.5" fill="#4682b4" /><circle cx="381.8" cy="329.65000000000003" r="4.5" fill="#ff6347" /><circle cx="363.8" cy="336.16" r="4.5" fill="goldenrod" /><circle cx="372.8" cy="373.26" r="4.5" fill="goldenrod" /><circle cx="345.8" cy="286.13" r="4.5" fill="mediumpurple" /><circle cx="354.8" cy="346.46" r="4.5" fill="goldenrod" /><circle cx="372.8" cy="183.4" r="4.5" fill="mediumpurple" /><circle cx="354.8" cy="325" r="4.5" fill="goldenrod" /><circle cx="345.8" cy="236.88" r="4.5" fill="seagreen" /><circle cx="363.8" cy="105.73" r="4.5" fill="mediumpurple" /><circle cx="332.3" cy="235.93" r="4.5" fill="seagreen" /><circle cx="408.8" cy="255.72" r="4.5" fill="#ff6347" /><circle cx="377.3" cy="224.71" r="4.5" fill="seagreen" /><circle cx="395.3" cy="230.63" r="4.5" fill="seagreen" /><circle cx="345.8" cy="214.41" r="4.5" fill="#4682b4" /><circle cx="363.8" cy="230.61" r="4.5" fill="#4682b4" /><circle cx="345.8" cy="272.02" r="4.5" fill="seagreen" /><circle cx="372.8" cy="172.34" r="4.5" fill="mediumpurple" /><circle cx="336.8" cy="368.91" r="4.5" fill="goldenrod" /><circle cx="377.3" cy="277" r="4.5" fill="#4682b4" /><circle cx="350.3" cy="184.42000000000002" r="4.5" fill="seagreen" /><circle cx="381.8" cy="367.03000000000003" r="4.5" fill="goldenrod" /><circle cx="354.8" cy="213.61" r="4.5" fill="#4682b4" /><circle cx="372.8" cy="307.3" r="4.5" fill="#ff6347" /><circle cx="372.8" cy="209.06" r="4.5" fill="seagreen" /><circle cx="354.8" cy="366.38" r="4.5" fill="goldenrod" /><circle cx="363.8" cy="304.02" r="4.5" fill="#ff6347" /><circle cx="327.8" cy="374.62" r="4.5" fill="goldenrod" /><circle cx="372.8" cy="363.03000000000003" r="4.5" fill="goldenrod" /><circle cx="390.8" cy="352.3" r="4.5" fill="#ff6347" /><circle cx="390.8" cy="290.40000000000003" r="4.5" fill="#ff6347" /><circle cx="345.8" cy="368" r="4.5" fill="goldenrod" /><circle cx="377.3" cy="266.93" r="4.5" fill="#4682b4" /><circle cx="363.8" cy="182.56" r="4.5" fill="mediumpurple" /><circle cx="399.8" cy="374.46" r="4.5" fill="goldenrod" /><circle cx="354.8" cy="261.12" r="4.5" fill="#ff6347" /><circle cx="345.8" cy="325.06" r="4.5" fill="goldenrod" /><circle cx="381.8" cy="213.64000000000001" r="4.5" fill="seagreen" /><circle cx="354.8" cy="305.61" r="4.5" fill="#ff6347" /><circle cx="390.8" cy="250" r="4.5" fill="seagreen" /><circle cx="363.8" cy="150.83" r="4.5" fill="seagreen" /><circle cx="363.8" cy="115.59" r="4.5" fill="mediumpurple" /><circle cx="368.3" cy="192.04" r="4.5" fill="seagreen" /><circle cx="368.3" cy="221.01" r="4.5" fill="seagreen" /><circle cx="386.3" cy="227.1" r="4.5" fill="#4682b4" /><circle cx="390.8" cy="368.04" r="4.5" fill="goldenrod" /><circle cx="354.8" cy="235.51" r="4.5" fill="mediumpurple" /><circle cx="345.8" cy="347.76" r="4.5" fill="#ff6347" /><circle cx="381.8" cy="177.78" r="4.5" fill="#4682b4" /><circle cx="363.8" cy="242.44" r="4.5" fill="mediumpurple" /><circle cx="354.8" cy="176.25" r="4.5" fill="mediumpurple" /><circle cx="372.8" cy="285.2" r="4.5" fill="#4682b4" /><circle cx="363.8" cy="201.3" r="4.5" fill="seagreen" /><circle cx="336.8" cy="215.62" r="4.5" fill="mediumpurple" /><circle cx="372.8" cy="156.41" r="4.5" fill="mediumpurple" /><circle cx="363.8" cy="388.89" r="4.5" fill="goldenrod" /><circle cx="363.8" cy="265.56" r="4.5" fill="seagreen" /><circle cx="363.8" cy="95.44" r="4.5" fill="mediumpurple" /><circle cx="372.8" cy="247.43" r="4.5" fill="#ff6347" /><circle cx="354.8" cy="337.33" r="4.5" fill="goldenrod" /><circle cx="336.8" cy="250.72" r="4.5" fill="mediumpurple" /><circle cx="359.3" cy="222.58" r="4.5" fill="#4682b4" /><circle cx="372.8" cy="339.82" r="4.5" fill="goldenrod" /><circle cx="381.8" cy="312.32" r="4.5" fill="#ff6347" /><circle cx="345.8" cy="315.2" r="4.5" fill="#ff6347" /><circle cx="363.8" cy="323.8" r="4.5" fill="#ff6347" /><circle cx="363.8" cy="371.61" r="4.5" fill="goldenrod" /><circle cx="381.8" cy="346.94" r="4.5" fill="#4682b4" /><circle cx="363.8" cy="48.980000000000004" r="4.5" fill="mediumpurple" /><circle cx="336.8" cy="272.48" r="4.5" fill="#ff6347" /><circle cx="381.8" cy="286.02" r="4.5" fill="#ff6347" /><circle cx="404.3" cy="277.86" r="4.5" fill="#4682b4" /><circle cx="354.8" cy="248.20000000000002" r="4.5" fill="seagreen" /><circle cx="413.3" cy="238.29" r="4.5" fill="mediumpurple" /><circle cx="336.8" cy="321.1" r="4.5" fill="#ff6347" /><circle cx="381.8" cy="248.83" r="4.5" fill="#4682b4" /><circle cx="395.3" cy="275.91" r="4.5" fill="#4682b4" /><circle cx="372.8" cy="328.49" r="4.5" fill="seagreen" /><circle cx="327.8" cy="277.28000000000003" r="4.5" fill="#ff6347" /></g><rect x="668.8000000000001" y="34" width="80" height="128" fill="#ffffff" /><rect x="668.8000000000001" y="34" width="80" height="128" fill="none" stroke="#000000" stroke-width="1" /><text x="713.8000000000001" y="49" font-size="12" text-anchor="middle" font-weight="bold">Motif</text><text x="698.8000000000001" y="71.2" font-size="12" text-anchor="start">ATTC</text><circle cx="683.8000000000001" cy="67" r="5" fill="#ff6347" /><text x="698.8000000000001" y="89.2" font-size="12" text-anchor="start">GCGC</text><circle cx="683.8000000000001" cy="85" r="5" fill="seagreen" /><text x="698.8000000000001" y="107.2" font-size="12" text-anchor="start">ATAT</text><circle cx="683.8000000000001" cy="103" r="5" fill="goldenrod" /><text x="698.8000000000001" y="125.2" font-size="12" text-anchor="start">CGCG</text><circle cx="683.8000000000001" cy="121" r="5" fill="mediumpurple" /><text x="698.8000000000001" y="143.20000000000002" font-size="12" text-anchor="start">TTAGG</text><circle cx="683.8000000000001" cy="139" r="5" fill="#4682b4" /></svg>