<svg xmlns="http://www.w3.org/2000/svg" width="673" height="545" font-family="DejaVu Sans, Liberation Sans, Arial, sans-serif" fill="black"><rect width="100%" height="100%" fill="white" /><defs><clipPath id="kuva-clip-1"><rect x="59" y="44" width="600" height="450"/></clipPath></defs><line x1="59" y1="429.71000000000004" x2="659" y2="429.71000000000004" stroke="#cccccc" stroke-width="1" /><line x1="59" y1="365.43" x2="659" y2="365.43" stroke="#cccccc" stroke-width="1" /><line x1="59" y1="301.14" x2="659" y2="301.14" stroke="#cccccc" stroke-width="1" /><line x1="59" y1="236.86" x2="659" y2="236.86" stroke="#cccccc" stroke-width="1" /><line x1="59" y1="172.57" x2="659" y2="172.57" stroke="#cccccc" stroke-width="1" /><line x1="59" y1="108.29" x2="659" y2="108.29" stroke="#cccccc" stroke-width="1" /><line x1="59" y1="44" x2="659" y2="44" stroke="#cccccc" stroke-width="1" /><line x1="59" y1="494" x2="659" y2="494" stroke="#000000" stroke-width="1" /><line x1="59" y1="44" x2="59" y2="494" stroke="#000000" stroke-width="1" /><text x="159" y="511" font-size="12" text-anchor="middle">Control</text><line x1="159" y1="494" x2="159" y2="499" stroke="#000000" stroke-width="1" /><text x="359" y="511" font-size="12" text-anchor="middle">Bimodal</text><line x1="359" y1="494" x2="359" y2="499" stroke="#000000" stroke-width="1" /><text x="559" y="511" font-size="12" text-anchor="middle">Right-skewed</text><line x1="559" y1="494" x2="559" y2="499" stroke="#000000" stroke-width="1" /><line x1="54" y1="494" x2="59" y2="494" stroke="#000000" stroke-width="1" /><text x="51" y="498.2" font-size="12" text-anchor="end">-3</text><line x1="54" y1="429.71000000000004" x2="59" y2="429.71000000000004" stroke="#000000" stroke-width="1" /><text x="51" y="433.91" font-size="12" text-anchor="end">-2</text><line x1="54" y1="365.43" x2="59" y2="365.43" stroke="#000000" stroke-width="1" /><text x="51" y="369.63" font-size="12" text-anchor="end">-1</text><line x1="54" y1="301.14" x2="59" y2="301.14" stroke="#000000" stroke-width="1" /><text x="51" y="305.34000000000003" font-size="12" text-anchor="end">0</text><line x1="54" y1="236.86" x2="59" y2="236.86" stroke="#000000" stroke-width="1" /><text x="51" y="241.06" font-size="12" text-anchor="end">1</text><line x1="54" y1="172.57" x2="59" y2="172.57" stroke="#000000" stroke-width="1" /><text x="51" y="176.77" font-size="12" text-anchor="end">2</text><line x1="54" y1="108.29" x2="59" y2="108.29" stroke="#000000" stroke-width="1" /><text x="51" y="112.49000000000001" font-size="12" text-anchor="end">3</text><line x1="54" y1="44" x2="59" y2="44" stroke="#000000" stroke-width="1" /><text x="51" y="48.2" font-size="12" text-anchor="end">4</text><text x="15" y="272.5" font-size="14" text-anchor="middle" transform="rotate(-90,15,272.5)">Value</text><text x="336.5" y="27.400000000000002" font-size="18" text-anchor="middle">Beeswarm</text><g clip-path="url(#kuva-clip-1)"><circle cx="174" cy="349.23" r="3" fill="#4682b4" /><circle cx="168" cy="272.85" r="3" fill="#4682b4" /><circle cx="159" cy="391" r="3" fill="#4682b4" /><circle cx="168" cy="210.95000000000002" r="3" fill="#4682b4" /><circle cx="153" cy="263.22" r="3" fill="#4682b4" /><circle cx="159" cy="348.40000000000003" r="3" fill="#4682b4" /><circle cx="153" cy="255.38" r="3" fill="#4682b4" /><circle cx="165" cy="411.61" r="3" fill="#4682b4" /><circle cx="159" cy="327.3" r="3" fill="#4682b4" /><circle cx="177" cy="335.65000000000003" r="3" fill="#4682b4" /><circle cx="138" cy="370.04" r="3" fill="#4682b4" /><circle cx="165" cy="321.34000000000003" r="3" fill="#4682b4" /><circle cx="159" cy="297.35" r="3" fill="#4682b4" /><circle cx="165" cy="327.62" r="3" fill="#4682b4" /><circle cx="159" cy="463.94" r="3" fill="#4682b4" /><circle cx="165" cy="247.20000000000002" r="3" fill="#4682b4" /><circle cx="171" cy="322.90000000000003" r="3" fill="#4682b4" /><circle cx="156" cy="335.51" r="3" fill="#4682b4" /><circle cx="159" cy="265.16" r="3" fill="#4682b4" /><circle cx="162" cy="340.67" r="3" fill="#4682b4" /><circle cx="171" cy="249.88" r="3" fill="#4682b4" /><circle cx="159" cy="477.28000000000003" r="3" fill="#4682b4" /><circle cx="144" cy="305.76" r="3" fill="#4682b4" /><circle cx="168" cy="351.94" r="3" fill="#4682b4" /><circle cx="165" cy="241.20000000000002" r="3" fill="#4682b4" /><circle cx="165" cy="394.57" r="3" fill="#4682b4" /><circle cx="162" cy="354.21" r="3" fill="#4682b4" /><circle cx="153" cy="247.4" r="3" fill="#4682b4" /><circle cx="141" cy="299.21" r="3" fill="#4682b4" /><circle cx="144" cy="365.77" r="3" fill="#4682b4" /><circle cx="153" cy="288.55" r="3" fill="#4682b4" /><circle cx="159" cy="365.43" r="3" fill="#4682b4" /><circle cx="159" cy="486.55" r="3" fill="#4682b4" /><circle cx="177" cy="259.94" r="3" fill="#4682b4" /><circle cx="177" cy="281.93" r="3" fill="#4682b4" /><circle cx="180" cy="352.55" r="3" fill="#4682b4" /><circle cx="177" cy="290.85" r="3" fill="#4682b4" /><circle cx="159" cy="201.92000000000002" r="3" fill="#4682b4" /><circle cx="165" cy="294.33" r="3" fill="#4682b4" /><circle cx="177" cy="369.21" r="3" fill="#4682b4" /><circle cx="165" cy="346.57" r="3" fill="#4682b4" /><circle cx="162" cy="216.36" r="3" fill="#4682b4" /><circle cx="156" cy="217.08" r="3" fill="#4682b4" /><circle cx="156" cy="303.31" r="3" fill="#4682b4" /><circle cx="138" cy="353.32" r="3" fill="#4682b4" /><circle cx="159" cy="311.52" r="3" fill="#4682b4" /><circle cx="165" cy="261.66" r="3" fill="#4682b4" /><circle cx="177" cy="315.91" r="3" fill="#4682b4" /><circle cx="150" cy="304.69" r="3" fill="#4682b4" /><circle cx="180" cy="220.31" r="3" fill="#4682b4" /><circle cx="156" cy="271.85" r="3" fill="#4682b4" /><circle cx="171" cy="343.47" r="3" fill="#4682b4" /><circle cx="159" cy="258.1" r="3" fill="#4682b4" /><circle cx="180" cy="275.3" r="3" fill="#4682b4" /><circle cx="165" cy="313.77" r="3" fill="#4682b4" /><circle cx="159" cy="152.85" r="3" fill="#4682b4" /><circle cx="171" cy="289.2" r="3" fill="#4682b4" /><circle cx="159" cy="223.78" r="3" fill="#4682b4" /><circle cx="147" cy="242.47" r="3" fill="#4682b4" /><circle cx="138" cy="308.08" r="3" fill="#4682b4" /><circle cx="165" cy="286.28000000000003" r="3" fill="#4682b4" /><circle cx="159" cy="278.79" r="3" fill="#4682b4" /><circle cx="162" cy="306.23" r="3" fill="#4682b4" /><circle cx="144" cy="338.96" r="3" fill="#4682b4" /><circle cx="165" cy="279.62" r="3" fill="#4682b4" /><circle cx="159" cy="244.08" r="3" fill="#4682b4" /><circle cx="147" cy="331.47" r="3" fill="#4682b4" /><circle cx="171" cy="266.73" r="3" fill="#4682b4" /><circle cx="183" cy="300.3" r="3" fill="#4682b4" /><circle cx="183" cy="261.17" r="3" fill="#4682b4" /><circle cx="171" cy="259.7" r="3" fill="#4682b4" /><circle cx="153" cy="189.01" r="3" fill="#4682b4" /><circle cx="174" cy="222.23000000000002" r="3" fill="#4682b4" /><circle cx="153" cy="241.33" r="3" fill="#4682b4" /><circle cx="156" cy="357.86" r="3" fill="#4682b4" /><circle cx="165" cy="228.84" r="3" fill="#4682b4" /><circle cx="165" cy="187.72" r="3" fill="#4682b4" /><circle cx="171" cy="314.06" r="3" fill="#4682b4" /><circle cx="153" cy="374.43" r="3" fill="#4682b4" /><circle cx="159" cy="172.66" r="3" fill="#4682b4" /><circle cx="153" cy="367.92" r="3" fill="#4682b4" /><circle cx="177" cy="245.93" r="3" fill="#4682b4" /><circle cx="165" cy="300.83" r="3" fill="#4682b4" /><circle cx="153" cy="205.46" r="3" fill="#4682b4" /><circle cx="150" cy="360.81" r="3" fill="#4682b4" /><circle cx="132" cy="308.51" r="3" fill="#4682b4" /><circle cx="147" cy="298.59000000000003" r="3" fill="#4682b4" /><circle cx="147" cy="314.29" r="3" fill="#4682b4" /><circle cx="153" cy="295.32" r="3" fill="#4682b4" /><circle cx="159" cy="182.61" r="3" fill="#4682b4" /><circle cx="165" cy="255.33" r="3" fill="#4682b4" /><circle cx="156" cy="342.97" r="3" fill="#4682b4" /><circle cx="144" cy="215.49" r="3" fill="#4682b4" /><circle cx="165" cy="205.03" r="3" fill="#4682b4" /><circle cx="168" cy="218.91" r="3" fill="#4682b4" /><circle cx="171" cy="330.92" r="3" fill="#4682b4" /><circle cx="147" cy="344.26" r="3" fill="#4682b4" /><circle cx="150" cy="338.55" r="3" fill="#4682b4" /><circle cx="171" cy="305.29" r="3" fill="#4682b4" /><circle cx="159" cy="284.91" r="3" fill="#4682b4" /><circle cx="153" cy="330.15000000000003" r="3" fill="#4682b4" /><circle cx="150" cy="211.12" r="3" fill="#4682b4" /><circle cx="177" cy="298.77" r="3" fill="#4682b4" /><circle cx="159" cy="318.14" r="3" fill="#4682b4" /><circle cx="147" cy="281.51" r="3" fill="#4682b4" /><circle cx="183" cy="283.99" r="3" fill="#4682b4" /><circle cx="141" cy="316.14" r="3" fill="#4682b4" /><circle cx="159" cy="373.31" r="3" fill="#4682b4" /><circle cx="174" cy="274.62" r="3" fill="#4682b4" /><circle cx="171" cy="368.76" r="3" fill="#4682b4" /><circle cx="159" cy="210.46" r="3" fill="#4682b4" /><circle cx="156" cy="229.58" r="3" fill="#4682b4" /><circle cx="141" cy="282.16" r="3" fill="#4682b4" /><circle cx="171" cy="280.85" r="3" fill="#4682b4" /><circle cx="159" cy="122.95" r="3" fill="#4682b4" /><circle cx="147" cy="324" r="3" fill="#4682b4" /><circle cx="150" cy="219.8" r="3" fill="#4682b4" /><circle cx="159" cy="291.27" r="3" fill="#4682b4" /><circle cx="147" cy="259.74" r="3" fill="#4682b4" /><circle cx="159" cy="188.89000000000001" r="3" fill="#4682b4" /><circle cx="171" cy="297.42" r="3" fill="#4682b4" /><circle cx="153" cy="313.86" r="3" fill="#4682b4" /><circle cx="171" cy="361.45" r="3" fill="#4682b4" /><circle cx="159" cy="237.12" r="3" fill="#4682b4" /><circle cx="165" cy="359.93" r="3" fill="#4682b4" /><circle cx="174" cy="215.45000000000002" r="3" fill="#4682b4" /><circle cx="159" cy="408.41" r="3" fill="#4682b4" /><circle cx="162" cy="333.08" r="3" fill="#4682b4" /><circle cx="153" cy="348.88" r="3" fill="#4682b4" /><circle cx="165" cy="374" r="3" fill="#4682b4" /><circle cx="159" cy="250.53" r="3" fill="#4682b4" /><circle cx="153" cy="280.34000000000003" r="3" fill="#4682b4" /><circle cx="171" cy="241.39000000000001" r="3" fill="#4682b4" /><circle cx="168" cy="337.6" r="3" fill="#4682b4" /><circle cx="144" cy="349.66" r="3" fill="#4682b4" /><circle cx="141" cy="260.91" r="3" fill="#4682b4" /><circle cx="165" cy="365.94" r="3" fill="#4682b4" /><circle cx="171" cy="376.53000000000003" r="3" fill="#4682b4" /><circle cx="150" cy="230.74" r="3" fill="#4682b4" /><circle cx="183" cy="370.32" r="3" fill="#4682b4" /><circle cx="147" cy="266.86" r="3" fill="#4682b4" /><circle cx="177" cy="306.95" r="3" fill="#4682b4" /><circle cx="144" cy="274.8" r="3" fill="#4682b4" /><circle cx="162" cy="270.73" r="3" fill="#4682b4" /><circle cx="147" cy="289.94" r="3" fill="#4682b4" /><circle cx="153" cy="321.45" r="3" fill="#4682b4" /><circle cx="159" cy="450.72" r="3" fill="#4682b4" /><circle cx="183" cy="308.43" r="3" fill="#4682b4" /><circle cx="150" cy="274.43" r="3" fill="#4682b4" /><circle cx="159" cy="381.99" r="3" fill="#4682b4" /><circle cx="368" cy="358.51" r="3" fill="#4682b4" /><circle cx="365" cy="367.35" r="3" fill="#4682b4" /><circle cx="359" cy="328.85" r="3" fill="#4682b4" /><circle cx="365" cy="377.2" r="3" fill="#4682b4" /><circle cx="365" cy="442.21000000000004" r="3" fill="#4682b4" /><circle cx="353" cy="377.66" r="3" fill="#4682b4" /><circle cx="371" cy="444.42" r="3" fill="#4682b4" /><circle cx="365" cy="416.19" r="3" fill="#4682b4" /><circle cx="359" cy="388.63" r="3" fill="#4682b4" /><circle cx="383" cy="407.09000000000003" r="3" fill="#4682b4" /><circle cx="350" cy="369.76" r="3" fill="#4682b4" /><circle cx="359" cy="408.21000000000004" r="3" fill="#4682b4" /><circle cx="365" cy="409.46000000000004" r="3" fill="#4682b4" /><circle cx="359" cy="414.86" r="3" fill="#4682b4" /><circle cx="356" cy="420.77" r="3" fill="#4682b4" /><circle cx="353" cy="359.19" r="3" fill="#4682b4" /><circle cx="359" cy="469.55" r="3" fill="#4682b4" /><circle cx="374" cy="385.25" r="3" fill="#4682b4" /><circle cx="347" cy="359.95" r="3" fill="#4682b4" /><circle cx="377" cy="405.33" r="3" fill="#4682b4" /><circle cx="359" cy="440.48" r="3" fill="#4682b4" /><circle cx="359" cy="402.19" r="3" fill="#4682b4" /><circle cx="365" cy="341.47" r="3" fill="#4682b4" /><circle cx="359" cy="381.89" r="3" fill="#4682b4" /><circle cx="359" cy="350.96" r="3" fill="#4682b4" /><circle cx="341" cy="360.99" r="3" fill="#4682b4" /><circle cx="380" cy="398.77" r="3" fill="#4682b4" /><circle cx="371" cy="413.1" r="3" fill="#4682b4" /><circle cx="362" cy="421.67" r="3" fill="#4682b4" /><circle cx="359" cy="429.22" r="3" fill="#4682b4" /><circle cx="353" cy="384.78000000000003" r="3" fill="#4682b4" /><circle cx="368" cy="424.69" r="3" fill="#4682b4" /><circle cx="353" cy="393.57" r="3" fill="#4682b4" /><circle cx="377" cy="379.81" r="3" fill="#4682b4" /><circle cx="359" cy="459.41" r="3" fill="#4682b4" /><circle cx="359" cy="357.15000000000003" r="3" fill="#4682b4" /><circle cx="353" cy="413.09000000000003" r="3" fill="#4682b4" /><circle cx="365" cy="352.92" r="3" fill="#4682b4" /><circle cx="359" cy="446.78000000000003" r="3" fill="#4682b4" /><circle cx="368" cy="396.06" r="3" fill="#4682b4" /><circle cx="377" cy="433.63" r="3" fill="#4682b4" /><circle cx="347" cy="416.96000000000004" r="3" fill="#4682b4" /><circle cx="335" cy="407.37" r="3" fill="#4682b4" /><circle cx="347" cy="429.88" r="3" fill="#4682b4" /><circle cx="371" cy="432.27" r="3" fill="#4682b4" /><circle cx="347" cy="387.24" r="3" fill="#4682b4" /><circle cx="365" cy="471.06" r="3" fill="#4682b4" /><circle cx="353" cy="426.32" r="3" fill="#4682b4" /><circle cx="359" cy="363.24" r="3" fill="#4682b4" /><circle cx="347" cy="396.1" r="3" fill="#4682b4" /><circle cx="374" cy="360.04" r="3" fill="#4682b4" /><circle cx="371" cy="403.52" r="3" fill="#4682b4" /><circle cx="371" cy="370.16" r="3" fill="#4682b4" /><circle cx="347" cy="379.8" r="3" fill="#4682b4" /><circle cx="374" cy="398.23" r="3" fill="#4682b4" /><circle cx="341" cy="388.75" r="3" fill="#4682b4" /><circle cx="347" cy="403.57" r="3" fill="#4682b4" /><circle cx="359" cy="395.06" r="3" fill="#4682b4" /><circle cx="365" cy="430.52" r="3" fill="#4682b4" /><circle cx="353" cy="443.22" r="3" fill="#4682b4" /><circle cx="359" cy="338.27" r="3" fill="#4682b4" /><circle cx="359" cy="374.8" r="3" fill="#4682b4" /><circle cx="365" cy="449.08" r="3" fill="#4682b4" /><circle cx="371" cy="379.7" r="3" fill="#4682b4" /><circle cx="365" cy="383.95" r="3" fill="#4682b4" /><circle cx="356" cy="368.49" r="3" fill="#4682b4" /><circle cx="365" cy="390.69" r="3" fill="#4682b4" /><circle cx="353" cy="353.11" r="3" fill="#4682b4" /><circle cx="353" cy="432.86" r="3" fill="#4682b4" /><circle cx="389" cy="408.69" r="3" fill="#4682b4" /><circle cx="353" cy="343.32" r="3" fill="#4682b4" /><circle cx="353" cy="403.36" r="3" fill="#4682b4" /><circle cx="341" cy="398.71000000000004" r="3" fill="#4682b4" /><circle cx="341" cy="405.48" r="3" fill="#4682b4" /><circle cx="365" cy="403.1" r="3" fill="#4682b4" /><circle cx="368" cy="165.65" r="3" fill="#4682b4" /><circle cx="365" cy="174.5" r="3" fill="#4682b4" /><circle cx="359" cy="136" r="3" fill="#4682b4" /><circle cx="365" cy="184.34" r="3" fill="#4682b4" /><circle cx="365" cy="249.35" r="3" fill="#4682b4" /><circle cx="353" cy="184.81" r="3" fill="#4682b4" /><circle cx="371" cy="251.56" r="3" fill="#4682b4" /><circle cx="365" cy="223.33" r="3" fill="#4682b4" /><circle cx="359" cy="195.77" r="3" fill="#4682b4" /><circle cx="383" cy="214.23000000000002" r="3" fill="#4682b4" /><circle cx="350" cy="176.9" r="3" fill="#4682b4" /><circle cx="359" cy="215.35" r="3" fill="#4682b4" /><circle cx="365" cy="216.6" r="3" fill="#4682b4" /><circle cx="359" cy="222" r="3" fill="#4682b4" /><circle cx="356" cy="227.91" r="3" fill="#4682b4" /><circle cx="353" cy="166.33" r="3" fill="#4682b4" /><circle cx="359" cy="276.69" r="3" fill="#4682b4" /><circle cx="374" cy="192.39000000000001" r="3" fill="#4682b4" /><circle cx="347" cy="167.09" r="3" fill="#4682b4" /><circle cx="377" cy="212.48000000000002" r="3" fill="#4682b4" /><circle cx="359" cy="247.62" r="3" fill="#4682b4" /><circle cx="359" cy="209.33" r="3" fill="#4682b4" /><circle cx="365" cy="148.62" r="3" fill="#4682b4" /><circle cx="359" cy="189.04" r="3" fill="#4682b4" /><circle cx="359" cy="158.1" r="3" fill="#4682b4" /><circle cx="341" cy="168.13" r="3" fill="#4682b4" /><circle cx="380" cy="205.91" r="3" fill="#4682b4" /><circle cx="371" cy="220.25" r="3" fill="#4682b4" /><circle cx="362" cy="228.82" r="3" fill="#4682b4" /><circle cx="359" cy="236.36" r="3" fill="#4682b4" /><circle cx="353" cy="191.92000000000002" r="3" fill="#4682b4" /><circle cx="368" cy="231.84" r="3" fill="#4682b4" /><circle cx="353" cy="200.71" r="3" fill="#4682b4" /><circle cx="377" cy="186.96" r="3" fill="#4682b4" /><circle cx="359" cy="266.55" r="3" fill="#4682b4" /><circle cx="359" cy="164.29" r="3" fill="#4682b4" /><circle cx="353" cy="220.23000000000002" r="3" fill="#4682b4" /><circle cx="365" cy="160.06" r="3" fill="#4682b4" /><circle cx="359" cy="253.93" r="3" fill="#4682b4" /><circle cx="368" cy="203.20000000000002" r="3" fill="#4682b4" /><circle cx="377" cy="240.77" r="3" fill="#4682b4" /><circle cx="347" cy="224.11" r="3" fill="#4682b4" /><circle cx="335" cy="214.52" r="3" fill="#4682b4" /><circle cx="347" cy="237.02" r="3" fill="#4682b4" /><circle cx="371" cy="239.42000000000002" r="3" fill="#4682b4" /><circle cx="347" cy="194.38" r="3" fill="#4682b4" /><circle cx="365" cy="278.2" r="3" fill="#4682b4" /><circle cx="353" cy="233.47" r="3" fill="#4682b4" /><circle cx="359" cy="170.39000000000001" r="3" fill="#4682b4" /><circle cx="347" cy="203.24" r="3" fill="#4682b4" /><circle cx="374" cy="167.19" r="3" fill="#4682b4" /><circle cx="371" cy="210.67000000000002" r="3" fill="#4682b4" /><circle cx="371" cy="177.3" r="3" fill="#4682b4" /><circle cx="347" cy="186.94" r="3" fill="#4682b4" /><circle cx="374" cy="205.37" r="3" fill="#4682b4" /><circle cx="341" cy="195.9" r="3" fill="#4682b4" /><circle cx="347" cy="210.72" r="3" fill="#4682b4" /><circle cx="359" cy="202.20000000000002" r="3" fill="#4682b4" /><circle cx="365" cy="237.67000000000002" r="3" fill="#4682b4" /><circle cx="353" cy="250.36" r="3" fill="#4682b4" /><circle cx="359" cy="145.41" r="3" fill="#4682b4" /><circle cx="359" cy="181.94" r="3" fill="#4682b4" /><circle cx="365" cy="256.22" r="3" fill="#4682b4" /><circle cx="371" cy="186.84" r="3" fill="#4682b4" /><circle cx="365" cy="191.09" r="3" fill="#4682b4" /><circle cx="356" cy="175.63" r="3" fill="#4682b4" /><circle cx="365" cy="197.83" r="3" fill="#4682b4" /><circle cx="353" cy="160.26" r="3" fill="#4682b4" /><circle cx="353" cy="240" r="3" fill="#4682b4" /><circle cx="389" cy="215.83" r="3" fill="#4682b4" /><circle cx="353" cy="150.47" r="3" fill="#4682b4" /><circle cx="353" cy="210.5" r="3" fill="#4682b4" /><circle cx="341" cy="205.85" r="3" fill="#4682b4" /><circle cx="341" cy="212.63" r="3" fill="#4682b4" /><circle cx="365" cy="210.24" r="3" fill="#4682b4" /><circle cx="553" cy="292.40000000000003" r="3" fill="#4682b4" /><circle cx="565" cy="303.15000000000003" r="3" fill="#4682b4" /><circle cx="550" cy="258.83" r="3" fill="#4682b4" /><circle cx="562" cy="276.7" r="3" fill="#4682b4" /><circle cx="565" cy="156.39000000000001" r="3" fill="#4682b4" /><circle cx="529" cy="320.83" r="3" fill="#4682b4" /><circle cx="562" cy="212.13" r="3" fill="#4682b4" /><circle cx="565" cy="224.25" r="3" fill="#4682b4" /><circle cx="559" cy="182.66" r="3" fill="#4682b4" /><circle cx="559" cy="146.09" r="3" fill="#4682b4" /><circle cx="556" cy="326.78000000000003" r="3" fill="#4682b4" /><circle cx="535" cy="297.58" r="3" fill="#4682b4" /><circle cx="559" cy="306.64" r="3" fill="#4682b4" /><circle cx="565" cy="309.61" r="3" fill="#4682b4" /><circle cx="541" cy="303.45" r="3" fill="#4682b4" /><circle cx="559" cy="300.3" r="3" fill="#4682b4" /><circle cx="580" cy="317.96" r="3" fill="#4682b4" /><circle cx="592" cy="323.27" r="3" fill="#4682b4" /><circle cx="586" cy="295.68" r="3" fill="#4682b4" /><circle cx="562" cy="246.86" r="3" fill="#4682b4" /><circle cx="577" cy="243.53" r="3" fill="#4682b4" /><circle cx="559" cy="206.19" r="3" fill="#4682b4" /><circle cx="550" cy="222.55" r="3" fill="#4682b4" /><circle cx="565" cy="147.4" r="3" fill="#4682b4" /><circle cx="580" cy="332.27" r="3" fill="#4682b4" /><circle cx="559" cy="138.35" r="3" fill="#4682b4" /><circle cx="547" cy="317.04" r="3" fill="#4682b4" /><circle cx="559" cy="234.98000000000002" r="3" fill="#4682b4" /><circle cx="574" cy="281.11" r="3" fill="#4682b4" /><circle cx="556" cy="250.47" r="3" fill="#4682b4" /><circle cx="556" cy="241.85" r="3" fill="#4682b4" /><circle cx="559" cy="191.57" r="3" fill="#4682b4" /><circle cx="523" cy="323.39" r="3" fill="#4682b4" /><circle cx="595" cy="314.35" r="3" fill="#4682b4" /><circle cx="571" cy="204.05" r="3" fill="#4682b4" /><circle cx="571" cy="293.24" r="3" fill="#4682b4" /><circle cx="562" cy="261.03000000000003" r="3" fill="#4682b4" /><circle cx="544" cy="329.79" r="3" fill="#4682b4" /><circle cx="580" cy="283.29" r="3" fill="#4682b4" /><circle cx="556" cy="215.1" r="3" fill="#4682b4" /><circle cx="538" cy="323.73" r="3" fill="#4682b4" /><circle cx="586" cy="326.98" r="3" fill="#4682b4" /><circle cx="532" cy="332.65000000000003" r="3" fill="#4682b4" /><circle cx="511" cy="325.33" r="3" fill="#4682b4" /><circle cx="565" cy="296.31" r="3" fill="#4682b4" /><circle cx="559" cy="228.91" r="3" fill="#4682b4" /><circle cx="565" cy="196.59" r="3" fill="#4682b4" /><circle cx="574" cy="329.56" r="3" fill="#4682b4" /><circle cx="568" cy="219.04" r="3" fill="#4682b4" /><circle cx="538" cy="332.44" r="3" fill="#4682b4" /><circle cx="577" cy="310.82" r="3" fill="#4682b4" /><circle cx="604" cy="324.74" r="3" fill="#4682b4" /><circle cx="556" cy="279.35" r="3" fill="#4682b4" /><circle cx="553" cy="267.04" r="3" fill="#4682b4" /><circle cx="568" cy="277.08" r="3" fill="#4682b4" /><circle cx="583" cy="312.27" r="3" fill="#4682b4" /><circle cx="559" cy="162.52" r="3" fill="#4682b4" /><circle cx="559" cy="69.11" r="3" fill="#4682b4" /><circle cx="565" cy="203.9" r="3" fill="#4682b4" /><circle cx="553" cy="286.05" r="3" fill="#4682b4" /><circle cx="523" cy="316.18" r="3" fill="#4682b4" /><circle cx="562" cy="323.99" r="3" fill="#4682b4" /><circle cx="568" cy="242.73000000000002" r="3" fill="#4682b4" /><circle cx="544" cy="238.41" r="3" fill="#4682b4" /><circle cx="571" cy="310.14" r="3" fill="#4682b4" /><circle cx="544" cy="282.25" r="3" fill="#4682b4" /><circle cx="529" cy="314.32" r="3" fill="#4682b4" /><circle cx="571" cy="149.9" r="3" fill="#4682b4" /><circle cx="553" cy="207.66" r="3" fill="#4682b4" /><circle cx="571" cy="303.16" r="3" fill="#4682b4" /><circle cx="547" cy="288.15000000000003" r="3" fill="#4682b4" /><circle cx="595" cy="306.91" r="3" fill="#4682b4" /><circle cx="589" cy="305.64" r="3" fill="#4682b4" /><circle cx="535" cy="305.35" r="3" fill="#4682b4" /><circle cx="568" cy="262.14" r="3" fill="#4682b4" /><circle cx="535" cy="290.71" r="3" fill="#4682b4" /><circle cx="562" cy="218.26" r="3" fill="#4682b4" /><circle cx="553" cy="230.5" r="3" fill="#4682b4" /><circle cx="580" cy="324.05" r="3" fill="#4682b4" /><circle cx="550" cy="280.19" r="3" fill="#4682b4" /><circle cx="553" cy="321.42" r="3" fill="#4682b4" /><circle cx="601" cy="316.36" r="3" fill="#4682b4" /><circle cx="559" cy="285.16" r="3" fill="#4682b4" /><circle cx="574" cy="238.15" r="3" fill="#4682b4" /><circle cx="550" cy="326.85" r="3" fill="#4682b4" /><circle cx="517" cy="324.52" r="3" fill="#4682b4" /><circle cx="565" cy="282.67" r="3" fill="#4682b4" /><circle cx="571" cy="287.23" r="3" fill="#4682b4" /><circle cx="559" cy="199.26" r="3" fill="#4682b4" /><circle cx="559" cy="266.52" r="3" fill="#4682b4" /><circle cx="574" cy="316.06" r="3" fill="#4682b4" /><circle cx="547" cy="303.27" r="3" fill="#4682b4" /><circle cx="553" cy="308.67" r="3" fill="#4682b4" /><circle cx="553" cy="199.78" r="3" fill="#4682b4" /><circle cx="568" cy="235.6" r="3" fill="#4682b4" /><circle cx="553" cy="315.04" r="3" fill="#4682b4" /><circle cx="544" cy="244.93" r="3" fill="#4682b4" /><circle cx="565" cy="315.82" r="3" fill="#4682b4" /><circle cx="544" cy="323.01" r="3" fill="#4682b4" /><circle cx="517" cy="318.15000000000003" r="3" fill="#4682b4" /><circle cx="571" cy="226.13" r="3" fill="#4682b4" /><circle cx="577" cy="303.34000000000003" r="3" fill="#4682b4" /><circle cx="559" cy="331.99" r="3" fill="#4682b4" /><circle cx="550" cy="242.92000000000002" r="3" fill="#4682b4" /><circle cx="550" cy="235.8" r="3" fill="#4682b4" /><circle cx="589" cy="314.08" r="3" fill="#4682b4" /><circle cx="580" cy="294.06" r="3" fill="#4682b4" /><circle cx="541" cy="317.7" r="3" fill="#4682b4" /><circle cx="583" cy="304.31" r="3" fill="#4682b4" /><circle cx="565" cy="138.75" r="3" fill="#4682b4" /><circle cx="547" cy="310.59000000000003" r="3" fill="#4682b4" /><circle cx="553" cy="148.82" r="3" fill="#4682b4" /><circle cx="541" cy="290.52" r="3" fill="#4682b4" /><circle cx="562" cy="240.5" r="3" fill="#4682b4" /><circle cx="547" cy="294.81" r="3" fill="#4682b4" /><circle cx="565" cy="187.42000000000002" r="3" fill="#4682b4" /><circle cx="541" cy="296.62" r="3" fill="#4682b4" /><circle cx="553" cy="332.22" r="3" fill="#4682b4" /><circle cx="556" cy="272.25" r="3" fill="#4682b4" /><circle cx="559" cy="318.71" r="3" fill="#4682b4" /><circle cx="577" cy="288.59000000000003" r="3" fill="#4682b4" /><circle cx="559" cy="93.35000000000001" r="3" fill="#4682b4" /><circle cx="568" cy="321.71" r="3" fill="#4682b4" /><circle cx="535" cy="318.40000000000003" r="3" fill="#4682b4" /><circle cx="553" cy="301.24" r="3" fill="#4682b4" /><circle cx="541" cy="311.62" r="3" fill="#4682b4" /><circle cx="562" cy="253.55" r="3" fill="#4682b4" /><circle cx="598" cy="324.11" r="3" fill="#4682b4" /><circle cx="559" cy="291.69" r="3" fill="#4682b4" /><circle cx="553" cy="187.48" r="3" fill="#4682b4" /><circle cx="565" cy="290.12" r="3" fill="#4682b4" /><circle cx="559" cy="312.68" r="3" fill="#4682b4" /><circle cx="586" cy="319.34000000000003" r="3" fill="#4682b4" /><circle cx="568" cy="328.40000000000003" r="3" fill="#4682b4" /><circle cx="556" cy="222.05" r="3" fill="#4682b4" /><circle cx="559" cy="156.26" r="3" fill="#4682b4" /><circle cx="565" cy="268.73" r="3" fill="#4682b4" /><circle cx="523" cy="307.19" r="3" fill="#4682b4" /><circle cx="571" cy="269.63" r="3" fill="#4682b4" /><circle cx="556" cy="257.05" r="3" fill="#4682b4" /><circle cx="535" cy="312.27" r="3" fill="#4682b4" /><circle cx="568" cy="253.9" r="3" fill="#4682b4" /><circle cx="589" cy="332.94" r="3" fill="#4682b4" /><circle cx="526" cy="333" r="3" fill="#4682b4" /><circle cx="565" cy="97.24000000000001" r="3" fill="#4682b4" /><circle cx="538" cy="283.65000000000003" r="3" fill="#4682b4" /><circle cx="529" cy="306.88" r="3" fill="#4682b4" /><circle cx="586" cy="287.43" r="3" fill="#4682b4" /><circle cx="574" cy="322.2" r="3" fill="#4682b4" /><circle cx="565" cy="230.27" r="3" fill="#4682b4" /></g></svg>