<svg xmlns="http://www.w3.org/2000/svg" width="686.2" height="545" font-family="DejaVu Sans, Liberation Sans, Arial, sans-serif" fill="black"><rect width="100%" height="100%" fill="white" /><line x1="72.2" y1="494" x2="672.2" y2="494" stroke="#000000" stroke-width="1" /><line x1="72.2" y1="44" x2="72.2" y2="494" stroke="#000000" stroke-width="1" /><line x1="72.2" y1="429.71000000000004" x2="672.2" y2="429.71000000000004" stroke="#cccccc" stroke-width="1" /><line x1="72.2" y1="365.43" x2="672.2" y2="365.43" stroke="#cccccc" stroke-width="1" /><line x1="72.2" y1="301.14" x2="672.2" y2="301.14" stroke="#cccccc" stroke-width="1" /><line x1="72.2" y1="236.86" x2="672.2" y2="236.86" stroke="#cccccc" stroke-width="1" /><line x1="72.2" y1="172.57" x2="672.2" y2="172.57" stroke="#cccccc" stroke-width="1" /><line x1="72.2" y1="108.29" x2="672.2" y2="108.29" stroke="#cccccc" stroke-width="1" /><line x1="72.2" y1="44" x2="672.2" y2="44" stroke="#cccccc" stroke-width="1" /><text x="172.20000000000002" y="511" font-size="12" text-anchor="middle">Control</text><line x1="172.20000000000002" y1="494" x2="172.20000000000002" y2="499" stroke="#000000" stroke-width="1" /><text x="372.2" y="511" font-size="12" text-anchor="middle">Bimodal</text><line x1="372.2" y1="494" x2="372.2" y2="499" stroke="#000000" stroke-width="1" /><text x="572.2" y="511" font-size="12" text-anchor="middle">Right-skewed</text><line x1="572.2" y1="494" x2="572.2" y2="499" stroke="#000000" stroke-width="1" /><line x1="67.2" y1="494" x2="72.2" y2="494" stroke="#000000" stroke-width="1" /><text x="64.2" y="498.2" font-size="12" text-anchor="end">-3</text><line x1="67.2" y1="429.71000000000004" x2="72.2" y2="429.71000000000004" stroke="#000000" stroke-width="1" /><text x="64.2" y="433.91" font-size="12" text-anchor="end">-2</text><line x1="67.2" y1="365.43" x2="72.2" y2="365.43" stroke="#000000" stroke-width="1" /><text x="64.2" y="369.63" font-size="12" text-anchor="end">-1</text><line x1="67.2" y1="301.14" x2="72.2" y2="301.14" stroke="#000000" stroke-width="1" /><text x="64.2" y="305.34000000000003" font-size="12" text-anchor="end">0</text><line x1="67.2" y1="236.86" x2="72.2" y2="236.86" stroke="#000000" stroke-width="1" /><text x="64.2" y="241.06" font-size="12" text-anchor="end">1</text><line x1="67.2" y1="172.57" x2="72.2" y2="172.57" stroke="#000000" stroke-width="1" /><text x="64.2" y="176.77" font-size="12" text-anchor="end">2</text><line x1="67.2" y1="108.29" x2="72.2" y2="108.29" stroke="#000000" stroke-width="1" /><text x="64.2" y="112.49000000000001" font-size="12" text-anchor="end">3</text><line x1="67.2" y1="44" x2="72.2" y2="44" stroke="#000000" stroke-width="1" /><text x="64.2" y="48.2" font-size="12" text-anchor="end">4</text><text x="7" y="272.5" font-size="14" text-anchor="middle" transform="rotate(-90,7,272.5)">Value</text><text x="372.2" y="22" font-size="18" text-anchor="middle">Beeswarm</text><circle cx="187.20000000000002" cy="349.23" r="3" fill="#4682b4" /><circle cx="181.20000000000002" cy="272.85" r="3" fill="#4682b4" /><circle cx="172.20000000000002" cy="391" r="3" fill="#4682b4" /><circle cx="181.20000000000002" cy="210.95000000000002" r="3" fill="#4682b4" /><circle cx="166.20000000000002" cy="263.22" r="3" fill="#4682b4" /><circle cx="172.20000000000002" cy="348.40000000000003" r="3" fill="#4682b4" /><circle cx="166.20000000000002" cy="255.38" r="3" fill="#4682b4" /><circle cx="178.20000000000002" cy="411.61" r="3" fill="#4682b4" /><circle cx="172.20000000000002" cy="327.3" r="3" fill="#4682b4" /><circle cx="190.20000000000002" cy="335.65000000000003" r="3" fill="#4682b4" /><circle cx="151.20000000000002" cy="370.04" r="3" fill="#4682b4" /><circle cx="178.20000000000002" cy="321.34000000000003" r="3" fill="#4682b4" /><circle cx="172.20000000000002" cy="297.35" r="3" fill="#4682b4" /><circle cx="178.20000000000002" cy="327.62" r="3" fill="#4682b4" /><circle cx="172.20000000000002" cy="463.94" r="3" fill="#4682b4" /><circle cx="178.20000000000002" cy="247.20000000000002" r="3" fill="#4682b4" /><circle cx="184.20000000000002" cy="322.90000000000003" r="3" fill="#4682b4" /><circle cx="169.20000000000002" cy="335.51" r="3" fill="#4682b4" /><circle cx="172.20000000000002" cy="265.16" r="3" fill="#4682b4" /><circle cx="175.20000000000002" cy="340.67" r="3" fill="#4682b4" /><circle cx="184.20000000000002" cy="249.88" r="3" fill="#4682b4" /><circle cx="172.20000000000002" cy="477.28000000000003" r="3" fill="#4682b4" /><circle cx="157.20000000000002" cy="305.76" r="3" fill="#4682b4" /><circle cx="181.20000000000002" cy="351.94" r="3" fill="#4682b4" /><circle cx="178.20000000000002" cy="241.20000000000002" r="3" fill="#4682b4" /><circle cx="178.20000000000002" cy="394.57" r="3" fill="#4682b4" /><circle cx="175.20000000000002" cy="354.21" r="3" fill="#4682b4" /><circle cx="166.20000000000002" cy="247.4" r="3" fill="#4682b4" /><circle cx="154.20000000000002" cy="299.21" r="3" fill="#4682b4" /><circle cx="157.20000000000002" cy="365.77" r="3" fill="#4682b4" /><circle cx="166.20000000000002" cy="288.55" r="3" fill="#4682b4" /><circle cx="172.20000000000002" cy="365.43" r="3" fill="#4682b4" /><circle cx="172.20000000000002" cy="486.55" r="3" fill="#4682b4" /><circle cx="190.20000000000002" cy="259.94" r="3" fill="#4682b4" /><circle cx="190.20000000000002" cy="281.93" r="3" fill="#4682b4" /><circle cx="193.20000000000002" cy="352.55" r="3" fill="#4682b4" /><circle cx="190.20000000000002" cy="290.85" r="3" fill="#4682b4" /><circle cx="172.20000000000002" cy="201.92000000000002" r="3" fill="#4682b4" /><circle cx="178.20000000000002" cy="294.33" r="3" fill="#4682b4" /><circle cx="190.20000000000002" cy="369.21" r="3" fill="#4682b4" /><circle cx="178.20000000000002" cy="346.57" r="3" fill="#4682b4" /><circle cx="175.20000000000002" cy="216.36" r="3" fill="#4682b4" /><circle cx="169.20000000000002" cy="217.08" r="3" fill="#4682b4" /><circle cx="169.20000000000002" cy="303.31" r="3" fill="#4682b4" /><circle cx="151.20000000000002" cy="353.32" r="3" fill="#4682b4" /><circle cx="172.20000000000002" cy="311.52" r="3" fill="#4682b4" /><circle cx="178.20000000000002" cy="261.66" r="3" fill="#4682b4" /><circle cx="190.20000000000002" cy="315.91" r="3" fill="#4682b4" /><circle cx="163.20000000000002" cy="304.69" r="3" fill="#4682b4" /><circle cx="193.20000000000002" cy="220.31" r="3" fill="#4682b4" /><circle cx="169.20000000000002" cy="271.85" r="3" fill="#4682b4" /><circle cx="184.20000000000002" cy="343.47" r="3" fill="#4682b4" /><circle cx="172.20000000000002" cy="258.1" r="3" fill="#4682b4" /><circle cx="193.20000000000002" cy="275.3" r="3" fill="#4682b4" /><circle cx="178.20000000000002" cy="313.77" r="3" fill="#4682b4" /><circle cx="172.20000000000002" cy="152.85" r="3" fill="#4682b4" /><circle cx="184.20000000000002" cy="289.2" r="3" fill="#4682b4" /><circle cx="172.20000000000002" cy="223.78" r="3" fill="#4682b4" /><circle cx="160.20000000000002" cy="242.47" r="3" fill="#4682b4" /><circle cx="151.20000000000002" cy="308.08" r="3" fill="#4682b4" /><circle cx="178.20000000000002" cy="286.28000000000003" r="3" fill="#4682b4" /><circle cx="172.20000000000002" cy="278.79" r="3" fill="#4682b4" /><circle cx="175.20000000000002" cy="306.23" r="3" fill="#4682b4" /><circle cx="157.20000000000002" cy="338.96" r="3" fill="#4682b4" /><circle cx="178.20000000000002" cy="279.62" r="3" fill="#4682b4" /><circle cx="172.20000000000002" cy="244.08" r="3" fill="#4682b4" /><circle cx="160.20000000000002" cy="331.47" r="3" fill="#4682b4" /><circle cx="184.20000000000002" cy="266.73" r="3" fill="#4682b4" /><circle cx="196.20000000000002" cy="300.3" r="3" fill="#4682b4" /><circle cx="196.20000000000002" cy="261.17" r="3" fill="#4682b4" /><circle cx="184.20000000000002" cy="259.7" r="3" fill="#4682b4" /><circle cx="166.20000000000002" cy="189.01" r="3" fill="#4682b4" /><circle cx="187.20000000000002" cy="222.23000000000002" r="3" fill="#4682b4" /><circle cx="166.20000000000002" cy="241.33" r="3" fill="#4682b4" /><circle cx="169.20000000000002" cy="357.86" r="3" fill="#4682b4" /><circle cx="178.20000000000002" cy="228.84" r="3" fill="#4682b4" /><circle cx="178.20000000000002" cy="187.72" r="3" fill="#4682b4" /><circle cx="184.20000000000002" cy="314.06" r="3" fill="#4682b4" /><circle cx="166.20000000000002" cy="374.43" r="3" fill="#4682b4" /><circle cx="172.20000000000002" cy="172.66" r="3" fill="#4682b4" /><circle cx="166.20000000000002" cy="367.92" r="3" fill="#4682b4" /><circle cx="190.20000000000002" cy="245.93" r="3" fill="#4682b4" /><circle cx="178.20000000000002" cy="300.83" r="3" fill="#4682b4" /><circle cx="166.20000000000002" cy="205.46" r="3" fill="#4682b4" /><circle cx="163.20000000000002" cy="360.81" r="3" fill="#4682b4" /><circle cx="145.20000000000002" cy="308.51" r="3" fill="#4682b4" /><circle cx="160.20000000000002" cy="298.59000000000003" r="3" fill="#4682b4" /><circle cx="160.20000000000002" cy="314.29" r="3" fill="#4682b4" /><circle cx="166.20000000000002" cy="295.32" r="3" fill="#4682b4" /><circle cx="172.20000000000002" cy="182.61" r="3" fill="#4682b4" /><circle cx="178.20000000000002" cy="255.33" r="3" fill="#4682b4" /><circle cx="169.20000000000002" cy="342.97" r="3" fill="#4682b4" /><circle cx="157.20000000000002" cy="215.49" r="3" fill="#4682b4" /><circle cx="178.20000000000002" cy="205.03" r="3" fill="#4682b4" /><circle cx="181.20000000000002" cy="218.91" r="3" fill="#4682b4" /><circle cx="184.20000000000002" cy="330.92" r="3" fill="#4682b4" /><circle cx="160.20000000000002" cy="344.26" r="3" fill="#4682b4" /><circle cx="163.20000000000002" cy="338.55" r="3" fill="#4682b4" /><circle cx="184.20000000000002" cy="305.29" r="3" fill="#4682b4" /><circle cx="172.20000000000002" cy="284.91" r="3" fill="#4682b4" /><circle cx="166.20000000000002" cy="330.15000000000003" r="3" fill="#4682b4" /><circle cx="163.20000000000002" cy="211.12" r="3" fill="#4682b4" /><circle cx="190.20000000000002" cy="298.77" r="3" fill="#4682b4" /><circle cx="172.20000000000002" cy="318.14" r="3" fill="#4682b4" /><circle cx="160.20000000000002" cy="281.51" r="3" fill="#4682b4" /><circle cx="196.20000000000002" cy="283.99" r="3" fill="#4682b4" /><circle cx="154.20000000000002" cy="316.14" r="3" fill="#4682b4" /><circle cx="172.20000000000002" cy="373.31" r="3" fill="#4682b4" /><circle cx="187.20000000000002" cy="274.62" r="3" fill="#4682b4" /><circle cx="184.20000000000002" cy="368.76" r="3" fill="#4682b4" /><circle cx="172.20000000000002" cy="210.46" r="3" fill="#4682b4" /><circle cx="169.20000000000002" cy="229.58" r="3" fill="#4682b4" /><circle cx="154.20000000000002" cy="282.16" r="3" fill="#4682b4" /><circle cx="184.20000000000002" cy="280.85" r="3" fill="#4682b4" /><circle cx="172.20000000000002" cy="122.95" r="3" fill="#4682b4" /><circle cx="160.20000000000002" cy="324" r="3" fill="#4682b4" /><circle cx="163.20000000000002" cy="219.8" r="3" fill="#4682b4" /><circle cx="172.20000000000002" cy="291.27" r="3" fill="#4682b4" /><circle cx="160.20000000000002" cy="259.74" r="3" fill="#4682b4" /><circle cx="172.20000000000002" cy="188.89000000000001" r="3" fill="#4682b4" /><circle cx="184.20000000000002" cy="297.42" r="3" fill="#4682b4" /><circle cx="166.20000000000002" cy="313.86" r="3" fill="#4682b4" /><circle cx="184.20000000000002" cy="361.45" r="3" fill="#4682b4" /><circle cx="172.20000000000002" cy="237.12" r="3" fill="#4682b4" /><circle cx="178.20000000000002" cy="359.93" r="3" fill="#4682b4" /><circle cx="187.20000000000002" cy="215.45000000000002" r="3" fill="#4682b4" /><circle cx="172.20000000000002" cy="408.41" r="3" fill="#4682b4" /><circle cx="175.20000000000002" cy="333.08" r="3" fill="#4682b4" /><circle cx="166.20000000000002" cy="348.88" r="3" fill="#4682b4" /><circle cx="178.20000000000002" cy="374" r="3" fill="#4682b4" /><circle cx="172.20000000000002" cy="250.53" r="3" fill="#4682b4" /><circle cx="166.20000000000002" cy="280.34000000000003" r="3" fill="#4682b4" /><circle cx="184.20000000000002" cy="241.39000000000001" r="3" fill="#4682b4" /><circle cx="181.20000000000002" cy="337.6" r="3" fill="#4682b4" /><circle cx="157.20000000000002" cy="349.66" r="3" fill="#4682b4" /><circle cx="154.20000000000002" cy="260.91" r="3" fill="#4682b4" /><circle cx="178.20000000000002" cy="365.94" r="3" fill="#4682b4" /><circle cx="184.20000000000002" cy="376.53000000000003" r="3" fill="#4682b4" /><circle cx="163.20000000000002" cy="230.74" r="3" fill="#4682b4" /><circle cx="196.20000000000002" cy="370.32" r="3" fill="#4682b4" /><circle cx="160.20000000000002" cy="266.86" r="3" fill="#4682b4" /><circle cx="190.20000000000002" cy="306.95" r="3" fill="#4682b4" /><circle cx="157.20000000000002" cy="274.8" r="3" fill="#4682b4" /><circle cx="175.20000000000002" cy="270.73" r="3" fill="#4682b4" /><circle cx="160.20000000000002" cy="289.94" r="3" fill="#4682b4" /><circle cx="166.20000000000002" cy="321.45" r="3" fill="#4682b4" /><circle cx="172.20000000000002" cy="450.72" r="3" fill="#4682b4" /><circle cx="196.20000000000002" cy="308.43" r="3" fill="#4682b4" /><circle cx="163.20000000000002" cy="274.43" r="3" fill="#4682b4" /><circle cx="172.20000000000002" cy="381.99" r="3" fill="#4682b4" /><circle cx="381.2" cy="358.51" r="3" fill="#4682b4" /><circle cx="378.2" cy="367.35" r="3" fill="#4682b4" /><circle cx="372.2" cy="328.85" r="3" fill="#4682b4" /><circle cx="378.2" cy="377.2" r="3" fill="#4682b4" /><circle cx="378.2" cy="442.21000000000004" r="3" fill="#4682b4" /><circle cx="366.2" cy="377.66" r="3" fill="#4682b4" /><circle cx="384.2" cy="444.42" r="3" fill="#4682b4" /><circle cx="378.2" cy="416.19" r="3" fill="#4682b4" /><circle cx="372.2" cy="388.63" r="3" fill="#4682b4" /><circle cx="396.2" cy="407.09000000000003" r="3" fill="#4682b4" /><circle cx="363.2" cy="369.76" r="3" fill="#4682b4" /><circle cx="372.2" cy="408.21000000000004" r="3" fill="#4682b4" /><circle cx="378.2" cy="409.46000000000004" r="3" fill="#4682b4" /><circle cx="372.2" cy="414.86" r="3" fill="#4682b4" /><circle cx="369.2" cy="420.77" r="3" fill="#4682b4" /><circle cx="366.2" cy="359.19" r="3" fill="#4682b4" /><circle cx="372.2" cy="469.55" r="3" fill="#4682b4" /><circle cx="387.2" cy="385.25" r="3" fill="#4682b4" /><circle cx="360.2" cy="359.95" r="3" fill="#4682b4" /><circle cx="390.2" cy="405.33" r="3" fill="#4682b4" /><circle cx="372.2" cy="440.48" r="3" fill="#4682b4" /><circle cx="372.2" cy="402.19" r="3" fill="#4682b4" /><circle cx="378.2" cy="341.47" r="3" fill="#4682b4" /><circle cx="372.2" cy="381.89" r="3" fill="#4682b4" /><circle cx="372.2" cy="350.96" r="3" fill="#4682b4" /><circle cx="354.2" cy="360.99" r="3" fill="#4682b4" /><circle cx="393.2" cy="398.77" r="3" fill="#4682b4" /><circle cx="384.2" cy="413.1" r="3" fill="#4682b4" /><circle cx="375.2" cy="421.67" r="3" fill="#4682b4" /><circle cx="372.2" cy="429.22" r="3" fill="#4682b4" /><circle cx="366.2" cy="384.78000000000003" r="3" fill="#4682b4" /><circle cx="381.2" cy="424.69" r="3" fill="#4682b4" /><circle cx="366.2" cy="393.57" r="3" fill="#4682b4" /><circle cx="390.2" cy="379.81" r="3" fill="#4682b4" /><circle cx="372.2" cy="459.41" r="3" fill="#4682b4" /><circle cx="372.2" cy="357.15000000000003" r="3" fill="#4682b4" /><circle cx="366.2" cy="413.09000000000003" r="3" fill="#4682b4" /><circle cx="378.2" cy="352.92" r="3" fill="#4682b4" /><circle cx="372.2" cy="446.78000000000003" r="3" fill="#4682b4" /><circle cx="381.2" cy="396.06" r="3" fill="#4682b4" /><circle cx="390.2" cy="433.63" r="3" fill="#4682b4" /><circle cx="360.2" cy="416.96000000000004" r="3" fill="#4682b4" /><circle cx="348.2" cy="407.37" r="3" fill="#4682b4" /><circle cx="360.2" cy="429.88" r="3" fill="#4682b4" /><circle cx="384.2" cy="432.27" r="3" fill="#4682b4" /><circle cx="360.2" cy="387.24" r="3" fill="#4682b4" /><circle cx="378.2" cy="471.06" r="3" fill="#4682b4" /><circle cx="366.2" cy="426.32" r="3" fill="#4682b4" /><circle cx="372.2" cy="363.24" r="3" fill="#4682b4" /><circle cx="360.2" cy="396.1" r="3" fill="#4682b4" /><circle cx="387.2" cy="360.04" r="3" fill="#4682b4" /><circle cx="384.2" cy="403.52" r="3" fill="#4682b4" /><circle cx="384.2" cy="370.16" r="3" fill="#4682b4" /><circle cx="360.2" cy="379.8" r="3" fill="#4682b4" /><circle cx="387.2" cy="398.23" r="3" fill="#4682b4" /><circle cx="354.2" cy="388.75" r="3" fill="#4682b4" /><circle cx="360.2" cy="403.57" r="3" fill="#4682b4" /><circle cx="372.2" cy="395.06" r="3" fill="#4682b4" /><circle cx="378.2" cy="430.52" r="3" fill="#4682b4" /><circle cx="366.2" cy="443.22" r="3" fill="#4682b4" /><circle cx="372.2" cy="338.27" r="3" fill="#4682b4" /><circle cx="372.2" cy="374.8" r="3" fill="#4682b4" /><circle cx="378.2" cy="449.08" r="3" fill="#4682b4" /><circle cx="384.2" cy="379.7" r="3" fill="#4682b4" /><circle cx="378.2" cy="383.95" r="3" fill="#4682b4" /><circle cx="369.2" cy="368.49" r="3" fill="#4682b4" /><circle cx="378.2" cy="390.69" r="3" fill="#4682b4" /><circle cx="366.2" cy="353.11" r="3" fill="#4682b4" /><circle cx="366.2" cy="432.86" r="3" fill="#4682b4" /><circle cx="402.2" cy="408.69" r="3" fill="#4682b4" /><circle cx="366.2" cy="343.32" r="3" fill="#4682b4" /><circle cx="366.2" cy="403.36" r="3" fill="#4682b4" /><circle cx="354.2" cy="398.71000000000004" r="3" fill="#4682b4" /><circle cx="354.2" cy="405.48" r="3" fill="#4682b4" /><circle cx="378.2" cy="403.1" r="3" fill="#4682b4" /><circle cx="381.2" cy="165.65" r="3" fill="#4682b4" /><circle cx="378.2" cy="174.5" r="3" fill="#4682b4" /><circle cx="372.2" cy="136" r="3" fill="#4682b4" /><circle cx="378.2" cy="184.34" r="3" fill="#4682b4" /><circle cx="378.2" cy="249.35" r="3" fill="#4682b4" /><circle cx="366.2" cy="184.81" r="3" fill="#4682b4" /><circle cx="384.2" cy="251.56" r="3" fill="#4682b4" /><circle cx="378.2" cy="223.33" r="3" fill="#4682b4" /><circle cx="372.2" cy="195.77" r="3" fill="#4682b4" /><circle cx="396.2" cy="214.23000000000002" r="3" fill="#4682b4" /><circle cx="363.2" cy="176.9" r="3" fill="#4682b4" /><circle cx="372.2" cy="215.35" r="3" fill="#4682b4" /><circle cx="378.2" cy="216.6" r="3" fill="#4682b4" /><circle cx="372.2" cy="222" r="3" fill="#4682b4" /><circle cx="369.2" cy="227.91" r="3" fill="#4682b4" /><circle cx="366.2" cy="166.33" r="3" fill="#4682b4" /><circle cx="372.2" cy="276.69" r="3" fill="#4682b4" /><circle cx="387.2" cy="192.39000000000001" r="3" fill="#4682b4" /><circle cx="360.2" cy="167.09" r="3" fill="#4682b4" /><circle cx="390.2" cy="212.48000000000002" r="3" fill="#4682b4" /><circle cx="372.2" cy="247.62" r="3" fill="#4682b4" /><circle cx="372.2" cy="209.33" r="3" fill="#4682b4" /><circle cx="378.2" cy="148.62" r="3" fill="#4682b4" /><circle cx="372.2" cy="189.04" r="3" fill="#4682b4" /><circle cx="372.2" cy="158.1" r="3" fill="#4682b4" /><circle cx="354.2" cy="168.13" r="3" fill="#4682b4" /><circle cx="393.2" cy="205.91" r="3" fill="#4682b4" /><circle cx="384.2" cy="220.25" r="3" fill="#4682b4" /><circle cx="375.2" cy="228.82" r="3" fill="#4682b4" /><circle cx="372.2" cy="236.36" r="3" fill="#4682b4" /><circle cx="366.2" cy="191.92000000000002" r="3" fill="#4682b4" /><circle cx="381.2" cy="231.84" r="3" fill="#4682b4" /><circle cx="366.2" cy="200.71" r="3" fill="#4682b4" /><circle cx="390.2" cy="186.96" r="3" fill="#4682b4" /><circle cx="372.2" cy="266.55" r="3" fill="#4682b4" /><circle cx="372.2" cy="164.29" r="3" fill="#4682b4" /><circle cx="366.2" cy="220.23000000000002" r="3" fill="#4682b4" /><circle cx="378.2" cy="160.06" r="3" fill="#4682b4" /><circle cx="372.2" cy="253.93" r="3" fill="#4682b4" /><circle cx="381.2" cy="203.20000000000002" r="3" fill="#4682b4" /><circle cx="390.2" cy="240.77" r="3" fill="#4682b4" /><circle cx="360.2" cy="224.11" r="3" fill="#4682b4" /><circle cx="348.2" cy="214.52" r="3" fill="#4682b4" /><circle cx="360.2" cy="237.02" r="3" fill="#4682b4" /><circle cx="384.2" cy="239.42000000000002" r="3" fill="#4682b4" /><circle cx="360.2" cy="194.38" r="3" fill="#4682b4" /><circle cx="378.2" cy="278.2" r="3" fill="#4682b4" /><circle cx="366.2" cy="233.47" r="3" fill="#4682b4" /><circle cx="372.2" cy="170.39000000000001" r="3" fill="#4682b4" /><circle cx="360.2" cy="203.24" r="3" fill="#4682b4" /><circle cx="387.2" cy="167.19" r="3" fill="#4682b4" /><circle cx="384.2" cy="210.67000000000002" r="3" fill="#4682b4" /><circle cx="384.2" cy="177.3" r="3" fill="#4682b4" /><circle cx="360.2" cy="186.94" r="3" fill="#4682b4" /><circle cx="387.2" cy="205.37" r="3" fill="#4682b4" /><circle cx="354.2" cy="195.9" r="3" fill="#4682b4" /><circle cx="360.2" cy="210.72" r="3" fill="#4682b4" /><circle cx="372.2" cy="202.20000000000002" r="3" fill="#4682b4" /><circle cx="378.2" cy="237.67000000000002" r="3" fill="#4682b4" /><circle cx="366.2" cy="250.36" r="3" fill="#4682b4" /><circle cx="372.2" cy="145.41" r="3" fill="#4682b4" /><circle cx="372.2" cy="181.94" r="3" fill="#4682b4" /><circle cx="378.2" cy="256.22" r="3" fill="#4682b4" /><circle cx="384.2" cy="186.84" r="3" fill="#4682b4" /><circle cx="378.2" cy="191.09" r="3" fill="#4682b4" /><circle cx="369.2" cy="175.63" r="3" fill="#4682b4" /><circle cx="378.2" cy="197.83" r="3" fill="#4682b4" /><circle cx="366.2" cy="160.26" r="3" fill="#4682b4" /><circle cx="366.2" cy="240" r="3" fill="#4682b4" /><circle cx="402.2" cy="215.83" r="3" fill="#4682b4" /><circle cx="366.2" cy="150.47" r="3" fill="#4682b4" /><circle cx="366.2" cy="210.5" r="3" fill="#4682b4" /><circle cx="354.2" cy="205.85" r="3" fill="#4682b4" /><circle cx="354.2" cy="212.63" r="3" fill="#4682b4" /><circle cx="378.2" cy="210.24" r="3" fill="#4682b4" /><circle cx="566.2" cy="292.40000000000003" r="3" fill="#4682b4" /><circle cx="578.2" cy="303.15000000000003" r="3" fill="#4682b4" /><circle cx="563.2" cy="258.83" r="3" fill="#4682b4" /><circle cx="575.2" cy="276.7" r="3" fill="#4682b4" /><circle cx="578.2" cy="156.39000000000001" r="3" fill="#4682b4" /><circle cx="542.2" cy="320.83" r="3" fill="#4682b4" /><circle cx="575.2" cy="212.13" r="3" fill="#4682b4" /><circle cx="578.2" cy="224.25" r="3" fill="#4682b4" /><circle cx="572.2" cy="182.66" r="3" fill="#4682b4" /><circle cx="572.2" cy="146.09" r="3" fill="#4682b4" /><circle cx="569.2" cy="326.78000000000003" r="3" fill="#4682b4" /><circle cx="548.2" cy="297.58" r="3" fill="#4682b4" /><circle cx="572.2" cy="306.64" r="3" fill="#4682b4" /><circle cx="578.2" cy="309.61" r="3" fill="#4682b4" /><circle cx="554.2" cy="303.45" r="3" fill="#4682b4" /><circle cx="572.2" cy="300.3" r="3" fill="#4682b4" /><circle cx="593.2" cy="317.96" r="3" fill="#4682b4" /><circle cx="605.2" cy="323.27" r="3" fill="#4682b4" /><circle cx="599.2" cy="295.68" r="3" fill="#4682b4" /><circle cx="575.2" cy="246.86" r="3" fill="#4682b4" /><circle cx="590.2" cy="243.53" r="3" fill="#4682b4" /><circle cx="572.2" cy="206.19" r="3" fill="#4682b4" /><circle cx="563.2" cy="222.55" r="3" fill="#4682b4" /><circle cx="578.2" cy="147.4" r="3" fill="#4682b4" /><circle cx="593.2" cy="332.27" r="3" fill="#4682b4" /><circle cx="572.2" cy="138.35" r="3" fill="#4682b4" /><circle cx="560.2" cy="317.04" r="3" fill="#4682b4" /><circle cx="572.2" cy="234.98000000000002" r="3" fill="#4682b4" /><circle cx="587.2" cy="281.11" r="3" fill="#4682b4" /><circle cx="569.2" cy="250.47" r="3" fill="#4682b4" /><circle cx="569.2" cy="241.85" r="3" fill="#4682b4" /><circle cx="572.2" cy="191.57" r="3" fill="#4682b4" /><circle cx="536.2" cy="323.39" r="3" fill="#4682b4" /><circle cx="608.2" cy="314.35" r="3" fill="#4682b4" /><circle cx="584.2" cy="204.05" r="3" fill="#4682b4" /><circle cx="584.2" cy="293.24" r="3" fill="#4682b4" /><circle cx="575.2" cy="261.03000000000003" r="3" fill="#4682b4" /><circle cx="557.2" cy="329.79" r="3" fill="#4682b4" /><circle cx="593.2" cy="283.29" r="3" fill="#4682b4" /><circle cx="569.2" cy="215.1" r="3" fill="#4682b4" /><circle cx="551.2" cy="323.73" r="3" fill="#4682b4" /><circle cx="599.2" cy="326.98" r="3" fill="#4682b4" /><circle cx="545.2" cy="332.65000000000003" r="3" fill="#4682b4" /><circle cx="524.2" cy="325.33" r="3" fill="#4682b4" /><circle cx="578.2" cy="296.31" r="3" fill="#4682b4" /><circle cx="572.2" cy="228.91" r="3" fill="#4682b4" /><circle cx="578.2" cy="196.59" r="3" fill="#4682b4" /><circle cx="587.2" cy="329.56" r="3" fill="#4682b4" /><circle cx="581.2" cy="219.04" r="3" fill="#4682b4" /><circle cx="551.2" cy="332.44" r="3" fill="#4682b4" /><circle cx="590.2" cy="310.82" r="3" fill="#4682b4" /><circle cx="617.2" cy="324.74" r="3" fill="#4682b4" /><circle cx="569.2" cy="279.35" r="3" fill="#4682b4" /><circle cx="566.2" cy="267.04" r="3" fill="#4682b4" /><circle cx="581.2" cy="277.08" r="3" fill="#4682b4" /><circle cx="596.2" cy="312.27" r="3" fill="#4682b4" /><circle cx="572.2" cy="162.52" r="3" fill="#4682b4" /><circle cx="572.2" cy="69.11" r="3" fill="#4682b4" /><circle cx="578.2" cy="203.9" r="3" fill="#4682b4" /><circle cx="566.2" cy="286.05" r="3" fill="#4682b4" /><circle cx="536.2" cy="316.18" r="3" fill="#4682b4" /><circle cx="575.2" cy="323.99" r="3" fill="#4682b4" /><circle cx="581.2" cy="242.73000000000002" r="3" fill="#4682b4" /><circle cx="557.2" cy="238.41" r="3" fill="#4682b4" /><circle cx="584.2" cy="310.14" r="3" fill="#4682b4" /><circle cx="557.2" cy="282.25" r="3" fill="#4682b4" /><circle cx="542.2" cy="314.32" r="3" fill="#4682b4" /><circle cx="584.2" cy="149.9" r="3" fill="#4682b4" /><circle cx="566.2" cy="207.66" r="3" fill="#4682b4" /><circle cx="584.2" cy="303.16" r="3" fill="#4682b4" /><circle cx="560.2" cy="288.15000000000003" r="3" fill="#4682b4" /><circle cx="608.2" cy="306.91" r="3" fill="#4682b4" /><circle cx="602.2" cy="305.64" r="3" fill="#4682b4" /><circle cx="548.2" cy="305.35" r="3" fill="#4682b4" /><circle cx="581.2" cy="262.14" r="3" fill="#4682b4" /><circle cx="548.2" cy="290.71" r="3" fill="#4682b4" /><circle cx="575.2" cy="218.26" r="3" fill="#4682b4" /><circle cx="566.2" cy="230.5" r="3" fill="#4682b4" /><circle cx="593.2" cy="324.05" r="3" fill="#4682b4" /><circle cx="563.2" cy="280.19" r="3" fill="#4682b4" /><circle cx="566.2" cy="321.42" r="3" fill="#4682b4" /><circle cx="614.2" cy="316.36" r="3" fill="#4682b4" /><circle cx="572.2" cy="285.16" r="3" fill="#4682b4" /><circle cx="587.2" cy="238.15" r="3" fill="#4682b4" /><circle cx="563.2" cy="326.85" r="3" fill="#4682b4" /><circle cx="530.2" cy="324.52" r="3" fill="#4682b4" /><circle cx="578.2" cy="282.67" r="3" fill="#4682b4" /><circle cx="584.2" cy="287.23" r="3" fill="#4682b4" /><circle cx="572.2" cy="199.26" r="3" fill="#4682b4" /><circle cx="572.2" cy="266.52" r="3" fill="#4682b4" /><circle cx="587.2" cy="316.06" r="3" fill="#4682b4" /><circle cx="560.2" cy="303.27" r="3" fill="#4682b4" /><circle cx="566.2" cy="308.67" r="3" fill="#4682b4" /><circle cx="566.2" cy="199.78" r="3" fill="#4682b4" /><circle cx="581.2" cy="235.6" r="3" fill="#4682b4" /><circle cx="566.2" cy="315.04" r="3" fill="#4682b4" /><circle cx="557.2" cy="244.93" r="3" fill="#4682b4" /><circle cx="578.2" cy="315.82" r="3" fill="#4682b4" /><circle cx="557.2" cy="323.01" r="3" fill="#4682b4" /><circle cx="530.2" cy="318.15000000000003" r="3" fill="#4682b4" /><circle cx="584.2" cy="226.13" r="3" fill="#4682b4" /><circle cx="590.2" cy="303.34000000000003" r="3" fill="#4682b4" /><circle cx="572.2" cy="331.99" r="3" fill="#4682b4" /><circle cx="563.2" cy="242.92000000000002" r="3" fill="#4682b4" /><circle cx="563.2" cy="235.8" r="3" fill="#4682b4" /><circle cx="602.2" cy="314.08" r="3" fill="#4682b4" /><circle cx="593.2" cy="294.06" r="3" fill="#4682b4" /><circle cx="554.2" cy="317.7" r="3" fill="#4682b4" /><circle cx="596.2" cy="304.31" r="3" fill="#4682b4" /><circle cx="578.2" cy="138.75" r="3" fill="#4682b4" /><circle cx="560.2" cy="310.59000000000003" r="3" fill="#4682b4" /><circle cx="566.2" cy="148.82" r="3" fill="#4682b4" /><circle cx="554.2" cy="290.52" r="3" fill="#4682b4" /><circle cx="575.2" cy="240.5" r="3" fill="#4682b4" /><circle cx="560.2" cy="294.81" r="3" fill="#4682b4" /><circle cx="578.2" cy="187.42000000000002" r="3" fill="#4682b4" /><circle cx="554.2" cy="296.62" r="3" fill="#4682b4" /><circle cx="566.2" cy="332.22" r="3" fill="#4682b4" /><circle cx="569.2" cy="272.25" r="3" fill="#4682b4" /><circle cx="572.2" cy="318.71" r="3" fill="#4682b4" /><circle cx="590.2" cy="288.59000000000003" r="3" fill="#4682b4" /><circle cx="572.2" cy="93.35000000000001" r="3" fill="#4682b4" /><circle cx="581.2" cy="321.71" r="3" fill="#4682b4" /><circle cx="548.2" cy="318.40000000000003" r="3" fill="#4682b4" /><circle cx="566.2" cy="301.24" r="3" fill="#4682b4" /><circle cx="554.2" cy="311.62" r="3" fill="#4682b4" /><circle cx="575.2" cy="253.55" r="3" fill="#4682b4" /><circle cx="611.2" cy="324.11" r="3" fill="#4682b4" /><circle cx="572.2" cy="291.69" r="3" fill="#4682b4" /><circle cx="566.2" cy="187.48" r="3" fill="#4682b4" /><circle cx="578.2" cy="290.12" r="3" fill="#4682b4" /><circle cx="572.2" cy="312.68" r="3" fill="#4682b4" /><circle cx="599.2" cy="319.34000000000003" r="3" fill="#4682b4" /><circle cx="581.2" cy="328.40000000000003" r="3" fill="#4682b4" /><circle cx="569.2" cy="222.05" r="3" fill="#4682b4" /><circle cx="572.2" cy="156.26" r="3" fill="#4682b4" /><circle cx="578.2" cy="268.73" r="3" fill="#4682b4" /><circle cx="536.2" cy="307.19" r="3" fill="#4682b4" /><circle cx="584.2" cy="269.63" r="3" fill="#4682b4" /><circle cx="569.2" cy="257.05" r="3" fill="#4682b4" /><circle cx="548.2" cy="312.27" r="3" fill="#4682b4" /><circle cx="581.2" cy="253.9" r="3" fill="#4682b4" /><circle cx="602.2" cy="332.94" r="3" fill="#4682b4" /><circle cx="539.2" cy="333" r="3" fill="#4682b4" /><circle cx="578.2" cy="97.24000000000001" r="3" fill="#4682b4" /><circle cx="551.2" cy="283.65000000000003" r="3" fill="#4682b4" /><circle cx="542.2" cy="306.88" r="3" fill="#4682b4" /><circle cx="599.2" cy="287.43" r="3" fill="#4682b4" /><circle cx="587.2" cy="322.2" r="3" fill="#4682b4" /><circle cx="578.2" cy="230.27" r="3" fill="#4682b4" /></svg>