<svg xmlns="http://www.w3.org/2000/svg" width="766.2" height="545" font-family="DejaVu Sans, Liberation Sans, Arial, sans-serif" fill="black"><rect width="100%" height="100%" fill="white" /><text x="383.1" y="27.400000000000002" font-size="18" text-anchor="middle">Ternary Plot</text><path d="M 189.21,376.40000000000003 L 538.39,376.40000000000003" stroke="#cccccc" stroke-width="1" fill="none" stroke-dasharray="3,3" /><path d="M 320.15000000000003,149.6 L 494.74,452" stroke="#cccccc" stroke-width="1" fill="none" stroke-dasharray="3,3" /><path d="M 407.45,149.6 L 232.86,452" stroke="#cccccc" stroke-width="1" fill="none" stroke-dasharray="3,3" /><path d="M 232.86,300.8 L 494.74,300.8" stroke="#cccccc" stroke-width="1" fill="none" stroke-dasharray="3,3" /><path d="M 276.5,225.20000000000002 L 407.45,452" stroke="#cccccc" stroke-width="1" fill="none" stroke-dasharray="3,3" /><path d="M 451.1,225.20000000000002 L 320.15000000000003,452" stroke="#cccccc" stroke-width="1" fill="none" stroke-dasharray="3,3" /><path d="M 276.5,225.20000000000002 L 451.1,225.20000000000002" stroke="#cccccc" stroke-width="1" fill="none" stroke-dasharray="3,3" /><path d="M 232.86,300.8 L 320.15000000000003,452" stroke="#cccccc" stroke-width="1" fill="none" stroke-dasharray="3,3" /><path d="M 494.74,300.8 L 407.45,452" stroke="#cccccc" stroke-width="1" fill="none" stroke-dasharray="3,3" /><path d="M 320.15000000000003,149.6 L 407.45,149.6" stroke="#cccccc" stroke-width="1" fill="none" stroke-dasharray="3,3" /><path d="M 189.21,376.40000000000003 L 232.86,452" stroke="#cccccc" stroke-width="1" fill="none" stroke-dasharray="3,3" /><path d="M 538.39,376.40000000000003 L 494.74,452" stroke="#cccccc" stroke-width="1" fill="none" stroke-dasharray="3,3" /><path d="M 363.8,74 L 145.56,452 L 582.04,452 Z" stroke="#000000" stroke-width="1" fill="none" /><text x="137.56" y="456" font-size="12" text-anchor="end">0%</text><text x="371.8" y="78" font-size="12" text-anchor="start">0%</text><text x="582.04" y="468" font-size="12" text-anchor="middle">0%</text><text x="181.21" y="380.40000000000003" font-size="12" text-anchor="end">20%</text><text x="415.45" y="153.6" font-size="12" text-anchor="start">20%</text><text x="494.74" y="468" font-size="12" text-anchor="middle">20%</text><text x="224.86" y="304.8" font-size="12" text-anchor="end">40%</text><text x="459.1" y="229.20000000000002" font-size="12" text-anchor="start">40%</text><text x="407.45" y="468" font-size="12" text-anchor="middle">40%</text><text x="268.5" y="229.20000000000002" font-size="12" text-anchor="end">60%</text><text x="502.74" y="304.8" font-size="12" text-anchor="start">60%</text><text x="320.15000000000003" y="468" font-size="12" text-anchor="middle">60%</text><text x="312.15000000000003" y="153.6" font-size="12" text-anchor="end">80%</text><text x="546.39" y="380.40000000000003" font-size="12" text-anchor="start">80%</text><text x="232.86" y="468" font-size="12" text-anchor="middle">80%</text><text x="355.8" y="78" font-size="12" text-anchor="end">100%</text><text x="590.04" y="456" font-size="12" text-anchor="start">100%</text><text x="145.56" y="468" font-size="12" text-anchor="middle">100%</text><text x="363.8" y="47.6" font-size="12" text-anchor="middle" font-weight="bold">A</text><text x="123.96000000000001" y="478.40000000000003" font-size="12" text-anchor="end" font-weight="bold">B</text><text x="603.64" y="478.40000000000003" font-size="12" text-anchor="start" font-weight="bold">C</text><circle cx="352.89" cy="168.5" r="5" fill="#1f77b4" /><circle cx="355.07" cy="149.6" r="5" fill="#1f77b4" /><circle cx="350.71" cy="187.4" r="5" fill="#1f77b4" /><circle cx="359.44" cy="142.04" r="5" fill="#1f77b4" /><circle cx="346.34000000000003" cy="194.96" r="5" fill="#1f77b4" /><circle cx="228.49" cy="406.64" r="5" fill="#ff7f0e" /><circle cx="211.03" cy="414.2" r="5" fill="#ff7f0e" /><circle cx="235.04" cy="395.3" r="5" fill="#ff7f0e" /><circle cx="206.67000000000002" cy="421.76" r="5" fill="#ff7f0e" /><circle cx="248.13" cy="402.86" r="5" fill="#ff7f0e" /><circle cx="507.84000000000003" cy="414.2" r="5" fill="#2ca02c" /><circle cx="520.9300000000001" cy="421.76" r="5" fill="#2ca02c" /><circle cx="488.2" cy="402.86" r="5" fill="#2ca02c" /><circle cx="523.12" cy="417.98" r="5" fill="#2ca02c" /><circle cx="477.28000000000003" cy="406.64" r="5" fill="#2ca02c" /><rect x="668.8000000000001" y="34" width="88" height="74" fill="#ffffff" /><rect x="668.8000000000001" y="34" width="88" height="74" fill="none" stroke="#000000" stroke-width="1" /><text x="698.8000000000001" y="53.2" font-size="12" text-anchor="start">A-rich</text><circle cx="683.8000000000001" cy="49" r="5" fill="#1f77b4" /><text x="698.8000000000001" y="71.2" font-size="12" text-anchor="start">B-rich</text><circle cx="683.8000000000001" cy="67" r="5" fill="#ff7f0e" /><text x="698.8000000000001" y="89.2" font-size="12" text-anchor="start">C-rich</text><circle cx="683.8000000000001" cy="85" r="5" fill="#2ca02c" /></svg>