<svg xmlns="http://www.w3.org/2000/svg" width="798.2" height="545" font-family="DejaVu Sans, Liberation Sans, Arial, sans-serif" fill="black"><rect width="100%" height="100%" fill="white" /><text x="399.1" y="27.400000000000002" font-size="18" text-anchor="middle">Soil texture — semi-transparent markers (400 pts)</text><path d="M 189.21,376.40000000000003 L 538.39,376.40000000000003" stroke="#cccccc" stroke-width="1" fill="none" stroke-dasharray="3,3" /><path d="M 320.15000000000003,149.6 L 494.74,452" stroke="#cccccc" stroke-width="1" fill="none" stroke-dasharray="3,3" /><path d="M 407.45,149.6 L 232.86,452" stroke="#cccccc" stroke-width="1" fill="none" stroke-dasharray="3,3" /><path d="M 232.86,300.8 L 494.74,300.8" stroke="#cccccc" stroke-width="1" fill="none" stroke-dasharray="3,3" /><path d="M 276.5,225.20000000000002 L 407.45,452" stroke="#cccccc" stroke-width="1" fill="none" stroke-dasharray="3,3" /><path d="M 451.1,225.20000000000002 L 320.15000000000003,452" stroke="#cccccc" stroke-width="1" fill="none" stroke-dasharray="3,3" /><path d="M 276.5,225.20000000000002 L 451.1,225.20000000000002" stroke="#cccccc" stroke-width="1" fill="none" stroke-dasharray="3,3" /><path d="M 232.86,300.8 L 320.15000000000003,452" stroke="#cccccc" stroke-width="1" fill="none" stroke-dasharray="3,3" /><path d="M 494.74,300.8 L 407.45,452" stroke="#cccccc" stroke-width="1" fill="none" stroke-dasharray="3,3" /><path d="M 320.15000000000003,149.6 L 407.45,149.6" stroke="#cccccc" stroke-width="1" fill="none" stroke-dasharray="3,3" /><path d="M 189.21,376.40000000000003 L 232.86,452" stroke="#cccccc" stroke-width="1" fill="none" stroke-dasharray="3,3" /><path d="M 538.39,376.40000000000003 L 494.74,452" stroke="#cccccc" stroke-width="1" fill="none" stroke-dasharray="3,3" /><path d="M 363.8,74 L 145.56,452 L 582.04,452 Z" stroke="#000000" stroke-width="1" fill="none" /><text x="137.56" y="456" font-size="12" text-anchor="end">0%</text><text x="371.8" y="78" font-size="12" text-anchor="start">0%</text><text x="582.04" y="468" font-size="12" text-anchor="middle">0%</text><text x="181.21" y="380.40000000000003" font-size="12" text-anchor="end">20%</text><text x="415.45" y="153.6" font-size="12" text-anchor="start">20%</text><text x="494.74" y="468" font-size="12" text-anchor="middle">20%</text><text x="224.86" y="304.8" font-size="12" text-anchor="end">40%</text><text x="459.1" y="229.20000000000002" font-size="12" text-anchor="start">40%</text><text x="407.45" y="468" font-size="12" text-anchor="middle">40%</text><text x="268.5" y="229.20000000000002" font-size="12" text-anchor="end">60%</text><text x="502.74" y="304.8" font-size="12" text-anchor="start">60%</text><text x="320.15000000000003" y="468" font-size="12" text-anchor="middle">60%</text><text x="312.15000000000003" y="153.6" font-size="12" text-anchor="end">80%</text><text x="546.39" y="380.40000000000003" font-size="12" text-anchor="start">80%</text><text x="232.86" y="468" font-size="12" text-anchor="middle">80%</text><text x="355.8" y="78" font-size="12" text-anchor="end">100%</text><text x="590.04" y="456" font-size="12" text-anchor="start">100%</text><text x="145.56" y="468" font-size="12" text-anchor="middle">100%</text><text x="363.8" y="47.6" font-size="12" text-anchor="middle" font-weight="bold">Sand</text><text x="123.96000000000001" y="478.40000000000003" font-size="12" text-anchor="end" font-weight="bold">Silt</text><text x="603.64" y="478.40000000000003" font-size="12" text-anchor="start" font-weight="bold">Clay</text><circle cx="348.6" cy="205.05" r="5" fill="#1f77b4" fill-opacity="0.3" stroke="#1f77b4" stroke-width="0.8" /><circle cx="344.26" cy="143.63" r="5" fill="#1f77b4" fill-opacity="0.3" stroke="#1f77b4" stroke-width="0.8" /><circle cx="378.27" cy="168.92000000000002" r="5" fill="#1f77b4" fill-opacity="0.3" stroke="#1f77b4" stroke-width="0.8" /><circle cx="335.64" cy="211.41" r="5" fill="#1f77b4" fill-opacity="0.3" stroke="#1f77b4" stroke-width="0.8" /><circle cx="341.75" cy="205.62" r="5" fill="#1f77b4" fill-opacity="0.3" stroke="#1f77b4" stroke-width="0.8" /><circle cx="356.16" cy="231.03" r="5" fill="#1f77b4" fill-opacity="0.3" stroke="#1f77b4" stroke-width="0.8" /><circle cx="352.96" cy="182.24" r="5" fill="#1f77b4" fill-opacity="0.3" stroke="#1f77b4" stroke-width="0.8" /><circle cx="353.66" cy="222.82" r="5" fill="#1f77b4" fill-opacity="0.3" stroke="#1f77b4" stroke-width="0.8" /><circle cx="363.51" cy="173.9" r="5" fill="#1f77b4" fill-opacity="0.3" stroke="#1f77b4" stroke-width="0.8" /><circle cx="341.35" cy="124.11" r="5" fill="#1f77b4" fill-opacity="0.3" stroke="#1f77b4" stroke-width="0.8" /><circle cx="323.35" cy="200.04" r="5" fill="#1f77b4" fill-opacity="0.3" stroke="#1f77b4" stroke-width="0.8" /><circle cx="373.33" cy="198.03" r="5" fill="#1f77b4" fill-opacity="0.3" stroke="#1f77b4" stroke-width="0.8" /><circle cx="348.67" cy="162.56" r="5" fill="#1f77b4" fill-opacity="0.3" stroke="#1f77b4" stroke-width="0.8" /><circle cx="336.16" cy="237.04" r="5" fill="#1f77b4" fill-opacity="0.3" stroke="#1f77b4" stroke-width="0.8" /><circle cx="370.94" cy="181.22" r="5" fill="#1f77b4" fill-opacity="0.3" stroke="#1f77b4" stroke-width="0.8" /><circle cx="349.87" cy="131.21" r="5" fill="#1f77b4" fill-opacity="0.3" stroke="#1f77b4" stroke-width="0.8" /><circle cx="349.76" cy="184.83" r="5" fill="#1f77b4" fill-opacity="0.3" stroke="#1f77b4" stroke-width="0.8" /><circle cx="363.17" cy="221.02" r="5" fill="#1f77b4" fill-opacity="0.3" stroke="#1f77b4" stroke-width="0.8" /><circle cx="312.40000000000003" cy="212.1" r="5" fill="#1f77b4" fill-opacity="0.3" stroke="#1f77b4" stroke-width="0.8" /><circle cx="321.95" cy="191.83" r="5" fill="#1f77b4" fill-opacity="0.3" stroke="#1f77b4" stroke-width="0.8" /><circle cx="364.21" cy="160.86" r="5" fill="#1f77b4" fill-opacity="0.3" stroke="#1f77b4" stroke-width="0.8" /><circle cx="352.57" cy="192.55" r="5" fill="#1f77b4" fill-opacity="0.3" stroke="#1f77b4" stroke-width="0.8" /><circle cx="340.56" cy="132.39000000000001" r="5" fill="#1f77b4" fill-opacity="0.3" stroke="#1f77b4" stroke-width="0.8" /><circle cx="322.19" cy="146.06" r="5" fill="#1f77b4" fill-opacity="0.3" stroke="#1f77b4" stroke-width="0.8" /><circle cx="342.8" cy="200.13" r="5" fill="#1f77b4" fill-opacity="0.3" stroke="#1f77b4" stroke-width="0.8" /><circle cx="329.77" cy="186.59" r="5" fill="#1f77b4" fill-opacity="0.3" stroke="#1f77b4" stroke-width="0.8" /><circle cx="354.57" cy="198.85" r="5" fill="#1f77b4" fill-opacity="0.3" stroke="#1f77b4" stroke-width="0.8" /><circle cx="360.07" cy="123.60000000000001" r="5" fill="#1f77b4" fill-opacity="0.3" stroke="#1f77b4" stroke-width="0.8" /><circle cx="318.73" cy="179.78" r="5" fill="#1f77b4" fill-opacity="0.3" stroke="#1f77b4" stroke-width="0.8" /><circle cx="325.71" cy="139.97" r="5" fill="#1f77b4" fill-opacity="0.3" stroke="#1f77b4" stroke-width="0.8" /><circle cx="349.82" cy="168.09" r="5" fill="#1f77b4" fill-opacity="0.3" stroke="#1f77b4" stroke-width="0.8" /><circle cx="335.41" cy="154.45000000000002" r="5" fill="#1f77b4" fill-opacity="0.3" stroke="#1f77b4" stroke-width="0.8" /><circle cx="338.40000000000003" cy="211.39000000000001" r="5" fill="#1f77b4" fill-opacity="0.3" stroke="#1f77b4" stroke-width="0.8" /><circle cx="362.37" cy="185.63" r="5" fill="#1f77b4" fill-opacity="0.3" stroke="#1f77b4" stroke-width="0.8" /><circle cx="337.67" cy="228.64000000000001" r="5" fill="#1f77b4" fill-opacity="0.3" stroke="#1f77b4" stroke-width="0.8" /><circle cx="348.46" cy="158.13" r="5" fill="#1f77b4" fill-opacity="0.3" stroke="#1f77b4" stroke-width="0.8" /><circle cx="336.51" cy="161.70000000000002" r="5" fill="#1f77b4" fill-opacity="0.3" stroke="#1f77b4" stroke-width="0.8" /><circle cx="376.71" cy="198.73000000000002" r="5" fill="#1f77b4" fill-opacity="0.3" stroke="#1f77b4" stroke-width="0.8" /><circle cx="314.18" cy="196.47" r="5" fill="#1f77b4" fill-opacity="0.3" stroke="#1f77b4" stroke-width="0.8" /><circle cx="348.72" cy="214.73000000000002" r="5" fill="#1f77b4" fill-opacity="0.3" stroke="#1f77b4" stroke-width="0.8" /><circle cx="326.42" cy="138.74" r="5" fill="#1f77b4" fill-opacity="0.3" stroke="#1f77b4" stroke-width="0.8" /><circle cx="344.78000000000003" cy="186.5" r="5" fill="#1f77b4" fill-opacity="0.3" stroke="#1f77b4" stroke-width="0.8" /><circle cx="327.55" cy="167.78" r="5" fill="#1f77b4" fill-opacity="0.3" stroke="#1f77b4" stroke-width="0.8" /><circle cx="331.72" cy="129.57" r="5" fill="#1f77b4" fill-opacity="0.3" stroke="#1f77b4" stroke-width="0.8" /><circle cx="345.81" cy="188.26" r="5" fill="#1f77b4" fill-opacity="0.3" stroke="#1f77b4" stroke-width="0.8" /><circle cx="342.96" cy="201.02" r="5" fill="#1f77b4" fill-opacity="0.3" stroke="#1f77b4" stroke-width="0.8" /><circle cx="352.15000000000003" cy="154.07" r="5" fill="#1f77b4" fill-opacity="0.3" stroke="#1f77b4" stroke-width="0.8" /><circle cx="345.45" cy="168" r="5" fill="#1f77b4" fill-opacity="0.3" stroke="#1f77b4" stroke-width="0.8" /><circle cx="347.2" cy="188.25" r="5" fill="#1f77b4" fill-opacity="0.3" stroke="#1f77b4" stroke-width="0.8" /><circle cx="349.92" cy="151.76" r="5" fill="#1f77b4" fill-opacity="0.3" stroke="#1f77b4" stroke-width="0.8" /><circle cx="357.53000000000003" cy="171.89000000000001" r="5" fill="#1f77b4" fill-opacity="0.3" stroke="#1f77b4" stroke-width="0.8" /><circle cx="360.09000000000003" cy="195.8" r="5" fill="#1f77b4" fill-opacity="0.3" stroke="#1f77b4" stroke-width="0.8" /><circle cx="354.03000000000003" cy="183.94" r="5" fill="#1f77b4" fill-opacity="0.3" stroke="#1f77b4" stroke-width="0.8" /><circle cx="368.63" cy="198.86" r="5" fill="#1f77b4" fill-opacity="0.3" stroke="#1f77b4" stroke-width="0.8" /><circle cx="345.34000000000003" cy="105.97" r="5" fill="#1f77b4" fill-opacity="0.3" stroke="#1f77b4" stroke-width="0.8" /><circle cx="311.33" cy="217.26" r="5" fill="#1f77b4" fill-opacity="0.3" stroke="#1f77b4" stroke-width="0.8" /><circle cx="371.19" cy="193.79" r="5" fill="#1f77b4" fill-opacity="0.3" stroke="#1f77b4" stroke-width="0.8" /><circle cx="318.45" cy="155.09" r="5" fill="#1f77b4" fill-opacity="0.3" stroke="#1f77b4" stroke-width="0.8" /><circle cx="348.61" cy="203.42000000000002" r="5" fill="#1f77b4" fill-opacity="0.3" stroke="#1f77b4" stroke-width="0.8" /><circle cx="379.33" cy="177.86" r="5" fill="#1f77b4" fill-opacity="0.3" stroke="#1f77b4" stroke-width="0.8" /><circle cx="318.49" cy="187.34" r="5" fill="#1f77b4" fill-opacity="0.3" stroke="#1f77b4" stroke-width="0.8" /><circle cx="348.45" cy="202.96" r="5" fill="#1f77b4" fill-opacity="0.3" stroke="#1f77b4" stroke-width="0.8" /><circle cx="342.36" cy="172.76" r="5" fill="#1f77b4" fill-opacity="0.3" stroke="#1f77b4" stroke-width="0.8" /><circle cx="376.79" cy="188.35" r="5" fill="#1f77b4" fill-opacity="0.3" stroke="#1f77b4" stroke-width="0.8" /><circle cx="336.7" cy="238.49" r="5" fill="#1f77b4" fill-opacity="0.3" stroke="#1f77b4" stroke-width="0.8" /><circle cx="361.25" cy="206.85" r="5" fill="#1f77b4" fill-opacity="0.3" stroke="#1f77b4" stroke-width="0.8" /><circle cx="305.27" cy="175.38" r="5" fill="#1f77b4" fill-opacity="0.3" stroke="#1f77b4" stroke-width="0.8" /><circle cx="352.05" cy="182.23" r="5" fill="#1f77b4" fill-opacity="0.3" stroke="#1f77b4" stroke-width="0.8" /><circle cx="365.55" cy="191.02" r="5" fill="#1f77b4" fill-opacity="0.3" stroke="#1f77b4" stroke-width="0.8" /><circle cx="352.36" cy="214.38" r="5" fill="#1f77b4" fill-opacity="0.3" stroke="#1f77b4" stroke-width="0.8" /><circle cx="366.97" cy="212.46" r="5" fill="#1f77b4" fill-opacity="0.3" stroke="#1f77b4" stroke-width="0.8" /><circle cx="339.12" cy="227.28" r="5" fill="#1f77b4" fill-opacity="0.3" stroke="#1f77b4" stroke-width="0.8" /><circle cx="323.19" cy="181.04" r="5" fill="#1f77b4" fill-opacity="0.3" stroke="#1f77b4" stroke-width="0.8" /><circle cx="367.05" cy="166.36" r="5" fill="#1f77b4" fill-opacity="0.3" stroke="#1f77b4" stroke-width="0.8" /><circle cx="316.71" cy="168.45000000000002" r="5" fill="#1f77b4" fill-opacity="0.3" stroke="#1f77b4" stroke-width="0.8" /><circle cx="374.94" cy="209.55" r="5" fill="#1f77b4" fill-opacity="0.3" stroke="#1f77b4" stroke-width="0.8" /><circle cx="324.95" cy="193.42000000000002" r="5" fill="#1f77b4" fill-opacity="0.3" stroke="#1f77b4" stroke-width="0.8" /><circle cx="359.05" cy="127.41" r="5" fill="#1f77b4" fill-opacity="0.3" stroke="#1f77b4" stroke-width="0.8" /><circle cx="301.61" cy="198.55" r="5" fill="#1f77b4" fill-opacity="0.3" stroke="#1f77b4" stroke-width="0.8" /><circle cx="385.13" cy="151.24" r="5" fill="#1f77b4" fill-opacity="0.3" stroke="#1f77b4" stroke-width="0.8" /><circle cx="343.3" cy="195.79" r="5" fill="#1f77b4" fill-opacity="0.3" stroke="#1f77b4" stroke-width="0.8" /><circle cx="340.49" cy="198.45000000000002" r="5" fill="#1f77b4" fill-opacity="0.3" stroke="#1f77b4" stroke-width="0.8" /><circle cx="340.89" cy="200.72" r="5" fill="#1f77b4" fill-opacity="0.3" stroke="#1f77b4" stroke-width="0.8" /><circle cx="352.99" cy="165.67000000000002" r="5" fill="#1f77b4" fill-opacity="0.3" stroke="#1f77b4" stroke-width="0.8" /><circle cx="331.59000000000003" cy="202.64000000000001" r="5" fill="#1f77b4" fill-opacity="0.3" stroke="#1f77b4" stroke-width="0.8" /><circle cx="323.73" cy="143.41" r="5" fill="#1f77b4" fill-opacity="0.3" stroke="#1f77b4" stroke-width="0.8" /><circle cx="337.36" cy="143.59" r="5" fill="#1f77b4" fill-opacity="0.3" stroke="#1f77b4" stroke-width="0.8" /><circle cx="369.24" cy="178.61" r="5" fill="#1f77b4" fill-opacity="0.3" stroke="#1f77b4" stroke-width="0.8" /><circle cx="315.46" cy="180.23" r="5" fill="#1f77b4" fill-opacity="0.3" stroke="#1f77b4" stroke-width="0.8" /><circle cx="304.82" cy="194.84" r="5" fill="#1f77b4" fill-opacity="0.3" stroke="#1f77b4" stroke-width="0.8" /><circle cx="350.23" cy="156.72" r="5" fill="#1f77b4" fill-opacity="0.3" stroke="#1f77b4" stroke-width="0.8" /><circle cx="363.18" cy="198.24" r="5" fill="#1f77b4" fill-opacity="0.3" stroke="#1f77b4" stroke-width="0.8" /><circle cx="369.51" cy="244.33" r="5" fill="#1f77b4" fill-opacity="0.3" stroke="#1f77b4" stroke-width="0.8" /><circle cx="301.61" cy="181.71" r="5" fill="#1f77b4" fill-opacity="0.3" stroke="#1f77b4" stroke-width="0.8" /><circle cx="347.72" cy="188.16" r="5" fill="#1f77b4" fill-opacity="0.3" stroke="#1f77b4" stroke-width="0.8" /><circle cx="326.33" cy="212.24" r="5" fill="#1f77b4" fill-opacity="0.3" stroke="#1f77b4" stroke-width="0.8" /><circle cx="351.18" cy="173.02" r="5" fill="#1f77b4" fill-opacity="0.3" stroke="#1f77b4" stroke-width="0.8" /><circle cx="379.84000000000003" cy="199.31" r="5" fill="#1f77b4" fill-opacity="0.3" stroke="#1f77b4" stroke-width="0.8" /><circle cx="291.56" cy="199.12" r="5" fill="#1f77b4" fill-opacity="0.3" stroke="#1f77b4" stroke-width="0.8" /><circle cx="307.75" cy="171.08" r="5" fill="#1f77b4" fill-opacity="0.3" stroke="#1f77b4" stroke-width="0.8" /><circle cx="207.05" cy="397.38" r="5" fill="#ff7f0e" fill-opacity="0.3" stroke="#ff7f0e" stroke-width="0.8" /><circle cx="266.15" cy="376.33" r="5" fill="#ff7f0e" fill-opacity="0.3" stroke="#ff7f0e" stroke-width="0.8" /><circle cx="235.44" cy="395.45" r="5" fill="#ff7f0e" fill-opacity="0.3" stroke="#ff7f0e" stroke-width="0.8" /><circle cx="257.35" cy="385.96000000000004" r="5" fill="#ff7f0e" fill-opacity="0.3" stroke="#ff7f0e" stroke-width="0.8" /><circle cx="236.37" cy="432.48" r="5" fill="#ff7f0e" fill-opacity="0.3" stroke="#ff7f0e" stroke-width="0.8" /><circle cx="235.82" cy="425.1" r="5" fill="#ff7f0e" fill-opacity="0.3" stroke="#ff7f0e" stroke-width="0.8" /><circle cx="242.48000000000002" cy="407.13" r="5" fill="#ff7f0e" fill-opacity="0.3" stroke="#ff7f0e" stroke-width="0.8" /><circle cx="222.52" cy="416.63" r="5" fill="#ff7f0e" fill-opacity="0.3" stroke="#ff7f0e" stroke-width="0.8" /><circle cx="268.96" cy="403.84000000000003" r="5" fill="#ff7f0e" fill-opacity="0.3" stroke="#ff7f0e" stroke-width="0.8" /><circle cx="244.35" cy="402.42" r="5" fill="#ff7f0e" fill-opacity="0.3" stroke="#ff7f0e" stroke-width="0.8" /><circle cx="261.62" cy="381.81" r="5" fill="#ff7f0e" fill-opacity="0.3" stroke="#ff7f0e" stroke-width="0.8" /><circle cx="267.58" cy="418.95" r="5" fill="#ff7f0e" fill-opacity="0.3" stroke="#ff7f0e" stroke-width="0.8" /><circle cx="232.98000000000002" cy="397.25" r="5" fill="#ff7f0e" fill-opacity="0.3" stroke="#ff7f0e" stroke-width="0.8" /><circle cx="211.37" cy="408.54" r="5" fill="#ff7f0e" fill-opacity="0.3" stroke="#ff7f0e" stroke-width="0.8" /><circle cx="246.87" cy="375.33" r="5" fill="#ff7f0e" fill-opacity="0.3" stroke="#ff7f0e" stroke-width="0.8" /><circle cx="199.91" cy="430.71000000000004" r="5" fill="#ff7f0e" fill-opacity="0.3" stroke="#ff7f0e" stroke-width="0.8" /><circle cx="185.31" cy="414.63" r="5" fill="#ff7f0e" fill-opacity="0.3" stroke="#ff7f0e" stroke-width="0.8" /><circle cx="261.62" cy="395.22" r="5" fill="#ff7f0e" fill-opacity="0.3" stroke="#ff7f0e" stroke-width="0.8" /><circle cx="227.19" cy="402.38" r="5" fill="#ff7f0e" fill-opacity="0.3" stroke="#ff7f0e" stroke-width="0.8" /><circle cx="237.25" cy="392.87" r="5" fill="#ff7f0e" fill-opacity="0.3" stroke="#ff7f0e" stroke-width="0.8" /><circle cx="194.56" cy="420.51" r="5" fill="#ff7f0e" fill-opacity="0.3" stroke="#ff7f0e" stroke-width="0.8" /><circle cx="234.58" cy="404.65000000000003" r="5" fill="#ff7f0e" fill-opacity="0.3" stroke="#ff7f0e" stroke-width="0.8" /><circle cx="238.99" cy="392.59000000000003" r="5" fill="#ff7f0e" fill-opacity="0.3" stroke="#ff7f0e" stroke-width="0.8" /><circle cx="230.64000000000001" cy="395.27" r="5" fill="#ff7f0e" fill-opacity="0.3" stroke="#ff7f0e" stroke-width="0.8" /><circle cx="273.48" cy="377.11" r="5" fill="#ff7f0e" fill-opacity="0.3" stroke="#ff7f0e" stroke-width="0.8" /><circle cx="240.95000000000002" cy="387.04" r="5" fill="#ff7f0e" fill-opacity="0.3" stroke="#ff7f0e" stroke-width="0.8" /><circle cx="218.4" cy="385.74" r="5" fill="#ff7f0e" fill-opacity="0.3" stroke="#ff7f0e" stroke-width="0.8" /><circle cx="260.19" cy="359.05" r="5" fill="#ff7f0e" fill-opacity="0.3" stroke="#ff7f0e" stroke-width="0.8" /><circle cx="234.94" cy="378.42" r="5" fill="#ff7f0e" fill-opacity="0.3" stroke="#ff7f0e" stroke-width="0.8" /><circle cx="224.09" cy="365.11" r="5" fill="#ff7f0e" fill-opacity="0.3" stroke="#ff7f0e" stroke-width="0.8" /><circle cx="226.28" cy="415.28000000000003" r="5" fill="#ff7f0e" fill-opacity="0.3" stroke="#ff7f0e" stroke-width="0.8" /><circle cx="266.66" cy="406.89" r="5" fill="#ff7f0e" fill-opacity="0.3" stroke="#ff7f0e" stroke-width="0.8" /><circle cx="260.23" cy="381.38" r="5" fill="#ff7f0e" fill-opacity="0.3" stroke="#ff7f0e" stroke-width="0.8" /><circle cx="234.6" cy="415" r="5" fill="#ff7f0e" fill-opacity="0.3" stroke="#ff7f0e" stroke-width="0.8" /><circle cx="255.71" cy="384.16" r="5" fill="#ff7f0e" fill-opacity="0.3" stroke="#ff7f0e" stroke-width="0.8" /><circle cx="251.46" cy="381.76" r="5" fill="#ff7f0e" fill-opacity="0.3" stroke="#ff7f0e" stroke-width="0.8" /><circle cx="236.27" cy="420.53000000000003" r="5" fill="#ff7f0e" fill-opacity="0.3" stroke="#ff7f0e" stroke-width="0.8" /><circle cx="219.25" cy="371.43" r="5" fill="#ff7f0e" fill-opacity="0.3" stroke="#ff7f0e" stroke-width="0.8" /><circle cx="262.3" cy="367.40000000000003" r="5" fill="#ff7f0e" fill-opacity="0.3" stroke="#ff7f0e" stroke-width="0.8" /><circle cx="243.82" cy="347.32" r="5" fill="#ff7f0e" fill-opacity="0.3" stroke="#ff7f0e" stroke-width="0.8" /><circle cx="261.9" cy="407.53000000000003" r="5" fill="#ff7f0e" fill-opacity="0.3" stroke="#ff7f0e" stroke-width="0.8" /><circle cx="259.55" cy="394.99" r="5" fill="#ff7f0e" fill-opacity="0.3" stroke="#ff7f0e" stroke-width="0.8" /><circle cx="291.14" cy="383.82" r="5" fill="#ff7f0e" fill-opacity="0.3" stroke="#ff7f0e" stroke-width="0.8" /><circle cx="256.11" cy="400.2" r="5" fill="#ff7f0e" fill-opacity="0.3" stroke="#ff7f0e" stroke-width="0.8" /><circle cx="211.20000000000002" cy="443.17" r="5" fill="#ff7f0e" fill-opacity="0.3" stroke="#ff7f0e" stroke-width="0.8" /><circle cx="250.43" cy="382.22" r="5" fill="#ff7f0e" fill-opacity="0.3" stroke="#ff7f0e" stroke-width="0.8" /><circle cx="257.47" cy="409.53000000000003" r="5" fill="#ff7f0e" fill-opacity="0.3" stroke="#ff7f0e" stroke-width="0.8" /><circle cx="278.48" cy="392.04" r="5" fill="#ff7f0e" fill-opacity="0.3" stroke="#ff7f0e" stroke-width="0.8" /><circle cx="278.31" cy="413.67" r="5" fill="#ff7f0e" fill-opacity="0.3" stroke="#ff7f0e" stroke-width="0.8" /><circle cx="235.31" cy="377.02" r="5" fill="#ff7f0e" fill-opacity="0.3" stroke="#ff7f0e" stroke-width="0.8" /><circle cx="301.22" cy="385.79" r="5" fill="#ff7f0e" fill-opacity="0.3" stroke="#ff7f0e" stroke-width="0.8" /><circle cx="224.20000000000002" cy="428.11" r="5" fill="#ff7f0e" fill-opacity="0.3" stroke="#ff7f0e" stroke-width="0.8" /><circle cx="243.19" cy="360.40000000000003" r="5" fill="#ff7f0e" fill-opacity="0.3" stroke="#ff7f0e" stroke-width="0.8" /><circle cx="244.58" cy="394.29" r="5" fill="#ff7f0e" fill-opacity="0.3" stroke="#ff7f0e" stroke-width="0.8" /><circle cx="251.5" cy="375.57" r="5" fill="#ff7f0e" fill-opacity="0.3" stroke="#ff7f0e" stroke-width="0.8" /><circle cx="190.78" cy="427.81" r="5" fill="#ff7f0e" fill-opacity="0.3" stroke="#ff7f0e" stroke-width="0.8" /><circle cx="214.8" cy="391.04" r="5" fill="#ff7f0e" fill-opacity="0.3" stroke="#ff7f0e" stroke-width="0.8" /><circle cx="255.46" cy="388.87" r="5" fill="#ff7f0e" fill-opacity="0.3" stroke="#ff7f0e" stroke-width="0.8" /><circle cx="224.12" cy="393.91" r="5" fill="#ff7f0e" fill-opacity="0.3" stroke="#ff7f0e" stroke-width="0.8" /><circle cx="233.99" cy="437.99" r="5" fill="#ff7f0e" fill-opacity="0.3" stroke="#ff7f0e" stroke-width="0.8" /><circle cx="269.19" cy="386.76" r="5" fill="#ff7f0e" fill-opacity="0.3" stroke="#ff7f0e" stroke-width="0.8" /><circle cx="228.39000000000001" cy="416.42" r="5" fill="#ff7f0e" fill-opacity="0.3" stroke="#ff7f0e" stroke-width="0.8" /><circle cx="227.70000000000002" cy="401.53000000000003" r="5" fill="#ff7f0e" fill-opacity="0.3" stroke="#ff7f0e" stroke-width="0.8" /><circle cx="225.75" cy="443.46000000000004" r="5" fill="#ff7f0e" fill-opacity="0.3" stroke="#ff7f0e" stroke-width="0.8" /><circle cx="200.16" cy="410.90000000000003" r="5" fill="#ff7f0e" fill-opacity="0.3" stroke="#ff7f0e" stroke-width="0.8" /><circle cx="232.21" cy="444.81" r="5" fill="#ff7f0e" fill-opacity="0.3" stroke="#ff7f0e" stroke-width="0.8" /><circle cx="262.5" cy="353.68" r="5" fill="#ff7f0e" fill-opacity="0.3" stroke="#ff7f0e" stroke-width="0.8" /><circle cx="189.91" cy="438.72" r="5" fill="#ff7f0e" fill-opacity="0.3" stroke="#ff7f0e" stroke-width="0.8" /><circle cx="209.31" cy="427.24" r="5" fill="#ff7f0e" fill-opacity="0.3" stroke="#ff7f0e" stroke-width="0.8" /><circle cx="187.36" cy="425.7" r="5" fill="#ff7f0e" fill-opacity="0.3" stroke="#ff7f0e" stroke-width="0.8" /><circle cx="212.70000000000002" cy="380.54" r="5" fill="#ff7f0e" fill-opacity="0.3" stroke="#ff7f0e" stroke-width="0.8" /><circle cx="255.89000000000001" cy="393.88" r="5" fill="#ff7f0e" fill-opacity="0.3" stroke="#ff7f0e" stroke-width="0.8" /><circle cx="217.41" cy="406.06" r="5" fill="#ff7f0e" fill-opacity="0.3" stroke="#ff7f0e" stroke-width="0.8" /><circle cx="256.89" cy="376.38" r="5" fill="#ff7f0e" fill-opacity="0.3" stroke="#ff7f0e" stroke-width="0.8" /><circle cx="238.43" cy="402.65000000000003" r="5" fill="#ff7f0e" fill-opacity="0.3" stroke="#ff7f0e" stroke-width="0.8" /><circle cx="251.78" cy="401.08" r="5" fill="#ff7f0e" fill-opacity="0.3" stroke="#ff7f0e" stroke-width="0.8" /><circle cx="242.75" cy="369.45" r="5" fill="#ff7f0e" fill-opacity="0.3" stroke="#ff7f0e" stroke-width="0.8" /><circle cx="245.13" cy="412.83" r="5" fill="#ff7f0e" fill-opacity="0.3" stroke="#ff7f0e" stroke-width="0.8" /><circle cx="243.86" cy="376.68" r="5" fill="#ff7f0e" fill-opacity="0.3" stroke="#ff7f0e" stroke-width="0.8" /><circle cx="252.96" cy="410.65000000000003" r="5" fill="#ff7f0e" fill-opacity="0.3" stroke="#ff7f0e" stroke-width="0.8" /><circle cx="248.16" cy="425.86" r="5" fill="#ff7f0e" fill-opacity="0.3" stroke="#ff7f0e" stroke-width="0.8" /><circle cx="217.89000000000001" cy="394.11" r="5" fill="#ff7f0e" fill-opacity="0.3" stroke="#ff7f0e" stroke-width="0.8" /><circle cx="236.19" cy="351.99" r="5" fill="#ff7f0e" fill-opacity="0.3" stroke="#ff7f0e" stroke-width="0.8" /><circle cx="192.61" cy="429.64" r="5" fill="#ff7f0e" fill-opacity="0.3" stroke="#ff7f0e" stroke-width="0.8" /><circle cx="212.1" cy="415.1" r="5" fill="#ff7f0e" fill-opacity="0.3" stroke="#ff7f0e" stroke-width="0.8" /><circle cx="249.51000000000002" cy="361.34000000000003" r="5" fill="#ff7f0e" fill-opacity="0.3" stroke="#ff7f0e" stroke-width="0.8" /><circle cx="223.04" cy="397.98" r="5" fill="#ff7f0e" fill-opacity="0.3" stroke="#ff7f0e" stroke-width="0.8" /><circle cx="251.20000000000002" cy="367.59000000000003" r="5" fill="#ff7f0e" fill-opacity="0.3" stroke="#ff7f0e" stroke-width="0.8" /><circle cx="253.81" cy="370.26" r="5" fill="#ff7f0e" fill-opacity="0.3" stroke="#ff7f0e" stroke-width="0.8" /><circle cx="285.48" cy="387.37" r="5" fill="#ff7f0e" fill-opacity="0.3" stroke="#ff7f0e" stroke-width="0.8" /><circle cx="250.12" cy="421.54" r="5" fill="#ff7f0e" fill-opacity="0.3" stroke="#ff7f0e" stroke-width="0.8" /><circle cx="236.36" cy="412.07" r="5" fill="#ff7f0e" fill-opacity="0.3" stroke="#ff7f0e" stroke-width="0.8" /><circle cx="241.81" cy="416.58" r="5" fill="#ff7f0e" fill-opacity="0.3" stroke="#ff7f0e" stroke-width="0.8" /><circle cx="232.68" cy="405.13" r="5" fill="#ff7f0e" fill-opacity="0.3" stroke="#ff7f0e" stroke-width="0.8" /><circle cx="270.72" cy="402.05" r="5" fill="#ff7f0e" fill-opacity="0.3" stroke="#ff7f0e" stroke-width="0.8" /><circle cx="206.36" cy="382.22" r="5" fill="#ff7f0e" fill-opacity="0.3" stroke="#ff7f0e" stroke-width="0.8" /><circle cx="227.75" cy="398.83" r="5" fill="#ff7f0e" fill-opacity="0.3" stroke="#ff7f0e" stroke-width="0.8" /><circle cx="231.65" cy="397.03000000000003" r="5" fill="#ff7f0e" fill-opacity="0.3" stroke="#ff7f0e" stroke-width="0.8" /><circle cx="226.15" cy="450.51" r="5" fill="#ff7f0e" fill-opacity="0.3" stroke="#ff7f0e" stroke-width="0.8" /><circle cx="292.74" cy="397.31" r="5" fill="#ff7f0e" fill-opacity="0.3" stroke="#ff7f0e" stroke-width="0.8" /><circle cx="470.94" cy="398.40000000000003" r="5" fill="#2ca02c" fill-opacity="0.3" stroke="#2ca02c" stroke-width="0.8" /><circle cx="517.35" cy="411.18" r="5" fill="#2ca02c" fill-opacity="0.3" stroke="#2ca02c" stroke-width="0.8" /><circle cx="476.15000000000003" cy="355.43" r="5" fill="#2ca02c" fill-opacity="0.3" stroke="#2ca02c" stroke-width="0.8" /><circle cx="557.79" cy="441.57" r="5" fill="#2ca02c" fill-opacity="0.3" stroke="#2ca02c" stroke-width="0.8" /><circle cx="465.51" cy="401.89" r="5" fill="#2ca02c" fill-opacity="0.3" stroke="#2ca02c" stroke-width="0.8" /><circle cx="506.36" cy="379.48" r="5" fill="#2ca02c" fill-opacity="0.3" stroke="#2ca02c" stroke-width="0.8" /><circle cx="473.3" cy="409.97" r="5" fill="#2ca02c" fill-opacity="0.3" stroke="#2ca02c" stroke-width="0.8" /><circle cx="514.63" cy="372.37" r="5" fill="#2ca02c" fill-opacity="0.3" stroke="#2ca02c" stroke-width="0.8" /><circle cx="472.65000000000003" cy="374.26" r="5" fill="#2ca02c" fill-opacity="0.3" stroke="#2ca02c" stroke-width="0.8" /><circle cx="506.19" cy="410.48" r="5" fill="#2ca02c" fill-opacity="0.3" stroke="#2ca02c" stroke-width="0.8" /><circle cx="441.01" cy="393.7" r="5" fill="#2ca02c" fill-opacity="0.3" stroke="#2ca02c" stroke-width="0.8" /><circle cx="461.53000000000003" cy="407.58" r="5" fill="#2ca02c" fill-opacity="0.3" stroke="#2ca02c" stroke-width="0.8" /><circle cx="465.94" cy="400.23" r="5" fill="#2ca02c" fill-opacity="0.3" stroke="#2ca02c" stroke-width="0.8" /><circle cx="513.36" cy="419.94" r="5" fill="#2ca02c" fill-opacity="0.3" stroke="#2ca02c" stroke-width="0.8" /><circle cx="461.2" cy="426.32" r="5" fill="#2ca02c" fill-opacity="0.3" stroke="#2ca02c" stroke-width="0.8" /><circle cx="503.8" cy="359.40000000000003" r="5" fill="#2ca02c" fill-opacity="0.3" stroke="#2ca02c" stroke-width="0.8" /><circle cx="493.18" cy="396.93" r="5" fill="#2ca02c" fill-opacity="0.3" stroke="#2ca02c" stroke-width="0.8" /><circle cx="488.96000000000004" cy="388.90000000000003" r="5" fill="#2ca02c" fill-opacity="0.3" stroke="#2ca02c" stroke-width="0.8" /><circle cx="461.98" cy="374.92" r="5" fill="#2ca02c" fill-opacity="0.3" stroke="#2ca02c" stroke-width="0.8" /><circle cx="492.04" cy="397.51" r="5" fill="#2ca02c" fill-opacity="0.3" stroke="#2ca02c" stroke-width="0.8" /><circle cx="500.64" cy="351.12" r="5" fill="#2ca02c" fill-opacity="0.3" stroke="#2ca02c" stroke-width="0.8" /><circle cx="475.94" cy="354.99" r="5" fill="#2ca02c" fill-opacity="0.3" stroke="#2ca02c" stroke-width="0.8" /><circle cx="512.58" cy="357.05" r="5" fill="#2ca02c" fill-opacity="0.3" stroke="#2ca02c" stroke-width="0.8" /><circle cx="494.13" cy="376.2" r="5" fill="#2ca02c" fill-opacity="0.3" stroke="#2ca02c" stroke-width="0.8" /><circle cx="513.79" cy="407.51" r="5" fill="#2ca02c" fill-opacity="0.3" stroke="#2ca02c" stroke-width="0.8" /><circle cx="499.79" cy="414.62" r="5" fill="#2ca02c" fill-opacity="0.3" stroke="#2ca02c" stroke-width="0.8" /><circle cx="436.92" cy="415.92" r="5" fill="#2ca02c" fill-opacity="0.3" stroke="#2ca02c" stroke-width="0.8" /><circle cx="444.74" cy="379.53000000000003" r="5" fill="#2ca02c" fill-opacity="0.3" stroke="#2ca02c" stroke-width="0.8" /><circle cx="453.56" cy="360.04" r="5" fill="#2ca02c" fill-opacity="0.3" stroke="#2ca02c" stroke-width="0.8" /><circle cx="471.07" cy="401.16" r="5" fill="#2ca02c" fill-opacity="0.3" stroke="#2ca02c" stroke-width="0.8" /><circle cx="503.62" cy="405.92" r="5" fill="#2ca02c" fill-opacity="0.3" stroke="#2ca02c" stroke-width="0.8" /><circle cx="481.79" cy="418.68" r="5" fill="#2ca02c" fill-opacity="0.3" stroke="#2ca02c" stroke-width="0.8" /><circle cx="487.15000000000003" cy="386.41" r="5" fill="#2ca02c" fill-opacity="0.3" stroke="#2ca02c" stroke-width="0.8" /><circle cx="468.62" cy="396.71000000000004" r="5" fill="#2ca02c" fill-opacity="0.3" stroke="#2ca02c" stroke-width="0.8" /><circle cx="534.2" cy="424.63" r="5" fill="#2ca02c" fill-opacity="0.3" stroke="#2ca02c" stroke-width="0.8" /><circle cx="514.3" cy="361.07" r="5" fill="#2ca02c" fill-opacity="0.3" stroke="#2ca02c" stroke-width="0.8" /><circle cx="509.74" cy="388.24" r="5" fill="#2ca02c" fill-opacity="0.3" stroke="#2ca02c" stroke-width="0.8" /><circle cx="465.16" cy="371.79" r="5" fill="#2ca02c" fill-opacity="0.3" stroke="#2ca02c" stroke-width="0.8" /><circle cx="466.44" cy="377.49" r="5" fill="#2ca02c" fill-opacity="0.3" stroke="#2ca02c" stroke-width="0.8" /><circle cx="503.73" cy="410.19" r="5" fill="#2ca02c" fill-opacity="0.3" stroke="#2ca02c" stroke-width="0.8" /><circle cx="475.86" cy="377.97" r="5" fill="#2ca02c" fill-opacity="0.3" stroke="#2ca02c" stroke-width="0.8" /><circle cx="444.63" cy="392.12" r="5" fill="#2ca02c" fill-opacity="0.3" stroke="#2ca02c" stroke-width="0.8" /><circle cx="474.95" cy="395.02" r="5" fill="#2ca02c" fill-opacity="0.3" stroke="#2ca02c" stroke-width="0.8" /><circle cx="458.29" cy="363.52" r="5" fill="#2ca02c" fill-opacity="0.3" stroke="#2ca02c" stroke-width="0.8" /><circle cx="457.07" cy="429.15000000000003" r="5" fill="#2ca02c" fill-opacity="0.3" stroke="#2ca02c" stroke-width="0.8" /><circle cx="470.83" cy="386.47" r="5" fill="#2ca02c" fill-opacity="0.3" stroke="#2ca02c" stroke-width="0.8" /><circle cx="460.79" cy="408.56" r="5" fill="#2ca02c" fill-opacity="0.3" stroke="#2ca02c" stroke-width="0.8" /><circle cx="487.40000000000003" cy="374.68" r="5" fill="#2ca02c" fill-opacity="0.3" stroke="#2ca02c" stroke-width="0.8" /><circle cx="498.71000000000004" cy="405.42" r="5" fill="#2ca02c" fill-opacity="0.3" stroke="#2ca02c" stroke-width="0.8" /><circle cx="495.26" cy="417.28000000000003" r="5" fill="#2ca02c" fill-opacity="0.3" stroke="#2ca02c" stroke-width="0.8" /><circle cx="544.92" cy="392.79" r="5" fill="#2ca02c" fill-opacity="0.3" stroke="#2ca02c" stroke-width="0.8" /><circle cx="489.16" cy="380.46" r="5" fill="#2ca02c" fill-opacity="0.3" stroke="#2ca02c" stroke-width="0.8" /><circle cx="461.2" cy="405.25" r="5" fill="#2ca02c" fill-opacity="0.3" stroke="#2ca02c" stroke-width="0.8" /><circle cx="467.38" cy="408.92" r="5" fill="#2ca02c" fill-opacity="0.3" stroke="#2ca02c" stroke-width="0.8" /><circle cx="497.87" cy="452" r="5" fill="#2ca02c" fill-opacity="0.3" stroke="#2ca02c" stroke-width="0.8" /><circle cx="458.06" cy="389.46000000000004" r="5" fill="#2ca02c" fill-opacity="0.3" stroke="#2ca02c" stroke-width="0.8" /><circle cx="492.73" cy="425.98" r="5" fill="#2ca02c" fill-opacity="0.3" stroke="#2ca02c" stroke-width="0.8" /><circle cx="535.45" cy="440.7" r="5" fill="#2ca02c" fill-opacity="0.3" stroke="#2ca02c" stroke-width="0.8" /><circle cx="477.84000000000003" cy="388.74" r="5" fill="#2ca02c" fill-opacity="0.3" stroke="#2ca02c" stroke-width="0.8" /><circle cx="474.09000000000003" cy="418" r="5" fill="#2ca02c" fill-opacity="0.3" stroke="#2ca02c" stroke-width="0.8" /><circle cx="481.38" cy="452" r="5" fill="#2ca02c" fill-opacity="0.3" stroke="#2ca02c" stroke-width="0.8" /><circle cx="475.16" cy="416.92" r="5" fill="#2ca02c" fill-opacity="0.3" stroke="#2ca02c" stroke-width="0.8" /><circle cx="509.73" cy="370.34000000000003" r="5" fill="#2ca02c" fill-opacity="0.3" stroke="#2ca02c" stroke-width="0.8" /><circle cx="465.98" cy="406.97" r="5" fill="#2ca02c" fill-opacity="0.3" stroke="#2ca02c" stroke-width="0.8" /><circle cx="532.76" cy="387.82" r="5" fill="#2ca02c" fill-opacity="0.3" stroke="#2ca02c" stroke-width="0.8" /><circle cx="439.98" cy="452" r="5" fill="#2ca02c" fill-opacity="0.3" stroke="#2ca02c" stroke-width="0.8" /><circle cx="507.74" cy="431.87" r="5" fill="#2ca02c" fill-opacity="0.3" stroke="#2ca02c" stroke-width="0.8" /><circle cx="482.13" cy="365.31" r="5" fill="#2ca02c" fill-opacity="0.3" stroke="#2ca02c" stroke-width="0.8" /><circle cx="541.27" cy="393.07" r="5" fill="#2ca02c" fill-opacity="0.3" stroke="#2ca02c" stroke-width="0.8" /><circle cx="484.61" cy="431.78000000000003" r="5" fill="#2ca02c" fill-opacity="0.3" stroke="#2ca02c" stroke-width="0.8" /><circle cx="466.59000000000003" cy="404.79" r="5" fill="#2ca02c" fill-opacity="0.3" stroke="#2ca02c" stroke-width="0.8" /><circle cx="474.68" cy="385.56" r="5" fill="#2ca02c" fill-opacity="0.3" stroke="#2ca02c" stroke-width="0.8" /><circle cx="467.3" cy="409.93" r="5" fill="#2ca02c" fill-opacity="0.3" stroke="#2ca02c" stroke-width="0.8" /><circle cx="439.15000000000003" cy="395.16" r="5" fill="#2ca02c" fill-opacity="0.3" stroke="#2ca02c" stroke-width="0.8" /><circle cx="499.51" cy="422.57" r="5" fill="#2ca02c" fill-opacity="0.3" stroke="#2ca02c" stroke-width="0.8" /><circle cx="520.98" cy="410.57" r="5" fill="#2ca02c" fill-opacity="0.3" stroke="#2ca02c" stroke-width="0.8" /><circle cx="508.93" cy="416.47" r="5" fill="#2ca02c" fill-opacity="0.3" stroke="#2ca02c" stroke-width="0.8" /><circle cx="514.83" cy="376.27" r="5" fill="#2ca02c" fill-opacity="0.3" stroke="#2ca02c" stroke-width="0.8" /><circle cx="477.24" cy="395.25" r="5" fill="#2ca02c" fill-opacity="0.3" stroke="#2ca02c" stroke-width="0.8" /><circle cx="531.32" cy="364.15000000000003" r="5" fill="#2ca02c" fill-opacity="0.3" stroke="#2ca02c" stroke-width="0.8" /><circle cx="463.73" cy="385.25" r="5" fill="#2ca02c" fill-opacity="0.3" stroke="#2ca02c" stroke-width="0.8" /><circle cx="460.09000000000003" cy="375.92" r="5" fill="#2ca02c" fill-opacity="0.3" stroke="#2ca02c" stroke-width="0.8" /><circle cx="472.68" cy="384.69" r="5" fill="#2ca02c" fill-opacity="0.3" stroke="#2ca02c" stroke-width="0.8" /><circle cx="477.97" cy="356.28000000000003" r="5" fill="#2ca02c" fill-opacity="0.3" stroke="#2ca02c" stroke-width="0.8" /><circle cx="478.45" cy="401.03000000000003" r="5" fill="#2ca02c" fill-opacity="0.3" stroke="#2ca02c" stroke-width="0.8" /><circle cx="486.6" cy="387.35" r="5" fill="#2ca02c" fill-opacity="0.3" stroke="#2ca02c" stroke-width="0.8" /><circle cx="463.17" cy="391.88" r="5" fill="#2ca02c" fill-opacity="0.3" stroke="#2ca02c" stroke-width="0.8" /><circle cx="458.34000000000003" cy="370.09000000000003" r="5" fill="#2ca02c" fill-opacity="0.3" stroke="#2ca02c" stroke-width="0.8" /><circle cx="480.56" cy="452" r="5" fill="#2ca02c" fill-opacity="0.3" stroke="#2ca02c" stroke-width="0.8" /><circle cx="458.49" cy="392.71000000000004" r="5" fill="#2ca02c" fill-opacity="0.3" stroke="#2ca02c" stroke-width="0.8" /><circle cx="440.87" cy="362.90000000000003" r="5" fill="#2ca02c" fill-opacity="0.3" stroke="#2ca02c" stroke-width="0.8" /><circle cx="484.11" cy="383.79" r="5" fill="#2ca02c" fill-opacity="0.3" stroke="#2ca02c" stroke-width="0.8" /><circle cx="501.5" cy="377.95" r="5" fill="#2ca02c" fill-opacity="0.3" stroke="#2ca02c" stroke-width="0.8" /><circle cx="477.19" cy="403.90000000000003" r="5" fill="#2ca02c" fill-opacity="0.3" stroke="#2ca02c" stroke-width="0.8" /><circle cx="465.47" cy="411.7" r="5" fill="#2ca02c" fill-opacity="0.3" stroke="#2ca02c" stroke-width="0.8" /><circle cx="476.02" cy="388.93" r="5" fill="#2ca02c" fill-opacity="0.3" stroke="#2ca02c" stroke-width="0.8" /><circle cx="491.36" cy="393" r="5" fill="#2ca02c" fill-opacity="0.3" stroke="#2ca02c" stroke-width="0.8" /><circle cx="438.13" cy="388.17" r="5" fill="#2ca02c" fill-opacity="0.3" stroke="#2ca02c" stroke-width="0.8" /><circle cx="487.16" cy="355.47" r="5" fill="#2ca02c" fill-opacity="0.3" stroke="#2ca02c" stroke-width="0.8" /><circle cx="498.98" cy="358.97" r="5" fill="#2ca02c" fill-opacity="0.3" stroke="#2ca02c" stroke-width="0.8" /><circle cx="392.72" cy="327.07" r="5" fill="#d62728" fill-opacity="0.3" stroke="#d62728" stroke-width="0.8" /><circle cx="360.57" cy="328.17" r="5" fill="#d62728" fill-opacity="0.3" stroke="#d62728" stroke-width="0.8" /><circle cx="401.97" cy="339.36" r="5" fill="#d62728" fill-opacity="0.3" stroke="#d62728" stroke-width="0.8" /><circle cx="382.95" cy="303.23" r="5" fill="#d62728" fill-opacity="0.3" stroke="#d62728" stroke-width="0.8" /><circle cx="298.13" cy="367.94" r="5" fill="#d62728" fill-opacity="0.3" stroke="#d62728" stroke-width="0.8" /><circle cx="330.85" cy="238.82" r="5" fill="#d62728" fill-opacity="0.3" stroke="#d62728" stroke-width="0.8" /><circle cx="353.68" cy="295.11" r="5" fill="#d62728" fill-opacity="0.3" stroke="#d62728" stroke-width="0.8" /><circle cx="380.04" cy="342.24" r="5" fill="#d62728" fill-opacity="0.3" stroke="#d62728" stroke-width="0.8" /><circle cx="321.48" cy="353.3" r="5" fill="#d62728" fill-opacity="0.3" stroke="#d62728" stroke-width="0.8" /><circle cx="355.66" cy="316.6" r="5" fill="#d62728" fill-opacity="0.3" stroke="#d62728" stroke-width="0.8" /><circle cx="367.34000000000003" cy="350.05" r="5" fill="#d62728" fill-opacity="0.3" stroke="#d62728" stroke-width="0.8" /><circle cx="349.7" cy="333.5" r="5" fill="#d62728" fill-opacity="0.3" stroke="#d62728" stroke-width="0.8" /><circle cx="375.84000000000003" cy="293.96" r="5" fill="#d62728" fill-opacity="0.3" stroke="#d62728" stroke-width="0.8" /><circle cx="352.13" cy="321.69" r="5" fill="#d62728" fill-opacity="0.3" stroke="#d62728" stroke-width="0.8" /><circle cx="346.95" cy="333.31" r="5" fill="#d62728" fill-opacity="0.3" stroke="#d62728" stroke-width="0.8" /><circle cx="341.94" cy="371.90000000000003" r="5" fill="#d62728" fill-opacity="0.3" stroke="#d62728" stroke-width="0.8" /><circle cx="384.36" cy="260.86" r="5" fill="#d62728" fill-opacity="0.3" stroke="#d62728" stroke-width="0.8" /><circle cx="381.8" cy="306.43" r="5" fill="#d62728" fill-opacity="0.3" stroke="#d62728" stroke-width="0.8" /><circle cx="374.09000000000003" cy="303.73" r="5" fill="#d62728" fill-opacity="0.3" stroke="#d62728" stroke-width="0.8" /><circle cx="350.58" cy="326.74" r="5" fill="#d62728" fill-opacity="0.3" stroke="#d62728" stroke-width="0.8" /><circle cx="407.67" cy="326.95" r="5" fill="#d62728" fill-opacity="0.3" stroke="#d62728" stroke-width="0.8" /><circle cx="337.06" cy="331.15000000000003" r="5" fill="#d62728" fill-opacity="0.3" stroke="#d62728" stroke-width="0.8" /><circle cx="355.92" cy="361.27" r="5" fill="#d62728" fill-opacity="0.3" stroke="#d62728" stroke-width="0.8" /><circle cx="368.23" cy="352.91" r="5" fill="#d62728" fill-opacity="0.3" stroke="#d62728" stroke-width="0.8" /><circle cx="391.7" cy="328.2" r="5" fill="#d62728" fill-opacity="0.3" stroke="#d62728" stroke-width="0.8" /><circle cx="339.33" cy="351.24" r="5" fill="#d62728" fill-opacity="0.3" stroke="#d62728" stroke-width="0.8" /><circle cx="384.33" cy="331.86" r="5" fill="#d62728" fill-opacity="0.3" stroke="#d62728" stroke-width="0.8" /><circle cx="331.19" cy="370.32" r="5" fill="#d62728" fill-opacity="0.3" stroke="#d62728" stroke-width="0.8" /><circle cx="352.83" cy="347.46" r="5" fill="#d62728" fill-opacity="0.3" stroke="#d62728" stroke-width="0.8" /><circle cx="386.37" cy="337.8" r="5" fill="#d62728" fill-opacity="0.3" stroke="#d62728" stroke-width="0.8" /><circle cx="355.87" cy="341.39" r="5" fill="#d62728" fill-opacity="0.3" stroke="#d62728" stroke-width="0.8" /><circle cx="372.45" cy="321.14" r="5" fill="#d62728" fill-opacity="0.3" stroke="#d62728" stroke-width="0.8" /><circle cx="346.39" cy="334.57" r="5" fill="#d62728" fill-opacity="0.3" stroke="#d62728" stroke-width="0.8" /><circle cx="366.56" cy="334.32" r="5" fill="#d62728" fill-opacity="0.3" stroke="#d62728" stroke-width="0.8" /><circle cx="307.15000000000003" cy="324.54" r="5" fill="#d62728" fill-opacity="0.3" stroke="#d62728" stroke-width="0.8" /><circle cx="338.98" cy="362.74" r="5" fill="#d62728" fill-opacity="0.3" stroke="#d62728" stroke-width="0.8" /><circle cx="334.17" cy="327.7" r="5" fill="#d62728" fill-opacity="0.3" stroke="#d62728" stroke-width="0.8" /><circle cx="345.92" cy="297.97" r="5" fill="#d62728" fill-opacity="0.3" stroke="#d62728" stroke-width="0.8" /><circle cx="350.93" cy="358.75" r="5" fill="#d62728" fill-opacity="0.3" stroke="#d62728" stroke-width="0.8" /><circle cx="398.86" cy="358.81" r="5" fill="#d62728" fill-opacity="0.3" stroke="#d62728" stroke-width="0.8" /><circle cx="394.35" cy="285.61" r="5" fill="#d62728" fill-opacity="0.3" stroke="#d62728" stroke-width="0.8" /><circle cx="356.73" cy="307.84000000000003" r="5" fill="#d62728" fill-opacity="0.3" stroke="#d62728" stroke-width="0.8" /><circle cx="338.08" cy="289.58" r="5" fill="#d62728" fill-opacity="0.3" stroke="#d62728" stroke-width="0.8" /><circle cx="357.15000000000003" cy="292.90000000000003" r="5" fill="#d62728" fill-opacity="0.3" stroke="#d62728" stroke-width="0.8" /><circle cx="360.81" cy="338.35" r="5" fill="#d62728" fill-opacity="0.3" stroke="#d62728" stroke-width="0.8" /><circle cx="358.26" cy="344.52" r="5" fill="#d62728" fill-opacity="0.3" stroke="#d62728" stroke-width="0.8" /><circle cx="369.29" cy="350.55" r="5" fill="#d62728" fill-opacity="0.3" stroke="#d62728" stroke-width="0.8" /><circle cx="402.86" cy="305.49" r="5" fill="#d62728" fill-opacity="0.3" stroke="#d62728" stroke-width="0.8" /><circle cx="354.14" cy="308.58" r="5" fill="#d62728" fill-opacity="0.3" stroke="#d62728" stroke-width="0.8" /><circle cx="342.66" cy="354.23" r="5" fill="#d62728" fill-opacity="0.3" stroke="#d62728" stroke-width="0.8" /><circle cx="380.98" cy="355.03000000000003" r="5" fill="#d62728" fill-opacity="0.3" stroke="#d62728" stroke-width="0.8" /><circle cx="395.42" cy="290.17" r="5" fill="#d62728" fill-opacity="0.3" stroke="#d62728" stroke-width="0.8" /><circle cx="337.63" cy="347.63" r="5" fill="#d62728" fill-opacity="0.3" stroke="#d62728" stroke-width="0.8" /><circle cx="378.53000000000003" cy="333.64" r="5" fill="#d62728" fill-opacity="0.3" stroke="#d62728" stroke-width="0.8" /><circle cx="336.7" cy="332.83" r="5" fill="#d62728" fill-opacity="0.3" stroke="#d62728" stroke-width="0.8" /><circle cx="376.38" cy="347.87" r="5" fill="#d62728" fill-opacity="0.3" stroke="#d62728" stroke-width="0.8" /><circle cx="381.2" cy="335.65000000000003" r="5" fill="#d62728" fill-opacity="0.3" stroke="#d62728" stroke-width="0.8" /><circle cx="344.37" cy="311.45" r="5" fill="#d62728" fill-opacity="0.3" stroke="#d62728" stroke-width="0.8" /><circle cx="365" cy="340.94" r="5" fill="#d62728" fill-opacity="0.3" stroke="#d62728" stroke-width="0.8" /><circle cx="382.59000000000003" cy="359.12" r="5" fill="#d62728" fill-opacity="0.3" stroke="#d62728" stroke-width="0.8" /><circle cx="379.53000000000003" cy="328.95" r="5" fill="#d62728" fill-opacity="0.3" stroke="#d62728" stroke-width="0.8" /><circle cx="375.03000000000003" cy="306.78000000000003" r="5" fill="#d62728" fill-opacity="0.3" stroke="#d62728" stroke-width="0.8" /><circle cx="381.06" cy="289.38" r="5" fill="#d62728" fill-opacity="0.3" stroke="#d62728" stroke-width="0.8" /><circle cx="394.88" cy="322.58" r="5" fill="#d62728" fill-opacity="0.3" stroke="#d62728" stroke-width="0.8" /><circle cx="359.90000000000003" cy="344.78000000000003" r="5" fill="#d62728" fill-opacity="0.3" stroke="#d62728" stroke-width="0.8" /><circle cx="419.22" cy="318.51" r="5" fill="#d62728" fill-opacity="0.3" stroke="#d62728" stroke-width="0.8" /><circle cx="393.66" cy="317.07" r="5" fill="#d62728" fill-opacity="0.3" stroke="#d62728" stroke-width="0.8" /><circle cx="329.28000000000003" cy="308.15000000000003" r="5" fill="#d62728" fill-opacity="0.3" stroke="#d62728" stroke-width="0.8" /><circle cx="356.05" cy="338.68" r="5" fill="#d62728" fill-opacity="0.3" stroke="#d62728" stroke-width="0.8" /><circle cx="399.21000000000004" cy="331.6" r="5" fill="#d62728" fill-opacity="0.3" stroke="#d62728" stroke-width="0.8" /><circle cx="385.13" cy="335.21" r="5" fill="#d62728" fill-opacity="0.3" stroke="#d62728" stroke-width="0.8" /><circle cx="354.84000000000003" cy="286.75" r="5" fill="#d62728" fill-opacity="0.3" stroke="#d62728" stroke-width="0.8" /><circle cx="393.21000000000004" cy="322.53000000000003" r="5" fill="#d62728" fill-opacity="0.3" stroke="#d62728" stroke-width="0.8" /><circle cx="348.45" cy="330.29" r="5" fill="#d62728" fill-opacity="0.3" stroke="#d62728" stroke-width="0.8" /><circle cx="362.78000000000003" cy="334.98" r="5" fill="#d62728" fill-opacity="0.3" stroke="#d62728" stroke-width="0.8" /><circle cx="331.24" cy="327.65000000000003" r="5" fill="#d62728" fill-opacity="0.3" stroke="#d62728" stroke-width="0.8" /><circle cx="320.95" cy="279.03000000000003" r="5" fill="#d62728" fill-opacity="0.3" stroke="#d62728" stroke-width="0.8" /><circle cx="314.22" cy="308.54" r="5" fill="#d62728" fill-opacity="0.3" stroke="#d62728" stroke-width="0.8" /><circle cx="327.22" cy="356.83" r="5" fill="#d62728" fill-opacity="0.3" stroke="#d62728" stroke-width="0.8" /><circle cx="346.61" cy="306.15000000000003" r="5" fill="#d62728" fill-opacity="0.3" stroke="#d62728" stroke-width="0.8" /><circle cx="374.3" cy="335.23" r="5" fill="#d62728" fill-opacity="0.3" stroke="#d62728" stroke-width="0.8" /><circle cx="344.36" cy="287.65000000000003" r="5" fill="#d62728" fill-opacity="0.3" stroke="#d62728" stroke-width="0.8" /><circle cx="351.74" cy="329.89" r="5" fill="#d62728" fill-opacity="0.3" stroke="#d62728" stroke-width="0.8" /><circle cx="359.32" cy="277.34000000000003" r="5" fill="#d62728" fill-opacity="0.3" stroke="#d62728" stroke-width="0.8" /><circle cx="376.75" cy="321.22" r="5" fill="#d62728" fill-opacity="0.3" stroke="#d62728" stroke-width="0.8" /><circle cx="355.45" cy="323.91" r="5" fill="#d62728" fill-opacity="0.3" stroke="#d62728" stroke-width="0.8" /><circle cx="364.54" cy="349.08" r="5" fill="#d62728" fill-opacity="0.3" stroke="#d62728" stroke-width="0.8" /><circle cx="377.88" cy="338.73" r="5" fill="#d62728" fill-opacity="0.3" stroke="#d62728" stroke-width="0.8" /><circle cx="299.51" cy="312.3" r="5" fill="#d62728" fill-opacity="0.3" stroke="#d62728" stroke-width="0.8" /><circle cx="355.33" cy="319.37" r="5" fill="#d62728" fill-opacity="0.3" stroke="#d62728" stroke-width="0.8" /><circle cx="373.74" cy="361.22" r="5" fill="#d62728" fill-opacity="0.3" stroke="#d62728" stroke-width="0.8" /><circle cx="369.35" cy="314" r="5" fill="#d62728" fill-opacity="0.3" stroke="#d62728" stroke-width="0.8" /><circle cx="349.91" cy="344.2" r="5" fill="#d62728" fill-opacity="0.3" stroke="#d62728" stroke-width="0.8" /><circle cx="401.19" cy="327.28000000000003" r="5" fill="#d62728" fill-opacity="0.3" stroke="#d62728" stroke-width="0.8" /><circle cx="359.09000000000003" cy="281.81" r="5" fill="#d62728" fill-opacity="0.3" stroke="#d62728" stroke-width="0.8" /><circle cx="363.38" cy="322.5" r="5" fill="#d62728" fill-opacity="0.3" stroke="#d62728" stroke-width="0.8" /><circle cx="355.29" cy="348.21" r="5" fill="#d62728" fill-opacity="0.3" stroke="#d62728" stroke-width="0.8" /><circle cx="341.18" cy="299.45" r="5" fill="#d62728" fill-opacity="0.3" stroke="#d62728" stroke-width="0.8" /><circle cx="328.39" cy="314.01" r="5" fill="#d62728" fill-opacity="0.3" stroke="#d62728" stroke-width="0.8" /><circle cx="361.74" cy="348.48" r="5" fill="#d62728" fill-opacity="0.3" stroke="#d62728" stroke-width="0.8" /><rect x="668.8000000000001" y="34" width="120" height="92" fill="#ffffff" /><rect x="668.8000000000001" y="34" width="120" height="92" fill="none" stroke="#000000" stroke-width="1" /><text x="698.8000000000001" y="53.2" font-size="12" text-anchor="start">Sandy loam</text><circle cx="683.8000000000001" cy="49" r="5" fill="#1f77b4" /><text x="698.8000000000001" y="71.2" font-size="12" text-anchor="start">Silt loam</text><circle cx="683.8000000000001" cy="67" r="5" fill="#ff7f0e" /><text x="698.8000000000001" y="89.2" font-size="12" text-anchor="start">Clay</text><circle cx="683.8000000000001" cy="85" r="5" fill="#2ca02c" /><text x="698.8000000000001" y="107.2" font-size="12" text-anchor="start">Loam</text><circle cx="683.8000000000001" cy="103" r="5" fill="#d62728" /></svg>