<svg xmlns="http://www.w3.org/2000/svg" width="681.8000000000001" height="545" font-family="DejaVu Sans, Liberation Sans, Arial, sans-serif" fill="black"><rect width="100%" height="100%" fill="white" /><defs><clipPath id="kuva-clip-0"><rect x="63.800000000000004" y="44" width="600" height="450"/></clipPath></defs><line x1="213.8" y1="44" x2="213.8" y2="494" stroke="#cccccc" stroke-width="1" /><line x1="363.8" y1="44" x2="363.8" y2="494" stroke="#cccccc" stroke-width="1" /><line x1="513.8" y1="44" x2="513.8" y2="494" stroke="#cccccc" stroke-width="1" /><line x1="663.8000000000001" y1="44" x2="663.8000000000001" y2="494" stroke="#cccccc" stroke-width="1" /><line x1="63.800000000000004" y1="419" x2="663.8000000000001" y2="419" stroke="#cccccc" stroke-width="1" /><line x1="63.800000000000004" y1="344" x2="663.8000000000001" y2="344" stroke="#cccccc" stroke-width="1" /><line x1="63.800000000000004" y1="269" x2="663.8000000000001" y2="269" stroke="#cccccc" stroke-width="1" /><line x1="63.800000000000004" y1="194" x2="663.8000000000001" y2="194" stroke="#cccccc" stroke-width="1" /><line x1="63.800000000000004" y1="119" x2="663.8000000000001" y2="119" stroke="#cccccc" stroke-width="1" /><line x1="63.800000000000004" y1="44" x2="663.8000000000001" y2="44" stroke="#cccccc" stroke-width="1" /><line x1="63.800000000000004" y1="494" x2="663.8000000000001" y2="494" stroke="#000000" stroke-width="1" /><line x1="63.800000000000004" y1="44" x2="63.800000000000004" y2="494" stroke="#000000" stroke-width="1" /><line x1="63.800000000000004" y1="494" x2="63.800000000000004" y2="499" stroke="#000000" stroke-width="1" /><text x="63.800000000000004" y="511" font-size="12" text-anchor="middle">0</text><line x1="213.8" y1="494" x2="213.8" y2="499" stroke="#000000" stroke-width="1" /><text x="213.8" y="511" font-size="12" text-anchor="middle">20</text><line x1="363.8" y1="494" x2="363.8" y2="499" stroke="#000000" stroke-width="1" /><text x="363.8" y="511" font-size="12" text-anchor="middle">40</text><line x1="513.8" y1="494" x2="513.8" y2="499" stroke="#000000" stroke-width="1" /><text x="513.8" y="511" font-size="12" text-anchor="middle">60</text><line x1="663.8000000000001" y1="494" x2="663.8000000000001" y2="499" stroke="#000000" stroke-width="1" /><text x="663.8000000000001" y="511" font-size="12" text-anchor="middle">80</text><line x1="58.800000000000004" y1="494" x2="63.800000000000004" y2="494" stroke="#000000" stroke-width="1" /><text x="55.800000000000004" y="498.2" font-size="12" text-anchor="end">-1.5</text><line x1="58.800000000000004" y1="419" x2="63.800000000000004" y2="419" stroke="#000000" stroke-width="1" /><text x="55.800000000000004" y="423.2" font-size="12" text-anchor="end">-1</text><line x1="58.800000000000004" y1="344" x2="63.800000000000004" y2="344" stroke="#000000" stroke-width="1" /><text x="55.800000000000004" y="348.2" font-size="12" text-anchor="end">-0.5</text><line x1="58.800000000000004" y1="269" x2="63.800000000000004" y2="269" stroke="#000000" stroke-width="1" /><text x="55.800000000000004" y="273.2" font-size="12" text-anchor="end">0</text><line x1="58.800000000000004" y1="194" x2="63.800000000000004" y2="194" stroke="#000000" stroke-width="1" /><text x="55.800000000000004" y="198.20000000000002" font-size="12" text-anchor="end">0.5</text><line x1="58.800000000000004" y1="119" x2="63.800000000000004" y2="119" stroke="#000000" stroke-width="1" /><text x="55.800000000000004" y="123.2" font-size="12" text-anchor="end">1</text><line x1="58.800000000000004" y1="44" x2="63.800000000000004" y2="44" stroke="#000000" stroke-width="1" /><text x="55.800000000000004" y="48.2" font-size="12" text-anchor="end">1.5</text><text x="363.8" y="538" font-size="14" text-anchor="middle">Sample</text><text x="15" y="272.5" font-size="14" text-anchor="middle" transform="rotate(-90,15,272.5)">Amplitude</text><text x="340.90000000000003" y="27.400000000000002" font-size="18" text-anchor="middle">Series Plot — Line Style</text><g clip-path="url(#kuva-clip-0)"><path d="M 63.800000000000004 269.0 L 71.3 257.23 L 78.8 245.53 L 86.3 233.98000000000002 L 93.8 222.65 L 101.3 211.6 L 108.8 200.9 L 116.3 190.63 L 123.8 180.83 L 131.3 171.58 L 138.8 162.93 L 146.3 154.94 L 153.8 147.65 L 161.3 141.1 L 168.8 135.35 L 176.3 130.42000000000002 L 183.8 126.34 L 191.3 123.14 L 198.8 120.85000000000001 L 206.3 119.46000000000001 L 213.8 119.0 L 221.3 119.46000000000001 L 228.8 120.85000000000001 L 236.3 123.14 L 243.8 126.34 L 251.3 130.42000000000002 L 258.8 135.35 L 266.3 141.1 L 273.8 147.65 L 281.3 154.94 L 288.8 162.93 L 296.3 171.58 L 303.8 180.83 L 311.3 190.63 L 318.8 200.9 L 326.3 211.6 L 333.8 222.65 L 341.3 233.98000000000002 L 348.8 245.53 L 356.3 257.23 L 363.8 269.0 L 371.3 280.77 L 378.8 292.47 L 386.3 304.02 L 393.8 315.35 L 401.3 326.40000000000003 L 408.8 337.1 L 416.3 347.37 L 423.8 357.17 L 431.3 366.42 L 438.8 375.07 L 446.3 383.06 L 453.8 390.35 L 461.3 396.90000000000003 L 468.8 402.65000000000003 L 476.3 407.58 L 483.8 411.66 L 491.3 414.86 L 498.8 417.15000000000003 L 506.3 418.54 L 513.8 419.0 L 521.3 418.54 L 528.8 417.15000000000003 L 536.3 414.86 L 543.8 411.66 L 551.3000000000001 407.58 L 558.8000000000001 402.65000000000003 L 566.3000000000001 396.90000000000003 L 573.8000000000001 390.35 L 581.3000000000001 383.06 L 588.8000000000001 375.07 L 596.3000000000001 366.42 L 603.8000000000001 357.17 L 611.3000000000001 347.37 L 618.8000000000001 337.1 L 626.3000000000001 326.40000000000003 L 633.8000000000001 315.35 L 641.3000000000001 304.02 L 648.8000000000001 292.47 L 656.3000000000001 280.77 " stroke="#4682b4" stroke-width="2" fill="none" /></g></svg>