<svg xmlns="http://www.w3.org/2000/svg" width="686.2" height="545" font-family="DejaVu Sans, Liberation Sans, Arial, sans-serif" fill="black"><rect width="100%" height="100%" fill="white" /><line x1="72.2" y1="494" x2="672.2" y2="494" stroke="#000000" stroke-width="1" /><line x1="72.2" y1="44" x2="72.2" y2="494" stroke="#000000" stroke-width="1" /><line x1="222.20000000000002" y1="44" x2="222.20000000000002" y2="494" stroke="#cccccc" stroke-width="1" /><line x1="372.2" y1="44" x2="372.2" y2="494" stroke="#cccccc" stroke-width="1" /><line x1="522.2" y1="44" x2="522.2" y2="494" stroke="#cccccc" stroke-width="1" /><line x1="672.2" y1="44" x2="672.2" y2="494" stroke="#cccccc" stroke-width="1" /><line x1="72.2" y1="419" x2="672.2" y2="419" stroke="#cccccc" stroke-width="1" /><line x1="72.2" y1="344" x2="672.2" y2="344" stroke="#cccccc" stroke-width="1" /><line x1="72.2" y1="269" x2="672.2" y2="269" stroke="#cccccc" stroke-width="1" /><line x1="72.2" y1="194" x2="672.2" y2="194" stroke="#cccccc" stroke-width="1" /><line x1="72.2" y1="119" x2="672.2" y2="119" stroke="#cccccc" stroke-width="1" /><line x1="72.2" y1="44" x2="672.2" y2="44" stroke="#cccccc" stroke-width="1" /><line x1="72.2" y1="494" x2="72.2" y2="499" stroke="#000000" stroke-width="1" /><text x="72.2" y="511" font-size="12" text-anchor="middle">0</text><line x1="222.20000000000002" y1="494" x2="222.20000000000002" y2="499" stroke="#000000" stroke-width="1" /><text x="222.20000000000002" y="511" font-size="12" text-anchor="middle">20</text><line x1="372.2" y1="494" x2="372.2" y2="499" stroke="#000000" stroke-width="1" /><text x="372.2" y="511" font-size="12" text-anchor="middle">40</text><line x1="522.2" y1="494" x2="522.2" y2="499" stroke="#000000" stroke-width="1" /><text x="522.2" y="511" font-size="12" text-anchor="middle">60</text><line x1="672.2" y1="494" x2="672.2" y2="499" stroke="#000000" stroke-width="1" /><text x="672.2" y="511" font-size="12" text-anchor="middle">80</text><line x1="67.2" y1="494" x2="72.2" y2="494" stroke="#000000" stroke-width="1" /><text x="64.2" y="498.2" font-size="12" text-anchor="end">-1.5</text><line x1="67.2" y1="419" x2="72.2" y2="419" stroke="#000000" stroke-width="1" /><text x="64.2" y="423.2" font-size="12" text-anchor="end">-1</text><line x1="67.2" y1="344" x2="72.2" y2="344" stroke="#000000" stroke-width="1" /><text x="64.2" y="348.2" font-size="12" text-anchor="end">-0.5</text><line x1="67.2" y1="269" x2="72.2" y2="269" stroke="#000000" stroke-width="1" /><text x="64.2" y="273.2" font-size="12" text-anchor="end">0</text><line x1="67.2" y1="194" x2="72.2" y2="194" stroke="#000000" stroke-width="1" /><text x="64.2" y="198.20000000000002" font-size="12" text-anchor="end">0.5</text><line x1="67.2" y1="119" x2="72.2" y2="119" stroke="#000000" stroke-width="1" /><text x="64.2" y="123.2" font-size="12" text-anchor="end">1</text><line x1="67.2" y1="44" x2="72.2" y2="44" stroke="#000000" stroke-width="1" /><text x="64.2" y="48.2" font-size="12" text-anchor="end">1.5</text><text x="372.2" y="538" font-size="14" text-anchor="middle">Sample</text><text x="7" y="272.5" font-size="14" text-anchor="middle" transform="rotate(-90,7,272.5)">Amplitude</text><text x="372.2" y="22" font-size="18" text-anchor="middle">Series Plot — Line Style</text><path d="M 72.2 269.0 L 79.7 257.23 L 87.2 245.53 L 94.7 233.98000000000002 L 102.2 222.65 L 109.7 211.6 L 117.2 200.9 L 124.7 190.63 L 132.2 180.83 L 139.70000000000002 171.58 L 147.20000000000002 162.93 L 154.70000000000002 154.94 L 162.20000000000002 147.65 L 169.70000000000002 141.1 L 177.20000000000002 135.35 L 184.70000000000002 130.42000000000002 L 192.20000000000002 126.34 L 199.70000000000002 123.14 L 207.20000000000002 120.85000000000001 L 214.70000000000002 119.46000000000001 L 222.20000000000002 119.0 L 229.70000000000002 119.46000000000001 L 237.20000000000002 120.85000000000001 L 244.70000000000002 123.14 L 252.20000000000002 126.34 L 259.7 130.42000000000002 L 267.2 135.35 L 274.7 141.1 L 282.2 147.65 L 289.7 154.94 L 297.2 162.93 L 304.7 171.58 L 312.2 180.83 L 319.7 190.63 L 327.2 200.9 L 334.7 211.6 L 342.2 222.65 L 349.7 233.98000000000002 L 357.2 245.53 L 364.7 257.23 L 372.2 269.0 L 379.7 280.77 L 387.2 292.47 L 394.7 304.02 L 402.2 315.35 L 409.7 326.40000000000003 L 417.2 337.1 L 424.7 347.37 L 432.2 357.17 L 439.7 366.42 L 447.2 375.07 L 454.7 383.06 L 462.2 390.35 L 469.7 396.90000000000003 L 477.2 402.65000000000003 L 484.7 407.58 L 492.2 411.66 L 499.7 414.86 L 507.2 417.15000000000003 L 514.7 418.54 L 522.2 419.0 L 529.7 418.54 L 537.2 417.15000000000003 L 544.7 414.86 L 552.2 411.66 L 559.7 407.58 L 567.2 402.65000000000003 L 574.7 396.90000000000003 L 582.2 390.35 L 589.7 383.06 L 597.2 375.07 L 604.7 366.42 L 612.2 357.17 L 619.7 347.37 L 627.2 337.1 L 634.7 326.40000000000003 L 642.2 315.35 L 649.7 304.02 L 657.2 292.47 L 664.7 280.77 " stroke="#4682b4" stroke-width="2" fill="none" /></svg>