<svg xmlns="http://www.w3.org/2000/svg" width="874.2" height="545" font-family="DejaVu Sans, Liberation Sans, Arial, sans-serif" fill="black"><rect width="100%" height="100%" fill="white" /><line x1="72.2" y1="494" x2="672.2" y2="494" stroke="#000000" stroke-width="1" /><line x1="72.2" y1="44" x2="72.2" y2="494" stroke="#000000" stroke-width="1" /><line x1="222.20000000000002" y1="44" x2="222.20000000000002" y2="494" stroke="#cccccc" stroke-width="1" /><line x1="372.2" y1="44" x2="372.2" y2="494" stroke="#cccccc" stroke-width="1" /><line x1="522.2" y1="44" x2="522.2" y2="494" stroke="#cccccc" stroke-width="1" /><line x1="672.2" y1="44" x2="672.2" y2="494" stroke="#cccccc" stroke-width="1" /><line x1="72.2" y1="419" x2="672.2" y2="419" stroke="#cccccc" stroke-width="1" /><line x1="72.2" y1="344" x2="672.2" y2="344" stroke="#cccccc" stroke-width="1" /><line x1="72.2" y1="269" x2="672.2" y2="269" stroke="#cccccc" stroke-width="1" /><line x1="72.2" y1="194" x2="672.2" y2="194" stroke="#cccccc" stroke-width="1" /><line x1="72.2" y1="119" x2="672.2" y2="119" stroke="#cccccc" stroke-width="1" /><line x1="72.2" y1="44" x2="672.2" y2="44" stroke="#cccccc" stroke-width="1" /><line x1="72.2" y1="494" x2="72.2" y2="499" stroke="#000000" stroke-width="1" /><text x="72.2" y="511" font-size="12" text-anchor="middle">0</text><line x1="222.20000000000002" y1="494" x2="222.20000000000002" y2="499" stroke="#000000" stroke-width="1" /><text x="222.20000000000002" y="511" font-size="12" text-anchor="middle">20</text><line x1="372.2" y1="494" x2="372.2" y2="499" stroke="#000000" stroke-width="1" /><text x="372.2" y="511" font-size="12" text-anchor="middle">40</text><line x1="522.2" y1="494" x2="522.2" y2="499" stroke="#000000" stroke-width="1" /><text x="522.2" y="511" font-size="12" text-anchor="middle">60</text><line x1="672.2" y1="494" x2="672.2" y2="499" stroke="#000000" stroke-width="1" /><text x="672.2" y="511" font-size="12" text-anchor="middle">80</text><line x1="67.2" y1="494" x2="72.2" y2="494" stroke="#000000" stroke-width="1" /><text x="64.2" y="498.2" font-size="12" text-anchor="end">-1.5</text><line x1="67.2" y1="419" x2="72.2" y2="419" stroke="#000000" stroke-width="1" /><text x="64.2" y="423.2" font-size="12" text-anchor="end">-1</text><line x1="67.2" y1="344" x2="72.2" y2="344" stroke="#000000" stroke-width="1" /><text x="64.2" y="348.2" font-size="12" text-anchor="end">-0.5</text><line x1="67.2" y1="269" x2="72.2" y2="269" stroke="#000000" stroke-width="1" /><text x="64.2" y="273.2" font-size="12" text-anchor="end">0</text><line x1="67.2" y1="194" x2="72.2" y2="194" stroke="#000000" stroke-width="1" /><text x="64.2" y="198.20000000000002" font-size="12" text-anchor="end">0.5</text><line x1="67.2" y1="119" x2="72.2" y2="119" stroke="#000000" stroke-width="1" /><text x="64.2" y="123.2" font-size="12" text-anchor="end">1</text><line x1="67.2" y1="44" x2="72.2" y2="44" stroke="#000000" stroke-width="1" /><text x="64.2" y="48.2" font-size="12" text-anchor="end">1.5</text><text x="372.2" y="538" font-size="14" text-anchor="middle">Sample</text><text x="7" y="272.5" font-size="14" text-anchor="middle" transform="rotate(-90,7,272.5)">Amplitude</text><text x="372.2" y="22" font-size="18" text-anchor="middle">Multiple Series</text><path d="M 72.2 269.0 L 79.7 257.23 L 87.2 245.53 L 94.7 233.98000000000002 L 102.2 222.65 L 109.7 211.6 L 117.2 200.9 L 124.7 190.63 L 132.2 180.83 L 139.70000000000002 171.58 L 147.20000000000002 162.93 L 154.70000000000002 154.94 L 162.20000000000002 147.65 L 169.70000000000002 141.1 L 177.20000000000002 135.35 L 184.70000000000002 130.42000000000002 L 192.20000000000002 126.34 L 199.70000000000002 123.14 L 207.20000000000002 120.85000000000001 L 214.70000000000002 119.46000000000001 L 222.20000000000002 119.0 L 229.70000000000002 119.46000000000001 L 237.20000000000002 120.85000000000001 L 244.70000000000002 123.14 L 252.20000000000002 126.34 L 259.7 130.42000000000002 L 267.2 135.35 L 274.7 141.1 L 282.2 147.65 L 289.7 154.94 L 297.2 162.93 L 304.7 171.58 L 312.2 180.83 L 319.7 190.63 L 327.2 200.9 L 334.7 211.6 L 342.2 222.65 L 349.7 233.98000000000002 L 357.2 245.53 L 364.7 257.23 L 372.2 269.0 L 379.7 280.77 L 387.2 292.47 L 394.7 304.02 L 402.2 315.35 L 409.7 326.40000000000003 L 417.2 337.1 L 424.7 347.37 L 432.2 357.17 L 439.7 366.42 L 447.2 375.07 L 454.7 383.06 L 462.2 390.35 L 469.7 396.90000000000003 L 477.2 402.65000000000003 L 484.7 407.58 L 492.2 411.66 L 499.7 414.86 L 507.2 417.15000000000003 L 514.7 418.54 L 522.2 419.0 L 529.7 418.54 L 537.2 417.15000000000003 L 544.7 414.86 L 552.2 411.66 L 559.7 407.58 L 567.2 402.65000000000003 L 574.7 396.90000000000003 L 582.2 390.35 L 589.7 383.06 L 597.2 375.07 L 604.7 366.42 L 612.2 357.17 L 619.7 347.37 L 627.2 337.1 L 634.7 326.40000000000003 L 642.2 315.35 L 649.7 304.02 L 657.2 292.47 L 664.7 280.77 " stroke="#4682b4" stroke-width="2" fill="none" /><path d="M 72.2 119.0 L 79.7 119.46000000000001 L 87.2 120.85000000000001 L 94.7 123.14 L 102.2 126.34 L 109.7 130.42000000000002 L 117.2 135.35 L 124.7 141.1 L 132.2 147.65 L 139.70000000000002 154.94 L 147.20000000000002 162.93 L 154.70000000000002 171.58 L 162.20000000000002 180.83 L 169.70000000000002 190.63 L 177.20000000000002 200.9 L 184.70000000000002 211.6 L 192.20000000000002 222.65 L 199.70000000000002 233.98000000000002 L 207.20000000000002 245.53 L 214.70000000000002 257.23 L 222.20000000000002 269.0 L 229.70000000000002 280.77 L 237.20000000000002 292.47 L 244.70000000000002 304.02 L 252.20000000000002 315.35 L 259.7 326.40000000000003 L 267.2 337.1 L 274.7 347.37 L 282.2 357.17 L 289.7 366.42 L 297.2 375.07 L 304.7 383.06 L 312.2 390.35 L 319.7 396.90000000000003 L 327.2 402.65000000000003 L 334.7 407.58 L 342.2 411.66 L 349.7 414.86 L 357.2 417.15000000000003 L 364.7 418.54 L 372.2 419.0 L 379.7 418.54 L 387.2 417.15000000000003 L 394.7 414.86 L 402.2 411.66 L 409.7 407.58 L 417.2 402.65000000000003 L 424.7 396.90000000000003 L 432.2 390.35 L 439.7 383.06 L 447.2 375.07 L 454.7 366.42 L 462.2 357.17 L 469.7 347.37 L 477.2 337.1 L 484.7 326.40000000000003 L 492.2 315.35 L 499.7 304.02 L 507.2 292.47 L 514.7 280.77 L 522.2 269.0 L 529.7 257.23 L 537.2 245.53 L 544.7 233.98000000000002 L 552.2 222.65 L 559.7 211.6 L 567.2 200.9 L 574.7 190.63 L 582.2 180.83 L 589.7 171.58 L 597.2 162.93 L 604.7 154.94 L 612.2 147.65 L 619.7 141.1 L 627.2 135.35 L 634.7 130.42000000000002 L 642.2 126.34 L 649.7 123.14 L 657.2 120.85000000000001 L 664.7 119.46000000000001 " stroke="#b22222" stroke-width="2" fill="none" /><path d="M 72.2 269.0 L 79.7 257.68 L 87.2 247.31 L 94.7 237.87 L 102.2 229.39000000000001 L 109.7 221.83 L 117.2 215.20000000000002 L 124.7 209.46 L 132.2 204.6 L 139.70000000000002 200.59 L 147.20000000000002 197.38 L 154.70000000000002 194.95000000000002 L 162.20000000000002 193.25 L 169.70000000000002 192.24 L 177.20000000000002 191.87 L 184.70000000000002 192.11 L 192.20000000000002 192.89000000000001 L 199.70000000000002 194.18 L 207.20000000000002 195.93 L 214.70000000000002 198.09 L 222.20000000000002 200.61 L 229.70000000000002 203.45000000000002 L 237.20000000000002 206.55 L 244.70000000000002 209.89000000000001 L 252.20000000000002 213.41 L 259.7 217.08 L 267.2 220.86 L 274.7 224.70000000000002 L 282.2 228.59 L 289.7 232.48000000000002 L 297.2 236.35 L 304.7 240.16 L 312.2 243.91 L 319.7 247.55 L 327.2 251.08 L 334.7 254.48000000000002 L 342.2 257.73 L 349.7 260.81 L 357.2 263.72 L 364.7 266.46 L 372.2 269.0 L 379.7 271.35 L 387.2 273.51 L 394.7 275.47 L 402.2 277.24 L 409.7 278.81 L 417.2 280.18 L 424.7 281.38 L 432.2 282.39 L 439.7 283.22 L 447.2 283.89 L 454.7 284.39 L 462.2 284.75 L 469.7 284.96 L 477.2 285.03000000000003 L 484.7 284.98 L 492.2 284.82 L 499.7 284.55 L 507.2 284.19 L 514.7 283.74 L 522.2 283.22 L 529.7 282.63 L 537.2 281.98 L 544.7 281.29 L 552.2 280.56 L 559.7 279.79 L 567.2 279.01 L 574.7 278.21 L 582.2 277.40000000000003 L 589.7 276.59000000000003 L 597.2 275.79 L 604.7 274.99 L 612.2 274.22 L 619.7 273.46 L 627.2 272.72 L 634.7 272.02 L 642.2 271.34000000000003 L 649.7 270.7 L 657.2 270.1 L 664.7 269.53000000000003 " stroke="seagreen" stroke-width="1.5" fill="none" /><rect x="677.2" y="34" width="188" height="74" fill="#ffffff" /><rect x="677.2" y="34" width="188" height="74" fill="none" stroke="#000000" stroke-width="1" /><text x="707.2" y="53.2" font-size="12" text-anchor="start">sin(t)</text><circle cx="693.2" cy="49" r="5" fill="#4682b4" /><text x="707.2" y="71.2" font-size="12" text-anchor="start">cos(t)</text><circle cx="693.2" cy="67" r="5" fill="#b22222" /><text x="707.2" y="89.2" font-size="12" text-anchor="start">e^(−t/2)·sin(t)</text><circle cx="693.2" cy="85" r="5" fill="seagreen" /></svg>