<svg xmlns="http://www.w3.org/2000/svg" width="865.8000000000001" height="545" font-family="DejaVu Sans, Liberation Sans, Arial, sans-serif" fill="black"><rect width="100%" height="100%" fill="white" /><defs><clipPath id="kuva-clip-1"><rect x="63.800000000000004" y="44" width="600" height="450"/></clipPath></defs><line x1="213.8" y1="44" x2="213.8" y2="494" stroke="#cccccc" stroke-width="1" /><line x1="363.8" y1="44" x2="363.8" y2="494" stroke="#cccccc" stroke-width="1" /><line x1="513.8" y1="44" x2="513.8" y2="494" stroke="#cccccc" stroke-width="1" /><line x1="663.8000000000001" y1="44" x2="663.8000000000001" y2="494" stroke="#cccccc" stroke-width="1" /><line x1="63.800000000000004" y1="419" x2="663.8000000000001" y2="419" stroke="#cccccc" stroke-width="1" /><line x1="63.800000000000004" y1="344" x2="663.8000000000001" y2="344" stroke="#cccccc" stroke-width="1" /><line x1="63.800000000000004" y1="269" x2="663.8000000000001" y2="269" stroke="#cccccc" stroke-width="1" /><line x1="63.800000000000004" y1="194" x2="663.8000000000001" y2="194" stroke="#cccccc" stroke-width="1" /><line x1="63.800000000000004" y1="119" x2="663.8000000000001" y2="119" stroke="#cccccc" stroke-width="1" /><line x1="63.800000000000004" y1="44" x2="663.8000000000001" y2="44" stroke="#cccccc" stroke-width="1" /><line x1="63.800000000000004" y1="494" x2="663.8000000000001" y2="494" stroke="#000000" stroke-width="1" /><line x1="63.800000000000004" y1="44" x2="63.800000000000004" y2="494" stroke="#000000" stroke-width="1" /><line x1="63.800000000000004" y1="494" x2="63.800000000000004" y2="499" stroke="#000000" stroke-width="1" /><text x="63.800000000000004" y="511" font-size="12" text-anchor="middle">0</text><line x1="213.8" y1="494" x2="213.8" y2="499" stroke="#000000" stroke-width="1" /><text x="213.8" y="511" font-size="12" text-anchor="middle">20</text><line x1="363.8" y1="494" x2="363.8" y2="499" stroke="#000000" stroke-width="1" /><text x="363.8" y="511" font-size="12" text-anchor="middle">40</text><line x1="513.8" y1="494" x2="513.8" y2="499" stroke="#000000" stroke-width="1" /><text x="513.8" y="511" font-size="12" text-anchor="middle">60</text><line x1="663.8000000000001" y1="494" x2="663.8000000000001" y2="499" stroke="#000000" stroke-width="1" /><text x="663.8000000000001" y="511" font-size="12" text-anchor="middle">80</text><line x1="58.800000000000004" y1="494" x2="63.800000000000004" y2="494" stroke="#000000" stroke-width="1" /><text x="55.800000000000004" y="498.2" font-size="12" text-anchor="end">-1.5</text><line x1="58.800000000000004" y1="419" x2="63.800000000000004" y2="419" stroke="#000000" stroke-width="1" /><text x="55.800000000000004" y="423.2" font-size="12" text-anchor="end">-1</text><line x1="58.800000000000004" y1="344" x2="63.800000000000004" y2="344" stroke="#000000" stroke-width="1" /><text x="55.800000000000004" y="348.2" font-size="12" text-anchor="end">-0.5</text><line x1="58.800000000000004" y1="269" x2="63.800000000000004" y2="269" stroke="#000000" stroke-width="1" /><text x="55.800000000000004" y="273.2" font-size="12" text-anchor="end">0</text><line x1="58.800000000000004" y1="194" x2="63.800000000000004" y2="194" stroke="#000000" stroke-width="1" /><text x="55.800000000000004" y="198.20000000000002" font-size="12" text-anchor="end">0.5</text><line x1="58.800000000000004" y1="119" x2="63.800000000000004" y2="119" stroke="#000000" stroke-width="1" /><text x="55.800000000000004" y="123.2" font-size="12" text-anchor="end">1</text><line x1="58.800000000000004" y1="44" x2="63.800000000000004" y2="44" stroke="#000000" stroke-width="1" /><text x="55.800000000000004" y="48.2" font-size="12" text-anchor="end">1.5</text><text x="363.8" y="538" font-size="14" text-anchor="middle">Sample</text><text x="15" y="272.5" font-size="14" text-anchor="middle" transform="rotate(-90,15,272.5)">Amplitude</text><text x="432.90000000000003" y="27.400000000000002" font-size="18" text-anchor="middle">Multiple Series</text><g clip-path="url(#kuva-clip-1)"><path d="M 63.800000000000004 269.0 L 71.3 257.23 L 78.8 245.53 L 86.3 233.98000000000002 L 93.8 222.65 L 101.3 211.6 L 108.8 200.9 L 116.3 190.63 L 123.8 180.83 L 131.3 171.58 L 138.8 162.93 L 146.3 154.94 L 153.8 147.65 L 161.3 141.1 L 168.8 135.35 L 176.3 130.42000000000002 L 183.8 126.34 L 191.3 123.14 L 198.8 120.85000000000001 L 206.3 119.46000000000001 L 213.8 119.0 L 221.3 119.46000000000001 L 228.8 120.85000000000001 L 236.3 123.14 L 243.8 126.34 L 251.3 130.42000000000002 L 258.8 135.35 L 266.3 141.1 L 273.8 147.65 L 281.3 154.94 L 288.8 162.93 L 296.3 171.58 L 303.8 180.83 L 311.3 190.63 L 318.8 200.9 L 326.3 211.6 L 333.8 222.65 L 341.3 233.98000000000002 L 348.8 245.53 L 356.3 257.23 L 363.8 269.0 L 371.3 280.77 L 378.8 292.47 L 386.3 304.02 L 393.8 315.35 L 401.3 326.40000000000003 L 408.8 337.1 L 416.3 347.37 L 423.8 357.17 L 431.3 366.42 L 438.8 375.07 L 446.3 383.06 L 453.8 390.35 L 461.3 396.90000000000003 L 468.8 402.65000000000003 L 476.3 407.58 L 483.8 411.66 L 491.3 414.86 L 498.8 417.15000000000003 L 506.3 418.54 L 513.8 419.0 L 521.3 418.54 L 528.8 417.15000000000003 L 536.3 414.86 L 543.8 411.66 L 551.3000000000001 407.58 L 558.8000000000001 402.65000000000003 L 566.3000000000001 396.90000000000003 L 573.8000000000001 390.35 L 581.3000000000001 383.06 L 588.8000000000001 375.07 L 596.3000000000001 366.42 L 603.8000000000001 357.17 L 611.3000000000001 347.37 L 618.8000000000001 337.1 L 626.3000000000001 326.40000000000003 L 633.8000000000001 315.35 L 641.3000000000001 304.02 L 648.8000000000001 292.47 L 656.3000000000001 280.77 " stroke="#4682b4" stroke-width="2" fill="none" /><path d="M 63.800000000000004 119.0 L 71.3 119.46000000000001 L 78.8 120.85000000000001 L 86.3 123.14 L 93.8 126.34 L 101.3 130.42000000000002 L 108.8 135.35 L 116.3 141.1 L 123.8 147.65 L 131.3 154.94 L 138.8 162.93 L 146.3 171.58 L 153.8 180.83 L 161.3 190.63 L 168.8 200.9 L 176.3 211.6 L 183.8 222.65 L 191.3 233.98000000000002 L 198.8 245.53 L 206.3 257.23 L 213.8 269.0 L 221.3 280.77 L 228.8 292.47 L 236.3 304.02 L 243.8 315.35 L 251.3 326.40000000000003 L 258.8 337.1 L 266.3 347.37 L 273.8 357.17 L 281.3 366.42 L 288.8 375.07 L 296.3 383.06 L 303.8 390.35 L 311.3 396.90000000000003 L 318.8 402.65000000000003 L 326.3 407.58 L 333.8 411.66 L 341.3 414.86 L 348.8 417.15000000000003 L 356.3 418.54 L 363.8 419.0 L 371.3 418.54 L 378.8 417.15000000000003 L 386.3 414.86 L 393.8 411.66 L 401.3 407.58 L 408.8 402.65000000000003 L 416.3 396.90000000000003 L 423.8 390.35 L 431.3 383.06 L 438.8 375.07 L 446.3 366.42 L 453.8 357.17 L 461.3 347.37 L 468.8 337.1 L 476.3 326.40000000000003 L 483.8 315.35 L 491.3 304.02 L 498.8 292.47 L 506.3 280.77 L 513.8 269.0 L 521.3 257.23 L 528.8 245.53 L 536.3 233.98000000000002 L 543.8 222.65 L 551.3000000000001 211.6 L 558.8000000000001 200.9 L 566.3000000000001 190.63 L 573.8000000000001 180.83 L 581.3000000000001 171.58 L 588.8000000000001 162.93 L 596.3000000000001 154.94 L 603.8000000000001 147.65 L 611.3000000000001 141.1 L 618.8000000000001 135.35 L 626.3000000000001 130.42000000000002 L 633.8000000000001 126.34 L 641.3000000000001 123.14 L 648.8000000000001 120.85000000000001 L 656.3000000000001 119.46000000000001 " stroke="#b22222" stroke-width="2" fill="none" /><path d="M 63.800000000000004 269.0 L 71.3 257.68 L 78.8 247.31 L 86.3 237.87 L 93.8 229.39000000000001 L 101.3 221.83 L 108.8 215.20000000000002 L 116.3 209.46 L 123.8 204.6 L 131.3 200.59 L 138.8 197.38 L 146.3 194.95000000000002 L 153.8 193.25 L 161.3 192.24 L 168.8 191.87 L 176.3 192.11 L 183.8 192.89000000000001 L 191.3 194.18 L 198.8 195.93 L 206.3 198.09 L 213.8 200.61 L 221.3 203.45000000000002 L 228.8 206.55 L 236.3 209.89000000000001 L 243.8 213.41 L 251.3 217.08 L 258.8 220.86 L 266.3 224.70000000000002 L 273.8 228.59 L 281.3 232.48000000000002 L 288.8 236.35 L 296.3 240.16 L 303.8 243.91 L 311.3 247.55 L 318.8 251.08 L 326.3 254.48000000000002 L 333.8 257.73 L 341.3 260.81 L 348.8 263.72 L 356.3 266.46 L 363.8 269.0 L 371.3 271.35 L 378.8 273.51 L 386.3 275.47 L 393.8 277.24 L 401.3 278.81 L 408.8 280.18 L 416.3 281.38 L 423.8 282.39 L 431.3 283.22 L 438.8 283.89 L 446.3 284.39 L 453.8 284.75 L 461.3 284.96 L 468.8 285.03000000000003 L 476.3 284.98 L 483.8 284.82 L 491.3 284.55 L 498.8 284.19 L 506.3 283.74 L 513.8 283.22 L 521.3 282.63 L 528.8 281.98 L 536.3 281.29 L 543.8 280.56 L 551.3000000000001 279.79 L 558.8000000000001 279.01 L 566.3000000000001 278.21 L 573.8000000000001 277.40000000000003 L 581.3000000000001 276.59000000000003 L 588.8000000000001 275.79 L 596.3000000000001 274.99 L 603.8000000000001 274.22 L 611.3000000000001 273.46 L 618.8000000000001 272.72 L 626.3000000000001 272.02 L 633.8000000000001 271.34000000000003 L 641.3000000000001 270.7 L 648.8000000000001 270.1 L 656.3000000000001 269.53000000000003 " stroke="seagreen" stroke-width="1.5" fill="none" /></g><rect x="668.8000000000001" y="34" width="184" height="74" fill="#ffffff" /><rect x="668.8000000000001" y="34" width="184" height="74" fill="none" stroke="#000000" stroke-width="1" /><text x="698.8000000000001" y="53.2" font-size="12" text-anchor="start">sin(t)</text><circle cx="683.8000000000001" cy="49" r="5" fill="#4682b4" /><text x="698.8000000000001" y="71.2" font-size="12" text-anchor="start">cos(t)</text><circle cx="683.8000000000001" cy="67" r="5" fill="#b22222" /><text x="698.8000000000001" y="89.2" font-size="12" text-anchor="start">e^(−t/2)·sin(t)</text><circle cx="683.8000000000001" cy="85" r="5" fill="seagreen" /></svg>