<svg xmlns="http://www.w3.org/2000/svg" width="772.2" height="545" font-family="DejaVu Sans, Liberation Sans, Arial, sans-serif" fill="black"><rect width="100%" height="100%" fill="white" /><line x1="72.2" y1="494" x2="672.2" y2="494" stroke="#000000" stroke-width="1" /><line x1="72.2" y1="44" x2="72.2" y2="494" stroke="#000000" stroke-width="1" /><line x1="222.20000000000002" y1="44" x2="222.20000000000002" y2="494" stroke="#cccccc" stroke-width="1" /><line x1="372.2" y1="44" x2="372.2" y2="494" stroke="#cccccc" stroke-width="1" /><line x1="522.2" y1="44" x2="522.2" y2="494" stroke="#cccccc" stroke-width="1" /><line x1="672.2" y1="44" x2="672.2" y2="494" stroke="#cccccc" stroke-width="1" /><line x1="72.2" y1="381.5" x2="672.2" y2="381.5" stroke="#cccccc" stroke-width="1" /><line x1="72.2" y1="269" x2="672.2" y2="269" stroke="#cccccc" stroke-width="1" /><line x1="72.2" y1="156.5" x2="672.2" y2="156.5" stroke="#cccccc" stroke-width="1" /><line x1="72.2" y1="44" x2="672.2" y2="44" stroke="#cccccc" stroke-width="1" /><line x1="72.2" y1="494" x2="72.2" y2="499" stroke="#000000" stroke-width="1" /><text x="72.2" y="511" font-size="12" text-anchor="middle">0</text><line x1="222.20000000000002" y1="494" x2="222.20000000000002" y2="499" stroke="#000000" stroke-width="1" /><text x="222.20000000000002" y="511" font-size="12" text-anchor="middle">20</text><line x1="372.2" y1="494" x2="372.2" y2="499" stroke="#000000" stroke-width="1" /><text x="372.2" y="511" font-size="12" text-anchor="middle">40</text><line x1="522.2" y1="494" x2="522.2" y2="499" stroke="#000000" stroke-width="1" /><text x="522.2" y="511" font-size="12" text-anchor="middle">60</text><line x1="672.2" y1="494" x2="672.2" y2="499" stroke="#000000" stroke-width="1" /><text x="672.2" y="511" font-size="12" text-anchor="middle">80</text><line x1="67.2" y1="494" x2="72.2" y2="494" stroke="#000000" stroke-width="1" /><text x="64.2" y="498.2" font-size="12" text-anchor="end">-1</text><line x1="67.2" y1="381.5" x2="72.2" y2="381.5" stroke="#000000" stroke-width="1" /><text x="64.2" y="385.7" font-size="12" text-anchor="end">-0.5</text><line x1="67.2" y1="269" x2="72.2" y2="269" stroke="#000000" stroke-width="1" /><text x="64.2" y="273.2" font-size="12" text-anchor="end">0</text><line x1="67.2" y1="156.5" x2="72.2" y2="156.5" stroke="#000000" stroke-width="1" /><text x="64.2" y="160.70000000000002" font-size="12" text-anchor="end">0.5</text><line x1="67.2" y1="44" x2="72.2" y2="44" stroke="#000000" stroke-width="1" /><text x="64.2" y="48.2" font-size="12" text-anchor="end">1</text><text x="372.2" y="538" font-size="14" text-anchor="middle">Sample</text><text x="7" y="272.5" font-size="14" text-anchor="middle" transform="rotate(-90,7,272.5)">Amplitude</text><text x="372.2" y="22" font-size="18" text-anchor="middle">Custom Stroke &amp; Point Size</text><path d="M 72.2 269.0 L 79.7 235.59 L 87.2 203.16 L 94.7 172.64000000000001 L 102.2 144.86 L 109.7 120.53 L 117.2 100.18 L 124.7 84.15 L 132.2 72.55 L 139.70000000000002 65.32000000000001 L 147.20000000000002 62.17 L 154.70000000000002 62.64 L 162.20000000000002 66.11 L 169.70000000000002 71.86 L 177.20000000000002 79.08 L 184.70000000000002 86.96000000000001 L 192.20000000000002 94.69 L 199.70000000000002 101.54 L 207.20000000000002 106.91 L 214.70000000000002 110.33 L 222.20000000000002 111.5 L 229.70000000000002 110.33 L 237.20000000000002 106.91 L 244.70000000000002 101.54 L 252.20000000000002 94.69 L 259.7 86.96000000000001 L 267.2 79.08 L 274.7 71.86 L 282.2 66.11 L 289.7 62.64 L 297.2 62.17 L 304.7 65.32000000000001 L 312.2 72.55 L 319.7 84.15 L 327.2 100.18 L 334.7 120.53 L 342.2 144.86 L 349.7 172.64000000000001 L 357.2 203.16 L 364.7 235.59 L 372.2 269.0 L 379.7 302.41 L 387.2 334.84000000000003 L 394.7 365.36 L 402.2 393.14 L 409.7 417.47 L 417.2 437.82 L 424.7 453.85 L 432.2 465.45 L 439.7 472.68 L 447.2 475.83 L 454.7 475.36 L 462.2 471.89 L 469.7 466.14 L 477.2 458.92 L 484.7 451.04 L 492.2 443.31 L 499.7 436.46000000000004 L 507.2 431.09000000000003 L 514.7 427.67 L 522.2 426.5 L 529.7 427.67 L 537.2 431.09000000000003 L 544.7 436.46000000000004 L 552.2 443.31 L 559.7 451.04 L 567.2 458.92 L 574.7 466.14 L 582.2 471.89 L 589.7 475.36 L 597.2 475.83 L 604.7 472.68 L 612.2 465.45 L 619.7 453.85 L 627.2 437.82 L 634.7 417.47 L 642.2 393.14 L 649.7 365.36 L 657.2 334.84000000000003 L 664.7 302.41 " stroke="darkorchid" stroke-width="1.5" fill="none" /><circle cx="72.2" cy="269" r="4" fill="darkorchid" /><circle cx="79.7" cy="235.59" r="4" fill="darkorchid" /><circle cx="87.2" cy="203.16" r="4" fill="darkorchid" /><circle cx="94.7" cy="172.64000000000001" r="4" fill="darkorchid" /><circle cx="102.2" cy="144.86" r="4" fill="darkorchid" /><circle cx="109.7" cy="120.53" r="4" fill="darkorchid" /><circle cx="117.2" cy="100.18" r="4" fill="darkorchid" /><circle cx="124.7" cy="84.15" r="4" fill="darkorchid" /><circle cx="132.2" cy="72.55" r="4" fill="darkorchid" /><circle cx="139.70000000000002" cy="65.32000000000001" r="4" fill="darkorchid" /><circle cx="147.20000000000002" cy="62.17" r="4" fill="darkorchid" /><circle cx="154.70000000000002" cy="62.64" r="4" fill="darkorchid" /><circle cx="162.20000000000002" cy="66.11" r="4" fill="darkorchid" /><circle cx="169.70000000000002" cy="71.86" r="4" fill="darkorchid" /><circle cx="177.20000000000002" cy="79.08" r="4" fill="darkorchid" /><circle cx="184.70000000000002" cy="86.96000000000001" r="4" fill="darkorchid" /><circle cx="192.20000000000002" cy="94.69" r="4" fill="darkorchid" /><circle cx="199.70000000000002" cy="101.54" r="4" fill="darkorchid" /><circle cx="207.20000000000002" cy="106.91" r="4" fill="darkorchid" /><circle cx="214.70000000000002" cy="110.33" r="4" fill="darkorchid" /><circle cx="222.20000000000002" cy="111.5" r="4" fill="darkorchid" /><circle cx="229.70000000000002" cy="110.33" r="4" fill="darkorchid" /><circle cx="237.20000000000002" cy="106.91" r="4" fill="darkorchid" /><circle cx="244.70000000000002" cy="101.54" r="4" fill="darkorchid" /><circle cx="252.20000000000002" cy="94.69" r="4" fill="darkorchid" /><circle cx="259.7" cy="86.96000000000001" r="4" fill="darkorchid" /><circle cx="267.2" cy="79.08" r="4" fill="darkorchid" /><circle cx="274.7" cy="71.86" r="4" fill="darkorchid" /><circle cx="282.2" cy="66.11" r="4" fill="darkorchid" /><circle cx="289.7" cy="62.64" r="4" fill="darkorchid" /><circle cx="297.2" cy="62.17" r="4" fill="darkorchid" /><circle cx="304.7" cy="65.32000000000001" r="4" fill="darkorchid" /><circle cx="312.2" cy="72.55" r="4" fill="darkorchid" /><circle cx="319.7" cy="84.15" r="4" fill="darkorchid" /><circle cx="327.2" cy="100.18" r="4" fill="darkorchid" /><circle cx="334.7" cy="120.53" r="4" fill="darkorchid" /><circle cx="342.2" cy="144.86" r="4" fill="darkorchid" /><circle cx="349.7" cy="172.64000000000001" r="4" fill="darkorchid" /><circle cx="357.2" cy="203.16" r="4" fill="darkorchid" /><circle cx="364.7" cy="235.59" r="4" fill="darkorchid" /><circle cx="372.2" cy="269" r="4" fill="darkorchid" /><circle cx="379.7" cy="302.41" r="4" fill="darkorchid" /><circle cx="387.2" cy="334.84000000000003" r="4" fill="darkorchid" /><circle cx="394.7" cy="365.36" r="4" fill="darkorchid" /><circle cx="402.2" cy="393.14" r="4" fill="darkorchid" /><circle cx="409.7" cy="417.47" r="4" fill="darkorchid" /><circle cx="417.2" cy="437.82" r="4" fill="darkorchid" /><circle cx="424.7" cy="453.85" r="4" fill="darkorchid" /><circle cx="432.2" cy="465.45" r="4" fill="darkorchid" /><circle cx="439.7" cy="472.68" r="4" fill="darkorchid" /><circle cx="447.2" cy="475.83" r="4" fill="darkorchid" /><circle cx="454.7" cy="475.36" r="4" fill="darkorchid" /><circle cx="462.2" cy="471.89" r="4" fill="darkorchid" /><circle cx="469.7" cy="466.14" r="4" fill="darkorchid" /><circle cx="477.2" cy="458.92" r="4" fill="darkorchid" /><circle cx="484.7" cy="451.04" r="4" fill="darkorchid" /><circle cx="492.2" cy="443.31" r="4" fill="darkorchid" /><circle cx="499.7" cy="436.46000000000004" r="4" fill="darkorchid" /><circle cx="507.2" cy="431.09000000000003" r="4" fill="darkorchid" /><circle cx="514.7" cy="427.67" r="4" fill="darkorchid" /><circle cx="522.2" cy="426.5" r="4" fill="darkorchid" /><circle cx="529.7" cy="427.67" r="4" fill="darkorchid" /><circle cx="537.2" cy="431.09000000000003" r="4" fill="darkorchid" /><circle cx="544.7" cy="436.46000000000004" r="4" fill="darkorchid" /><circle cx="552.2" cy="443.31" r="4" fill="darkorchid" /><circle cx="559.7" cy="451.04" r="4" fill="darkorchid" /><circle cx="567.2" cy="458.92" r="4" fill="darkorchid" /><circle cx="574.7" cy="466.14" r="4" fill="darkorchid" /><circle cx="582.2" cy="471.89" r="4" fill="darkorchid" /><circle cx="589.7" cy="475.36" r="4" fill="darkorchid" /><circle cx="597.2" cy="475.83" r="4" fill="darkorchid" /><circle cx="604.7" cy="472.68" r="4" fill="darkorchid" /><circle cx="612.2" cy="465.45" r="4" fill="darkorchid" /><circle cx="619.7" cy="453.85" r="4" fill="darkorchid" /><circle cx="627.2" cy="437.82" r="4" fill="darkorchid" /><circle cx="634.7" cy="417.47" r="4" fill="darkorchid" /><circle cx="642.2" cy="393.14" r="4" fill="darkorchid" /><circle cx="649.7" cy="365.36" r="4" fill="darkorchid" /><circle cx="657.2" cy="334.84000000000003" r="4" fill="darkorchid" /><circle cx="664.7" cy="302.41" r="4" fill="darkorchid" /><rect x="677.2" y="34" width="86" height="38" fill="#ffffff" /><rect x="677.2" y="34" width="86" height="38" fill="none" stroke="#000000" stroke-width="1" /><text x="707.2" y="53.2" font-size="12" text-anchor="start">signal</text><circle cx="693.2" cy="49" r="5" fill="darkorchid" /></svg>