<svg xmlns="http://www.w3.org/2000/svg" width="769.8000000000001" height="545" font-family="DejaVu Sans, Liberation Sans, Arial, sans-serif" fill="black"><rect width="100%" height="100%" fill="white" /><defs><clipPath id="kuva-clip-5"><rect x="63.800000000000004" y="44" width="600" height="450"/></clipPath></defs><line x1="213.8" y1="44" x2="213.8" y2="494" stroke="#cccccc" stroke-width="1" /><line x1="363.8" y1="44" x2="363.8" y2="494" stroke="#cccccc" stroke-width="1" /><line x1="513.8" y1="44" x2="513.8" y2="494" stroke="#cccccc" stroke-width="1" /><line x1="663.8000000000001" y1="44" x2="663.8000000000001" y2="494" stroke="#cccccc" stroke-width="1" /><line x1="63.800000000000004" y1="381.5" x2="663.8000000000001" y2="381.5" stroke="#cccccc" stroke-width="1" /><line x1="63.800000000000004" y1="269" x2="663.8000000000001" y2="269" stroke="#cccccc" stroke-width="1" /><line x1="63.800000000000004" y1="156.5" x2="663.8000000000001" y2="156.5" stroke="#cccccc" stroke-width="1" /><line x1="63.800000000000004" y1="44" x2="663.8000000000001" y2="44" stroke="#cccccc" stroke-width="1" /><line x1="63.800000000000004" y1="494" x2="663.8000000000001" y2="494" stroke="#000000" stroke-width="1" /><line x1="63.800000000000004" y1="44" x2="63.800000000000004" y2="494" stroke="#000000" stroke-width="1" /><line x1="63.800000000000004" y1="494" x2="63.800000000000004" y2="499" stroke="#000000" stroke-width="1" /><text x="63.800000000000004" y="511" font-size="12" text-anchor="middle">0</text><line x1="213.8" y1="494" x2="213.8" y2="499" stroke="#000000" stroke-width="1" /><text x="213.8" y="511" font-size="12" text-anchor="middle">20</text><line x1="363.8" y1="494" x2="363.8" y2="499" stroke="#000000" stroke-width="1" /><text x="363.8" y="511" font-size="12" text-anchor="middle">40</text><line x1="513.8" y1="494" x2="513.8" y2="499" stroke="#000000" stroke-width="1" /><text x="513.8" y="511" font-size="12" text-anchor="middle">60</text><line x1="663.8000000000001" y1="494" x2="663.8000000000001" y2="499" stroke="#000000" stroke-width="1" /><text x="663.8000000000001" y="511" font-size="12" text-anchor="middle">80</text><line x1="58.800000000000004" y1="494" x2="63.800000000000004" y2="494" stroke="#000000" stroke-width="1" /><text x="55.800000000000004" y="498.2" font-size="12" text-anchor="end">-1</text><line x1="58.800000000000004" y1="381.5" x2="63.800000000000004" y2="381.5" stroke="#000000" stroke-width="1" /><text x="55.800000000000004" y="385.7" font-size="12" text-anchor="end">-0.5</text><line x1="58.800000000000004" y1="269" x2="63.800000000000004" y2="269" stroke="#000000" stroke-width="1" /><text x="55.800000000000004" y="273.2" font-size="12" text-anchor="end">0</text><line x1="58.800000000000004" y1="156.5" x2="63.800000000000004" y2="156.5" stroke="#000000" stroke-width="1" /><text x="55.800000000000004" y="160.70000000000002" font-size="12" text-anchor="end">0.5</text><line x1="58.800000000000004" y1="44" x2="63.800000000000004" y2="44" stroke="#000000" stroke-width="1" /><text x="55.800000000000004" y="48.2" font-size="12" text-anchor="end">1</text><text x="363.8" y="538" font-size="14" text-anchor="middle">Sample</text><text x="15" y="272.5" font-size="14" text-anchor="middle" transform="rotate(-90,15,272.5)">Amplitude</text><text x="384.90000000000003" y="27.400000000000002" font-size="18" text-anchor="middle">Custom Stroke &amp; Point Size</text><g clip-path="url(#kuva-clip-5)"><path d="M 63.800000000000004 269.0 L 71.3 235.59 L 78.8 203.16 L 86.3 172.64000000000001 L 93.8 144.86 L 101.3 120.53 L 108.8 100.18 L 116.3 84.15 L 123.8 72.55 L 131.3 65.32000000000001 L 138.8 62.17 L 146.3 62.64 L 153.8 66.11 L 161.3 71.86 L 168.8 79.08 L 176.3 86.96000000000001 L 183.8 94.69 L 191.3 101.54 L 198.8 106.91 L 206.3 110.33 L 213.8 111.5 L 221.3 110.33 L 228.8 106.91 L 236.3 101.54 L 243.8 94.69 L 251.3 86.96000000000001 L 258.8 79.08 L 266.3 71.86 L 273.8 66.11 L 281.3 62.64 L 288.8 62.17 L 296.3 65.32000000000001 L 303.8 72.55 L 311.3 84.15 L 318.8 100.18 L 326.3 120.53 L 333.8 144.86 L 341.3 172.64000000000001 L 348.8 203.16 L 356.3 235.59 L 363.8 269.0 L 371.3 302.41 L 378.8 334.84000000000003 L 386.3 365.36 L 393.8 393.14 L 401.3 417.47 L 408.8 437.82 L 416.3 453.85 L 423.8 465.45 L 431.3 472.68 L 438.8 475.83 L 446.3 475.36 L 453.8 471.89 L 461.3 466.14 L 468.8 458.92 L 476.3 451.04 L 483.8 443.31 L 491.3 436.46000000000004 L 498.8 431.09000000000003 L 506.3 427.67 L 513.8 426.5 L 521.3 427.67 L 528.8 431.09000000000003 L 536.3 436.46000000000004 L 543.8 443.31 L 551.3000000000001 451.04 L 558.8000000000001 458.92 L 566.3000000000001 466.14 L 573.8000000000001 471.89 L 581.3000000000001 475.36 L 588.8000000000001 475.83 L 596.3000000000001 472.68 L 603.8000000000001 465.45 L 611.3000000000001 453.85 L 618.8000000000001 437.82 L 626.3000000000001 417.47 L 633.8000000000001 393.14 L 641.3000000000001 365.36 L 648.8000000000001 334.84000000000003 L 656.3000000000001 302.41 " stroke="darkorchid" stroke-width="1.5" fill="none" /><circle cx="63.800000000000004" cy="269" r="4" fill="darkorchid" /><circle cx="71.3" cy="235.59" r="4" fill="darkorchid" /><circle cx="78.8" cy="203.16" r="4" fill="darkorchid" /><circle cx="86.3" cy="172.64000000000001" r="4" fill="darkorchid" /><circle cx="93.8" cy="144.86" r="4" fill="darkorchid" /><circle cx="101.3" cy="120.53" r="4" fill="darkorchid" /><circle cx="108.8" cy="100.18" r="4" fill="darkorchid" /><circle cx="116.3" cy="84.15" r="4" fill="darkorchid" /><circle cx="123.8" cy="72.55" r="4" fill="darkorchid" /><circle cx="131.3" cy="65.32000000000001" r="4" fill="darkorchid" /><circle cx="138.8" cy="62.17" r="4" fill="darkorchid" /><circle cx="146.3" cy="62.64" r="4" fill="darkorchid" /><circle cx="153.8" cy="66.11" r="4" fill="darkorchid" /><circle cx="161.3" cy="71.86" r="4" fill="darkorchid" /><circle cx="168.8" cy="79.08" r="4" fill="darkorchid" /><circle cx="176.3" cy="86.96000000000001" r="4" fill="darkorchid" /><circle cx="183.8" cy="94.69" r="4" fill="darkorchid" /><circle cx="191.3" cy="101.54" r="4" fill="darkorchid" /><circle cx="198.8" cy="106.91" r="4" fill="darkorchid" /><circle cx="206.3" cy="110.33" r="4" fill="darkorchid" /><circle cx="213.8" cy="111.5" r="4" fill="darkorchid" /><circle cx="221.3" cy="110.33" r="4" fill="darkorchid" /><circle cx="228.8" cy="106.91" r="4" fill="darkorchid" /><circle cx="236.3" cy="101.54" r="4" fill="darkorchid" /><circle cx="243.8" cy="94.69" r="4" fill="darkorchid" /><circle cx="251.3" cy="86.96000000000001" r="4" fill="darkorchid" /><circle cx="258.8" cy="79.08" r="4" fill="darkorchid" /><circle cx="266.3" cy="71.86" r="4" fill="darkorchid" /><circle cx="273.8" cy="66.11" r="4" fill="darkorchid" /><circle cx="281.3" cy="62.64" r="4" fill="darkorchid" /><circle cx="288.8" cy="62.17" r="4" fill="darkorchid" /><circle cx="296.3" cy="65.32000000000001" r="4" fill="darkorchid" /><circle cx="303.8" cy="72.55" r="4" fill="darkorchid" /><circle cx="311.3" cy="84.15" r="4" fill="darkorchid" /><circle cx="318.8" cy="100.18" r="4" fill="darkorchid" /><circle cx="326.3" cy="120.53" r="4" fill="darkorchid" /><circle cx="333.8" cy="144.86" r="4" fill="darkorchid" /><circle cx="341.3" cy="172.64000000000001" r="4" fill="darkorchid" /><circle cx="348.8" cy="203.16" r="4" fill="darkorchid" /><circle cx="356.3" cy="235.59" r="4" fill="darkorchid" /><circle cx="363.8" cy="269" r="4" fill="darkorchid" /><circle cx="371.3" cy="302.41" r="4" fill="darkorchid" /><circle cx="378.8" cy="334.84000000000003" r="4" fill="darkorchid" /><circle cx="386.3" cy="365.36" r="4" fill="darkorchid" /><circle cx="393.8" cy="393.14" r="4" fill="darkorchid" /><circle cx="401.3" cy="417.47" r="4" fill="darkorchid" /><circle cx="408.8" cy="437.82" r="4" fill="darkorchid" /><circle cx="416.3" cy="453.85" r="4" fill="darkorchid" /><circle cx="423.8" cy="465.45" r="4" fill="darkorchid" /><circle cx="431.3" cy="472.68" r="4" fill="darkorchid" /><circle cx="438.8" cy="475.83" r="4" fill="darkorchid" /><circle cx="446.3" cy="475.36" r="4" fill="darkorchid" /><circle cx="453.8" cy="471.89" r="4" fill="darkorchid" /><circle cx="461.3" cy="466.14" r="4" fill="darkorchid" /><circle cx="468.8" cy="458.92" r="4" fill="darkorchid" /><circle cx="476.3" cy="451.04" r="4" fill="darkorchid" /><circle cx="483.8" cy="443.31" r="4" fill="darkorchid" /><circle cx="491.3" cy="436.46000000000004" r="4" fill="darkorchid" /><circle cx="498.8" cy="431.09000000000003" r="4" fill="darkorchid" /><circle cx="506.3" cy="427.67" r="4" fill="darkorchid" /><circle cx="513.8" cy="426.5" r="4" fill="darkorchid" /><circle cx="521.3" cy="427.67" r="4" fill="darkorchid" /><circle cx="528.8" cy="431.09000000000003" r="4" fill="darkorchid" /><circle cx="536.3" cy="436.46000000000004" r="4" fill="darkorchid" /><circle cx="543.8" cy="443.31" r="4" fill="darkorchid" /><circle cx="551.3000000000001" cy="451.04" r="4" fill="darkorchid" /><circle cx="558.8000000000001" cy="458.92" r="4" fill="darkorchid" /><circle cx="566.3000000000001" cy="466.14" r="4" fill="darkorchid" /><circle cx="573.8000000000001" cy="471.89" r="4" fill="darkorchid" /><circle cx="581.3000000000001" cy="475.36" r="4" fill="darkorchid" /><circle cx="588.8000000000001" cy="475.83" r="4" fill="darkorchid" /><circle cx="596.3000000000001" cy="472.68" r="4" fill="darkorchid" /><circle cx="603.8000000000001" cy="465.45" r="4" fill="darkorchid" /><circle cx="611.3000000000001" cy="453.85" r="4" fill="darkorchid" /><circle cx="618.8000000000001" cy="437.82" r="4" fill="darkorchid" /><circle cx="626.3000000000001" cy="417.47" r="4" fill="darkorchid" /><circle cx="633.8000000000001" cy="393.14" r="4" fill="darkorchid" /><circle cx="641.3000000000001" cy="365.36" r="4" fill="darkorchid" /><circle cx="648.8000000000001" cy="334.84000000000003" r="4" fill="darkorchid" /><circle cx="656.3000000000001" cy="302.41" r="4" fill="darkorchid" /></g><rect x="668.8000000000001" y="34" width="88" height="38" fill="#ffffff" /><rect x="668.8000000000001" y="34" width="88" height="38" fill="none" stroke="#000000" stroke-width="1" /><text x="698.8000000000001" y="53.2" font-size="12" text-anchor="start">signal</text><circle cx="683.8000000000001" cy="49" r="5" fill="darkorchid" /></svg>