<svg xmlns="http://www.w3.org/2000/svg" width="686.2" height="545" font-family="DejaVu Sans, Liberation Sans, Arial, sans-serif" fill="black"><rect width="100%" height="100%" fill="white" /><line x1="72.2" y1="494" x2="672.2" y2="494" stroke="#000000" stroke-width="1" /><line x1="72.2" y1="44" x2="72.2" y2="494" stroke="#000000" stroke-width="1" /><line x1="172.20000000000002" y1="44" x2="172.20000000000002" y2="494" stroke="#cccccc" stroke-width="1" /><line x1="272.2" y1="44" x2="272.2" y2="494" stroke="#cccccc" stroke-width="1" /><line x1="372.2" y1="44" x2="372.2" y2="494" stroke="#cccccc" stroke-width="1" /><line x1="472.2" y1="44" x2="472.2" y2="494" stroke="#cccccc" stroke-width="1" /><line x1="572.2" y1="44" x2="572.2" y2="494" stroke="#cccccc" stroke-width="1" /><line x1="672.2" y1="44" x2="672.2" y2="494" stroke="#cccccc" stroke-width="1" /><line x1="72.2" y1="419" x2="672.2" y2="419" stroke="#cccccc" stroke-width="1" /><line x1="72.2" y1="344" x2="672.2" y2="344" stroke="#cccccc" stroke-width="1" /><line x1="72.2" y1="269" x2="672.2" y2="269" stroke="#cccccc" stroke-width="1" /><line x1="72.2" y1="194" x2="672.2" y2="194" stroke="#cccccc" stroke-width="1" /><line x1="72.2" y1="119" x2="672.2" y2="119" stroke="#cccccc" stroke-width="1" /><line x1="72.2" y1="44" x2="672.2" y2="44" stroke="#cccccc" stroke-width="1" /><line x1="72.2" y1="494" x2="72.2" y2="499" stroke="#000000" stroke-width="1" /><text x="72.2" y="511" font-size="12" text-anchor="middle">0</text><line x1="172.20000000000002" y1="494" x2="172.20000000000002" y2="499" stroke="#000000" stroke-width="1" /><text x="172.20000000000002" y="511" font-size="12" text-anchor="middle">5</text><line x1="272.2" y1="494" x2="272.2" y2="499" stroke="#000000" stroke-width="1" /><text x="272.2" y="511" font-size="12" text-anchor="middle">10</text><line x1="372.2" y1="494" x2="372.2" y2="499" stroke="#000000" stroke-width="1" /><text x="372.2" y="511" font-size="12" text-anchor="middle">15</text><line x1="472.2" y1="494" x2="472.2" y2="499" stroke="#000000" stroke-width="1" /><text x="472.2" y="511" font-size="12" text-anchor="middle">20</text><line x1="572.2" y1="494" x2="572.2" y2="499" stroke="#000000" stroke-width="1" /><text x="572.2" y="511" font-size="12" text-anchor="middle">25</text><line x1="672.2" y1="494" x2="672.2" y2="499" stroke="#000000" stroke-width="1" /><text x="672.2" y="511" font-size="12" text-anchor="middle">30</text><line x1="67.2" y1="494" x2="72.2" y2="494" stroke="#000000" stroke-width="1" /><text x="64.2" y="498.2" font-size="12" text-anchor="end">-1.5</text><line x1="67.2" y1="419" x2="72.2" y2="419" stroke="#000000" stroke-width="1" /><text x="64.2" y="423.2" font-size="12" text-anchor="end">-1</text><line x1="67.2" y1="344" x2="72.2" y2="344" stroke="#000000" stroke-width="1" /><text x="64.2" y="348.2" font-size="12" text-anchor="end">-0.5</text><line x1="67.2" y1="269" x2="72.2" y2="269" stroke="#000000" stroke-width="1" /><text x="64.2" y="273.2" font-size="12" text-anchor="end">0</text><line x1="67.2" y1="194" x2="72.2" y2="194" stroke="#000000" stroke-width="1" /><text x="64.2" y="198.20000000000002" font-size="12" text-anchor="end">0.5</text><line x1="67.2" y1="119" x2="72.2" y2="119" stroke="#000000" stroke-width="1" /><text x="64.2" y="123.2" font-size="12" text-anchor="end">1</text><line x1="67.2" y1="44" x2="72.2" y2="44" stroke="#000000" stroke-width="1" /><text x="64.2" y="48.2" font-size="12" text-anchor="end">1.5</text><text x="372.2" y="538" font-size="14" text-anchor="middle">Sample</text><text x="7" y="272.5" font-size="14" text-anchor="middle" transform="rotate(-90,7,272.5)">Amplitude</text><text x="372.2" y="22" font-size="18" text-anchor="middle">SeriesStyle::Point</text><circle cx="72.2" cy="269" r="3" fill="#4682b4" /><circle cx="92.2" cy="237.81" r="3" fill="#4682b4" /><circle cx="112.2" cy="207.99" r="3" fill="#4682b4" /><circle cx="132.2" cy="180.83" r="3" fill="#4682b4" /><circle cx="152.20000000000002" cy="157.53" r="3" fill="#4682b4" /><circle cx="172.20000000000002" cy="139.1" r="3" fill="#4682b4" /><circle cx="192.20000000000002" cy="126.34" r="3" fill="#4682b4" /><circle cx="212.20000000000002" cy="119.82000000000001" r="3" fill="#4682b4" /><circle cx="232.20000000000002" cy="119.82000000000001" r="3" fill="#4682b4" /><circle cx="252.20000000000002" cy="126.34" r="3" fill="#4682b4" /><circle cx="272.2" cy="139.1" r="3" fill="#4682b4" /><circle cx="292.2" cy="157.53" r="3" fill="#4682b4" /><circle cx="312.2" cy="180.83" r="3" fill="#4682b4" /><circle cx="332.2" cy="207.99" r="3" fill="#4682b4" /><circle cx="352.2" cy="237.81" r="3" fill="#4682b4" /><circle cx="372.2" cy="269" r="3" fill="#4682b4" /><circle cx="392.2" cy="300.19" r="3" fill="#4682b4" /><circle cx="412.2" cy="330.01" r="3" fill="#4682b4" /><circle cx="432.2" cy="357.17" r="3" fill="#4682b4" /><circle cx="452.2" cy="380.47" r="3" fill="#4682b4" /><circle cx="472.2" cy="398.90000000000003" r="3" fill="#4682b4" /><circle cx="492.2" cy="411.66" r="3" fill="#4682b4" /><circle cx="512.2" cy="418.18" r="3" fill="#4682b4" /><circle cx="532.2" cy="418.18" r="3" fill="#4682b4" /><circle cx="552.2" cy="411.66" r="3" fill="#4682b4" /><circle cx="572.2" cy="398.90000000000003" r="3" fill="#4682b4" /><circle cx="592.2" cy="380.47" r="3" fill="#4682b4" /><circle cx="612.2" cy="357.17" r="3" fill="#4682b4" /><circle cx="632.2" cy="330.01" r="3" fill="#4682b4" /><circle cx="652.2" cy="300.19" r="3" fill="#4682b4" /></svg>