<svg xmlns="http://www.w3.org/2000/svg" width="681.8000000000001" height="545" font-family="DejaVu Sans, Liberation Sans, Arial, sans-serif" fill="black"><rect width="100%" height="100%" fill="white" /><defs><clipPath id="kuva-clip-3"><rect x="63.800000000000004" y="44" width="600" height="450"/></clipPath></defs><line x1="163.8" y1="44" x2="163.8" y2="494" stroke="#cccccc" stroke-width="1" /><line x1="263.8" y1="44" x2="263.8" y2="494" stroke="#cccccc" stroke-width="1" /><line x1="363.8" y1="44" x2="363.8" y2="494" stroke="#cccccc" stroke-width="1" /><line x1="463.8" y1="44" x2="463.8" y2="494" stroke="#cccccc" stroke-width="1" /><line x1="563.8000000000001" y1="44" x2="563.8000000000001" y2="494" stroke="#cccccc" stroke-width="1" /><line x1="663.8000000000001" y1="44" x2="663.8000000000001" y2="494" stroke="#cccccc" stroke-width="1" /><line x1="63.800000000000004" y1="419" x2="663.8000000000001" y2="419" stroke="#cccccc" stroke-width="1" /><line x1="63.800000000000004" y1="344" x2="663.8000000000001" y2="344" stroke="#cccccc" stroke-width="1" /><line x1="63.800000000000004" y1="269" x2="663.8000000000001" y2="269" stroke="#cccccc" stroke-width="1" /><line x1="63.800000000000004" y1="194" x2="663.8000000000001" y2="194" stroke="#cccccc" stroke-width="1" /><line x1="63.800000000000004" y1="119" x2="663.8000000000001" y2="119" stroke="#cccccc" stroke-width="1" /><line x1="63.800000000000004" y1="44" x2="663.8000000000001" y2="44" stroke="#cccccc" stroke-width="1" /><line x1="63.800000000000004" y1="494" x2="663.8000000000001" y2="494" stroke="#000000" stroke-width="1" /><line x1="63.800000000000004" y1="44" x2="63.800000000000004" y2="494" stroke="#000000" stroke-width="1" /><line x1="63.800000000000004" y1="494" x2="63.800000000000004" y2="499" stroke="#000000" stroke-width="1" /><text x="63.800000000000004" y="511" font-size="12" text-anchor="middle">0</text><line x1="163.8" y1="494" x2="163.8" y2="499" stroke="#000000" stroke-width="1" /><text x="163.8" y="511" font-size="12" text-anchor="middle">5</text><line x1="263.8" y1="494" x2="263.8" y2="499" stroke="#000000" stroke-width="1" /><text x="263.8" y="511" font-size="12" text-anchor="middle">10</text><line x1="363.8" y1="494" x2="363.8" y2="499" stroke="#000000" stroke-width="1" /><text x="363.8" y="511" font-size="12" text-anchor="middle">15</text><line x1="463.8" y1="494" x2="463.8" y2="499" stroke="#000000" stroke-width="1" /><text x="463.8" y="511" font-size="12" text-anchor="middle">20</text><line x1="563.8000000000001" y1="494" x2="563.8000000000001" y2="499" stroke="#000000" stroke-width="1" /><text x="563.8000000000001" y="511" font-size="12" text-anchor="middle">25</text><line x1="663.8000000000001" y1="494" x2="663.8000000000001" y2="499" stroke="#000000" stroke-width="1" /><text x="663.8000000000001" y="511" font-size="12" text-anchor="middle">30</text><line x1="58.800000000000004" y1="494" x2="63.800000000000004" y2="494" stroke="#000000" stroke-width="1" /><text x="55.800000000000004" y="498.2" font-size="12" text-anchor="end">-1.5</text><line x1="58.800000000000004" y1="419" x2="63.800000000000004" y2="419" stroke="#000000" stroke-width="1" /><text x="55.800000000000004" y="423.2" font-size="12" text-anchor="end">-1</text><line x1="58.800000000000004" y1="344" x2="63.800000000000004" y2="344" stroke="#000000" stroke-width="1" /><text x="55.800000000000004" y="348.2" font-size="12" text-anchor="end">-0.5</text><line x1="58.800000000000004" y1="269" x2="63.800000000000004" y2="269" stroke="#000000" stroke-width="1" /><text x="55.800000000000004" y="273.2" font-size="12" text-anchor="end">0</text><line x1="58.800000000000004" y1="194" x2="63.800000000000004" y2="194" stroke="#000000" stroke-width="1" /><text x="55.800000000000004" y="198.20000000000002" font-size="12" text-anchor="end">0.5</text><line x1="58.800000000000004" y1="119" x2="63.800000000000004" y2="119" stroke="#000000" stroke-width="1" /><text x="55.800000000000004" y="123.2" font-size="12" text-anchor="end">1</text><line x1="58.800000000000004" y1="44" x2="63.800000000000004" y2="44" stroke="#000000" stroke-width="1" /><text x="55.800000000000004" y="48.2" font-size="12" text-anchor="end">1.5</text><text x="363.8" y="538" font-size="14" text-anchor="middle">Sample</text><text x="15" y="272.5" font-size="14" text-anchor="middle" transform="rotate(-90,15,272.5)">Amplitude</text><text x="363.8" y="22" font-size="18" text-anchor="middle">SeriesStyle::Point</text><g clip-path="url(#kuva-clip-3)"><circle cx="63.800000000000004" cy="269" r="3" fill="#4682b4" /><circle cx="83.8" cy="237.81" r="3" fill="#4682b4" /><circle cx="103.8" cy="207.99" r="3" fill="#4682b4" /><circle cx="123.8" cy="180.83" r="3" fill="#4682b4" /><circle cx="143.8" cy="157.53" r="3" fill="#4682b4" /><circle cx="163.8" cy="139.1" r="3" fill="#4682b4" /><circle cx="183.8" cy="126.34" r="3" fill="#4682b4" /><circle cx="203.8" cy="119.82000000000001" r="3" fill="#4682b4" /><circle cx="223.8" cy="119.82000000000001" r="3" fill="#4682b4" /><circle cx="243.8" cy="126.34" r="3" fill="#4682b4" /><circle cx="263.8" cy="139.1" r="3" fill="#4682b4" /><circle cx="283.8" cy="157.53" r="3" fill="#4682b4" /><circle cx="303.8" cy="180.83" r="3" fill="#4682b4" /><circle cx="323.8" cy="207.99" r="3" fill="#4682b4" /><circle cx="343.8" cy="237.81" r="3" fill="#4682b4" /><circle cx="363.8" cy="269" r="3" fill="#4682b4" /><circle cx="383.8" cy="300.19" r="3" fill="#4682b4" /><circle cx="403.8" cy="330.01" r="3" fill="#4682b4" /><circle cx="423.8" cy="357.17" r="3" fill="#4682b4" /><circle cx="443.8" cy="380.47" r="3" fill="#4682b4" /><circle cx="463.8" cy="398.90000000000003" r="3" fill="#4682b4" /><circle cx="483.8" cy="411.66" r="3" fill="#4682b4" /><circle cx="503.8" cy="418.18" r="3" fill="#4682b4" /><circle cx="523.8" cy="418.18" r="3" fill="#4682b4" /><circle cx="543.8" cy="411.66" r="3" fill="#4682b4" /><circle cx="563.8000000000001" cy="398.90000000000003" r="3" fill="#4682b4" /><circle cx="583.8000000000001" cy="380.47" r="3" fill="#4682b4" /><circle cx="603.8000000000001" cy="357.17" r="3" fill="#4682b4" /><circle cx="623.8000000000001" cy="330.01" r="3" fill="#4682b4" /><circle cx="643.8000000000001" cy="300.19" r="3" fill="#4682b4" /></g></svg>