<svg xmlns="http://www.w3.org/2000/svg" width="767.8000000000001" height="545" font-family="DejaVu Sans, Liberation Sans, Arial, sans-serif" fill="black"><rect width="100%" height="100%" fill="white" /><text x="383.90000000000003" y="27.400000000000002" font-size="18" text-anchor="middle">Surface3D — Paraboloid</text><line x1="532.45" y1="353.33" x2="408.99" y2="460.25" stroke="#000000" stroke-width="1" /><line x1="408.99" y1="460.25" x2="195.15" y2="398.52" stroke="#000000" stroke-width="1" /><line x1="195.15" y1="398.52" x2="318.61" y2="291.6" stroke="#cccccc" stroke-width="0.5" /><line x1="318.61" y1="291.6" x2="532.45" y2="353.33" stroke="#cccccc" stroke-width="0.5" /><line x1="195.15" y1="184.67000000000002" x2="318.61" y2="77.75" stroke="#000000" stroke-width="1" /><line x1="318.61" y1="77.75" x2="532.45" y2="139.48" stroke="#000000" stroke-width="1" /><line x1="532.45" y1="353.33" x2="532.45" y2="139.48" stroke="#000000" stroke-width="1" /><line x1="195.15" y1="398.52" x2="195.15" y2="184.67000000000002" stroke="#000000" stroke-width="1" /><line x1="318.61" y1="291.6" x2="318.61" y2="77.75" stroke="#cccccc" stroke-width="0.5" /><path d="M 532.45 353.33 L 408.99 460.25 L 195.15 398.52 L 318.61 291.6 Z" stroke="none" stroke-width="0" fill="#cccccc" fill-opacity="0.15" /><path d="M 532.45 353.33 L 318.61 291.6 L 318.61 77.75 L 532.45 139.48 Z" stroke="none" stroke-width="0" fill="#cccccc" fill-opacity="0.15" /><path d="M 318.61 291.6 L 195.15 398.52 L 195.15 184.67000000000002 L 318.61 77.75 Z" stroke="none" stroke-width="0" fill="#cccccc" fill-opacity="0.15" /><line x1="532.45" y1="353.33" x2="408.99" y2="460.25" stroke="#cccccc" stroke-width="0.5" /><line x1="532.45" y1="353.33" x2="318.61" y2="291.6" stroke="#cccccc" stroke-width="0.5" /><line x1="532.45" y1="353.33" x2="532.45" y2="139.48" stroke="#cccccc" stroke-width="0.5" /><line x1="532.45" y1="353.33" x2="318.61" y2="291.6" stroke="#cccccc" stroke-width="0.5" /><line x1="318.61" y1="291.6" x2="318.61" y2="77.75" stroke="#cccccc" stroke-width="0.5" /><line x1="318.61" y1="291.6" x2="195.15" y2="398.52" stroke="#cccccc" stroke-width="0.5" /><line x1="489.69" y1="340.98" x2="366.22" y2="447.90000000000003" stroke="#cccccc" stroke-width="0.5" /><line x1="507.76" y1="374.71" x2="293.92" y2="312.98" stroke="#cccccc" stroke-width="0.5" /><line x1="489.69" y1="340.98" x2="489.69" y2="127.14" stroke="#cccccc" stroke-width="0.5" /><line x1="532.45" y1="310.56" x2="318.61" y2="248.83" stroke="#cccccc" stroke-width="0.5" /><line x1="293.92" y1="312.98" x2="293.92" y2="99.13" stroke="#cccccc" stroke-width="0.5" /><line x1="318.61" y1="248.83" x2="195.15" y2="355.75" stroke="#cccccc" stroke-width="0.5" /><line x1="446.92" y1="328.63" x2="323.45" y2="435.56" stroke="#cccccc" stroke-width="0.5" /><line x1="483.07" y1="396.1" x2="269.22" y2="334.36" stroke="#cccccc" stroke-width="0.5" /><line x1="446.92" y1="328.63" x2="446.92" y2="114.79" stroke="#cccccc" stroke-width="0.5" /><line x1="532.45" y1="267.79" x2="318.61" y2="206.06" stroke="#cccccc" stroke-width="0.5" /><line x1="269.22" y1="334.36" x2="269.22" y2="120.52" stroke="#cccccc" stroke-width="0.5" /><line x1="318.61" y1="206.06" x2="195.15" y2="312.98" stroke="#cccccc" stroke-width="0.5" /><line x1="404.15000000000003" y1="316.29" x2="280.68" y2="423.21000000000004" stroke="#cccccc" stroke-width="0.5" /><line x1="458.38" y1="417.48" x2="244.53" y2="355.75" stroke="#cccccc" stroke-width="0.5" /><line x1="404.15000000000003" y1="316.29" x2="404.15000000000003" y2="102.44" stroke="#cccccc" stroke-width="0.5" /><line x1="532.45" y1="225.02" x2="318.61" y2="163.29" stroke="#cccccc" stroke-width="0.5" /><line x1="244.53" y1="355.75" x2="244.53" y2="141.9" stroke="#cccccc" stroke-width="0.5" /><line x1="318.61" y1="163.29" x2="195.15" y2="270.21" stroke="#cccccc" stroke-width="0.5" /><line x1="361.38" y1="303.94" x2="237.91" y2="410.86" stroke="#cccccc" stroke-width="0.5" /><line x1="433.68" y1="438.87" x2="219.84" y2="377.13" stroke="#cccccc" stroke-width="0.5" /><line x1="361.38" y1="303.94" x2="361.38" y2="90.10000000000001" stroke="#cccccc" stroke-width="0.5" /><line x1="532.45" y1="182.25" x2="318.61" y2="120.52" stroke="#cccccc" stroke-width="0.5" /><line x1="219.84" y1="377.13" x2="219.84" y2="163.29" stroke="#cccccc" stroke-width="0.5" /><line x1="318.61" y1="120.52" x2="195.15" y2="227.44" stroke="#cccccc" stroke-width="0.5" /><line x1="318.61" y1="291.6" x2="195.15" y2="398.52" stroke="#cccccc" stroke-width="0.5" /><line x1="408.99" y1="460.25" x2="195.15" y2="398.52" stroke="#cccccc" stroke-width="0.5" /><line x1="318.61" y1="291.6" x2="318.61" y2="77.75" stroke="#cccccc" stroke-width="0.5" /><line x1="532.45" y1="139.48" x2="318.61" y2="77.75" stroke="#cccccc" stroke-width="0.5" /><line x1="195.15" y1="398.52" x2="195.15" y2="184.67000000000002" stroke="#cccccc" stroke-width="0.5" /><line x1="318.61" y1="77.75" x2="195.15" y2="184.67000000000002" stroke="#cccccc" stroke-width="0.5" /><line x1="408.99" y1="460.25" x2="414.76" y2="461.91" stroke="#000000" stroke-width="0.8" /><text x="424.36" y="467.69" font-size="10" text-anchor="middle" transform="rotate(-40.89,424.36,467.69)">0</text><line x1="434.71000000000004" y1="437.97" x2="440.48" y2="439.64" stroke="#000000" stroke-width="0.8" /><text x="450.08" y="445.41" font-size="10" text-anchor="middle" transform="rotate(-40.89,450.08,445.41)">5</text><line x1="460.43" y1="415.7" x2="466.2" y2="417.36" stroke="#000000" stroke-width="0.8" /><text x="475.81" y="423.14" font-size="10" text-anchor="middle" transform="rotate(-40.89,475.81,423.14)">10</text><line x1="486.16" y1="393.42" x2="491.92" y2="395.09000000000003" stroke="#000000" stroke-width="0.8" /><text x="501.53000000000003" y="400.86" font-size="10" text-anchor="middle" transform="rotate(-40.89,501.53000000000003,400.86)">15</text><line x1="511.88" y1="371.15000000000003" x2="517.64" y2="372.81" stroke="#000000" stroke-width="0.8" /><text x="527.25" y="378.59000000000003" font-size="10" text-anchor="middle" transform="rotate(-40.89,527.25,378.59000000000003)">20</text><text x="511.08" y="422.44" font-size="12" text-anchor="middle" font-weight="bold" transform="rotate(-40.89,511.08,422.44)">X</text><line x1="195.15" y1="398.52" x2="190.61" y2="402.45" stroke="#000000" stroke-width="0.8" /><text x="183.05" y="411.99" font-size="10" text-anchor="middle" transform="rotate(16.1,183.05,411.99)">0</text><line x1="239.70000000000002" y1="411.38" x2="235.16" y2="415.31" stroke="#000000" stroke-width="0.8" /><text x="227.6" y="424.85" font-size="10" text-anchor="middle" transform="rotate(16.1,227.6,424.85)">5</text><line x1="284.25" y1="424.24" x2="279.71" y2="428.17" stroke="#000000" stroke-width="0.8" /><text x="272.15" y="437.71000000000004" font-size="10" text-anchor="middle" transform="rotate(16.1,272.15,437.71000000000004)">10</text><line x1="328.8" y1="437.1" x2="324.26" y2="441.03000000000003" stroke="#000000" stroke-width="0.8" /><text x="316.7" y="450.58" font-size="10" text-anchor="middle" transform="rotate(16.1,316.7,450.58)">15</text><line x1="373.35" y1="449.96000000000004" x2="368.81" y2="453.89" stroke="#000000" stroke-width="0.8" /><text x="361.26" y="463.44" font-size="10" text-anchor="middle" transform="rotate(16.1,361.26,463.44)">20</text><text x="270.32" y="460.88" font-size="12" text-anchor="middle" font-weight="bold" transform="rotate(16.1,270.32,460.88)">Y</text><line x1="532.45" y1="300.12" x2="538.4" y2="299.33" stroke="#000000" stroke-width="0.8" /><text x="548.3100000000001" y="301" font-size="10" text-anchor="start" transform="rotate(-90,548.3100000000001,301)">2</text><line x1="532.45" y1="246.58" x2="538.4" y2="245.78" stroke="#000000" stroke-width="0.8" /><text x="548.3100000000001" y="247.45000000000002" font-size="10" text-anchor="start" transform="rotate(-90,548.3100000000001,247.45000000000002)">4</text><line x1="532.45" y1="193.03" x2="538.4" y2="192.23000000000002" stroke="#000000" stroke-width="0.8" /><text x="548.3100000000001" y="193.9" font-size="10" text-anchor="start" transform="rotate(-90,548.3100000000001,193.9)">6</text><line x1="532.45" y1="139.48" x2="538.4" y2="138.69" stroke="#000000" stroke-width="0.8" /><text x="548.3100000000001" y="140.36" font-size="10" text-anchor="start" transform="rotate(-90,548.3100000000001,140.36)">8</text><text x="580.03" y="244.03" font-size="12" text-anchor="middle" font-weight="bold" transform="rotate(-90,580.03,244.03)">Z</text><path d="M 361.78000000000003 225.47 L 366.93 207.3 L 375.84000000000003 218.1 L 370.69 236.26 Z" stroke="#333333" stroke-width="0.5" fill="#26818e" /><path d="M 370.69 236.26 L 375.84000000000003 218.1 L 384.75 227.53 L 379.6 245.69 Z" stroke="#333333" stroke-width="0.5" fill="#29788e" /><path d="M 356.64 242.26 L 361.78000000000003 225.47 L 370.69 236.26 L 365.55 253.05 Z" stroke="#333333" stroke-width="0.5" fill="#2c718e" /><path d="M 365.55 253.05 L 370.69 236.26 L 379.6 245.69 L 374.46 262.48 Z" stroke="#333333" stroke-width="0.5" fill="#2f698e" /><path d="M 366.93 207.3 L 372.07 187.77 L 380.98 198.57 L 375.84000000000003 218.1 Z" stroke="#333333" stroke-width="0.5" fill="#20918c" /><path d="M 352.87 213.3 L 358.02 195.13 L 366.93 207.3 L 361.78000000000003 225.47 Z" stroke="#333333" stroke-width="0.5" fill="#228a8d" /><path d="M 375.84000000000003 218.1 L 380.98 198.57 L 389.89 207.99 L 384.75 227.53 Z" stroke="#333333" stroke-width="0.5" fill="#23888d" /><path d="M 347.73 230.09 L 352.87 213.3 L 361.78000000000003 225.47 L 356.64 242.26 Z" stroke="#333333" stroke-width="0.5" fill="#287c8e" /><path d="M 379.6 245.69 L 384.75 227.53 L 393.66 235.58 L 388.51 253.74 Z" stroke="#333333" stroke-width="0.5" fill="#2c718e" /><path d="M 351.49 257.68 L 356.64 242.26 L 365.55 253.05 L 360.40000000000003 268.48 Z" stroke="#333333" stroke-width="0.5" fill="#31648d" /><path d="M 374.46 262.48 L 379.6 245.69 L 388.51 253.74 L 383.37 270.54 Z" stroke="#333333" stroke-width="0.5" fill="#33628d" /><path d="M 358.02 195.13 L 363.16 175.6 L 372.07 187.77 L 366.93 207.3 Z" stroke="#333333" stroke-width="0.5" fill="#1e9a89" /><path d="M 360.40000000000003 268.48 L 365.55 253.05 L 374.46 262.48 L 369.31 277.90000000000003 Z" stroke="#333333" stroke-width="0.5" fill="#365b8c" /><path d="M 384.75 227.53 L 389.89 207.99 L 398.8 216.05 L 393.66 235.58 Z" stroke="#333333" stroke-width="0.5" fill="#26818e" /><path d="M 342.58 245.51 L 347.73 230.09 L 356.64 242.26 L 351.49 257.68 Z" stroke="#333333" stroke-width="0.5" fill="#2d6f8e" /><path d="M 343.96 199.76 L 349.11 181.6 L 358.02 195.13 L 352.87 213.3 Z" stroke="#333333" stroke-width="0.5" fill="#1f968a" /><path d="M 369.31 277.90000000000003 L 374.46 262.48 L 383.37 270.54 L 378.22 285.96 Z" stroke="#333333" stroke-width="0.5" fill="#3a538b" /><path d="M 338.82 216.55 L 343.96 199.76 L 352.87 213.3 L 347.73 230.09 Z" stroke="#333333" stroke-width="0.5" fill="#23878e" /><path d="M 388.51 253.74 L 393.66 235.58 L 402.57 242.27 L 397.42 260.43 Z" stroke="#333333" stroke-width="0.5" fill="#2e6c8e" /><path d="M 349.11 181.6 L 354.25 162.06 L 363.16 175.6 L 358.02 195.13 Z" stroke="#333333" stroke-width="0.5" fill="#21a684" /><path d="M 383.37 270.54 L 388.51 253.74 L 397.42 260.43 L 392.28000000000003 277.22 Z" stroke="#333333" stroke-width="0.5" fill="#355c8d" /><path d="M 346.35 271.73 L 351.49 257.68 L 360.40000000000003 268.48 L 355.26 282.53000000000003 Z" stroke="#333333" stroke-width="0.5" fill="#38588c" /><path d="M 355.26 282.53000000000003 L 360.40000000000003 268.48 L 369.31 277.90000000000003 L 364.17 291.95 Z" stroke="#333333" stroke-width="0.5" fill="#3c4e8a" /><path d="M 393.66 235.58 L 398.8 216.05 L 407.71000000000004 222.73000000000002 L 402.57 242.27 Z" stroke="#333333" stroke-width="0.5" fill="#287c8e" /><path d="M 333.67 231.97 L 338.82 216.55 L 347.73 230.09 L 342.58 245.51 Z" stroke="#333333" stroke-width="0.5" fill="#287a8e" /><path d="M 337.44 259.56 L 342.58 245.51 L 351.49 257.68 L 346.35 271.73 Z" stroke="#333333" stroke-width="0.5" fill="#32638d" /><path d="M 378.22 285.96 L 383.37 270.54 L 392.28000000000003 277.22 L 387.13 292.64 Z" stroke="#333333" stroke-width="0.5" fill="#3c4d8a" /><path d="M 364.17 291.95 L 369.31 277.90000000000003 L 378.22 285.96 L 373.08 300.01 Z" stroke="#333333" stroke-width="0.5" fill="#3f4688" /><path d="M 335.05 184.85 L 340.2 166.69 L 349.11 181.6 L 343.96 199.76 Z" stroke="#333333" stroke-width="0.5" fill="#1fa286" /><path d="M 329.91 201.64000000000001 L 335.05 184.85 L 343.96 199.76 L 338.82 216.55 Z" stroke="#333333" stroke-width="0.5" fill="#1f948b" /><path d="M 340.2 166.69 L 345.34000000000003 147.15 L 354.25 162.06 L 349.11 181.6 Z" stroke="#333333" stroke-width="0.5" fill="#2eb37c" /><path d="M 328.53000000000003 246.02 L 333.67 231.97 L 342.58 245.51 L 337.44 259.56 Z" stroke="#333333" stroke-width="0.5" fill="#2d6f8e" /><path d="M 397.42 260.43 L 402.57 242.27 L 411.48 247.58 L 406.33 265.74 Z" stroke="#333333" stroke-width="0.5" fill="#30688e" /><path d="M 392.28000000000003 277.22 L 397.42 260.43 L 406.33 265.74 L 401.19 282.53000000000003 Z" stroke="#333333" stroke-width="0.5" fill="#38588c" /><path d="M 341.2 284.41 L 346.35 271.73 L 355.26 282.53000000000003 L 350.11 295.21 Z" stroke="#333333" stroke-width="0.5" fill="#3d4c89" /><path d="M 324.76 217.06 L 329.91 201.64000000000001 L 338.82 216.55 L 333.67 231.97 Z" stroke="#333333" stroke-width="0.5" fill="#23878e" /><path d="M 350.11 295.21 L 355.26 282.53000000000003 L 364.17 291.95 L 359.03000000000003 304.63 Z" stroke="#333333" stroke-width="0.5" fill="#414186" /><path d="M 373.08 300.01 L 378.22 285.96 L 387.13 292.64 L 381.99 306.69 Z" stroke="#333333" stroke-width="0.5" fill="#423f85" /><path d="M 402.57 242.27 L 407.71000000000004 222.73000000000002 L 416.62 228.05 L 411.48 247.58 Z" stroke="#333333" stroke-width="0.5" fill="#29788e" /><path d="M 332.29 272.24 L 337.44 259.56 L 346.35 271.73 L 341.2 284.41 Z" stroke="#333333" stroke-width="0.5" fill="#38588c" /><path d="M 387.13 292.64 L 392.28000000000003 277.22 L 401.19 282.53000000000003 L 396.04 297.96 Z" stroke="#333333" stroke-width="0.5" fill="#3e4888" /><path d="M 359.03000000000003 304.63 L 364.17 291.95 L 373.08 300.01 L 367.94 312.69 Z" stroke="#333333" stroke-width="0.5" fill="#443983" /><path d="M 319.62 231.11 L 324.76 217.06 L 333.67 231.97 L 328.53000000000003 246.02 Z" stroke="#333333" stroke-width="0.5" fill="#287c8e" /><path d="M 326.14 168.57 L 331.29 150.41 L 340.2 166.69 L 335.05 184.85 Z" stroke="#333333" stroke-width="0.5" fill="#2cb17d" /><path d="M 321.0 185.36 L 326.14 168.57 L 335.05 184.85 L 329.91 201.64000000000001 Z" stroke="#333333" stroke-width="0.5" fill="#1fa286" /><path d="M 323.38 258.7 L 328.53000000000003 246.02 L 337.44 259.56 L 332.29 272.24 Z" stroke="#333333" stroke-width="0.5" fill="#31648d" /><path d="M 331.29 150.41 L 336.43 130.87 L 345.34000000000003 147.15 L 340.2 166.69 Z" stroke="#333333" stroke-width="0.5" fill="#47c06e" /><path d="M 381.99 306.69 L 387.13 292.64 L 396.04 297.96 L 390.90000000000003 312.01 Z" stroke="#333333" stroke-width="0.5" fill="#433a83" /><path d="M 367.94 312.69 L 373.08 300.01 L 381.99 306.69 L 376.85 319.37 Z" stroke="#333333" stroke-width="0.5" fill="#45327e" /><path d="M 406.33 265.74 L 411.48 247.58 L 420.39 251.52 L 415.24 269.69 Z" stroke="#333333" stroke-width="0.5" fill="#31658e" /><path d="M 401.19 282.53000000000003 L 406.33 265.74 L 415.24 269.69 L 410.1 286.48 Z" stroke="#333333" stroke-width="0.5" fill="#39558b" /><path d="M 315.85 200.78 L 321.0 185.36 L 329.91 201.64000000000001 L 324.76 217.06 Z" stroke="#333333" stroke-width="0.5" fill="#1f968a" /><path d="M 336.06 295.72 L 341.2 284.41 L 350.11 295.21 L 344.97 306.52 Z" stroke="#333333" stroke-width="0.5" fill="#414186" /><path d="M 344.97 306.52 L 350.11 295.21 L 359.03000000000003 304.63 L 353.88 315.94 Z" stroke="#333333" stroke-width="0.5" fill="#443781" /><path d="M 411.48 247.58 L 416.62 228.05 L 425.53000000000003 231.99 L 420.39 251.52 Z" stroke="#333333" stroke-width="0.5" fill="#2a758e" /><path d="M 327.15000000000003 283.55 L 332.29 272.24 L 341.2 284.41 L 336.06 295.72 Z" stroke="#333333" stroke-width="0.5" fill="#3c4e8a" /><path d="M 396.04 297.96 L 401.19 282.53000000000003 L 410.1 286.48 L 404.95 301.90000000000003 Z" stroke="#333333" stroke-width="0.5" fill="#3f4688" /><path d="M 353.88 315.94 L 359.03000000000003 304.63 L 367.94 312.69 L 362.79 324.0 Z" stroke="#333333" stroke-width="0.5" fill="#462e7c" /><path d="M 314.47 243.79 L 319.62 231.11 L 328.53000000000003 246.02 L 323.38 258.7 Z" stroke="#333333" stroke-width="0.5" fill="#2c718e" /><path d="M 310.71 214.83 L 315.85 200.78 L 324.76 217.06 L 319.62 231.11 Z" stroke="#333333" stroke-width="0.5" fill="#228a8d" /><path d="M 376.85 319.37 L 381.99 306.69 L 390.90000000000003 312.01 L 385.76 324.69 Z" stroke="#333333" stroke-width="0.5" fill="#462d7b" /><path d="M 318.24 270.01 L 323.38 258.7 L 332.29 272.24 L 327.15000000000003 283.55 Z" stroke="#333333" stroke-width="0.5" fill="#365b8c" /><path d="M 317.23 150.92000000000002 L 322.38 132.76 L 331.29 150.41 L 326.14 168.57 Z" stroke="#333333" stroke-width="0.5" fill="#47c06e" /><path d="M 390.90000000000003 312.01 L 396.04 297.96 L 404.95 301.90000000000003 L 399.81 315.95 Z" stroke="#333333" stroke-width="0.5" fill="#443781" /><path d="M 312.09000000000003 167.71 L 317.23 150.92000000000002 L 326.14 168.57 L 321.0 185.36 Z" stroke="#333333" stroke-width="0.5" fill="#2eb37c" /><path d="M 362.79 324.0 L 367.94 312.69 L 376.85 319.37 L 371.7 330.68 Z" stroke="#333333" stroke-width="0.5" fill="#482777" /><path d="M 322.38 132.76 L 327.52 113.22 L 336.43 130.87 L 331.29 150.41 Z" stroke="#333333" stroke-width="0.5" fill="#6bcd5a" /><path d="M 415.24 269.69 L 420.39 251.52 L 429.3 254.09 L 424.15000000000003 272.26 Z" stroke="#333333" stroke-width="0.5" fill="#31648d" /><path d="M 306.94 183.13 L 312.09000000000003 167.71 L 321.0 185.36 L 315.85 200.78 Z" stroke="#333333" stroke-width="0.5" fill="#21a684" /><path d="M 410.1 286.48 L 415.24 269.69 L 424.15000000000003 272.26 L 419.01 289.05 Z" stroke="#333333" stroke-width="0.5" fill="#39548b" /><path d="M 305.56 227.51 L 310.71 214.83 L 319.62 231.11 L 314.47 243.79 Z" stroke="#333333" stroke-width="0.5" fill="#26818e" /><path d="M 330.92 305.66 L 336.06 295.72 L 344.97 306.52 L 339.83 316.45 Z" stroke="#333333" stroke-width="0.5" fill="#443983" /><path d="M 420.39 251.52 L 425.53000000000003 231.99 L 434.44 234.56 L 429.3 254.09 Z" stroke="#333333" stroke-width="0.5" fill="#2a748e" /><path d="M 339.83 316.45 L 344.97 306.52 L 353.88 315.94 L 348.74 325.88 Z" stroke="#333333" stroke-width="0.5" fill="#462e7c" /><path d="M 309.33 255.1 L 314.47 243.79 L 323.38 258.7 L 318.24 270.01 Z" stroke="#333333" stroke-width="0.5" fill="#2f698e" /><path d="M 404.95 301.90000000000003 L 410.1 286.48 L 419.01 289.05 L 413.86 304.47 Z" stroke="#333333" stroke-width="0.5" fill="#404587" /><path d="M 322.01 293.49 L 327.15000000000003 283.55 L 336.06 295.72 L 330.92 305.66 Z" stroke="#333333" stroke-width="0.5" fill="#3f4688" /><path d="M 385.76 324.69 L 390.90000000000003 312.01 L 399.81 315.95 L 394.67 328.63 Z" stroke="#333333" stroke-width="0.5" fill="#472a79" /><path d="M 348.74 325.88 L 353.88 315.94 L 362.79 324.0 L 357.65000000000003 333.94 Z" stroke="#333333" stroke-width="0.5" fill="#482576" /><path d="M 371.7 330.68 L 376.85 319.37 L 385.76 324.69 L 380.61 336.0 Z" stroke="#333333" stroke-width="0.5" fill="#482273" /><path d="M 301.8 197.18 L 306.94 183.13 L 315.85 200.78 L 310.71 214.83 Z" stroke="#333333" stroke-width="0.5" fill="#1e9a89" /><path d="M 313.1 279.95 L 318.24 270.01 L 327.15000000000003 283.55 L 322.01 293.49 Z" stroke="#333333" stroke-width="0.5" fill="#3a538b" /><path d="M 399.81 315.95 L 404.95 301.90000000000003 L 413.86 304.47 L 408.72 318.52 Z" stroke="#333333" stroke-width="0.5" fill="#443681" /><path d="M 357.65000000000003 333.94 L 362.79 324.0 L 371.7 330.68 L 366.56 340.62 Z" stroke="#333333" stroke-width="0.5" fill="#481d6f" /><path d="M 308.32 131.9 L 313.46 113.73 L 322.38 132.76 L 317.23 150.92000000000002 Z" stroke="#333333" stroke-width="0.5" fill="#6ece57" /><path d="M 303.18 148.69 L 308.32 131.9 L 317.23 150.92000000000002 L 312.09000000000003 167.71 Z" stroke="#333333" stroke-width="0.5" fill="#4dc26b" /><path d="M 300.42 238.82 L 305.56 227.51 L 314.47 243.79 L 309.33 255.1 Z" stroke="#333333" stroke-width="0.5" fill="#29788e" /><path d="M 313.46 113.73 L 318.61 94.2 L 327.52 113.22 L 322.38 132.76 Z" stroke="#333333" stroke-width="0.5" fill="#99d83c" /><path d="M 296.65000000000003 209.86 L 301.8 197.18 L 310.71 214.83 L 305.56 227.51 Z" stroke="#333333" stroke-width="0.5" fill="#20918c" /><path d="M 298.03000000000003 164.11 L 303.18 148.69 L 312.09000000000003 167.71 L 306.94 183.13 Z" stroke="#333333" stroke-width="0.5" fill="#35b778" /><path d="M 380.61 336.0 L 385.76 324.69 L 394.67 328.63 L 389.52 339.94 Z" stroke="#333333" stroke-width="0.5" fill="#481f70" /><path d="M 424.15000000000003 272.26 L 429.3 254.09 L 438.21000000000004 255.3 L 433.06 273.46 Z" stroke="#333333" stroke-width="0.5" fill="#31658e" /><path d="M 304.19 265.04 L 309.33 255.1 L 318.24 270.01 L 313.1 279.95 Z" stroke="#333333" stroke-width="0.5" fill="#33628d" /><path d="M 419.01 289.05 L 424.15000000000003 272.26 L 433.06 273.46 L 427.92 290.25 Z" stroke="#333333" stroke-width="0.5" fill="#39558b" /><path d="M 429.3 254.09 L 434.44 234.56 L 443.35 235.76 L 438.21000000000004 255.3 Z" stroke="#333333" stroke-width="0.5" fill="#2a758e" /><path d="M 325.77 314.23 L 330.92 305.66 L 339.83 316.45 L 334.68 325.02 Z" stroke="#333333" stroke-width="0.5" fill="#45327e" /><path d="M 394.67 328.63 L 399.81 315.95 L 408.72 318.52 L 403.58 331.2 Z" stroke="#333333" stroke-width="0.5" fill="#472979" /><path d="M 334.68 325.02 L 339.83 316.45 L 348.74 325.88 L 343.59000000000003 334.45 Z" stroke="#333333" stroke-width="0.5" fill="#482777" /><path d="M 366.56 340.62 L 371.7 330.68 L 380.61 336.0 L 375.47 345.93 Z" stroke="#333333" stroke-width="0.5" fill="#48186a" /><path d="M 413.86 304.47 L 419.01 289.05 L 427.92 290.25 L 422.78000000000003 305.67 Z" stroke="#333333" stroke-width="0.5" fill="#3f4688" /><path d="M 316.86 302.06 L 322.01 293.49 L 330.92 305.66 L 325.77 314.23 Z" stroke="#333333" stroke-width="0.5" fill="#423f85" /><path d="M 292.89 178.16 L 298.03000000000003 164.11 L 306.94 183.13 L 301.8 197.18 Z" stroke="#333333" stroke-width="0.5" fill="#25ac81" /><path d="M 343.59000000000003 334.45 L 348.74 325.88 L 357.65000000000003 333.94 L 352.5 342.5 Z" stroke="#333333" stroke-width="0.5" fill="#481d6f" /><path d="M 307.95 288.52 L 313.1 279.95 L 322.01 293.49 L 316.86 302.06 Z" stroke="#333333" stroke-width="0.5" fill="#3c4d8a" /><path d="M 291.51 221.17000000000002 L 296.65000000000003 209.86 L 305.56 227.51 L 300.42 238.82 Z" stroke="#333333" stroke-width="0.5" fill="#23888d" /><path d="M 408.72 318.52 L 413.86 304.47 L 422.78000000000003 305.67 L 417.63 319.72 Z" stroke="#333333" stroke-width="0.5" fill="#443781" /><path d="M 295.28000000000003 248.76000000000002 L 300.42 238.82 L 309.33 255.1 L 304.19 265.04 Z" stroke="#333333" stroke-width="0.5" fill="#2c718e" /><path d="M 352.5 342.5 L 357.65000000000003 333.94 L 366.56 340.62 L 361.41 349.19 Z" stroke="#333333" stroke-width="0.5" fill="#481668" /><path d="M 389.52 339.94 L 394.67 328.63 L 403.58 331.2 L 398.43 342.51 Z" stroke="#333333" stroke-width="0.5" fill="#481d6f" /><path d="M 375.47 345.93 L 380.61 336.0 L 389.52 339.94 L 384.38 349.88 Z" stroke="#333333" stroke-width="0.5" fill="#471567" /><path d="M 287.74 190.84 L 292.89 178.16 L 301.8 197.18 L 296.65000000000003 209.86 Z" stroke="#333333" stroke-width="0.5" fill="#1fa286" /><path d="M 299.04 273.61 L 304.19 265.04 L 313.1 279.95 L 307.95 288.52 Z" stroke="#333333" stroke-width="0.5" fill="#355c8d" /><path d="M 403.58 331.2 L 408.72 318.52 L 417.63 319.72 L 412.49 332.40000000000003 Z" stroke="#333333" stroke-width="0.5" fill="#472a79" /><path d="M 433.06 273.46 L 438.21000000000004 255.3 L 447.12 255.13 L 441.97 273.29 Z" stroke="#333333" stroke-width="0.5" fill="#30688e" /><path d="M 361.41 349.19 L 366.56 340.62 L 375.47 345.93 L 370.32 354.5 Z" stroke="#333333" stroke-width="0.5" fill="#471063" /><path d="M 427.92 290.25 L 433.06 273.46 L 441.97 273.29 L 436.83 290.08 Z" stroke="#333333" stroke-width="0.5" fill="#38588c" /><path d="M 438.21000000000004 255.3 L 443.35 235.76 L 452.26 235.59 L 447.12 255.13 Z" stroke="#333333" stroke-width="0.5" fill="#29788e" /><path d="M 320.63 321.42 L 325.77 314.23 L 334.68 325.02 L 329.54 332.22 Z" stroke="#333333" stroke-width="0.5" fill="#462d7b" /><path d="M 329.54 332.22 L 334.68 325.02 L 343.59000000000003 334.45 L 338.45 341.65000000000003 Z" stroke="#333333" stroke-width="0.5" fill="#482273" /><path d="M 422.78000000000003 305.67 L 427.92 290.25 L 436.83 290.08 L 431.69 305.5 Z" stroke="#333333" stroke-width="0.5" fill="#3e4888" /><path d="M 286.36 231.11 L 291.51 221.17000000000002 L 300.42 238.82 L 295.28000000000003 248.76000000000002 Z" stroke="#333333" stroke-width="0.5" fill="#26818e" /><path d="M 311.72 309.25 L 316.86 302.06 L 325.77 314.23 L 320.63 321.42 Z" stroke="#333333" stroke-width="0.5" fill="#433a83" /><path d="M 338.45 341.65000000000003 L 343.59000000000003 334.45 L 352.5 342.5 L 347.36 349.7 Z" stroke="#333333" stroke-width="0.5" fill="#48186a" /><path d="M 282.6 202.15 L 287.74 190.84 L 296.65000000000003 209.86 L 291.51 221.17000000000002 Z" stroke="#333333" stroke-width="0.5" fill="#1e9a89" /><path d="M 290.13 257.33 L 295.28000000000003 248.76000000000002 L 304.19 265.04 L 299.04 273.61 Z" stroke="#333333" stroke-width="0.5" fill="#2e6c8e" /><path d="M 384.38 349.88 L 389.52 339.94 L 398.43 342.51 L 393.29 352.45 Z" stroke="#333333" stroke-width="0.5" fill="#471466" /><path d="M 302.81 295.72 L 307.95 288.52 L 316.86 302.06 L 311.72 309.25 Z" stroke="#333333" stroke-width="0.5" fill="#3e4888" /><path d="M 417.63 319.72 L 422.78000000000003 305.67 L 431.69 305.5 L 426.54 319.55 Z" stroke="#333333" stroke-width="0.5" fill="#433a83" /><path d="M 398.43 342.51 L 403.58 331.2 L 412.49 332.40000000000003 L 407.34000000000003 343.71 Z" stroke="#333333" stroke-width="0.5" fill="#481f70" /><path d="M 347.36 349.7 L 352.5 342.5 L 361.41 349.19 L 356.27 356.38 Z" stroke="#333333" stroke-width="0.5" fill="#471063" /><path d="M 370.32 354.5 L 375.47 345.93 L 384.38 349.88 L 379.23 358.44 Z" stroke="#333333" stroke-width="0.5" fill="#460d60" /><path d="M 293.90000000000003 280.81 L 299.04 273.61 L 307.95 288.52 L 302.81 295.72 Z" stroke="#333333" stroke-width="0.5" fill="#38588c" /><path d="M 412.49 332.40000000000003 L 417.63 319.72 L 426.54 319.55 L 421.40000000000003 332.23 Z" stroke="#333333" stroke-width="0.5" fill="#462d7b" /><path d="M 356.27 356.38 L 361.41 349.19 L 370.32 354.5 L 365.18 361.7 Z" stroke="#333333" stroke-width="0.5" fill="#460a5d" /><path d="M 277.45 212.09 L 282.6 202.15 L 291.51 221.17000000000002 L 286.36 231.11 Z" stroke="#333333" stroke-width="0.5" fill="#1f928c" /><path d="M 281.22 239.68 L 286.36 231.11 L 295.28000000000003 248.76000000000002 L 290.13 257.33 Z" stroke="#333333" stroke-width="0.5" fill="#287c8e" /><path d="M 441.97 273.29 L 447.12 255.13 L 456.03000000000003 253.59 L 450.88 271.75 Z" stroke="#333333" stroke-width="0.5" fill="#2e6c8e" /><path d="M 436.83 290.08 L 441.97 273.29 L 450.88 271.75 L 445.74 288.54 Z" stroke="#333333" stroke-width="0.5" fill="#355c8d" /><path d="M 447.12 255.13 L 452.26 235.59 L 461.17 234.05 L 456.03000000000003 253.59 Z" stroke="#333333" stroke-width="0.5" fill="#287c8e" /><path d="M 315.48 327.25 L 320.63 321.42 L 329.54 332.22 L 324.39 338.04 Z" stroke="#333333" stroke-width="0.5" fill="#472a79" /><path d="M 324.39 338.04 L 329.54 332.22 L 338.45 341.65000000000003 L 333.3 347.47 Z" stroke="#333333" stroke-width="0.5" fill="#481f70" /><path d="M 393.29 352.45 L 398.43 342.51 L 407.34000000000003 343.71 L 402.2 353.65000000000003 Z" stroke="#333333" stroke-width="0.5" fill="#471567" /><path d="M 379.23 358.44 L 384.38 349.88 L 393.29 352.45 L 388.14 361.02 Z" stroke="#333333" stroke-width="0.5" fill="#460b5e" /><path d="M 431.69 305.5 L 436.83 290.08 L 445.74 288.54 L 440.6 303.96 Z" stroke="#333333" stroke-width="0.5" fill="#3c4d8a" /><path d="M 306.57 315.08 L 311.72 309.25 L 320.63 321.42 L 315.48 327.25 Z" stroke="#333333" stroke-width="0.5" fill="#443781" /><path d="M 284.99 264.53000000000003 L 290.13 257.33 L 299.04 273.61 L 293.90000000000003 280.81 Z" stroke="#333333" stroke-width="0.5" fill="#30688e" /><path d="M 333.3 347.47 L 338.45 341.65000000000003 L 347.36 349.7 L 342.21 355.53000000000003 Z" stroke="#333333" stroke-width="0.5" fill="#471567" /><path d="M 407.34000000000003 343.71 L 412.49 332.40000000000003 L 421.40000000000003 332.23 L 416.25 343.54 Z" stroke="#333333" stroke-width="0.5" fill="#482273" /><path d="M 365.18 361.7 L 370.32 354.5 L 379.23 358.44 L 374.09000000000003 365.64 Z" stroke="#333333" stroke-width="0.5" fill="#45065a" /><path d="M 426.54 319.55 L 431.69 305.5 L 440.6 303.96 L 435.45 318.01 Z" stroke="#333333" stroke-width="0.5" fill="#423f85" /><path d="M 297.66 301.54 L 302.81 295.72 L 311.72 309.25 L 306.57 315.08 Z" stroke="#333333" stroke-width="0.5" fill="#3f4688" /><path d="M 342.21 355.53000000000003 L 347.36 349.7 L 356.27 356.38 L 351.12 362.21 Z" stroke="#333333" stroke-width="0.5" fill="#460d60" /><path d="M 272.31 220.66 L 277.45 212.09 L 286.36 231.11 L 281.22 239.68 Z" stroke="#333333" stroke-width="0.5" fill="#218e8d" /><path d="M 288.75 286.63 L 293.90000000000003 280.81 L 302.81 295.72 L 297.66 301.54 Z" stroke="#333333" stroke-width="0.5" fill="#39558b" /><path d="M 421.40000000000003 332.23 L 426.54 319.55 L 435.45 318.01 L 430.31 330.69 Z" stroke="#333333" stroke-width="0.5" fill="#45327e" /><path d="M 276.08 246.87 L 281.22 239.68 L 290.13 257.33 L 284.99 264.53000000000003 Z" stroke="#333333" stroke-width="0.5" fill="#29788e" /><path d="M 388.14 361.02 L 393.29 352.45 L 402.2 353.65000000000003 L 397.05 362.22 Z" stroke="#333333" stroke-width="0.5" fill="#460d60" /><path d="M 351.12 362.21 L 356.27 356.38 L 365.18 361.7 L 360.03000000000003 367.52 Z" stroke="#333333" stroke-width="0.5" fill="#45065a" /><path d="M 402.2 353.65000000000003 L 407.34000000000003 343.71 L 416.25 343.54 L 411.11 353.48 Z" stroke="#333333" stroke-width="0.5" fill="#48186a" /><path d="M 374.09000000000003 365.64 L 379.23 358.44 L 388.14 361.02 L 383.0 368.21 Z" stroke="#333333" stroke-width="0.5" fill="#450559" /><path d="M 450.88 271.75 L 456.03000000000003 253.59 L 464.94 250.68 L 459.79 268.84000000000003 Z" stroke="#333333" stroke-width="0.5" fill="#2c718e" /><path d="M 445.74 288.54 L 450.88 271.75 L 459.79 268.84000000000003 L 454.65000000000003 285.63 Z" stroke="#333333" stroke-width="0.5" fill="#33628d" /><path d="M 456.03000000000003 253.59 L 461.17 234.05 L 470.08 231.14000000000001 L 464.94 250.68 Z" stroke="#333333" stroke-width="0.5" fill="#26818e" /><path d="M 310.34000000000003 331.7 L 315.48 327.25 L 324.39 338.04 L 319.25 342.5 Z" stroke="#333333" stroke-width="0.5" fill="#472979" /><path d="M 319.25 342.5 L 324.39 338.04 L 333.3 347.47 L 328.16 351.93 Z" stroke="#333333" stroke-width="0.5" fill="#481d6f" /><path d="M 279.84000000000003 270.35 L 284.99 264.53000000000003 L 293.90000000000003 280.81 L 288.75 286.63 Z" stroke="#333333" stroke-width="0.5" fill="#31658e" /><path d="M 440.6 303.96 L 445.74 288.54 L 454.65000000000003 285.63 L 449.51 301.05 Z" stroke="#333333" stroke-width="0.5" fill="#3a538b" /><path d="M 301.43 319.54 L 306.57 315.08 L 315.48 327.25 L 310.34000000000003 331.7 Z" stroke="#333333" stroke-width="0.5" fill="#443681" /><path d="M 416.25 343.54 L 421.40000000000003 332.23 L 430.31 330.69 L 425.16 342.0 Z" stroke="#333333" stroke-width="0.5" fill="#482777" /><path d="M 328.16 351.93 L 333.3 347.47 L 342.21 355.53000000000003 L 337.07 359.98 Z" stroke="#333333" stroke-width="0.5" fill="#471466" /><path d="M 360.03000000000003 367.52 L 365.18 361.7 L 374.09000000000003 365.64 L 368.94 371.47 Z" stroke="#333333" stroke-width="0.5" fill="#440356" /><path d="M 435.45 318.01 L 440.6 303.96 L 449.51 301.05 L 444.36 315.1 Z" stroke="#333333" stroke-width="0.5" fill="#3f4688" /><path d="M 267.17 227.85 L 272.31 220.66 L 281.22 239.68 L 276.08 246.87 Z" stroke="#333333" stroke-width="0.5" fill="#22898d" /><path d="M 292.52 306.0 L 297.66 301.54 L 306.57 315.08 L 301.43 319.54 Z" stroke="#333333" stroke-width="0.5" fill="#404587" /><path d="M 337.07 359.98 L 342.21 355.53000000000003 L 351.12 362.21 L 345.98 366.67 Z" stroke="#333333" stroke-width="0.5" fill="#460b5e" /><path d="M 397.05 362.22 L 402.2 353.65000000000003 L 411.11 353.48 L 405.96000000000004 362.05 Z" stroke="#333333" stroke-width="0.5" fill="#471063" /><path d="M 383.0 368.21 L 388.14 361.02 L 397.05 362.22 L 391.91 369.42 Z" stroke="#333333" stroke-width="0.5" fill="#45065a" /><path d="M 270.93 252.70000000000002 L 276.08 246.87 L 284.99 264.53000000000003 L 279.84000000000003 270.35 Z" stroke="#333333" stroke-width="0.5" fill="#2a758e" /><path d="M 283.61 291.09000000000003 L 288.75 286.63 L 297.66 301.54 L 292.52 306.0 Z" stroke="#333333" stroke-width="0.5" fill="#39548b" /><path d="M 430.31 330.69 L 435.45 318.01 L 444.36 315.1 L 439.22 327.78000000000003 Z" stroke="#333333" stroke-width="0.5" fill="#443983" /><path d="M 411.11 353.48 L 416.25 343.54 L 425.16 342.0 L 420.02 351.94 Z" stroke="#333333" stroke-width="0.5" fill="#481d6f" /><path d="M 345.98 366.67 L 351.12 362.21 L 360.03000000000003 367.52 L 354.89 371.98 Z" stroke="#333333" stroke-width="0.5" fill="#450559" /><path d="M 368.94 371.47 L 374.09000000000003 365.64 L 383.0 368.21 L 377.85 374.04 Z" stroke="#333333" stroke-width="0.5" fill="#440155" /><path d="M 459.79 268.84000000000003 L 464.94 250.68 L 473.85 246.39000000000001 L 468.7 264.56 Z" stroke="#333333" stroke-width="0.5" fill="#29788e" /><path d="M 454.65000000000003 285.63 L 459.79 268.84000000000003 L 468.7 264.56 L 463.56 281.35 Z" stroke="#333333" stroke-width="0.5" fill="#2f698e" /><path d="M 274.7 274.81 L 279.84000000000003 270.35 L 288.75 286.63 L 283.61 291.09000000000003 Z" stroke="#333333" stroke-width="0.5" fill="#31648d" /><path d="M 464.94 250.68 L 470.08 231.14000000000001 L 478.99 226.86 L 473.85 246.39000000000001 Z" stroke="#333333" stroke-width="0.5" fill="#23888d" /><path d="M 425.16 342.0 L 430.31 330.69 L 439.22 327.78000000000003 L 434.07 339.09000000000003 Z" stroke="#333333" stroke-width="0.5" fill="#462e7c" /><path d="M 305.19 334.79 L 310.34000000000003 331.7 L 319.25 342.5 L 314.1 345.58 Z" stroke="#333333" stroke-width="0.5" fill="#472a79" /><path d="M 314.1 345.58 L 319.25 342.5 L 328.16 351.93 L 323.01 355.01 Z" stroke="#333333" stroke-width="0.5" fill="#481f70" /><path d="M 449.51 301.05 L 454.65000000000003 285.63 L 463.56 281.35 L 458.42 296.77 Z" stroke="#333333" stroke-width="0.5" fill="#365b8c" /><path d="M 354.89 371.98 L 360.03000000000003 367.52 L 368.94 371.47 L 363.8 375.92 Z" stroke="#333333" stroke-width="0.5" fill="#440155" /><path d="M 262.02 233.68 L 267.17 227.85 L 276.08 246.87 L 270.93 252.70000000000002 Z" stroke="#333333" stroke-width="0.5" fill="#23878e" /><path d="M 296.28000000000003 322.62 L 301.43 319.54 L 310.34000000000003 331.7 L 305.19 334.79 Z" stroke="#333333" stroke-width="0.5" fill="#443781" /><path d="M 323.01 355.01 L 328.16 351.93 L 337.07 359.98 L 331.93 363.07 Z" stroke="#333333" stroke-width="0.5" fill="#471567" /><path d="M 391.91 369.42 L 397.05 362.22 L 405.96000000000004 362.05 L 400.82 369.25 Z" stroke="#333333" stroke-width="0.5" fill="#460a5d" /><path d="M 405.96000000000004 362.05 L 411.11 353.48 L 420.02 351.94 L 414.87 360.51 Z" stroke="#333333" stroke-width="0.5" fill="#481668" /><path d="M 377.85 374.04 L 383.0 368.21 L 391.91 369.42 L 386.76 375.24 Z" stroke="#333333" stroke-width="0.5" fill="#440356" /><path d="M 444.36 315.1 L 449.51 301.05 L 458.42 296.77 L 453.27 310.82 Z" stroke="#333333" stroke-width="0.5" fill="#3c4e8a" /><path d="M 287.37 309.08 L 292.52 306.0 L 301.43 319.54 L 296.28000000000003 322.62 Z" stroke="#333333" stroke-width="0.5" fill="#3f4688" /><path d="M 331.93 363.07 L 337.07 359.98 L 345.98 366.67 L 340.84000000000003 369.75 Z" stroke="#333333" stroke-width="0.5" fill="#460d60" /><path d="M 265.79 257.16 L 270.93 252.70000000000002 L 279.84000000000003 270.35 L 274.7 274.81 Z" stroke="#333333" stroke-width="0.5" fill="#2a748e" /><path d="M 420.02 351.94 L 425.16 342.0 L 434.07 339.09000000000003 L 428.93 349.03000000000003 Z" stroke="#333333" stroke-width="0.5" fill="#482576" /><path d="M 363.8 375.92 L 368.94 371.47 L 377.85 374.04 L 372.71 378.49 Z" stroke="#333333" stroke-width="0.5" fill="#440154" /><path d="M 278.46 294.17 L 283.61 291.09000000000003 L 292.52 306.0 L 287.37 309.08 Z" stroke="#333333" stroke-width="0.5" fill="#39558b" /><path d="M 439.22 327.78000000000003 L 444.36 315.1 L 453.27 310.82 L 448.13 323.5 Z" stroke="#333333" stroke-width="0.5" fill="#414186" /><path d="M 340.84000000000003 369.75 L 345.98 366.67 L 354.89 371.98 L 349.75 375.06 Z" stroke="#333333" stroke-width="0.5" fill="#45065a" /><path d="M 400.82 369.25 L 405.96000000000004 362.05 L 414.87 360.51 L 409.73 367.71 Z" stroke="#333333" stroke-width="0.5" fill="#471063" /><path d="M 269.55 277.89 L 274.7 274.81 L 283.61 291.09000000000003 L 278.46 294.17 Z" stroke="#333333" stroke-width="0.5" fill="#31658e" /><path d="M 386.76 375.24 L 391.91 369.42 L 400.82 369.25 L 395.68 375.07 Z" stroke="#333333" stroke-width="0.5" fill="#45065a" /><path d="M 468.7 264.56 L 473.85 246.39000000000001 L 482.76 240.74 L 477.61 258.9 Z" stroke="#333333" stroke-width="0.5" fill="#26818e" /><path d="M 434.07 339.09000000000003 L 439.22 327.78000000000003 L 448.13 323.5 L 442.98 334.81 Z" stroke="#333333" stroke-width="0.5" fill="#443781" /><path d="M 256.88 238.13 L 262.02 233.68 L 270.93 252.70000000000002 L 265.79 257.16 Z" stroke="#333333" stroke-width="0.5" fill="#23868d" /><path d="M 463.56 281.35 L 468.7 264.56 L 477.61 258.9 L 472.47 275.7 Z" stroke="#333333" stroke-width="0.5" fill="#2c718e" /><path d="M 473.85 246.39000000000001 L 478.99 226.86 L 487.90000000000003 221.21 L 482.76 240.74 Z" stroke="#333333" stroke-width="0.5" fill="#20918c" /><path d="M 349.75 375.06 L 354.89 371.98 L 363.8 375.92 L 358.66 379.01 Z" stroke="#333333" stroke-width="0.5" fill="#440356" /><path d="M 300.05 336.5 L 305.19 334.79 L 314.1 345.58 L 308.96 347.3 Z" stroke="#333333" stroke-width="0.5" fill="#462d7b" /><path d="M 414.87 360.51 L 420.02 351.94 L 428.93 349.03000000000003 L 423.78000000000003 357.6 Z" stroke="#333333" stroke-width="0.5" fill="#481d6f" /><path d="M 458.42 296.77 L 463.56 281.35 L 472.47 275.7 L 467.33 291.12 Z" stroke="#333333" stroke-width="0.5" fill="#31648d" /><path d="M 308.96 347.3 L 314.1 345.58 L 323.01 355.01 L 317.87 356.72 Z" stroke="#333333" stroke-width="0.5" fill="#482273" /><path d="M 372.71 378.49 L 377.85 374.04 L 386.76 375.24 L 381.62 379.7 Z" stroke="#333333" stroke-width="0.5" fill="#440155" /><path d="M 291.14 324.33 L 296.28000000000003 322.62 L 305.19 334.79 L 300.05 336.5 Z" stroke="#333333" stroke-width="0.5" fill="#433a83" /><path d="M 317.87 356.72 L 323.01 355.01 L 331.93 363.07 L 326.78000000000003 364.78000000000003 Z" stroke="#333333" stroke-width="0.5" fill="#48186a" /><path d="M 453.27 310.82 L 458.42 296.77 L 467.33 291.12 L 462.18 305.17 Z" stroke="#333333" stroke-width="0.5" fill="#38588c" /><path d="M 282.23 310.79 L 287.37 309.08 L 296.28000000000003 322.62 L 291.14 324.33 Z" stroke="#333333" stroke-width="0.5" fill="#3e4888" /><path d="M 260.64 260.24 L 265.79 257.16 L 274.7 274.81 L 269.55 277.89 Z" stroke="#333333" stroke-width="0.5" fill="#2a758e" /><path d="M 326.78000000000003 364.78000000000003 L 331.93 363.07 L 340.84000000000003 369.75 L 335.69 371.46 Z" stroke="#333333" stroke-width="0.5" fill="#471063" /><path d="M 428.93 349.03000000000003 L 434.07 339.09000000000003 L 442.98 334.81 L 437.84000000000003 344.75 Z" stroke="#333333" stroke-width="0.5" fill="#462e7c" /><path d="M 358.66 379.01 L 363.8 375.92 L 372.71 378.49 L 367.57 381.58 Z" stroke="#333333" stroke-width="0.5" fill="#440155" /><path d="M 448.13 323.5 L 453.27 310.82 L 462.18 305.17 L 457.04 317.85 Z" stroke="#333333" stroke-width="0.5" fill="#3d4c89" /><path d="M 273.32 295.88 L 278.46 294.17 L 287.37 309.08 L 282.23 310.79 Z" stroke="#333333" stroke-width="0.5" fill="#38588c" /><path d="M 395.68 375.07 L 400.82 369.25 L 409.73 367.71 L 404.59000000000003 373.53000000000003 Z" stroke="#333333" stroke-width="0.5" fill="#460d60" /><path d="M 335.69 371.46 L 340.84000000000003 369.75 L 349.75 375.06 L 344.6 376.78000000000003 Z" stroke="#333333" stroke-width="0.5" fill="#460a5d" /><path d="M 409.73 367.71 L 414.87 360.51 L 423.78000000000003 357.6 L 418.64 364.79 Z" stroke="#333333" stroke-width="0.5" fill="#48186a" /><path d="M 381.62 379.7 L 386.76 375.24 L 395.68 375.07 L 390.53000000000003 379.53000000000003 Z" stroke="#333333" stroke-width="0.5" fill="#450559" /><path d="M 251.73000000000002 241.22 L 256.88 238.13 L 265.79 257.16 L 260.64 260.24 Z" stroke="#333333" stroke-width="0.5" fill="#23878e" /><path d="M 264.41 279.6 L 269.55 277.89 L 278.46 294.17 L 273.32 295.88 Z" stroke="#333333" stroke-width="0.5" fill="#30688e" /><path d="M 442.98 334.81 L 448.13 323.5 L 457.04 317.85 L 451.89 329.16 Z" stroke="#333333" stroke-width="0.5" fill="#414186" /><path d="M 423.78000000000003 357.6 L 428.93 349.03000000000003 L 437.84000000000003 344.75 L 432.69 353.32 Z" stroke="#333333" stroke-width="0.5" fill="#482777" /><path d="M 344.6 376.78000000000003 L 349.75 375.06 L 358.66 379.01 L 353.51 380.72 Z" stroke="#333333" stroke-width="0.5" fill="#45065a" /><path d="M 367.57 381.58 L 372.71 378.49 L 381.62 379.7 L 376.48 382.78000000000003 Z" stroke="#333333" stroke-width="0.5" fill="#440356" /><path d="M 477.61 258.9 L 482.76 240.74 L 491.67 233.72 L 486.53000000000003 251.88 Z" stroke="#333333" stroke-width="0.5" fill="#228a8d" /><path d="M 472.47 275.7 L 477.61 258.9 L 486.53000000000003 251.88 L 481.38 268.67 Z" stroke="#333333" stroke-width="0.5" fill="#287c8e" /><path d="M 482.76 240.74 L 487.90000000000003 221.21 L 496.81 214.18 L 491.67 233.72 Z" stroke="#333333" stroke-width="0.5" fill="#1e9a89" /><path d="M 467.33 291.12 L 472.47 275.7 L 481.38 268.67 L 476.24 284.09000000000003 Z" stroke="#333333" stroke-width="0.5" fill="#2d6f8e" /><path d="M 294.91 336.84000000000003 L 300.05 336.5 L 308.96 347.3 L 303.82 347.64 Z" stroke="#333333" stroke-width="0.5" fill="#45327e" /><path d="M 303.82 347.64 L 308.96 347.3 L 317.87 356.72 L 312.73 357.07 Z" stroke="#333333" stroke-width="0.5" fill="#482777" /><path d="M 286.0 324.68 L 291.14 324.33 L 300.05 336.5 L 294.91 336.84000000000003 Z" stroke="#333333" stroke-width="0.5" fill="#423f85" /><path d="M 312.73 357.07 L 317.87 356.72 L 326.78000000000003 364.78000000000003 L 321.64 365.12 Z" stroke="#333333" stroke-width="0.5" fill="#481d6f" /><path d="M 255.5 261.95 L 260.64 260.24 L 269.55 277.89 L 264.41 279.6 Z" stroke="#333333" stroke-width="0.5" fill="#29788e" /><path d="M 462.18 305.17 L 467.33 291.12 L 476.24 284.09000000000003 L 471.09000000000003 298.14 Z" stroke="#333333" stroke-width="0.5" fill="#32638d" /><path d="M 277.09000000000003 311.14 L 282.23 310.79 L 291.14 324.33 L 286.0 324.68 Z" stroke="#333333" stroke-width="0.5" fill="#3c4d8a" /><path d="M 437.84000000000003 344.75 L 442.98 334.81 L 451.89 329.16 L 446.75 339.1 Z" stroke="#333333" stroke-width="0.5" fill="#443983" /><path d="M 404.59000000000003 373.53000000000003 L 409.73 367.71 L 418.64 364.79 L 413.5 370.62 Z" stroke="#333333" stroke-width="0.5" fill="#471567" /><path d="M 321.64 365.12 L 326.78000000000003 364.78000000000003 L 335.69 371.46 L 330.55 371.81 Z" stroke="#333333" stroke-width="0.5" fill="#481668" /><path d="M 390.53000000000003 379.53000000000003 L 395.68 375.07 L 404.59000000000003 373.53000000000003 L 399.44 377.99 Z" stroke="#333333" stroke-width="0.5" fill="#460b5e" /><path d="M 353.51 380.72 L 358.66 379.01 L 367.57 381.58 L 362.42 383.29 Z" stroke="#333333" stroke-width="0.5" fill="#450559" /><path d="M 418.64 364.79 L 423.78000000000003 357.6 L 432.69 353.32 L 427.55 360.51 Z" stroke="#333333" stroke-width="0.5" fill="#482273" /><path d="M 457.04 317.85 L 462.18 305.17 L 471.09000000000003 298.14 L 465.95 310.82 Z" stroke="#333333" stroke-width="0.5" fill="#38588c" /><path d="M 376.48 382.78000000000003 L 381.62 379.7 L 390.53000000000003 379.53000000000003 L 385.39 382.61 Z" stroke="#333333" stroke-width="0.5" fill="#45065a" /><path d="M 268.18 296.23 L 273.32 295.88 L 282.23 310.79 L 277.09000000000003 311.14 Z" stroke="#333333" stroke-width="0.5" fill="#355c8d" /><path d="M 330.55 371.81 L 335.69 371.46 L 344.6 376.78000000000003 L 339.46 377.12 Z" stroke="#333333" stroke-width="0.5" fill="#471063" /><path d="M 246.59 242.93 L 251.73000000000002 241.22 L 260.64 260.24 L 255.5 261.95 Z" stroke="#333333" stroke-width="0.5" fill="#22898d" /><path d="M 432.69 353.32 L 437.84000000000003 344.75 L 446.75 339.1 L 441.6 347.66 Z" stroke="#333333" stroke-width="0.5" fill="#45327e" /><path d="M 259.26 279.95 L 264.41 279.6 L 273.32 295.88 L 268.18 296.23 Z" stroke="#333333" stroke-width="0.5" fill="#2e6c8e" /><path d="M 362.42 383.29 L 367.57 381.58 L 376.48 382.78000000000003 L 371.33 384.49 Z" stroke="#333333" stroke-width="0.5" fill="#45065a" /><path d="M 451.89 329.16 L 457.04 317.85 L 465.95 310.82 L 460.8 322.13 Z" stroke="#333333" stroke-width="0.5" fill="#3c4e8a" /><path d="M 339.46 377.12 L 344.6 376.78000000000003 L 353.51 380.72 L 348.37 381.06 Z" stroke="#333333" stroke-width="0.5" fill="#460d60" /><path d="M 486.53000000000003 251.88 L 491.67 233.72 L 500.58 225.32 L 495.44 243.49 Z" stroke="#333333" stroke-width="0.5" fill="#1f968a" /><path d="M 481.38 268.67 L 486.53000000000003 251.88 L 495.44 243.49 L 490.29 260.28000000000003 Z" stroke="#333333" stroke-width="0.5" fill="#23878e" /><path d="M 491.67 233.72 L 496.81 214.18 L 505.72 205.79 L 500.58 225.32 Z" stroke="#333333" stroke-width="0.5" fill="#21a684" /><path d="M 399.44 377.99 L 404.59000000000003 373.53000000000003 L 413.5 370.62 L 408.35 375.08 Z" stroke="#333333" stroke-width="0.5" fill="#471466" /><path d="M 476.24 284.09000000000003 L 481.38 268.67 L 490.29 260.28000000000003 L 485.15000000000003 275.7 Z" stroke="#333333" stroke-width="0.5" fill="#287a8e" /><path d="M 289.76 335.82 L 294.91 336.84000000000003 L 303.82 347.64 L 298.67 346.61 Z" stroke="#333333" stroke-width="0.5" fill="#443983" /><path d="M 298.67 346.61 L 303.82 347.64 L 312.73 357.07 L 307.58 356.04 Z" stroke="#333333" stroke-width="0.5" fill="#462e7c" /><path d="M 413.5 370.62 L 418.64 364.79 L 427.55 360.51 L 422.41 366.34000000000003 Z" stroke="#333333" stroke-width="0.5" fill="#481f70" /><path d="M 385.39 382.61 L 390.53000000000003 379.53000000000003 L 399.44 377.99 L 394.3 381.07 Z" stroke="#333333" stroke-width="0.5" fill="#460d60" /><path d="M 280.85 323.65000000000003 L 286.0 324.68 L 294.91 336.84000000000003 L 289.76 335.82 Z" stroke="#333333" stroke-width="0.5" fill="#3f4688" /><path d="M 250.35 262.3 L 255.5 261.95 L 264.41 279.6 L 259.26 279.95 Z" stroke="#333333" stroke-width="0.5" fill="#287c8e" /><path d="M 307.58 356.04 L 312.73 357.07 L 321.64 365.12 L 316.49 364.09000000000003 Z" stroke="#333333" stroke-width="0.5" fill="#482576" /><path d="M 446.75 339.1 L 451.89 329.16 L 460.8 322.13 L 455.66 332.07 Z" stroke="#333333" stroke-width="0.5" fill="#3f4688" /><path d="M 471.09000000000003 298.14 L 476.24 284.09000000000003 L 485.15000000000003 275.7 L 480.0 289.75 Z" stroke="#333333" stroke-width="0.5" fill="#2d6f8e" /><path d="M 348.37 381.06 L 353.51 380.72 L 362.42 383.29 L 357.28000000000003 383.64 Z" stroke="#333333" stroke-width="0.5" fill="#460b5e" /><path d="M 271.94 310.11 L 277.09000000000003 311.14 L 286.0 324.68 L 280.85 323.65000000000003 Z" stroke="#333333" stroke-width="0.5" fill="#3a538b" /><path d="M 427.55 360.51 L 432.69 353.32 L 441.6 347.66 L 436.46000000000004 354.86 Z" stroke="#333333" stroke-width="0.5" fill="#462d7b" /><path d="M 316.49 364.09000000000003 L 321.64 365.12 L 330.55 371.81 L 325.40000000000003 370.78000000000003 Z" stroke="#333333" stroke-width="0.5" fill="#481d6f" /><path d="M 371.33 384.49 L 376.48 382.78000000000003 L 385.39 382.61 L 380.24 384.32 Z" stroke="#333333" stroke-width="0.5" fill="#460a5d" /><path d="M 465.95 310.82 L 471.09000000000003 298.14 L 480.0 289.75 L 474.86 302.43 Z" stroke="#333333" stroke-width="0.5" fill="#31648d" /><path d="M 263.03000000000003 295.2 L 268.18 296.23 L 277.09000000000003 311.14 L 271.94 310.11 Z" stroke="#333333" stroke-width="0.5" fill="#33628d" /><path d="M 325.40000000000003 370.78000000000003 L 330.55 371.81 L 339.46 377.12 L 334.31 376.09000000000003 Z" stroke="#333333" stroke-width="0.5" fill="#48186a" /><path d="M 241.44 243.27 L 246.59 242.93 L 255.5 261.95 L 250.35 262.3 Z" stroke="#333333" stroke-width="0.5" fill="#218e8d" /><path d="M 441.6 347.66 L 446.75 339.1 L 455.66 332.07 L 450.51 340.64 Z" stroke="#333333" stroke-width="0.5" fill="#423f85" /><path d="M 357.28000000000003 383.64 L 362.42 383.29 L 371.33 384.49 L 366.19 384.84000000000003 Z" stroke="#333333" stroke-width="0.5" fill="#460d60" /><path d="M 408.35 375.08 L 413.5 370.62 L 422.41 366.34000000000003 L 417.26 370.79 Z" stroke="#333333" stroke-width="0.5" fill="#481d6f" /><path d="M 254.12 278.92 L 259.26 279.95 L 268.18 296.23 L 263.03000000000003 295.2 Z" stroke="#333333" stroke-width="0.5" fill="#2c718e" /><path d="M 394.3 381.07 L 399.44 377.99 L 408.35 375.08 L 403.21000000000004 378.16 Z" stroke="#333333" stroke-width="0.5" fill="#471567" /><path d="M 460.8 322.13 L 465.95 310.82 L 474.86 302.43 L 469.71000000000004 313.74 Z" stroke="#333333" stroke-width="0.5" fill="#365b8c" /><path d="M 334.31 376.09000000000003 L 339.46 377.12 L 348.37 381.06 L 343.22 380.04 Z" stroke="#333333" stroke-width="0.5" fill="#471567" /><path d="M 422.41 366.34000000000003 L 427.55 360.51 L 436.46000000000004 354.86 L 431.32 360.69 Z" stroke="#333333" stroke-width="0.5" fill="#472a79" /><path d="M 380.24 384.32 L 385.39 382.61 L 394.3 381.07 L 389.15000000000003 382.78000000000003 Z" stroke="#333333" stroke-width="0.5" fill="#471063" /><path d="M 495.44 243.49 L 500.58 225.32 L 509.49 215.56 L 504.35 233.72 Z" stroke="#333333" stroke-width="0.5" fill="#1fa286" /><path d="M 490.29 260.28000000000003 L 495.44 243.49 L 504.35 233.72 L 499.2 250.51000000000002 Z" stroke="#333333" stroke-width="0.5" fill="#1f948b" /><path d="M 500.58 225.32 L 505.72 205.79 L 514.63 196.02 L 509.49 215.56 Z" stroke="#333333" stroke-width="0.5" fill="#2eb37c" /><path d="M 485.15000000000003 275.7 L 490.29 260.28000000000003 L 499.2 250.51000000000002 L 494.06 265.93 Z" stroke="#333333" stroke-width="0.5" fill="#23878e" /><path d="M 284.62 333.42 L 289.76 335.82 L 298.67 346.61 L 293.53000000000003 344.21 Z" stroke="#333333" stroke-width="0.5" fill="#414186" /><path d="M 245.21 261.27 L 250.35 262.3 L 259.26 279.95 L 254.12 278.92 Z" stroke="#333333" stroke-width="0.5" fill="#26818e" /><path d="M 293.53000000000003 344.21 L 298.67 346.61 L 307.58 356.04 L 302.44 353.64 Z" stroke="#333333" stroke-width="0.5" fill="#443781" /><path d="M 455.66 332.07 L 460.8 322.13 L 469.71000000000004 313.74 L 464.57 323.68 Z" stroke="#333333" stroke-width="0.5" fill="#3a538b" /><path d="M 275.71 321.25 L 280.85 323.65000000000003 L 289.76 335.82 L 284.62 333.42 Z" stroke="#333333" stroke-width="0.5" fill="#3c4e8a" /><path d="M 436.46000000000004 354.86 L 441.6 347.66 L 450.51 340.64 L 445.37 347.84000000000003 Z" stroke="#333333" stroke-width="0.5" fill="#433a83" /><path d="M 302.44 353.64 L 307.58 356.04 L 316.49 364.09000000000003 L 311.35 361.69 Z" stroke="#333333" stroke-width="0.5" fill="#462e7c" /><path d="M 343.22 380.04 L 348.37 381.06 L 357.28000000000003 383.64 L 352.13 382.61 Z" stroke="#333333" stroke-width="0.5" fill="#471466" /><path d="M 366.19 384.84000000000003 L 371.33 384.49 L 380.24 384.32 L 375.1 384.67 Z" stroke="#333333" stroke-width="0.5" fill="#471063" /><path d="M 480.0 289.75 L 485.15000000000003 275.7 L 494.06 265.93 L 488.91 279.99 Z" stroke="#333333" stroke-width="0.5" fill="#287c8e" /><path d="M 266.8 307.71 L 271.94 310.11 L 280.85 323.65000000000003 L 275.71 321.25 Z" stroke="#333333" stroke-width="0.5" fill="#365b8c" /><path d="M 311.35 361.69 L 316.49 364.09000000000003 L 325.40000000000003 370.78000000000003 L 320.26 368.38 Z" stroke="#333333" stroke-width="0.5" fill="#482777" /><path d="M 474.86 302.43 L 480.0 289.75 L 488.91 279.99 L 483.77 292.67 Z" stroke="#333333" stroke-width="0.5" fill="#2c718e" /><path d="M 403.21000000000004 378.16 L 408.35 375.08 L 417.26 370.79 L 412.12 373.88 Z" stroke="#333333" stroke-width="0.5" fill="#481f70" /><path d="M 257.89 292.8 L 263.03000000000003 295.2 L 271.94 310.11 L 266.8 307.71 Z" stroke="#333333" stroke-width="0.5" fill="#2f698e" /><path d="M 236.3 242.25 L 241.44 243.27 L 250.35 262.3 L 245.21 261.27 Z" stroke="#333333" stroke-width="0.5" fill="#1f928c" /><path d="M 417.26 370.79 L 422.41 366.34000000000003 L 431.32 360.69 L 426.17 365.14 Z" stroke="#333333" stroke-width="0.5" fill="#472979" /><path d="M 320.26 368.38 L 325.40000000000003 370.78000000000003 L 334.31 376.09000000000003 L 329.17 373.69 Z" stroke="#333333" stroke-width="0.5" fill="#482273" /><path d="M 389.15000000000003 382.78000000000003 L 394.3 381.07 L 403.21000000000004 378.16 L 398.06 379.87 Z" stroke="#333333" stroke-width="0.5" fill="#48186a" /><path d="M 450.51 340.64 L 455.66 332.07 L 464.57 323.68 L 459.43 332.25 Z" stroke="#333333" stroke-width="0.5" fill="#3c4d8a" /><path d="M 352.13 382.61 L 357.28000000000003 383.64 L 366.19 384.84000000000003 L 361.04 383.81 Z" stroke="#333333" stroke-width="0.5" fill="#471567" /><path d="M 431.32 360.69 L 436.46000000000004 354.86 L 445.37 347.84000000000003 L 440.23 353.66 Z" stroke="#333333" stroke-width="0.5" fill="#443781" /><path d="M 469.71000000000004 313.74 L 474.86 302.43 L 483.77 292.67 L 478.62 303.97 Z" stroke="#333333" stroke-width="0.5" fill="#2f698e" /><path d="M 248.98000000000002 276.52 L 254.12 278.92 L 263.03000000000003 295.2 L 257.89 292.8 Z" stroke="#333333" stroke-width="0.5" fill="#29788e" /><path d="M 375.1 384.67 L 380.24 384.32 L 389.15000000000003 382.78000000000003 L 384.01 383.13 Z" stroke="#333333" stroke-width="0.5" fill="#481668" /><path d="M 329.17 373.69 L 334.31 376.09000000000003 L 343.22 380.04 L 338.08 377.64 Z" stroke="#333333" stroke-width="0.5" fill="#481f70" /><path d="M 504.35 233.72 L 509.49 215.56 L 518.4 204.42000000000002 L 513.26 222.58 Z" stroke="#333333" stroke-width="0.5" fill="#2cb17d" /><path d="M 499.2 250.51000000000002 L 504.35 233.72 L 513.26 222.58 L 508.11 239.38 Z" stroke="#333333" stroke-width="0.5" fill="#1fa286" /><path d="M 445.37 347.84000000000003 L 450.51 340.64 L 459.43 332.25 L 454.28000000000003 339.44 Z" stroke="#333333" stroke-width="0.5" fill="#3e4888" /><path d="M 509.49 215.56 L 514.63 196.02 L 523.54 184.89000000000001 L 518.4 204.42000000000002 Z" stroke="#333333" stroke-width="0.5" fill="#47c06e" /><path d="M 240.07 258.87 L 245.21 261.27 L 254.12 278.92 L 248.98000000000002 276.52 Z" stroke="#333333" stroke-width="0.5" fill="#23888d" /><path d="M 464.57 323.68 L 469.71000000000004 313.74 L 478.62 303.97 L 473.48 313.91 Z" stroke="#333333" stroke-width="0.5" fill="#33628d" /><path d="M 361.04 383.81 L 366.19 384.84000000000003 L 375.1 384.67 L 369.95 383.64 Z" stroke="#333333" stroke-width="0.5" fill="#48186a" /><path d="M 494.06 265.93 L 499.2 250.51000000000002 L 508.11 239.38 L 502.97 254.8 Z" stroke="#333333" stroke-width="0.5" fill="#1f968a" /><path d="M 279.47 329.65000000000003 L 284.62 333.42 L 293.53000000000003 344.21 L 288.38 340.44 Z" stroke="#333333" stroke-width="0.5" fill="#3d4c89" /><path d="M 288.38 340.44 L 293.53000000000003 344.21 L 302.44 353.64 L 297.29 349.87 Z" stroke="#333333" stroke-width="0.5" fill="#414186" /><path d="M 338.08 377.64 L 343.22 380.04 L 352.13 382.61 L 346.99 380.21 Z" stroke="#333333" stroke-width="0.5" fill="#481d6f" /><path d="M 270.56 317.48 L 275.71 321.25 L 284.62 333.42 L 279.47 329.65000000000003 Z" stroke="#333333" stroke-width="0.5" fill="#38588c" /><path d="M 297.29 349.87 L 302.44 353.64 L 311.35 361.69 L 306.2 357.93 Z" stroke="#333333" stroke-width="0.5" fill="#443983" /><path d="M 412.12 373.88 L 417.26 370.79 L 426.17 365.14 L 421.03000000000003 368.23 Z" stroke="#333333" stroke-width="0.5" fill="#472a79" /><path d="M 398.06 379.87 L 403.21000000000004 378.16 L 412.12 373.88 L 406.97 375.59000000000003 Z" stroke="#333333" stroke-width="0.5" fill="#482273" /><path d="M 488.91 279.99 L 494.06 265.93 L 502.97 254.8 L 497.82 268.85 Z" stroke="#333333" stroke-width="0.5" fill="#228a8d" /><path d="M 261.65 303.94 L 266.8 307.71 L 275.71 321.25 L 270.56 317.48 Z" stroke="#333333" stroke-width="0.5" fill="#31648d" /><path d="M 426.17 365.14 L 431.32 360.69 L 440.23 353.66 L 435.08 358.12 Z" stroke="#333333" stroke-width="0.5" fill="#443681" /><path d="M 306.2 357.93 L 311.35 361.69 L 320.26 368.38 L 315.11 364.61 Z" stroke="#333333" stroke-width="0.5" fill="#45327e" /><path d="M 384.01 383.13 L 389.15000000000003 382.78000000000003 L 398.06 379.87 L 392.92 380.22 Z" stroke="#333333" stroke-width="0.5" fill="#481d6f" /><path d="M 231.16 239.85 L 236.3 242.25 L 245.21 261.27 L 240.07 258.87 Z" stroke="#333333" stroke-width="0.5" fill="#1e9a89" /><path d="M 483.77 292.67 L 488.91 279.99 L 497.82 268.85 L 492.68 281.53000000000003 Z" stroke="#333333" stroke-width="0.5" fill="#26818e" /><path d="M 252.74 289.03000000000003 L 257.89 292.8 L 266.8 307.71 L 261.65 303.94 Z" stroke="#333333" stroke-width="0.5" fill="#2c718e" /><path d="M 459.43 332.25 L 464.57 323.68 L 473.48 313.91 L 468.34000000000003 322.48 Z" stroke="#333333" stroke-width="0.5" fill="#355c8d" /><path d="M 315.11 364.61 L 320.26 368.38 L 329.17 373.69 L 324.02 369.92 Z" stroke="#333333" stroke-width="0.5" fill="#462d7b" /><path d="M 346.99 380.21 L 352.13 382.61 L 361.04 383.81 L 355.90000000000003 381.41 Z" stroke="#333333" stroke-width="0.5" fill="#481f70" /><path d="M 440.23 353.66 L 445.37 347.84000000000003 L 454.28000000000003 339.44 L 449.14 345.27 Z" stroke="#333333" stroke-width="0.5" fill="#3f4688" /><path d="M 369.95 383.64 L 375.1 384.67 L 384.01 383.13 L 378.86 382.1 Z" stroke="#333333" stroke-width="0.5" fill="#481d6f" /><path d="M 478.62 303.97 L 483.77 292.67 L 492.68 281.53000000000003 L 487.53000000000003 292.84000000000003 Z" stroke="#333333" stroke-width="0.5" fill="#29788e" /><path d="M 243.83 272.75 L 248.98000000000002 276.52 L 257.89 292.8 L 252.74 289.03000000000003 Z" stroke="#333333" stroke-width="0.5" fill="#26818e" /><path d="M 324.02 369.92 L 329.17 373.69 L 338.08 377.64 L 332.93 373.87 Z" stroke="#333333" stroke-width="0.5" fill="#472a79" /><path d="M 406.97 375.59000000000003 L 412.12 373.88 L 421.03000000000003 368.23 L 415.88 369.94 Z" stroke="#333333" stroke-width="0.5" fill="#462d7b" /><path d="M 454.28000000000003 339.44 L 459.43 332.25 L 468.34000000000003 322.48 L 463.19 329.68 Z" stroke="#333333" stroke-width="0.5" fill="#38588c" /><path d="M 421.03000000000003 368.23 L 426.17 365.14 L 435.08 358.12 L 429.94 361.2 Z" stroke="#333333" stroke-width="0.5" fill="#443781" /><path d="M 392.92 380.22 L 398.06 379.87 L 406.97 375.59000000000003 L 401.83 375.93 Z" stroke="#333333" stroke-width="0.5" fill="#482777" /><path d="M 355.90000000000003 381.41 L 361.04 383.81 L 369.95 383.64 L 364.81 381.24 Z" stroke="#333333" stroke-width="0.5" fill="#482273" /><path d="M 513.26 222.58 L 518.4 204.42000000000002 L 527.3100000000001 191.92000000000002 L 522.17 210.08 Z" stroke="#333333" stroke-width="0.5" fill="#47c06e" /><path d="M 234.92000000000002 255.1 L 240.07 258.87 L 248.98000000000002 276.52 L 243.83 272.75 Z" stroke="#333333" stroke-width="0.5" fill="#20918c" /><path d="M 508.11 239.38 L 513.26 222.58 L 522.17 210.08 L 517.02 226.87 Z" stroke="#333333" stroke-width="0.5" fill="#2eb37c" /><path d="M 473.48 313.91 L 478.62 303.97 L 487.53000000000003 292.84000000000003 L 482.39 302.78000000000003 Z" stroke="#333333" stroke-width="0.5" fill="#2c718e" /><path d="M 518.4 204.42000000000002 L 523.54 184.89000000000001 L 532.45 172.38 L 527.3100000000001 191.92000000000002 Z" stroke="#333333" stroke-width="0.5" fill="#6bcd5a" /><path d="M 502.97 254.8 L 508.11 239.38 L 517.02 226.87 L 511.88 242.29 Z" stroke="#333333" stroke-width="0.5" fill="#21a684" /><path d="M 332.93 373.87 L 338.08 377.64 L 346.99 380.21 L 341.84000000000003 376.44 Z" stroke="#333333" stroke-width="0.5" fill="#472979" /><path d="M 274.33 324.51 L 279.47 329.65000000000003 L 288.38 340.44 L 283.24 335.3 Z" stroke="#333333" stroke-width="0.5" fill="#38588c" /><path d="M 435.08 358.12 L 440.23 353.66 L 449.14 345.27 L 443.99 349.72 Z" stroke="#333333" stroke-width="0.5" fill="#404587" /><path d="M 283.24 335.3 L 288.38 340.44 L 297.29 349.87 L 292.15000000000003 344.73 Z" stroke="#333333" stroke-width="0.5" fill="#3c4e8a" /><path d="M 378.86 382.1 L 384.01 383.13 L 392.92 380.22 L 387.77 379.19 Z" stroke="#333333" stroke-width="0.5" fill="#482576" /><path d="M 265.42 312.34000000000003 L 270.56 317.48 L 279.47 329.65000000000003 L 274.33 324.51 Z" stroke="#333333" stroke-width="0.5" fill="#32638d" /><path d="M 292.15000000000003 344.73 L 297.29 349.87 L 306.2 357.93 L 301.06 352.78000000000003 Z" stroke="#333333" stroke-width="0.5" fill="#3f4688" /><path d="M 497.82 268.85 L 502.97 254.8 L 511.88 242.29 L 506.73 256.34000000000003 Z" stroke="#333333" stroke-width="0.5" fill="#1e9a89" /><path d="M 256.51 298.8 L 261.65 303.94 L 270.56 317.48 L 265.42 312.34000000000003 Z" stroke="#333333" stroke-width="0.5" fill="#2d6f8e" /><path d="M 301.06 352.78000000000003 L 306.2 357.93 L 315.11 364.61 L 309.97 359.47 Z" stroke="#333333" stroke-width="0.5" fill="#423f85" /><path d="M 226.01 236.08 L 231.16 239.85 L 240.07 258.87 L 234.92000000000002 255.1 Z" stroke="#333333" stroke-width="0.5" fill="#1fa286" /><path d="M 468.34000000000003 322.48 L 473.48 313.91 L 482.39 302.78000000000003 L 477.25 311.34000000000003 Z" stroke="#333333" stroke-width="0.5" fill="#2e6c8e" /><path d="M 449.14 345.27 L 454.28000000000003 339.44 L 463.19 329.68 L 458.05 335.5 Z" stroke="#333333" stroke-width="0.5" fill="#39558b" /><path d="M 492.68 281.53000000000003 L 497.82 268.85 L 506.73 256.34000000000003 L 501.59000000000003 269.02 Z" stroke="#333333" stroke-width="0.5" fill="#20918c" /><path d="M 247.6 283.89 L 252.74 289.03000000000003 L 261.65 303.94 L 256.51 298.8 Z" stroke="#333333" stroke-width="0.5" fill="#287c8e" /><path d="M 341.84000000000003 376.44 L 346.99 380.21 L 355.90000000000003 381.41 L 350.75 377.64 Z" stroke="#333333" stroke-width="0.5" fill="#472a79" /><path d="M 364.81 381.24 L 369.95 383.64 L 378.86 382.1 L 373.72 379.7 Z" stroke="#333333" stroke-width="0.5" fill="#482777" /><path d="M 309.97 359.47 L 315.11 364.61 L 324.02 369.92 L 318.88 364.78000000000003 Z" stroke="#333333" stroke-width="0.5" fill="#433a83" /><path d="M 415.88 369.94 L 421.03000000000003 368.23 L 429.94 361.2 L 424.79 362.92 Z" stroke="#333333" stroke-width="0.5" fill="#433a83" /><path d="M 401.83 375.93 L 406.97 375.59000000000003 L 415.88 369.94 L 410.74 370.28000000000003 Z" stroke="#333333" stroke-width="0.5" fill="#45327e" /><path d="M 487.53000000000003 292.84000000000003 L 492.68 281.53000000000003 L 501.59000000000003 269.02 L 496.44 280.33 Z" stroke="#333333" stroke-width="0.5" fill="#23888d" /><path d="M 238.69 267.61 L 243.83 272.75 L 252.74 289.03000000000003 L 247.6 283.89 Z" stroke="#333333" stroke-width="0.5" fill="#228a8d" /><path d="M 429.94 361.2 L 435.08 358.12 L 443.99 349.72 L 438.85 352.81 Z" stroke="#333333" stroke-width="0.5" fill="#3f4688" /><path d="M 318.88 364.78000000000003 L 324.02 369.92 L 332.93 373.87 L 327.79 368.73 Z" stroke="#333333" stroke-width="0.5" fill="#443781" /><path d="M 387.77 379.19 L 392.92 380.22 L 401.83 375.93 L 396.68 374.91 Z" stroke="#333333" stroke-width="0.5" fill="#462e7c" /><path d="M 463.19 329.68 L 468.34000000000003 322.48 L 477.25 311.34000000000003 L 472.1 318.54 Z" stroke="#333333" stroke-width="0.5" fill="#30688e" /><path d="M 350.75 377.64 L 355.90000000000003 381.41 L 364.81 381.24 L 359.66 377.47 Z" stroke="#333333" stroke-width="0.5" fill="#462d7b" /><path d="M 443.99 349.72 L 449.14 345.27 L 458.05 335.5 L 452.90000000000003 339.96 Z" stroke="#333333" stroke-width="0.5" fill="#39548b" /><path d="M 229.78 249.96 L 234.92000000000002 255.1 L 243.83 272.75 L 238.69 267.61 Z" stroke="#333333" stroke-width="0.5" fill="#1e9a89" /><path d="M 482.39 302.78000000000003 L 487.53000000000003 292.84000000000003 L 496.44 280.33 L 491.3 290.27 Z" stroke="#333333" stroke-width="0.5" fill="#26818e" /><path d="M 373.72 379.7 L 378.86 382.1 L 387.77 379.19 L 382.63 376.79 Z" stroke="#333333" stroke-width="0.5" fill="#462e7c" /><path d="M 327.79 368.73 L 332.93 373.87 L 341.84000000000003 376.44 L 336.7 371.3 Z" stroke="#333333" stroke-width="0.5" fill="#443681" /><path d="M 269.18 317.99 L 274.33 324.51 L 283.24 335.3 L 278.09000000000003 328.79 Z" stroke="#333333" stroke-width="0.5" fill="#31648d" /><path d="M 278.09000000000003 328.79 L 283.24 335.3 L 292.15000000000003 344.73 L 287.0 338.22 Z" stroke="#333333" stroke-width="0.5" fill="#365b8c" /><path d="M 260.27 305.83 L 265.42 312.34000000000003 L 274.33 324.51 L 269.18 317.99 Z" stroke="#333333" stroke-width="0.5" fill="#2d6f8e" /><path d="M 287.0 338.22 L 292.15000000000003 344.73 L 301.06 352.78000000000003 L 295.91 346.27 Z" stroke="#333333" stroke-width="0.5" fill="#3a538b" /><path d="M 251.36 292.29 L 256.51 298.8 L 265.42 312.34000000000003 L 260.27 305.83 Z" stroke="#333333" stroke-width="0.5" fill="#287a8e" /><path d="M 458.05 335.5 L 463.19 329.68 L 472.1 318.54 L 466.96000000000004 324.37 Z" stroke="#333333" stroke-width="0.5" fill="#31658e" /><path d="M 220.87 230.94 L 226.01 236.08 L 234.92000000000002 255.1 L 229.78 249.96 Z" stroke="#333333" stroke-width="0.5" fill="#25ac81" /><path d="M 295.91 346.27 L 301.06 352.78000000000003 L 309.97 359.47 L 304.82 352.96 Z" stroke="#333333" stroke-width="0.5" fill="#3c4d8a" /><path d="M 410.74 370.28000000000003 L 415.88 369.94 L 424.79 362.92 L 419.65000000000003 363.26 Z" stroke="#333333" stroke-width="0.5" fill="#423f85" /><path d="M 477.25 311.34000000000003 L 482.39 302.78000000000003 L 491.3 290.27 L 486.16 298.84000000000003 Z" stroke="#333333" stroke-width="0.5" fill="#287c8e" /><path d="M 359.66 377.47 L 364.81 381.24 L 373.72 379.7 L 368.57 375.93 Z" stroke="#333333" stroke-width="0.5" fill="#45327e" /><path d="M 424.79 362.92 L 429.94 361.2 L 438.85 352.81 L 433.7 354.52 Z" stroke="#333333" stroke-width="0.5" fill="#3e4888" /><path d="M 396.68 374.91 L 401.83 375.93 L 410.74 370.28000000000003 L 405.59000000000003 369.25 Z" stroke="#333333" stroke-width="0.5" fill="#443983" /><path d="M 336.7 371.3 L 341.84000000000003 376.44 L 350.75 377.64 L 345.61 372.5 Z" stroke="#333333" stroke-width="0.5" fill="#443781" /><path d="M 242.45000000000002 277.38 L 247.6 283.89 L 256.51 298.8 L 251.36 292.29 Z" stroke="#333333" stroke-width="0.5" fill="#23878e" /><path d="M 304.82 352.96 L 309.97 359.47 L 318.88 364.78000000000003 L 313.74 358.27 Z" stroke="#333333" stroke-width="0.5" fill="#3e4888" /><path d="M 438.85 352.81 L 443.99 349.72 L 452.90000000000003 339.96 L 447.76 343.04 Z" stroke="#333333" stroke-width="0.5" fill="#39558b" /><path d="M 382.63 376.79 L 387.77 379.19 L 396.68 374.91 L 391.54 372.51 Z" stroke="#333333" stroke-width="0.5" fill="#443781" /><path d="M 233.54 261.1 L 238.69 267.61 L 247.6 283.89 L 242.45000000000002 277.38 Z" stroke="#333333" stroke-width="0.5" fill="#1f968a" /><path d="M 313.74 358.27 L 318.88 364.78000000000003 L 327.79 368.73 L 322.65000000000003 362.21 Z" stroke="#333333" stroke-width="0.5" fill="#3f4688" /><path d="M 472.1 318.54 L 477.25 311.34000000000003 L 486.16 298.84000000000003 L 481.01 306.03000000000003 Z" stroke="#333333" stroke-width="0.5" fill="#29788e" /><path d="M 345.61 372.5 L 350.75 377.64 L 359.66 377.47 L 354.52 372.33 Z" stroke="#333333" stroke-width="0.5" fill="#433a83" /><path d="M 452.90000000000003 339.96 L 458.05 335.5 L 466.96000000000004 324.37 L 461.81 328.82 Z" stroke="#333333" stroke-width="0.5" fill="#31648d" /><path d="M 368.57 375.93 L 373.72 379.7 L 382.63 376.79 L 377.49 373.02 Z" stroke="#333333" stroke-width="0.5" fill="#443983" /><path d="M 224.63 243.45000000000002 L 229.78 249.96 L 238.69 267.61 L 233.54 261.1 Z" stroke="#333333" stroke-width="0.5" fill="#21a684" /><path d="M 322.65000000000003 362.21 L 327.79 368.73 L 336.7 371.3 L 331.56 364.79 Z" stroke="#333333" stroke-width="0.5" fill="#404587" /><path d="M 419.65000000000003 363.26 L 424.79 362.92 L 433.7 354.52 L 428.56 354.86 Z" stroke="#333333" stroke-width="0.5" fill="#3c4d8a" /><path d="M 405.59000000000003 369.25 L 410.74 370.28000000000003 L 419.65000000000003 363.26 L 414.5 362.23 Z" stroke="#333333" stroke-width="0.5" fill="#3f4688" /><path d="M 264.04 310.11 L 269.18 317.99 L 278.09000000000003 328.79 L 272.95 320.91 Z" stroke="#333333" stroke-width="0.5" fill="#2c718e" /><path d="M 272.95 320.91 L 278.09000000000003 328.79 L 287.0 338.22 L 281.86 330.34000000000003 Z" stroke="#333333" stroke-width="0.5" fill="#2f698e" /><path d="M 433.7 354.52 L 438.85 352.81 L 447.76 343.04 L 442.61 344.76 Z" stroke="#333333" stroke-width="0.5" fill="#38588c" /><path d="M 391.54 372.51 L 396.68 374.91 L 405.59000000000003 369.25 L 400.45 366.85 Z" stroke="#333333" stroke-width="0.5" fill="#414186" /><path d="M 466.96000000000004 324.37 L 472.1 318.54 L 481.01 306.03000000000003 L 475.87 311.86 Z" stroke="#333333" stroke-width="0.5" fill="#2a758e" /><path d="M 255.13 297.94 L 260.27 305.83 L 269.18 317.99 L 264.04 310.11 Z" stroke="#333333" stroke-width="0.5" fill="#287c8e" /><path d="M 281.86 330.34000000000003 L 287.0 338.22 L 295.91 346.27 L 290.77 338.39 Z" stroke="#333333" stroke-width="0.5" fill="#33628d" /><path d="M 354.52 372.33 L 359.66 377.47 L 368.57 375.93 L 363.43 370.79 Z" stroke="#333333" stroke-width="0.5" fill="#423f85" /><path d="M 215.72 224.43 L 220.87 230.94 L 229.78 249.96 L 224.63 243.45000000000002 Z" stroke="#333333" stroke-width="0.5" fill="#35b778" /><path d="M 246.22 284.41 L 251.36 292.29 L 260.27 305.83 L 255.13 297.94 Z" stroke="#333333" stroke-width="0.5" fill="#23878e" /><path d="M 290.77 338.39 L 295.91 346.27 L 304.82 352.96 L 299.68 345.08 Z" stroke="#333333" stroke-width="0.5" fill="#355c8d" /><path d="M 331.56 364.79 L 336.7 371.3 L 345.61 372.5 L 340.47 365.99 Z" stroke="#333333" stroke-width="0.5" fill="#3f4688" /><path d="M 447.76 343.04 L 452.90000000000003 339.96 L 461.81 328.82 L 456.67 331.91 Z" stroke="#333333" stroke-width="0.5" fill="#31658e" /><path d="M 377.49 373.02 L 382.63 376.79 L 391.54 372.51 L 386.40000000000003 368.74 Z" stroke="#333333" stroke-width="0.5" fill="#414186" /><path d="M 237.31 269.5 L 242.45000000000002 277.38 L 251.36 292.29 L 246.22 284.41 Z" stroke="#333333" stroke-width="0.5" fill="#1f948b" /><path d="M 299.68 345.08 L 304.82 352.96 L 313.74 358.27 L 308.59000000000003 350.39 Z" stroke="#333333" stroke-width="0.5" fill="#38588c" /><path d="M 228.4 253.22 L 233.54 261.1 L 242.45000000000002 277.38 L 237.31 269.5 Z" stroke="#333333" stroke-width="0.5" fill="#1fa286" /><path d="M 461.81 328.82 L 466.96000000000004 324.37 L 475.87 311.86 L 470.72 316.32 Z" stroke="#333333" stroke-width="0.5" fill="#2a748e" /><path d="M 308.59000000000003 350.39 L 313.74 358.27 L 322.65000000000003 362.21 L 317.5 354.33 Z" stroke="#333333" stroke-width="0.5" fill="#39558b" /><path d="M 340.47 365.99 L 345.61 372.5 L 354.52 372.33 L 349.38 365.82 Z" stroke="#333333" stroke-width="0.5" fill="#3e4888" /><path d="M 363.43 370.79 L 368.57 375.93 L 377.49 373.02 L 372.34000000000003 367.88 Z" stroke="#333333" stroke-width="0.5" fill="#3f4688" /><path d="M 414.5 362.23 L 419.65000000000003 363.26 L 428.56 354.86 L 423.41 353.84000000000003 Z" stroke="#333333" stroke-width="0.5" fill="#3a538b" /><path d="M 428.56 354.86 L 433.7 354.52 L 442.61 344.76 L 437.47 345.1 Z" stroke="#333333" stroke-width="0.5" fill="#355c8d" /><path d="M 400.45 366.85 L 405.59000000000003 369.25 L 414.5 362.23 L 409.36 359.83 Z" stroke="#333333" stroke-width="0.5" fill="#3c4e8a" /><path d="M 219.49 235.57 L 224.63 243.45000000000002 L 233.54 261.1 L 228.4 253.22 Z" stroke="#333333" stroke-width="0.5" fill="#2eb37c" /><path d="M 442.61 344.76 L 447.76 343.04 L 456.67 331.91 L 451.52 333.62 Z" stroke="#333333" stroke-width="0.5" fill="#30688e" /><path d="M 317.5 354.33 L 322.65000000000003 362.21 L 331.56 364.79 L 326.41 356.90000000000003 Z" stroke="#333333" stroke-width="0.5" fill="#39548b" /><path d="M 386.40000000000003 368.74 L 391.54 372.51 L 400.45 366.85 L 395.31 363.08 Z" stroke="#333333" stroke-width="0.5" fill="#3d4c89" /><path d="M 349.38 365.82 L 354.52 372.33 L 363.43 370.79 L 358.29 364.28000000000003 Z" stroke="#333333" stroke-width="0.5" fill="#3c4d8a" /><path d="M 258.9 300.86 L 264.04 310.11 L 272.95 320.91 L 267.81 311.66 Z" stroke="#333333" stroke-width="0.5" fill="#26818e" /><path d="M 267.81 311.66 L 272.95 320.91 L 281.86 330.34000000000003 L 276.72 321.08 Z" stroke="#333333" stroke-width="0.5" fill="#29788e" /><path d="M 249.99 288.69 L 255.13 297.94 L 264.04 310.11 L 258.9 300.86 Z" stroke="#333333" stroke-width="0.5" fill="#228a8d" /><path d="M 456.67 331.91 L 461.81 328.82 L 470.72 316.32 L 465.58 319.40000000000003 Z" stroke="#333333" stroke-width="0.5" fill="#2a758e" /><path d="M 210.58 216.54 L 215.72 224.43 L 224.63 243.45000000000002 L 219.49 235.57 Z" stroke="#333333" stroke-width="0.5" fill="#4dc26b" /><path d="M 276.72 321.08 L 281.86 330.34000000000003 L 290.77 338.39 L 285.63 329.14 Z" stroke="#333333" stroke-width="0.5" fill="#2c718e" /><path d="M 372.34000000000003 367.88 L 377.49 373.02 L 386.40000000000003 368.74 L 381.25 363.6 Z" stroke="#333333" stroke-width="0.5" fill="#3c4e8a" /><path d="M 326.41 356.90000000000003 L 331.56 364.79 L 340.47 365.99 L 335.32 358.11 Z" stroke="#333333" stroke-width="0.5" fill="#39558b" /><path d="M 241.07 275.15000000000003 L 246.22 284.41 L 255.13 297.94 L 249.99 288.69 Z" stroke="#333333" stroke-width="0.5" fill="#1f968a" /><path d="M 285.63 329.14 L 290.77 338.39 L 299.68 345.08 L 294.54 335.82 Z" stroke="#333333" stroke-width="0.5" fill="#2e6c8e" /><path d="M 232.16 260.24 L 237.31 269.5 L 246.22 284.41 L 241.07 275.15000000000003 Z" stroke="#333333" stroke-width="0.5" fill="#1fa286" /><path d="M 423.41 353.84000000000003 L 428.56 354.86 L 437.47 345.1 L 432.32 344.07 Z" stroke="#333333" stroke-width="0.5" fill="#33628d" /><path d="M 294.54 335.82 L 299.68 345.08 L 308.59000000000003 350.39 L 303.45 341.14 Z" stroke="#333333" stroke-width="0.5" fill="#30688e" /><path d="M 409.36 359.83 L 414.5 362.23 L 423.41 353.84000000000003 L 418.27 351.44 Z" stroke="#333333" stroke-width="0.5" fill="#365b8c" /><path d="M 437.47 345.1 L 442.61 344.76 L 451.52 333.62 L 446.38 333.96 Z" stroke="#333333" stroke-width="0.5" fill="#2e6c8e" /><path d="M 395.31 363.08 L 400.45 366.85 L 409.36 359.83 L 404.22 356.06 Z" stroke="#333333" stroke-width="0.5" fill="#38588c" /><path d="M 358.29 364.28000000000003 L 363.43 370.79 L 372.34000000000003 367.88 L 367.2 361.37 Z" stroke="#333333" stroke-width="0.5" fill="#3a538b" /><path d="M 223.25 243.96 L 228.4 253.22 L 237.31 269.5 L 232.16 260.24 Z" stroke="#333333" stroke-width="0.5" fill="#2cb17d" /><path d="M 335.32 358.11 L 340.47 365.99 L 349.38 365.82 L 344.23 357.94 Z" stroke="#333333" stroke-width="0.5" fill="#38588c" /><path d="M 303.45 341.14 L 308.59000000000003 350.39 L 317.5 354.33 L 312.36 345.08 Z" stroke="#333333" stroke-width="0.5" fill="#31658e" /><path d="M 451.52 333.62 L 456.67 331.91 L 465.58 319.40000000000003 L 460.43 321.11 Z" stroke="#333333" stroke-width="0.5" fill="#29788e" /><path d="M 381.25 363.6 L 386.40000000000003 368.74 L 395.31 363.08 L 390.16 357.94 Z" stroke="#333333" stroke-width="0.5" fill="#38588c" /><path d="M 214.34 226.31 L 219.49 235.57 L 228.4 253.22 L 223.25 243.96 Z" stroke="#333333" stroke-width="0.5" fill="#47c06e" /><path d="M 312.36 345.08 L 317.5 354.33 L 326.41 356.90000000000003 L 321.27 347.65000000000003 Z" stroke="#333333" stroke-width="0.5" fill="#31648d" /><path d="M 344.23 357.94 L 349.38 365.82 L 358.29 364.28000000000003 L 353.14 356.40000000000003 Z" stroke="#333333" stroke-width="0.5" fill="#355c8d" /><path d="M 367.2 361.37 L 372.34000000000003 367.88 L 381.25 363.6 L 376.11 357.09000000000003 Z" stroke="#333333" stroke-width="0.5" fill="#365b8c" /><path d="M 205.43 207.29 L 210.58 216.54 L 219.49 235.57 L 214.34 226.31 Z" stroke="#333333" stroke-width="0.5" fill="#6ece57" /><path d="M 253.75 290.24 L 258.9 300.86 L 267.81 311.66 L 262.66 301.03000000000003 Z" stroke="#333333" stroke-width="0.5" fill="#20918c" /><path d="M 262.66 301.03000000000003 L 267.81 311.66 L 276.72 321.08 L 271.57 310.46 Z" stroke="#333333" stroke-width="0.5" fill="#23888d" /><path d="M 418.27 351.44 L 423.41 353.84000000000003 L 432.32 344.07 L 427.18 341.67 Z" stroke="#333333" stroke-width="0.5" fill="#2f698e" /><path d="M 244.84 278.07 L 249.99 288.69 L 258.9 300.86 L 253.75 290.24 Z" stroke="#333333" stroke-width="0.5" fill="#1e9a89" /><path d="M 271.57 310.46 L 276.72 321.08 L 285.63 329.14 L 280.48 318.51 Z" stroke="#333333" stroke-width="0.5" fill="#26818e" /><path d="M 432.32 344.07 L 437.47 345.1 L 446.38 333.96 L 441.24 332.93 Z" stroke="#333333" stroke-width="0.5" fill="#2c718e" /><path d="M 404.22 356.06 L 409.36 359.83 L 418.27 351.44 L 413.13 347.67 Z" stroke="#333333" stroke-width="0.5" fill="#31648d" /><path d="M 321.27 347.65000000000003 L 326.41 356.90000000000003 L 335.32 358.11 L 330.18 348.85 Z" stroke="#333333" stroke-width="0.5" fill="#31658e" /><path d="M 235.93 264.53000000000003 L 241.07 275.15000000000003 L 249.99 288.69 L 244.84 278.07 Z" stroke="#333333" stroke-width="0.5" fill="#21a684" /><path d="M 280.48 318.51 L 285.63 329.14 L 294.54 335.82 L 289.39 325.2 Z" stroke="#333333" stroke-width="0.5" fill="#287c8e" /><path d="M 446.38 333.96 L 451.52 333.62 L 460.43 321.11 L 455.29 321.46 Z" stroke="#333333" stroke-width="0.5" fill="#287c8e" /><path d="M 390.16 357.94 L 395.31 363.08 L 404.22 356.06 L 399.07 350.92 Z" stroke="#333333" stroke-width="0.5" fill="#32638d" /><path d="M 227.02 249.62 L 232.16 260.24 L 241.07 275.15000000000003 L 235.93 264.53000000000003 Z" stroke="#333333" stroke-width="0.5" fill="#2eb37c" /><path d="M 289.39 325.2 L 294.54 335.82 L 303.45 341.14 L 298.3 330.51 Z" stroke="#333333" stroke-width="0.5" fill="#29788e" /><path d="M 353.14 356.40000000000003 L 358.29 364.28000000000003 L 367.2 361.37 L 362.05 353.49 Z" stroke="#333333" stroke-width="0.5" fill="#33628d" /><path d="M 330.18 348.85 L 335.32 358.11 L 344.23 357.94 L 339.09000000000003 348.68 Z" stroke="#333333" stroke-width="0.5" fill="#30688e" /><path d="M 218.11 233.34 L 223.25 243.96 L 232.16 260.24 L 227.02 249.62 Z" stroke="#333333" stroke-width="0.5" fill="#47c06e" /><path d="M 376.11 357.09000000000003 L 381.25 363.6 L 390.16 357.94 L 385.02 351.43 Z" stroke="#333333" stroke-width="0.5" fill="#31648d" /><path d="M 298.3 330.51 L 303.45 341.14 L 312.36 345.08 L 307.21 334.46 Z" stroke="#333333" stroke-width="0.5" fill="#2a758e" /><path d="M 209.20000000000002 215.69 L 214.34 226.31 L 223.25 243.96 L 218.11 233.34 Z" stroke="#333333" stroke-width="0.5" fill="#6bcd5a" /><path d="M 427.18 341.67 L 432.32 344.07 L 441.24 332.93 L 436.09000000000003 330.54 Z" stroke="#333333" stroke-width="0.5" fill="#29788e" /><path d="M 413.13 347.67 L 418.27 351.44 L 427.18 341.67 L 422.04 337.90000000000003 Z" stroke="#333333" stroke-width="0.5" fill="#2c718e" /><path d="M 307.21 334.46 L 312.36 345.08 L 321.27 347.65000000000003 L 316.12 337.03000000000003 Z" stroke="#333333" stroke-width="0.5" fill="#2a748e" /><path d="M 339.09000000000003 348.68 L 344.23 357.94 L 353.14 356.40000000000003 L 348.0 347.14 Z" stroke="#333333" stroke-width="0.5" fill="#2e6c8e" /><path d="M 362.05 353.49 L 367.2 361.37 L 376.11 357.09000000000003 L 370.96 349.2 Z" stroke="#333333" stroke-width="0.5" fill="#2f698e" /><path d="M 441.24 332.93 L 446.38 333.96 L 455.29 321.46 L 450.15000000000003 320.43 Z" stroke="#333333" stroke-width="0.5" fill="#26818e" /><path d="M 399.07 350.92 L 404.22 356.06 L 413.13 347.67 L 407.98 342.53000000000003 Z" stroke="#333333" stroke-width="0.5" fill="#2d6f8e" /><path d="M 200.29 196.67000000000002 L 205.43 207.29 L 214.34 226.31 L 209.20000000000002 215.69 Z" stroke="#333333" stroke-width="0.5" fill="#99d83c" /><path d="M 248.61 278.24 L 253.75 290.24 L 262.66 301.03000000000003 L 257.52 289.04 Z" stroke="#333333" stroke-width="0.5" fill="#1fa286" /><path d="M 257.52 289.04 L 262.66 301.03000000000003 L 271.57 310.46 L 266.43 298.46 Z" stroke="#333333" stroke-width="0.5" fill="#1e9a89" /><path d="M 316.12 337.03000000000003 L 321.27 347.65000000000003 L 330.18 348.85 L 325.03000000000003 338.23 Z" stroke="#333333" stroke-width="0.5" fill="#2a758e" /><path d="M 385.02 351.43 L 390.16 357.94 L 399.07 350.92 L 393.93 344.41 Z" stroke="#333333" stroke-width="0.5" fill="#2d6f8e" /><path d="M 239.70000000000002 266.07 L 244.84 278.07 L 253.75 290.24 L 248.61 278.24 Z" stroke="#333333" stroke-width="0.5" fill="#25ac81" /><path d="M 266.43 298.46 L 271.57 310.46 L 280.48 318.51 L 275.34000000000003 306.52 Z" stroke="#333333" stroke-width="0.5" fill="#1f928c" /><path d="M 230.79 252.54 L 235.93 264.53000000000003 L 244.84 278.07 L 239.70000000000002 266.07 Z" stroke="#333333" stroke-width="0.5" fill="#35b778" /><path d="M 275.34000000000003 306.52 L 280.48 318.51 L 289.39 325.2 L 284.25 313.2 Z" stroke="#333333" stroke-width="0.5" fill="#218e8d" /><path d="M 348.0 347.14 L 353.14 356.40000000000003 L 362.05 353.49 L 356.91 344.23 Z" stroke="#333333" stroke-width="0.5" fill="#2c718e" /><path d="M 221.88 237.63 L 227.02 249.62 L 235.93 264.53000000000003 L 230.79 252.54 Z" stroke="#333333" stroke-width="0.5" fill="#4dc26b" /><path d="M 284.25 313.2 L 289.39 325.2 L 298.3 330.51 L 293.16 318.52 Z" stroke="#333333" stroke-width="0.5" fill="#22898d" /><path d="M 370.96 349.2 L 376.11 357.09000000000003 L 385.02 351.43 L 379.87 343.55 Z" stroke="#333333" stroke-width="0.5" fill="#2c718e" /><path d="M 325.03000000000003 338.23 L 330.18 348.85 L 339.09000000000003 348.68 L 333.94 338.06 Z" stroke="#333333" stroke-width="0.5" fill="#29788e" /><path d="M 212.97 221.35 L 218.11 233.34 L 227.02 249.62 L 221.88 237.63 Z" stroke="#333333" stroke-width="0.5" fill="#6ece57" /><path d="M 422.04 337.90000000000003 L 427.18 341.67 L 436.09000000000003 330.54 L 430.95 326.77 Z" stroke="#333333" stroke-width="0.5" fill="#26818e" /><path d="M 436.09000000000003 330.54 L 441.24 332.93 L 450.15000000000003 320.43 L 445.0 318.03000000000003 Z" stroke="#333333" stroke-width="0.5" fill="#23888d" /><path d="M 293.16 318.52 L 298.3 330.51 L 307.21 334.46 L 302.07 322.46 Z" stroke="#333333" stroke-width="0.5" fill="#23878e" /><path d="M 407.98 342.53000000000003 L 413.13 347.67 L 422.04 337.90000000000003 L 416.89 332.76 Z" stroke="#333333" stroke-width="0.5" fill="#287c8e" /><path d="M 393.93 344.41 L 399.07 350.92 L 407.98 342.53000000000003 L 402.84000000000003 336.02 Z" stroke="#333333" stroke-width="0.5" fill="#287a8e" /><path d="M 204.06 203.69 L 209.20000000000002 215.69 L 218.11 233.34 L 212.97 221.35 Z" stroke="#333333" stroke-width="0.5" fill="#99d83c" /><path d="M 356.91 344.23 L 362.05 353.49 L 370.96 349.2 L 365.82 339.95 Z" stroke="#333333" stroke-width="0.5" fill="#29788e" /><path d="M 302.07 322.46 L 307.21 334.46 L 316.12 337.03000000000003 L 310.98 325.03000000000003 Z" stroke="#333333" stroke-width="0.5" fill="#23868d" /><path d="M 333.94 338.06 L 339.09000000000003 348.68 L 348.0 347.14 L 342.85 336.52 Z" stroke="#333333" stroke-width="0.5" fill="#287c8e" /><path d="M 379.87 343.55 L 385.02 351.43 L 393.93 344.41 L 388.78000000000003 336.53000000000003 Z" stroke="#333333" stroke-width="0.5" fill="#287c8e" /><path d="M 195.15 184.67000000000002 L 200.29 196.67000000000002 L 209.20000000000002 215.69 L 204.06 203.69 Z" stroke="#333333" stroke-width="0.5" fill="#cbe01e" /><path d="M 310.98 325.03000000000003 L 316.12 337.03000000000003 L 325.03000000000003 338.23 L 319.89 326.23 Z" stroke="#333333" stroke-width="0.5" fill="#23878e" /><path d="M 342.85 336.52 L 348.0 347.14 L 356.91 344.23 L 351.76 333.61 Z" stroke="#333333" stroke-width="0.5" fill="#26818e" /><path d="M 430.95 326.77 L 436.09000000000003 330.54 L 445.0 318.03000000000003 L 439.86 314.26 Z" stroke="#333333" stroke-width="0.5" fill="#20918c" /><path d="M 416.89 332.76 L 422.04 337.90000000000003 L 430.95 326.77 L 425.8 321.63 Z" stroke="#333333" stroke-width="0.5" fill="#228a8d" /><path d="M 365.82 339.95 L 370.96 349.2 L 379.87 343.55 L 374.73 334.3 Z" stroke="#333333" stroke-width="0.5" fill="#26818e" /><path d="M 402.84000000000003 336.02 L 407.98 342.53000000000003 L 416.89 332.76 L 411.75 326.25 Z" stroke="#333333" stroke-width="0.5" fill="#23878e" /><path d="M 319.89 326.23 L 325.03000000000003 338.23 L 333.94 338.06 L 328.8 326.07 Z" stroke="#333333" stroke-width="0.5" fill="#22898d" /><path d="M 388.78000000000003 336.53000000000003 L 393.93 344.41 L 402.84000000000003 336.02 L 397.69 328.13 Z" stroke="#333333" stroke-width="0.5" fill="#23878e" /><path d="M 351.76 333.61 L 356.91 344.23 L 365.82 339.95 L 360.67 329.33 Z" stroke="#333333" stroke-width="0.5" fill="#23888d" /><path d="M 328.8 326.07 L 333.94 338.06 L 342.85 336.52 L 337.71 324.53000000000003 Z" stroke="#333333" stroke-width="0.5" fill="#218e8d" /><path d="M 374.73 334.3 L 379.87 343.55 L 388.78000000000003 336.53000000000003 L 383.64 327.27 Z" stroke="#333333" stroke-width="0.5" fill="#228a8d" /><path d="M 425.8 321.63 L 430.95 326.77 L 439.86 314.26 L 434.71000000000004 309.12 Z" stroke="#333333" stroke-width="0.5" fill="#1e9a89" /><path d="M 411.75 326.25 L 416.89 332.76 L 425.8 321.63 L 420.66 315.11 Z" stroke="#333333" stroke-width="0.5" fill="#1f968a" /><path d="M 397.69 328.13 L 402.84000000000003 336.02 L 411.75 326.25 L 406.6 318.37 Z" stroke="#333333" stroke-width="0.5" fill="#1f948b" /><path d="M 337.71 324.53000000000003 L 342.85 336.52 L 351.76 333.61 L 346.62 321.61 Z" stroke="#333333" stroke-width="0.5" fill="#1f928c" /><path d="M 360.67 329.33 L 365.82 339.95 L 374.73 334.3 L 369.58 323.67 Z" stroke="#333333" stroke-width="0.5" fill="#20918c" /><path d="M 383.64 327.27 L 388.78000000000003 336.53000000000003 L 397.69 328.13 L 392.55 318.88 Z" stroke="#333333" stroke-width="0.5" fill="#1f968a" /><path d="M 346.62 321.61 L 351.76 333.61 L 360.67 329.33 L 355.53000000000003 317.33 Z" stroke="#333333" stroke-width="0.5" fill="#1e9a89" /><path d="M 369.58 323.67 L 374.73 334.3 L 383.64 327.27 L 378.49 316.65000000000003 Z" stroke="#333333" stroke-width="0.5" fill="#1e9a89" /><path d="M 420.66 315.11 L 425.8 321.63 L 434.71000000000004 309.12 L 429.57 302.61 Z" stroke="#333333" stroke-width="0.5" fill="#21a684" /><path d="M 406.6 318.37 L 411.75 326.25 L 420.66 315.11 L 415.51 307.23 Z" stroke="#333333" stroke-width="0.5" fill="#1fa286" /><path d="M 392.55 318.88 L 397.69 328.13 L 406.6 318.37 L 401.46000000000004 309.12 Z" stroke="#333333" stroke-width="0.5" fill="#1fa286" /><path d="M 355.53000000000003 317.33 L 360.67 329.33 L 369.58 323.67 L 364.44 311.68 Z" stroke="#333333" stroke-width="0.5" fill="#1fa286" /><path d="M 378.49 316.65000000000003 L 383.64 327.27 L 392.55 318.88 L 387.40000000000003 308.26 Z" stroke="#333333" stroke-width="0.5" fill="#21a684" /><path d="M 415.51 307.23 L 420.66 315.11 L 429.57 302.61 L 424.42 294.73 Z" stroke="#333333" stroke-width="0.5" fill="#2eb37c" /><path d="M 364.44 311.68 L 369.58 323.67 L 378.49 316.65000000000003 L 373.35 304.66 Z" stroke="#333333" stroke-width="0.5" fill="#25ac81" /><path d="M 401.46000000000004 309.12 L 406.6 318.37 L 415.51 307.23 L 410.37 297.98 Z" stroke="#333333" stroke-width="0.5" fill="#2cb17d" /><path d="M 387.40000000000003 308.26 L 392.55 318.88 L 401.46000000000004 309.12 L 396.31 298.49 Z" stroke="#333333" stroke-width="0.5" fill="#2eb37c" /><path d="M 373.35 304.66 L 378.49 316.65000000000003 L 387.40000000000003 308.26 L 382.26 296.26 Z" stroke="#333333" stroke-width="0.5" fill="#35b778" /><path d="M 410.37 297.98 L 415.51 307.23 L 424.42 294.73 L 419.28000000000003 285.47 Z" stroke="#333333" stroke-width="0.5" fill="#47c06e" /><path d="M 396.31 298.49 L 401.46000000000004 309.12 L 410.37 297.98 L 405.22 287.36 Z" stroke="#333333" stroke-width="0.5" fill="#47c06e" /><path d="M 382.26 296.26 L 387.40000000000003 308.26 L 396.31 298.49 L 391.17 286.5 Z" stroke="#333333" stroke-width="0.5" fill="#4dc26b" /><path d="M 405.22 287.36 L 410.37 297.98 L 419.28000000000003 285.47 L 414.14 274.85 Z" stroke="#333333" stroke-width="0.5" fill="#6bcd5a" /><path d="M 391.17 286.5 L 396.31 298.49 L 405.22 287.36 L 400.08 275.36 Z" stroke="#333333" stroke-width="0.5" fill="#6ece57" /><path d="M 400.08 275.36 L 405.22 287.36 L 414.14 274.85 L 408.99 262.85 Z" stroke="#333333" stroke-width="0.5" fill="#99d83c" /><rect x="702.8000000000001" y="89" width="20" height="7.7" fill="#fde725" /><rect x="702.8000000000001" y="96.2" width="20" height="7.7" fill="#f0e51c" /><rect x="702.8000000000001" y="103.4" width="20" height="7.7" fill="#e3e318" /><rect x="702.8000000000001" y="110.60000000000001" width="20" height="7.7" fill="#d6e219" /><rect x="702.8000000000001" y="117.8" width="20" height="7.7" fill="#c8e01f" /><rect x="702.8000000000001" y="125" width="20" height="7.7" fill="#bade27" /><rect x="702.8000000000001" y="132.2" width="20" height="7.7" fill="#acdc30" /><rect x="702.8000000000001" y="139.4" width="20" height="7.7" fill="#9ed939" /><rect x="702.8000000000001" y="146.6" width="20" height="7.7" fill="#91d642" /><rect x="702.8000000000001" y="153.8" width="20" height="7.7" fill="#84d44a" /><rect x="702.8000000000001" y="161" width="20" height="7.7" fill="#77d052" /><rect x="702.8000000000001" y="168.20000000000002" width="20" height="7.7" fill="#6bcd5a" /><rect x="702.8000000000001" y="175.4" width="20" height="7.7" fill="#5fc960" /><rect x="702.8000000000001" y="182.6" width="20" height="7.7" fill="#54c567" /><rect x="702.8000000000001" y="189.8" width="20" height="7.7" fill="#4ac16c" /><rect x="702.8000000000001" y="197" width="20" height="7.7" fill="#40bc72" /><rect x="702.8000000000001" y="204.20000000000002" width="20" height="7.7" fill="#37b877" /><rect x="702.8000000000001" y="211.4" width="20" height="7.7" fill="#30b47b" /><rect x="702.8000000000001" y="218.6" width="20" height="7.7" fill="#29af7f" /><rect x="702.8000000000001" y="225.8" width="20" height="7.7" fill="#24ab82" /><rect x="702.8000000000001" y="233" width="20" height="7.7" fill="#21a585" /><rect x="702.8000000000001" y="240.20000000000002" width="20" height="7.7" fill="#1fa187" /><rect x="702.8000000000001" y="247.4" width="20" height="7.7" fill="#1e9c89" /><rect x="702.8000000000001" y="254.6" width="20" height="7.7" fill="#1f978a" /><rect x="702.8000000000001" y="261.8" width="20" height="7.7" fill="#1f928c" /><rect x="702.8000000000001" y="269" width="20" height="7.7" fill="#218d8d" /><rect x="702.8000000000001" y="276.2" width="20" height="7.7" fill="#23888d" /><rect x="702.8000000000001" y="283.40000000000003" width="20" height="7.7" fill="#25838e" /><rect x="702.8000000000001" y="290.6" width="20" height="7.7" fill="#267f8d" /><rect x="702.8000000000001" y="297.8" width="20" height="7.7" fill="#287a8e" /><rect x="702.8000000000001" y="305" width="20" height="7.7" fill="#2a748d" /><rect x="702.8000000000001" y="312.2" width="20" height="7.7" fill="#2c708e" /><rect x="702.8000000000001" y="319.40000000000003" width="20" height="7.7" fill="#2f6b8e" /><rect x="702.8000000000001" y="326.6" width="20" height="7.7" fill="#31668e" /><rect x="702.8000000000001" y="333.8" width="20" height="7.7" fill="#33618c" /><rect x="702.8000000000001" y="341" width="20" height="7.7" fill="#365b8c" /><rect x="702.8000000000001" y="348.2" width="20" height="7.7" fill="#38558c" /><rect x="702.8000000000001" y="355.40000000000003" width="20" height="7.7" fill="#3b508a" /><rect x="702.8000000000001" y="362.6" width="20" height="7.7" fill="#3d4a89" /><rect x="702.8000000000001" y="369.8" width="20" height="7.7" fill="#404587" /><rect x="702.8000000000001" y="377" width="20" height="7.7" fill="#423e85" /><rect x="702.8000000000001" y="384.2" width="20" height="7.7" fill="#443882" /><rect x="702.8000000000001" y="391.40000000000003" width="20" height="7.7" fill="#46327e" /><rect x="702.8000000000001" y="398.6" width="20" height="7.7" fill="#472c7a" /><rect x="702.8000000000001" y="405.8" width="20" height="7.7" fill="#482576" /><rect x="702.8000000000001" y="413" width="20" height="7.7" fill="#471e6f" /><rect x="702.8000000000001" y="420.2" width="20" height="7.7" fill="#481769" /><rect x="702.8000000000001" y="427.40000000000003" width="20" height="7.7" fill="#471063" /><rect x="702.8000000000001" y="434.6" width="20" height="7.7" fill="#46085c" /><rect x="702.8000000000001" y="441.8" width="20" height="7.7" fill="#440154" /><rect x="702.8000000000001" y="89" width="20" height="360" fill="none" stroke="#000000" stroke-width="1" /><line x1="722.8000000000001" y1="359.43" x2="726.8000000000001" y2="359.43" stroke="#000000" stroke-width="1" /><text x="727.8000000000001" y="363.43" font-size="12" text-anchor="start">2</text><line x1="722.8000000000001" y1="269.29" x2="726.8000000000001" y2="269.29" stroke="#000000" stroke-width="1" /><text x="727.8000000000001" y="273.29" font-size="12" text-anchor="start">4</text><line x1="722.8000000000001" y1="179.14000000000001" x2="726.8000000000001" y2="179.14000000000001" stroke="#000000" stroke-width="1" /><text x="727.8000000000001" y="183.14000000000001" font-size="12" text-anchor="start">6</text><line x1="722.8000000000001" y1="89" x2="726.8000000000001" y2="89" stroke="#000000" stroke-width="1" /><text x="727.8000000000001" y="93" font-size="12" text-anchor="start">8</text><text x="692.8000000000001" y="269" font-size="12" text-anchor="middle" transform="rotate(-90,692.8000000000001,269)">Z</text></svg>