<svg xmlns="http://www.w3.org/2000/svg" width="686.2" height="545" font-family="DejaVu Sans, Liberation Sans, Arial, sans-serif" fill="black"><rect width="100%" height="100%" fill="white" /><text x="372.2" y="22" font-size="18" text-anchor="middle">Rectangular Tree</text><line x1="97.2" y1="149" x2="349.7" y2="149" stroke="#000000" stroke-width="1.5" /><line x1="349.7" y1="109" x2="602.2" y2="109" stroke="#000000" stroke-width="1.5" /><line x1="349.7" y1="189" x2="602.2" y2="189" stroke="#000000" stroke-width="1.5" /><line x1="97.2" y1="309" x2="349.7" y2="309" stroke="#000000" stroke-width="1.5" /><line x1="349.7" y1="269" x2="602.2" y2="269" stroke="#000000" stroke-width="1.5" /><line x1="349.7" y1="349" x2="602.2" y2="349" stroke="#000000" stroke-width="1.5" /><line x1="97.2" y1="429" x2="602.2" y2="429" stroke="#000000" stroke-width="1.5" /><line x1="97.2" y1="149" x2="97.2" y2="429" stroke="#000000" stroke-width="1.5" /><line x1="349.7" y1="109" x2="349.7" y2="189" stroke="#000000" stroke-width="1.5" /><line x1="349.7" y1="269" x2="349.7" y2="349" stroke="#000000" stroke-width="1.5" /><circle cx="97.2" cy="295.67" r="3" fill="#000000" /><text x="608.2" y="109" font-size="11" text-anchor="start">TaxonA</text><text x="608.2" y="189" font-size="11" text-anchor="start">TaxonB</text><text x="608.2" y="269" font-size="11" text-anchor="start">TaxonC</text><text x="608.2" y="349" font-size="11" text-anchor="start">TaxonD</text><text x="608.2" y="429" font-size="11" text-anchor="start">TaxonE</text><text x="351.7" y="147" font-size="10" text-anchor="start">95</text><text x="351.7" y="307" font-size="10" text-anchor="start">88</text></svg>