<svg xmlns="http://www.w3.org/2000/svg" width="673.4" height="545" font-family="DejaVu Sans, Liberation Sans, Arial, sans-serif" fill="black"><rect width="100%" height="100%" fill="white" /><text x="359" y="22" font-size="18" text-anchor="middle">Circular Tree — 20 Taxa</text><line x1="359" y1="269" x2="334.98" y2="286.45" stroke="#000000" stroke-width="1.5" /><line x1="368.18" y1="297.24" x2="386.53000000000003" y2="353.72" stroke="#000000" stroke-width="1.5" /><line x1="431.06" y1="321.36" x2="467.1" y2="347.54" stroke="#000000" stroke-width="1.5" /><line x1="486.08" y1="310.29" x2="519.96" y2="321.3" stroke="#000000" stroke-width="1.5" /><line x1="526.16" y1="295.48" x2="540.83" y2="297.8" stroke="#000000" stroke-width="1.5" /><line x1="509.8" y1="345.84000000000003" x2="530.96" y2="356.62" stroke="#000000" stroke-width="1.5" /><line x1="437.54" y1="377.1" x2="454.99" y2="401.12" stroke="#000000" stroke-width="1.5" /><line x1="474.48" y1="384.48" x2="489.17" y2="399.17" stroke="#000000" stroke-width="1.5" /><line x1="433.14" y1="414.51" x2="441.23" y2="430.38" stroke="#000000" stroke-width="1.5" /><line x1="331.47" y1="353.72" x2="320.46" y2="387.6" stroke="#000000" stroke-width="1.5" /><line x1="359" y1="393.71000000000004" x2="359" y2="417.46000000000004" stroke="#000000" stroke-width="1.5" /><line x1="382.22" y1="415.63" x2="386.40000000000003" y2="442.03000000000003" stroke="#000000" stroke-width="1.5" /><line x1="335.78000000000003" y1="415.63" x2="330.67" y2="447.89" stroke="#000000" stroke-width="1.5" /><line x1="285.7" y1="369.89" x2="263.01" y2="401.12" stroke="#000000" stroke-width="1.5" /><line x1="284.86" y1="414.51" x2="276.77" y2="430.38" stroke="#000000" stroke-width="1.5" /><line x1="243.52" y1="384.48" x2="222.53" y2="405.47" stroke="#000000" stroke-width="1.5" /><line x1="334.98" y1="251.55" x2="291.74" y2="220.13" stroke="#000000" stroke-width="1.5" /><line x1="275.86" y1="269" x2="231.32" y2="269" stroke="#000000" stroke-width="1.5" /><line x1="237.57" y1="308.45" x2="209.33" y2="317.63" stroke="#000000" stroke-width="1.5" /><line x1="218.78" y1="340.44" x2="197.62" y2="351.23" stroke="#000000" stroke-width="1.5" /><line x1="203.57" y1="293.62" x2="168.38" y2="299.19" stroke="#000000" stroke-width="1.5" /><line x1="237.57" y1="229.55" x2="206.51" y2="219.45000000000002" stroke="#000000" stroke-width="1.5" /><line x1="200.64000000000001" y1="243.92000000000002" x2="185.97" y2="241.6" stroke="#000000" stroke-width="1.5" /><line x1="216.14000000000001" y1="196.21" x2="192.33" y2="184.08" stroke="#000000" stroke-width="1.5" /><line x1="333.31" y1="189.93" x2="320.46" y2="150.4" stroke="#000000" stroke-width="1.5" /><line x1="285.7" y1="168.11" x2="269.99" y2="146.49" stroke="#000000" stroke-width="1.5" /><line x1="251.92000000000002" y1="161.92000000000002" x2="237.23000000000002" y2="147.23" stroke="#000000" stroke-width="1.5" /><line x1="290.25" y1="134.07" x2="279.47" y2="112.91" stroke="#000000" stroke-width="1.5" /><line x1="359" y1="144.29" x2="359" y2="108.66" stroke="#000000" stroke-width="1.5" /><line x1="333.92" y1="110.64" x2="329.27" y2="81.31" stroke="#000000" stroke-width="1.5" /><line x1="384.08" y1="110.64" x2="386.87" y2="93.04" stroke="#000000" stroke-width="1.5" /><line x1="359" y1="269" x2="419.05" y2="225.37" stroke="#000000" stroke-width="1.5" /><line x1="402.63" y1="208.95000000000002" x2="437.54" y2="160.9" stroke="#000000" stroke-width="1.5" /><line x1="419.66" y1="149.95000000000002" x2="439.88" y2="110.26" stroke="#000000" stroke-width="1.5" /><line x1="453.48" y1="174.52" x2="478.68" y2="149.32" stroke="#000000" stroke-width="1.5" /><line x1="429.6" y1="246.06" x2="480.43" y2="229.55" stroke="#000000" stroke-width="1.5" /><line x1="472.76" y1="211.04" x2="493.93" y2="200.25" stroke="#000000" stroke-width="1.5" /><line x1="485.11" y1="249.03" x2="514.4300000000001" y2="244.38" stroke="#000000" stroke-width="1.5" /><path d="M 368.175 297.239 A 29.692 29.692 0 0 1 334.978 251.547" stroke="#000000" stroke-width="1.5" fill="none" /><path d="M 431.065 321.358 A 89.077 89.077 0 0 1 331.474 353.717" stroke="#000000" stroke-width="1.5" fill="none" /><path d="M 486.076 310.289 A 133.615 133.615 0 0 1 437.537 377.097" stroke="#000000" stroke-width="1.5" fill="none" /><path d="M 526.162 295.476 A 169.246 169.246 0 0 1 509.799 345.836" stroke="#000000" stroke-width="1.5" fill="none" /><path d="M 474.476 384.476 A 163.308 163.308 0 0 1 433.140 414.508" stroke="#000000" stroke-width="1.5" fill="none" /><path d="M 359.000 393.708 A 124.708 124.708 0 0 1 285.699 369.891" stroke="#000000" stroke-width="1.5" fill="none" /><path d="M 382.225 415.634 A 148.462 148.462 0 0 1 335.775 415.634" stroke="#000000" stroke-width="1.5" fill="none" /><path d="M 284.860 414.508 A 163.308 163.308 0 0 1 243.524 384.476" stroke="#000000" stroke-width="1.5" fill="none" /><path d="M 275.862 269.000 A 83.138 83.138 0 0 1 333.309 189.931" stroke="#000000" stroke-width="1.5" fill="none" /><path d="M 237.572 308.454 A 127.677 127.677 0 0 1 237.572 229.546" stroke="#000000" stroke-width="1.5" fill="none" /><path d="M 218.783 340.444 A 157.369 157.369 0 0 1 203.568 293.618" stroke="#000000" stroke-width="1.5" fill="none" /><path d="M 200.636 243.918 A 160.338 160.338 0 0 1 216.137 196.208" stroke="#000000" stroke-width="1.5" fill="none" /><path d="M 285.699 168.109 A 124.708 124.708 0 0 1 359.000 144.292" stroke="#000000" stroke-width="1.5" fill="none" /><path d="M 251.922 161.922 A 151.431 151.431 0 0 1 290.252 134.074" stroke="#000000" stroke-width="1.5" fill="none" /><path d="M 333.918 110.636 A 160.338 160.338 0 0 1 384.082 110.636" stroke="#000000" stroke-width="1.5" fill="none" /><path d="M 402.632 208.946 A 74.231 74.231 0 0 1 429.598 246.061" stroke="#000000" stroke-width="1.5" fill="none" /><path d="M 419.660 149.948 A 133.615 133.615 0 0 1 453.480 174.520" stroke="#000000" stroke-width="1.5" fill="none" /><path d="M 472.761 211.036 A 127.677 127.677 0 0 1 485.105 249.027" stroke="#000000" stroke-width="1.5" fill="none" /><circle cx="359" cy="269" r="3" fill="#000000" /><text x="548.73" y="303.05" font-size="11" text-anchor="start">Sp_A</text><text x="538.09" y="364.25" font-size="11" text-anchor="start">Sp_B</text><text x="494.83" y="408.83" font-size="11" text-anchor="start">Sp_C</text><text x="444.86" y="441.51" font-size="11" text-anchor="start">Sp_D</text><text x="387.66" y="453.93" font-size="11" text-anchor="start">Sp_E</text><text x="329.41" y="459.79" font-size="11" text-anchor="end">Sp_F</text><text x="273.14" y="441.51" font-size="11" text-anchor="end">Sp_G</text><text x="216.87" y="415.13" font-size="11" text-anchor="end">Sp_H</text><text x="190.49" y="358.86" font-size="11" text-anchor="end">Sp_I</text><text x="160.47" y="304.44" font-size="11" text-anchor="end">Sp_J</text><text x="178.07" y="244.34" font-size="11" text-anchor="end">Sp_K</text><text x="185.20000000000002" y="184.44" font-size="11" text-anchor="end">Sp_L</text><text x="231.57" y="145.57" font-size="11" text-anchor="end">Sp_M</text><text x="275.84000000000003" y="109.78" font-size="11" text-anchor="end">Sp_N</text><text x="328.02" y="77.41" font-size="11" text-anchor="end">Sp_O</text><text x="388.12" y="89.14" font-size="11" text-anchor="start">Sp_P</text><text x="443.51" y="107.14" font-size="11" text-anchor="start">Sp_Q</text><text x="484.33" y="147.67000000000002" font-size="11" text-anchor="start">Sp_R</text><text x="501.05" y="200.62" font-size="11" text-anchor="start">Sp_S</text><text x="522.33" y="247.13" font-size="11" text-anchor="start">Sp_T</text></svg>