<svg xmlns="http://www.w3.org/2000/svg" width="686.2" height="545" font-family="DejaVu Sans, Liberation Sans, Arial, sans-serif" fill="black"><rect width="100%" height="100%" fill="white" /><text x="372.2" y="22" font-size="18" text-anchor="middle">Circular Tree — 20 Taxa</text><line x1="372.2" y1="269" x2="348.18" y2="286.45" stroke="#000000" stroke-width="1.5" /><line x1="381.38" y1="297.24" x2="399.73" y2="353.72" stroke="#000000" stroke-width="1.5" /><line x1="444.26" y1="321.36" x2="480.3" y2="347.54" stroke="#000000" stroke-width="1.5" /><line x1="499.28000000000003" y1="310.29" x2="533.16" y2="321.3" stroke="#000000" stroke-width="1.5" /><line x1="539.36" y1="295.48" x2="554.03" y2="297.8" stroke="#000000" stroke-width="1.5" /><line x1="523" y1="345.84000000000003" x2="544.16" y2="356.62" stroke="#000000" stroke-width="1.5" /><line x1="450.74" y1="377.1" x2="468.19" y2="401.12" stroke="#000000" stroke-width="1.5" /><line x1="487.68" y1="384.48" x2="502.37" y2="399.17" stroke="#000000" stroke-width="1.5" /><line x1="446.34000000000003" y1="414.51" x2="454.43" y2="430.38" stroke="#000000" stroke-width="1.5" /><line x1="344.67" y1="353.72" x2="333.66" y2="387.6" stroke="#000000" stroke-width="1.5" /><line x1="372.2" y1="393.71000000000004" x2="372.2" y2="417.46000000000004" stroke="#000000" stroke-width="1.5" /><line x1="395.42" y1="415.63" x2="399.6" y2="442.03000000000003" stroke="#000000" stroke-width="1.5" /><line x1="348.98" y1="415.63" x2="343.87" y2="447.89" stroke="#000000" stroke-width="1.5" /><line x1="298.90000000000003" y1="369.89" x2="276.21" y2="401.12" stroke="#000000" stroke-width="1.5" /><line x1="298.06" y1="414.51" x2="289.97" y2="430.38" stroke="#000000" stroke-width="1.5" /><line x1="256.72" y1="384.48" x2="235.73000000000002" y2="405.47" stroke="#000000" stroke-width="1.5" /><line x1="348.18" y1="251.55" x2="304.94" y2="220.13" stroke="#000000" stroke-width="1.5" /><line x1="289.06" y1="269" x2="244.52" y2="269" stroke="#000000" stroke-width="1.5" /><line x1="250.77" y1="308.45" x2="222.53" y2="317.63" stroke="#000000" stroke-width="1.5" /><line x1="231.98000000000002" y1="340.44" x2="210.82" y2="351.23" stroke="#000000" stroke-width="1.5" /><line x1="216.77" y1="293.62" x2="181.58" y2="299.19" stroke="#000000" stroke-width="1.5" /><line x1="250.77" y1="229.55" x2="219.71" y2="219.45000000000002" stroke="#000000" stroke-width="1.5" /><line x1="213.84" y1="243.92000000000002" x2="199.17000000000002" y2="241.6" stroke="#000000" stroke-width="1.5" /><line x1="229.34" y1="196.21" x2="205.53" y2="184.08" stroke="#000000" stroke-width="1.5" /><line x1="346.51" y1="189.93" x2="333.66" y2="150.4" stroke="#000000" stroke-width="1.5" /><line x1="298.90000000000003" y1="168.11" x2="283.19" y2="146.49" stroke="#000000" stroke-width="1.5" /><line x1="265.12" y1="161.92000000000002" x2="250.43" y2="147.23" stroke="#000000" stroke-width="1.5" /><line x1="303.45" y1="134.07" x2="292.67" y2="112.91" stroke="#000000" stroke-width="1.5" /><line x1="372.2" y1="144.29" x2="372.2" y2="108.66" stroke="#000000" stroke-width="1.5" /><line x1="347.12" y1="110.64" x2="342.47" y2="81.31" stroke="#000000" stroke-width="1.5" /><line x1="397.28000000000003" y1="110.64" x2="400.07" y2="93.04" stroke="#000000" stroke-width="1.5" /><line x1="372.2" y1="269" x2="432.25" y2="225.37" stroke="#000000" stroke-width="1.5" /><line x1="415.83" y1="208.95000000000002" x2="450.74" y2="160.9" stroke="#000000" stroke-width="1.5" /><line x1="432.86" y1="149.95000000000002" x2="453.08" y2="110.26" stroke="#000000" stroke-width="1.5" /><line x1="466.68" y1="174.52" x2="491.88" y2="149.32" stroke="#000000" stroke-width="1.5" /><line x1="442.8" y1="246.06" x2="493.63" y2="229.55" stroke="#000000" stroke-width="1.5" /><line x1="485.96000000000004" y1="211.04" x2="507.13" y2="200.25" stroke="#000000" stroke-width="1.5" /><line x1="498.31" y1="249.03" x2="527.63" y2="244.38" stroke="#000000" stroke-width="1.5" /><path d="M 381.375 297.239 A 29.692 29.692 0 0 1 348.178 251.547" stroke="#000000" stroke-width="1.5" fill="none" /><path d="M 444.265 321.358 A 89.077 89.077 0 0 1 344.674 353.717" stroke="#000000" stroke-width="1.5" fill="none" /><path d="M 499.276 310.289 A 133.615 133.615 0 0 1 450.737 377.097" stroke="#000000" stroke-width="1.5" fill="none" /><path d="M 539.362 295.476 A 169.246 169.246 0 0 1 522.999 345.836" stroke="#000000" stroke-width="1.5" fill="none" /><path d="M 487.676 384.476 A 163.308 163.308 0 0 1 446.340 414.508" stroke="#000000" stroke-width="1.5" fill="none" /><path d="M 372.200 393.708 A 124.708 124.708 0 0 1 298.899 369.891" stroke="#000000" stroke-width="1.5" fill="none" /><path d="M 395.425 415.634 A 148.462 148.462 0 0 1 348.975 415.634" stroke="#000000" stroke-width="1.5" fill="none" /><path d="M 298.060 414.508 A 163.308 163.308 0 0 1 256.724 384.476" stroke="#000000" stroke-width="1.5" fill="none" /><path d="M 289.062 269.000 A 83.138 83.138 0 0 1 346.509 189.931" stroke="#000000" stroke-width="1.5" fill="none" /><path d="M 250.772 308.454 A 127.677 127.677 0 0 1 250.772 229.546" stroke="#000000" stroke-width="1.5" fill="none" /><path d="M 231.983 340.444 A 157.369 157.369 0 0 1 216.768 293.618" stroke="#000000" stroke-width="1.5" fill="none" /><path d="M 213.836 243.918 A 160.338 160.338 0 0 1 229.337 196.208" stroke="#000000" stroke-width="1.5" fill="none" /><path d="M 298.899 168.109 A 124.708 124.708 0 0 1 372.200 144.292" stroke="#000000" stroke-width="1.5" fill="none" /><path d="M 265.122 161.922 A 151.431 151.431 0 0 1 303.452 134.074" stroke="#000000" stroke-width="1.5" fill="none" /><path d="M 347.118 110.636 A 160.338 160.338 0 0 1 397.282 110.636" stroke="#000000" stroke-width="1.5" fill="none" /><path d="M 415.832 208.946 A 74.231 74.231 0 0 1 442.798 246.061" stroke="#000000" stroke-width="1.5" fill="none" /><path d="M 432.860 149.948 A 133.615 133.615 0 0 1 466.680 174.520" stroke="#000000" stroke-width="1.5" fill="none" /><path d="M 485.961 211.036 A 127.677 127.677 0 0 1 498.305 249.027" stroke="#000000" stroke-width="1.5" fill="none" /><circle cx="372.2" cy="269" r="3" fill="#000000" /><text x="561.9300000000001" y="303.05" font-size="11" text-anchor="start">Sp_A</text><text x="551.29" y="364.25" font-size="11" text-anchor="start">Sp_B</text><text x="508.03000000000003" y="408.83" font-size="11" text-anchor="start">Sp_C</text><text x="458.06" y="441.51" font-size="11" text-anchor="start">Sp_D</text><text x="400.86" y="453.93" font-size="11" text-anchor="start">Sp_E</text><text x="342.61" y="459.79" font-size="11" text-anchor="end">Sp_F</text><text x="286.34000000000003" y="441.51" font-size="11" text-anchor="end">Sp_G</text><text x="230.07" y="415.13" font-size="11" text-anchor="end">Sp_H</text><text x="203.69" y="358.86" font-size="11" text-anchor="end">Sp_I</text><text x="173.67000000000002" y="304.44" font-size="11" text-anchor="end">Sp_J</text><text x="191.27" y="244.34" font-size="11" text-anchor="end">Sp_K</text><text x="198.4" y="184.44" font-size="11" text-anchor="end">Sp_L</text><text x="244.77" y="145.57" font-size="11" text-anchor="end">Sp_M</text><text x="289.04" y="109.78" font-size="11" text-anchor="end">Sp_N</text><text x="341.22" y="77.41" font-size="11" text-anchor="end">Sp_O</text><text x="401.32" y="89.14" font-size="11" text-anchor="start">Sp_P</text><text x="456.71000000000004" y="107.14" font-size="11" text-anchor="start">Sp_Q</text><text x="497.53000000000003" y="147.67000000000002" font-size="11" text-anchor="start">Sp_R</text><text x="514.25" y="200.62" font-size="11" text-anchor="start">Sp_S</text><text x="535.53" y="247.13" font-size="11" text-anchor="start">Sp_T</text></svg>