<svg xmlns="http://www.w3.org/2000/svg" width="776.4" height="545" font-family="DejaVu Sans, Liberation Sans, Arial, sans-serif" fill="black"><rect width="100%" height="100%" fill="white" /><text x="359" y="22" font-size="18" text-anchor="middle">Clade Coloring by Domain</text><line x1="84" y1="169" x2="323" y2="169" stroke="#e41a1c" stroke-width="1.5" /><line x1="84" y1="369" x2="323" y2="369" stroke="#377eb8" stroke-width="1.5" /><line x1="323" y1="119" x2="562" y2="119" stroke="#e41a1c" stroke-width="1.5" /><line x1="323" y1="219" x2="562" y2="219" stroke="#e41a1c" stroke-width="1.5" /><line x1="323" y1="319" x2="562" y2="319" stroke="#377eb8" stroke-width="1.5" /><line x1="323" y1="419" x2="562" y2="419" stroke="#377eb8" stroke-width="1.5" /><line x1="84" y1="169" x2="84" y2="369" stroke="#000000" stroke-width="1.5" /><line x1="323" y1="119" x2="323" y2="219" stroke="#e41a1c" stroke-width="1.5" /><line x1="323" y1="319" x2="323" y2="419" stroke="#377eb8" stroke-width="1.5" /><circle cx="84" cy="269" r="3" fill="#000000" /><text x="568" y="119" font-size="11" text-anchor="start">E. coli</text><text x="568" y="219" font-size="11" text-anchor="start">B. subtilis</text><text x="568" y="319" font-size="11" text-anchor="start">Yeast</text><text x="568" y="419" font-size="11" text-anchor="start">Human</text><rect x="664" y="34" width="103" height="56" fill="#ffffff" /><rect x="664" y="34" width="103" height="56" fill="none" stroke="#000000" stroke-width="1" /><text x="694" y="53.2" font-size="12" text-anchor="start">Bacteria</text><line x1="674" y1="49" x2="686" y2="49" stroke="#e41a1c" stroke-width="2" /><text x="694" y="71.2" font-size="12" text-anchor="start">Eukarya</text><line x1="674" y1="67" x2="686" y2="67" stroke="#377eb8" stroke-width="2" /></svg>