<svg xmlns="http://www.w3.org/2000/svg" width="673.4" height="545" font-family="DejaVu Sans, Liberation Sans, Arial, sans-serif" fill="black"><rect width="100%" height="100%" fill="white" /><text x="359" y="22" font-size="18" text-anchor="middle">Phylogram (Top orientation)</text><line x1="194" y1="69" x2="194" y2="147.89000000000001" stroke="#000000" stroke-width="1.5" /><line x1="139" y1="147.89000000000001" x2="139" y2="226.78" stroke="#000000" stroke-width="1.5" /><line x1="249" y1="147.89000000000001" x2="249" y2="384.56" stroke="#000000" stroke-width="1.5" /><line x1="441.5" y1="69" x2="441.5" y2="226.78" stroke="#000000" stroke-width="1.5" /><line x1="359" y1="226.78" x2="359" y2="384.56" stroke="#000000" stroke-width="1.5" /><line x1="524" y1="226.78" x2="524" y2="305.67" stroke="#000000" stroke-width="1.5" /><line x1="469" y1="305.67" x2="469" y2="345.11" stroke="#000000" stroke-width="1.5" /><line x1="579" y1="305.67" x2="579" y2="424" stroke="#000000" stroke-width="1.5" /><line x1="194" y1="69" x2="441.5" y2="69" stroke="#000000" stroke-width="1.5" /><line x1="139" y1="147.89000000000001" x2="249" y2="147.89000000000001" stroke="#000000" stroke-width="1.5" /><line x1="359" y1="226.78" x2="524" y2="226.78" stroke="#000000" stroke-width="1.5" /><line x1="469" y1="305.67" x2="579" y2="305.67" stroke="#000000" stroke-width="1.5" /><circle cx="317.75" cy="69" r="3" fill="#000000" /><text x="139" y="232.78" font-size="11" text-anchor="start" transform="rotate(90,139,232.78)">A</text><text x="249" y="390.56" font-size="11" text-anchor="start" transform="rotate(90,249,390.56)">B</text><text x="359" y="390.56" font-size="11" text-anchor="start" transform="rotate(90,359,390.56)">C</text><text x="469" y="351.11" font-size="11" text-anchor="start" transform="rotate(90,469,351.11)">D</text><text x="579" y="430" font-size="11" text-anchor="start" transform="rotate(90,579,430)">E</text><text x="196" y="145.89000000000001" font-size="10" text-anchor="start">90</text><text x="526" y="303.67" font-size="10" text-anchor="start">85</text></svg>