<svg xmlns="http://www.w3.org/2000/svg" width="1020" height="640" font-family="DejaVu Sans, Liberation Sans, Arial, sans-serif" fill="black"><rect width="100%" height="100%" fill="white" /><line x1="118" y1="538" x2="718" y2="538" stroke="#000000" stroke-width="2" /><line x1="118" y1="88" x2="118" y2="538" stroke="#000000" stroke-width="2" /><line x1="243" y1="88" x2="243" y2="538" stroke="#cccccc" stroke-width="2" /><line x1="368" y1="88" x2="368" y2="538" stroke="#cccccc" stroke-width="2" /><line x1="493" y1="88" x2="493" y2="538" stroke="#cccccc" stroke-width="2" /><line x1="618" y1="88" x2="618" y2="538" stroke="#cccccc" stroke-width="2" /><line x1="118" y1="425.5" x2="718" y2="425.5" stroke="#cccccc" stroke-width="2" /><line x1="118" y1="313" x2="718" y2="313" stroke="#cccccc" stroke-width="2" /><line x1="118" y1="200.5" x2="718" y2="200.5" stroke="#cccccc" stroke-width="2" /><line x1="118" y1="88" x2="718" y2="88" stroke="#cccccc" stroke-width="2" /><line x1="118" y1="538" x2="118" y2="548" stroke="#000000" stroke-width="2" /><text x="118" y="572" font-size="24" text-anchor="middle">0</text><line x1="243" y1="538" x2="243" y2="548" stroke="#000000" stroke-width="2" /><text x="243" y="572" font-size="24" text-anchor="middle">2.5</text><line x1="368" y1="538" x2="368" y2="548" stroke="#000000" stroke-width="2" /><text x="368" y="572" font-size="24" text-anchor="middle">5</text><line x1="493" y1="538" x2="493" y2="548" stroke="#000000" stroke-width="2" /><text x="493" y="572" font-size="24" text-anchor="middle">7.5</text><line x1="618" y1="538" x2="618" y2="548" stroke="#000000" stroke-width="2" /><text x="618" y="572" font-size="24" text-anchor="middle">10</text><line x1="108" y1="538" x2="118" y2="538" stroke="#000000" stroke-width="2" /><text x="102" y="546.4" font-size="24" text-anchor="end">0</text><line x1="108" y1="425.5" x2="118" y2="425.5" stroke="#000000" stroke-width="2" /><text x="102" y="433.90000000000003" font-size="24" text-anchor="end">5</text><line x1="108" y1="313" x2="118" y2="313" stroke="#000000" stroke-width="2" /><text x="102" y="321.40000000000003" font-size="24" text-anchor="end">10</text><line x1="108" y1="200.5" x2="118" y2="200.5" stroke="#000000" stroke-width="2" /><text x="102" y="208.9" font-size="24" text-anchor="end">15</text><line x1="108" y1="88" x2="118" y2="88" stroke="#000000" stroke-width="2" /><text x="102" y="96.4" font-size="24" text-anchor="end">20</text><text x="418" y="626" font-size="28" text-anchor="middle">Time (weeks)</text><text x="43" y="320" font-size="28" text-anchor="middle" transform="rotate(-90,43,320)">Count</text><text x="418" y="44" font-size="36" text-anchor="middle">Growth Rate</text><circle cx="168" cy="490.75" r="3" fill="#4682b4" /><circle cx="218" cy="452.5" r="3" fill="#4682b4" /><circle cx="268" cy="414.25" r="3" fill="#4682b4" /><circle cx="318" cy="380.5" r="3" fill="#4682b4" /><circle cx="368" cy="331" r="3" fill="#4682b4" /><circle cx="418" cy="295" r="3" fill="#4682b4" /><circle cx="468" cy="265.75" r="3" fill="#4682b4" /><circle cx="518" cy="211.75" r="3" fill="#4682b4" /><circle cx="568" cy="180.25" r="3" fill="#4682b4" /><circle cx="618" cy="133" r="3" fill="#4682b4" /><path d="M 168.0 495.25 L 618.0 128.5 " stroke="#dc143c" stroke-width="2" fill="none" /><line x1="118" y1="313" x2="718" y2="313" stroke="#ffa500" stroke-width="2" stroke-dasharray="6 4" /><text x="714" y="309" font-size="24" text-anchor="end">threshold</text><text x="568" y="174.25" font-size="22" text-anchor="middle">Peak</text><rect x="713" y="68" width="274" height="112" fill="#ffffff" /><rect x="713" y="68" width="274" height="112" fill="none" stroke="#000000" stroke-width="2" /><text x="778" y="107.4" font-size="24" text-anchor="start">Observations</text><circle cx="748" cy="99" r="10" fill="#4682b4" /><text x="778" y="143.4" font-size="24" text-anchor="start">Trend</text><line x1="738" y1="135" x2="762" y2="135" stroke="#dc143c" stroke-width="4" /></svg>