<svg xmlns="http://www.w3.org/2000/svg" width="1035.6" height="640" font-family="DejaVu Sans, Liberation Sans, Arial, sans-serif" fill="black"><rect width="100%" height="100%" fill="white" /><defs><clipPath id="kuva-clip-4"><rect x="127.60000000000001" y="88" width="600" height="450"/></clipPath></defs><line x1="252.6" y1="88" x2="252.6" y2="538" stroke="#cccccc" stroke-width="2" /><line x1="377.6" y1="88" x2="377.6" y2="538" stroke="#cccccc" stroke-width="2" /><line x1="502.6" y1="88" x2="502.6" y2="538" stroke="#cccccc" stroke-width="2" /><line x1="627.6" y1="88" x2="627.6" y2="538" stroke="#cccccc" stroke-width="2" /><line x1="127.60000000000001" y1="425.5" x2="727.6" y2="425.5" stroke="#cccccc" stroke-width="2" /><line x1="127.60000000000001" y1="313" x2="727.6" y2="313" stroke="#cccccc" stroke-width="2" /><line x1="127.60000000000001" y1="200.5" x2="727.6" y2="200.5" stroke="#cccccc" stroke-width="2" /><line x1="127.60000000000001" y1="88" x2="727.6" y2="88" stroke="#cccccc" stroke-width="2" /><line x1="127.60000000000001" y1="538" x2="727.6" y2="538" stroke="#000000" stroke-width="2" /><line x1="127.60000000000001" y1="88" x2="127.60000000000001" y2="538" stroke="#000000" stroke-width="2" /><line x1="127.60000000000001" y1="538" x2="127.60000000000001" y2="548" stroke="#000000" stroke-width="2" /><text x="127.60000000000001" y="572" font-size="24" text-anchor="middle">0</text><line x1="252.6" y1="538" x2="252.6" y2="548" stroke="#000000" stroke-width="2" /><text x="252.6" y="572" font-size="24" text-anchor="middle">2.5</text><line x1="377.6" y1="538" x2="377.6" y2="548" stroke="#000000" stroke-width="2" /><text x="377.6" y="572" font-size="24" text-anchor="middle">5</text><line x1="502.6" y1="538" x2="502.6" y2="548" stroke="#000000" stroke-width="2" /><text x="502.6" y="572" font-size="24" text-anchor="middle">7.5</text><line x1="627.6" y1="538" x2="627.6" y2="548" stroke="#000000" stroke-width="2" /><text x="627.6" y="572" font-size="24" text-anchor="middle">10</text><line x1="117.60000000000001" y1="538" x2="127.60000000000001" y2="538" stroke="#000000" stroke-width="2" /><text x="111.60000000000001" y="546.4" font-size="24" text-anchor="end">0</text><line x1="117.60000000000001" y1="425.5" x2="127.60000000000001" y2="425.5" stroke="#000000" stroke-width="2" /><text x="111.60000000000001" y="433.90000000000003" font-size="24" text-anchor="end">5</text><line x1="117.60000000000001" y1="313" x2="127.60000000000001" y2="313" stroke="#000000" stroke-width="2" /><text x="111.60000000000001" y="321.40000000000003" font-size="24" text-anchor="end">10</text><line x1="117.60000000000001" y1="200.5" x2="127.60000000000001" y2="200.5" stroke="#000000" stroke-width="2" /><text x="111.60000000000001" y="208.9" font-size="24" text-anchor="end">15</text><line x1="117.60000000000001" y1="88" x2="127.60000000000001" y2="88" stroke="#000000" stroke-width="2" /><text x="111.60000000000001" y="96.4" font-size="24" text-anchor="end">20</text><text x="427.6" y="626" font-size="28" text-anchor="middle">Time (weeks)</text><text x="43" y="320" font-size="28" text-anchor="middle" transform="rotate(-90,43,320)">Count</text><text x="517.8" y="54.800000000000004" font-size="36" text-anchor="middle">Growth Rate</text><g clip-path="url(#kuva-clip-4)"><circle cx="177.6" cy="490.75" r="3" fill="#4682b4" /><circle cx="227.6" cy="452.5" r="3" fill="#4682b4" /><circle cx="277.6" cy="414.25" r="3" fill="#4682b4" /><circle cx="327.6" cy="380.5" r="3" fill="#4682b4" /><circle cx="377.6" cy="331" r="3" fill="#4682b4" /><circle cx="427.6" cy="295" r="3" fill="#4682b4" /><circle cx="477.6" cy="265.75" r="3" fill="#4682b4" /><circle cx="527.6" cy="211.75" r="3" fill="#4682b4" /><circle cx="577.6" cy="180.25" r="3" fill="#4682b4" /><circle cx="627.6" cy="133" r="3" fill="#4682b4" /><path d="M 177.6 495.25 L 627.6 128.5 " stroke="#dc143c" stroke-width="2" fill="none" /><line x1="127.60000000000001" y1="313" x2="727.6" y2="313" stroke="#ffa500" stroke-width="1" stroke-dasharray="6 4" /><text x="723.6" y="309" font-size="24" text-anchor="end">threshold</text><text x="577.6" y="174.25" font-size="11" text-anchor="middle">Peak</text></g><rect x="722.6" y="68" width="272" height="112" fill="#ffffff" /><rect x="722.6" y="68" width="272" height="112" fill="none" stroke="#000000" stroke-width="2" /><text x="787.6" y="107.4" font-size="24" text-anchor="start">Observations</text><circle cx="757.6" cy="99" r="10" fill="#4682b4" /><text x="787.6" y="143.4" font-size="24" text-anchor="start">Trend</text><line x1="747.6" y1="135" x2="771.6" y2="135" stroke="#dc143c" stroke-width="4" /></svg>