<svg xmlns="http://www.w3.org/2000/svg" width="810" height="545" font-family="DejaVu Sans, Liberation Sans, Arial, sans-serif" fill="black"><rect width="100%" height="100%" fill="white" /><line x1="59" y1="494" x2="659" y2="494" stroke="#000000" stroke-width="1" /><line x1="59" y1="44" x2="59" y2="494" stroke="#000000" stroke-width="1" /><line x1="184" y1="44" x2="184" y2="494" stroke="#cccccc" stroke-width="1" /><line x1="309" y1="44" x2="309" y2="494" stroke="#cccccc" stroke-width="1" /><line x1="434" y1="44" x2="434" y2="494" stroke="#cccccc" stroke-width="1" /><line x1="559" y1="44" x2="559" y2="494" stroke="#cccccc" stroke-width="1" /><line x1="59" y1="381.5" x2="659" y2="381.5" stroke="#cccccc" stroke-width="1" /><line x1="59" y1="269" x2="659" y2="269" stroke="#cccccc" stroke-width="1" /><line x1="59" y1="156.5" x2="659" y2="156.5" stroke="#cccccc" stroke-width="1" /><line x1="59" y1="44" x2="659" y2="44" stroke="#cccccc" stroke-width="1" /><line x1="59" y1="494" x2="59" y2="499" stroke="#000000" stroke-width="1" /><text x="59" y="511" font-size="12" text-anchor="middle">0</text><line x1="184" y1="494" x2="184" y2="499" stroke="#000000" stroke-width="1" /><text x="184" y="511" font-size="12" text-anchor="middle">2.5</text><line x1="309" y1="494" x2="309" y2="499" stroke="#000000" stroke-width="1" /><text x="309" y="511" font-size="12" text-anchor="middle">5</text><line x1="434" y1="494" x2="434" y2="499" stroke="#000000" stroke-width="1" /><text x="434" y="511" font-size="12" text-anchor="middle">7.5</text><line x1="559" y1="494" x2="559" y2="499" stroke="#000000" stroke-width="1" /><text x="559" y="511" font-size="12" text-anchor="middle">10</text><line x1="54" y1="494" x2="59" y2="494" stroke="#000000" stroke-width="1" /><text x="51" y="498.2" font-size="12" text-anchor="end">0</text><line x1="54" y1="381.5" x2="59" y2="381.5" stroke="#000000" stroke-width="1" /><text x="51" y="385.7" font-size="12" text-anchor="end">5</text><line x1="54" y1="269" x2="59" y2="269" stroke="#000000" stroke-width="1" /><text x="51" y="273.2" font-size="12" text-anchor="end">10</text><line x1="54" y1="156.5" x2="59" y2="156.5" stroke="#000000" stroke-width="1" /><text x="51" y="160.70000000000002" font-size="12" text-anchor="end">15</text><line x1="54" y1="44" x2="59" y2="44" stroke="#000000" stroke-width="1" /><text x="51" y="48.2" font-size="12" text-anchor="end">20</text><text x="359" y="538" font-size="14" text-anchor="middle">Time (weeks)</text><text x="15" y="272.5" font-size="14" text-anchor="middle" transform="rotate(-90,15,272.5)">Count</text><text x="359" y="22" font-size="18" text-anchor="middle">Growth Rate</text><circle cx="109" cy="446.75" r="3" fill="#4682b4" /><circle cx="159" cy="408.5" r="3" fill="#4682b4" /><circle cx="209" cy="370.25" r="3" fill="#4682b4" /><circle cx="259" cy="336.5" r="3" fill="#4682b4" /><circle cx="309" cy="287" r="3" fill="#4682b4" /><circle cx="359" cy="251" r="3" fill="#4682b4" /><circle cx="409" cy="221.75" r="3" fill="#4682b4" /><circle cx="459" cy="167.75" r="3" fill="#4682b4" /><circle cx="509" cy="136.25" r="3" fill="#4682b4" /><circle cx="559" cy="89" r="3" fill="#4682b4" /><path d="M 109.0 451.25 L 559.0 84.5 " stroke="#dc143c" stroke-width="2" fill="none" /><line x1="59" y1="269" x2="659" y2="269" stroke="#ffa500" stroke-width="1" stroke-dasharray="6 4" /><text x="655" y="265" font-size="12" text-anchor="end">threshold</text><text x="509" y="130.25" font-size="11" text-anchor="middle">Peak</text><rect x="664" y="34" width="137" height="56" fill="#ffffff" /><rect x="664" y="34" width="137" height="56" fill="none" stroke="#000000" stroke-width="1" /><text x="694" y="53.2" font-size="12" text-anchor="start">Observations</text><circle cx="679" cy="49" r="5" fill="#4682b4" /><text x="694" y="71.2" font-size="12" text-anchor="start">Trend</text><line x1="674" y1="67" x2="686" y2="67" stroke="#dc143c" stroke-width="2" /></svg>