<svg xmlns="http://www.w3.org/2000/svg" width="705" height="497.5" font-family="DejaVu Sans, Liberation Sans, Arial, sans-serif" fill="black"><rect width="100%" height="100%" fill="white" /><line x1="29.5" y1="472" x2="629.5" y2="472" stroke="#000000" stroke-width="0.5" /><line x1="29.5" y1="22" x2="29.5" y2="472" stroke="#000000" stroke-width="0.5" /><line x1="154.5" y1="22" x2="154.5" y2="472" stroke="#cccccc" stroke-width="0.5" /><line x1="279.5" y1="22" x2="279.5" y2="472" stroke="#cccccc" stroke-width="0.5" /><line x1="404.5" y1="22" x2="404.5" y2="472" stroke="#cccccc" stroke-width="0.5" /><line x1="529.5" y1="22" x2="529.5" y2="472" stroke="#cccccc" stroke-width="0.5" /><line x1="29.5" y1="359.5" x2="629.5" y2="359.5" stroke="#cccccc" stroke-width="0.5" /><line x1="29.5" y1="247" x2="629.5" y2="247" stroke="#cccccc" stroke-width="0.5" /><line x1="29.5" y1="134.5" x2="629.5" y2="134.5" stroke="#cccccc" stroke-width="0.5" /><line x1="29.5" y1="22" x2="629.5" y2="22" stroke="#cccccc" stroke-width="0.5" /><line x1="29.5" y1="472" x2="29.5" y2="474.5" stroke="#000000" stroke-width="0.5" /><text x="29.5" y="480.5" font-size="6" text-anchor="middle">0</text><line x1="154.5" y1="472" x2="154.5" y2="474.5" stroke="#000000" stroke-width="0.5" /><text x="154.5" y="480.5" font-size="6" text-anchor="middle">2.5</text><line x1="279.5" y1="472" x2="279.5" y2="474.5" stroke="#000000" stroke-width="0.5" /><text x="279.5" y="480.5" font-size="6" text-anchor="middle">5</text><line x1="404.5" y1="472" x2="404.5" y2="474.5" stroke="#000000" stroke-width="0.5" /><text x="404.5" y="480.5" font-size="6" text-anchor="middle">7.5</text><line x1="529.5" y1="472" x2="529.5" y2="474.5" stroke="#000000" stroke-width="0.5" /><text x="529.5" y="480.5" font-size="6" text-anchor="middle">10</text><line x1="27" y1="472" x2="29.5" y2="472" stroke="#000000" stroke-width="0.5" /><text x="25.5" y="474.1" font-size="6" text-anchor="end">0</text><line x1="27" y1="359.5" x2="29.5" y2="359.5" stroke="#000000" stroke-width="0.5" /><text x="25.5" y="361.6" font-size="6" text-anchor="end">5</text><line x1="27" y1="247" x2="29.5" y2="247" stroke="#000000" stroke-width="0.5" /><text x="25.5" y="249.1" font-size="6" text-anchor="end">10</text><line x1="27" y1="134.5" x2="29.5" y2="134.5" stroke="#000000" stroke-width="0.5" /><text x="25.5" y="136.6" font-size="6" text-anchor="end">15</text><line x1="27" y1="22" x2="29.5" y2="22" stroke="#000000" stroke-width="0.5" /><text x="25.5" y="24.1" font-size="6" text-anchor="end">20</text><text x="329.5" y="494" font-size="7" text-anchor="middle">Time (weeks)</text><text x="11.5" y="248.75" font-size="7" text-anchor="middle" transform="rotate(-90,11.5,248.75)">Count</text><text x="329.5" y="11" font-size="9" text-anchor="middle">Growth Rate</text><circle cx="79.5" cy="424.75" r="3" fill="#4682b4" /><circle cx="129.5" cy="386.5" r="3" fill="#4682b4" /><circle cx="179.5" cy="348.25" r="3" fill="#4682b4" /><circle cx="229.5" cy="314.5" r="3" fill="#4682b4" /><circle cx="279.5" cy="265" r="3" fill="#4682b4" /><circle cx="329.5" cy="229" r="3" fill="#4682b4" /><circle cx="379.5" cy="199.75" r="3" fill="#4682b4" /><circle cx="429.5" cy="145.75" r="3" fill="#4682b4" /><circle cx="479.5" cy="114.25" r="3" fill="#4682b4" /><circle cx="529.5" cy="67" r="3" fill="#4682b4" /><path d="M 79.5 429.25 L 529.5 62.5 " stroke="#dc143c" stroke-width="2" fill="none" /><line x1="29.5" y1="247" x2="629.5" y2="247" stroke="#ffa500" stroke-width="1" stroke-dasharray="6 4" /><text x="625.5" y="243" font-size="6" text-anchor="end">threshold</text><text x="479.5" y="108.25" font-size="11" text-anchor="middle">Peak</text><rect x="639.5" y="17" width="68.5" height="28" fill="#ffffff" /><rect x="639.5" y="17" width="68.5" height="28" fill="none" stroke="#000000" stroke-width="0.5" /><text x="652" y="26.1" font-size="6" text-anchor="start">Observations</text><circle cx="644.5" cy="24" r="2.5" fill="#4682b4" /><text x="652" y="35.1" font-size="6" text-anchor="start">Trend</text><line x1="642" y1="33" x2="648" y2="33" stroke="#dc143c" stroke-width="1" /></svg>