<svg xmlns="http://www.w3.org/2000/svg" width="915" height="592.5" font-family="DejaVu Sans, Liberation Sans, Arial, sans-serif" fill="black"><rect width="100%" height="100%" fill="white" /><line x1="88.5" y1="516" x2="688.5" y2="516" stroke="#000000" stroke-width="1.5" /><line x1="88.5" y1="66" x2="88.5" y2="516" stroke="#000000" stroke-width="1.5" /><line x1="213.5" y1="66" x2="213.5" y2="516" stroke="#cccccc" stroke-width="1.5" /><line x1="338.5" y1="66" x2="338.5" y2="516" stroke="#cccccc" stroke-width="1.5" /><line x1="463.5" y1="66" x2="463.5" y2="516" stroke="#cccccc" stroke-width="1.5" /><line x1="588.5" y1="66" x2="588.5" y2="516" stroke="#cccccc" stroke-width="1.5" /><line x1="88.5" y1="403.5" x2="688.5" y2="403.5" stroke="#cccccc" stroke-width="1.5" /><line x1="88.5" y1="291" x2="688.5" y2="291" stroke="#cccccc" stroke-width="1.5" /><line x1="88.5" y1="178.5" x2="688.5" y2="178.5" stroke="#cccccc" stroke-width="1.5" /><line x1="88.5" y1="66" x2="688.5" y2="66" stroke="#cccccc" stroke-width="1.5" /><line x1="88.5" y1="516" x2="88.5" y2="523.5" stroke="#000000" stroke-width="1.5" /><text x="88.5" y="541.5" font-size="18" text-anchor="middle">0</text><line x1="213.5" y1="516" x2="213.5" y2="523.5" stroke="#000000" stroke-width="1.5" /><text x="213.5" y="541.5" font-size="18" text-anchor="middle">2.5</text><line x1="338.5" y1="516" x2="338.5" y2="523.5" stroke="#000000" stroke-width="1.5" /><text x="338.5" y="541.5" font-size="18" text-anchor="middle">5</text><line x1="463.5" y1="516" x2="463.5" y2="523.5" stroke="#000000" stroke-width="1.5" /><text x="463.5" y="541.5" font-size="18" text-anchor="middle">7.5</text><line x1="588.5" y1="516" x2="588.5" y2="523.5" stroke="#000000" stroke-width="1.5" /><text x="588.5" y="541.5" font-size="18" text-anchor="middle">10</text><line x1="81" y1="516" x2="88.5" y2="516" stroke="#000000" stroke-width="1.5" /><text x="76.5" y="522.3" font-size="18" text-anchor="end">0</text><line x1="81" y1="403.5" x2="88.5" y2="403.5" stroke="#000000" stroke-width="1.5" /><text x="76.5" y="409.8" font-size="18" text-anchor="end">5</text><line x1="81" y1="291" x2="88.5" y2="291" stroke="#000000" stroke-width="1.5" /><text x="76.5" y="297.3" font-size="18" text-anchor="end">10</text><line x1="81" y1="178.5" x2="88.5" y2="178.5" stroke="#000000" stroke-width="1.5" /><text x="76.5" y="184.8" font-size="18" text-anchor="end">15</text><line x1="81" y1="66" x2="88.5" y2="66" stroke="#000000" stroke-width="1.5" /><text x="76.5" y="72.3" font-size="18" text-anchor="end">20</text><text x="388.5" y="582" font-size="21" text-anchor="middle">Time (weeks)</text><text x="29" y="296.25" font-size="21" text-anchor="middle" transform="rotate(-90,29,296.25)">Count</text><text x="388.5" y="33" font-size="27" text-anchor="middle">Growth Rate</text><circle cx="138.5" cy="468.75" r="3" fill="#4682b4" /><circle cx="188.5" cy="430.5" r="3" fill="#4682b4" /><circle cx="238.5" cy="392.25" r="3" fill="#4682b4" /><circle cx="288.5" cy="358.5" r="3" fill="#4682b4" /><circle cx="338.5" cy="309" r="3" fill="#4682b4" /><circle cx="388.5" cy="273" r="3" fill="#4682b4" /><circle cx="438.5" cy="243.75" r="3" fill="#4682b4" /><circle cx="488.5" cy="189.75" r="3" fill="#4682b4" /><circle cx="538.5" cy="158.25" r="3" fill="#4682b4" /><circle cx="588.5" cy="111" r="3" fill="#4682b4" /><path d="M 138.5 473.25 L 588.5 106.5 " stroke="#dc143c" stroke-width="2" fill="none" /><line x1="88.5" y1="291" x2="688.5" y2="291" stroke="#ffa500" stroke-width="1" stroke-dasharray="6 4" /><text x="684.5" y="287" font-size="18" text-anchor="end">threshold</text><text x="538.5" y="152.25" font-size="11" text-anchor="middle">Peak</text><rect x="688.5" y="51" width="205.5" height="84" fill="#ffffff" /><rect x="688.5" y="51" width="205.5" height="84" fill="none" stroke="#000000" stroke-width="1.5" /><text x="736" y="80.3" font-size="18" text-anchor="start">Observations</text><circle cx="713.5" cy="74" r="7.5" fill="#4682b4" /><text x="736" y="107.3" font-size="18" text-anchor="start">Trend</text><line x1="706" y1="101" x2="724" y2="101" stroke="#dc143c" stroke-width="3" /></svg>