<svg xmlns="http://www.w3.org/2000/svg" width="1253.4" height="735" font-family="DejaVu Sans, Liberation Sans, Arial, sans-serif" fill="black"><rect width="100%" height="100%" fill="white" /><defs><clipPath id="kuva-clip-7"><rect x="191.4" y="132" width="600" height="450"/></clipPath></defs><line x1="316.40000000000003" y1="132" x2="316.40000000000003" y2="582" stroke="#cccccc" stroke-width="3" /><line x1="441.40000000000003" y1="132" x2="441.40000000000003" y2="582" stroke="#cccccc" stroke-width="3" /><line x1="566.4" y1="132" x2="566.4" y2="582" stroke="#cccccc" stroke-width="3" /><line x1="691.4" y1="132" x2="691.4" y2="582" stroke="#cccccc" stroke-width="3" /><line x1="191.4" y1="469.5" x2="791.4" y2="469.5" stroke="#cccccc" stroke-width="3" /><line x1="191.4" y1="357" x2="791.4" y2="357" stroke="#cccccc" stroke-width="3" /><line x1="191.4" y1="244.5" x2="791.4" y2="244.5" stroke="#cccccc" stroke-width="3" /><line x1="191.4" y1="132" x2="791.4" y2="132" stroke="#cccccc" stroke-width="3" /><line x1="191.4" y1="582" x2="791.4" y2="582" stroke="#000000" stroke-width="3" /><line x1="191.4" y1="132" x2="191.4" y2="582" stroke="#000000" stroke-width="3" /><line x1="191.4" y1="582" x2="191.4" y2="597" stroke="#000000" stroke-width="3" /><text x="191.4" y="633" font-size="36" text-anchor="middle">0</text><line x1="316.40000000000003" y1="582" x2="316.40000000000003" y2="597" stroke="#000000" stroke-width="3" /><text x="316.40000000000003" y="633" font-size="36" text-anchor="middle">2.5</text><line x1="441.40000000000003" y1="582" x2="441.40000000000003" y2="597" stroke="#000000" stroke-width="3" /><text x="441.40000000000003" y="633" font-size="36" text-anchor="middle">5</text><line x1="566.4" y1="582" x2="566.4" y2="597" stroke="#000000" stroke-width="3" /><text x="566.4" y="633" font-size="36" text-anchor="middle">7.5</text><line x1="691.4" y1="582" x2="691.4" y2="597" stroke="#000000" stroke-width="3" /><text x="691.4" y="633" font-size="36" text-anchor="middle">10</text><line x1="176.4" y1="582" x2="191.4" y2="582" stroke="#000000" stroke-width="3" /><text x="167.4" y="594.6" font-size="36" text-anchor="end">0</text><line x1="176.4" y1="469.5" x2="191.4" y2="469.5" stroke="#000000" stroke-width="3" /><text x="167.4" y="482.1" font-size="36" text-anchor="end">5</text><line x1="176.4" y1="357" x2="191.4" y2="357" stroke="#000000" stroke-width="3" /><text x="167.4" y="369.6" font-size="36" text-anchor="end">10</text><line x1="176.4" y1="244.5" x2="191.4" y2="244.5" stroke="#000000" stroke-width="3" /><text x="167.4" y="257.1" font-size="36" text-anchor="end">15</text><line x1="176.4" y1="132" x2="191.4" y2="132" stroke="#000000" stroke-width="3" /><text x="167.4" y="144.6" font-size="36" text-anchor="end">20</text><text x="491.40000000000003" y="714" font-size="42" text-anchor="middle">Time (weeks)</text><text x="71" y="367.5" font-size="42" text-anchor="middle" transform="rotate(-90,71,367.5)">Count</text><text x="626.7" y="82.2" font-size="54" text-anchor="middle">Growth Rate</text><g clip-path="url(#kuva-clip-7)"><circle cx="241.4" cy="534.75" r="3" fill="#4682b4" /><circle cx="291.40000000000003" cy="496.5" r="3" fill="#4682b4" /><circle cx="341.40000000000003" cy="458.25" r="3" fill="#4682b4" /><circle cx="391.40000000000003" cy="424.5" r="3" fill="#4682b4" /><circle cx="441.40000000000003" cy="375" r="3" fill="#4682b4" /><circle cx="491.40000000000003" cy="339" r="3" fill="#4682b4" /><circle cx="541.4" cy="309.75" r="3" fill="#4682b4" /><circle cx="591.4" cy="255.75" r="3" fill="#4682b4" /><circle cx="641.4" cy="224.25" r="3" fill="#4682b4" /><circle cx="691.4" cy="177" r="3" fill="#4682b4" /><path d="M 241.4 539.25 L 691.4 172.5 " stroke="#dc143c" stroke-width="2" fill="none" /><line x1="191.4" y1="357" x2="791.4" y2="357" stroke="#ffa500" stroke-width="1" stroke-dasharray="6 4" /><text x="787.4" y="353" font-size="36" text-anchor="end">threshold</text><text x="641.4" y="218.25" font-size="11" text-anchor="middle">Peak</text></g><rect x="776.4" y="102" width="408" height="168" fill="#ffffff" /><rect x="776.4" y="102" width="408" height="168" fill="none" stroke="#000000" stroke-width="3" /><text x="876.4" y="161.6" font-size="36" text-anchor="start">Observations</text><circle cx="831.4" cy="149" r="15" fill="#4682b4" /><text x="876.4" y="215.6" font-size="36" text-anchor="start">Trend</text><line x1="816.4" y1="203" x2="852.4" y2="203" stroke="#dc143c" stroke-width="6" /></svg>