<svg xmlns="http://www.w3.org/2000/svg" width="817.8000000000001" height="545" font-family="DejaVu Sans, Liberation Sans, Arial, sans-serif" fill="black"><rect width="100%" height="100%" fill="white" /><defs><clipPath id="kuva-clip-1"><rect x="63.800000000000004" y="44" width="600" height="450"/></clipPath></defs><line x1="188.8" y1="44" x2="188.8" y2="494" stroke="#cccccc" stroke-width="1" /><line x1="313.8" y1="44" x2="313.8" y2="494" stroke="#cccccc" stroke-width="1" /><line x1="438.8" y1="44" x2="438.8" y2="494" stroke="#cccccc" stroke-width="1" /><line x1="563.8000000000001" y1="44" x2="563.8000000000001" y2="494" stroke="#cccccc" stroke-width="1" /><line x1="63.800000000000004" y1="381.5" x2="663.8000000000001" y2="381.5" stroke="#cccccc" stroke-width="1" /><line x1="63.800000000000004" y1="269" x2="663.8000000000001" y2="269" stroke="#cccccc" stroke-width="1" /><line x1="63.800000000000004" y1="156.5" x2="663.8000000000001" y2="156.5" stroke="#cccccc" stroke-width="1" /><line x1="63.800000000000004" y1="44" x2="663.8000000000001" y2="44" stroke="#cccccc" stroke-width="1" /><line x1="63.800000000000004" y1="494" x2="663.8000000000001" y2="494" stroke="#000000" stroke-width="1" /><line x1="63.800000000000004" y1="44" x2="63.800000000000004" y2="494" stroke="#000000" stroke-width="1" /><line x1="63.800000000000004" y1="494" x2="63.800000000000004" y2="499" stroke="#000000" stroke-width="1" /><text x="63.800000000000004" y="511" font-size="12" text-anchor="middle">0</text><line x1="188.8" y1="494" x2="188.8" y2="499" stroke="#000000" stroke-width="1" /><text x="188.8" y="511" font-size="12" text-anchor="middle">2.5</text><line x1="313.8" y1="494" x2="313.8" y2="499" stroke="#000000" stroke-width="1" /><text x="313.8" y="511" font-size="12" text-anchor="middle">5</text><line x1="438.8" y1="494" x2="438.8" y2="499" stroke="#000000" stroke-width="1" /><text x="438.8" y="511" font-size="12" text-anchor="middle">7.5</text><line x1="563.8000000000001" y1="494" x2="563.8000000000001" y2="499" stroke="#000000" stroke-width="1" /><text x="563.8000000000001" y="511" font-size="12" text-anchor="middle">10</text><line x1="58.800000000000004" y1="494" x2="63.800000000000004" y2="494" stroke="#000000" stroke-width="1" /><text x="55.800000000000004" y="498.2" font-size="12" text-anchor="end">0</text><line x1="58.800000000000004" y1="381.5" x2="63.800000000000004" y2="381.5" stroke="#000000" stroke-width="1" /><text x="55.800000000000004" y="385.7" font-size="12" text-anchor="end">5</text><line x1="58.800000000000004" y1="269" x2="63.800000000000004" y2="269" stroke="#000000" stroke-width="1" /><text x="55.800000000000004" y="273.2" font-size="12" text-anchor="end">10</text><line x1="58.800000000000004" y1="156.5" x2="63.800000000000004" y2="156.5" stroke="#000000" stroke-width="1" /><text x="55.800000000000004" y="160.70000000000002" font-size="12" text-anchor="end">15</text><line x1="58.800000000000004" y1="44" x2="63.800000000000004" y2="44" stroke="#000000" stroke-width="1" /><text x="55.800000000000004" y="48.2" font-size="12" text-anchor="end">20</text><text x="363.8" y="538" font-size="14" text-anchor="middle">Time (weeks)</text><text x="15" y="272.5" font-size="14" text-anchor="middle" transform="rotate(-90,15,272.5)">Count</text><text x="408.90000000000003" y="27.400000000000002" font-size="18" text-anchor="middle">Growth Rate</text><g clip-path="url(#kuva-clip-1)"><circle cx="113.8" cy="446.75" r="3" fill="#4682b4" /><circle cx="163.8" cy="408.5" r="3" fill="#4682b4" /><circle cx="213.8" cy="370.25" r="3" fill="#4682b4" /><circle cx="263.8" cy="336.5" r="3" fill="#4682b4" /><circle cx="313.8" cy="287" r="3" fill="#4682b4" /><circle cx="363.8" cy="251" r="3" fill="#4682b4" /><circle cx="413.8" cy="221.75" r="3" fill="#4682b4" /><circle cx="463.8" cy="167.75" r="3" fill="#4682b4" /><circle cx="513.8" cy="136.25" r="3" fill="#4682b4" /><circle cx="563.8000000000001" cy="89" r="3" fill="#4682b4" /><path d="M 113.8 451.25 L 563.8000000000001 84.5 " stroke="#dc143c" stroke-width="2" fill="none" /><line x1="63.800000000000004" y1="269" x2="663.8000000000001" y2="269" stroke="#ffa500" stroke-width="1" stroke-dasharray="6 4" /><text x="659.8000000000001" y="265" font-size="12" text-anchor="end">threshold</text><text x="513.8" y="130.25" font-size="11" text-anchor="middle">Peak</text></g><rect x="668.8000000000001" y="34" width="136" height="56" fill="#ffffff" /><rect x="668.8000000000001" y="34" width="136" height="56" fill="none" stroke="#000000" stroke-width="1" /><text x="698.8000000000001" y="53.2" font-size="12" text-anchor="start">Observations</text><circle cx="683.8000000000001" cy="49" r="5" fill="#4682b4" /><text x="698.8000000000001" y="71.2" font-size="12" text-anchor="start">Trend</text><line x1="678.8000000000001" y1="67" x2="690.8000000000001" y2="67" stroke="#dc143c" stroke-width="2" /></svg>