<svg xmlns="http://www.w3.org/2000/svg" width="708.9" height="497.5" font-family="DejaVu Sans, Liberation Sans, Arial, sans-serif" fill="black"><rect width="100%" height="100%" fill="white" /><defs><clipPath id="kuva-clip-0"><rect x="31.900000000000002" y="22" width="600" height="450"/></clipPath></defs><line x1="156.9" y1="22" x2="156.9" y2="472" stroke="#cccccc" stroke-width="0.5" /><line x1="281.90000000000003" y1="22" x2="281.90000000000003" y2="472" stroke="#cccccc" stroke-width="0.5" /><line x1="406.90000000000003" y1="22" x2="406.90000000000003" y2="472" stroke="#cccccc" stroke-width="0.5" /><line x1="531.9" y1="22" x2="531.9" y2="472" stroke="#cccccc" stroke-width="0.5" /><line x1="31.900000000000002" y1="359.5" x2="631.9" y2="359.5" stroke="#cccccc" stroke-width="0.5" /><line x1="31.900000000000002" y1="247" x2="631.9" y2="247" stroke="#cccccc" stroke-width="0.5" /><line x1="31.900000000000002" y1="134.5" x2="631.9" y2="134.5" stroke="#cccccc" stroke-width="0.5" /><line x1="31.900000000000002" y1="22" x2="631.9" y2="22" stroke="#cccccc" stroke-width="0.5" /><line x1="31.900000000000002" y1="472" x2="631.9" y2="472" stroke="#000000" stroke-width="0.5" /><line x1="31.900000000000002" y1="22" x2="31.900000000000002" y2="472" stroke="#000000" stroke-width="0.5" /><line x1="31.900000000000002" y1="472" x2="31.900000000000002" y2="474.5" stroke="#000000" stroke-width="0.5" /><text x="31.900000000000002" y="480.5" font-size="6" text-anchor="middle">0</text><line x1="156.9" y1="472" x2="156.9" y2="474.5" stroke="#000000" stroke-width="0.5" /><text x="156.9" y="480.5" font-size="6" text-anchor="middle">2.5</text><line x1="281.90000000000003" y1="472" x2="281.90000000000003" y2="474.5" stroke="#000000" stroke-width="0.5" /><text x="281.90000000000003" y="480.5" font-size="6" text-anchor="middle">5</text><line x1="406.90000000000003" y1="472" x2="406.90000000000003" y2="474.5" stroke="#000000" stroke-width="0.5" /><text x="406.90000000000003" y="480.5" font-size="6" text-anchor="middle">7.5</text><line x1="531.9" y1="472" x2="531.9" y2="474.5" stroke="#000000" stroke-width="0.5" /><text x="531.9" y="480.5" font-size="6" text-anchor="middle">10</text><line x1="29.400000000000002" y1="472" x2="31.900000000000002" y2="472" stroke="#000000" stroke-width="0.5" /><text x="27.900000000000002" y="474.1" font-size="6" text-anchor="end">0</text><line x1="29.400000000000002" y1="359.5" x2="31.900000000000002" y2="359.5" stroke="#000000" stroke-width="0.5" /><text x="27.900000000000002" y="361.6" font-size="6" text-anchor="end">5</text><line x1="29.400000000000002" y1="247" x2="31.900000000000002" y2="247" stroke="#000000" stroke-width="0.5" /><text x="27.900000000000002" y="249.1" font-size="6" text-anchor="end">10</text><line x1="29.400000000000002" y1="134.5" x2="31.900000000000002" y2="134.5" stroke="#000000" stroke-width="0.5" /><text x="27.900000000000002" y="136.6" font-size="6" text-anchor="end">15</text><line x1="29.400000000000002" y1="22" x2="31.900000000000002" y2="22" stroke="#000000" stroke-width="0.5" /><text x="27.900000000000002" y="24.1" font-size="6" text-anchor="end">20</text><text x="331.90000000000003" y="494" font-size="7" text-anchor="middle">Time (weeks)</text><text x="11.5" y="248.75" font-size="7" text-anchor="middle" transform="rotate(-90,11.5,248.75)">Count</text><text x="354.45" y="13.700000000000001" font-size="9" text-anchor="middle">Growth Rate</text><g clip-path="url(#kuva-clip-0)"><circle cx="81.9" cy="424.75" r="3" fill="#4682b4" /><circle cx="131.9" cy="386.5" r="3" fill="#4682b4" /><circle cx="181.9" cy="348.25" r="3" fill="#4682b4" /><circle cx="231.9" cy="314.5" r="3" fill="#4682b4" /><circle cx="281.90000000000003" cy="265" r="3" fill="#4682b4" /><circle cx="331.90000000000003" cy="229" r="3" fill="#4682b4" /><circle cx="381.90000000000003" cy="199.75" r="3" fill="#4682b4" /><circle cx="431.90000000000003" cy="145.75" r="3" fill="#4682b4" /><circle cx="481.90000000000003" cy="114.25" r="3" fill="#4682b4" /><circle cx="531.9" cy="67" r="3" fill="#4682b4" /><path d="M 81.9 429.25 L 531.9 62.5 " stroke="#dc143c" stroke-width="2" fill="none" /><line x1="31.900000000000002" y1="247" x2="631.9" y2="247" stroke="#ffa500" stroke-width="1" stroke-dasharray="6 4" /><text x="627.9" y="243" font-size="6" text-anchor="end">threshold</text><text x="481.90000000000003" y="108.25" font-size="11" text-anchor="middle">Peak</text></g><rect x="641.9" y="17" width="68" height="28" fill="#ffffff" /><rect x="641.9" y="17" width="68" height="28" fill="none" stroke="#000000" stroke-width="0.5" /><text x="654.4" y="26.1" font-size="6" text-anchor="start">Observations</text><circle cx="646.9" cy="24" r="2.5" fill="#4682b4" /><text x="654.4" y="35.1" font-size="6" text-anchor="start">Trend</text><line x1="644.4" y1="33" x2="650.4" y2="33" stroke="#dc143c" stroke-width="1" /></svg>