<svg xmlns="http://www.w3.org/2000/svg" width="1230" height="735" font-family="DejaVu Sans, Liberation Sans, Arial, sans-serif" fill="black"><rect width="100%" height="100%" fill="white" /><line x1="177" y1="582" x2="777" y2="582" stroke="#000000" stroke-width="3" /><line x1="177" y1="132" x2="177" y2="582" stroke="#000000" stroke-width="3" /><line x1="302" y1="132" x2="302" y2="582" stroke="#cccccc" stroke-width="3" /><line x1="427" y1="132" x2="427" y2="582" stroke="#cccccc" stroke-width="3" /><line x1="552" y1="132" x2="552" y2="582" stroke="#cccccc" stroke-width="3" /><line x1="677" y1="132" x2="677" y2="582" stroke="#cccccc" stroke-width="3" /><line x1="177" y1="469.5" x2="777" y2="469.5" stroke="#cccccc" stroke-width="3" /><line x1="177" y1="357" x2="777" y2="357" stroke="#cccccc" stroke-width="3" /><line x1="177" y1="244.5" x2="777" y2="244.5" stroke="#cccccc" stroke-width="3" /><line x1="177" y1="132" x2="777" y2="132" stroke="#cccccc" stroke-width="3" /><line x1="177" y1="582" x2="177" y2="597" stroke="#000000" stroke-width="3" /><text x="177" y="633" font-size="36" text-anchor="middle">0</text><line x1="302" y1="582" x2="302" y2="597" stroke="#000000" stroke-width="3" /><text x="302" y="633" font-size="36" text-anchor="middle">2.5</text><line x1="427" y1="582" x2="427" y2="597" stroke="#000000" stroke-width="3" /><text x="427" y="633" font-size="36" text-anchor="middle">5</text><line x1="552" y1="582" x2="552" y2="597" stroke="#000000" stroke-width="3" /><text x="552" y="633" font-size="36" text-anchor="middle">7.5</text><line x1="677" y1="582" x2="677" y2="597" stroke="#000000" stroke-width="3" /><text x="677" y="633" font-size="36" text-anchor="middle">10</text><line x1="162" y1="582" x2="177" y2="582" stroke="#000000" stroke-width="3" /><text x="153" y="594.6" font-size="36" text-anchor="end">0</text><line x1="162" y1="469.5" x2="177" y2="469.5" stroke="#000000" stroke-width="3" /><text x="153" y="482.1" font-size="36" text-anchor="end">5</text><line x1="162" y1="357" x2="177" y2="357" stroke="#000000" stroke-width="3" /><text x="153" y="369.6" font-size="36" text-anchor="end">10</text><line x1="162" y1="244.5" x2="177" y2="244.5" stroke="#000000" stroke-width="3" /><text x="153" y="257.1" font-size="36" text-anchor="end">15</text><line x1="162" y1="132" x2="177" y2="132" stroke="#000000" stroke-width="3" /><text x="153" y="144.6" font-size="36" text-anchor="end">20</text><text x="477" y="714" font-size="42" text-anchor="middle">Time (weeks)</text><text x="71" y="367.5" font-size="42" text-anchor="middle" transform="rotate(-90,71,367.5)">Count</text><text x="477" y="66" font-size="54" text-anchor="middle">Growth Rate</text><circle cx="227" cy="534.75" r="3" fill="#4682b4" /><circle cx="277" cy="496.5" r="3" fill="#4682b4" /><circle cx="327" cy="458.25" r="3" fill="#4682b4" /><circle cx="377" cy="424.5" r="3" fill="#4682b4" /><circle cx="427" cy="375" r="3" fill="#4682b4" /><circle cx="477" cy="339" r="3" fill="#4682b4" /><circle cx="527" cy="309.75" r="3" fill="#4682b4" /><circle cx="577" cy="255.75" r="3" fill="#4682b4" /><circle cx="627" cy="224.25" r="3" fill="#4682b4" /><circle cx="677" cy="177" r="3" fill="#4682b4" /><path d="M 227.0 539.25 L 677.0 172.5 " stroke="#dc143c" stroke-width="2" fill="none" /><line x1="177" y1="357" x2="777" y2="357" stroke="#ffa500" stroke-width="1" stroke-dasharray="6 4" /><text x="773" y="353" font-size="36" text-anchor="end">threshold</text><text x="627" y="218.25" font-size="11" text-anchor="middle">Peak</text><rect x="762" y="102" width="411" height="168" fill="#ffffff" /><rect x="762" y="102" width="411" height="168" fill="none" stroke="#000000" stroke-width="3" /><text x="862" y="161.6" font-size="36" text-anchor="start">Observations</text><circle cx="817" cy="149" r="15" fill="#4682b4" /><text x="862" y="215.6" font-size="36" text-anchor="start">Trend</text><line x1="802" y1="203" x2="838" y2="203" stroke="#dc143c" stroke-width="6" /></svg>