<svg xmlns="http://www.w3.org/2000/svg" width="926.7" height="592.5" font-family="DejaVu Sans, Liberation Sans, Arial, sans-serif" fill="black"><rect width="100%" height="100%" fill="white" /><defs><clipPath id="kuva-clip-2"><rect x="95.7" y="66" width="600" height="450"/></clipPath></defs><line x1="220.70000000000002" y1="66" x2="220.70000000000002" y2="516" stroke="#cccccc" stroke-width="1.5" /><line x1="345.7" y1="66" x2="345.7" y2="516" stroke="#cccccc" stroke-width="1.5" /><line x1="470.7" y1="66" x2="470.7" y2="516" stroke="#cccccc" stroke-width="1.5" /><line x1="595.7" y1="66" x2="595.7" y2="516" stroke="#cccccc" stroke-width="1.5" /><line x1="95.7" y1="403.5" x2="695.7" y2="403.5" stroke="#cccccc" stroke-width="1.5" /><line x1="95.7" y1="291" x2="695.7" y2="291" stroke="#cccccc" stroke-width="1.5" /><line x1="95.7" y1="178.5" x2="695.7" y2="178.5" stroke="#cccccc" stroke-width="1.5" /><line x1="95.7" y1="66" x2="695.7" y2="66" stroke="#cccccc" stroke-width="1.5" /><line x1="95.7" y1="516" x2="695.7" y2="516" stroke="#000000" stroke-width="1.5" /><line x1="95.7" y1="66" x2="95.7" y2="516" stroke="#000000" stroke-width="1.5" /><line x1="95.7" y1="516" x2="95.7" y2="523.5" stroke="#000000" stroke-width="1.5" /><text x="95.7" y="541.5" font-size="18" text-anchor="middle">0</text><line x1="220.70000000000002" y1="516" x2="220.70000000000002" y2="523.5" stroke="#000000" stroke-width="1.5" /><text x="220.70000000000002" y="541.5" font-size="18" text-anchor="middle">2.5</text><line x1="345.7" y1="516" x2="345.7" y2="523.5" stroke="#000000" stroke-width="1.5" /><text x="345.7" y="541.5" font-size="18" text-anchor="middle">5</text><line x1="470.7" y1="516" x2="470.7" y2="523.5" stroke="#000000" stroke-width="1.5" /><text x="470.7" y="541.5" font-size="18" text-anchor="middle">7.5</text><line x1="595.7" y1="516" x2="595.7" y2="523.5" stroke="#000000" stroke-width="1.5" /><text x="595.7" y="541.5" font-size="18" text-anchor="middle">10</text><line x1="88.2" y1="516" x2="95.7" y2="516" stroke="#000000" stroke-width="1.5" /><text x="83.7" y="522.3" font-size="18" text-anchor="end">0</text><line x1="88.2" y1="403.5" x2="95.7" y2="403.5" stroke="#000000" stroke-width="1.5" /><text x="83.7" y="409.8" font-size="18" text-anchor="end">5</text><line x1="88.2" y1="291" x2="95.7" y2="291" stroke="#000000" stroke-width="1.5" /><text x="83.7" y="297.3" font-size="18" text-anchor="end">10</text><line x1="88.2" y1="178.5" x2="95.7" y2="178.5" stroke="#000000" stroke-width="1.5" /><text x="83.7" y="184.8" font-size="18" text-anchor="end">15</text><line x1="88.2" y1="66" x2="95.7" y2="66" stroke="#000000" stroke-width="1.5" /><text x="83.7" y="72.3" font-size="18" text-anchor="end">20</text><text x="395.7" y="582" font-size="21" text-anchor="middle">Time (weeks)</text><text x="29" y="296.25" font-size="21" text-anchor="middle" transform="rotate(-90,29,296.25)">Count</text><text x="463.35" y="41.1" font-size="27" text-anchor="middle">Growth Rate</text><g clip-path="url(#kuva-clip-2)"><circle cx="145.70000000000002" cy="468.75" r="3" fill="#4682b4" /><circle cx="195.70000000000002" cy="430.5" r="3" fill="#4682b4" /><circle cx="245.70000000000002" cy="392.25" r="3" fill="#4682b4" /><circle cx="295.7" cy="358.5" r="3" fill="#4682b4" /><circle cx="345.7" cy="309" r="3" fill="#4682b4" /><circle cx="395.7" cy="273" r="3" fill="#4682b4" /><circle cx="445.7" cy="243.75" r="3" fill="#4682b4" /><circle cx="495.7" cy="189.75" r="3" fill="#4682b4" /><circle cx="545.7" cy="158.25" r="3" fill="#4682b4" /><circle cx="595.7" cy="111" r="3" fill="#4682b4" /><path d="M 145.70000000000002 473.25 L 595.7 106.5 " stroke="#dc143c" stroke-width="2" fill="none" /><line x1="95.7" y1="291" x2="695.7" y2="291" stroke="#ffa500" stroke-width="1" stroke-dasharray="6 4" /><text x="691.7" y="287" font-size="18" text-anchor="end">threshold</text><text x="545.7" y="152.25" font-size="11" text-anchor="middle">Peak</text></g><rect x="695.7" y="51" width="204" height="84" fill="#ffffff" /><rect x="695.7" y="51" width="204" height="84" fill="none" stroke="#000000" stroke-width="1.5" /><text x="743.2" y="80.3" font-size="18" text-anchor="start">Observations</text><circle cx="720.7" cy="74" r="7.5" fill="#4682b4" /><text x="743.2" y="107.3" font-size="18" text-anchor="start">Trend</text><line x1="713.2" y1="101" x2="731.2" y2="101" stroke="#dc143c" stroke-width="3" /></svg>