<svg xmlns="http://www.w3.org/2000/svg" width="686.2" height="545" font-family="DejaVu Sans, Liberation Sans, Arial, sans-serif" fill="black"><rect width="100%" height="100%" fill="white" /><line x1="72.2" y1="494" x2="672.2" y2="494" stroke="#000000" stroke-width="1" /><line x1="72.2" y1="44" x2="72.2" y2="494" stroke="#000000" stroke-width="1" /><line x1="222.20000000000002" y1="44" x2="222.20000000000002" y2="494" stroke="#cccccc" stroke-width="1" /><line x1="372.2" y1="44" x2="372.2" y2="494" stroke="#cccccc" stroke-width="1" /><line x1="522.2" y1="44" x2="522.2" y2="494" stroke="#cccccc" stroke-width="1" /><line x1="672.2" y1="44" x2="672.2" y2="494" stroke="#cccccc" stroke-width="1" /><line x1="72.2" y1="404" x2="672.2" y2="404" stroke="#cccccc" stroke-width="1" /><line x1="72.2" y1="314" x2="672.2" y2="314" stroke="#cccccc" stroke-width="1" /><line x1="72.2" y1="224" x2="672.2" y2="224" stroke="#cccccc" stroke-width="1" /><line x1="72.2" y1="134" x2="672.2" y2="134" stroke="#cccccc" stroke-width="1" /><line x1="72.2" y1="44" x2="672.2" y2="44" stroke="#cccccc" stroke-width="1" /><line x1="72.2" y1="494" x2="72.2" y2="499" stroke="#000000" stroke-width="1" /><text x="72.2" y="511" font-size="12" text-anchor="middle">-4</text><line x1="222.20000000000002" y1="494" x2="222.20000000000002" y2="499" stroke="#000000" stroke-width="1" /><text x="222.20000000000002" y="511" font-size="12" text-anchor="middle">-2</text><line x1="372.2" y1="494" x2="372.2" y2="499" stroke="#000000" stroke-width="1" /><text x="372.2" y="511" font-size="12" text-anchor="middle">0</text><line x1="522.2" y1="494" x2="522.2" y2="499" stroke="#000000" stroke-width="1" /><text x="522.2" y="511" font-size="12" text-anchor="middle">2</text><line x1="672.2" y1="494" x2="672.2" y2="499" stroke="#000000" stroke-width="1" /><text x="672.2" y="511" font-size="12" text-anchor="middle">4</text><line x1="67.2" y1="494" x2="72.2" y2="494" stroke="#000000" stroke-width="1" /><text x="64.2" y="498.2" font-size="12" text-anchor="end">0</text><line x1="67.2" y1="404" x2="72.2" y2="404" stroke="#000000" stroke-width="1" /><text x="64.2" y="408.2" font-size="12" text-anchor="end">1</text><line x1="67.2" y1="314" x2="72.2" y2="314" stroke="#000000" stroke-width="1" /><text x="64.2" y="318.2" font-size="12" text-anchor="end">2</text><line x1="67.2" y1="224" x2="72.2" y2="224" stroke="#000000" stroke-width="1" /><text x="64.2" y="228.20000000000002" font-size="12" text-anchor="end">3</text><line x1="67.2" y1="134" x2="72.2" y2="134" stroke="#000000" stroke-width="1" /><text x="64.2" y="138.20000000000002" font-size="12" text-anchor="end">4</text><line x1="67.2" y1="44" x2="72.2" y2="44" stroke="#000000" stroke-width="1" /><text x="64.2" y="48.2" font-size="12" text-anchor="end">5</text><text x="372.2" y="538" font-size="14" text-anchor="middle">log₂ fold change</text><text x="7" y="272.5" font-size="14" text-anchor="middle" transform="rotate(-90,7,272.5)">−log₁₀(p-value)</text><text x="372.2" y="22" font-size="18" text-anchor="middle">Volcano Plot — Arrow Labels (top 10)</text><line x1="72.2" y1="376.91" x2="672.2" y2="376.91" stroke="#888888" stroke-width="1" stroke-dasharray="4 4" /><line x1="297.2" y1="44" x2="297.2" y2="494" stroke="#888888" stroke-width="1" stroke-dasharray="4 4" /><line x1="447.2" y1="44" x2="447.2" y2="494" stroke="#888888" stroke-width="1" stroke-dasharray="4 4" /><circle cx="394.7" cy="466.91" r="3" fill="#aaaaaa" /><circle cx="334.7" cy="446.94" r="3" fill="#aaaaaa" /><circle cx="432.2" cy="404" r="3" fill="#aaaaaa" /><circle cx="357.2" cy="480.06" r="3" fill="#aaaaaa" /><circle cx="417.2" cy="431.09000000000003" r="3" fill="#aaaaaa" /><circle cx="304.7" cy="419.85" r="3" fill="#aaaaaa" /><circle cx="379.7" cy="485.28000000000003" r="3" fill="#aaaaaa" /><circle cx="319.7" cy="458.19" r="3" fill="#aaaaaa" /><circle cx="484.7" cy="431.09000000000003" r="3" fill="#aaaaaa" /><circle cx="289.7" cy="390.06" r="3" fill="#aaaaaa" /><circle cx="522.2" cy="411.13" r="3" fill="#aaaaaa" /><circle cx="237.20000000000002" cy="395.28000000000003" r="3" fill="#aaaaaa" /><circle cx="469.7" cy="426.97" r="3" fill="#aaaaaa" /><circle cx="132.2" cy="161.09" r="3" fill="#4682b4" /><circle cx="147.20000000000002" cy="196.91" r="3" fill="#4682b4" /><circle cx="184.70000000000002" cy="266.94" r="3" fill="#4682b4" /><circle cx="169.70000000000002" cy="224" r="3" fill="#4682b4" /><circle cx="199.70000000000002" cy="251.09" r="3" fill="#4682b4" /><circle cx="222.20000000000002" cy="300.06" r="3" fill="#4682b4" /><circle cx="229.70000000000002" cy="305.28000000000003" r="3" fill="#4682b4" /><circle cx="244.70000000000002" cy="329.85" r="3" fill="#4682b4" /><circle cx="252.20000000000002" cy="368.19" r="3" fill="#4682b4" /><circle cx="267.2" cy="362.97" r="3" fill="#4682b4" /><circle cx="214.70000000000002" cy="278.19" r="3" fill="#4682b4" /><circle cx="259.7" cy="354.24" r="3" fill="#4682b4" /><circle cx="162.20000000000002" cy="215.28" r="3" fill="#4682b4" /><circle cx="237.20000000000002" cy="321.13" r="3" fill="#4682b4" /><circle cx="634.7" cy="106.91" r="3" fill="#b22222" /><circle cx="612.2" cy="134" r="3" fill="#b22222" /><circle cx="582.2" cy="251.09" r="3" fill="#b22222" /><circle cx="559.7" cy="224" r="3" fill="#b22222" /><circle cx="574.7" cy="224" r="3" fill="#b22222" /><circle cx="544.7" cy="266.94" r="3" fill="#b22222" /><circle cx="529.7" cy="286.91" r="3" fill="#b22222" /><circle cx="507.2" cy="314" r="3" fill="#b22222" /><circle cx="514.7" cy="305.28000000000003" r="3" fill="#b22222" /><circle cx="492.2" cy="349.81" r="3" fill="#b22222" /><circle cx="484.7" cy="356.94" r="3" fill="#b22222" /><circle cx="462.2" cy="368.19" r="3" fill="#b22222" /><circle cx="552.2" cy="251.09" r="3" fill="#b22222" /><circle cx="499.7" cy="329.85" r="3" fill="#b22222" /><circle cx="597.2" cy="161.09" r="3" fill="#b22222" /><circle cx="567.2" cy="239.85" r="3" fill="#b22222" /><circle cx="477.2" cy="362.97" r="3" fill="#b22222" /><line x1="648.7" y1="90.91" x2="638.65" y2="102.39" stroke="#666666" stroke-width="0.8" /><text x="648.7" y="90.91" font-size="12" text-anchor="start">AKT1</text><line x1="626.2" y1="118" x2="616.15" y2="129.48" stroke="#666666" stroke-width="0.8" /><text x="626.2" y="118" font-size="12" text-anchor="start">EGFR</text><line x1="611.2" y1="145.09" x2="601.15" y2="156.58" stroke="#666666" stroke-width="0.8" /><text x="611.2" y="145.09" font-size="12" text-anchor="start">FGFR1</text><line x1="146.20000000000002" y1="145.09" x2="136.15" y2="156.58" stroke="#666666" stroke-width="0.8" /><text x="146.20000000000002" y="145.09" font-size="12" text-anchor="start">P21</text><line x1="161.20000000000002" y1="180.91" x2="151.15" y2="192.39000000000001" stroke="#666666" stroke-width="0.8" /><text x="161.20000000000002" y="180.91" font-size="12" text-anchor="start">VHL</text><line x1="176.20000000000002" y1="199.28" x2="166.15" y2="210.76" stroke="#666666" stroke-width="0.8" /><text x="176.20000000000002" y="199.28" font-size="12" text-anchor="start">MLH1</text><line x1="573.7" y1="208" x2="563.65" y2="219.48000000000002" stroke="#666666" stroke-width="0.8" /><text x="573.7" y="208" font-size="12" text-anchor="start">BRCA1</text><line x1="588.7" y1="208" x2="578.65" y2="219.48000000000002" stroke="#666666" stroke-width="0.8" /><text x="588.7" y="208" font-size="12" text-anchor="start">BCL2</text><line x1="183.70000000000002" y1="208" x2="173.65" y2="219.48000000000002" stroke="#666666" stroke-width="0.8" /><text x="183.70000000000002" y="208" font-size="12" text-anchor="start">BCL2L</text><line x1="581.2" y1="223.85" x2="571.15" y2="235.33" stroke="#666666" stroke-width="0.8" /><text x="581.2" y="223.85" font-size="12" text-anchor="start">ERBB2</text></svg>