<svg xmlns="http://www.w3.org/2000/svg" width="757" height="545" font-family="DejaVu Sans, Liberation Sans, Arial, sans-serif" fill="black"><rect width="100%" height="100%" fill="white" /><defs><clipPath id="kuva-clip-0"><rect x="59" y="44" width="600" height="450"/></clipPath></defs><line x1="209" y1="44" x2="209" y2="494" stroke="#cccccc" stroke-width="1" /><line x1="359" y1="44" x2="359" y2="494" stroke="#cccccc" stroke-width="1" /><line x1="509" y1="44" x2="509" y2="494" stroke="#cccccc" stroke-width="1" /><line x1="659" y1="44" x2="659" y2="494" stroke="#cccccc" stroke-width="1" /><line x1="59" y1="404" x2="659" y2="404" stroke="#cccccc" stroke-width="1" /><line x1="59" y1="314" x2="659" y2="314" stroke="#cccccc" stroke-width="1" /><line x1="59" y1="224" x2="659" y2="224" stroke="#cccccc" stroke-width="1" /><line x1="59" y1="134" x2="659" y2="134" stroke="#cccccc" stroke-width="1" /><line x1="59" y1="44" x2="659" y2="44" stroke="#cccccc" stroke-width="1" /><line x1="59" y1="494" x2="659" y2="494" stroke="#000000" stroke-width="1" /><line x1="59" y1="44" x2="59" y2="494" stroke="#000000" stroke-width="1" /><line x1="59" y1="494" x2="59" y2="499" stroke="#000000" stroke-width="1" /><text x="59" y="511" font-size="12" text-anchor="middle">-4</text><line x1="209" y1="494" x2="209" y2="499" stroke="#000000" stroke-width="1" /><text x="209" y="511" font-size="12" text-anchor="middle">-2</text><line x1="359" y1="494" x2="359" y2="499" stroke="#000000" stroke-width="1" /><text x="359" y="511" font-size="12" text-anchor="middle">0</text><line x1="509" y1="494" x2="509" y2="499" stroke="#000000" stroke-width="1" /><text x="509" y="511" font-size="12" text-anchor="middle">2</text><line x1="659" y1="494" x2="659" y2="499" stroke="#000000" stroke-width="1" /><text x="659" y="511" font-size="12" text-anchor="middle">4</text><line x1="54" y1="494" x2="59" y2="494" stroke="#000000" stroke-width="1" /><text x="51" y="498.2" font-size="12" text-anchor="end">0</text><line x1="54" y1="404" x2="59" y2="404" stroke="#000000" stroke-width="1" /><text x="51" y="408.2" font-size="12" text-anchor="end">1</text><line x1="54" y1="314" x2="59" y2="314" stroke="#000000" stroke-width="1" /><text x="51" y="318.2" font-size="12" text-anchor="end">2</text><line x1="54" y1="224" x2="59" y2="224" stroke="#000000" stroke-width="1" /><text x="51" y="228.20000000000002" font-size="12" text-anchor="end">3</text><line x1="54" y1="134" x2="59" y2="134" stroke="#000000" stroke-width="1" /><text x="51" y="138.20000000000002" font-size="12" text-anchor="end">4</text><line x1="54" y1="44" x2="59" y2="44" stroke="#000000" stroke-width="1" /><text x="51" y="48.2" font-size="12" text-anchor="end">5</text><text x="359" y="538" font-size="14" text-anchor="middle">log₂ fold change</text><text x="15" y="272.5" font-size="14" text-anchor="middle" transform="rotate(-90,15,272.5)">−log₁₀(p-value)</text><text x="359" y="22" font-size="18" text-anchor="middle">Tumour vs. Normal — Volcano Plot</text><g clip-path="url(#kuva-clip-0)"><line x1="59" y1="376.91" x2="659" y2="376.91" stroke="#888888" stroke-width="1" stroke-dasharray="4 4" /><line x1="284" y1="44" x2="284" y2="494" stroke="#888888" stroke-width="1" stroke-dasharray="4 4" /><line x1="434" y1="44" x2="434" y2="494" stroke="#888888" stroke-width="1" stroke-dasharray="4 4" /><circle cx="381.5" cy="466.91" r="3" fill="#aaaaaa" /><circle cx="321.5" cy="446.94" r="3" fill="#aaaaaa" /><circle cx="419" cy="404" r="3" fill="#aaaaaa" /><circle cx="344" cy="480.06" r="3" fill="#aaaaaa" /><circle cx="404" cy="431.09000000000003" r="3" fill="#aaaaaa" /><circle cx="291.5" cy="419.85" r="3" fill="#aaaaaa" /><circle cx="366.5" cy="485.28000000000003" r="3" fill="#aaaaaa" /><circle cx="306.5" cy="458.19" r="3" fill="#aaaaaa" /><circle cx="471.5" cy="431.09000000000003" r="3" fill="#aaaaaa" /><circle cx="276.5" cy="390.06" r="3" fill="#aaaaaa" /><circle cx="509" cy="411.13" r="3" fill="#aaaaaa" /><circle cx="224" cy="395.28000000000003" r="3" fill="#aaaaaa" /><circle cx="456.5" cy="426.97" r="3" fill="#aaaaaa" /><circle cx="119" cy="161.09" r="3" fill="#4682b4" /><circle cx="134" cy="196.91" r="3" fill="#4682b4" /><circle cx="171.5" cy="266.94" r="3" fill="#4682b4" /><circle cx="156.5" cy="224" r="3" fill="#4682b4" /><circle cx="186.5" cy="251.09" r="3" fill="#4682b4" /><circle cx="209" cy="300.06" r="3" fill="#4682b4" /><circle cx="216.5" cy="305.28000000000003" r="3" fill="#4682b4" /><circle cx="231.5" cy="329.85" r="3" fill="#4682b4" /><circle cx="239" cy="368.19" r="3" fill="#4682b4" /><circle cx="254" cy="362.97" r="3" fill="#4682b4" /><circle cx="201.5" cy="278.19" r="3" fill="#4682b4" /><circle cx="246.5" cy="354.24" r="3" fill="#4682b4" /><circle cx="149" cy="215.28" r="3" fill="#4682b4" /><circle cx="224" cy="321.13" r="3" fill="#4682b4" /><circle cx="621.5" cy="106.91" r="3" fill="#b22222" /><circle cx="599" cy="134" r="3" fill="#b22222" /><circle cx="569" cy="251.09" r="3" fill="#b22222" /><circle cx="546.5" cy="224" r="3" fill="#b22222" /><circle cx="561.5" cy="224" r="3" fill="#b22222" /><circle cx="531.5" cy="266.94" r="3" fill="#b22222" /><circle cx="516.5" cy="286.91" r="3" fill="#b22222" /><circle cx="494" cy="314" r="3" fill="#b22222" /><circle cx="501.5" cy="305.28000000000003" r="3" fill="#b22222" /><circle cx="479" cy="349.81" r="3" fill="#b22222" /><circle cx="471.5" cy="356.94" r="3" fill="#b22222" /><circle cx="449" cy="368.19" r="3" fill="#b22222" /><circle cx="539" cy="251.09" r="3" fill="#b22222" /><circle cx="486.5" cy="329.85" r="3" fill="#b22222" /><circle cx="584" cy="161.09" r="3" fill="#b22222" /><circle cx="554" cy="239.85" r="3" fill="#b22222" /><circle cx="464" cy="362.97" r="3" fill="#b22222" /></g><rect x="664" y="34" width="80" height="74" fill="#ffffff" /><rect x="664" y="34" width="80" height="74" fill="none" stroke="#000000" stroke-width="1" /><text x="694" y="53.2" font-size="12" text-anchor="start">Up</text><circle cx="679" cy="49" r="5" fill="#b22222" /><text x="694" y="71.2" font-size="12" text-anchor="start">Down</text><circle cx="679" cy="67" r="5" fill="#4682b4" /><text x="694" y="89.2" font-size="12" text-anchor="start">NS</text><circle cx="679" cy="85" r="5" fill="#aaaaaa" /></svg>