<svg xmlns="http://www.w3.org/2000/svg" width="560" height="400" font-family="DejaVu Sans, Liberation Sans, Arial, sans-serif" fill="black"><rect width="100%" height="100%" fill="white" /><defs><clipPath id="kuva-clip-0"><rect x="59" y="44" width="393" height="305"/></clipPath></defs><line x1="137.6" y1="44" x2="137.6" y2="349" stroke="#cccccc" stroke-width="1" /><line x1="216.20000000000002" y1="44" x2="216.20000000000002" y2="349" stroke="#cccccc" stroke-width="1" /><line x1="294.8" y1="44" x2="294.8" y2="349" stroke="#cccccc" stroke-width="1" /><line x1="373.40000000000003" y1="44" x2="373.40000000000003" y2="349" stroke="#cccccc" stroke-width="1" /><line x1="452" y1="44" x2="452" y2="349" stroke="#cccccc" stroke-width="1" /><line x1="59" y1="298.17" x2="452" y2="298.17" stroke="#cccccc" stroke-width="1" /><line x1="59" y1="247.33" x2="452" y2="247.33" stroke="#cccccc" stroke-width="1" /><line x1="59" y1="196.5" x2="452" y2="196.5" stroke="#cccccc" stroke-width="1" /><line x1="59" y1="145.67000000000002" x2="452" y2="145.67000000000002" stroke="#cccccc" stroke-width="1" /><line x1="59" y1="94.83" x2="452" y2="94.83" stroke="#cccccc" stroke-width="1" /><line x1="59" y1="44" x2="452" y2="44" stroke="#cccccc" stroke-width="1" /><line x1="59" y1="349" x2="452" y2="349" stroke="#000000" stroke-width="1" /><line x1="59" y1="44" x2="59" y2="349" stroke="#000000" stroke-width="1" /><line x1="59" y1="349" x2="59" y2="354" stroke="#000000" stroke-width="1" /><text x="59" y="366" font-size="12" text-anchor="middle">0</text><line x1="137.6" y1="349" x2="137.6" y2="354" stroke="#000000" stroke-width="1" /><text x="137.6" y="366" font-size="12" text-anchor="middle">1</text><line x1="216.20000000000002" y1="349" x2="216.20000000000002" y2="354" stroke="#000000" stroke-width="1" /><text x="216.20000000000002" y="366" font-size="12" text-anchor="middle">2</text><line x1="294.8" y1="349" x2="294.8" y2="354" stroke="#000000" stroke-width="1" /><text x="294.8" y="366" font-size="12" text-anchor="middle">3</text><line x1="373.40000000000003" y1="349" x2="373.40000000000003" y2="354" stroke="#000000" stroke-width="1" /><text x="373.40000000000003" y="366" font-size="12" text-anchor="middle">4</text><line x1="452" y1="349" x2="452" y2="354" stroke="#000000" stroke-width="1" /><text x="452" y="366" font-size="12" text-anchor="middle">5</text><line x1="54" y1="349" x2="59" y2="349" stroke="#000000" stroke-width="1" /><text x="51" y="353.2" font-size="12" text-anchor="end">0</text><line x1="54" y1="298.17" x2="59" y2="298.17" stroke="#000000" stroke-width="1" /><text x="51" y="302.37" font-size="12" text-anchor="end">1</text><line x1="54" y1="247.33" x2="59" y2="247.33" stroke="#000000" stroke-width="1" /><text x="51" y="251.53" font-size="12" text-anchor="end">2</text><line x1="54" y1="196.5" x2="59" y2="196.5" stroke="#000000" stroke-width="1" /><text x="51" y="200.70000000000002" font-size="12" text-anchor="end">3</text><line x1="54" y1="145.67000000000002" x2="59" y2="145.67000000000002" stroke="#000000" stroke-width="1" /><text x="51" y="149.87" font-size="12" text-anchor="end">4</text><line x1="54" y1="94.83" x2="59" y2="94.83" stroke="#000000" stroke-width="1" /><text x="51" y="99.03" font-size="12" text-anchor="end">5</text><line x1="54" y1="44" x2="59" y2="44" stroke="#000000" stroke-width="1" /><text x="51" y="48.2" font-size="12" text-anchor="end">6</text><text x="255.5" y="393" font-size="14" text-anchor="middle">X</text><text x="15" y="200" font-size="14" text-anchor="middle" transform="rotate(-90,15,200)">Y</text><text x="280" y="27.400000000000002" font-size="18" text-anchor="middle">Hexbin Density — three clusters</text><g clip-path="url(#kuva-clip-0)"><path d="M 68.83 321.95 L 59 327.62 L 49.18 321.95 L 49.18 310.61 L 59 304.93 L 68.83 310.61 Z" stroke="#472c7a" stroke-width="0" fill="#472c7a" /><path d="M 78.65 338.97 L 68.83 344.64 L 59 338.97 L 59 327.62 L 68.83 321.95 L 78.65 327.62 Z" stroke="#440154" stroke-width="0" fill="#440154" /><path d="M 68.83 287.92 L 59 293.59000000000003 L 49.18 287.92 L 49.18 276.57 L 59 270.9 L 68.83 276.57 Z" stroke="#440154" stroke-width="0" fill="#440154" /><path d="M 78.65 304.93 L 68.82000000000001 310.61 L 59 304.93 L 59 293.59000000000003 L 68.82000000000001 287.92 L 78.65 293.59000000000003 Z" stroke="#3a518b" stroke-width="0" fill="#3a518b" /><path d="M 88.48 321.95 L 78.65 327.62 L 68.82000000000001 321.95 L 68.82000000000001 310.61 L 78.65 304.93 L 88.48 310.61 Z" stroke="#20908c" stroke-width="0" fill="#20908c" /><path d="M 98.3 338.97 L 88.48 344.64 L 78.65 338.97 L 78.65 327.62 L 88.48 321.95 L 98.3 327.62 Z" stroke="#472c7a" stroke-width="0" fill="#472c7a" /><path d="M 78.65 270.9 L 68.82000000000001 276.57 L 59 270.9 L 59 259.55 L 68.82000000000001 253.88 L 78.65 259.55 Z" stroke="#472c7a" stroke-width="0" fill="#472c7a" /><path d="M 98.3 304.93 L 88.47 310.61 L 78.65 304.93 L 78.65 293.59000000000003 L 88.47 287.92 L 98.3 293.59000000000003 Z" stroke="#2c718e" stroke-width="0" fill="#2c718e" /><path d="M 108.12 321.95 L 98.3 327.62 L 88.47 321.95 L 88.47 310.61 L 98.3 304.93 L 108.12 310.61 Z" stroke="#472c7a" stroke-width="0" fill="#472c7a" /><path d="M 117.95 338.97 L 108.13 344.64 L 98.3 338.97 L 98.3 327.62 L 108.13 321.95 L 117.95 327.62 Z" stroke="#440154" stroke-width="0" fill="#440154" /><path d="M 127.78 355.99 L 117.95 361.66 L 108.12 355.99 L 108.12 344.64 L 117.95 338.97 L 127.78 344.64 Z" stroke="#472c7a" stroke-width="0" fill="#472c7a" /><path d="M 98.3 270.9 L 88.48 276.57 L 78.65 270.9 L 78.65 259.55 L 88.48 253.88 L 98.3 259.55 Z" stroke="#440154" stroke-width="0" fill="#440154" /><path d="M 108.13 287.92 L 98.3 293.59000000000003 L 88.48 287.92 L 88.48 276.57 L 98.3 270.9 L 108.13 276.57 Z" stroke="#472c7a" stroke-width="0" fill="#472c7a" /><path d="M 117.95 304.93 L 108.13 310.61 L 98.3 304.93 L 98.3 293.59000000000003 L 108.13 287.92 L 117.95 293.59000000000003 Z" stroke="#3a518b" stroke-width="0" fill="#3a518b" /><path d="M 127.78 321.95 L 117.95 327.62 L 108.13 321.95 L 108.13 310.61 L 117.95 304.93 L 127.78 310.61 Z" stroke="#3a518b" stroke-width="0" fill="#3a518b" /><path d="M 137.6 338.97 L 127.78 344.64 L 117.95 338.97 L 117.95 327.62 L 127.78 321.95 L 137.6 327.62 Z" stroke="#3a518b" stroke-width="0" fill="#3a518b" /><path d="M 147.42000000000002 355.99 L 137.6 361.66 L 127.78 355.99 L 127.78 344.64 L 137.6 338.97 L 147.43 344.64 Z" stroke="#472c7a" stroke-width="0" fill="#472c7a" /><path d="M 117.95 270.9 L 108.13 276.57 L 98.3 270.9 L 98.3 259.55 L 108.13 253.88 L 117.95 259.55 Z" stroke="#2c718e" stroke-width="0" fill="#2c718e" /><path d="M 127.78 287.92 L 117.95 293.59000000000003 L 108.13 287.92 L 108.13 276.57 L 117.95 270.9 L 127.78 276.57 Z" stroke="#20908c" stroke-width="0" fill="#20908c" /><path d="M 137.6 304.93 L 127.78 310.61 L 117.95 304.93 L 117.95 293.59000000000003 L 127.78 287.92 L 137.6 293.59000000000003 Z" stroke="#3a518b" stroke-width="0" fill="#3a518b" /><path d="M 147.42000000000002 321.95 L 137.6 327.62 L 127.78 321.95 L 127.78 310.61 L 137.6 304.93 L 147.43 310.61 Z" stroke="#3a518b" stroke-width="0" fill="#3a518b" /><path d="M 157.25 338.97 L 147.43 344.64 L 137.6 338.97 L 137.6 327.62 L 147.43 321.95 L 157.25 327.62 Z" stroke="#472c7a" stroke-width="0" fill="#472c7a" /><path d="M 167.08 355.99 L 157.25 361.66 L 147.43 355.99 L 147.43 344.64 L 157.25 338.97 L 167.08 344.64 Z" stroke="#472c7a" stroke-width="0" fill="#472c7a" /><path d="M 127.78 253.88 L 117.95 259.55 L 108.13 253.88 L 108.13 242.54 L 117.95 236.86 L 127.78 242.54 Z" stroke="#472c7a" stroke-width="0" fill="#472c7a" /><path d="M 137.6 270.9 L 127.78 276.57 L 117.95 270.9 L 117.95 259.55 L 127.78 253.88 L 137.6 259.55 Z" stroke="#3a518b" stroke-width="0" fill="#3a518b" /><path d="M 147.42000000000002 287.92 L 137.6 293.59000000000003 L 127.78 287.92 L 127.78 276.57 L 137.6 270.9 L 147.43 276.57 Z" stroke="#440154" stroke-width="0" fill="#440154" /><path d="M 157.25 304.93 L 147.42000000000002 310.61 L 137.6 304.93 L 137.6 293.59000000000003 L 147.42000000000002 287.92 L 157.25 293.59000000000003 Z" stroke="#2c718e" stroke-width="0" fill="#2c718e" /><path d="M 167.08 321.95 L 157.25 327.62 L 147.43 321.95 L 147.43 310.61 L 157.25 304.93 L 167.08 310.61 Z" stroke="#27ad80" stroke-width="0" fill="#27ad80" /><path d="M 176.9 338.97 L 167.08 344.64 L 157.25 338.97 L 157.25 327.62 L 167.08 321.95 L 176.9 327.62 Z" stroke="#3a518b" stroke-width="0" fill="#3a518b" /><path d="M 186.72 355.99 L 176.9 361.66 L 167.08 355.99 L 167.08 344.64 L 176.9 338.97 L 186.72 344.64 Z" stroke="#440154" stroke-width="0" fill="#440154" /><path d="M 147.43 253.88 L 137.6 259.55 L 127.78 253.88 L 127.78 242.54 L 137.6 236.86 L 147.43 242.54 Z" stroke="#472c7a" stroke-width="0" fill="#472c7a" /><path d="M 157.25 270.9 L 147.43 276.57 L 137.6 270.9 L 137.6 259.55 L 147.43 253.88 L 157.25 259.55 Z" stroke="#3a518b" stroke-width="0" fill="#3a518b" /><path d="M 167.08 287.92 L 157.25 293.59000000000003 L 147.43 287.92 L 147.43 276.57 L 157.25 270.9 L 167.08 276.57 Z" stroke="#472c7a" stroke-width="0" fill="#472c7a" /><path d="M 176.9 304.93 L 167.08 310.61 L 157.25 304.93 L 157.25 293.59000000000003 L 167.08 287.92 L 176.9 293.59000000000003 Z" stroke="#27ad80" stroke-width="0" fill="#27ad80" /><path d="M 186.73 321.95 L 176.9 327.62 L 167.08 321.95 L 167.08 310.61 L 176.9 304.93 L 186.73 310.61 Z" stroke="#2c718e" stroke-width="0" fill="#2c718e" /><path d="M 167.08 253.88 L 157.25 259.55 L 147.43 253.88 L 147.43 242.54 L 157.25 236.86 L 167.08 242.54 Z" stroke="#440154" stroke-width="0" fill="#440154" /><path d="M 176.9 270.9 L 167.08 276.57 L 157.25 270.9 L 157.25 259.55 L 167.08 253.88 L 176.9 259.55 Z" stroke="#472c7a" stroke-width="0" fill="#472c7a" /><path d="M 186.73 287.92 L 176.9 293.59000000000003 L 167.08 287.92 L 167.08 276.57 L 176.9 270.9 L 186.73 276.57 Z" stroke="#472c7a" stroke-width="0" fill="#472c7a" /><path d="M 196.55 304.93 L 186.73 310.61 L 176.9 304.93 L 176.9 293.59000000000003 L 186.73 287.92 L 196.55 293.59000000000003 Z" stroke="#472c7a" stroke-width="0" fill="#472c7a" /><path d="M 206.38 321.95 L 196.55 327.62 L 186.73 321.95 L 186.73 310.61 L 196.55 304.93 L 206.38 310.61 Z" stroke="#440154" stroke-width="0" fill="#440154" /><path d="M 186.73 253.88 L 176.9 259.55 L 167.08 253.88 L 167.08 242.54 L 176.9 236.86 L 186.73 242.54 Z" stroke="#440154" stroke-width="0" fill="#440154" /><path d="M 196.55 270.9 L 186.73 276.57 L 176.9 270.9 L 176.9 259.55 L 186.73 253.88 L 196.55 259.55 Z" stroke="#2c718e" stroke-width="0" fill="#2c718e" /><path d="M 206.38 287.92 L 196.55 293.59000000000003 L 186.73 287.92 L 186.73 276.57 L 196.55 270.9 L 206.38 276.57 Z" stroke="#472c7a" stroke-width="0" fill="#472c7a" /><path d="M 216.20000000000002 304.93 L 206.38 310.61 L 196.55 304.93 L 196.55 293.59000000000003 L 206.38 287.92 L 216.20000000000002 293.59000000000003 Z" stroke="#27ad80" stroke-width="0" fill="#27ad80" /><path d="M 226.02 321.95 L 216.20000000000002 327.62 L 206.38 321.95 L 206.38 310.61 L 216.20000000000002 304.93 L 226.02 310.61 Z" stroke="#3a518b" stroke-width="0" fill="#3a518b" /><path d="M 206.38 253.88 L 196.55 259.55 L 186.73 253.88 L 186.73 242.54 L 196.55 236.86 L 206.38 242.54 Z" stroke="#440154" stroke-width="0" fill="#440154" /><path d="M 147.42000000000002 117.74000000000001 L 137.6 123.41 L 127.78 117.74000000000001 L 127.78 106.4 L 137.6 100.72 L 147.43 106.4 Z" stroke="#472c7a" stroke-width="0" fill="#472c7a" /><path d="M 157.25 134.76 L 147.43 140.43 L 137.6 134.76 L 137.6 123.41 L 147.43 117.74000000000001 L 157.25 123.41 Z" stroke="#440154" stroke-width="0" fill="#440154" /><path d="M 147.42000000000002 83.71000000000001 L 137.6 89.38 L 127.78 83.71000000000001 L 127.78 72.36 L 137.6 66.69 L 147.43 72.36 Z" stroke="#472c7a" stroke-width="0" fill="#472c7a" /><path d="M 157.25 100.72 L 147.43 106.4 L 137.6 100.72 L 137.6 89.38 L 147.43 83.71000000000001 L 157.25 89.38 Z" stroke="#27ad80" stroke-width="0" fill="#27ad80" /><path d="M 167.08 117.74000000000001 L 157.25 123.41 L 147.43 117.74000000000001 L 147.43 106.4 L 157.25 100.72 L 167.08 106.4 Z" stroke="#5cc862" stroke-width="0" fill="#5cc862" /><path d="M 176.9 134.76 L 167.08 140.43 L 157.25 134.76 L 157.25 123.41 L 167.08 117.74000000000001 L 176.9 123.41 Z" stroke="#472c7a" stroke-width="0" fill="#472c7a" /><path d="M 186.73 151.78 L 176.9 157.45000000000002 L 167.08 151.78 L 167.08 140.43 L 176.9 134.76 L 186.73 140.43 Z" stroke="#472c7a" stroke-width="0" fill="#472c7a" /><path d="M 157.25 66.69 L 147.43 72.36 L 137.6 66.69 L 137.6 55.34 L 147.43 49.67 L 157.25 55.34 Z" stroke="#472c7a" stroke-width="0" fill="#472c7a" /><path d="M 167.08 83.71000000000001 L 157.25 89.38 L 147.43 83.71000000000001 L 147.43 72.36 L 157.25 66.69 L 167.08 72.36 Z" stroke="#440154" stroke-width="0" fill="#440154" /><path d="M 176.9 100.72 L 167.08 106.4 L 157.25 100.72 L 157.25 89.38 L 167.08 83.71000000000001 L 176.9 89.38 Z" stroke="#27ad80" stroke-width="0" fill="#27ad80" /><path d="M 186.73 117.74000000000001 L 176.9 123.41 L 167.08 117.74000000000001 L 167.08 106.4 L 176.9 100.72 L 186.73 106.4 Z" stroke="#472c7a" stroke-width="0" fill="#472c7a" /><path d="M 196.55 134.76 L 186.73 140.43 L 176.9 134.76 L 176.9 123.41 L 186.73 117.74000000000001 L 196.55 123.41 Z" stroke="#472c7a" stroke-width="0" fill="#472c7a" /><path d="M 206.38 151.78 L 196.55 157.45000000000002 L 186.73 151.78 L 186.73 140.43 L 196.55 134.76 L 206.38 140.43 Z" stroke="#3a518b" stroke-width="0" fill="#3a518b" /><path d="M 167.08 49.67 L 157.25 55.34 L 147.43 49.67 L 147.43 38.33 L 157.25 32.660000000000004 L 167.08 38.33 Z" stroke="#440154" stroke-width="0" fill="#440154" /><path d="M 176.9 66.69 L 167.08 72.36 L 157.25 66.69 L 157.25 55.34 L 167.08 49.67 L 176.9 55.34 Z" stroke="#3a518b" stroke-width="0" fill="#3a518b" /><path d="M 186.72 83.71000000000001 L 176.9 89.38 L 167.08 83.71000000000001 L 167.08 72.36 L 176.9 66.69 L 186.72 72.36 Z" stroke="#3a518b" stroke-width="0" fill="#3a518b" /><path d="M 196.55 100.72 L 186.73 106.4 L 176.9 100.72 L 176.9 89.38 L 186.73 83.71000000000001 L 196.55 89.38 Z" stroke="#2c718e" stroke-width="0" fill="#2c718e" /><path d="M 206.37 117.74000000000001 L 196.55 123.41 L 186.73 117.74000000000001 L 186.72 106.4 L 196.55 100.72 L 206.38 106.4 Z" stroke="#3a518b" stroke-width="0" fill="#3a518b" /><path d="M 216.20000000000002 134.76 L 206.38 140.43 L 196.55 134.76 L 196.55 123.41 L 206.38 117.74000000000001 L 216.20000000000002 123.41 Z" stroke="#27ad80" stroke-width="0" fill="#27ad80" /><path d="M 226.02 151.78 L 216.20000000000002 157.45000000000002 L 206.38 151.78 L 206.38 140.43 L 216.20000000000002 134.76 L 226.02 140.43 Z" stroke="#3a518b" stroke-width="0" fill="#3a518b" /><path d="M 186.73 49.67 L 176.9 55.34 L 167.08 49.67 L 167.08 38.33 L 176.9 32.660000000000004 L 186.73 38.33 Z" stroke="#440154" stroke-width="0" fill="#440154" /><path d="M 196.55 66.69 L 186.73 72.36 L 176.9 66.69 L 176.9 55.34 L 186.73 49.67 L 196.55 55.34 Z" stroke="#20908c" stroke-width="0" fill="#20908c" /><path d="M 206.38 83.71000000000001 L 196.55 89.38 L 186.73 83.71000000000001 L 186.73 72.36 L 196.55 66.69 L 206.38 72.36 Z" stroke="#fde725" stroke-width="0" fill="#fde725" /><path d="M 216.20000000000002 100.72 L 206.38 106.4 L 196.55 100.72 L 196.55 89.38 L 206.38 83.71000000000001 L 216.20000000000002 89.38 Z" stroke="#5cc862" stroke-width="0" fill="#5cc862" /><path d="M 226.02 117.74000000000001 L 216.20000000000002 123.41 L 206.38 117.74000000000001 L 206.38 106.4 L 216.20000000000002 100.72 L 226.02 106.4 Z" stroke="#27ad80" stroke-width="0" fill="#27ad80" /><path d="M 235.85 134.76 L 226.03 140.43 L 216.20000000000002 134.76 L 216.20000000000002 123.41 L 226.03 117.74000000000001 L 235.85 123.41 Z" stroke="#3a518b" stroke-width="0" fill="#3a518b" /><path d="M 245.68 151.78 L 235.85 157.45000000000002 L 226.03 151.78 L 226.03 140.43 L 235.85 134.76 L 245.68 140.43 Z" stroke="#3a518b" stroke-width="0" fill="#3a518b" /><path d="M 206.38 49.67 L 196.55 55.34 L 186.73 49.67 L 186.73 38.33 L 196.55 32.660000000000004 L 206.38 38.33 Z" stroke="#3a518b" stroke-width="0" fill="#3a518b" /><path d="M 216.20000000000002 66.69 L 206.38 72.36 L 196.55 66.69 L 196.55 55.34 L 206.38 49.67 L 216.20000000000002 55.34 Z" stroke="#20908c" stroke-width="0" fill="#20908c" /><path d="M 226.02 83.71000000000001 L 216.20000000000002 89.38 L 206.38 83.71000000000001 L 206.38 72.36 L 216.20000000000002 66.69 L 226.02 72.36 Z" stroke="#20908c" stroke-width="0" fill="#20908c" /><path d="M 235.85 100.72 L 226.03 106.4 L 216.20000000000002 100.72 L 216.20000000000002 89.38 L 226.03 83.71000000000001 L 235.85 89.38 Z" stroke="#5cc862" stroke-width="0" fill="#5cc862" /><path d="M 245.68 117.74000000000001 L 235.85 123.41 L 226.03 117.74000000000001 L 226.03 106.4 L 235.85 100.72 L 245.68 106.4 Z" stroke="#aadb31" stroke-width="0" fill="#aadb31" /><path d="M 255.5 134.76 L 245.68 140.43 L 235.85 134.76 L 235.85 123.41 L 245.68 117.74000000000001 L 255.5 123.41 Z" stroke="#472c7a" stroke-width="0" fill="#472c7a" /><path d="M 265.33 151.78 L 255.5 157.45000000000002 L 245.68 151.78 L 245.68 140.43 L 255.5 134.76 L 265.33 140.43 Z" stroke="#472c7a" stroke-width="0" fill="#472c7a" /><path d="M 304.63 219.85 L 294.8 225.52 L 284.98 219.85 L 284.98 208.5 L 294.8 202.83 L 304.63 208.5 Z" stroke="#472c7a" stroke-width="0" fill="#472c7a" /><path d="M 314.45 236.86 L 304.63 242.54 L 294.8 236.86 L 294.8 225.52 L 304.63 219.85 L 314.45 225.52 Z" stroke="#440154" stroke-width="0" fill="#440154" /><path d="M 226.02 49.67 L 216.20000000000002 55.34 L 206.38 49.67 L 206.38 38.33 L 216.20000000000002 32.660000000000004 L 226.02 38.33 Z" stroke="#2c718e" stroke-width="0" fill="#2c718e" /><path d="M 235.85 66.69 L 226.03 72.36 L 216.20000000000002 66.69 L 216.20000000000002 55.34 L 226.03 49.67 L 235.85 55.34 Z" stroke="#5cc862" stroke-width="0" fill="#5cc862" /><path d="M 245.68 83.71000000000001 L 235.85 89.38 L 226.03 83.71000000000001 L 226.02 72.36 L 235.85 66.69 L 245.68 72.36 Z" stroke="#27ad80" stroke-width="0" fill="#27ad80" /><path d="M 255.5 100.72 L 245.68 106.4 L 235.85 100.72 L 235.85 89.38 L 245.68 83.71000000000001 L 255.5 89.38 Z" stroke="#5cc862" stroke-width="0" fill="#5cc862" /><path d="M 265.33 117.74000000000001 L 255.5 123.41 L 245.68 117.74000000000001 L 245.68 106.4 L 255.5 100.72 L 265.33 106.4 Z" stroke="#5cc862" stroke-width="0" fill="#5cc862" /><path d="M 275.15000000000003 134.76 L 265.33 140.43 L 255.5 134.76 L 255.5 123.41 L 265.33 117.74000000000001 L 275.15000000000003 123.41 Z" stroke="#440154" stroke-width="0" fill="#440154" /><path d="M 304.63 185.81 L 294.8 191.48000000000002 L 284.98 185.81 L 284.98 174.47 L 294.8 168.79 L 304.63 174.47 Z" stroke="#440154" stroke-width="0" fill="#440154" /><path d="M 314.45 202.83 L 304.63 208.5 L 294.8 202.83 L 294.8 191.48000000000002 L 304.63 185.81 L 314.45 191.48000000000002 Z" stroke="#3a518b" stroke-width="0" fill="#3a518b" /><path d="M 324.27 219.85 L 314.45 225.52 L 304.63 219.85 L 304.63 208.5 L 314.45 202.83 L 324.27 208.5 Z" stroke="#20908c" stroke-width="0" fill="#20908c" /><path d="M 334.1 236.86 L 324.28000000000003 242.54 L 314.45 236.86 L 314.45 225.52 L 324.28000000000003 219.85 L 334.1 225.52 Z" stroke="#472c7a" stroke-width="0" fill="#472c7a" /><path d="M 245.68 49.67 L 235.85 55.34 L 226.03 49.67 L 226.02 38.33 L 235.85 32.660000000000004 L 245.68 38.33 Z" stroke="#440154" stroke-width="0" fill="#440154" /><path d="M 255.5 66.69 L 245.68 72.36 L 235.85 66.69 L 235.85 55.34 L 245.68 49.67 L 255.5 55.34 Z" stroke="#2c718e" stroke-width="0" fill="#2c718e" /><path d="M 265.33 83.71000000000001 L 255.5 89.38 L 245.68 83.71000000000001 L 245.68 72.36 L 255.5 66.69 L 265.33 72.36 Z" stroke="#472c7a" stroke-width="0" fill="#472c7a" /><path d="M 275.15000000000003 100.72 L 265.33 106.4 L 255.5 100.72 L 255.5 89.38 L 265.33 83.71000000000001 L 275.15000000000003 89.38 Z" stroke="#2c718e" stroke-width="0" fill="#2c718e" /><path d="M 284.97 117.74000000000001 L 275.15000000000003 123.41 L 265.33 117.74000000000001 L 265.33 106.4 L 275.15000000000003 100.72 L 284.97 106.4 Z" stroke="#3a518b" stroke-width="0" fill="#3a518b" /><path d="M 294.8 134.76 L 284.98 140.43 L 275.15000000000003 134.76 L 275.15000000000003 123.41 L 284.98 117.74000000000001 L 294.8 123.41 Z" stroke="#472c7a" stroke-width="0" fill="#472c7a" /><path d="M 314.45 168.79 L 304.63 174.47 L 294.8 168.79 L 294.8 157.45000000000002 L 304.63 151.78 L 314.45 157.45000000000002 Z" stroke="#472c7a" stroke-width="0" fill="#472c7a" /><path d="M 334.1 202.83 L 324.27 208.5 L 314.45 202.83 L 314.45 191.48000000000002 L 324.27 185.81 L 334.1 191.48000000000002 Z" stroke="#2c718e" stroke-width="0" fill="#2c718e" /><path d="M 343.92 219.85 L 334.1 225.52 L 324.27 219.85 L 324.27 208.5 L 334.1 202.83 L 343.92 208.5 Z" stroke="#472c7a" stroke-width="0" fill="#472c7a" /><path d="M 353.75 236.86 L 343.93 242.54 L 334.1 236.86 L 334.1 225.52 L 343.93 219.85 L 353.75 225.52 Z" stroke="#472c7a" stroke-width="0" fill="#472c7a" /><path d="M 363.58 253.88 L 353.75 259.55 L 343.93 253.88 L 343.93 242.54 L 353.75 236.86 L 363.58 242.54 Z" stroke="#472c7a" stroke-width="0" fill="#472c7a" /><path d="M 265.33 49.67 L 255.5 55.34 L 245.68 49.67 L 245.68 38.33 L 255.5 32.660000000000004 L 265.33 38.33 Z" stroke="#440154" stroke-width="0" fill="#440154" /><path d="M 275.15000000000003 66.69 L 265.32 72.36 L 255.5 66.69 L 255.5 55.34 L 265.32 49.67 L 275.15000000000003 55.34 Z" stroke="#20908c" stroke-width="0" fill="#20908c" /><path d="M 284.97 83.71000000000001 L 275.15000000000003 89.38 L 265.33 83.71000000000001 L 265.33 72.36 L 275.15000000000003 66.69 L 284.97 72.36 Z" stroke="#20908c" stroke-width="0" fill="#20908c" /><path d="M 294.8 100.72 L 284.98 106.4 L 275.15000000000003 100.72 L 275.15000000000003 89.38 L 284.98 83.71000000000001 L 294.8 89.38 Z" stroke="#5cc862" stroke-width="0" fill="#5cc862" /><path d="M 304.62 117.74000000000001 L 294.8 123.41 L 284.97 117.74000000000001 L 284.97 106.4 L 294.8 100.72 L 304.62 106.4 Z" stroke="#3a518b" stroke-width="0" fill="#3a518b" /><path d="M 324.27 151.78 L 314.45 157.45000000000002 L 304.63 151.78 L 304.63 140.43 L 314.45 134.76 L 324.27 140.43 Z" stroke="#440154" stroke-width="0" fill="#440154" /><path d="M 334.1 168.79 L 324.27 174.47 L 314.45 168.79 L 314.45 157.45000000000002 L 324.27 151.78 L 334.1 157.45000000000002 Z" stroke="#472c7a" stroke-width="0" fill="#472c7a" /><path d="M 343.92 185.81 L 334.1 191.48000000000002 L 324.27 185.81 L 324.27 174.47 L 334.1 168.79 L 343.92 174.47 Z" stroke="#472c7a" stroke-width="0" fill="#472c7a" /><path d="M 353.75 202.83 L 343.93 208.5 L 334.1 202.83 L 334.1 191.48000000000002 L 343.93 185.81 L 353.75 191.48000000000002 Z" stroke="#3a518b" stroke-width="0" fill="#3a518b" /><path d="M 363.58 219.85 L 353.75 225.52 L 343.93 219.85 L 343.93 208.5 L 353.75 202.83 L 363.58 208.5 Z" stroke="#472c7a" stroke-width="0" fill="#472c7a" /><path d="M 373.40000000000003 236.86 L 363.58 242.54 L 353.75 236.86 L 353.75 225.52 L 363.58 219.85 L 373.40000000000003 225.52 Z" stroke="#20908c" stroke-width="0" fill="#20908c" /><path d="M 383.23 253.88 L 373.40000000000003 259.55 L 363.58 253.88 L 363.58 242.54 L 373.40000000000003 236.86 L 383.23 242.54 Z" stroke="#472c7a" stroke-width="0" fill="#472c7a" /><path d="M 284.97 49.67 L 275.15000000000003 55.34 L 265.33 49.67 L 265.33 38.33 L 275.15000000000003 32.660000000000004 L 284.97 38.33 Z" stroke="#440154" stroke-width="0" fill="#440154" /><path d="M 294.8 66.69 L 284.98 72.36 L 275.15000000000003 66.69 L 275.15000000000003 55.34 L 284.98 49.67 L 294.8 55.34 Z" stroke="#472c7a" stroke-width="0" fill="#472c7a" /><path d="M 304.63 83.71000000000001 L 294.8 89.38 L 284.98 83.71000000000001 L 284.98 72.36 L 294.8 66.69 L 304.63 72.36 Z" stroke="#440154" stroke-width="0" fill="#440154" /><path d="M 353.75 168.79 L 343.93 174.47 L 334.1 168.79 L 334.1 157.45000000000002 L 343.93 151.78 L 353.75 157.45000000000002 Z" stroke="#2c718e" stroke-width="0" fill="#2c718e" /><path d="M 363.58 185.81 L 353.75 191.48000000000002 L 343.93 185.81 L 343.93 174.47 L 353.75 168.79 L 363.58 174.47 Z" stroke="#5cc862" stroke-width="0" fill="#5cc862" /><path d="M 373.40000000000003 202.83 L 363.58 208.5 L 353.75 202.83 L 353.75 191.48000000000002 L 363.58 185.81 L 373.40000000000003 191.48000000000002 Z" stroke="#3a518b" stroke-width="0" fill="#3a518b" /><path d="M 383.23 219.85 L 373.40000000000003 225.52 L 363.58 219.85 L 363.58 208.5 L 373.40000000000003 202.83 L 383.23 208.5 Z" stroke="#27ad80" stroke-width="0" fill="#27ad80" /><path d="M 393.05 236.86 L 383.23 242.54 L 373.40000000000003 236.86 L 373.40000000000003 225.52 L 383.23 219.85 L 393.05 225.52 Z" stroke="#3a518b" stroke-width="0" fill="#3a518b" /><path d="M 402.88 253.88 L 393.05 259.55 L 383.23 253.88 L 383.23 242.54 L 393.05 236.86 L 402.88 242.54 Z" stroke="#3a518b" stroke-width="0" fill="#3a518b" /><path d="M 363.58 151.78 L 353.75 157.45000000000002 L 343.93 151.78 L 343.93 140.43 L 353.75 134.76 L 363.58 140.43 Z" stroke="#472c7a" stroke-width="0" fill="#472c7a" /><path d="M 373.40000000000003 168.79 L 363.58 174.47 L 353.75 168.79 L 353.75 157.45000000000002 L 363.58 151.78 L 373.40000000000003 157.45000000000002 Z" stroke="#2c718e" stroke-width="0" fill="#2c718e" /><path d="M 383.23 185.81 L 373.40000000000003 191.48000000000002 L 363.58 185.81 L 363.58 174.47 L 373.40000000000003 168.79 L 383.23 174.47 Z" stroke="#20908c" stroke-width="0" fill="#20908c" /><path d="M 393.05 202.83 L 383.23 208.5 L 373.40000000000003 202.83 L 373.40000000000003 191.48000000000002 L 383.23 185.81 L 393.05 191.48000000000002 Z" stroke="#27ad80" stroke-width="0" fill="#27ad80" /><path d="M 402.88 219.85 L 393.05 225.52 L 383.23 219.85 L 383.23 208.5 L 393.05 202.83 L 402.88 208.5 Z" stroke="#aadb31" stroke-width="0" fill="#aadb31" /><path d="M 412.7 236.86 L 402.88 242.54 L 393.05 236.86 L 393.05 225.52 L 402.88 219.85 L 412.7 225.52 Z" stroke="#472c7a" stroke-width="0" fill="#472c7a" /><path d="M 422.53000000000003 253.88 L 412.7 259.55 L 402.88 253.88 L 402.88 242.54 L 412.7 236.86 L 422.53000000000003 242.54 Z" stroke="#472c7a" stroke-width="0" fill="#472c7a" /><path d="M 383.23 151.78 L 373.40000000000003 157.45000000000002 L 363.58 151.78 L 363.58 140.43 L 373.40000000000003 134.76 L 383.23 140.43 Z" stroke="#472c7a" stroke-width="0" fill="#472c7a" /><path d="M 393.05 168.79 L 383.23 174.47 L 373.40000000000003 168.79 L 373.40000000000003 157.45000000000002 L 383.23 151.78 L 393.05 157.45000000000002 Z" stroke="#27ad80" stroke-width="0" fill="#27ad80" /><path d="M 402.87 185.81 L 393.05 191.48000000000002 L 383.23 185.81 L 383.23 174.47 L 393.05 168.79 L 402.87 174.47 Z" stroke="#3a518b" stroke-width="0" fill="#3a518b" /><path d="M 412.7 202.83 L 402.88 208.5 L 393.05 202.83 L 393.05 191.48000000000002 L 402.88 185.81 L 412.7 191.48000000000002 Z" stroke="#5cc862" stroke-width="0" fill="#5cc862" /><path d="M 422.53000000000003 219.85 L 412.7 225.52 L 402.88 219.85 L 402.88 208.5 L 412.7 202.83 L 422.53000000000003 208.5 Z" stroke="#27ad80" stroke-width="0" fill="#27ad80" /><path d="M 432.35 236.86 L 422.53000000000003 242.54 L 412.7 236.86 L 412.7 225.52 L 422.53000000000003 219.85 L 432.35 225.52 Z" stroke="#440154" stroke-width="0" fill="#440154" /><path d="M 402.88 151.78 L 393.05 157.45000000000002 L 383.23 151.78 L 383.23 140.43 L 393.05 134.76 L 402.88 140.43 Z" stroke="#440154" stroke-width="0" fill="#440154" /><path d="M 412.7 168.79 L 402.88 174.47 L 393.05 168.79 L 393.05 157.45000000000002 L 402.88 151.78 L 412.7 157.45000000000002 Z" stroke="#3a518b" stroke-width="0" fill="#3a518b" /><path d="M 422.53000000000003 185.81 L 412.7 191.48000000000002 L 402.88 185.81 L 402.88 174.47 L 412.7 168.79 L 422.53000000000003 174.47 Z" stroke="#472c7a" stroke-width="0" fill="#472c7a" /><path d="M 432.35 202.83 L 422.53000000000003 208.5 L 412.7 202.83 L 412.7 191.48000000000002 L 422.53000000000003 185.81 L 432.35 191.48000000000002 Z" stroke="#3a518b" stroke-width="0" fill="#3a518b" /><path d="M 442.18 219.85 L 432.35 225.52 L 422.53000000000003 219.85 L 422.53000000000003 208.5 L 432.35 202.83 L 442.18 208.5 Z" stroke="#3a518b" stroke-width="0" fill="#3a518b" /><path d="M 452 236.86 L 442.18 242.54 L 432.35 236.86 L 432.35 225.52 L 442.18 219.85 L 452 225.52 Z" stroke="#472c7a" stroke-width="0" fill="#472c7a" /><path d="M 422.53000000000003 151.78 L 412.7 157.45000000000002 L 402.88 151.78 L 402.88 140.43 L 412.7 134.76 L 422.53000000000003 140.43 Z" stroke="#440154" stroke-width="0" fill="#440154" /><path d="M 432.35 168.79 L 422.53000000000003 174.47 L 412.7 168.79 L 412.7 157.45000000000002 L 422.53000000000003 151.78 L 432.35 157.45000000000002 Z" stroke="#20908c" stroke-width="0" fill="#20908c" /><path d="M 442.18 185.81 L 432.35 191.48000000000002 L 422.53000000000003 185.81 L 422.53000000000003 174.47 L 432.35 168.79 L 442.18 174.47 Z" stroke="#2c718e" stroke-width="0" fill="#2c718e" /><path d="M 452 202.83 L 442.17 208.5 L 432.35 202.83 L 432.35 191.48000000000002 L 442.17 185.81 L 452 191.48000000000002 Z" stroke="#5cc862" stroke-width="0" fill="#5cc862" /><path d="M 461.83 219.85 L 452 225.52 L 442.18 219.85 L 442.18 208.5 L 452 202.83 L 461.83 208.5 Z" stroke="#3a518b" stroke-width="0" fill="#3a518b" /><path d="M 442.18 151.78 L 432.35 157.45000000000002 L 422.53000000000003 151.78 L 422.53000000000003 140.43 L 432.35 134.76 L 442.18 140.43 Z" stroke="#440154" stroke-width="0" fill="#440154" /><path d="M 452 168.79 L 442.18 174.47 L 432.35 168.79 L 432.35 157.45000000000002 L 442.18 151.78 L 452 157.45000000000002 Z" stroke="#472c7a" stroke-width="0" fill="#472c7a" /></g><rect x="495" y="74.5" width="20" height="5.38" fill="#fde725" /><rect x="495" y="79.38" width="20" height="5.38" fill="#f0e51c" /><rect x="495" y="84.26" width="20" height="5.38" fill="#e3e318" /><rect x="495" y="89.14" width="20" height="5.38" fill="#d6e219" /><rect x="495" y="94.02" width="20" height="5.38" fill="#c8e01f" /><rect x="495" y="98.9" width="20" height="5.38" fill="#bade27" /><rect x="495" y="103.78" width="20" height="5.38" fill="#acdc30" /><rect x="495" y="108.66" width="20" height="5.38" fill="#9ed939" /><rect x="495" y="113.54" width="20" height="5.38" fill="#91d642" /><rect x="495" y="118.42" width="20" height="5.38" fill="#84d44a" /><rect x="495" y="123.3" width="20" height="5.38" fill="#77d052" /><rect x="495" y="128.18" width="20" height="5.38" fill="#6bcd5a" /><rect x="495" y="133.06" width="20" height="5.38" fill="#5fc960" /><rect x="495" y="137.94" width="20" height="5.38" fill="#54c567" /><rect x="495" y="142.82" width="20" height="5.38" fill="#4ac16c" /><rect x="495" y="147.70000000000002" width="20" height="5.38" fill="#40bc72" /><rect x="495" y="152.58" width="20" height="5.38" fill="#37b877" /><rect x="495" y="157.46" width="20" height="5.38" fill="#30b47b" /><rect x="495" y="162.34" width="20" height="5.38" fill="#29af7f" /><rect x="495" y="167.22" width="20" height="5.38" fill="#24ab82" /><rect x="495" y="172.1" width="20" height="5.38" fill="#21a585" /><rect x="495" y="176.98" width="20" height="5.38" fill="#1fa187" /><rect x="495" y="181.86" width="20" height="5.38" fill="#1e9c89" /><rect x="495" y="186.74" width="20" height="5.38" fill="#1f978a" /><rect x="495" y="191.62" width="20" height="5.38" fill="#1f928c" /><rect x="495" y="196.5" width="20" height="5.38" fill="#218d8d" /><rect x="495" y="201.38" width="20" height="5.38" fill="#23888d" /><rect x="495" y="206.26" width="20" height="5.38" fill="#25838e" /><rect x="495" y="211.14000000000001" width="20" height="5.38" fill="#267f8d" /><rect x="495" y="216.02" width="20" height="5.38" fill="#287a8e" /><rect x="495" y="220.9" width="20" height="5.38" fill="#2a748d" /><rect x="495" y="225.78" width="20" height="5.38" fill="#2c708e" /><rect x="495" y="230.66" width="20" height="5.38" fill="#2f6b8e" /><rect x="495" y="235.54" width="20" height="5.38" fill="#31668e" /><rect x="495" y="240.42000000000002" width="20" height="5.38" fill="#33618c" /><rect x="495" y="245.3" width="20" height="5.38" fill="#365b8c" /><rect x="495" y="250.18" width="20" height="5.38" fill="#38558c" /><rect x="495" y="255.06" width="20" height="5.38" fill="#3b508a" /><rect x="495" y="259.94" width="20" height="5.38" fill="#3d4a89" /><rect x="495" y="264.82" width="20" height="5.38" fill="#404587" /><rect x="495" y="269.7" width="20" height="5.38" fill="#423e85" /><rect x="495" y="274.58" width="20" height="5.38" fill="#443882" /><rect x="495" y="279.46" width="20" height="5.38" fill="#46327e" /><rect x="495" y="284.34000000000003" width="20" height="5.38" fill="#472c7a" /><rect x="495" y="289.22" width="20" height="5.38" fill="#482576" /><rect x="495" y="294.1" width="20" height="5.38" fill="#471e6f" /><rect x="495" y="298.98" width="20" height="5.38" fill="#481769" /><rect x="495" y="303.86" width="20" height="5.38" fill="#471063" /><rect x="495" y="308.74" width="20" height="5.38" fill="#46085c" /><rect x="495" y="313.62" width="20" height="5.38" fill="#440154" /><rect x="495" y="74.5" width="20" height="244" fill="none" stroke="#000000" stroke-width="1" /><line x1="515" y1="288" x2="519" y2="288" stroke="#000000" stroke-width="1" /><text x="520" y="292" font-size="12" text-anchor="start">2</text><line x1="515" y1="227" x2="519" y2="227" stroke="#000000" stroke-width="1" /><text x="520" y="231" font-size="12" text-anchor="start">4</text><line x1="515" y1="166" x2="519" y2="166" stroke="#000000" stroke-width="1" /><text x="520" y="170" font-size="12" text-anchor="start">6</text><line x1="515" y1="105" x2="519" y2="105" stroke="#000000" stroke-width="1" /><text x="520" y="109" font-size="12" text-anchor="start">8</text><text x="485" y="196.5" font-size="12" text-anchor="middle" transform="rotate(-90,485,196.5)">count</text></svg>