<svg xmlns="http://www.w3.org/2000/svg" width="560" height="400" font-family="DejaVu Sans, Liberation Sans, Arial, sans-serif" fill="black"><rect width="100%" height="100%" fill="white" /><defs><clipPath id="kuva-clip-1"><rect x="59" y="44" width="393" height="305"/></clipPath></defs><line x1="137.6" y1="44" x2="137.6" y2="349" stroke="#cccccc" stroke-width="1" /><line x1="216.20000000000002" y1="44" x2="216.20000000000002" y2="349" stroke="#cccccc" stroke-width="1" /><line x1="294.8" y1="44" x2="294.8" y2="349" stroke="#cccccc" stroke-width="1" /><line x1="373.40000000000003" y1="44" x2="373.40000000000003" y2="349" stroke="#cccccc" stroke-width="1" /><line x1="452" y1="44" x2="452" y2="349" stroke="#cccccc" stroke-width="1" /><line x1="59" y1="298.17" x2="452" y2="298.17" stroke="#cccccc" stroke-width="1" /><line x1="59" y1="247.33" x2="452" y2="247.33" stroke="#cccccc" stroke-width="1" /><line x1="59" y1="196.5" x2="452" y2="196.5" stroke="#cccccc" stroke-width="1" /><line x1="59" y1="145.67000000000002" x2="452" y2="145.67000000000002" stroke="#cccccc" stroke-width="1" /><line x1="59" y1="94.83" x2="452" y2="94.83" stroke="#cccccc" stroke-width="1" /><line x1="59" y1="44" x2="452" y2="44" stroke="#cccccc" stroke-width="1" /><line x1="59" y1="349" x2="452" y2="349" stroke="#000000" stroke-width="1" /><line x1="59" y1="44" x2="59" y2="349" stroke="#000000" stroke-width="1" /><line x1="59" y1="349" x2="59" y2="354" stroke="#000000" stroke-width="1" /><text x="59" y="366" font-size="12" text-anchor="middle">0</text><line x1="137.6" y1="349" x2="137.6" y2="354" stroke="#000000" stroke-width="1" /><text x="137.6" y="366" font-size="12" text-anchor="middle">1</text><line x1="216.20000000000002" y1="349" x2="216.20000000000002" y2="354" stroke="#000000" stroke-width="1" /><text x="216.20000000000002" y="366" font-size="12" text-anchor="middle">2</text><line x1="294.8" y1="349" x2="294.8" y2="354" stroke="#000000" stroke-width="1" /><text x="294.8" y="366" font-size="12" text-anchor="middle">3</text><line x1="373.40000000000003" y1="349" x2="373.40000000000003" y2="354" stroke="#000000" stroke-width="1" /><text x="373.40000000000003" y="366" font-size="12" text-anchor="middle">4</text><line x1="452" y1="349" x2="452" y2="354" stroke="#000000" stroke-width="1" /><text x="452" y="366" font-size="12" text-anchor="middle">5</text><line x1="54" y1="349" x2="59" y2="349" stroke="#000000" stroke-width="1" /><text x="51" y="353.2" font-size="12" text-anchor="end">0</text><line x1="54" y1="298.17" x2="59" y2="298.17" stroke="#000000" stroke-width="1" /><text x="51" y="302.37" font-size="12" text-anchor="end">1</text><line x1="54" y1="247.33" x2="59" y2="247.33" stroke="#000000" stroke-width="1" /><text x="51" y="251.53" font-size="12" text-anchor="end">2</text><line x1="54" y1="196.5" x2="59" y2="196.5" stroke="#000000" stroke-width="1" /><text x="51" y="200.70000000000002" font-size="12" text-anchor="end">3</text><line x1="54" y1="145.67000000000002" x2="59" y2="145.67000000000002" stroke="#000000" stroke-width="1" /><text x="51" y="149.87" font-size="12" text-anchor="end">4</text><line x1="54" y1="94.83" x2="59" y2="94.83" stroke="#000000" stroke-width="1" /><text x="51" y="99.03" font-size="12" text-anchor="end">5</text><line x1="54" y1="44" x2="59" y2="44" stroke="#000000" stroke-width="1" /><text x="51" y="48.2" font-size="12" text-anchor="end">6</text><text x="255.5" y="393" font-size="14" text-anchor="middle">X</text><text x="15" y="200" font-size="14" text-anchor="middle" transform="rotate(-90,15,200)">Y</text><text x="280" y="27.400000000000002" font-size="18" text-anchor="middle">Hexbin — 10 bins (coarse)</text><g clip-path="url(#kuva-clip-1)"><path d="M 78.65 327.62 L 59 338.97 L 39.35 327.62 L 39.35 304.93 L 59 293.59000000000003 L 78.65 304.93 Z" stroke="#6700a7" stroke-width="0" fill="#6700a7" /><path d="M 98.3 361.66 L 78.65 373 L 59 361.66 L 59 338.97 L 78.65 327.62 L 98.3 338.97 Z" stroke="#0d0887" stroke-width="0" fill="#0d0887" /><path d="M 78.65 259.55 L 59 270.9 L 39.35 259.55 L 39.35 236.86 L 59 225.52 L 78.65 236.86 Z" stroke="#0d0887" stroke-width="0" fill="#0d0887" /><path d="M 98.3 293.59000000000003 L 78.65 304.93 L 59 293.59000000000003 L 59 270.9 L 78.65 259.55 L 98.3 270.9 Z" stroke="#7600a7" stroke-width="0" fill="#7600a7" /><path d="M 117.95 327.62 L 98.3 338.97 L 78.65 327.62 L 78.65 304.93 L 98.3 293.59000000000003 L 117.95 304.93 Z" stroke="#b6308a" stroke-width="0" fill="#b6308a" /><path d="M 137.6 361.66 L 117.95 373 L 98.3 361.66 L 98.3 338.97 L 117.95 327.62 L 137.6 338.97 Z" stroke="#370499" stroke-width="0" fill="#370499" /><path d="M 117.95 259.55 L 98.3 270.9 L 78.65 259.55 L 78.65 236.86 L 98.3 225.52 L 117.95 236.86 Z" stroke="#48039f" stroke-width="0" fill="#48039f" /><path d="M 137.6 293.59000000000003 L 117.95 304.93 L 98.3 293.59000000000003 L 98.3 270.9 L 117.95 259.55 L 137.6 270.9 Z" stroke="#a01a9b" stroke-width="0" fill="#a01a9b" /><path d="M 157.25 327.62 L 137.6 338.97 L 117.95 327.62 L 117.95 304.93 L 137.6 293.59000000000003 L 157.25 304.93 Z" stroke="#e3685e" stroke-width="0" fill="#e3685e" /><path d="M 176.9 361.66 L 157.25 373 L 137.6 361.66 L 137.6 338.97 L 157.25 327.62 L 176.9 338.97 Z" stroke="#8505a6" stroke-width="0" fill="#8505a6" /><path d="M 157.25 259.55 L 137.6 270.9 L 117.95 259.55 L 117.95 236.86 L 137.6 225.52 L 157.25 236.86 Z" stroke="#6700a7" stroke-width="0" fill="#6700a7" /><path d="M 176.9 293.59000000000003 L 157.25 304.93 L 137.6 293.59000000000003 L 137.6 270.9 L 157.25 259.55 L 176.9 270.9 Z" stroke="#b6308a" stroke-width="0" fill="#b6308a" /><path d="M 196.55 327.62 L 176.9 338.97 L 157.25 327.62 L 157.25 304.93 L 176.9 293.59000000000003 L 196.55 304.93 Z" stroke="#b6308a" stroke-width="0" fill="#b6308a" /><path d="M 196.55 259.55 L 176.9 270.9 L 157.25 259.55 L 157.25 236.86 L 176.9 225.52 L 196.55 236.86 Z" stroke="#920fa2" stroke-width="0" fill="#920fa2" /><path d="M 216.20000000000002 293.59000000000003 L 196.55 304.93 L 176.9 293.59000000000003 L 176.9 270.9 L 196.55 259.55 L 216.20000000000002 270.9 Z" stroke="#7600a7" stroke-width="0" fill="#7600a7" /><path d="M 235.85 327.62 L 216.20000000000002 338.97 L 196.55 327.62 L 196.55 304.93 L 216.20000000000002 293.59000000000003 L 235.85 304.93 Z" stroke="#5801a4" stroke-width="0" fill="#5801a4" /><path d="M 157.25 123.41 L 137.6 134.76 L 117.95 123.41 L 117.95 100.72 L 137.6 89.38 L 157.25 100.72 Z" stroke="#920fa2" stroke-width="0" fill="#920fa2" /><path d="M 176.9 157.45000000000002 L 157.25 168.79 L 137.6 157.45000000000002 L 137.6 134.76 L 157.25 123.41 L 176.9 134.76 Z" stroke="#370499" stroke-width="0" fill="#370499" /><path d="M 157.25 55.34 L 137.6 66.69 L 117.95 55.34 L 117.95 32.660000000000004 L 137.6 21.31 L 157.25 32.660000000000004 Z" stroke="#0d0887" stroke-width="0" fill="#0d0887" /><path d="M 176.9 89.38 L 157.25 100.72 L 137.6 89.38 L 137.6 66.69 L 157.25 55.34 L 176.9 66.69 Z" stroke="#b6308a" stroke-width="0" fill="#b6308a" /><path d="M 196.55 123.41 L 176.9 134.76 L 157.25 123.41 L 157.25 100.72 L 176.9 89.38 L 196.55 100.72 Z" stroke="#c13b81" stroke-width="0" fill="#c13b81" /><path d="M 216.20000000000002 157.45000000000002 L 196.55 168.79 L 176.9 157.45000000000002 L 176.9 134.76 L 196.55 123.41 L 216.20000000000002 134.76 Z" stroke="#7600a7" stroke-width="0" fill="#7600a7" /><path d="M 196.55 55.34 L 176.9 66.69 L 157.25 55.34 L 157.25 32.660000000000004 L 176.9 21.31 L 196.55 32.660000000000004 Z" stroke="#8505a6" stroke-width="0" fill="#8505a6" /><path d="M 216.20000000000002 89.38 L 196.55 100.72 L 176.9 89.38 L 176.9 66.69 L 196.55 55.34 L 216.20000000000002 66.69 Z" stroke="#f99b3c" stroke-width="0" fill="#f99b3c" /><path d="M 235.85 123.41 L 216.20000000000002 134.76 L 196.55 123.41 L 196.55 100.72 L 216.20000000000002 89.38 L 235.85 100.72 Z" stroke="#f0f921" stroke-width="0" fill="#f0f921" /><path d="M 255.5 157.45000000000002 L 235.85 168.79 L 216.20000000000002 157.45000000000002 L 216.20000000000002 134.76 L 235.85 123.41 L 255.5 134.76 Z" stroke="#920fa2" stroke-width="0" fill="#920fa2" /><path d="M 235.85 55.34 L 216.20000000000002 66.69 L 196.55 55.34 L 196.55 32.660000000000004 L 216.20000000000002 21.31 L 235.85 32.660000000000004 Z" stroke="#cb4678" stroke-width="0" fill="#cb4678" /><path d="M 255.5 89.38 L 235.85 100.72 L 216.20000000000002 89.38 L 216.20000000000002 66.69 L 235.85 55.34 L 255.5 66.69 Z" stroke="#fdc726" stroke-width="0" fill="#fdc726" /><path d="M 275.15000000000003 123.41 L 255.5 134.76 L 235.85 123.41 L 235.85 100.72 L 255.5 89.38 L 275.15000000000003 100.72 Z" stroke="#e3685e" stroke-width="0" fill="#e3685e" /><path d="M 314.45 191.48000000000002 L 294.8 202.83 L 275.15000000000003 191.48000000000002 L 275.15000000000003 168.79 L 294.8 157.45000000000002 L 314.45 168.79 Z" stroke="#370499" stroke-width="0" fill="#370499" /><path d="M 334.1 225.52 L 314.45 236.86 L 294.8 225.52 L 294.8 202.83 L 314.45 191.48000000000002 L 334.1 202.83 Z" stroke="#dc5d66" stroke-width="0" fill="#dc5d66" /><path d="M 353.75 259.55 L 334.1 270.9 L 314.45 259.55 L 314.45 236.86 L 334.1 225.52 L 353.75 236.86 Z" stroke="#370499" stroke-width="0" fill="#370499" /><path d="M 275.15000000000003 55.34 L 255.5 66.69 L 235.85 55.34 L 235.85 32.660000000000004 L 255.5 21.31 L 275.15000000000003 32.660000000000004 Z" stroke="#a01a9b" stroke-width="0" fill="#a01a9b" /><path d="M 294.8 89.38 L 275.15000000000003 100.72 L 255.5 89.38 L 255.5 66.69 L 275.15000000000003 55.34 L 294.8 66.69 Z" stroke="#c13b81" stroke-width="0" fill="#c13b81" /><path d="M 314.45 123.41 L 294.8 134.76 L 275.15000000000003 123.41 L 275.15000000000003 100.72 L 294.8 89.38 L 314.45 100.72 Z" stroke="#ac2593" stroke-width="0" fill="#ac2593" /><path d="M 334.1 157.45000000000002 L 314.45 168.79 L 294.8 157.45000000000002 L 294.8 134.76 L 314.45 123.41 L 334.1 134.76 Z" stroke="#250591" stroke-width="0" fill="#250591" /><path d="M 353.75 191.48000000000002 L 334.1 202.83 L 314.45 191.48000000000002 L 314.45 168.79 L 334.1 157.45000000000002 L 353.75 168.79 Z" stroke="#920fa2" stroke-width="0" fill="#920fa2" /><path d="M 373.40000000000003 225.52 L 353.75 236.86 L 334.1 225.52 L 334.1 202.83 L 353.75 191.48000000000002 L 373.40000000000003 202.83 Z" stroke="#dc5d66" stroke-width="0" fill="#dc5d66" /><path d="M 393.05 259.55 L 373.40000000000003 270.9 L 353.75 259.55 L 353.75 236.86 L 373.40000000000003 225.52 L 393.05 236.86 Z" stroke="#8505a6" stroke-width="0" fill="#8505a6" /><path d="M 314.45 55.34 L 294.8 66.69 L 275.15000000000003 55.34 L 275.15000000000003 32.660000000000004 L 294.8 21.31 L 314.45 32.660000000000004 Z" stroke="#0d0887" stroke-width="0" fill="#0d0887" /><path d="M 373.40000000000003 157.45000000000002 L 353.75 168.79 L 334.1 157.45000000000002 L 334.1 134.76 L 353.75 123.41 L 373.40000000000003 134.76 Z" stroke="#ac2593" stroke-width="0" fill="#ac2593" /><path d="M 393.05 191.48000000000002 L 373.40000000000003 202.83 L 353.75 191.48000000000002 L 353.75 168.79 L 373.40000000000003 157.45000000000002 L 393.05 168.79 Z" stroke="#ea7456" stroke-width="0" fill="#ea7456" /><path d="M 412.7 225.52 L 393.05 236.86 L 373.40000000000003 225.52 L 373.40000000000003 202.83 L 393.05 191.48000000000002 L 412.7 202.83 Z" stroke="#fca934" stroke-width="0" fill="#fca934" /><path d="M 432.35 259.55 L 412.7 270.9 L 393.05 259.55 L 393.05 236.86 L 412.7 225.52 L 432.35 236.86 Z" stroke="#48039f" stroke-width="0" fill="#48039f" /><path d="M 412.7 157.45000000000002 L 393.05 168.79 L 373.40000000000003 157.45000000000002 L 373.40000000000003 134.76 L 393.05 123.41 L 412.7 134.76 Z" stroke="#8505a6" stroke-width="0" fill="#8505a6" /><path d="M 432.35 191.48000000000002 L 412.7 202.83 L 393.05 191.48000000000002 L 393.05 168.79 L 412.7 157.45000000000002 L 432.35 168.79 Z" stroke="#b6308a" stroke-width="0" fill="#b6308a" /><path d="M 452 225.52 L 432.35 236.86 L 412.7 225.52 L 412.7 202.83 L 432.35 191.48000000000002 L 452 202.83 Z" stroke="#ea7456" stroke-width="0" fill="#ea7456" /><path d="M 452 157.45000000000002 L 432.35 168.79 L 412.7 157.45000000000002 L 412.7 134.76 L 432.35 123.41 L 452 134.76 Z" stroke="#5801a4" stroke-width="0" fill="#5801a4" /><path d="M 471.65000000000003 191.48000000000002 L 452 202.83 L 432.35 191.48000000000002 L 432.35 168.79 L 452 157.45000000000002 L 471.65000000000003 168.79 Z" stroke="#5801a4" stroke-width="0" fill="#5801a4" /></g><rect x="495" y="74.5" width="20" height="5.38" fill="#f0f921" /><rect x="495" y="79.38" width="20" height="5.38" fill="#f2ef26" /><rect x="495" y="84.26" width="20" height="5.38" fill="#f5e725" /><rect x="495" y="89.14" width="20" height="5.38" fill="#f8dd24" /><rect x="495" y="94.02" width="20" height="5.38" fill="#fad524" /><rect x="495" y="98.9" width="20" height="5.38" fill="#fccc25" /><rect x="495" y="103.78" width="20" height="5.38" fill="#fdc427" /><rect x="495" y="108.66" width="20" height="5.38" fill="#fdbc2a" /><rect x="495" y="113.54" width="20" height="5.38" fill="#fdb42e" /><rect x="495" y="118.42" width="20" height="5.38" fill="#fdac32" /><rect x="495" y="123.3" width="20" height="5.38" fill="#fba437" /><rect x="495" y="128.18" width="20" height="5.38" fill="#fa9d3b" /><rect x="495" y="133.06" width="20" height="5.38" fill="#f8963f" /><rect x="495" y="137.94" width="20" height="5.38" fill="#f68f44" /><rect x="495" y="142.82" width="20" height="5.38" fill="#f38848" /><rect x="495" y="147.70000000000002" width="20" height="5.38" fill="#f0814d" /><rect x="495" y="152.58" width="20" height="5.38" fill="#ed7a51" /><rect x="495" y="157.46" width="20" height="5.38" fill="#ea7456" /><rect x="495" y="162.34" width="20" height="5.38" fill="#e66e5a" /><rect x="495" y="167.22" width="20" height="5.38" fill="#e3685e" /><rect x="495" y="172.1" width="20" height="5.38" fill="#de6163" /><rect x="495" y="176.98" width="20" height="5.38" fill="#da5b68" /><rect x="495" y="181.86" width="20" height="5.38" fill="#d6556c" /><rect x="495" y="186.74" width="20" height="5.38" fill="#d24f71" /><rect x="495" y="191.62" width="20" height="5.38" fill="#cd4a75" /><rect x="495" y="196.5" width="20" height="5.38" fill="#c8437a" /><rect x="495" y="201.38" width="20" height="5.38" fill="#c33d7f" /><rect x="495" y="206.26" width="20" height="5.38" fill="#be3884" /><rect x="495" y="211.14000000000001" width="20" height="5.38" fill="#b83288" /><rect x="495" y="216.02" width="20" height="5.38" fill="#b32c8d" /><rect x="495" y="220.9" width="20" height="5.38" fill="#ac2693" /><rect x="495" y="225.78" width="20" height="5.38" fill="#a62097" /><rect x="495" y="230.66" width="20" height="5.38" fill="#a01a9b" /><rect x="495" y="235.54" width="20" height="5.38" fill="#99159f" /><rect x="495" y="240.42000000000002" width="20" height="5.38" fill="#920fa2" /><rect x="495" y="245.3" width="20" height="5.38" fill="#8a09a5" /><rect x="495" y="250.18" width="20" height="5.38" fill="#8305a6" /><rect x="495" y="255.06" width="20" height="5.38" fill="#7b02a8" /><rect x="495" y="259.94" width="20" height="5.38" fill="#7400a8" /><rect x="495" y="264.82" width="20" height="5.38" fill="#6c00a7" /><rect x="495" y="269.7" width="20" height="5.38" fill="#6300a7" /><rect x="495" y="274.58" width="20" height="5.38" fill="#5b01a5" /><rect x="495" y="279.46" width="20" height="5.38" fill="#5301a3" /><rect x="495" y="284.34000000000003" width="20" height="5.38" fill="#4b02a0" /><rect x="495" y="289.22" width="20" height="5.38" fill="#42039d" /><rect x="495" y="294.1" width="20" height="5.38" fill="#39039a" /><rect x="495" y="298.98" width="20" height="5.38" fill="#300596" /><rect x="495" y="303.86" width="20" height="5.38" fill="#260591" /><rect x="495" y="308.74" width="20" height="5.38" fill="#1b068d" /><rect x="495" y="313.62" width="20" height="5.38" fill="#0d0887" /><rect x="495" y="74.5" width="20" height="244" fill="none" stroke="#000000" stroke-width="1" /><line x1="515" y1="280.96" x2="519" y2="280.96" stroke="#000000" stroke-width="1" /><text x="520" y="284.96" font-size="12" text-anchor="start">5</text><line x1="515" y1="234.04" x2="519" y2="234.04" stroke="#000000" stroke-width="1" /><text x="520" y="238.04" font-size="12" text-anchor="start">10</text><line x1="515" y1="187.12" x2="519" y2="187.12" stroke="#000000" stroke-width="1" /><text x="520" y="191.12" font-size="12" text-anchor="start">15</text><line x1="515" y1="140.19" x2="519" y2="140.19" stroke="#000000" stroke-width="1" /><text x="520" y="144.19" font-size="12" text-anchor="start">20</text><line x1="515" y1="93.27" x2="519" y2="93.27" stroke="#000000" stroke-width="1" /><text x="520" y="97.27" font-size="12" text-anchor="start">25</text><text x="485" y="196.5" font-size="12" text-anchor="middle" transform="rotate(-90,485,196.5)">Count</text></svg>