<svg xmlns="http://www.w3.org/2000/svg" width="560" height="400" font-family="DejaVu Sans, Liberation Sans, Arial, sans-serif" fill="black"><rect width="100%" height="100%" fill="white" /><defs><clipPath id="kuva-clip-2"><rect x="59" y="44" width="393" height="305"/></clipPath></defs><line x1="137.6" y1="44" x2="137.6" y2="349" stroke="#cccccc" stroke-width="1" /><line x1="216.20000000000002" y1="44" x2="216.20000000000002" y2="349" stroke="#cccccc" stroke-width="1" /><line x1="294.8" y1="44" x2="294.8" y2="349" stroke="#cccccc" stroke-width="1" /><line x1="373.40000000000003" y1="44" x2="373.40000000000003" y2="349" stroke="#cccccc" stroke-width="1" /><line x1="452" y1="44" x2="452" y2="349" stroke="#cccccc" stroke-width="1" /><line x1="59" y1="298.17" x2="452" y2="298.17" stroke="#cccccc" stroke-width="1" /><line x1="59" y1="247.33" x2="452" y2="247.33" stroke="#cccccc" stroke-width="1" /><line x1="59" y1="196.5" x2="452" y2="196.5" stroke="#cccccc" stroke-width="1" /><line x1="59" y1="145.67000000000002" x2="452" y2="145.67000000000002" stroke="#cccccc" stroke-width="1" /><line x1="59" y1="94.83" x2="452" y2="94.83" stroke="#cccccc" stroke-width="1" /><line x1="59" y1="44" x2="452" y2="44" stroke="#cccccc" stroke-width="1" /><line x1="59" y1="349" x2="452" y2="349" stroke="#000000" stroke-width="1" /><line x1="59" y1="44" x2="59" y2="349" stroke="#000000" stroke-width="1" /><line x1="59" y1="349" x2="59" y2="354" stroke="#000000" stroke-width="1" /><text x="59" y="366" font-size="12" text-anchor="middle">0</text><line x1="137.6" y1="349" x2="137.6" y2="354" stroke="#000000" stroke-width="1" /><text x="137.6" y="366" font-size="12" text-anchor="middle">1</text><line x1="216.20000000000002" y1="349" x2="216.20000000000002" y2="354" stroke="#000000" stroke-width="1" /><text x="216.20000000000002" y="366" font-size="12" text-anchor="middle">2</text><line x1="294.8" y1="349" x2="294.8" y2="354" stroke="#000000" stroke-width="1" /><text x="294.8" y="366" font-size="12" text-anchor="middle">3</text><line x1="373.40000000000003" y1="349" x2="373.40000000000003" y2="354" stroke="#000000" stroke-width="1" /><text x="373.40000000000003" y="366" font-size="12" text-anchor="middle">4</text><line x1="452" y1="349" x2="452" y2="354" stroke="#000000" stroke-width="1" /><text x="452" y="366" font-size="12" text-anchor="middle">5</text><line x1="54" y1="349" x2="59" y2="349" stroke="#000000" stroke-width="1" /><text x="51" y="353.2" font-size="12" text-anchor="end">0</text><line x1="54" y1="298.17" x2="59" y2="298.17" stroke="#000000" stroke-width="1" /><text x="51" y="302.37" font-size="12" text-anchor="end">1</text><line x1="54" y1="247.33" x2="59" y2="247.33" stroke="#000000" stroke-width="1" /><text x="51" y="251.53" font-size="12" text-anchor="end">2</text><line x1="54" y1="196.5" x2="59" y2="196.5" stroke="#000000" stroke-width="1" /><text x="51" y="200.70000000000002" font-size="12" text-anchor="end">3</text><line x1="54" y1="145.67000000000002" x2="59" y2="145.67000000000002" stroke="#000000" stroke-width="1" /><text x="51" y="149.87" font-size="12" text-anchor="end">4</text><line x1="54" y1="94.83" x2="59" y2="94.83" stroke="#000000" stroke-width="1" /><text x="51" y="99.03" font-size="12" text-anchor="end">5</text><line x1="54" y1="44" x2="59" y2="44" stroke="#000000" stroke-width="1" /><text x="51" y="48.2" font-size="12" text-anchor="end">6</text><text x="255.5" y="393" font-size="14" text-anchor="middle">X</text><text x="15" y="200" font-size="14" text-anchor="middle" transform="rotate(-90,15,200)">Y</text><text x="280" y="27.400000000000002" font-size="18" text-anchor="middle">Hexbin — 40 bins (fine)</text><g clip-path="url(#kuva-clip-2)"><path d="M 68.82000000000001 327.62 L 63.910000000000004 330.46 L 59 327.62 L 59 321.95 L 63.910000000000004 319.11 L 68.82000000000001 321.95 Z" stroke="#000004" stroke-width="0" fill="#000004" /><path d="M 68.83 310.61 L 63.910000000000004 313.44 L 59 310.61 L 59 304.93 L 63.910000000000004 302.1 L 68.83 304.93 Z" stroke="#000004" stroke-width="0" fill="#000004" /><path d="M 73.74 319.11 L 68.83 321.95 L 63.910000000000004 319.11 L 63.910000000000004 313.44 L 68.83 310.61 L 73.74 313.44 Z" stroke="#000004" stroke-width="0" fill="#000004" /><path d="M 73.74 302.1 L 68.82000000000001 304.93 L 63.910000000000004 302.1 L 63.910000000000004 296.42 L 68.82000000000001 293.59000000000003 L 73.74 296.42 Z" stroke="#781c6d" stroke-width="0" fill="#781c6d" /><path d="M 78.65 310.61 L 73.74 313.44 L 68.83 310.61 L 68.82000000000001 304.93 L 73.74 302.1 L 78.65 304.93 Z" stroke="#000004" stroke-width="0" fill="#000004" /><path d="M 83.56 319.11 L 78.65 321.95 L 73.74 319.11 L 73.74 313.44 L 78.65 310.61 L 83.56 313.44 Z" stroke="#ed6825" stroke-width="0" fill="#ed6825" /><path d="M 88.47 327.62 L 83.56 330.46 L 78.65 327.62 L 78.65 321.95 L 83.56 319.11 L 88.48 321.95 Z" stroke="#000004" stroke-width="0" fill="#000004" /><path d="M 98.3 344.64 L 93.39 347.48 L 88.48 344.64 L 88.48 338.97 L 93.39 336.13 L 98.3 338.97 Z" stroke="#000004" stroke-width="0" fill="#000004" /><path d="M 68.82000000000001 276.57 L 63.910000000000004 279.41 L 59 276.57 L 59 270.9 L 63.910000000000004 268.06 L 68.82000000000001 270.9 Z" stroke="#000004" stroke-width="0" fill="#000004" /><path d="M 83.56 302.1 L 78.65 304.93 L 73.74 302.1 L 73.74 296.42 L 78.65 293.59000000000003 L 83.56 296.42 Z" stroke="#000004" stroke-width="0" fill="#000004" /><path d="M 88.48 310.61 L 83.56 313.44 L 78.65 310.61 L 78.65 304.93 L 83.56 302.1 L 88.48 304.93 Z" stroke="#781c6d" stroke-width="0" fill="#781c6d" /><path d="M 98.3 327.62 L 93.39 330.46 L 88.48 327.62 L 88.48 321.95 L 93.39 319.11 L 98.3 321.95 Z" stroke="#000004" stroke-width="0" fill="#000004" /><path d="M 113.04 353.15000000000003 L 108.13 355.99 L 103.21000000000001 353.15000000000003 L 103.21000000000001 347.48 L 108.13 344.64 L 113.04 347.48 Z" stroke="#000004" stroke-width="0" fill="#000004" /><path d="M 73.74 268.06 L 68.82000000000001 270.9 L 63.910000000000004 268.06 L 63.910000000000004 262.39 L 68.82000000000001 259.55 L 73.74 262.39 Z" stroke="#000004" stroke-width="0" fill="#000004" /><path d="M 93.39 302.1 L 88.47 304.93 L 83.56 302.1 L 83.56 296.42 L 88.47 293.59000000000003 L 93.39 296.42 Z" stroke="#781c6d" stroke-width="0" fill="#781c6d" /><path d="M 98.3 310.61 L 93.39 313.44 L 88.48 310.61 L 88.48 304.93 L 93.39 302.1 L 98.3 304.93 Z" stroke="#000004" stroke-width="0" fill="#000004" /><path d="M 103.21000000000001 319.11 L 98.3 321.95 L 93.39 319.11 L 93.39 313.44 L 98.3 310.61 L 103.21000000000001 313.44 Z" stroke="#000004" stroke-width="0" fill="#000004" /><path d="M 117.95 344.64 L 113.04 347.48 L 108.13 344.64 L 108.13 338.97 L 113.04 336.13 L 117.95 338.97 Z" stroke="#000004" stroke-width="0" fill="#000004" /><path d="M 78.65 259.55 L 73.74 262.39 L 68.83 259.55 L 68.82000000000001 253.88 L 73.74 251.05 L 78.65 253.88 Z" stroke="#000004" stroke-width="0" fill="#000004" /><path d="M 103.21000000000001 302.1 L 98.3 304.93 L 93.39 302.1 L 93.39 296.42 L 98.3 293.59000000000003 L 103.21000000000001 296.42 Z" stroke="#000004" stroke-width="0" fill="#000004" /><path d="M 127.78 344.64 L 122.86 347.48 L 117.95 344.64 L 117.95 338.97 L 122.86 336.13 L 127.78 338.97 Z" stroke="#000004" stroke-width="0" fill="#000004" /><path d="M 93.39 268.06 L 88.48 270.9 L 83.56 268.06 L 83.56 262.39 L 88.48 259.55 L 93.39 262.39 Z" stroke="#000004" stroke-width="0" fill="#000004" /><path d="M 103.21000000000001 285.08 L 98.3 287.92 L 93.39 285.08 L 93.39 279.41 L 98.3 276.57 L 103.21000000000001 279.41 Z" stroke="#781c6d" stroke-width="0" fill="#781c6d" /><path d="M 113.04 302.1 L 108.13 304.93 L 103.21000000000001 302.1 L 103.21000000000001 296.42 L 108.13 293.59000000000003 L 113.04 296.42 Z" stroke="#000004" stroke-width="0" fill="#000004" /><path d="M 117.95 310.61 L 113.04 313.44 L 108.13 310.61 L 108.13 304.93 L 113.04 302.1 L 117.95 304.93 Z" stroke="#000004" stroke-width="0" fill="#000004" /><path d="M 122.86 319.11 L 117.95 321.95 L 113.04 319.11 L 113.04 313.44 L 117.95 310.61 L 122.86 313.44 Z" stroke="#781c6d" stroke-width="0" fill="#781c6d" /><path d="M 127.78 327.62 L 122.86 330.46 L 117.95 327.62 L 117.95 321.95 L 122.86 319.11 L 127.78 321.95 Z" stroke="#781c6d" stroke-width="0" fill="#781c6d" /><path d="M 132.69 336.13 L 127.78 338.97 L 122.86 336.13 L 122.86 330.46 L 127.78 327.62 L 132.69 330.46 Z" stroke="#000004" stroke-width="0" fill="#000004" /><path d="M 113.04 285.08 L 108.13 287.92 L 103.21000000000001 285.08 L 103.21000000000001 279.41 L 108.13 276.57 L 113.04 279.41 Z" stroke="#000004" stroke-width="0" fill="#000004" /><path d="M 127.78 310.61 L 122.86 313.44 L 117.95 310.61 L 117.95 304.93 L 122.86 302.1 L 127.78 304.93 Z" stroke="#781c6d" stroke-width="0" fill="#781c6d" /><path d="M 132.69 319.11 L 127.78 321.95 L 122.86 319.11 L 122.86 313.44 L 127.78 310.61 L 132.69 313.44 Z" stroke="#000004" stroke-width="0" fill="#000004" /><path d="M 137.6 327.62 L 132.69 330.46 L 127.78 327.62 L 127.78 321.95 L 132.69 319.11 L 137.6 321.95 Z" stroke="#781c6d" stroke-width="0" fill="#781c6d" /><path d="M 142.51 336.13 L 137.6 338.97 L 132.69 336.13 L 132.69 330.46 L 137.6 327.62 L 142.51 330.46 Z" stroke="#000004" stroke-width="0" fill="#000004" /><path d="M 152.34 353.15000000000003 L 147.43 355.99 L 142.51 353.15000000000003 L 142.51 347.48 L 147.43 344.64 L 152.34 347.48 Z" stroke="#781c6d" stroke-width="0" fill="#781c6d" /><path d="M 113.04 268.06 L 108.13 270.9 L 103.21000000000001 268.06 L 103.21000000000001 262.39 L 108.13 259.55 L 113.04 262.39 Z" stroke="#781c6d" stroke-width="0" fill="#781c6d" /><path d="M 122.86 285.08 L 117.95 287.92 L 113.04 285.08 L 113.04 279.41 L 117.95 276.57 L 122.86 279.41 Z" stroke="#000004" stroke-width="0" fill="#000004" /><path d="M 127.78 293.59000000000003 L 122.86 296.42 L 117.95 293.59000000000003 L 117.95 287.92 L 122.86 285.08 L 127.78 287.92 Z" stroke="#781c6d" stroke-width="0" fill="#781c6d" /><path d="M 132.69 302.1 L 127.78 304.93 L 122.86 302.1 L 122.86 296.42 L 127.78 293.59000000000003 L 132.69 296.42 Z" stroke="#000004" stroke-width="0" fill="#000004" /><path d="M 137.6 310.61 L 132.69 313.44 L 127.78 310.61 L 127.78 304.93 L 132.69 302.1 L 137.6 304.93 Z" stroke="#000004" stroke-width="0" fill="#000004" /><path d="M 157.25 344.64 L 152.34 347.48 L 147.43 344.64 L 147.43 338.97 L 152.34 336.13 L 157.25 338.97 Z" stroke="#000004" stroke-width="0" fill="#000004" /><path d="M 162.16 353.15000000000003 L 157.25 355.99 L 152.34 353.15000000000003 L 152.34 347.48 L 157.25 344.64 L 162.16 347.48 Z" stroke="#000004" stroke-width="0" fill="#000004" /><path d="M 117.95 259.55 L 113.04 262.39 L 108.13 259.55 L 108.13 253.88 L 113.04 251.05 L 117.95 253.88 Z" stroke="#781c6d" stroke-width="0" fill="#781c6d" /><path d="M 122.86 268.06 L 117.95 270.9 L 113.04 268.06 L 113.04 262.39 L 117.95 259.55 L 122.86 262.39 Z" stroke="#000004" stroke-width="0" fill="#000004" /><path d="M 127.77 276.57 L 122.86 279.41 L 117.95 276.57 L 117.95 270.9 L 122.86 268.06 L 127.77 270.9 Z" stroke="#781c6d" stroke-width="0" fill="#781c6d" /><path d="M 142.51 302.1 L 137.6 304.93 L 132.69 302.1 L 132.69 296.42 L 137.6 293.59000000000003 L 142.51 296.42 Z" stroke="#000004" stroke-width="0" fill="#000004" /><path d="M 147.42000000000002 310.61 L 142.51 313.44 L 137.6 310.61 L 137.6 304.93 L 142.51 302.1 L 147.42000000000002 304.93 Z" stroke="#000004" stroke-width="0" fill="#000004" /><path d="M 152.34 319.11 L 147.43 321.95 L 142.51 319.11 L 142.51 313.44 L 147.43 310.61 L 152.34 313.44 Z" stroke="#000004" stroke-width="0" fill="#000004" /><path d="M 162.16 336.13 L 157.25 338.97 L 152.34 336.13 L 152.34 330.46 L 157.25 327.62 L 162.16 330.46 Z" stroke="#000004" stroke-width="0" fill="#000004" /><path d="M 171.99 353.15000000000003 L 167.08 355.99 L 162.16 353.15000000000003 L 162.16 347.48 L 167.08 344.64 L 171.99 347.48 Z" stroke="#000004" stroke-width="0" fill="#000004" /><path d="M 127.78 259.55 L 122.86 262.39 L 117.95 259.55 L 117.95 253.88 L 122.86 251.05 L 127.78 253.88 Z" stroke="#000004" stroke-width="0" fill="#000004" /><path d="M 152.34 302.1 L 147.42000000000002 304.93 L 142.51 302.1 L 142.51 296.42 L 147.42000000000002 293.59000000000003 L 152.34 296.42 Z" stroke="#781c6d" stroke-width="0" fill="#781c6d" /><path d="M 157.25 310.61 L 152.34 313.44 L 147.43 310.61 L 147.43 304.93 L 152.34 302.1 L 157.25 304.93 Z" stroke="#000004" stroke-width="0" fill="#000004" /><path d="M 162.16 319.11 L 157.25 321.95 L 152.34 319.11 L 152.34 313.44 L 157.25 310.61 L 162.16 313.44 Z" stroke="#781c6d" stroke-width="0" fill="#781c6d" /><path d="M 171.99 336.13 L 167.08 338.97 L 162.16 336.13 L 162.16 330.46 L 167.08 327.62 L 171.99 330.46 Z" stroke="#000004" stroke-width="0" fill="#000004" /><path d="M 176.9 344.64 L 171.99 347.48 L 167.08 344.64 L 167.08 338.97 L 171.99 336.13 L 176.9 338.97 Z" stroke="#781c6d" stroke-width="0" fill="#781c6d" /><path d="M 132.69 251.05 L 127.78 253.88 L 122.86 251.05 L 122.86 245.37 L 127.78 242.54 L 132.69 245.37 Z" stroke="#000004" stroke-width="0" fill="#000004" /><path d="M 137.6 259.55 L 132.69 262.39 L 127.78 259.55 L 127.78 253.88 L 132.69 251.05 L 137.6 253.88 Z" stroke="#781c6d" stroke-width="0" fill="#781c6d" /><path d="M 142.51 268.06 L 137.6 270.9 L 132.69 268.06 L 132.69 262.39 L 137.6 259.55 L 142.51 262.39 Z" stroke="#000004" stroke-width="0" fill="#000004" /><path d="M 147.42000000000002 276.57 L 142.51 279.41 L 137.6 276.57 L 137.6 270.9 L 142.51 268.06 L 147.42000000000002 270.9 Z" stroke="#781c6d" stroke-width="0" fill="#781c6d" /><path d="M 152.34 285.08 L 147.43 287.92 L 142.51 285.08 L 142.51 279.41 L 147.43 276.57 L 152.34 279.41 Z" stroke="#000004" stroke-width="0" fill="#000004" /><path d="M 162.16 302.1 L 157.25 304.93 L 152.34 302.1 L 152.34 296.42 L 157.25 293.59000000000003 L 162.16 296.42 Z" stroke="#781c6d" stroke-width="0" fill="#781c6d" /><path d="M 167.08 310.61 L 162.16 313.44 L 157.25 310.61 L 157.25 304.93 L 162.16 302.1 L 167.08 304.93 Z" stroke="#781c6d" stroke-width="0" fill="#781c6d" /><path d="M 147.42000000000002 259.55 L 142.51 262.39 L 137.6 259.55 L 137.6 253.88 L 142.51 251.05 L 147.42000000000002 253.88 Z" stroke="#000004" stroke-width="0" fill="#000004" /><path d="M 152.34 268.06 L 147.43 270.9 L 142.51 268.06 L 142.51 262.39 L 147.43 259.55 L 152.34 262.39 Z" stroke="#000004" stroke-width="0" fill="#000004" /><path d="M 167.08 293.59000000000003 L 162.16 296.42 L 157.25 293.59000000000003 L 157.25 287.92 L 162.16 285.08 L 167.08 287.92 Z" stroke="#781c6d" stroke-width="0" fill="#781c6d" /><path d="M 171.99 302.1 L 167.08 304.93 L 162.16 302.1 L 162.16 296.42 L 167.08 293.59000000000003 L 171.99 296.42 Z" stroke="#000004" stroke-width="0" fill="#000004" /><path d="M 176.9 310.61 L 171.99 313.44 L 167.08 310.61 L 167.08 304.93 L 171.99 302.1 L 176.9 304.93 Z" stroke="#781c6d" stroke-width="0" fill="#781c6d" /><path d="M 181.81 319.11 L 176.9 321.95 L 171.99 319.11 L 171.99 313.44 L 176.9 310.61 L 181.81 313.44 Z" stroke="#000004" stroke-width="0" fill="#000004" /><path d="M 176.9 293.59000000000003 L 171.99 296.42 L 167.08 293.59000000000003 L 167.08 287.92 L 171.99 285.08 L 176.9 287.92 Z" stroke="#000004" stroke-width="0" fill="#000004" /><path d="M 186.73 310.61 L 181.81 313.44 L 176.9 310.61 L 176.9 304.93 L 181.81 302.1 L 186.73 304.93 Z" stroke="#000004" stroke-width="0" fill="#000004" /><path d="M 191.64000000000001 319.11 L 186.73 321.95 L 181.81 319.11 L 181.81 313.44 L 186.73 310.61 L 191.64000000000001 313.44 Z" stroke="#781c6d" stroke-width="0" fill="#781c6d" /><path d="M 162.16 251.05 L 157.25 253.88 L 152.34 251.05 L 152.34 245.37 L 157.25 242.54 L 162.16 245.37 Z" stroke="#000004" stroke-width="0" fill="#000004" /><path d="M 171.99 268.06 L 167.08 270.9 L 162.16 268.06 L 162.16 262.39 L 167.08 259.55 L 171.99 262.39 Z" stroke="#000004" stroke-width="0" fill="#000004" /><path d="M 181.81 285.08 L 176.9 287.92 L 171.99 285.08 L 171.99 279.41 L 176.9 276.57 L 181.81 279.41 Z" stroke="#000004" stroke-width="0" fill="#000004" /><path d="M 186.73 293.59000000000003 L 181.81 296.42 L 176.9 293.59000000000003 L 176.9 287.92 L 181.81 285.08 L 186.73 287.92 Z" stroke="#000004" stroke-width="0" fill="#000004" /><path d="M 196.55 310.61 L 191.64000000000001 313.44 L 186.73 310.61 L 186.73 304.93 L 191.64000000000001 302.1 L 196.55 304.93 Z" stroke="#000004" stroke-width="0" fill="#000004" /><path d="M 201.46 319.11 L 196.55 321.95 L 191.64000000000001 319.11 L 191.64000000000001 313.44 L 196.55 310.61 L 201.46 313.44 Z" stroke="#000004" stroke-width="0" fill="#000004" /><path d="M 176.9 259.55 L 171.99 262.39 L 167.08 259.55 L 167.08 253.88 L 171.99 251.05 L 176.9 253.88 Z" stroke="#000004" stroke-width="0" fill="#000004" /><path d="M 181.81 268.06 L 176.9 270.9 L 171.99 268.06 L 171.99 262.39 L 176.9 259.55 L 181.81 262.39 Z" stroke="#000004" stroke-width="0" fill="#000004" /><path d="M 201.46 302.1 L 196.55 304.93 L 191.64000000000001 302.1 L 191.64000000000001 296.42 L 196.55 293.59000000000003 L 201.46 296.42 Z" stroke="#000004" stroke-width="0" fill="#000004" /><path d="M 211.29 319.11 L 206.38 321.95 L 201.46 319.11 L 201.46 313.44 L 206.38 310.61 L 211.29 313.44 Z" stroke="#000004" stroke-width="0" fill="#000004" /><path d="M 181.81 251.05 L 176.9 253.88 L 171.99 251.05 L 171.99 245.37 L 176.9 242.54 L 181.81 245.37 Z" stroke="#000004" stroke-width="0" fill="#000004" /><path d="M 186.73 259.55 L 181.81 262.39 L 176.9 259.55 L 176.9 253.88 L 181.81 251.05 L 186.73 253.88 Z" stroke="#000004" stroke-width="0" fill="#000004" /><path d="M 191.64000000000001 268.06 L 186.73 270.9 L 181.81 268.06 L 181.81 262.39 L 186.73 259.55 L 191.64000000000001 262.39 Z" stroke="#781c6d" stroke-width="0" fill="#781c6d" /><path d="M 196.55 276.57 L 191.64000000000001 279.41 L 186.73 276.57 L 186.73 270.9 L 191.64000000000001 268.06 L 196.55 270.9 Z" stroke="#000004" stroke-width="0" fill="#000004" /><path d="M 201.46 285.08 L 196.55 287.92 L 191.64000000000001 285.08 L 191.64000000000001 279.41 L 196.55 276.57 L 201.46 279.41 Z" stroke="#000004" stroke-width="0" fill="#000004" /><path d="M 206.38 293.59000000000003 L 201.46 296.42 L 196.55 293.59000000000003 L 196.55 287.92 L 201.46 285.08 L 206.38 287.92 Z" stroke="#000004" stroke-width="0" fill="#000004" /><path d="M 211.29 302.1 L 206.38 304.93 L 201.46 302.1 L 201.46 296.42 L 206.38 293.59000000000003 L 211.29 296.42 Z" stroke="#000004" stroke-width="0" fill="#000004" /><path d="M 216.20000000000002 310.61 L 211.29 313.44 L 206.38 310.61 L 206.38 304.93 L 211.29 302.1 L 216.20000000000002 304.93 Z" stroke="#781c6d" stroke-width="0" fill="#781c6d" /><path d="M 221.11 319.11 L 216.20000000000002 321.95 L 211.29 319.11 L 211.29 313.44 L 216.20000000000002 310.61 L 221.11 313.44 Z" stroke="#000004" stroke-width="0" fill="#000004" /><path d="M 196.55 259.55 L 191.64000000000001 262.39 L 186.73 259.55 L 186.73 253.88 L 191.64000000000001 251.05 L 196.55 253.88 Z" stroke="#000004" stroke-width="0" fill="#000004" /><path d="M 216.20000000000002 293.59000000000003 L 211.29 296.42 L 206.38 293.59000000000003 L 206.38 287.92 L 211.29 285.08 L 216.20000000000002 287.92 Z" stroke="#781c6d" stroke-width="0" fill="#781c6d" /><path d="M 147.42000000000002 123.41 L 142.51 126.25 L 137.6 123.41 L 137.6 117.74000000000001 L 142.51 114.91 L 147.42000000000002 117.74000000000001 Z" stroke="#000004" stroke-width="0" fill="#000004" /><path d="M 147.42000000000002 106.4 L 142.51 109.23 L 137.6 106.4 L 137.6 100.72 L 142.51 97.89 L 147.42000000000002 100.72 Z" stroke="#000004" stroke-width="0" fill="#000004" /><path d="M 152.34 114.91 L 147.43 117.74000000000001 L 142.51 114.91 L 142.51 109.23 L 147.43 106.4 L 152.34 109.23 Z" stroke="#000004" stroke-width="0" fill="#000004" /><path d="M 162.16 131.92000000000002 L 157.25 134.76 L 152.34 131.92000000000002 L 152.34 126.25 L 157.25 123.41 L 162.16 126.25 Z" stroke="#000004" stroke-width="0" fill="#000004" /><path d="M 147.42000000000002 89.38 L 142.51 92.22 L 137.6 89.38 L 137.6 83.71000000000001 L 142.51 80.87 L 147.42000000000002 83.71000000000001 Z" stroke="#781c6d" stroke-width="0" fill="#781c6d" /><path d="M 152.34 97.89 L 147.43 100.72 L 142.51 97.89 L 142.51 92.22 L 147.43 89.38 L 152.34 92.22 Z" stroke="#781c6d" stroke-width="0" fill="#781c6d" /><path d="M 157.25 106.4 L 152.34 109.23 L 147.43 106.4 L 147.43 100.72 L 152.34 97.89 L 157.25 100.72 Z" stroke="#fcffa4" stroke-width="0" fill="#fcffa4" /><path d="M 162.16 114.91 L 157.25 117.74000000000001 L 152.34 114.91 L 152.34 109.23 L 157.25 106.4 L 162.16 109.23 Z" stroke="#ed6825" stroke-width="0" fill="#ed6825" /><path d="M 167.08 123.41 L 162.16 126.25 L 157.25 123.41 L 157.25 117.74000000000001 L 162.16 114.91 L 167.08 117.74000000000001 Z" stroke="#000004" stroke-width="0" fill="#000004" /><path d="M 176.9 140.43 L 171.99 143.27 L 167.08 140.43 L 167.08 134.76 L 171.99 131.92000000000002 L 176.9 134.76 Z" stroke="#000004" stroke-width="0" fill="#000004" /><path d="M 181.81 148.94 L 176.9 151.78 L 171.99 148.94 L 171.99 143.27 L 176.9 140.43 L 181.81 143.27 Z" stroke="#000004" stroke-width="0" fill="#000004" /><path d="M 147.42000000000002 72.36 L 142.51 75.2 L 137.6 72.36 L 137.6 66.69 L 142.51 63.85 L 147.42000000000002 66.69 Z" stroke="#000004" stroke-width="0" fill="#000004" /><path d="M 157.25 89.38 L 152.34 92.22 L 147.43 89.38 L 147.43 83.71000000000001 L 152.34 80.87 L 157.25 83.71000000000001 Z" stroke="#000004" stroke-width="0" fill="#000004" /><path d="M 162.16 97.89 L 157.25 100.72 L 152.34 97.89 L 152.34 92.22 L 157.25 89.38 L 162.16 92.22 Z" stroke="#781c6d" stroke-width="0" fill="#781c6d" /><path d="M 167.08 106.4 L 162.16 109.23 L 157.25 106.4 L 157.25 100.72 L 162.16 97.89 L 167.08 100.72 Z" stroke="#781c6d" stroke-width="0" fill="#781c6d" /><path d="M 171.99 114.91 L 167.08 117.74000000000001 L 162.16 114.91 L 162.16 109.23 L 167.08 106.4 L 171.99 109.23 Z" stroke="#000004" stroke-width="0" fill="#000004" /><path d="M 176.9 123.41 L 171.99 126.25 L 167.08 123.41 L 167.08 117.74000000000001 L 171.99 114.91 L 176.9 117.74000000000001 Z" stroke="#000004" stroke-width="0" fill="#000004" /><path d="M 191.64000000000001 148.94 L 186.73 151.78 L 181.81 148.94 L 181.81 143.27 L 186.73 140.43 L 191.64000000000001 143.27 Z" stroke="#000004" stroke-width="0" fill="#000004" /><path d="M 152.34 63.85 L 147.43 66.69 L 142.51 63.85 L 142.51 58.18 L 147.43 55.34 L 152.34 58.18 Z" stroke="#000004" stroke-width="0" fill="#000004" /><path d="M 171.99 97.89 L 167.08 100.72 L 162.16 97.89 L 162.16 92.22 L 167.08 89.38 L 171.99 92.22 Z" stroke="#000004" stroke-width="0" fill="#000004" /><path d="M 176.9 106.4 L 171.99 109.23 L 167.08 106.4 L 167.08 100.72 L 171.99 97.89 L 176.9 100.72 Z" stroke="#781c6d" stroke-width="0" fill="#781c6d" /><path d="M 181.81 114.91 L 176.9 117.74000000000001 L 171.99 114.91 L 171.99 109.23 L 176.9 106.4 L 181.81 109.23 Z" stroke="#000004" stroke-width="0" fill="#000004" /><path d="M 196.55 140.43 L 191.64000000000001 143.27 L 186.73 140.43 L 186.73 134.76 L 191.64000000000001 131.92000000000002 L 196.55 134.76 Z" stroke="#000004" stroke-width="0" fill="#000004" /><path d="M 201.46 148.94 L 196.55 151.78 L 191.64000000000001 148.94 L 191.64000000000001 143.27 L 196.55 140.43 L 201.46 143.27 Z" stroke="#000004" stroke-width="0" fill="#000004" /><path d="M 157.25 55.34 L 152.34 58.18 L 147.43 55.34 L 147.43 49.67 L 152.34 46.84 L 157.25 49.67 Z" stroke="#000004" stroke-width="0" fill="#000004" /><path d="M 176.9 89.38 L 171.99 92.22 L 167.08 89.38 L 167.08 83.71000000000001 L 171.99 80.87 L 176.9 83.71000000000001 Z" stroke="#000004" stroke-width="0" fill="#000004" /><path d="M 181.81 97.89 L 176.9 100.72 L 171.99 97.89 L 171.99 92.22 L 176.9 89.38 L 181.81 92.22 Z" stroke="#000004" stroke-width="0" fill="#000004" /><path d="M 201.46 131.92000000000002 L 196.55 134.76 L 191.64000000000001 131.92000000000002 L 191.64000000000001 126.25 L 196.55 123.41 L 201.46 126.25 Z" stroke="#000004" stroke-width="0" fill="#000004" /><path d="M 211.29 148.94 L 206.38 151.78 L 201.46 148.94 L 201.46 143.27 L 206.38 140.43 L 211.29 143.27 Z" stroke="#000004" stroke-width="0" fill="#000004" /><path d="M 167.07 55.34 L 162.16 58.18 L 157.25 55.34 L 157.25 49.67 L 162.16 46.84 L 167.07 49.67 Z" stroke="#781c6d" stroke-width="0" fill="#781c6d" /><path d="M 171.99 63.85 L 167.08 66.69 L 162.16 63.85 L 162.16 58.18 L 167.08 55.34 L 171.99 58.18 Z" stroke="#000004" stroke-width="0" fill="#000004" /><path d="M 181.81 80.87 L 176.9 83.71000000000001 L 171.99 80.87 L 171.99 75.2 L 176.9 72.36 L 181.81 75.2 Z" stroke="#000004" stroke-width="0" fill="#000004" /><path d="M 186.73 89.38 L 181.81 92.22 L 176.9 89.38 L 176.9 83.71000000000001 L 181.81 80.87 L 186.73 83.71000000000001 Z" stroke="#ed6825" stroke-width="0" fill="#ed6825" /><path d="M 191.64000000000001 97.89 L 186.73 100.72 L 181.81 97.89 L 181.81 92.22 L 186.73 89.38 L 191.64000000000001 92.22 Z" stroke="#000004" stroke-width="0" fill="#000004" /><path d="M 196.55 106.4 L 191.64000000000001 109.23 L 186.73 106.4 L 186.73 100.72 L 191.64000000000001 97.89 L 196.55 100.72 Z" stroke="#000004" stroke-width="0" fill="#000004" /><path d="M 201.46 114.91 L 196.55 117.74000000000001 L 191.64000000000001 114.91 L 191.64000000000001 109.23 L 196.55 106.4 L 201.46 109.23 Z" stroke="#ed6825" stroke-width="0" fill="#ed6825" /><path d="M 206.38 123.41 L 201.46 126.25 L 196.55 123.41 L 196.55 117.74000000000001 L 201.46 114.91 L 206.38 117.74000000000001 Z" stroke="#ed6825" stroke-width="0" fill="#ed6825" /><path d="M 211.29 131.92000000000002 L 206.38 134.76 L 201.46 131.92000000000002 L 201.46 126.25 L 206.38 123.41 L 211.29 126.25 Z" stroke="#000004" stroke-width="0" fill="#000004" /><path d="M 216.20000000000002 140.43 L 211.29 143.27 L 206.38 140.43 L 206.38 134.76 L 211.29 131.92000000000002 L 216.20000000000002 134.76 Z" stroke="#781c6d" stroke-width="0" fill="#781c6d" /><path d="M 181.81 63.85 L 176.9 66.69 L 171.99 63.85 L 171.99 58.18 L 176.9 55.34 L 181.81 58.18 Z" stroke="#000004" stroke-width="0" fill="#000004" /><path d="M 191.64000000000001 80.87 L 186.73 83.71000000000001 L 181.81 80.87 L 181.81 75.2 L 186.73 72.36 L 191.64000000000001 75.2 Z" stroke="#000004" stroke-width="0" fill="#000004" /><path d="M 201.46 97.89 L 196.55 100.72 L 191.64000000000001 97.89 L 191.64000000000001 92.22 L 196.55 89.38 L 201.46 92.22 Z" stroke="#781c6d" stroke-width="0" fill="#781c6d" /><path d="M 206.38 106.4 L 201.46 109.23 L 196.55 106.4 L 196.55 100.72 L 201.46 97.89 L 206.38 100.72 Z" stroke="#ed6825" stroke-width="0" fill="#ed6825" /><path d="M 211.29 114.91 L 206.38 117.74000000000001 L 201.46 114.91 L 201.46 109.23 L 206.38 106.4 L 211.29 109.23 Z" stroke="#000004" stroke-width="0" fill="#000004" /><path d="M 216.20000000000002 123.41 L 211.29 126.25 L 206.38 123.41 L 206.38 117.74000000000001 L 211.29 114.91 L 216.20000000000002 117.74000000000001 Z" stroke="#781c6d" stroke-width="0" fill="#781c6d" /><path d="M 221.11 131.92000000000002 L 216.20000000000002 134.76 L 211.29 131.92000000000002 L 211.29 126.25 L 216.20000000000002 123.41 L 221.11 126.25 Z" stroke="#000004" stroke-width="0" fill="#000004" /><path d="M 230.94 148.94 L 226.03 151.78 L 221.11 148.94 L 221.11 143.27 L 226.03 140.43 L 230.94 143.27 Z" stroke="#781c6d" stroke-width="0" fill="#781c6d" /><path d="M 181.81 46.84 L 176.9 49.67 L 171.99 46.84 L 171.99 41.160000000000004 L 176.9 38.33 L 181.81 41.160000000000004 Z" stroke="#000004" stroke-width="0" fill="#000004" /><path d="M 191.64000000000001 63.85 L 186.73 66.69 L 181.81 63.85 L 181.81 58.18 L 186.73 55.34 L 191.64000000000001 58.18 Z" stroke="#ed6825" stroke-width="0" fill="#ed6825" /><path d="M 201.46 80.87 L 196.55 83.71000000000001 L 191.64000000000001 80.87 L 191.64000000000001 75.2 L 196.55 72.36 L 201.46 75.2 Z" stroke="#781c6d" stroke-width="0" fill="#781c6d" /><path d="M 206.38 89.38 L 201.46 92.22 L 196.55 89.38 L 196.55 83.71000000000001 L 201.46 80.87 L 206.38 83.71000000000001 Z" stroke="#fcffa4" stroke-width="0" fill="#fcffa4" /><path d="M 211.29 97.89 L 206.38 100.72 L 201.46 97.89 L 201.46 92.22 L 206.38 89.38 L 211.29 92.22 Z" stroke="#781c6d" stroke-width="0" fill="#781c6d" /><path d="M 216.20000000000002 106.4 L 211.29 109.23 L 206.38 106.4 L 206.38 100.72 L 211.29 97.89 L 216.20000000000002 100.72 Z" stroke="#781c6d" stroke-width="0" fill="#781c6d" /><path d="M 221.11 114.91 L 216.20000000000002 117.74000000000001 L 211.29 114.91 L 211.29 109.23 L 216.20000000000002 106.4 L 221.11 109.23 Z" stroke="#000004" stroke-width="0" fill="#000004" /><path d="M 235.85 140.43 L 230.94 143.27 L 226.03 140.43 L 226.03 134.76 L 230.94 131.92000000000002 L 235.85 134.76 Z" stroke="#781c6d" stroke-width="0" fill="#781c6d" /><path d="M 240.76 148.94 L 235.85 151.78 L 230.94 148.94 L 230.94 143.27 L 235.85 140.43 L 240.76 143.27 Z" stroke="#000004" stroke-width="0" fill="#000004" /><path d="M 196.55 55.34 L 191.64000000000001 58.18 L 186.73 55.34 L 186.73 49.67 L 191.64000000000001 46.84 L 196.55 49.67 Z" stroke="#000004" stroke-width="0" fill="#000004" /><path d="M 201.46 63.85 L 196.55 66.69 L 191.64000000000001 63.85 L 191.64000000000001 58.18 L 196.55 55.34 L 201.46 58.18 Z" stroke="#781c6d" stroke-width="0" fill="#781c6d" /><path d="M 206.38 72.36 L 201.46 75.2 L 196.55 72.36 L 196.55 66.69 L 201.46 63.85 L 206.38 66.69 Z" stroke="#781c6d" stroke-width="0" fill="#781c6d" /><path d="M 216.20000000000002 89.38 L 211.29 92.22 L 206.38 89.38 L 206.38 83.71000000000001 L 211.29 80.87 L 216.20000000000002 83.71000000000001 Z" stroke="#000004" stroke-width="0" fill="#000004" /><path d="M 226.02 106.4 L 221.11 109.23 L 216.20000000000002 106.4 L 216.20000000000002 100.72 L 221.11 97.89 L 226.02 100.72 Z" stroke="#ed6825" stroke-width="0" fill="#ed6825" /><path d="M 230.94 114.91 L 226.02 117.74000000000001 L 221.11 114.91 L 221.11 109.23 L 226.02 106.4 L 230.94 109.23 Z" stroke="#781c6d" stroke-width="0" fill="#781c6d" /><path d="M 235.85 123.41 L 230.94 126.25 L 226.03 123.41 L 226.03 117.74000000000001 L 230.94 114.91 L 235.85 117.74000000000001 Z" stroke="#781c6d" stroke-width="0" fill="#781c6d" /><path d="M 240.76 131.92000000000002 L 235.85 134.76 L 230.94 131.92000000000002 L 230.94 126.25 L 235.85 123.41 L 240.76 126.25 Z" stroke="#000004" stroke-width="0" fill="#000004" /><path d="M 250.59 148.94 L 245.68 151.78 L 240.76 148.94 L 240.76 143.27 L 245.68 140.43 L 250.59 143.27 Z" stroke="#781c6d" stroke-width="0" fill="#781c6d" /><path d="M 206.38 55.34 L 201.46 58.18 L 196.55 55.34 L 196.55 49.67 L 201.46 46.84 L 206.38 49.67 Z" stroke="#781c6d" stroke-width="0" fill="#781c6d" /><path d="M 221.11 80.87 L 216.20000000000002 83.71000000000001 L 211.29 80.87 L 211.29 75.2 L 216.20000000000002 72.36 L 221.11 75.2 Z" stroke="#000004" stroke-width="0" fill="#000004" /><path d="M 226.03 89.38 L 221.11 92.22 L 216.20000000000002 89.38 L 216.20000000000002 83.71000000000001 L 221.11 80.87 L 226.03 83.71000000000001 Z" stroke="#781c6d" stroke-width="0" fill="#781c6d" /><path d="M 230.94 97.89 L 226.03 100.72 L 221.11 97.89 L 221.11 92.22 L 226.03 89.38 L 230.94 92.22 Z" stroke="#000004" stroke-width="0" fill="#000004" /><path d="M 235.85 106.4 L 230.94 109.23 L 226.03 106.4 L 226.03 100.72 L 230.94 97.89 L 235.85 100.72 Z" stroke="#ed6825" stroke-width="0" fill="#ed6825" /><path d="M 240.76 114.91 L 235.85 117.74000000000001 L 230.94 114.91 L 230.94 109.23 L 235.85 106.4 L 240.76 109.23 Z" stroke="#781c6d" stroke-width="0" fill="#781c6d" /><path d="M 250.59 131.92000000000002 L 245.68 134.76 L 240.76 131.92000000000002 L 240.76 126.25 L 245.68 123.41 L 250.59 126.25 Z" stroke="#000004" stroke-width="0" fill="#000004" /><path d="M 255.5 140.43 L 250.59 143.27 L 245.68 140.43 L 245.68 134.76 L 250.59 131.92000000000002 L 255.5 134.76 Z" stroke="#000004" stroke-width="0" fill="#000004" /><path d="M 304.63 225.52 L 299.71 228.36 L 294.8 225.52 L 294.8 219.85 L 299.71 217.01 L 304.63 219.85 Z" stroke="#000004" stroke-width="0" fill="#000004" /><path d="M 211.29 46.84 L 206.38 49.67 L 201.46 46.84 L 201.46 41.160000000000004 L 206.38 38.33 L 211.29 41.160000000000004 Z" stroke="#000004" stroke-width="0" fill="#000004" /><path d="M 216.20000000000002 55.34 L 211.29 58.18 L 206.38 55.34 L 206.38 49.67 L 211.29 46.84 L 216.20000000000002 49.67 Z" stroke="#fcffa4" stroke-width="0" fill="#fcffa4" /><path d="M 221.11 63.85 L 216.20000000000002 66.69 L 211.29 63.85 L 211.29 58.18 L 216.20000000000002 55.34 L 221.11 58.18 Z" stroke="#781c6d" stroke-width="0" fill="#781c6d" /><path d="M 226.02 72.36 L 221.11 75.2 L 216.20000000000002 72.36 L 216.20000000000002 66.69 L 221.11 63.85 L 226.02 66.69 Z" stroke="#781c6d" stroke-width="0" fill="#781c6d" /><path d="M 230.94 80.87 L 226.02 83.71000000000001 L 221.11 80.87 L 221.11 75.2 L 226.02 72.36 L 230.94 75.2 Z" stroke="#781c6d" stroke-width="0" fill="#781c6d" /><path d="M 235.85 89.38 L 230.94 92.22 L 226.03 89.38 L 226.03 83.71000000000001 L 230.94 80.87 L 235.85 83.71000000000001 Z" stroke="#000004" stroke-width="0" fill="#000004" /><path d="M 240.76 97.89 L 235.85 100.72 L 230.94 97.89 L 230.94 92.22 L 235.85 89.38 L 240.76 92.22 Z" stroke="#781c6d" stroke-width="0" fill="#781c6d" /><path d="M 245.68 106.4 L 240.76 109.23 L 235.85 106.4 L 235.85 100.72 L 240.76 97.89 L 245.68 100.72 Z" stroke="#781c6d" stroke-width="0" fill="#781c6d" /><path d="M 255.5 123.41 L 250.59 126.25 L 245.68 123.41 L 245.68 117.74000000000001 L 250.59 114.91 L 255.5 117.74000000000001 Z" stroke="#781c6d" stroke-width="0" fill="#781c6d" /><path d="M 304.63 208.5 L 299.71 211.34 L 294.8 208.5 L 294.8 202.83 L 299.71 199.99 L 304.63 202.83 Z" stroke="#000004" stroke-width="0" fill="#000004" /><path d="M 309.54 217.01 L 304.63 219.85 L 299.71 217.01 L 299.71 211.34 L 304.63 208.5 L 309.54 211.34 Z" stroke="#000004" stroke-width="0" fill="#000004" /><path d="M 226.02 55.34 L 221.11 58.18 L 216.20000000000002 55.34 L 216.20000000000002 49.67 L 221.11 46.84 L 226.02 49.67 Z" stroke="#000004" stroke-width="0" fill="#000004" /><path d="M 230.94 63.85 L 226.03 66.69 L 221.11 63.85 L 221.11 58.18 L 226.03 55.34 L 230.94 58.18 Z" stroke="#ed6825" stroke-width="0" fill="#ed6825" /><path d="M 235.85 72.36 L 230.94 75.2 L 226.03 72.36 L 226.03 66.69 L 230.94 63.85 L 235.85 66.69 Z" stroke="#781c6d" stroke-width="0" fill="#781c6d" /><path d="M 240.76 80.87 L 235.85 83.71000000000001 L 230.94 80.87 L 230.94 75.2 L 235.85 72.36 L 240.76 75.2 Z" stroke="#781c6d" stroke-width="0" fill="#781c6d" /><path d="M 245.68 89.38 L 240.76 92.22 L 235.85 89.38 L 235.85 83.71000000000001 L 240.76 80.87 L 245.68 83.71000000000001 Z" stroke="#fcffa4" stroke-width="0" fill="#fcffa4" /><path d="M 250.59 97.89 L 245.68 100.72 L 240.76 97.89 L 240.76 92.22 L 245.68 89.38 L 250.59 92.22 Z" stroke="#000004" stroke-width="0" fill="#000004" /><path d="M 255.5 106.4 L 250.59 109.23 L 245.68 106.4 L 245.68 100.72 L 250.59 97.89 L 255.5 100.72 Z" stroke="#781c6d" stroke-width="0" fill="#781c6d" /><path d="M 260.41 114.91 L 255.5 117.74000000000001 L 250.59 114.91 L 250.59 109.23 L 255.5 106.4 L 260.41 109.23 Z" stroke="#000004" stroke-width="0" fill="#000004" /><path d="M 265.33 123.41 L 260.41 126.25 L 255.5 123.41 L 255.5 117.74000000000001 L 260.41 114.91 L 265.33 117.74000000000001 Z" stroke="#000004" stroke-width="0" fill="#000004" /><path d="M 270.24 131.92000000000002 L 265.33 134.76 L 260.41 131.92000000000002 L 260.41 126.25 L 265.33 123.41 L 270.24 126.25 Z" stroke="#000004" stroke-width="0" fill="#000004" /><path d="M 309.54 199.99 L 304.63 202.83 L 299.71 199.99 L 299.71 194.32 L 304.63 191.48000000000002 L 309.54 194.32 Z" stroke="#781c6d" stroke-width="0" fill="#781c6d" /><path d="M 314.45 208.5 L 309.54 211.34 L 304.63 208.5 L 304.63 202.83 L 309.54 199.99 L 314.45 202.83 Z" stroke="#000004" stroke-width="0" fill="#000004" /><path d="M 319.36 217.01 L 314.45 219.85 L 309.54 217.01 L 309.54 211.34 L 314.45 208.5 L 319.36 211.34 Z" stroke="#ed6825" stroke-width="0" fill="#ed6825" /><path d="M 324.28000000000003 225.52 L 319.36 228.36 L 314.45 225.52 L 314.45 219.85 L 319.36 217.01 L 324.28000000000003 219.85 Z" stroke="#000004" stroke-width="0" fill="#000004" /><path d="M 334.1 242.54 L 329.19 245.37 L 324.27 242.54 L 324.27 236.86 L 329.19 234.03 L 334.1 236.86 Z" stroke="#000004" stroke-width="0" fill="#000004" /><path d="M 230.94 46.84 L 226.03 49.67 L 221.11 46.84 L 221.11 41.160000000000004 L 226.03 38.33 L 230.94 41.160000000000004 Z" stroke="#781c6d" stroke-width="0" fill="#781c6d" /><path d="M 235.85 55.34 L 230.94 58.18 L 226.03 55.34 L 226.03 49.67 L 230.94 46.84 L 235.85 49.67 Z" stroke="#000004" stroke-width="0" fill="#000004" /><path d="M 245.68 72.36 L 240.76 75.2 L 235.85 72.36 L 235.85 66.69 L 240.76 63.85 L 245.68 66.69 Z" stroke="#000004" stroke-width="0" fill="#000004" /><path d="M 255.5 89.38 L 250.59 92.22 L 245.68 89.38 L 245.68 83.71000000000001 L 250.59 80.87 L 255.5 83.71000000000001 Z" stroke="#781c6d" stroke-width="0" fill="#781c6d" /><path d="M 265.33 106.4 L 260.41 109.23 L 255.5 106.4 L 255.5 100.72 L 260.41 97.89 L 265.33 100.72 Z" stroke="#000004" stroke-width="0" fill="#000004" /><path d="M 270.24 114.91 L 265.33 117.74000000000001 L 260.41 114.91 L 260.41 109.23 L 265.33 106.4 L 270.24 109.23 Z" stroke="#000004" stroke-width="0" fill="#000004" /><path d="M 304.63 174.47 L 299.71 177.3 L 294.8 174.47 L 294.8 168.79 L 299.71 165.96 L 304.63 168.79 Z" stroke="#000004" stroke-width="0" fill="#000004" /><path d="M 319.36 199.99 L 314.45 202.83 L 309.54 199.99 L 309.54 194.32 L 314.45 191.48000000000002 L 319.36 194.32 Z" stroke="#000004" stroke-width="0" fill="#000004" /><path d="M 324.28000000000003 208.5 L 319.36 211.34 L 314.45 208.5 L 314.45 202.83 L 319.36 199.99 L 324.28000000000003 202.83 Z" stroke="#000004" stroke-width="0" fill="#000004" /><path d="M 329.19 217.01 L 324.28000000000003 219.85 L 319.36 217.01 L 319.36 211.34 L 324.28000000000003 208.5 L 329.19 211.34 Z" stroke="#000004" stroke-width="0" fill="#000004" /><path d="M 334.1 225.52 L 329.19 228.36 L 324.27 225.52 L 324.27 219.85 L 329.19 217.01 L 334.1 219.85 Z" stroke="#000004" stroke-width="0" fill="#000004" /><path d="M 348.84000000000003 251.05 L 343.93 253.88 L 339.01 251.05 L 339.01 245.37 L 343.93 242.54 L 348.84000000000003 245.37 Z" stroke="#000004" stroke-width="0" fill="#000004" /><path d="M 240.76 46.84 L 235.85 49.67 L 230.94 46.84 L 230.94 41.160000000000004 L 235.85 38.33 L 240.76 41.160000000000004 Z" stroke="#000004" stroke-width="0" fill="#000004" /><path d="M 250.59 63.85 L 245.68 66.69 L 240.76 63.85 L 240.76 58.18 L 245.68 55.34 L 250.59 58.18 Z" stroke="#781c6d" stroke-width="0" fill="#781c6d" /><path d="M 260.41 80.87 L 255.5 83.71000000000001 L 250.59 80.87 L 250.59 75.2 L 255.5 72.36 L 260.41 75.2 Z" stroke="#000004" stroke-width="0" fill="#000004" /><path d="M 265.33 89.38 L 260.41 92.22 L 255.5 89.38 L 255.5 83.71000000000001 L 260.41 80.87 L 265.33 83.71000000000001 Z" stroke="#781c6d" stroke-width="0" fill="#781c6d" /><path d="M 275.15000000000003 106.4 L 270.24 109.23 L 265.32 106.4 L 265.32 100.72 L 270.24 97.89 L 275.15000000000003 100.72 Z" stroke="#781c6d" stroke-width="0" fill="#781c6d" /><path d="M 280.06 114.91 L 275.15000000000003 117.74000000000001 L 270.24 114.91 L 270.24 109.23 L 275.15000000000003 106.4 L 280.06 109.23 Z" stroke="#781c6d" stroke-width="0" fill="#781c6d" /><path d="M 284.98 123.41 L 280.06 126.25 L 275.15000000000003 123.41 L 275.15000000000003 117.74000000000001 L 280.06 114.91 L 284.98 117.74000000000001 Z" stroke="#781c6d" stroke-width="0" fill="#781c6d" /><path d="M 309.54 165.96 L 304.63 168.79 L 299.71 165.96 L 299.71 160.29 L 304.63 157.45000000000002 L 309.54 160.29 Z" stroke="#000004" stroke-width="0" fill="#000004" /><path d="M 329.19 199.99 L 324.27 202.83 L 319.36 199.99 L 319.36 194.32 L 324.27 191.48000000000002 L 329.19 194.32 Z" stroke="#000004" stroke-width="0" fill="#000004" /><path d="M 334.1 208.5 L 329.19 211.34 L 324.27 208.5 L 324.27 202.83 L 329.19 199.99 L 334.1 202.83 Z" stroke="#781c6d" stroke-width="0" fill="#781c6d" /><path d="M 339.01 217.01 L 334.1 219.85 L 329.19 217.01 L 329.19 211.34 L 334.1 208.5 L 339.01 211.34 Z" stroke="#000004" stroke-width="0" fill="#000004" /><path d="M 353.75 242.54 L 348.84000000000003 245.37 L 343.92 242.54 L 343.92 236.86 L 348.84000000000003 234.03 L 353.75 236.86 Z" stroke="#000004" stroke-width="0" fill="#000004" /><path d="M 255.5 55.34 L 250.59 58.18 L 245.68 55.34 L 245.68 49.67 L 250.59 46.84 L 255.5 49.67 Z" stroke="#000004" stroke-width="0" fill="#000004" /><path d="M 260.41 63.85 L 255.5 66.69 L 250.59 63.85 L 250.59 58.18 L 255.5 55.34 L 260.41 58.18 Z" stroke="#000004" stroke-width="0" fill="#000004" /><path d="M 265.33 72.36 L 260.41 75.2 L 255.5 72.36 L 255.5 66.69 L 260.41 63.85 L 265.33 66.69 Z" stroke="#000004" stroke-width="0" fill="#000004" /><path d="M 270.24 80.87 L 265.33 83.71000000000001 L 260.41 80.87 L 260.41 75.2 L 265.33 72.36 L 270.24 75.2 Z" stroke="#000004" stroke-width="0" fill="#000004" /><path d="M 280.06 97.89 L 275.15000000000003 100.72 L 270.24 97.89 L 270.24 92.22 L 275.15000000000003 89.38 L 280.06 92.22 Z" stroke="#000004" stroke-width="0" fill="#000004" /><path d="M 284.98 106.4 L 280.06 109.23 L 275.15000000000003 106.4 L 275.15000000000003 100.72 L 280.06 97.89 L 284.98 100.72 Z" stroke="#781c6d" stroke-width="0" fill="#781c6d" /><path d="M 289.89 114.91 L 284.98 117.74000000000001 L 280.06 114.91 L 280.06 109.23 L 284.98 106.4 L 289.89 109.23 Z" stroke="#000004" stroke-width="0" fill="#000004" /><path d="M 314.45 157.45000000000002 L 309.54 160.29 L 304.63 157.45000000000002 L 304.63 151.78 L 309.54 148.94 L 314.45 151.78 Z" stroke="#000004" stroke-width="0" fill="#000004" /><path d="M 339.01 199.99 L 334.1 202.83 L 329.19 199.99 L 329.19 194.32 L 334.1 191.48000000000002 L 339.01 194.32 Z" stroke="#000004" stroke-width="0" fill="#000004" /><path d="M 358.66 234.03 L 353.75 236.86 L 348.84000000000003 234.03 L 348.84000000000003 228.36 L 353.75 225.52 L 358.66 228.36 Z" stroke="#000004" stroke-width="0" fill="#000004" /><path d="M 363.58 242.54 L 358.66 245.37 L 353.75 242.54 L 353.75 236.86 L 358.66 234.03 L 363.58 236.86 Z" stroke="#000004" stroke-width="0" fill="#000004" /><path d="M 260.41 46.84 L 255.5 49.67 L 250.59 46.84 L 250.59 41.160000000000004 L 255.5 38.33 L 260.41 41.160000000000004 Z" stroke="#000004" stroke-width="0" fill="#000004" /><path d="M 265.33 55.34 L 260.41 58.18 L 255.5 55.34 L 255.5 49.67 L 260.41 46.84 L 265.33 49.67 Z" stroke="#000004" stroke-width="0" fill="#000004" /><path d="M 270.24 63.85 L 265.32 66.69 L 260.41 63.85 L 260.41 58.18 L 265.32 55.34 L 270.24 58.18 Z" stroke="#781c6d" stroke-width="0" fill="#781c6d" /><path d="M 275.15000000000003 72.36 L 270.24 75.2 L 265.32 72.36 L 265.32 66.69 L 270.24 63.85 L 275.15000000000003 66.69 Z" stroke="#000004" stroke-width="0" fill="#000004" /><path d="M 280.06 80.87 L 275.15000000000003 83.71000000000001 L 270.24 80.87 L 270.24 75.2 L 275.15000000000003 72.36 L 280.06 75.2 Z" stroke="#000004" stroke-width="0" fill="#000004" /><path d="M 284.98 89.38 L 280.06 92.22 L 275.15000000000003 89.38 L 275.15000000000003 83.71000000000001 L 280.06 80.87 L 284.98 83.71000000000001 Z" stroke="#781c6d" stroke-width="0" fill="#781c6d" /><path d="M 294.8 106.4 L 289.89 109.23 L 284.97 106.4 L 284.97 100.72 L 289.89 97.89 L 294.8 100.72 Z" stroke="#ed6825" stroke-width="0" fill="#ed6825" /><path d="M 299.71 114.91 L 294.8 117.74000000000001 L 289.89 114.91 L 289.89 109.23 L 294.8 106.4 L 299.71 109.23 Z" stroke="#000004" stroke-width="0" fill="#000004" /><path d="M 324.27 157.45000000000002 L 319.36 160.29 L 314.45 157.45000000000002 L 314.45 151.78 L 319.36 148.94 L 324.27 151.78 Z" stroke="#000004" stroke-width="0" fill="#000004" /><path d="M 329.19 165.96 L 324.27 168.79 L 319.36 165.96 L 319.36 160.29 L 324.27 157.45000000000002 L 329.19 160.29 Z" stroke="#000004" stroke-width="0" fill="#000004" /><path d="M 339.01 182.98 L 334.1 185.81 L 329.19 182.98 L 329.19 177.3 L 334.1 174.47 L 339.01 177.3 Z" stroke="#000004" stroke-width="0" fill="#000004" /><path d="M 343.93 191.48000000000002 L 339.01 194.32 L 334.1 191.48000000000002 L 334.1 185.81 L 339.01 182.98 L 343.93 185.81 Z" stroke="#000004" stroke-width="0" fill="#000004" /><path d="M 348.84000000000003 199.99 L 343.93 202.83 L 339.01 199.99 L 339.01 194.32 L 343.93 191.48000000000002 L 348.84000000000003 194.32 Z" stroke="#000004" stroke-width="0" fill="#000004" /><path d="M 353.75 208.5 L 348.84000000000003 211.34 L 343.92 208.5 L 343.92 202.83 L 348.84000000000003 199.99 L 353.75 202.83 Z" stroke="#000004" stroke-width="0" fill="#000004" /><path d="M 358.66 217.01 L 353.75 219.85 L 348.84000000000003 217.01 L 348.84000000000003 211.34 L 353.75 208.5 L 358.66 211.34 Z" stroke="#781c6d" stroke-width="0" fill="#781c6d" /><path d="M 363.58 225.52 L 358.66 228.36 L 353.75 225.52 L 353.75 219.85 L 358.66 217.01 L 363.58 219.85 Z" stroke="#781c6d" stroke-width="0" fill="#781c6d" /><path d="M 368.49 234.03 L 363.58 236.86 L 358.66 234.03 L 358.66 228.36 L 363.58 225.52 L 368.49 228.36 Z" stroke="#000004" stroke-width="0" fill="#000004" /><path d="M 373.40000000000003 242.54 L 368.49 245.37 L 363.57 242.54 L 363.57 236.86 L 368.49 234.03 L 373.40000000000003 236.86 Z" stroke="#000004" stroke-width="0" fill="#000004" /><path d="M 275.15000000000003 55.34 L 270.24 58.18 L 265.33 55.34 L 265.33 49.67 L 270.24 46.84 L 275.15000000000003 49.67 Z" stroke="#000004" stroke-width="0" fill="#000004" /><path d="M 280.06 63.85 L 275.15000000000003 66.69 L 270.24 63.85 L 270.24 58.18 L 275.15000000000003 55.34 L 280.06 58.18 Z" stroke="#000004" stroke-width="0" fill="#000004" /><path d="M 289.89 80.87 L 284.98 83.71000000000001 L 280.06 80.87 L 280.06 75.2 L 284.98 72.36 L 289.89 75.2 Z" stroke="#000004" stroke-width="0" fill="#000004" /><path d="M 294.8 89.38 L 289.89 92.22 L 284.97 89.38 L 284.97 83.71000000000001 L 289.89 80.87 L 294.8 83.71000000000001 Z" stroke="#000004" stroke-width="0" fill="#000004" /><path d="M 299.71 97.89 L 294.8 100.72 L 289.89 97.89 L 289.89 92.22 L 294.8 89.38 L 299.71 92.22 Z" stroke="#000004" stroke-width="0" fill="#000004" /><path d="M 339.01 165.96 L 334.1 168.79 L 329.19 165.96 L 329.19 160.29 L 334.1 157.45000000000002 L 339.01 160.29 Z" stroke="#000004" stroke-width="0" fill="#000004" /><path d="M 348.84000000000003 182.98 L 343.93 185.81 L 339.01 182.98 L 339.01 177.3 L 343.93 174.47 L 348.84000000000003 177.3 Z" stroke="#000004" stroke-width="0" fill="#000004" /><path d="M 363.58 208.5 L 358.66 211.34 L 353.75 208.5 L 353.75 202.83 L 358.66 199.99 L 363.58 202.83 Z" stroke="#781c6d" stroke-width="0" fill="#781c6d" /><path d="M 368.49 217.01 L 363.58 219.85 L 358.66 217.01 L 358.66 211.34 L 363.58 208.5 L 368.49 211.34 Z" stroke="#000004" stroke-width="0" fill="#000004" /><path d="M 373.40000000000003 225.52 L 368.49 228.36 L 363.58 225.52 L 363.58 219.85 L 368.49 217.01 L 373.40000000000003 219.85 Z" stroke="#781c6d" stroke-width="0" fill="#781c6d" /><path d="M 378.31 234.03 L 373.40000000000003 236.86 L 368.49 234.03 L 368.49 228.36 L 373.40000000000003 225.52 L 378.31 228.36 Z" stroke="#000004" stroke-width="0" fill="#000004" /><path d="M 388.14 251.05 L 383.23 253.88 L 378.31 251.05 L 378.31 245.37 L 383.23 242.54 L 388.14 245.37 Z" stroke="#781c6d" stroke-width="0" fill="#781c6d" /><path d="M 289.89 63.85 L 284.98 66.69 L 280.06 63.85 L 280.06 58.18 L 284.98 55.34 L 289.89 58.18 Z" stroke="#000004" stroke-width="0" fill="#000004" /><path d="M 294.8 72.36 L 289.89 75.2 L 284.97 72.36 L 284.97 66.69 L 289.89 63.85 L 294.8 66.69 Z" stroke="#000004" stroke-width="0" fill="#000004" /><path d="M 348.84000000000003 165.96 L 343.93 168.79 L 339.01 165.96 L 339.01 160.29 L 343.93 157.45000000000002 L 348.84000000000003 160.29 Z" stroke="#781c6d" stroke-width="0" fill="#781c6d" /><path d="M 358.66 182.98 L 353.75 185.81 L 348.84000000000003 182.98 L 348.84000000000003 177.3 L 353.75 174.47 L 358.66 177.3 Z" stroke="#781c6d" stroke-width="0" fill="#781c6d" /><path d="M 363.58 191.48000000000002 L 358.66 194.32 L 353.75 191.48000000000002 L 353.75 185.81 L 358.66 182.98 L 363.58 185.81 Z" stroke="#781c6d" stroke-width="0" fill="#781c6d" /><path d="M 368.49 199.99 L 363.58 202.83 L 358.66 199.99 L 358.66 194.32 L 363.58 191.48000000000002 L 368.49 194.32 Z" stroke="#000004" stroke-width="0" fill="#000004" /><path d="M 373.40000000000003 208.5 L 368.49 211.34 L 363.58 208.5 L 363.58 202.83 L 368.49 199.99 L 373.40000000000003 202.83 Z" stroke="#781c6d" stroke-width="0" fill="#781c6d" /><path d="M 378.31 217.01 L 373.40000000000003 219.85 L 368.49 217.01 L 368.49 211.34 L 373.40000000000003 208.5 L 378.31 211.34 Z" stroke="#000004" stroke-width="0" fill="#000004" /><path d="M 393.05 242.54 L 388.14 245.37 L 383.23 242.54 L 383.23 236.86 L 388.14 234.03 L 393.05 236.86 Z" stroke="#781c6d" stroke-width="0" fill="#781c6d" /><path d="M 397.96000000000004 251.05 L 393.05 253.88 L 388.14 251.05 L 388.14 245.37 L 393.05 242.54 L 397.96000000000004 245.37 Z" stroke="#000004" stroke-width="0" fill="#000004" /><path d="M 353.75 157.45000000000002 L 348.84000000000003 160.29 L 343.92 157.45000000000002 L 343.92 151.78 L 348.84000000000003 148.94 L 353.75 151.78 Z" stroke="#781c6d" stroke-width="0" fill="#781c6d" /><path d="M 358.66 165.96 L 353.75 168.79 L 348.84000000000003 165.96 L 348.84000000000003 160.29 L 353.75 157.45000000000002 L 358.66 160.29 Z" stroke="#000004" stroke-width="0" fill="#000004" /><path d="M 363.58 174.47 L 358.66 177.3 L 353.75 174.47 L 353.75 168.79 L 358.66 165.96 L 363.58 168.79 Z" stroke="#781c6d" stroke-width="0" fill="#781c6d" /><path d="M 373.40000000000003 191.48000000000002 L 368.49 194.32 L 363.57 191.48000000000002 L 363.57 185.81 L 368.49 182.98 L 373.40000000000003 185.81 Z" stroke="#000004" stroke-width="0" fill="#000004" /><path d="M 378.31 199.99 L 373.40000000000003 202.83 L 368.49 199.99 L 368.49 194.32 L 373.40000000000003 191.48000000000002 L 378.31 194.32 Z" stroke="#000004" stroke-width="0" fill="#000004" /><path d="M 383.23 208.5 L 378.31 211.34 L 373.40000000000003 208.5 L 373.40000000000003 202.83 L 378.31 199.99 L 383.23 202.83 Z" stroke="#781c6d" stroke-width="0" fill="#781c6d" /><path d="M 388.14 217.01 L 383.23 219.85 L 378.31 217.01 L 378.31 211.34 L 383.23 208.5 L 388.14 211.34 Z" stroke="#781c6d" stroke-width="0" fill="#781c6d" /><path d="M 393.05 225.52 L 388.14 228.36 L 383.23 225.52 L 383.23 219.85 L 388.14 217.01 L 393.05 219.85 Z" stroke="#781c6d" stroke-width="0" fill="#781c6d" /><path d="M 397.96000000000004 234.03 L 393.05 236.86 L 388.14 234.03 L 388.14 228.36 L 393.05 225.52 L 397.96000000000004 228.36 Z" stroke="#000004" stroke-width="0" fill="#000004" /><path d="M 407.79 251.05 L 402.88 253.88 L 397.96000000000004 251.05 L 397.96000000000004 245.37 L 402.88 242.54 L 407.79 245.37 Z" stroke="#000004" stroke-width="0" fill="#000004" /><path d="M 363.58 157.45000000000002 L 358.66 160.29 L 353.75 157.45000000000002 L 353.75 151.78 L 358.66 148.94 L 363.58 151.78 Z" stroke="#000004" stroke-width="0" fill="#000004" /><path d="M 373.40000000000003 174.47 L 368.49 177.3 L 363.58 174.47 L 363.58 168.79 L 368.49 165.96 L 373.40000000000003 168.79 Z" stroke="#000004" stroke-width="0" fill="#000004" /><path d="M 383.23 191.48000000000002 L 378.31 194.32 L 373.40000000000003 191.48000000000002 L 373.40000000000003 185.81 L 378.31 182.98 L 383.23 185.81 Z" stroke="#000004" stroke-width="0" fill="#000004" /><path d="M 388.14 199.99 L 383.23 202.83 L 378.31 199.99 L 378.31 194.32 L 383.23 191.48000000000002 L 388.14 194.32 Z" stroke="#000004" stroke-width="0" fill="#000004" /><path d="M 393.05 208.5 L 388.14 211.34 L 383.23 208.5 L 383.23 202.83 L 388.14 199.99 L 393.05 202.83 Z" stroke="#ed6825" stroke-width="0" fill="#ed6825" /><path d="M 397.96000000000004 217.01 L 393.05 219.85 L 388.14 217.01 L 388.14 211.34 L 393.05 208.5 L 397.96000000000004 211.34 Z" stroke="#781c6d" stroke-width="0" fill="#781c6d" /><path d="M 407.79 234.03 L 402.88 236.86 L 397.96000000000004 234.03 L 397.96000000000004 228.36 L 402.88 225.52 L 407.79 228.36 Z" stroke="#000004" stroke-width="0" fill="#000004" /><path d="M 412.7 242.54 L 407.79 245.37 L 402.88 242.54 L 402.88 236.86 L 407.79 234.03 L 412.7 236.86 Z" stroke="#781c6d" stroke-width="0" fill="#781c6d" /><path d="M 368.49 148.94 L 363.58 151.78 L 358.66 148.94 L 358.66 143.27 L 363.58 140.43 L 368.49 143.27 Z" stroke="#000004" stroke-width="0" fill="#000004" /><path d="M 373.40000000000003 157.45000000000002 L 368.49 160.29 L 363.58 157.45000000000002 L 363.58 151.78 L 368.49 148.94 L 373.40000000000003 151.78 Z" stroke="#fcffa4" stroke-width="0" fill="#fcffa4" /><path d="M 378.31 165.96 L 373.40000000000003 168.79 L 368.49 165.96 L 368.49 160.29 L 373.40000000000003 157.45000000000002 L 378.31 160.29 Z" stroke="#000004" stroke-width="0" fill="#000004" /><path d="M 383.23 174.47 L 378.31 177.3 L 373.40000000000003 174.47 L 373.40000000000003 168.79 L 378.31 165.96 L 383.23 168.79 Z" stroke="#781c6d" stroke-width="0" fill="#781c6d" /><path d="M 388.14 182.98 L 383.23 185.81 L 378.31 182.98 L 378.31 177.3 L 383.23 174.47 L 388.14 177.3 Z" stroke="#781c6d" stroke-width="0" fill="#781c6d" /><path d="M 393.05 191.48000000000002 L 388.14 194.32 L 383.23 191.48000000000002 L 383.23 185.81 L 388.14 182.98 L 393.05 185.81 Z" stroke="#000004" stroke-width="0" fill="#000004" /><path d="M 397.96000000000004 199.99 L 393.05 202.83 L 388.14 199.99 L 388.14 194.32 L 393.05 191.48000000000002 L 397.96000000000004 194.32 Z" stroke="#781c6d" stroke-width="0" fill="#781c6d" /><path d="M 402.88 208.5 L 397.96000000000004 211.34 L 393.05 208.5 L 393.05 202.83 L 397.96000000000004 199.99 L 402.88 202.83 Z" stroke="#781c6d" stroke-width="0" fill="#781c6d" /><path d="M 412.7 225.52 L 407.79 228.36 L 402.88 225.52 L 402.88 219.85 L 407.79 217.01 L 412.7 219.85 Z" stroke="#781c6d" stroke-width="0" fill="#781c6d" /><path d="M 383.23 157.45000000000002 L 378.31 160.29 L 373.40000000000003 157.45000000000002 L 373.40000000000003 151.78 L 378.31 148.94 L 383.23 151.78 Z" stroke="#000004" stroke-width="0" fill="#000004" /><path d="M 388.14 165.96 L 383.23 168.79 L 378.31 165.96 L 378.31 160.29 L 383.23 157.45000000000002 L 388.14 160.29 Z" stroke="#ed6825" stroke-width="0" fill="#ed6825" /><path d="M 393.05 174.47 L 388.14 177.3 L 383.23 174.47 L 383.23 168.79 L 388.14 165.96 L 393.05 168.79 Z" stroke="#781c6d" stroke-width="0" fill="#781c6d" /><path d="M 402.88 191.48000000000002 L 397.96000000000004 194.32 L 393.05 191.48000000000002 L 393.05 185.81 L 397.96000000000004 182.98 L 402.88 185.81 Z" stroke="#781c6d" stroke-width="0" fill="#781c6d" /><path d="M 407.79 199.99 L 402.88 202.83 L 397.96000000000004 199.99 L 397.96000000000004 194.32 L 402.88 191.48000000000002 L 407.79 194.32 Z" stroke="#000004" stroke-width="0" fill="#000004" /><path d="M 412.7 208.5 L 407.79 211.34 L 402.87 208.5 L 402.87 202.83 L 407.79 199.99 L 412.7 202.83 Z" stroke="#781c6d" stroke-width="0" fill="#781c6d" /><path d="M 417.61 217.01 L 412.7 219.85 L 407.79 217.01 L 407.79 211.34 L 412.7 208.5 L 417.61 211.34 Z" stroke="#000004" stroke-width="0" fill="#000004" /><path d="M 412.7 191.48000000000002 L 407.79 194.32 L 402.87 191.48000000000002 L 402.87 185.81 L 407.79 182.98 L 412.7 185.81 Z" stroke="#781c6d" stroke-width="0" fill="#781c6d" /><path d="M 422.53000000000003 208.5 L 417.61 211.34 L 412.7 208.5 L 412.7 202.83 L 417.61 199.99 L 422.53000000000003 202.83 Z" stroke="#000004" stroke-width="0" fill="#000004" /><path d="M 427.44 217.01 L 422.53000000000003 219.85 L 417.61 217.01 L 417.61 211.34 L 422.53000000000003 208.5 L 427.44 211.34 Z" stroke="#781c6d" stroke-width="0" fill="#781c6d" /><path d="M 432.35 225.52 L 427.44 228.36 L 422.53000000000003 225.52 L 422.53000000000003 219.85 L 427.44 217.01 L 432.35 219.85 Z" stroke="#000004" stroke-width="0" fill="#000004" /><path d="M 397.96000000000004 148.94 L 393.05 151.78 L 388.14 148.94 L 388.14 143.27 L 393.05 140.43 L 397.96000000000004 143.27 Z" stroke="#000004" stroke-width="0" fill="#000004" /><path d="M 407.79 165.96 L 402.88 168.79 L 397.96000000000004 165.96 L 397.96000000000004 160.29 L 402.88 157.45000000000002 L 407.79 160.29 Z" stroke="#000004" stroke-width="0" fill="#000004" /><path d="M 417.61 182.98 L 412.7 185.81 L 407.79 182.98 L 407.79 177.3 L 412.7 174.47 L 417.61 177.3 Z" stroke="#000004" stroke-width="0" fill="#000004" /><path d="M 422.53000000000003 191.48000000000002 L 417.61 194.32 L 412.7 191.48000000000002 L 412.7 185.81 L 417.61 182.98 L 422.53000000000003 185.81 Z" stroke="#000004" stroke-width="0" fill="#000004" /><path d="M 432.35 208.5 L 427.44 211.34 L 422.53000000000003 208.5 L 422.53000000000003 202.83 L 427.44 199.99 L 432.35 202.83 Z" stroke="#781c6d" stroke-width="0" fill="#781c6d" /><path d="M 437.26 217.01 L 432.35 219.85 L 427.44 217.01 L 427.44 211.34 L 432.35 208.5 L 437.26 211.34 Z" stroke="#781c6d" stroke-width="0" fill="#781c6d" /><path d="M 442.18 225.52 L 437.26 228.36 L 432.35 225.52 L 432.35 219.85 L 437.26 217.01 L 442.18 219.85 Z" stroke="#781c6d" stroke-width="0" fill="#781c6d" /><path d="M 412.7 157.45000000000002 L 407.79 160.29 L 402.87 157.45000000000002 L 402.87 151.78 L 407.79 148.94 L 412.7 151.78 Z" stroke="#781c6d" stroke-width="0" fill="#781c6d" /><path d="M 417.61 165.96 L 412.7 168.79 L 407.79 165.96 L 407.79 160.29 L 412.7 157.45000000000002 L 417.61 160.29 Z" stroke="#000004" stroke-width="0" fill="#000004" /><path d="M 422.53000000000003 174.47 L 417.61 177.3 L 412.7 174.47 L 412.7 168.79 L 417.61 165.96 L 422.53000000000003 168.79 Z" stroke="#000004" stroke-width="0" fill="#000004" /><path d="M 427.44 182.98 L 422.53000000000003 185.81 L 417.61 182.98 L 417.61 177.3 L 422.53000000000003 174.47 L 427.44 177.3 Z" stroke="#000004" stroke-width="0" fill="#000004" /><path d="M 437.26 199.99 L 432.35 202.83 L 427.44 199.99 L 427.44 194.32 L 432.35 191.48000000000002 L 437.26 194.32 Z" stroke="#781c6d" stroke-width="0" fill="#781c6d" /><path d="M 442.18 208.5 L 437.26 211.34 L 432.35 208.5 L 432.35 202.83 L 437.26 199.99 L 442.18 202.83 Z" stroke="#000004" stroke-width="0" fill="#000004" /><path d="M 447.09000000000003 217.01 L 442.18 219.85 L 437.26 217.01 L 437.26 211.34 L 442.18 208.5 L 447.09000000000003 211.34 Z" stroke="#000004" stroke-width="0" fill="#000004" /><path d="M 417.61 148.94 L 412.7 151.78 L 407.79 148.94 L 407.79 143.27 L 412.7 140.43 L 417.61 143.27 Z" stroke="#000004" stroke-width="0" fill="#000004" /><path d="M 422.53000000000003 157.45000000000002 L 417.61 160.29 L 412.7 157.45000000000002 L 412.7 151.78 L 417.61 148.94 L 422.53000000000003 151.78 Z" stroke="#000004" stroke-width="0" fill="#000004" /><path d="M 427.44 165.96 L 422.53000000000003 168.79 L 417.61 165.96 L 417.61 160.29 L 422.53000000000003 157.45000000000002 L 427.44 160.29 Z" stroke="#781c6d" stroke-width="0" fill="#781c6d" /><path d="M 432.35 174.47 L 427.44 177.3 L 422.52 174.47 L 422.52 168.79 L 427.44 165.96 L 432.35 168.79 Z" stroke="#000004" stroke-width="0" fill="#000004" /><path d="M 437.26 182.98 L 432.35 185.81 L 427.44 182.98 L 427.44 177.3 L 432.35 174.47 L 437.26 177.3 Z" stroke="#000004" stroke-width="0" fill="#000004" /><path d="M 442.18 191.48000000000002 L 437.26 194.32 L 432.35 191.48000000000002 L 432.35 185.81 L 437.26 182.98 L 442.18 185.81 Z" stroke="#000004" stroke-width="0" fill="#000004" /><path d="M 447.09000000000003 199.99 L 442.17 202.83 L 437.26 199.99 L 437.26 194.32 L 442.17 191.48000000000002 L 447.09000000000003 194.32 Z" stroke="#000004" stroke-width="0" fill="#000004" /><path d="M 452 208.5 L 447.09000000000003 211.34 L 442.17 208.5 L 442.17 202.83 L 447.09000000000003 199.99 L 452 202.83 Z" stroke="#781c6d" stroke-width="0" fill="#781c6d" /><path d="M 456.91 217.01 L 452 219.85 L 447.09000000000003 217.01 L 447.09000000000003 211.34 L 452 208.5 L 456.91 211.34 Z" stroke="#000004" stroke-width="0" fill="#000004" /><path d="M 432.35 157.45000000000002 L 427.44 160.29 L 422.53000000000003 157.45000000000002 L 422.53000000000003 151.78 L 427.44 148.94 L 432.35 151.78 Z" stroke="#000004" stroke-width="0" fill="#000004" /><path d="M 437.26 165.96 L 432.35 168.79 L 427.44 165.96 L 427.44 160.29 L 432.35 157.45000000000002 L 437.26 160.29 Z" stroke="#000004" stroke-width="0" fill="#000004" /><path d="M 447.09000000000003 182.98 L 442.18 185.81 L 437.26 182.98 L 437.26 177.3 L 442.18 174.47 L 447.09000000000003 177.3 Z" stroke="#000004" stroke-width="0" fill="#000004" /><path d="M 452 191.48000000000002 L 447.09000000000003 194.32 L 442.17 191.48000000000002 L 442.17 185.81 L 447.09000000000003 182.98 L 452 185.81 Z" stroke="#000004" stroke-width="0" fill="#000004" /><path d="M 456.91 199.99 L 452 202.83 L 447.09000000000003 199.99 L 447.09000000000003 194.32 L 452 191.48000000000002 L 456.91 194.32 Z" stroke="#000004" stroke-width="0" fill="#000004" /><path d="M 447.09000000000003 165.96 L 442.18 168.79 L 437.26 165.96 L 437.26 160.29 L 442.18 157.45000000000002 L 447.09000000000003 160.29 Z" stroke="#000004" stroke-width="0" fill="#000004" /></g><rect x="495" y="74.5" width="20" height="5.38" fill="#fcffa4" /><rect x="495" y="79.38" width="20" height="5.38" fill="#f4f891" /><rect x="495" y="84.26" width="20" height="5.38" fill="#f1f17b" /><rect x="495" y="89.14" width="20" height="5.38" fill="#f1e866" /><rect x="495" y="94.02" width="20" height="5.38" fill="#f3df53" /><rect x="495" y="98.9" width="20" height="5.38" fill="#f6d442" /><rect x="495" y="103.78" width="20" height="5.38" fill="#f8ca34" /><rect x="495" y="108.66" width="20" height="5.38" fill="#fac127" /><rect x="495" y="113.54" width="20" height="5.38" fill="#fbb61b" /><rect x="495" y="118.42" width="20" height="5.38" fill="#fcac11" /><rect x="495" y="123.3" width="20" height="5.38" fill="#fca208" /><rect x="495" y="128.18" width="20" height="5.38" fill="#fb9806" /><rect x="495" y="133.06" width="20" height="5.38" fill="#f98f08" /><rect x="495" y="137.94" width="20" height="5.38" fill="#f7850e" /><rect x="495" y="142.82" width="20" height="5.38" fill="#f57d14" /><rect x="495" y="147.70000000000002" width="20" height="5.38" fill="#f1741c" /><rect x="495" y="152.58" width="20" height="5.38" fill="#ee6b23" /><rect x="495" y="157.46" width="20" height="5.38" fill="#ea6329" /><rect x="495" y="162.34" width="20" height="5.38" fill="#e55c2f" /><rect x="495" y="167.22" width="20" height="5.38" fill="#e05535" /><rect x="495" y="172.1" width="20" height="5.38" fill="#d94e3c" /><rect x="495" y="176.98" width="20" height="5.38" fill="#d34742" /><rect x="495" y="181.86" width="20" height="5.38" fill="#cd4247" /><rect x="495" y="186.74" width="20" height="5.38" fill="#c63d4c" /><rect x="495" y="191.62" width="20" height="5.38" fill="#be3951" /><rect x="495" y="196.5" width="20" height="5.38" fill="#b73457" /><rect x="495" y="201.38" width="20" height="5.38" fill="#af305b" /><rect x="495" y="206.26" width="20" height="5.38" fill="#a62d5f" /><rect x="495" y="211.14000000000001" width="20" height="5.38" fill="#9f2963" /><rect x="495" y="216.02" width="20" height="5.38" fill="#962666" /><rect x="495" y="220.9" width="20" height="5.38" fill="#8e2368" /><rect x="495" y="225.78" width="20" height="5.38" fill="#86216a" /><rect x="495" y="230.66" width="20" height="5.38" fill="#7d1d6c" /><rect x="495" y="235.54" width="20" height="5.38" fill="#751b6d" /><rect x="495" y="240.42000000000002" width="20" height="5.38" fill="#6d186e" /><rect x="495" y="245.3" width="20" height="5.38" fill="#64156e" /><rect x="495" y="250.18" width="20" height="5.38" fill="#5c126d" /><rect x="495" y="255.06" width="20" height="5.38" fill="#540e6d" /><rect x="495" y="259.94" width="20" height="5.38" fill="#4c0c6b" /><rect x="495" y="264.82" width="20" height="5.38" fill="#430a68" /><rect x="495" y="269.7" width="20" height="5.38" fill="#3a0963" /><rect x="495" y="274.58" width="20" height="5.38" fill="#310a5d" /><rect x="495" y="279.46" width="20" height="5.38" fill="#280b53" /><rect x="495" y="284.34000000000003" width="20" height="5.38" fill="#1f0c48" /><rect x="495" y="289.22" width="20" height="5.38" fill="#170b3b" /><rect x="495" y="294.1" width="20" height="5.38" fill="#10092f" /><rect x="495" y="298.98" width="20" height="5.38" fill="#0a0723" /><rect x="495" y="303.86" width="20" height="5.38" fill="#050317" /><rect x="495" y="308.74" width="20" height="5.38" fill="#02010c" /><rect x="495" y="313.62" width="20" height="5.38" fill="#000004" /><rect x="495" y="74.5" width="20" height="244" fill="none" stroke="#000000" stroke-width="1" /><line x1="515" y1="318.5" x2="519" y2="318.5" stroke="#000000" stroke-width="1" /><text x="520" y="322.5" font-size="12" text-anchor="start">1</text><line x1="515" y1="277.83" x2="519" y2="277.83" stroke="#000000" stroke-width="1" /><text x="520" y="281.83" font-size="12" text-anchor="start">1.5</text><line x1="515" y1="237.17000000000002" x2="519" y2="237.17000000000002" stroke="#000000" stroke-width="1" /><text x="520" y="241.17000000000002" font-size="12" text-anchor="start">2</text><line x1="515" y1="196.5" x2="519" y2="196.5" stroke="#000000" stroke-width="1" /><text x="520" y="200.5" font-size="12" text-anchor="start">2.5</text><line x1="515" y1="155.83" x2="519" y2="155.83" stroke="#000000" stroke-width="1" /><text x="520" y="159.83" font-size="12" text-anchor="start">3</text><line x1="515" y1="115.17" x2="519" y2="115.17" stroke="#000000" stroke-width="1" /><text x="520" y="119.17" font-size="12" text-anchor="start">3.5</text><line x1="515" y1="74.5" x2="519" y2="74.5" stroke="#000000" stroke-width="1" /><text x="520" y="78.5" font-size="12" text-anchor="start">4</text><text x="485" y="196.5" font-size="12" text-anchor="middle" transform="rotate(-90,485,196.5)">Count</text></svg>