<svg xmlns="http://www.w3.org/2000/svg" width="673.4" height="545" font-family="DejaVu Sans, Liberation Sans, Arial, sans-serif" fill="black"><rect width="100%" height="100%" fill="white" /><defs><clipPath id="kuva-clip-0"><rect x="59" y="44" width="600" height="450"/></clipPath></defs><line x1="259" y1="44" x2="259" y2="494" stroke="#cccccc" stroke-width="1" /><line x1="459" y1="44" x2="459" y2="494" stroke="#cccccc" stroke-width="1" /><line x1="659" y1="44" x2="659" y2="494" stroke="#cccccc" stroke-width="1" /><line x1="59" y1="429.71000000000004" x2="659" y2="429.71000000000004" stroke="#cccccc" stroke-width="1" /><line x1="59" y1="365.43" x2="659" y2="365.43" stroke="#cccccc" stroke-width="1" /><line x1="59" y1="301.14" x2="659" y2="301.14" stroke="#cccccc" stroke-width="1" /><line x1="59" y1="236.86" x2="659" y2="236.86" stroke="#cccccc" stroke-width="1" /><line x1="59" y1="172.57" x2="659" y2="172.57" stroke="#cccccc" stroke-width="1" /><line x1="59" y1="108.29" x2="659" y2="108.29" stroke="#cccccc" stroke-width="1" /><line x1="59" y1="44" x2="659" y2="44" stroke="#cccccc" stroke-width="1" /><line x1="59" y1="494" x2="659" y2="494" stroke="#000000" stroke-width="1" /><line x1="59" y1="44" x2="59" y2="494" stroke="#000000" stroke-width="1" /><line x1="59" y1="494" x2="59" y2="499" stroke="#000000" stroke-width="1" /><text x="59" y="511" font-size="12" text-anchor="middle">-3</text><line x1="259" y1="494" x2="259" y2="499" stroke="#000000" stroke-width="1" /><text x="259" y="511" font-size="12" text-anchor="middle">-1</text><line x1="459" y1="494" x2="459" y2="499" stroke="#000000" stroke-width="1" /><text x="459" y="511" font-size="12" text-anchor="middle">1</text><line x1="659" y1="494" x2="659" y2="499" stroke="#000000" stroke-width="1" /><text x="659" y="511" font-size="12" text-anchor="middle">3</text><line x1="54" y1="494" x2="59" y2="494" stroke="#000000" stroke-width="1" /><text x="51" y="498.2" font-size="12" text-anchor="end">0</text><line x1="54" y1="429.71000000000004" x2="59" y2="429.71000000000004" stroke="#000000" stroke-width="1" /><text x="51" y="433.91" font-size="12" text-anchor="end">5</text><line x1="54" y1="365.43" x2="59" y2="365.43" stroke="#000000" stroke-width="1" /><text x="51" y="369.63" font-size="12" text-anchor="end">10</text><line x1="54" y1="301.14" x2="59" y2="301.14" stroke="#000000" stroke-width="1" /><text x="51" y="305.34000000000003" font-size="12" text-anchor="end">15</text><line x1="54" y1="236.86" x2="59" y2="236.86" stroke="#000000" stroke-width="1" /><text x="51" y="241.06" font-size="12" text-anchor="end">20</text><line x1="54" y1="172.57" x2="59" y2="172.57" stroke="#000000" stroke-width="1" /><text x="51" y="176.77" font-size="12" text-anchor="end">25</text><line x1="54" y1="108.29" x2="59" y2="108.29" stroke="#000000" stroke-width="1" /><text x="51" y="112.49000000000001" font-size="12" text-anchor="end">30</text><line x1="54" y1="44" x2="59" y2="44" stroke="#000000" stroke-width="1" /><text x="51" y="48.2" font-size="12" text-anchor="end">35</text><text x="359" y="538" font-size="14" text-anchor="middle">Value</text><text x="15" y="272.5" font-size="14" text-anchor="middle" transform="rotate(-90,15,272.5)">Count</text><text x="359" y="22" font-size="18" text-anchor="middle">Histogram</text><g clip-path="url(#kuva-clip-0)"><rect x="99" y="481.14" width="20" height="12.86" fill="#4682b4" /><rect x="119" y="468.29" width="20" height="25.71" fill="#4682b4" /><rect x="139" y="468.29" width="20" height="25.71" fill="#4682b4" /><rect x="159" y="455.43" width="20" height="38.57" fill="#4682b4" /><rect x="179" y="468.29" width="20" height="25.71" fill="#4682b4" /><rect x="199" y="404" width="20" height="90" fill="#4682b4" /><rect x="219" y="275.43" width="20" height="218.57" fill="#4682b4" /><rect x="239" y="391.14" width="20" height="102.86" fill="#4682b4" /><rect x="259" y="288.29" width="20" height="205.71" fill="#4682b4" /><rect x="279" y="288.29" width="20" height="205.71" fill="#4682b4" /><rect x="299" y="288.29" width="20" height="205.71" fill="#4682b4" /><rect x="319" y="82.57000000000001" width="20" height="411.43" fill="#4682b4" /><rect x="339" y="275.43" width="20" height="218.57" fill="#4682b4" /><rect x="359" y="185.43" width="20" height="308.57" fill="#4682b4" /><rect x="379" y="185.43" width="20" height="308.57" fill="#4682b4" /><rect x="399" y="185.43" width="20" height="308.57" fill="#4682b4" /><rect x="419" y="121.14" width="20" height="372.86" fill="#4682b4" /><rect x="439" y="185.43" width="20" height="308.57" fill="#4682b4" /><rect x="459" y="404" width="20" height="90" fill="#4682b4" /><rect x="479" y="378.29" width="20" height="115.71000000000001" fill="#4682b4" /><rect x="499" y="442.57" width="20" height="51.43" fill="#4682b4" /><rect x="519" y="429.71000000000004" width="20" height="64.29" fill="#4682b4" /><rect x="539" y="442.57" width="20" height="51.43" fill="#4682b4" /><rect x="559" y="442.57" width="20" height="51.43" fill="#4682b4" /><rect x="579" y="481.14" width="20" height="12.86" fill="#4682b4" /><rect x="599" y="468.29" width="20" height="25.71" fill="#4682b4" /></g></svg>