<svg xmlns="http://www.w3.org/2000/svg" width="686.2" height="545" font-family="DejaVu Sans, Liberation Sans, Arial, sans-serif" fill="black"><rect width="100%" height="100%" fill="white" /><line x1="72.2" y1="494" x2="672.2" y2="494" stroke="#000000" stroke-width="1" /><line x1="72.2" y1="44" x2="72.2" y2="494" stroke="#000000" stroke-width="1" /><line x1="272.2" y1="44" x2="272.2" y2="494" stroke="#cccccc" stroke-width="1" /><line x1="472.2" y1="44" x2="472.2" y2="494" stroke="#cccccc" stroke-width="1" /><line x1="672.2" y1="44" x2="672.2" y2="494" stroke="#cccccc" stroke-width="1" /><line x1="72.2" y1="429.71000000000004" x2="672.2" y2="429.71000000000004" stroke="#cccccc" stroke-width="1" /><line x1="72.2" y1="365.43" x2="672.2" y2="365.43" stroke="#cccccc" stroke-width="1" /><line x1="72.2" y1="301.14" x2="672.2" y2="301.14" stroke="#cccccc" stroke-width="1" /><line x1="72.2" y1="236.86" x2="672.2" y2="236.86" stroke="#cccccc" stroke-width="1" /><line x1="72.2" y1="172.57" x2="672.2" y2="172.57" stroke="#cccccc" stroke-width="1" /><line x1="72.2" y1="108.29" x2="672.2" y2="108.29" stroke="#cccccc" stroke-width="1" /><line x1="72.2" y1="44" x2="672.2" y2="44" stroke="#cccccc" stroke-width="1" /><line x1="72.2" y1="494" x2="72.2" y2="499" stroke="#000000" stroke-width="1" /><text x="72.2" y="511" font-size="12" text-anchor="middle">-3</text><line x1="272.2" y1="494" x2="272.2" y2="499" stroke="#000000" stroke-width="1" /><text x="272.2" y="511" font-size="12" text-anchor="middle">-1</text><line x1="472.2" y1="494" x2="472.2" y2="499" stroke="#000000" stroke-width="1" /><text x="472.2" y="511" font-size="12" text-anchor="middle">1</text><line x1="672.2" y1="494" x2="672.2" y2="499" stroke="#000000" stroke-width="1" /><text x="672.2" y="511" font-size="12" text-anchor="middle">3</text><line x1="67.2" y1="494" x2="72.2" y2="494" stroke="#000000" stroke-width="1" /><text x="64.2" y="498.2" font-size="12" text-anchor="end">0</text><line x1="67.2" y1="429.71000000000004" x2="72.2" y2="429.71000000000004" stroke="#000000" stroke-width="1" /><text x="64.2" y="433.91" font-size="12" text-anchor="end">5</text><line x1="67.2" y1="365.43" x2="72.2" y2="365.43" stroke="#000000" stroke-width="1" /><text x="64.2" y="369.63" font-size="12" text-anchor="end">10</text><line x1="67.2" y1="301.14" x2="72.2" y2="301.14" stroke="#000000" stroke-width="1" /><text x="64.2" y="305.34000000000003" font-size="12" text-anchor="end">15</text><line x1="67.2" y1="236.86" x2="72.2" y2="236.86" stroke="#000000" stroke-width="1" /><text x="64.2" y="241.06" font-size="12" text-anchor="end">20</text><line x1="67.2" y1="172.57" x2="72.2" y2="172.57" stroke="#000000" stroke-width="1" /><text x="64.2" y="176.77" font-size="12" text-anchor="end">25</text><line x1="67.2" y1="108.29" x2="72.2" y2="108.29" stroke="#000000" stroke-width="1" /><text x="64.2" y="112.49000000000001" font-size="12" text-anchor="end">30</text><line x1="67.2" y1="44" x2="72.2" y2="44" stroke="#000000" stroke-width="1" /><text x="64.2" y="48.2" font-size="12" text-anchor="end">35</text><text x="372.2" y="538" font-size="14" text-anchor="middle">Value</text><text x="7" y="272.5" font-size="14" text-anchor="middle" transform="rotate(-90,7,272.5)">Count</text><text x="372.2" y="22" font-size="18" text-anchor="middle">Histogram</text><rect x="72.2" y="494" width="20" height="0" fill="#4682b4" /><rect x="92.2" y="494" width="20" height="0" fill="#4682b4" /><rect x="112.2" y="481.14" width="20" height="12.86" fill="#4682b4" /><rect x="132.2" y="468.29" width="20" height="25.71" fill="#4682b4" /><rect x="152.20000000000002" y="468.29" width="20" height="25.71" fill="#4682b4" /><rect x="172.20000000000002" y="455.43" width="20" height="38.57" fill="#4682b4" /><rect x="192.20000000000002" y="468.29" width="20" height="25.71" fill="#4682b4" /><rect x="212.20000000000002" y="404" width="20" height="90" fill="#4682b4" /><rect x="232.20000000000002" y="275.43" width="20" height="218.57" fill="#4682b4" /><rect x="252.20000000000002" y="391.14" width="20" height="102.86" fill="#4682b4" /><rect x="272.2" y="288.29" width="20" height="205.71" fill="#4682b4" /><rect x="292.2" y="288.29" width="20" height="205.71" fill="#4682b4" /><rect x="312.2" y="288.29" width="20" height="205.71" fill="#4682b4" /><rect x="332.2" y="82.57000000000001" width="20" height="411.43" fill="#4682b4" /><rect x="352.2" y="275.43" width="20" height="218.57" fill="#4682b4" /><rect x="372.2" y="185.43" width="20" height="308.57" fill="#4682b4" /><rect x="392.2" y="185.43" width="20" height="308.57" fill="#4682b4" /><rect x="412.2" y="185.43" width="20" height="308.57" fill="#4682b4" /><rect x="432.2" y="121.14" width="20" height="372.86" fill="#4682b4" /><rect x="452.2" y="185.43" width="20" height="308.57" fill="#4682b4" /><rect x="472.2" y="404" width="20" height="90" fill="#4682b4" /><rect x="492.2" y="378.29" width="20" height="115.71000000000001" fill="#4682b4" /><rect x="512.2" y="442.57" width="20" height="51.43" fill="#4682b4" /><rect x="532.2" y="429.71000000000004" width="20" height="64.29" fill="#4682b4" /><rect x="552.2" y="442.57" width="20" height="51.43" fill="#4682b4" /><rect x="572.2" y="442.57" width="20" height="51.43" fill="#4682b4" /><rect x="592.2" y="481.14" width="20" height="12.86" fill="#4682b4" /><rect x="612.2" y="468.29" width="20" height="25.71" fill="#4682b4" /><rect x="632.2" y="494" width="20" height="0" fill="#4682b4" /><rect x="652.2" y="494" width="20" height="0" fill="#4682b4" /></svg>