<svg xmlns="http://www.w3.org/2000/svg" width="678.2" height="545" font-family="DejaVu Sans, Liberation Sans, Arial, sans-serif" fill="black"><rect width="100%" height="100%" fill="white" /><defs><clipPath id="kuva-clip-2"><rect x="63.800000000000004" y="44" width="600" height="450"/></clipPath></defs><line x1="213.8" y1="44" x2="213.8" y2="494" stroke="#cccccc" stroke-width="1" /><line x1="363.8" y1="44" x2="363.8" y2="494" stroke="#cccccc" stroke-width="1" /><line x1="513.8" y1="44" x2="513.8" y2="494" stroke="#cccccc" stroke-width="1" /><line x1="663.8000000000001" y1="44" x2="663.8000000000001" y2="494" stroke="#cccccc" stroke-width="1" /><line x1="63.800000000000004" y1="365.43" x2="663.8000000000001" y2="365.43" stroke="#cccccc" stroke-width="1" /><line x1="63.800000000000004" y1="236.86" x2="663.8000000000001" y2="236.86" stroke="#cccccc" stroke-width="1" /><line x1="63.800000000000004" y1="108.29" x2="663.8000000000001" y2="108.29" stroke="#cccccc" stroke-width="1" /><line x1="63.800000000000004" y1="494" x2="663.8000000000001" y2="494" stroke="#000000" stroke-width="1" /><line x1="63.800000000000004" y1="44" x2="63.800000000000004" y2="494" stroke="#000000" stroke-width="1" /><line x1="63.800000000000004" y1="494" x2="63.800000000000004" y2="499" stroke="#000000" stroke-width="1" /><text x="63.800000000000004" y="511" font-size="12" text-anchor="middle">-3</text><line x1="213.8" y1="494" x2="213.8" y2="499" stroke="#000000" stroke-width="1" /><text x="213.8" y="511" font-size="12" text-anchor="middle">-1.5</text><line x1="363.8" y1="494" x2="363.8" y2="499" stroke="#000000" stroke-width="1" /><text x="363.8" y="511" font-size="12" text-anchor="middle">0</text><line x1="513.8" y1="494" x2="513.8" y2="499" stroke="#000000" stroke-width="1" /><text x="513.8" y="511" font-size="12" text-anchor="middle">1.5</text><line x1="663.8000000000001" y1="494" x2="663.8000000000001" y2="499" stroke="#000000" stroke-width="1" /><text x="663.8000000000001" y="511" font-size="12" text-anchor="middle">3</text><line x1="58.800000000000004" y1="494" x2="63.800000000000004" y2="494" stroke="#000000" stroke-width="1" /><text x="55.800000000000004" y="498.2" font-size="12" text-anchor="end">0</text><line x1="58.800000000000004" y1="365.43" x2="63.800000000000004" y2="365.43" stroke="#000000" stroke-width="1" /><text x="55.800000000000004" y="369.63" font-size="12" text-anchor="end">5</text><line x1="58.800000000000004" y1="236.86" x2="63.800000000000004" y2="236.86" stroke="#000000" stroke-width="1" /><text x="55.800000000000004" y="241.06" font-size="12" text-anchor="end">10</text><line x1="58.800000000000004" y1="108.29" x2="63.800000000000004" y2="108.29" stroke="#000000" stroke-width="1" /><text x="55.800000000000004" y="112.49000000000001" font-size="12" text-anchor="end">15</text><text x="363.8" y="538" font-size="14" text-anchor="middle">Value</text><text x="15" y="272.5" font-size="14" text-anchor="middle" transform="rotate(-90,15,272.5)">Count</text><text x="363.8" y="22" font-size="18" text-anchor="middle">60 Bins</text><g clip-path="url(#kuva-clip-2)"><rect x="103.8" y="468.29" width="10" height="25.71" fill="#4682b4" /><rect x="123.8" y="468.29" width="10" height="25.71" fill="#4682b4" /><rect x="133.8" y="468.29" width="10" height="25.71" fill="#4682b4" /><rect x="153.8" y="442.57" width="10" height="51.43" fill="#4682b4" /><rect x="173.8" y="416.86" width="10" height="77.14" fill="#4682b4" /><rect x="183.8" y="468.29" width="10" height="25.71" fill="#4682b4" /><rect x="193.8" y="468.29" width="10" height="25.71" fill="#4682b4" /><rect x="203.8" y="416.86" width="10" height="77.14" fill="#4682b4" /><rect x="213.8" y="391.14" width="10" height="102.86" fill="#4682b4" /><rect x="223.8" y="236.86" width="10" height="257.14" fill="#4682b4" /><rect x="233.8" y="314" width="10" height="180" fill="#4682b4" /><rect x="243.8" y="391.14" width="10" height="102.86" fill="#4682b4" /><rect x="253.8" y="391.14" width="10" height="102.86" fill="#4682b4" /><rect x="263.8" y="236.86" width="10" height="257.14" fill="#4682b4" /><rect x="273.8" y="339.71" width="10" height="154.29" fill="#4682b4" /><rect x="283.8" y="339.71" width="10" height="154.29" fill="#4682b4" /><rect x="293.8" y="236.86" width="10" height="257.14" fill="#4682b4" /><rect x="303.8" y="211.14000000000001" width="10" height="282.86" fill="#4682b4" /><rect x="313.8" y="365.43" width="10" height="128.57" fill="#4682b4" /><rect x="323.8" y="108.29" width="10" height="385.71000000000004" fill="#4682b4" /><rect x="333.8" y="56.86" width="10" height="437.14" fill="#4682b4" /><rect x="343.8" y="185.43" width="10" height="308.57" fill="#4682b4" /><rect x="353.8" y="365.43" width="10" height="128.57" fill="#4682b4" /><rect x="363.8" y="134" width="10" height="360" fill="#4682b4" /><rect x="373.8" y="236.86" width="10" height="257.14" fill="#4682b4" /><rect x="383.8" y="185.43" width="10" height="308.57" fill="#4682b4" /><rect x="393.8" y="185.43" width="10" height="308.57" fill="#4682b4" /><rect x="403.8" y="185.43" width="10" height="308.57" fill="#4682b4" /><rect x="413.8" y="185.43" width="10" height="308.57" fill="#4682b4" /><rect x="423.8" y="108.29" width="10" height="385.71000000000004" fill="#4682b4" /><rect x="433.8" y="134" width="10" height="360" fill="#4682b4" /><rect x="443.8" y="56.86" width="10" height="437.14" fill="#4682b4" /><rect x="453.8" y="314" width="10" height="180" fill="#4682b4" /><rect x="463.8" y="391.14" width="10" height="102.86" fill="#4682b4" /><rect x="473.8" y="416.86" width="10" height="77.14" fill="#4682b4" /><rect x="483.8" y="314" width="10" height="180" fill="#4682b4" /><rect x="493.8" y="442.57" width="10" height="51.43" fill="#4682b4" /><rect x="503.8" y="391.14" width="10" height="102.86" fill="#4682b4" /><rect x="523.8" y="442.57" width="10" height="51.43" fill="#4682b4" /><rect x="533.8" y="416.86" width="10" height="77.14" fill="#4682b4" /><rect x="543.8" y="468.29" width="10" height="25.71" fill="#4682b4" /><rect x="553.8000000000001" y="416.86" width="10" height="77.14" fill="#4682b4" /><rect x="563.8000000000001" y="416.86" width="10" height="77.14" fill="#4682b4" /><rect x="573.8000000000001" y="468.29" width="10" height="25.71" fill="#4682b4" /><rect x="583.8000000000001" y="468.29" width="10" height="25.71" fill="#4682b4" /><rect x="603.8000000000001" y="442.57" width="10" height="51.43" fill="#4682b4" /></g></svg>