<svg xmlns="http://www.w3.org/2000/svg" width="673.4" height="545" font-family="DejaVu Sans, Liberation Sans, Arial, sans-serif" fill="black"><rect width="100%" height="100%" fill="white" /><defs><clipPath id="kuva-clip-1"><rect x="59" y="44" width="600" height="450"/></clipPath></defs><line x1="259" y1="44" x2="259" y2="494" stroke="#cccccc" stroke-width="1" /><line x1="459" y1="44" x2="459" y2="494" stroke="#cccccc" stroke-width="1" /><line x1="659" y1="44" x2="659" y2="494" stroke="#cccccc" stroke-width="1" /><line x1="59" y1="419" x2="659" y2="419" stroke="#cccccc" stroke-width="1" /><line x1="59" y1="344" x2="659" y2="344" stroke="#cccccc" stroke-width="1" /><line x1="59" y1="269" x2="659" y2="269" stroke="#cccccc" stroke-width="1" /><line x1="59" y1="194" x2="659" y2="194" stroke="#cccccc" stroke-width="1" /><line x1="59" y1="119" x2="659" y2="119" stroke="#cccccc" stroke-width="1" /><line x1="59" y1="44" x2="659" y2="44" stroke="#cccccc" stroke-width="1" /><line x1="59" y1="494" x2="659" y2="494" stroke="#000000" stroke-width="1" /><line x1="59" y1="44" x2="59" y2="494" stroke="#000000" stroke-width="1" /><line x1="59" y1="494" x2="59" y2="499" stroke="#000000" stroke-width="1" /><text x="59" y="511" font-size="12" text-anchor="middle">-3</text><line x1="259" y1="494" x2="259" y2="499" stroke="#000000" stroke-width="1" /><text x="259" y="511" font-size="12" text-anchor="middle">-1</text><line x1="459" y1="494" x2="459" y2="499" stroke="#000000" stroke-width="1" /><text x="459" y="511" font-size="12" text-anchor="middle">1</text><line x1="659" y1="494" x2="659" y2="499" stroke="#000000" stroke-width="1" /><text x="659" y="511" font-size="12" text-anchor="middle">3</text><line x1="54" y1="494" x2="59" y2="494" stroke="#000000" stroke-width="1" /><text x="51" y="498.2" font-size="12" text-anchor="end">0</text><line x1="54" y1="419" x2="59" y2="419" stroke="#000000" stroke-width="1" /><text x="51" y="423.2" font-size="12" text-anchor="end">25</text><line x1="54" y1="344" x2="59" y2="344" stroke="#000000" stroke-width="1" /><text x="51" y="348.2" font-size="12" text-anchor="end">50</text><line x1="54" y1="269" x2="59" y2="269" stroke="#000000" stroke-width="1" /><text x="51" y="273.2" font-size="12" text-anchor="end">75</text><line x1="54" y1="194" x2="59" y2="194" stroke="#000000" stroke-width="1" /><text x="51" y="198.20000000000002" font-size="12" text-anchor="end">100</text><line x1="54" y1="119" x2="59" y2="119" stroke="#000000" stroke-width="1" /><text x="51" y="123.2" font-size="12" text-anchor="end">125</text><line x1="54" y1="44" x2="59" y2="44" stroke="#000000" stroke-width="1" /><text x="51" y="48.2" font-size="12" text-anchor="end">150</text><text x="359" y="538" font-size="14" text-anchor="middle">Value</text><text x="15" y="272.5" font-size="14" text-anchor="middle" transform="rotate(-90,15,272.5)">Count</text><text x="359" y="22" font-size="18" text-anchor="middle">6 Bins</text><g clip-path="url(#kuva-clip-1)"><rect x="59" y="479" width="100" height="15" fill="#4682b4" /><rect x="159" y="383" width="100" height="111" fill="#4682b4" /><rect x="259" y="203" width="100" height="291" fill="#4682b4" /><rect x="359" y="119" width="100" height="375" fill="#4682b4" /><rect x="459" y="407" width="100" height="87" fill="#4682b4" /><rect x="559" y="473" width="100" height="21" fill="#4682b4" /></g></svg>