<svg xmlns="http://www.w3.org/2000/svg" width="686.2" height="545" font-family="DejaVu Sans, Liberation Sans, Arial, sans-serif" fill="black"><rect width="100%" height="100%" fill="white" /><line x1="72.2" y1="494" x2="672.2" y2="494" stroke="#000000" stroke-width="1" /><line x1="72.2" y1="44" x2="72.2" y2="494" stroke="#000000" stroke-width="1" /><line x1="222.20000000000002" y1="44" x2="222.20000000000002" y2="494" stroke="#cccccc" stroke-width="1" /><line x1="372.2" y1="44" x2="372.2" y2="494" stroke="#cccccc" stroke-width="1" /><line x1="522.2" y1="44" x2="522.2" y2="494" stroke="#cccccc" stroke-width="1" /><line x1="672.2" y1="44" x2="672.2" y2="494" stroke="#cccccc" stroke-width="1" /><line x1="72.2" y1="365.43" x2="672.2" y2="365.43" stroke="#cccccc" stroke-width="1" /><line x1="72.2" y1="236.86" x2="672.2" y2="236.86" stroke="#cccccc" stroke-width="1" /><line x1="72.2" y1="108.29" x2="672.2" y2="108.29" stroke="#cccccc" stroke-width="1" /><line x1="72.2" y1="494" x2="72.2" y2="499" stroke="#000000" stroke-width="1" /><text x="72.2" y="511" font-size="12" text-anchor="middle">-3</text><line x1="222.20000000000002" y1="494" x2="222.20000000000002" y2="499" stroke="#000000" stroke-width="1" /><text x="222.20000000000002" y="511" font-size="12" text-anchor="middle">-1.5</text><line x1="372.2" y1="494" x2="372.2" y2="499" stroke="#000000" stroke-width="1" /><text x="372.2" y="511" font-size="12" text-anchor="middle">0</text><line x1="522.2" y1="494" x2="522.2" y2="499" stroke="#000000" stroke-width="1" /><text x="522.2" y="511" font-size="12" text-anchor="middle">1.5</text><line x1="672.2" y1="494" x2="672.2" y2="499" stroke="#000000" stroke-width="1" /><text x="672.2" y="511" font-size="12" text-anchor="middle">3</text><line x1="67.2" y1="494" x2="72.2" y2="494" stroke="#000000" stroke-width="1" /><text x="64.2" y="498.2" font-size="12" text-anchor="end">0</text><line x1="67.2" y1="365.43" x2="72.2" y2="365.43" stroke="#000000" stroke-width="1" /><text x="64.2" y="369.63" font-size="12" text-anchor="end">5</text><line x1="67.2" y1="236.86" x2="72.2" y2="236.86" stroke="#000000" stroke-width="1" /><text x="64.2" y="241.06" font-size="12" text-anchor="end">10</text><line x1="67.2" y1="108.29" x2="72.2" y2="108.29" stroke="#000000" stroke-width="1" /><text x="64.2" y="112.49000000000001" font-size="12" text-anchor="end">15</text><text x="372.2" y="538" font-size="14" text-anchor="middle">Value</text><text x="7" y="272.5" font-size="14" text-anchor="middle" transform="rotate(-90,7,272.5)">Count</text><text x="372.2" y="22" font-size="18" text-anchor="middle">60 Bins</text><rect x="72.2" y="494" width="10" height="0" fill="#4682b4" /><rect x="82.2" y="494" width="10" height="0" fill="#4682b4" /><rect x="92.2" y="494" width="10" height="0" fill="#4682b4" /><rect x="102.2" y="494" width="10" height="0" fill="#4682b4" /><rect x="112.2" y="468.29" width="10" height="25.71" fill="#4682b4" /><rect x="122.2" y="494" width="10" height="0" fill="#4682b4" /><rect x="132.2" y="468.29" width="10" height="25.71" fill="#4682b4" /><rect x="142.20000000000002" y="468.29" width="10" height="25.71" fill="#4682b4" /><rect x="152.20000000000002" y="494" width="10" height="0" fill="#4682b4" /><rect x="162.20000000000002" y="442.57" width="10" height="51.43" fill="#4682b4" /><rect x="172.20000000000002" y="494" width="10" height="0" fill="#4682b4" /><rect x="182.20000000000002" y="416.86" width="10" height="77.14" fill="#4682b4" /><rect x="192.20000000000002" y="468.29" width="10" height="25.71" fill="#4682b4" /><rect x="202.20000000000002" y="468.29" width="10" height="25.71" fill="#4682b4" /><rect x="212.20000000000002" y="416.86" width="10" height="77.14" fill="#4682b4" /><rect x="222.20000000000002" y="391.14" width="10" height="102.86" fill="#4682b4" /><rect x="232.20000000000002" y="236.86" width="10" height="257.14" fill="#4682b4" /><rect x="242.20000000000002" y="314" width="10" height="180" fill="#4682b4" /><rect x="252.20000000000002" y="391.14" width="10" height="102.86" fill="#4682b4" /><rect x="262.2" y="391.14" width="10" height="102.86" fill="#4682b4" /><rect x="272.2" y="236.86" width="10" height="257.14" fill="#4682b4" /><rect x="282.2" y="339.71" width="10" height="154.29" fill="#4682b4" /><rect x="292.2" y="339.71" width="10" height="154.29" fill="#4682b4" /><rect x="302.2" y="236.86" width="10" height="257.14" fill="#4682b4" /><rect x="312.2" y="211.14000000000001" width="10" height="282.86" fill="#4682b4" /><rect x="322.2" y="365.43" width="10" height="128.57" fill="#4682b4" /><rect x="332.2" y="108.29" width="10" height="385.71000000000004" fill="#4682b4" /><rect x="342.2" y="56.86" width="10" height="437.14" fill="#4682b4" /><rect x="352.2" y="185.43" width="10" height="308.57" fill="#4682b4" /><rect x="362.2" y="365.43" width="10" height="128.57" fill="#4682b4" /><rect x="372.2" y="134" width="10" height="360" fill="#4682b4" /><rect x="382.2" y="236.86" width="10" height="257.14" fill="#4682b4" /><rect x="392.2" y="185.43" width="10" height="308.57" fill="#4682b4" /><rect x="402.2" y="185.43" width="10" height="308.57" fill="#4682b4" /><rect x="412.2" y="185.43" width="10" height="308.57" fill="#4682b4" /><rect x="422.2" y="185.43" width="10" height="308.57" fill="#4682b4" /><rect x="432.2" y="108.29" width="10" height="385.71000000000004" fill="#4682b4" /><rect x="442.2" y="134" width="10" height="360" fill="#4682b4" /><rect x="452.2" y="56.86" width="10" height="437.14" fill="#4682b4" /><rect x="462.2" y="314" width="10" height="180" fill="#4682b4" /><rect x="472.2" y="391.14" width="10" height="102.86" fill="#4682b4" /><rect x="482.2" y="416.86" width="10" height="77.14" fill="#4682b4" /><rect x="492.2" y="314" width="10" height="180" fill="#4682b4" /><rect x="502.2" y="442.57" width="10" height="51.43" fill="#4682b4" /><rect x="512.2" y="391.14" width="10" height="102.86" fill="#4682b4" /><rect x="522.2" y="494" width="10" height="0" fill="#4682b4" /><rect x="532.2" y="442.57" width="10" height="51.43" fill="#4682b4" /><rect x="542.2" y="416.86" width="10" height="77.14" fill="#4682b4" /><rect x="552.2" y="468.29" width="10" height="25.71" fill="#4682b4" /><rect x="562.2" y="416.86" width="10" height="77.14" fill="#4682b4" /><rect x="572.2" y="416.86" width="10" height="77.14" fill="#4682b4" /><rect x="582.2" y="468.29" width="10" height="25.71" fill="#4682b4" /><rect x="592.2" y="468.29" width="10" height="25.71" fill="#4682b4" /><rect x="602.2" y="494" width="10" height="0" fill="#4682b4" /><rect x="612.2" y="442.57" width="10" height="51.43" fill="#4682b4" /><rect x="622.2" y="494" width="10" height="0" fill="#4682b4" /><rect x="632.2" y="494" width="10" height="0" fill="#4682b4" /><rect x="642.2" y="494" width="10" height="0" fill="#4682b4" /><rect x="652.2" y="494" width="10" height="0" fill="#4682b4" /><rect x="662.2" y="494" width="10" height="0" fill="#4682b4" /></svg>