<svg xmlns="http://www.w3.org/2000/svg" width="686.2" height="545" font-family="DejaVu Sans, Liberation Sans, Arial, sans-serif" fill="black"><rect width="100%" height="100%" fill="white" /><line x1="72.2" y1="494" x2="672.2" y2="494" stroke="#000000" stroke-width="1" /><line x1="72.2" y1="44" x2="72.2" y2="494" stroke="#000000" stroke-width="1" /><line x1="272.2" y1="44" x2="272.2" y2="494" stroke="#cccccc" stroke-width="1" /><line x1="472.2" y1="44" x2="472.2" y2="494" stroke="#cccccc" stroke-width="1" /><line x1="672.2" y1="44" x2="672.2" y2="494" stroke="#cccccc" stroke-width="1" /><line x1="72.2" y1="404" x2="672.2" y2="404" stroke="#cccccc" stroke-width="1" /><line x1="72.2" y1="314" x2="672.2" y2="314" stroke="#cccccc" stroke-width="1" /><line x1="72.2" y1="224" x2="672.2" y2="224" stroke="#cccccc" stroke-width="1" /><line x1="72.2" y1="134" x2="672.2" y2="134" stroke="#cccccc" stroke-width="1" /><line x1="72.2" y1="44" x2="672.2" y2="44" stroke="#cccccc" stroke-width="1" /><line x1="72.2" y1="494" x2="72.2" y2="499" stroke="#000000" stroke-width="1" /><text x="72.2" y="511" font-size="12" text-anchor="middle">-3</text><line x1="272.2" y1="494" x2="272.2" y2="499" stroke="#000000" stroke-width="1" /><text x="272.2" y="511" font-size="12" text-anchor="middle">-1</text><line x1="472.2" y1="494" x2="472.2" y2="499" stroke="#000000" stroke-width="1" /><text x="472.2" y="511" font-size="12" text-anchor="middle">1</text><line x1="672.2" y1="494" x2="672.2" y2="499" stroke="#000000" stroke-width="1" /><text x="672.2" y="511" font-size="12" text-anchor="middle">3</text><line x1="67.2" y1="494" x2="72.2" y2="494" stroke="#000000" stroke-width="1" /><text x="64.2" y="498.2" font-size="12" text-anchor="end">0</text><line x1="67.2" y1="404" x2="72.2" y2="404" stroke="#000000" stroke-width="1" /><text x="64.2" y="408.2" font-size="12" text-anchor="end">0.2</text><line x1="67.2" y1="314" x2="72.2" y2="314" stroke="#000000" stroke-width="1" /><text x="64.2" y="318.2" font-size="12" text-anchor="end">0.4</text><line x1="67.2" y1="224" x2="72.2" y2="224" stroke="#000000" stroke-width="1" /><text x="64.2" y="228.20000000000002" font-size="12" text-anchor="end">0.6</text><line x1="67.2" y1="134" x2="72.2" y2="134" stroke="#000000" stroke-width="1" /><text x="64.2" y="138.20000000000002" font-size="12" text-anchor="end">0.8</text><line x1="67.2" y1="44" x2="72.2" y2="44" stroke="#000000" stroke-width="1" /><text x="64.2" y="48.2" font-size="12" text-anchor="end">1</text><text x="372.2" y="538" font-size="14" text-anchor="middle">Value</text><text x="7" y="272.5" font-size="14" text-anchor="middle" transform="rotate(-90,7,272.5)">Relative frequency</text><text x="372.2" y="22" font-size="18" text-anchor="middle">Normalized Histogram</text><rect x="72.2" y="494" width="20" height="0" fill="#4682b4" /><rect x="92.2" y="494" width="20" height="0" fill="#4682b4" /><rect x="112.2" y="479.94" width="20" height="14.06" fill="#4682b4" /><rect x="132.2" y="465.88" width="20" height="28.13" fill="#4682b4" /><rect x="152.20000000000002" y="465.88" width="20" height="28.13" fill="#4682b4" /><rect x="172.20000000000002" y="451.81" width="20" height="42.19" fill="#4682b4" /><rect x="192.20000000000002" y="465.88" width="20" height="28.13" fill="#4682b4" /><rect x="212.20000000000002" y="395.56" width="20" height="98.44" fill="#4682b4" /><rect x="232.20000000000002" y="254.94" width="20" height="239.06" fill="#4682b4" /><rect x="252.20000000000002" y="381.5" width="20" height="112.5" fill="#4682b4" /><rect x="272.2" y="269" width="20" height="225" fill="#4682b4" /><rect x="292.2" y="269" width="20" height="225" fill="#4682b4" /><rect x="312.2" y="269" width="20" height="225" fill="#4682b4" /><rect x="332.2" y="44" width="20" height="450" fill="#4682b4" /><rect x="352.2" y="254.94" width="20" height="239.06" fill="#4682b4" /><rect x="372.2" y="156.5" width="20" height="337.5" fill="#4682b4" /><rect x="392.2" y="156.5" width="20" height="337.5" fill="#4682b4" /><rect x="412.2" y="156.5" width="20" height="337.5" fill="#4682b4" /><rect x="432.2" y="86.19" width="20" height="407.81" fill="#4682b4" /><rect x="452.2" y="156.5" width="20" height="337.5" fill="#4682b4" /><rect x="472.2" y="395.56" width="20" height="98.44" fill="#4682b4" /><rect x="492.2" y="367.44" width="20" height="126.56" fill="#4682b4" /><rect x="512.2" y="437.75" width="20" height="56.25" fill="#4682b4" /><rect x="532.2" y="423.69" width="20" height="70.31" fill="#4682b4" /><rect x="552.2" y="437.75" width="20" height="56.25" fill="#4682b4" /><rect x="572.2" y="437.75" width="20" height="56.25" fill="#4682b4" /><rect x="592.2" y="479.94" width="20" height="14.06" fill="#4682b4" /><rect x="612.2" y="465.88" width="20" height="28.13" fill="#4682b4" /><rect x="632.2" y="494" width="20" height="0" fill="#4682b4" /><rect x="652.2" y="494" width="20" height="0" fill="#4682b4" /></svg>