<svg xmlns="http://www.w3.org/2000/svg" width="673.4" height="545" font-family="DejaVu Sans, Liberation Sans, Arial, sans-serif" fill="black"><rect width="100%" height="100%" fill="white" /><defs><clipPath id="kuva-clip-3"><rect x="59" y="44" width="600" height="450"/></clipPath></defs><line x1="259" y1="44" x2="259" y2="494" stroke="#cccccc" stroke-width="1" /><line x1="459" y1="44" x2="459" y2="494" stroke="#cccccc" stroke-width="1" /><line x1="659" y1="44" x2="659" y2="494" stroke="#cccccc" stroke-width="1" /><line x1="59" y1="404" x2="659" y2="404" stroke="#cccccc" stroke-width="1" /><line x1="59" y1="314" x2="659" y2="314" stroke="#cccccc" stroke-width="1" /><line x1="59" y1="224" x2="659" y2="224" stroke="#cccccc" stroke-width="1" /><line x1="59" y1="134" x2="659" y2="134" stroke="#cccccc" stroke-width="1" /><line x1="59" y1="44" x2="659" y2="44" stroke="#cccccc" stroke-width="1" /><line x1="59" y1="494" x2="659" y2="494" stroke="#000000" stroke-width="1" /><line x1="59" y1="44" x2="59" y2="494" stroke="#000000" stroke-width="1" /><line x1="59" y1="494" x2="59" y2="499" stroke="#000000" stroke-width="1" /><text x="59" y="511" font-size="12" text-anchor="middle">-3</text><line x1="259" y1="494" x2="259" y2="499" stroke="#000000" stroke-width="1" /><text x="259" y="511" font-size="12" text-anchor="middle">-1</text><line x1="459" y1="494" x2="459" y2="499" stroke="#000000" stroke-width="1" /><text x="459" y="511" font-size="12" text-anchor="middle">1</text><line x1="659" y1="494" x2="659" y2="499" stroke="#000000" stroke-width="1" /><text x="659" y="511" font-size="12" text-anchor="middle">3</text><line x1="54" y1="494" x2="59" y2="494" stroke="#000000" stroke-width="1" /><text x="51" y="498.2" font-size="12" text-anchor="end">0</text><line x1="54" y1="404" x2="59" y2="404" stroke="#000000" stroke-width="1" /><text x="51" y="408.2" font-size="12" text-anchor="end">0.2</text><line x1="54" y1="314" x2="59" y2="314" stroke="#000000" stroke-width="1" /><text x="51" y="318.2" font-size="12" text-anchor="end">0.4</text><line x1="54" y1="224" x2="59" y2="224" stroke="#000000" stroke-width="1" /><text x="51" y="228.20000000000002" font-size="12" text-anchor="end">0.6</text><line x1="54" y1="134" x2="59" y2="134" stroke="#000000" stroke-width="1" /><text x="51" y="138.20000000000002" font-size="12" text-anchor="end">0.8</text><line x1="54" y1="44" x2="59" y2="44" stroke="#000000" stroke-width="1" /><text x="51" y="48.2" font-size="12" text-anchor="end">1</text><text x="359" y="538" font-size="14" text-anchor="middle">Value</text><text x="15" y="272.5" font-size="14" text-anchor="middle" transform="rotate(-90,15,272.5)">Relative frequency</text><text x="359" y="22" font-size="18" text-anchor="middle">Normalized Histogram</text><g clip-path="url(#kuva-clip-3)"><rect x="99" y="479.94" width="20" height="14.06" fill="#4682b4" /><rect x="119" y="465.88" width="20" height="28.13" fill="#4682b4" /><rect x="139" y="465.88" width="20" height="28.13" fill="#4682b4" /><rect x="159" y="451.81" width="20" height="42.19" fill="#4682b4" /><rect x="179" y="465.88" width="20" height="28.13" fill="#4682b4" /><rect x="199" y="395.56" width="20" height="98.44" fill="#4682b4" /><rect x="219" y="254.94" width="20" height="239.06" fill="#4682b4" /><rect x="239" y="381.5" width="20" height="112.5" fill="#4682b4" /><rect x="259" y="269" width="20" height="225" fill="#4682b4" /><rect x="279" y="269" width="20" height="225" fill="#4682b4" /><rect x="299" y="269" width="20" height="225" fill="#4682b4" /><rect x="319" y="44" width="20" height="450" fill="#4682b4" /><rect x="339" y="254.94" width="20" height="239.06" fill="#4682b4" /><rect x="359" y="156.5" width="20" height="337.5" fill="#4682b4" /><rect x="379" y="156.5" width="20" height="337.5" fill="#4682b4" /><rect x="399" y="156.5" width="20" height="337.5" fill="#4682b4" /><rect x="419" y="86.19" width="20" height="407.81" fill="#4682b4" /><rect x="439" y="156.5" width="20" height="337.5" fill="#4682b4" /><rect x="459" y="395.56" width="20" height="98.44" fill="#4682b4" /><rect x="479" y="367.44" width="20" height="126.56" fill="#4682b4" /><rect x="499" y="437.75" width="20" height="56.25" fill="#4682b4" /><rect x="519" y="423.69" width="20" height="70.31" fill="#4682b4" /><rect x="539" y="437.75" width="20" height="56.25" fill="#4682b4" /><rect x="559" y="437.75" width="20" height="56.25" fill="#4682b4" /><rect x="579" y="479.94" width="20" height="14.06" fill="#4682b4" /><rect x="599" y="465.88" width="20" height="28.13" fill="#4682b4" /></g></svg>