<svg xmlns="http://www.w3.org/2000/svg" width="673.4" height="545" font-family="DejaVu Sans, Liberation Sans, Arial, sans-serif" fill="black"><rect width="100%" height="100%" fill="white" /><defs><clipPath id="kuva-clip-4"><rect x="59" y="44" width="600" height="450"/></clipPath></defs><line x1="209" y1="44" x2="209" y2="494" stroke="#cccccc" stroke-width="1" /><line x1="359" y1="44" x2="359" y2="494" stroke="#cccccc" stroke-width="1" /><line x1="509" y1="44" x2="509" y2="494" stroke="#cccccc" stroke-width="1" /><line x1="659" y1="44" x2="659" y2="494" stroke="#cccccc" stroke-width="1" /><line x1="59" y1="381.5" x2="659" y2="381.5" stroke="#cccccc" stroke-width="1" /><line x1="59" y1="269" x2="659" y2="269" stroke="#cccccc" stroke-width="1" /><line x1="59" y1="156.5" x2="659" y2="156.5" stroke="#cccccc" stroke-width="1" /><line x1="59" y1="44" x2="659" y2="44" stroke="#cccccc" stroke-width="1" /><line x1="59" y1="494" x2="659" y2="494" stroke="#000000" stroke-width="1" /><line x1="59" y1="44" x2="59" y2="494" stroke="#000000" stroke-width="1" /><line x1="59" y1="494" x2="59" y2="499" stroke="#000000" stroke-width="1" /><text x="59" y="511" font-size="12" text-anchor="middle">-4</text><line x1="209" y1="494" x2="209" y2="499" stroke="#000000" stroke-width="1" /><text x="209" y="511" font-size="12" text-anchor="middle">-2</text><line x1="359" y1="494" x2="359" y2="499" stroke="#000000" stroke-width="1" /><text x="359" y="511" font-size="12" text-anchor="middle">0</text><line x1="509" y1="494" x2="509" y2="499" stroke="#000000" stroke-width="1" /><text x="509" y="511" font-size="12" text-anchor="middle">2</text><line x1="659" y1="494" x2="659" y2="499" stroke="#000000" stroke-width="1" /><text x="659" y="511" font-size="12" text-anchor="middle">4</text><line x1="54" y1="494" x2="59" y2="494" stroke="#000000" stroke-width="1" /><text x="51" y="498.2" font-size="12" text-anchor="end">0</text><line x1="54" y1="381.5" x2="59" y2="381.5" stroke="#000000" stroke-width="1" /><text x="51" y="385.7" font-size="12" text-anchor="end">20</text><line x1="54" y1="269" x2="59" y2="269" stroke="#000000" stroke-width="1" /><text x="51" y="273.2" font-size="12" text-anchor="end">40</text><line x1="54" y1="156.5" x2="59" y2="156.5" stroke="#000000" stroke-width="1" /><text x="51" y="160.70000000000002" font-size="12" text-anchor="end">60</text><line x1="54" y1="44" x2="59" y2="44" stroke="#000000" stroke-width="1" /><text x="51" y="48.2" font-size="12" text-anchor="end">80</text><text x="359" y="538" font-size="14" text-anchor="middle">Value</text><text x="15" y="272.5" font-size="14" text-anchor="middle" transform="rotate(-90,15,272.5)">Count</text><text x="359" y="22" font-size="18" text-anchor="middle">Overlapping Distributions</text><g clip-path="url(#kuva-clip-4)"><rect x="134" y="432.13" width="37.5" height="61.88" fill="#4682b480" /><rect x="171.5" y="381.5" width="37.5" height="112.5" fill="#4682b480" /><rect x="209" y="184.63" width="37.5" height="309.38" fill="#4682b480" /><rect x="246.5" y="89" width="37.5" height="405" fill="#4682b480" /><rect x="284" y="55.25" width="37.5" height="438.75" fill="#4682b480" /><rect x="321.5" y="263.38" width="37.5" height="230.63" fill="#4682b480" /><rect x="359" y="409.63" width="37.5" height="84.38" fill="#4682b480" /><rect x="396.5" y="465.88" width="37.5" height="28.13" fill="#4682b480" /><rect x="434" y="477.13" width="37.5" height="16.88" fill="#4682b480" /><rect x="284" y="477.13" width="37.5" height="16.88" fill="#dc143c80" /><rect x="321.5" y="359" width="37.5" height="135" fill="#dc143c80" /><rect x="359" y="179" width="37.5" height="315" fill="#dc143c80" /><rect x="396.5" y="60.88" width="37.5" height="433.13" fill="#dc143c80" /><rect x="434" y="117.13" width="37.5" height="376.88" fill="#dc143c80" /><rect x="471.5" y="235.25" width="37.5" height="258.75" fill="#dc143c80" /><rect x="509" y="370.25" width="37.5" height="123.75" fill="#dc143c80" /><rect x="546.5" y="477.13" width="37.5" height="16.88" fill="#dc143c80" /><rect x="584" y="482.75" width="37.5" height="11.25" fill="#dc143c80" /></g></svg>