<svg xmlns="http://www.w3.org/2000/svg" width="686.2" height="545" font-family="DejaVu Sans, Liberation Sans, Arial, sans-serif" fill="black"><rect width="100%" height="100%" fill="white" /><line x1="72.2" y1="494" x2="672.2" y2="494" stroke="#000000" stroke-width="1" /><line x1="72.2" y1="44" x2="72.2" y2="494" stroke="#000000" stroke-width="1" /><line x1="222.20000000000002" y1="44" x2="222.20000000000002" y2="494" stroke="#cccccc" stroke-width="1" /><line x1="372.2" y1="44" x2="372.2" y2="494" stroke="#cccccc" stroke-width="1" /><line x1="522.2" y1="44" x2="522.2" y2="494" stroke="#cccccc" stroke-width="1" /><line x1="672.2" y1="44" x2="672.2" y2="494" stroke="#cccccc" stroke-width="1" /><line x1="72.2" y1="381.5" x2="672.2" y2="381.5" stroke="#cccccc" stroke-width="1" /><line x1="72.2" y1="269" x2="672.2" y2="269" stroke="#cccccc" stroke-width="1" /><line x1="72.2" y1="156.5" x2="672.2" y2="156.5" stroke="#cccccc" stroke-width="1" /><line x1="72.2" y1="44" x2="672.2" y2="44" stroke="#cccccc" stroke-width="1" /><line x1="72.2" y1="494" x2="72.2" y2="499" stroke="#000000" stroke-width="1" /><text x="72.2" y="511" font-size="12" text-anchor="middle">-4</text><line x1="222.20000000000002" y1="494" x2="222.20000000000002" y2="499" stroke="#000000" stroke-width="1" /><text x="222.20000000000002" y="511" font-size="12" text-anchor="middle">-2</text><line x1="372.2" y1="494" x2="372.2" y2="499" stroke="#000000" stroke-width="1" /><text x="372.2" y="511" font-size="12" text-anchor="middle">0</text><line x1="522.2" y1="494" x2="522.2" y2="499" stroke="#000000" stroke-width="1" /><text x="522.2" y="511" font-size="12" text-anchor="middle">2</text><line x1="672.2" y1="494" x2="672.2" y2="499" stroke="#000000" stroke-width="1" /><text x="672.2" y="511" font-size="12" text-anchor="middle">4</text><line x1="67.2" y1="494" x2="72.2" y2="494" stroke="#000000" stroke-width="1" /><text x="64.2" y="498.2" font-size="12" text-anchor="end">0</text><line x1="67.2" y1="381.5" x2="72.2" y2="381.5" stroke="#000000" stroke-width="1" /><text x="64.2" y="385.7" font-size="12" text-anchor="end">20</text><line x1="67.2" y1="269" x2="72.2" y2="269" stroke="#000000" stroke-width="1" /><text x="64.2" y="273.2" font-size="12" text-anchor="end">40</text><line x1="67.2" y1="156.5" x2="72.2" y2="156.5" stroke="#000000" stroke-width="1" /><text x="64.2" y="160.70000000000002" font-size="12" text-anchor="end">60</text><line x1="67.2" y1="44" x2="72.2" y2="44" stroke="#000000" stroke-width="1" /><text x="64.2" y="48.2" font-size="12" text-anchor="end">80</text><text x="372.2" y="538" font-size="14" text-anchor="middle">Value</text><text x="7" y="272.5" font-size="14" text-anchor="middle" transform="rotate(-90,7,272.5)">Count</text><text x="372.2" y="22" font-size="18" text-anchor="middle">Overlapping Distributions</text><rect x="72.2" y="494" width="37.5" height="0" fill="#4682b480" /><rect x="109.7" y="494" width="37.5" height="0" fill="#4682b480" /><rect x="147.20000000000002" y="432.13" width="37.5" height="61.88" fill="#4682b480" /><rect x="184.70000000000002" y="381.5" width="37.5" height="112.5" fill="#4682b480" /><rect x="222.20000000000002" y="184.63" width="37.5" height="309.38" fill="#4682b480" /><rect x="259.7" y="89" width="37.5" height="405" fill="#4682b480" /><rect x="297.2" y="55.25" width="37.5" height="438.75" fill="#4682b480" /><rect x="334.7" y="263.38" width="37.5" height="230.63" fill="#4682b480" /><rect x="372.2" y="409.63" width="37.5" height="84.38" fill="#4682b480" /><rect x="409.7" y="465.88" width="37.5" height="28.13" fill="#4682b480" /><rect x="447.2" y="477.13" width="37.5" height="16.88" fill="#4682b480" /><rect x="484.7" y="494" width="37.5" height="0" fill="#4682b480" /><rect x="522.2" y="494" width="37.5" height="0" fill="#4682b480" /><rect x="559.7" y="494" width="37.5" height="0" fill="#4682b480" /><rect x="597.2" y="494" width="37.5" height="0" fill="#4682b480" /><rect x="634.7" y="494" width="37.5" height="0" fill="#4682b480" /><rect x="72.2" y="494" width="37.5" height="0" fill="#dc143c80" /><rect x="109.7" y="494" width="37.5" height="0" fill="#dc143c80" /><rect x="147.20000000000002" y="494" width="37.5" height="0" fill="#dc143c80" /><rect x="184.70000000000002" y="494" width="37.5" height="0" fill="#dc143c80" /><rect x="222.20000000000002" y="494" width="37.5" height="0" fill="#dc143c80" /><rect x="259.7" y="494" width="37.5" height="0" fill="#dc143c80" /><rect x="297.2" y="477.13" width="37.5" height="16.88" fill="#dc143c80" /><rect x="334.7" y="359" width="37.5" height="135" fill="#dc143c80" /><rect x="372.2" y="179" width="37.5" height="315" fill="#dc143c80" /><rect x="409.7" y="60.88" width="37.5" height="433.13" fill="#dc143c80" /><rect x="447.2" y="117.13" width="37.5" height="376.88" fill="#dc143c80" /><rect x="484.7" y="235.25" width="37.5" height="258.75" fill="#dc143c80" /><rect x="522.2" y="370.25" width="37.5" height="123.75" fill="#dc143c80" /><rect x="559.7" y="477.13" width="37.5" height="16.88" fill="#dc143c80" /><rect x="597.2" y="482.75" width="37.5" height="11.25" fill="#dc143c80" /><rect x="634.7" y="494" width="37.5" height="0" fill="#dc143c80" /></svg>