<svg xmlns="http://www.w3.org/2000/svg" width="815" height="545" font-family="DejaVu Sans, Liberation Sans, Arial, sans-serif" fill="black"><rect width="100%" height="100%" fill="white" /><defs><clipPath id="kuva-clip-2"><rect x="59" y="44" width="600" height="450"/></clipPath></defs><line x1="106.02" y1="44" x2="106.02" y2="494" stroke="#cccccc" stroke-width="1" /><line x1="186.37" y1="44" x2="186.37" y2="494" stroke="#cccccc" stroke-width="1" /><line x1="261.54" y1="44" x2="261.54" y2="494" stroke="#cccccc" stroke-width="1" /><line x1="341.89" y1="44" x2="341.89" y2="494" stroke="#cccccc" stroke-width="1" /><line x1="419.65000000000003" y1="44" x2="419.65000000000003" y2="494" stroke="#cccccc" stroke-width="1" /><line x1="500" y1="44" x2="500" y2="494" stroke="#cccccc" stroke-width="1" /><line x1="577.76" y1="44" x2="577.76" y2="494" stroke="#cccccc" stroke-width="1" /><line x1="658.11" y1="44" x2="658.11" y2="494" stroke="#cccccc" stroke-width="1" /><line x1="59" y1="419" x2="659" y2="419" stroke="#cccccc" stroke-width="1" /><line x1="59" y1="344" x2="659" y2="344" stroke="#cccccc" stroke-width="1" /><line x1="59" y1="269" x2="659" y2="269" stroke="#cccccc" stroke-width="1" /><line x1="59" y1="194" x2="659" y2="194" stroke="#cccccc" stroke-width="1" /><line x1="59" y1="119" x2="659" y2="119" stroke="#cccccc" stroke-width="1" /><line x1="59" y1="44" x2="659" y2="44" stroke="#cccccc" stroke-width="1" /><line x1="59" y1="494" x2="659" y2="494" stroke="#000000" stroke-width="1" /><line x1="59" y1="44" x2="59" y2="494" stroke="#000000" stroke-width="1" /><line x1="106.02" y1="494" x2="106.02" y2="499" stroke="#000000" stroke-width="1" /><text x="106.02" y="511" font-size="12" text-anchor="middle">Jan</text><line x1="186.37" y1="494" x2="186.37" y2="499" stroke="#000000" stroke-width="1" /><text x="186.37" y="511" font-size="12" text-anchor="middle">Feb</text><line x1="261.54" y1="494" x2="261.54" y2="499" stroke="#000000" stroke-width="1" /><text x="261.54" y="511" font-size="12" text-anchor="middle">Mar</text><line x1="341.89" y1="494" x2="341.89" y2="499" stroke="#000000" stroke-width="1" /><text x="341.89" y="511" font-size="12" text-anchor="middle">Apr</text><line x1="419.65000000000003" y1="494" x2="419.65000000000003" y2="499" stroke="#000000" stroke-width="1" /><text x="419.65000000000003" y="511" font-size="12" text-anchor="middle">May</text><line x1="500" y1="494" x2="500" y2="499" stroke="#000000" stroke-width="1" /><text x="500" y="511" font-size="12" text-anchor="middle">Jun</text><line x1="577.76" y1="494" x2="577.76" y2="499" stroke="#000000" stroke-width="1" /><text x="577.76" y="511" font-size="12" text-anchor="middle">Jul</text><line x1="658.11" y1="494" x2="658.11" y2="499" stroke="#000000" stroke-width="1" /><text x="658.11" y="511" font-size="12" text-anchor="middle">Aug</text><line x1="54" y1="494" x2="59" y2="494" stroke="#000000" stroke-width="1" /><text x="51" y="498.2" font-size="12" text-anchor="end">0</text><line x1="54" y1="419" x2="59" y2="419" stroke="#000000" stroke-width="1" /><text x="51" y="423.2" font-size="12" text-anchor="end">100</text><line x1="54" y1="344" x2="59" y2="344" stroke="#000000" stroke-width="1" /><text x="51" y="348.2" font-size="12" text-anchor="end">200</text><line x1="54" y1="269" x2="59" y2="269" stroke="#000000" stroke-width="1" /><text x="51" y="273.2" font-size="12" text-anchor="end">300</text><line x1="54" y1="194" x2="59" y2="194" stroke="#000000" stroke-width="1" /><text x="51" y="198.20000000000002" font-size="12" text-anchor="end">400</text><line x1="54" y1="119" x2="59" y2="119" stroke="#000000" stroke-width="1" /><text x="51" y="123.2" font-size="12" text-anchor="end">500</text><line x1="54" y1="44" x2="59" y2="44" stroke="#000000" stroke-width="1" /><text x="51" y="48.2" font-size="12" text-anchor="end">600</text><text x="359" y="538" font-size="14" text-anchor="middle">Month</text><text x="15" y="272.5" font-size="14" text-anchor="middle" transform="rotate(-90,15,272.5)">Yield (ng)</text><text x="407.5" y="27.400000000000002" font-size="18" text-anchor="middle">Library Yield by Protocol — H1 2024</text><g clip-path="url(#kuva-clip-2)"><path d="M 106.02 179.0 L 186.37 152.75 L 261.54 135.5 L 341.89 117.5 L 419.65000000000003 95.75 L 500.0 83.0 L 577.76 72.5 " stroke="#4682b4" stroke-width="2" fill="none" /><path d="M 106.02 203.0 L 186.37 193.25 L 261.54 182.75 L 341.89 164.75 L 419.65000000000003 148.25 L 500.0 141.5 L 577.76 128.0 " stroke="#ff7f50" stroke-width="2" fill="none" /></g><rect x="664" y="34" width="120" height="56" fill="#ffffff" /><rect x="664" y="34" width="120" height="56" fill="none" stroke="#000000" stroke-width="1" /><text x="694" y="53.2" font-size="12" text-anchor="start">Protocol A</text><line x1="674" y1="49" x2="686" y2="49" stroke="#4682b4" stroke-width="2" /><text x="694" y="71.2" font-size="12" text-anchor="start">Protocol B</text><line x1="674" y1="67" x2="686" y2="67" stroke="#ff7f50" stroke-width="2" /></svg>