<svg xmlns="http://www.w3.org/2000/svg" width="673" height="571.91" font-family="DejaVu Sans, Liberation Sans, Arial, sans-serif" fill="black"><rect width="100%" height="100%" fill="white" /><defs><clipPath id="kuva-clip-0"><rect x="59" y="44" width="600" height="450"/></clipPath></defs><line x1="82.81" y1="44" x2="82.81" y2="494" stroke="#cccccc" stroke-width="1" /><line x1="128.72" y1="44" x2="128.72" y2="494" stroke="#cccccc" stroke-width="1" /><line x1="174.64000000000001" y1="44" x2="174.64000000000001" y2="494" stroke="#cccccc" stroke-width="1" /><line x1="217.59" y1="44" x2="217.59" y2="494" stroke="#cccccc" stroke-width="1" /><line x1="263.51" y1="44" x2="263.51" y2="494" stroke="#cccccc" stroke-width="1" /><line x1="307.94" y1="44" x2="307.94" y2="494" stroke="#cccccc" stroke-width="1" /><line x1="353.86" y1="44" x2="353.86" y2="494" stroke="#cccccc" stroke-width="1" /><line x1="398.29" y1="44" x2="398.29" y2="494" stroke="#cccccc" stroke-width="1" /><line x1="444.21000000000004" y1="44" x2="444.21000000000004" y2="494" stroke="#cccccc" stroke-width="1" /><line x1="490.12" y1="44" x2="490.12" y2="494" stroke="#cccccc" stroke-width="1" /><line x1="534.5600000000001" y1="44" x2="534.5600000000001" y2="494" stroke="#cccccc" stroke-width="1" /><line x1="580.47" y1="44" x2="580.47" y2="494" stroke="#cccccc" stroke-width="1" /><line x1="624.91" y1="44" x2="624.91" y2="494" stroke="#cccccc" stroke-width="1" /><line x1="59" y1="404" x2="659" y2="404" stroke="#cccccc" stroke-width="1" /><line x1="59" y1="314" x2="659" y2="314" stroke="#cccccc" stroke-width="1" /><line x1="59" y1="224" x2="659" y2="224" stroke="#cccccc" stroke-width="1" /><line x1="59" y1="134" x2="659" y2="134" stroke="#cccccc" stroke-width="1" /><line x1="59" y1="44" x2="659" y2="44" stroke="#cccccc" stroke-width="1" /><line x1="59" y1="494" x2="659" y2="494" stroke="#000000" stroke-width="1" /><line x1="59" y1="44" x2="59" y2="494" stroke="#000000" stroke-width="1" /><line x1="82.81" y1="494" x2="82.81" y2="499" stroke="#000000" stroke-width="1" /><text x="82.81" y="511" font-size="12" text-anchor="end" transform="rotate(-45,82.81,511)">Dec 2023</text><line x1="128.72" y1="494" x2="128.72" y2="499" stroke="#000000" stroke-width="1" /><text x="128.72" y="511" font-size="12" text-anchor="end" transform="rotate(-45,128.72,511)">Jan 2024</text><line x1="174.64000000000001" y1="494" x2="174.64000000000001" y2="499" stroke="#000000" stroke-width="1" /><text x="174.64000000000001" y="511" font-size="12" text-anchor="end" transform="rotate(-45,174.64000000000001,511)">Feb 2024</text><line x1="217.59" y1="494" x2="217.59" y2="499" stroke="#000000" stroke-width="1" /><text x="217.59" y="511" font-size="12" text-anchor="end" transform="rotate(-45,217.59,511)">Mar 2024</text><line x1="263.51" y1="494" x2="263.51" y2="499" stroke="#000000" stroke-width="1" /><text x="263.51" y="511" font-size="12" text-anchor="end" transform="rotate(-45,263.51,511)">Apr 2024</text><line x1="307.94" y1="494" x2="307.94" y2="499" stroke="#000000" stroke-width="1" /><text x="307.94" y="511" font-size="12" text-anchor="end" transform="rotate(-45,307.94,511)">May 2024</text><line x1="353.86" y1="494" x2="353.86" y2="499" stroke="#000000" stroke-width="1" /><text x="353.86" y="511" font-size="12" text-anchor="end" transform="rotate(-45,353.86,511)">Jun 2024</text><line x1="398.29" y1="494" x2="398.29" y2="499" stroke="#000000" stroke-width="1" /><text x="398.29" y="511" font-size="12" text-anchor="end" transform="rotate(-45,398.29,511)">Jul 2024</text><line x1="444.21000000000004" y1="494" x2="444.21000000000004" y2="499" stroke="#000000" stroke-width="1" /><text x="444.21000000000004" y="511" font-size="12" text-anchor="end" transform="rotate(-45,444.21000000000004,511)">Aug 2024</text><line x1="490.12" y1="494" x2="490.12" y2="499" stroke="#000000" stroke-width="1" /><text x="490.12" y="511" font-size="12" text-anchor="end" transform="rotate(-45,490.12,511)">Sep 2024</text><line x1="534.5600000000001" y1="494" x2="534.5600000000001" y2="499" stroke="#000000" stroke-width="1" /><text x="534.5600000000001" y="511" font-size="12" text-anchor="end" transform="rotate(-45,534.5600000000001,511)">Oct 2024</text><line x1="580.47" y1="494" x2="580.47" y2="499" stroke="#000000" stroke-width="1" /><text x="580.47" y="511" font-size="12" text-anchor="end" transform="rotate(-45,580.47,511)">Nov 2024</text><line x1="624.91" y1="494" x2="624.91" y2="499" stroke="#000000" stroke-width="1" /><text x="624.91" y="511" font-size="12" text-anchor="end" transform="rotate(-45,624.91,511)">Dec 2024</text><line x1="54" y1="494" x2="59" y2="494" stroke="#000000" stroke-width="1" /><text x="51" y="498.2" font-size="12" text-anchor="end">0</text><line x1="54" y1="404" x2="59" y2="404" stroke="#000000" stroke-width="1" /><text x="51" y="408.2" font-size="12" text-anchor="end">5</text><line x1="54" y1="314" x2="59" y2="314" stroke="#000000" stroke-width="1" /><text x="51" y="318.2" font-size="12" text-anchor="end">10</text><line x1="54" y1="224" x2="59" y2="224" stroke="#000000" stroke-width="1" /><text x="51" y="228.20000000000002" font-size="12" text-anchor="end">15</text><line x1="54" y1="134" x2="59" y2="134" stroke="#000000" stroke-width="1" /><text x="51" y="138.20000000000002" font-size="12" text-anchor="end">20</text><line x1="54" y1="44" x2="59" y2="44" stroke="#000000" stroke-width="1" /><text x="51" y="48.2" font-size="12" text-anchor="end">25</text><text x="359" y="564.91" font-size="14" text-anchor="middle">Month</text><text x="15" y="285.96" font-size="14" text-anchor="middle" transform="rotate(-90,15,285.96)">Temperature (°C)</text><text x="336.5" y="27.400000000000002" font-size="18" text-anchor="middle">Monthly Average Temperature — 2024</text><g clip-path="url(#kuva-clip-0)"><path d="M 128.72 436.40000000000003 L 174.64000000000001 407.6 L 217.59 348.2 L 263.51 270.8 L 307.94 189.8 L 353.86 128.6 L 398.29 85.4 L 444.21000000000004 96.2 L 490.12 173.6 L 534.5600000000001 272.6 L 580.47 366.2 L 624.91 423.8 " stroke="#4682b4" stroke-width="2" fill="none" /></g></svg>