<svg xmlns="http://www.w3.org/2000/svg" width="695" height="545" font-family="DejaVu Sans, Liberation Sans, Arial, sans-serif" fill="black"><rect width="100%" height="100%" fill="white" /><defs><clipPath id="kuva-clip-3"><rect x="59" y="44" width="600" height="450"/></clipPath></defs><line x1="68" y1="44" x2="68" y2="494" stroke="#cccccc" stroke-width="1" /><line x1="122" y1="44" x2="122" y2="494" stroke="#cccccc" stroke-width="1" /><line x1="176" y1="44" x2="176" y2="494" stroke="#cccccc" stroke-width="1" /><line x1="230" y1="44" x2="230" y2="494" stroke="#cccccc" stroke-width="1" /><line x1="284" y1="44" x2="284" y2="494" stroke="#cccccc" stroke-width="1" /><line x1="338" y1="44" x2="338" y2="494" stroke="#cccccc" stroke-width="1" /><line x1="392" y1="44" x2="392" y2="494" stroke="#cccccc" stroke-width="1" /><line x1="446" y1="44" x2="446" y2="494" stroke="#cccccc" stroke-width="1" /><line x1="500" y1="44" x2="500" y2="494" stroke="#cccccc" stroke-width="1" /><line x1="554" y1="44" x2="554" y2="494" stroke="#cccccc" stroke-width="1" /><line x1="608" y1="44" x2="608" y2="494" stroke="#cccccc" stroke-width="1" /><line x1="59" y1="404" x2="659" y2="404" stroke="#cccccc" stroke-width="1" /><line x1="59" y1="314" x2="659" y2="314" stroke="#cccccc" stroke-width="1" /><line x1="59" y1="224" x2="659" y2="224" stroke="#cccccc" stroke-width="1" /><line x1="59" y1="134" x2="659" y2="134" stroke="#cccccc" stroke-width="1" /><line x1="59" y1="44" x2="659" y2="44" stroke="#cccccc" stroke-width="1" /><line x1="59" y1="494" x2="659" y2="494" stroke="#000000" stroke-width="1" /><line x1="59" y1="44" x2="59" y2="494" stroke="#000000" stroke-width="1" /><line x1="68" y1="494" x2="68" y2="499" stroke="#000000" stroke-width="1" /><text x="68" y="511" font-size="12" text-anchor="middle">07:00</text><line x1="122" y1="494" x2="122" y2="499" stroke="#000000" stroke-width="1" /><text x="122" y="511" font-size="12" text-anchor="middle">08:00</text><line x1="176" y1="494" x2="176" y2="499" stroke="#000000" stroke-width="1" /><text x="176" y="511" font-size="12" text-anchor="middle">09:00</text><line x1="230" y1="494" x2="230" y2="499" stroke="#000000" stroke-width="1" /><text x="230" y="511" font-size="12" text-anchor="middle">10:00</text><line x1="284" y1="494" x2="284" y2="499" stroke="#000000" stroke-width="1" /><text x="284" y="511" font-size="12" text-anchor="middle">11:00</text><line x1="338" y1="494" x2="338" y2="499" stroke="#000000" stroke-width="1" /><text x="338" y="511" font-size="12" text-anchor="middle">12:00</text><line x1="392" y1="494" x2="392" y2="499" stroke="#000000" stroke-width="1" /><text x="392" y="511" font-size="12" text-anchor="middle">13:00</text><line x1="446" y1="494" x2="446" y2="499" stroke="#000000" stroke-width="1" /><text x="446" y="511" font-size="12" text-anchor="middle">14:00</text><line x1="500" y1="494" x2="500" y2="499" stroke="#000000" stroke-width="1" /><text x="500" y="511" font-size="12" text-anchor="middle">15:00</text><line x1="554" y1="494" x2="554" y2="499" stroke="#000000" stroke-width="1" /><text x="554" y="511" font-size="12" text-anchor="middle">16:00</text><line x1="608" y1="494" x2="608" y2="499" stroke="#000000" stroke-width="1" /><text x="608" y="511" font-size="12" text-anchor="middle">17:00</text><line x1="54" y1="494" x2="59" y2="494" stroke="#000000" stroke-width="1" /><text x="51" y="498.2" font-size="12" text-anchor="end">0</text><line x1="54" y1="404" x2="59" y2="404" stroke="#000000" stroke-width="1" /><text x="51" y="408.2" font-size="12" text-anchor="end">20</text><line x1="54" y1="314" x2="59" y2="314" stroke="#000000" stroke-width="1" /><text x="51" y="318.2" font-size="12" text-anchor="end">40</text><line x1="54" y1="224" x2="59" y2="224" stroke="#000000" stroke-width="1" /><text x="51" y="228.20000000000002" font-size="12" text-anchor="end">60</text><line x1="54" y1="134" x2="59" y2="134" stroke="#000000" stroke-width="1" /><text x="51" y="138.20000000000002" font-size="12" text-anchor="end">80</text><line x1="54" y1="44" x2="59" y2="44" stroke="#000000" stroke-width="1" /><text x="51" y="48.2" font-size="12" text-anchor="end">100</text><text x="359" y="538" font-size="14" text-anchor="middle">Time</text><text x="15" y="272.5" font-size="14" text-anchor="middle" transform="rotate(-90,15,272.5)">Utilisation (%)</text><text x="347.5" y="27.400000000000002" font-size="18" text-anchor="middle">CPU Utilisation — 12 Jun 2024</text><g clip-path="url(#kuva-clip-3)"><path d="M 122.0 438.2 L 176.0 337.85 L 230.0 232.1 L 284.0 172.25 L 338.0 290.15000000000003 L 392.0 322.55 L 446.0 211.4 L 500.0 136.70000000000002 L 554.0 111.05 L 608.0 195.65 " stroke="mediumseagreen" stroke-width="2" fill="none" /></g></svg>