<svg xmlns="http://www.w3.org/2000/svg" width="809" height="571.91" font-family="DejaVu Sans, Liberation Sans, Arial, sans-serif" fill="black"><rect width="100%" height="100%" fill="white" /><defs><clipPath id="kuva-clip-1"><rect x="59" y="44" width="600" height="450"/></clipPath></defs><line x1="74.17" y1="44" x2="74.17" y2="494" stroke="#cccccc" stroke-width="1" /><line x1="110.46000000000001" y1="44" x2="110.46000000000001" y2="494" stroke="#cccccc" stroke-width="1" /><line x1="146.74" y1="44" x2="146.74" y2="494" stroke="#cccccc" stroke-width="1" /><line x1="183.03" y1="44" x2="183.03" y2="494" stroke="#cccccc" stroke-width="1" /><line x1="219.32" y1="44" x2="219.32" y2="494" stroke="#cccccc" stroke-width="1" /><line x1="255.61" y1="44" x2="255.61" y2="494" stroke="#cccccc" stroke-width="1" /><line x1="291.90000000000003" y1="44" x2="291.90000000000003" y2="494" stroke="#cccccc" stroke-width="1" /><line x1="328.18" y1="44" x2="328.18" y2="494" stroke="#cccccc" stroke-width="1" /><line x1="364.47" y1="44" x2="364.47" y2="494" stroke="#cccccc" stroke-width="1" /><line x1="400.76" y1="44" x2="400.76" y2="494" stroke="#cccccc" stroke-width="1" /><line x1="437.05" y1="44" x2="437.05" y2="494" stroke="#cccccc" stroke-width="1" /><line x1="473.34000000000003" y1="44" x2="473.34000000000003" y2="494" stroke="#cccccc" stroke-width="1" /><line x1="509.62" y1="44" x2="509.62" y2="494" stroke="#cccccc" stroke-width="1" /><line x1="545.91" y1="44" x2="545.91" y2="494" stroke="#cccccc" stroke-width="1" /><line x1="582.2" y1="44" x2="582.2" y2="494" stroke="#cccccc" stroke-width="1" /><line x1="618.49" y1="44" x2="618.49" y2="494" stroke="#cccccc" stroke-width="1" /><line x1="654.78" y1="44" x2="654.78" y2="494" stroke="#cccccc" stroke-width="1" /><line x1="59" y1="404" x2="659" y2="404" stroke="#cccccc" stroke-width="1" /><line x1="59" y1="314" x2="659" y2="314" stroke="#cccccc" stroke-width="1" /><line x1="59" y1="224" x2="659" y2="224" stroke="#cccccc" stroke-width="1" /><line x1="59" y1="134" x2="659" y2="134" stroke="#cccccc" stroke-width="1" /><line x1="59" y1="44" x2="659" y2="44" stroke="#cccccc" stroke-width="1" /><line x1="59" y1="494" x2="659" y2="494" stroke="#000000" stroke-width="1" /><line x1="59" y1="44" x2="59" y2="494" stroke="#000000" stroke-width="1" /><line x1="74.17" y1="494" x2="74.17" y2="499" stroke="#000000" stroke-width="1" /><text x="74.17" y="511" font-size="12" text-anchor="end" transform="rotate(-45,74.17,511)">Dec 11</text><line x1="110.46000000000001" y1="494" x2="110.46000000000001" y2="499" stroke="#000000" stroke-width="1" /><text x="110.46000000000001" y="511" font-size="12" text-anchor="end" transform="rotate(-45,110.46000000000001,511)">Dec 18</text><line x1="146.74" y1="494" x2="146.74" y2="499" stroke="#000000" stroke-width="1" /><text x="146.74" y="511" font-size="12" text-anchor="end" transform="rotate(-45,146.74,511)">Dec 25</text><line x1="183.03" y1="494" x2="183.03" y2="499" stroke="#000000" stroke-width="1" /><text x="183.03" y="511" font-size="12" text-anchor="end" transform="rotate(-45,183.03,511)">Jan 01</text><line x1="219.32" y1="494" x2="219.32" y2="499" stroke="#000000" stroke-width="1" /><text x="219.32" y="511" font-size="12" text-anchor="end" transform="rotate(-45,219.32,511)">Jan 08</text><line x1="255.61" y1="494" x2="255.61" y2="499" stroke="#000000" stroke-width="1" /><text x="255.61" y="511" font-size="12" text-anchor="end" transform="rotate(-45,255.61,511)">Jan 15</text><line x1="291.90000000000003" y1="494" x2="291.90000000000003" y2="499" stroke="#000000" stroke-width="1" /><text x="291.90000000000003" y="511" font-size="12" text-anchor="end" transform="rotate(-45,291.90000000000003,511)">Jan 22</text><line x1="328.18" y1="494" x2="328.18" y2="499" stroke="#000000" stroke-width="1" /><text x="328.18" y="511" font-size="12" text-anchor="end" transform="rotate(-45,328.18,511)">Jan 29</text><line x1="364.47" y1="494" x2="364.47" y2="499" stroke="#000000" stroke-width="1" /><text x="364.47" y="511" font-size="12" text-anchor="end" transform="rotate(-45,364.47,511)">Feb 05</text><line x1="400.76" y1="494" x2="400.76" y2="499" stroke="#000000" stroke-width="1" /><text x="400.76" y="511" font-size="12" text-anchor="end" transform="rotate(-45,400.76,511)">Feb 12</text><line x1="437.05" y1="494" x2="437.05" y2="499" stroke="#000000" stroke-width="1" /><text x="437.05" y="511" font-size="12" text-anchor="end" transform="rotate(-45,437.05,511)">Feb 19</text><line x1="473.34000000000003" y1="494" x2="473.34000000000003" y2="499" stroke="#000000" stroke-width="1" /><text x="473.34000000000003" y="511" font-size="12" text-anchor="end" transform="rotate(-45,473.34000000000003,511)">Feb 26</text><line x1="509.62" y1="494" x2="509.62" y2="499" stroke="#000000" stroke-width="1" /><text x="509.62" y="511" font-size="12" text-anchor="end" transform="rotate(-45,509.62,511)">Mar 04</text><line x1="545.91" y1="494" x2="545.91" y2="499" stroke="#000000" stroke-width="1" /><text x="545.91" y="511" font-size="12" text-anchor="end" transform="rotate(-45,545.91,511)">Mar 11</text><line x1="582.2" y1="494" x2="582.2" y2="499" stroke="#000000" stroke-width="1" /><text x="582.2" y="511" font-size="12" text-anchor="end" transform="rotate(-45,582.2,511)">Mar 18</text><line x1="618.49" y1="494" x2="618.49" y2="499" stroke="#000000" stroke-width="1" /><text x="618.49" y="511" font-size="12" text-anchor="end" transform="rotate(-45,618.49,511)">Mar 25</text><line x1="654.78" y1="494" x2="654.78" y2="499" stroke="#000000" stroke-width="1" /><text x="654.78" y="511" font-size="12" text-anchor="end" transform="rotate(-45,654.78,511)">Apr 01</text><line x1="54" y1="494" x2="59" y2="494" stroke="#000000" stroke-width="1" /><text x="51" y="498.2" font-size="12" text-anchor="end">0</text><line x1="54" y1="404" x2="59" y2="404" stroke="#000000" stroke-width="1" /><text x="51" y="408.2" font-size="12" text-anchor="end">20</text><line x1="54" y1="314" x2="59" y2="314" stroke="#000000" stroke-width="1" /><text x="51" y="318.2" font-size="12" text-anchor="end">40</text><line x1="54" y1="224" x2="59" y2="224" stroke="#000000" stroke-width="1" /><text x="51" y="228.20000000000002" font-size="12" text-anchor="end">60</text><line x1="54" y1="134" x2="59" y2="134" stroke="#000000" stroke-width="1" /><text x="51" y="138.20000000000002" font-size="12" text-anchor="end">80</text><line x1="54" y1="44" x2="59" y2="44" stroke="#000000" stroke-width="1" /><text x="51" y="48.2" font-size="12" text-anchor="end">100</text><text x="359" y="564.91" font-size="14" text-anchor="middle">Date</text><text x="15" y="285.96" font-size="14" text-anchor="middle" transform="rotate(-90,15,285.96)">Quality Score</text><text x="404.5" y="27.400000000000002" font-size="18" text-anchor="middle">Instrument Quality Scores — Q1 2024</text><g clip-path="url(#kuva-clip-1)"><circle cx="193.4" cy="101.60000000000001" r="5" fill="#4682b4" /><circle cx="219.32" cy="93.05" r="5" fill="#4682b4" /><circle cx="255.61" cy="108.35000000000001" r="5" fill="#4682b4" /><circle cx="291.90000000000003" cy="83.15" r="5" fill="#4682b4" /><circle cx="328.18" cy="95.3" r="5" fill="#4682b4" /><circle cx="364.47" cy="88.10000000000001" r="5" fill="#4682b4" /><circle cx="400.76" cy="105.2" r="5" fill="#4682b4" /><circle cx="437.05" cy="76.4" r="5" fill="#4682b4" /><circle cx="473.34000000000003" cy="93.5" r="5" fill="#4682b4" /><circle cx="509.62" cy="75.05" r="5" fill="#4682b4" /><circle cx="545.91" cy="85.85000000000001" r="5" fill="#4682b4" /><circle cx="582.2" cy="70.10000000000001" r="5" fill="#4682b4" /><circle cx="618.49" cy="80.9" r="5" fill="#4682b4" /><circle cx="198.58" cy="124.55" r="5" fill="#ff7f50" /><circle cx="229.69" cy="114.65" r="5" fill="#ff7f50" /><circle cx="265.98" cy="125.45" r="5" fill="#ff7f50" /><circle cx="302.26" cy="108.8" r="5" fill="#ff7f50" /><circle cx="338.55" cy="119.60000000000001" r="5" fill="#ff7f50" /><circle cx="374.84000000000003" cy="106.55" r="5" fill="#ff7f50" /><circle cx="411.13" cy="112.4" r="5" fill="#ff7f50" /><circle cx="447.42" cy="100.25" r="5" fill="#ff7f50" /><circle cx="483.7" cy="107.45" r="5" fill="#ff7f50" /><circle cx="519.99" cy="96.65" r="5" fill="#ff7f50" /><circle cx="556.28" cy="103.85000000000001" r="5" fill="#ff7f50" /><circle cx="592.57" cy="91.7" r="5" fill="#ff7f50" /><circle cx="628.86" cy="102.05" r="5" fill="#ff7f50" /></g><rect x="664" y="34" width="136" height="56" fill="#ffffff" /><rect x="664" y="34" width="136" height="56" fill="none" stroke="#000000" stroke-width="1" /><text x="694" y="53.2" font-size="12" text-anchor="start">Instrument A</text><circle cx="679" cy="49" r="5" fill="#4682b4" /><text x="694" y="71.2" font-size="12" text-anchor="start">Instrument B</text><circle cx="679" cy="67" r="5" fill="#ff7f50" /></svg>