<svg xmlns="http://www.w3.org/2000/svg" width="560" height="460" font-family="DejaVu Sans, Liberation Sans, Arial, sans-serif" fill="black"><rect width="100%" height="100%" fill="white" /><defs><style>g.tt{cursor:pointer;}g.tt:hover>*{opacity:0.75;}</style></defs><text x="280" y="27.400000000000002" font-size="18" text-anchor="middle">OS Market Share</text><g class="tt"><title>Desktop
94.0000</title><path d="M304.7,226.5 L304.7,138.25 A88.25,88.25 0 0,1 318.64,313.64 Z" stroke="#ffffff" stroke-width="0.8" fill="#1f77b4" /><text x="348.69" y="223" font-size="11" text-anchor="middle" fill="#ffffff" transform="rotate(-4.55,348.69,223)">Desktop</text></g><g class="tt"><title>Mobile
100.0000</title><path d="M304.7,226.5 L318.64,313.64 A88.25,88.25 0 1,1 293.53000000000003,138.96 Z" stroke="#ffffff" stroke-width="0.8" fill="#ff7f0e" /><text x="261.02" y="232.78" font-size="11" text-anchor="middle" fill="#ffffff" transform="rotate(-8.18,261.02,232.78)">Mobile</text></g><g class="tt"><title>Other
4.0000</title><path d="M304.7,226.5 L293.53000000000003,138.96 A88.25,88.25 0 0,1 304.7,138.25 Z" stroke="#ffffff" stroke-width="0.8" fill="#2ca02c" /></g><g class="tt"><title>Windows
72.0000</title><path d="M304.7,49 A177.5,177.5 0 0,1 438.85,342.74 L372.15000000000003,284.95 A89.25,89.25 0 0,0 304.7,137.25 Z" stroke="#ffffff" stroke-width="0.8" fill="#1f77b4" /><text x="426.02" y="171.09" font-size="11" text-anchor="middle" fill="#ffffff" transform="rotate(-24.55,426.02,171.09)">Windows</text></g><g class="tt"><title>macOS
16.0000</title><path d="M438.85,342.74 A177.5,177.5 0 0,1 365.41,393.3 L335.23,310.37 A89.25,89.25 0 0,0 372.15000000000003,284.95 Z" stroke="#ffffff" stroke-width="0.8" fill="#1f77b4" /><text x="380.33" y="336.36" font-size="11" text-anchor="middle" fill="#ffffff" transform="rotate(-124.55,380.33,336.36)">macOS</text></g><g class="tt"><title>Linux
4.0000</title><path d="M365.41,393.3 A177.5,177.5 0 0,1 343.81,399.64 L324.36,313.56 A89.25,89.25 0 0,0 335.23,310.37 Z" stroke="#ffffff" stroke-width="0.8" fill="#1f77b4" /></g><g class="tt"><title>ChromeOS
2.0000</title><path d="M343.81,399.64 A177.5,177.5 0 0,1 332.75,401.77 L318.8,314.63 A89.25,89.25 0 0,0 324.36,313.56 Z" stroke="#ffffff" stroke-width="0.8" fill="#1f77b4" /></g><g class="tt"><title>Android
72.0000</title><path d="M332.75,401.77 A177.5,177.5 0 0,1 153.87,132.92000000000002 L228.86,179.45000000000002 A89.25,89.25 0 0,0 318.8,314.63 Z" stroke="#ffffff" stroke-width="0.8" fill="#ff7f0e" /><text x="193.66" y="300.38" font-size="11" text-anchor="middle" fill="#ffffff" transform="rotate(-33.64,193.66,300.38)">Android</text></g><g class="tt"><title>iOS
28.0000</title><path d="M153.87,132.92000000000002 A177.5,177.5 0 0,1 282.23,50.43 L293.40000000000003,137.97 A89.25,89.25 0 0,0 228.86,179.45000000000002 Z" stroke="#ffffff" stroke-width="0.8" fill="#ff7f0e" /><text x="232.59" y="114.3" font-size="11" text-anchor="middle" fill="#ffffff" transform="rotate(237.27,232.59,114.3)">iOS</text></g><g class="tt"><title>Smart TV
2.5000</title><path d="M282.23,50.43 A177.5,177.5 0 0,1 296.25,49.2 L300.45,137.35 A89.25,89.25 0 0,0 293.40000000000003,137.97 Z" stroke="#ffffff" stroke-width="0.8" fill="#2ca02c" /></g><g class="tt"><title>Console
1.5000</title><path d="M296.25,49.2 A177.5,177.5 0 0,1 304.7,49 L304.7,137.25 A89.25,89.25 0 0,0 300.45,137.35 Z" stroke="#ffffff" stroke-width="0.8" fill="#2ca02c" /></g></svg>