<svg xmlns="http://www.w3.org/2000/svg" width="560" height="460" font-family="DejaVu Sans, Liberation Sans, Arial, sans-serif" fill="black"><rect width="100%" height="100%" fill="white" /><defs><style>g.tt{cursor:pointer;}g.tt:hover>*{opacity:0.75;}</style></defs><text x="280" y="27.400000000000002" font-size="18" text-anchor="middle">Quarterly Revenue by Month</text><g class="tt"><title>Q1
135.0000</title><path d="M304.7,111.48 A115.02499999999999,115.02499999999999 0 0,1 408.63,177.21 L353.08,203.55 A53.55,53.55 0 0,0 304.7,172.95000000000002 Z" stroke="#ffffff" stroke-width="0.8" fill="#1f77b4" /><text x="349.76" y="155.27" font-size="11" text-anchor="middle" fill="#ffffff" transform="rotate(-57.69,349.76,155.27)">Q1</text></g><g class="tt"><title>Q2
196.0000</title><path d="M408.63,177.21 A115.02499999999999,115.02499999999999 0 0,1 346.94,333.49 L324.36,276.31 A53.55,53.55 0 0,0 353.08,203.55 Z" stroke="#ffffff" stroke-width="0.8" fill="#ff7f0e" /><text x="383.1" y="257.45" font-size="11" text-anchor="middle" fill="#ffffff" transform="rotate(-158.46,383.1,257.45)">Q2</text></g><g class="tt"><title>Q3
173.0000</title><path d="M346.94,333.49 A115.02499999999999,115.02499999999999 0 0,1 203.83,281.78000000000003 L257.74,252.24 A53.55,53.55 0 0,0 324.36,276.31 Z" stroke="#ffffff" stroke-width="0.8" fill="#2ca02c" /><text x="276.06" y="305.77" font-size="11" text-anchor="middle" fill="#ffffff" transform="rotate(-70.13,276.06,305.77)">Q3</text></g><g class="tt"><title>Q4
248.0000</title><path d="M203.83,281.78000000000003 A115.02499999999999,115.02499999999999 0 0,1 304.7,111.48 L304.7,172.95000000000002 A53.55,53.55 0 0,0 257.74,252.24 Z" stroke="#ffffff" stroke-width="0.8" fill="#d62728" /><text x="232.18" y="183.55" font-size="11" text-anchor="middle" fill="#ffffff" transform="rotate(210.64000000000001,232.18,183.55)">Q4</text></g><g class="tt"><title>Jan
42.0000</title><path d="M304.7,49 A177.5,177.5 0 0,1 365.72,59.82 L344.59000000000003,117.55 A116.02499999999999,116.02499999999999 0 0,0 304.7,110.48 Z" stroke="#ffffff" stroke-width="0.8" fill="#1f77b4" /><text x="330.32" y="81.99" font-size="11" text-anchor="middle" fill="#ffffff" transform="rotate(-79.95,330.32,81.99)">Jan</text></g><g class="tt"><title>Feb
38.0000</title><path d="M365.72,59.82 A177.5,177.5 0 0,1 414.71000000000004,87.2 L376.61,135.44 A116.02499999999999,116.02499999999999 0 0,0 344.59000000000003,117.55 Z" stroke="#ffffff" stroke-width="0.8" fill="#1f77b4" /><text x="376.3" y="98.39" font-size="11" text-anchor="middle" fill="#ffffff" transform="rotate(-60.800000000000004,376.3,98.39)">Feb</text></g><g class="tt"><title>Mar
55.0000</title><path d="M414.71000000000004,87.2 A177.5,177.5 0 0,1 465.08,150.44 L409.53000000000003,176.78 A116.02499999999999,116.02499999999999 0 0,0 376.61,135.44 Z" stroke="#ffffff" stroke-width="0.8" fill="#1f77b4" /><text x="419.5" y="135.06" font-size="11" text-anchor="middle" fill="#ffffff" transform="rotate(-38.54,419.5,135.06)">Mar</text></g><g class="tt"><title>Apr
61.0000</title><path d="M465.08,150.44 A177.5,177.5 0 0,1 481.8,238.36 L420.47,234.25 A116.02499999999999,116.02499999999999 0 0,0 409.53000000000003,176.78 Z" stroke="#ffffff" stroke-width="0.8" fill="#ff7f0e" /><text x="448.88" y="199.07" font-size="11" text-anchor="middle" fill="#ffffff" transform="rotate(-10.77,448.88,199.07)">Apr</text></g><g class="tt"><title>May
70.0000</title><path d="M481.8,238.36 A177.5,177.5 0 0,1 445.82,334.16 L396.95,296.87 A116.02499999999999,116.02499999999999 0 0,0 420.47,234.25 Z" stroke="#ffffff" stroke-width="0.8" fill="#ff7f0e" /><text x="442.09000000000003" y="278.1" font-size="11" text-anchor="middle" fill="#ffffff" transform="rotate(-159.41,442.09000000000003,278.1)">May</text></g><g class="tt"><title>Jun
65.0000</title><path d="M445.82,334.16 A177.5,177.5 0 0,1 369.88,391.6 L347.3,334.42 A116.02499999999999,116.02499999999999 0 0,0 396.95,296.87 Z" stroke="#ffffff" stroke-width="0.8" fill="#ff7f0e" /><text x="393.23" y="343.55" font-size="11" text-anchor="middle" fill="#ffffff" transform="rotate(-127.10000000000001,393.23,343.55)">Jun</text></g><g class="tt"><title>Jul
58.0000</title><path d="M369.88,391.6 A177.5,177.5 0 0,1 285.46,402.95 L292.12,341.84000000000003 A116.02499999999999,116.02499999999999 0 0,0 347.3,334.42 Z" stroke="#ffffff" stroke-width="0.8" fill="#2ca02c" /><text x="324.26" y="371.95" font-size="11" text-anchor="middle" fill="#ffffff" transform="rotate(-97.66,324.26,371.95)">Jul</text></g><g class="tt"><title>Aug
52.0000</title><path d="M285.46,402.95 A177.5,177.5 0 0,1 212.97,378.46 L244.74,325.83 A116.02499999999999,116.02499999999999 0 0,0 292.12,341.84000000000003 Z" stroke="#ffffff" stroke-width="0.8" fill="#2ca02c" /><text x="257.72" y="365.54" font-size="11" text-anchor="middle" fill="#ffffff" transform="rotate(-71.33,257.72,365.54)">Aug</text></g><g class="tt"><title>Sep
63.0000</title><path d="M212.97,378.46 A177.5,177.5 0 0,1 149.04,311.8 L202.95000000000002,282.26 A116.02499999999999,116.02499999999999 0 0,0 244.74,325.83 Z" stroke="#ffffff" stroke-width="0.8" fill="#2ca02c" /><text x="198.78" y="328.09000000000003" font-size="11" text-anchor="middle" fill="#ffffff" transform="rotate(-43.800000000000004,198.78,328.09000000000003)">Sep</text></g><g class="tt"><title>Oct
71.0000</title><path d="M149.04,311.8 A177.5,177.5 0 0,1 127.95,210.21 L189.16,215.85 A116.02499999999999,116.02499999999999 0 0,0 202.95000000000002,282.26 Z" stroke="#ffffff" stroke-width="0.8" fill="#d62728" /><text x="161" y="256.33" font-size="11" text-anchor="middle" fill="#ffffff" transform="rotate(-11.73,161,256.33)">Oct</text></g><g class="tt"><title>Nov
85.0000</title><path d="M127.95,210.21 A177.5,177.5 0 0,1 181.3,98.91 L224.04,143.1 A116.02499999999999,116.02499999999999 0 0,0 189.16,215.85 Z" stroke="#ffffff" stroke-width="0.8" fill="#d62728" /><text x="172.36" y="163.06" font-size="11" text-anchor="middle" fill="#ffffff" transform="rotate(205.61,172.36,163.06)">Nov</text></g><g class="tt"><title>Dec
92.0000</title><path d="M181.3,98.91 A177.5,177.5 0 0,1 304.7,49 L304.7,110.48 A116.02499999999999,116.02499999999999 0 0,0 224.04,143.1 Z" stroke="#ffffff" stroke-width="0.8" fill="#d62728" /><text x="249.67000000000002" y="90.44" font-size="11" text-anchor="middle" fill="#ffffff" transform="rotate(247.98000000000002,249.67000000000002,90.44)">Dec</text></g></svg>