<svg xmlns="http://www.w3.org/2000/svg" width="673.4" height="545" font-family="DejaVu Sans, Liberation Sans, Arial, sans-serif" fill="black"><rect width="100%" height="100%" fill="white" /><defs><clipPath id="kuva-clip-0"><rect x="59" y="44" width="600" height="450"/></clipPath></defs><line x1="184" y1="44" x2="184" y2="494" stroke="#cccccc" stroke-width="1" /><line x1="309" y1="44" x2="309" y2="494" stroke="#cccccc" stroke-width="1" /><line x1="434" y1="44" x2="434" y2="494" stroke="#cccccc" stroke-width="1" /><line x1="559" y1="44" x2="559" y2="494" stroke="#cccccc" stroke-width="1" /><line x1="59" y1="400.25" x2="659" y2="400.25" stroke="#cccccc" stroke-width="1" /><line x1="59" y1="306.5" x2="659" y2="306.5" stroke="#cccccc" stroke-width="1" /><line x1="59" y1="212.75" x2="659" y2="212.75" stroke="#cccccc" stroke-width="1" /><line x1="59" y1="119" x2="659" y2="119" stroke="#cccccc" stroke-width="1" /><line x1="59" y1="494" x2="659" y2="494" stroke="#000000" stroke-width="1" /><line x1="59" y1="44" x2="59" y2="494" stroke="#000000" stroke-width="1" /><line x1="59" y1="494" x2="59" y2="499" stroke="#000000" stroke-width="1" /><text x="59" y="511" font-size="12" text-anchor="middle">0</text><line x1="184" y1="494" x2="184" y2="499" stroke="#000000" stroke-width="1" /><text x="184" y="511" font-size="12" text-anchor="middle">0.25</text><line x1="309" y1="494" x2="309" y2="499" stroke="#000000" stroke-width="1" /><text x="309" y="511" font-size="12" text-anchor="middle">0.5</text><line x1="434" y1="494" x2="434" y2="499" stroke="#000000" stroke-width="1" /><text x="434" y="511" font-size="12" text-anchor="middle">0.75</text><line x1="559" y1="494" x2="559" y2="499" stroke="#000000" stroke-width="1" /><text x="559" y="511" font-size="12" text-anchor="middle">1</text><line x1="54" y1="494" x2="59" y2="494" stroke="#000000" stroke-width="1" /><text x="51" y="498.2" font-size="12" text-anchor="end">0</text><line x1="54" y1="400.25" x2="59" y2="400.25" stroke="#000000" stroke-width="1" /><text x="51" y="404.45" font-size="12" text-anchor="end">0.25</text><line x1="54" y1="306.5" x2="59" y2="306.5" stroke="#000000" stroke-width="1" /><text x="51" y="310.7" font-size="12" text-anchor="end">0.5</text><line x1="54" y1="212.75" x2="59" y2="212.75" stroke="#000000" stroke-width="1" /><text x="51" y="216.95000000000002" font-size="12" text-anchor="end">0.75</text><line x1="54" y1="119" x2="59" y2="119" stroke="#000000" stroke-width="1" /><text x="51" y="123.2" font-size="12" text-anchor="end">1</text><text x="359" y="538" font-size="14" text-anchor="middle">False Positive Rate</text><text x="15" y="272.5" font-size="14" text-anchor="middle" transform="rotate(-90,15,272.5)">True Positive Rate</text><text x="336.7" y="27.400000000000002" font-size="18" text-anchor="middle">ROC Curve</text><g clip-path="url(#kuva-clip-0)"><line x1="59" y1="494" x2="559" y2="119" stroke="#aaaaaa" stroke-width="1" stroke-dasharray="5,3" /><path d="M 59,494 L 59,491.5 L 59,489 L 59,486.5 L 59,484 L 59,481.5 L 59,479 L 59,476.5 L 59,474 L 59,471.5 L 59,469 L 59,466.5 L 59,464 L 59,461.5 L 59,459 L 59,456.5 L 59,454 L 59,451.5 L 59,449 L 59,446.5 L 59,444 L 59,441.5 L 59,439 L 59,436.5 L 59,434 L 59,431.5 L 59,429 L 59,426.5 L 59,424 L 59,421.5 L 59,419 L 59,416.5 L 59,414 L 59,411.5 L 59,409 L 59,406.5 L 59,404 L 59,401.5 L 59,399 L 59,396.5 L 59,394 L 62.33,394 L 62.33,391.5 L 62.33,389 L 62.33,386.5 L 62.33,384 L 62.33,381.5 L 62.33,379 L 62.33,376.5 L 62.33,374 L 62.33,371.5 L 62.33,369 L 62.33,366.5 L 62.33,364 L 62.33,361.5 L 62.33,359 L 62.33,356.5 L 62.33,354 L 62.33,351.5 L 62.33,349 L 62.33,346.5 L 62.33,344 L 62.33,341.5 L 62.33,339 L 62.33,336.5 L 65.67,336.5 L 65.67,334 L 65.67,331.5 L 65.67,329 L 65.67,326.5 L 65.67,324 L 65.67,321.5 L 65.67,319 L 65.67,316.5 L 65.67,314 L 65.67,311.5 L 65.67,309 L 65.67,306.5 L 65.67,304 L 65.67,301.5 L 65.67,299 L 65.67,296.5 L 69,296.5 L 69,294 L 69,291.5 L 69,289 L 69,286.5 L 69,284 L 69,281.5 L 69,279 L 69,276.5 L 69,274 L 69,271.5 L 69,269 L 72.33,269 L 72.33,266.5 L 72.33,264 L 72.33,261.5 L 72.33,259 L 72.33,256.5 L 72.33,254 L 72.33,251.5 L 72.33,249 L 75.67,249 L 75.67,246.5 L 75.67,244 L 75.67,241.5 L 75.67,239 L 75.67,236.5 L 75.67,234 L 79,234 L 79,231.5 L 79,229 L 79,226.5 L 79,224 L 79,221.5 L 82.33,221.5 L 82.33,219 L 82.33,216.5 L 82.33,214 L 82.33,211.5 L 85.67,211.5 L 85.67,209 L 85.67,206.5 L 85.67,204 L 85.67,201.5 L 89,201.5 L 89,199 L 89,196.5 L 89,194 L 92.33,194 L 92.33,191.5 L 92.33,189 L 95.67,189 L 95.67,186.5 L 95.67,184 L 99,184 L 99,181.5 L 99,179 L 102.33,179 L 102.33,176.5 L 102.33,174 L 105.67,174 L 105.67,171.5 L 109,171.5 L 109,169 L 112.33,169 L 112.33,166.5 L 115.67,166.5 L 115.67,164 L 115.67,161.5 L 119,161.5 L 122.33,161.5 L 122.33,159 L 125.67,159 L 125.67,156.5 L 129,156.5 L 129,154 L 132.33,154 L 132.33,151.5 L 135.67000000000002,151.5 L 139,151.5 L 139,149 L 142.33,149 L 145.67000000000002,149 L 145.67000000000002,146.5 L 149,146.5 L 152.33,146.5 L 152.33,144 L 155.67000000000002,144 L 159,144 L 159,141.5 L 162.33,141.5 L 165.67000000000002,141.5 L 169,141.5 L 169,139 L 172.33,139 L 175.67000000000002,139 L 179,139 L 182.33,139 L 182.33,136.5 L 185.67000000000002,136.5 L 189,136.5 L 192.33,136.5 L 195.67000000000002,136.5 L 195.67000000000002,134 L 199,134 L 202.33,134 L 205.67000000000002,134 L 209,134 L 212.33,134 L 212.33,131.5 L 215.67000000000002,131.5 L 219,131.5 L 222.33,131.5 L 225.67000000000002,131.5 L 229,131.5 L 232.33,131.5 L 232.33,129 L 235.67000000000002,129 L 239,129 L 242.33,129 L 245.67000000000002,129 L 249,129 L 252.33,129 L 255.67000000000002,129 L 259,129 L 259,126.5 L 262.33,126.5 L 265.67,126.5 L 269,126.5 L 272.33,126.5 L 275.67,126.5 L 279,126.5 L 282.33,126.5 L 285.67,126.5 L 289,126.5 L 292.33,126.5 L 295.67,126.5 L 295.67,124 L 299,124 L 302.33,124 L 305.67,124 L 309,124 L 312.33,124 L 315.67,124 L 319,124 L 322.33,124 L 325.67,124 L 329,124 L 332.33,124 L 335.67,124 L 339,124 L 342.33,124 L 345.67,124 L 349,124 L 349,121.5 L 352.33,121.5 L 355.67,121.5 L 359,121.5 L 362.33,121.5 L 365.67,121.5 L 369,121.5 L 372.33,121.5 L 375.67,121.5 L 379,121.5 L 382.33,121.5 L 385.67,121.5 L 389,121.5 L 392.33,121.5 L 395.67,121.5 L 399,121.5 L 402.33,121.5 L 405.67,121.5 L 409,121.5 L 412.33,121.5 L 415.67,121.5 L 419,121.5 L 422.33,121.5 L 425.67,121.5 L 425.67,119 L 429,119 L 432.33,119 L 435.67,119 L 439,119 L 442.33,119 L 445.67,119 L 449,119 L 452.33,119 L 455.67,119 L 459,119 L 462.33,119 L 465.67,119 L 469,119 L 472.33,119 L 475.67,119 L 479,119 L 482.33,119 L 485.67,119 L 489,119 L 492.33,119 L 495.67,119 L 499,119 L 502.33,119 L 505.67,119 L 509,119 L 512.33,119 L 515.67,119 L 519,119 L 522.33,119 L 525.67,119 L 529,119 L 532.33,119 L 535.67,119 L 539,119 L 542.33,119 L 545.67,119 L 549,119 L 552.33,119 L 555.67,119 L 559,119" stroke="#4682b4" stroke-width="2" fill="none" /></g></svg>