<svg xmlns="http://www.w3.org/2000/svg" width="600" height="440" font-family="DejaVu Sans, Liberation Sans, Arial, sans-serif" fill="black"><rect width="100%" height="100%" fill="white" /><defs><clipPath id="kuva-clip-3"><rect x="59" y="44" width="270.6" height="345"/></clipPath></defs><line x1="115.38" y1="44" x2="115.38" y2="389" stroke="#cccccc" stroke-width="1" /><line x1="171.75" y1="44" x2="171.75" y2="389" stroke="#cccccc" stroke-width="1" /><line x1="228.12" y1="44" x2="228.12" y2="389" stroke="#cccccc" stroke-width="1" /><line x1="284.5" y1="44" x2="284.5" y2="389" stroke="#cccccc" stroke-width="1" /><line x1="59" y1="317.13" x2="329.6" y2="317.13" stroke="#cccccc" stroke-width="1" /><line x1="59" y1="245.25" x2="329.6" y2="245.25" stroke="#cccccc" stroke-width="1" /><line x1="59" y1="173.38" x2="329.6" y2="173.38" stroke="#cccccc" stroke-width="1" /><line x1="59" y1="101.5" x2="329.6" y2="101.5" stroke="#cccccc" stroke-width="1" /><line x1="59" y1="389" x2="329.6" y2="389" stroke="#000000" stroke-width="1" /><line x1="59" y1="44" x2="59" y2="389" stroke="#000000" stroke-width="1" /><line x1="59" y1="389" x2="59" y2="394" stroke="#000000" stroke-width="1" /><text x="59" y="406" font-size="12" text-anchor="middle">0</text><line x1="115.38" y1="389" x2="115.38" y2="394" stroke="#000000" stroke-width="1" /><text x="115.38" y="406" font-size="12" text-anchor="middle">0.25</text><line x1="171.75" y1="389" x2="171.75" y2="394" stroke="#000000" stroke-width="1" /><text x="171.75" y="406" font-size="12" text-anchor="middle">0.5</text><line x1="228.12" y1="389" x2="228.12" y2="394" stroke="#000000" stroke-width="1" /><text x="228.12" y="406" font-size="12" text-anchor="middle">0.75</text><line x1="284.5" y1="389" x2="284.5" y2="394" stroke="#000000" stroke-width="1" /><text x="284.5" y="406" font-size="12" text-anchor="middle">1</text><line x1="54" y1="389" x2="59" y2="389" stroke="#000000" stroke-width="1" /><text x="51" y="393.2" font-size="12" text-anchor="end">0</text><line x1="54" y1="317.13" x2="59" y2="317.13" stroke="#000000" stroke-width="1" /><text x="51" y="321.33" font-size="12" text-anchor="end">0.25</text><line x1="54" y1="245.25" x2="59" y2="245.25" stroke="#000000" stroke-width="1" /><text x="51" y="249.45000000000002" font-size="12" text-anchor="end">0.5</text><line x1="54" y1="173.38" x2="59" y2="173.38" stroke="#000000" stroke-width="1" /><text x="51" y="177.58" font-size="12" text-anchor="end">0.75</text><line x1="54" y1="101.5" x2="59" y2="101.5" stroke="#000000" stroke-width="1" /><text x="51" y="105.7" font-size="12" text-anchor="end">1</text><text x="194.3" y="433" font-size="14" text-anchor="middle">1 − Specificity</text><text x="15" y="220" font-size="14" text-anchor="middle" transform="rotate(-90,15,220)">Sensitivity</text><text x="300" y="27.400000000000002" font-size="18" text-anchor="middle">Diagnostic Biomarker Comparison</text><g clip-path="url(#kuva-clip-3)"><line x1="59" y1="389" x2="284.5" y2="101.5" stroke="#aaaaaa" stroke-width="1" stroke-dasharray="5,3" /><path d="M 59,384.59000000000003 L 59,382.19 L 59,379.8 L 59,377.40000000000003 L 59,375.01 L 59,372.61 L 59,370.21 L 59,367.82 L 59,365.42 L 59,363.03000000000003 L 59,360.63 L 59,358.23 L 59,355.84000000000003 L 59,353.44 L 59,351.05 L 59,348.65000000000003 L 59,346.26 L 59,343.86 L 59,341.46 L 59,339.07 L 59,336.67 L 59,334.28000000000003 L 59,331.88 L 59,329.48 L 59,327.09000000000003 L 59,324.69 L 59,322.3 L 59,319.90000000000003 L 59,317.51 L 59,315.11 L 59,312.71 L 59,310.32 L 59,307.92 L 59,305.53000000000003 L 59,303.13 L 59,300.73 L 59,298.34000000000003 L 59,295.94 L 59,293.55 L 59,291.15000000000003 L 59,288.76 L 59,286.36 L 59,283.96 L 59,281.57 L 59,279.17 L 59,276.78000000000003 L 59,274.38 L 59,271.98 L 59,269.59000000000003 L 59,267.19 L 59,264.8 L 59,262.4 L 59,260.01 L 59,257.61 L 59,255.21 L 59,252.82 L 59,250.42000000000002 L 59,248.03 L 59,245.63 L 59,243.23000000000002 L 59,240.84 L 59,238.44 L 59,236.05 L 59,233.65 L 60.88,233.65 L 60.88,231.26 L 60.88,228.86 L 60.88,226.46 L 60.88,224.07 L 60.88,221.67000000000002 L 60.88,219.28 L 60.88,216.88 L 60.88,214.48000000000002 L 60.88,212.09 L 60.88,209.69 L 60.88,207.3 L 60.88,204.9 L 60.88,202.51 L 60.88,200.11 L 60.88,197.71 L 60.88,195.32 L 60.88,192.92000000000002 L 60.88,190.53 L 60.88,188.13 L 60.88,185.73 L 62.76,185.73 L 62.76,183.34 L 62.76,180.94 L 62.76,178.55 L 62.76,176.15 L 62.76,173.76 L 62.76,171.36 L 62.76,168.96 L 62.76,166.57 L 62.76,164.17000000000002 L 62.76,161.78 L 64.64,161.78 L 64.64,159.38 L 64.64,156.98 L 64.64,154.59 L 64.64,152.19 L 64.64,149.8 L 64.64,147.4 L 66.52,147.4 L 66.52,145.01 L 66.52,142.61 L 66.52,140.21 L 66.52,137.82 L 68.4,137.82 L 68.4,135.42000000000002 L 68.4,133.03 L 70.28,133.03 L 70.28,130.63 L 70.28,128.23 L 72.15,128.23 L 72.15,125.84 L 72.15,123.44 L 74.03,123.44 L 74.03,121.05 L 75.91,121.05 L 75.91,118.65 L 77.79,118.65 L 77.79,116.26 L 79.67,116.26 L 79.67,113.86 L 81.55,113.86 L 83.43,113.86 L 83.43,111.46000000000001 L 85.31,111.46000000000001 L 87.19,111.46000000000001 L 87.19,109.07000000000001 L 89.07000000000001,109.07000000000001 L 90.95,109.07000000000001 L 90.95,106.67 L 92.82000000000001,106.67 L 94.7,106.67 L 96.58,106.67 L 98.46000000000001,106.67 L 98.46000000000001,104.28 L 100.34,104.28 L 102.22,104.28 L 104.10000000000001,104.28 L 105.98,104.28 L 107.86,104.28 L 109.74000000000001,104.28 L 109.74000000000001,101.88 L 111.62,101.88 L 113.5,101.88 L 115.38,101.88 L 117.25,101.88 L 119.13,101.88 L 121.01,101.88 L 122.89,101.88 L 124.77,101.88 L 126.65,101.88 L 128.53,101.88 L 128.53,101.5 L 130.41,101.5 L 132.29,101.5 L 134.17000000000002,101.5 L 136.05,101.5 L 137.92000000000002,101.5 L 139.8,101.5 L 141.68,101.5 L 143.56,101.5 L 145.44,101.5 L 147.32,101.5 L 149.20000000000002,101.5 L 151.08,101.5 L 152.96,101.5 L 154.84,101.5 L 156.72,101.5 L 158.6,101.5 L 160.48,101.5 L 162.35,101.5 L 164.23,101.5 L 166.11,101.5 L 166.11,101.5 L 167.99,101.5 L 169.87,101.5 L 171.75,101.5 L 173.63,101.5 L 175.51,101.5 L 177.39000000000001,101.5 L 179.27,101.5 L 181.15,101.5 L 183.02,101.5 L 184.9,101.5 L 186.78,101.5 L 188.66,101.5 L 190.54,101.5 L 192.42000000000002,101.5 L 194.3,101.5 L 196.18,101.5 L 198.06,101.5 L 199.94,101.5 L 201.82,101.5 L 203.70000000000002,101.5 L 205.58,101.5 L 207.45000000000002,101.5 L 209.33,101.5 L 211.21,101.5 L 213.09,101.5 L 214.97,101.5 L 216.85,101.5 L 218.73000000000002,101.5 L 220.61,101.5 L 222.49,101.5 L 224.37,101.5 L 226.25,101.5 L 228.12,101.5 L 230,101.5 L 231.88,101.5 L 233.76,101.5 L 235.64000000000001,101.5 L 237.52,101.5 L 239.4,101.5 L 241.28,101.5 L 243.16,101.5 L 245.04,101.5 L 246.92000000000002,101.5 L 248.8,101.5 L 250.68,101.5 L 252.55,101.5 L 254.43,101.5 L 256.31,101.5 L 258.19,101.5 L 260.07,101.5 L 261.95,101.5 L 263.83,101.5 L 265.71,101.5 L 267.59000000000003,101.5 L 269.47,101.5 L 271.35,101.5 L 273.22,101.5 L 275.1,101.5 L 276.98,101.5 L 278.86,101.5 L 280.74,101.5 L 282.62,101.5 L 284.5,101.5 L 284.5,105.91 L 282.62,105.91 L 280.74,105.91 L 278.86,105.91 L 276.98,105.91 L 275.1,105.91 L 273.22,105.91 L 271.35,105.91 L 269.47,105.91 L 267.59000000000003,105.91 L 265.71,105.91 L 263.83,105.91 L 261.95,105.91 L 260.07,105.91 L 258.19,105.91 L 256.31,105.91 L 254.43,105.91 L 252.55,105.91 L 250.68,105.91 L 248.8,105.91 L 246.92000000000002,105.91 L 245.04,105.91 L 243.16,105.91 L 241.28,105.91 L 239.4,105.91 L 237.52,105.91 L 235.64000000000001,105.91 L 233.76,105.91 L 231.88,105.91 L 230,105.91 L 228.12,105.91 L 226.25,105.91 L 224.37,105.91 L 222.49,105.91 L 220.61,105.91 L 218.73000000000002,105.91 L 216.85,105.91 L 214.97,105.91 L 213.09,105.91 L 211.21,105.91 L 209.33,105.91 L 207.45000000000002,105.91 L 205.58,105.91 L 203.70000000000002,105.91 L 201.82,105.91 L 199.94,105.91 L 198.06,105.91 L 196.18,105.91 L 194.3,105.91 L 192.42000000000002,105.91 L 190.54,105.91 L 188.66,105.91 L 186.78,105.91 L 184.9,105.91 L 183.02,105.91 L 181.15,105.91 L 179.27,105.91 L 177.39000000000001,105.91 L 175.51,105.91 L 173.63,105.91 L 171.75,105.91 L 169.87,105.91 L 167.99,105.91 L 166.11,105.91 L 166.11,108.31 L 164.23,108.31 L 162.35,108.31 L 160.48,108.31 L 158.6,108.31 L 156.72,108.31 L 154.84,108.31 L 152.96,108.31 L 151.08,108.31 L 149.20000000000002,108.31 L 147.32,108.31 L 145.44,108.31 L 143.56,108.31 L 141.68,108.31 L 139.8,108.31 L 137.92000000000002,108.31 L 136.05,108.31 L 134.17000000000002,108.31 L 132.29,108.31 L 130.41,108.31 L 128.53,108.31 L 128.53,110.7 L 126.65,110.7 L 124.77,110.7 L 122.89,110.7 L 121.01,110.7 L 119.13,110.7 L 117.25,110.7 L 115.38,110.7 L 113.5,110.7 L 111.62,110.7 L 109.74000000000001,110.7 L 109.74000000000001,113.10000000000001 L 107.86,113.10000000000001 L 105.98,113.10000000000001 L 104.10000000000001,113.10000000000001 L 102.22,113.10000000000001 L 100.34,113.10000000000001 L 98.46000000000001,113.10000000000001 L 98.46000000000001,115.49000000000001 L 96.58,115.49000000000001 L 94.7,115.49000000000001 L 92.82000000000001,115.49000000000001 L 90.95,115.49000000000001 L 90.95,117.89 L 89.07000000000001,117.89 L 87.19,117.89 L 87.19,120.29 L 85.31,120.29 L 83.43,120.29 L 83.43,122.68 L 81.55,122.68 L 79.67,122.68 L 79.67,125.08 L 77.79,125.08 L 77.79,127.47 L 75.91,127.47 L 75.91,129.87 L 74.03,129.87 L 74.03,132.27 L 72.15,132.27 L 72.15,134.66 L 72.15,137.06 L 70.28,137.06 L 70.28,139.45000000000002 L 70.28,141.85 L 68.4,141.85 L 68.4,144.24 L 68.4,146.64000000000001 L 66.52,146.64000000000001 L 66.52,149.04 L 66.52,151.43 L 66.52,153.83 L 66.52,156.22 L 64.64,156.22 L 64.64,158.62 L 64.64,161.02 L 64.64,163.41 L 64.64,165.81 L 64.64,168.20000000000002 L 64.64,170.6 L 62.76,170.6 L 62.76,172.99 L 62.76,175.39000000000001 L 62.76,177.79 L 62.76,180.18 L 62.76,182.58 L 62.76,184.97 L 62.76,187.37 L 62.76,189.77 L 62.76,192.16 L 62.76,194.56 L 60.88,194.56 L 60.88,196.95000000000002 L 60.88,199.35 L 60.88,201.74 L 60.88,204.14000000000001 L 60.88,206.54 L 60.88,208.93 L 60.88,211.33 L 60.88,213.72 L 60.88,216.12 L 60.88,218.52 L 60.88,220.91 L 60.88,223.31 L 60.88,225.70000000000002 L 60.88,228.1 L 60.88,230.49 L 60.88,232.89000000000001 L 60.88,235.29 L 60.88,237.68 L 60.88,240.08 L 60.88,242.47 L 59,242.47 L 59,244.87 L 59,247.27 L 59,249.66 L 59,252.06 L 59,254.45000000000002 L 59,256.85 L 59,259.24 L 59,261.64 L 59,264.04 L 59,266.43 L 59,268.83 L 59,271.22 L 59,273.62 L 59,276.02 L 59,278.41 L 59,280.81 L 59,283.2 L 59,285.6 L 59,287.99 L 59,290.39 L 59,292.79 L 59,295.18 L 59,297.58 L 59,299.97 L 59,302.37 L 59,304.77 L 59,307.16 L 59,309.56 L 59,311.95 L 59,314.35 L 59,316.74 L 59,319.14 L 59,321.54 L 59,323.93 L 59,326.33 L 59,328.72 L 59,331.12 L 59,333.52 L 59,335.91 L 59,338.31 L 59,340.7 L 59,343.1 L 59,345.49 L 59,347.89 L 59,350.29 L 59,352.68 L 59,355.08 L 59,357.47 L 59,359.87 L 59,362.27 L 59,364.66 L 59,367.06 L 59,369.45 L 59,371.85 L 59,374.24 L 59,376.64 L 59,379.04 L 59,381.43 L 59,383.83 L 59,386.22 L 59,388.62 L 59,389 L 59,389 Z" stroke="#1f77b4" stroke-width="0" fill="#1f77b4" fill-opacity="0.15" /><path d="M 59,389 L 59,386.6 L 59,384.21000000000004 L 59,381.81 L 59,379.42 L 59,377.02 L 59,374.63 L 59,372.23 L 59,369.83 L 59,367.44 L 59,365.04 L 59,362.65000000000003 L 59,360.25 L 59,357.85 L 59,355.46 L 59,353.06 L 59,350.67 L 59,348.27 L 59,345.88 L 59,343.48 L 59,341.08 L 59,338.69 L 59,336.29 L 59,333.90000000000003 L 59,331.5 L 59,329.1 L 59,326.71 L 59,324.31 L 59,321.92 L 59,319.52 L 59,317.13 L 59,314.73 L 59,312.33 L 59,309.94 L 59,307.54 L 59,305.15000000000003 L 59,302.75 L 59,300.35 L 59,297.96 L 59,295.56 L 59,293.17 L 59,290.77 L 59,288.38 L 59,285.98 L 59,283.58 L 59,281.19 L 59,278.79 L 59,276.40000000000003 L 59,274 L 59,271.6 L 59,269.21 L 59,266.81 L 59,264.42 L 59,262.02 L 59,259.63 L 59,257.23 L 59,254.83 L 59,252.44 L 59,250.04 L 59,247.65 L 59,245.25 L 59,242.85 L 59,240.46 L 59,238.06 L 60.88,238.06 L 60.88,235.67000000000002 L 60.88,233.27 L 60.88,230.88 L 60.88,228.48000000000002 L 60.88,226.08 L 60.88,223.69 L 60.88,221.29 L 60.88,218.9 L 60.88,216.5 L 60.88,214.1 L 60.88,211.71 L 60.88,209.31 L 60.88,206.92000000000002 L 60.88,204.52 L 60.88,202.13 L 60.88,199.73000000000002 L 60.88,197.33 L 60.88,194.94 L 60.88,192.54 L 60.88,190.15 L 62.76,190.15 L 62.76,187.75 L 62.76,185.35 L 62.76,182.96 L 62.76,180.56 L 62.76,178.17000000000002 L 62.76,175.77 L 62.76,173.38 L 62.76,170.98 L 62.76,168.58 L 62.76,166.19 L 64.64,166.19 L 64.64,163.79 L 64.64,161.4 L 64.64,159 L 64.64,156.6 L 64.64,154.21 L 64.64,151.81 L 66.52,151.81 L 66.52,149.42000000000002 L 66.52,147.02 L 66.52,144.63 L 66.52,142.23 L 68.4,142.23 L 68.4,139.83 L 68.4,137.44 L 70.28,137.44 L 70.28,135.04 L 70.28,132.65 L 72.15,132.65 L 72.15,130.25 L 72.15,127.85000000000001 L 74.03,127.85000000000001 L 74.03,125.46000000000001 L 75.91,125.46000000000001 L 75.91,123.06 L 77.79,123.06 L 77.79,120.67 L 79.67,120.67 L 79.67,118.27 L 81.55,118.27 L 83.43,118.27 L 83.43,115.88 L 85.31,115.88 L 87.19,115.88 L 87.19,113.48 L 89.07000000000001,113.48 L 90.95,113.48 L 90.95,111.08 L 92.82000000000001,111.08 L 94.7,111.08 L 96.58,111.08 L 98.46000000000001,111.08 L 98.46000000000001,108.69 L 100.34,108.69 L 102.22,108.69 L 104.10000000000001,108.69 L 105.98,108.69 L 107.86,108.69 L 109.74000000000001,108.69 L 109.74000000000001,106.29 L 111.62,106.29 L 113.5,106.29 L 115.38,106.29 L 117.25,106.29 L 119.13,106.29 L 121.01,106.29 L 122.89,106.29 L 124.77,106.29 L 126.65,106.29 L 128.53,106.29 L 128.53,103.9 L 130.41,103.9 L 132.29,103.9 L 134.17000000000002,103.9 L 136.05,103.9 L 137.92000000000002,103.9 L 139.8,103.9 L 141.68,103.9 L 143.56,103.9 L 145.44,103.9 L 147.32,103.9 L 149.20000000000002,103.9 L 151.08,103.9 L 152.96,103.9 L 154.84,103.9 L 156.72,103.9 L 158.6,103.9 L 160.48,103.9 L 162.35,103.9 L 164.23,103.9 L 166.11,103.9 L 166.11,101.5 L 167.99,101.5 L 169.87,101.5 L 171.75,101.5 L 173.63,101.5 L 175.51,101.5 L 177.39000000000001,101.5 L 179.27,101.5 L 181.15,101.5 L 183.02,101.5 L 184.9,101.5 L 186.78,101.5 L 188.66,101.5 L 190.54,101.5 L 192.42000000000002,101.5 L 194.3,101.5 L 196.18,101.5 L 198.06,101.5 L 199.94,101.5 L 201.82,101.5 L 203.70000000000002,101.5 L 205.58,101.5 L 207.45000000000002,101.5 L 209.33,101.5 L 211.21,101.5 L 213.09,101.5 L 214.97,101.5 L 216.85,101.5 L 218.73000000000002,101.5 L 220.61,101.5 L 222.49,101.5 L 224.37,101.5 L 226.25,101.5 L 228.12,101.5 L 230,101.5 L 231.88,101.5 L 233.76,101.5 L 235.64000000000001,101.5 L 237.52,101.5 L 239.4,101.5 L 241.28,101.5 L 243.16,101.5 L 245.04,101.5 L 246.92000000000002,101.5 L 248.8,101.5 L 250.68,101.5 L 252.55,101.5 L 254.43,101.5 L 256.31,101.5 L 258.19,101.5 L 260.07,101.5 L 261.95,101.5 L 263.83,101.5 L 265.71,101.5 L 267.59000000000003,101.5 L 269.47,101.5 L 271.35,101.5 L 273.22,101.5 L 275.1,101.5 L 276.98,101.5 L 278.86,101.5 L 280.74,101.5 L 282.62,101.5 L 284.5,101.5" stroke="#1f77b4" stroke-width="2" fill="none" /><circle cx="75.91" cy="123.06" r="5" fill="#1f77b4" stroke="#ffffff" stroke-width="1" /><path d="M 59,376.49 L 59,374.1 L 59,371.7 L 59,369.3 L 59,366.91 L 59,364.51 L 59,362.12 L 59,359.72 L 59,357.32 L 59,354.93 L 59,352.53000000000003 L 59,350.14 L 59,347.74 L 59,345.35 L 59,342.95 L 60.88,342.95 L 60.88,340.55 L 60.88,338.16 L 60.88,335.76 L 60.88,333.37 L 60.88,330.97 L 60.88,328.57 L 60.88,326.18 L 60.88,323.78000000000003 L 60.88,321.39 L 60.88,318.99 L 60.88,316.6 L 60.88,314.2 L 62.76,314.2 L 62.76,311.8 L 62.76,309.41 L 62.76,307.01 L 62.76,304.62 L 62.76,302.22 L 62.76,299.82 L 62.76,297.43 L 62.76,295.03000000000003 L 62.76,292.64 L 64.64,292.64 L 64.64,290.24 L 64.64,287.85 L 64.64,285.45 L 64.64,283.05 L 64.64,280.66 L 64.64,278.26 L 64.64,275.87 L 64.64,273.47 L 66.52,273.47 L 66.52,271.07 L 66.52,268.68 L 66.52,266.28000000000003 L 66.52,263.89 L 66.52,261.49 L 66.52,259.1 L 66.52,256.7 L 68.4,256.7 L 68.4,254.3 L 68.4,251.91 L 68.4,249.51000000000002 L 68.4,247.12 L 68.4,244.72 L 70.28,244.72 L 70.28,242.32 L 70.28,239.93 L 70.28,237.53 L 70.28,235.14000000000001 L 70.28,232.74 L 72.15,232.74 L 72.15,230.35 L 72.15,227.95000000000002 L 72.15,225.55 L 72.15,223.16 L 72.15,220.76 L 74.03,220.76 L 74.03,218.37 L 74.03,215.97 L 74.03,213.57 L 75.91,213.57 L 75.91,211.18 L 75.91,208.78 L 75.91,206.39000000000001 L 75.91,203.99 L 77.79,203.99 L 77.79,201.6 L 77.79,199.20000000000002 L 77.79,196.8 L 79.67,196.8 L 79.67,194.41 L 79.67,192.01 L 81.55,192.01 L 81.55,189.62 L 81.55,187.22 L 81.55,184.82 L 83.43,184.82 L 83.43,182.43 L 83.43,180.03 L 85.31,180.03 L 85.31,177.64000000000001 L 85.31,175.24 L 87.19,175.24 L 87.19,172.85 L 87.19,170.45000000000002 L 89.07000000000001,170.45000000000002 L 89.07000000000001,168.05 L 89.07000000000001,165.66 L 90.95,165.66 L 90.95,163.26 L 92.82000000000001,163.26 L 92.82000000000001,160.87 L 92.82000000000001,158.47 L 94.7,158.47 L 94.7,156.07 L 96.58,156.07 L 96.58,153.68 L 98.46000000000001,153.68 L 98.46000000000001,151.28 L 98.46000000000001,148.89000000000001 L 100.34,148.89000000000001 L 100.34,146.49 L 102.22,146.49 L 102.22,144.1 L 104.10000000000001,144.1 L 104.10000000000001,141.70000000000002 L 105.98,141.70000000000002 L 105.98,139.3 L 107.86,139.3 L 109.74000000000001,139.3 L 109.74000000000001,136.91 L 111.62,136.91 L 111.62,134.51 L 113.5,134.51 L 113.5,132.12 L 115.38,132.12 L 117.25,132.12 L 117.25,129.72 L 119.13,129.72 L 119.13,127.32000000000001 L 121.01,127.32000000000001 L 122.89,127.32000000000001 L 122.89,124.93 L 124.77,124.93 L 126.65,124.93 L 126.65,122.53 L 128.53,122.53 L 130.41,122.53 L 130.41,120.14 L 132.29,120.14 L 134.17000000000002,120.14 L 134.17000000000002,117.74000000000001 L 136.05,117.74000000000001 L 137.92000000000002,117.74000000000001 L 139.8,117.74000000000001 L 139.8,115.35000000000001 L 141.68,115.35000000000001 L 143.56,115.35000000000001 L 143.56,112.95 L 145.44,112.95 L 147.32,112.95 L 149.20000000000002,112.95 L 149.20000000000002,110.55 L 151.08,110.55 L 152.96,110.55 L 154.84,110.55 L 156.72,110.55 L 156.72,108.16 L 158.6,108.16 L 160.48,108.16 L 162.35,108.16 L 162.35,105.76 L 164.23,105.76 L 166.11,105.76 L 167.99,105.76 L 169.87,105.76 L 171.75,105.76 L 171.75,103.37 L 173.63,103.37 L 175.51,103.37 L 177.39000000000001,103.37 L 179.27,103.37 L 181.15,103.37 L 181.15,101.5 L 183.02,101.5 L 184.9,101.5 L 186.78,101.5 L 188.66,101.5 L 190.54,101.5 L 190.54,101.5 L 192.42000000000002,101.5 L 194.3,101.5 L 196.18,101.5 L 198.06,101.5 L 199.94,101.5 L 201.82,101.5 L 203.70000000000002,101.5 L 203.70000000000002,101.5 L 205.58,101.5 L 207.45000000000002,101.5 L 209.33,101.5 L 211.21,101.5 L 213.09,101.5 L 214.97,101.5 L 216.85,101.5 L 218.73000000000002,101.5 L 218.73000000000002,101.5 L 220.61,101.5 L 222.49,101.5 L 224.37,101.5 L 226.25,101.5 L 228.12,101.5 L 230,101.5 L 231.88,101.5 L 233.76,101.5 L 235.64000000000001,101.5 L 235.64000000000001,101.5 L 237.52,101.5 L 239.4,101.5 L 241.28,101.5 L 243.16,101.5 L 245.04,101.5 L 246.92000000000002,101.5 L 248.8,101.5 L 250.68,101.5 L 252.55,101.5 L 254.43,101.5 L 256.31,101.5 L 258.19,101.5 L 258.19,101.5 L 260.07,101.5 L 261.95,101.5 L 263.83,101.5 L 265.71,101.5 L 267.59000000000003,101.5 L 269.47,101.5 L 271.35,101.5 L 273.22,101.5 L 275.1,101.5 L 276.98,101.5 L 278.86,101.5 L 280.74,101.5 L 282.62,101.5 L 284.5,101.5 L 284.5,114.01 L 282.62,114.01 L 280.74,114.01 L 278.86,114.01 L 276.98,114.01 L 275.1,114.01 L 273.22,114.01 L 271.35,114.01 L 269.47,114.01 L 267.59000000000003,114.01 L 265.71,114.01 L 263.83,114.01 L 261.95,114.01 L 260.07,114.01 L 258.19,114.01 L 258.19,116.4 L 256.31,116.4 L 254.43,116.4 L 252.55,116.4 L 250.68,116.4 L 248.8,116.4 L 246.92000000000002,116.4 L 245.04,116.4 L 243.16,116.4 L 241.28,116.4 L 239.4,116.4 L 237.52,116.4 L 235.64000000000001,116.4 L 235.64000000000001,118.8 L 233.76,118.8 L 231.88,118.8 L 230,118.8 L 228.12,118.8 L 226.25,118.8 L 224.37,118.8 L 222.49,118.8 L 220.61,118.8 L 218.73000000000002,118.8 L 218.73000000000002,121.2 L 216.85,121.2 L 214.97,121.2 L 213.09,121.2 L 211.21,121.2 L 209.33,121.2 L 207.45000000000002,121.2 L 205.58,121.2 L 203.70000000000002,121.2 L 203.70000000000002,123.59 L 201.82,123.59 L 199.94,123.59 L 198.06,123.59 L 196.18,123.59 L 194.3,123.59 L 192.42000000000002,123.59 L 190.54,123.59 L 190.54,125.99000000000001 L 188.66,125.99000000000001 L 186.78,125.99000000000001 L 184.9,125.99000000000001 L 183.02,125.99000000000001 L 181.15,125.99000000000001 L 181.15,128.38 L 179.27,128.38 L 177.39000000000001,128.38 L 175.51,128.38 L 173.63,128.38 L 171.75,128.38 L 171.75,130.78 L 169.87,130.78 L 167.99,130.78 L 166.11,130.78 L 164.23,130.78 L 162.35,130.78 L 162.35,133.18 L 160.48,133.18 L 158.6,133.18 L 156.72,133.18 L 156.72,135.57 L 154.84,135.57 L 152.96,135.57 L 151.08,135.57 L 149.20000000000002,135.57 L 149.20000000000002,137.97 L 147.32,137.97 L 145.44,137.97 L 143.56,137.97 L 143.56,140.36 L 141.68,140.36 L 139.8,140.36 L 139.8,142.76 L 137.92000000000002,142.76 L 136.05,142.76 L 134.17000000000002,142.76 L 134.17000000000002,145.15 L 132.29,145.15 L 130.41,145.15 L 130.41,147.55 L 128.53,147.55 L 126.65,147.55 L 126.65,149.95000000000002 L 124.77,149.95000000000002 L 122.89,149.95000000000002 L 122.89,152.34 L 121.01,152.34 L 119.13,152.34 L 119.13,154.74 L 117.25,154.74 L 117.25,157.13 L 115.38,157.13 L 113.5,157.13 L 113.5,159.53 L 111.62,159.53 L 111.62,161.93 L 109.74000000000001,161.93 L 109.74000000000001,164.32 L 107.86,164.32 L 105.98,164.32 L 105.98,166.72 L 104.10000000000001,166.72 L 104.10000000000001,169.11 L 102.22,169.11 L 102.22,171.51 L 100.34,171.51 L 100.34,173.9 L 98.46000000000001,173.9 L 98.46000000000001,176.3 L 98.46000000000001,178.70000000000002 L 96.58,178.70000000000002 L 96.58,181.09 L 94.7,181.09 L 94.7,183.49 L 92.82000000000001,183.49 L 92.82000000000001,185.88 L 92.82000000000001,188.28 L 90.95,188.28 L 90.95,190.68 L 89.07000000000001,190.68 L 89.07000000000001,193.07 L 89.07000000000001,195.47 L 87.19,195.47 L 87.19,197.86 L 87.19,200.26 L 85.31,200.26 L 85.31,202.65 L 85.31,205.05 L 83.43,205.05 L 83.43,207.45000000000002 L 83.43,209.84 L 81.55,209.84 L 81.55,212.24 L 81.55,214.63 L 81.55,217.03 L 79.67,217.03 L 79.67,219.43 L 79.67,221.82 L 77.79,221.82 L 77.79,224.22 L 77.79,226.61 L 77.79,229.01 L 75.91,229.01 L 75.91,231.4 L 75.91,233.8 L 75.91,236.20000000000002 L 75.91,238.59 L 74.03,238.59 L 74.03,240.99 L 74.03,243.38 L 74.03,245.78 L 72.15,245.78 L 72.15,248.18 L 72.15,250.57 L 72.15,252.97 L 72.15,255.36 L 72.15,257.76 L 70.28,257.76 L 70.28,260.15 L 70.28,262.55 L 70.28,264.95 L 70.28,267.34000000000003 L 70.28,269.74 L 68.4,269.74 L 68.4,272.13 L 68.4,274.53000000000003 L 68.4,276.93 L 68.4,279.32 L 68.4,281.72 L 66.52,281.72 L 66.52,284.11 L 66.52,286.51 L 66.52,288.90000000000003 L 66.52,291.3 L 66.52,293.7 L 66.52,296.09000000000003 L 66.52,298.49 L 64.64,298.49 L 64.64,300.88 L 64.64,303.28000000000003 L 64.64,305.68 L 64.64,308.07 L 64.64,310.47 L 64.64,312.86 L 64.64,315.26 L 64.64,317.65000000000003 L 62.76,317.65000000000003 L 62.76,320.05 L 62.76,322.45 L 62.76,324.84000000000003 L 62.76,327.24 L 62.76,329.63 L 62.76,332.03000000000003 L 62.76,334.43 L 62.76,336.82 L 62.76,339.22 L 60.88,339.22 L 60.88,341.61 L 60.88,344.01 L 60.88,346.40000000000003 L 60.88,348.8 L 60.88,351.2 L 60.88,353.59000000000003 L 60.88,355.99 L 60.88,358.38 L 60.88,360.78000000000003 L 60.88,363.18 L 60.88,365.57 L 60.88,367.97 L 59,367.97 L 59,370.36 L 59,372.76 L 59,375.15000000000003 L 59,377.55 L 59,379.95 L 59,382.34000000000003 L 59,384.74 L 59,387.13 L 59,389 L 59,389 L 59,389 L 59,389 L 59,389 L 59,389 Z" stroke="#ff7f0e" stroke-width="0" fill="#ff7f0e" fill-opacity="0.15" /><path d="M 59,389 L 59,386.6 L 59,384.21000000000004 L 59,381.81 L 59,379.42 L 59,377.02 L 59,374.63 L 59,372.23 L 59,369.83 L 59,367.44 L 59,365.04 L 59,362.65000000000003 L 59,360.25 L 59,357.85 L 59,355.46 L 60.88,355.46 L 60.88,353.06 L 60.88,350.67 L 60.88,348.27 L 60.88,345.88 L 60.88,343.48 L 60.88,341.08 L 60.88,338.69 L 60.88,336.29 L 60.88,333.90000000000003 L 60.88,331.5 L 60.88,329.1 L 60.88,326.71 L 62.76,326.71 L 62.76,324.31 L 62.76,321.92 L 62.76,319.52 L 62.76,317.13 L 62.76,314.73 L 62.76,312.33 L 62.76,309.94 L 62.76,307.54 L 62.76,305.15000000000003 L 64.64,305.15000000000003 L 64.64,302.75 L 64.64,300.35 L 64.64,297.96 L 64.64,295.56 L 64.64,293.17 L 64.64,290.77 L 64.64,288.38 L 64.64,285.98 L 66.52,285.98 L 66.52,283.58 L 66.52,281.19 L 66.52,278.79 L 66.52,276.40000000000003 L 66.52,274 L 66.52,271.6 L 66.52,269.21 L 68.4,269.21 L 68.4,266.81 L 68.4,264.42 L 68.4,262.02 L 68.4,259.63 L 68.4,257.23 L 70.28,257.23 L 70.28,254.83 L 70.28,252.44 L 70.28,250.04 L 70.28,247.65 L 70.28,245.25 L 72.15,245.25 L 72.15,242.85 L 72.15,240.46 L 72.15,238.06 L 72.15,235.67000000000002 L 72.15,233.27 L 74.03,233.27 L 74.03,230.88 L 74.03,228.48000000000002 L 74.03,226.08 L 75.91,226.08 L 75.91,223.69 L 75.91,221.29 L 75.91,218.9 L 75.91,216.5 L 77.79,216.5 L 77.79,214.1 L 77.79,211.71 L 77.79,209.31 L 79.67,209.31 L 79.67,206.92000000000002 L 79.67,204.52 L 81.55,204.52 L 81.55,202.13 L 81.55,199.73000000000002 L 81.55,197.33 L 83.43,197.33 L 83.43,194.94 L 83.43,192.54 L 85.31,192.54 L 85.31,190.15 L 85.31,187.75 L 87.19,187.75 L 87.19,185.35 L 87.19,182.96 L 89.07000000000001,182.96 L 89.07000000000001,180.56 L 89.07000000000001,178.17000000000002 L 90.95,178.17000000000002 L 90.95,175.77 L 92.82000000000001,175.77 L 92.82000000000001,173.38 L 92.82000000000001,170.98 L 94.7,170.98 L 94.7,168.58 L 96.58,168.58 L 96.58,166.19 L 98.46000000000001,166.19 L 98.46000000000001,163.79 L 98.46000000000001,161.4 L 100.34,161.4 L 100.34,159 L 102.22,159 L 102.22,156.6 L 104.10000000000001,156.6 L 104.10000000000001,154.21 L 105.98,154.21 L 105.98,151.81 L 107.86,151.81 L 109.74000000000001,151.81 L 109.74000000000001,149.42000000000002 L 111.62,149.42000000000002 L 111.62,147.02 L 113.5,147.02 L 113.5,144.63 L 115.38,144.63 L 117.25,144.63 L 117.25,142.23 L 119.13,142.23 L 119.13,139.83 L 121.01,139.83 L 122.89,139.83 L 122.89,137.44 L 124.77,137.44 L 126.65,137.44 L 126.65,135.04 L 128.53,135.04 L 130.41,135.04 L 130.41,132.65 L 132.29,132.65 L 134.17000000000002,132.65 L 134.17000000000002,130.25 L 136.05,130.25 L 137.92000000000002,130.25 L 139.8,130.25 L 139.8,127.85000000000001 L 141.68,127.85000000000001 L 143.56,127.85000000000001 L 143.56,125.46000000000001 L 145.44,125.46000000000001 L 147.32,125.46000000000001 L 149.20000000000002,125.46000000000001 L 149.20000000000002,123.06 L 151.08,123.06 L 152.96,123.06 L 154.84,123.06 L 156.72,123.06 L 156.72,120.67 L 158.6,120.67 L 160.48,120.67 L 162.35,120.67 L 162.35,118.27 L 164.23,118.27 L 166.11,118.27 L 167.99,118.27 L 169.87,118.27 L 171.75,118.27 L 171.75,115.88 L 173.63,115.88 L 175.51,115.88 L 177.39000000000001,115.88 L 179.27,115.88 L 181.15,115.88 L 181.15,113.48 L 183.02,113.48 L 184.9,113.48 L 186.78,113.48 L 188.66,113.48 L 190.54,113.48 L 190.54,111.08 L 192.42000000000002,111.08 L 194.3,111.08 L 196.18,111.08 L 198.06,111.08 L 199.94,111.08 L 201.82,111.08 L 203.70000000000002,111.08 L 203.70000000000002,108.69 L 205.58,108.69 L 207.45000000000002,108.69 L 209.33,108.69 L 211.21,108.69 L 213.09,108.69 L 214.97,108.69 L 216.85,108.69 L 218.73000000000002,108.69 L 218.73000000000002,106.29 L 220.61,106.29 L 222.49,106.29 L 224.37,106.29 L 226.25,106.29 L 228.12,106.29 L 230,106.29 L 231.88,106.29 L 233.76,106.29 L 235.64000000000001,106.29 L 235.64000000000001,103.9 L 237.52,103.9 L 239.4,103.9 L 241.28,103.9 L 243.16,103.9 L 245.04,103.9 L 246.92000000000002,103.9 L 248.8,103.9 L 250.68,103.9 L 252.55,103.9 L 254.43,103.9 L 256.31,103.9 L 258.19,103.9 L 258.19,101.5 L 260.07,101.5 L 261.95,101.5 L 263.83,101.5 L 265.71,101.5 L 267.59000000000003,101.5 L 269.47,101.5 L 271.35,101.5 L 273.22,101.5 L 275.1,101.5 L 276.98,101.5 L 278.86,101.5 L 280.74,101.5 L 282.62,101.5 L 284.5,101.5" stroke="#ff7f0e" stroke-width="2" fill="none" /></g><rect x="334.6" y="34" width="256" height="56" fill="#ffffff" /><rect x="334.6" y="34" width="256" height="56" fill="none" stroke="#000000" stroke-width="1" /><text x="364.6" y="53.2" font-size="12" text-anchor="start">Biomarker A  (AUC = 0.977)</text><line x1="344.6" y1="49" x2="356.6" y2="49" stroke="#1f77b4" stroke-width="2" /><text x="364.6" y="71.2" font-size="12" text-anchor="start">Biomarker B  (AUC = 0.878)</text><line x1="344.6" y1="67" x2="356.6" y2="67" stroke="#ff7f0e" stroke-width="2" /></svg>