<svg xmlns="http://www.w3.org/2000/svg" width="520" height="440" font-family="DejaVu Sans, Liberation Sans, Arial, sans-serif" fill="black"><rect width="100%" height="100%" fill="white" /><defs><clipPath id="kuva-clip-2"><rect x="59" y="44" width="222.6" height="345"/></clipPath></defs><line x1="105.38" y1="44" x2="105.38" y2="389" stroke="#cccccc" stroke-width="1" /><line x1="151.75" y1="44" x2="151.75" y2="389" stroke="#cccccc" stroke-width="1" /><line x1="198.12" y1="44" x2="198.12" y2="389" stroke="#cccccc" stroke-width="1" /><line x1="244.5" y1="44" x2="244.5" y2="389" stroke="#cccccc" stroke-width="1" /><line x1="59" y1="317.13" x2="281.6" y2="317.13" stroke="#cccccc" stroke-width="1" /><line x1="59" y1="245.25" x2="281.6" y2="245.25" stroke="#cccccc" stroke-width="1" /><line x1="59" y1="173.38" x2="281.6" y2="173.38" stroke="#cccccc" stroke-width="1" /><line x1="59" y1="101.5" x2="281.6" y2="101.5" stroke="#cccccc" stroke-width="1" /><line x1="59" y1="389" x2="281.6" y2="389" stroke="#000000" stroke-width="1" /><line x1="59" y1="44" x2="59" y2="389" stroke="#000000" stroke-width="1" /><line x1="59" y1="389" x2="59" y2="394" stroke="#000000" stroke-width="1" /><text x="59" y="406" font-size="12" text-anchor="middle">0</text><line x1="105.38" y1="389" x2="105.38" y2="394" stroke="#000000" stroke-width="1" /><text x="105.38" y="406" font-size="12" text-anchor="middle">0.25</text><line x1="151.75" y1="389" x2="151.75" y2="394" stroke="#000000" stroke-width="1" /><text x="151.75" y="406" font-size="12" text-anchor="middle">0.5</text><line x1="198.12" y1="389" x2="198.12" y2="394" stroke="#000000" stroke-width="1" /><text x="198.12" y="406" font-size="12" text-anchor="middle">0.75</text><line x1="244.5" y1="389" x2="244.5" y2="394" stroke="#000000" stroke-width="1" /><text x="244.5" y="406" font-size="12" text-anchor="middle">1</text><line x1="54" y1="389" x2="59" y2="389" stroke="#000000" stroke-width="1" /><text x="51" y="393.2" font-size="12" text-anchor="end">0</text><line x1="54" y1="317.13" x2="59" y2="317.13" stroke="#000000" stroke-width="1" /><text x="51" y="321.33" font-size="12" text-anchor="end">0.25</text><line x1="54" y1="245.25" x2="59" y2="245.25" stroke="#000000" stroke-width="1" /><text x="51" y="249.45000000000002" font-size="12" text-anchor="end">0.5</text><line x1="54" y1="173.38" x2="59" y2="173.38" stroke="#000000" stroke-width="1" /><text x="51" y="177.58" font-size="12" text-anchor="end">0.75</text><line x1="54" y1="101.5" x2="59" y2="101.5" stroke="#000000" stroke-width="1" /><text x="51" y="105.7" font-size="12" text-anchor="end">1</text><text x="170.3" y="433" font-size="14" text-anchor="middle">False Positive Rate</text><text x="15" y="220" font-size="14" text-anchor="middle" transform="rotate(-90,15,220)">True Positive Rate</text><text x="260" y="27.400000000000002" font-size="18" text-anchor="middle">Multi-model ROC Comparison</text><g clip-path="url(#kuva-clip-2)"><line x1="59" y1="389" x2="244.5" y2="101.5" stroke="#aaaaaa" stroke-width="1" stroke-dasharray="5,3" /><path d="M 59,389 L 59,387.08 L 59,385.17 L 59,383.25 L 59,381.33 L 59,379.42 L 59,377.5 L 59,375.58 L 59,373.67 L 59,371.75 L 59,369.83 L 59,367.92 L 59,366 L 59,364.08 L 59,362.17 L 59,360.25 L 59,358.33 L 59,356.42 L 59,354.5 L 59,352.58 L 59,350.67 L 59,348.75 L 59,346.83 L 59,344.92 L 59,343 L 59,341.08 L 59,339.17 L 59,337.25 L 59,335.33 L 59,333.42 L 59,331.5 L 59,329.58 L 59,327.67 L 59,325.75 L 59,323.83 L 59,321.92 L 59,320 L 59,318.08 L 59,316.17 L 59,314.25 L 59,312.33 L 59,310.42 L 59,308.5 L 59,306.58 L 59,304.67 L 59,302.75 L 59,300.83 L 59,298.92 L 59,297 L 59,295.08 L 59,293.17 L 59,291.25 L 59,289.33 L 59,287.42 L 59,285.5 L 59,283.58 L 59,281.67 L 59,279.75 L 59,277.83 L 59,275.92 L 59,274 L 59,272.08 L 59,270.17 L 59,268.25 L 59,266.33 L 59,264.42 L 59,262.5 L 59,260.58 L 60.24,260.58 L 60.24,258.67 L 60.24,256.75 L 60.24,254.83 L 60.24,252.92000000000002 L 60.24,251 L 60.24,249.08 L 60.24,247.17000000000002 L 60.24,245.25 L 60.24,243.33 L 60.24,241.42000000000002 L 60.24,239.5 L 60.24,237.58 L 60.24,235.67000000000002 L 60.24,233.75 L 60.24,231.83 L 60.24,229.92000000000002 L 60.24,228 L 60.24,226.08 L 60.24,224.17000000000002 L 60.24,222.25 L 60.24,220.33 L 60.24,218.42000000000002 L 60.24,216.5 L 60.24,214.58 L 60.24,212.67000000000002 L 60.24,210.75 L 61.47,210.75 L 61.47,208.83 L 61.47,206.92000000000002 L 61.47,205 L 61.47,203.08 L 61.47,201.17000000000002 L 61.47,199.25 L 61.47,197.33 L 61.47,195.42000000000002 L 61.47,193.5 L 61.47,191.58 L 61.47,189.67000000000002 L 61.47,187.75 L 61.47,185.83 L 61.47,183.92000000000002 L 62.71,183.92000000000002 L 62.71,182 L 62.71,180.08 L 62.71,178.17000000000002 L 62.71,176.25 L 62.71,174.33 L 62.71,172.42000000000002 L 62.71,170.5 L 62.71,168.58 L 63.95,168.58 L 63.95,166.67000000000002 L 63.95,164.75 L 63.95,162.83 L 63.95,160.92000000000002 L 63.95,159 L 63.95,157.08 L 65.18,157.08 L 65.18,155.17000000000002 L 65.18,153.25 L 65.18,151.33 L 65.18,149.42000000000002 L 66.42,149.42000000000002 L 66.42,147.5 L 66.42,145.58 L 66.42,143.67000000000002 L 66.42,141.75 L 67.66,141.75 L 67.66,139.83 L 67.66,137.92000000000002 L 68.89,137.92000000000002 L 68.89,136 L 68.89,134.08 L 70.13,134.08 L 70.13,132.17000000000002 L 70.13,130.25 L 71.37,130.25 L 71.37,128.33 L 72.60000000000001,128.33 L 72.60000000000001,126.42 L 73.84,126.42 L 73.84,124.5 L 75.08,124.5 L 75.08,122.58 L 76.31,122.58 L 76.31,120.67 L 77.55,120.67 L 77.55,118.75 L 78.79,118.75 L 80.02,118.75 L 80.02,116.83 L 81.26,116.83 L 82.5,116.83 L 82.5,114.92 L 83.73,114.92 L 84.97,114.92 L 84.97,113 L 86.21000000000001,113 L 87.44,113 L 88.68,113 L 89.92,113 L 89.92,111.08 L 91.15,111.08 L 92.39,111.08 L 93.63,111.08 L 94.86,111.08 L 94.86,109.17 L 96.10000000000001,109.17 L 97.34,109.17 L 98.57000000000001,109.17 L 99.81,109.17 L 101.05,109.17 L 102.28,109.17 L 102.28,107.25 L 103.52,107.25 L 104.76,107.25 L 105.99000000000001,107.25 L 107.23,107.25 L 108.47,107.25 L 109.7,107.25 L 110.94,107.25 L 112.18,107.25 L 112.18,105.33 L 113.41,105.33 L 114.65,105.33 L 115.89,105.33 L 117.12,105.33 L 118.36,105.33 L 119.60000000000001,105.33 L 120.83,105.33 L 122.07000000000001,105.33 L 123.31,105.33 L 124.54,105.33 L 125.78,105.33 L 127.02,105.33 L 128.25,105.33 L 129.49,105.33 L 129.49,103.42 L 130.73,103.42 L 131.96,103.42 L 133.2,103.42 L 134.44,103.42 L 135.67000000000002,103.42 L 136.91,103.42 L 138.15,103.42 L 139.38,103.42 L 140.62,103.42 L 141.86,103.42 L 143.09,103.42 L 144.33,103.42 L 145.57,103.42 L 146.8,103.42 L 148.04,103.42 L 149.28,103.42 L 150.51,103.42 L 151.75,103.42 L 152.99,103.42 L 154.22,103.42 L 155.46,103.42 L 156.70000000000002,103.42 L 157.93,103.42 L 159.17000000000002,103.42 L 160.41,103.42 L 161.64000000000001,103.42 L 161.64000000000001,101.5 L 162.88,101.5 L 164.12,101.5 L 165.35,101.5 L 166.59,101.5 L 167.83,101.5 L 169.06,101.5 L 170.3,101.5 L 171.54,101.5 L 172.77,101.5 L 174.01,101.5 L 175.25,101.5 L 176.48,101.5 L 177.72,101.5 L 178.96,101.5 L 180.19,101.5 L 181.43,101.5 L 182.67000000000002,101.5 L 183.9,101.5 L 185.14000000000001,101.5 L 186.38,101.5 L 187.61,101.5 L 188.85,101.5 L 190.09,101.5 L 191.32,101.5 L 192.56,101.5 L 193.8,101.5 L 195.03,101.5 L 196.27,101.5 L 197.51,101.5 L 198.74,101.5 L 199.98000000000002,101.5 L 201.22,101.5 L 202.45000000000002,101.5 L 203.69,101.5 L 204.93,101.5 L 206.16,101.5 L 207.4,101.5 L 208.64000000000001,101.5 L 209.87,101.5 L 211.11,101.5 L 212.35,101.5 L 213.58,101.5 L 214.82,101.5 L 216.06,101.5 L 217.29,101.5 L 218.53,101.5 L 219.77,101.5 L 221,101.5 L 222.24,101.5 L 223.48000000000002,101.5 L 224.71,101.5 L 225.95000000000002,101.5 L 227.19,101.5 L 228.42000000000002,101.5 L 229.66,101.5 L 230.9,101.5 L 232.13,101.5 L 233.37,101.5 L 234.61,101.5 L 235.84,101.5 L 237.08,101.5 L 238.32,101.5 L 239.55,101.5 L 240.79,101.5 L 242.03,101.5 L 243.26,101.5 L 244.5,101.5" stroke="#1f77b4" stroke-width="2" fill="none" /><path d="M 59,389 L 59,387.08 L 59,385.17 L 59,383.25 L 59,381.33 L 59,379.42 L 59,377.5 L 59,375.58 L 59,373.67 L 59,371.75 L 59,369.83 L 60.24,369.83 L 60.24,367.92 L 60.24,366 L 60.24,364.08 L 60.24,362.17 L 60.24,360.25 L 60.24,358.33 L 60.24,356.42 L 60.24,354.5 L 60.24,352.58 L 61.47,352.58 L 61.47,350.67 L 61.47,348.75 L 61.47,346.83 L 61.47,344.92 L 61.47,343 L 61.47,341.08 L 61.47,339.17 L 61.47,337.25 L 62.71,337.25 L 62.71,335.33 L 62.71,333.42 L 62.71,331.5 L 62.71,329.58 L 62.71,327.67 L 62.71,325.75 L 62.71,323.83 L 63.95,323.83 L 63.95,321.92 L 63.95,320 L 63.95,318.08 L 63.95,316.17 L 63.95,314.25 L 63.95,312.33 L 63.95,310.42 L 65.18,310.42 L 65.18,308.5 L 65.18,306.58 L 65.18,304.67 L 65.18,302.75 L 65.18,300.83 L 65.18,298.92 L 66.42,298.92 L 66.42,297 L 66.42,295.08 L 66.42,293.17 L 66.42,291.25 L 66.42,289.33 L 67.66,289.33 L 67.66,287.42 L 67.66,285.5 L 67.66,283.58 L 67.66,281.67 L 67.66,279.75 L 68.89,279.75 L 68.89,277.83 L 68.89,275.92 L 68.89,274 L 68.89,272.08 L 68.89,270.17 L 70.13,270.17 L 70.13,268.25 L 70.13,266.33 L 70.13,264.42 L 70.13,262.5 L 71.37,262.5 L 71.37,260.58 L 71.37,258.67 L 71.37,256.75 L 71.37,254.83 L 72.60000000000001,254.83 L 72.60000000000001,252.92000000000002 L 72.60000000000001,251 L 72.60000000000001,249.08 L 73.84,249.08 L 73.84,247.17000000000002 L 73.84,245.25 L 73.84,243.33 L 75.08,243.33 L 75.08,241.42000000000002 L 75.08,239.5 L 75.08,237.58 L 76.31,237.58 L 76.31,235.67000000000002 L 76.31,233.75 L 76.31,231.83 L 77.55,231.83 L 77.55,229.92000000000002 L 77.55,228 L 77.55,226.08 L 78.79,226.08 L 78.79,224.17000000000002 L 78.79,222.25 L 78.79,220.33 L 80.02,220.33 L 80.02,218.42000000000002 L 80.02,216.5 L 81.26,216.5 L 81.26,214.58 L 81.26,212.67000000000002 L 82.5,212.67000000000002 L 82.5,210.75 L 82.5,208.83 L 83.73,208.83 L 83.73,206.92000000000002 L 83.73,205 L 84.97,205 L 84.97,203.08 L 84.97,201.17000000000002 L 86.21000000000001,201.17000000000002 L 86.21000000000001,199.25 L 86.21000000000001,197.33 L 87.44,197.33 L 87.44,195.42000000000002 L 87.44,193.5 L 88.68,193.5 L 88.68,191.58 L 89.92,191.58 L 89.92,189.67000000000002 L 89.92,187.75 L 91.15,187.75 L 91.15,185.83 L 92.39,185.83 L 92.39,183.92000000000002 L 93.63,183.92000000000002 L 93.63,182 L 93.63,180.08 L 94.86,180.08 L 94.86,178.17000000000002 L 96.10000000000001,178.17000000000002 L 96.10000000000001,176.25 L 97.34,176.25 L 97.34,174.33 L 98.57000000000001,174.33 L 98.57000000000001,172.42000000000002 L 98.57000000000001,170.5 L 99.81,170.5 L 99.81,168.58 L 101.05,168.58 L 101.05,166.67000000000002 L 102.28,166.67000000000002 L 102.28,164.75 L 103.52,164.75 L 103.52,162.83 L 104.76,162.83 L 105.99000000000001,162.83 L 105.99000000000001,160.92000000000002 L 107.23,160.92000000000002 L 107.23,159 L 108.47,159 L 108.47,157.08 L 109.7,157.08 L 109.7,155.17000000000002 L 110.94,155.17000000000002 L 112.18,155.17000000000002 L 112.18,153.25 L 113.41,153.25 L 113.41,151.33 L 114.65,151.33 L 114.65,149.42000000000002 L 115.89,149.42000000000002 L 117.12,149.42000000000002 L 117.12,147.5 L 118.36,147.5 L 118.36,145.58 L 119.60000000000001,145.58 L 120.83,145.58 L 120.83,143.67000000000002 L 122.07000000000001,143.67000000000002 L 123.31,143.67000000000002 L 123.31,141.75 L 124.54,141.75 L 125.78,141.75 L 125.78,139.83 L 127.02,139.83 L 128.25,139.83 L 128.25,137.92000000000002 L 129.49,137.92000000000002 L 130.73,137.92000000000002 L 130.73,136 L 131.96,136 L 133.2,136 L 133.2,134.08 L 134.44,134.08 L 135.67000000000002,134.08 L 135.67000000000002,132.17000000000002 L 136.91,132.17000000000002 L 138.15,132.17000000000002 L 139.38,132.17000000000002 L 139.38,130.25 L 140.62,130.25 L 141.86,130.25 L 143.09,130.25 L 143.09,128.33 L 144.33,128.33 L 145.57,128.33 L 146.8,128.33 L 146.8,126.42 L 148.04,126.42 L 149.28,126.42 L 150.51,126.42 L 150.51,124.5 L 151.75,124.5 L 152.99,124.5 L 154.22,124.5 L 154.22,122.58 L 155.46,122.58 L 156.70000000000002,122.58 L 157.93,122.58 L 157.93,120.67 L 159.17000000000002,120.67 L 160.41,120.67 L 161.64000000000001,120.67 L 162.88,120.67 L 162.88,118.75 L 164.12,118.75 L 165.35,118.75 L 166.59,118.75 L 167.83,118.75 L 167.83,116.83 L 169.06,116.83 L 170.3,116.83 L 171.54,116.83 L 172.77,116.83 L 174.01,116.83 L 174.01,114.92 L 175.25,114.92 L 176.48,114.92 L 177.72,114.92 L 178.96,114.92 L 180.19,114.92 L 180.19,113 L 181.43,113 L 182.67000000000002,113 L 183.9,113 L 185.14000000000001,113 L 186.38,113 L 186.38,111.08 L 187.61,111.08 L 188.85,111.08 L 190.09,111.08 L 191.32,111.08 L 192.56,111.08 L 193.8,111.08 L 193.8,109.17 L 195.03,109.17 L 196.27,109.17 L 197.51,109.17 L 198.74,109.17 L 199.98000000000002,109.17 L 201.22,109.17 L 202.45000000000002,109.17 L 202.45000000000002,107.25 L 203.69,107.25 L 204.93,107.25 L 206.16,107.25 L 207.4,107.25 L 208.64000000000001,107.25 L 209.87,107.25 L 211.11,107.25 L 211.11,105.33 L 212.35,105.33 L 213.58,105.33 L 214.82,105.33 L 216.06,105.33 L 217.29,105.33 L 218.53,105.33 L 219.77,105.33 L 221,105.33 L 221,103.42 L 222.24,103.42 L 223.48000000000002,103.42 L 224.71,103.42 L 225.95000000000002,103.42 L 227.19,103.42 L 228.42000000000002,103.42 L 229.66,103.42 L 230.9,103.42 L 232.13,103.42 L 232.13,101.5 L 233.37,101.5 L 234.61,101.5 L 235.84,101.5 L 237.08,101.5 L 238.32,101.5 L 239.55,101.5 L 240.79,101.5 L 242.03,101.5 L 243.26,101.5 L 244.5,101.5" stroke="#ff7f0e" stroke-width="2" fill="none" /><path d="M 59,389 L 59,387.08 L 59,385.17 L 60.24,385.17 L 60.24,383.25 L 60.24,381.33 L 61.47,381.33 L 61.47,379.42 L 61.47,377.5 L 62.71,377.5 L 62.71,375.58 L 62.71,373.67 L 63.95,373.67 L 63.95,371.75 L 63.95,369.83 L 65.18,369.83 L 65.18,367.92 L 65.18,366 L 66.42,366 L 66.42,364.08 L 66.42,362.17 L 67.66,362.17 L 67.66,360.25 L 67.66,358.33 L 68.89,358.33 L 68.89,356.42 L 68.89,354.5 L 70.13,354.5 L 70.13,352.58 L 70.13,350.67 L 71.37,350.67 L 71.37,348.75 L 71.37,346.83 L 72.60000000000001,346.83 L 72.60000000000001,344.92 L 72.60000000000001,343 L 73.84,343 L 73.84,341.08 L 73.84,339.17 L 75.08,339.17 L 75.08,337.25 L 76.31,337.25 L 76.31,335.33 L 76.31,333.42 L 77.55,333.42 L 77.55,331.5 L 77.55,329.58 L 78.79,329.58 L 78.79,327.67 L 78.79,325.75 L 80.02,325.75 L 80.02,323.83 L 81.26,323.83 L 81.26,321.92 L 81.26,320 L 82.5,320 L 82.5,318.08 L 82.5,316.17 L 83.73,316.17 L 83.73,314.25 L 84.97,314.25 L 84.97,312.33 L 84.97,310.42 L 86.21000000000001,310.42 L 86.21000000000001,308.5 L 86.21000000000001,306.58 L 87.44,306.58 L 87.44,304.67 L 88.68,304.67 L 88.68,302.75 L 88.68,300.83 L 89.92,300.83 L 89.92,298.92 L 91.15,298.92 L 91.15,297 L 91.15,295.08 L 92.39,295.08 L 92.39,293.17 L 93.63,293.17 L 93.63,291.25 L 93.63,289.33 L 94.86,289.33 L 94.86,287.42 L 96.10000000000001,287.42 L 96.10000000000001,285.5 L 96.10000000000001,283.58 L 97.34,283.58 L 97.34,281.67 L 98.57000000000001,281.67 L 98.57000000000001,279.75 L 99.81,279.75 L 99.81,277.83 L 99.81,275.92 L 101.05,275.92 L 101.05,274 L 102.28,274 L 102.28,272.08 L 102.28,270.17 L 103.52,270.17 L 103.52,268.25 L 104.76,268.25 L 104.76,266.33 L 105.99000000000001,266.33 L 105.99000000000001,264.42 L 107.23,264.42 L 107.23,262.5 L 107.23,260.58 L 108.47,260.58 L 108.47,258.67 L 109.7,258.67 L 109.7,256.75 L 110.94,256.75 L 110.94,254.83 L 112.18,254.83 L 112.18,252.92000000000002 L 112.18,251 L 113.41,251 L 113.41,249.08 L 114.65,249.08 L 114.65,247.17000000000002 L 115.89,247.17000000000002 L 115.89,245.25 L 117.12,245.25 L 117.12,243.33 L 118.36,243.33 L 118.36,241.42000000000002 L 118.36,239.5 L 119.60000000000001,239.5 L 119.60000000000001,237.58 L 120.83,237.58 L 120.83,235.67000000000002 L 122.07000000000001,235.67000000000002 L 122.07000000000001,233.75 L 123.31,233.75 L 123.31,231.83 L 124.54,231.83 L 124.54,229.92000000000002 L 125.78,229.92000000000002 L 125.78,228 L 127.02,228 L 127.02,226.08 L 128.25,226.08 L 128.25,224.17000000000002 L 129.49,224.17000000000002 L 129.49,222.25 L 130.73,222.25 L 130.73,220.33 L 131.96,220.33 L 131.96,218.42000000000002 L 133.2,218.42000000000002 L 133.2,216.5 L 134.44,216.5 L 134.44,214.58 L 135.67000000000002,214.58 L 135.67000000000002,212.67000000000002 L 136.91,212.67000000000002 L 136.91,210.75 L 138.15,210.75 L 138.15,208.83 L 139.38,208.83 L 139.38,206.92000000000002 L 140.62,206.92000000000002 L 140.62,205 L 141.86,205 L 141.86,203.08 L 143.09,203.08 L 143.09,201.17000000000002 L 144.33,201.17000000000002 L 144.33,199.25 L 145.57,199.25 L 145.57,197.33 L 146.8,197.33 L 146.8,195.42000000000002 L 148.04,195.42000000000002 L 148.04,193.5 L 149.28,193.5 L 150.51,193.5 L 150.51,191.58 L 151.75,191.58 L 151.75,189.67000000000002 L 152.99,189.67000000000002 L 152.99,187.75 L 154.22,187.75 L 154.22,185.83 L 155.46,185.83 L 155.46,183.92000000000002 L 156.70000000000002,183.92000000000002 L 157.93,183.92000000000002 L 157.93,182 L 159.17000000000002,182 L 159.17000000000002,180.08 L 160.41,180.08 L 160.41,178.17000000000002 L 161.64000000000001,178.17000000000002 L 161.64000000000001,176.25 L 162.88,176.25 L 164.12,176.25 L 164.12,174.33 L 165.35,174.33 L 165.35,172.42000000000002 L 166.59,172.42000000000002 L 166.59,170.5 L 167.83,170.5 L 167.83,168.58 L 169.06,168.58 L 170.3,168.58 L 170.3,166.67000000000002 L 171.54,166.67000000000002 L 171.54,164.75 L 172.77,164.75 L 174.01,164.75 L 174.01,162.83 L 175.25,162.83 L 175.25,160.92000000000002 L 176.48,160.92000000000002 L 176.48,159 L 177.72,159 L 178.96,159 L 178.96,157.08 L 180.19,157.08 L 180.19,155.17000000000002 L 181.43,155.17000000000002 L 182.67000000000002,155.17000000000002 L 182.67000000000002,153.25 L 183.9,153.25 L 183.9,151.33 L 185.14000000000001,151.33 L 186.38,151.33 L 186.38,149.42000000000002 L 187.61,149.42000000000002 L 187.61,147.5 L 188.85,147.5 L 190.09,147.5 L 190.09,145.58 L 191.32,145.58 L 191.32,143.67000000000002 L 192.56,143.67000000000002 L 193.8,143.67000000000002 L 193.8,141.75 L 195.03,141.75 L 196.27,141.75 L 196.27,139.83 L 197.51,139.83 L 197.51,137.92000000000002 L 198.74,137.92000000000002 L 199.98000000000002,137.92000000000002 L 199.98000000000002,136 L 201.22,136 L 202.45000000000002,136 L 202.45000000000002,134.08 L 203.69,134.08 L 203.69,132.17000000000002 L 204.93,132.17000000000002 L 206.16,132.17000000000002 L 206.16,130.25 L 207.4,130.25 L 208.64000000000001,130.25 L 208.64000000000001,128.33 L 209.87,128.33 L 211.11,128.33 L 211.11,126.42 L 212.35,126.42 L 212.35,124.5 L 213.58,124.5 L 214.82,124.5 L 214.82,122.58 L 216.06,122.58 L 217.29,122.58 L 217.29,120.67 L 218.53,120.67 L 219.77,120.67 L 219.77,118.75 L 221,118.75 L 222.24,118.75 L 222.24,116.83 L 223.48000000000002,116.83 L 224.71,116.83 L 224.71,114.92 L 225.95000000000002,114.92 L 227.19,114.92 L 227.19,113 L 228.42000000000002,113 L 229.66,113 L 229.66,111.08 L 230.9,111.08 L 232.13,111.08 L 232.13,109.17 L 233.37,109.17 L 234.61,109.17 L 234.61,107.25 L 235.84,107.25 L 237.08,107.25 L 237.08,105.33 L 238.32,105.33 L 239.55,105.33 L 239.55,103.42 L 240.79,103.42 L 242.03,103.42 L 242.03,101.5 L 243.26,101.5 L 244.5,101.5" stroke="#2ca02c" stroke-width="2" fill="none" /></g><rect x="286.6" y="34" width="224" height="74" fill="#ffffff" /><rect x="286.6" y="34" width="224" height="74" fill="none" stroke="#000000" stroke-width="1" /><text x="316.6" y="53.2" font-size="12" text-anchor="start">Model A  (AUC = 0.973)</text><line x1="296.6" y1="49" x2="308.6" y2="49" stroke="#1f77b4" stroke-width="2" /><text x="316.6" y="71.2" font-size="12" text-anchor="start">Model B  (AUC = 0.841)</text><line x1="296.6" y1="67" x2="308.6" y2="67" stroke="#ff7f0e" stroke-width="2" /><text x="316.6" y="89.2" font-size="12" text-anchor="start">Model C  (AUC = 0.632)</text><line x1="296.6" y1="85" x2="308.6" y2="85" stroke="#2ca02c" stroke-width="2" /></svg>