<svg xmlns="http://www.w3.org/2000/svg" width="673.4" height="545" font-family="DejaVu Sans, Liberation Sans, Arial, sans-serif" fill="black"><rect width="100%" height="100%" fill="white" /><defs><clipPath id="kuva-clip-1"><rect x="59" y="44" width="600" height="450"/></clipPath></defs><line x1="184" y1="44" x2="184" y2="494" stroke="#cccccc" stroke-width="1" /><line x1="309" y1="44" x2="309" y2="494" stroke="#cccccc" stroke-width="1" /><line x1="434" y1="44" x2="434" y2="494" stroke="#cccccc" stroke-width="1" /><line x1="559" y1="44" x2="559" y2="494" stroke="#cccccc" stroke-width="1" /><line x1="59" y1="400.25" x2="659" y2="400.25" stroke="#cccccc" stroke-width="1" /><line x1="59" y1="306.5" x2="659" y2="306.5" stroke="#cccccc" stroke-width="1" /><line x1="59" y1="212.75" x2="659" y2="212.75" stroke="#cccccc" stroke-width="1" /><line x1="59" y1="119" x2="659" y2="119" stroke="#cccccc" stroke-width="1" /><line x1="59" y1="494" x2="659" y2="494" stroke="#000000" stroke-width="1" /><line x1="59" y1="44" x2="59" y2="494" stroke="#000000" stroke-width="1" /><line x1="59" y1="494" x2="59" y2="499" stroke="#000000" stroke-width="1" /><text x="59" y="511" font-size="12" text-anchor="middle">0</text><line x1="184" y1="494" x2="184" y2="499" stroke="#000000" stroke-width="1" /><text x="184" y="511" font-size="12" text-anchor="middle">0.25</text><line x1="309" y1="494" x2="309" y2="499" stroke="#000000" stroke-width="1" /><text x="309" y="511" font-size="12" text-anchor="middle">0.5</text><line x1="434" y1="494" x2="434" y2="499" stroke="#000000" stroke-width="1" /><text x="434" y="511" font-size="12" text-anchor="middle">0.75</text><line x1="559" y1="494" x2="559" y2="499" stroke="#000000" stroke-width="1" /><text x="559" y="511" font-size="12" text-anchor="middle">1</text><line x1="54" y1="494" x2="59" y2="494" stroke="#000000" stroke-width="1" /><text x="51" y="498.2" font-size="12" text-anchor="end">0</text><line x1="54" y1="400.25" x2="59" y2="400.25" stroke="#000000" stroke-width="1" /><text x="51" y="404.45" font-size="12" text-anchor="end">0.25</text><line x1="54" y1="306.5" x2="59" y2="306.5" stroke="#000000" stroke-width="1" /><text x="51" y="310.7" font-size="12" text-anchor="end">0.5</text><line x1="54" y1="212.75" x2="59" y2="212.75" stroke="#000000" stroke-width="1" /><text x="51" y="216.95000000000002" font-size="12" text-anchor="end">0.75</text><line x1="54" y1="119" x2="59" y2="119" stroke="#000000" stroke-width="1" /><text x="51" y="123.2" font-size="12" text-anchor="end">1</text><text x="359" y="538" font-size="14" text-anchor="middle">False Positive Rate</text><text x="15" y="272.5" font-size="14" text-anchor="middle" transform="rotate(-90,15,272.5)">True Positive Rate</text><text x="336.7" y="27.400000000000002" font-size="18" text-anchor="middle">ROC Curve with 95% CI</text><g clip-path="url(#kuva-clip-1)"><line x1="59" y1="494" x2="559" y2="119" stroke="#aaaaaa" stroke-width="1" stroke-dasharray="5,3" /><path d="M 59,485.14 L 59,482.64 L 59,480.14 L 59,477.64 L 59,475.14 L 59,472.64 L 59,470.14 L 59,467.64 L 59,465.14 L 59,462.64 L 59,460.14 L 59,457.64 L 59,455.14 L 59,452.64 L 59,450.14 L 59,447.64 L 59,445.14 L 59,442.64 L 59,440.14 L 59,437.64 L 59,435.14 L 59,432.64 L 59,430.14 L 59,427.64 L 59,425.14 L 59,422.64 L 59,420.14 L 59,417.64 L 59,415.14 L 59,412.64 L 59,410.14 L 59,407.64 L 59,405.14 L 59,402.64 L 59,400.14 L 59,397.64 L 59,395.14 L 59,392.64 L 59,390.14 L 59,387.64 L 59,385.14 L 62.33,385.14 L 62.33,382.64 L 62.33,380.14 L 62.33,377.64 L 62.33,375.14 L 62.33,372.64 L 62.33,370.14 L 62.33,367.64 L 62.33,365.14 L 62.33,362.64 L 62.33,360.14 L 62.33,357.64 L 62.33,355.14 L 62.33,352.64 L 62.33,350.14 L 62.33,347.64 L 62.33,345.14 L 62.33,342.64 L 62.33,340.14 L 62.33,337.64 L 62.33,335.14 L 62.33,332.64 L 62.33,330.14 L 62.33,327.64 L 65.67,327.64 L 65.67,325.14 L 65.67,322.64 L 65.67,320.14 L 65.67,317.64 L 65.67,315.14 L 65.67,312.64 L 65.67,310.14 L 65.67,307.64 L 65.67,305.14 L 65.67,302.64 L 65.67,300.14 L 65.67,297.64 L 65.67,295.14 L 65.67,292.64 L 65.67,290.14 L 65.67,287.64 L 69,287.64 L 69,285.14 L 69,282.64 L 69,280.14 L 69,277.64 L 69,275.14 L 69,272.64 L 69,270.14 L 69,267.64 L 69,265.14 L 69,262.64 L 69,260.14 L 72.33,260.14 L 72.33,257.64 L 72.33,255.14000000000001 L 72.33,252.64000000000001 L 72.33,250.14000000000001 L 72.33,247.64000000000001 L 72.33,245.14000000000001 L 72.33,242.64000000000001 L 72.33,240.14000000000001 L 75.67,240.14000000000001 L 75.67,237.64000000000001 L 75.67,235.14000000000001 L 75.67,232.64000000000001 L 75.67,230.14000000000001 L 75.67,227.64000000000001 L 75.67,225.14000000000001 L 79,225.14000000000001 L 79,222.64000000000001 L 79,220.14000000000001 L 79,217.64000000000001 L 79,215.14000000000001 L 79,212.64000000000001 L 82.33,212.64000000000001 L 82.33,210.14000000000001 L 82.33,207.64000000000001 L 82.33,205.14000000000001 L 82.33,202.64000000000001 L 85.67,202.64000000000001 L 85.67,200.14000000000001 L 85.67,197.64000000000001 L 85.67,195.14000000000001 L 85.67,192.64000000000001 L 89,192.64000000000001 L 89,190.14000000000001 L 89,187.64000000000001 L 89,185.14000000000001 L 92.33,185.14000000000001 L 92.33,182.64000000000001 L 92.33,180.14000000000001 L 95.67,180.14000000000001 L 95.67,177.64000000000001 L 95.67,175.14000000000001 L 99,175.14000000000001 L 99,172.64000000000001 L 99,170.14000000000001 L 102.33,170.14000000000001 L 102.33,167.64000000000001 L 102.33,165.14000000000001 L 105.67,165.14000000000001 L 105.67,162.64000000000001 L 109,162.64000000000001 L 109,160.14000000000001 L 112.33,160.14000000000001 L 112.33,157.64000000000001 L 115.67,157.64000000000001 L 115.67,155.14000000000001 L 115.67,152.64000000000001 L 119,152.64000000000001 L 122.33,152.64000000000001 L 122.33,150.14000000000001 L 125.67,150.14000000000001 L 125.67,147.64000000000001 L 129,147.64000000000001 L 129,145.14000000000001 L 132.33,145.14000000000001 L 132.33,142.64000000000001 L 135.67000000000002,142.64000000000001 L 139,142.64000000000001 L 139,140.14000000000001 L 142.33,140.14000000000001 L 145.67000000000002,140.14000000000001 L 145.67000000000002,137.64000000000001 L 149,137.64000000000001 L 152.33,137.64000000000001 L 152.33,135.14000000000001 L 155.67000000000002,135.14000000000001 L 159,135.14000000000001 L 159,132.64000000000001 L 162.33,132.64000000000001 L 165.67000000000002,132.64000000000001 L 169,132.64000000000001 L 169,130.14000000000001 L 172.33,130.14000000000001 L 175.67000000000002,130.14000000000001 L 179,130.14000000000001 L 182.33,130.14000000000001 L 182.33,127.64 L 185.67000000000002,127.64 L 189,127.64 L 192.33,127.64 L 195.67000000000002,127.64 L 195.67000000000002,125.14 L 199,125.14 L 202.33,125.14 L 205.67000000000002,125.14 L 209,125.14 L 212.33,125.14 L 212.33,122.64 L 215.67000000000002,122.64 L 219,122.64 L 222.33,122.64 L 225.67000000000002,122.64 L 229,122.64 L 232.33,122.64 L 232.33,120.14 L 235.67000000000002,120.14 L 239,120.14 L 242.33,120.14 L 245.67000000000002,120.14 L 249,120.14 L 252.33,120.14 L 255.67000000000002,120.14 L 259,120.14 L 259,119 L 262.33,119 L 265.67,119 L 269,119 L 272.33,119 L 275.67,119 L 279,119 L 282.33,119 L 285.67,119 L 289,119 L 292.33,119 L 295.67,119 L 295.67,119 L 299,119 L 302.33,119 L 305.67,119 L 309,119 L 312.33,119 L 315.67,119 L 319,119 L 322.33,119 L 325.67,119 L 329,119 L 332.33,119 L 335.67,119 L 339,119 L 342.33,119 L 345.67,119 L 349,119 L 349,119 L 352.33,119 L 355.67,119 L 359,119 L 362.33,119 L 365.67,119 L 369,119 L 372.33,119 L 375.67,119 L 379,119 L 382.33,119 L 385.67,119 L 389,119 L 392.33,119 L 395.67,119 L 399,119 L 402.33,119 L 405.67,119 L 409,119 L 412.33,119 L 415.67,119 L 419,119 L 422.33,119 L 425.67,119 L 425.67,119 L 429,119 L 432.33,119 L 435.67,119 L 439,119 L 442.33,119 L 445.67,119 L 449,119 L 452.33,119 L 455.67,119 L 459,119 L 462.33,119 L 465.67,119 L 469,119 L 472.33,119 L 475.67,119 L 479,119 L 482.33,119 L 485.67,119 L 489,119 L 492.33,119 L 495.67,119 L 499,119 L 502.33,119 L 505.67,119 L 509,119 L 512.33,119 L 515.67,119 L 519,119 L 522.33,119 L 525.67,119 L 529,119 L 532.33,119 L 535.67,119 L 539,119 L 542.33,119 L 545.67,119 L 549,119 L 552.33,119 L 555.67,119 L 559,119 L 559,127.86 L 555.67,127.86 L 552.33,127.86 L 549,127.86 L 545.67,127.86 L 542.33,127.86 L 539,127.86 L 535.67,127.86 L 532.33,127.86 L 529,127.86 L 525.67,127.86 L 522.33,127.86 L 519,127.86 L 515.67,127.86 L 512.33,127.86 L 509,127.86 L 505.67,127.86 L 502.33,127.86 L 499,127.86 L 495.67,127.86 L 492.33,127.86 L 489,127.86 L 485.67,127.86 L 482.33,127.86 L 479,127.86 L 475.67,127.86 L 472.33,127.86 L 469,127.86 L 465.67,127.86 L 462.33,127.86 L 459,127.86 L 455.67,127.86 L 452.33,127.86 L 449,127.86 L 445.67,127.86 L 442.33,127.86 L 439,127.86 L 435.67,127.86 L 432.33,127.86 L 429,127.86 L 425.67,127.86 L 425.67,130.36 L 422.33,130.36 L 419,130.36 L 415.67,130.36 L 412.33,130.36 L 409,130.36 L 405.67,130.36 L 402.33,130.36 L 399,130.36 L 395.67,130.36 L 392.33,130.36 L 389,130.36 L 385.67,130.36 L 382.33,130.36 L 379,130.36 L 375.67,130.36 L 372.33,130.36 L 369,130.36 L 365.67,130.36 L 362.33,130.36 L 359,130.36 L 355.67,130.36 L 352.33,130.36 L 349,130.36 L 349,132.86 L 345.67,132.86 L 342.33,132.86 L 339,132.86 L 335.67,132.86 L 332.33,132.86 L 329,132.86 L 325.67,132.86 L 322.33,132.86 L 319,132.86 L 315.67,132.86 L 312.33,132.86 L 309,132.86 L 305.67,132.86 L 302.33,132.86 L 299,132.86 L 295.67,132.86 L 295.67,135.36 L 292.33,135.36 L 289,135.36 L 285.67,135.36 L 282.33,135.36 L 279,135.36 L 275.67,135.36 L 272.33,135.36 L 269,135.36 L 265.67,135.36 L 262.33,135.36 L 259,135.36 L 259,137.86 L 255.67000000000002,137.86 L 252.33,137.86 L 249,137.86 L 245.67000000000002,137.86 L 242.33,137.86 L 239,137.86 L 235.67000000000002,137.86 L 232.33,137.86 L 232.33,140.36 L 229,140.36 L 225.67000000000002,140.36 L 222.33,140.36 L 219,140.36 L 215.67000000000002,140.36 L 212.33,140.36 L 212.33,142.86 L 209,142.86 L 205.67000000000002,142.86 L 202.33,142.86 L 199,142.86 L 195.67000000000002,142.86 L 195.67000000000002,145.36 L 192.33,145.36 L 189,145.36 L 185.67000000000002,145.36 L 182.33,145.36 L 182.33,147.86 L 179,147.86 L 175.67000000000002,147.86 L 172.33,147.86 L 169,147.86 L 169,150.36 L 165.67000000000002,150.36 L 162.33,150.36 L 159,150.36 L 159,152.86 L 155.67000000000002,152.86 L 152.33,152.86 L 152.33,155.36 L 149,155.36 L 145.67000000000002,155.36 L 145.67000000000002,157.86 L 142.33,157.86 L 139,157.86 L 139,160.36 L 135.67000000000002,160.36 L 132.33,160.36 L 132.33,162.86 L 129,162.86 L 129,165.36 L 125.67,165.36 L 125.67,167.86 L 122.33,167.86 L 122.33,170.36 L 119,170.36 L 115.67,170.36 L 115.67,172.86 L 115.67,175.36 L 112.33,175.36 L 112.33,177.86 L 109,177.86 L 109,180.36 L 105.67,180.36 L 105.67,182.86 L 102.33,182.86 L 102.33,185.36 L 102.33,187.86 L 99,187.86 L 99,190.36 L 99,192.86 L 95.67,192.86 L 95.67,195.36 L 95.67,197.86 L 92.33,197.86 L 92.33,200.36 L 92.33,202.86 L 89,202.86 L 89,205.36 L 89,207.86 L 89,210.36 L 85.67,210.36 L 85.67,212.86 L 85.67,215.36 L 85.67,217.86 L 85.67,220.36 L 82.33,220.36 L 82.33,222.86 L 82.33,225.36 L 82.33,227.86 L 82.33,230.36 L 79,230.36 L 79,232.86 L 79,235.36 L 79,237.86 L 79,240.36 L 79,242.86 L 75.67,242.86 L 75.67,245.36 L 75.67,247.86 L 75.67,250.36 L 75.67,252.86 L 75.67,255.36 L 75.67,257.86 L 72.33,257.86 L 72.33,260.36 L 72.33,262.86 L 72.33,265.36 L 72.33,267.86 L 72.33,270.36 L 72.33,272.86 L 72.33,275.36 L 72.33,277.86 L 69,277.86 L 69,280.36 L 69,282.86 L 69,285.36 L 69,287.86 L 69,290.36 L 69,292.86 L 69,295.36 L 69,297.86 L 69,300.36 L 69,302.86 L 69,305.36 L 65.67,305.36 L 65.67,307.86 L 65.67,310.36 L 65.67,312.86 L 65.67,315.36 L 65.67,317.86 L 65.67,320.36 L 65.67,322.86 L 65.67,325.36 L 65.67,327.86 L 65.67,330.36 L 65.67,332.86 L 65.67,335.36 L 65.67,337.86 L 65.67,340.36 L 65.67,342.86 L 65.67,345.36 L 62.33,345.36 L 62.33,347.86 L 62.33,350.36 L 62.33,352.86 L 62.33,355.36 L 62.33,357.86 L 62.33,360.36 L 62.33,362.86 L 62.33,365.36 L 62.33,367.86 L 62.33,370.36 L 62.33,372.86 L 62.33,375.36 L 62.33,377.86 L 62.33,380.36 L 62.33,382.86 L 62.33,385.36 L 62.33,387.86 L 62.33,390.36 L 62.33,392.86 L 62.33,395.36 L 62.33,397.86 L 62.33,400.36 L 62.33,402.86 L 59,402.86 L 59,405.36 L 59,407.86 L 59,410.36 L 59,412.86 L 59,415.36 L 59,417.86 L 59,420.36 L 59,422.86 L 59,425.36 L 59,427.86 L 59,430.36 L 59,432.86 L 59,435.36 L 59,437.86 L 59,440.36 L 59,442.86 L 59,445.36 L 59,447.86 L 59,450.36 L 59,452.86 L 59,455.36 L 59,457.86 L 59,460.36 L 59,462.86 L 59,465.36 L 59,467.86 L 59,470.36 L 59,472.86 L 59,475.36 L 59,477.86 L 59,480.36 L 59,482.86 L 59,485.36 L 59,487.86 L 59,490.36 L 59,492.86 L 59,494 L 59,494 L 59,494 L 59,494 Z" stroke="#4682b4" stroke-width="0" fill="#4682b4" fill-opacity="0.15" /><path d="M 59,494 L 59,491.5 L 59,489 L 59,486.5 L 59,484 L 59,481.5 L 59,479 L 59,476.5 L 59,474 L 59,471.5 L 59,469 L 59,466.5 L 59,464 L 59,461.5 L 59,459 L 59,456.5 L 59,454 L 59,451.5 L 59,449 L 59,446.5 L 59,444 L 59,441.5 L 59,439 L 59,436.5 L 59,434 L 59,431.5 L 59,429 L 59,426.5 L 59,424 L 59,421.5 L 59,419 L 59,416.5 L 59,414 L 59,411.5 L 59,409 L 59,406.5 L 59,404 L 59,401.5 L 59,399 L 59,396.5 L 59,394 L 62.33,394 L 62.33,391.5 L 62.33,389 L 62.33,386.5 L 62.33,384 L 62.33,381.5 L 62.33,379 L 62.33,376.5 L 62.33,374 L 62.33,371.5 L 62.33,369 L 62.33,366.5 L 62.33,364 L 62.33,361.5 L 62.33,359 L 62.33,356.5 L 62.33,354 L 62.33,351.5 L 62.33,349 L 62.33,346.5 L 62.33,344 L 62.33,341.5 L 62.33,339 L 62.33,336.5 L 65.67,336.5 L 65.67,334 L 65.67,331.5 L 65.67,329 L 65.67,326.5 L 65.67,324 L 65.67,321.5 L 65.67,319 L 65.67,316.5 L 65.67,314 L 65.67,311.5 L 65.67,309 L 65.67,306.5 L 65.67,304 L 65.67,301.5 L 65.67,299 L 65.67,296.5 L 69,296.5 L 69,294 L 69,291.5 L 69,289 L 69,286.5 L 69,284 L 69,281.5 L 69,279 L 69,276.5 L 69,274 L 69,271.5 L 69,269 L 72.33,269 L 72.33,266.5 L 72.33,264 L 72.33,261.5 L 72.33,259 L 72.33,256.5 L 72.33,254 L 72.33,251.5 L 72.33,249 L 75.67,249 L 75.67,246.5 L 75.67,244 L 75.67,241.5 L 75.67,239 L 75.67,236.5 L 75.67,234 L 79,234 L 79,231.5 L 79,229 L 79,226.5 L 79,224 L 79,221.5 L 82.33,221.5 L 82.33,219 L 82.33,216.5 L 82.33,214 L 82.33,211.5 L 85.67,211.5 L 85.67,209 L 85.67,206.5 L 85.67,204 L 85.67,201.5 L 89,201.5 L 89,199 L 89,196.5 L 89,194 L 92.33,194 L 92.33,191.5 L 92.33,189 L 95.67,189 L 95.67,186.5 L 95.67,184 L 99,184 L 99,181.5 L 99,179 L 102.33,179 L 102.33,176.5 L 102.33,174 L 105.67,174 L 105.67,171.5 L 109,171.5 L 109,169 L 112.33,169 L 112.33,166.5 L 115.67,166.5 L 115.67,164 L 115.67,161.5 L 119,161.5 L 122.33,161.5 L 122.33,159 L 125.67,159 L 125.67,156.5 L 129,156.5 L 129,154 L 132.33,154 L 132.33,151.5 L 135.67000000000002,151.5 L 139,151.5 L 139,149 L 142.33,149 L 145.67000000000002,149 L 145.67000000000002,146.5 L 149,146.5 L 152.33,146.5 L 152.33,144 L 155.67000000000002,144 L 159,144 L 159,141.5 L 162.33,141.5 L 165.67000000000002,141.5 L 169,141.5 L 169,139 L 172.33,139 L 175.67000000000002,139 L 179,139 L 182.33,139 L 182.33,136.5 L 185.67000000000002,136.5 L 189,136.5 L 192.33,136.5 L 195.67000000000002,136.5 L 195.67000000000002,134 L 199,134 L 202.33,134 L 205.67000000000002,134 L 209,134 L 212.33,134 L 212.33,131.5 L 215.67000000000002,131.5 L 219,131.5 L 222.33,131.5 L 225.67000000000002,131.5 L 229,131.5 L 232.33,131.5 L 232.33,129 L 235.67000000000002,129 L 239,129 L 242.33,129 L 245.67000000000002,129 L 249,129 L 252.33,129 L 255.67000000000002,129 L 259,129 L 259,126.5 L 262.33,126.5 L 265.67,126.5 L 269,126.5 L 272.33,126.5 L 275.67,126.5 L 279,126.5 L 282.33,126.5 L 285.67,126.5 L 289,126.5 L 292.33,126.5 L 295.67,126.5 L 295.67,124 L 299,124 L 302.33,124 L 305.67,124 L 309,124 L 312.33,124 L 315.67,124 L 319,124 L 322.33,124 L 325.67,124 L 329,124 L 332.33,124 L 335.67,124 L 339,124 L 342.33,124 L 345.67,124 L 349,124 L 349,121.5 L 352.33,121.5 L 355.67,121.5 L 359,121.5 L 362.33,121.5 L 365.67,121.5 L 369,121.5 L 372.33,121.5 L 375.67,121.5 L 379,121.5 L 382.33,121.5 L 385.67,121.5 L 389,121.5 L 392.33,121.5 L 395.67,121.5 L 399,121.5 L 402.33,121.5 L 405.67,121.5 L 409,121.5 L 412.33,121.5 L 415.67,121.5 L 419,121.5 L 422.33,121.5 L 425.67,121.5 L 425.67,119 L 429,119 L 432.33,119 L 435.67,119 L 439,119 L 442.33,119 L 445.67,119 L 449,119 L 452.33,119 L 455.67,119 L 459,119 L 462.33,119 L 465.67,119 L 469,119 L 472.33,119 L 475.67,119 L 479,119 L 482.33,119 L 485.67,119 L 489,119 L 492.33,119 L 495.67,119 L 499,119 L 502.33,119 L 505.67,119 L 509,119 L 512.33,119 L 515.67,119 L 519,119 L 522.33,119 L 525.67,119 L 529,119 L 532.33,119 L 535.67,119 L 539,119 L 542.33,119 L 545.67,119 L 549,119 L 552.33,119 L 555.67,119 L 559,119" stroke="#4682b4" stroke-width="2" fill="none" /><circle cx="115.67" cy="161.5" r="5" fill="#4682b4" stroke="#ffffff" stroke-width="1" /></g></svg>