<svg xmlns="http://www.w3.org/2000/svg" width="717.8000000000001" height="181" font-family="DejaVu Sans, Liberation Sans, Arial, sans-serif" fill="black"><rect width="100%" height="100%" fill="white" /><defs><clipPath id="kuva-clip-0"><rect x="99.8" y="44" width="600" height="86"/></clipPath></defs><line x1="99.8" y1="130" x2="699.8000000000001" y2="130" stroke="#000000" stroke-width="1" /><line x1="99.8" y1="44" x2="99.8" y2="130" stroke="#000000" stroke-width="1" /><text x="91.8" y="119.87" font-size="12" text-anchor="end">Station C</text><line x1="94.8" y1="115.67" x2="99.8" y2="115.67" stroke="#000000" stroke-width="1" /><text x="91.8" y="91.2" font-size="12" text-anchor="end">Station B</text><line x1="94.8" y1="87" x2="99.8" y2="87" stroke="#000000" stroke-width="1" /><text x="91.8" y="62.53" font-size="12" text-anchor="end">Station A</text><line x1="94.8" y1="58.33" x2="99.8" y2="58.33" stroke="#000000" stroke-width="1" /><line x1="99.8" y1="130" x2="99.8" y2="135" stroke="#000000" stroke-width="1" /><text x="99.8" y="147" font-size="12" text-anchor="middle">0</text><line x1="219.8" y1="130" x2="219.8" y2="135" stroke="#000000" stroke-width="1" /><text x="219.8" y="147" font-size="12" text-anchor="middle">10</text><line x1="339.8" y1="130" x2="339.8" y2="135" stroke="#000000" stroke-width="1" /><text x="339.8" y="147" font-size="12" text-anchor="middle">20</text><line x1="459.8" y1="130" x2="459.8" y2="135" stroke="#000000" stroke-width="1" /><text x="459.8" y="147" font-size="12" text-anchor="middle">30</text><line x1="579.8000000000001" y1="130" x2="579.8000000000001" y2="135" stroke="#000000" stroke-width="1" /><text x="579.8000000000001" y="147" font-size="12" text-anchor="middle">40</text><line x1="699.8000000000001" y1="130" x2="699.8000000000001" y2="135" stroke="#000000" stroke-width="1" /><text x="699.8000000000001" y="147" font-size="12" text-anchor="middle">50</text><text x="399.8" y="174" font-size="14" text-anchor="middle">Hour</text><text x="358.90000000000003" y="27.400000000000002" font-size="18" text-anchor="middle">Temperature Anomaly (°C)</text><g clip-path="url(#kuva-clip-0)"><path d="M 99.8 44.0 L 111.8 44.0 L 123.8 44.0 L 135.8 44.0 L 147.8 44.0 L 159.8 44.0 L 171.8 44.0 L 183.8 44.0 L 195.8 44.0 L 207.8 44.0 L 219.8 49.04 L 231.8 68.7 L 243.8 72.67 L 255.8 72.67 L 267.8 72.67 L 279.8 72.67 L 291.8 72.67 L 303.8 72.67 L 315.8 72.67 L 327.8 72.67 L 339.8 72.67 L 351.8 72.67 L 363.8 71.67 L 375.8 58.57 L 387.8 48.25 L 399.8 44.0 L 411.8 44.0 L 423.8 44.0 L 435.8 50.63 L 447.8 62.47 L 459.8 72.67 L 471.8 72.67 L 483.8 72.67 L 495.8 72.67 L 507.8 72.67 L 519.8 72.67 L 531.8 72.67 L 543.8 72.67 L 555.8000000000001 72.67 L 567.8000000000001 72.67 L 579.8000000000001 72.67 L 591.8000000000001 72.67 L 603.8000000000001 72.67 L 615.8000000000001 65.37 L 627.8000000000001 47.480000000000004 L 639.8000000000001 44.0 L 651.8000000000001 44.0 L 663.8000000000001 44.0 L 663.8000000000001 72.67 L 99.8 72.67 Z" stroke="none" stroke-width="0" fill="#1f77b4" fill-opacity="0.33" /><path d="M 99.8 72.61 L 111.8 55.77 L 123.8 44.0 L 135.8 44.0 L 147.8 44.0 L 159.8 44.0 L 171.8 44.0 L 183.8 44.0 L 195.8 44.0 L 207.8 58.92 L 219.8 72.67 L 231.8 72.67 L 243.8 72.67 L 255.8 72.67 L 267.8 72.67 L 279.8 72.67 L 291.8 72.67 L 303.8 72.67 L 315.8 72.67 L 327.8 72.67 L 339.8 72.67 L 351.8 72.67 L 363.8 72.67 L 375.8 72.67 L 387.8 72.67 L 399.8 70.45 L 411.8 68.58 L 423.8 71.58 L 435.8 72.67 L 447.8 72.67 L 459.8 72.67 L 471.8 72.67 L 483.8 72.67 L 495.8 72.67 L 507.8 72.67 L 519.8 72.67 L 531.8 72.67 L 543.8 72.67 L 555.8000000000001 72.67 L 567.8000000000001 72.67 L 579.8000000000001 72.67 L 591.8000000000001 72.67 L 603.8000000000001 72.67 L 615.8000000000001 72.67 L 627.8000000000001 72.67 L 639.8000000000001 61.21 L 651.8000000000001 50.33 L 663.8000000000001 44.27 L 663.8000000000001 72.67 L 99.8 72.67 Z" stroke="none" stroke-width="0" fill="#1f77b4" fill-opacity="0.67" /><path d="M 99.8 72.67 L 111.8 72.67 L 123.8 69.4 L 135.8 57.550000000000004 L 147.8 49.99 L 159.8 47.480000000000004 L 171.8 50.34 L 183.8 58.43 L 195.8 71.18 L 207.8 72.67 L 219.8 72.67 L 231.8 72.67 L 243.8 72.67 L 255.8 72.67 L 267.8 72.67 L 279.8 72.67 L 291.8 72.67 L 303.8 72.67 L 315.8 72.67 L 327.8 72.67 L 339.8 72.67 L 351.8 72.67 L 363.8 72.67 L 375.8 72.67 L 387.8 72.67 L 399.8 72.67 L 411.8 72.67 L 423.8 72.67 L 435.8 72.67 L 447.8 72.67 L 459.8 72.67 L 471.8 72.67 L 483.8 72.67 L 495.8 72.67 L 507.8 72.67 L 519.8 72.67 L 531.8 72.67 L 543.8 72.67 L 555.8000000000001 72.67 L 567.8000000000001 72.67 L 579.8000000000001 72.67 L 591.8000000000001 72.67 L 603.8000000000001 72.67 L 615.8000000000001 72.67 L 627.8000000000001 72.67 L 639.8000000000001 72.67 L 651.8000000000001 72.67 L 663.8000000000001 72.67 L 663.8000000000001 72.67 L 99.8 72.67 Z" stroke="none" stroke-width="0" fill="#1f77b4" fill-opacity="1" /><path d="M 99.8 72.67 L 111.8 72.67 L 123.8 72.67 L 135.8 72.67 L 147.8 72.67 L 159.8 72.67 L 171.8 72.67 L 183.8 72.67 L 195.8 72.67 L 207.8 72.67 L 219.8 72.67 L 231.8 72.67 L 243.8 57.660000000000004 L 255.8 44.0 L 267.8 44.0 L 279.8 44.0 L 291.8 44.0 L 303.8 44.0 L 315.8 44.0 L 327.8 44.0 L 339.8 44.67 L 351.8 59.14 L 363.8 72.67 L 375.8 72.67 L 387.8 72.67 L 399.8 72.67 L 411.8 72.67 L 423.8 72.67 L 435.8 72.67 L 447.8 72.67 L 459.8 67.91 L 471.8 51.120000000000005 L 483.8 44.0 L 495.8 44.0 L 507.8 44.0 L 519.8 44.0 L 531.8 44.0 L 543.8 44.0 L 555.8000000000001 44.0 L 567.8000000000001 44.0 L 579.8000000000001 44.0 L 591.8000000000001 44.0 L 603.8000000000001 60.52 L 615.8000000000001 72.67 L 627.8000000000001 72.67 L 639.8000000000001 72.67 L 651.8000000000001 72.67 L 663.8000000000001 72.67 L 663.8000000000001 72.67 L 99.8 72.67 Z" stroke="none" stroke-width="0" fill="#d62728" fill-opacity="0.33" /><path d="M 99.8 72.67 L 111.8 72.67 L 123.8 72.67 L 135.8 72.67 L 147.8 72.67 L 159.8 72.67 L 171.8 72.67 L 183.8 72.67 L 195.8 72.67 L 207.8 72.67 L 219.8 72.67 L 231.8 72.67 L 243.8 72.67 L 255.8 69.51 L 267.8 56.160000000000004 L 279.8 47.22 L 291.8 44.0 L 303.8 44.46 L 315.8 50.43 L 327.8 60.42 L 339.8 72.67 L 351.8 72.67 L 363.8 72.67 L 375.8 72.67 L 387.8 72.67 L 399.8 72.67 L 411.8 72.67 L 423.8 72.67 L 435.8 72.67 L 447.8 72.67 L 459.8 72.67 L 471.8 72.67 L 483.8 62.65 L 495.8 46.7 L 507.8 44.0 L 519.8 44.0 L 531.8 44.0 L 543.8 44.0 L 555.8000000000001 44.0 L 567.8000000000001 44.0 L 579.8000000000001 51.75 L 591.8000000000001 69.71000000000001 L 603.8000000000001 72.67 L 615.8000000000001 72.67 L 627.8000000000001 72.67 L 639.8000000000001 72.67 L 651.8000000000001 72.67 L 663.8000000000001 72.67 L 663.8000000000001 72.67 L 99.8 72.67 Z" stroke="none" stroke-width="0" fill="#d62728" fill-opacity="0.67" /><path d="M 99.8 72.67 L 111.8 72.67 L 123.8 72.67 L 135.8 72.67 L 147.8 72.67 L 159.8 72.67 L 171.8 72.67 L 183.8 72.67 L 195.8 72.67 L 207.8 72.67 L 219.8 72.67 L 231.8 72.67 L 243.8 72.67 L 255.8 72.67 L 267.8 72.67 L 279.8 72.67 L 291.8 71.95 L 303.8 72.67 L 315.8 72.67 L 327.8 72.67 L 339.8 72.67 L 351.8 72.67 L 363.8 72.67 L 375.8 72.67 L 387.8 72.67 L 399.8 72.67 L 411.8 72.67 L 423.8 72.67 L 435.8 72.67 L 447.8 72.67 L 459.8 72.67 L 471.8 72.67 L 483.8 72.67 L 495.8 72.67 L 507.8 62.04 L 519.8 52.59 L 531.8 47.910000000000004 L 543.8 48.53 L 555.8000000000001 54.49 L 567.8000000000001 65.39 L 579.8000000000001 72.67 L 591.8000000000001 72.67 L 603.8000000000001 72.67 L 615.8000000000001 72.67 L 627.8000000000001 72.67 L 639.8000000000001 72.67 L 651.8000000000001 72.67 L 663.8000000000001 72.67 L 663.8000000000001 72.67 L 99.8 72.67 Z" stroke="none" stroke-width="0" fill="#d62728" fill-opacity="1" /><line x1="99.8" y1="72.67" x2="699.8000000000001" y2="72.67" stroke="#000000" stroke-width="0.5" /><path d="M 99.8 101.33 L 111.8 101.33 L 123.8 101.33 L 135.8 101.33 L 147.8 101.33 L 159.8 101.33 L 171.8 88.01 L 183.8 73.68 L 195.8 72.67 L 207.8 72.67 L 219.8 72.67 L 231.8 72.67 L 243.8 72.67 L 255.8 72.67 L 267.8 72.67 L 279.8 72.67 L 291.8 72.67 L 303.8 72.67 L 315.8 81.53 L 327.8 97.03 L 339.8 101.33 L 351.8 101.33 L 363.8 101.33 L 375.8 101.33 L 387.8 101.33 L 399.8 101.33 L 411.8 101.33 L 423.8 101.33 L 435.8 101.33 L 447.8 101.33 L 459.8 101.33 L 471.8 101.33 L 483.8 101.33 L 495.8 101.33 L 507.8 91.02 L 519.8 80.58 L 531.8 72.67 L 543.8 72.67 L 555.8000000000001 72.67 L 567.8000000000001 72.67 L 579.8000000000001 72.67 L 591.8000000000001 72.67 L 603.8000000000001 77.06 L 615.8000000000001 85.53 L 627.8000000000001 94.84 L 639.8000000000001 101.33 L 651.8000000000001 101.33 L 663.8000000000001 101.33 L 663.8000000000001 101.33 L 99.8 101.33 Z" stroke="none" stroke-width="0" fill="#ff7f0e" fill-opacity="0.33" /><path d="M 99.8 101.33 L 111.8 101.33 L 123.8 101.33 L 135.8 101.33 L 147.8 101.33 L 159.8 101.33 L 171.8 101.33 L 183.8 101.33 L 195.8 89.0 L 207.8 77.4 L 219.8 72.67 L 231.8 72.67 L 243.8 72.67 L 255.8 72.67 L 267.8 72.67 L 279.8 72.67 L 291.8 82.58 L 303.8 95.56 L 315.8 101.33 L 327.8 101.33 L 339.8 101.33 L 351.8 101.33 L 363.8 101.33 L 375.8 101.33 L 387.8 101.33 L 399.8 101.33 L 411.8 101.33 L 423.8 101.33 L 435.8 101.33 L 447.8 101.33 L 459.8 101.33 L 471.8 101.33 L 483.8 101.33 L 495.8 101.33 L 507.8 101.33 L 519.8 101.33 L 531.8 100.84 L 543.8 94.91 L 555.8000000000001 91.73 L 567.8000000000001 91.41 L 579.8000000000001 93.84 L 591.8000000000001 98.76 L 603.8000000000001 101.33 L 615.8000000000001 101.33 L 627.8000000000001 101.33 L 639.8000000000001 101.33 L 651.8000000000001 101.33 L 663.8000000000001 101.33 L 663.8000000000001 101.33 L 99.8 101.33 Z" stroke="none" stroke-width="0" fill="#ff7f0e" fill-opacity="0.67" /><path d="M 99.8 101.33 L 111.8 101.33 L 123.8 101.33 L 135.8 101.33 L 147.8 101.33 L 159.8 101.33 L 171.8 101.33 L 183.8 101.33 L 195.8 101.33 L 207.8 101.33 L 219.8 96.9 L 231.8 90.72 L 243.8 87.91 L 255.8 88.67 L 267.8 92.99 L 279.8 100.65 L 291.8 101.33 L 303.8 101.33 L 315.8 101.33 L 327.8 101.33 L 339.8 101.33 L 351.8 101.33 L 363.8 101.33 L 375.8 101.33 L 387.8 101.33 L 399.8 101.33 L 411.8 101.33 L 423.8 101.33 L 435.8 101.33 L 447.8 101.33 L 459.8 101.33 L 471.8 101.33 L 483.8 101.33 L 495.8 101.33 L 507.8 101.33 L 519.8 101.33 L 531.8 101.33 L 543.8 101.33 L 555.8000000000001 101.33 L 567.8000000000001 101.33 L 579.8000000000001 101.33 L 591.8000000000001 101.33 L 603.8000000000001 101.33 L 615.8000000000001 101.33 L 627.8000000000001 101.33 L 639.8000000000001 101.33 L 651.8000000000001 101.33 L 663.8000000000001 101.33 L 663.8000000000001 101.33 L 99.8 101.33 Z" stroke="none" stroke-width="0" fill="#ff7f0e" fill-opacity="1" /><path d="M 99.8 72.67 L 111.8 72.67 L 123.8 72.67 L 135.8 73.93 L 147.8 86.34 L 159.8 100.17 L 171.8 101.33 L 183.8 101.33 L 195.8 101.33 L 207.8 101.33 L 219.8 101.33 L 231.8 101.33 L 243.8 101.33 L 255.8 101.33 L 267.8 101.33 L 279.8 101.33 L 291.8 101.33 L 303.8 101.33 L 315.8 101.33 L 327.8 101.33 L 339.8 90.12 L 351.8 75.42 L 363.8 72.67 L 375.8 72.67 L 387.8 72.67 L 399.8 72.67 L 411.8 72.67 L 423.8 72.67 L 435.8 72.67 L 447.8 72.67 L 459.8 72.67 L 471.8 74.62 L 483.8 87.19 L 495.8 99.79 L 507.8 101.33 L 519.8 101.33 L 531.8 101.33 L 543.8 101.33 L 555.8000000000001 101.33 L 567.8000000000001 101.33 L 579.8000000000001 101.33 L 591.8000000000001 101.33 L 603.8000000000001 101.33 L 615.8000000000001 101.33 L 627.8000000000001 101.33 L 639.8000000000001 98.38 L 651.8000000000001 89.5 L 663.8000000000001 81.86 L 663.8000000000001 101.33 L 99.8 101.33 Z" stroke="none" stroke-width="0" fill="#d62728" fill-opacity="0.33" /><path d="M 99.8 79.75 L 111.8 84.53 L 123.8 92.26 L 135.8 101.33 L 147.8 101.33 L 159.8 101.33 L 171.8 101.33 L 183.8 101.33 L 195.8 101.33 L 207.8 101.33 L 219.8 101.33 L 231.8 101.33 L 243.8 101.33 L 255.8 101.33 L 267.8 101.33 L 279.8 101.33 L 291.8 101.33 L 303.8 101.33 L 315.8 101.33 L 327.8 101.33 L 339.8 101.33 L 351.8 101.33 L 363.8 90.99 L 375.8 80.18 L 387.8 72.67 L 399.8 72.67 L 411.8 72.67 L 423.8 72.67 L 435.8 73.34 L 447.8 81.32000000000001 L 459.8 91.53 L 471.8 101.33 L 483.8 101.33 L 495.8 101.33 L 507.8 101.33 L 519.8 101.33 L 531.8 101.33 L 543.8 101.33 L 555.8000000000001 101.33 L 567.8000000000001 101.33 L 579.8000000000001 101.33 L 591.8000000000001 101.33 L 603.8000000000001 101.33 L 615.8000000000001 101.33 L 627.8000000000001 101.33 L 639.8000000000001 101.33 L 651.8000000000001 101.33 L 663.8000000000001 101.33 L 663.8000000000001 101.33 L 99.8 101.33 Z" stroke="none" stroke-width="0" fill="#d62728" fill-opacity="0.67" /><path d="M 99.8 101.33 L 111.8 101.33 L 123.8 101.33 L 135.8 101.33 L 147.8 101.33 L 159.8 101.33 L 171.8 101.33 L 183.8 101.33 L 195.8 101.33 L 207.8 101.33 L 219.8 101.33 L 231.8 101.33 L 243.8 101.33 L 255.8 101.33 L 267.8 101.33 L 279.8 101.33 L 291.8 101.33 L 303.8 101.33 L 315.8 101.33 L 327.8 101.33 L 339.8 101.33 L 351.8 101.33 L 363.8 101.33 L 375.8 101.33 L 387.8 100.88 L 399.8 96.13 L 411.8 94.78 L 423.8 96.81 L 435.8 101.33 L 447.8 101.33 L 459.8 101.33 L 471.8 101.33 L 483.8 101.33 L 495.8 101.33 L 507.8 101.33 L 519.8 101.33 L 531.8 101.33 L 543.8 101.33 L 555.8000000000001 101.33 L 567.8000000000001 101.33 L 579.8000000000001 101.33 L 591.8000000000001 101.33 L 603.8000000000001 101.33 L 615.8000000000001 101.33 L 627.8000000000001 101.33 L 639.8000000000001 101.33 L 651.8000000000001 101.33 L 663.8000000000001 101.33 L 663.8000000000001 101.33 L 99.8 101.33 Z" stroke="none" stroke-width="0" fill="#d62728" fill-opacity="1" /><line x1="99.8" y1="101.33" x2="699.8000000000001" y2="101.33" stroke="#000000" stroke-width="0.5" /><path d="M 99.8 130.0 L 111.8 130.0 L 123.8 130.0 L 135.8 124.95 L 147.8 113.67 L 159.8 104.36 L 171.8 101.33 L 183.8 101.33 L 195.8 101.33 L 207.8 101.33 L 219.8 101.33 L 231.8 102.55 L 243.8 111.13 L 255.8 121.56 L 267.8 130.0 L 279.8 130.0 L 291.8 130.0 L 303.8 130.0 L 315.8 130.0 L 327.8 130.0 L 339.8 130.0 L 351.8 130.0 L 363.8 130.0 L 375.8 130.0 L 387.8 130.0 L 399.8 130.0 L 411.8 130.0 L 423.8 130.0 L 435.8 130.0 L 447.8 130.0 L 459.8 130.0 L 471.8 130.0 L 483.8 120.58 L 495.8 104.78 L 507.8 101.33 L 519.8 101.33 L 531.8 101.33 L 543.8 101.33 L 555.8000000000001 101.33 L 567.8000000000001 101.33 L 579.8000000000001 101.33 L 591.8000000000001 101.33 L 603.8000000000001 101.33 L 615.8000000000001 101.33 L 627.8000000000001 101.33 L 639.8000000000001 101.33 L 651.8000000000001 101.33 L 663.8000000000001 102.99000000000001 L 663.8000000000001 130.0 L 99.8 130.0 Z" stroke="none" stroke-width="0" fill="#2ca02c" fill-opacity="0.33" /><path d="M 99.8 130.0 L 111.8 130.0 L 123.8 130.0 L 135.8 130.0 L 147.8 130.0 L 159.8 130.0 L 171.8 126.03 L 183.8 121.62 L 195.8 119.95 L 207.8 121.06 L 219.8 124.87 L 231.8 130.0 L 243.8 130.0 L 255.8 130.0 L 267.8 130.0 L 279.8 130.0 L 291.8 130.0 L 303.8 130.0 L 315.8 130.0 L 327.8 130.0 L 339.8 130.0 L 351.8 130.0 L 363.8 130.0 L 375.8 130.0 L 387.8 130.0 L 399.8 130.0 L 411.8 130.0 L 423.8 130.0 L 435.8 130.0 L 447.8 130.0 L 459.8 130.0 L 471.8 130.0 L 483.8 130.0 L 495.8 130.0 L 507.8 118.55 L 519.8 105.08 L 531.8 101.33 L 543.8 101.33 L 555.8000000000001 101.33 L 567.8000000000001 101.33 L 579.8000000000001 101.33 L 591.8000000000001 101.33 L 603.8000000000001 101.33 L 615.8000000000001 101.33 L 627.8000000000001 101.33 L 639.8000000000001 106.51 L 651.8000000000001 118.73 L 663.8000000000001 130.0 L 663.8000000000001 130.0 L 99.8 130.0 Z" stroke="none" stroke-width="0" fill="#2ca02c" fill-opacity="0.67" /><path d="M 99.8 130.0 L 111.8 130.0 L 123.8 130.0 L 135.8 130.0 L 147.8 130.0 L 159.8 130.0 L 171.8 130.0 L 183.8 130.0 L 195.8 130.0 L 207.8 130.0 L 219.8 130.0 L 231.8 130.0 L 243.8 130.0 L 255.8 130.0 L 267.8 130.0 L 279.8 130.0 L 291.8 130.0 L 303.8 130.0 L 315.8 130.0 L 327.8 130.0 L 339.8 130.0 L 351.8 130.0 L 363.8 130.0 L 375.8 130.0 L 387.8 130.0 L 399.8 130.0 L 411.8 130.0 L 423.8 130.0 L 435.8 130.0 L 447.8 130.0 L 459.8 130.0 L 471.8 130.0 L 483.8 130.0 L 495.8 130.0 L 507.8 130.0 L 519.8 130.0 L 531.8 122.17 L 543.8 112.89 L 555.8000000000001 106.21000000000001 L 567.8000000000001 102.32000000000001 L 579.8000000000001 101.33 L 591.8000000000001 103.21000000000001 L 603.8000000000001 107.83 L 615.8000000000001 114.93 L 627.8000000000001 124.19 L 639.8000000000001 130.0 L 651.8000000000001 130.0 L 663.8000000000001 130.0 L 663.8000000000001 130.0 L 99.8 130.0 Z" stroke="none" stroke-width="0" fill="#2ca02c" fill-opacity="1" /><path d="M 99.8 101.33 L 111.8 108.41 L 123.8 122.24000000000001 L 135.8 130.0 L 147.8 130.0 L 159.8 130.0 L 171.8 130.0 L 183.8 130.0 L 195.8 130.0 L 207.8 130.0 L 219.8 130.0 L 231.8 130.0 L 243.8 130.0 L 255.8 130.0 L 267.8 126.59 L 279.8 113.87 L 291.8 101.33 L 303.8 101.33 L 315.8 101.33 L 327.8 101.33 L 339.8 101.33 L 351.8 101.33 L 363.8 101.33 L 375.8 101.33 L 387.8 101.33 L 399.8 101.33 L 411.8 101.33 L 423.8 101.33 L 435.8 101.33 L 447.8 101.33 L 459.8 107.4 L 471.8 123.29 L 483.8 130.0 L 495.8 130.0 L 507.8 130.0 L 519.8 130.0 L 531.8 130.0 L 543.8 130.0 L 555.8000000000001 130.0 L 567.8000000000001 130.0 L 579.8000000000001 130.0 L 591.8000000000001 130.0 L 603.8000000000001 130.0 L 615.8000000000001 130.0 L 627.8000000000001 130.0 L 639.8000000000001 130.0 L 651.8000000000001 130.0 L 663.8000000000001 130.0 L 663.8000000000001 130.0 L 99.8 130.0 Z" stroke="none" stroke-width="0" fill="#d62728" fill-opacity="0.33" /><path d="M 99.8 122.77 L 111.8 130.0 L 123.8 130.0 L 135.8 130.0 L 147.8 130.0 L 159.8 130.0 L 171.8 130.0 L 183.8 130.0 L 195.8 130.0 L 207.8 130.0 L 219.8 130.0 L 231.8 130.0 L 243.8 130.0 L 255.8 130.0 L 267.8 130.0 L 279.8 130.0 L 291.8 129.47 L 303.8 116.63 L 315.8 104.59 L 327.8 101.33 L 339.8 101.33 L 351.8 101.33 L 363.8 101.33 L 375.8 101.33 L 387.8 101.33 L 399.8 101.33 L 411.8 101.33 L 423.8 101.33 L 435.8 107.25 L 447.8 120.99000000000001 L 459.8 130.0 L 471.8 130.0 L 483.8 130.0 L 495.8 130.0 L 507.8 130.0 L 519.8 130.0 L 531.8 130.0 L 543.8 130.0 L 555.8000000000001 130.0 L 567.8000000000001 130.0 L 579.8000000000001 130.0 L 591.8000000000001 130.0 L 603.8000000000001 130.0 L 615.8000000000001 130.0 L 627.8000000000001 130.0 L 639.8000000000001 130.0 L 651.8000000000001 130.0 L 663.8000000000001 130.0 L 663.8000000000001 130.0 L 99.8 130.0 Z" stroke="none" stroke-width="0" fill="#d62728" fill-opacity="0.67" /><path d="M 99.8 130.0 L 111.8 130.0 L 123.8 130.0 L 135.8 130.0 L 147.8 130.0 L 159.8 130.0 L 171.8 130.0 L 183.8 130.0 L 195.8 130.0 L 207.8 130.0 L 219.8 130.0 L 231.8 130.0 L 243.8 130.0 L 255.8 130.0 L 267.8 130.0 L 279.8 130.0 L 291.8 130.0 L 303.8 130.0 L 315.8 130.0 L 327.8 122.53 L 339.8 113.61 L 351.8 106.9 L 363.8 102.74000000000001 L 375.8 101.33 L 387.8 102.81 L 399.8 107.17 L 411.8 114.31 L 423.8 124.0 L 435.8 130.0 L 447.8 130.0 L 459.8 130.0 L 471.8 130.0 L 483.8 130.0 L 495.8 130.0 L 507.8 130.0 L 519.8 130.0 L 531.8 130.0 L 543.8 130.0 L 555.8000000000001 130.0 L 567.8000000000001 130.0 L 579.8000000000001 130.0 L 591.8000000000001 130.0 L 603.8000000000001 130.0 L 615.8000000000001 130.0 L 627.8000000000001 130.0 L 639.8000000000001 130.0 L 651.8000000000001 130.0 L 663.8000000000001 130.0 L 663.8000000000001 130.0 L 99.8 130.0 Z" stroke="none" stroke-width="0" fill="#d62728" fill-opacity="1" /><line x1="99.8" y1="130" x2="699.8000000000001" y2="130" stroke="#000000" stroke-width="0.5" /></g></svg>