<svg xmlns="http://www.w3.org/2000/svg" width="785.8000000000001" height="181" font-family="DejaVu Sans, Liberation Sans, Arial, sans-serif" fill="black"><rect width="100%" height="100%" fill="white" /><defs><clipPath id="kuva-clip-1"><rect x="99.8" y="44" width="600" height="86"/></clipPath></defs><line x1="99.8" y1="130" x2="699.8000000000001" y2="130" stroke="#000000" stroke-width="1" /><line x1="99.8" y1="44" x2="99.8" y2="130" stroke="#000000" stroke-width="1" /><text x="91.8" y="119.87" font-size="12" text-anchor="end">Station C</text><line x1="94.8" y1="115.67" x2="99.8" y2="115.67" stroke="#000000" stroke-width="1" /><text x="91.8" y="91.2" font-size="12" text-anchor="end">Station B</text><line x1="94.8" y1="87" x2="99.8" y2="87" stroke="#000000" stroke-width="1" /><text x="91.8" y="62.53" font-size="12" text-anchor="end">Station A</text><line x1="94.8" y1="58.33" x2="99.8" y2="58.33" stroke="#000000" stroke-width="1" /><line x1="99.8" y1="130" x2="99.8" y2="135" stroke="#000000" stroke-width="1" /><text x="99.8" y="147" font-size="12" text-anchor="middle">0</text><line x1="219.8" y1="130" x2="219.8" y2="135" stroke="#000000" stroke-width="1" /><text x="219.8" y="147" font-size="12" text-anchor="middle">10</text><line x1="339.8" y1="130" x2="339.8" y2="135" stroke="#000000" stroke-width="1" /><text x="339.8" y="147" font-size="12" text-anchor="middle">20</text><line x1="459.8" y1="130" x2="459.8" y2="135" stroke="#000000" stroke-width="1" /><text x="459.8" y="147" font-size="12" text-anchor="middle">30</text><line x1="579.8000000000001" y1="130" x2="579.8000000000001" y2="135" stroke="#000000" stroke-width="1" /><text x="579.8000000000001" y="147" font-size="12" text-anchor="middle">40</text><line x1="699.8000000000001" y1="130" x2="699.8000000000001" y2="135" stroke="#000000" stroke-width="1" /><text x="699.8000000000001" y="147" font-size="12" text-anchor="middle">50</text><text x="399.8" y="174" font-size="14" text-anchor="middle">Hour</text><text x="392.90000000000003" y="27.400000000000002" font-size="18" text-anchor="middle">Temperature Anomaly with Band Labels</text><g clip-path="url(#kuva-clip-1)"><path d="M 99.8 44.0 L 111.8 44.0 L 123.8 44.0 L 135.8 44.0 L 147.8 44.0 L 159.8 44.0 L 171.8 44.0 L 183.8 44.0 L 195.8 44.0 L 207.8 44.0 L 219.8 44.0 L 231.8 67.38 L 243.8 72.67 L 255.8 72.67 L 267.8 72.67 L 279.8 72.67 L 291.8 72.67 L 303.8 72.67 L 315.8 72.67 L 327.8 72.67 L 339.8 72.67 L 351.8 72.67 L 363.8 71.34 L 375.8 53.870000000000005 L 387.8 44.0 L 399.8 44.0 L 411.8 44.0 L 423.8 44.0 L 435.8 44.0 L 447.8 59.07 L 459.8 72.67 L 471.8 72.67 L 483.8 72.67 L 495.8 72.67 L 507.8 72.67 L 519.8 72.67 L 531.8 72.67 L 543.8 72.67 L 555.8000000000001 72.67 L 567.8000000000001 72.67 L 579.8000000000001 72.67 L 591.8000000000001 72.67 L 603.8000000000001 72.67 L 615.8000000000001 62.93 L 627.8000000000001 44.0 L 639.8000000000001 44.0 L 651.8000000000001 44.0 L 663.8000000000001 44.0 L 663.8000000000001 72.67 L 99.8 72.67 Z" stroke="none" stroke-width="0" fill="#1f77b4" fill-opacity="0.25" /><path d="M 99.8 63.03 L 111.8 44.0 L 123.8 44.0 L 135.8 44.0 L 147.8 44.0 L 159.8 44.0 L 171.8 44.0 L 183.8 44.0 L 195.8 44.0 L 207.8 44.78 L 219.8 69.83 L 231.8 72.67 L 243.8 72.67 L 255.8 72.67 L 267.8 72.67 L 279.8 72.67 L 291.8 72.67 L 303.8 72.67 L 315.8 72.67 L 327.8 72.67 L 339.8 72.67 L 351.8 72.67 L 363.8 72.67 L 375.8 72.67 L 387.8 68.78 L 399.8 60.160000000000004 L 411.8 57.660000000000004 L 423.8 61.660000000000004 L 435.8 71.95 L 447.8 72.67 L 459.8 72.67 L 471.8 72.67 L 483.8 72.67 L 495.8 72.67 L 507.8 72.67 L 519.8 72.67 L 531.8 72.67 L 543.8 72.67 L 555.8000000000001 72.67 L 567.8000000000001 72.67 L 579.8000000000001 72.67 L 591.8000000000001 72.67 L 603.8000000000001 72.67 L 615.8000000000001 72.67 L 627.8000000000001 67.75 L 639.8000000000001 47.83 L 651.8000000000001 44.0 L 663.8000000000001 44.0 L 663.8000000000001 72.67 L 99.8 72.67 Z" stroke="none" stroke-width="0" fill="#1f77b4" fill-opacity="0.5" /><path d="M 99.8 72.67 L 111.8 69.25 L 123.8 49.2 L 135.8 44.0 L 147.8 44.0 L 159.8 44.0 L 171.8 44.0 L 183.8 44.0 L 195.8 51.57 L 207.8 72.67 L 219.8 72.67 L 231.8 72.67 L 243.8 72.67 L 255.8 72.67 L 267.8 72.67 L 279.8 72.67 L 291.8 72.67 L 303.8 72.67 L 315.8 72.67 L 327.8 72.67 L 339.8 72.67 L 351.8 72.67 L 363.8 72.67 L 375.8 72.67 L 387.8 72.67 L 399.8 72.67 L 411.8 72.67 L 423.8 72.67 L 435.8 72.67 L 447.8 72.67 L 459.8 72.67 L 471.8 72.67 L 483.8 72.67 L 495.8 72.67 L 507.8 72.67 L 519.8 72.67 L 531.8 72.67 L 543.8 72.67 L 555.8000000000001 72.67 L 567.8000000000001 72.67 L 579.8000000000001 72.67 L 591.8000000000001 72.67 L 603.8000000000001 72.67 L 615.8000000000001 72.67 L 627.8000000000001 72.67 L 639.8000000000001 72.67 L 651.8000000000001 62.0 L 663.8000000000001 53.92 L 663.8000000000001 72.67 L 99.8 72.67 Z" stroke="none" stroke-width="0" fill="#1f77b4" fill-opacity="0.75" /><path d="M 99.8 72.67 L 111.8 72.67 L 123.8 72.67 L 135.8 62.06 L 147.8 51.980000000000004 L 159.8 48.64 L 171.8 52.45 L 183.8 63.24 L 195.8 72.67 L 207.8 72.67 L 219.8 72.67 L 231.8 72.67 L 243.8 72.67 L 255.8 72.67 L 267.8 72.67 L 279.8 72.67 L 291.8 72.67 L 303.8 72.67 L 315.8 72.67 L 327.8 72.67 L 339.8 72.67 L 351.8 72.67 L 363.8 72.67 L 375.8 72.67 L 387.8 72.67 L 399.8 72.67 L 411.8 72.67 L 423.8 72.67 L 435.8 72.67 L 447.8 72.67 L 459.8 72.67 L 471.8 72.67 L 483.8 72.67 L 495.8 72.67 L 507.8 72.67 L 519.8 72.67 L 531.8 72.67 L 543.8 72.67 L 555.8000000000001 72.67 L 567.8000000000001 72.67 L 579.8000000000001 72.67 L 591.8000000000001 72.67 L 603.8000000000001 72.67 L 615.8000000000001 72.67 L 627.8000000000001 72.67 L 639.8000000000001 72.67 L 651.8000000000001 72.67 L 663.8000000000001 72.67 L 663.8000000000001 72.67 L 99.8 72.67 Z" stroke="none" stroke-width="0" fill="#1f77b4" fill-opacity="1" /><path d="M 99.8 72.67 L 111.8 72.67 L 123.8 72.67 L 135.8 72.67 L 147.8 72.67 L 159.8 72.67 L 171.8 72.67 L 183.8 72.67 L 195.8 72.67 L 207.8 72.67 L 219.8 72.67 L 231.8 72.67 L 243.8 52.65 L 255.8 44.0 L 267.8 44.0 L 279.8 44.0 L 291.8 44.0 L 303.8 44.0 L 315.8 44.0 L 327.8 44.0 L 339.8 44.0 L 351.8 54.620000000000005 L 363.8 72.67 L 375.8 72.67 L 387.8 72.67 L 399.8 72.67 L 411.8 72.67 L 423.8 72.67 L 435.8 72.67 L 447.8 72.67 L 459.8 66.32000000000001 L 471.8 44.0 L 483.8 44.0 L 495.8 44.0 L 507.8 44.0 L 519.8 44.0 L 531.8 44.0 L 543.8 44.0 L 555.8000000000001 44.0 L 567.8000000000001 44.0 L 579.8000000000001 44.0 L 591.8000000000001 44.0 L 603.8000000000001 56.47 L 615.8000000000001 72.67 L 627.8000000000001 72.67 L 639.8000000000001 72.67 L 651.8000000000001 72.67 L 663.8000000000001 72.67 L 663.8000000000001 72.67 L 99.8 72.67 Z" stroke="none" stroke-width="0" fill="#d62728" fill-opacity="0.25" /><path d="M 99.8 72.67 L 111.8 72.67 L 123.8 72.67 L 135.8 72.67 L 147.8 72.67 L 159.8 72.67 L 171.8 72.67 L 183.8 72.67 L 195.8 72.67 L 207.8 72.67 L 219.8 72.67 L 231.8 72.67 L 243.8 72.67 L 255.8 58.910000000000004 L 267.8 44.0 L 279.8 44.0 L 291.8 44.0 L 303.8 44.0 L 315.8 44.0 L 327.8 46.79 L 339.8 64.0 L 351.8 72.67 L 363.8 72.67 L 375.8 72.67 L 387.8 72.67 L 399.8 72.67 L 411.8 72.67 L 423.8 72.67 L 435.8 72.67 L 447.8 72.67 L 459.8 72.67 L 471.8 72.61 L 483.8 49.76 L 495.8 44.0 L 507.8 44.0 L 519.8 44.0 L 531.8 44.0 L 543.8 44.0 L 555.8000000000001 44.0 L 567.8000000000001 44.0 L 579.8000000000001 44.0 L 591.8000000000001 59.17 L 603.8000000000001 72.67 L 615.8000000000001 72.67 L 627.8000000000001 72.67 L 639.8000000000001 72.67 L 651.8000000000001 72.67 L 663.8000000000001 72.67 L 663.8000000000001 72.67 L 99.8 72.67 Z" stroke="none" stroke-width="0" fill="#d62728" fill-opacity="0.5" /><path d="M 99.8 72.67 L 111.8 72.67 L 123.8 72.67 L 135.8 72.67 L 147.8 72.67 L 159.8 72.67 L 171.8 72.67 L 183.8 72.67 L 195.8 72.67 L 207.8 72.67 L 219.8 72.67 L 231.8 72.67 L 243.8 72.67 L 255.8 72.67 L 267.8 69.77 L 279.8 57.85 L 291.8 52.6 L 303.8 54.17 L 315.8 62.13 L 327.8 72.67 L 339.8 72.67 L 351.8 72.67 L 363.8 72.67 L 375.8 72.67 L 387.8 72.67 L 399.8 72.67 L 411.8 72.67 L 423.8 72.67 L 435.8 72.67 L 447.8 72.67 L 459.8 72.67 L 471.8 72.67 L 483.8 72.67 L 495.8 57.15 L 507.8 44.0 L 519.8 44.0 L 531.8 44.0 L 543.8 44.0 L 555.8000000000001 44.0 L 567.8000000000001 44.0 L 579.8000000000001 63.88 L 591.8000000000001 72.67 L 603.8000000000001 72.67 L 615.8000000000001 72.67 L 627.8000000000001 72.67 L 639.8000000000001 72.67 L 651.8000000000001 72.67 L 663.8000000000001 72.67 L 663.8000000000001 72.67 L 99.8 72.67 Z" stroke="none" stroke-width="0" fill="#d62728" fill-opacity="0.75" /><path d="M 99.8 72.67 L 111.8 72.67 L 123.8 72.67 L 135.8 72.67 L 147.8 72.67 L 159.8 72.67 L 171.8 72.67 L 183.8 72.67 L 195.8 72.67 L 207.8 72.67 L 219.8 72.67 L 231.8 72.67 L 243.8 72.67 L 255.8 72.67 L 267.8 72.67 L 279.8 72.67 L 291.8 72.67 L 303.8 72.67 L 315.8 72.67 L 327.8 72.67 L 339.8 72.67 L 351.8 72.67 L 363.8 72.67 L 375.8 72.67 L 387.8 72.67 L 399.8 72.67 L 411.8 72.67 L 423.8 72.67 L 435.8 72.67 L 447.8 72.67 L 459.8 72.67 L 471.8 72.67 L 483.8 72.67 L 495.8 72.67 L 507.8 68.06 L 519.8 55.45 L 531.8 49.22 L 543.8 50.04 L 555.8000000000001 57.980000000000004 L 567.8000000000001 72.52 L 579.8000000000001 72.67 L 591.8000000000001 72.67 L 603.8000000000001 72.67 L 615.8000000000001 72.67 L 627.8000000000001 72.67 L 639.8000000000001 72.67 L 651.8000000000001 72.67 L 663.8000000000001 72.67 L 663.8000000000001 72.67 L 99.8 72.67 Z" stroke="none" stroke-width="0" fill="#d62728" fill-opacity="1" /><line x1="99.8" y1="72.67" x2="699.8000000000001" y2="72.67" stroke="#000000" stroke-width="0.5" /><path d="M 99.8 101.33 L 111.8 101.33 L 123.8 101.33 L 135.8 101.33 L 147.8 101.33 L 159.8 101.33 L 171.8 83.57000000000001 L 183.8 72.67 L 195.8 72.67 L 207.8 72.67 L 219.8 72.67 L 231.8 72.67 L 243.8 72.67 L 255.8 72.67 L 267.8 72.67 L 279.8 72.67 L 291.8 72.67 L 303.8 72.67 L 315.8 74.93 L 327.8 95.60000000000001 L 339.8 101.33 L 351.8 101.33 L 363.8 101.33 L 375.8 101.33 L 387.8 101.33 L 399.8 101.33 L 411.8 101.33 L 423.8 101.33 L 435.8 101.33 L 447.8 101.33 L 459.8 101.33 L 471.8 101.33 L 483.8 101.33 L 495.8 101.33 L 507.8 87.58 L 519.8 73.67 L 531.8 72.67 L 543.8 72.67 L 555.8000000000001 72.67 L 567.8000000000001 72.67 L 579.8000000000001 72.67 L 591.8000000000001 72.67 L 603.8000000000001 72.67 L 615.8000000000001 80.27 L 627.8000000000001 92.68 L 639.8000000000001 101.33 L 651.8000000000001 101.33 L 663.8000000000001 101.33 L 663.8000000000001 101.33 L 99.8 101.33 Z" stroke="none" stroke-width="0" fill="#ff7f0e" fill-opacity="0.25" /><path d="M 99.8 101.33 L 111.8 101.33 L 123.8 101.33 L 135.8 101.33 L 147.8 101.33 L 159.8 101.33 L 171.8 101.33 L 183.8 93.13 L 195.8 75.33 L 207.8 72.67 L 219.8 72.67 L 231.8 72.67 L 243.8 72.67 L 255.8 72.67 L 267.8 72.67 L 279.8 72.67 L 291.8 72.67 L 303.8 84.08 L 315.8 101.33 L 327.8 101.33 L 339.8 101.33 L 351.8 101.33 L 363.8 101.33 L 375.8 101.33 L 387.8 101.33 L 399.8 101.33 L 411.8 101.33 L 423.8 101.33 L 435.8 101.33 L 447.8 101.33 L 459.8 101.33 L 471.8 101.33 L 483.8 101.33 L 495.8 101.33 L 507.8 101.33 L 519.8 101.33 L 531.8 91.12 L 543.8 83.21000000000001 L 555.8000000000001 78.98 L 567.8000000000001 78.54 L 579.8000000000001 81.78 L 591.8000000000001 88.34 L 603.8000000000001 97.64 L 615.8000000000001 101.33 L 627.8000000000001 101.33 L 639.8000000000001 101.33 L 651.8000000000001 101.33 L 663.8000000000001 101.33 L 663.8000000000001 101.33 L 99.8 101.33 Z" stroke="none" stroke-width="0" fill="#ff7f0e" fill-opacity="0.5" /><path d="M 99.8 101.33 L 111.8 101.33 L 123.8 101.33 L 135.8 101.33 L 147.8 101.33 L 159.8 101.33 L 171.8 101.33 L 183.8 101.33 L 195.8 101.33 L 207.8 88.53 L 219.8 76.31 L 231.8 72.67 L 243.8 72.67 L 255.8 72.67 L 267.8 72.67 L 279.8 81.31 L 291.8 95.45 L 303.8 101.33 L 315.8 101.33 L 327.8 101.33 L 339.8 101.33 L 351.8 101.33 L 363.8 101.33 L 375.8 101.33 L 387.8 101.33 L 399.8 101.33 L 411.8 101.33 L 423.8 101.33 L 435.8 101.33 L 447.8 101.33 L 459.8 101.33 L 471.8 101.33 L 483.8 101.33 L 495.8 101.33 L 507.8 101.33 L 519.8 101.33 L 531.8 101.33 L 543.8 101.33 L 555.8000000000001 101.33 L 567.8000000000001 101.33 L 579.8000000000001 101.33 L 591.8000000000001 101.33 L 603.8000000000001 101.33 L 615.8000000000001 101.33 L 627.8000000000001 101.33 L 639.8000000000001 101.33 L 651.8000000000001 101.33 L 663.8000000000001 101.33 L 663.8000000000001 101.33 L 99.8 101.33 Z" stroke="none" stroke-width="0" fill="#ff7f0e" fill-opacity="0.75" /><path d="M 99.8 101.33 L 111.8 101.33 L 123.8 101.33 L 135.8 101.33 L 147.8 101.33 L 159.8 101.33 L 171.8 101.33 L 183.8 101.33 L 195.8 101.33 L 207.8 101.33 L 219.8 101.33 L 231.8 96.74000000000001 L 243.8 92.99 L 255.8 94.01 L 267.8 99.76 L 279.8 101.33 L 291.8 101.33 L 303.8 101.33 L 315.8 101.33 L 327.8 101.33 L 339.8 101.33 L 351.8 101.33 L 363.8 101.33 L 375.8 101.33 L 387.8 101.33 L 399.8 101.33 L 411.8 101.33 L 423.8 101.33 L 435.8 101.33 L 447.8 101.33 L 459.8 101.33 L 471.8 101.33 L 483.8 101.33 L 495.8 101.33 L 507.8 101.33 L 519.8 101.33 L 531.8 101.33 L 543.8 101.33 L 555.8000000000001 101.33 L 567.8000000000001 101.33 L 579.8000000000001 101.33 L 591.8000000000001 101.33 L 603.8000000000001 101.33 L 615.8000000000001 101.33 L 627.8000000000001 101.33 L 639.8000000000001 101.33 L 651.8000000000001 101.33 L 663.8000000000001 101.33 L 663.8000000000001 101.33 L 99.8 101.33 Z" stroke="none" stroke-width="0" fill="#ff7f0e" fill-opacity="1" /><path d="M 99.8 72.67 L 111.8 72.67 L 123.8 72.67 L 135.8 72.67 L 147.8 81.35000000000001 L 159.8 99.78 L 171.8 101.33 L 183.8 101.33 L 195.8 101.33 L 207.8 101.33 L 219.8 101.33 L 231.8 101.33 L 243.8 101.33 L 255.8 101.33 L 267.8 101.33 L 279.8 101.33 L 291.8 101.33 L 303.8 101.33 L 315.8 101.33 L 327.8 101.33 L 339.8 86.38 L 351.8 72.67 L 363.8 72.67 L 375.8 72.67 L 387.8 72.67 L 399.8 72.67 L 411.8 72.67 L 423.8 72.67 L 435.8 72.67 L 447.8 72.67 L 459.8 72.67 L 471.8 72.67 L 483.8 82.48 L 495.8 99.27 L 507.8 101.33 L 519.8 101.33 L 531.8 101.33 L 543.8 101.33 L 555.8000000000001 101.33 L 567.8000000000001 101.33 L 579.8000000000001 101.33 L 591.8000000000001 101.33 L 603.8000000000001 101.33 L 615.8000000000001 101.33 L 627.8000000000001 101.33 L 639.8000000000001 97.39 L 651.8000000000001 85.56 L 663.8000000000001 75.37 L 663.8000000000001 101.33 L 99.8 101.33 Z" stroke="none" stroke-width="0" fill="#d62728" fill-opacity="0.25" /><path d="M 99.8 72.67 L 111.8 72.67 L 123.8 79.68 L 135.8 93.46000000000001 L 147.8 101.33 L 159.8 101.33 L 171.8 101.33 L 183.8 101.33 L 195.8 101.33 L 207.8 101.33 L 219.8 101.33 L 231.8 101.33 L 243.8 101.33 L 255.8 101.33 L 267.8 101.33 L 279.8 101.33 L 291.8 101.33 L 303.8 101.33 L 315.8 101.33 L 327.8 101.33 L 339.8 101.33 L 351.8 95.45 L 363.8 77.99 L 375.8 72.67 L 387.8 72.67 L 399.8 72.67 L 411.8 72.67 L 423.8 72.67 L 435.8 72.67 L 447.8 72.67 L 459.8 78.7 L 471.8 94.39 L 483.8 101.33 L 495.8 101.33 L 507.8 101.33 L 519.8 101.33 L 531.8 101.33 L 543.8 101.33 L 555.8000000000001 101.33 L 567.8000000000001 101.33 L 579.8000000000001 101.33 L 591.8000000000001 101.33 L 603.8000000000001 101.33 L 615.8000000000001 101.33 L 627.8000000000001 101.33 L 639.8000000000001 101.33 L 651.8000000000001 101.33 L 663.8000000000001 101.33 L 663.8000000000001 101.33 L 99.8 101.33 Z" stroke="none" stroke-width="0" fill="#d62728" fill-opacity="0.5" /><path d="M 99.8 91.66 L 111.8 98.04 L 123.8 101.33 L 135.8 101.33 L 147.8 101.33 L 159.8 101.33 L 171.8 101.33 L 183.8 101.33 L 195.8 101.33 L 207.8 101.33 L 219.8 101.33 L 231.8 101.33 L 243.8 101.33 L 255.8 101.33 L 267.8 101.33 L 279.8 101.33 L 291.8 101.33 L 303.8 101.33 L 315.8 101.33 L 327.8 101.33 L 339.8 101.33 L 351.8 101.33 L 363.8 101.33 L 375.8 92.25 L 387.8 81.62 L 399.8 75.29 L 411.8 73.48 L 423.8 76.19 L 435.8 83.12 L 447.8 93.76 L 459.8 101.33 L 471.8 101.33 L 483.8 101.33 L 495.8 101.33 L 507.8 101.33 L 519.8 101.33 L 531.8 101.33 L 543.8 101.33 L 555.8000000000001 101.33 L 567.8000000000001 101.33 L 579.8000000000001 101.33 L 591.8000000000001 101.33 L 603.8000000000001 101.33 L 615.8000000000001 101.33 L 627.8000000000001 101.33 L 639.8000000000001 101.33 L 651.8000000000001 101.33 L 663.8000000000001 101.33 L 663.8000000000001 101.33 L 99.8 101.33 Z" stroke="none" stroke-width="0" fill="#d62728" fill-opacity="0.75" /><line x1="99.8" y1="101.33" x2="699.8000000000001" y2="101.33" stroke="#000000" stroke-width="0.5" /><path d="M 99.8 130.0 L 111.8 130.0 L 123.8 130.0 L 135.8 123.27 L 147.8 108.23 L 159.8 101.33 L 171.8 101.33 L 183.8 101.33 L 195.8 101.33 L 207.8 101.33 L 219.8 101.33 L 231.8 101.33 L 243.8 104.83 L 255.8 118.75 L 267.8 130.0 L 279.8 130.0 L 291.8 130.0 L 303.8 130.0 L 315.8 130.0 L 327.8 130.0 L 339.8 130.0 L 351.8 130.0 L 363.8 130.0 L 375.8 130.0 L 387.8 130.0 L 399.8 130.0 L 411.8 130.0 L 423.8 130.0 L 435.8 130.0 L 447.8 130.0 L 459.8 130.0 L 471.8 130.0 L 483.8 117.44 L 495.8 101.33 L 507.8 101.33 L 519.8 101.33 L 531.8 101.33 L 543.8 101.33 L 555.8000000000001 101.33 L 567.8000000000001 101.33 L 579.8000000000001 101.33 L 591.8000000000001 101.33 L 603.8000000000001 101.33 L 615.8000000000001 101.33 L 627.8000000000001 101.33 L 639.8000000000001 101.33 L 651.8000000000001 101.33 L 663.8000000000001 101.33 L 663.8000000000001 130.0 L 99.8 130.0 Z" stroke="none" stroke-width="0" fill="#2ca02c" fill-opacity="0.25" /><path d="M 99.8 130.0 L 111.8 130.0 L 123.8 130.0 L 135.8 130.0 L 147.8 130.0 L 159.8 124.48 L 171.8 115.16 L 183.8 109.28 L 195.8 107.05 L 207.8 108.52 L 219.8 113.61 L 231.8 122.06 L 243.8 130.0 L 255.8 130.0 L 267.8 130.0 L 279.8 130.0 L 291.8 130.0 L 303.8 130.0 L 315.8 130.0 L 327.8 130.0 L 339.8 130.0 L 351.8 130.0 L 363.8 130.0 L 375.8 130.0 L 387.8 130.0 L 399.8 130.0 L 411.8 130.0 L 423.8 130.0 L 435.8 130.0 L 447.8 130.0 L 459.8 130.0 L 471.8 130.0 L 483.8 130.0 L 495.8 125.04 L 507.8 105.18 L 519.8 101.33 L 531.8 101.33 L 543.8 101.33 L 555.8000000000001 101.33 L 567.8000000000001 101.33 L 579.8000000000001 101.33 L 591.8000000000001 101.33 L 603.8000000000001 101.33 L 615.8000000000001 101.33 L 627.8000000000001 101.33 L 639.8000000000001 101.33 L 651.8000000000001 105.42 L 663.8000000000001 122.65 L 663.8000000000001 130.0 L 99.8 130.0 Z" stroke="none" stroke-width="0" fill="#2ca02c" fill-opacity="0.5" /><path d="M 99.8 130.0 L 111.8 130.0 L 123.8 130.0 L 135.8 130.0 L 147.8 130.0 L 159.8 130.0 L 171.8 130.0 L 183.8 130.0 L 195.8 130.0 L 207.8 130.0 L 219.8 130.0 L 231.8 130.0 L 243.8 130.0 L 255.8 130.0 L 267.8 130.0 L 279.8 130.0 L 291.8 130.0 L 303.8 130.0 L 315.8 130.0 L 327.8 130.0 L 339.8 130.0 L 351.8 130.0 L 363.8 130.0 L 375.8 130.0 L 387.8 130.0 L 399.8 130.0 L 411.8 130.0 L 423.8 130.0 L 435.8 130.0 L 447.8 130.0 L 459.8 130.0 L 471.8 130.0 L 483.8 130.0 L 495.8 130.0 L 507.8 130.0 L 519.8 115.89 L 531.8 101.33 L 543.8 101.33 L 555.8000000000001 101.33 L 567.8000000000001 101.33 L 579.8000000000001 101.33 L 591.8000000000001 101.33 L 603.8000000000001 101.33 L 615.8000000000001 101.33 L 627.8000000000001 103.14 L 639.8000000000001 117.79 L 651.8000000000001 130.0 L 663.8000000000001 130.0 L 663.8000000000001 130.0 L 99.8 130.0 Z" stroke="none" stroke-width="0" fill="#2ca02c" fill-opacity="0.75" /><path d="M 99.8 130.0 L 111.8 130.0 L 123.8 130.0 L 135.8 130.0 L 147.8 130.0 L 159.8 130.0 L 171.8 130.0 L 183.8 130.0 L 195.8 130.0 L 207.8 130.0 L 219.8 130.0 L 231.8 130.0 L 243.8 130.0 L 255.8 130.0 L 267.8 130.0 L 279.8 130.0 L 291.8 130.0 L 303.8 130.0 L 315.8 130.0 L 327.8 130.0 L 339.8 130.0 L 351.8 130.0 L 363.8 130.0 L 375.8 130.0 L 387.8 130.0 L 399.8 130.0 L 411.8 130.0 L 423.8 130.0 L 435.8 130.0 L 447.8 130.0 L 459.8 130.0 L 471.8 130.0 L 483.8 130.0 L 495.8 130.0 L 507.8 130.0 L 519.8 130.0 L 531.8 129.12 L 543.8 116.74000000000001 L 555.8000000000001 107.83 L 567.8000000000001 102.65 L 579.8000000000001 101.33 L 591.8000000000001 103.84 L 603.8000000000001 109.99000000000001 L 615.8000000000001 119.47 L 627.8000000000001 130.0 L 639.8000000000001 130.0 L 651.8000000000001 130.0 L 663.8000000000001 130.0 L 663.8000000000001 130.0 L 99.8 130.0 Z" stroke="none" stroke-width="0" fill="#2ca02c" fill-opacity="1" /><path d="M 99.8 101.33 L 111.8 101.33 L 123.8 119.65 L 135.8 130.0 L 147.8 130.0 L 159.8 130.0 L 171.8 130.0 L 183.8 130.0 L 195.8 130.0 L 207.8 130.0 L 219.8 130.0 L 231.8 130.0 L 243.8 130.0 L 255.8 130.0 L 267.8 125.46000000000001 L 279.8 108.49000000000001 L 291.8 101.33 L 303.8 101.33 L 315.8 101.33 L 327.8 101.33 L 339.8 101.33 L 351.8 101.33 L 363.8 101.33 L 375.8 101.33 L 387.8 101.33 L 399.8 101.33 L 411.8 101.33 L 423.8 101.33 L 435.8 101.33 L 447.8 101.33 L 459.8 101.33 L 471.8 121.05 L 483.8 130.0 L 495.8 130.0 L 507.8 130.0 L 519.8 130.0 L 531.8 130.0 L 543.8 130.0 L 555.8000000000001 130.0 L 567.8000000000001 130.0 L 579.8000000000001 130.0 L 591.8000000000001 130.0 L 603.8000000000001 130.0 L 615.8000000000001 130.0 L 627.8000000000001 130.0 L 639.8000000000001 130.0 L 651.8000000000001 130.0 L 663.8000000000001 130.0 L 663.8000000000001 130.0 L 99.8 130.0 Z" stroke="none" stroke-width="0" fill="#d62728" fill-opacity="0.25" /><path d="M 99.8 110.81 L 111.8 129.88 L 123.8 130.0 L 135.8 130.0 L 147.8 130.0 L 159.8 130.0 L 171.8 130.0 L 183.8 130.0 L 195.8 130.0 L 207.8 130.0 L 219.8 130.0 L 231.8 130.0 L 243.8 130.0 L 255.8 130.0 L 267.8 130.0 L 279.8 130.0 L 291.8 119.73 L 303.8 102.62 L 315.8 101.33 L 327.8 101.33 L 339.8 101.33 L 351.8 101.33 L 363.8 101.33 L 375.8 101.33 L 387.8 101.33 L 399.8 101.33 L 411.8 101.33 L 423.8 101.33 L 435.8 101.33 L 447.8 108.43 L 459.8 128.54 L 471.8 130.0 L 483.8 130.0 L 495.8 130.0 L 507.8 130.0 L 519.8 130.0 L 531.8 130.0 L 543.8 130.0 L 555.8000000000001 130.0 L 567.8000000000001 130.0 L 579.8000000000001 130.0 L 591.8000000000001 130.0 L 603.8000000000001 130.0 L 615.8000000000001 130.0 L 627.8000000000001 130.0 L 639.8000000000001 130.0 L 651.8000000000001 130.0 L 663.8000000000001 130.0 L 663.8000000000001 130.0 L 99.8 130.0 Z" stroke="none" stroke-width="0" fill="#d62728" fill-opacity="0.5" /><path d="M 99.8 130.0 L 111.8 130.0 L 123.8 130.0 L 135.8 130.0 L 147.8 130.0 L 159.8 130.0 L 171.8 130.0 L 183.8 130.0 L 195.8 130.0 L 207.8 130.0 L 219.8 130.0 L 231.8 130.0 L 243.8 130.0 L 255.8 130.0 L 267.8 130.0 L 279.8 130.0 L 291.8 130.0 L 303.8 130.0 L 315.8 115.22 L 327.8 101.33 L 339.8 101.33 L 351.8 101.33 L 363.8 101.33 L 375.8 101.33 L 387.8 101.33 L 399.8 101.33 L 411.8 101.33 L 423.8 102.88 L 435.8 118.77 L 447.8 130.0 L 459.8 130.0 L 471.8 130.0 L 483.8 130.0 L 495.8 130.0 L 507.8 130.0 L 519.8 130.0 L 531.8 130.0 L 543.8 130.0 L 555.8000000000001 130.0 L 567.8000000000001 130.0 L 579.8000000000001 130.0 L 591.8000000000001 130.0 L 603.8000000000001 130.0 L 615.8000000000001 130.0 L 627.8000000000001 130.0 L 639.8000000000001 130.0 L 651.8000000000001 130.0 L 663.8000000000001 130.0 L 663.8000000000001 130.0 L 99.8 130.0 Z" stroke="none" stroke-width="0" fill="#d62728" fill-opacity="0.75" /><path d="M 99.8 130.0 L 111.8 130.0 L 123.8 130.0 L 135.8 130.0 L 147.8 130.0 L 159.8 130.0 L 171.8 130.0 L 183.8 130.0 L 195.8 130.0 L 207.8 130.0 L 219.8 130.0 L 231.8 130.0 L 243.8 130.0 L 255.8 130.0 L 267.8 130.0 L 279.8 130.0 L 291.8 130.0 L 303.8 130.0 L 315.8 130.0 L 327.8 129.59 L 339.8 117.7 L 351.8 108.76 L 363.8 103.2 L 375.8 101.33 L 387.8 103.3 L 399.8 109.12 L 411.8 118.63 L 423.8 130.0 L 435.8 130.0 L 447.8 130.0 L 459.8 130.0 L 471.8 130.0 L 483.8 130.0 L 495.8 130.0 L 507.8 130.0 L 519.8 130.0 L 531.8 130.0 L 543.8 130.0 L 555.8000000000001 130.0 L 567.8000000000001 130.0 L 579.8000000000001 130.0 L 591.8000000000001 130.0 L 603.8000000000001 130.0 L 615.8000000000001 130.0 L 627.8000000000001 130.0 L 639.8000000000001 130.0 L 651.8000000000001 130.0 L 663.8000000000001 130.0 L 663.8000000000001 130.0 L 99.8 130.0 Z" stroke="none" stroke-width="0" fill="#d62728" fill-opacity="1" /><line x1="99.8" y1="130" x2="699.8000000000001" y2="130" stroke="#000000" stroke-width="0.5" /></g><text x="705.8000000000001" y="50.31" font-size="12" text-anchor="start" fill="#000000">+5.987</text><text x="705.8000000000001" y="66.36" font-size="12" text-anchor="start" fill="#000000">-5.99</text><text x="705.8000000000001" y="78.97" font-size="12" text-anchor="start" fill="#000000">+5.987</text><text x="705.8000000000001" y="95.03" font-size="12" text-anchor="start" fill="#000000">-5.99</text><text x="705.8000000000001" y="107.64" font-size="12" text-anchor="start" fill="#000000">+5.987</text><text x="705.8000000000001" y="123.69" font-size="12" text-anchor="start" fill="#000000">-5.99</text></svg>