<svg xmlns="http://www.w3.org/2000/svg" width="776.2" height="545" font-family="DejaVu Sans, Liberation Sans, Arial, sans-serif" fill="black"><rect width="100%" height="100%" fill="white" /><defs><clipPath id="kuva-clip-2"><rect x="78.2" y="44" width="600" height="450"/></clipPath></defs><line x1="78.2" y1="494" x2="678.2" y2="494" stroke="#000000" stroke-width="1" /><line x1="78.2" y1="44" x2="78.2" y2="494" stroke="#000000" stroke-width="1" /><text x="70.2" y="408.2" font-size="12" text-anchor="end">prot_5</text><line x1="73.2" y1="404" x2="78.2" y2="404" stroke="#000000" stroke-width="1" /><text x="70.2" y="318.2" font-size="12" text-anchor="end">prot_4</text><line x1="73.2" y1="314" x2="78.2" y2="314" stroke="#000000" stroke-width="1" /><text x="70.2" y="228.20000000000002" font-size="12" text-anchor="end">prot_3</text><line x1="73.2" y1="224" x2="78.2" y2="224" stroke="#000000" stroke-width="1" /><text x="70.2" y="138.20000000000002" font-size="12" text-anchor="end">prot_2</text><line x1="73.2" y1="134" x2="78.2" y2="134" stroke="#000000" stroke-width="1" /><text x="70.2" y="48.2" font-size="12" text-anchor="end">prot_1</text><line x1="73.2" y1="44" x2="78.2" y2="44" stroke="#000000" stroke-width="1" /><line x1="78.2" y1="494" x2="78.2" y2="499" stroke="#000000" stroke-width="1" /><text x="78.2" y="511" font-size="12" text-anchor="middle">0</text><line x1="198.20000000000002" y1="494" x2="198.20000000000002" y2="499" stroke="#000000" stroke-width="1" /><text x="198.20000000000002" y="511" font-size="12" text-anchor="middle">10</text><line x1="318.2" y1="494" x2="318.2" y2="499" stroke="#000000" stroke-width="1" /><text x="318.2" y="511" font-size="12" text-anchor="middle">20</text><line x1="438.2" y1="494" x2="438.2" y2="499" stroke="#000000" stroke-width="1" /><text x="438.2" y="511" font-size="12" text-anchor="middle">30</text><line x1="558.2" y1="494" x2="558.2" y2="499" stroke="#000000" stroke-width="1" /><text x="558.2" y="511" font-size="12" text-anchor="middle">40</text><line x1="678.2" y1="494" x2="678.2" y2="499" stroke="#000000" stroke-width="1" /><text x="678.2" y="511" font-size="12" text-anchor="middle">50</text><text x="388.1" y="27.400000000000002" font-size="18" text-anchor="middle">Brick Plot — Protein Secondary Structure</text><g clip-path="url(#kuva-clip-2)"><rect x="78.2" y="44" width="11.4" height="85.5" fill="#aaaaaa" /><rect x="90.2" y="44" width="11.4" height="85.5" fill="#aaaaaa" /><rect x="102.2" y="44" width="11.4" height="85.5" fill="#aaaaaa" /><rect x="114.2" y="44" width="11.4" height="85.5" fill="#aaaaaa" /><rect x="126.2" y="44" width="11.4" height="85.5" fill="#aaaaaa" /><rect x="138.20000000000002" y="44" width="11.4" height="85.5" fill="#4682b4" /><rect x="150.20000000000002" y="44" width="11.4" height="85.5" fill="#4682b4" /><rect x="162.20000000000002" y="44" width="11.4" height="85.5" fill="#4682b4" /><rect x="174.20000000000002" y="44" width="11.4" height="85.5" fill="#4682b4" /><rect x="186.20000000000002" y="44" width="11.4" height="85.5" fill="#4682b4" /><rect x="198.20000000000002" y="44" width="11.4" height="85.5" fill="#4682b4" /><rect x="210.20000000000002" y="44" width="11.4" height="85.5" fill="#4682b4" /><rect x="222.20000000000002" y="44" width="11.4" height="85.5" fill="#4682b4" /><rect x="234.20000000000002" y="44" width="11.4" height="85.5" fill="#4682b4" /><rect x="246.20000000000002" y="44" width="11.4" height="85.5" fill="#4682b4" /><rect x="258.2" y="44" width="11.4" height="85.5" fill="#aaaaaa" /><rect x="270.2" y="44" width="11.4" height="85.5" fill="#aaaaaa" /><rect x="282.2" y="44" width="11.4" height="85.5" fill="#aaaaaa" /><rect x="294.2" y="44" width="11.4" height="85.5" fill="#aaaaaa" /><rect x="306.2" y="44" width="11.4" height="85.5" fill="#b22222" /><rect x="318.2" y="44" width="11.4" height="85.5" fill="#b22222" /><rect x="330.2" y="44" width="11.4" height="85.5" fill="#b22222" /><rect x="342.2" y="44" width="11.4" height="85.5" fill="#b22222" /><rect x="354.2" y="44" width="11.4" height="85.5" fill="#b22222" /><rect x="366.2" y="44" width="11.4" height="85.5" fill="#b22222" /><rect x="378.2" y="44" width="11.4" height="85.5" fill="#aaaaaa" /><rect x="390.2" y="44" width="11.4" height="85.5" fill="#aaaaaa" /><rect x="402.2" y="44" width="11.4" height="85.5" fill="#aaaaaa" /><rect x="414.2" y="44" width="11.4" height="85.5" fill="seagreen" /><rect x="426.2" y="44" width="11.4" height="85.5" fill="seagreen" /><rect x="438.2" y="44" width="11.4" height="85.5" fill="#aaaaaa" /><rect x="450.2" y="44" width="11.4" height="85.5" fill="#aaaaaa" /><rect x="462.2" y="44" width="11.4" height="85.5" fill="#aaaaaa" /><rect x="474.2" y="44" width="11.4" height="85.5" fill="#b22222" /><rect x="486.2" y="44" width="11.4" height="85.5" fill="#b22222" /><rect x="498.2" y="44" width="11.4" height="85.5" fill="#b22222" /><rect x="510.2" y="44" width="11.4" height="85.5" fill="#b22222" /><rect x="522.2" y="44" width="11.4" height="85.5" fill="#b22222" /><rect x="534.2" y="44" width="11.4" height="85.5" fill="#aaaaaa" /><rect x="546.2" y="44" width="11.4" height="85.5" fill="#aaaaaa" /><rect x="558.2" y="44" width="11.4" height="85.5" fill="#aaaaaa" /><rect x="78.2" y="134" width="11.4" height="85.5" fill="#aaaaaa" /><rect x="90.2" y="134" width="11.4" height="85.5" fill="#aaaaaa" /><rect x="102.2" y="134" width="11.4" height="85.5" fill="#aaaaaa" /><rect x="114.2" y="134" width="11.4" height="85.5" fill="#4682b4" /><rect x="126.2" y="134" width="11.4" height="85.5" fill="#4682b4" /><rect x="138.20000000000002" y="134" width="11.4" height="85.5" fill="#4682b4" /><rect x="150.20000000000002" y="134" width="11.4" height="85.5" fill="#4682b4" /><rect x="162.20000000000002" y="134" width="11.4" height="85.5" fill="#4682b4" /><rect x="174.20000000000002" y="134" width="11.4" height="85.5" fill="#4682b4" /><rect x="186.20000000000002" y="134" width="11.4" height="85.5" fill="#4682b4" /><rect x="198.20000000000002" y="134" width="11.4" height="85.5" fill="#4682b4" /><rect x="210.20000000000002" y="134" width="11.4" height="85.5" fill="#4682b4" /><rect x="222.20000000000002" y="134" width="11.4" height="85.5" fill="#4682b4" /><rect x="234.20000000000002" y="134" width="11.4" height="85.5" fill="#4682b4" /><rect x="246.20000000000002" y="134" width="11.4" height="85.5" fill="#4682b4" /><rect x="258.2" y="134" width="11.4" height="85.5" fill="#4682b4" /><rect x="270.2" y="134" width="11.4" height="85.5" fill="#aaaaaa" /><rect x="282.2" y="134" width="11.4" height="85.5" fill="#aaaaaa" /><rect x="294.2" y="134" width="11.4" height="85.5" fill="#aaaaaa" /><rect x="306.2" y="134" width="11.4" height="85.5" fill="#aaaaaa" /><rect x="318.2" y="134" width="11.4" height="85.5" fill="#b22222" /><rect x="330.2" y="134" width="11.4" height="85.5" fill="#b22222" /><rect x="342.2" y="134" width="11.4" height="85.5" fill="#b22222" /><rect x="354.2" y="134" width="11.4" height="85.5" fill="#b22222" /><rect x="366.2" y="134" width="11.4" height="85.5" fill="#b22222" /><rect x="378.2" y="134" width="11.4" height="85.5" fill="#b22222" /><rect x="390.2" y="134" width="11.4" height="85.5" fill="#b22222" /><rect x="402.2" y="134" width="11.4" height="85.5" fill="#aaaaaa" /><rect x="414.2" y="134" width="11.4" height="85.5" fill="#aaaaaa" /><rect x="426.2" y="134" width="11.4" height="85.5" fill="seagreen" /><rect x="438.2" y="134" width="11.4" height="85.5" fill="#aaaaaa" /><rect x="450.2" y="134" width="11.4" height="85.5" fill="#aaaaaa" /><rect x="462.2" y="134" width="11.4" height="85.5" fill="#aaaaaa" /><rect x="474.2" y="134" width="11.4" height="85.5" fill="#b22222" /><rect x="486.2" y="134" width="11.4" height="85.5" fill="#b22222" /><rect x="498.2" y="134" width="11.4" height="85.5" fill="#b22222" /><rect x="510.2" y="134" width="11.4" height="85.5" fill="#b22222" /><rect x="522.2" y="134" width="11.4" height="85.5" fill="#b22222" /><rect x="534.2" y="134" width="11.4" height="85.5" fill="#aaaaaa" /><rect x="546.2" y="134" width="11.4" height="85.5" fill="#aaaaaa" /><rect x="558.2" y="134" width="11.4" height="85.5" fill="#aaaaaa" /><rect x="78.2" y="224" width="11.4" height="85.5" fill="#aaaaaa" /><rect x="90.2" y="224" width="11.4" height="85.5" fill="#aaaaaa" /><rect x="102.2" y="224" width="11.4" height="85.5" fill="#aaaaaa" /><rect x="114.2" y="224" width="11.4" height="85.5" fill="#aaaaaa" /><rect x="126.2" y="224" width="11.4" height="85.5" fill="#4682b4" /><rect x="138.20000000000002" y="224" width="11.4" height="85.5" fill="#4682b4" /><rect x="150.20000000000002" y="224" width="11.4" height="85.5" fill="#4682b4" /><rect x="162.20000000000002" y="224" width="11.4" height="85.5" fill="#4682b4" /><rect x="174.20000000000002" y="224" width="11.4" height="85.5" fill="#4682b4" /><rect x="186.20000000000002" y="224" width="11.4" height="85.5" fill="#4682b4" /><rect x="198.20000000000002" y="224" width="11.4" height="85.5" fill="#4682b4" /><rect x="210.20000000000002" y="224" width="11.4" height="85.5" fill="#4682b4" /><rect x="222.20000000000002" y="224" width="11.4" height="85.5" fill="#4682b4" /><rect x="234.20000000000002" y="224" width="11.4" height="85.5" fill="#aaaaaa" /><rect x="246.20000000000002" y="224" width="11.4" height="85.5" fill="#aaaaaa" /><rect x="258.2" y="224" width="11.4" height="85.5" fill="#aaaaaa" /><rect x="270.2" y="224" width="11.4" height="85.5" fill="#aaaaaa" /><rect x="282.2" y="224" width="11.4" height="85.5" fill="#aaaaaa" /><rect x="294.2" y="224" width="11.4" height="85.5" fill="#b22222" /><rect x="306.2" y="224" width="11.4" height="85.5" fill="#b22222" /><rect x="318.2" y="224" width="11.4" height="85.5" fill="#b22222" /><rect x="330.2" y="224" width="11.4" height="85.5" fill="#b22222" /><rect x="342.2" y="224" width="11.4" height="85.5" fill="#b22222" /><rect x="354.2" y="224" width="11.4" height="85.5" fill="#b22222" /><rect x="366.2" y="224" width="11.4" height="85.5" fill="#aaaaaa" /><rect x="378.2" y="224" width="11.4" height="85.5" fill="#aaaaaa" /><rect x="390.2" y="224" width="11.4" height="85.5" fill="#aaaaaa" /><rect x="402.2" y="224" width="11.4" height="85.5" fill="seagreen" /><rect x="414.2" y="224" width="11.4" height="85.5" fill="seagreen" /><rect x="426.2" y="224" width="11.4" height="85.5" fill="#aaaaaa" /><rect x="438.2" y="224" width="11.4" height="85.5" fill="#aaaaaa" /><rect x="450.2" y="224" width="11.4" height="85.5" fill="#aaaaaa" /><rect x="462.2" y="224" width="11.4" height="85.5" fill="#b22222" /><rect x="474.2" y="224" width="11.4" height="85.5" fill="#b22222" /><rect x="486.2" y="224" width="11.4" height="85.5" fill="#b22222" /><rect x="498.2" y="224" width="11.4" height="85.5" fill="#b22222" /><rect x="510.2" y="224" width="11.4" height="85.5" fill="#b22222" /><rect x="522.2" y="224" width="11.4" height="85.5" fill="#b22222" /><rect x="534.2" y="224" width="11.4" height="85.5" fill="#aaaaaa" /><rect x="546.2" y="224" width="11.4" height="85.5" fill="#aaaaaa" /><rect x="558.2" y="224" width="11.4" height="85.5" fill="#aaaaaa" /><rect x="78.2" y="314" width="11.4" height="85.5" fill="#aaaaaa" /><rect x="90.2" y="314" width="11.4" height="85.5" fill="#aaaaaa" /><rect x="102.2" y="314" width="11.4" height="85.5" fill="#aaaaaa" /><rect x="114.2" y="314" width="11.4" height="85.5" fill="#4682b4" /><rect x="126.2" y="314" width="11.4" height="85.5" fill="#4682b4" /><rect x="138.20000000000002" y="314" width="11.4" height="85.5" fill="#4682b4" /><rect x="150.20000000000002" y="314" width="11.4" height="85.5" fill="#4682b4" /><rect x="162.20000000000002" y="314" width="11.4" height="85.5" fill="#4682b4" /><rect x="174.20000000000002" y="314" width="11.4" height="85.5" fill="#4682b4" /><rect x="186.20000000000002" y="314" width="11.4" height="85.5" fill="#4682b4" /><rect x="198.20000000000002" y="314" width="11.4" height="85.5" fill="#4682b4" /><rect x="210.20000000000002" y="314" width="11.4" height="85.5" fill="#4682b4" /><rect x="222.20000000000002" y="314" width="11.4" height="85.5" fill="#4682b4" /><rect x="234.20000000000002" y="314" width="11.4" height="85.5" fill="#4682b4" /><rect x="246.20000000000002" y="314" width="11.4" height="85.5" fill="#4682b4" /><rect x="258.2" y="314" width="11.4" height="85.5" fill="#aaaaaa" /><rect x="270.2" y="314" width="11.4" height="85.5" fill="#aaaaaa" /><rect x="282.2" y="314" width="11.4" height="85.5" fill="#aaaaaa" /><rect x="294.2" y="314" width="11.4" height="85.5" fill="#aaaaaa" /><rect x="306.2" y="314" width="11.4" height="85.5" fill="#aaaaaa" /><rect x="318.2" y="314" width="11.4" height="85.5" fill="#b22222" /><rect x="330.2" y="314" width="11.4" height="85.5" fill="#b22222" /><rect x="342.2" y="314" width="11.4" height="85.5" fill="#b22222" /><rect x="354.2" y="314" width="11.4" height="85.5" fill="#b22222" /><rect x="366.2" y="314" width="11.4" height="85.5" fill="#b22222" /><rect x="378.2" y="314" width="11.4" height="85.5" fill="#aaaaaa" /><rect x="390.2" y="314" width="11.4" height="85.5" fill="#aaaaaa" /><rect x="402.2" y="314" width="11.4" height="85.5" fill="#aaaaaa" /><rect x="414.2" y="314" width="11.4" height="85.5" fill="seagreen" /><rect x="426.2" y="314" width="11.4" height="85.5" fill="seagreen" /><rect x="438.2" y="314" width="11.4" height="85.5" fill="#aaaaaa" /><rect x="450.2" y="314" width="11.4" height="85.5" fill="#aaaaaa" /><rect x="462.2" y="314" width="11.4" height="85.5" fill="#aaaaaa" /><rect x="474.2" y="314" width="11.4" height="85.5" fill="#b22222" /><rect x="486.2" y="314" width="11.4" height="85.5" fill="#b22222" /><rect x="498.2" y="314" width="11.4" height="85.5" fill="#b22222" /><rect x="510.2" y="314" width="11.4" height="85.5" fill="#b22222" /><rect x="522.2" y="314" width="11.4" height="85.5" fill="#b22222" /><rect x="534.2" y="314" width="11.4" height="85.5" fill="#b22222" /><rect x="546.2" y="314" width="11.4" height="85.5" fill="#aaaaaa" /><rect x="558.2" y="314" width="11.4" height="85.5" fill="#aaaaaa" /><rect x="570.2" y="314" width="11.4" height="85.5" fill="#aaaaaa" /><rect x="78.2" y="404" width="11.4" height="85.5" fill="#aaaaaa" /><rect x="90.2" y="404" width="11.4" height="85.5" fill="#aaaaaa" /><rect x="102.2" y="404" width="11.4" height="85.5" fill="#aaaaaa" /><rect x="114.2" y="404" width="11.4" height="85.5" fill="#aaaaaa" /><rect x="126.2" y="404" width="11.4" height="85.5" fill="#4682b4" /><rect x="138.20000000000002" y="404" width="11.4" height="85.5" fill="#4682b4" /><rect x="150.20000000000002" y="404" width="11.4" height="85.5" fill="#4682b4" /><rect x="162.20000000000002" y="404" width="11.4" height="85.5" fill="#4682b4" /><rect x="174.20000000000002" y="404" width="11.4" height="85.5" fill="#4682b4" /><rect x="186.20000000000002" y="404" width="11.4" height="85.5" fill="#4682b4" /><rect x="198.20000000000002" y="404" width="11.4" height="85.5" fill="#4682b4" /><rect x="210.20000000000002" y="404" width="11.4" height="85.5" fill="#4682b4" /><rect x="222.20000000000002" y="404" width="11.4" height="85.5" fill="#4682b4" /><rect x="234.20000000000002" y="404" width="11.4" height="85.5" fill="#aaaaaa" /><rect x="246.20000000000002" y="404" width="11.4" height="85.5" fill="#aaaaaa" /><rect x="258.2" y="404" width="11.4" height="85.5" fill="#aaaaaa" /><rect x="270.2" y="404" width="11.4" height="85.5" fill="#aaaaaa" /><rect x="282.2" y="404" width="11.4" height="85.5" fill="#b22222" /><rect x="294.2" y="404" width="11.4" height="85.5" fill="#b22222" /><rect x="306.2" y="404" width="11.4" height="85.5" fill="#b22222" /><rect x="318.2" y="404" width="11.4" height="85.5" fill="#b22222" /><rect x="330.2" y="404" width="11.4" height="85.5" fill="#b22222" /><rect x="342.2" y="404" width="11.4" height="85.5" fill="#b22222" /><rect x="354.2" y="404" width="11.4" height="85.5" fill="#aaaaaa" /><rect x="366.2" y="404" width="11.4" height="85.5" fill="#aaaaaa" /><rect x="378.2" y="404" width="11.4" height="85.5" fill="#aaaaaa" /><rect x="390.2" y="404" width="11.4" height="85.5" fill="seagreen" /><rect x="402.2" y="404" width="11.4" height="85.5" fill="seagreen" /><rect x="414.2" y="404" width="11.4" height="85.5" fill="#aaaaaa" /><rect x="426.2" y="404" width="11.4" height="85.5" fill="#aaaaaa" /><rect x="438.2" y="404" width="11.4" height="85.5" fill="#aaaaaa" /><rect x="450.2" y="404" width="11.4" height="85.5" fill="#aaaaaa" /><rect x="462.2" y="404" width="11.4" height="85.5" fill="#b22222" /><rect x="474.2" y="404" width="11.4" height="85.5" fill="#b22222" /><rect x="486.2" y="404" width="11.4" height="85.5" fill="#b22222" /><rect x="498.2" y="404" width="11.4" height="85.5" fill="#b22222" /><rect x="510.2" y="404" width="11.4" height="85.5" fill="#b22222" /><rect x="522.2" y="404" width="11.4" height="85.5" fill="#aaaaaa" /><rect x="534.2" y="404" width="11.4" height="85.5" fill="#aaaaaa" /><rect x="546.2" y="404" width="11.4" height="85.5" fill="#aaaaaa" /><rect x="558.2" y="404" width="11.4" height="85.5" fill="#aaaaaa" /><rect x="570.2" y="404" width="11.4" height="85.5" fill="#aaaaaa" /><text x="84.2" y="89" font-size="12" text-anchor="middle">C</text><text x="96.2" y="89" font-size="12" text-anchor="middle">C</text><text x="108.2" y="89" font-size="12" text-anchor="middle">C</text><text x="120.2" y="89" font-size="12" text-anchor="middle">C</text><text x="132.2" y="89" font-size="12" text-anchor="middle">C</text><text x="144.20000000000002" y="89" font-size="12" text-anchor="middle">H</text><text x="156.20000000000002" y="89" font-size="12" text-anchor="middle">H</text><text x="168.20000000000002" y="89" font-size="12" text-anchor="middle">H</text><text x="180.20000000000002" y="89" font-size="12" text-anchor="middle">H</text><text x="192.20000000000002" y="89" font-size="12" text-anchor="middle">H</text><text x="204.20000000000002" y="89" font-size="12" text-anchor="middle">H</text><text x="216.20000000000002" y="89" font-size="12" text-anchor="middle">H</text><text x="228.20000000000002" y="89" font-size="12" text-anchor="middle">H</text><text x="240.20000000000002" y="89" font-size="12" text-anchor="middle">H</text><text x="252.20000000000002" y="89" font-size="12" text-anchor="middle">H</text><text x="264.2" y="89" font-size="12" text-anchor="middle">C</text><text x="276.2" y="89" font-size="12" text-anchor="middle">C</text><text x="288.2" y="89" font-size="12" text-anchor="middle">C</text><text x="300.2" y="89" font-size="12" text-anchor="middle">C</text><text x="312.2" y="89" font-size="12" text-anchor="middle">E</text><text x="324.2" y="89" font-size="12" text-anchor="middle">E</text><text x="336.2" y="89" font-size="12" text-anchor="middle">E</text><text x="348.2" y="89" font-size="12" text-anchor="middle">E</text><text x="360.2" y="89" font-size="12" text-anchor="middle">E</text><text x="372.2" y="89" font-size="12" text-anchor="middle">E</text><text x="384.2" y="89" font-size="12" text-anchor="middle">C</text><text x="396.2" y="89" font-size="12" text-anchor="middle">C</text><text x="408.2" y="89" font-size="12" text-anchor="middle">C</text><text x="420.2" y="89" font-size="12" text-anchor="middle">T</text><text x="432.2" y="89" font-size="12" text-anchor="middle">T</text><text x="444.2" y="89" font-size="12" text-anchor="middle">C</text><text x="456.2" y="89" font-size="12" text-anchor="middle">C</text><text x="468.2" y="89" font-size="12" text-anchor="middle">C</text><text x="480.2" y="89" font-size="12" text-anchor="middle">E</text><text x="492.2" y="89" font-size="12" text-anchor="middle">E</text><text x="504.2" y="89" font-size="12" text-anchor="middle">E</text><text x="516.2" y="89" font-size="12" text-anchor="middle">E</text><text x="528.2" y="89" font-size="12" text-anchor="middle">E</text><text x="540.2" y="89" font-size="12" text-anchor="middle">C</text><text x="552.2" y="89" font-size="12" text-anchor="middle">C</text><text x="564.2" y="89" font-size="12" text-anchor="middle">C</text><text x="84.2" y="179" font-size="12" text-anchor="middle">C</text><text x="96.2" y="179" font-size="12" text-anchor="middle">C</text><text x="108.2" y="179" font-size="12" text-anchor="middle">C</text><text x="120.2" y="179" font-size="12" text-anchor="middle">H</text><text x="132.2" y="179" font-size="12" text-anchor="middle">H</text><text x="144.20000000000002" y="179" font-size="12" text-anchor="middle">H</text><text x="156.20000000000002" y="179" font-size="12" text-anchor="middle">H</text><text x="168.20000000000002" y="179" font-size="12" text-anchor="middle">H</text><text x="180.20000000000002" y="179" font-size="12" text-anchor="middle">H</text><text x="192.20000000000002" y="179" font-size="12" text-anchor="middle">H</text><text x="204.20000000000002" y="179" font-size="12" text-anchor="middle">H</text><text x="216.20000000000002" y="179" font-size="12" text-anchor="middle">H</text><text x="228.20000000000002" y="179" font-size="12" text-anchor="middle">H</text><text x="240.20000000000002" y="179" font-size="12" text-anchor="middle">H</text><text x="252.20000000000002" y="179" font-size="12" text-anchor="middle">H</text><text x="264.2" y="179" font-size="12" text-anchor="middle">H</text><text x="276.2" y="179" font-size="12" text-anchor="middle">C</text><text x="288.2" y="179" font-size="12" text-anchor="middle">C</text><text x="300.2" y="179" font-size="12" text-anchor="middle">C</text><text x="312.2" y="179" font-size="12" text-anchor="middle">C</text><text x="324.2" y="179" font-size="12" text-anchor="middle">E</text><text x="336.2" y="179" font-size="12" text-anchor="middle">E</text><text x="348.2" y="179" font-size="12" text-anchor="middle">E</text><text x="360.2" y="179" font-size="12" text-anchor="middle">E</text><text x="372.2" y="179" font-size="12" text-anchor="middle">E</text><text x="384.2" y="179" font-size="12" text-anchor="middle">E</text><text x="396.2" y="179" font-size="12" text-anchor="middle">E</text><text x="408.2" y="179" font-size="12" text-anchor="middle">C</text><text x="420.2" y="179" font-size="12" text-anchor="middle">C</text><text x="432.2" y="179" font-size="12" text-anchor="middle">T</text><text x="444.2" y="179" font-size="12" text-anchor="middle">C</text><text x="456.2" y="179" font-size="12" text-anchor="middle">C</text><text x="468.2" y="179" font-size="12" text-anchor="middle">C</text><text x="480.2" y="179" font-size="12" text-anchor="middle">E</text><text x="492.2" y="179" font-size="12" text-anchor="middle">E</text><text x="504.2" y="179" font-size="12" text-anchor="middle">E</text><text x="516.2" y="179" font-size="12" text-anchor="middle">E</text><text x="528.2" y="179" font-size="12" text-anchor="middle">E</text><text x="540.2" y="179" font-size="12" text-anchor="middle">C</text><text x="552.2" y="179" font-size="12" text-anchor="middle">C</text><text x="564.2" y="179" font-size="12" text-anchor="middle">C</text><text x="84.2" y="269" font-size="12" text-anchor="middle">C</text><text x="96.2" y="269" font-size="12" text-anchor="middle">C</text><text x="108.2" y="269" font-size="12" text-anchor="middle">C</text><text x="120.2" y="269" font-size="12" text-anchor="middle">C</text><text x="132.2" y="269" font-size="12" text-anchor="middle">H</text><text x="144.20000000000002" y="269" font-size="12" text-anchor="middle">H</text><text x="156.20000000000002" y="269" font-size="12" text-anchor="middle">H</text><text x="168.20000000000002" y="269" font-size="12" text-anchor="middle">H</text><text x="180.20000000000002" y="269" font-size="12" text-anchor="middle">H</text><text x="192.20000000000002" y="269" font-size="12" text-anchor="middle">H</text><text x="204.20000000000002" y="269" font-size="12" text-anchor="middle">H</text><text x="216.20000000000002" y="269" font-size="12" text-anchor="middle">H</text><text x="228.20000000000002" y="269" font-size="12" text-anchor="middle">H</text><text x="240.20000000000002" y="269" font-size="12" text-anchor="middle">C</text><text x="252.20000000000002" y="269" font-size="12" text-anchor="middle">C</text><text x="264.2" y="269" font-size="12" text-anchor="middle">C</text><text x="276.2" y="269" font-size="12" text-anchor="middle">C</text><text x="288.2" y="269" font-size="12" text-anchor="middle">C</text><text x="300.2" y="269" font-size="12" text-anchor="middle">E</text><text x="312.2" y="269" font-size="12" text-anchor="middle">E</text><text x="324.2" y="269" font-size="12" text-anchor="middle">E</text><text x="336.2" y="269" font-size="12" text-anchor="middle">E</text><text x="348.2" y="269" font-size="12" text-anchor="middle">E</text><text x="360.2" y="269" font-size="12" text-anchor="middle">E</text><text x="372.2" y="269" font-size="12" text-anchor="middle">C</text><text x="384.2" y="269" font-size="12" text-anchor="middle">C</text><text x="396.2" y="269" font-size="12" text-anchor="middle">C</text><text x="408.2" y="269" font-size="12" text-anchor="middle">T</text><text x="420.2" y="269" font-size="12" text-anchor="middle">T</text><text x="432.2" y="269" font-size="12" text-anchor="middle">C</text><text x="444.2" y="269" font-size="12" text-anchor="middle">C</text><text x="456.2" y="269" font-size="12" text-anchor="middle">C</text><text x="468.2" y="269" font-size="12" text-anchor="middle">E</text><text x="480.2" y="269" font-size="12" text-anchor="middle">E</text><text x="492.2" y="269" font-size="12" text-anchor="middle">E</text><text x="504.2" y="269" font-size="12" text-anchor="middle">E</text><text x="516.2" y="269" font-size="12" text-anchor="middle">E</text><text x="528.2" y="269" font-size="12" text-anchor="middle">E</text><text x="540.2" y="269" font-size="12" text-anchor="middle">C</text><text x="552.2" y="269" font-size="12" text-anchor="middle">C</text><text x="564.2" y="269" font-size="12" text-anchor="middle">C</text><text x="84.2" y="359" font-size="12" text-anchor="middle">C</text><text x="96.2" y="359" font-size="12" text-anchor="middle">C</text><text x="108.2" y="359" font-size="12" text-anchor="middle">C</text><text x="120.2" y="359" font-size="12" text-anchor="middle">H</text><text x="132.2" y="359" font-size="12" text-anchor="middle">H</text><text x="144.20000000000002" y="359" font-size="12" text-anchor="middle">H</text><text x="156.20000000000002" y="359" font-size="12" text-anchor="middle">H</text><text x="168.20000000000002" y="359" font-size="12" text-anchor="middle">H</text><text x="180.20000000000002" y="359" font-size="12" text-anchor="middle">H</text><text x="192.20000000000002" y="359" font-size="12" text-anchor="middle">H</text><text x="204.20000000000002" y="359" font-size="12" text-anchor="middle">H</text><text x="216.20000000000002" y="359" font-size="12" text-anchor="middle">H</text><text x="228.20000000000002" y="359" font-size="12" text-anchor="middle">H</text><text x="240.20000000000002" y="359" font-size="12" text-anchor="middle">H</text><text x="252.20000000000002" y="359" font-size="12" text-anchor="middle">H</text><text x="264.2" y="359" font-size="12" text-anchor="middle">C</text><text x="276.2" y="359" font-size="12" text-anchor="middle">C</text><text x="288.2" y="359" font-size="12" text-anchor="middle">C</text><text x="300.2" y="359" font-size="12" text-anchor="middle">C</text><text x="312.2" y="359" font-size="12" text-anchor="middle">C</text><text x="324.2" y="359" font-size="12" text-anchor="middle">E</text><text x="336.2" y="359" font-size="12" text-anchor="middle">E</text><text x="348.2" y="359" font-size="12" text-anchor="middle">E</text><text x="360.2" y="359" font-size="12" text-anchor="middle">E</text><text x="372.2" y="359" font-size="12" text-anchor="middle">E</text><text x="384.2" y="359" font-size="12" text-anchor="middle">C</text><text x="396.2" y="359" font-size="12" text-anchor="middle">C</text><text x="408.2" y="359" font-size="12" text-anchor="middle">C</text><text x="420.2" y="359" font-size="12" text-anchor="middle">T</text><text x="432.2" y="359" font-size="12" text-anchor="middle">T</text><text x="444.2" y="359" font-size="12" text-anchor="middle">C</text><text x="456.2" y="359" font-size="12" text-anchor="middle">C</text><text x="468.2" y="359" font-size="12" text-anchor="middle">C</text><text x="480.2" y="359" font-size="12" text-anchor="middle">E</text><text x="492.2" y="359" font-size="12" text-anchor="middle">E</text><text x="504.2" y="359" font-size="12" text-anchor="middle">E</text><text x="516.2" y="359" font-size="12" text-anchor="middle">E</text><text x="528.2" y="359" font-size="12" text-anchor="middle">E</text><text x="540.2" y="359" font-size="12" text-anchor="middle">E</text><text x="552.2" y="359" font-size="12" text-anchor="middle">C</text><text x="564.2" y="359" font-size="12" text-anchor="middle">C</text><text x="576.2" y="359" font-size="12" text-anchor="middle">C</text><text x="84.2" y="449" font-size="12" text-anchor="middle">C</text><text x="96.2" y="449" font-size="12" text-anchor="middle">C</text><text x="108.2" y="449" font-size="12" text-anchor="middle">C</text><text x="120.2" y="449" font-size="12" text-anchor="middle">C</text><text x="132.2" y="449" font-size="12" text-anchor="middle">H</text><text x="144.20000000000002" y="449" font-size="12" text-anchor="middle">H</text><text x="156.20000000000002" y="449" font-size="12" text-anchor="middle">H</text><text x="168.20000000000002" y="449" font-size="12" text-anchor="middle">H</text><text x="180.20000000000002" y="449" font-size="12" text-anchor="middle">H</text><text x="192.20000000000002" y="449" font-size="12" text-anchor="middle">H</text><text x="204.20000000000002" y="449" font-size="12" text-anchor="middle">H</text><text x="216.20000000000002" y="449" font-size="12" text-anchor="middle">H</text><text x="228.20000000000002" y="449" font-size="12" text-anchor="middle">H</text><text x="240.20000000000002" y="449" font-size="12" text-anchor="middle">C</text><text x="252.20000000000002" y="449" font-size="12" text-anchor="middle">C</text><text x="264.2" y="449" font-size="12" text-anchor="middle">C</text><text x="276.2" y="449" font-size="12" text-anchor="middle">C</text><text x="288.2" y="449" font-size="12" text-anchor="middle">E</text><text x="300.2" y="449" font-size="12" text-anchor="middle">E</text><text x="312.2" y="449" font-size="12" text-anchor="middle">E</text><text x="324.2" y="449" font-size="12" text-anchor="middle">E</text><text x="336.2" y="449" font-size="12" text-anchor="middle">E</text><text x="348.2" y="449" font-size="12" text-anchor="middle">E</text><text x="360.2" y="449" font-size="12" text-anchor="middle">C</text><text x="372.2" y="449" font-size="12" text-anchor="middle">C</text><text x="384.2" y="449" font-size="12" text-anchor="middle">C</text><text x="396.2" y="449" font-size="12" text-anchor="middle">T</text><text x="408.2" y="449" font-size="12" text-anchor="middle">T</text><text x="420.2" y="449" font-size="12" text-anchor="middle">C</text><text x="432.2" y="449" font-size="12" text-anchor="middle">C</text><text x="444.2" y="449" font-size="12" text-anchor="middle">C</text><text x="456.2" y="449" font-size="12" text-anchor="middle">C</text><text x="468.2" y="449" font-size="12" text-anchor="middle">E</text><text x="480.2" y="449" font-size="12" text-anchor="middle">E</text><text x="492.2" y="449" font-size="12" text-anchor="middle">E</text><text x="504.2" y="449" font-size="12" text-anchor="middle">E</text><text x="516.2" y="449" font-size="12" text-anchor="middle">E</text><text x="528.2" y="449" font-size="12" text-anchor="middle">C</text><text x="540.2" y="449" font-size="12" text-anchor="middle">C</text><text x="552.2" y="449" font-size="12" text-anchor="middle">C</text><text x="564.2" y="449" font-size="12" text-anchor="middle">C</text><text x="576.2" y="449" font-size="12" text-anchor="middle">C</text></g><rect x="683.2" y="34" width="80" height="92" fill="#ffffff" /><rect x="683.2" y="34" width="80" height="92" fill="none" stroke="#000000" stroke-width="1" /><text x="713.2" y="53.2" font-size="12" text-anchor="start">C</text><rect x="693.2" y="43" width="12" height="12" fill="#aaaaaa" /><text x="713.2" y="71.2" font-size="12" text-anchor="start">E</text><rect x="693.2" y="61" width="12" height="12" fill="#b22222" /><text x="713.2" y="89.2" font-size="12" text-anchor="start">H</text><rect x="693.2" y="79" width="12" height="12" fill="#4682b4" /><text x="713.2" y="107.2" font-size="12" text-anchor="start">T</text><rect x="693.2" y="97" width="12" height="12" fill="seagreen" /></svg>