<svg xmlns="http://www.w3.org/2000/svg" width="772.6" height="545" font-family="DejaVu Sans, Liberation Sans, Arial, sans-serif" fill="black"><rect width="100%" height="100%" fill="white" /><defs><clipPath id="kuva-clip-0"><rect x="78.2" y="44" width="600" height="450"/></clipPath></defs><line x1="78.2" y1="494" x2="678.2" y2="494" stroke="#000000" stroke-width="1" /><line x1="78.2" y1="44" x2="78.2" y2="494" stroke="#000000" stroke-width="1" /><text x="70.2" y="423.2" font-size="12" text-anchor="end">read_6</text><line x1="73.2" y1="419" x2="78.2" y2="419" stroke="#000000" stroke-width="1" /><text x="70.2" y="348.2" font-size="12" text-anchor="end">read_5</text><line x1="73.2" y1="344" x2="78.2" y2="344" stroke="#000000" stroke-width="1" /><text x="70.2" y="273.2" font-size="12" text-anchor="end">read_4</text><line x1="73.2" y1="269" x2="78.2" y2="269" stroke="#000000" stroke-width="1" /><text x="70.2" y="198.20000000000002" font-size="12" text-anchor="end">read_3</text><line x1="73.2" y1="194" x2="78.2" y2="194" stroke="#000000" stroke-width="1" /><text x="70.2" y="123.2" font-size="12" text-anchor="end">read_2</text><line x1="73.2" y1="119" x2="78.2" y2="119" stroke="#000000" stroke-width="1" /><text x="70.2" y="48.2" font-size="12" text-anchor="end">read_1</text><line x1="73.2" y1="44" x2="78.2" y2="44" stroke="#000000" stroke-width="1" /><line x1="78.2" y1="494" x2="78.2" y2="499" stroke="#000000" stroke-width="1" /><text x="78.2" y="511" font-size="12" text-anchor="middle">-20</text><line x1="228.20000000000002" y1="494" x2="228.20000000000002" y2="499" stroke="#000000" stroke-width="1" /><text x="228.20000000000002" y="511" font-size="12" text-anchor="middle">0</text><line x1="378.2" y1="494" x2="378.2" y2="499" stroke="#000000" stroke-width="1" /><text x="378.2" y="511" font-size="12" text-anchor="middle">20</text><line x1="528.2" y1="494" x2="528.2" y2="499" stroke="#000000" stroke-width="1" /><text x="528.2" y="511" font-size="12" text-anchor="middle">40</text><line x1="678.2" y1="494" x2="678.2" y2="499" stroke="#000000" stroke-width="1" /><text x="678.2" y="511" font-size="12" text-anchor="middle">60</text><text x="386.3" y="27.400000000000002" font-size="18" text-anchor="middle">Brick Plot — DNA Sequences</text><g clip-path="url(#kuva-clip-0)"><rect x="93.2" y="44" width="7.13" height="71.25" fill="#0000ff" /><rect x="100.7" y="44" width="7.13" height="71.25" fill="#d17105" /><rect x="108.2" y="44" width="7.13" height="71.25" fill="#d17105" /><rect x="115.7" y="44" width="7.13" height="71.25" fill="#0000ff" /><rect x="123.2" y="44" width="7.13" height="71.25" fill="#d17105" /><rect x="130.7" y="44" width="7.13" height="71.25" fill="#009600" /><rect x="138.20000000000002" y="44" width="7.13" height="71.25" fill="#ff0000" /><rect x="145.70000000000002" y="44" width="7.13" height="71.25" fill="#0000ff" /><rect x="153.20000000000002" y="44" width="7.13" height="71.25" fill="#009600" /><rect x="160.70000000000002" y="44" width="7.13" height="71.25" fill="#d17105" /><rect x="168.20000000000002" y="44" width="7.13" height="71.25" fill="#d17105" /><rect x="175.70000000000002" y="44" width="7.13" height="71.25" fill="#0000ff" /><rect x="183.20000000000002" y="44" width="7.13" height="71.25" fill="#0000ff" /><rect x="190.70000000000002" y="44" width="7.13" height="71.25" fill="#d17105" /><rect x="198.20000000000002" y="44" width="7.13" height="71.25" fill="#0000ff" /><rect x="205.70000000000002" y="44" width="7.13" height="71.25" fill="#009600" /><rect x="213.20000000000002" y="44" width="7.13" height="71.25" fill="#0000ff" /><rect x="220.70000000000002" y="44" width="7.13" height="71.25" fill="#ff0000" /><rect x="228.20000000000002" y="44" width="7.13" height="71.25" fill="#0000ff" /><rect x="235.70000000000002" y="44" width="7.13" height="71.25" fill="#009600" /><rect x="243.20000000000002" y="44" width="7.13" height="71.25" fill="#ff0000" /><rect x="250.70000000000002" y="44" width="7.13" height="71.25" fill="#0000ff" /><rect x="258.2" y="44" width="7.13" height="71.25" fill="#009600" /><rect x="265.7" y="44" width="7.13" height="71.25" fill="#ff0000" /><rect x="273.2" y="44" width="7.13" height="71.25" fill="#0000ff" /><rect x="280.7" y="44" width="7.13" height="71.25" fill="#009600" /><rect x="288.2" y="44" width="7.13" height="71.25" fill="#ff0000" /><rect x="295.7" y="44" width="7.13" height="71.25" fill="#0000ff" /><rect x="303.2" y="44" width="7.13" height="71.25" fill="#009600" /><rect x="310.7" y="44" width="7.13" height="71.25" fill="#ff0000" /><rect x="318.2" y="44" width="7.13" height="71.25" fill="#0000ff" /><rect x="325.7" y="44" width="7.13" height="71.25" fill="#009600" /><rect x="333.2" y="44" width="7.13" height="71.25" fill="#ff0000" /><rect x="340.7" y="44" width="7.13" height="71.25" fill="#0000ff" /><rect x="348.2" y="44" width="7.13" height="71.25" fill="#009600" /><rect x="355.7" y="44" width="7.13" height="71.25" fill="#ff0000" /><rect x="363.2" y="44" width="7.13" height="71.25" fill="#0000ff" /><rect x="370.7" y="44" width="7.13" height="71.25" fill="#009600" /><rect x="378.2" y="44" width="7.13" height="71.25" fill="#ff0000" /><rect x="385.7" y="44" width="7.13" height="71.25" fill="#0000ff" /><rect x="393.2" y="44" width="7.13" height="71.25" fill="#009600" /><rect x="400.7" y="44" width="7.13" height="71.25" fill="#ff0000" /><rect x="408.2" y="44" width="7.13" height="71.25" fill="#0000ff" /><rect x="415.7" y="44" width="7.13" height="71.25" fill="#009600" /><rect x="423.2" y="44" width="7.13" height="71.25" fill="#ff0000" /><rect x="430.7" y="44" width="7.13" height="71.25" fill="#0000ff" /><rect x="438.2" y="44" width="7.13" height="71.25" fill="#009600" /><rect x="445.7" y="44" width="7.13" height="71.25" fill="#ff0000" /><rect x="453.2" y="44" width="7.13" height="71.25" fill="#0000ff" /><rect x="460.7" y="44" width="7.13" height="71.25" fill="#009600" /><rect x="468.2" y="44" width="7.13" height="71.25" fill="#ff0000" /><rect x="475.7" y="44" width="7.13" height="71.25" fill="#0000ff" /><rect x="483.2" y="44" width="7.13" height="71.25" fill="#009600" /><rect x="490.7" y="44" width="7.13" height="71.25" fill="#ff0000" /><rect x="498.2" y="44" width="7.13" height="71.25" fill="#0000ff" /><rect x="505.7" y="44" width="7.13" height="71.25" fill="#009600" /><rect x="513.2" y="44" width="7.13" height="71.25" fill="#ff0000" /><rect x="520.7" y="44" width="7.13" height="71.25" fill="#0000ff" /><rect x="528.2" y="44" width="7.13" height="71.25" fill="#009600" /><rect x="535.7" y="44" width="7.13" height="71.25" fill="#ff0000" /><rect x="543.2" y="44" width="7.13" height="71.25" fill="#ff0000" /><rect x="550.7" y="44" width="7.13" height="71.25" fill="#0000ff" /><rect x="558.2" y="44" width="7.13" height="71.25" fill="#009600" /><rect x="565.7" y="44" width="7.13" height="71.25" fill="#ff0000" /><rect x="93.2" y="119" width="7.13" height="71.25" fill="#0000ff" /><rect x="100.7" y="119" width="7.13" height="71.25" fill="#d17105" /><rect x="108.2" y="119" width="7.13" height="71.25" fill="#d17105" /><rect x="115.7" y="119" width="7.13" height="71.25" fill="#0000ff" /><rect x="123.2" y="119" width="7.13" height="71.25" fill="#d17105" /><rect x="130.7" y="119" width="7.13" height="71.25" fill="#009600" /><rect x="138.20000000000002" y="119" width="7.13" height="71.25" fill="#ff0000" /><rect x="145.70000000000002" y="119" width="7.13" height="71.25" fill="#0000ff" /><rect x="153.20000000000002" y="119" width="7.13" height="71.25" fill="#009600" /><rect x="160.70000000000002" y="119" width="7.13" height="71.25" fill="#d17105" /><rect x="168.20000000000002" y="119" width="7.13" height="71.25" fill="#d17105" /><rect x="175.70000000000002" y="119" width="7.13" height="71.25" fill="#0000ff" /><rect x="183.20000000000002" y="119" width="7.13" height="71.25" fill="#0000ff" /><rect x="190.70000000000002" y="119" width="7.13" height="71.25" fill="#d17105" /><rect x="198.20000000000002" y="119" width="7.13" height="71.25" fill="#0000ff" /><rect x="205.70000000000002" y="119" width="7.13" height="71.25" fill="#009600" /><rect x="213.20000000000002" y="119" width="7.13" height="71.25" fill="#0000ff" /><rect x="220.70000000000002" y="119" width="7.13" height="71.25" fill="#ff0000" /><rect x="228.20000000000002" y="119" width="7.13" height="71.25" fill="#0000ff" /><rect x="235.70000000000002" y="119" width="7.13" height="71.25" fill="#009600" /><rect x="243.20000000000002" y="119" width="7.13" height="71.25" fill="#ff0000" /><rect x="250.70000000000002" y="119" width="7.13" height="71.25" fill="#0000ff" /><rect x="258.2" y="119" width="7.13" height="71.25" fill="#009600" /><rect x="265.7" y="119" width="7.13" height="71.25" fill="#ff0000" /><rect x="273.2" y="119" width="7.13" height="71.25" fill="#0000ff" /><rect x="280.7" y="119" width="7.13" height="71.25" fill="#009600" /><rect x="288.2" y="119" width="7.13" height="71.25" fill="#ff0000" /><rect x="295.7" y="119" width="7.13" height="71.25" fill="#0000ff" /><rect x="303.2" y="119" width="7.13" height="71.25" fill="#009600" /><rect x="310.7" y="119" width="7.13" height="71.25" fill="#ff0000" /><rect x="318.2" y="119" width="7.13" height="71.25" fill="#0000ff" /><rect x="325.7" y="119" width="7.13" height="71.25" fill="#009600" /><rect x="333.2" y="119" width="7.13" height="71.25" fill="#ff0000" /><rect x="340.7" y="119" width="7.13" height="71.25" fill="#0000ff" /><rect x="348.2" y="119" width="7.13" height="71.25" fill="#009600" /><rect x="355.7" y="119" width="7.13" height="71.25" fill="#ff0000" /><rect x="363.2" y="119" width="7.13" height="71.25" fill="#0000ff" /><rect x="370.7" y="119" width="7.13" height="71.25" fill="#009600" /><rect x="378.2" y="119" width="7.13" height="71.25" fill="#ff0000" /><rect x="385.7" y="119" width="7.13" height="71.25" fill="#0000ff" /><rect x="393.2" y="119" width="7.13" height="71.25" fill="#009600" /><rect x="400.7" y="119" width="7.13" height="71.25" fill="#ff0000" /><rect x="408.2" y="119" width="7.13" height="71.25" fill="#0000ff" /><rect x="415.7" y="119" width="7.13" height="71.25" fill="#009600" /><rect x="423.2" y="119" width="7.13" height="71.25" fill="#ff0000" /><rect x="430.7" y="119" width="7.13" height="71.25" fill="#0000ff" /><rect x="438.2" y="119" width="7.13" height="71.25" fill="#009600" /><rect x="445.7" y="119" width="7.13" height="71.25" fill="#ff0000" /><rect x="453.2" y="119" width="7.13" height="71.25" fill="#0000ff" /><rect x="460.7" y="119" width="7.13" height="71.25" fill="#009600" /><rect x="468.2" y="119" width="7.13" height="71.25" fill="#ff0000" /><rect x="475.7" y="119" width="7.13" height="71.25" fill="#0000ff" /><rect x="483.2" y="119" width="7.13" height="71.25" fill="#009600" /><rect x="490.7" y="119" width="7.13" height="71.25" fill="#ff0000" /><rect x="498.2" y="119" width="7.13" height="71.25" fill="#0000ff" /><rect x="505.7" y="119" width="7.13" height="71.25" fill="#009600" /><rect x="513.2" y="119" width="7.13" height="71.25" fill="#ff0000" /><rect x="520.7" y="119" width="7.13" height="71.25" fill="#ff0000" /><rect x="528.2" y="119" width="7.13" height="71.25" fill="#0000ff" /><rect x="535.7" y="119" width="7.13" height="71.25" fill="#009600" /><rect x="543.2" y="119" width="7.13" height="71.25" fill="#ff0000" /><rect x="93.2" y="194" width="7.13" height="71.25" fill="#0000ff" /><rect x="100.7" y="194" width="7.13" height="71.25" fill="#d17105" /><rect x="108.2" y="194" width="7.13" height="71.25" fill="#d17105" /><rect x="115.7" y="194" width="7.13" height="71.25" fill="#0000ff" /><rect x="123.2" y="194" width="7.13" height="71.25" fill="#d17105" /><rect x="130.7" y="194" width="7.13" height="71.25" fill="#009600" /><rect x="138.20000000000002" y="194" width="7.13" height="71.25" fill="#ff0000" /><rect x="145.70000000000002" y="194" width="7.13" height="71.25" fill="#0000ff" /><rect x="153.20000000000002" y="194" width="7.13" height="71.25" fill="#009600" /><rect x="160.70000000000002" y="194" width="7.13" height="71.25" fill="#d17105" /><rect x="168.20000000000002" y="194" width="7.13" height="71.25" fill="#d17105" /><rect x="175.70000000000002" y="194" width="7.13" height="71.25" fill="#0000ff" /><rect x="183.20000000000002" y="194" width="7.13" height="71.25" fill="#0000ff" /><rect x="190.70000000000002" y="194" width="7.13" height="71.25" fill="#d17105" /><rect x="198.20000000000002" y="194" width="7.13" height="71.25" fill="#0000ff" /><rect x="205.70000000000002" y="194" width="7.13" height="71.25" fill="#009600" /><rect x="213.20000000000002" y="194" width="7.13" height="71.25" fill="#0000ff" /><rect x="220.70000000000002" y="194" width="7.13" height="71.25" fill="#ff0000" /><rect x="228.20000000000002" y="194" width="7.13" height="71.25" fill="#0000ff" /><rect x="235.70000000000002" y="194" width="7.13" height="71.25" fill="#009600" /><rect x="243.20000000000002" y="194" width="7.13" height="71.25" fill="#ff0000" /><rect x="250.70000000000002" y="194" width="7.13" height="71.25" fill="#0000ff" /><rect x="258.2" y="194" width="7.13" height="71.25" fill="#009600" /><rect x="265.7" y="194" width="7.13" height="71.25" fill="#ff0000" /><rect x="273.2" y="194" width="7.13" height="71.25" fill="#0000ff" /><rect x="280.7" y="194" width="7.13" height="71.25" fill="#009600" /><rect x="288.2" y="194" width="7.13" height="71.25" fill="#ff0000" /><rect x="295.7" y="194" width="7.13" height="71.25" fill="#0000ff" /><rect x="303.2" y="194" width="7.13" height="71.25" fill="#009600" /><rect x="310.7" y="194" width="7.13" height="71.25" fill="#ff0000" /><rect x="318.2" y="194" width="7.13" height="71.25" fill="#0000ff" /><rect x="325.7" y="194" width="7.13" height="71.25" fill="#009600" /><rect x="333.2" y="194" width="7.13" height="71.25" fill="#ff0000" /><rect x="340.7" y="194" width="7.13" height="71.25" fill="#0000ff" /><rect x="348.2" y="194" width="7.13" height="71.25" fill="#009600" /><rect x="355.7" y="194" width="7.13" height="71.25" fill="#ff0000" /><rect x="363.2" y="194" width="7.13" height="71.25" fill="#0000ff" /><rect x="370.7" y="194" width="7.13" height="71.25" fill="#009600" /><rect x="378.2" y="194" width="7.13" height="71.25" fill="#ff0000" /><rect x="385.7" y="194" width="7.13" height="71.25" fill="#0000ff" /><rect x="393.2" y="194" width="7.13" height="71.25" fill="#009600" /><rect x="400.7" y="194" width="7.13" height="71.25" fill="#ff0000" /><rect x="408.2" y="194" width="7.13" height="71.25" fill="#0000ff" /><rect x="415.7" y="194" width="7.13" height="71.25" fill="#009600" /><rect x="423.2" y="194" width="7.13" height="71.25" fill="#ff0000" /><rect x="430.7" y="194" width="7.13" height="71.25" fill="#0000ff" /><rect x="438.2" y="194" width="7.13" height="71.25" fill="#009600" /><rect x="445.7" y="194" width="7.13" height="71.25" fill="#ff0000" /><rect x="453.2" y="194" width="7.13" height="71.25" fill="#0000ff" /><rect x="460.7" y="194" width="7.13" height="71.25" fill="#009600" /><rect x="468.2" y="194" width="7.13" height="71.25" fill="#ff0000" /><rect x="475.7" y="194" width="7.13" height="71.25" fill="#0000ff" /><rect x="483.2" y="194" width="7.13" height="71.25" fill="#009600" /><rect x="490.7" y="194" width="7.13" height="71.25" fill="#ff0000" /><rect x="498.2" y="194" width="7.13" height="71.25" fill="#0000ff" /><rect x="505.7" y="194" width="7.13" height="71.25" fill="#009600" /><rect x="513.2" y="194" width="7.13" height="71.25" fill="#ff0000" /><rect x="520.7" y="194" width="7.13" height="71.25" fill="#0000ff" /><rect x="528.2" y="194" width="7.13" height="71.25" fill="#009600" /><rect x="535.7" y="194" width="7.13" height="71.25" fill="#ff0000" /><rect x="543.2" y="194" width="7.13" height="71.25" fill="#ff0000" /><rect x="550.7" y="194" width="7.13" height="71.25" fill="#0000ff" /><rect x="558.2" y="194" width="7.13" height="71.25" fill="#009600" /><rect x="565.7" y="194" width="7.13" height="71.25" fill="#ff0000" /><rect x="93.2" y="269" width="7.13" height="71.25" fill="#0000ff" /><rect x="100.7" y="269" width="7.13" height="71.25" fill="#d17105" /><rect x="108.2" y="269" width="7.13" height="71.25" fill="#d17105" /><rect x="115.7" y="269" width="7.13" height="71.25" fill="#0000ff" /><rect x="123.2" y="269" width="7.13" height="71.25" fill="#d17105" /><rect x="130.7" y="269" width="7.13" height="71.25" fill="#009600" /><rect x="138.20000000000002" y="269" width="7.13" height="71.25" fill="#ff0000" /><rect x="145.70000000000002" y="269" width="7.13" height="71.25" fill="#0000ff" /><rect x="153.20000000000002" y="269" width="7.13" height="71.25" fill="#009600" /><rect x="160.70000000000002" y="269" width="7.13" height="71.25" fill="#d17105" /><rect x="168.20000000000002" y="269" width="7.13" height="71.25" fill="#d17105" /><rect x="175.70000000000002" y="269" width="7.13" height="71.25" fill="#0000ff" /><rect x="183.20000000000002" y="269" width="7.13" height="71.25" fill="#0000ff" /><rect x="190.70000000000002" y="269" width="7.13" height="71.25" fill="#d17105" /><rect x="198.20000000000002" y="269" width="7.13" height="71.25" fill="#0000ff" /><rect x="205.70000000000002" y="269" width="7.13" height="71.25" fill="#009600" /><rect x="213.20000000000002" y="269" width="7.13" height="71.25" fill="#0000ff" /><rect x="220.70000000000002" y="269" width="7.13" height="71.25" fill="#ff0000" /><rect x="228.20000000000002" y="269" width="7.13" height="71.25" fill="#0000ff" /><rect x="235.70000000000002" y="269" width="7.13" height="71.25" fill="#009600" /><rect x="243.20000000000002" y="269" width="7.13" height="71.25" fill="#ff0000" /><rect x="250.70000000000002" y="269" width="7.13" height="71.25" fill="#0000ff" /><rect x="258.2" y="269" width="7.13" height="71.25" fill="#009600" /><rect x="265.7" y="269" width="7.13" height="71.25" fill="#ff0000" /><rect x="273.2" y="269" width="7.13" height="71.25" fill="#0000ff" /><rect x="280.7" y="269" width="7.13" height="71.25" fill="#009600" /><rect x="288.2" y="269" width="7.13" height="71.25" fill="#ff0000" /><rect x="295.7" y="269" width="7.13" height="71.25" fill="#0000ff" /><rect x="303.2" y="269" width="7.13" height="71.25" fill="#009600" /><rect x="310.7" y="269" width="7.13" height="71.25" fill="#ff0000" /><rect x="318.2" y="269" width="7.13" height="71.25" fill="#0000ff" /><rect x="325.7" y="269" width="7.13" height="71.25" fill="#009600" /><rect x="333.2" y="269" width="7.13" height="71.25" fill="#ff0000" /><rect x="340.7" y="269" width="7.13" height="71.25" fill="#0000ff" /><rect x="348.2" y="269" width="7.13" height="71.25" fill="#009600" /><rect x="355.7" y="269" width="7.13" height="71.25" fill="#ff0000" /><rect x="363.2" y="269" width="7.13" height="71.25" fill="#0000ff" /><rect x="370.7" y="269" width="7.13" height="71.25" fill="#009600" /><rect x="378.2" y="269" width="7.13" height="71.25" fill="#ff0000" /><rect x="385.7" y="269" width="7.13" height="71.25" fill="#0000ff" /><rect x="393.2" y="269" width="7.13" height="71.25" fill="#009600" /><rect x="400.7" y="269" width="7.13" height="71.25" fill="#ff0000" /><rect x="408.2" y="269" width="7.13" height="71.25" fill="#0000ff" /><rect x="415.7" y="269" width="7.13" height="71.25" fill="#009600" /><rect x="423.2" y="269" width="7.13" height="71.25" fill="#ff0000" /><rect x="430.7" y="269" width="7.13" height="71.25" fill="#0000ff" /><rect x="438.2" y="269" width="7.13" height="71.25" fill="#009600" /><rect x="445.7" y="269" width="7.13" height="71.25" fill="#ff0000" /><rect x="453.2" y="269" width="7.13" height="71.25" fill="#0000ff" /><rect x="460.7" y="269" width="7.13" height="71.25" fill="#0000ff" /><rect x="468.2" y="269" width="7.13" height="71.25" fill="#009600" /><rect x="475.7" y="269" width="7.13" height="71.25" fill="#ff0000" /><rect x="483.2" y="269" width="7.13" height="71.25" fill="#0000ff" /><rect x="490.7" y="269" width="7.13" height="71.25" fill="#009600" /><rect x="498.2" y="269" width="7.13" height="71.25" fill="#ff0000" /><rect x="505.7" y="269" width="7.13" height="71.25" fill="#0000ff" /><rect x="513.2" y="269" width="7.13" height="71.25" fill="#009600" /><rect x="520.7" y="269" width="7.13" height="71.25" fill="#ff0000" /><rect x="528.2" y="269" width="7.13" height="71.25" fill="#0000ff" /><rect x="535.7" y="269" width="7.13" height="71.25" fill="#009600" /><rect x="543.2" y="269" width="7.13" height="71.25" fill="#ff0000" /><rect x="550.7" y="269" width="7.13" height="71.25" fill="#ff0000" /><rect x="558.2" y="269" width="7.13" height="71.25" fill="#0000ff" /><rect x="565.7" y="269" width="7.13" height="71.25" fill="#009600" /><rect x="573.2" y="269" width="7.13" height="71.25" fill="#ff0000" /><rect x="93.2" y="344" width="7.13" height="71.25" fill="#0000ff" /><rect x="100.7" y="344" width="7.13" height="71.25" fill="#d17105" /><rect x="108.2" y="344" width="7.13" height="71.25" fill="#d17105" /><rect x="115.7" y="344" width="7.13" height="71.25" fill="#0000ff" /><rect x="123.2" y="344" width="7.13" height="71.25" fill="#d17105" /><rect x="130.7" y="344" width="7.13" height="71.25" fill="#009600" /><rect x="138.20000000000002" y="344" width="7.13" height="71.25" fill="#ff0000" /><rect x="145.70000000000002" y="344" width="7.13" height="71.25" fill="#0000ff" /><rect x="153.20000000000002" y="344" width="7.13" height="71.25" fill="#009600" /><rect x="160.70000000000002" y="344" width="7.13" height="71.25" fill="#d17105" /><rect x="168.20000000000002" y="344" width="7.13" height="71.25" fill="#d17105" /><rect x="175.70000000000002" y="344" width="7.13" height="71.25" fill="#0000ff" /><rect x="183.20000000000002" y="344" width="7.13" height="71.25" fill="#0000ff" /><rect x="190.70000000000002" y="344" width="7.13" height="71.25" fill="#d17105" /><rect x="198.20000000000002" y="344" width="7.13" height="71.25" fill="#0000ff" /><rect x="205.70000000000002" y="344" width="7.13" height="71.25" fill="#009600" /><rect x="213.20000000000002" y="344" width="7.13" height="71.25" fill="#0000ff" /><rect x="220.70000000000002" y="344" width="7.13" height="71.25" fill="#ff0000" /><rect x="228.20000000000002" y="344" width="7.13" height="71.25" fill="#0000ff" /><rect x="235.70000000000002" y="344" width="7.13" height="71.25" fill="#009600" /><rect x="243.20000000000002" y="344" width="7.13" height="71.25" fill="#ff0000" /><rect x="250.70000000000002" y="344" width="7.13" height="71.25" fill="#0000ff" /><rect x="258.2" y="344" width="7.13" height="71.25" fill="#009600" /><rect x="265.7" y="344" width="7.13" height="71.25" fill="#ff0000" /><rect x="273.2" y="344" width="7.13" height="71.25" fill="#0000ff" /><rect x="280.7" y="344" width="7.13" height="71.25" fill="#009600" /><rect x="288.2" y="344" width="7.13" height="71.25" fill="#ff0000" /><rect x="295.7" y="344" width="7.13" height="71.25" fill="#0000ff" /><rect x="303.2" y="344" width="7.13" height="71.25" fill="#009600" /><rect x="310.7" y="344" width="7.13" height="71.25" fill="#ff0000" /><rect x="318.2" y="344" width="7.13" height="71.25" fill="#0000ff" /><rect x="325.7" y="344" width="7.13" height="71.25" fill="#009600" /><rect x="333.2" y="344" width="7.13" height="71.25" fill="#ff0000" /><rect x="340.7" y="344" width="7.13" height="71.25" fill="#0000ff" /><rect x="348.2" y="344" width="7.13" height="71.25" fill="#009600" /><rect x="355.7" y="344" width="7.13" height="71.25" fill="#ff0000" /><rect x="363.2" y="344" width="7.13" height="71.25" fill="#0000ff" /><rect x="370.7" y="344" width="7.13" height="71.25" fill="#009600" /><rect x="378.2" y="344" width="7.13" height="71.25" fill="#ff0000" /><rect x="385.7" y="344" width="7.13" height="71.25" fill="#0000ff" /><rect x="393.2" y="344" width="7.13" height="71.25" fill="#009600" /><rect x="400.7" y="344" width="7.13" height="71.25" fill="#ff0000" /><rect x="408.2" y="344" width="7.13" height="71.25" fill="#0000ff" /><rect x="415.7" y="344" width="7.13" height="71.25" fill="#009600" /><rect x="423.2" y="344" width="7.13" height="71.25" fill="#ff0000" /><rect x="430.7" y="344" width="7.13" height="71.25" fill="#0000ff" /><rect x="438.2" y="344" width="7.13" height="71.25" fill="#009600" /><rect x="445.7" y="344" width="7.13" height="71.25" fill="#ff0000" /><rect x="453.2" y="344" width="7.13" height="71.25" fill="#0000ff" /><rect x="460.7" y="344" width="7.13" height="71.25" fill="#0000ff" /><rect x="468.2" y="344" width="7.13" height="71.25" fill="#009600" /><rect x="475.7" y="344" width="7.13" height="71.25" fill="#ff0000" /><rect x="483.2" y="344" width="7.13" height="71.25" fill="#0000ff" /><rect x="490.7" y="344" width="7.13" height="71.25" fill="#009600" /><rect x="498.2" y="344" width="7.13" height="71.25" fill="#ff0000" /><rect x="505.7" y="344" width="7.13" height="71.25" fill="#0000ff" /><rect x="513.2" y="344" width="7.13" height="71.25" fill="#009600" /><rect x="520.7" y="344" width="7.13" height="71.25" fill="#ff0000" /><rect x="528.2" y="344" width="7.13" height="71.25" fill="#0000ff" /><rect x="535.7" y="344" width="7.13" height="71.25" fill="#009600" /><rect x="543.2" y="344" width="7.13" height="71.25" fill="#ff0000" /><rect x="550.7" y="344" width="7.13" height="71.25" fill="#ff0000" /><rect x="558.2" y="344" width="7.13" height="71.25" fill="#0000ff" /><rect x="565.7" y="344" width="7.13" height="71.25" fill="#009600" /><rect x="573.2" y="344" width="7.13" height="71.25" fill="#ff0000" /><rect x="93.2" y="419" width="7.13" height="71.25" fill="#0000ff" /><rect x="100.7" y="419" width="7.13" height="71.25" fill="#d17105" /><rect x="108.2" y="419" width="7.13" height="71.25" fill="#d17105" /><rect x="115.7" y="419" width="7.13" height="71.25" fill="#0000ff" /><rect x="123.2" y="419" width="7.13" height="71.25" fill="#d17105" /><rect x="130.7" y="419" width="7.13" height="71.25" fill="#009600" /><rect x="138.20000000000002" y="419" width="7.13" height="71.25" fill="#ff0000" /><rect x="145.70000000000002" y="419" width="7.13" height="71.25" fill="#0000ff" /><rect x="153.20000000000002" y="419" width="7.13" height="71.25" fill="#009600" /><rect x="160.70000000000002" y="419" width="7.13" height="71.25" fill="#d17105" /><rect x="168.20000000000002" y="419" width="7.13" height="71.25" fill="#d17105" /><rect x="175.70000000000002" y="419" width="7.13" height="71.25" fill="#0000ff" /><rect x="183.20000000000002" y="419" width="7.13" height="71.25" fill="#0000ff" /><rect x="190.70000000000002" y="419" width="7.13" height="71.25" fill="#d17105" /><rect x="198.20000000000002" y="419" width="7.13" height="71.25" fill="#0000ff" /><rect x="205.70000000000002" y="419" width="7.13" height="71.25" fill="#009600" /><rect x="213.20000000000002" y="419" width="7.13" height="71.25" fill="#0000ff" /><rect x="220.70000000000002" y="419" width="7.13" height="71.25" fill="#ff0000" /><rect x="228.20000000000002" y="419" width="7.13" height="71.25" fill="#0000ff" /><rect x="235.70000000000002" y="419" width="7.13" height="71.25" fill="#009600" /><rect x="243.20000000000002" y="419" width="7.13" height="71.25" fill="#ff0000" /><rect x="250.70000000000002" y="419" width="7.13" height="71.25" fill="#0000ff" /><rect x="258.2" y="419" width="7.13" height="71.25" fill="#009600" /><rect x="265.7" y="419" width="7.13" height="71.25" fill="#ff0000" /><rect x="273.2" y="419" width="7.13" height="71.25" fill="#0000ff" /><rect x="280.7" y="419" width="7.13" height="71.25" fill="#009600" /><rect x="288.2" y="419" width="7.13" height="71.25" fill="#ff0000" /><rect x="295.7" y="419" width="7.13" height="71.25" fill="#0000ff" /><rect x="303.2" y="419" width="7.13" height="71.25" fill="#009600" /><rect x="310.7" y="419" width="7.13" height="71.25" fill="#ff0000" /><rect x="318.2" y="419" width="7.13" height="71.25" fill="#0000ff" /><rect x="325.7" y="419" width="7.13" height="71.25" fill="#009600" /><rect x="333.2" y="419" width="7.13" height="71.25" fill="#ff0000" /><rect x="340.7" y="419" width="7.13" height="71.25" fill="#0000ff" /><rect x="348.2" y="419" width="7.13" height="71.25" fill="#009600" /><rect x="355.7" y="419" width="7.13" height="71.25" fill="#ff0000" /><rect x="363.2" y="419" width="7.13" height="71.25" fill="#0000ff" /><rect x="370.7" y="419" width="7.13" height="71.25" fill="#009600" /><rect x="378.2" y="419" width="7.13" height="71.25" fill="#ff0000" /><rect x="385.7" y="419" width="7.13" height="71.25" fill="#0000ff" /><rect x="393.2" y="419" width="7.13" height="71.25" fill="#009600" /><rect x="400.7" y="419" width="7.13" height="71.25" fill="#ff0000" /><rect x="408.2" y="419" width="7.13" height="71.25" fill="#0000ff" /><rect x="415.7" y="419" width="7.13" height="71.25" fill="#009600" /><rect x="423.2" y="419" width="7.13" height="71.25" fill="#ff0000" /><rect x="430.7" y="419" width="7.13" height="71.25" fill="#0000ff" /><rect x="438.2" y="419" width="7.13" height="71.25" fill="#009600" /><rect x="445.7" y="419" width="7.13" height="71.25" fill="#ff0000" /><rect x="453.2" y="419" width="7.13" height="71.25" fill="#0000ff" /><rect x="460.7" y="419" width="7.13" height="71.25" fill="#0000ff" /><rect x="468.2" y="419" width="7.13" height="71.25" fill="#009600" /><rect x="475.7" y="419" width="7.13" height="71.25" fill="#ff0000" /><rect x="483.2" y="419" width="7.13" height="71.25" fill="#0000ff" /><rect x="490.7" y="419" width="7.13" height="71.25" fill="#009600" /><rect x="498.2" y="419" width="7.13" height="71.25" fill="#ff0000" /><rect x="505.7" y="419" width="7.13" height="71.25" fill="#0000ff" /><rect x="513.2" y="419" width="7.13" height="71.25" fill="#009600" /><rect x="520.7" y="419" width="7.13" height="71.25" fill="#ff0000" /><rect x="528.2" y="419" width="7.13" height="71.25" fill="#0000ff" /><rect x="535.7" y="419" width="7.13" height="71.25" fill="#009600" /><rect x="543.2" y="419" width="7.13" height="71.25" fill="#ff0000" /><rect x="550.7" y="419" width="7.13" height="71.25" fill="#0000ff" /><rect x="558.2" y="419" width="7.13" height="71.25" fill="#009600" /><rect x="565.7" y="419" width="7.13" height="71.25" fill="#ff0000" /><rect x="573.2" y="419" width="7.13" height="71.25" fill="#0000ff" /><rect x="580.7" y="419" width="7.13" height="71.25" fill="#009600" /><rect x="588.2" y="419" width="7.13" height="71.25" fill="#ff0000" /><rect x="595.7" y="419" width="7.13" height="71.25" fill="#0000ff" /><rect x="603.2" y="419" width="7.13" height="71.25" fill="#009600" /><rect x="610.7" y="419" width="7.13" height="71.25" fill="#ff0000" /></g><rect x="683.2" y="34" width="80" height="92" fill="#ffffff" /><rect x="683.2" y="34" width="80" height="92" fill="none" stroke="#000000" stroke-width="1" /><text x="713.2" y="53.2" font-size="12" text-anchor="start">A</text><rect x="693.2" y="43" width="12" height="12" fill="#009600" /><text x="713.2" y="71.2" font-size="12" text-anchor="start">C</text><rect x="693.2" y="61" width="12" height="12" fill="#0000ff" /><text x="713.2" y="89.2" font-size="12" text-anchor="start">G</text><rect x="693.2" y="79" width="12" height="12" fill="#d17105" /><text x="713.2" y="107.2" font-size="12" text-anchor="start">T</text><rect x="693.2" y="97" width="12" height="12" fill="#ff0000" /></svg>