<svg xmlns="http://www.w3.org/2000/svg" width="766.2" height="545" font-family="DejaVu Sans, Liberation Sans, Arial, sans-serif" fill="black"><rect width="100%" height="100%" fill="white" /><line x1="72.2" y1="494" x2="672.2" y2="494" stroke="#000000" stroke-width="1" /><line x1="72.2" y1="44" x2="72.2" y2="494" stroke="#000000" stroke-width="1" /><text x="62.2" y="423.2" font-size="12" text-anchor="end">read_1</text><line x1="67.2" y1="419" x2="72.2" y2="419" stroke="#000000" stroke-width="1" /><text x="62.2" y="348.2" font-size="12" text-anchor="end">read_2</text><line x1="67.2" y1="344" x2="72.2" y2="344" stroke="#000000" stroke-width="1" /><text x="62.2" y="273.2" font-size="12" text-anchor="end">read_3</text><line x1="67.2" y1="269" x2="72.2" y2="269" stroke="#000000" stroke-width="1" /><text x="62.2" y="198.20000000000002" font-size="12" text-anchor="end">read_4</text><line x1="67.2" y1="194" x2="72.2" y2="194" stroke="#000000" stroke-width="1" /><text x="62.2" y="123.2" font-size="12" text-anchor="end">read_5</text><line x1="67.2" y1="119" x2="72.2" y2="119" stroke="#000000" stroke-width="1" /><text x="62.2" y="48.2" font-size="12" text-anchor="end">read_6</text><line x1="67.2" y1="44" x2="72.2" y2="44" stroke="#000000" stroke-width="1" /><line x1="72.2" y1="494" x2="72.2" y2="499" stroke="#000000" stroke-width="1" /><text x="72.2" y="511" font-size="12" text-anchor="middle">-20</text><line x1="222.20000000000002" y1="494" x2="222.20000000000002" y2="499" stroke="#000000" stroke-width="1" /><text x="222.20000000000002" y="511" font-size="12" text-anchor="middle">0</text><line x1="372.2" y1="494" x2="372.2" y2="499" stroke="#000000" stroke-width="1" /><text x="372.2" y="511" font-size="12" text-anchor="middle">20</text><line x1="522.2" y1="494" x2="522.2" y2="499" stroke="#000000" stroke-width="1" /><text x="522.2" y="511" font-size="12" text-anchor="middle">40</text><line x1="672.2" y1="494" x2="672.2" y2="499" stroke="#000000" stroke-width="1" /><text x="672.2" y="511" font-size="12" text-anchor="middle">60</text><text x="372.2" y="22" font-size="18" text-anchor="middle">Brick Plot — DNA Sequences</text><rect x="87.2" y="419" width="7.13" height="71.25" fill="#0000ff" /><rect x="94.7" y="419" width="7.13" height="71.25" fill="#d17105" /><rect x="102.2" y="419" width="7.13" height="71.25" fill="#d17105" /><rect x="109.7" y="419" width="7.13" height="71.25" fill="#0000ff" /><rect x="117.2" y="419" width="7.13" height="71.25" fill="#d17105" /><rect x="124.7" y="419" width="7.13" height="71.25" fill="#009600" /><rect x="132.2" y="419" width="7.13" height="71.25" fill="#ff0000" /><rect x="139.70000000000002" y="419" width="7.13" height="71.25" fill="#0000ff" /><rect x="147.20000000000002" y="419" width="7.13" height="71.25" fill="#009600" /><rect x="154.70000000000002" y="419" width="7.13" height="71.25" fill="#d17105" /><rect x="162.20000000000002" y="419" width="7.13" height="71.25" fill="#d17105" /><rect x="169.70000000000002" y="419" width="7.13" height="71.25" fill="#0000ff" /><rect x="177.20000000000002" y="419" width="7.13" height="71.25" fill="#0000ff" /><rect x="184.70000000000002" y="419" width="7.13" height="71.25" fill="#d17105" /><rect x="192.20000000000002" y="419" width="7.13" height="71.25" fill="#0000ff" /><rect x="199.70000000000002" y="419" width="7.13" height="71.25" fill="#009600" /><rect x="207.20000000000002" y="419" width="7.13" height="71.25" fill="#0000ff" /><rect x="214.70000000000002" y="419" width="7.13" height="71.25" fill="#ff0000" /><rect x="222.20000000000002" y="419" width="7.13" height="71.25" fill="#0000ff" /><rect x="229.70000000000002" y="419" width="7.13" height="71.25" fill="#009600" /><rect x="237.20000000000002" y="419" width="7.13" height="71.25" fill="#ff0000" /><rect x="244.70000000000002" y="419" width="7.13" height="71.25" fill="#0000ff" /><rect x="252.20000000000002" y="419" width="7.13" height="71.25" fill="#009600" /><rect x="259.7" y="419" width="7.13" height="71.25" fill="#ff0000" /><rect x="267.2" y="419" width="7.13" height="71.25" fill="#0000ff" /><rect x="274.7" y="419" width="7.13" height="71.25" fill="#009600" /><rect x="282.2" y="419" width="7.13" height="71.25" fill="#ff0000" /><rect x="289.7" y="419" width="7.13" height="71.25" fill="#0000ff" /><rect x="297.2" y="419" width="7.13" height="71.25" fill="#009600" /><rect x="304.7" y="419" width="7.13" height="71.25" fill="#ff0000" /><rect x="312.2" y="419" width="7.13" height="71.25" fill="#0000ff" /><rect x="319.7" y="419" width="7.13" height="71.25" fill="#009600" /><rect x="327.2" y="419" width="7.13" height="71.25" fill="#ff0000" /><rect x="334.7" y="419" width="7.13" height="71.25" fill="#0000ff" /><rect x="342.2" y="419" width="7.13" height="71.25" fill="#009600" /><rect x="349.7" y="419" width="7.13" height="71.25" fill="#ff0000" /><rect x="357.2" y="419" width="7.13" height="71.25" fill="#0000ff" /><rect x="364.7" y="419" width="7.13" height="71.25" fill="#009600" /><rect x="372.2" y="419" width="7.13" height="71.25" fill="#ff0000" /><rect x="379.7" y="419" width="7.13" height="71.25" fill="#0000ff" /><rect x="387.2" y="419" width="7.13" height="71.25" fill="#009600" /><rect x="394.7" y="419" width="7.13" height="71.25" fill="#ff0000" /><rect x="402.2" y="419" width="7.13" height="71.25" fill="#0000ff" /><rect x="409.7" y="419" width="7.13" height="71.25" fill="#009600" /><rect x="417.2" y="419" width="7.13" height="71.25" fill="#ff0000" /><rect x="424.7" y="419" width="7.13" height="71.25" fill="#0000ff" /><rect x="432.2" y="419" width="7.13" height="71.25" fill="#009600" /><rect x="439.7" y="419" width="7.13" height="71.25" fill="#ff0000" /><rect x="447.2" y="419" width="7.13" height="71.25" fill="#0000ff" /><rect x="454.7" y="419" width="7.13" height="71.25" fill="#009600" /><rect x="462.2" y="419" width="7.13" height="71.25" fill="#ff0000" /><rect x="469.7" y="419" width="7.13" height="71.25" fill="#0000ff" /><rect x="477.2" y="419" width="7.13" height="71.25" fill="#009600" /><rect x="484.7" y="419" width="7.13" height="71.25" fill="#ff0000" /><rect x="492.2" y="419" width="7.13" height="71.25" fill="#0000ff" /><rect x="499.7" y="419" width="7.13" height="71.25" fill="#009600" /><rect x="507.2" y="419" width="7.13" height="71.25" fill="#ff0000" /><rect x="514.7" y="419" width="7.13" height="71.25" fill="#0000ff" /><rect x="522.2" y="419" width="7.13" height="71.25" fill="#009600" /><rect x="529.7" y="419" width="7.13" height="71.25" fill="#ff0000" /><rect x="537.2" y="419" width="7.13" height="71.25" fill="#ff0000" /><rect x="544.7" y="419" width="7.13" height="71.25" fill="#0000ff" /><rect x="552.2" y="419" width="7.13" height="71.25" fill="#009600" /><rect x="559.7" y="419" width="7.13" height="71.25" fill="#ff0000" /><rect x="87.2" y="344" width="7.13" height="71.25" fill="#0000ff" /><rect x="94.7" y="344" width="7.13" height="71.25" fill="#d17105" /><rect x="102.2" y="344" width="7.13" height="71.25" fill="#d17105" /><rect x="109.7" y="344" width="7.13" height="71.25" fill="#0000ff" /><rect x="117.2" y="344" width="7.13" height="71.25" fill="#d17105" /><rect x="124.7" y="344" width="7.13" height="71.25" fill="#009600" /><rect x="132.2" y="344" width="7.13" height="71.25" fill="#ff0000" /><rect x="139.70000000000002" y="344" width="7.13" height="71.25" fill="#0000ff" /><rect x="147.20000000000002" y="344" width="7.13" height="71.25" fill="#009600" /><rect x="154.70000000000002" y="344" width="7.13" height="71.25" fill="#d17105" /><rect x="162.20000000000002" y="344" width="7.13" height="71.25" fill="#d17105" /><rect x="169.70000000000002" y="344" width="7.13" height="71.25" fill="#0000ff" /><rect x="177.20000000000002" y="344" width="7.13" height="71.25" fill="#0000ff" /><rect x="184.70000000000002" y="344" width="7.13" height="71.25" fill="#d17105" /><rect x="192.20000000000002" y="344" width="7.13" height="71.25" fill="#0000ff" /><rect x="199.70000000000002" y="344" width="7.13" height="71.25" fill="#009600" /><rect x="207.20000000000002" y="344" width="7.13" height="71.25" fill="#0000ff" /><rect x="214.70000000000002" y="344" width="7.13" height="71.25" fill="#ff0000" /><rect x="222.20000000000002" y="344" width="7.13" height="71.25" fill="#0000ff" /><rect x="229.70000000000002" y="344" width="7.13" height="71.25" fill="#009600" /><rect x="237.20000000000002" y="344" width="7.13" height="71.25" fill="#ff0000" /><rect x="244.70000000000002" y="344" width="7.13" height="71.25" fill="#0000ff" /><rect x="252.20000000000002" y="344" width="7.13" height="71.25" fill="#009600" /><rect x="259.7" y="344" width="7.13" height="71.25" fill="#ff0000" /><rect x="267.2" y="344" width="7.13" height="71.25" fill="#0000ff" /><rect x="274.7" y="344" width="7.13" height="71.25" fill="#009600" /><rect x="282.2" y="344" width="7.13" height="71.25" fill="#ff0000" /><rect x="289.7" y="344" width="7.13" height="71.25" fill="#0000ff" /><rect x="297.2" y="344" width="7.13" height="71.25" fill="#009600" /><rect x="304.7" y="344" width="7.13" height="71.25" fill="#ff0000" /><rect x="312.2" y="344" width="7.13" height="71.25" fill="#0000ff" /><rect x="319.7" y="344" width="7.13" height="71.25" fill="#009600" /><rect x="327.2" y="344" width="7.13" height="71.25" fill="#ff0000" /><rect x="334.7" y="344" width="7.13" height="71.25" fill="#0000ff" /><rect x="342.2" y="344" width="7.13" height="71.25" fill="#009600" /><rect x="349.7" y="344" width="7.13" height="71.25" fill="#ff0000" /><rect x="357.2" y="344" width="7.13" height="71.25" fill="#0000ff" /><rect x="364.7" y="344" width="7.13" height="71.25" fill="#009600" /><rect x="372.2" y="344" width="7.13" height="71.25" fill="#ff0000" /><rect x="379.7" y="344" width="7.13" height="71.25" fill="#0000ff" /><rect x="387.2" y="344" width="7.13" height="71.25" fill="#009600" /><rect x="394.7" y="344" width="7.13" height="71.25" fill="#ff0000" /><rect x="402.2" y="344" width="7.13" height="71.25" fill="#0000ff" /><rect x="409.7" y="344" width="7.13" height="71.25" fill="#009600" /><rect x="417.2" y="344" width="7.13" height="71.25" fill="#ff0000" /><rect x="424.7" y="344" width="7.13" height="71.25" fill="#0000ff" /><rect x="432.2" y="344" width="7.13" height="71.25" fill="#009600" /><rect x="439.7" y="344" width="7.13" height="71.25" fill="#ff0000" /><rect x="447.2" y="344" width="7.13" height="71.25" fill="#0000ff" /><rect x="454.7" y="344" width="7.13" height="71.25" fill="#009600" /><rect x="462.2" y="344" width="7.13" height="71.25" fill="#ff0000" /><rect x="469.7" y="344" width="7.13" height="71.25" fill="#0000ff" /><rect x="477.2" y="344" width="7.13" height="71.25" fill="#009600" /><rect x="484.7" y="344" width="7.13" height="71.25" fill="#ff0000" /><rect x="492.2" y="344" width="7.13" height="71.25" fill="#0000ff" /><rect x="499.7" y="344" width="7.13" height="71.25" fill="#009600" /><rect x="507.2" y="344" width="7.13" height="71.25" fill="#ff0000" /><rect x="514.7" y="344" width="7.13" height="71.25" fill="#ff0000" /><rect x="522.2" y="344" width="7.13" height="71.25" fill="#0000ff" /><rect x="529.7" y="344" width="7.13" height="71.25" fill="#009600" /><rect x="537.2" y="344" width="7.13" height="71.25" fill="#ff0000" /><rect x="87.2" y="269" width="7.13" height="71.25" fill="#0000ff" /><rect x="94.7" y="269" width="7.13" height="71.25" fill="#d17105" /><rect x="102.2" y="269" width="7.13" height="71.25" fill="#d17105" /><rect x="109.7" y="269" width="7.13" height="71.25" fill="#0000ff" /><rect x="117.2" y="269" width="7.13" height="71.25" fill="#d17105" /><rect x="124.7" y="269" width="7.13" height="71.25" fill="#009600" /><rect x="132.2" y="269" width="7.13" height="71.25" fill="#ff0000" /><rect x="139.70000000000002" y="269" width="7.13" height="71.25" fill="#0000ff" /><rect x="147.20000000000002" y="269" width="7.13" height="71.25" fill="#009600" /><rect x="154.70000000000002" y="269" width="7.13" height="71.25" fill="#d17105" /><rect x="162.20000000000002" y="269" width="7.13" height="71.25" fill="#d17105" /><rect x="169.70000000000002" y="269" width="7.13" height="71.25" fill="#0000ff" /><rect x="177.20000000000002" y="269" width="7.13" height="71.25" fill="#0000ff" /><rect x="184.70000000000002" y="269" width="7.13" height="71.25" fill="#d17105" /><rect x="192.20000000000002" y="269" width="7.13" height="71.25" fill="#0000ff" /><rect x="199.70000000000002" y="269" width="7.13" height="71.25" fill="#009600" /><rect x="207.20000000000002" y="269" width="7.13" height="71.25" fill="#0000ff" /><rect x="214.70000000000002" y="269" width="7.13" height="71.25" fill="#ff0000" /><rect x="222.20000000000002" y="269" width="7.13" height="71.25" fill="#0000ff" /><rect x="229.70000000000002" y="269" width="7.13" height="71.25" fill="#009600" /><rect x="237.20000000000002" y="269" width="7.13" height="71.25" fill="#ff0000" /><rect x="244.70000000000002" y="269" width="7.13" height="71.25" fill="#0000ff" /><rect x="252.20000000000002" y="269" width="7.13" height="71.25" fill="#009600" /><rect x="259.7" y="269" width="7.13" height="71.25" fill="#ff0000" /><rect x="267.2" y="269" width="7.13" height="71.25" fill="#0000ff" /><rect x="274.7" y="269" width="7.13" height="71.25" fill="#009600" /><rect x="282.2" y="269" width="7.13" height="71.25" fill="#ff0000" /><rect x="289.7" y="269" width="7.13" height="71.25" fill="#0000ff" /><rect x="297.2" y="269" width="7.13" height="71.25" fill="#009600" /><rect x="304.7" y="269" width="7.13" height="71.25" fill="#ff0000" /><rect x="312.2" y="269" width="7.13" height="71.25" fill="#0000ff" /><rect x="319.7" y="269" width="7.13" height="71.25" fill="#009600" /><rect x="327.2" y="269" width="7.13" height="71.25" fill="#ff0000" /><rect x="334.7" y="269" width="7.13" height="71.25" fill="#0000ff" /><rect x="342.2" y="269" width="7.13" height="71.25" fill="#009600" /><rect x="349.7" y="269" width="7.13" height="71.25" fill="#ff0000" /><rect x="357.2" y="269" width="7.13" height="71.25" fill="#0000ff" /><rect x="364.7" y="269" width="7.13" height="71.25" fill="#009600" /><rect x="372.2" y="269" width="7.13" height="71.25" fill="#ff0000" /><rect x="379.7" y="269" width="7.13" height="71.25" fill="#0000ff" /><rect x="387.2" y="269" width="7.13" height="71.25" fill="#009600" /><rect x="394.7" y="269" width="7.13" height="71.25" fill="#ff0000" /><rect x="402.2" y="269" width="7.13" height="71.25" fill="#0000ff" /><rect x="409.7" y="269" width="7.13" height="71.25" fill="#009600" /><rect x="417.2" y="269" width="7.13" height="71.25" fill="#ff0000" /><rect x="424.7" y="269" width="7.13" height="71.25" fill="#0000ff" /><rect x="432.2" y="269" width="7.13" height="71.25" fill="#009600" /><rect x="439.7" y="269" width="7.13" height="71.25" fill="#ff0000" /><rect x="447.2" y="269" width="7.13" height="71.25" fill="#0000ff" /><rect x="454.7" y="269" width="7.13" height="71.25" fill="#009600" /><rect x="462.2" y="269" width="7.13" height="71.25" fill="#ff0000" /><rect x="469.7" y="269" width="7.13" height="71.25" fill="#0000ff" /><rect x="477.2" y="269" width="7.13" height="71.25" fill="#009600" /><rect x="484.7" y="269" width="7.13" height="71.25" fill="#ff0000" /><rect x="492.2" y="269" width="7.13" height="71.25" fill="#0000ff" /><rect x="499.7" y="269" width="7.13" height="71.25" fill="#009600" /><rect x="507.2" y="269" width="7.13" height="71.25" fill="#ff0000" /><rect x="514.7" y="269" width="7.13" height="71.25" fill="#0000ff" /><rect x="522.2" y="269" width="7.13" height="71.25" fill="#009600" /><rect x="529.7" y="269" width="7.13" height="71.25" fill="#ff0000" /><rect x="537.2" y="269" width="7.13" height="71.25" fill="#ff0000" /><rect x="544.7" y="269" width="7.13" height="71.25" fill="#0000ff" /><rect x="552.2" y="269" width="7.13" height="71.25" fill="#009600" /><rect x="559.7" y="269" width="7.13" height="71.25" fill="#ff0000" /><rect x="87.2" y="194" width="7.13" height="71.25" fill="#0000ff" /><rect x="94.7" y="194" width="7.13" height="71.25" fill="#d17105" /><rect x="102.2" y="194" width="7.13" height="71.25" fill="#d17105" /><rect x="109.7" y="194" width="7.13" height="71.25" fill="#0000ff" /><rect x="117.2" y="194" width="7.13" height="71.25" fill="#d17105" /><rect x="124.7" y="194" width="7.13" height="71.25" fill="#009600" /><rect x="132.2" y="194" width="7.13" height="71.25" fill="#ff0000" /><rect x="139.70000000000002" y="194" width="7.13" height="71.25" fill="#0000ff" /><rect x="147.20000000000002" y="194" width="7.13" height="71.25" fill="#009600" /><rect x="154.70000000000002" y="194" width="7.13" height="71.25" fill="#d17105" /><rect x="162.20000000000002" y="194" width="7.13" height="71.25" fill="#d17105" /><rect x="169.70000000000002" y="194" width="7.13" height="71.25" fill="#0000ff" /><rect x="177.20000000000002" y="194" width="7.13" height="71.25" fill="#0000ff" /><rect x="184.70000000000002" y="194" width="7.13" height="71.25" fill="#d17105" /><rect x="192.20000000000002" y="194" width="7.13" height="71.25" fill="#0000ff" /><rect x="199.70000000000002" y="194" width="7.13" height="71.25" fill="#009600" /><rect x="207.20000000000002" y="194" width="7.13" height="71.25" fill="#0000ff" /><rect x="214.70000000000002" y="194" width="7.13" height="71.25" fill="#ff0000" /><rect x="222.20000000000002" y="194" width="7.13" height="71.25" fill="#0000ff" /><rect x="229.70000000000002" y="194" width="7.13" height="71.25" fill="#009600" /><rect x="237.20000000000002" y="194" width="7.13" height="71.25" fill="#ff0000" /><rect x="244.70000000000002" y="194" width="7.13" height="71.25" fill="#0000ff" /><rect x="252.20000000000002" y="194" width="7.13" height="71.25" fill="#009600" /><rect x="259.7" y="194" width="7.13" height="71.25" fill="#ff0000" /><rect x="267.2" y="194" width="7.13" height="71.25" fill="#0000ff" /><rect x="274.7" y="194" width="7.13" height="71.25" fill="#009600" /><rect x="282.2" y="194" width="7.13" height="71.25" fill="#ff0000" /><rect x="289.7" y="194" width="7.13" height="71.25" fill="#0000ff" /><rect x="297.2" y="194" width="7.13" height="71.25" fill="#009600" /><rect x="304.7" y="194" width="7.13" height="71.25" fill="#ff0000" /><rect x="312.2" y="194" width="7.13" height="71.25" fill="#0000ff" /><rect x="319.7" y="194" width="7.13" height="71.25" fill="#009600" /><rect x="327.2" y="194" width="7.13" height="71.25" fill="#ff0000" /><rect x="334.7" y="194" width="7.13" height="71.25" fill="#0000ff" /><rect x="342.2" y="194" width="7.13" height="71.25" fill="#009600" /><rect x="349.7" y="194" width="7.13" height="71.25" fill="#ff0000" /><rect x="357.2" y="194" width="7.13" height="71.25" fill="#0000ff" /><rect x="364.7" y="194" width="7.13" height="71.25" fill="#009600" /><rect x="372.2" y="194" width="7.13" height="71.25" fill="#ff0000" /><rect x="379.7" y="194" width="7.13" height="71.25" fill="#0000ff" /><rect x="387.2" y="194" width="7.13" height="71.25" fill="#009600" /><rect x="394.7" y="194" width="7.13" height="71.25" fill="#ff0000" /><rect x="402.2" y="194" width="7.13" height="71.25" fill="#0000ff" /><rect x="409.7" y="194" width="7.13" height="71.25" fill="#009600" /><rect x="417.2" y="194" width="7.13" height="71.25" fill="#ff0000" /><rect x="424.7" y="194" width="7.13" height="71.25" fill="#0000ff" /><rect x="432.2" y="194" width="7.13" height="71.25" fill="#009600" /><rect x="439.7" y="194" width="7.13" height="71.25" fill="#ff0000" /><rect x="447.2" y="194" width="7.13" height="71.25" fill="#0000ff" /><rect x="454.7" y="194" width="7.13" height="71.25" fill="#0000ff" /><rect x="462.2" y="194" width="7.13" height="71.25" fill="#009600" /><rect x="469.7" y="194" width="7.13" height="71.25" fill="#ff0000" /><rect x="477.2" y="194" width="7.13" height="71.25" fill="#0000ff" /><rect x="484.7" y="194" width="7.13" height="71.25" fill="#009600" /><rect x="492.2" y="194" width="7.13" height="71.25" fill="#ff0000" /><rect x="499.7" y="194" width="7.13" height="71.25" fill="#0000ff" /><rect x="507.2" y="194" width="7.13" height="71.25" fill="#009600" /><rect x="514.7" y="194" width="7.13" height="71.25" fill="#ff0000" /><rect x="522.2" y="194" width="7.13" height="71.25" fill="#0000ff" /><rect x="529.7" y="194" width="7.13" height="71.25" fill="#009600" /><rect x="537.2" y="194" width="7.13" height="71.25" fill="#ff0000" /><rect x="544.7" y="194" width="7.13" height="71.25" fill="#ff0000" /><rect x="552.2" y="194" width="7.13" height="71.25" fill="#0000ff" /><rect x="559.7" y="194" width="7.13" height="71.25" fill="#009600" /><rect x="567.2" y="194" width="7.13" height="71.25" fill="#ff0000" /><rect x="87.2" y="119" width="7.13" height="71.25" fill="#0000ff" /><rect x="94.7" y="119" width="7.13" height="71.25" fill="#d17105" /><rect x="102.2" y="119" width="7.13" height="71.25" fill="#d17105" /><rect x="109.7" y="119" width="7.13" height="71.25" fill="#0000ff" /><rect x="117.2" y="119" width="7.13" height="71.25" fill="#d17105" /><rect x="124.7" y="119" width="7.13" height="71.25" fill="#009600" /><rect x="132.2" y="119" width="7.13" height="71.25" fill="#ff0000" /><rect x="139.70000000000002" y="119" width="7.13" height="71.25" fill="#0000ff" /><rect x="147.20000000000002" y="119" width="7.13" height="71.25" fill="#009600" /><rect x="154.70000000000002" y="119" width="7.13" height="71.25" fill="#d17105" /><rect x="162.20000000000002" y="119" width="7.13" height="71.25" fill="#d17105" /><rect x="169.70000000000002" y="119" width="7.13" height="71.25" fill="#0000ff" /><rect x="177.20000000000002" y="119" width="7.13" height="71.25" fill="#0000ff" /><rect x="184.70000000000002" y="119" width="7.13" height="71.25" fill="#d17105" /><rect x="192.20000000000002" y="119" width="7.13" height="71.25" fill="#0000ff" /><rect x="199.70000000000002" y="119" width="7.13" height="71.25" fill="#009600" /><rect x="207.20000000000002" y="119" width="7.13" height="71.25" fill="#0000ff" /><rect x="214.70000000000002" y="119" width="7.13" height="71.25" fill="#ff0000" /><rect x="222.20000000000002" y="119" width="7.13" height="71.25" fill="#0000ff" /><rect x="229.70000000000002" y="119" width="7.13" height="71.25" fill="#009600" /><rect x="237.20000000000002" y="119" width="7.13" height="71.25" fill="#ff0000" /><rect x="244.70000000000002" y="119" width="7.13" height="71.25" fill="#0000ff" /><rect x="252.20000000000002" y="119" width="7.13" height="71.25" fill="#009600" /><rect x="259.7" y="119" width="7.13" height="71.25" fill="#ff0000" /><rect x="267.2" y="119" width="7.13" height="71.25" fill="#0000ff" /><rect x="274.7" y="119" width="7.13" height="71.25" fill="#009600" /><rect x="282.2" y="119" width="7.13" height="71.25" fill="#ff0000" /><rect x="289.7" y="119" width="7.13" height="71.25" fill="#0000ff" /><rect x="297.2" y="119" width="7.13" height="71.25" fill="#009600" /><rect x="304.7" y="119" width="7.13" height="71.25" fill="#ff0000" /><rect x="312.2" y="119" width="7.13" height="71.25" fill="#0000ff" /><rect x="319.7" y="119" width="7.13" height="71.25" fill="#009600" /><rect x="327.2" y="119" width="7.13" height="71.25" fill="#ff0000" /><rect x="334.7" y="119" width="7.13" height="71.25" fill="#0000ff" /><rect x="342.2" y="119" width="7.13" height="71.25" fill="#009600" /><rect x="349.7" y="119" width="7.13" height="71.25" fill="#ff0000" /><rect x="357.2" y="119" width="7.13" height="71.25" fill="#0000ff" /><rect x="364.7" y="119" width="7.13" height="71.25" fill="#009600" /><rect x="372.2" y="119" width="7.13" height="71.25" fill="#ff0000" /><rect x="379.7" y="119" width="7.13" height="71.25" fill="#0000ff" /><rect x="387.2" y="119" width="7.13" height="71.25" fill="#009600" /><rect x="394.7" y="119" width="7.13" height="71.25" fill="#ff0000" /><rect x="402.2" y="119" width="7.13" height="71.25" fill="#0000ff" /><rect x="409.7" y="119" width="7.13" height="71.25" fill="#009600" /><rect x="417.2" y="119" width="7.13" height="71.25" fill="#ff0000" /><rect x="424.7" y="119" width="7.13" height="71.25" fill="#0000ff" /><rect x="432.2" y="119" width="7.13" height="71.25" fill="#009600" /><rect x="439.7" y="119" width="7.13" height="71.25" fill="#ff0000" /><rect x="447.2" y="119" width="7.13" height="71.25" fill="#0000ff" /><rect x="454.7" y="119" width="7.13" height="71.25" fill="#0000ff" /><rect x="462.2" y="119" width="7.13" height="71.25" fill="#009600" /><rect x="469.7" y="119" width="7.13" height="71.25" fill="#ff0000" /><rect x="477.2" y="119" width="7.13" height="71.25" fill="#0000ff" /><rect x="484.7" y="119" width="7.13" height="71.25" fill="#009600" /><rect x="492.2" y="119" width="7.13" height="71.25" fill="#ff0000" /><rect x="499.7" y="119" width="7.13" height="71.25" fill="#0000ff" /><rect x="507.2" y="119" width="7.13" height="71.25" fill="#009600" /><rect x="514.7" y="119" width="7.13" height="71.25" fill="#ff0000" /><rect x="522.2" y="119" width="7.13" height="71.25" fill="#0000ff" /><rect x="529.7" y="119" width="7.13" height="71.25" fill="#009600" /><rect x="537.2" y="119" width="7.13" height="71.25" fill="#ff0000" /><rect x="544.7" y="119" width="7.13" height="71.25" fill="#ff0000" /><rect x="552.2" y="119" width="7.13" height="71.25" fill="#0000ff" /><rect x="559.7" y="119" width="7.13" height="71.25" fill="#009600" /><rect x="567.2" y="119" width="7.13" height="71.25" fill="#ff0000" /><rect x="87.2" y="44" width="7.13" height="71.25" fill="#0000ff" /><rect x="94.7" y="44" width="7.13" height="71.25" fill="#d17105" /><rect x="102.2" y="44" width="7.13" height="71.25" fill="#d17105" /><rect x="109.7" y="44" width="7.13" height="71.25" fill="#0000ff" /><rect x="117.2" y="44" width="7.13" height="71.25" fill="#d17105" /><rect x="124.7" y="44" width="7.13" height="71.25" fill="#009600" /><rect x="132.2" y="44" width="7.13" height="71.25" fill="#ff0000" /><rect x="139.70000000000002" y="44" width="7.13" height="71.25" fill="#0000ff" /><rect x="147.20000000000002" y="44" width="7.13" height="71.25" fill="#009600" /><rect x="154.70000000000002" y="44" width="7.13" height="71.25" fill="#d17105" /><rect x="162.20000000000002" y="44" width="7.13" height="71.25" fill="#d17105" /><rect x="169.70000000000002" y="44" width="7.13" height="71.25" fill="#0000ff" /><rect x="177.20000000000002" y="44" width="7.13" height="71.25" fill="#0000ff" /><rect x="184.70000000000002" y="44" width="7.13" height="71.25" fill="#d17105" /><rect x="192.20000000000002" y="44" width="7.13" height="71.25" fill="#0000ff" /><rect x="199.70000000000002" y="44" width="7.13" height="71.25" fill="#009600" /><rect x="207.20000000000002" y="44" width="7.13" height="71.25" fill="#0000ff" /><rect x="214.70000000000002" y="44" width="7.13" height="71.25" fill="#ff0000" /><rect x="222.20000000000002" y="44" width="7.13" height="71.25" fill="#0000ff" /><rect x="229.70000000000002" y="44" width="7.13" height="71.25" fill="#009600" /><rect x="237.20000000000002" y="44" width="7.13" height="71.25" fill="#ff0000" /><rect x="244.70000000000002" y="44" width="7.13" height="71.25" fill="#0000ff" /><rect x="252.20000000000002" y="44" width="7.13" height="71.25" fill="#009600" /><rect x="259.7" y="44" width="7.13" height="71.25" fill="#ff0000" /><rect x="267.2" y="44" width="7.13" height="71.25" fill="#0000ff" /><rect x="274.7" y="44" width="7.13" height="71.25" fill="#009600" /><rect x="282.2" y="44" width="7.13" height="71.25" fill="#ff0000" /><rect x="289.7" y="44" width="7.13" height="71.25" fill="#0000ff" /><rect x="297.2" y="44" width="7.13" height="71.25" fill="#009600" /><rect x="304.7" y="44" width="7.13" height="71.25" fill="#ff0000" /><rect x="312.2" y="44" width="7.13" height="71.25" fill="#0000ff" /><rect x="319.7" y="44" width="7.13" height="71.25" fill="#009600" /><rect x="327.2" y="44" width="7.13" height="71.25" fill="#ff0000" /><rect x="334.7" y="44" width="7.13" height="71.25" fill="#0000ff" /><rect x="342.2" y="44" width="7.13" height="71.25" fill="#009600" /><rect x="349.7" y="44" width="7.13" height="71.25" fill="#ff0000" /><rect x="357.2" y="44" width="7.13" height="71.25" fill="#0000ff" /><rect x="364.7" y="44" width="7.13" height="71.25" fill="#009600" /><rect x="372.2" y="44" width="7.13" height="71.25" fill="#ff0000" /><rect x="379.7" y="44" width="7.13" height="71.25" fill="#0000ff" /><rect x="387.2" y="44" width="7.13" height="71.25" fill="#009600" /><rect x="394.7" y="44" width="7.13" height="71.25" fill="#ff0000" /><rect x="402.2" y="44" width="7.13" height="71.25" fill="#0000ff" /><rect x="409.7" y="44" width="7.13" height="71.25" fill="#009600" /><rect x="417.2" y="44" width="7.13" height="71.25" fill="#ff0000" /><rect x="424.7" y="44" width="7.13" height="71.25" fill="#0000ff" /><rect x="432.2" y="44" width="7.13" height="71.25" fill="#009600" /><rect x="439.7" y="44" width="7.13" height="71.25" fill="#ff0000" /><rect x="447.2" y="44" width="7.13" height="71.25" fill="#0000ff" /><rect x="454.7" y="44" width="7.13" height="71.25" fill="#0000ff" /><rect x="462.2" y="44" width="7.13" height="71.25" fill="#009600" /><rect x="469.7" y="44" width="7.13" height="71.25" fill="#ff0000" /><rect x="477.2" y="44" width="7.13" height="71.25" fill="#0000ff" /><rect x="484.7" y="44" width="7.13" height="71.25" fill="#009600" /><rect x="492.2" y="44" width="7.13" height="71.25" fill="#ff0000" /><rect x="499.7" y="44" width="7.13" height="71.25" fill="#0000ff" /><rect x="507.2" y="44" width="7.13" height="71.25" fill="#009600" /><rect x="514.7" y="44" width="7.13" height="71.25" fill="#ff0000" /><rect x="522.2" y="44" width="7.13" height="71.25" fill="#0000ff" /><rect x="529.7" y="44" width="7.13" height="71.25" fill="#009600" /><rect x="537.2" y="44" width="7.13" height="71.25" fill="#ff0000" /><rect x="544.7" y="44" width="7.13" height="71.25" fill="#0000ff" /><rect x="552.2" y="44" width="7.13" height="71.25" fill="#009600" /><rect x="559.7" y="44" width="7.13" height="71.25" fill="#ff0000" /><rect x="567.2" y="44" width="7.13" height="71.25" fill="#0000ff" /><rect x="574.7" y="44" width="7.13" height="71.25" fill="#009600" /><rect x="582.2" y="44" width="7.13" height="71.25" fill="#ff0000" /><rect x="589.7" y="44" width="7.13" height="71.25" fill="#0000ff" /><rect x="597.2" y="44" width="7.13" height="71.25" fill="#009600" /><rect x="604.7" y="44" width="7.13" height="71.25" fill="#ff0000" /><rect x="677.2" y="34" width="80" height="92" fill="#ffffff" /><rect x="677.2" y="34" width="80" height="92" fill="none" stroke="#000000" stroke-width="1" /><text x="707.2" y="53.2" font-size="12" text-anchor="start">A</text><rect x="687.2" y="43" width="12" height="12" fill="#009600" /><text x="707.2" y="71.2" font-size="12" text-anchor="start">C</text><rect x="687.2" y="61" width="12" height="12" fill="#0000ff" /><text x="707.2" y="89.2" font-size="12" text-anchor="start">G</text><rect x="687.2" y="79" width="12" height="12" fill="#d17105" /><text x="707.2" y="107.2" font-size="12" text-anchor="start">T</text><rect x="687.2" y="97" width="12" height="12" fill="#ff0000" /></svg>