<svg xmlns="http://www.w3.org/2000/svg" width="766.2" height="545" font-family="DejaVu Sans, Liberation Sans, Arial, sans-serif" fill="black"><rect width="100%" height="100%" fill="white" /><line x1="72.2" y1="494" x2="672.2" y2="494" stroke="#000000" stroke-width="1" /><line x1="72.2" y1="44" x2="72.2" y2="494" stroke="#000000" stroke-width="1" /><text x="62.2" y="408.2" font-size="12" text-anchor="end">read_1</text><line x1="67.2" y1="404" x2="72.2" y2="404" stroke="#000000" stroke-width="1" /><text x="62.2" y="318.2" font-size="12" text-anchor="end">read_2</text><line x1="67.2" y1="314" x2="72.2" y2="314" stroke="#000000" stroke-width="1" /><text x="62.2" y="228.20000000000002" font-size="12" text-anchor="end">read_3</text><line x1="67.2" y1="224" x2="72.2" y2="224" stroke="#000000" stroke-width="1" /><text x="62.2" y="138.20000000000002" font-size="12" text-anchor="end">read_4</text><line x1="67.2" y1="134" x2="72.2" y2="134" stroke="#000000" stroke-width="1" /><text x="62.2" y="48.2" font-size="12" text-anchor="end">read_5</text><line x1="67.2" y1="44" x2="72.2" y2="44" stroke="#000000" stroke-width="1" /><line x1="72.2" y1="494" x2="72.2" y2="499" stroke="#000000" stroke-width="1" /><text x="72.2" y="511" font-size="12" text-anchor="middle">-20</text><line x1="192.20000000000002" y1="494" x2="192.20000000000002" y2="499" stroke="#000000" stroke-width="1" /><text x="192.20000000000002" y="511" font-size="12" text-anchor="middle">-10</text><line x1="312.2" y1="494" x2="312.2" y2="499" stroke="#000000" stroke-width="1" /><text x="312.2" y="511" font-size="12" text-anchor="middle">0</text><line x1="432.2" y1="494" x2="432.2" y2="499" stroke="#000000" stroke-width="1" /><text x="432.2" y="511" font-size="12" text-anchor="middle">10</text><line x1="552.2" y1="494" x2="552.2" y2="499" stroke="#000000" stroke-width="1" /><text x="552.2" y="511" font-size="12" text-anchor="middle">20</text><line x1="672.2" y1="494" x2="672.2" y2="499" stroke="#000000" stroke-width="1" /><text x="672.2" y="511" font-size="12" text-anchor="middle">30</text><text x="372.2" y="22" font-size="18" text-anchor="middle">Brick Plot — Per-row Offsets</text><rect x="96.2" y="404" width="11.4" height="85.5" fill="#0000ff" /><rect x="108.2" y="404" width="11.4" height="85.5" fill="#d17105" /><rect x="120.2" y="404" width="11.4" height="85.5" fill="#d17105" /><rect x="132.2" y="404" width="11.4" height="85.5" fill="#0000ff" /><rect x="144.20000000000002" y="404" width="11.4" height="85.5" fill="#d17105" /><rect x="156.20000000000002" y="404" width="11.4" height="85.5" fill="#009600" /><rect x="168.20000000000002" y="404" width="11.4" height="85.5" fill="#ff0000" /><rect x="180.20000000000002" y="404" width="11.4" height="85.5" fill="#0000ff" /><rect x="192.20000000000002" y="404" width="11.4" height="85.5" fill="#009600" /><rect x="204.20000000000002" y="404" width="11.4" height="85.5" fill="#d17105" /><rect x="216.20000000000002" y="404" width="11.4" height="85.5" fill="#d17105" /><rect x="228.20000000000002" y="404" width="11.4" height="85.5" fill="#0000ff" /><rect x="240.20000000000002" y="404" width="11.4" height="85.5" fill="#0000ff" /><rect x="252.20000000000002" y="404" width="11.4" height="85.5" fill="#d17105" /><rect x="264.2" y="404" width="11.4" height="85.5" fill="#0000ff" /><rect x="276.2" y="404" width="11.4" height="85.5" fill="#009600" /><rect x="288.2" y="404" width="11.4" height="85.5" fill="#0000ff" /><rect x="300.2" y="404" width="11.4" height="85.5" fill="#ff0000" /><rect x="312.2" y="404" width="11.4" height="85.5" fill="#0000ff" /><rect x="324.2" y="404" width="11.4" height="85.5" fill="#009600" /><rect x="336.2" y="404" width="11.4" height="85.5" fill="#ff0000" /><rect x="348.2" y="404" width="11.4" height="85.5" fill="#0000ff" /><rect x="360.2" y="404" width="11.4" height="85.5" fill="#009600" /><rect x="372.2" y="404" width="11.4" height="85.5" fill="#ff0000" /><rect x="384.2" y="404" width="11.4" height="85.5" fill="#0000ff" /><rect x="396.2" y="404" width="11.4" height="85.5" fill="#009600" /><rect x="408.2" y="404" width="11.4" height="85.5" fill="#ff0000" /><rect x="420.2" y="404" width="11.4" height="85.5" fill="#0000ff" /><rect x="432.2" y="404" width="11.4" height="85.5" fill="#009600" /><rect x="444.2" y="404" width="11.4" height="85.5" fill="#ff0000" /><rect x="456.2" y="404" width="11.4" height="85.5" fill="#0000ff" /><rect x="468.2" y="404" width="11.4" height="85.5" fill="#009600" /><rect x="480.2" y="404" width="11.4" height="85.5" fill="#ff0000" /><rect x="492.2" y="404" width="11.4" height="85.5" fill="#0000ff" /><rect x="504.2" y="404" width="11.4" height="85.5" fill="#009600" /><rect x="516.2" y="404" width="11.4" height="85.5" fill="#ff0000" /><rect x="528.2" y="404" width="11.4" height="85.5" fill="#0000ff" /><rect x="540.2" y="404" width="11.4" height="85.5" fill="#009600" /><rect x="552.2" y="404" width="11.4" height="85.5" fill="#ff0000" /><rect x="564.2" y="404" width="11.4" height="85.5" fill="#0000ff" /><rect x="576.2" y="404" width="11.4" height="85.5" fill="#009600" /><rect x="588.2" y="404" width="11.4" height="85.5" fill="#ff0000" /><rect x="192.20000000000002" y="314" width="11.4" height="85.5" fill="#d17105" /><rect x="204.20000000000002" y="314" width="11.4" height="85.5" fill="#0000ff" /><rect x="216.20000000000002" y="314" width="11.4" height="85.5" fill="#009600" /><rect x="228.20000000000002" y="314" width="11.4" height="85.5" fill="#0000ff" /><rect x="240.20000000000002" y="314" width="11.4" height="85.5" fill="#ff0000" /><rect x="252.20000000000002" y="314" width="11.4" height="85.5" fill="#0000ff" /><rect x="264.2" y="314" width="11.4" height="85.5" fill="#009600" /><rect x="276.2" y="314" width="11.4" height="85.5" fill="#ff0000" /><rect x="288.2" y="314" width="11.4" height="85.5" fill="#0000ff" /><rect x="300.2" y="314" width="11.4" height="85.5" fill="#009600" /><rect x="312.2" y="314" width="11.4" height="85.5" fill="#ff0000" /><rect x="324.2" y="314" width="11.4" height="85.5" fill="#0000ff" /><rect x="336.2" y="314" width="11.4" height="85.5" fill="#009600" /><rect x="348.2" y="314" width="11.4" height="85.5" fill="#ff0000" /><rect x="360.2" y="314" width="11.4" height="85.5" fill="#0000ff" /><rect x="372.2" y="314" width="11.4" height="85.5" fill="#009600" /><rect x="384.2" y="314" width="11.4" height="85.5" fill="#ff0000" /><rect x="396.2" y="314" width="11.4" height="85.5" fill="#0000ff" /><rect x="408.2" y="314" width="11.4" height="85.5" fill="#009600" /><rect x="420.2" y="314" width="11.4" height="85.5" fill="#ff0000" /><rect x="432.2" y="314" width="11.4" height="85.5" fill="#0000ff" /><rect x="444.2" y="314" width="11.4" height="85.5" fill="#009600" /><rect x="456.2" y="314" width="11.4" height="85.5" fill="#ff0000" /><rect x="468.2" y="314" width="11.4" height="85.5" fill="#0000ff" /><rect x="480.2" y="314" width="11.4" height="85.5" fill="#009600" /><rect x="492.2" y="314" width="11.4" height="85.5" fill="#ff0000" /><rect x="504.2" y="314" width="11.4" height="85.5" fill="#0000ff" /><rect x="516.2" y="314" width="11.4" height="85.5" fill="#009600" /><rect x="528.2" y="314" width="11.4" height="85.5" fill="#ff0000" /><rect x="540.2" y="314" width="11.4" height="85.5" fill="#0000ff" /><rect x="552.2" y="314" width="11.4" height="85.5" fill="#009600" /><rect x="564.2" y="314" width="11.4" height="85.5" fill="#ff0000" /><rect x="576.2" y="314" width="11.4" height="85.5" fill="#0000ff" /><rect x="588.2" y="314" width="11.4" height="85.5" fill="#009600" /><rect x="600.2" y="314" width="11.4" height="85.5" fill="#ff0000" /><rect x="120.2" y="224" width="11.4" height="85.5" fill="#009600" /><rect x="132.2" y="224" width="11.4" height="85.5" fill="#ff0000" /><rect x="144.20000000000002" y="224" width="11.4" height="85.5" fill="#0000ff" /><rect x="156.20000000000002" y="224" width="11.4" height="85.5" fill="#009600" /><rect x="168.20000000000002" y="224" width="11.4" height="85.5" fill="#d17105" /><rect x="180.20000000000002" y="224" width="11.4" height="85.5" fill="#d17105" /><rect x="192.20000000000002" y="224" width="11.4" height="85.5" fill="#0000ff" /><rect x="204.20000000000002" y="224" width="11.4" height="85.5" fill="#0000ff" /><rect x="216.20000000000002" y="224" width="11.4" height="85.5" fill="#d17105" /><rect x="228.20000000000002" y="224" width="11.4" height="85.5" fill="#0000ff" /><rect x="240.20000000000002" y="224" width="11.4" height="85.5" fill="#009600" /><rect x="252.20000000000002" y="224" width="11.4" height="85.5" fill="#0000ff" /><rect x="264.2" y="224" width="11.4" height="85.5" fill="#ff0000" /><rect x="276.2" y="224" width="11.4" height="85.5" fill="#0000ff" /><rect x="288.2" y="224" width="11.4" height="85.5" fill="#009600" /><rect x="300.2" y="224" width="11.4" height="85.5" fill="#ff0000" /><rect x="312.2" y="224" width="11.4" height="85.5" fill="#0000ff" /><rect x="324.2" y="224" width="11.4" height="85.5" fill="#009600" /><rect x="336.2" y="224" width="11.4" height="85.5" fill="#ff0000" /><rect x="348.2" y="224" width="11.4" height="85.5" fill="#0000ff" /><rect x="360.2" y="224" width="11.4" height="85.5" fill="#009600" /><rect x="372.2" y="224" width="11.4" height="85.5" fill="#ff0000" /><rect x="384.2" y="224" width="11.4" height="85.5" fill="#0000ff" /><rect x="396.2" y="224" width="11.4" height="85.5" fill="#009600" /><rect x="408.2" y="224" width="11.4" height="85.5" fill="#ff0000" /><rect x="420.2" y="224" width="11.4" height="85.5" fill="#0000ff" /><rect x="432.2" y="224" width="11.4" height="85.5" fill="#009600" /><rect x="444.2" y="224" width="11.4" height="85.5" fill="#ff0000" /><rect x="456.2" y="224" width="11.4" height="85.5" fill="#0000ff" /><rect x="468.2" y="224" width="11.4" height="85.5" fill="#009600" /><rect x="480.2" y="224" width="11.4" height="85.5" fill="#ff0000" /><rect x="492.2" y="224" width="11.4" height="85.5" fill="#0000ff" /><rect x="504.2" y="224" width="11.4" height="85.5" fill="#009600" /><rect x="516.2" y="224" width="11.4" height="85.5" fill="#ff0000" /><rect x="528.2" y="224" width="11.4" height="85.5" fill="#0000ff" /><rect x="540.2" y="224" width="11.4" height="85.5" fill="#009600" /><rect x="552.2" y="224" width="11.4" height="85.5" fill="#ff0000" /><rect x="564.2" y="224" width="11.4" height="85.5" fill="#0000ff" /><rect x="576.2" y="224" width="11.4" height="85.5" fill="#009600" /><rect x="588.2" y="224" width="11.4" height="85.5" fill="#ff0000" /><rect x="252.20000000000002" y="134" width="11.4" height="85.5" fill="#0000ff" /><rect x="264.2" y="134" width="11.4" height="85.5" fill="#009600" /><rect x="276.2" y="134" width="11.4" height="85.5" fill="#0000ff" /><rect x="288.2" y="134" width="11.4" height="85.5" fill="#ff0000" /><rect x="300.2" y="134" width="11.4" height="85.5" fill="#0000ff" /><rect x="312.2" y="134" width="11.4" height="85.5" fill="#009600" /><rect x="324.2" y="134" width="11.4" height="85.5" fill="#ff0000" /><rect x="336.2" y="134" width="11.4" height="85.5" fill="#0000ff" /><rect x="348.2" y="134" width="11.4" height="85.5" fill="#009600" /><rect x="360.2" y="134" width="11.4" height="85.5" fill="#ff0000" /><rect x="372.2" y="134" width="11.4" height="85.5" fill="#0000ff" /><rect x="384.2" y="134" width="11.4" height="85.5" fill="#009600" /><rect x="396.2" y="134" width="11.4" height="85.5" fill="#ff0000" /><rect x="408.2" y="134" width="11.4" height="85.5" fill="#0000ff" /><rect x="420.2" y="134" width="11.4" height="85.5" fill="#009600" /><rect x="432.2" y="134" width="11.4" height="85.5" fill="#ff0000" /><rect x="444.2" y="134" width="11.4" height="85.5" fill="#0000ff" /><rect x="456.2" y="134" width="11.4" height="85.5" fill="#009600" /><rect x="468.2" y="134" width="11.4" height="85.5" fill="#ff0000" /><rect x="480.2" y="134" width="11.4" height="85.5" fill="#0000ff" /><rect x="492.2" y="134" width="11.4" height="85.5" fill="#009600" /><rect x="504.2" y="134" width="11.4" height="85.5" fill="#ff0000" /><rect x="168.20000000000002" y="44" width="11.4" height="85.5" fill="#009600" /><rect x="180.20000000000002" y="44" width="11.4" height="85.5" fill="#d17105" /><rect x="192.20000000000002" y="44" width="11.4" height="85.5" fill="#d17105" /><rect x="204.20000000000002" y="44" width="11.4" height="85.5" fill="#0000ff" /><rect x="216.20000000000002" y="44" width="11.4" height="85.5" fill="#0000ff" /><rect x="228.20000000000002" y="44" width="11.4" height="85.5" fill="#d17105" /><rect x="240.20000000000002" y="44" width="11.4" height="85.5" fill="#0000ff" /><rect x="252.20000000000002" y="44" width="11.4" height="85.5" fill="#009600" /><rect x="264.2" y="44" width="11.4" height="85.5" fill="#0000ff" /><rect x="276.2" y="44" width="11.4" height="85.5" fill="#ff0000" /><rect x="288.2" y="44" width="11.4" height="85.5" fill="#0000ff" /><rect x="300.2" y="44" width="11.4" height="85.5" fill="#009600" /><rect x="312.2" y="44" width="11.4" height="85.5" fill="#ff0000" /><rect x="324.2" y="44" width="11.4" height="85.5" fill="#0000ff" /><rect x="336.2" y="44" width="11.4" height="85.5" fill="#009600" /><rect x="348.2" y="44" width="11.4" height="85.5" fill="#ff0000" /><rect x="360.2" y="44" width="11.4" height="85.5" fill="#0000ff" /><rect x="372.2" y="44" width="11.4" height="85.5" fill="#009600" /><rect x="384.2" y="44" width="11.4" height="85.5" fill="#ff0000" /><rect x="396.2" y="44" width="11.4" height="85.5" fill="#0000ff" /><rect x="408.2" y="44" width="11.4" height="85.5" fill="#009600" /><rect x="420.2" y="44" width="11.4" height="85.5" fill="#ff0000" /><rect x="432.2" y="44" width="11.4" height="85.5" fill="#0000ff" /><rect x="444.2" y="44" width="11.4" height="85.5" fill="#009600" /><rect x="456.2" y="44" width="11.4" height="85.5" fill="#ff0000" /><rect x="468.2" y="44" width="11.4" height="85.5" fill="#0000ff" /><rect x="480.2" y="44" width="11.4" height="85.5" fill="#009600" /><rect x="492.2" y="44" width="11.4" height="85.5" fill="#ff0000" /><rect x="504.2" y="44" width="11.4" height="85.5" fill="#0000ff" /><rect x="516.2" y="44" width="11.4" height="85.5" fill="#009600" /><rect x="528.2" y="44" width="11.4" height="85.5" fill="#ff0000" /><rect x="540.2" y="44" width="11.4" height="85.5" fill="#0000ff" /><rect x="552.2" y="44" width="11.4" height="85.5" fill="#009600" /><rect x="564.2" y="44" width="11.4" height="85.5" fill="#ff0000" /><rect x="576.2" y="44" width="11.4" height="85.5" fill="#0000ff" /><rect x="588.2" y="44" width="11.4" height="85.5" fill="#009600" /><rect x="600.2" y="44" width="11.4" height="85.5" fill="#ff0000" /><rect x="612.2" y="44" width="11.4" height="85.5" fill="#0000ff" /><rect x="624.2" y="44" width="11.4" height="85.5" fill="#009600" /><rect x="636.2" y="44" width="11.4" height="85.5" fill="#ff0000" /><rect x="677.2" y="34" width="80" height="92" fill="#ffffff" /><rect x="677.2" y="34" width="80" height="92" fill="none" stroke="#000000" stroke-width="1" /><text x="707.2" y="53.2" font-size="12" text-anchor="start">A</text><rect x="687.2" y="43" width="12" height="12" fill="#009600" /><text x="707.2" y="71.2" font-size="12" text-anchor="start">C</text><rect x="687.2" y="61" width="12" height="12" fill="#0000ff" /><text x="707.2" y="89.2" font-size="12" text-anchor="start">G</text><rect x="687.2" y="79" width="12" height="12" fill="#d17105" /><text x="707.2" y="107.2" font-size="12" text-anchor="start">T</text><rect x="687.2" y="97" width="12" height="12" fill="#ff0000" /></svg>