<svg xmlns="http://www.w3.org/2000/svg" width="776.2" height="545" font-family="DejaVu Sans, Liberation Sans, Arial, sans-serif" fill="black"><rect width="100%" height="100%" fill="white" /><defs><clipPath id="kuva-clip-1"><rect x="78.2" y="44" width="600" height="450"/></clipPath></defs><line x1="78.2" y1="494" x2="678.2" y2="494" stroke="#000000" stroke-width="1" /><line x1="78.2" y1="44" x2="78.2" y2="494" stroke="#000000" stroke-width="1" /><text x="70.2" y="408.2" font-size="12" text-anchor="end">read_5</text><line x1="73.2" y1="404" x2="78.2" y2="404" stroke="#000000" stroke-width="1" /><text x="70.2" y="318.2" font-size="12" text-anchor="end">read_4</text><line x1="73.2" y1="314" x2="78.2" y2="314" stroke="#000000" stroke-width="1" /><text x="70.2" y="228.20000000000002" font-size="12" text-anchor="end">read_3</text><line x1="73.2" y1="224" x2="78.2" y2="224" stroke="#000000" stroke-width="1" /><text x="70.2" y="138.20000000000002" font-size="12" text-anchor="end">read_2</text><line x1="73.2" y1="134" x2="78.2" y2="134" stroke="#000000" stroke-width="1" /><text x="70.2" y="48.2" font-size="12" text-anchor="end">read_1</text><line x1="73.2" y1="44" x2="78.2" y2="44" stroke="#000000" stroke-width="1" /><line x1="78.2" y1="494" x2="78.2" y2="499" stroke="#000000" stroke-width="1" /><text x="78.2" y="511" font-size="12" text-anchor="middle">-20</text><line x1="198.20000000000002" y1="494" x2="198.20000000000002" y2="499" stroke="#000000" stroke-width="1" /><text x="198.20000000000002" y="511" font-size="12" text-anchor="middle">-10</text><line x1="318.2" y1="494" x2="318.2" y2="499" stroke="#000000" stroke-width="1" /><text x="318.2" y="511" font-size="12" text-anchor="middle">0</text><line x1="438.2" y1="494" x2="438.2" y2="499" stroke="#000000" stroke-width="1" /><text x="438.2" y="511" font-size="12" text-anchor="middle">10</text><line x1="558.2" y1="494" x2="558.2" y2="499" stroke="#000000" stroke-width="1" /><text x="558.2" y="511" font-size="12" text-anchor="middle">20</text><line x1="678.2" y1="494" x2="678.2" y2="499" stroke="#000000" stroke-width="1" /><text x="678.2" y="511" font-size="12" text-anchor="middle">30</text><text x="388.1" y="27.400000000000002" font-size="18" text-anchor="middle">Brick Plot — Per-row Offsets</text><g clip-path="url(#kuva-clip-1)"><rect x="102.2" y="44" width="11.4" height="85.5" fill="#0000ff" /><rect x="114.2" y="44" width="11.4" height="85.5" fill="#d17105" /><rect x="126.2" y="44" width="11.4" height="85.5" fill="#d17105" /><rect x="138.20000000000002" y="44" width="11.4" height="85.5" fill="#0000ff" /><rect x="150.20000000000002" y="44" width="11.4" height="85.5" fill="#d17105" /><rect x="162.20000000000002" y="44" width="11.4" height="85.5" fill="#009600" /><rect x="174.20000000000002" y="44" width="11.4" height="85.5" fill="#ff0000" /><rect x="186.20000000000002" y="44" width="11.4" height="85.5" fill="#0000ff" /><rect x="198.20000000000002" y="44" width="11.4" height="85.5" fill="#009600" /><rect x="210.20000000000002" y="44" width="11.4" height="85.5" fill="#d17105" /><rect x="222.20000000000002" y="44" width="11.4" height="85.5" fill="#d17105" /><rect x="234.20000000000002" y="44" width="11.4" height="85.5" fill="#0000ff" /><rect x="246.20000000000002" y="44" width="11.4" height="85.5" fill="#0000ff" /><rect x="258.2" y="44" width="11.4" height="85.5" fill="#d17105" /><rect x="270.2" y="44" width="11.4" height="85.5" fill="#0000ff" /><rect x="282.2" y="44" width="11.4" height="85.5" fill="#009600" /><rect x="294.2" y="44" width="11.4" height="85.5" fill="#0000ff" /><rect x="306.2" y="44" width="11.4" height="85.5" fill="#ff0000" /><rect x="318.2" y="44" width="11.4" height="85.5" fill="#0000ff" /><rect x="330.2" y="44" width="11.4" height="85.5" fill="#009600" /><rect x="342.2" y="44" width="11.4" height="85.5" fill="#ff0000" /><rect x="354.2" y="44" width="11.4" height="85.5" fill="#0000ff" /><rect x="366.2" y="44" width="11.4" height="85.5" fill="#009600" /><rect x="378.2" y="44" width="11.4" height="85.5" fill="#ff0000" /><rect x="390.2" y="44" width="11.4" height="85.5" fill="#0000ff" /><rect x="402.2" y="44" width="11.4" height="85.5" fill="#009600" /><rect x="414.2" y="44" width="11.4" height="85.5" fill="#ff0000" /><rect x="426.2" y="44" width="11.4" height="85.5" fill="#0000ff" /><rect x="438.2" y="44" width="11.4" height="85.5" fill="#009600" /><rect x="450.2" y="44" width="11.4" height="85.5" fill="#ff0000" /><rect x="462.2" y="44" width="11.4" height="85.5" fill="#0000ff" /><rect x="474.2" y="44" width="11.4" height="85.5" fill="#009600" /><rect x="486.2" y="44" width="11.4" height="85.5" fill="#ff0000" /><rect x="498.2" y="44" width="11.4" height="85.5" fill="#0000ff" /><rect x="510.2" y="44" width="11.4" height="85.5" fill="#009600" /><rect x="522.2" y="44" width="11.4" height="85.5" fill="#ff0000" /><rect x="534.2" y="44" width="11.4" height="85.5" fill="#0000ff" /><rect x="546.2" y="44" width="11.4" height="85.5" fill="#009600" /><rect x="558.2" y="44" width="11.4" height="85.5" fill="#ff0000" /><rect x="570.2" y="44" width="11.4" height="85.5" fill="#0000ff" /><rect x="582.2" y="44" width="11.4" height="85.5" fill="#009600" /><rect x="594.2" y="44" width="11.4" height="85.5" fill="#ff0000" /><rect x="198.20000000000002" y="134" width="11.4" height="85.5" fill="#d17105" /><rect x="210.20000000000002" y="134" width="11.4" height="85.5" fill="#0000ff" /><rect x="222.20000000000002" y="134" width="11.4" height="85.5" fill="#009600" /><rect x="234.20000000000002" y="134" width="11.4" height="85.5" fill="#0000ff" /><rect x="246.20000000000002" y="134" width="11.4" height="85.5" fill="#ff0000" /><rect x="258.2" y="134" width="11.4" height="85.5" fill="#0000ff" /><rect x="270.2" y="134" width="11.4" height="85.5" fill="#009600" /><rect x="282.2" y="134" width="11.4" height="85.5" fill="#ff0000" /><rect x="294.2" y="134" width="11.4" height="85.5" fill="#0000ff" /><rect x="306.2" y="134" width="11.4" height="85.5" fill="#009600" /><rect x="318.2" y="134" width="11.4" height="85.5" fill="#ff0000" /><rect x="330.2" y="134" width="11.4" height="85.5" fill="#0000ff" /><rect x="342.2" y="134" width="11.4" height="85.5" fill="#009600" /><rect x="354.2" y="134" width="11.4" height="85.5" fill="#ff0000" /><rect x="366.2" y="134" width="11.4" height="85.5" fill="#0000ff" /><rect x="378.2" y="134" width="11.4" height="85.5" fill="#009600" /><rect x="390.2" y="134" width="11.4" height="85.5" fill="#ff0000" /><rect x="402.2" y="134" width="11.4" height="85.5" fill="#0000ff" /><rect x="414.2" y="134" width="11.4" height="85.5" fill="#009600" /><rect x="426.2" y="134" width="11.4" height="85.5" fill="#ff0000" /><rect x="438.2" y="134" width="11.4" height="85.5" fill="#0000ff" /><rect x="450.2" y="134" width="11.4" height="85.5" fill="#009600" /><rect x="462.2" y="134" width="11.4" height="85.5" fill="#ff0000" /><rect x="474.2" y="134" width="11.4" height="85.5" fill="#0000ff" /><rect x="486.2" y="134" width="11.4" height="85.5" fill="#009600" /><rect x="498.2" y="134" width="11.4" height="85.5" fill="#ff0000" /><rect x="510.2" y="134" width="11.4" height="85.5" fill="#0000ff" /><rect x="522.2" y="134" width="11.4" height="85.5" fill="#009600" /><rect x="534.2" y="134" width="11.4" height="85.5" fill="#ff0000" /><rect x="546.2" y="134" width="11.4" height="85.5" fill="#0000ff" /><rect x="558.2" y="134" width="11.4" height="85.5" fill="#009600" /><rect x="570.2" y="134" width="11.4" height="85.5" fill="#ff0000" /><rect x="582.2" y="134" width="11.4" height="85.5" fill="#0000ff" /><rect x="594.2" y="134" width="11.4" height="85.5" fill="#009600" /><rect x="606.2" y="134" width="11.4" height="85.5" fill="#ff0000" /><rect x="126.2" y="224" width="11.4" height="85.5" fill="#009600" /><rect x="138.20000000000002" y="224" width="11.4" height="85.5" fill="#ff0000" /><rect x="150.20000000000002" y="224" width="11.4" height="85.5" fill="#0000ff" /><rect x="162.20000000000002" y="224" width="11.4" height="85.5" fill="#009600" /><rect x="174.20000000000002" y="224" width="11.4" height="85.5" fill="#d17105" /><rect x="186.20000000000002" y="224" width="11.4" height="85.5" fill="#d17105" /><rect x="198.20000000000002" y="224" width="11.4" height="85.5" fill="#0000ff" /><rect x="210.20000000000002" y="224" width="11.4" height="85.5" fill="#0000ff" /><rect x="222.20000000000002" y="224" width="11.4" height="85.5" fill="#d17105" /><rect x="234.20000000000002" y="224" width="11.4" height="85.5" fill="#0000ff" /><rect x="246.20000000000002" y="224" width="11.4" height="85.5" fill="#009600" /><rect x="258.2" y="224" width="11.4" height="85.5" fill="#0000ff" /><rect x="270.2" y="224" width="11.4" height="85.5" fill="#ff0000" /><rect x="282.2" y="224" width="11.4" height="85.5" fill="#0000ff" /><rect x="294.2" y="224" width="11.4" height="85.5" fill="#009600" /><rect x="306.2" y="224" width="11.4" height="85.5" fill="#ff0000" /><rect x="318.2" y="224" width="11.4" height="85.5" fill="#0000ff" /><rect x="330.2" y="224" width="11.4" height="85.5" fill="#009600" /><rect x="342.2" y="224" width="11.4" height="85.5" fill="#ff0000" /><rect x="354.2" y="224" width="11.4" height="85.5" fill="#0000ff" /><rect x="366.2" y="224" width="11.4" height="85.5" fill="#009600" /><rect x="378.2" y="224" width="11.4" height="85.5" fill="#ff0000" /><rect x="390.2" y="224" width="11.4" height="85.5" fill="#0000ff" /><rect x="402.2" y="224" width="11.4" height="85.5" fill="#009600" /><rect x="414.2" y="224" width="11.4" height="85.5" fill="#ff0000" /><rect x="426.2" y="224" width="11.4" height="85.5" fill="#0000ff" /><rect x="438.2" y="224" width="11.4" height="85.5" fill="#009600" /><rect x="450.2" y="224" width="11.4" height="85.5" fill="#ff0000" /><rect x="462.2" y="224" width="11.4" height="85.5" fill="#0000ff" /><rect x="474.2" y="224" width="11.4" height="85.5" fill="#009600" /><rect x="486.2" y="224" width="11.4" height="85.5" fill="#ff0000" /><rect x="498.2" y="224" width="11.4" height="85.5" fill="#0000ff" /><rect x="510.2" y="224" width="11.4" height="85.5" fill="#009600" /><rect x="522.2" y="224" width="11.4" height="85.5" fill="#ff0000" /><rect x="534.2" y="224" width="11.4" height="85.5" fill="#0000ff" /><rect x="546.2" y="224" width="11.4" height="85.5" fill="#009600" /><rect x="558.2" y="224" width="11.4" height="85.5" fill="#ff0000" /><rect x="570.2" y="224" width="11.4" height="85.5" fill="#0000ff" /><rect x="582.2" y="224" width="11.4" height="85.5" fill="#009600" /><rect x="594.2" y="224" width="11.4" height="85.5" fill="#ff0000" /><rect x="258.2" y="314" width="11.4" height="85.5" fill="#0000ff" /><rect x="270.2" y="314" width="11.4" height="85.5" fill="#009600" /><rect x="282.2" y="314" width="11.4" height="85.5" fill="#0000ff" /><rect x="294.2" y="314" width="11.4" height="85.5" fill="#ff0000" /><rect x="306.2" y="314" width="11.4" height="85.5" fill="#0000ff" /><rect x="318.2" y="314" width="11.4" height="85.5" fill="#009600" /><rect x="330.2" y="314" width="11.4" height="85.5" fill="#ff0000" /><rect x="342.2" y="314" width="11.4" height="85.5" fill="#0000ff" /><rect x="354.2" y="314" width="11.4" height="85.5" fill="#009600" /><rect x="366.2" y="314" width="11.4" height="85.5" fill="#ff0000" /><rect x="378.2" y="314" width="11.4" height="85.5" fill="#0000ff" /><rect x="390.2" y="314" width="11.4" height="85.5" fill="#009600" /><rect x="402.2" y="314" width="11.4" height="85.5" fill="#ff0000" /><rect x="414.2" y="314" width="11.4" height="85.5" fill="#0000ff" /><rect x="426.2" y="314" width="11.4" height="85.5" fill="#009600" /><rect x="438.2" y="314" width="11.4" height="85.5" fill="#ff0000" /><rect x="450.2" y="314" width="11.4" height="85.5" fill="#0000ff" /><rect x="462.2" y="314" width="11.4" height="85.5" fill="#009600" /><rect x="474.2" y="314" width="11.4" height="85.5" fill="#ff0000" /><rect x="486.2" y="314" width="11.4" height="85.5" fill="#0000ff" /><rect x="498.2" y="314" width="11.4" height="85.5" fill="#009600" /><rect x="510.2" y="314" width="11.4" height="85.5" fill="#ff0000" /><rect x="174.20000000000002" y="404" width="11.4" height="85.5" fill="#009600" /><rect x="186.20000000000002" y="404" width="11.4" height="85.5" fill="#d17105" /><rect x="198.20000000000002" y="404" width="11.4" height="85.5" fill="#d17105" /><rect x="210.20000000000002" y="404" width="11.4" height="85.5" fill="#0000ff" /><rect x="222.20000000000002" y="404" width="11.4" height="85.5" fill="#0000ff" /><rect x="234.20000000000002" y="404" width="11.4" height="85.5" fill="#d17105" /><rect x="246.20000000000002" y="404" width="11.4" height="85.5" fill="#0000ff" /><rect x="258.2" y="404" width="11.4" height="85.5" fill="#009600" /><rect x="270.2" y="404" width="11.4" height="85.5" fill="#0000ff" /><rect x="282.2" y="404" width="11.4" height="85.5" fill="#ff0000" /><rect x="294.2" y="404" width="11.4" height="85.5" fill="#0000ff" /><rect x="306.2" y="404" width="11.4" height="85.5" fill="#009600" /><rect x="318.2" y="404" width="11.4" height="85.5" fill="#ff0000" /><rect x="330.2" y="404" width="11.4" height="85.5" fill="#0000ff" /><rect x="342.2" y="404" width="11.4" height="85.5" fill="#009600" /><rect x="354.2" y="404" width="11.4" height="85.5" fill="#ff0000" /><rect x="366.2" y="404" width="11.4" height="85.5" fill="#0000ff" /><rect x="378.2" y="404" width="11.4" height="85.5" fill="#009600" /><rect x="390.2" y="404" width="11.4" height="85.5" fill="#ff0000" /><rect x="402.2" y="404" width="11.4" height="85.5" fill="#0000ff" /><rect x="414.2" y="404" width="11.4" height="85.5" fill="#009600" /><rect x="426.2" y="404" width="11.4" height="85.5" fill="#ff0000" /><rect x="438.2" y="404" width="11.4" height="85.5" fill="#0000ff" /><rect x="450.2" y="404" width="11.4" height="85.5" fill="#009600" /><rect x="462.2" y="404" width="11.4" height="85.5" fill="#ff0000" /><rect x="474.2" y="404" width="11.4" height="85.5" fill="#0000ff" /><rect x="486.2" y="404" width="11.4" height="85.5" fill="#009600" /><rect x="498.2" y="404" width="11.4" height="85.5" fill="#ff0000" /><rect x="510.2" y="404" width="11.4" height="85.5" fill="#0000ff" /><rect x="522.2" y="404" width="11.4" height="85.5" fill="#009600" /><rect x="534.2" y="404" width="11.4" height="85.5" fill="#ff0000" /><rect x="546.2" y="404" width="11.4" height="85.5" fill="#0000ff" /><rect x="558.2" y="404" width="11.4" height="85.5" fill="#009600" /><rect x="570.2" y="404" width="11.4" height="85.5" fill="#ff0000" /><rect x="582.2" y="404" width="11.4" height="85.5" fill="#0000ff" /><rect x="594.2" y="404" width="11.4" height="85.5" fill="#009600" /><rect x="606.2" y="404" width="11.4" height="85.5" fill="#ff0000" /><rect x="618.2" y="404" width="11.4" height="85.5" fill="#0000ff" /><rect x="630.2" y="404" width="11.4" height="85.5" fill="#009600" /><rect x="642.2" y="404" width="11.4" height="85.5" fill="#ff0000" /></g><rect x="683.2" y="34" width="80" height="92" fill="#ffffff" /><rect x="683.2" y="34" width="80" height="92" fill="none" stroke="#000000" stroke-width="1" /><text x="713.2" y="53.2" font-size="12" text-anchor="start">A</text><rect x="693.2" y="43" width="12" height="12" fill="#009600" /><text x="713.2" y="71.2" font-size="12" text-anchor="start">C</text><rect x="693.2" y="61" width="12" height="12" fill="#0000ff" /><text x="713.2" y="89.2" font-size="12" text-anchor="start">G</text><rect x="693.2" y="79" width="12" height="12" fill="#d17105" /><text x="713.2" y="107.2" font-size="12" text-anchor="start">T</text><rect x="693.2" y="97" width="12" height="12" fill="#ff0000" /></svg>