<svg xmlns="http://www.w3.org/2000/svg" width="766.2" height="545" font-family="DejaVu Sans, Liberation Sans, Arial, sans-serif" fill="black"><rect width="100%" height="100%" fill="white" /><line x1="72.2" y1="494" x2="672.2" y2="494" stroke="#000000" stroke-width="1" /><line x1="72.2" y1="44" x2="72.2" y2="494" stroke="#000000" stroke-width="1" /><text x="62.2" y="441.95" font-size="12" text-anchor="end">read_1</text><line x1="67.2" y1="437.75" x2="72.2" y2="437.75" stroke="#000000" stroke-width="1" /><text x="62.2" y="385.7" font-size="12" text-anchor="end">read_2</text><line x1="67.2" y1="381.5" x2="72.2" y2="381.5" stroke="#000000" stroke-width="1" /><text x="62.2" y="329.45" font-size="12" text-anchor="end">read_3</text><line x1="67.2" y1="325.25" x2="72.2" y2="325.25" stroke="#000000" stroke-width="1" /><text x="62.2" y="273.2" font-size="12" text-anchor="end">read_4</text><line x1="67.2" y1="269" x2="72.2" y2="269" stroke="#000000" stroke-width="1" /><text x="62.2" y="216.95000000000002" font-size="12" text-anchor="end">read_5</text><line x1="67.2" y1="212.75" x2="72.2" y2="212.75" stroke="#000000" stroke-width="1" /><text x="62.2" y="160.70000000000002" font-size="12" text-anchor="end">read_6</text><line x1="67.2" y1="156.5" x2="72.2" y2="156.5" stroke="#000000" stroke-width="1" /><text x="62.2" y="104.45" font-size="12" text-anchor="end">read_7</text><line x1="67.2" y1="100.25" x2="72.2" y2="100.25" stroke="#000000" stroke-width="1" /><text x="62.2" y="48.2" font-size="12" text-anchor="end">read_8</text><line x1="67.2" y1="44" x2="72.2" y2="44" stroke="#000000" stroke-width="1" /><line x1="72.2" y1="494" x2="72.2" y2="499" stroke="#000000" stroke-width="1" /><text x="72.2" y="511" font-size="12" text-anchor="middle">0</text><line x1="222.20000000000002" y1="494" x2="222.20000000000002" y2="499" stroke="#000000" stroke-width="1" /><text x="222.20000000000002" y="511" font-size="12" text-anchor="middle">20</text><line x1="372.2" y1="494" x2="372.2" y2="499" stroke="#000000" stroke-width="1" /><text x="372.2" y="511" font-size="12" text-anchor="middle">40</text><line x1="522.2" y1="494" x2="522.2" y2="499" stroke="#000000" stroke-width="1" /><text x="522.2" y="511" font-size="12" text-anchor="middle">60</text><line x1="672.2" y1="494" x2="672.2" y2="499" stroke="#000000" stroke-width="1" /><text x="672.2" y="511" font-size="12" text-anchor="middle">80</text><text x="372.2" y="22" font-size="18" text-anchor="middle">Brick Plot — Strigar Mode (CAT repeats)</text><rect x="72.2" y="437.75" width="21.38" height="53.44" fill="#1f77b4" /><rect x="94.7" y="437.75" width="21.38" height="53.44" fill="#1f77b4" /><rect x="117.2" y="437.75" width="21.38" height="53.44" fill="#1f77b4" /><rect x="139.70000000000002" y="437.75" width="21.38" height="53.44" fill="#1f77b4" /><rect x="162.20000000000002" y="437.75" width="21.38" height="53.44" fill="#1f77b4" /><rect x="184.70000000000002" y="437.75" width="21.38" height="53.44" fill="#1f77b4" /><rect x="207.20000000000002" y="437.75" width="21.38" height="53.44" fill="#1f77b4" /><rect x="229.70000000000002" y="437.75" width="21.38" height="53.44" fill="#1f77b4" /><rect x="252.20000000000002" y="437.75" width="21.38" height="53.44" fill="#1f77b4" /><rect x="274.7" y="437.75" width="21.38" height="53.44" fill="#1f77b4" /><rect x="297.2" y="437.75" width="7.13" height="53.44" fill="#2ca02c" /><rect x="304.7" y="437.75" width="21.38" height="53.44" fill="#1f77b4" /><rect x="327.2" y="437.75" width="21.38" height="53.44" fill="#1f77b4" /><rect x="349.7" y="437.75" width="21.38" height="53.44" fill="#1f77b4" /><rect x="372.2" y="437.75" width="21.38" height="53.44" fill="#1f77b4" /><rect x="394.7" y="437.75" width="7.13" height="53.44" fill="#ff7f0e" /><rect x="402.2" y="437.75" width="21.38" height="53.44" fill="#1f77b4" /><rect x="72.2" y="381.5" width="21.38" height="53.44" fill="#1f77b4" /><rect x="94.7" y="381.5" width="21.38" height="53.44" fill="#1f77b4" /><rect x="117.2" y="381.5" width="21.38" height="53.44" fill="#1f77b4" /><rect x="139.70000000000002" y="381.5" width="21.38" height="53.44" fill="#1f77b4" /><rect x="162.20000000000002" y="381.5" width="21.38" height="53.44" fill="#1f77b4" /><rect x="184.70000000000002" y="381.5" width="21.38" height="53.44" fill="#1f77b4" /><rect x="207.20000000000002" y="381.5" width="21.38" height="53.44" fill="#1f77b4" /><rect x="229.70000000000002" y="381.5" width="21.38" height="53.44" fill="#1f77b4" /><rect x="252.20000000000002" y="381.5" width="21.38" height="53.44" fill="#1f77b4" /><rect x="274.7" y="381.5" width="21.38" height="53.44" fill="#1f77b4" /><rect x="297.2" y="381.5" width="21.38" height="53.44" fill="#1f77b4" /><rect x="319.7" y="381.5" width="21.38" height="53.44" fill="#1f77b4" /><rect x="342.2" y="381.5" width="21.38" height="53.44" fill="#1f77b4" /><rect x="364.7" y="381.5" width="21.38" height="53.44" fill="#1f77b4" /><rect x="387.2" y="381.5" width="7.13" height="53.44" fill="#ff7f0e" /><rect x="394.7" y="381.5" width="21.38" height="53.44" fill="#1f77b4" /><rect x="72.2" y="325.25" width="21.38" height="53.44" fill="#1f77b4" /><rect x="94.7" y="325.25" width="21.38" height="53.44" fill="#1f77b4" /><rect x="117.2" y="325.25" width="21.38" height="53.44" fill="#1f77b4" /><rect x="139.70000000000002" y="325.25" width="21.38" height="53.44" fill="#1f77b4" /><rect x="162.20000000000002" y="325.25" width="21.38" height="53.44" fill="#1f77b4" /><rect x="184.70000000000002" y="325.25" width="21.38" height="53.44" fill="#1f77b4" /><rect x="207.20000000000002" y="325.25" width="21.38" height="53.44" fill="#1f77b4" /><rect x="229.70000000000002" y="325.25" width="21.38" height="53.44" fill="#1f77b4" /><rect x="252.20000000000002" y="325.25" width="21.38" height="53.44" fill="#1f77b4" /><rect x="274.7" y="325.25" width="21.38" height="53.44" fill="#1f77b4" /><rect x="297.2" y="325.25" width="21.38" height="53.44" fill="#1f77b4" /><rect x="319.7" y="325.25" width="21.38" height="53.44" fill="#1f77b4" /><rect x="342.2" y="325.25" width="21.38" height="53.44" fill="#1f77b4" /><rect x="364.7" y="325.25" width="21.38" height="53.44" fill="#1f77b4" /><rect x="387.2" y="325.25" width="7.13" height="53.44" fill="#ff7f0e" /><rect x="394.7" y="325.25" width="21.38" height="53.44" fill="#1f77b4" /><rect x="72.2" y="269" width="21.38" height="53.44" fill="#1f77b4" /><rect x="94.7" y="269" width="21.38" height="53.44" fill="#1f77b4" /><rect x="117.2" y="269" width="21.38" height="53.44" fill="#1f77b4" /><rect x="139.70000000000002" y="269" width="21.38" height="53.44" fill="#1f77b4" /><rect x="162.20000000000002" y="269" width="21.38" height="53.44" fill="#1f77b4" /><rect x="184.70000000000002" y="269" width="21.38" height="53.44" fill="#1f77b4" /><rect x="207.20000000000002" y="269" width="21.38" height="53.44" fill="#1f77b4" /><rect x="229.70000000000002" y="269" width="21.38" height="53.44" fill="#1f77b4" /><rect x="252.20000000000002" y="269" width="21.38" height="53.44" fill="#1f77b4" /><rect x="274.7" y="269" width="21.38" height="53.44" fill="#1f77b4" /><rect x="297.2" y="269" width="7.13" height="53.44" fill="#2ca02c" /><rect x="304.7" y="269" width="21.38" height="53.44" fill="#1f77b4" /><rect x="327.2" y="269" width="21.38" height="53.44" fill="#1f77b4" /><rect x="349.7" y="269" width="21.38" height="53.44" fill="#1f77b4" /><rect x="372.2" y="269" width="21.38" height="53.44" fill="#1f77b4" /><rect x="394.7" y="269" width="7.13" height="53.44" fill="#ff7f0e" /><rect x="402.2" y="269" width="21.38" height="53.44" fill="#1f77b4" /><rect x="72.2" y="212.75" width="21.38" height="53.44" fill="#1f77b4" /><rect x="94.7" y="212.75" width="21.38" height="53.44" fill="#1f77b4" /><rect x="117.2" y="212.75" width="21.38" height="53.44" fill="#1f77b4" /><rect x="139.70000000000002" y="212.75" width="21.38" height="53.44" fill="#1f77b4" /><rect x="162.20000000000002" y="212.75" width="21.38" height="53.44" fill="#1f77b4" /><rect x="184.70000000000002" y="212.75" width="21.38" height="53.44" fill="#1f77b4" /><rect x="207.20000000000002" y="212.75" width="21.38" height="53.44" fill="#1f77b4" /><rect x="229.70000000000002" y="212.75" width="21.38" height="53.44" fill="#1f77b4" /><rect x="252.20000000000002" y="212.75" width="21.38" height="53.44" fill="#1f77b4" /><rect x="274.7" y="212.75" width="21.38" height="53.44" fill="#1f77b4" /><rect x="297.2" y="212.75" width="7.13" height="53.44" fill="#2ca02c" /><rect x="304.7" y="212.75" width="21.38" height="53.44" fill="#1f77b4" /><rect x="327.2" y="212.75" width="21.38" height="53.44" fill="#1f77b4" /><rect x="349.7" y="212.75" width="21.38" height="53.44" fill="#1f77b4" /><rect x="372.2" y="212.75" width="21.38" height="53.44" fill="#1f77b4" /><rect x="394.7" y="212.75" width="7.13" height="53.44" fill="#ff7f0e" /><rect x="402.2" y="212.75" width="21.38" height="53.44" fill="#1f77b4" /><rect x="72.2" y="156.5" width="21.38" height="53.44" fill="#1f77b4" /><rect x="94.7" y="156.5" width="21.38" height="53.44" fill="#1f77b4" /><rect x="117.2" y="156.5" width="21.38" height="53.44" fill="#1f77b4" /><rect x="139.70000000000002" y="156.5" width="21.38" height="53.44" fill="#1f77b4" /><rect x="162.20000000000002" y="156.5" width="21.38" height="53.44" fill="#1f77b4" /><rect x="184.70000000000002" y="156.5" width="21.38" height="53.44" fill="#1f77b4" /><rect x="207.20000000000002" y="156.5" width="21.38" height="53.44" fill="#1f77b4" /><rect x="229.70000000000002" y="156.5" width="21.38" height="53.44" fill="#1f77b4" /><rect x="252.20000000000002" y="156.5" width="21.38" height="53.44" fill="#1f77b4" /><rect x="274.7" y="156.5" width="21.38" height="53.44" fill="#1f77b4" /><rect x="297.2" y="156.5" width="7.13" height="53.44" fill="#2ca02c" /><rect x="304.7" y="156.5" width="21.38" height="53.44" fill="#1f77b4" /><rect x="327.2" y="156.5" width="21.38" height="53.44" fill="#1f77b4" /><rect x="349.7" y="156.5" width="21.38" height="53.44" fill="#1f77b4" /><rect x="372.2" y="156.5" width="21.38" height="53.44" fill="#1f77b4" /><rect x="394.7" y="156.5" width="21.38" height="53.44" fill="#1f77b4" /><rect x="417.2" y="156.5" width="21.38" height="53.44" fill="#1f77b4" /><rect x="439.7" y="156.5" width="21.38" height="53.44" fill="#1f77b4" /><rect x="462.2" y="156.5" width="21.38" height="53.44" fill="#1f77b4" /><rect x="484.7" y="156.5" width="21.38" height="53.44" fill="#d62728" /><rect x="507.2" y="156.5" width="21.38" height="53.44" fill="#1f77b4" /><rect x="529.7" y="156.5" width="21.38" height="53.44" fill="#1f77b4" /><rect x="552.2" y="156.5" width="21.38" height="53.44" fill="#1f77b4" /><rect x="574.7" y="156.5" width="21.38" height="53.44" fill="#1f77b4" /><rect x="597.2" y="156.5" width="21.38" height="53.44" fill="#1f77b4" /><rect x="72.2" y="100.25" width="21.38" height="53.44" fill="#1f77b4" /><rect x="94.7" y="100.25" width="21.38" height="53.44" fill="#1f77b4" /><rect x="117.2" y="100.25" width="21.38" height="53.44" fill="#1f77b4" /><rect x="139.70000000000002" y="100.25" width="21.38" height="53.44" fill="#1f77b4" /><rect x="162.20000000000002" y="100.25" width="21.38" height="53.44" fill="#1f77b4" /><rect x="184.70000000000002" y="100.25" width="21.38" height="53.44" fill="#1f77b4" /><rect x="207.20000000000002" y="100.25" width="21.38" height="53.44" fill="#1f77b4" /><rect x="229.70000000000002" y="100.25" width="21.38" height="53.44" fill="#1f77b4" /><rect x="252.20000000000002" y="100.25" width="21.38" height="53.44" fill="#1f77b4" /><rect x="274.7" y="100.25" width="21.38" height="53.44" fill="#1f77b4" /><rect x="297.2" y="100.25" width="7.13" height="53.44" fill="#2ca02c" /><rect x="304.7" y="100.25" width="21.38" height="53.44" fill="#1f77b4" /><rect x="327.2" y="100.25" width="21.38" height="53.44" fill="#1f77b4" /><rect x="349.7" y="100.25" width="21.38" height="53.44" fill="#1f77b4" /><rect x="372.2" y="100.25" width="21.38" height="53.44" fill="#1f77b4" /><rect x="394.7" y="100.25" width="21.38" height="53.44" fill="#1f77b4" /><rect x="72.2" y="44" width="21.38" height="53.44" fill="#1f77b4" /><rect x="94.7" y="44" width="21.38" height="53.44" fill="#1f77b4" /><rect x="117.2" y="44" width="21.38" height="53.44" fill="#1f77b4" /><rect x="139.70000000000002" y="44" width="21.38" height="53.44" fill="#1f77b4" /><rect x="162.20000000000002" y="44" width="21.38" height="53.44" fill="#1f77b4" /><rect x="184.70000000000002" y="44" width="21.38" height="53.44" fill="#1f77b4" /><rect x="207.20000000000002" y="44" width="21.38" height="53.44" fill="#1f77b4" /><rect x="229.70000000000002" y="44" width="21.38" height="53.44" fill="#1f77b4" /><rect x="252.20000000000002" y="44" width="21.38" height="53.44" fill="#1f77b4" /><rect x="274.7" y="44" width="21.38" height="53.44" fill="#1f77b4" /><rect x="297.2" y="44" width="7.13" height="53.44" fill="#2ca02c" /><rect x="304.7" y="44" width="21.38" height="53.44" fill="#1f77b4" /><rect x="327.2" y="44" width="21.38" height="53.44" fill="#1f77b4" /><rect x="349.7" y="44" width="21.38" height="53.44" fill="#1f77b4" /><rect x="372.2" y="44" width="21.38" height="53.44" fill="#1f77b4" /><rect x="394.7" y="44" width="7.13" height="53.44" fill="#ff7f0e" /><rect x="402.2" y="44" width="21.38" height="53.44" fill="#1f77b4" /><rect x="677.2" y="34" width="80" height="92" fill="#ffffff" /><rect x="677.2" y="34" width="80" height="92" fill="none" stroke="#000000" stroke-width="1" /><text x="707.2" y="53.2" font-size="12" text-anchor="start">CAT</text><rect x="687.2" y="43" width="12" height="12" fill="#1f77b4" /><text x="707.2" y="71.2" font-size="12" text-anchor="start">T</text><rect x="687.2" y="61" width="12" height="12" fill="#ff7f0e" /><text x="707.2" y="89.2" font-size="12" text-anchor="start">C</text><rect x="687.2" y="79" width="12" height="12" fill="#2ca02c" /><text x="707.2" y="107.2" font-size="12" text-anchor="start">GGT</text><rect x="687.2" y="97" width="12" height="12" fill="#d62728" /></svg>