<svg xmlns="http://www.w3.org/2000/svg" width="776.2" height="545" font-family="DejaVu Sans, Liberation Sans, Arial, sans-serif" fill="black"><rect width="100%" height="100%" fill="white" /><defs><clipPath id="kuva-clip-3"><rect x="78.2" y="44" width="600" height="450"/></clipPath></defs><line x1="78.2" y1="494" x2="678.2" y2="494" stroke="#000000" stroke-width="1" /><line x1="78.2" y1="44" x2="78.2" y2="494" stroke="#000000" stroke-width="1" /><text x="70.2" y="441.95" font-size="12" text-anchor="end">read_8</text><line x1="73.2" y1="437.75" x2="78.2" y2="437.75" stroke="#000000" stroke-width="1" /><text x="70.2" y="385.7" font-size="12" text-anchor="end">read_7</text><line x1="73.2" y1="381.5" x2="78.2" y2="381.5" stroke="#000000" stroke-width="1" /><text x="70.2" y="329.45" font-size="12" text-anchor="end">read_6</text><line x1="73.2" y1="325.25" x2="78.2" y2="325.25" stroke="#000000" stroke-width="1" /><text x="70.2" y="273.2" font-size="12" text-anchor="end">read_5</text><line x1="73.2" y1="269" x2="78.2" y2="269" stroke="#000000" stroke-width="1" /><text x="70.2" y="216.95000000000002" font-size="12" text-anchor="end">read_4</text><line x1="73.2" y1="212.75" x2="78.2" y2="212.75" stroke="#000000" stroke-width="1" /><text x="70.2" y="160.70000000000002" font-size="12" text-anchor="end">read_3</text><line x1="73.2" y1="156.5" x2="78.2" y2="156.5" stroke="#000000" stroke-width="1" /><text x="70.2" y="104.45" font-size="12" text-anchor="end">read_2</text><line x1="73.2" y1="100.25" x2="78.2" y2="100.25" stroke="#000000" stroke-width="1" /><text x="70.2" y="48.2" font-size="12" text-anchor="end">read_1</text><line x1="73.2" y1="44" x2="78.2" y2="44" stroke="#000000" stroke-width="1" /><line x1="78.2" y1="494" x2="78.2" y2="499" stroke="#000000" stroke-width="1" /><text x="78.2" y="511" font-size="12" text-anchor="middle">0</text><line x1="228.20000000000002" y1="494" x2="228.20000000000002" y2="499" stroke="#000000" stroke-width="1" /><text x="228.20000000000002" y="511" font-size="12" text-anchor="middle">20</text><line x1="378.2" y1="494" x2="378.2" y2="499" stroke="#000000" stroke-width="1" /><text x="378.2" y="511" font-size="12" text-anchor="middle">40</text><line x1="528.2" y1="494" x2="528.2" y2="499" stroke="#000000" stroke-width="1" /><text x="528.2" y="511" font-size="12" text-anchor="middle">60</text><line x1="678.2" y1="494" x2="678.2" y2="499" stroke="#000000" stroke-width="1" /><text x="678.2" y="511" font-size="12" text-anchor="middle">80</text><text x="388.1" y="27.400000000000002" font-size="18" text-anchor="middle">Brick Plot — Strigar Mode (CAT repeats)</text><g clip-path="url(#kuva-clip-3)"><rect x="78.2" y="44" width="21.38" height="53.44" fill="#1f77b4" /><rect x="100.7" y="44" width="21.38" height="53.44" fill="#1f77b4" /><rect x="123.2" y="44" width="21.38" height="53.44" fill="#1f77b4" /><rect x="145.70000000000002" y="44" width="21.38" height="53.44" fill="#1f77b4" /><rect x="168.20000000000002" y="44" width="21.38" height="53.44" fill="#1f77b4" /><rect x="190.70000000000002" y="44" width="21.38" height="53.44" fill="#1f77b4" /><rect x="213.20000000000002" y="44" width="21.38" height="53.44" fill="#1f77b4" /><rect x="235.70000000000002" y="44" width="21.38" height="53.44" fill="#1f77b4" /><rect x="258.2" y="44" width="21.38" height="53.44" fill="#1f77b4" /><rect x="280.7" y="44" width="21.38" height="53.44" fill="#1f77b4" /><rect x="303.2" y="44" width="7.13" height="53.44" fill="#0000ff" /><rect x="310.7" y="44" width="21.38" height="53.44" fill="#1f77b4" /><rect x="333.2" y="44" width="21.38" height="53.44" fill="#1f77b4" /><rect x="355.7" y="44" width="21.38" height="53.44" fill="#1f77b4" /><rect x="378.2" y="44" width="21.38" height="53.44" fill="#1f77b4" /><rect x="400.7" y="44" width="7.13" height="53.44" fill="#ff0000" /><rect x="408.2" y="44" width="21.38" height="53.44" fill="#1f77b4" /><rect x="78.2" y="100.25" width="21.38" height="53.44" fill="#1f77b4" /><rect x="100.7" y="100.25" width="21.38" height="53.44" fill="#1f77b4" /><rect x="123.2" y="100.25" width="21.38" height="53.44" fill="#1f77b4" /><rect x="145.70000000000002" y="100.25" width="21.38" height="53.44" fill="#1f77b4" /><rect x="168.20000000000002" y="100.25" width="21.38" height="53.44" fill="#1f77b4" /><rect x="190.70000000000002" y="100.25" width="21.38" height="53.44" fill="#1f77b4" /><rect x="213.20000000000002" y="100.25" width="21.38" height="53.44" fill="#1f77b4" /><rect x="235.70000000000002" y="100.25" width="21.38" height="53.44" fill="#1f77b4" /><rect x="258.2" y="100.25" width="21.38" height="53.44" fill="#1f77b4" /><rect x="280.7" y="100.25" width="21.38" height="53.44" fill="#1f77b4" /><rect x="303.2" y="100.25" width="21.38" height="53.44" fill="#1f77b4" /><rect x="325.7" y="100.25" width="21.38" height="53.44" fill="#1f77b4" /><rect x="348.2" y="100.25" width="21.38" height="53.44" fill="#1f77b4" /><rect x="370.7" y="100.25" width="21.38" height="53.44" fill="#1f77b4" /><rect x="393.2" y="100.25" width="7.13" height="53.44" fill="#ff0000" /><rect x="400.7" y="100.25" width="21.38" height="53.44" fill="#1f77b4" /><rect x="78.2" y="156.5" width="21.38" height="53.44" fill="#1f77b4" /><rect x="100.7" y="156.5" width="21.38" height="53.44" fill="#1f77b4" /><rect x="123.2" y="156.5" width="21.38" height="53.44" fill="#1f77b4" /><rect x="145.70000000000002" y="156.5" width="21.38" height="53.44" fill="#1f77b4" /><rect x="168.20000000000002" y="156.5" width="21.38" height="53.44" fill="#1f77b4" /><rect x="190.70000000000002" y="156.5" width="21.38" height="53.44" fill="#1f77b4" /><rect x="213.20000000000002" y="156.5" width="21.38" height="53.44" fill="#1f77b4" /><rect x="235.70000000000002" y="156.5" width="21.38" height="53.44" fill="#1f77b4" /><rect x="258.2" y="156.5" width="21.38" height="53.44" fill="#1f77b4" /><rect x="280.7" y="156.5" width="21.38" height="53.44" fill="#1f77b4" /><rect x="303.2" y="156.5" width="21.38" height="53.44" fill="#1f77b4" /><rect x="325.7" y="156.5" width="21.38" height="53.44" fill="#1f77b4" /><rect x="348.2" y="156.5" width="21.38" height="53.44" fill="#1f77b4" /><rect x="370.7" y="156.5" width="21.38" height="53.44" fill="#1f77b4" /><rect x="393.2" y="156.5" width="7.13" height="53.44" fill="#ff0000" /><rect x="400.7" y="156.5" width="21.38" height="53.44" fill="#1f77b4" /><rect x="78.2" y="212.75" width="21.38" height="53.44" fill="#1f77b4" /><rect x="100.7" y="212.75" width="21.38" height="53.44" fill="#1f77b4" /><rect x="123.2" y="212.75" width="21.38" height="53.44" fill="#1f77b4" /><rect x="145.70000000000002" y="212.75" width="21.38" height="53.44" fill="#1f77b4" /><rect x="168.20000000000002" y="212.75" width="21.38" height="53.44" fill="#1f77b4" /><rect x="190.70000000000002" y="212.75" width="21.38" height="53.44" fill="#1f77b4" /><rect x="213.20000000000002" y="212.75" width="21.38" height="53.44" fill="#1f77b4" /><rect x="235.70000000000002" y="212.75" width="21.38" height="53.44" fill="#1f77b4" /><rect x="258.2" y="212.75" width="21.38" height="53.44" fill="#1f77b4" /><rect x="280.7" y="212.75" width="21.38" height="53.44" fill="#1f77b4" /><rect x="303.2" y="212.75" width="7.13" height="53.44" fill="#0000ff" /><rect x="310.7" y="212.75" width="21.38" height="53.44" fill="#1f77b4" /><rect x="333.2" y="212.75" width="21.38" height="53.44" fill="#1f77b4" /><rect x="355.7" y="212.75" width="21.38" height="53.44" fill="#1f77b4" /><rect x="378.2" y="212.75" width="21.38" height="53.44" fill="#1f77b4" /><rect x="400.7" y="212.75" width="7.13" height="53.44" fill="#ff0000" /><rect x="408.2" y="212.75" width="21.38" height="53.44" fill="#1f77b4" /><rect x="78.2" y="269" width="21.38" height="53.44" fill="#1f77b4" /><rect x="100.7" y="269" width="21.38" height="53.44" fill="#1f77b4" /><rect x="123.2" y="269" width="21.38" height="53.44" fill="#1f77b4" /><rect x="145.70000000000002" y="269" width="21.38" height="53.44" fill="#1f77b4" /><rect x="168.20000000000002" y="269" width="21.38" height="53.44" fill="#1f77b4" /><rect x="190.70000000000002" y="269" width="21.38" height="53.44" fill="#1f77b4" /><rect x="213.20000000000002" y="269" width="21.38" height="53.44" fill="#1f77b4" /><rect x="235.70000000000002" y="269" width="21.38" height="53.44" fill="#1f77b4" /><rect x="258.2" y="269" width="21.38" height="53.44" fill="#1f77b4" /><rect x="280.7" y="269" width="21.38" height="53.44" fill="#1f77b4" /><rect x="303.2" y="269" width="7.13" height="53.44" fill="#0000ff" /><rect x="310.7" y="269" width="21.38" height="53.44" fill="#1f77b4" /><rect x="333.2" y="269" width="21.38" height="53.44" fill="#1f77b4" /><rect x="355.7" y="269" width="21.38" height="53.44" fill="#1f77b4" /><rect x="378.2" y="269" width="21.38" height="53.44" fill="#1f77b4" /><rect x="400.7" y="269" width="7.13" height="53.44" fill="#ff0000" /><rect x="408.2" y="269" width="21.38" height="53.44" fill="#1f77b4" /><rect x="78.2" y="325.25" width="21.38" height="53.44" fill="#1f77b4" /><rect x="100.7" y="325.25" width="21.38" height="53.44" fill="#1f77b4" /><rect x="123.2" y="325.25" width="21.38" height="53.44" fill="#1f77b4" /><rect x="145.70000000000002" y="325.25" width="21.38" height="53.44" fill="#1f77b4" /><rect x="168.20000000000002" y="325.25" width="21.38" height="53.44" fill="#1f77b4" /><rect x="190.70000000000002" y="325.25" width="21.38" height="53.44" fill="#1f77b4" /><rect x="213.20000000000002" y="325.25" width="21.38" height="53.44" fill="#1f77b4" /><rect x="235.70000000000002" y="325.25" width="21.38" height="53.44" fill="#1f77b4" /><rect x="258.2" y="325.25" width="21.38" height="53.44" fill="#1f77b4" /><rect x="280.7" y="325.25" width="21.38" height="53.44" fill="#1f77b4" /><rect x="303.2" y="325.25" width="7.13" height="53.44" fill="#0000ff" /><rect x="310.7" y="325.25" width="21.38" height="53.44" fill="#1f77b4" /><rect x="333.2" y="325.25" width="21.38" height="53.44" fill="#1f77b4" /><rect x="355.7" y="325.25" width="21.38" height="53.44" fill="#1f77b4" /><rect x="378.2" y="325.25" width="21.38" height="53.44" fill="#1f77b4" /><rect x="400.7" y="325.25" width="21.38" height="53.44" fill="#1f77b4" /><rect x="423.2" y="325.25" width="21.38" height="53.44" fill="#1f77b4" /><rect x="445.7" y="325.25" width="21.38" height="53.44" fill="#1f77b4" /><rect x="468.2" y="325.25" width="21.38" height="53.44" fill="#1f77b4" /><rect x="490.7" y="325.25" width="21.38" height="53.44" fill="#ff7f0e" /><rect x="513.2" y="325.25" width="21.38" height="53.44" fill="#1f77b4" /><rect x="535.7" y="325.25" width="21.38" height="53.44" fill="#1f77b4" /><rect x="558.2" y="325.25" width="21.38" height="53.44" fill="#1f77b4" /><rect x="580.7" y="325.25" width="21.38" height="53.44" fill="#1f77b4" /><rect x="603.2" y="325.25" width="21.38" height="53.44" fill="#1f77b4" /><rect x="78.2" y="381.5" width="21.38" height="53.44" fill="#1f77b4" /><rect x="100.7" y="381.5" width="21.38" height="53.44" fill="#1f77b4" /><rect x="123.2" y="381.5" width="21.38" height="53.44" fill="#1f77b4" /><rect x="145.70000000000002" y="381.5" width="21.38" height="53.44" fill="#1f77b4" /><rect x="168.20000000000002" y="381.5" width="21.38" height="53.44" fill="#1f77b4" /><rect x="190.70000000000002" y="381.5" width="21.38" height="53.44" fill="#1f77b4" /><rect x="213.20000000000002" y="381.5" width="21.38" height="53.44" fill="#1f77b4" /><rect x="235.70000000000002" y="381.5" width="21.38" height="53.44" fill="#1f77b4" /><rect x="258.2" y="381.5" width="21.38" height="53.44" fill="#1f77b4" /><rect x="280.7" y="381.5" width="21.38" height="53.44" fill="#1f77b4" /><rect x="303.2" y="381.5" width="7.13" height="53.44" fill="#0000ff" /><rect x="310.7" y="381.5" width="21.38" height="53.44" fill="#1f77b4" /><rect x="333.2" y="381.5" width="21.38" height="53.44" fill="#1f77b4" /><rect x="355.7" y="381.5" width="21.38" height="53.44" fill="#1f77b4" /><rect x="378.2" y="381.5" width="21.38" height="53.44" fill="#1f77b4" /><rect x="400.7" y="381.5" width="21.38" height="53.44" fill="#1f77b4" /><rect x="78.2" y="437.75" width="21.38" height="53.44" fill="#1f77b4" /><rect x="100.7" y="437.75" width="21.38" height="53.44" fill="#1f77b4" /><rect x="123.2" y="437.75" width="21.38" height="53.44" fill="#1f77b4" /><rect x="145.70000000000002" y="437.75" width="21.38" height="53.44" fill="#1f77b4" /><rect x="168.20000000000002" y="437.75" width="21.38" height="53.44" fill="#1f77b4" /><rect x="190.70000000000002" y="437.75" width="21.38" height="53.44" fill="#1f77b4" /><rect x="213.20000000000002" y="437.75" width="21.38" height="53.44" fill="#1f77b4" /><rect x="235.70000000000002" y="437.75" width="21.38" height="53.44" fill="#1f77b4" /><rect x="258.2" y="437.75" width="21.38" height="53.44" fill="#1f77b4" /><rect x="280.7" y="437.75" width="21.38" height="53.44" fill="#1f77b4" /><rect x="303.2" y="437.75" width="7.13" height="53.44" fill="#0000ff" /><rect x="310.7" y="437.75" width="21.38" height="53.44" fill="#1f77b4" /><rect x="333.2" y="437.75" width="21.38" height="53.44" fill="#1f77b4" /><rect x="355.7" y="437.75" width="21.38" height="53.44" fill="#1f77b4" /><rect x="378.2" y="437.75" width="21.38" height="53.44" fill="#1f77b4" /><rect x="400.7" y="437.75" width="7.13" height="53.44" fill="#ff0000" /><rect x="408.2" y="437.75" width="21.38" height="53.44" fill="#1f77b4" /></g><rect x="683.2" y="34" width="80" height="92" fill="#ffffff" /><rect x="683.2" y="34" width="80" height="92" fill="none" stroke="#000000" stroke-width="1" /><text x="713.2" y="53.2" font-size="12" text-anchor="start">CAT</text><rect x="693.2" y="43" width="12" height="12" fill="#1f77b4" /><text x="713.2" y="71.2" font-size="12" text-anchor="start">C</text><rect x="693.2" y="61" width="12" height="12" fill="#0000ff" /><text x="713.2" y="89.2" font-size="12" text-anchor="start">T</text><rect x="693.2" y="79" width="12" height="12" fill="#ff0000" /><text x="713.2" y="107.2" font-size="12" text-anchor="start">GGT</text><rect x="693.2" y="97" width="12" height="12" fill="#ff7f0e" /></svg>