<svg xmlns="http://www.w3.org/2000/svg" width="673" height="545" font-family="DejaVu Sans, Liberation Sans, Arial, sans-serif" fill="black"><rect width="100%" height="100%" fill="white" /><defs><clipPath id="kuva-clip-0"><rect x="59" y="44" width="600" height="450"/></clipPath></defs><line x1="59" y1="400.25" x2="659" y2="400.25" stroke="#cccccc" stroke-width="1" /><line x1="59" y1="306.5" x2="659" y2="306.5" stroke="#cccccc" stroke-width="1" /><line x1="59" y1="212.75" x2="659" y2="212.75" stroke="#cccccc" stroke-width="1" /><line x1="59" y1="119" x2="659" y2="119" stroke="#cccccc" stroke-width="1" /><line x1="59" y1="494" x2="659" y2="494" stroke="#000000" stroke-width="1" /><line x1="59" y1="44" x2="59" y2="494" stroke="#000000" stroke-width="1" /><text x="179" y="511" font-size="12" text-anchor="middle">Control</text><line x1="179" y1="494" x2="179" y2="499" stroke="#000000" stroke-width="1" /><text x="299" y="511" font-size="12" text-anchor="middle">Treatment A</text><line x1="299" y1="494" x2="299" y2="499" stroke="#000000" stroke-width="1" /><text x="419" y="511" font-size="12" text-anchor="middle">Treatment B</text><line x1="419" y1="494" x2="419" y2="499" stroke="#000000" stroke-width="1" /><text x="539" y="511" font-size="12" text-anchor="middle">Treatment C</text><line x1="539" y1="494" x2="539" y2="499" stroke="#000000" stroke-width="1" /><line x1="54" y1="494" x2="59" y2="494" stroke="#000000" stroke-width="1" /><text x="51" y="498.2" font-size="12" text-anchor="end">0</text><line x1="54" y1="400.25" x2="59" y2="400.25" stroke="#000000" stroke-width="1" /><text x="51" y="404.45" font-size="12" text-anchor="end">2.5</text><line x1="54" y1="306.5" x2="59" y2="306.5" stroke="#000000" stroke-width="1" /><text x="51" y="310.7" font-size="12" text-anchor="end">5</text><line x1="54" y1="212.75" x2="59" y2="212.75" stroke="#000000" stroke-width="1" /><text x="51" y="216.95000000000002" font-size="12" text-anchor="end">7.5</text><line x1="54" y1="119" x2="59" y2="119" stroke="#000000" stroke-width="1" /><text x="51" y="123.2" font-size="12" text-anchor="end">10</text><text x="15" y="272.5" font-size="14" text-anchor="middle" transform="rotate(-90,15,272.5)">Value</text><text x="336.5" y="27.400000000000002" font-size="18" text-anchor="middle">Box Plot</text><g clip-path="url(#kuva-clip-0)"><rect x="131" y="291.45" width="96" height="44.29" fill="#4682b4" /><line x1="131" y1="307.13" x2="227" y2="307.13" stroke="#ffffff" stroke-width="1.5" /><line x1="179" y1="399.85" x2="179" y2="335.74" stroke="#4682b4" stroke-width="1" /><line x1="179" y1="291.45" x2="179" y2="234.14000000000001" stroke="#4682b4" stroke-width="1" /><line x1="155" y1="399.85" x2="203" y2="399.85" stroke="#4682b4" stroke-width="1" /><line x1="155" y1="234.14000000000001" x2="203" y2="234.14000000000001" stroke="#4682b4" stroke-width="1" /><rect x="251" y="212.75" width="96" height="56.5" fill="#4682b4" /><line x1="251" y1="248.05" x2="347" y2="248.05" stroke="#ffffff" stroke-width="1.5" /><line x1="299" y1="343.68" x2="299" y2="269.25" stroke="#4682b4" stroke-width="1" /><line x1="299" y1="212.75" x2="299" y2="129.99" stroke="#4682b4" stroke-width="1" /><line x1="275" y1="343.68" x2="323" y2="343.68" stroke="#4682b4" stroke-width="1" /><line x1="275" y1="129.99" x2="323" y2="129.99" stroke="#4682b4" stroke-width="1" /><rect x="371" y="316.05" width="96" height="52.51" fill="#4682b4" /><line x1="371" y1="337.43" x2="467" y2="337.43" stroke="#ffffff" stroke-width="1.5" /><line x1="419" y1="424.04" x2="419" y2="368.56" stroke="#4682b4" stroke-width="1" /><line x1="419" y1="316.05" x2="419" y2="275.1" stroke="#4682b4" stroke-width="1" /><line x1="395" y1="424.04" x2="443" y2="424.04" stroke="#4682b4" stroke-width="1" /><line x1="395" y1="275.1" x2="443" y2="275.1" stroke="#4682b4" stroke-width="1" /><rect x="491" y="190.54" width="96" height="76.8" fill="#4682b4" /><line x1="491" y1="215.69" x2="587" y2="215.69" stroke="#ffffff" stroke-width="1.5" /><line x1="539" y1="337.18" x2="539" y2="267.34000000000003" stroke="#4682b4" stroke-width="1" /><line x1="539" y1="190.54" x2="539" y2="140.58" stroke="#4682b4" stroke-width="1" /><line x1="515" y1="337.18" x2="563" y2="337.18" stroke="#4682b4" stroke-width="1" /><line x1="515" y1="140.58" x2="563" y2="140.58" stroke="#4682b4" stroke-width="1" /></g></svg>