<svg xmlns="http://www.w3.org/2000/svg" width="673" height="545" font-family="DejaVu Sans, Liberation Sans, Arial, sans-serif" fill="black"><rect width="100%" height="100%" fill="white" /><defs><clipPath id="kuva-clip-0"><rect x="59" y="44" width="600" height="450"/></clipPath></defs><line x1="59" y1="404" x2="659" y2="404" stroke="#cccccc" stroke-width="1" /><line x1="59" y1="314" x2="659" y2="314" stroke="#cccccc" stroke-width="1" /><line x1="59" y1="224" x2="659" y2="224" stroke="#cccccc" stroke-width="1" /><line x1="59" y1="134" x2="659" y2="134" stroke="#cccccc" stroke-width="1" /><line x1="59" y1="44" x2="659" y2="44" stroke="#cccccc" stroke-width="1" /><line x1="59" y1="494" x2="659" y2="494" stroke="#000000" stroke-width="1" /><line x1="59" y1="44" x2="59" y2="494" stroke="#000000" stroke-width="1" /><text x="179" y="511" font-size="12" text-anchor="middle">Control</text><line x1="179" y1="494" x2="179" y2="499" stroke="#000000" stroke-width="1" /><text x="299" y="511" font-size="12" text-anchor="middle">Treatment A</text><line x1="299" y1="494" x2="299" y2="499" stroke="#000000" stroke-width="1" /><text x="419" y="511" font-size="12" text-anchor="middle">Treatment B</text><line x1="419" y1="494" x2="419" y2="499" stroke="#000000" stroke-width="1" /><text x="539" y="511" font-size="12" text-anchor="middle">Treatment C</text><line x1="539" y1="494" x2="539" y2="499" stroke="#000000" stroke-width="1" /><line x1="54" y1="494" x2="59" y2="494" stroke="#000000" stroke-width="1" /><text x="51" y="498.2" font-size="12" text-anchor="end">0</text><line x1="54" y1="404" x2="59" y2="404" stroke="#000000" stroke-width="1" /><text x="51" y="408.2" font-size="12" text-anchor="end">2.5</text><line x1="54" y1="314" x2="59" y2="314" stroke="#000000" stroke-width="1" /><text x="51" y="318.2" font-size="12" text-anchor="end">5</text><line x1="54" y1="224" x2="59" y2="224" stroke="#000000" stroke-width="1" /><text x="51" y="228.20000000000002" font-size="12" text-anchor="end">7.5</text><line x1="54" y1="134" x2="59" y2="134" stroke="#000000" stroke-width="1" /><text x="51" y="138.20000000000002" font-size="12" text-anchor="end">10</text><line x1="54" y1="44" x2="59" y2="44" stroke="#000000" stroke-width="1" /><text x="51" y="48.2" font-size="12" text-anchor="end">12.5</text><text x="15" y="272.5" font-size="14" text-anchor="middle" transform="rotate(-90,15,272.5)">Value</text><text x="359" y="22" font-size="18" text-anchor="middle">Box Plot</text><g clip-path="url(#kuva-clip-0)"><rect x="131" y="299.55" width="96" height="42.52" fill="#4682b4" /><line x1="131" y1="314.6" x2="227" y2="314.6" stroke="#ffffff" stroke-width="1.5" /><line x1="179" y1="403.62" x2="179" y2="342.07" stroke="#4682b4" stroke-width="1" /><line x1="179" y1="299.55" x2="179" y2="244.53" stroke="#4682b4" stroke-width="1" /><line x1="155" y1="403.62" x2="203" y2="403.62" stroke="#4682b4" stroke-width="1" /><line x1="155" y1="244.53" x2="203" y2="244.53" stroke="#4682b4" stroke-width="1" /><rect x="251" y="224" width="96" height="54.24" fill="#4682b4" /><line x1="251" y1="257.88" x2="347" y2="257.88" stroke="#ffffff" stroke-width="1.5" /><line x1="299" y1="349.69" x2="299" y2="278.24" stroke="#4682b4" stroke-width="1" /><line x1="299" y1="224" x2="299" y2="144.55" stroke="#4682b4" stroke-width="1" /><line x1="275" y1="349.69" x2="323" y2="349.69" stroke="#4682b4" stroke-width="1" /><line x1="275" y1="144.55" x2="323" y2="144.55" stroke="#4682b4" stroke-width="1" /><rect x="371" y="323.17" width="96" height="50.4" fill="#4682b4" /><line x1="371" y1="343.69" x2="467" y2="343.69" stroke="#ffffff" stroke-width="1.5" /><line x1="419" y1="426.84000000000003" x2="419" y2="373.57" stroke="#4682b4" stroke-width="1" /><line x1="419" y1="323.17" x2="419" y2="283.85" stroke="#4682b4" stroke-width="1" /><line x1="395" y1="426.84000000000003" x2="443" y2="426.84000000000003" stroke="#4682b4" stroke-width="1" /><line x1="395" y1="283.85" x2="443" y2="283.85" stroke="#4682b4" stroke-width="1" /><rect x="491" y="202.68" width="96" height="73.73" fill="#4682b4" /><line x1="491" y1="226.82" x2="587" y2="226.82" stroke="#ffffff" stroke-width="1.5" /><line x1="539" y1="343.45" x2="539" y2="276.41" stroke="#4682b4" stroke-width="1" /><line x1="539" y1="202.68" x2="539" y2="154.71" stroke="#4682b4" stroke-width="1" /><line x1="515" y1="343.45" x2="563" y2="343.45" stroke="#4682b4" stroke-width="1" /><line x1="515" y1="154.71" x2="563" y2="154.71" stroke="#4682b4" stroke-width="1" /></g></svg>