<svg xmlns="http://www.w3.org/2000/svg" width="686.2" height="545" font-family="DejaVu Sans, Liberation Sans, Arial, sans-serif" fill="black"><rect width="100%" height="100%" fill="white" /><line x1="72.2" y1="494" x2="672.2" y2="494" stroke="#000000" stroke-width="1" /><line x1="72.2" y1="44" x2="72.2" y2="494" stroke="#000000" stroke-width="1" /><line x1="72.2" y1="404" x2="672.2" y2="404" stroke="#cccccc" stroke-width="1" /><line x1="72.2" y1="314" x2="672.2" y2="314" stroke="#cccccc" stroke-width="1" /><line x1="72.2" y1="224" x2="672.2" y2="224" stroke="#cccccc" stroke-width="1" /><line x1="72.2" y1="134" x2="672.2" y2="134" stroke="#cccccc" stroke-width="1" /><line x1="72.2" y1="44" x2="672.2" y2="44" stroke="#cccccc" stroke-width="1" /><text x="192.20000000000002" y="511" font-size="12" text-anchor="middle">Control</text><line x1="192.20000000000002" y1="494" x2="192.20000000000002" y2="499" stroke="#000000" stroke-width="1" /><text x="312.2" y="511" font-size="12" text-anchor="middle">Treatment A</text><line x1="312.2" y1="494" x2="312.2" y2="499" stroke="#000000" stroke-width="1" /><text x="432.2" y="511" font-size="12" text-anchor="middle">Treatment B</text><line x1="432.2" y1="494" x2="432.2" y2="499" stroke="#000000" stroke-width="1" /><text x="552.2" y="511" font-size="12" text-anchor="middle">Treatment C</text><line x1="552.2" y1="494" x2="552.2" y2="499" stroke="#000000" stroke-width="1" /><line x1="67.2" y1="494" x2="72.2" y2="494" stroke="#000000" stroke-width="1" /><text x="64.2" y="498.2" font-size="12" text-anchor="end">0</text><line x1="67.2" y1="404" x2="72.2" y2="404" stroke="#000000" stroke-width="1" /><text x="64.2" y="408.2" font-size="12" text-anchor="end">2.5</text><line x1="67.2" y1="314" x2="72.2" y2="314" stroke="#000000" stroke-width="1" /><text x="64.2" y="318.2" font-size="12" text-anchor="end">5</text><line x1="67.2" y1="224" x2="72.2" y2="224" stroke="#000000" stroke-width="1" /><text x="64.2" y="228.20000000000002" font-size="12" text-anchor="end">7.5</text><line x1="67.2" y1="134" x2="72.2" y2="134" stroke="#000000" stroke-width="1" /><text x="64.2" y="138.20000000000002" font-size="12" text-anchor="end">10</text><line x1="67.2" y1="44" x2="72.2" y2="44" stroke="#000000" stroke-width="1" /><text x="64.2" y="48.2" font-size="12" text-anchor="end">12.5</text><text x="7" y="272.5" font-size="14" text-anchor="middle" transform="rotate(-90,7,272.5)">Value</text><text x="372.2" y="22" font-size="18" text-anchor="middle">Box Plot</text><rect x="144.20000000000002" y="299.55" width="96" height="42.52" fill="#4682b4" /><line x1="144.20000000000002" y1="314.6" x2="240.20000000000002" y2="314.6" stroke="#ffffff" stroke-width="1.5" /><line x1="192.20000000000002" y1="403.62" x2="192.20000000000002" y2="342.07" stroke="#4682b4" stroke-width="1" /><line x1="192.20000000000002" y1="299.55" x2="192.20000000000002" y2="244.53" stroke="#4682b4" stroke-width="1" /><line x1="168.20000000000002" y1="403.62" x2="216.20000000000002" y2="403.62" stroke="#4682b4" stroke-width="1" /><line x1="168.20000000000002" y1="244.53" x2="216.20000000000002" y2="244.53" stroke="#4682b4" stroke-width="1" /><rect x="264.2" y="224" width="96" height="54.24" fill="#4682b4" /><line x1="264.2" y1="257.88" x2="360.2" y2="257.88" stroke="#ffffff" stroke-width="1.5" /><line x1="312.2" y1="349.69" x2="312.2" y2="278.24" stroke="#4682b4" stroke-width="1" /><line x1="312.2" y1="224" x2="312.2" y2="144.55" stroke="#4682b4" stroke-width="1" /><line x1="288.2" y1="349.69" x2="336.2" y2="349.69" stroke="#4682b4" stroke-width="1" /><line x1="288.2" y1="144.55" x2="336.2" y2="144.55" stroke="#4682b4" stroke-width="1" /><rect x="384.2" y="323.17" width="96" height="50.4" fill="#4682b4" /><line x1="384.2" y1="343.69" x2="480.2" y2="343.69" stroke="#ffffff" stroke-width="1.5" /><line x1="432.2" y1="426.84000000000003" x2="432.2" y2="373.57" stroke="#4682b4" stroke-width="1" /><line x1="432.2" y1="323.17" x2="432.2" y2="283.85" stroke="#4682b4" stroke-width="1" /><line x1="408.2" y1="426.84000000000003" x2="456.2" y2="426.84000000000003" stroke="#4682b4" stroke-width="1" /><line x1="408.2" y1="283.85" x2="456.2" y2="283.85" stroke="#4682b4" stroke-width="1" /><rect x="504.2" y="202.68" width="96" height="73.73" fill="#4682b4" /><line x1="504.2" y1="226.82" x2="600.2" y2="226.82" stroke="#ffffff" stroke-width="1.5" /><line x1="552.2" y1="343.45" x2="552.2" y2="276.41" stroke="#4682b4" stroke-width="1" /><line x1="552.2" y1="202.68" x2="552.2" y2="154.71" stroke="#4682b4" stroke-width="1" /><line x1="528.2" y1="343.45" x2="576.2" y2="343.45" stroke="#4682b4" stroke-width="1" /><line x1="528.2" y1="154.71" x2="576.2" y2="154.71" stroke="#4682b4" stroke-width="1" /></svg>