<svg xmlns="http://www.w3.org/2000/svg" width="673" height="545" font-family="DejaVu Sans, Liberation Sans, Arial, sans-serif" fill="black"><rect width="100%" height="100%" fill="white" /><defs><clipPath id="kuva-clip-1"><rect x="59" y="44" width="600" height="450"/></clipPath></defs><line x1="59" y1="400.25" x2="659" y2="400.25" stroke="#cccccc" stroke-width="1" /><line x1="59" y1="306.5" x2="659" y2="306.5" stroke="#cccccc" stroke-width="1" /><line x1="59" y1="212.75" x2="659" y2="212.75" stroke="#cccccc" stroke-width="1" /><line x1="59" y1="119" x2="659" y2="119" stroke="#cccccc" stroke-width="1" /><line x1="59" y1="494" x2="659" y2="494" stroke="#000000" stroke-width="1" /><line x1="59" y1="44" x2="59" y2="494" stroke="#000000" stroke-width="1" /><text x="179" y="511" font-size="12" text-anchor="middle">Control</text><line x1="179" y1="494" x2="179" y2="499" stroke="#000000" stroke-width="1" /><text x="299" y="511" font-size="12" text-anchor="middle">Treatment A</text><line x1="299" y1="494" x2="299" y2="499" stroke="#000000" stroke-width="1" /><text x="419" y="511" font-size="12" text-anchor="middle">Treatment B</text><line x1="419" y1="494" x2="419" y2="499" stroke="#000000" stroke-width="1" /><text x="539" y="511" font-size="12" text-anchor="middle">Treatment C</text><line x1="539" y1="494" x2="539" y2="499" stroke="#000000" stroke-width="1" /><line x1="54" y1="494" x2="59" y2="494" stroke="#000000" stroke-width="1" /><text x="51" y="498.2" font-size="12" text-anchor="end">0</text><line x1="54" y1="400.25" x2="59" y2="400.25" stroke="#000000" stroke-width="1" /><text x="51" y="404.45" font-size="12" text-anchor="end">2.5</text><line x1="54" y1="306.5" x2="59" y2="306.5" stroke="#000000" stroke-width="1" /><text x="51" y="310.7" font-size="12" text-anchor="end">5</text><line x1="54" y1="212.75" x2="59" y2="212.75" stroke="#000000" stroke-width="1" /><text x="51" y="216.95000000000002" font-size="12" text-anchor="end">7.5</text><line x1="54" y1="119" x2="59" y2="119" stroke="#000000" stroke-width="1" /><text x="51" y="123.2" font-size="12" text-anchor="end">10</text><text x="15" y="272.5" font-size="14" text-anchor="middle" transform="rotate(-90,15,272.5)">Value</text><text x="336.5" y="27.400000000000002" font-size="18" text-anchor="middle">Box Plot + Strip Overlay</text><g clip-path="url(#kuva-clip-1)"><rect x="131" y="291.45" width="96" height="44.29" fill="#4682b4" /><line x1="131" y1="307.13" x2="227" y2="307.13" stroke="#ffffff" stroke-width="1.5" /><line x1="179" y1="399.85" x2="179" y2="335.74" stroke="#4682b4" stroke-width="1" /><line x1="179" y1="291.45" x2="179" y2="234.14000000000001" stroke="#4682b4" stroke-width="1" /><line x1="155" y1="399.85" x2="203" y2="399.85" stroke="#4682b4" stroke-width="1" /><line x1="155" y1="234.14000000000001" x2="203" y2="234.14000000000001" stroke="#4682b4" stroke-width="1" /><rect x="251" y="212.75" width="96" height="56.5" fill="#4682b4" /><line x1="251" y1="248.05" x2="347" y2="248.05" stroke="#ffffff" stroke-width="1.5" /><line x1="299" y1="343.68" x2="299" y2="269.25" stroke="#4682b4" stroke-width="1" /><line x1="299" y1="212.75" x2="299" y2="129.99" stroke="#4682b4" stroke-width="1" /><line x1="275" y1="343.68" x2="323" y2="343.68" stroke="#4682b4" stroke-width="1" /><line x1="275" y1="129.99" x2="323" y2="129.99" stroke="#4682b4" stroke-width="1" /><rect x="371" y="316.05" width="96" height="52.51" fill="#4682b4" /><line x1="371" y1="337.43" x2="467" y2="337.43" stroke="#ffffff" stroke-width="1.5" /><line x1="419" y1="424.04" x2="419" y2="368.56" stroke="#4682b4" stroke-width="1" /><line x1="419" y1="316.05" x2="419" y2="275.1" stroke="#4682b4" stroke-width="1" /><line x1="395" y1="424.04" x2="443" y2="424.04" stroke="#4682b4" stroke-width="1" /><line x1="395" y1="275.1" x2="443" y2="275.1" stroke="#4682b4" stroke-width="1" /><rect x="491" y="190.54" width="96" height="76.8" fill="#4682b4" /><line x1="491" y1="215.69" x2="587" y2="215.69" stroke="#ffffff" stroke-width="1.5" /><line x1="539" y1="337.18" x2="539" y2="267.34000000000003" stroke="#4682b4" stroke-width="1" /><line x1="539" y1="190.54" x2="539" y2="140.58" stroke="#4682b4" stroke-width="1" /><line x1="515" y1="337.18" x2="563" y2="337.18" stroke="#4682b4" stroke-width="1" /><line x1="515" y1="140.58" x2="563" y2="140.58" stroke="#4682b4" stroke-width="1" /><circle cx="187.64000000000001" cy="274.85" r="3" fill="rgba(0,0,0,0.4)" /><circle cx="185.47" cy="279.67" r="3" fill="rgba(0,0,0,0.4)" /><circle cx="189.51" cy="378.35" r="3" fill="rgba(0,0,0,0.4)" /><circle cx="169.29" cy="289.53000000000003" r="3" fill="rgba(0,0,0,0.4)" /><circle cx="176.23" cy="337.09000000000003" r="3" fill="rgba(0,0,0,0.4)" /><circle cx="169.53" cy="293.06" r="3" fill="rgba(0,0,0,0.4)" /><circle cx="167.38" cy="195.94" r="3" fill="rgba(0,0,0,0.4)" /><circle cx="174.02" cy="302.32" r="3" fill="rgba(0,0,0,0.4)" /><circle cx="178.27" cy="335.86" r="3" fill="rgba(0,0,0,0.4)" /><circle cx="187.26" cy="376.96" r="3" fill="rgba(0,0,0,0.4)" /><circle cx="168.93" cy="245.17000000000002" r="3" fill="rgba(0,0,0,0.4)" /><circle cx="188.15" cy="320.47" r="3" fill="rgba(0,0,0,0.4)" /><circle cx="167.62" cy="335.97" r="3" fill="rgba(0,0,0,0.4)" /><circle cx="175.21" cy="321.88" r="3" fill="rgba(0,0,0,0.4)" /><circle cx="178.61" cy="341.6" r="3" fill="rgba(0,0,0,0.4)" /><circle cx="180.32" cy="335.7" r="3" fill="rgba(0,0,0,0.4)" /><circle cx="177.93" cy="300.90000000000003" r="3" fill="rgba(0,0,0,0.4)" /><circle cx="188.16" cy="307.69" r="3" fill="rgba(0,0,0,0.4)" /><circle cx="181.3" cy="260.68" r="3" fill="rgba(0,0,0,0.4)" /><circle cx="188.20000000000002" cy="285.84000000000003" r="3" fill="rgba(0,0,0,0.4)" /><circle cx="173.5" cy="357.08" r="3" fill="rgba(0,0,0,0.4)" /><circle cx="171.95000000000002" cy="242.70000000000002" r="3" fill="rgba(0,0,0,0.4)" /><circle cx="187.82" cy="324.43" r="3" fill="rgba(0,0,0,0.4)" /><circle cx="167.37" cy="314.90000000000003" r="3" fill="rgba(0,0,0,0.4)" /><circle cx="179.29" cy="339.57" r="3" fill="rgba(0,0,0,0.4)" /><circle cx="181.43" cy="293.82" r="3" fill="rgba(0,0,0,0.4)" /><circle cx="180.83" cy="346.49" r="3" fill="rgba(0,0,0,0.4)" /><circle cx="175.77" cy="255.36" r="3" fill="rgba(0,0,0,0.4)" /><circle cx="178.91" cy="302.43" r="3" fill="rgba(0,0,0,0.4)" /><circle cx="178.41" cy="269.85" r="3" fill="rgba(0,0,0,0.4)" /><circle cx="169.04" cy="297.95" r="3" fill="rgba(0,0,0,0.4)" /><circle cx="176.14000000000001" cy="297.14" r="3" fill="rgba(0,0,0,0.4)" /><circle cx="167.73" cy="305.62" r="3" fill="rgba(0,0,0,0.4)" /><circle cx="173.87" cy="303.47" r="3" fill="rgba(0,0,0,0.4)" /><circle cx="184.22" cy="234.14000000000001" r="3" fill="rgba(0,0,0,0.4)" /><circle cx="178.24" cy="328.24" r="3" fill="rgba(0,0,0,0.4)" /><circle cx="182.02" cy="316.36" r="3" fill="rgba(0,0,0,0.4)" /><circle cx="188.69" cy="293.97" r="3" fill="rgba(0,0,0,0.4)" /><circle cx="173.75" cy="289.37" r="3" fill="rgba(0,0,0,0.4)" /><circle cx="169.06" cy="281.91" r="3" fill="rgba(0,0,0,0.4)" /><circle cx="173.98" cy="308.73" r="3" fill="rgba(0,0,0,0.4)" /><circle cx="182.06" cy="306.57" r="3" fill="rgba(0,0,0,0.4)" /><circle cx="174.58" cy="312.21" r="3" fill="rgba(0,0,0,0.4)" /><circle cx="186.8" cy="242.82" r="3" fill="rgba(0,0,0,0.4)" /><circle cx="174.13" cy="298.52" r="3" fill="rgba(0,0,0,0.4)" /><circle cx="177.75" cy="292.09000000000003" r="3" fill="rgba(0,0,0,0.4)" /><circle cx="175.1" cy="292.45" r="3" fill="rgba(0,0,0,0.4)" /><circle cx="173.33" cy="322" r="3" fill="rgba(0,0,0,0.4)" /><circle cx="171.55" cy="372.43" r="3" fill="rgba(0,0,0,0.4)" /><circle cx="172.41" cy="399.85" r="3" fill="rgba(0,0,0,0.4)" /><circle cx="174.59" cy="271.98" r="3" fill="rgba(0,0,0,0.4)" /><circle cx="186.65" cy="295.87" r="3" fill="rgba(0,0,0,0.4)" /><circle cx="168.87" cy="310.55" r="3" fill="rgba(0,0,0,0.4)" /><circle cx="180.34" cy="374.58" r="3" fill="rgba(0,0,0,0.4)" /><circle cx="173.67000000000002" cy="311.6" r="3" fill="rgba(0,0,0,0.4)" /><circle cx="182.04" cy="307.83" r="3" fill="rgba(0,0,0,0.4)" /><circle cx="167.85" cy="342.09000000000003" r="3" fill="rgba(0,0,0,0.4)" /><circle cx="178.07" cy="339.89" r="3" fill="rgba(0,0,0,0.4)" /><circle cx="189.70000000000002" cy="313.06" r="3" fill="rgba(0,0,0,0.4)" /><circle cx="177.8" cy="340.35" r="3" fill="rgba(0,0,0,0.4)" /><circle cx="307.64" cy="196.31" r="3" fill="rgba(0,0,0,0.4)" /><circle cx="306.97" cy="246.79" r="3" fill="rgba(0,0,0,0.4)" /><circle cx="297.04" cy="236.70000000000002" r="3" fill="rgba(0,0,0,0.4)" /><circle cx="309.24" cy="280.54" r="3" fill="rgba(0,0,0,0.4)" /><circle cx="308.42" cy="250.67000000000002" r="3" fill="rgba(0,0,0,0.4)" /><circle cx="309.29" cy="188.36" r="3" fill="rgba(0,0,0,0.4)" /><circle cx="302.59000000000003" cy="269" r="3" fill="rgba(0,0,0,0.4)" /><circle cx="300.22" cy="194.92000000000002" r="3" fill="rgba(0,0,0,0.4)" /><circle cx="287.48" cy="254.93" r="3" fill="rgba(0,0,0,0.4)" /><circle cx="303.09000000000003" cy="186.85" r="3" fill="rgba(0,0,0,0.4)" /><circle cx="287.78000000000003" cy="249.3" r="3" fill="rgba(0,0,0,0.4)" /><circle cx="288.32" cy="235.82" r="3" fill="rgba(0,0,0,0.4)" /><circle cx="293.8" cy="219.08" r="3" fill="rgba(0,0,0,0.4)" /><circle cx="305.69" cy="217.36" r="3" fill="rgba(0,0,0,0.4)" /><circle cx="309.72" cy="175.01" r="3" fill="rgba(0,0,0,0.4)" /><circle cx="293.15000000000003" cy="255.92000000000002" r="3" fill="rgba(0,0,0,0.4)" /><circle cx="297.45" cy="239.24" r="3" fill="rgba(0,0,0,0.4)" /><circle cx="293.83" cy="265.79" r="3" fill="rgba(0,0,0,0.4)" /><circle cx="301.11" cy="281.03000000000003" r="3" fill="rgba(0,0,0,0.4)" /><circle cx="300.8" cy="306.63" r="3" fill="rgba(0,0,0,0.4)" /><circle cx="304.19" cy="241.32" r="3" fill="rgba(0,0,0,0.4)" /><circle cx="297.52" cy="240.76" r="3" fill="rgba(0,0,0,0.4)" /><circle cx="310.57" cy="238.34" r="3" fill="rgba(0,0,0,0.4)" /><circle cx="296.7" cy="129.99" r="3" fill="rgba(0,0,0,0.4)" /><circle cx="293.03000000000003" cy="307.1" r="3" fill="rgba(0,0,0,0.4)" /><circle cx="297.07" cy="260.41" r="3" fill="rgba(0,0,0,0.4)" /><circle cx="307.87" cy="283.52" r="3" fill="rgba(0,0,0,0.4)" /><circle cx="296.84000000000003" cy="318.27" r="3" fill="rgba(0,0,0,0.4)" /><circle cx="291.28000000000003" cy="266.9" r="3" fill="rgba(0,0,0,0.4)" /><circle cx="290.25" cy="197.65" r="3" fill="rgba(0,0,0,0.4)" /><circle cx="304.68" cy="266.87" r="3" fill="rgba(0,0,0,0.4)" /><circle cx="299.95" cy="253.37" r="3" fill="rgba(0,0,0,0.4)" /><circle cx="292.12" cy="241.65" r="3" fill="rgba(0,0,0,0.4)" /><circle cx="297.99" cy="205.22" r="3" fill="rgba(0,0,0,0.4)" /><circle cx="287.86" cy="295.72" r="3" fill="rgba(0,0,0,0.4)" /><circle cx="310.7" cy="200.27" r="3" fill="rgba(0,0,0,0.4)" /><circle cx="302.91" cy="196.68" r="3" fill="rgba(0,0,0,0.4)" /><circle cx="287.37" cy="306.49" r="3" fill="rgba(0,0,0,0.4)" /><circle cx="309.34000000000003" cy="222.98000000000002" r="3" fill="rgba(0,0,0,0.4)" /><circle cx="290.65000000000003" cy="288.48" r="3" fill="rgba(0,0,0,0.4)" /><circle cx="297.09000000000003" cy="245.55" r="3" fill="rgba(0,0,0,0.4)" /><circle cx="297.09000000000003" cy="275.69" r="3" fill="rgba(0,0,0,0.4)" /><circle cx="296.1" cy="343.68" r="3" fill="rgba(0,0,0,0.4)" /><circle cx="301.35" cy="185.79" r="3" fill="rgba(0,0,0,0.4)" /><circle cx="302.54" cy="258.36" r="3" fill="rgba(0,0,0,0.4)" /><circle cx="299.84000000000003" cy="211.03" r="3" fill="rgba(0,0,0,0.4)" /><circle cx="297.33" cy="280.36" r="3" fill="rgba(0,0,0,0.4)" /><circle cx="294.13" cy="251.99" r="3" fill="rgba(0,0,0,0.4)" /><circle cx="309.48" cy="194.15" r="3" fill="rgba(0,0,0,0.4)" /><circle cx="299.85" cy="261.54" r="3" fill="rgba(0,0,0,0.4)" /><circle cx="295.26" cy="180.14000000000001" r="3" fill="rgba(0,0,0,0.4)" /><circle cx="301.94" cy="269.99" r="3" fill="rgba(0,0,0,0.4)" /><circle cx="291.33" cy="300.39" r="3" fill="rgba(0,0,0,0.4)" /><circle cx="308.34000000000003" cy="273.14" r="3" fill="rgba(0,0,0,0.4)" /><circle cx="308" cy="221.03" r="3" fill="rgba(0,0,0,0.4)" /><circle cx="305.65000000000003" cy="266.22" r="3" fill="rgba(0,0,0,0.4)" /><circle cx="306.99" cy="208.8" r="3" fill="rgba(0,0,0,0.4)" /><circle cx="295.88" cy="213.32" r="3" fill="rgba(0,0,0,0.4)" /><circle cx="287.63" cy="265.47" r="3" fill="rgba(0,0,0,0.4)" /><circle cx="292.35" cy="230.92000000000002" r="3" fill="rgba(0,0,0,0.4)" /><circle cx="427.64" cy="405.29" r="3" fill="rgba(0,0,0,0.4)" /><circle cx="422.47" cy="313.16" r="3" fill="rgba(0,0,0,0.4)" /><circle cx="422.97" cy="303.62" r="3" fill="rgba(0,0,0,0.4)" /><circle cx="421.02" cy="287.3" r="3" fill="rgba(0,0,0,0.4)" /><circle cx="420.68" cy="319.63" r="3" fill="rgba(0,0,0,0.4)" /><circle cx="415.62" cy="380.62" r="3" fill="rgba(0,0,0,0.4)" /><circle cx="429.40000000000003" cy="381.69" r="3" fill="rgba(0,0,0,0.4)" /><circle cx="410.79" cy="324.89" r="3" fill="rgba(0,0,0,0.4)" /><circle cx="426.77" cy="327.8" r="3" fill="rgba(0,0,0,0.4)" /><circle cx="428.49" cy="424.04" r="3" fill="rgba(0,0,0,0.4)" /><circle cx="430.74" cy="330.90000000000003" r="3" fill="rgba(0,0,0,0.4)" /><circle cx="425.3" cy="362.48" r="3" fill="rgba(0,0,0,0.4)" /><circle cx="428.32" cy="343.13" r="3" fill="rgba(0,0,0,0.4)" /><circle cx="411.6" cy="338.90000000000003" r="3" fill="rgba(0,0,0,0.4)" /><circle cx="420.14" cy="368.39" r="3" fill="rgba(0,0,0,0.4)" /><circle cx="427.58" cy="336.79" r="3" fill="rgba(0,0,0,0.4)" /><circle cx="411.22" cy="396.08" r="3" fill="rgba(0,0,0,0.4)" /><circle cx="424.57" cy="309.84000000000003" r="3" fill="rgba(0,0,0,0.4)" /><circle cx="409.72" cy="316.41" r="3" fill="rgba(0,0,0,0.4)" /><circle cx="412.72" cy="329.78000000000003" r="3" fill="rgba(0,0,0,0.4)" /><circle cx="412.91" cy="363.91" r="3" fill="rgba(0,0,0,0.4)" /><circle cx="422.69" cy="354.81" r="3" fill="rgba(0,0,0,0.4)" /><circle cx="408.08" cy="372.03000000000003" r="3" fill="rgba(0,0,0,0.4)" /><circle cx="410.67" cy="399.63" r="3" fill="rgba(0,0,0,0.4)" /><circle cx="426.92" cy="275.1" r="3" fill="rgba(0,0,0,0.4)" /><circle cx="426.56" cy="329.33" r="3" fill="rgba(0,0,0,0.4)" /><circle cx="416.19" cy="286.88" r="3" fill="rgba(0,0,0,0.4)" /><circle cx="423.57" cy="306.08" r="3" fill="rgba(0,0,0,0.4)" /><circle cx="427.15000000000003" cy="352.63" r="3" fill="rgba(0,0,0,0.4)" /><circle cx="423.15000000000003" cy="366.15000000000003" r="3" fill="rgba(0,0,0,0.4)" /><circle cx="427.04" cy="234.76" r="3" fill="rgba(0,0,0,0.4)" /><circle cx="415.23" cy="352.90000000000003" r="3" fill="rgba(0,0,0,0.4)" /><circle cx="410.02" cy="301.97" r="3" fill="rgba(0,0,0,0.4)" /><circle cx="429.23" cy="354.83" r="3" fill="rgba(0,0,0,0.4)" /><circle cx="430.17" cy="297.2" r="3" fill="rgba(0,0,0,0.4)" /><circle cx="427.57" cy="384.13" r="3" fill="rgba(0,0,0,0.4)" /><circle cx="418.89" cy="352.52" r="3" fill="rgba(0,0,0,0.4)" /><circle cx="418.99" cy="369.05" r="3" fill="rgba(0,0,0,0.4)" /><circle cx="412.1" cy="356.61" r="3" fill="rgba(0,0,0,0.4)" /><circle cx="421.19" cy="275.66" r="3" fill="rgba(0,0,0,0.4)" /><circle cx="419.27" cy="335.92" r="3" fill="rgba(0,0,0,0.4)" /><circle cx="414.82" cy="338" r="3" fill="rgba(0,0,0,0.4)" /><circle cx="416.71000000000004" cy="386.72" r="3" fill="rgba(0,0,0,0.4)" /><circle cx="411.24" cy="336.85" r="3" fill="rgba(0,0,0,0.4)" /><circle cx="428.37" cy="324.82" r="3" fill="rgba(0,0,0,0.4)" /><circle cx="408.47" cy="318.06" r="3" fill="rgba(0,0,0,0.4)" /><circle cx="417.48" cy="299.35" r="3" fill="rgba(0,0,0,0.4)" /><circle cx="408.14" cy="314.98" r="3" fill="rgba(0,0,0,0.4)" /><circle cx="407.3" cy="328.08" r="3" fill="rgba(0,0,0,0.4)" /><circle cx="407.43" cy="378.03000000000003" r="3" fill="rgba(0,0,0,0.4)" /><circle cx="419.21000000000004" cy="290.31" r="3" fill="rgba(0,0,0,0.4)" /><circle cx="430.28000000000003" cy="316.41" r="3" fill="rgba(0,0,0,0.4)" /><circle cx="412.78000000000003" cy="371.64" r="3" fill="rgba(0,0,0,0.4)" /><circle cx="417.96000000000004" cy="376.01" r="3" fill="rgba(0,0,0,0.4)" /><circle cx="428.27" cy="388.53000000000003" r="3" fill="rgba(0,0,0,0.4)" /><circle cx="408.89" cy="369.44" r="3" fill="rgba(0,0,0,0.4)" /><circle cx="414.46000000000004" cy="351.45" r="3" fill="rgba(0,0,0,0.4)" /><circle cx="411.76" cy="310.8" r="3" fill="rgba(0,0,0,0.4)" /><circle cx="418.84000000000003" cy="339.73" r="3" fill="rgba(0,0,0,0.4)" /><circle cx="412.67" cy="318.91" r="3" fill="rgba(0,0,0,0.4)" /><circle cx="547.64" cy="183.76" r="3" fill="rgba(0,0,0,0.4)" /><circle cx="543.97" cy="202.13" r="3" fill="rgba(0,0,0,0.4)" /><circle cx="531.62" cy="337.18" r="3" fill="rgba(0,0,0,0.4)" /><circle cx="536.08" cy="189.47" r="3" fill="rgba(0,0,0,0.4)" /><circle cx="529.24" cy="286" r="3" fill="rgba(0,0,0,0.4)" /><circle cx="543.24" cy="173.98" r="3" fill="rgba(0,0,0,0.4)" /><circle cx="534.1800000000001" cy="212.93" r="3" fill="rgba(0,0,0,0.4)" /><circle cx="549.35" cy="185.71" r="3" fill="rgba(0,0,0,0.4)" /><circle cx="543.48" cy="237.9" r="3" fill="rgba(0,0,0,0.4)" /><circle cx="541.12" cy="273.59000000000003" r="3" fill="rgba(0,0,0,0.4)" /><circle cx="548.1800000000001" cy="284.72" r="3" fill="rgba(0,0,0,0.4)" /><circle cx="531.1800000000001" cy="186.11" r="3" fill="rgba(0,0,0,0.4)" /><circle cx="543.24" cy="197.46" r="3" fill="rgba(0,0,0,0.4)" /><circle cx="542.1800000000001" cy="208.47" r="3" fill="rgba(0,0,0,0.4)" /><circle cx="527.52" cy="336.43" r="3" fill="rgba(0,0,0,0.4)" /><circle cx="528.88" cy="207.57" r="3" fill="rgba(0,0,0,0.4)" /><circle cx="532.23" cy="294.85" r="3" fill="rgba(0,0,0,0.4)" /><circle cx="528.73" cy="196.71" r="3" fill="rgba(0,0,0,0.4)" /><circle cx="528.87" cy="216.12" r="3" fill="rgba(0,0,0,0.4)" /><circle cx="534.3" cy="209.52" r="3" fill="rgba(0,0,0,0.4)" /><circle cx="546.24" cy="232.75" r="3" fill="rgba(0,0,0,0.4)" /><circle cx="548.36" cy="236.69" r="3" fill="rgba(0,0,0,0.4)" /><circle cx="531.32" cy="245.42000000000002" r="3" fill="rgba(0,0,0,0.4)" /><circle cx="533.33" cy="224.34" r="3" fill="rgba(0,0,0,0.4)" /><circle cx="529.17" cy="191.1" r="3" fill="rgba(0,0,0,0.4)" /><circle cx="530.19" cy="266.34000000000003" r="3" fill="rgba(0,0,0,0.4)" /><circle cx="531.42" cy="208.63" r="3" fill="rgba(0,0,0,0.4)" /><circle cx="539.55" cy="181.87" r="3" fill="rgba(0,0,0,0.4)" /><circle cx="539.42" cy="218.33" r="3" fill="rgba(0,0,0,0.4)" /><circle cx="550.1800000000001" cy="183.91" r="3" fill="rgba(0,0,0,0.4)" /><circle cx="538.72" cy="147.95000000000002" r="3" fill="rgba(0,0,0,0.4)" /><circle cx="544.66" cy="168.75" r="3" fill="rgba(0,0,0,0.4)" /><circle cx="528.62" cy="227.45000000000002" r="3" fill="rgba(0,0,0,0.4)" /><circle cx="546.62" cy="281.61" r="3" fill="rgba(0,0,0,0.4)" /><circle cx="533.9" cy="215.26" r="3" fill="rgba(0,0,0,0.4)" /><circle cx="534.54" cy="255.73000000000002" r="3" fill="rgba(0,0,0,0.4)" /><circle cx="538.19" cy="140.58" r="3" fill="rgba(0,0,0,0.4)" /><circle cx="541.58" cy="286.25" r="3" fill="rgba(0,0,0,0.4)" /><circle cx="541.98" cy="273.36" r="3" fill="rgba(0,0,0,0.4)" /><circle cx="542.41" cy="222.51" r="3" fill="rgba(0,0,0,0.4)" /><circle cx="542.28" cy="190.9" r="3" fill="rgba(0,0,0,0.4)" /><circle cx="541.29" cy="255.14000000000001" r="3" fill="rgba(0,0,0,0.4)" /><circle cx="535.1" cy="193.35" r="3" fill="rgba(0,0,0,0.4)" /><circle cx="536.7" cy="270.34000000000003" r="3" fill="rgba(0,0,0,0.4)" /><circle cx="527.97" cy="210.1" r="3" fill="rgba(0,0,0,0.4)" /><circle cx="550.0600000000001" cy="174.67000000000002" r="3" fill="rgba(0,0,0,0.4)" /><circle cx="535.21" cy="278.96" r="3" fill="rgba(0,0,0,0.4)" /><circle cx="527.34" cy="256.28000000000003" r="3" fill="rgba(0,0,0,0.4)" /><circle cx="547.67" cy="292.46" r="3" fill="rgba(0,0,0,0.4)" /><circle cx="543.88" cy="291.52" r="3" fill="rgba(0,0,0,0.4)" /><circle cx="540.07" cy="227.70000000000002" r="3" fill="rgba(0,0,0,0.4)" /><circle cx="544.11" cy="252" r="3" fill="rgba(0,0,0,0.4)" /><circle cx="527.04" cy="189.07" r="3" fill="rgba(0,0,0,0.4)" /><circle cx="529.35" cy="197.73000000000002" r="3" fill="rgba(0,0,0,0.4)" /><circle cx="533.5600000000001" cy="193.09" r="3" fill="rgba(0,0,0,0.4)" /><circle cx="537.74" cy="304.2" r="3" fill="rgba(0,0,0,0.4)" /><circle cx="540.86" cy="173.89000000000001" r="3" fill="rgba(0,0,0,0.4)" /><circle cx="529.45" cy="185.36" r="3" fill="rgba(0,0,0,0.4)" /><circle cx="540.03" cy="160.68" r="3" fill="rgba(0,0,0,0.4)" /><circle cx="538.09" cy="296.62" r="3" fill="rgba(0,0,0,0.4)" /></g></svg>