<svg xmlns="http://www.w3.org/2000/svg" width="686.2" height="545" font-family="DejaVu Sans, Liberation Sans, Arial, sans-serif" fill="black"><rect width="100%" height="100%" fill="white" /><line x1="72.2" y1="494" x2="672.2" y2="494" stroke="#000000" stroke-width="1" /><line x1="72.2" y1="44" x2="72.2" y2="494" stroke="#000000" stroke-width="1" /><line x1="72.2" y1="404" x2="672.2" y2="404" stroke="#cccccc" stroke-width="1" /><line x1="72.2" y1="314" x2="672.2" y2="314" stroke="#cccccc" stroke-width="1" /><line x1="72.2" y1="224" x2="672.2" y2="224" stroke="#cccccc" stroke-width="1" /><line x1="72.2" y1="134" x2="672.2" y2="134" stroke="#cccccc" stroke-width="1" /><line x1="72.2" y1="44" x2="672.2" y2="44" stroke="#cccccc" stroke-width="1" /><text x="192.20000000000002" y="511" font-size="12" text-anchor="middle">Control</text><line x1="192.20000000000002" y1="494" x2="192.20000000000002" y2="499" stroke="#000000" stroke-width="1" /><text x="312.2" y="511" font-size="12" text-anchor="middle">Treatment A</text><line x1="312.2" y1="494" x2="312.2" y2="499" stroke="#000000" stroke-width="1" /><text x="432.2" y="511" font-size="12" text-anchor="middle">Treatment B</text><line x1="432.2" y1="494" x2="432.2" y2="499" stroke="#000000" stroke-width="1" /><text x="552.2" y="511" font-size="12" text-anchor="middle">Treatment C</text><line x1="552.2" y1="494" x2="552.2" y2="499" stroke="#000000" stroke-width="1" /><line x1="67.2" y1="494" x2="72.2" y2="494" stroke="#000000" stroke-width="1" /><text x="64.2" y="498.2" font-size="12" text-anchor="end">0</text><line x1="67.2" y1="404" x2="72.2" y2="404" stroke="#000000" stroke-width="1" /><text x="64.2" y="408.2" font-size="12" text-anchor="end">2.5</text><line x1="67.2" y1="314" x2="72.2" y2="314" stroke="#000000" stroke-width="1" /><text x="64.2" y="318.2" font-size="12" text-anchor="end">5</text><line x1="67.2" y1="224" x2="72.2" y2="224" stroke="#000000" stroke-width="1" /><text x="64.2" y="228.20000000000002" font-size="12" text-anchor="end">7.5</text><line x1="67.2" y1="134" x2="72.2" y2="134" stroke="#000000" stroke-width="1" /><text x="64.2" y="138.20000000000002" font-size="12" text-anchor="end">10</text><line x1="67.2" y1="44" x2="72.2" y2="44" stroke="#000000" stroke-width="1" /><text x="64.2" y="48.2" font-size="12" text-anchor="end">12.5</text><text x="7" y="272.5" font-size="14" text-anchor="middle" transform="rotate(-90,7,272.5)">Value</text><text x="372.2" y="22" font-size="18" text-anchor="middle">Box Plot + Swarm Overlay</text><rect x="144.20000000000002" y="299.55" width="96" height="42.52" fill="#4682b4" /><line x1="144.20000000000002" y1="314.6" x2="240.20000000000002" y2="314.6" stroke="#ffffff" stroke-width="1.5" /><line x1="192.20000000000002" y1="403.62" x2="192.20000000000002" y2="342.07" stroke="#4682b4" stroke-width="1" /><line x1="192.20000000000002" y1="299.55" x2="192.20000000000002" y2="244.53" stroke="#4682b4" stroke-width="1" /><line x1="168.20000000000002" y1="403.62" x2="216.20000000000002" y2="403.62" stroke="#4682b4" stroke-width="1" /><line x1="168.20000000000002" y1="244.53" x2="216.20000000000002" y2="244.53" stroke="#4682b4" stroke-width="1" /><rect x="264.2" y="224" width="96" height="54.24" fill="#4682b4" /><line x1="264.2" y1="257.88" x2="360.2" y2="257.88" stroke="#ffffff" stroke-width="1.5" /><line x1="312.2" y1="349.69" x2="312.2" y2="278.24" stroke="#4682b4" stroke-width="1" /><line x1="312.2" y1="224" x2="312.2" y2="144.55" stroke="#4682b4" stroke-width="1" /><line x1="288.2" y1="349.69" x2="336.2" y2="349.69" stroke="#4682b4" stroke-width="1" /><line x1="288.2" y1="144.55" x2="336.2" y2="144.55" stroke="#4682b4" stroke-width="1" /><rect x="384.2" y="323.17" width="96" height="50.4" fill="#4682b4" /><line x1="384.2" y1="343.69" x2="480.2" y2="343.69" stroke="#ffffff" stroke-width="1.5" /><line x1="432.2" y1="426.84000000000003" x2="432.2" y2="373.57" stroke="#4682b4" stroke-width="1" /><line x1="432.2" y1="323.17" x2="432.2" y2="283.85" stroke="#4682b4" stroke-width="1" /><line x1="408.2" y1="426.84000000000003" x2="456.2" y2="426.84000000000003" stroke="#4682b4" stroke-width="1" /><line x1="408.2" y1="283.85" x2="456.2" y2="283.85" stroke="#4682b4" stroke-width="1" /><rect x="504.2" y="202.68" width="96" height="73.73" fill="#4682b4" /><line x1="504.2" y1="226.82" x2="600.2" y2="226.82" stroke="#ffffff" stroke-width="1.5" /><line x1="552.2" y1="343.45" x2="552.2" y2="276.41" stroke="#4682b4" stroke-width="1" /><line x1="552.2" y1="202.68" x2="552.2" y2="154.71" stroke="#4682b4" stroke-width="1" /><line x1="528.2" y1="343.45" x2="576.2" y2="343.45" stroke="#4682b4" stroke-width="1" /><line x1="528.2" y1="154.71" x2="576.2" y2="154.71" stroke="#4682b4" stroke-width="1" /><circle cx="186.20000000000002" cy="283.62" r="3" fill="rgba(0,0,0,0.4)" /><circle cx="192.20000000000002" cy="288.24" r="3" fill="rgba(0,0,0,0.4)" /><circle cx="204.20000000000002" cy="382.97" r="3" fill="rgba(0,0,0,0.4)" /><circle cx="201.20000000000002" cy="297.71" r="3" fill="rgba(0,0,0,0.4)" /><circle cx="204.20000000000002" cy="343.37" r="3" fill="rgba(0,0,0,0.4)" /><circle cx="207.20000000000002" cy="301.1" r="3" fill="rgba(0,0,0,0.4)" /><circle cx="192.20000000000002" cy="207.86" r="3" fill="rgba(0,0,0,0.4)" /><circle cx="192.20000000000002" cy="309.99" r="3" fill="rgba(0,0,0,0.4)" /><circle cx="198.20000000000002" cy="342.19" r="3" fill="rgba(0,0,0,0.4)" /><circle cx="186.20000000000002" cy="381.64" r="3" fill="rgba(0,0,0,0.4)" /><circle cx="186.20000000000002" cy="255.13" r="3" fill="rgba(0,0,0,0.4)" /><circle cx="186.20000000000002" cy="327.41" r="3" fill="rgba(0,0,0,0.4)" /><circle cx="186.20000000000002" cy="342.29" r="3" fill="rgba(0,0,0,0.4)" /><circle cx="192.20000000000002" cy="328.76" r="3" fill="rgba(0,0,0,0.4)" /><circle cx="195.20000000000002" cy="347.7" r="3" fill="rgba(0,0,0,0.4)" /><circle cx="192.20000000000002" cy="342.03000000000003" r="3" fill="rgba(0,0,0,0.4)" /><circle cx="180.20000000000002" cy="308.62" r="3" fill="rgba(0,0,0,0.4)" /><circle cx="213.20000000000002" cy="315.14" r="3" fill="rgba(0,0,0,0.4)" /><circle cx="198.20000000000002" cy="270.02" r="3" fill="rgba(0,0,0,0.4)" /><circle cx="189.20000000000002" cy="294.17" r="3" fill="rgba(0,0,0,0.4)" /><circle cx="192.20000000000002" cy="362.55" r="3" fill="rgba(0,0,0,0.4)" /><circle cx="192.20000000000002" cy="252.75" r="3" fill="rgba(0,0,0,0.4)" /><circle cx="204.20000000000002" cy="331.22" r="3" fill="rgba(0,0,0,0.4)" /><circle cx="189.20000000000002" cy="322.06" r="3" fill="rgba(0,0,0,0.4)" /><circle cx="180.20000000000002" cy="345.75" r="3" fill="rgba(0,0,0,0.4)" /><circle cx="177.20000000000002" cy="301.82" r="3" fill="rgba(0,0,0,0.4)" /><circle cx="201.20000000000002" cy="352.39" r="3" fill="rgba(0,0,0,0.4)" /><circle cx="192.20000000000002" cy="264.91" r="3" fill="rgba(0,0,0,0.4)" /><circle cx="207.20000000000002" cy="310.1" r="3" fill="rgba(0,0,0,0.4)" /><circle cx="192.20000000000002" cy="278.81" r="3" fill="rgba(0,0,0,0.4)" /><circle cx="186.20000000000002" cy="305.8" r="3" fill="rgba(0,0,0,0.4)" /><circle cx="201.20000000000002" cy="305.02" r="3" fill="rgba(0,0,0,0.4)" /><circle cx="186.20000000000002" cy="313.16" r="3" fill="rgba(0,0,0,0.4)" /><circle cx="198.20000000000002" cy="311.09000000000003" r="3" fill="rgba(0,0,0,0.4)" /><circle cx="192.20000000000002" cy="244.53" r="3" fill="rgba(0,0,0,0.4)" /><circle cx="192.20000000000002" cy="334.87" r="3" fill="rgba(0,0,0,0.4)" /><circle cx="195.20000000000002" cy="323.47" r="3" fill="rgba(0,0,0,0.4)" /><circle cx="213.20000000000002" cy="301.97" r="3" fill="rgba(0,0,0,0.4)" /><circle cx="195.20000000000002" cy="297.56" r="3" fill="rgba(0,0,0,0.4)" /><circle cx="198.20000000000002" cy="290.39" r="3" fill="rgba(0,0,0,0.4)" /><circle cx="192.20000000000002" cy="316.14" r="3" fill="rgba(0,0,0,0.4)" /><circle cx="177.20000000000002" cy="314.07" r="3" fill="rgba(0,0,0,0.4)" /><circle cx="204.20000000000002" cy="319.48" r="3" fill="rgba(0,0,0,0.4)" /><circle cx="198.20000000000002" cy="252.87" r="3" fill="rgba(0,0,0,0.4)" /><circle cx="171.20000000000002" cy="306.34000000000003" r="3" fill="rgba(0,0,0,0.4)" /><circle cx="189.20000000000002" cy="300.17" r="3" fill="rgba(0,0,0,0.4)" /><circle cx="183.20000000000002" cy="300.51" r="3" fill="rgba(0,0,0,0.4)" /><circle cx="198.20000000000002" cy="328.88" r="3" fill="rgba(0,0,0,0.4)" /><circle cx="192.20000000000002" cy="377.29" r="3" fill="rgba(0,0,0,0.4)" /><circle cx="192.20000000000002" cy="403.62" r="3" fill="rgba(0,0,0,0.4)" /><circle cx="198.20000000000002" cy="280.86" r="3" fill="rgba(0,0,0,0.4)" /><circle cx="195.20000000000002" cy="303.8" r="3" fill="rgba(0,0,0,0.4)" /><circle cx="198.20000000000002" cy="317.89" r="3" fill="rgba(0,0,0,0.4)" /><circle cx="198.20000000000002" cy="379.36" r="3" fill="rgba(0,0,0,0.4)" /><circle cx="183.20000000000002" cy="318.90000000000003" r="3" fill="rgba(0,0,0,0.4)" /><circle cx="171.20000000000002" cy="315.27" r="3" fill="rgba(0,0,0,0.4)" /><circle cx="189.20000000000002" cy="348.17" r="3" fill="rgba(0,0,0,0.4)" /><circle cx="210.20000000000002" cy="346.05" r="3" fill="rgba(0,0,0,0.4)" /><circle cx="177.20000000000002" cy="320.3" r="3" fill="rgba(0,0,0,0.4)" /><circle cx="174.20000000000002" cy="346.49" r="3" fill="rgba(0,0,0,0.4)" /><circle cx="306.2" cy="208.22" r="3" fill="rgba(0,0,0,0.4)" /><circle cx="318.2" cy="256.68" r="3" fill="rgba(0,0,0,0.4)" /><circle cx="309.2" cy="246.99" r="3" fill="rgba(0,0,0,0.4)" /><circle cx="306.2" cy="289.08" r="3" fill="rgba(0,0,0,0.4)" /><circle cx="324.2" cy="260.4" r="3" fill="rgba(0,0,0,0.4)" /><circle cx="306.2" cy="200.59" r="3" fill="rgba(0,0,0,0.4)" /><circle cx="306.2" cy="278" r="3" fill="rgba(0,0,0,0.4)" /><circle cx="318.2" cy="206.88" r="3" fill="rgba(0,0,0,0.4)" /><circle cx="306.2" cy="264.49" r="3" fill="rgba(0,0,0,0.4)" /><circle cx="318.2" cy="199.14000000000001" r="3" fill="rgba(0,0,0,0.4)" /><circle cx="303.2" cy="259.09000000000003" r="3" fill="rgba(0,0,0,0.4)" /><circle cx="318.2" cy="246.14000000000001" r="3" fill="rgba(0,0,0,0.4)" /><circle cx="318.2" cy="230.08" r="3" fill="rgba(0,0,0,0.4)" /><circle cx="312.2" cy="228.42000000000002" r="3" fill="rgba(0,0,0,0.4)" /><circle cx="312.2" cy="187.77" r="3" fill="rgba(0,0,0,0.4)" /><circle cx="300.2" cy="265.44" r="3" fill="rgba(0,0,0,0.4)" /><circle cx="324.2" cy="249.43" r="3" fill="rgba(0,0,0,0.4)" /><circle cx="324.2" cy="274.92" r="3" fill="rgba(0,0,0,0.4)" /><circle cx="324.2" cy="289.54" r="3" fill="rgba(0,0,0,0.4)" /><circle cx="306.2" cy="314.12" r="3" fill="rgba(0,0,0,0.4)" /><circle cx="315.2" cy="251.43" r="3" fill="rgba(0,0,0,0.4)" /><circle cx="297.2" cy="250.89000000000001" r="3" fill="rgba(0,0,0,0.4)" /><circle cx="303.2" cy="248.57" r="3" fill="rgba(0,0,0,0.4)" /><circle cx="312.2" cy="144.55" r="3" fill="rgba(0,0,0,0.4)" /><circle cx="318.2" cy="314.57" r="3" fill="rgba(0,0,0,0.4)" /><circle cx="318.2" cy="269.76" r="3" fill="rgba(0,0,0,0.4)" /><circle cx="318.2" cy="291.94" r="3" fill="rgba(0,0,0,0.4)" /><circle cx="312.2" cy="325.3" r="3" fill="rgba(0,0,0,0.4)" /><circle cx="330.2" cy="275.98" r="3" fill="rgba(0,0,0,0.4)" /><circle cx="300.2" cy="209.5" r="3" fill="rgba(0,0,0,0.4)" /><circle cx="318.2" cy="275.96" r="3" fill="rgba(0,0,0,0.4)" /><circle cx="318.2" cy="262.99" r="3" fill="rgba(0,0,0,0.4)" /><circle cx="330.2" cy="251.75" r="3" fill="rgba(0,0,0,0.4)" /><circle cx="312.2" cy="216.77" r="3" fill="rgba(0,0,0,0.4)" /><circle cx="312.2" cy="303.65000000000003" r="3" fill="rgba(0,0,0,0.4)" /><circle cx="330.2" cy="212.02" r="3" fill="rgba(0,0,0,0.4)" /><circle cx="324.2" cy="208.57" r="3" fill="rgba(0,0,0,0.4)" /><circle cx="312.2" cy="313.99" r="3" fill="rgba(0,0,0,0.4)" /><circle cx="324.2" cy="233.82" r="3" fill="rgba(0,0,0,0.4)" /><circle cx="312.2" cy="296.7" r="3" fill="rgba(0,0,0,0.4)" /><circle cx="309.2" cy="255.49" r="3" fill="rgba(0,0,0,0.4)" /><circle cx="318.2" cy="284.42" r="3" fill="rgba(0,0,0,0.4)" /><circle cx="312.2" cy="349.69" r="3" fill="rgba(0,0,0,0.4)" /><circle cx="312.2" cy="198.12" r="3" fill="rgba(0,0,0,0.4)" /><circle cx="312.2" cy="267.79" r="3" fill="rgba(0,0,0,0.4)" /><circle cx="309.2" cy="222.35" r="3" fill="rgba(0,0,0,0.4)" /><circle cx="312.2" cy="288.90000000000003" r="3" fill="rgba(0,0,0,0.4)" /><circle cx="312.2" cy="261.68" r="3" fill="rgba(0,0,0,0.4)" /><circle cx="312.2" cy="206.15" r="3" fill="rgba(0,0,0,0.4)" /><circle cx="306.2" cy="270.84000000000003" r="3" fill="rgba(0,0,0,0.4)" /><circle cx="318.2" cy="192.69" r="3" fill="rgba(0,0,0,0.4)" /><circle cx="294.2" cy="278.95" r="3" fill="rgba(0,0,0,0.4)" /><circle cx="318.2" cy="308.13" r="3" fill="rgba(0,0,0,0.4)" /><circle cx="312.2" cy="281.97" r="3" fill="rgba(0,0,0,0.4)" /><circle cx="306.2" cy="231.95000000000002" r="3" fill="rgba(0,0,0,0.4)" /><circle cx="300.2" cy="275.33" r="3" fill="rgba(0,0,0,0.4)" /><circle cx="318.2" cy="220.20000000000002" r="3" fill="rgba(0,0,0,0.4)" /><circle cx="303.2" cy="224.55" r="3" fill="rgba(0,0,0,0.4)" /><circle cx="312.2" cy="274.61" r="3" fill="rgba(0,0,0,0.4)" /><circle cx="312.2" cy="241.44" r="3" fill="rgba(0,0,0,0.4)" /><circle cx="432.2" cy="408.84000000000003" r="3" fill="rgba(0,0,0,0.4)" /><circle cx="435.2" cy="320.39" r="3" fill="rgba(0,0,0,0.4)" /><circle cx="432.2" cy="311.23" r="3" fill="rgba(0,0,0,0.4)" /><circle cx="438.2" cy="295.57" r="3" fill="rgba(0,0,0,0.4)" /><circle cx="435.2" cy="326.6" r="3" fill="rgba(0,0,0,0.4)" /><circle cx="426.2" cy="385.15000000000003" r="3" fill="rgba(0,0,0,0.4)" /><circle cx="444.2" cy="386.18" r="3" fill="rgba(0,0,0,0.4)" /><circle cx="441.2" cy="331.66" r="3" fill="rgba(0,0,0,0.4)" /><circle cx="435.2" cy="334.45" r="3" fill="rgba(0,0,0,0.4)" /><circle cx="432.2" cy="426.84000000000003" r="3" fill="rgba(0,0,0,0.4)" /><circle cx="453.2" cy="337.43" r="3" fill="rgba(0,0,0,0.4)" /><circle cx="432.2" cy="367.74" r="3" fill="rgba(0,0,0,0.4)" /><circle cx="432.2" cy="349.16" r="3" fill="rgba(0,0,0,0.4)" /><circle cx="420.2" cy="345.1" r="3" fill="rgba(0,0,0,0.4)" /><circle cx="444.2" cy="373.42" r="3" fill="rgba(0,0,0,0.4)" /><circle cx="438.2" cy="343.08" r="3" fill="rgba(0,0,0,0.4)" /><circle cx="432.2" cy="400" r="3" fill="rgba(0,0,0,0.4)" /><circle cx="429.2" cy="317.21" r="3" fill="rgba(0,0,0,0.4)" /><circle cx="420.2" cy="323.51" r="3" fill="rgba(0,0,0,0.4)" /><circle cx="417.2" cy="336.35" r="3" fill="rgba(0,0,0,0.4)" /><circle cx="438.2" cy="369.11" r="3" fill="rgba(0,0,0,0.4)" /><circle cx="420.2" cy="360.37" r="3" fill="rgba(0,0,0,0.4)" /><circle cx="450.2" cy="376.91" r="3" fill="rgba(0,0,0,0.4)" /><circle cx="438.2" cy="403.41" r="3" fill="rgba(0,0,0,0.4)" /><circle cx="432.2" cy="283.85" r="3" fill="rgba(0,0,0,0.4)" /><circle cx="447.2" cy="335.91" r="3" fill="rgba(0,0,0,0.4)" /><circle cx="432.2" cy="295.17" r="3" fill="rgba(0,0,0,0.4)" /><circle cx="438.2" cy="313.6" r="3" fill="rgba(0,0,0,0.4)" /><circle cx="426.2" cy="358.28000000000003" r="3" fill="rgba(0,0,0,0.4)" /><circle cx="426.2" cy="371.26" r="3" fill="rgba(0,0,0,0.4)" /><circle cx="432.2" cy="245.13" r="3" fill="rgba(0,0,0,0.4)" /><circle cx="444.2" cy="358.54" r="3" fill="rgba(0,0,0,0.4)" /><circle cx="426.2" cy="309.65000000000003" r="3" fill="rgba(0,0,0,0.4)" /><circle cx="450.2" cy="360.40000000000003" r="3" fill="rgba(0,0,0,0.4)" /><circle cx="432.2" cy="305.07" r="3" fill="rgba(0,0,0,0.4)" /><circle cx="432.2" cy="388.53000000000003" r="3" fill="rgba(0,0,0,0.4)" /><circle cx="438.2" cy="358.18" r="3" fill="rgba(0,0,0,0.4)" /><circle cx="432.2" cy="374.04" r="3" fill="rgba(0,0,0,0.4)" /><circle cx="414.2" cy="362.11" r="3" fill="rgba(0,0,0,0.4)" /><circle cx="438.2" cy="284.40000000000003" r="3" fill="rgba(0,0,0,0.4)" /><circle cx="432.2" cy="342.24" r="3" fill="rgba(0,0,0,0.4)" /><circle cx="444.2" cy="344.24" r="3" fill="rgba(0,0,0,0.4)" /><circle cx="438.2" cy="391.01" r="3" fill="rgba(0,0,0,0.4)" /><circle cx="426.2" cy="343.13" r="3" fill="rgba(0,0,0,0.4)" /><circle cx="429.2" cy="331.59000000000003" r="3" fill="rgba(0,0,0,0.4)" /><circle cx="447.2" cy="325.1" r="3" fill="rgba(0,0,0,0.4)" /><circle cx="438.2" cy="307.13" r="3" fill="rgba(0,0,0,0.4)" /><circle cx="441.2" cy="322.14" r="3" fill="rgba(0,0,0,0.4)" /><circle cx="423.2" cy="334.71" r="3" fill="rgba(0,0,0,0.4)" /><circle cx="438.2" cy="382.67" r="3" fill="rgba(0,0,0,0.4)" /><circle cx="426.2" cy="298.46" r="3" fill="rgba(0,0,0,0.4)" /><circle cx="429.2" cy="323.51" r="3" fill="rgba(0,0,0,0.4)" /><circle cx="438.2" cy="376.53000000000003" r="3" fill="rgba(0,0,0,0.4)" /><circle cx="432.2" cy="380.73" r="3" fill="rgba(0,0,0,0.4)" /><circle cx="426.2" cy="392.74" r="3" fill="rgba(0,0,0,0.4)" /><circle cx="420.2" cy="374.42" r="3" fill="rgba(0,0,0,0.4)" /><circle cx="432.2" cy="357.16" r="3" fill="rgba(0,0,0,0.4)" /><circle cx="423.2" cy="318.13" r="3" fill="rgba(0,0,0,0.4)" /><circle cx="450.2" cy="345.90000000000003" r="3" fill="rgba(0,0,0,0.4)" /><circle cx="414.2" cy="325.92" r="3" fill="rgba(0,0,0,0.4)" /><circle cx="558.2" cy="196.17000000000002" r="3" fill="rgba(0,0,0,0.4)" /><circle cx="564.2" cy="213.8" r="3" fill="rgba(0,0,0,0.4)" /><circle cx="558.2" cy="343.45" r="3" fill="rgba(0,0,0,0.4)" /><circle cx="534.2" cy="201.65" r="3" fill="rgba(0,0,0,0.4)" /><circle cx="543.2" cy="294.32" r="3" fill="rgba(0,0,0,0.4)" /><circle cx="546.2" cy="186.78" r="3" fill="rgba(0,0,0,0.4)" /><circle cx="570.2" cy="224.17000000000002" r="3" fill="rgba(0,0,0,0.4)" /><circle cx="540.2" cy="198.04" r="3" fill="rgba(0,0,0,0.4)" /><circle cx="546.2" cy="248.15" r="3" fill="rgba(0,0,0,0.4)" /><circle cx="546.2" cy="282.41" r="3" fill="rgba(0,0,0,0.4)" /><circle cx="558.2" cy="293.09000000000003" r="3" fill="rgba(0,0,0,0.4)" /><circle cx="570.2" cy="198.43" r="3" fill="rgba(0,0,0,0.4)" /><circle cx="558.2" cy="209.32" r="3" fill="rgba(0,0,0,0.4)" /><circle cx="558.2" cy="219.89000000000001" r="3" fill="rgba(0,0,0,0.4)" /><circle cx="552.2" cy="342.73" r="3" fill="rgba(0,0,0,0.4)" /><circle cx="552.2" cy="219.02" r="3" fill="rgba(0,0,0,0.4)" /><circle cx="546.2" cy="302.82" r="3" fill="rgba(0,0,0,0.4)" /><circle cx="552.2" cy="208.6" r="3" fill="rgba(0,0,0,0.4)" /><circle cx="558.2" cy="227.24" r="3" fill="rgba(0,0,0,0.4)" /><circle cx="564.2" cy="220.9" r="3" fill="rgba(0,0,0,0.4)" /><circle cx="552.2" cy="243.20000000000002" r="3" fill="rgba(0,0,0,0.4)" /><circle cx="558.2" cy="246.98000000000002" r="3" fill="rgba(0,0,0,0.4)" /><circle cx="552.2" cy="255.37" r="3" fill="rgba(0,0,0,0.4)" /><circle cx="558.2" cy="235.12" r="3" fill="rgba(0,0,0,0.4)" /><circle cx="546.2" cy="203.21" r="3" fill="rgba(0,0,0,0.4)" /><circle cx="552.2" cy="275.45" r="3" fill="rgba(0,0,0,0.4)" /><circle cx="546.2" cy="220.05" r="3" fill="rgba(0,0,0,0.4)" /><circle cx="552.2" cy="194.35" r="3" fill="rgba(0,0,0,0.4)" /><circle cx="546.2" cy="229.36" r="3" fill="rgba(0,0,0,0.4)" /><circle cx="546.2" cy="196.32" r="3" fill="rgba(0,0,0,0.4)" /><circle cx="552.2" cy="161.8" r="3" fill="rgba(0,0,0,0.4)" /><circle cx="552.2" cy="181.76" r="3" fill="rgba(0,0,0,0.4)" /><circle cx="546.2" cy="238.11" r="3" fill="rgba(0,0,0,0.4)" /><circle cx="549.2" cy="290.11" r="3" fill="rgba(0,0,0,0.4)" /><circle cx="552.2" cy="226.41" r="3" fill="rgba(0,0,0,0.4)" /><circle cx="546.2" cy="265.26" r="3" fill="rgba(0,0,0,0.4)" /><circle cx="552.2" cy="154.71" r="3" fill="rgba(0,0,0,0.4)" /><circle cx="564.2" cy="294.56" r="3" fill="rgba(0,0,0,0.4)" /><circle cx="552.2" cy="282.19" r="3" fill="rgba(0,0,0,0.4)" /><circle cx="552.2" cy="233.37" r="3" fill="rgba(0,0,0,0.4)" /><circle cx="558.2" cy="203.02" r="3" fill="rgba(0,0,0,0.4)" /><circle cx="558.2" cy="264.69" r="3" fill="rgba(0,0,0,0.4)" /><circle cx="540.2" cy="205.38" r="3" fill="rgba(0,0,0,0.4)" /><circle cx="558.2" cy="279.29" r="3" fill="rgba(0,0,0,0.4)" /><circle cx="540.2" cy="221.45000000000002" r="3" fill="rgba(0,0,0,0.4)" /><circle cx="564.2" cy="187.45000000000002" r="3" fill="rgba(0,0,0,0.4)" /><circle cx="555.2" cy="287.56" r="3" fill="rgba(0,0,0,0.4)" /><circle cx="564.2" cy="265.79" r="3" fill="rgba(0,0,0,0.4)" /><circle cx="558.2" cy="300.52" r="3" fill="rgba(0,0,0,0.4)" /><circle cx="552.2" cy="299.62" r="3" fill="rgba(0,0,0,0.4)" /><circle cx="564.2" cy="238.35" r="3" fill="rgba(0,0,0,0.4)" /><circle cx="552.2" cy="261.68" r="3" fill="rgba(0,0,0,0.4)" /><circle cx="552.2" cy="201.26" r="3" fill="rgba(0,0,0,0.4)" /><circle cx="546.2" cy="209.58" r="3" fill="rgba(0,0,0,0.4)" /><circle cx="564.2" cy="205.12" r="3" fill="rgba(0,0,0,0.4)" /><circle cx="552.2" cy="311.79" r="3" fill="rgba(0,0,0,0.4)" /><circle cx="558.2" cy="186.70000000000002" r="3" fill="rgba(0,0,0,0.4)" /><circle cx="564.2" cy="197.71" r="3" fill="rgba(0,0,0,0.4)" /><circle cx="552.2" cy="174.01" r="3" fill="rgba(0,0,0,0.4)" /><circle cx="564.2" cy="304.52" r="3" fill="rgba(0,0,0,0.4)" /></svg>