<svg xmlns="http://www.w3.org/2000/svg" width="673" height="545" font-family="DejaVu Sans, Liberation Sans, Arial, sans-serif" fill="black"><rect width="100%" height="100%" fill="white" /><defs><clipPath id="kuva-clip-2"><rect x="59" y="44" width="600" height="450"/></clipPath></defs><line x1="59" y1="404" x2="659" y2="404" stroke="#cccccc" stroke-width="1" /><line x1="59" y1="314" x2="659" y2="314" stroke="#cccccc" stroke-width="1" /><line x1="59" y1="224" x2="659" y2="224" stroke="#cccccc" stroke-width="1" /><line x1="59" y1="134" x2="659" y2="134" stroke="#cccccc" stroke-width="1" /><line x1="59" y1="44" x2="659" y2="44" stroke="#cccccc" stroke-width="1" /><line x1="59" y1="494" x2="659" y2="494" stroke="#000000" stroke-width="1" /><line x1="59" y1="44" x2="59" y2="494" stroke="#000000" stroke-width="1" /><text x="179" y="511" font-size="12" text-anchor="middle">Control</text><line x1="179" y1="494" x2="179" y2="499" stroke="#000000" stroke-width="1" /><text x="299" y="511" font-size="12" text-anchor="middle">Treatment A</text><line x1="299" y1="494" x2="299" y2="499" stroke="#000000" stroke-width="1" /><text x="419" y="511" font-size="12" text-anchor="middle">Treatment B</text><line x1="419" y1="494" x2="419" y2="499" stroke="#000000" stroke-width="1" /><text x="539" y="511" font-size="12" text-anchor="middle">Treatment C</text><line x1="539" y1="494" x2="539" y2="499" stroke="#000000" stroke-width="1" /><line x1="54" y1="494" x2="59" y2="494" stroke="#000000" stroke-width="1" /><text x="51" y="498.2" font-size="12" text-anchor="end">0</text><line x1="54" y1="404" x2="59" y2="404" stroke="#000000" stroke-width="1" /><text x="51" y="408.2" font-size="12" text-anchor="end">2.5</text><line x1="54" y1="314" x2="59" y2="314" stroke="#000000" stroke-width="1" /><text x="51" y="318.2" font-size="12" text-anchor="end">5</text><line x1="54" y1="224" x2="59" y2="224" stroke="#000000" stroke-width="1" /><text x="51" y="228.20000000000002" font-size="12" text-anchor="end">7.5</text><line x1="54" y1="134" x2="59" y2="134" stroke="#000000" stroke-width="1" /><text x="51" y="138.20000000000002" font-size="12" text-anchor="end">10</text><line x1="54" y1="44" x2="59" y2="44" stroke="#000000" stroke-width="1" /><text x="51" y="48.2" font-size="12" text-anchor="end">12.5</text><text x="15" y="272.5" font-size="14" text-anchor="middle" transform="rotate(-90,15,272.5)">Value</text><text x="359" y="22" font-size="18" text-anchor="middle">Box Plot + Swarm Overlay</text><g clip-path="url(#kuva-clip-2)"><rect x="131" y="299.55" width="96" height="42.52" fill="#4682b4" /><line x1="131" y1="314.6" x2="227" y2="314.6" stroke="#ffffff" stroke-width="1.5" /><line x1="179" y1="403.62" x2="179" y2="342.07" stroke="#4682b4" stroke-width="1" /><line x1="179" y1="299.55" x2="179" y2="244.53" stroke="#4682b4" stroke-width="1" /><line x1="155" y1="403.62" x2="203" y2="403.62" stroke="#4682b4" stroke-width="1" /><line x1="155" y1="244.53" x2="203" y2="244.53" stroke="#4682b4" stroke-width="1" /><rect x="251" y="224" width="96" height="54.24" fill="#4682b4" /><line x1="251" y1="257.88" x2="347" y2="257.88" stroke="#ffffff" stroke-width="1.5" /><line x1="299" y1="349.69" x2="299" y2="278.24" stroke="#4682b4" stroke-width="1" /><line x1="299" y1="224" x2="299" y2="144.55" stroke="#4682b4" stroke-width="1" /><line x1="275" y1="349.69" x2="323" y2="349.69" stroke="#4682b4" stroke-width="1" /><line x1="275" y1="144.55" x2="323" y2="144.55" stroke="#4682b4" stroke-width="1" /><rect x="371" y="323.17" width="96" height="50.4" fill="#4682b4" /><line x1="371" y1="343.69" x2="467" y2="343.69" stroke="#ffffff" stroke-width="1.5" /><line x1="419" y1="426.84000000000003" x2="419" y2="373.57" stroke="#4682b4" stroke-width="1" /><line x1="419" y1="323.17" x2="419" y2="283.85" stroke="#4682b4" stroke-width="1" /><line x1="395" y1="426.84000000000003" x2="443" y2="426.84000000000003" stroke="#4682b4" stroke-width="1" /><line x1="395" y1="283.85" x2="443" y2="283.85" stroke="#4682b4" stroke-width="1" /><rect x="491" y="202.68" width="96" height="73.73" fill="#4682b4" /><line x1="491" y1="226.82" x2="587" y2="226.82" stroke="#ffffff" stroke-width="1.5" /><line x1="539" y1="343.45" x2="539" y2="276.41" stroke="#4682b4" stroke-width="1" /><line x1="539" y1="202.68" x2="539" y2="154.71" stroke="#4682b4" stroke-width="1" /><line x1="515" y1="343.45" x2="563" y2="343.45" stroke="#4682b4" stroke-width="1" /><line x1="515" y1="154.71" x2="563" y2="154.71" stroke="#4682b4" stroke-width="1" /><circle cx="173" cy="283.62" r="3" fill="rgba(0,0,0,0.4)" /><circle cx="179" cy="288.24" r="3" fill="rgba(0,0,0,0.4)" /><circle cx="191" cy="382.97" r="3" fill="rgba(0,0,0,0.4)" /><circle cx="188" cy="297.71" r="3" fill="rgba(0,0,0,0.4)" /><circle cx="191" cy="343.37" r="3" fill="rgba(0,0,0,0.4)" /><circle cx="194" cy="301.1" r="3" fill="rgba(0,0,0,0.4)" /><circle cx="179" cy="207.86" r="3" fill="rgba(0,0,0,0.4)" /><circle cx="179" cy="309.99" r="3" fill="rgba(0,0,0,0.4)" /><circle cx="185" cy="342.19" r="3" fill="rgba(0,0,0,0.4)" /><circle cx="173" cy="381.64" r="3" fill="rgba(0,0,0,0.4)" /><circle cx="173" cy="255.13" r="3" fill="rgba(0,0,0,0.4)" /><circle cx="173" cy="327.41" r="3" fill="rgba(0,0,0,0.4)" /><circle cx="173" cy="342.29" r="3" fill="rgba(0,0,0,0.4)" /><circle cx="179" cy="328.76" r="3" fill="rgba(0,0,0,0.4)" /><circle cx="182" cy="347.7" r="3" fill="rgba(0,0,0,0.4)" /><circle cx="179" cy="342.03000000000003" r="3" fill="rgba(0,0,0,0.4)" /><circle cx="167" cy="308.62" r="3" fill="rgba(0,0,0,0.4)" /><circle cx="200" cy="315.14" r="3" fill="rgba(0,0,0,0.4)" /><circle cx="185" cy="270.02" r="3" fill="rgba(0,0,0,0.4)" /><circle cx="176" cy="294.17" r="3" fill="rgba(0,0,0,0.4)" /><circle cx="179" cy="362.55" r="3" fill="rgba(0,0,0,0.4)" /><circle cx="179" cy="252.75" r="3" fill="rgba(0,0,0,0.4)" /><circle cx="191" cy="331.22" r="3" fill="rgba(0,0,0,0.4)" /><circle cx="176" cy="322.06" r="3" fill="rgba(0,0,0,0.4)" /><circle cx="167" cy="345.75" r="3" fill="rgba(0,0,0,0.4)" /><circle cx="164" cy="301.82" r="3" fill="rgba(0,0,0,0.4)" /><circle cx="188" cy="352.39" r="3" fill="rgba(0,0,0,0.4)" /><circle cx="179" cy="264.91" r="3" fill="rgba(0,0,0,0.4)" /><circle cx="194" cy="310.1" r="3" fill="rgba(0,0,0,0.4)" /><circle cx="179" cy="278.81" r="3" fill="rgba(0,0,0,0.4)" /><circle cx="173" cy="305.8" r="3" fill="rgba(0,0,0,0.4)" /><circle cx="188" cy="305.02" r="3" fill="rgba(0,0,0,0.4)" /><circle cx="173" cy="313.16" r="3" fill="rgba(0,0,0,0.4)" /><circle cx="185" cy="311.09000000000003" r="3" fill="rgba(0,0,0,0.4)" /><circle cx="179" cy="244.53" r="3" fill="rgba(0,0,0,0.4)" /><circle cx="179" cy="334.87" r="3" fill="rgba(0,0,0,0.4)" /><circle cx="182" cy="323.47" r="3" fill="rgba(0,0,0,0.4)" /><circle cx="200" cy="301.97" r="3" fill="rgba(0,0,0,0.4)" /><circle cx="182" cy="297.56" r="3" fill="rgba(0,0,0,0.4)" /><circle cx="185" cy="290.39" r="3" fill="rgba(0,0,0,0.4)" /><circle cx="179" cy="316.14" r="3" fill="rgba(0,0,0,0.4)" /><circle cx="164" cy="314.07" r="3" fill="rgba(0,0,0,0.4)" /><circle cx="191" cy="319.48" r="3" fill="rgba(0,0,0,0.4)" /><circle cx="185" cy="252.87" r="3" fill="rgba(0,0,0,0.4)" /><circle cx="158" cy="306.34000000000003" r="3" fill="rgba(0,0,0,0.4)" /><circle cx="176" cy="300.17" r="3" fill="rgba(0,0,0,0.4)" /><circle cx="170" cy="300.51" r="3" fill="rgba(0,0,0,0.4)" /><circle cx="185" cy="328.88" r="3" fill="rgba(0,0,0,0.4)" /><circle cx="179" cy="377.29" r="3" fill="rgba(0,0,0,0.4)" /><circle cx="179" cy="403.62" r="3" fill="rgba(0,0,0,0.4)" /><circle cx="185" cy="280.86" r="3" fill="rgba(0,0,0,0.4)" /><circle cx="182" cy="303.8" r="3" fill="rgba(0,0,0,0.4)" /><circle cx="185" cy="317.89" r="3" fill="rgba(0,0,0,0.4)" /><circle cx="185" cy="379.36" r="3" fill="rgba(0,0,0,0.4)" /><circle cx="170" cy="318.90000000000003" r="3" fill="rgba(0,0,0,0.4)" /><circle cx="158" cy="315.27" r="3" fill="rgba(0,0,0,0.4)" /><circle cx="176" cy="348.17" r="3" fill="rgba(0,0,0,0.4)" /><circle cx="197" cy="346.05" r="3" fill="rgba(0,0,0,0.4)" /><circle cx="164" cy="320.3" r="3" fill="rgba(0,0,0,0.4)" /><circle cx="161" cy="346.49" r="3" fill="rgba(0,0,0,0.4)" /><circle cx="293" cy="208.22" r="3" fill="rgba(0,0,0,0.4)" /><circle cx="305" cy="256.68" r="3" fill="rgba(0,0,0,0.4)" /><circle cx="296" cy="246.99" r="3" fill="rgba(0,0,0,0.4)" /><circle cx="293" cy="289.08" r="3" fill="rgba(0,0,0,0.4)" /><circle cx="311" cy="260.4" r="3" fill="rgba(0,0,0,0.4)" /><circle cx="293" cy="200.59" r="3" fill="rgba(0,0,0,0.4)" /><circle cx="293" cy="278" r="3" fill="rgba(0,0,0,0.4)" /><circle cx="305" cy="206.88" r="3" fill="rgba(0,0,0,0.4)" /><circle cx="293" cy="264.49" r="3" fill="rgba(0,0,0,0.4)" /><circle cx="305" cy="199.14000000000001" r="3" fill="rgba(0,0,0,0.4)" /><circle cx="290" cy="259.09000000000003" r="3" fill="rgba(0,0,0,0.4)" /><circle cx="305" cy="246.14000000000001" r="3" fill="rgba(0,0,0,0.4)" /><circle cx="305" cy="230.08" r="3" fill="rgba(0,0,0,0.4)" /><circle cx="299" cy="228.42000000000002" r="3" fill="rgba(0,0,0,0.4)" /><circle cx="299" cy="187.77" r="3" fill="rgba(0,0,0,0.4)" /><circle cx="287" cy="265.44" r="3" fill="rgba(0,0,0,0.4)" /><circle cx="311" cy="249.43" r="3" fill="rgba(0,0,0,0.4)" /><circle cx="311" cy="274.92" r="3" fill="rgba(0,0,0,0.4)" /><circle cx="311" cy="289.54" r="3" fill="rgba(0,0,0,0.4)" /><circle cx="293" cy="314.12" r="3" fill="rgba(0,0,0,0.4)" /><circle cx="302" cy="251.43" r="3" fill="rgba(0,0,0,0.4)" /><circle cx="284" cy="250.89000000000001" r="3" fill="rgba(0,0,0,0.4)" /><circle cx="290" cy="248.57" r="3" fill="rgba(0,0,0,0.4)" /><circle cx="299" cy="144.55" r="3" fill="rgba(0,0,0,0.4)" /><circle cx="305" cy="314.57" r="3" fill="rgba(0,0,0,0.4)" /><circle cx="305" cy="269.76" r="3" fill="rgba(0,0,0,0.4)" /><circle cx="305" cy="291.94" r="3" fill="rgba(0,0,0,0.4)" /><circle cx="299" cy="325.3" r="3" fill="rgba(0,0,0,0.4)" /><circle cx="317" cy="275.98" r="3" fill="rgba(0,0,0,0.4)" /><circle cx="287" cy="209.5" r="3" fill="rgba(0,0,0,0.4)" /><circle cx="305" cy="275.96" r="3" fill="rgba(0,0,0,0.4)" /><circle cx="305" cy="262.99" r="3" fill="rgba(0,0,0,0.4)" /><circle cx="317" cy="251.75" r="3" fill="rgba(0,0,0,0.4)" /><circle cx="299" cy="216.77" r="3" fill="rgba(0,0,0,0.4)" /><circle cx="299" cy="303.65000000000003" r="3" fill="rgba(0,0,0,0.4)" /><circle cx="317" cy="212.02" r="3" fill="rgba(0,0,0,0.4)" /><circle cx="311" cy="208.57" r="3" fill="rgba(0,0,0,0.4)" /><circle cx="299" cy="313.99" r="3" fill="rgba(0,0,0,0.4)" /><circle cx="311" cy="233.82" r="3" fill="rgba(0,0,0,0.4)" /><circle cx="299" cy="296.7" r="3" fill="rgba(0,0,0,0.4)" /><circle cx="296" cy="255.49" r="3" fill="rgba(0,0,0,0.4)" /><circle cx="305" cy="284.42" r="3" fill="rgba(0,0,0,0.4)" /><circle cx="299" cy="349.69" r="3" fill="rgba(0,0,0,0.4)" /><circle cx="299" cy="198.12" r="3" fill="rgba(0,0,0,0.4)" /><circle cx="299" cy="267.79" r="3" fill="rgba(0,0,0,0.4)" /><circle cx="296" cy="222.35" r="3" fill="rgba(0,0,0,0.4)" /><circle cx="299" cy="288.90000000000003" r="3" fill="rgba(0,0,0,0.4)" /><circle cx="299" cy="261.68" r="3" fill="rgba(0,0,0,0.4)" /><circle cx="299" cy="206.15" r="3" fill="rgba(0,0,0,0.4)" /><circle cx="293" cy="270.84000000000003" r="3" fill="rgba(0,0,0,0.4)" /><circle cx="305" cy="192.69" r="3" fill="rgba(0,0,0,0.4)" /><circle cx="281" cy="278.95" r="3" fill="rgba(0,0,0,0.4)" /><circle cx="305" cy="308.13" r="3" fill="rgba(0,0,0,0.4)" /><circle cx="299" cy="281.97" r="3" fill="rgba(0,0,0,0.4)" /><circle cx="293" cy="231.95000000000002" r="3" fill="rgba(0,0,0,0.4)" /><circle cx="287" cy="275.33" r="3" fill="rgba(0,0,0,0.4)" /><circle cx="305" cy="220.20000000000002" r="3" fill="rgba(0,0,0,0.4)" /><circle cx="290" cy="224.55" r="3" fill="rgba(0,0,0,0.4)" /><circle cx="299" cy="274.61" r="3" fill="rgba(0,0,0,0.4)" /><circle cx="299" cy="241.44" r="3" fill="rgba(0,0,0,0.4)" /><circle cx="419" cy="408.84000000000003" r="3" fill="rgba(0,0,0,0.4)" /><circle cx="422" cy="320.39" r="3" fill="rgba(0,0,0,0.4)" /><circle cx="419" cy="311.23" r="3" fill="rgba(0,0,0,0.4)" /><circle cx="425" cy="295.57" r="3" fill="rgba(0,0,0,0.4)" /><circle cx="422" cy="326.6" r="3" fill="rgba(0,0,0,0.4)" /><circle cx="413" cy="385.15000000000003" r="3" fill="rgba(0,0,0,0.4)" /><circle cx="431" cy="386.18" r="3" fill="rgba(0,0,0,0.4)" /><circle cx="428" cy="331.66" r="3" fill="rgba(0,0,0,0.4)" /><circle cx="422" cy="334.45" r="3" fill="rgba(0,0,0,0.4)" /><circle cx="419" cy="426.84000000000003" r="3" fill="rgba(0,0,0,0.4)" /><circle cx="440" cy="337.43" r="3" fill="rgba(0,0,0,0.4)" /><circle cx="419" cy="367.74" r="3" fill="rgba(0,0,0,0.4)" /><circle cx="419" cy="349.16" r="3" fill="rgba(0,0,0,0.4)" /><circle cx="407" cy="345.1" r="3" fill="rgba(0,0,0,0.4)" /><circle cx="431" cy="373.42" r="3" fill="rgba(0,0,0,0.4)" /><circle cx="425" cy="343.08" r="3" fill="rgba(0,0,0,0.4)" /><circle cx="419" cy="400" r="3" fill="rgba(0,0,0,0.4)" /><circle cx="416" cy="317.21" r="3" fill="rgba(0,0,0,0.4)" /><circle cx="407" cy="323.51" r="3" fill="rgba(0,0,0,0.4)" /><circle cx="404" cy="336.35" r="3" fill="rgba(0,0,0,0.4)" /><circle cx="425" cy="369.11" r="3" fill="rgba(0,0,0,0.4)" /><circle cx="407" cy="360.37" r="3" fill="rgba(0,0,0,0.4)" /><circle cx="437" cy="376.91" r="3" fill="rgba(0,0,0,0.4)" /><circle cx="425" cy="403.41" r="3" fill="rgba(0,0,0,0.4)" /><circle cx="419" cy="283.85" r="3" fill="rgba(0,0,0,0.4)" /><circle cx="434" cy="335.91" r="3" fill="rgba(0,0,0,0.4)" /><circle cx="419" cy="295.17" r="3" fill="rgba(0,0,0,0.4)" /><circle cx="425" cy="313.6" r="3" fill="rgba(0,0,0,0.4)" /><circle cx="413" cy="358.28000000000003" r="3" fill="rgba(0,0,0,0.4)" /><circle cx="413" cy="371.26" r="3" fill="rgba(0,0,0,0.4)" /><circle cx="419" cy="245.13" r="3" fill="rgba(0,0,0,0.4)" /><circle cx="431" cy="358.54" r="3" fill="rgba(0,0,0,0.4)" /><circle cx="413" cy="309.65000000000003" r="3" fill="rgba(0,0,0,0.4)" /><circle cx="437" cy="360.40000000000003" r="3" fill="rgba(0,0,0,0.4)" /><circle cx="419" cy="305.07" r="3" fill="rgba(0,0,0,0.4)" /><circle cx="419" cy="388.53000000000003" r="3" fill="rgba(0,0,0,0.4)" /><circle cx="425" cy="358.18" r="3" fill="rgba(0,0,0,0.4)" /><circle cx="419" cy="374.04" r="3" fill="rgba(0,0,0,0.4)" /><circle cx="401" cy="362.11" r="3" fill="rgba(0,0,0,0.4)" /><circle cx="425" cy="284.40000000000003" r="3" fill="rgba(0,0,0,0.4)" /><circle cx="419" cy="342.24" r="3" fill="rgba(0,0,0,0.4)" /><circle cx="431" cy="344.24" r="3" fill="rgba(0,0,0,0.4)" /><circle cx="425" cy="391.01" r="3" fill="rgba(0,0,0,0.4)" /><circle cx="413" cy="343.13" r="3" fill="rgba(0,0,0,0.4)" /><circle cx="416" cy="331.59000000000003" r="3" fill="rgba(0,0,0,0.4)" /><circle cx="434" cy="325.1" r="3" fill="rgba(0,0,0,0.4)" /><circle cx="425" cy="307.13" r="3" fill="rgba(0,0,0,0.4)" /><circle cx="428" cy="322.14" r="3" fill="rgba(0,0,0,0.4)" /><circle cx="410" cy="334.71" r="3" fill="rgba(0,0,0,0.4)" /><circle cx="425" cy="382.67" r="3" fill="rgba(0,0,0,0.4)" /><circle cx="413" cy="298.46" r="3" fill="rgba(0,0,0,0.4)" /><circle cx="416" cy="323.51" r="3" fill="rgba(0,0,0,0.4)" /><circle cx="425" cy="376.53000000000003" r="3" fill="rgba(0,0,0,0.4)" /><circle cx="419" cy="380.73" r="3" fill="rgba(0,0,0,0.4)" /><circle cx="413" cy="392.74" r="3" fill="rgba(0,0,0,0.4)" /><circle cx="407" cy="374.42" r="3" fill="rgba(0,0,0,0.4)" /><circle cx="419" cy="357.16" r="3" fill="rgba(0,0,0,0.4)" /><circle cx="410" cy="318.13" r="3" fill="rgba(0,0,0,0.4)" /><circle cx="437" cy="345.90000000000003" r="3" fill="rgba(0,0,0,0.4)" /><circle cx="401" cy="325.92" r="3" fill="rgba(0,0,0,0.4)" /><circle cx="545" cy="196.17000000000002" r="3" fill="rgba(0,0,0,0.4)" /><circle cx="551" cy="213.8" r="3" fill="rgba(0,0,0,0.4)" /><circle cx="545" cy="343.45" r="3" fill="rgba(0,0,0,0.4)" /><circle cx="521" cy="201.65" r="3" fill="rgba(0,0,0,0.4)" /><circle cx="530" cy="294.32" r="3" fill="rgba(0,0,0,0.4)" /><circle cx="533" cy="186.78" r="3" fill="rgba(0,0,0,0.4)" /><circle cx="557" cy="224.17000000000002" r="3" fill="rgba(0,0,0,0.4)" /><circle cx="527" cy="198.04" r="3" fill="rgba(0,0,0,0.4)" /><circle cx="533" cy="248.15" r="3" fill="rgba(0,0,0,0.4)" /><circle cx="533" cy="282.41" r="3" fill="rgba(0,0,0,0.4)" /><circle cx="545" cy="293.09000000000003" r="3" fill="rgba(0,0,0,0.4)" /><circle cx="557" cy="198.43" r="3" fill="rgba(0,0,0,0.4)" /><circle cx="545" cy="209.32" r="3" fill="rgba(0,0,0,0.4)" /><circle cx="545" cy="219.89000000000001" r="3" fill="rgba(0,0,0,0.4)" /><circle cx="539" cy="342.73" r="3" fill="rgba(0,0,0,0.4)" /><circle cx="539" cy="219.02" r="3" fill="rgba(0,0,0,0.4)" /><circle cx="533" cy="302.82" r="3" fill="rgba(0,0,0,0.4)" /><circle cx="539" cy="208.6" r="3" fill="rgba(0,0,0,0.4)" /><circle cx="545" cy="227.24" r="3" fill="rgba(0,0,0,0.4)" /><circle cx="551" cy="220.9" r="3" fill="rgba(0,0,0,0.4)" /><circle cx="539" cy="243.20000000000002" r="3" fill="rgba(0,0,0,0.4)" /><circle cx="545" cy="246.98000000000002" r="3" fill="rgba(0,0,0,0.4)" /><circle cx="539" cy="255.37" r="3" fill="rgba(0,0,0,0.4)" /><circle cx="545" cy="235.12" r="3" fill="rgba(0,0,0,0.4)" /><circle cx="533" cy="203.21" r="3" fill="rgba(0,0,0,0.4)" /><circle cx="539" cy="275.45" r="3" fill="rgba(0,0,0,0.4)" /><circle cx="533" cy="220.05" r="3" fill="rgba(0,0,0,0.4)" /><circle cx="539" cy="194.35" r="3" fill="rgba(0,0,0,0.4)" /><circle cx="533" cy="229.36" r="3" fill="rgba(0,0,0,0.4)" /><circle cx="533" cy="196.32" r="3" fill="rgba(0,0,0,0.4)" /><circle cx="539" cy="161.8" r="3" fill="rgba(0,0,0,0.4)" /><circle cx="539" cy="181.76" r="3" fill="rgba(0,0,0,0.4)" /><circle cx="533" cy="238.11" r="3" fill="rgba(0,0,0,0.4)" /><circle cx="536" cy="290.11" r="3" fill="rgba(0,0,0,0.4)" /><circle cx="539" cy="226.41" r="3" fill="rgba(0,0,0,0.4)" /><circle cx="533" cy="265.26" r="3" fill="rgba(0,0,0,0.4)" /><circle cx="539" cy="154.71" r="3" fill="rgba(0,0,0,0.4)" /><circle cx="551" cy="294.56" r="3" fill="rgba(0,0,0,0.4)" /><circle cx="539" cy="282.19" r="3" fill="rgba(0,0,0,0.4)" /><circle cx="539" cy="233.37" r="3" fill="rgba(0,0,0,0.4)" /><circle cx="545" cy="203.02" r="3" fill="rgba(0,0,0,0.4)" /><circle cx="545" cy="264.69" r="3" fill="rgba(0,0,0,0.4)" /><circle cx="527" cy="205.38" r="3" fill="rgba(0,0,0,0.4)" /><circle cx="545" cy="279.29" r="3" fill="rgba(0,0,0,0.4)" /><circle cx="527" cy="221.45000000000002" r="3" fill="rgba(0,0,0,0.4)" /><circle cx="551" cy="187.45000000000002" r="3" fill="rgba(0,0,0,0.4)" /><circle cx="542" cy="287.56" r="3" fill="rgba(0,0,0,0.4)" /><circle cx="551" cy="265.79" r="3" fill="rgba(0,0,0,0.4)" /><circle cx="545" cy="300.52" r="3" fill="rgba(0,0,0,0.4)" /><circle cx="539" cy="299.62" r="3" fill="rgba(0,0,0,0.4)" /><circle cx="551" cy="238.35" r="3" fill="rgba(0,0,0,0.4)" /><circle cx="539" cy="261.68" r="3" fill="rgba(0,0,0,0.4)" /><circle cx="539" cy="201.26" r="3" fill="rgba(0,0,0,0.4)" /><circle cx="533" cy="209.58" r="3" fill="rgba(0,0,0,0.4)" /><circle cx="551" cy="205.12" r="3" fill="rgba(0,0,0,0.4)" /><circle cx="539" cy="311.79" r="3" fill="rgba(0,0,0,0.4)" /><circle cx="545" cy="186.70000000000002" r="3" fill="rgba(0,0,0,0.4)" /><circle cx="551" cy="197.71" r="3" fill="rgba(0,0,0,0.4)" /><circle cx="539" cy="174.01" r="3" fill="rgba(0,0,0,0.4)" /><circle cx="551" cy="304.52" r="3" fill="rgba(0,0,0,0.4)" /></g></svg>