<svg xmlns="http://www.w3.org/2000/svg" width="673" height="545" font-family="DejaVu Sans, Liberation Sans, Arial, sans-serif" fill="black"><rect width="100%" height="100%" fill="white" /><defs><clipPath id="kuva-clip-2"><rect x="59" y="44" width="600" height="450"/></clipPath></defs><line x1="59" y1="400.25" x2="659" y2="400.25" stroke="#cccccc" stroke-width="1" /><line x1="59" y1="306.5" x2="659" y2="306.5" stroke="#cccccc" stroke-width="1" /><line x1="59" y1="212.75" x2="659" y2="212.75" stroke="#cccccc" stroke-width="1" /><line x1="59" y1="119" x2="659" y2="119" stroke="#cccccc" stroke-width="1" /><line x1="59" y1="494" x2="659" y2="494" stroke="#000000" stroke-width="1" /><line x1="59" y1="44" x2="59" y2="494" stroke="#000000" stroke-width="1" /><text x="179" y="511" font-size="12" text-anchor="middle">Control</text><line x1="179" y1="494" x2="179" y2="499" stroke="#000000" stroke-width="1" /><text x="299" y="511" font-size="12" text-anchor="middle">Treatment A</text><line x1="299" y1="494" x2="299" y2="499" stroke="#000000" stroke-width="1" /><text x="419" y="511" font-size="12" text-anchor="middle">Treatment B</text><line x1="419" y1="494" x2="419" y2="499" stroke="#000000" stroke-width="1" /><text x="539" y="511" font-size="12" text-anchor="middle">Treatment C</text><line x1="539" y1="494" x2="539" y2="499" stroke="#000000" stroke-width="1" /><line x1="54" y1="494" x2="59" y2="494" stroke="#000000" stroke-width="1" /><text x="51" y="498.2" font-size="12" text-anchor="end">0</text><line x1="54" y1="400.25" x2="59" y2="400.25" stroke="#000000" stroke-width="1" /><text x="51" y="404.45" font-size="12" text-anchor="end">2.5</text><line x1="54" y1="306.5" x2="59" y2="306.5" stroke="#000000" stroke-width="1" /><text x="51" y="310.7" font-size="12" text-anchor="end">5</text><line x1="54" y1="212.75" x2="59" y2="212.75" stroke="#000000" stroke-width="1" /><text x="51" y="216.95000000000002" font-size="12" text-anchor="end">7.5</text><line x1="54" y1="119" x2="59" y2="119" stroke="#000000" stroke-width="1" /><text x="51" y="123.2" font-size="12" text-anchor="end">10</text><text x="15" y="272.5" font-size="14" text-anchor="middle" transform="rotate(-90,15,272.5)">Value</text><text x="336.5" y="27.400000000000002" font-size="18" text-anchor="middle">Box Plot + Swarm Overlay</text><g clip-path="url(#kuva-clip-2)"><rect x="131" y="291.45" width="96" height="44.29" fill="#4682b4" /><line x1="131" y1="307.13" x2="227" y2="307.13" stroke="#ffffff" stroke-width="1.5" /><line x1="179" y1="399.85" x2="179" y2="335.74" stroke="#4682b4" stroke-width="1" /><line x1="179" y1="291.45" x2="179" y2="234.14000000000001" stroke="#4682b4" stroke-width="1" /><line x1="155" y1="399.85" x2="203" y2="399.85" stroke="#4682b4" stroke-width="1" /><line x1="155" y1="234.14000000000001" x2="203" y2="234.14000000000001" stroke="#4682b4" stroke-width="1" /><rect x="251" y="212.75" width="96" height="56.5" fill="#4682b4" /><line x1="251" y1="248.05" x2="347" y2="248.05" stroke="#ffffff" stroke-width="1.5" /><line x1="299" y1="343.68" x2="299" y2="269.25" stroke="#4682b4" stroke-width="1" /><line x1="299" y1="212.75" x2="299" y2="129.99" stroke="#4682b4" stroke-width="1" /><line x1="275" y1="343.68" x2="323" y2="343.68" stroke="#4682b4" stroke-width="1" /><line x1="275" y1="129.99" x2="323" y2="129.99" stroke="#4682b4" stroke-width="1" /><rect x="371" y="316.05" width="96" height="52.51" fill="#4682b4" /><line x1="371" y1="337.43" x2="467" y2="337.43" stroke="#ffffff" stroke-width="1.5" /><line x1="419" y1="424.04" x2="419" y2="368.56" stroke="#4682b4" stroke-width="1" /><line x1="419" y1="316.05" x2="419" y2="275.1" stroke="#4682b4" stroke-width="1" /><line x1="395" y1="424.04" x2="443" y2="424.04" stroke="#4682b4" stroke-width="1" /><line x1="395" y1="275.1" x2="443" y2="275.1" stroke="#4682b4" stroke-width="1" /><rect x="491" y="190.54" width="96" height="76.8" fill="#4682b4" /><line x1="491" y1="215.69" x2="587" y2="215.69" stroke="#ffffff" stroke-width="1.5" /><line x1="539" y1="337.18" x2="539" y2="267.34000000000003" stroke="#4682b4" stroke-width="1" /><line x1="539" y1="190.54" x2="539" y2="140.58" stroke="#4682b4" stroke-width="1" /><line x1="515" y1="337.18" x2="563" y2="337.18" stroke="#4682b4" stroke-width="1" /><line x1="515" y1="140.58" x2="563" y2="140.58" stroke="#4682b4" stroke-width="1" /><circle cx="173" cy="274.85" r="3" fill="rgba(0,0,0,0.4)" /><circle cx="179" cy="279.67" r="3" fill="rgba(0,0,0,0.4)" /><circle cx="191" cy="378.35" r="3" fill="rgba(0,0,0,0.4)" /><circle cx="173" cy="289.53000000000003" r="3" fill="rgba(0,0,0,0.4)" /><circle cx="191" cy="337.09000000000003" r="3" fill="rgba(0,0,0,0.4)" /><circle cx="167" cy="293.06" r="3" fill="rgba(0,0,0,0.4)" /><circle cx="179" cy="195.94" r="3" fill="rgba(0,0,0,0.4)" /><circle cx="185" cy="302.32" r="3" fill="rgba(0,0,0,0.4)" /><circle cx="185" cy="335.86" r="3" fill="rgba(0,0,0,0.4)" /><circle cx="173" cy="376.96" r="3" fill="rgba(0,0,0,0.4)" /><circle cx="173" cy="245.17000000000002" r="3" fill="rgba(0,0,0,0.4)" /><circle cx="179" cy="320.47" r="3" fill="rgba(0,0,0,0.4)" /><circle cx="173" cy="335.97" r="3" fill="rgba(0,0,0,0.4)" /><circle cx="185" cy="321.88" r="3" fill="rgba(0,0,0,0.4)" /><circle cx="182" cy="341.6" r="3" fill="rgba(0,0,0,0.4)" /><circle cx="179" cy="335.7" r="3" fill="rgba(0,0,0,0.4)" /><circle cx="191" cy="300.90000000000003" r="3" fill="rgba(0,0,0,0.4)" /><circle cx="173" cy="307.69" r="3" fill="rgba(0,0,0,0.4)" /><circle cx="182" cy="260.68" r="3" fill="rgba(0,0,0,0.4)" /><circle cx="179" cy="285.84000000000003" r="3" fill="rgba(0,0,0,0.4)" /><circle cx="179" cy="357.08" r="3" fill="rgba(0,0,0,0.4)" /><circle cx="179" cy="242.70000000000002" r="3" fill="rgba(0,0,0,0.4)" /><circle cx="191" cy="324.43" r="3" fill="rgba(0,0,0,0.4)" /><circle cx="188" cy="314.90000000000003" r="3" fill="rgba(0,0,0,0.4)" /><circle cx="167" cy="339.57" r="3" fill="rgba(0,0,0,0.4)" /><circle cx="197" cy="293.82" r="3" fill="rgba(0,0,0,0.4)" /><circle cx="188" cy="346.49" r="3" fill="rgba(0,0,0,0.4)" /><circle cx="179" cy="255.36" r="3" fill="rgba(0,0,0,0.4)" /><circle cx="170" cy="302.43" r="3" fill="rgba(0,0,0,0.4)" /><circle cx="179" cy="269.85" r="3" fill="rgba(0,0,0,0.4)" /><circle cx="203" cy="297.95" r="3" fill="rgba(0,0,0,0.4)" /><circle cx="173" cy="297.14" r="3" fill="rgba(0,0,0,0.4)" /><circle cx="179" cy="305.62" r="3" fill="rgba(0,0,0,0.4)" /><circle cx="164" cy="303.47" r="3" fill="rgba(0,0,0,0.4)" /><circle cx="179" cy="234.14000000000001" r="3" fill="rgba(0,0,0,0.4)" /><circle cx="179" cy="328.24" r="3" fill="rgba(0,0,0,0.4)" /><circle cx="170" cy="316.36" r="3" fill="rgba(0,0,0,0.4)" /><circle cx="161" cy="293.97" r="3" fill="rgba(0,0,0,0.4)" /><circle cx="185" cy="289.37" r="3" fill="rgba(0,0,0,0.4)" /><circle cx="185" cy="281.91" r="3" fill="rgba(0,0,0,0.4)" /><circle cx="167" cy="308.73" r="3" fill="rgba(0,0,0,0.4)" /><circle cx="194" cy="306.57" r="3" fill="rgba(0,0,0,0.4)" /><circle cx="197" cy="312.21" r="3" fill="rgba(0,0,0,0.4)" /><circle cx="185" cy="242.82" r="3" fill="rgba(0,0,0,0.4)" /><circle cx="179" cy="298.52" r="3" fill="rgba(0,0,0,0.4)" /><circle cx="179" cy="292.09000000000003" r="3" fill="rgba(0,0,0,0.4)" /><circle cx="191" cy="292.45" r="3" fill="rgba(0,0,0,0.4)" /><circle cx="173" cy="322" r="3" fill="rgba(0,0,0,0.4)" /><circle cx="179" cy="372.43" r="3" fill="rgba(0,0,0,0.4)" /><circle cx="179" cy="399.85" r="3" fill="rgba(0,0,0,0.4)" /><circle cx="185" cy="271.98" r="3" fill="rgba(0,0,0,0.4)" /><circle cx="185" cy="295.87" r="3" fill="rgba(0,0,0,0.4)" /><circle cx="161" cy="310.55" r="3" fill="rgba(0,0,0,0.4)" /><circle cx="185" cy="374.58" r="3" fill="rgba(0,0,0,0.4)" /><circle cx="182" cy="311.6" r="3" fill="rgba(0,0,0,0.4)" /><circle cx="188" cy="307.83" r="3" fill="rgba(0,0,0,0.4)" /><circle cx="176" cy="342.09000000000003" r="3" fill="rgba(0,0,0,0.4)" /><circle cx="197" cy="339.89" r="3" fill="rgba(0,0,0,0.4)" /><circle cx="176" cy="313.06" r="3" fill="rgba(0,0,0,0.4)" /><circle cx="161" cy="340.35" r="3" fill="rgba(0,0,0,0.4)" /><circle cx="293" cy="196.31" r="3" fill="rgba(0,0,0,0.4)" /><circle cx="305" cy="246.79" r="3" fill="rgba(0,0,0,0.4)" /><circle cx="296" cy="236.70000000000002" r="3" fill="rgba(0,0,0,0.4)" /><circle cx="293" cy="280.54" r="3" fill="rgba(0,0,0,0.4)" /><circle cx="311" cy="250.67000000000002" r="3" fill="rgba(0,0,0,0.4)" /><circle cx="293" cy="188.36" r="3" fill="rgba(0,0,0,0.4)" /><circle cx="293" cy="269" r="3" fill="rgba(0,0,0,0.4)" /><circle cx="305" cy="194.92000000000002" r="3" fill="rgba(0,0,0,0.4)" /><circle cx="293" cy="254.93" r="3" fill="rgba(0,0,0,0.4)" /><circle cx="305" cy="186.85" r="3" fill="rgba(0,0,0,0.4)" /><circle cx="290" cy="249.3" r="3" fill="rgba(0,0,0,0.4)" /><circle cx="305" cy="235.82" r="3" fill="rgba(0,0,0,0.4)" /><circle cx="293" cy="219.08" r="3" fill="rgba(0,0,0,0.4)" /><circle cx="299" cy="217.36" r="3" fill="rgba(0,0,0,0.4)" /><circle cx="299" cy="175.01" r="3" fill="rgba(0,0,0,0.4)" /><circle cx="287" cy="255.92000000000002" r="3" fill="rgba(0,0,0,0.4)" /><circle cx="311" cy="239.24" r="3" fill="rgba(0,0,0,0.4)" /><circle cx="308" cy="265.79" r="3" fill="rgba(0,0,0,0.4)" /><circle cx="308" cy="281.03000000000003" r="3" fill="rgba(0,0,0,0.4)" /><circle cx="305" cy="306.63" r="3" fill="rgba(0,0,0,0.4)" /><circle cx="302" cy="241.32" r="3" fill="rgba(0,0,0,0.4)" /><circle cx="284" cy="240.76" r="3" fill="rgba(0,0,0,0.4)" /><circle cx="290" cy="238.34" r="3" fill="rgba(0,0,0,0.4)" /><circle cx="299" cy="129.99" r="3" fill="rgba(0,0,0,0.4)" /><circle cx="293" cy="307.1" r="3" fill="rgba(0,0,0,0.4)" /><circle cx="305" cy="260.41" r="3" fill="rgba(0,0,0,0.4)" /><circle cx="287" cy="283.52" r="3" fill="rgba(0,0,0,0.4)" /><circle cx="299" cy="318.27" r="3" fill="rgba(0,0,0,0.4)" /><circle cx="281" cy="266.9" r="3" fill="rgba(0,0,0,0.4)" /><circle cx="287" cy="197.65" r="3" fill="rgba(0,0,0,0.4)" /><circle cx="314" cy="266.87" r="3" fill="rgba(0,0,0,0.4)" /><circle cx="305" cy="253.37" r="3" fill="rgba(0,0,0,0.4)" /><circle cx="317" cy="241.65" r="3" fill="rgba(0,0,0,0.4)" /><circle cx="305" cy="205.22" r="3" fill="rgba(0,0,0,0.4)" /><circle cx="299" cy="295.72" r="3" fill="rgba(0,0,0,0.4)" /><circle cx="299" cy="200.27" r="3" fill="rgba(0,0,0,0.4)" /><circle cx="311" cy="196.68" r="3" fill="rgba(0,0,0,0.4)" /><circle cx="299" cy="306.49" r="3" fill="rgba(0,0,0,0.4)" /><circle cx="311" cy="222.98000000000002" r="3" fill="rgba(0,0,0,0.4)" /><circle cx="299" cy="288.48" r="3" fill="rgba(0,0,0,0.4)" /><circle cx="296" cy="245.55" r="3" fill="rgba(0,0,0,0.4)" /><circle cx="305" cy="275.69" r="3" fill="rgba(0,0,0,0.4)" /><circle cx="299" cy="343.68" r="3" fill="rgba(0,0,0,0.4)" /><circle cx="299" cy="185.79" r="3" fill="rgba(0,0,0,0.4)" /><circle cx="299" cy="258.36" r="3" fill="rgba(0,0,0,0.4)" /><circle cx="293" cy="211.03" r="3" fill="rgba(0,0,0,0.4)" /><circle cx="299" cy="280.36" r="3" fill="rgba(0,0,0,0.4)" /><circle cx="299" cy="251.99" r="3" fill="rgba(0,0,0,0.4)" /><circle cx="299" cy="194.15" r="3" fill="rgba(0,0,0,0.4)" /><circle cx="293" cy="261.54" r="3" fill="rgba(0,0,0,0.4)" /><circle cx="305" cy="180.14000000000001" r="3" fill="rgba(0,0,0,0.4)" /><circle cx="320" cy="269.99" r="3" fill="rgba(0,0,0,0.4)" /><circle cx="305" cy="300.39" r="3" fill="rgba(0,0,0,0.4)" /><circle cx="299" cy="273.14" r="3" fill="rgba(0,0,0,0.4)" /><circle cx="305" cy="221.03" r="3" fill="rgba(0,0,0,0.4)" /><circle cx="287" cy="266.22" r="3" fill="rgba(0,0,0,0.4)" /><circle cx="299" cy="208.8" r="3" fill="rgba(0,0,0,0.4)" /><circle cx="305" cy="213.32" r="3" fill="rgba(0,0,0,0.4)" /><circle cx="299" cy="265.47" r="3" fill="rgba(0,0,0,0.4)" /><circle cx="299" cy="230.92000000000002" r="3" fill="rgba(0,0,0,0.4)" /><circle cx="419" cy="405.29" r="3" fill="rgba(0,0,0,0.4)" /><circle cx="425" cy="313.16" r="3" fill="rgba(0,0,0,0.4)" /><circle cx="419" cy="303.62" r="3" fill="rgba(0,0,0,0.4)" /><circle cx="425" cy="287.3" r="3" fill="rgba(0,0,0,0.4)" /><circle cx="425" cy="319.63" r="3" fill="rgba(0,0,0,0.4)" /><circle cx="413" cy="380.62" r="3" fill="rgba(0,0,0,0.4)" /><circle cx="431" cy="381.69" r="3" fill="rgba(0,0,0,0.4)" /><circle cx="413" cy="324.89" r="3" fill="rgba(0,0,0,0.4)" /><circle cx="425" cy="327.8" r="3" fill="rgba(0,0,0,0.4)" /><circle cx="419" cy="424.04" r="3" fill="rgba(0,0,0,0.4)" /><circle cx="419" cy="330.90000000000003" r="3" fill="rgba(0,0,0,0.4)" /><circle cx="419" cy="362.48" r="3" fill="rgba(0,0,0,0.4)" /><circle cx="419" cy="343.13" r="3" fill="rgba(0,0,0,0.4)" /><circle cx="404" cy="338.90000000000003" r="3" fill="rgba(0,0,0,0.4)" /><circle cx="431" cy="368.39" r="3" fill="rgba(0,0,0,0.4)" /><circle cx="416" cy="336.79" r="3" fill="rgba(0,0,0,0.4)" /><circle cx="419" cy="396.08" r="3" fill="rgba(0,0,0,0.4)" /><circle cx="419" cy="309.84000000000003" r="3" fill="rgba(0,0,0,0.4)" /><circle cx="410" cy="316.41" r="3" fill="rgba(0,0,0,0.4)" /><circle cx="437" cy="329.78000000000003" r="3" fill="rgba(0,0,0,0.4)" /><circle cx="425" cy="363.91" r="3" fill="rgba(0,0,0,0.4)" /><circle cx="407" cy="354.81" r="3" fill="rgba(0,0,0,0.4)" /><circle cx="437" cy="372.03000000000003" r="3" fill="rgba(0,0,0,0.4)" /><circle cx="425" cy="399.63" r="3" fill="rgba(0,0,0,0.4)" /><circle cx="419" cy="275.1" r="3" fill="rgba(0,0,0,0.4)" /><circle cx="407" cy="329.33" r="3" fill="rgba(0,0,0,0.4)" /><circle cx="419" cy="286.88" r="3" fill="rgba(0,0,0,0.4)" /><circle cx="425" cy="306.08" r="3" fill="rgba(0,0,0,0.4)" /><circle cx="413" cy="352.63" r="3" fill="rgba(0,0,0,0.4)" /><circle cx="413" cy="366.15000000000003" r="3" fill="rgba(0,0,0,0.4)" /><circle cx="419" cy="234.76" r="3" fill="rgba(0,0,0,0.4)" /><circle cx="431" cy="352.90000000000003" r="3" fill="rgba(0,0,0,0.4)" /><circle cx="413" cy="301.97" r="3" fill="rgba(0,0,0,0.4)" /><circle cx="437" cy="354.83" r="3" fill="rgba(0,0,0,0.4)" /><circle cx="419" cy="297.2" r="3" fill="rgba(0,0,0,0.4)" /><circle cx="419" cy="384.13" r="3" fill="rgba(0,0,0,0.4)" /><circle cx="425" cy="352.52" r="3" fill="rgba(0,0,0,0.4)" /><circle cx="419" cy="369.05" r="3" fill="rgba(0,0,0,0.4)" /><circle cx="401" cy="356.61" r="3" fill="rgba(0,0,0,0.4)" /><circle cx="425" cy="275.66" r="3" fill="rgba(0,0,0,0.4)" /><circle cx="425" cy="335.92" r="3" fill="rgba(0,0,0,0.4)" /><circle cx="431" cy="338" r="3" fill="rgba(0,0,0,0.4)" /><circle cx="425" cy="386.72" r="3" fill="rgba(0,0,0,0.4)" /><circle cx="410" cy="336.85" r="3" fill="rgba(0,0,0,0.4)" /><circle cx="419" cy="324.82" r="3" fill="rgba(0,0,0,0.4)" /><circle cx="404" cy="318.06" r="3" fill="rgba(0,0,0,0.4)" /><circle cx="425" cy="299.35" r="3" fill="rgba(0,0,0,0.4)" /><circle cx="431" cy="314.98" r="3" fill="rgba(0,0,0,0.4)" /><circle cx="431" cy="328.08" r="3" fill="rgba(0,0,0,0.4)" /><circle cx="425" cy="378.03000000000003" r="3" fill="rgba(0,0,0,0.4)" /><circle cx="413" cy="290.31" r="3" fill="rgba(0,0,0,0.4)" /><circle cx="419" cy="316.41" r="3" fill="rgba(0,0,0,0.4)" /><circle cx="425" cy="371.64" r="3" fill="rgba(0,0,0,0.4)" /><circle cx="419" cy="376.01" r="3" fill="rgba(0,0,0,0.4)" /><circle cx="413" cy="388.53000000000003" r="3" fill="rgba(0,0,0,0.4)" /><circle cx="407" cy="369.44" r="3" fill="rgba(0,0,0,0.4)" /><circle cx="419" cy="351.45" r="3" fill="rgba(0,0,0,0.4)" /><circle cx="413" cy="310.8" r="3" fill="rgba(0,0,0,0.4)" /><circle cx="437" cy="339.73" r="3" fill="rgba(0,0,0,0.4)" /><circle cx="437" cy="318.91" r="3" fill="rgba(0,0,0,0.4)" /><circle cx="545" cy="183.76" r="3" fill="rgba(0,0,0,0.4)" /><circle cx="551" cy="202.13" r="3" fill="rgba(0,0,0,0.4)" /><circle cx="545" cy="337.18" r="3" fill="rgba(0,0,0,0.4)" /><circle cx="521" cy="189.47" r="3" fill="rgba(0,0,0,0.4)" /><circle cx="530" cy="286" r="3" fill="rgba(0,0,0,0.4)" /><circle cx="536" cy="173.98" r="3" fill="rgba(0,0,0,0.4)" /><circle cx="557" cy="212.93" r="3" fill="rgba(0,0,0,0.4)" /><circle cx="527" cy="185.71" r="3" fill="rgba(0,0,0,0.4)" /><circle cx="533" cy="237.9" r="3" fill="rgba(0,0,0,0.4)" /><circle cx="533" cy="273.59000000000003" r="3" fill="rgba(0,0,0,0.4)" /><circle cx="545" cy="284.72" r="3" fill="rgba(0,0,0,0.4)" /><circle cx="557" cy="186.11" r="3" fill="rgba(0,0,0,0.4)" /><circle cx="545" cy="197.46" r="3" fill="rgba(0,0,0,0.4)" /><circle cx="545" cy="208.47" r="3" fill="rgba(0,0,0,0.4)" /><circle cx="539" cy="336.43" r="3" fill="rgba(0,0,0,0.4)" /><circle cx="539" cy="207.57" r="3" fill="rgba(0,0,0,0.4)" /><circle cx="533" cy="294.85" r="3" fill="rgba(0,0,0,0.4)" /><circle cx="539" cy="196.71" r="3" fill="rgba(0,0,0,0.4)" /><circle cx="545" cy="216.12" r="3" fill="rgba(0,0,0,0.4)" /><circle cx="551" cy="209.52" r="3" fill="rgba(0,0,0,0.4)" /><circle cx="539" cy="232.75" r="3" fill="rgba(0,0,0,0.4)" /><circle cx="545" cy="236.69" r="3" fill="rgba(0,0,0,0.4)" /><circle cx="539" cy="245.42000000000002" r="3" fill="rgba(0,0,0,0.4)" /><circle cx="545" cy="224.34" r="3" fill="rgba(0,0,0,0.4)" /><circle cx="533" cy="191.1" r="3" fill="rgba(0,0,0,0.4)" /><circle cx="539" cy="266.34000000000003" r="3" fill="rgba(0,0,0,0.4)" /><circle cx="533" cy="208.63" r="3" fill="rgba(0,0,0,0.4)" /><circle cx="539" cy="181.87" r="3" fill="rgba(0,0,0,0.4)" /><circle cx="533" cy="218.33" r="3" fill="rgba(0,0,0,0.4)" /><circle cx="533" cy="183.91" r="3" fill="rgba(0,0,0,0.4)" /><circle cx="539" cy="147.95000000000002" r="3" fill="rgba(0,0,0,0.4)" /><circle cx="539" cy="168.75" r="3" fill="rgba(0,0,0,0.4)" /><circle cx="533" cy="227.45000000000002" r="3" fill="rgba(0,0,0,0.4)" /><circle cx="536" cy="281.61" r="3" fill="rgba(0,0,0,0.4)" /><circle cx="539" cy="215.26" r="3" fill="rgba(0,0,0,0.4)" /><circle cx="533" cy="255.73000000000002" r="3" fill="rgba(0,0,0,0.4)" /><circle cx="539" cy="140.58" r="3" fill="rgba(0,0,0,0.4)" /><circle cx="551" cy="286.25" r="3" fill="rgba(0,0,0,0.4)" /><circle cx="539" cy="273.36" r="3" fill="rgba(0,0,0,0.4)" /><circle cx="539" cy="222.51" r="3" fill="rgba(0,0,0,0.4)" /><circle cx="545" cy="190.9" r="3" fill="rgba(0,0,0,0.4)" /><circle cx="545" cy="255.14000000000001" r="3" fill="rgba(0,0,0,0.4)" /><circle cx="527" cy="193.35" r="3" fill="rgba(0,0,0,0.4)" /><circle cx="545" cy="270.34000000000003" r="3" fill="rgba(0,0,0,0.4)" /><circle cx="527" cy="210.1" r="3" fill="rgba(0,0,0,0.4)" /><circle cx="530" cy="174.67000000000002" r="3" fill="rgba(0,0,0,0.4)" /><circle cx="542" cy="278.96" r="3" fill="rgba(0,0,0,0.4)" /><circle cx="551" cy="256.28000000000003" r="3" fill="rgba(0,0,0,0.4)" /><circle cx="545" cy="292.46" r="3" fill="rgba(0,0,0,0.4)" /><circle cx="539" cy="291.52" r="3" fill="rgba(0,0,0,0.4)" /><circle cx="551" cy="227.70000000000002" r="3" fill="rgba(0,0,0,0.4)" /><circle cx="539" cy="252" r="3" fill="rgba(0,0,0,0.4)" /><circle cx="539" cy="189.07" r="3" fill="rgba(0,0,0,0.4)" /><circle cx="533" cy="197.73000000000002" r="3" fill="rgba(0,0,0,0.4)" /><circle cx="551" cy="193.09" r="3" fill="rgba(0,0,0,0.4)" /><circle cx="539" cy="304.2" r="3" fill="rgba(0,0,0,0.4)" /><circle cx="545" cy="173.89000000000001" r="3" fill="rgba(0,0,0,0.4)" /><circle cx="551" cy="185.36" r="3" fill="rgba(0,0,0,0.4)" /><circle cx="539" cy="160.68" r="3" fill="rgba(0,0,0,0.4)" /><circle cx="551" cy="296.62" r="3" fill="rgba(0,0,0,0.4)" /></g></svg>