<svg xmlns="http://www.w3.org/2000/svg" width="743" height="545" font-family="DejaVu Sans, Liberation Sans, Arial, sans-serif" fill="black"><rect width="100%" height="100%" fill="white" /><defs><clipPath id="kuva-clip-0"><rect x="128.6" y="44" width="600" height="450"/></clipPath></defs><line x1="128.6" y1="494" x2="728.6" y2="494" stroke="#000000" stroke-width="1" /><line x1="128.6" y1="44" x2="128.6" y2="494" stroke="#000000" stroke-width="1" /><text x="120.60000000000001" y="453.2" font-size="12" text-anchor="end">Overall</text><line x1="123.60000000000001" y1="449" x2="128.6" y2="449" stroke="#000000" stroke-width="1" /><text x="120.60000000000001" y="408.2" font-size="12" text-anchor="end">Moore 2023</text><line x1="123.60000000000001" y1="404" x2="128.6" y2="404" stroke="#000000" stroke-width="1" /><text x="120.60000000000001" y="363.2" font-size="12" text-anchor="end">Wilson 2022</text><line x1="123.60000000000001" y1="359" x2="128.6" y2="359" stroke="#000000" stroke-width="1" /><text x="120.60000000000001" y="318.2" font-size="12" text-anchor="end">Miller 2022</text><line x1="123.60000000000001" y1="314" x2="128.6" y2="314" stroke="#000000" stroke-width="1" /><text x="120.60000000000001" y="273.2" font-size="12" text-anchor="end">Davis 2021</text><line x1="123.60000000000001" y1="269" x2="128.6" y2="269" stroke="#000000" stroke-width="1" /><text x="120.60000000000001" y="228.20000000000002" font-size="12" text-anchor="end">Brown 2021</text><line x1="123.60000000000001" y1="224" x2="128.6" y2="224" stroke="#000000" stroke-width="1" /><text x="120.60000000000001" y="183.20000000000002" font-size="12" text-anchor="end">Williams 2020</text><line x1="123.60000000000001" y1="179" x2="128.6" y2="179" stroke="#000000" stroke-width="1" /><text x="120.60000000000001" y="138.20000000000002" font-size="12" text-anchor="end">Johnson 2020</text><line x1="123.60000000000001" y1="134" x2="128.6" y2="134" stroke="#000000" stroke-width="1" /><text x="120.60000000000001" y="93.2" font-size="12" text-anchor="end">Smith 2019</text><line x1="123.60000000000001" y1="89" x2="128.6" y2="89" stroke="#000000" stroke-width="1" /><line x1="128.6" y1="494" x2="128.6" y2="499" stroke="#000000" stroke-width="1" /><text x="128.6" y="511" font-size="12" text-anchor="middle">-1</text><line x1="248.6" y1="494" x2="248.6" y2="499" stroke="#000000" stroke-width="1" /><text x="248.6" y="511" font-size="12" text-anchor="middle">-0.5</text><line x1="368.6" y1="494" x2="368.6" y2="499" stroke="#000000" stroke-width="1" /><text x="368.6" y="511" font-size="12" text-anchor="middle">0</text><line x1="488.6" y1="494" x2="488.6" y2="499" stroke="#000000" stroke-width="1" /><text x="488.6" y="511" font-size="12" text-anchor="middle">0.5</text><line x1="608.6" y1="494" x2="608.6" y2="499" stroke="#000000" stroke-width="1" /><text x="608.6" y="511" font-size="12" text-anchor="middle">1</text><line x1="728.6" y1="494" x2="728.6" y2="499" stroke="#000000" stroke-width="1" /><text x="728.6" y="511" font-size="12" text-anchor="middle">1.5</text><text x="428.6" y="538" font-size="14" text-anchor="middle">Effect Size (95% CI)</text><text x="371.5" y="27.400000000000002" font-size="18" text-anchor="middle">Meta-Analysis: Treatment Effect</text><g clip-path="url(#kuva-clip-0)"><line x1="368.6" y1="471.5" x2="368.6" y2="66.5" stroke="#999999" stroke-width="1" stroke-dasharray="4,3" /><line x1="392.6" y1="89" x2="584.6" y2="89" stroke="#4682b4" stroke-width="1.5" /><rect x="482.6" y="83" width="12" height="12" fill="#4682b4" /><line x1="176.6" y1="134" x2="416.6" y2="134" stroke="#4682b4" stroke-width="1.5" /><rect x="290.6" y="128" width="12" height="12" fill="#4682b4" /><line x1="344.6" y1="179" x2="488.6" y2="179" stroke="#4682b4" stroke-width="1.5" /><rect x="410.6" y="173" width="12" height="12" fill="#4682b4" /><line x1="440.6" y1="224" x2="608.6" y2="224" stroke="#4682b4" stroke-width="1.5" /><rect x="518.6" y="218" width="12" height="12" fill="#4682b4" /><line x1="248.6" y1="269" x2="440.6" y2="269" stroke="#4682b4" stroke-width="1.5" /><rect x="338.6" y="263" width="12" height="12" fill="#4682b4" /><line x1="380.6" y1="314" x2="524.6" y2="314" stroke="#4682b4" stroke-width="1.5" /><rect x="446.6" y="308" width="12" height="12" fill="#4682b4" /><line x1="464.6" y1="359" x2="656.6" y2="359" stroke="#4682b4" stroke-width="1.5" /><rect x="554.6" y="353" width="12" height="12" fill="#4682b4" /><line x1="320.6" y1="404" x2="488.6" y2="404" stroke="#4682b4" stroke-width="1.5" /><rect x="398.6" y="398" width="12" height="12" fill="#4682b4" /><line x1="392.6" y1="449" x2="479" y2="449" stroke="#4682b4" stroke-width="1.5" /><rect x="429.8" y="443" width="12" height="12" fill="#4682b4" /></g></svg>