<svg xmlns="http://www.w3.org/2000/svg" width="686.2" height="545" font-family="DejaVu Sans, Liberation Sans, Arial, sans-serif" fill="black"><rect width="100%" height="100%" fill="white" /><line x1="72.2" y1="494" x2="672.2" y2="494" stroke="#000000" stroke-width="1" /><line x1="72.2" y1="44" x2="72.2" y2="494" stroke="#000000" stroke-width="1" /><line x1="72.2" y1="381.5" x2="672.2" y2="381.5" stroke="#cccccc" stroke-width="1" /><line x1="72.2" y1="269" x2="672.2" y2="269" stroke="#cccccc" stroke-width="1" /><line x1="72.2" y1="156.5" x2="672.2" y2="156.5" stroke="#cccccc" stroke-width="1" /><line x1="72.2" y1="44" x2="672.2" y2="44" stroke="#cccccc" stroke-width="1" /><text x="372.2" y="511" font-size="12" text-anchor="middle"></text><line x1="372.2" y1="494" x2="372.2" y2="499" stroke="#000000" stroke-width="1" /><line x1="67.2" y1="494" x2="72.2" y2="494" stroke="#000000" stroke-width="1" /><text x="64.2" y="498.2" font-size="12" text-anchor="end">-4</text><line x1="67.2" y1="381.5" x2="72.2" y2="381.5" stroke="#000000" stroke-width="1" /><text x="64.2" y="385.7" font-size="12" text-anchor="end">-2</text><line x1="67.2" y1="269" x2="72.2" y2="269" stroke="#000000" stroke-width="1" /><text x="64.2" y="273.2" font-size="12" text-anchor="end">0</text><line x1="67.2" y1="156.5" x2="72.2" y2="156.5" stroke="#000000" stroke-width="1" /><text x="64.2" y="160.70000000000002" font-size="12" text-anchor="end">2</text><line x1="67.2" y1="44" x2="72.2" y2="44" stroke="#000000" stroke-width="1" /><text x="64.2" y="48.2" font-size="12" text-anchor="end">4</text><text x="372.2" y="22" font-size="18" text-anchor="middle">Auto (Silverman)</text><path d="M 372.2 459.53000000000003 L 372.19 457.65000000000003 L 372.19 455.77 L 372.19 453.89 L 372.18 452.02 L 372.18 450.14 L 372.17 448.26 L 372.16 446.38 L 372.15000000000003 444.5 L 372.13 442.63 L 372.11 440.75 L 372.09000000000003 438.87 L 372.06 436.99 L 372.03000000000003 435.11 L 371.99 433.24 L 371.95 431.36 L 371.90000000000003 429.48 L 371.85 427.6 L 371.79 425.72 L 371.73 423.85 L 371.66 421.97 L 371.59000000000003 420.09000000000003 L 371.52 418.21000000000004 L 371.44 416.33 L 371.36 414.46000000000004 L 371.28000000000003 412.58 L 371.19 410.7 L 371.1 408.82 L 371.0 406.94 L 370.90000000000003 405.07 L 370.8 403.19 L 370.69 401.31 L 370.57 399.43 L 370.45 397.55 L 370.32 395.68 L 370.18 393.8 L 370.03000000000003 391.92 L 369.87 390.04 L 369.7 388.16 L 369.51 386.29 L 369.31 384.41 L 369.09000000000003 382.53000000000003 L 368.86 380.65000000000003 L 368.6 378.77 L 368.31 376.90000000000003 L 367.99 375.02 L 367.65000000000003 373.14 L 367.26 371.26 L 366.84000000000003 369.38 L 366.38 367.51 L 365.88 365.63 L 365.35 363.75 L 364.78000000000003 361.87 L 364.19 359.99 L 363.58 358.12 L 362.96 356.24 L 362.33 354.36 L 361.71 352.48 L 361.11 350.6 L 360.53000000000003 348.73 L 359.99 346.85 L 359.48 344.97 L 359.01 343.09000000000003 L 358.58 341.21 L 358.18 339.34000000000003 L 357.82 337.46 L 357.48 335.58 L 357.17 333.7 L 356.87 331.82 L 356.58 329.94 L 356.28000000000003 328.07 L 355.97 326.19 L 355.64 324.31 L 355.29 322.43 L 354.92 320.55 L 354.51 318.68 L 354.07 316.8 L 353.6 314.92 L 353.1 313.04 L 352.57 311.16 L 352.01 309.29 L 351.43 307.41 L 350.84000000000003 305.53000000000003 L 350.24 303.65000000000003 L 349.64 301.77 L 349.05 299.90000000000003 L 348.47 298.02 L 347.93 296.14 L 347.42 294.26 L 346.94 292.38 L 346.52 290.51 L 346.14 288.63 L 345.82 286.75 L 345.54 284.87 L 345.31 282.99 L 345.12 281.12 L 344.98 279.24 L 344.86 277.36 L 344.76 275.48 L 344.68 273.6 L 344.61 271.73 L 344.54 269.85 L 344.47 267.97 L 344.38 266.09000000000003 L 344.28000000000003 264.21 L 344.17 262.34000000000003 L 344.04 260.46 L 343.89 258.58 L 343.73 256.7 L 343.55 254.82 L 343.35 252.95000000000002 L 343.15000000000003 251.07 L 342.95 249.19 L 342.75 247.31 L 342.56 245.43 L 342.40000000000003 243.56 L 342.28000000000003 241.68 L 342.21 239.8 L 342.2 237.92000000000002 L 342.27 236.04 L 342.44 234.17000000000002 L 342.71 232.29 L 343.09000000000003 230.41 L 343.6 228.53 L 344.23 226.65 L 344.99 224.78 L 345.86 222.9 L 346.83 221.02 L 347.89 219.14000000000001 L 349.03000000000003 217.26 L 350.22 215.39000000000001 L 351.45 213.51 L 352.69 211.63 L 353.92 209.75 L 355.13 207.87 L 356.3 206.0 L 357.41 204.12 L 358.47 202.24 L 359.47 200.36 L 360.39 198.48000000000002 L 361.24 196.61 L 362.03000000000003 194.73000000000002 L 362.74 192.85 L 363.39 190.97 L 363.98 189.09 L 364.5 187.22 L 364.96 185.34 L 365.37 183.46 L 365.72 181.58 L 366.02 179.70000000000002 L 366.28000000000003 177.83 L 366.49 175.95000000000002 L 366.66 174.07 L 366.8 172.19 L 366.92 170.31 L 367.02 168.44 L 367.11 166.56 L 367.2 164.68 L 367.28000000000003 162.8 L 367.38 160.92000000000002 L 367.49 159.05 L 367.61 157.17000000000002 L 367.76 155.29 L 367.92 153.41 L 368.09000000000003 151.53 L 368.28000000000003 149.66 L 368.49 147.78 L 368.71 145.9 L 368.93 144.02 L 369.15000000000003 142.14000000000001 L 369.38 140.27 L 369.6 138.39000000000001 L 369.82 136.51 L 370.03000000000003 134.63 L 370.23 132.75 L 370.43 130.87 L 370.61 129.0 L 370.79 127.12 L 370.95 125.24000000000001 L 371.1 123.36 L 371.24 121.48 L 371.37 119.61 L 371.49 117.73 L 371.6 115.85000000000001 L 371.7 113.97 L 371.78000000000003 112.09 L 371.86 110.22 L 371.92 108.34 L 371.98 106.46000000000001 L 372.02 104.58 L 372.06 102.7 L 372.09000000000003 100.83 L 372.12 98.95 L 372.14 97.07000000000001 L 372.16 95.19 L 372.17 93.31 L 372.18 91.44 L 372.18 89.56 L 372.19 87.68 L 372.19 85.8 L 372.21 85.8 L 372.21 87.68 L 372.22 89.56 L 372.22 91.44 L 372.23 93.31 L 372.24 95.19 L 372.26 97.07000000000001 L 372.28000000000003 98.95 L 372.31 100.83 L 372.34000000000003 102.7 L 372.38 104.58 L 372.42 106.46000000000001 L 372.48 108.34 L 372.54 110.22 L 372.62 112.09 L 372.7 113.97 L 372.8 115.85000000000001 L 372.91 117.73 L 373.03000000000003 119.61 L 373.16 121.48 L 373.3 123.36 L 373.45 125.24000000000001 L 373.61 127.12 L 373.79 129.0 L 373.97 130.87 L 374.17 132.75 L 374.37 134.63 L 374.58 136.51 L 374.8 138.39000000000001 L 375.02 140.27 L 375.25 142.14000000000001 L 375.47 144.02 L 375.69 145.9 L 375.91 147.78 L 376.12 149.66 L 376.31 151.53 L 376.48 153.41 L 376.64 155.29 L 376.79 157.17000000000002 L 376.91 159.05 L 377.02 160.92000000000002 L 377.12 162.8 L 377.2 164.68 L 377.29 166.56 L 377.38 168.44 L 377.48 170.31 L 377.6 172.19 L 377.74 174.07 L 377.91 175.95000000000002 L 378.12 177.83 L 378.38 179.70000000000002 L 378.68 181.58 L 379.03000000000003 183.46 L 379.44 185.34 L 379.90000000000003 187.22 L 380.42 189.09 L 381.01 190.97 L 381.66 192.85 L 382.37 194.73000000000002 L 383.16 196.61 L 384.01 198.48000000000002 L 384.93 200.36 L 385.93 202.24 L 386.99 204.12 L 388.1 206.0 L 389.27 207.87 L 390.48 209.75 L 391.71000000000004 211.63 L 392.95 213.51 L 394.18 215.39000000000001 L 395.37 217.26 L 396.51 219.14000000000001 L 397.57 221.02 L 398.54 222.9 L 399.41 224.78 L 400.17 226.65 L 400.8 228.53 L 401.31 230.41 L 401.69 232.29 L 401.96000000000004 234.17000000000002 L 402.13 236.04 L 402.2 237.92000000000002 L 402.19 239.8 L 402.12 241.68 L 402.0 243.56 L 401.84000000000003 245.43 L 401.65000000000003 247.31 L 401.45 249.19 L 401.25 251.07 L 401.05 252.95000000000002 L 400.85 254.82 L 400.67 256.7 L 400.51 258.58 L 400.36 260.46 L 400.23 262.34000000000003 L 400.12 264.21 L 400.02 266.09000000000003 L 399.93 267.97 L 399.86 269.85 L 399.79 271.73 L 399.72 273.6 L 399.64 275.48 L 399.54 277.36 L 399.42 279.24 L 399.28000000000003 281.12 L 399.09000000000003 282.99 L 398.86 284.87 L 398.58 286.75 L 398.26 288.63 L 397.88 290.51 L 397.46000000000004 292.38 L 396.98 294.26 L 396.47 296.14 L 395.93 298.02 L 395.35 299.90000000000003 L 394.76 301.77 L 394.16 303.65000000000003 L 393.56 305.53000000000003 L 392.97 307.41 L 392.39 309.29 L 391.83 311.16 L 391.3 313.04 L 390.8 314.92 L 390.33 316.8 L 389.89 318.68 L 389.48 320.55 L 389.11 322.43 L 388.76 324.31 L 388.43 326.19 L 388.12 328.07 L 387.82 329.94 L 387.53000000000003 331.82 L 387.23 333.7 L 386.92 335.58 L 386.58 337.46 L 386.22 339.34000000000003 L 385.82 341.21 L 385.39 343.09000000000003 L 384.92 344.97 L 384.41 346.85 L 383.87 348.73 L 383.29 350.6 L 382.69 352.48 L 382.07 354.36 L 381.44 356.24 L 380.82 358.12 L 380.21 359.99 L 379.62 361.87 L 379.05 363.75 L 378.52 365.63 L 378.02 367.51 L 377.56 369.38 L 377.14 371.26 L 376.75 373.14 L 376.41 375.02 L 376.09000000000003 376.90000000000003 L 375.8 378.77 L 375.54 380.65000000000003 L 375.31 382.53000000000003 L 375.09000000000003 384.41 L 374.89 386.29 L 374.7 388.16 L 374.53000000000003 390.04 L 374.37 391.92 L 374.22 393.8 L 374.08 395.68 L 373.95 397.55 L 373.83 399.43 L 373.71 401.31 L 373.6 403.19 L 373.5 405.07 L 373.40000000000003 406.94 L 373.3 408.82 L 373.21 410.7 L 373.12 412.58 L 373.04 414.46000000000004 L 372.96 416.33 L 372.88 418.21000000000004 L 372.81 420.09000000000003 L 372.74 421.97 L 372.67 423.85 L 372.61 425.72 L 372.55 427.6 L 372.5 429.48 L 372.45 431.36 L 372.41 433.24 L 372.37 435.11 L 372.34000000000003 436.99 L 372.31 438.87 L 372.29 440.75 L 372.27 442.63 L 372.25 444.5 L 372.24 446.38 L 372.23 448.26 L 372.22 450.14 L 372.22 452.02 L 372.21 453.89 L 372.21 455.77 L 372.21 457.65000000000003 L 372.2 459.53000000000003 Z" stroke="#000000" stroke-width="0.5" fill="#4682b4" /></svg>