<svg xmlns="http://www.w3.org/2000/svg" width="673" height="545" font-family="DejaVu Sans, Liberation Sans, Arial, sans-serif" fill="black"><rect width="100%" height="100%" fill="white" /><defs><clipPath id="kuva-clip-1"><rect x="59" y="44" width="600" height="450"/></clipPath></defs><line x1="59" y1="429.71000000000004" x2="659" y2="429.71000000000004" stroke="#cccccc" stroke-width="1" /><line x1="59" y1="365.43" x2="659" y2="365.43" stroke="#cccccc" stroke-width="1" /><line x1="59" y1="301.14" x2="659" y2="301.14" stroke="#cccccc" stroke-width="1" /><line x1="59" y1="236.86" x2="659" y2="236.86" stroke="#cccccc" stroke-width="1" /><line x1="59" y1="172.57" x2="659" y2="172.57" stroke="#cccccc" stroke-width="1" /><line x1="59" y1="108.29" x2="659" y2="108.29" stroke="#cccccc" stroke-width="1" /><line x1="59" y1="44" x2="659" y2="44" stroke="#cccccc" stroke-width="1" /><line x1="59" y1="494" x2="659" y2="494" stroke="#000000" stroke-width="1" /><line x1="59" y1="44" x2="59" y2="494" stroke="#000000" stroke-width="1" /><text x="359" y="511" font-size="12" text-anchor="middle"></text><line x1="359" y1="494" x2="359" y2="499" stroke="#000000" stroke-width="1" /><line x1="54" y1="494" x2="59" y2="494" stroke="#000000" stroke-width="1" /><text x="51" y="498.2" font-size="12" text-anchor="end">-4</text><line x1="54" y1="429.71000000000004" x2="59" y2="429.71000000000004" stroke="#000000" stroke-width="1" /><text x="51" y="433.91" font-size="12" text-anchor="end">-3</text><line x1="54" y1="365.43" x2="59" y2="365.43" stroke="#000000" stroke-width="1" /><text x="51" y="369.63" font-size="12" text-anchor="end">-2</text><line x1="54" y1="301.14" x2="59" y2="301.14" stroke="#000000" stroke-width="1" /><text x="51" y="305.34000000000003" font-size="12" text-anchor="end">-1</text><line x1="54" y1="236.86" x2="59" y2="236.86" stroke="#000000" stroke-width="1" /><text x="51" y="241.06" font-size="12" text-anchor="end">0</text><line x1="54" y1="172.57" x2="59" y2="172.57" stroke="#000000" stroke-width="1" /><text x="51" y="176.77" font-size="12" text-anchor="end">1</text><line x1="54" y1="108.29" x2="59" y2="108.29" stroke="#000000" stroke-width="1" /><text x="51" y="112.49000000000001" font-size="12" text-anchor="end">2</text><line x1="54" y1="44" x2="59" y2="44" stroke="#000000" stroke-width="1" /><text x="51" y="48.2" font-size="12" text-anchor="end">3</text><text x="336.5" y="27.400000000000002" font-size="18" text-anchor="middle">Narrow (h = 0.15)</text><g clip-path="url(#kuva-clip-1)"><path d="M 358.99 431.68 L 358.99 429.77 L 358.98 427.85 L 358.97 425.93 L 358.95 424.02 L 358.92 422.1 L 358.88 420.19 L 358.84000000000003 418.27 L 358.78000000000003 416.35 L 358.71 414.44 L 358.63 412.52 L 358.55 410.61 L 358.46 408.69 L 358.38 406.77 L 358.31 404.86 L 358.24 402.94 L 358.18 401.03000000000003 L 358.12 399.11 L 358.07 397.19 L 358.01 395.28000000000003 L 357.96 393.36 L 357.90000000000003 391.45 L 357.83 389.53000000000003 L 357.77 387.61 L 357.69 385.7 L 357.61 383.78000000000003 L 357.53000000000003 381.87 L 357.44 379.95 L 357.33 378.04 L 357.21 376.12 L 357.08 374.2 L 356.92 372.29 L 356.75 370.37 L 356.57 368.46 L 356.39 366.54 L 356.2 364.62 L 356.03000000000003 362.71 L 355.88 360.79 L 355.75 358.88 L 355.64 356.96 L 355.54 355.04 L 355.44 353.13 L 355.32 351.21 L 355.14 349.3 L 354.87 347.38 L 354.5 345.46 L 354.0 343.55 L 353.37 341.63 L 352.61 339.72 L 351.74 337.8 L 350.79 335.88 L 349.79 333.97 L 348.79 332.05 L 347.84000000000003 330.14 L 346.99 328.22 L 346.27 326.31 L 345.72 324.39 L 345.35 322.47 L 345.15000000000003 320.56 L 345.11 318.64 L 345.19 316.73 L 345.33 314.81 L 345.48 312.89 L 345.6 310.98 L 345.65000000000003 309.06 L 345.61 307.15000000000003 L 345.48 305.23 L 345.29 303.31 L 345.04 301.40000000000003 L 344.78000000000003 299.48 L 344.5 297.57 L 344.24 295.65000000000003 L 343.97 293.73 L 343.68 291.82 L 343.37 289.90000000000003 L 343.0 287.99 L 342.57 286.07 L 342.07 284.15000000000003 L 341.51 282.24 L 340.90000000000003 280.32 L 340.26 278.41 L 339.59000000000003 276.49 L 338.90000000000003 274.57 L 338.2 272.66 L 337.48 270.74 L 336.75 268.83 L 336.02 266.91 L 335.3 265.0 L 334.63 263.08 L 334.05 261.16 L 333.59000000000003 259.25 L 333.29 257.33 L 333.15000000000003 255.42000000000002 L 333.19 253.5 L 333.37 251.58 L 333.66 249.67000000000002 L 334.01 247.75 L 334.37 245.84 L 334.67 243.92000000000002 L 334.89 242.0 L 335.0 240.09 L 334.99 238.17000000000002 L 334.88 236.26 L 334.7 234.34 L 334.47 232.42000000000002 L 334.24 230.51 L 334.04 228.59 L 333.88 226.68 L 333.76 224.76 L 333.69 222.84 L 333.64 220.93 L 333.59000000000003 219.01 L 333.51 217.1 L 333.40000000000003 215.18 L 333.23 213.27 L 333.0 211.35 L 332.7 209.43 L 332.33 207.52 L 331.90000000000003 205.6 L 331.42 203.69 L 330.91 201.77 L 330.39 199.85 L 329.90000000000003 197.94 L 329.47 196.02 L 329.15000000000003 194.11 L 329.0 192.19 L 329.07 190.27 L 329.41 188.36 L 330.06 186.44 L 331.03000000000003 184.53 L 332.32 182.61 L 333.90000000000003 180.69 L 335.71 178.78 L 337.65000000000003 176.86 L 339.62 174.95000000000002 L 341.54 173.03 L 343.31 171.11 L 344.86 169.20000000000002 L 346.16 167.28 L 347.2 165.37 L 348.0 163.45000000000002 L 348.6 161.54 L 349.06 159.62 L 349.44 157.70000000000002 L 349.81 155.79 L 350.19 153.87 L 350.63 151.96 L 351.13 150.04 L 351.69 148.12 L 352.28000000000003 146.21 L 352.88 144.29 L 353.46 142.38 L 353.98 140.46 L 354.42 138.54 L 354.76 136.63 L 355.0 134.71 L 355.13 132.8 L 355.16 130.88 L 355.11 128.96 L 354.99 127.05 L 354.82 125.13000000000001 L 354.63 123.22 L 354.42 121.3 L 354.22 119.38 L 354.04 117.47 L 353.90000000000003 115.55 L 353.82 113.64 L 353.81 111.72 L 353.87 109.8 L 354.01 107.89 L 354.23 105.97 L 354.52 104.06 L 354.85 102.14 L 355.22 100.23 L 355.59000000000003 98.31 L 355.94 96.39 L 356.26 94.48 L 356.54 92.56 L 356.76 90.65 L 356.94 88.73 L 357.07 86.81 L 357.19 84.9 L 357.29 82.98 L 357.39 81.07000000000001 L 357.5 79.15 L 357.64 77.23 L 357.79 75.32000000000001 L 357.95 73.4 L 358.12 71.49 L 358.28000000000003 69.57000000000001 L 358.44 67.65 L 358.57 65.74 L 358.69 63.82 L 358.78000000000003 61.910000000000004 L 358.85 59.99 L 358.90000000000003 58.07 L 358.94 56.160000000000004 L 358.96 54.24 L 358.98 52.33 L 358.99 50.410000000000004 L 359.01 50.410000000000004 L 359.02 52.33 L 359.04 54.24 L 359.06 56.160000000000004 L 359.1 58.07 L 359.15000000000003 59.99 L 359.22 61.910000000000004 L 359.31 63.82 L 359.43 65.74 L 359.56 67.65 L 359.72 69.57000000000001 L 359.88 71.49 L 360.05 73.4 L 360.21 75.32000000000001 L 360.36 77.23 L 360.5 79.15 L 360.61 81.07000000000001 L 360.71 82.98 L 360.81 84.9 L 360.93 86.81 L 361.06 88.73 L 361.24 90.65 L 361.46 92.56 L 361.74 94.48 L 362.06 96.39 L 362.41 98.31 L 362.78000000000003 100.23 L 363.15000000000003 102.14 L 363.48 104.06 L 363.77 105.97 L 363.99 107.89 L 364.13 109.8 L 364.19 111.72 L 364.18 113.64 L 364.1 115.55 L 363.96 117.47 L 363.78000000000003 119.38 L 363.58 121.3 L 363.37 123.22 L 363.18 125.13000000000001 L 363.01 127.05 L 362.89 128.96 L 362.84000000000003 130.88 L 362.87 132.8 L 363.0 134.71 L 363.24 136.63 L 363.58 138.54 L 364.02 140.46 L 364.54 142.38 L 365.12 144.29 L 365.72 146.21 L 366.31 148.12 L 366.87 150.04 L 367.37 151.96 L 367.81 153.87 L 368.19 155.79 L 368.56 157.70000000000002 L 368.94 159.62 L 369.40000000000003 161.54 L 370.0 163.45000000000002 L 370.8 165.37 L 371.84000000000003 167.28 L 373.14 169.20000000000002 L 374.69 171.11 L 376.46 173.03 L 378.38 174.95000000000002 L 380.35 176.86 L 382.29 178.78 L 384.1 180.69 L 385.68 182.61 L 386.97 184.53 L 387.94 186.44 L 388.59000000000003 188.36 L 388.93 190.27 L 389.0 192.19 L 388.85 194.11 L 388.53000000000003 196.02 L 388.1 197.94 L 387.61 199.85 L 387.09000000000003 201.77 L 386.58 203.69 L 386.1 205.6 L 385.67 207.52 L 385.3 209.43 L 385.0 211.35 L 384.77 213.27 L 384.6 215.18 L 384.49 217.1 L 384.41 219.01 L 384.36 220.93 L 384.31 222.84 L 384.24 224.76 L 384.12 226.68 L 383.96000000000004 228.59 L 383.76 230.51 L 383.53000000000003 232.42000000000002 L 383.3 234.34 L 383.12 236.26 L 383.01 238.17000000000002 L 383.0 240.09 L 383.11 242.0 L 383.33 243.92000000000002 L 383.63 245.84 L 383.99 247.75 L 384.34000000000003 249.67000000000002 L 384.63 251.58 L 384.81 253.5 L 384.85 255.42000000000002 L 384.71000000000004 257.33 L 384.41 259.25 L 383.95 261.16 L 383.37 263.08 L 382.7 265.0 L 381.98 266.91 L 381.25 268.83 L 380.52 270.74 L 379.8 272.66 L 379.1 274.57 L 378.41 276.49 L 377.74 278.41 L 377.1 280.32 L 376.49 282.24 L 375.93 284.15000000000003 L 375.43 286.07 L 375.0 287.99 L 374.63 289.90000000000003 L 374.32 291.82 L 374.03000000000003 293.73 L 373.76 295.65000000000003 L 373.5 297.57 L 373.22 299.48 L 372.96 301.40000000000003 L 372.71 303.31 L 372.52 305.23 L 372.39 307.15000000000003 L 372.35 309.06 L 372.40000000000003 310.98 L 372.52 312.89 L 372.67 314.81 L 372.81 316.73 L 372.89 318.64 L 372.85 320.56 L 372.65000000000003 322.47 L 372.28000000000003 324.39 L 371.73 326.31 L 371.01 328.22 L 370.16 330.14 L 369.21 332.05 L 368.21 333.97 L 367.21 335.88 L 366.26 337.8 L 365.39 339.72 L 364.63 341.63 L 364.0 343.55 L 363.5 345.46 L 363.13 347.38 L 362.86 349.3 L 362.68 351.21 L 362.56 353.13 L 362.46 355.04 L 362.36 356.96 L 362.25 358.88 L 362.12 360.79 L 361.97 362.71 L 361.8 364.62 L 361.61 366.54 L 361.43 368.46 L 361.25 370.37 L 361.08 372.29 L 360.92 374.2 L 360.79 376.12 L 360.67 378.04 L 360.56 379.95 L 360.47 381.87 L 360.39 383.78000000000003 L 360.31 385.7 L 360.23 387.61 L 360.17 389.53000000000003 L 360.1 391.45 L 360.04 393.36 L 359.99 395.28000000000003 L 359.93 397.19 L 359.88 399.11 L 359.82 401.03000000000003 L 359.76 402.94 L 359.69 404.86 L 359.62 406.77 L 359.54 408.69 L 359.45 410.61 L 359.37 412.52 L 359.29 414.44 L 359.22 416.35 L 359.16 418.27 L 359.12 420.19 L 359.08 422.1 L 359.05 424.02 L 359.03000000000003 425.93 L 359.02 427.85 L 359.01 429.77 L 359.01 431.68 Z" stroke="#000000" stroke-width="0.5" fill="#4682b4" /></g></svg>