<svg xmlns="http://www.w3.org/2000/svg" width="686.2" height="545" font-family="DejaVu Sans, Liberation Sans, Arial, sans-serif" fill="black"><rect width="100%" height="100%" fill="white" /><line x1="72.2" y1="494" x2="672.2" y2="494" stroke="#000000" stroke-width="1" /><line x1="72.2" y1="44" x2="72.2" y2="494" stroke="#000000" stroke-width="1" /><line x1="72.2" y1="381.5" x2="672.2" y2="381.5" stroke="#cccccc" stroke-width="1" /><line x1="72.2" y1="269" x2="672.2" y2="269" stroke="#cccccc" stroke-width="1" /><line x1="72.2" y1="156.5" x2="672.2" y2="156.5" stroke="#cccccc" stroke-width="1" /><line x1="72.2" y1="44" x2="672.2" y2="44" stroke="#cccccc" stroke-width="1" /><text x="372.2" y="511" font-size="12" text-anchor="middle"></text><line x1="372.2" y1="494" x2="372.2" y2="499" stroke="#000000" stroke-width="1" /><line x1="67.2" y1="494" x2="72.2" y2="494" stroke="#000000" stroke-width="1" /><text x="64.2" y="498.2" font-size="12" text-anchor="end">-10</text><line x1="67.2" y1="381.5" x2="72.2" y2="381.5" stroke="#000000" stroke-width="1" /><text x="64.2" y="385.7" font-size="12" text-anchor="end">-5</text><line x1="67.2" y1="269" x2="72.2" y2="269" stroke="#000000" stroke-width="1" /><text x="64.2" y="273.2" font-size="12" text-anchor="end">0</text><line x1="67.2" y1="156.5" x2="72.2" y2="156.5" stroke="#000000" stroke-width="1" /><text x="64.2" y="160.70000000000002" font-size="12" text-anchor="end">5</text><line x1="67.2" y1="44" x2="72.2" y2="44" stroke="#000000" stroke-width="1" /><text x="64.2" y="48.2" font-size="12" text-anchor="end">10</text><text x="372.2" y="22" font-size="18" text-anchor="middle">Wide (h = 2.0)</text><path d="M 372.19 462.06 L 372.19 460.14 L 372.18 458.21000000000004 L 372.18 456.29 L 372.18 454.36 L 372.17 452.44 L 372.17 450.51 L 372.16 448.58 L 372.16 446.66 L 372.15000000000003 444.73 L 372.14 442.81 L 372.13 440.88 L 372.12 438.96000000000004 L 372.11 437.03000000000003 L 372.1 435.11 L 372.08 433.18 L 372.07 431.25 L 372.05 429.33 L 372.03000000000003 427.40000000000003 L 372.0 425.48 L 371.98 423.55 L 371.95 421.63 L 371.92 419.7 L 371.88 417.77 L 371.84000000000003 415.85 L 371.8 413.92 L 371.75 412.0 L 371.69 410.07 L 371.64 408.15000000000003 L 371.57 406.22 L 371.5 404.3 L 371.42 402.37 L 371.34000000000003 400.44 L 371.24 398.52 L 371.14 396.59000000000003 L 371.03000000000003 394.67 L 370.91 392.74 L 370.78000000000003 390.82 L 370.63 388.89 L 370.48 386.96000000000004 L 370.32 385.04 L 370.14 383.11 L 369.95 381.19 L 369.74 379.26 L 369.52 377.34000000000003 L 369.28000000000003 375.41 L 369.03000000000003 373.49 L 368.76 371.56 L 368.48 369.63 L 368.17 367.71 L 367.85 365.78000000000003 L 367.51 363.86 L 367.15000000000003 361.93 L 366.77 360.01 L 366.37 358.08 L 365.96 356.16 L 365.52 354.23 L 365.06 352.3 L 364.58 350.38 L 364.08 348.45 L 363.57 346.53000000000003 L 363.03000000000003 344.6 L 362.47 342.68 L 361.90000000000003 340.75 L 361.31 338.82 L 360.7 336.90000000000003 L 360.08 334.97 L 359.44 333.05 L 358.79 331.12 L 358.12 329.2 L 357.45 327.27 L 356.77 325.35 L 356.07 323.42 L 355.38 321.49 L 354.68 319.57 L 353.97 317.64 L 353.27 315.72 L 352.57 313.79 L 351.87 311.87 L 351.18 309.94 L 350.5 308.02 L 349.83 306.09000000000003 L 349.18 304.16 L 348.54 302.24 L 347.92 300.31 L 347.32 298.39 L 346.74 296.46 L 346.19 294.54 L 345.67 292.61 L 345.17 290.68 L 344.71 288.76 L 344.28000000000003 286.83 L 343.89 284.91 L 343.54 282.98 L 343.22 281.06 L 342.95 279.13 L 342.71 277.21 L 342.52 275.28000000000003 L 342.38 273.35 L 342.27 271.43 L 342.21 269.5 L 342.2 267.58 L 342.23 265.65 L 342.31 263.73 L 342.43 261.8 L 342.59000000000003 259.88 L 342.8 257.95 L 343.05 256.02 L 343.34000000000003 254.1 L 343.68 252.17000000000002 L 344.05 250.25 L 344.45 248.32 L 344.90000000000003 246.4 L 345.37 244.47 L 345.88 242.54 L 346.41 240.62 L 346.98 238.69 L 347.57 236.77 L 348.18 234.84 L 348.81 232.92000000000002 L 349.46 230.99 L 350.12 229.07 L 350.8 227.14000000000001 L 351.49 225.21 L 352.18 223.29 L 352.88 221.36 L 353.59000000000003 219.44 L 354.3 217.51 L 355.0 215.59 L 355.71 213.66 L 356.40000000000003 211.74 L 357.09000000000003 209.81 L 357.78000000000003 207.88 L 358.45 205.96 L 359.11 204.03 L 359.76 202.11 L 360.40000000000003 200.18 L 361.01 198.26 L 361.62 196.33 L 362.2 194.4 L 362.77 192.48000000000002 L 363.32 190.55 L 363.85 188.63 L 364.36 186.70000000000002 L 364.85 184.78 L 365.32 182.85 L 365.77 180.93 L 366.19 179.0 L 366.6 177.07 L 366.99 175.15 L 367.36 173.22 L 367.71 171.3 L 368.04 169.37 L 368.36 167.45000000000002 L 368.65000000000003 165.52 L 368.93 163.6 L 369.19 161.67000000000002 L 369.43 159.74 L 369.66 157.82 L 369.87 155.89000000000001 L 370.07 153.97 L 370.25 152.04 L 370.42 150.12 L 370.58 148.19 L 370.73 146.26 L 370.86 144.34 L 370.99 142.41 L 371.1 140.49 L 371.21 138.56 L 371.31 136.64000000000001 L 371.39 134.71 L 371.47 132.79 L 371.55 130.86 L 371.62 128.93 L 371.68 127.01 L 371.73 125.08 L 371.78000000000003 123.16 L 371.83 121.23 L 371.87 119.31 L 371.91 117.38 L 371.94 115.46000000000001 L 371.97 113.53 L 372.0 111.60000000000001 L 372.02 109.68 L 372.04 107.75 L 372.06 105.83 L 372.08 103.9 L 372.09000000000003 101.98 L 372.11 100.05 L 372.12 98.12 L 372.13 96.2 L 372.14 94.27 L 372.15000000000003 92.35000000000001 L 372.15000000000003 90.42 L 372.16 88.5 L 372.17 86.57000000000001 L 372.17 84.65 L 372.17 82.72 L 372.18 80.79 L 372.18 78.87 L 372.22 78.87 L 372.22 80.79 L 372.23 82.72 L 372.23 84.65 L 372.23 86.57000000000001 L 372.24 88.5 L 372.25 90.42 L 372.25 92.35000000000001 L 372.26 94.27 L 372.27 96.2 L 372.28000000000003 98.12 L 372.29 100.05 L 372.31 101.98 L 372.32 103.9 L 372.34000000000003 105.83 L 372.36 107.75 L 372.38 109.68 L 372.40000000000003 111.60000000000001 L 372.43 113.53 L 372.46 115.46000000000001 L 372.49 117.38 L 372.53000000000003 119.31 L 372.57 121.23 L 372.62 123.16 L 372.67 125.08 L 372.72 127.01 L 372.78000000000003 128.93 L 372.85 130.86 L 372.93 132.79 L 373.01 134.71 L 373.09000000000003 136.64000000000001 L 373.19 138.56 L 373.3 140.49 L 373.41 142.41 L 373.54 144.34 L 373.67 146.26 L 373.82 148.19 L 373.98 150.12 L 374.15000000000003 152.04 L 374.33 153.97 L 374.53000000000003 155.89000000000001 L 374.74 157.82 L 374.97 159.74 L 375.21 161.67000000000002 L 375.47 163.6 L 375.75 165.52 L 376.04 167.45000000000002 L 376.36 169.37 L 376.69 171.3 L 377.04 173.22 L 377.41 175.15 L 377.8 177.07 L 378.21 179.0 L 378.63 180.93 L 379.08 182.85 L 379.55 184.78 L 380.04 186.70000000000002 L 380.55 188.63 L 381.08 190.55 L 381.63 192.48000000000002 L 382.2 194.4 L 382.78000000000003 196.33 L 383.39 198.26 L 384.0 200.18 L 384.64 202.11 L 385.29 204.03 L 385.95 205.96 L 386.62 207.88 L 387.31 209.81 L 388.0 211.74 L 388.69 213.66 L 389.40000000000003 215.59 L 390.1 217.51 L 390.81 219.44 L 391.52 221.36 L 392.22 223.29 L 392.91 225.21 L 393.6 227.14000000000001 L 394.28000000000003 229.07 L 394.94 230.99 L 395.59000000000003 232.92000000000002 L 396.22 234.84 L 396.83 236.77 L 397.42 238.69 L 397.99 240.62 L 398.52 242.54 L 399.03000000000003 244.47 L 399.5 246.4 L 399.95 248.32 L 400.35 250.25 L 400.72 252.17000000000002 L 401.06 254.1 L 401.35 256.02 L 401.6 257.95 L 401.81 259.88 L 401.97 261.8 L 402.09000000000003 263.73 L 402.17 265.65 L 402.2 267.58 L 402.19 269.5 L 402.13 271.43 L 402.02 273.35 L 401.88 275.28000000000003 L 401.69 277.21 L 401.45 279.13 L 401.18 281.06 L 400.86 282.98 L 400.51 284.91 L 400.12 286.83 L 399.69 288.76 L 399.23 290.68 L 398.73 292.61 L 398.21000000000004 294.54 L 397.66 296.46 L 397.08 298.39 L 396.48 300.31 L 395.86 302.24 L 395.22 304.16 L 394.57 306.09000000000003 L 393.90000000000003 308.02 L 393.22 309.94 L 392.53000000000003 311.87 L 391.83 313.79 L 391.13 315.72 L 390.43 317.64 L 389.72 319.57 L 389.02 321.49 L 388.33 323.42 L 387.63 325.35 L 386.95 327.27 L 386.28000000000003 329.2 L 385.61 331.12 L 384.96000000000004 333.05 L 384.32 334.97 L 383.7 336.90000000000003 L 383.09000000000003 338.82 L 382.5 340.75 L 381.93 342.68 L 381.37 344.6 L 380.83 346.53000000000003 L 380.32 348.45 L 379.82 350.38 L 379.34000000000003 352.3 L 378.88 354.23 L 378.44 356.16 L 378.03000000000003 358.08 L 377.63 360.01 L 377.25 361.93 L 376.89 363.86 L 376.55 365.78000000000003 L 376.23 367.71 L 375.92 369.63 L 375.64 371.56 L 375.37 373.49 L 375.12 375.41 L 374.88 377.34000000000003 L 374.66 379.26 L 374.45 381.19 L 374.26 383.11 L 374.08 385.04 L 373.92 386.96000000000004 L 373.77 388.89 L 373.62 390.82 L 373.49 392.74 L 373.37 394.67 L 373.26 396.59000000000003 L 373.16 398.52 L 373.06 400.44 L 372.98 402.37 L 372.90000000000003 404.3 L 372.83 406.22 L 372.76 408.15000000000003 L 372.71 410.07 L 372.65000000000003 412.0 L 372.6 413.92 L 372.56 415.85 L 372.52 417.77 L 372.48 419.7 L 372.45 421.63 L 372.42 423.55 L 372.40000000000003 425.48 L 372.37 427.40000000000003 L 372.35 429.33 L 372.33 431.25 L 372.32 433.18 L 372.3 435.11 L 372.29 437.03000000000003 L 372.28000000000003 438.96000000000004 L 372.27 440.88 L 372.26 442.81 L 372.25 444.73 L 372.24 446.66 L 372.24 448.58 L 372.23 450.51 L 372.23 452.44 L 372.22 454.36 L 372.22 456.29 L 372.22 458.21000000000004 L 372.21 460.14 L 372.21 462.06 Z" stroke="#000000" stroke-width="0.5" fill="#4682b4" /></svg>