<svg xmlns="http://www.w3.org/2000/svg" width="686.2" height="545" font-family="DejaVu Sans, Liberation Sans, Arial, sans-serif" fill="black"><rect width="100%" height="100%" fill="white" /><line x1="72.2" y1="494" x2="672.2" y2="494" stroke="#000000" stroke-width="1" /><line x1="72.2" y1="44" x2="72.2" y2="494" stroke="#000000" stroke-width="1" /><line x1="72.2" y1="429.71000000000004" x2="672.2" y2="429.71000000000004" stroke="#cccccc" stroke-width="1" /><line x1="72.2" y1="365.43" x2="672.2" y2="365.43" stroke="#cccccc" stroke-width="1" /><line x1="72.2" y1="301.14" x2="672.2" y2="301.14" stroke="#cccccc" stroke-width="1" /><line x1="72.2" y1="236.86" x2="672.2" y2="236.86" stroke="#cccccc" stroke-width="1" /><line x1="72.2" y1="172.57" x2="672.2" y2="172.57" stroke="#cccccc" stroke-width="1" /><line x1="72.2" y1="108.29" x2="672.2" y2="108.29" stroke="#cccccc" stroke-width="1" /><line x1="72.2" y1="44" x2="672.2" y2="44" stroke="#cccccc" stroke-width="1" /><text x="372.2" y="511" font-size="12" text-anchor="middle"></text><line x1="372.2" y1="494" x2="372.2" y2="499" stroke="#000000" stroke-width="1" /><line x1="67.2" y1="494" x2="72.2" y2="494" stroke="#000000" stroke-width="1" /><text x="64.2" y="498.2" font-size="12" text-anchor="end">-4</text><line x1="67.2" y1="429.71000000000004" x2="72.2" y2="429.71000000000004" stroke="#000000" stroke-width="1" /><text x="64.2" y="433.91" font-size="12" text-anchor="end">-3</text><line x1="67.2" y1="365.43" x2="72.2" y2="365.43" stroke="#000000" stroke-width="1" /><text x="64.2" y="369.63" font-size="12" text-anchor="end">-2</text><line x1="67.2" y1="301.14" x2="72.2" y2="301.14" stroke="#000000" stroke-width="1" /><text x="64.2" y="305.34000000000003" font-size="12" text-anchor="end">-1</text><line x1="67.2" y1="236.86" x2="72.2" y2="236.86" stroke="#000000" stroke-width="1" /><text x="64.2" y="241.06" font-size="12" text-anchor="end">0</text><line x1="67.2" y1="172.57" x2="72.2" y2="172.57" stroke="#000000" stroke-width="1" /><text x="64.2" y="176.77" font-size="12" text-anchor="end">1</text><line x1="67.2" y1="108.29" x2="72.2" y2="108.29" stroke="#000000" stroke-width="1" /><text x="64.2" y="112.49000000000001" font-size="12" text-anchor="end">2</text><line x1="67.2" y1="44" x2="72.2" y2="44" stroke="#000000" stroke-width="1" /><text x="64.2" y="48.2" font-size="12" text-anchor="end">3</text><text x="372.2" y="22" font-size="18" text-anchor="middle">Narrow (h = 0.15)</text><path d="M 372.19 431.68 L 372.19 429.77 L 372.18 427.85 L 372.17 425.93 L 372.15000000000003 424.02 L 372.12 422.1 L 372.08 420.19 L 372.04 418.27 L 371.98 416.35 L 371.91 414.44 L 371.83 412.52 L 371.75 410.61 L 371.66 408.69 L 371.58 406.77 L 371.51 404.86 L 371.44 402.94 L 371.38 401.03000000000003 L 371.32 399.11 L 371.27 397.19 L 371.21 395.28000000000003 L 371.16 393.36 L 371.1 391.45 L 371.03000000000003 389.53000000000003 L 370.97 387.61 L 370.89 385.7 L 370.81 383.78000000000003 L 370.73 381.87 L 370.64 379.95 L 370.53000000000003 378.04 L 370.41 376.12 L 370.28000000000003 374.2 L 370.12 372.29 L 369.95 370.37 L 369.77 368.46 L 369.59000000000003 366.54 L 369.40000000000003 364.62 L 369.23 362.71 L 369.08 360.79 L 368.95 358.88 L 368.84000000000003 356.96 L 368.74 355.04 L 368.64 353.13 L 368.52 351.21 L 368.34000000000003 349.3 L 368.07 347.38 L 367.7 345.46 L 367.2 343.55 L 366.57 341.63 L 365.81 339.72 L 364.94 337.8 L 363.99 335.88 L 362.99 333.97 L 361.99 332.05 L 361.04 330.14 L 360.19 328.22 L 359.47 326.31 L 358.92 324.39 L 358.55 322.47 L 358.35 320.56 L 358.31 318.64 L 358.39 316.73 L 358.53000000000003 314.81 L 358.68 312.89 L 358.8 310.98 L 358.85 309.06 L 358.81 307.15000000000003 L 358.68 305.23 L 358.49 303.31 L 358.24 301.40000000000003 L 357.98 299.48 L 357.7 297.57 L 357.44 295.65000000000003 L 357.17 293.73 L 356.88 291.82 L 356.57 289.90000000000003 L 356.2 287.99 L 355.77 286.07 L 355.27 284.15000000000003 L 354.71 282.24 L 354.1 280.32 L 353.46 278.41 L 352.79 276.49 L 352.1 274.57 L 351.40000000000003 272.66 L 350.68 270.74 L 349.95 268.83 L 349.22 266.91 L 348.5 265.0 L 347.83 263.08 L 347.25 261.16 L 346.79 259.25 L 346.49 257.33 L 346.35 255.42000000000002 L 346.39 253.5 L 346.57 251.58 L 346.86 249.67000000000002 L 347.21 247.75 L 347.57 245.84 L 347.87 243.92000000000002 L 348.09000000000003 242.0 L 348.2 240.09 L 348.19 238.17000000000002 L 348.08 236.26 L 347.90000000000003 234.34 L 347.67 232.42000000000002 L 347.44 230.51 L 347.24 228.59 L 347.08 226.68 L 346.96 224.76 L 346.89 222.84 L 346.84000000000003 220.93 L 346.79 219.01 L 346.71 217.1 L 346.6 215.18 L 346.43 213.27 L 346.2 211.35 L 345.90000000000003 209.43 L 345.53000000000003 207.52 L 345.1 205.6 L 344.62 203.69 L 344.11 201.77 L 343.59000000000003 199.85 L 343.1 197.94 L 342.67 196.02 L 342.35 194.11 L 342.2 192.19 L 342.27 190.27 L 342.61 188.36 L 343.26 186.44 L 344.23 184.53 L 345.52 182.61 L 347.1 180.69 L 348.91 178.78 L 350.85 176.86 L 352.82 174.95000000000002 L 354.74 173.03 L 356.51 171.11 L 358.06 169.20000000000002 L 359.36 167.28 L 360.40000000000003 165.37 L 361.2 163.45000000000002 L 361.8 161.54 L 362.26 159.62 L 362.64 157.70000000000002 L 363.01 155.79 L 363.39 153.87 L 363.83 151.96 L 364.33 150.04 L 364.89 148.12 L 365.48 146.21 L 366.08 144.29 L 366.66 142.38 L 367.18 140.46 L 367.62 138.54 L 367.96 136.63 L 368.2 134.71 L 368.33 132.8 L 368.36 130.88 L 368.31 128.96 L 368.19 127.05 L 368.02 125.13000000000001 L 367.83 123.22 L 367.62 121.3 L 367.42 119.38 L 367.24 117.47 L 367.1 115.55 L 367.02 113.64 L 367.01 111.72 L 367.07 109.8 L 367.21 107.89 L 367.43 105.97 L 367.72 104.06 L 368.05 102.14 L 368.42 100.23 L 368.79 98.31 L 369.14 96.39 L 369.46 94.48 L 369.74 92.56 L 369.96 90.65 L 370.14 88.73 L 370.27 86.81 L 370.39 84.9 L 370.49 82.98 L 370.59000000000003 81.07000000000001 L 370.7 79.15 L 370.84000000000003 77.23 L 370.99 75.32000000000001 L 371.15000000000003 73.4 L 371.32 71.49 L 371.48 69.57000000000001 L 371.64 67.65 L 371.77 65.74 L 371.89 63.82 L 371.98 61.910000000000004 L 372.05 59.99 L 372.1 58.07 L 372.14 56.160000000000004 L 372.16 54.24 L 372.18 52.33 L 372.19 50.410000000000004 L 372.21 50.410000000000004 L 372.22 52.33 L 372.24 54.24 L 372.26 56.160000000000004 L 372.3 58.07 L 372.35 59.99 L 372.42 61.910000000000004 L 372.51 63.82 L 372.63 65.74 L 372.76 67.65 L 372.92 69.57000000000001 L 373.08 71.49 L 373.25 73.4 L 373.41 75.32000000000001 L 373.56 77.23 L 373.7 79.15 L 373.81 81.07000000000001 L 373.91 82.98 L 374.01 84.9 L 374.13 86.81 L 374.26 88.73 L 374.44 90.65 L 374.66 92.56 L 374.94 94.48 L 375.26 96.39 L 375.61 98.31 L 375.98 100.23 L 376.35 102.14 L 376.68 104.06 L 376.97 105.97 L 377.19 107.89 L 377.33 109.8 L 377.39 111.72 L 377.38 113.64 L 377.3 115.55 L 377.16 117.47 L 376.98 119.38 L 376.78000000000003 121.3 L 376.57 123.22 L 376.38 125.13000000000001 L 376.21 127.05 L 376.09000000000003 128.96 L 376.04 130.88 L 376.07 132.8 L 376.2 134.71 L 376.44 136.63 L 376.78000000000003 138.54 L 377.22 140.46 L 377.74 142.38 L 378.32 144.29 L 378.92 146.21 L 379.51 148.12 L 380.07 150.04 L 380.57 151.96 L 381.01 153.87 L 381.39 155.79 L 381.76 157.70000000000002 L 382.14 159.62 L 382.6 161.54 L 383.2 163.45000000000002 L 384.0 165.37 L 385.04 167.28 L 386.34000000000003 169.20000000000002 L 387.89 171.11 L 389.66 173.03 L 391.58 174.95000000000002 L 393.55 176.86 L 395.49 178.78 L 397.3 180.69 L 398.88 182.61 L 400.17 184.53 L 401.14 186.44 L 401.79 188.36 L 402.13 190.27 L 402.2 192.19 L 402.05 194.11 L 401.73 196.02 L 401.3 197.94 L 400.81 199.85 L 400.29 201.77 L 399.78000000000003 203.69 L 399.3 205.6 L 398.87 207.52 L 398.5 209.43 L 398.2 211.35 L 397.97 213.27 L 397.8 215.18 L 397.69 217.1 L 397.61 219.01 L 397.56 220.93 L 397.51 222.84 L 397.44 224.76 L 397.32 226.68 L 397.16 228.59 L 396.96000000000004 230.51 L 396.73 232.42000000000002 L 396.5 234.34 L 396.32 236.26 L 396.21000000000004 238.17000000000002 L 396.2 240.09 L 396.31 242.0 L 396.53000000000003 243.92000000000002 L 396.83 245.84 L 397.19 247.75 L 397.54 249.67000000000002 L 397.83 251.58 L 398.01 253.5 L 398.05 255.42000000000002 L 397.91 257.33 L 397.61 259.25 L 397.15000000000003 261.16 L 396.57 263.08 L 395.90000000000003 265.0 L 395.18 266.91 L 394.45 268.83 L 393.72 270.74 L 393.0 272.66 L 392.3 274.57 L 391.61 276.49 L 390.94 278.41 L 390.3 280.32 L 389.69 282.24 L 389.13 284.15000000000003 L 388.63 286.07 L 388.2 287.99 L 387.83 289.90000000000003 L 387.52 291.82 L 387.23 293.73 L 386.96000000000004 295.65000000000003 L 386.7 297.57 L 386.42 299.48 L 386.16 301.40000000000003 L 385.91 303.31 L 385.72 305.23 L 385.59000000000003 307.15000000000003 L 385.55 309.06 L 385.6 310.98 L 385.72 312.89 L 385.87 314.81 L 386.01 316.73 L 386.09000000000003 318.64 L 386.05 320.56 L 385.85 322.47 L 385.48 324.39 L 384.93 326.31 L 384.21000000000004 328.22 L 383.36 330.14 L 382.41 332.05 L 381.41 333.97 L 380.41 335.88 L 379.46 337.8 L 378.59000000000003 339.72 L 377.83 341.63 L 377.2 343.55 L 376.7 345.46 L 376.33 347.38 L 376.06 349.3 L 375.88 351.21 L 375.76 353.13 L 375.66 355.04 L 375.56 356.96 L 375.45 358.88 L 375.32 360.79 L 375.17 362.71 L 375.0 364.62 L 374.81 366.54 L 374.63 368.46 L 374.45 370.37 L 374.28000000000003 372.29 L 374.12 374.2 L 373.99 376.12 L 373.87 378.04 L 373.76 379.95 L 373.67 381.87 L 373.59000000000003 383.78000000000003 L 373.51 385.7 L 373.43 387.61 L 373.37 389.53000000000003 L 373.3 391.45 L 373.24 393.36 L 373.19 395.28000000000003 L 373.13 397.19 L 373.08 399.11 L 373.02 401.03000000000003 L 372.96 402.94 L 372.89 404.86 L 372.82 406.77 L 372.74 408.69 L 372.65000000000003 410.61 L 372.57 412.52 L 372.49 414.44 L 372.42 416.35 L 372.36 418.27 L 372.32 420.19 L 372.28000000000003 422.1 L 372.25 424.02 L 372.23 425.93 L 372.22 427.85 L 372.21 429.77 L 372.21 431.68 Z" stroke="#000000" stroke-width="0.5" fill="#4682b4" /></svg>