<svg xmlns="http://www.w3.org/2000/svg" width="673" height="545" font-family="DejaVu Sans, Liberation Sans, Arial, sans-serif" fill="black"><rect width="100%" height="100%" fill="white" /><defs><clipPath id="kuva-clip-2"><rect x="59" y="44" width="600" height="450"/></clipPath></defs><line x1="59" y1="381.5" x2="659" y2="381.5" stroke="#cccccc" stroke-width="1" /><line x1="59" y1="269" x2="659" y2="269" stroke="#cccccc" stroke-width="1" /><line x1="59" y1="156.5" x2="659" y2="156.5" stroke="#cccccc" stroke-width="1" /><line x1="59" y1="44" x2="659" y2="44" stroke="#cccccc" stroke-width="1" /><line x1="59" y1="494" x2="659" y2="494" stroke="#000000" stroke-width="1" /><line x1="59" y1="44" x2="59" y2="494" stroke="#000000" stroke-width="1" /><text x="359" y="511" font-size="12" text-anchor="middle"></text><line x1="359" y1="494" x2="359" y2="499" stroke="#000000" stroke-width="1" /><line x1="54" y1="494" x2="59" y2="494" stroke="#000000" stroke-width="1" /><text x="51" y="498.2" font-size="12" text-anchor="end">-4</text><line x1="54" y1="381.5" x2="59" y2="381.5" stroke="#000000" stroke-width="1" /><text x="51" y="385.7" font-size="12" text-anchor="end">-2</text><line x1="54" y1="269" x2="59" y2="269" stroke="#000000" stroke-width="1" /><text x="51" y="273.2" font-size="12" text-anchor="end">0</text><line x1="54" y1="156.5" x2="59" y2="156.5" stroke="#000000" stroke-width="1" /><text x="51" y="160.70000000000002" font-size="12" text-anchor="end">2</text><line x1="54" y1="44" x2="59" y2="44" stroke="#000000" stroke-width="1" /><text x="51" y="48.2" font-size="12" text-anchor="end">4</text><text x="336.5" y="27.400000000000002" font-size="18" text-anchor="middle">Auto (Silverman)</text><g clip-path="url(#kuva-clip-2)"><path d="M 359.0 459.53000000000003 L 358.99 457.65000000000003 L 358.99 455.77 L 358.99 453.89 L 358.98 452.02 L 358.98 450.14 L 358.97 448.26 L 358.96 446.38 L 358.95 444.5 L 358.93 442.63 L 358.91 440.75 L 358.89 438.87 L 358.86 436.99 L 358.83 435.11 L 358.79 433.24 L 358.75 431.36 L 358.7 429.48 L 358.65000000000003 427.6 L 358.59000000000003 425.72 L 358.53000000000003 423.85 L 358.46 421.97 L 358.39 420.09000000000003 L 358.32 418.21000000000004 L 358.24 416.33 L 358.16 414.46000000000004 L 358.08 412.58 L 357.99 410.7 L 357.90000000000003 408.82 L 357.8 406.94 L 357.7 405.07 L 357.6 403.19 L 357.49 401.31 L 357.37 399.43 L 357.25 397.55 L 357.12 395.68 L 356.98 393.8 L 356.83 391.92 L 356.67 390.04 L 356.5 388.16 L 356.31 386.29 L 356.11 384.41 L 355.89 382.53000000000003 L 355.66 380.65000000000003 L 355.40000000000003 378.77 L 355.11 376.90000000000003 L 354.79 375.02 L 354.45 373.14 L 354.06 371.26 L 353.64 369.38 L 353.18 367.51 L 352.68 365.63 L 352.15000000000003 363.75 L 351.58 361.87 L 350.99 359.99 L 350.38 358.12 L 349.76 356.24 L 349.13 354.36 L 348.51 352.48 L 347.91 350.6 L 347.33 348.73 L 346.79 346.85 L 346.28000000000003 344.97 L 345.81 343.09000000000003 L 345.38 341.21 L 344.98 339.34000000000003 L 344.62 337.46 L 344.28000000000003 335.58 L 343.97 333.7 L 343.67 331.82 L 343.38 329.94 L 343.08 328.07 L 342.77 326.19 L 342.44 324.31 L 342.09000000000003 322.43 L 341.72 320.55 L 341.31 318.68 L 340.87 316.8 L 340.40000000000003 314.92 L 339.90000000000003 313.04 L 339.37 311.16 L 338.81 309.29 L 338.23 307.41 L 337.64 305.53000000000003 L 337.04 303.65000000000003 L 336.44 301.77 L 335.85 299.90000000000003 L 335.27 298.02 L 334.73 296.14 L 334.22 294.26 L 333.74 292.38 L 333.32 290.51 L 332.94 288.63 L 332.62 286.75 L 332.34000000000003 284.87 L 332.11 282.99 L 331.92 281.12 L 331.78000000000003 279.24 L 331.66 277.36 L 331.56 275.48 L 331.48 273.6 L 331.41 271.73 L 331.34000000000003 269.85 L 331.27 267.97 L 331.18 266.09000000000003 L 331.08 264.21 L 330.97 262.34000000000003 L 330.84000000000003 260.46 L 330.69 258.58 L 330.53000000000003 256.7 L 330.35 254.82 L 330.15000000000003 252.95000000000002 L 329.95 251.07 L 329.75 249.19 L 329.55 247.31 L 329.36 245.43 L 329.2 243.56 L 329.08 241.68 L 329.01 239.8 L 329.0 237.92000000000002 L 329.07 236.04 L 329.24 234.17000000000002 L 329.51 232.29 L 329.89 230.41 L 330.40000000000003 228.53 L 331.03000000000003 226.65 L 331.79 224.78 L 332.66 222.9 L 333.63 221.02 L 334.69 219.14000000000001 L 335.83 217.26 L 337.02 215.39000000000001 L 338.25 213.51 L 339.49 211.63 L 340.72 209.75 L 341.93 207.87 L 343.1 206.0 L 344.21 204.12 L 345.27 202.24 L 346.27 200.36 L 347.19 198.48000000000002 L 348.04 196.61 L 348.83 194.73000000000002 L 349.54 192.85 L 350.19 190.97 L 350.78000000000003 189.09 L 351.3 187.22 L 351.76 185.34 L 352.17 183.46 L 352.52 181.58 L 352.82 179.70000000000002 L 353.08 177.83 L 353.29 175.95000000000002 L 353.46 174.07 L 353.6 172.19 L 353.72 170.31 L 353.82 168.44 L 353.91 166.56 L 354.0 164.68 L 354.08 162.8 L 354.18 160.92000000000002 L 354.29 159.05 L 354.41 157.17000000000002 L 354.56 155.29 L 354.72 153.41 L 354.89 151.53 L 355.08 149.66 L 355.29 147.78 L 355.51 145.9 L 355.73 144.02 L 355.95 142.14000000000001 L 356.18 140.27 L 356.40000000000003 138.39000000000001 L 356.62 136.51 L 356.83 134.63 L 357.03000000000003 132.75 L 357.23 130.87 L 357.41 129.0 L 357.59000000000003 127.12 L 357.75 125.24000000000001 L 357.90000000000003 123.36 L 358.04 121.48 L 358.17 119.61 L 358.29 117.73 L 358.40000000000003 115.85000000000001 L 358.5 113.97 L 358.58 112.09 L 358.66 110.22 L 358.72 108.34 L 358.78000000000003 106.46000000000001 L 358.82 104.58 L 358.86 102.7 L 358.89 100.83 L 358.92 98.95 L 358.94 97.07000000000001 L 358.96 95.19 L 358.97 93.31 L 358.98 91.44 L 358.98 89.56 L 358.99 87.68 L 358.99 85.8 L 359.01 85.8 L 359.01 87.68 L 359.02 89.56 L 359.02 91.44 L 359.03000000000003 93.31 L 359.04 95.19 L 359.06 97.07000000000001 L 359.08 98.95 L 359.11 100.83 L 359.14 102.7 L 359.18 104.58 L 359.22 106.46000000000001 L 359.28000000000003 108.34 L 359.34000000000003 110.22 L 359.42 112.09 L 359.5 113.97 L 359.6 115.85000000000001 L 359.71 117.73 L 359.83 119.61 L 359.96 121.48 L 360.1 123.36 L 360.25 125.24000000000001 L 360.41 127.12 L 360.59000000000003 129.0 L 360.77 130.87 L 360.97 132.75 L 361.17 134.63 L 361.38 136.51 L 361.6 138.39000000000001 L 361.82 140.27 L 362.05 142.14000000000001 L 362.27 144.02 L 362.49 145.9 L 362.71 147.78 L 362.92 149.66 L 363.11 151.53 L 363.28000000000003 153.41 L 363.44 155.29 L 363.59000000000003 157.17000000000002 L 363.71 159.05 L 363.82 160.92000000000002 L 363.92 162.8 L 364.0 164.68 L 364.09000000000003 166.56 L 364.18 168.44 L 364.28000000000003 170.31 L 364.40000000000003 172.19 L 364.54 174.07 L 364.71 175.95000000000002 L 364.92 177.83 L 365.18 179.70000000000002 L 365.48 181.58 L 365.83 183.46 L 366.24 185.34 L 366.7 187.22 L 367.22 189.09 L 367.81 190.97 L 368.46 192.85 L 369.17 194.73000000000002 L 369.96 196.61 L 370.81 198.48000000000002 L 371.73 200.36 L 372.73 202.24 L 373.79 204.12 L 374.90000000000003 206.0 L 376.07 207.87 L 377.28000000000003 209.75 L 378.51 211.63 L 379.75 213.51 L 380.98 215.39000000000001 L 382.17 217.26 L 383.31 219.14000000000001 L 384.37 221.02 L 385.34000000000003 222.9 L 386.21000000000004 224.78 L 386.97 226.65 L 387.6 228.53 L 388.11 230.41 L 388.49 232.29 L 388.76 234.17000000000002 L 388.93 236.04 L 389.0 237.92000000000002 L 388.99 239.8 L 388.92 241.68 L 388.8 243.56 L 388.64 245.43 L 388.45 247.31 L 388.25 249.19 L 388.05 251.07 L 387.85 252.95000000000002 L 387.65000000000003 254.82 L 387.47 256.7 L 387.31 258.58 L 387.16 260.46 L 387.03000000000003 262.34000000000003 L 386.92 264.21 L 386.82 266.09000000000003 L 386.73 267.97 L 386.66 269.85 L 386.59000000000003 271.73 L 386.52 273.6 L 386.44 275.48 L 386.34000000000003 277.36 L 386.22 279.24 L 386.08 281.12 L 385.89 282.99 L 385.66 284.87 L 385.38 286.75 L 385.06 288.63 L 384.68 290.51 L 384.26 292.38 L 383.78000000000003 294.26 L 383.27 296.14 L 382.73 298.02 L 382.15000000000003 299.90000000000003 L 381.56 301.77 L 380.96 303.65000000000003 L 380.36 305.53000000000003 L 379.77 307.41 L 379.19 309.29 L 378.63 311.16 L 378.1 313.04 L 377.6 314.92 L 377.13 316.8 L 376.69 318.68 L 376.28000000000003 320.55 L 375.91 322.43 L 375.56 324.31 L 375.23 326.19 L 374.92 328.07 L 374.62 329.94 L 374.33 331.82 L 374.03000000000003 333.7 L 373.72 335.58 L 373.38 337.46 L 373.02 339.34000000000003 L 372.62 341.21 L 372.19 343.09000000000003 L 371.72 344.97 L 371.21 346.85 L 370.67 348.73 L 370.09000000000003 350.6 L 369.49 352.48 L 368.87 354.36 L 368.24 356.24 L 367.62 358.12 L 367.01 359.99 L 366.42 361.87 L 365.85 363.75 L 365.32 365.63 L 364.82 367.51 L 364.36 369.38 L 363.94 371.26 L 363.55 373.14 L 363.21 375.02 L 362.89 376.90000000000003 L 362.6 378.77 L 362.34000000000003 380.65000000000003 L 362.11 382.53000000000003 L 361.89 384.41 L 361.69 386.29 L 361.5 388.16 L 361.33 390.04 L 361.17 391.92 L 361.02 393.8 L 360.88 395.68 L 360.75 397.55 L 360.63 399.43 L 360.51 401.31 L 360.40000000000003 403.19 L 360.3 405.07 L 360.2 406.94 L 360.1 408.82 L 360.01 410.7 L 359.92 412.58 L 359.84000000000003 414.46000000000004 L 359.76 416.33 L 359.68 418.21000000000004 L 359.61 420.09000000000003 L 359.54 421.97 L 359.47 423.85 L 359.41 425.72 L 359.35 427.6 L 359.3 429.48 L 359.25 431.36 L 359.21 433.24 L 359.17 435.11 L 359.14 436.99 L 359.11 438.87 L 359.09000000000003 440.75 L 359.07 442.63 L 359.05 444.5 L 359.04 446.38 L 359.03000000000003 448.26 L 359.02 450.14 L 359.02 452.02 L 359.01 453.89 L 359.01 455.77 L 359.01 457.65000000000003 L 359.0 459.53000000000003 Z" stroke="#000000" stroke-width="0.5" fill="#4682b4" /></g></svg>