<svg xmlns="http://www.w3.org/2000/svg" width="677.8000000000001" height="545" font-family="DejaVu Sans, Liberation Sans, Arial, sans-serif" fill="black"><rect width="100%" height="100%" fill="white" /><defs><clipPath id="kuva-clip-3"><rect x="63.800000000000004" y="44" width="600" height="450"/></clipPath></defs><line x1="63.800000000000004" y1="381.5" x2="663.8000000000001" y2="381.5" stroke="#cccccc" stroke-width="1" /><line x1="63.800000000000004" y1="269" x2="663.8000000000001" y2="269" stroke="#cccccc" stroke-width="1" /><line x1="63.800000000000004" y1="156.5" x2="663.8000000000001" y2="156.5" stroke="#cccccc" stroke-width="1" /><line x1="63.800000000000004" y1="44" x2="663.8000000000001" y2="44" stroke="#cccccc" stroke-width="1" /><line x1="63.800000000000004" y1="494" x2="663.8000000000001" y2="494" stroke="#000000" stroke-width="1" /><line x1="63.800000000000004" y1="44" x2="63.800000000000004" y2="494" stroke="#000000" stroke-width="1" /><text x="363.8" y="511" font-size="12" text-anchor="middle"></text><line x1="363.8" y1="494" x2="363.8" y2="499" stroke="#000000" stroke-width="1" /><line x1="58.800000000000004" y1="494" x2="63.800000000000004" y2="494" stroke="#000000" stroke-width="1" /><text x="55.800000000000004" y="498.2" font-size="12" text-anchor="end">-10</text><line x1="58.800000000000004" y1="381.5" x2="63.800000000000004" y2="381.5" stroke="#000000" stroke-width="1" /><text x="55.800000000000004" y="385.7" font-size="12" text-anchor="end">-5</text><line x1="58.800000000000004" y1="269" x2="63.800000000000004" y2="269" stroke="#000000" stroke-width="1" /><text x="55.800000000000004" y="273.2" font-size="12" text-anchor="end">0</text><line x1="58.800000000000004" y1="156.5" x2="63.800000000000004" y2="156.5" stroke="#000000" stroke-width="1" /><text x="55.800000000000004" y="160.70000000000002" font-size="12" text-anchor="end">5</text><line x1="58.800000000000004" y1="44" x2="63.800000000000004" y2="44" stroke="#000000" stroke-width="1" /><text x="55.800000000000004" y="48.2" font-size="12" text-anchor="end">10</text><text x="338.90000000000003" y="27.400000000000002" font-size="18" text-anchor="middle">Wide (h = 2.0)</text><g clip-path="url(#kuva-clip-3)"><path d="M 363.79 462.06 L 363.79 460.14 L 363.78000000000003 458.21000000000004 L 363.78000000000003 456.29 L 363.78000000000003 454.36 L 363.77 452.44 L 363.77 450.51 L 363.76 448.58 L 363.76 446.66 L 363.75 444.73 L 363.74 442.81 L 363.73 440.88 L 363.72 438.96000000000004 L 363.71 437.03000000000003 L 363.7 435.11 L 363.68 433.18 L 363.67 431.25 L 363.65000000000003 429.33 L 363.63 427.40000000000003 L 363.6 425.48 L 363.58 423.55 L 363.55 421.63 L 363.52 419.7 L 363.48 417.77 L 363.44 415.85 L 363.40000000000003 413.92 L 363.35 412.0 L 363.29 410.07 L 363.24 408.15000000000003 L 363.17 406.22 L 363.1 404.3 L 363.02 402.37 L 362.94 400.44 L 362.84000000000003 398.52 L 362.74 396.59000000000003 L 362.63 394.67 L 362.51 392.74 L 362.38 390.82 L 362.23 388.89 L 362.08 386.96000000000004 L 361.92 385.04 L 361.74 383.11 L 361.55 381.19 L 361.34000000000003 379.26 L 361.12 377.34000000000003 L 360.88 375.41 L 360.63 373.49 L 360.36 371.56 L 360.08 369.63 L 359.77 367.71 L 359.45 365.78000000000003 L 359.11 363.86 L 358.75 361.93 L 358.37 360.01 L 357.97 358.08 L 357.56 356.16 L 357.12 354.23 L 356.66 352.3 L 356.18 350.38 L 355.68 348.45 L 355.17 346.53000000000003 L 354.63 344.6 L 354.07 342.68 L 353.5 340.75 L 352.91 338.82 L 352.3 336.90000000000003 L 351.68 334.97 L 351.04 333.05 L 350.39 331.12 L 349.72 329.2 L 349.05 327.27 L 348.37 325.35 L 347.67 323.42 L 346.98 321.49 L 346.28000000000003 319.57 L 345.57 317.64 L 344.87 315.72 L 344.17 313.79 L 343.47 311.87 L 342.78000000000003 309.94 L 342.1 308.02 L 341.43 306.09000000000003 L 340.78000000000003 304.16 L 340.14 302.24 L 339.52 300.31 L 338.92 298.39 L 338.34000000000003 296.46 L 337.79 294.54 L 337.27 292.61 L 336.77 290.68 L 336.31 288.76 L 335.88 286.83 L 335.49 284.91 L 335.14 282.98 L 334.82 281.06 L 334.55 279.13 L 334.31 277.21 L 334.12 275.28000000000003 L 333.98 273.35 L 333.87 271.43 L 333.81 269.5 L 333.8 267.58 L 333.83 265.65 L 333.91 263.73 L 334.03000000000003 261.8 L 334.19 259.88 L 334.40000000000003 257.95 L 334.65000000000003 256.02 L 334.94 254.1 L 335.28000000000003 252.17000000000002 L 335.65000000000003 250.25 L 336.05 248.32 L 336.5 246.4 L 336.97 244.47 L 337.48 242.54 L 338.01 240.62 L 338.58 238.69 L 339.17 236.77 L 339.78000000000003 234.84 L 340.41 232.92000000000002 L 341.06 230.99 L 341.72 229.07 L 342.40000000000003 227.14000000000001 L 343.09000000000003 225.21 L 343.78000000000003 223.29 L 344.48 221.36 L 345.19 219.44 L 345.90000000000003 217.51 L 346.6 215.59 L 347.31 213.66 L 348.0 211.74 L 348.69 209.81 L 349.38 207.88 L 350.05 205.96 L 350.71 204.03 L 351.36 202.11 L 352.0 200.18 L 352.61 198.26 L 353.22 196.33 L 353.8 194.4 L 354.37 192.48000000000002 L 354.92 190.55 L 355.45 188.63 L 355.96 186.70000000000002 L 356.45 184.78 L 356.92 182.85 L 357.37 180.93 L 357.79 179.0 L 358.2 177.07 L 358.59000000000003 175.15 L 358.96 173.22 L 359.31 171.3 L 359.64 169.37 L 359.96 167.45000000000002 L 360.25 165.52 L 360.53000000000003 163.6 L 360.79 161.67000000000002 L 361.03000000000003 159.74 L 361.26 157.82 L 361.47 155.89000000000001 L 361.67 153.97 L 361.85 152.04 L 362.02 150.12 L 362.18 148.19 L 362.33 146.26 L 362.46 144.34 L 362.59000000000003 142.41 L 362.7 140.49 L 362.81 138.56 L 362.91 136.64000000000001 L 362.99 134.71 L 363.07 132.79 L 363.15000000000003 130.86 L 363.22 128.93 L 363.28000000000003 127.01 L 363.33 125.08 L 363.38 123.16 L 363.43 121.23 L 363.47 119.31 L 363.51 117.38 L 363.54 115.46000000000001 L 363.57 113.53 L 363.6 111.60000000000001 L 363.62 109.68 L 363.64 107.75 L 363.66 105.83 L 363.68 103.9 L 363.69 101.98 L 363.71 100.05 L 363.72 98.12 L 363.73 96.2 L 363.74 94.27 L 363.75 92.35000000000001 L 363.75 90.42 L 363.76 88.5 L 363.77 86.57000000000001 L 363.77 84.65 L 363.77 82.72 L 363.78000000000003 80.79 L 363.78000000000003 78.87 L 363.82 78.87 L 363.82 80.79 L 363.83 82.72 L 363.83 84.65 L 363.83 86.57000000000001 L 363.84000000000003 88.5 L 363.85 90.42 L 363.85 92.35000000000001 L 363.86 94.27 L 363.87 96.2 L 363.88 98.12 L 363.89 100.05 L 363.91 101.98 L 363.92 103.9 L 363.94 105.83 L 363.96 107.75 L 363.98 109.68 L 364.0 111.60000000000001 L 364.03000000000003 113.53 L 364.06 115.46000000000001 L 364.09000000000003 117.38 L 364.13 119.31 L 364.17 121.23 L 364.22 123.16 L 364.27 125.08 L 364.32 127.01 L 364.38 128.93 L 364.45 130.86 L 364.53000000000003 132.79 L 364.61 134.71 L 364.69 136.64000000000001 L 364.79 138.56 L 364.90000000000003 140.49 L 365.01 142.41 L 365.14 144.34 L 365.27 146.26 L 365.42 148.19 L 365.58 150.12 L 365.75 152.04 L 365.93 153.97 L 366.13 155.89000000000001 L 366.34000000000003 157.82 L 366.57 159.74 L 366.81 161.67000000000002 L 367.07 163.6 L 367.35 165.52 L 367.64 167.45000000000002 L 367.96 169.37 L 368.29 171.3 L 368.64 173.22 L 369.01 175.15 L 369.40000000000003 177.07 L 369.81 179.0 L 370.23 180.93 L 370.68 182.85 L 371.15000000000003 184.78 L 371.64 186.70000000000002 L 372.15000000000003 188.63 L 372.68 190.55 L 373.23 192.48000000000002 L 373.8 194.4 L 374.38 196.33 L 374.99 198.26 L 375.6 200.18 L 376.24 202.11 L 376.89 204.03 L 377.55 205.96 L 378.22 207.88 L 378.91 209.81 L 379.6 211.74 L 380.29 213.66 L 381.0 215.59 L 381.7 217.51 L 382.41 219.44 L 383.12 221.36 L 383.82 223.29 L 384.51 225.21 L 385.2 227.14000000000001 L 385.88 229.07 L 386.54 230.99 L 387.19 232.92000000000002 L 387.82 234.84 L 388.43 236.77 L 389.02 238.69 L 389.59000000000003 240.62 L 390.12 242.54 L 390.63 244.47 L 391.1 246.4 L 391.55 248.32 L 391.95 250.25 L 392.32 252.17000000000002 L 392.66 254.1 L 392.95 256.02 L 393.2 257.95 L 393.41 259.88 L 393.57 261.8 L 393.69 263.73 L 393.77 265.65 L 393.8 267.58 L 393.79 269.5 L 393.73 271.43 L 393.62 273.35 L 393.48 275.28000000000003 L 393.29 277.21 L 393.05 279.13 L 392.78000000000003 281.06 L 392.46000000000004 282.98 L 392.11 284.91 L 391.72 286.83 L 391.29 288.76 L 390.83 290.68 L 390.33 292.61 L 389.81 294.54 L 389.26 296.46 L 388.68 298.39 L 388.08 300.31 L 387.46000000000004 302.24 L 386.82 304.16 L 386.17 306.09000000000003 L 385.5 308.02 L 384.82 309.94 L 384.13 311.87 L 383.43 313.79 L 382.73 315.72 L 382.03000000000003 317.64 L 381.32 319.57 L 380.62 321.49 L 379.93 323.42 L 379.23 325.35 L 378.55 327.27 L 377.88 329.2 L 377.21 331.12 L 376.56 333.05 L 375.92 334.97 L 375.3 336.90000000000003 L 374.69 338.82 L 374.1 340.75 L 373.53000000000003 342.68 L 372.97 344.6 L 372.43 346.53000000000003 L 371.92 348.45 L 371.42 350.38 L 370.94 352.3 L 370.48 354.23 L 370.04 356.16 L 369.63 358.08 L 369.23 360.01 L 368.85 361.93 L 368.49 363.86 L 368.15000000000003 365.78000000000003 L 367.83 367.71 L 367.52 369.63 L 367.24 371.56 L 366.97 373.49 L 366.72 375.41 L 366.48 377.34000000000003 L 366.26 379.26 L 366.05 381.19 L 365.86 383.11 L 365.68 385.04 L 365.52 386.96000000000004 L 365.37 388.89 L 365.22 390.82 L 365.09000000000003 392.74 L 364.97 394.67 L 364.86 396.59000000000003 L 364.76 398.52 L 364.66 400.44 L 364.58 402.37 L 364.5 404.3 L 364.43 406.22 L 364.36 408.15000000000003 L 364.31 410.07 L 364.25 412.0 L 364.2 413.92 L 364.16 415.85 L 364.12 417.77 L 364.08 419.7 L 364.05 421.63 L 364.02 423.55 L 364.0 425.48 L 363.97 427.40000000000003 L 363.95 429.33 L 363.93 431.25 L 363.92 433.18 L 363.90000000000003 435.11 L 363.89 437.03000000000003 L 363.88 438.96000000000004 L 363.87 440.88 L 363.86 442.81 L 363.85 444.73 L 363.84000000000003 446.66 L 363.84000000000003 448.58 L 363.83 450.51 L 363.83 452.44 L 363.82 454.36 L 363.82 456.29 L 363.82 458.21000000000004 L 363.81 460.14 L 363.81 462.06 Z" stroke="#000000" stroke-width="0.5" fill="#4682b4" /></g></svg>