<svg xmlns="http://www.w3.org/2000/svg" width="677.8000000000001" height="545" font-family="DejaVu Sans, Liberation Sans, Arial, sans-serif" fill="black"><rect width="100%" height="100%" fill="white" /><defs><clipPath id="kuva-clip-0"><rect x="63.800000000000004" y="44" width="600" height="450"/></clipPath></defs><line x1="63.800000000000004" y1="301.14" x2="663.8000000000001" y2="301.14" stroke="#cccccc" stroke-width="1" /><line x1="63.800000000000004" y1="172.57" x2="663.8000000000001" y2="172.57" stroke="#cccccc" stroke-width="1" /><line x1="63.800000000000004" y1="44" x2="663.8000000000001" y2="44" stroke="#cccccc" stroke-width="1" /><line x1="63.800000000000004" y1="494" x2="663.8000000000001" y2="494" stroke="#000000" stroke-width="1" /><line x1="63.800000000000004" y1="44" x2="63.800000000000004" y2="494" stroke="#000000" stroke-width="1" /><text x="163.8" y="511" font-size="12" text-anchor="middle">Normal</text><line x1="163.8" y1="494" x2="163.8" y2="499" stroke="#000000" stroke-width="1" /><text x="363.8" y="511" font-size="12" text-anchor="middle">Bimodal</text><line x1="363.8" y1="494" x2="363.8" y2="499" stroke="#000000" stroke-width="1" /><text x="563.8000000000001" y="511" font-size="12" text-anchor="middle">Skewed</text><line x1="563.8000000000001" y1="494" x2="563.8000000000001" y2="499" stroke="#000000" stroke-width="1" /><line x1="58.800000000000004" y1="429.71000000000004" x2="63.800000000000004" y2="429.71000000000004" stroke="#000000" stroke-width="1" /><text x="55.800000000000004" y="433.91" font-size="12" text-anchor="end">-5</text><line x1="58.800000000000004" y1="301.14" x2="63.800000000000004" y2="301.14" stroke="#000000" stroke-width="1" /><text x="55.800000000000004" y="305.34000000000003" font-size="12" text-anchor="end">0</text><line x1="58.800000000000004" y1="172.57" x2="63.800000000000004" y2="172.57" stroke="#000000" stroke-width="1" /><text x="55.800000000000004" y="176.77" font-size="12" text-anchor="end">5</text><line x1="58.800000000000004" y1="44" x2="63.800000000000004" y2="44" stroke="#000000" stroke-width="1" /><text x="55.800000000000004" y="48.2" font-size="12" text-anchor="end">10</text><text x="15" y="272.5" font-size="14" text-anchor="middle" transform="rotate(-90,15,272.5)">Value</text><text x="363.8" y="22" font-size="18" text-anchor="middle">Violin Plot</text><g clip-path="url(#kuva-clip-0)"><path d="M 163.8 397.46000000000004 L 163.8 396.5 L 163.79 395.54 L 163.79 394.58 L 163.79 393.61 L 163.78 392.65000000000003 L 163.78 391.69 L 163.77 390.73 L 163.76 389.76 L 163.74 388.8 L 163.73 387.84000000000003 L 163.71 386.87 L 163.69 385.91 L 163.67000000000002 384.95 L 163.65 383.99 L 163.62 383.02 L 163.6 382.06 L 163.58 381.1 L 163.56 380.14 L 163.54 379.17 L 163.52 378.21 L 163.5 377.25 L 163.47 376.29 L 163.45000000000002 375.32 L 163.41 374.36 L 163.37 373.40000000000003 L 163.32 372.43 L 163.26 371.47 L 163.18 370.51 L 163.09 369.55 L 162.98 368.58 L 162.86 367.62 L 162.73 366.66 L 162.58 365.7 L 162.43 364.73 L 162.26 363.77 L 162.09 362.81 L 161.92000000000002 361.85 L 161.74 360.88 L 161.55 359.92 L 161.37 358.96 L 161.18 358.0 L 160.98 357.03000000000003 L 160.78 356.07 L 160.57 355.11 L 160.36 354.14 L 160.12 353.18 L 159.87 352.22 L 159.6 351.26 L 159.31 350.29 L 158.99 349.33 L 158.63 348.37 L 158.25 347.41 L 157.84 346.44 L 157.4 345.48 L 156.93 344.52 L 156.46 343.56 L 155.97 342.59000000000003 L 155.49 341.63 L 155.02 340.67 L 154.56 339.71 L 154.12 338.74 L 153.70000000000002 337.78000000000003 L 153.28 336.82 L 152.87 335.85 L 152.45000000000002 334.89 L 152.01 333.93 L 151.52 332.97 L 150.99 332.0 L 150.39000000000001 331.04 L 149.73 330.08 L 148.99 329.12 L 148.20000000000002 328.15000000000003 L 147.35 327.19 L 146.47 326.23 L 145.57 325.27 L 144.66 324.3 L 143.77 323.34000000000003 L 142.9 322.38 L 142.09 321.41 L 141.32 320.45 L 140.6 319.49 L 139.93 318.53000000000003 L 139.31 317.56 L 138.73 316.6 L 138.18 315.64 L 137.66 314.68 L 137.16 313.71 L 136.68 312.75 L 136.22 311.79 L 135.78 310.83 L 135.37 309.86 L 134.99 308.90000000000003 L 134.66 307.94 L 134.37 306.98 L 134.14000000000001 306.01 L 133.97 305.05 L 133.85 304.09000000000003 L 133.8 303.12 L 133.81 302.16 L 133.88 301.2 L 134.01 300.24 L 134.2 299.27 L 134.45 298.31 L 134.75 297.35 L 135.11 296.39 L 135.53 295.42 L 136.01 294.46 L 136.54 293.5 L 137.12 292.54 L 137.74 291.57 L 138.4 290.61 L 139.09 289.65000000000003 L 139.78 288.69 L 140.48 287.72 L 141.17000000000002 286.76 L 141.85 285.8 L 142.49 284.83 L 143.1 283.87 L 143.68 282.91 L 144.22 281.95 L 144.74 280.98 L 145.24 280.02 L 145.73 279.06 L 146.21 278.1 L 146.71 277.13 L 147.21 276.17 L 147.74 275.21 L 148.29 274.25 L 148.86 273.28000000000003 L 149.44 272.32 L 150.04 271.36 L 150.63 270.39 L 151.22 269.43 L 151.79 268.47 L 152.33 267.51 L 152.84 266.54 L 153.32 265.58 L 153.77 264.62 L 154.19 263.66 L 154.59 262.69 L 154.96 261.73 L 155.33 260.77 L 155.70000000000002 259.81 L 156.06 258.84000000000003 L 156.44 257.88 L 156.83 256.92 L 157.22 255.96 L 157.62 254.99 L 158.02 254.03 L 158.41 253.07 L 158.8 252.1 L 159.18 251.14000000000001 L 159.53 250.18 L 159.86 249.22 L 160.17000000000002 248.25 L 160.46 247.29 L 160.73 246.33 L 160.98 245.37 L 161.21 244.4 L 161.42000000000002 243.44 L 161.62 242.48000000000002 L 161.81 241.52 L 161.98 240.55 L 162.15 239.59 L 162.3 238.63 L 162.43 237.66 L 162.55 236.70000000000002 L 162.66 235.74 L 162.75 234.78 L 162.82 233.81 L 162.87 232.85 L 162.91 231.89000000000001 L 162.95000000000002 230.93 L 162.97 229.96 L 163.0 229.0 L 163.02 228.04 L 163.05 227.08 L 163.08 226.11 L 163.11 225.15 L 163.16 224.19 L 163.21 223.23000000000002 L 163.27 222.26 L 163.33 221.3 L 163.39000000000001 220.34 L 163.45000000000002 219.37 L 163.5 218.41 L 163.56 217.45000000000002 L 163.6 216.49 L 163.65 215.52 L 163.68 214.56 L 163.71 213.6 L 163.73 212.64000000000001 L 163.75 211.67000000000002 L 163.77 210.71 L 163.78 209.75 L 163.78 208.79 L 163.79 207.82 L 163.79 206.86 L 163.8 205.9 L 163.8 205.9 L 163.81 206.86 L 163.81 207.82 L 163.82 208.79 L 163.82 209.75 L 163.83 210.71 L 163.85 211.67000000000002 L 163.87 212.64000000000001 L 163.89000000000001 213.6 L 163.92000000000002 214.56 L 163.95000000000002 215.52 L 164.0 216.49 L 164.04 217.45000000000002 L 164.1 218.41 L 164.15 219.37 L 164.21 220.34 L 164.27 221.3 L 164.33 222.26 L 164.39000000000001 223.23000000000002 L 164.44 224.19 L 164.49 225.15 L 164.52 226.11 L 164.55 227.08 L 164.58 228.04 L 164.6 229.0 L 164.63 229.96 L 164.65 230.93 L 164.69 231.89000000000001 L 164.73 232.85 L 164.78 233.81 L 164.85 234.78 L 164.94 235.74 L 165.05 236.70000000000002 L 165.17000000000002 237.66 L 165.3 238.63 L 165.45000000000002 239.59 L 165.62 240.55 L 165.79 241.52 L 165.98 242.48000000000002 L 166.18 243.44 L 166.39000000000001 244.4 L 166.62 245.37 L 166.87 246.33 L 167.14000000000001 247.29 L 167.43 248.25 L 167.74 249.22 L 168.07 250.18 L 168.42000000000002 251.14000000000001 L 168.8 252.1 L 169.19 253.07 L 169.58 254.03 L 169.98 254.99 L 170.38 255.96 L 170.77 256.92 L 171.16 257.88 L 171.54 258.84000000000003 L 171.9 259.81 L 172.27 260.77 L 172.64000000000001 261.73 L 173.01 262.69 L 173.41 263.66 L 173.83 264.62 L 174.28 265.58 L 174.76 266.54 L 175.27 267.51 L 175.81 268.47 L 176.38 269.43 L 176.97 270.39 L 177.56 271.36 L 178.16 272.32 L 178.74 273.28000000000003 L 179.31 274.25 L 179.86 275.21 L 180.39000000000001 276.17 L 180.89000000000001 277.13 L 181.39000000000001 278.1 L 181.87 279.06 L 182.36 280.02 L 182.86 280.98 L 183.38 281.95 L 183.92000000000002 282.91 L 184.5 283.87 L 185.11 284.83 L 185.75 285.8 L 186.43 286.76 L 187.12 287.72 L 187.82 288.69 L 188.51 289.65000000000003 L 189.20000000000002 290.61 L 189.86 291.57 L 190.48 292.54 L 191.06 293.5 L 191.59 294.46 L 192.07 295.42 L 192.49 296.39 L 192.85 297.35 L 193.15 298.31 L 193.4 299.27 L 193.59 300.24 L 193.72 301.2 L 193.79 302.16 L 193.8 303.12 L 193.75 304.09000000000003 L 193.63 305.05 L 193.46 306.01 L 193.23000000000002 306.98 L 192.94 307.94 L 192.61 308.90000000000003 L 192.23000000000002 309.86 L 191.82 310.83 L 191.38 311.79 L 190.92000000000002 312.75 L 190.44 313.71 L 189.94 314.68 L 189.42000000000002 315.64 L 188.87 316.6 L 188.29 317.56 L 187.67000000000002 318.53000000000003 L 187.0 319.49 L 186.28 320.45 L 185.51 321.41 L 184.70000000000002 322.38 L 183.83 323.34000000000003 L 182.94 324.3 L 182.03 325.27 L 181.13 326.23 L 180.25 327.19 L 179.4 328.15000000000003 L 178.61 329.12 L 177.87 330.08 L 177.21 331.04 L 176.61 332.0 L 176.08 332.97 L 175.59 333.93 L 175.15 334.89 L 174.73 335.85 L 174.32 336.82 L 173.9 337.78000000000003 L 173.48 338.74 L 173.04 339.71 L 172.58 340.67 L 172.11 341.63 L 171.63 342.59000000000003 L 171.14000000000001 343.56 L 170.67000000000002 344.52 L 170.20000000000002 345.48 L 169.76 346.44 L 169.35 347.41 L 168.97 348.37 L 168.61 349.33 L 168.29 350.29 L 168.0 351.26 L 167.73 352.22 L 167.48 353.18 L 167.24 354.14 L 167.03 355.11 L 166.82 356.07 L 166.62 357.03000000000003 L 166.42000000000002 358.0 L 166.23 358.96 L 166.05 359.92 L 165.86 360.88 L 165.68 361.85 L 165.51 362.81 L 165.34 363.77 L 165.17000000000002 364.73 L 165.02 365.7 L 164.87 366.66 L 164.74 367.62 L 164.62 368.58 L 164.51 369.55 L 164.42000000000002 370.51 L 164.34 371.47 L 164.28 372.43 L 164.23 373.40000000000003 L 164.19 374.36 L 164.15 375.32 L 164.13 376.29 L 164.1 377.25 L 164.08 378.21 L 164.06 379.17 L 164.04 380.14 L 164.02 381.1 L 164.0 382.06 L 163.98 383.02 L 163.95000000000002 383.99 L 163.93 384.95 L 163.91 385.91 L 163.89000000000001 386.87 L 163.87 387.84000000000003 L 163.86 388.8 L 163.84 389.76 L 163.83 390.73 L 163.82 391.69 L 163.82 392.65000000000003 L 163.81 393.61 L 163.81 394.58 L 163.81 395.54 L 163.8 396.5 L 163.8 397.46000000000004 Z" stroke="#000000" stroke-width="0.5" fill="#4682b4" /><path d="M 363.79 426.27 L 363.78000000000003 424.96000000000004 L 363.78000000000003 423.66 L 363.77 422.35 L 363.76 421.05 L 363.75 419.74 L 363.73 418.44 L 363.71 417.13 L 363.69 415.83 L 363.65000000000003 414.52 L 363.61 413.22 L 363.56 411.91 L 363.5 410.61 L 363.42 409.3 L 363.33 408.0 L 363.21 406.69 L 363.08 405.39 L 362.92 404.09000000000003 L 362.73 402.78000000000003 L 362.51 401.48 L 362.25 400.17 L 361.95 398.87 L 361.61 397.56 L 361.22 396.26 L 360.78000000000003 394.95 L 360.29 393.65000000000003 L 359.73 392.34000000000003 L 359.12 391.04 L 358.45 389.73 L 357.71 388.43 L 356.90000000000003 387.12 L 356.03000000000003 385.82 L 355.1 384.51 L 354.11 383.21000000000004 L 353.06 381.91 L 351.96 380.6 L 350.81 379.3 L 349.63 377.99 L 348.41 376.69 L 347.17 375.38 L 345.92 374.08 L 344.67 372.77 L 343.44 371.47 L 342.23 370.16 L 341.05 368.86 L 339.93 367.55 L 338.87 366.25 L 337.89 364.94 L 336.99 363.64 L 336.19 362.33 L 335.49 361.03000000000003 L 334.91 359.73 L 334.45 358.42 L 334.11 357.12 L 333.89 355.81 L 333.8 354.51 L 333.84000000000003 353.2 L 334.0 351.90000000000003 L 334.28000000000003 350.59000000000003 L 334.67 349.29 L 335.17 347.98 L 335.77 346.68 L 336.46 345.37 L 337.23 344.07 L 338.07 342.76 L 338.98 341.46 L 339.94 340.16 L 340.95 338.85 L 341.99 337.55 L 343.05 336.24 L 344.13 334.94 L 345.22 333.63 L 346.32 332.33 L 347.40000000000003 331.02 L 348.48 329.72 L 349.53000000000003 328.41 L 350.56 327.11 L 351.56 325.8 L 352.53000000000003 324.5 L 353.46 323.19 L 354.35 321.89 L 355.19 320.58 L 355.99 319.28000000000003 L 356.74 317.98 L 357.43 316.67 L 358.08 315.37 L 358.67 314.06 L 359.21 312.76 L 359.69 311.45 L 360.12 310.15000000000003 L 360.5 308.84000000000003 L 360.82 307.54 L 361.09000000000003 306.23 L 361.31 304.93 L 361.47 303.62 L 361.57 302.32 L 361.63 301.01 L 361.62 299.71 L 361.56 298.40000000000003 L 361.44 297.1 L 361.26 295.8 L 361.01 294.49 L 360.71 293.19 L 360.34000000000003 291.88 L 359.90000000000003 290.58 L 359.39 289.27 L 358.81 287.97 L 358.17 286.66 L 357.45 285.36 L 356.66 284.05 L 355.8 282.75 L 354.88 281.44 L 353.89 280.14 L 352.85 278.83 L 351.75 277.53000000000003 L 350.6 276.22 L 349.41 274.92 L 348.19 273.62 L 346.96 272.31 L 345.71 271.01 L 344.46 269.7 L 343.23 268.4 L 342.03000000000003 267.09000000000003 L 340.86 265.79 L 339.75 264.48 L 338.7 263.18 L 337.73 261.87 L 336.85 260.57 L 336.07 259.26 L 335.39 257.96 L 334.83 256.65 L 334.38 255.35 L 334.06 254.04 L 333.87 252.74 L 333.8 251.44 L 333.86 250.13 L 334.04 248.83 L 334.34000000000003 247.52 L 334.75 246.22 L 335.26 244.91 L 335.88 243.61 L 336.58 242.3 L 337.36 241.0 L 338.22 239.69 L 339.14 238.39000000000001 L 340.1 237.08 L 341.12 235.78 L 342.16 234.47 L 343.23 233.17000000000002 L 344.31 231.86 L 345.40000000000003 230.56 L 346.5 229.26 L 347.58 227.95000000000002 L 348.65000000000003 226.65 L 349.71 225.34 L 350.73 224.04 L 351.73 222.73000000000002 L 352.7 221.43 L 353.62 220.12 L 354.51 218.82 L 355.35 217.51 L 356.15000000000003 216.21 L 356.90000000000003 214.9 L 357.6 213.6 L 358.25 212.29 L 358.86 210.99 L 359.42 209.68 L 359.93 208.38 L 360.39 207.08 L 360.82 205.77 L 361.2 204.47 L 361.54 203.16 L 361.85 201.86 L 362.12 200.55 L 362.36 199.25 L 362.57 197.94 L 362.76 196.64000000000001 L 362.92 195.33 L 363.06 194.03 L 363.18 192.72 L 363.28000000000003 191.42000000000002 L 363.37 190.11 L 363.45 188.81 L 363.51 187.5 L 363.56 186.20000000000002 L 363.61 184.9 L 363.64 183.59 L 363.67 182.29 L 363.7 180.98 L 363.72 179.68 L 363.74 178.37 L 363.75 177.07 L 363.76 175.76 L 363.77 174.46 L 363.78000000000003 173.15 L 363.78000000000003 171.85 L 363.79 170.54 L 363.79 169.24 L 363.79 167.93 L 363.79 166.63 L 363.81 166.63 L 363.81 167.93 L 363.81 169.24 L 363.81 170.54 L 363.82 171.85 L 363.82 173.15 L 363.83 174.46 L 363.84000000000003 175.76 L 363.85 177.07 L 363.86 178.37 L 363.88 179.68 L 363.90000000000003 180.98 L 363.93 182.29 L 363.96 183.59 L 363.99 184.9 L 364.04 186.20000000000002 L 364.09000000000003 187.5 L 364.15000000000003 188.81 L 364.23 190.11 L 364.32 191.42000000000002 L 364.42 192.72 L 364.54 194.03 L 364.68 195.33 L 364.84000000000003 196.64000000000001 L 365.03000000000003 197.94 L 365.24 199.25 L 365.48 200.55 L 365.75 201.86 L 366.06 203.16 L 366.40000000000003 204.47 L 366.78000000000003 205.77 L 367.21 207.08 L 367.67 208.38 L 368.18 209.68 L 368.74 210.99 L 369.35 212.29 L 370.0 213.6 L 370.7 214.9 L 371.45 216.21 L 372.25 217.51 L 373.09000000000003 218.82 L 373.98 220.12 L 374.90000000000003 221.43 L 375.87 222.73000000000002 L 376.87 224.04 L 377.89 225.34 L 378.95 226.65 L 380.02 227.95000000000002 L 381.1 229.26 L 382.2 230.56 L 383.29 231.86 L 384.37 233.17000000000002 L 385.44 234.47 L 386.48 235.78 L 387.5 237.08 L 388.46000000000004 238.39000000000001 L 389.38 239.69 L 390.24 241.0 L 391.02 242.3 L 391.72 243.61 L 392.34000000000003 244.91 L 392.85 246.22 L 393.26 247.52 L 393.56 248.83 L 393.74 250.13 L 393.8 251.44 L 393.73 252.74 L 393.54 254.04 L 393.22 255.35 L 392.77 256.65 L 392.21000000000004 257.96 L 391.53000000000003 259.26 L 390.75 260.57 L 389.87 261.87 L 388.90000000000003 263.18 L 387.85 264.48 L 386.74 265.79 L 385.57 267.09000000000003 L 384.37 268.4 L 383.14 269.7 L 381.89 271.01 L 380.64 272.31 L 379.41 273.62 L 378.19 274.92 L 377.0 276.22 L 375.85 277.53000000000003 L 374.75 278.83 L 373.71 280.14 L 372.72 281.44 L 371.8 282.75 L 370.94 284.05 L 370.15000000000003 285.36 L 369.43 286.66 L 368.79 287.97 L 368.21 289.27 L 367.7 290.58 L 367.26 291.88 L 366.89 293.19 L 366.59000000000003 294.49 L 366.34000000000003 295.8 L 366.16 297.1 L 366.04 298.40000000000003 L 365.98 299.71 L 365.97 301.01 L 366.03000000000003 302.32 L 366.13 303.62 L 366.29 304.93 L 366.51 306.23 L 366.78000000000003 307.54 L 367.1 308.84000000000003 L 367.48 310.15000000000003 L 367.91 311.45 L 368.39 312.76 L 368.93 314.06 L 369.52 315.37 L 370.17 316.67 L 370.86 317.98 L 371.61 319.28000000000003 L 372.41 320.58 L 373.25 321.89 L 374.14 323.19 L 375.07 324.5 L 376.04 325.8 L 377.04 327.11 L 378.07 328.41 L 379.12 329.72 L 380.2 331.02 L 381.28000000000003 332.33 L 382.38 333.63 L 383.47 334.94 L 384.55 336.24 L 385.61 337.55 L 386.65000000000003 338.85 L 387.66 340.16 L 388.62 341.46 L 389.53000000000003 342.76 L 390.37 344.07 L 391.14 345.37 L 391.83 346.68 L 392.43 347.98 L 392.93 349.29 L 393.32 350.59000000000003 L 393.6 351.90000000000003 L 393.76 353.2 L 393.8 354.51 L 393.71000000000004 355.81 L 393.49 357.12 L 393.15000000000003 358.42 L 392.69 359.73 L 392.11 361.03000000000003 L 391.41 362.33 L 390.61 363.64 L 389.71000000000004 364.94 L 388.73 366.25 L 387.67 367.55 L 386.55 368.86 L 385.37 370.16 L 384.16 371.47 L 382.93 372.77 L 381.68 374.08 L 380.43 375.38 L 379.19 376.69 L 377.97 377.99 L 376.79 379.3 L 375.64 380.6 L 374.54 381.91 L 373.49 383.21000000000004 L 372.5 384.51 L 371.57 385.82 L 370.7 387.12 L 369.89 388.43 L 369.15000000000003 389.73 L 368.48 391.04 L 367.87 392.34000000000003 L 367.31 393.65000000000003 L 366.82 394.95 L 366.38 396.26 L 365.99 397.56 L 365.65000000000003 398.87 L 365.35 400.17 L 365.09000000000003 401.48 L 364.87 402.78000000000003 L 364.68 404.09000000000003 L 364.52 405.39 L 364.39 406.69 L 364.27 408.0 L 364.18 409.3 L 364.1 410.61 L 364.04 411.91 L 363.99 413.22 L 363.95 414.52 L 363.91 415.83 L 363.89 417.13 L 363.87 418.44 L 363.85 419.74 L 363.84000000000003 421.05 L 363.83 422.35 L 363.82 423.66 L 363.82 424.96000000000004 L 363.81 426.27 Z" stroke="#000000" stroke-width="0.5" fill="#4682b4" /><path d="M 563.75 322.78000000000003 L 563.71 321.54 L 563.65 320.31 L 563.5500000000001 319.07 L 563.41 317.83 L 563.19 316.6 L 562.87 315.36 L 562.44 314.13 L 561.84 312.89 L 561.0600000000001 311.65000000000003 L 560.0600000000001 310.42 L 558.82 309.18 L 557.32 307.95 L 555.5600000000001 306.71 L 553.5600000000001 305.47 L 551.36 304.24 L 549.01 303.0 L 546.59 301.77 L 544.17 300.53000000000003 L 541.85 299.29 L 539.71 298.06 L 537.83 296.82 L 536.27 295.59000000000003 L 535.08 294.35 L 534.28 293.11 L 533.86 291.88 L 533.8 290.64 L 534.0600000000001 289.41 L 534.59 288.17 L 535.34 286.93 L 536.23 285.7 L 537.22 284.46 L 538.26 283.23 L 539.3100000000001 281.99 L 540.35 280.75 L 541.36 279.52 L 542.34 278.28000000000003 L 543.27 277.05 L 544.17 275.81 L 545.02 274.57 L 545.84 273.34000000000003 L 546.61 272.1 L 547.33 270.87 L 548.0 269.63 L 548.61 268.39 L 549.14 267.16 L 549.61 265.92 L 550.02 264.69 L 550.36 263.45 L 550.64 262.21 L 550.89 260.98 L 551.11 259.74 L 551.32 258.51 L 551.52 257.27 L 551.73 256.03000000000003 L 551.96 254.8 L 552.21 253.56 L 552.49 252.33 L 552.8100000000001 251.09 L 553.16 249.85 L 553.53 248.62 L 553.9300000000001 247.38 L 554.34 246.15 L 554.75 244.91 L 555.16 243.67000000000002 L 555.5600000000001 242.44 L 555.94 241.20000000000002 L 556.3100000000001 239.97 L 556.66 238.73000000000002 L 557.0 237.49 L 557.33 236.26 L 557.66 235.02 L 557.98 233.78 L 558.3000000000001 232.55 L 558.61 231.31 L 558.9 230.08 L 559.1800000000001 228.84 L 559.45 227.6 L 559.7 226.37 L 559.9300000000001 225.13 L 560.15 223.9 L 560.35 222.66 L 560.5500000000001 221.42000000000002 L 560.73 220.19 L 560.91 218.95000000000002 L 561.08 217.72 L 561.24 216.48000000000002 L 561.39 215.24 L 561.52 214.01 L 561.63 212.77 L 561.73 211.54 L 561.82 210.3 L 561.89 209.06 L 561.96 207.83 L 562.02 206.59 L 562.08 205.36 L 562.15 204.12 L 562.22 202.88 L 562.3000000000001 201.65 L 562.38 200.41 L 562.45 199.18 L 562.53 197.94 L 562.59 196.70000000000002 L 562.64 195.47 L 562.6800000000001 194.23000000000002 L 562.71 193.0 L 562.72 191.76 L 562.71 190.52 L 562.69 189.29 L 562.66 188.05 L 562.62 186.82 L 562.58 185.58 L 562.54 184.34 L 562.5 183.11 L 562.47 181.87 L 562.45 180.64000000000001 L 562.45 179.4 L 562.47 178.16 L 562.52 176.93 L 562.58 175.69 L 562.66 174.46 L 562.76 173.22 L 562.86 171.98 L 562.97 170.75 L 563.08 169.51 L 563.17 168.28 L 563.26 167.04 L 563.32 165.8 L 563.37 164.57 L 563.4 163.33 L 563.4 162.1 L 563.39 160.86 L 563.36 159.62 L 563.3100000000001 158.39000000000001 L 563.26 157.15 L 563.2 155.92000000000002 L 563.13 154.68 L 563.08 153.44 L 563.03 152.21 L 562.99 150.97 L 562.97 149.74 L 562.96 148.5 L 562.97 147.26 L 562.99 146.03 L 563.02 144.79 L 563.0600000000001 143.56 L 563.12 142.32 L 563.17 141.08 L 563.23 139.85 L 563.29 138.61 L 563.34 137.38 L 563.4 136.14000000000001 L 563.44 134.9 L 563.49 133.67000000000002 L 563.53 132.43 L 563.57 131.2 L 563.6 129.96 L 563.63 128.72 L 563.65 127.49000000000001 L 563.67 126.25 L 563.6800000000001 125.01 L 563.6800000000001 123.78 L 563.6800000000001 122.54 L 563.67 121.31 L 563.65 120.07000000000001 L 563.61 118.83 L 563.57 117.60000000000001 L 563.52 116.36 L 563.46 115.13 L 563.39 113.89 L 563.3100000000001 112.65 L 563.24 111.42 L 563.17 110.18 L 563.1 108.95 L 563.04 107.71000000000001 L 562.99 106.47 L 562.97 105.24000000000001 L 562.96 104.0 L 562.97 102.77 L 563.0 101.53 L 563.04 100.29 L 563.1 99.06 L 563.17 97.82000000000001 L 563.25 96.59 L 563.33 95.35000000000001 L 563.41 94.11 L 563.48 92.88 L 563.54 91.64 L 563.6 90.41 L 563.65 89.17 L 563.69 87.93 L 563.72 86.7 L 563.74 85.46000000000001 L 563.76 84.23 L 563.77 82.99 L 563.78 81.75 L 563.79 80.52 L 563.79 79.28 L 563.8000000000001 78.05 L 563.8000000000001 76.81 L 563.8000000000001 76.81 L 563.8000000000001 78.05 L 563.8100000000001 79.28 L 563.8100000000001 80.52 L 563.82 81.75 L 563.83 82.99 L 563.84 84.23 L 563.86 85.46000000000001 L 563.88 86.7 L 563.91 87.93 L 563.95 89.17 L 564.0 90.41 L 564.0600000000001 91.64 L 564.12 92.88 L 564.19 94.11 L 564.27 95.35000000000001 L 564.35 96.59 L 564.4300000000001 97.82000000000001 L 564.5 99.06 L 564.5600000000001 100.29 L 564.6 101.53 L 564.63 102.77 L 564.64 104.0 L 564.63 105.24000000000001 L 564.61 106.47 L 564.5600000000001 107.71000000000001 L 564.5 108.95 L 564.4300000000001 110.18 L 564.36 111.42 L 564.29 112.65 L 564.21 113.89 L 564.14 115.13 L 564.08 116.36 L 564.03 117.60000000000001 L 563.99 118.83 L 563.95 120.07000000000001 L 563.9300000000001 121.31 L 563.92 122.54 L 563.92 123.78 L 563.92 125.01 L 563.9300000000001 126.25 L 563.95 127.49000000000001 L 563.97 128.72 L 564.0 129.96 L 564.03 131.2 L 564.07 132.43 L 564.11 133.67000000000002 L 564.16 134.9 L 564.2 136.14000000000001 L 564.26 137.38 L 564.3100000000001 138.61 L 564.37 139.85 L 564.4300000000001 141.08 L 564.48 142.32 L 564.54 143.56 L 564.58 144.79 L 564.61 146.03 L 564.63 147.26 L 564.64 148.5 L 564.63 149.74 L 564.61 150.97 L 564.57 152.21 L 564.52 153.44 L 564.47 154.68 L 564.4 155.92000000000002 L 564.34 157.15 L 564.29 158.39000000000001 L 564.24 159.62 L 564.21 160.86 L 564.2 162.1 L 564.2 163.33 L 564.23 164.57 L 564.28 165.8 L 564.34 167.04 L 564.4300000000001 168.28 L 564.52 169.51 L 564.63 170.75 L 564.74 171.98 L 564.84 173.22 L 564.94 174.46 L 565.02 175.69 L 565.08 176.93 L 565.13 178.16 L 565.15 179.4 L 565.15 180.64000000000001 L 565.13 181.87 L 565.1 183.11 L 565.0600000000001 184.34 L 565.02 185.58 L 564.98 186.82 L 564.94 188.05 L 564.91 189.29 L 564.89 190.52 L 564.88 191.76 L 564.89 193.0 L 564.92 194.23000000000002 L 564.96 195.47 L 565.01 196.70000000000002 L 565.07 197.94 L 565.15 199.18 L 565.22 200.41 L 565.3000000000001 201.65 L 565.38 202.88 L 565.45 204.12 L 565.52 205.36 L 565.58 206.59 L 565.64 207.83 L 565.71 209.06 L 565.78 210.3 L 565.87 211.54 L 565.97 212.77 L 566.08 214.01 L 566.21 215.24 L 566.36 216.48000000000002 L 566.52 217.72 L 566.69 218.95000000000002 L 566.87 220.19 L 567.0500000000001 221.42000000000002 L 567.25 222.66 L 567.45 223.9 L 567.67 225.13 L 567.9 226.37 L 568.15 227.6 L 568.42 228.84 L 568.7 230.08 L 568.99 231.31 L 569.3000000000001 232.55 L 569.62 233.78 L 569.94 235.02 L 570.27 236.26 L 570.6 237.49 L 570.94 238.73000000000002 L 571.29 239.97 L 571.66 241.20000000000002 L 572.04 242.44 L 572.44 243.67000000000002 L 572.85 244.91 L 573.26 246.15 L 573.67 247.38 L 574.07 248.62 L 574.44 249.85 L 574.79 251.09 L 575.11 252.33 L 575.39 253.56 L 575.64 254.8 L 575.87 256.03000000000003 L 576.08 257.27 L 576.28 258.51 L 576.49 259.74 L 576.71 260.98 L 576.96 262.21 L 577.24 263.45 L 577.58 264.69 L 577.99 265.92 L 578.46 267.16 L 578.99 268.39 L 579.6 269.63 L 580.27 270.87 L 580.99 272.1 L 581.76 273.34000000000003 L 582.58 274.57 L 583.4300000000001 275.81 L 584.33 277.05 L 585.26 278.28000000000003 L 586.24 279.52 L 587.25 280.75 L 588.29 281.99 L 589.34 283.23 L 590.38 284.46 L 591.37 285.7 L 592.26 286.93 L 593.01 288.17 L 593.54 289.41 L 593.8000000000001 290.64 L 593.74 291.88 L 593.32 293.11 L 592.52 294.35 L 591.33 295.59000000000003 L 589.77 296.82 L 587.89 298.06 L 585.75 299.29 L 583.4300000000001 300.53000000000003 L 581.01 301.77 L 578.59 303.0 L 576.24 304.24 L 574.04 305.47 L 572.04 306.71 L 570.28 307.95 L 568.78 309.18 L 567.54 310.42 L 566.54 311.65000000000003 L 565.76 312.89 L 565.16 314.13 L 564.73 315.36 L 564.41 316.6 L 564.19 317.83 L 564.0500000000001 319.07 L 563.95 320.31 L 563.89 321.54 L 563.85 322.78000000000003 Z" stroke="#000000" stroke-width="0.5" fill="#4682b4" /></g></svg>