<svg xmlns="http://www.w3.org/2000/svg" width="686.2" height="545" font-family="DejaVu Sans, Liberation Sans, Arial, sans-serif" fill="black"><rect width="100%" height="100%" fill="white" /><line x1="72.2" y1="494" x2="672.2" y2="494" stroke="#000000" stroke-width="1" /><line x1="72.2" y1="44" x2="72.2" y2="494" stroke="#000000" stroke-width="1" /><line x1="72.2" y1="301.14" x2="672.2" y2="301.14" stroke="#cccccc" stroke-width="1" /><line x1="72.2" y1="172.57" x2="672.2" y2="172.57" stroke="#cccccc" stroke-width="1" /><line x1="72.2" y1="44" x2="672.2" y2="44" stroke="#cccccc" stroke-width="1" /><text x="172.20000000000002" y="511" font-size="12" text-anchor="middle">Normal</text><line x1="172.20000000000002" y1="494" x2="172.20000000000002" y2="499" stroke="#000000" stroke-width="1" /><text x="372.2" y="511" font-size="12" text-anchor="middle">Bimodal</text><line x1="372.2" y1="494" x2="372.2" y2="499" stroke="#000000" stroke-width="1" /><text x="572.2" y="511" font-size="12" text-anchor="middle">Skewed</text><line x1="572.2" y1="494" x2="572.2" y2="499" stroke="#000000" stroke-width="1" /><line x1="67.2" y1="429.71000000000004" x2="72.2" y2="429.71000000000004" stroke="#000000" stroke-width="1" /><text x="64.2" y="433.91" font-size="12" text-anchor="end">-5</text><line x1="67.2" y1="301.14" x2="72.2" y2="301.14" stroke="#000000" stroke-width="1" /><text x="64.2" y="305.34000000000003" font-size="12" text-anchor="end">0</text><line x1="67.2" y1="172.57" x2="72.2" y2="172.57" stroke="#000000" stroke-width="1" /><text x="64.2" y="176.77" font-size="12" text-anchor="end">5</text><line x1="67.2" y1="44" x2="72.2" y2="44" stroke="#000000" stroke-width="1" /><text x="64.2" y="48.2" font-size="12" text-anchor="end">10</text><text x="7" y="272.5" font-size="14" text-anchor="middle" transform="rotate(-90,7,272.5)">Value</text><text x="372.2" y="22" font-size="18" text-anchor="middle">Violin Plot</text><path d="M 172.20000000000002 397.46000000000004 L 172.20000000000002 396.5 L 172.19 395.54 L 172.19 394.58 L 172.19 393.61 L 172.18 392.65000000000003 L 172.18 391.69 L 172.17000000000002 390.73 L 172.16 389.76 L 172.14000000000001 388.8 L 172.13 387.84000000000003 L 172.11 386.87 L 172.09 385.91 L 172.07 384.95 L 172.05 383.99 L 172.02 383.02 L 172.0 382.06 L 171.98 381.1 L 171.96 380.14 L 171.94 379.17 L 171.92000000000002 378.21 L 171.9 377.25 L 171.87 376.29 L 171.85 375.32 L 171.81 374.36 L 171.77 373.40000000000003 L 171.72 372.43 L 171.66 371.47 L 171.58 370.51 L 171.49 369.55 L 171.38 368.58 L 171.26 367.62 L 171.13 366.66 L 170.98 365.7 L 170.83 364.73 L 170.66 363.77 L 170.49 362.81 L 170.32 361.85 L 170.14000000000001 360.88 L 169.95000000000002 359.92 L 169.77 358.96 L 169.58 358.0 L 169.38 357.03000000000003 L 169.18 356.07 L 168.97 355.11 L 168.76 354.14 L 168.52 353.18 L 168.27 352.22 L 168.0 351.26 L 167.71 350.29 L 167.39000000000001 349.33 L 167.03 348.37 L 166.65 347.41 L 166.24 346.44 L 165.8 345.48 L 165.33 344.52 L 164.86 343.56 L 164.37 342.59000000000003 L 163.89000000000001 341.63 L 163.42000000000002 340.67 L 162.96 339.71 L 162.52 338.74 L 162.1 337.78000000000003 L 161.68 336.82 L 161.27 335.85 L 160.85 334.89 L 160.41 333.93 L 159.92000000000002 332.97 L 159.39000000000001 332.0 L 158.79 331.04 L 158.13 330.08 L 157.39000000000001 329.12 L 156.6 328.15000000000003 L 155.75 327.19 L 154.87 326.23 L 153.97 325.27 L 153.06 324.3 L 152.17000000000002 323.34000000000003 L 151.3 322.38 L 150.49 321.41 L 149.72 320.45 L 149.0 319.49 L 148.33 318.53000000000003 L 147.71 317.56 L 147.13 316.6 L 146.58 315.64 L 146.06 314.68 L 145.56 313.71 L 145.08 312.75 L 144.62 311.79 L 144.18 310.83 L 143.77 309.86 L 143.39000000000001 308.90000000000003 L 143.06 307.94 L 142.77 306.98 L 142.54 306.01 L 142.37 305.05 L 142.25 304.09000000000003 L 142.20000000000002 303.12 L 142.21 302.16 L 142.28 301.2 L 142.41 300.24 L 142.6 299.27 L 142.85 298.31 L 143.15 297.35 L 143.51 296.39 L 143.93 295.42 L 144.41 294.46 L 144.94 293.5 L 145.52 292.54 L 146.14000000000001 291.57 L 146.8 290.61 L 147.49 289.65000000000003 L 148.18 288.69 L 148.88 287.72 L 149.57 286.76 L 150.25 285.8 L 150.89000000000001 284.83 L 151.5 283.87 L 152.08 282.91 L 152.62 281.95 L 153.14000000000001 280.98 L 153.64000000000001 280.02 L 154.13 279.06 L 154.61 278.1 L 155.11 277.13 L 155.61 276.17 L 156.14000000000001 275.21 L 156.69 274.25 L 157.26 273.28000000000003 L 157.84 272.32 L 158.44 271.36 L 159.03 270.39 L 159.62 269.43 L 160.19 268.47 L 160.73 267.51 L 161.24 266.54 L 161.72 265.58 L 162.17000000000002 264.62 L 162.59 263.66 L 162.99 262.69 L 163.36 261.73 L 163.73 260.77 L 164.1 259.81 L 164.46 258.84000000000003 L 164.84 257.88 L 165.23 256.92 L 165.62 255.96 L 166.02 254.99 L 166.42000000000002 254.03 L 166.81 253.07 L 167.20000000000002 252.1 L 167.58 251.14000000000001 L 167.93 250.18 L 168.26 249.22 L 168.57 248.25 L 168.86 247.29 L 169.13 246.33 L 169.38 245.37 L 169.61 244.4 L 169.82 243.44 L 170.02 242.48000000000002 L 170.21 241.52 L 170.38 240.55 L 170.55 239.59 L 170.70000000000002 238.63 L 170.83 237.66 L 170.95000000000002 236.70000000000002 L 171.06 235.74 L 171.15 234.78 L 171.22 233.81 L 171.27 232.85 L 171.31 231.89000000000001 L 171.35 230.93 L 171.37 229.96 L 171.4 229.0 L 171.42000000000002 228.04 L 171.45000000000002 227.08 L 171.48 226.11 L 171.51 225.15 L 171.56 224.19 L 171.61 223.23000000000002 L 171.67000000000002 222.26 L 171.73 221.3 L 171.79 220.34 L 171.85 219.37 L 171.9 218.41 L 171.96 217.45000000000002 L 172.0 216.49 L 172.05 215.52 L 172.08 214.56 L 172.11 213.6 L 172.13 212.64000000000001 L 172.15 211.67000000000002 L 172.17000000000002 210.71 L 172.18 209.75 L 172.18 208.79 L 172.19 207.82 L 172.19 206.86 L 172.20000000000002 205.9 L 172.20000000000002 205.9 L 172.21 206.86 L 172.21 207.82 L 172.22 208.79 L 172.22 209.75 L 172.23 210.71 L 172.25 211.67000000000002 L 172.27 212.64000000000001 L 172.29 213.6 L 172.32 214.56 L 172.35 215.52 L 172.4 216.49 L 172.44 217.45000000000002 L 172.5 218.41 L 172.55 219.37 L 172.61 220.34 L 172.67000000000002 221.3 L 172.73 222.26 L 172.79 223.23000000000002 L 172.84 224.19 L 172.89000000000001 225.15 L 172.92000000000002 226.11 L 172.95000000000002 227.08 L 172.98 228.04 L 173.0 229.0 L 173.03 229.96 L 173.05 230.93 L 173.09 231.89000000000001 L 173.13 232.85 L 173.18 233.81 L 173.25 234.78 L 173.34 235.74 L 173.45000000000002 236.70000000000002 L 173.57 237.66 L 173.70000000000002 238.63 L 173.85 239.59 L 174.02 240.55 L 174.19 241.52 L 174.38 242.48000000000002 L 174.58 243.44 L 174.79 244.4 L 175.02 245.37 L 175.27 246.33 L 175.54 247.29 L 175.83 248.25 L 176.14000000000001 249.22 L 176.47 250.18 L 176.82 251.14000000000001 L 177.20000000000002 252.1 L 177.59 253.07 L 177.98 254.03 L 178.38 254.99 L 178.78 255.96 L 179.17000000000002 256.92 L 179.56 257.88 L 179.94 258.84000000000003 L 180.3 259.81 L 180.67000000000002 260.77 L 181.04 261.73 L 181.41 262.69 L 181.81 263.66 L 182.23 264.62 L 182.68 265.58 L 183.16 266.54 L 183.67000000000002 267.51 L 184.21 268.47 L 184.78 269.43 L 185.37 270.39 L 185.96 271.36 L 186.56 272.32 L 187.14000000000001 273.28000000000003 L 187.71 274.25 L 188.26 275.21 L 188.79 276.17 L 189.29 277.13 L 189.79 278.1 L 190.27 279.06 L 190.76 280.02 L 191.26 280.98 L 191.78 281.95 L 192.32 282.91 L 192.9 283.87 L 193.51 284.83 L 194.15 285.8 L 194.83 286.76 L 195.52 287.72 L 196.22 288.69 L 196.91 289.65000000000003 L 197.6 290.61 L 198.26 291.57 L 198.88 292.54 L 199.46 293.5 L 199.99 294.46 L 200.47 295.42 L 200.89000000000001 296.39 L 201.25 297.35 L 201.55 298.31 L 201.8 299.27 L 201.99 300.24 L 202.12 301.2 L 202.19 302.16 L 202.20000000000002 303.12 L 202.15 304.09000000000003 L 202.03 305.05 L 201.86 306.01 L 201.63 306.98 L 201.34 307.94 L 201.01 308.90000000000003 L 200.63 309.86 L 200.22 310.83 L 199.78 311.79 L 199.32 312.75 L 198.84 313.71 L 198.34 314.68 L 197.82 315.64 L 197.27 316.6 L 196.69 317.56 L 196.07 318.53000000000003 L 195.4 319.49 L 194.68 320.45 L 193.91 321.41 L 193.1 322.38 L 192.23000000000002 323.34000000000003 L 191.34 324.3 L 190.43 325.27 L 189.53 326.23 L 188.65 327.19 L 187.8 328.15000000000003 L 187.01 329.12 L 186.27 330.08 L 185.61 331.04 L 185.01 332.0 L 184.48 332.97 L 183.99 333.93 L 183.55 334.89 L 183.13 335.85 L 182.72 336.82 L 182.3 337.78000000000003 L 181.88 338.74 L 181.44 339.71 L 180.98 340.67 L 180.51 341.63 L 180.03 342.59000000000003 L 179.54 343.56 L 179.07 344.52 L 178.6 345.48 L 178.16 346.44 L 177.75 347.41 L 177.37 348.37 L 177.01 349.33 L 176.69 350.29 L 176.4 351.26 L 176.13 352.22 L 175.88 353.18 L 175.64000000000001 354.14 L 175.43 355.11 L 175.22 356.07 L 175.02 357.03000000000003 L 174.82 358.0 L 174.63 358.96 L 174.45000000000002 359.92 L 174.26 360.88 L 174.08 361.85 L 173.91 362.81 L 173.74 363.77 L 173.57 364.73 L 173.42000000000002 365.7 L 173.27 366.66 L 173.14000000000001 367.62 L 173.02 368.58 L 172.91 369.55 L 172.82 370.51 L 172.74 371.47 L 172.68 372.43 L 172.63 373.40000000000003 L 172.59 374.36 L 172.55 375.32 L 172.53 376.29 L 172.5 377.25 L 172.48 378.21 L 172.46 379.17 L 172.44 380.14 L 172.42000000000002 381.1 L 172.4 382.06 L 172.38 383.02 L 172.35 383.99 L 172.33 384.95 L 172.31 385.91 L 172.29 386.87 L 172.27 387.84000000000003 L 172.26 388.8 L 172.24 389.76 L 172.23 390.73 L 172.22 391.69 L 172.22 392.65000000000003 L 172.21 393.61 L 172.21 394.58 L 172.21 395.54 L 172.20000000000002 396.5 L 172.20000000000002 397.46000000000004 Z" stroke="#000000" stroke-width="0.5" fill="#4682b4" /><path d="M 372.19 426.27 L 372.18 424.96000000000004 L 372.18 423.66 L 372.17 422.35 L 372.16 421.05 L 372.15000000000003 419.74 L 372.13 418.44 L 372.11 417.13 L 372.09000000000003 415.83 L 372.05 414.52 L 372.01 413.22 L 371.96 411.91 L 371.90000000000003 410.61 L 371.82 409.3 L 371.73 408.0 L 371.61 406.69 L 371.48 405.39 L 371.32 404.09000000000003 L 371.13 402.78000000000003 L 370.91 401.48 L 370.65000000000003 400.17 L 370.35 398.87 L 370.01 397.56 L 369.62 396.26 L 369.18 394.95 L 368.69 393.65000000000003 L 368.13 392.34000000000003 L 367.52 391.04 L 366.85 389.73 L 366.11 388.43 L 365.3 387.12 L 364.43 385.82 L 363.5 384.51 L 362.51 383.21000000000004 L 361.46 381.91 L 360.36 380.6 L 359.21 379.3 L 358.03000000000003 377.99 L 356.81 376.69 L 355.57 375.38 L 354.32 374.08 L 353.07 372.77 L 351.84000000000003 371.47 L 350.63 370.16 L 349.45 368.86 L 348.33 367.55 L 347.27 366.25 L 346.29 364.94 L 345.39 363.64 L 344.59000000000003 362.33 L 343.89 361.03000000000003 L 343.31 359.73 L 342.85 358.42 L 342.51 357.12 L 342.29 355.81 L 342.2 354.51 L 342.24 353.2 L 342.40000000000003 351.90000000000003 L 342.68 350.59000000000003 L 343.07 349.29 L 343.57 347.98 L 344.17 346.68 L 344.86 345.37 L 345.63 344.07 L 346.47 342.76 L 347.38 341.46 L 348.34000000000003 340.16 L 349.35 338.85 L 350.39 337.55 L 351.45 336.24 L 352.53000000000003 334.94 L 353.62 333.63 L 354.72 332.33 L 355.8 331.02 L 356.88 329.72 L 357.93 328.41 L 358.96 327.11 L 359.96 325.8 L 360.93 324.5 L 361.86 323.19 L 362.75 321.89 L 363.59000000000003 320.58 L 364.39 319.28000000000003 L 365.14 317.98 L 365.83 316.67 L 366.48 315.37 L 367.07 314.06 L 367.61 312.76 L 368.09000000000003 311.45 L 368.52 310.15000000000003 L 368.90000000000003 308.84000000000003 L 369.22 307.54 L 369.49 306.23 L 369.71 304.93 L 369.87 303.62 L 369.97 302.32 L 370.03000000000003 301.01 L 370.02 299.71 L 369.96 298.40000000000003 L 369.84000000000003 297.1 L 369.66 295.8 L 369.41 294.49 L 369.11 293.19 L 368.74 291.88 L 368.3 290.58 L 367.79 289.27 L 367.21 287.97 L 366.57 286.66 L 365.85 285.36 L 365.06 284.05 L 364.2 282.75 L 363.28000000000003 281.44 L 362.29 280.14 L 361.25 278.83 L 360.15000000000003 277.53000000000003 L 359.0 276.22 L 357.81 274.92 L 356.59000000000003 273.62 L 355.36 272.31 L 354.11 271.01 L 352.86 269.7 L 351.63 268.4 L 350.43 267.09000000000003 L 349.26 265.79 L 348.15000000000003 264.48 L 347.1 263.18 L 346.13 261.87 L 345.25 260.57 L 344.47 259.26 L 343.79 257.96 L 343.23 256.65 L 342.78000000000003 255.35 L 342.46 254.04 L 342.27 252.74 L 342.2 251.44 L 342.26 250.13 L 342.44 248.83 L 342.74 247.52 L 343.15000000000003 246.22 L 343.66 244.91 L 344.28000000000003 243.61 L 344.98 242.3 L 345.76 241.0 L 346.62 239.69 L 347.54 238.39000000000001 L 348.5 237.08 L 349.52 235.78 L 350.56 234.47 L 351.63 233.17000000000002 L 352.71 231.86 L 353.8 230.56 L 354.90000000000003 229.26 L 355.98 227.95000000000002 L 357.05 226.65 L 358.11 225.34 L 359.13 224.04 L 360.13 222.73000000000002 L 361.1 221.43 L 362.02 220.12 L 362.91 218.82 L 363.75 217.51 L 364.55 216.21 L 365.3 214.9 L 366.0 213.6 L 366.65000000000003 212.29 L 367.26 210.99 L 367.82 209.68 L 368.33 208.38 L 368.79 207.08 L 369.22 205.77 L 369.6 204.47 L 369.94 203.16 L 370.25 201.86 L 370.52 200.55 L 370.76 199.25 L 370.97 197.94 L 371.16 196.64000000000001 L 371.32 195.33 L 371.46 194.03 L 371.58 192.72 L 371.68 191.42000000000002 L 371.77 190.11 L 371.85 188.81 L 371.91 187.5 L 371.96 186.20000000000002 L 372.01 184.9 L 372.04 183.59 L 372.07 182.29 L 372.1 180.98 L 372.12 179.68 L 372.14 178.37 L 372.15000000000003 177.07 L 372.16 175.76 L 372.17 174.46 L 372.18 173.15 L 372.18 171.85 L 372.19 170.54 L 372.19 169.24 L 372.19 167.93 L 372.19 166.63 L 372.21 166.63 L 372.21 167.93 L 372.21 169.24 L 372.21 170.54 L 372.22 171.85 L 372.22 173.15 L 372.23 174.46 L 372.24 175.76 L 372.25 177.07 L 372.26 178.37 L 372.28000000000003 179.68 L 372.3 180.98 L 372.33 182.29 L 372.36 183.59 L 372.39 184.9 L 372.44 186.20000000000002 L 372.49 187.5 L 372.55 188.81 L 372.63 190.11 L 372.72 191.42000000000002 L 372.82 192.72 L 372.94 194.03 L 373.08 195.33 L 373.24 196.64000000000001 L 373.43 197.94 L 373.64 199.25 L 373.88 200.55 L 374.15000000000003 201.86 L 374.46 203.16 L 374.8 204.47 L 375.18 205.77 L 375.61 207.08 L 376.07 208.38 L 376.58 209.68 L 377.14 210.99 L 377.75 212.29 L 378.40000000000003 213.6 L 379.1 214.9 L 379.85 216.21 L 380.65000000000003 217.51 L 381.49 218.82 L 382.38 220.12 L 383.3 221.43 L 384.27 222.73000000000002 L 385.27 224.04 L 386.29 225.34 L 387.35 226.65 L 388.42 227.95000000000002 L 389.5 229.26 L 390.6 230.56 L 391.69 231.86 L 392.77 233.17000000000002 L 393.84000000000003 234.47 L 394.88 235.78 L 395.90000000000003 237.08 L 396.86 238.39000000000001 L 397.78000000000003 239.69 L 398.64 241.0 L 399.42 242.3 L 400.12 243.61 L 400.74 244.91 L 401.25 246.22 L 401.66 247.52 L 401.96000000000004 248.83 L 402.14 250.13 L 402.2 251.44 L 402.13 252.74 L 401.94 254.04 L 401.62 255.35 L 401.17 256.65 L 400.61 257.96 L 399.93 259.26 L 399.15000000000003 260.57 L 398.27 261.87 L 397.3 263.18 L 396.25 264.48 L 395.14 265.79 L 393.97 267.09000000000003 L 392.77 268.4 L 391.54 269.7 L 390.29 271.01 L 389.04 272.31 L 387.81 273.62 L 386.59000000000003 274.92 L 385.40000000000003 276.22 L 384.25 277.53000000000003 L 383.15000000000003 278.83 L 382.11 280.14 L 381.12 281.44 L 380.2 282.75 L 379.34000000000003 284.05 L 378.55 285.36 L 377.83 286.66 L 377.19 287.97 L 376.61 289.27 L 376.1 290.58 L 375.66 291.88 L 375.29 293.19 L 374.99 294.49 L 374.74 295.8 L 374.56 297.1 L 374.44 298.40000000000003 L 374.38 299.71 L 374.37 301.01 L 374.43 302.32 L 374.53000000000003 303.62 L 374.69 304.93 L 374.91 306.23 L 375.18 307.54 L 375.5 308.84000000000003 L 375.88 310.15000000000003 L 376.31 311.45 L 376.79 312.76 L 377.33 314.06 L 377.92 315.37 L 378.57 316.67 L 379.26 317.98 L 380.01 319.28000000000003 L 380.81 320.58 L 381.65000000000003 321.89 L 382.54 323.19 L 383.47 324.5 L 384.44 325.8 L 385.44 327.11 L 386.47 328.41 L 387.52 329.72 L 388.6 331.02 L 389.68 332.33 L 390.78000000000003 333.63 L 391.87 334.94 L 392.95 336.24 L 394.01 337.55 L 395.05 338.85 L 396.06 340.16 L 397.02 341.46 L 397.93 342.76 L 398.77 344.07 L 399.54 345.37 L 400.23 346.68 L 400.83 347.98 L 401.33 349.29 L 401.72 350.59000000000003 L 402.0 351.90000000000003 L 402.16 353.2 L 402.2 354.51 L 402.11 355.81 L 401.89 357.12 L 401.55 358.42 L 401.09000000000003 359.73 L 400.51 361.03000000000003 L 399.81 362.33 L 399.01 363.64 L 398.11 364.94 L 397.13 366.25 L 396.07 367.55 L 394.95 368.86 L 393.77 370.16 L 392.56 371.47 L 391.33 372.77 L 390.08 374.08 L 388.83 375.38 L 387.59000000000003 376.69 L 386.37 377.99 L 385.19 379.3 L 384.04 380.6 L 382.94 381.91 L 381.89 383.21000000000004 L 380.90000000000003 384.51 L 379.97 385.82 L 379.1 387.12 L 378.29 388.43 L 377.55 389.73 L 376.88 391.04 L 376.27 392.34000000000003 L 375.71 393.65000000000003 L 375.22 394.95 L 374.78000000000003 396.26 L 374.39 397.56 L 374.05 398.87 L 373.75 400.17 L 373.49 401.48 L 373.27 402.78000000000003 L 373.08 404.09000000000003 L 372.92 405.39 L 372.79 406.69 L 372.67 408.0 L 372.58 409.3 L 372.5 410.61 L 372.44 411.91 L 372.39 413.22 L 372.35 414.52 L 372.31 415.83 L 372.29 417.13 L 372.27 418.44 L 372.25 419.74 L 372.24 421.05 L 372.23 422.35 L 372.22 423.66 L 372.22 424.96000000000004 L 372.21 426.27 Z" stroke="#000000" stroke-width="0.5" fill="#4682b4" /><path d="M 572.15 322.78000000000003 L 572.11 321.54 L 572.0500000000001 320.31 L 571.95 319.07 L 571.8100000000001 317.83 L 571.59 316.6 L 571.27 315.36 L 570.84 314.13 L 570.24 312.89 L 569.46 311.65000000000003 L 568.46 310.42 L 567.22 309.18 L 565.72 307.95 L 563.96 306.71 L 561.96 305.47 L 559.76 304.24 L 557.41 303.0 L 554.99 301.77 L 552.57 300.53000000000003 L 550.25 299.29 L 548.11 298.06 L 546.23 296.82 L 544.67 295.59000000000003 L 543.48 294.35 L 542.6800000000001 293.11 L 542.26 291.88 L 542.2 290.64 L 542.46 289.41 L 542.99 288.17 L 543.74 286.93 L 544.63 285.7 L 545.62 284.46 L 546.66 283.23 L 547.71 281.99 L 548.75 280.75 L 549.76 279.52 L 550.74 278.28000000000003 L 551.67 277.05 L 552.57 275.81 L 553.42 274.57 L 554.24 273.34000000000003 L 555.01 272.1 L 555.73 270.87 L 556.4 269.63 L 557.01 268.39 L 557.54 267.16 L 558.01 265.92 L 558.42 264.69 L 558.76 263.45 L 559.04 262.21 L 559.29 260.98 L 559.51 259.74 L 559.72 258.51 L 559.92 257.27 L 560.13 256.03000000000003 L 560.36 254.8 L 560.61 253.56 L 560.89 252.33 L 561.21 251.09 L 561.5600000000001 249.85 L 561.9300000000001 248.62 L 562.33 247.38 L 562.74 246.15 L 563.15 244.91 L 563.5600000000001 243.67000000000002 L 563.96 242.44 L 564.34 241.20000000000002 L 564.71 239.97 L 565.0600000000001 238.73000000000002 L 565.4 237.49 L 565.73 236.26 L 566.0600000000001 235.02 L 566.38 233.78 L 566.7 232.55 L 567.01 231.31 L 567.3000000000001 230.08 L 567.58 228.84 L 567.85 227.6 L 568.1 226.37 L 568.33 225.13 L 568.5500000000001 223.9 L 568.75 222.66 L 568.95 221.42000000000002 L 569.13 220.19 L 569.3100000000001 218.95000000000002 L 569.48 217.72 L 569.64 216.48000000000002 L 569.79 215.24 L 569.92 214.01 L 570.03 212.77 L 570.13 211.54 L 570.22 210.3 L 570.29 209.06 L 570.36 207.83 L 570.42 206.59 L 570.48 205.36 L 570.5500000000001 204.12 L 570.62 202.88 L 570.7 201.65 L 570.78 200.41 L 570.85 199.18 L 570.9300000000001 197.94 L 570.99 196.70000000000002 L 571.04 195.47 L 571.08 194.23000000000002 L 571.11 193.0 L 571.12 191.76 L 571.11 190.52 L 571.09 189.29 L 571.0600000000001 188.05 L 571.02 186.82 L 570.98 185.58 L 570.94 184.34 L 570.9 183.11 L 570.87 181.87 L 570.85 180.64000000000001 L 570.85 179.4 L 570.87 178.16 L 570.92 176.93 L 570.98 175.69 L 571.0600000000001 174.46 L 571.16 173.22 L 571.26 171.98 L 571.37 170.75 L 571.48 169.51 L 571.57 168.28 L 571.66 167.04 L 571.72 165.8 L 571.77 164.57 L 571.8000000000001 163.33 L 571.8000000000001 162.1 L 571.79 160.86 L 571.76 159.62 L 571.71 158.39000000000001 L 571.66 157.15 L 571.6 155.92000000000002 L 571.53 154.68 L 571.48 153.44 L 571.4300000000001 152.21 L 571.39 150.97 L 571.37 149.74 L 571.36 148.5 L 571.37 147.26 L 571.39 146.03 L 571.42 144.79 L 571.46 143.56 L 571.52 142.32 L 571.57 141.08 L 571.63 139.85 L 571.69 138.61 L 571.74 137.38 L 571.8000000000001 136.14000000000001 L 571.84 134.9 L 571.89 133.67000000000002 L 571.9300000000001 132.43 L 571.97 131.2 L 572.0 129.96 L 572.03 128.72 L 572.0500000000001 127.49000000000001 L 572.07 126.25 L 572.08 125.01 L 572.08 123.78 L 572.08 122.54 L 572.07 121.31 L 572.0500000000001 120.07000000000001 L 572.01 118.83 L 571.97 117.60000000000001 L 571.92 116.36 L 571.86 115.13 L 571.79 113.89 L 571.71 112.65 L 571.64 111.42 L 571.57 110.18 L 571.5 108.95 L 571.44 107.71000000000001 L 571.39 106.47 L 571.37 105.24000000000001 L 571.36 104.0 L 571.37 102.77 L 571.4 101.53 L 571.44 100.29 L 571.5 99.06 L 571.57 97.82000000000001 L 571.65 96.59 L 571.73 95.35000000000001 L 571.8100000000001 94.11 L 571.88 92.88 L 571.94 91.64 L 572.0 90.41 L 572.0500000000001 89.17 L 572.09 87.93 L 572.12 86.7 L 572.14 85.46000000000001 L 572.16 84.23 L 572.17 82.99 L 572.1800000000001 81.75 L 572.19 80.52 L 572.19 79.28 L 572.2 78.05 L 572.2 76.81 L 572.2 76.81 L 572.2 78.05 L 572.21 79.28 L 572.21 80.52 L 572.22 81.75 L 572.23 82.99 L 572.24 84.23 L 572.26 85.46000000000001 L 572.28 86.7 L 572.3100000000001 87.93 L 572.35 89.17 L 572.4 90.41 L 572.46 91.64 L 572.52 92.88 L 572.59 94.11 L 572.67 95.35000000000001 L 572.75 96.59 L 572.83 97.82000000000001 L 572.9 99.06 L 572.96 100.29 L 573.0 101.53 L 573.03 102.77 L 573.04 104.0 L 573.03 105.24000000000001 L 573.01 106.47 L 572.96 107.71000000000001 L 572.9 108.95 L 572.83 110.18 L 572.76 111.42 L 572.69 112.65 L 572.61 113.89 L 572.54 115.13 L 572.48 116.36 L 572.4300000000001 117.60000000000001 L 572.39 118.83 L 572.35 120.07000000000001 L 572.33 121.31 L 572.32 122.54 L 572.32 123.78 L 572.32 125.01 L 572.33 126.25 L 572.35 127.49000000000001 L 572.37 128.72 L 572.4 129.96 L 572.4300000000001 131.2 L 572.47 132.43 L 572.51 133.67000000000002 L 572.5600000000001 134.9 L 572.6 136.14000000000001 L 572.66 137.38 L 572.71 138.61 L 572.77 139.85 L 572.83 141.08 L 572.88 142.32 L 572.94 143.56 L 572.98 144.79 L 573.01 146.03 L 573.03 147.26 L 573.04 148.5 L 573.03 149.74 L 573.01 150.97 L 572.97 152.21 L 572.92 153.44 L 572.87 154.68 L 572.8000000000001 155.92000000000002 L 572.74 157.15 L 572.69 158.39000000000001 L 572.64 159.62 L 572.61 160.86 L 572.6 162.1 L 572.6 163.33 L 572.63 164.57 L 572.6800000000001 165.8 L 572.74 167.04 L 572.83 168.28 L 572.92 169.51 L 573.03 170.75 L 573.14 171.98 L 573.24 173.22 L 573.34 174.46 L 573.42 175.69 L 573.48 176.93 L 573.53 178.16 L 573.5500000000001 179.4 L 573.5500000000001 180.64000000000001 L 573.53 181.87 L 573.5 183.11 L 573.46 184.34 L 573.42 185.58 L 573.38 186.82 L 573.34 188.05 L 573.3100000000001 189.29 L 573.29 190.52 L 573.28 191.76 L 573.29 193.0 L 573.32 194.23000000000002 L 573.36 195.47 L 573.41 196.70000000000002 L 573.47 197.94 L 573.5500000000001 199.18 L 573.62 200.41 L 573.7 201.65 L 573.78 202.88 L 573.85 204.12 L 573.92 205.36 L 573.98 206.59 L 574.04 207.83 L 574.11 209.06 L 574.1800000000001 210.3 L 574.27 211.54 L 574.37 212.77 L 574.48 214.01 L 574.61 215.24 L 574.76 216.48000000000002 L 574.92 217.72 L 575.09 218.95000000000002 L 575.27 220.19 L 575.45 221.42000000000002 L 575.65 222.66 L 575.85 223.9 L 576.07 225.13 L 576.3000000000001 226.37 L 576.5500000000001 227.6 L 576.82 228.84 L 577.1 230.08 L 577.39 231.31 L 577.7 232.55 L 578.02 233.78 L 578.34 235.02 L 578.67 236.26 L 579.0 237.49 L 579.34 238.73000000000002 L 579.69 239.97 L 580.0600000000001 241.20000000000002 L 580.44 242.44 L 580.84 243.67000000000002 L 581.25 244.91 L 581.66 246.15 L 582.07 247.38 L 582.47 248.62 L 582.84 249.85 L 583.19 251.09 L 583.51 252.33 L 583.79 253.56 L 584.04 254.8 L 584.27 256.03000000000003 L 584.48 257.27 L 584.6800000000001 258.51 L 584.89 259.74 L 585.11 260.98 L 585.36 262.21 L 585.64 263.45 L 585.98 264.69 L 586.39 265.92 L 586.86 267.16 L 587.39 268.39 L 588.0 269.63 L 588.67 270.87 L 589.39 272.1 L 590.16 273.34000000000003 L 590.98 274.57 L 591.83 275.81 L 592.73 277.05 L 593.66 278.28000000000003 L 594.64 279.52 L 595.65 280.75 L 596.69 281.99 L 597.74 283.23 L 598.78 284.46 L 599.77 285.7 L 600.66 286.93 L 601.41 288.17 L 601.94 289.41 L 602.2 290.64 L 602.14 291.88 L 601.72 293.11 L 600.92 294.35 L 599.73 295.59000000000003 L 598.17 296.82 L 596.29 298.06 L 594.15 299.29 L 591.83 300.53000000000003 L 589.41 301.77 L 586.99 303.0 L 584.64 304.24 L 582.44 305.47 L 580.44 306.71 L 578.6800000000001 307.95 L 577.1800000000001 309.18 L 575.94 310.42 L 574.94 311.65000000000003 L 574.16 312.89 L 573.5600000000001 314.13 L 573.13 315.36 L 572.8100000000001 316.6 L 572.59 317.83 L 572.45 319.07 L 572.35 320.31 L 572.29 321.54 L 572.25 322.78000000000003 Z" stroke="#000000" stroke-width="0.5" fill="#4682b4" /></svg>