<svg xmlns="http://www.w3.org/2000/svg" width="677.8000000000001" height="545" font-family="DejaVu Sans, Liberation Sans, Arial, sans-serif" fill="black"><rect width="100%" height="100%" fill="white" /><defs><clipPath id="kuva-clip-5"><rect x="63.800000000000004" y="44" width="600" height="450"/></clipPath></defs><line x1="63.800000000000004" y1="429.71000000000004" x2="663.8000000000001" y2="429.71000000000004" stroke="#cccccc" stroke-width="1" /><line x1="63.800000000000004" y1="301.14" x2="663.8000000000001" y2="301.14" stroke="#cccccc" stroke-width="1" /><line x1="63.800000000000004" y1="172.57" x2="663.8000000000001" y2="172.57" stroke="#cccccc" stroke-width="1" /><line x1="63.800000000000004" y1="44" x2="663.8000000000001" y2="44" stroke="#cccccc" stroke-width="1" /><line x1="63.800000000000004" y1="494" x2="663.8000000000001" y2="494" stroke="#000000" stroke-width="1" /><line x1="63.800000000000004" y1="44" x2="63.800000000000004" y2="494" stroke="#000000" stroke-width="1" /><text x="163.8" y="511" font-size="12" text-anchor="middle">Normal</text><line x1="163.8" y1="494" x2="163.8" y2="499" stroke="#000000" stroke-width="1" /><text x="363.8" y="511" font-size="12" text-anchor="middle">Bimodal</text><line x1="363.8" y1="494" x2="363.8" y2="499" stroke="#000000" stroke-width="1" /><text x="563.8000000000001" y="511" font-size="12" text-anchor="middle">Skewed</text><line x1="563.8000000000001" y1="494" x2="563.8000000000001" y2="499" stroke="#000000" stroke-width="1" /><line x1="58.800000000000004" y1="429.71000000000004" x2="63.800000000000004" y2="429.71000000000004" stroke="#000000" stroke-width="1" /><text x="55.800000000000004" y="433.91" font-size="12" text-anchor="end">-5</text><line x1="58.800000000000004" y1="301.14" x2="63.800000000000004" y2="301.14" stroke="#000000" stroke-width="1" /><text x="55.800000000000004" y="305.34000000000003" font-size="12" text-anchor="end">0</text><line x1="58.800000000000004" y1="172.57" x2="63.800000000000004" y2="172.57" stroke="#000000" stroke-width="1" /><text x="55.800000000000004" y="176.77" font-size="12" text-anchor="end">5</text><line x1="58.800000000000004" y1="44" x2="63.800000000000004" y2="44" stroke="#000000" stroke-width="1" /><text x="55.800000000000004" y="48.2" font-size="12" text-anchor="end">10</text><text x="15" y="272.5" font-size="14" text-anchor="middle" transform="rotate(-90,15,272.5)">Value</text><text x="338.90000000000003" y="27.400000000000002" font-size="18" text-anchor="middle">Violin Plot — Per-group Colors</text><g clip-path="url(#kuva-clip-5)"><path d="M 163.8 385.04 L 163.79 384.14 L 163.79 383.23 L 163.78 382.33 L 163.78 381.43 L 163.77 380.53000000000003 L 163.76 379.62 L 163.74 378.72 L 163.72 377.82 L 163.69 376.92 L 163.66 376.01 L 163.62 375.11 L 163.58 374.21 L 163.52 373.31 L 163.46 372.40000000000003 L 163.38 371.5 L 163.3 370.6 L 163.21 369.7 L 163.1 368.79 L 162.99 367.89 L 162.86 366.99 L 162.72 366.09000000000003 L 162.57 365.18 L 162.41 364.28000000000003 L 162.23 363.38 L 162.03 362.48 L 161.82 361.57 L 161.59 360.67 L 161.35 359.77 L 161.1 358.87 L 160.84 357.96 L 160.58 357.06 L 160.31 356.16 L 160.05 355.26 L 159.79 354.35 L 159.54 353.45 L 159.3 352.55 L 159.07 351.65000000000003 L 158.85 350.74 L 158.63 349.84000000000003 L 158.42000000000002 348.94 L 158.20000000000002 348.04 L 157.98 347.13 L 157.74 346.23 L 157.49 345.33 L 157.22 344.43 L 156.94 343.52 L 156.63 342.62 L 156.3 341.72 L 155.96 340.82 L 155.6 339.91 L 155.22 339.01 L 154.82 338.11 L 154.4 337.21 L 153.95000000000002 336.3 L 153.45000000000002 335.40000000000003 L 152.92000000000002 334.5 L 152.32 333.6 L 151.67000000000002 332.69 L 150.95000000000002 331.79 L 150.17000000000002 330.89 L 149.33 329.99 L 148.43 329.08 L 147.49 328.18 L 146.53 327.28000000000003 L 145.57 326.38 L 144.63 325.47 L 143.72 324.57 L 142.88 323.67 L 142.1 322.77 L 141.41 321.86 L 140.81 320.96 L 140.29 320.06 L 139.86 319.16 L 139.49 318.25 L 139.17000000000002 317.35 L 138.89000000000001 316.45 L 138.63 315.55 L 138.37 314.64 L 138.11 313.74 L 137.82 312.84000000000003 L 137.51 311.94 L 137.18 311.03000000000003 L 136.83 310.13 L 136.46 309.23 L 136.08 308.33 L 135.7 307.42 L 135.33 306.52 L 134.98 305.62 L 134.66 304.72 L 134.38 303.81 L 134.14000000000001 302.91 L 133.96 302.01 L 133.85 301.11 L 133.8 300.2 L 133.83 299.3 L 133.94 298.40000000000003 L 134.14000000000001 297.5 L 134.43 296.59000000000003 L 134.82 295.69 L 135.29 294.79 L 135.84 293.89 L 136.48 292.98 L 137.19 292.08 L 137.95000000000002 291.18 L 138.75 290.28000000000003 L 139.58 289.37 L 140.41 288.47 L 141.24 287.57 L 142.05 286.67 L 142.84 285.76 L 143.58 284.86 L 144.28 283.96 L 144.93 283.06 L 145.55 282.15000000000003 L 146.14000000000001 281.25 L 146.70000000000002 280.35 L 147.25 279.45 L 147.79 278.54 L 148.34 277.64 L 148.91 276.74 L 149.49 275.84000000000003 L 150.1 274.94 L 150.73 274.03000000000003 L 151.38 273.13 L 152.04 272.23 L 152.70000000000002 271.33 L 153.36 270.42 L 154.0 269.52 L 154.62 268.62 L 155.19 267.72 L 155.73 266.81 L 156.21 265.91 L 156.64000000000001 265.01 L 157.01 264.11 L 157.33 263.2 L 157.6 262.3 L 157.83 261.4 L 158.03 260.5 L 158.20000000000002 259.59000000000003 L 158.35 258.69 L 158.5 257.79 L 158.66 256.89 L 158.82 255.98000000000002 L 158.99 255.08 L 159.19 254.18 L 159.4 253.28 L 159.63 252.37 L 159.88 251.47 L 160.14000000000001 250.57 L 160.4 249.67000000000002 L 160.68 248.76000000000002 L 160.95000000000002 247.86 L 161.21 246.96 L 161.46 246.06 L 161.71 245.15 L 161.93 244.25 L 162.13 243.35 L 162.32 242.45000000000002 L 162.48 241.54 L 162.62 240.64000000000001 L 162.73 239.74 L 162.82 238.84 L 162.89000000000001 237.93 L 162.93 237.03 L 162.95000000000002 236.13 L 162.96 235.23000000000002 L 162.95000000000002 234.32 L 162.92000000000002 233.42000000000002 L 162.89000000000001 232.52 L 162.85 231.62 L 162.82 230.71 L 162.78 229.81 L 162.76 228.91 L 162.74 228.01 L 162.74 227.1 L 162.76 226.20000000000002 L 162.79 225.3 L 162.83 224.4 L 162.89000000000001 223.49 L 162.95000000000002 222.59 L 163.03 221.69 L 163.11 220.79 L 163.19 219.88 L 163.28 218.98000000000002 L 163.36 218.08 L 163.43 217.18 L 163.5 216.27 L 163.56 215.37 L 163.61 214.47 L 163.65 213.57 L 163.69 212.66 L 163.71 211.76 L 163.74 210.86 L 163.75 209.96 L 163.77 209.05 L 163.78 208.15 L 163.78 207.25 L 163.79 206.35 L 163.79 205.44 L 163.81 205.44 L 163.81 206.35 L 163.82 207.25 L 163.82 208.15 L 163.83 209.05 L 163.85 209.96 L 163.86 210.86 L 163.89000000000001 211.76 L 163.91 212.66 L 163.95000000000002 213.57 L 163.99 214.47 L 164.04 215.37 L 164.1 216.27 L 164.17000000000002 217.18 L 164.24 218.08 L 164.32 218.98000000000002 L 164.41 219.88 L 164.49 220.79 L 164.57 221.69 L 164.65 222.59 L 164.71 223.49 L 164.77 224.4 L 164.81 225.3 L 164.84 226.20000000000002 L 164.86 227.1 L 164.86 228.01 L 164.84 228.91 L 164.82 229.81 L 164.78 230.71 L 164.75 231.62 L 164.71 232.52 L 164.68 233.42000000000002 L 164.65 234.32 L 164.64000000000001 235.23000000000002 L 164.65 236.13 L 164.67000000000002 237.03 L 164.71 237.93 L 164.78 238.84 L 164.87 239.74 L 164.98 240.64000000000001 L 165.12 241.54 L 165.28 242.45000000000002 L 165.47 243.35 L 165.67000000000002 244.25 L 165.89000000000001 245.15 L 166.14000000000001 246.06 L 166.39000000000001 246.96 L 166.65 247.86 L 166.92000000000002 248.76000000000002 L 167.20000000000002 249.67000000000002 L 167.46 250.57 L 167.72 251.47 L 167.97 252.37 L 168.20000000000002 253.28 L 168.41 254.18 L 168.61 255.08 L 168.78 255.98000000000002 L 168.94 256.89 L 169.1 257.79 L 169.25 258.69 L 169.4 259.59000000000003 L 169.57 260.5 L 169.77 261.4 L 170.0 262.3 L 170.27 263.2 L 170.59 264.11 L 170.96 265.01 L 171.39000000000001 265.91 L 171.87 266.81 L 172.41 267.72 L 172.98 268.62 L 173.6 269.52 L 174.24 270.42 L 174.9 271.33 L 175.56 272.23 L 176.22 273.13 L 176.87 274.03000000000003 L 177.5 274.94 L 178.11 275.84000000000003 L 178.69 276.74 L 179.26 277.64 L 179.81 278.54 L 180.35 279.45 L 180.9 280.35 L 181.46 281.25 L 182.05 282.15000000000003 L 182.67000000000002 283.06 L 183.32 283.96 L 184.02 284.86 L 184.76 285.76 L 185.55 286.67 L 186.36 287.57 L 187.19 288.47 L 188.02 289.37 L 188.85 290.28000000000003 L 189.65 291.18 L 190.41 292.08 L 191.12 292.98 L 191.76 293.89 L 192.31 294.79 L 192.78 295.69 L 193.17000000000002 296.59000000000003 L 193.46 297.5 L 193.66 298.40000000000003 L 193.77 299.3 L 193.8 300.2 L 193.75 301.11 L 193.64000000000001 302.01 L 193.46 302.91 L 193.22 303.81 L 192.94 304.72 L 192.62 305.62 L 192.27 306.52 L 191.9 307.42 L 191.52 308.33 L 191.14000000000001 309.23 L 190.77 310.13 L 190.42000000000002 311.03000000000003 L 190.09 311.94 L 189.78 312.84000000000003 L 189.49 313.74 L 189.23 314.64 L 188.97 315.55 L 188.71 316.45 L 188.43 317.35 L 188.11 318.25 L 187.74 319.16 L 187.31 320.06 L 186.79 320.96 L 186.19 321.86 L 185.5 322.77 L 184.72 323.67 L 183.88 324.57 L 182.97 325.47 L 182.03 326.38 L 181.07 327.28000000000003 L 180.11 328.18 L 179.17000000000002 329.08 L 178.27 329.99 L 177.43 330.89 L 176.65 331.79 L 175.93 332.69 L 175.28 333.6 L 174.68 334.5 L 174.15 335.40000000000003 L 173.65 336.3 L 173.20000000000002 337.21 L 172.78 338.11 L 172.38 339.01 L 172.0 339.91 L 171.64000000000001 340.82 L 171.3 341.72 L 170.97 342.62 L 170.66 343.52 L 170.38 344.43 L 170.11 345.33 L 169.86 346.23 L 169.62 347.13 L 169.4 348.04 L 169.18 348.94 L 168.97 349.84000000000003 L 168.75 350.74 L 168.53 351.65000000000003 L 168.3 352.55 L 168.06 353.45 L 167.81 354.35 L 167.55 355.26 L 167.29 356.16 L 167.02 357.06 L 166.76 357.96 L 166.5 358.87 L 166.25 359.77 L 166.01 360.67 L 165.78 361.57 L 165.57 362.48 L 165.37 363.38 L 165.19 364.28000000000003 L 165.03 365.18 L 164.88 366.09000000000003 L 164.74 366.99 L 164.61 367.89 L 164.5 368.79 L 164.39000000000001 369.7 L 164.3 370.6 L 164.22 371.5 L 164.14000000000001 372.40000000000003 L 164.08 373.31 L 164.02 374.21 L 163.98 375.11 L 163.94 376.01 L 163.91 376.92 L 163.88 377.82 L 163.86 378.72 L 163.84 379.62 L 163.83 380.53000000000003 L 163.82 381.43 L 163.82 382.33 L 163.81 383.23 L 163.81 384.14 L 163.8 385.04 Z" stroke="#000000" stroke-width="0.5" fill="#4682b4" /><path d="M 363.79 430.72 L 363.78000000000003 429.38 L 363.78000000000003 428.03000000000003 L 363.77 426.68 L 363.76 425.33 L 363.74 423.98 L 363.73 422.63 L 363.71 421.28000000000003 L 363.68 419.94 L 363.65000000000003 418.59000000000003 L 363.61 417.24 L 363.56 415.89 L 363.5 414.54 L 363.43 413.19 L 363.34000000000003 411.84000000000003 L 363.24 410.5 L 363.12 409.15000000000003 L 362.97 407.8 L 362.81 406.45 L 362.61 405.1 L 362.38 403.75 L 362.12 402.40000000000003 L 361.82 401.06 L 361.48 399.71000000000004 L 361.1 398.36 L 360.67 397.01 L 360.19 395.66 L 359.65000000000003 394.31 L 359.06 392.96000000000004 L 358.42 391.62 L 357.72 390.27 L 356.95 388.92 L 356.13 387.57 L 355.25 386.22 L 354.32 384.87 L 353.33 383.52 L 352.29 382.18 L 351.21 380.83 L 350.09000000000003 379.48 L 348.93 378.13 L 347.75 376.78000000000003 L 346.55 375.43 L 345.35 374.08 L 344.15000000000003 372.74 L 342.96 371.39 L 341.8 370.04 L 340.67 368.69 L 339.6 367.34000000000003 L 338.58 365.99 L 337.64 364.65000000000003 L 336.78000000000003 363.3 L 336.02 361.95 L 335.36 360.6 L 334.8 359.25 L 334.37 357.90000000000003 L 334.05 356.55 L 333.86 355.21 L 333.8 353.86 L 333.86 352.51 L 334.05 351.16 L 334.36 349.81 L 334.79 348.46 L 335.32 347.11 L 335.96 345.77 L 336.7 344.42 L 337.52 343.07 L 338.41 341.72 L 339.36 340.37 L 340.38 339.02 L 341.43 337.67 L 342.51 336.33 L 343.62 334.98 L 344.74 333.63 L 345.87 332.28000000000003 L 346.98 330.93 L 348.09000000000003 329.58 L 349.17 328.23 L 350.23 326.89 L 351.25 325.54 L 352.24 324.19 L 353.18 322.84000000000003 L 354.08 321.49 L 354.93 320.14 L 355.72 318.79 L 356.47 317.45 L 357.15000000000003 316.1 L 357.79 314.75 L 358.36 313.40000000000003 L 358.87 312.05 L 359.33 310.7 L 359.73 309.35 L 360.07 308.01 L 360.34000000000003 306.66 L 360.56 305.31 L 360.72 303.96 L 360.82 302.61 L 360.85 301.26 L 360.82 299.91 L 360.73 298.57 L 360.58 297.22 L 360.36 295.87 L 360.07 294.52 L 359.72 293.17 L 359.3 291.82 L 358.81 290.47 L 358.25 289.13 L 357.62 287.78000000000003 L 356.93 286.43 L 356.17 285.08 L 355.34000000000003 283.73 L 354.45 282.38 L 353.5 281.03000000000003 L 352.5 279.69 L 351.44 278.34000000000003 L 350.34000000000003 276.99 L 349.21 275.64 L 348.04 274.29 L 346.85 272.94 L 345.66 271.59000000000003 L 344.46 270.25 L 343.27 268.9 L 342.1 267.55 L 340.97 266.2 L 339.88 264.85 L 338.85 263.5 L 337.89 262.15 L 337.01 260.81 L 336.22 259.46 L 335.52 258.11 L 334.94 256.76 L 334.47 255.41 L 334.13 254.06 L 333.90000000000003 252.71 L 333.8 251.37 L 333.83 250.02 L 333.99 248.67000000000002 L 334.27 247.32 L 334.66 245.97 L 335.17 244.62 L 335.78000000000003 243.27 L 336.49 241.93 L 337.29 240.58 L 338.16 239.23000000000002 L 339.1 237.88 L 340.1 236.53 L 341.14 235.18 L 342.22 233.83 L 343.32 232.49 L 344.44 231.14000000000001 L 345.56 229.79 L 346.69 228.44 L 347.8 227.09 L 348.89 225.74 L 349.96 224.39000000000001 L 351.0 223.05 L 352.0 221.70000000000002 L 352.97 220.35 L 353.89 219.0 L 354.76 217.65 L 355.59000000000003 216.3 L 356.37 214.95000000000002 L 357.11 213.61 L 357.79 212.26 L 358.42 210.91 L 359.0 209.56 L 359.54 208.21 L 360.03000000000003 206.86 L 360.48 205.52 L 360.89 204.17000000000002 L 361.25 202.82 L 361.58 201.47 L 361.88 200.12 L 362.14 198.77 L 362.37 197.42000000000002 L 362.57 196.08 L 362.75 194.73000000000002 L 362.91 193.38 L 363.05 192.03 L 363.17 190.68 L 363.27 189.33 L 363.36 187.98 L 363.43 186.64000000000001 L 363.49 185.29 L 363.55 183.94 L 363.59000000000003 182.59 L 363.63 181.24 L 363.66 179.89000000000001 L 363.69 178.54 L 363.71 177.20000000000002 L 363.73 175.85 L 363.74 174.5 L 363.76 173.15 L 363.77 171.8 L 363.77 170.45000000000002 L 363.78000000000003 169.1 L 363.78000000000003 167.76 L 363.79 166.41 L 363.79 165.06 L 363.79 163.71 L 363.79 162.36 L 363.81 162.36 L 363.81 163.71 L 363.81 165.06 L 363.81 166.41 L 363.82 167.76 L 363.82 169.1 L 363.83 170.45000000000002 L 363.83 171.8 L 363.84000000000003 173.15 L 363.86 174.5 L 363.87 175.85 L 363.89 177.20000000000002 L 363.91 178.54 L 363.94 179.89000000000001 L 363.97 181.24 L 364.01 182.59 L 364.05 183.94 L 364.11 185.29 L 364.17 186.64000000000001 L 364.24 187.98 L 364.33 189.33 L 364.43 190.68 L 364.55 192.03 L 364.69 193.38 L 364.85 194.73000000000002 L 365.03000000000003 196.08 L 365.23 197.42000000000002 L 365.46 198.77 L 365.72 200.12 L 366.02 201.47 L 366.35 202.82 L 366.71 204.17000000000002 L 367.12 205.52 L 367.57 206.86 L 368.06 208.21 L 368.6 209.56 L 369.18 210.91 L 369.81 212.26 L 370.49 213.61 L 371.23 214.95000000000002 L 372.01 216.3 L 372.84000000000003 217.65 L 373.71 219.0 L 374.63 220.35 L 375.6 221.70000000000002 L 376.6 223.05 L 377.64 224.39000000000001 L 378.71 225.74 L 379.8 227.09 L 380.91 228.44 L 382.04 229.79 L 383.16 231.14000000000001 L 384.28000000000003 232.49 L 385.38 233.83 L 386.46000000000004 235.18 L 387.5 236.53 L 388.5 237.88 L 389.44 239.23000000000002 L 390.31 240.58 L 391.11 241.93 L 391.82 243.27 L 392.43 244.62 L 392.94 245.97 L 393.33 247.32 L 393.61 248.67000000000002 L 393.77 250.02 L 393.8 251.37 L 393.7 252.71 L 393.47 254.06 L 393.13 255.41 L 392.66 256.76 L 392.08 258.11 L 391.38 259.46 L 390.59000000000003 260.81 L 389.71000000000004 262.15 L 388.75 263.5 L 387.72 264.85 L 386.63 266.2 L 385.5 267.55 L 384.33 268.9 L 383.14 270.25 L 381.94 271.59000000000003 L 380.75 272.94 L 379.56 274.29 L 378.39 275.64 L 377.26 276.99 L 376.16 278.34000000000003 L 375.1 279.69 L 374.1 281.03000000000003 L 373.15000000000003 282.38 L 372.26 283.73 L 371.43 285.08 L 370.67 286.43 L 369.98 287.78000000000003 L 369.35 289.13 L 368.79 290.47 L 368.3 291.82 L 367.88 293.17 L 367.53000000000003 294.52 L 367.24 295.87 L 367.02 297.22 L 366.87 298.57 L 366.78000000000003 299.91 L 366.75 301.26 L 366.78000000000003 302.61 L 366.88 303.96 L 367.04 305.31 L 367.26 306.66 L 367.53000000000003 308.01 L 367.87 309.35 L 368.27 310.7 L 368.73 312.05 L 369.24 313.40000000000003 L 369.81 314.75 L 370.45 316.1 L 371.13 317.45 L 371.88 318.79 L 372.67 320.14 L 373.52 321.49 L 374.42 322.84000000000003 L 375.36 324.19 L 376.35 325.54 L 377.37 326.89 L 378.43 328.23 L 379.51 329.58 L 380.62 330.93 L 381.73 332.28000000000003 L 382.86 333.63 L 383.98 334.98 L 385.09000000000003 336.33 L 386.17 337.67 L 387.22 339.02 L 388.24 340.37 L 389.19 341.72 L 390.08 343.07 L 390.90000000000003 344.42 L 391.64 345.77 L 392.28000000000003 347.11 L 392.81 348.46 L 393.24 349.81 L 393.55 351.16 L 393.74 352.51 L 393.8 353.86 L 393.74 355.21 L 393.55 356.55 L 393.23 357.90000000000003 L 392.8 359.25 L 392.24 360.6 L 391.58 361.95 L 390.82 363.3 L 389.96000000000004 364.65000000000003 L 389.02 365.99 L 388.0 367.34000000000003 L 386.93 368.69 L 385.8 370.04 L 384.64 371.39 L 383.45 372.74 L 382.25 374.08 L 381.05 375.43 L 379.85 376.78000000000003 L 378.67 378.13 L 377.51 379.48 L 376.39 380.83 L 375.31 382.18 L 374.27 383.52 L 373.28000000000003 384.87 L 372.35 386.22 L 371.47 387.57 L 370.65000000000003 388.92 L 369.88 390.27 L 369.18 391.62 L 368.54 392.96000000000004 L 367.95 394.31 L 367.41 395.66 L 366.93 397.01 L 366.5 398.36 L 366.12 399.71000000000004 L 365.78000000000003 401.06 L 365.48 402.40000000000003 L 365.22 403.75 L 364.99 405.1 L 364.79 406.45 L 364.63 407.8 L 364.48 409.15000000000003 L 364.36 410.5 L 364.26 411.84000000000003 L 364.17 413.19 L 364.1 414.54 L 364.04 415.89 L 363.99 417.24 L 363.95 418.59000000000003 L 363.92 419.94 L 363.89 421.28000000000003 L 363.87 422.63 L 363.86 423.98 L 363.84000000000003 425.33 L 363.83 426.68 L 363.82 428.03000000000003 L 363.82 429.38 L 363.81 430.72 Z" stroke="#000000" stroke-width="0.5" fill="#ff6347" /><path d="M 563.74 325.18 L 563.71 323.92 L 563.65 322.66 L 563.5600000000001 321.40000000000003 L 563.4300000000001 320.14 L 563.24 318.88 L 562.97 317.62 L 562.61 316.36 L 562.12 315.1 L 561.48 313.84000000000003 L 560.67 312.58 L 559.66 311.32 L 558.44 310.06 L 557.0 308.8 L 555.33 307.54 L 553.47 306.28000000000003 L 551.4300000000001 305.01 L 549.26 303.75 L 547.01 302.49 L 544.75 301.23 L 542.55 299.97 L 540.48 298.71 L 538.61 297.45 L 536.99 296.19 L 535.6800000000001 294.93 L 534.7 293.67 L 534.07 292.41 L 533.8 291.15000000000003 L 533.87 289.89 L 534.26 288.63 L 534.9300000000001 287.37 L 535.83 286.11 L 536.92 284.85 L 538.15 283.59000000000003 L 539.46 282.33 L 540.82 281.07 L 542.17 279.81 L 543.49 278.55 L 544.74 277.29 L 545.9 276.02 L 546.95 274.76 L 547.89 273.5 L 548.7 272.24 L 549.38 270.98 L 549.95 269.72 L 550.4 268.46 L 550.74 267.2 L 551.0 265.94 L 551.1800000000001 264.68 L 551.29 263.42 L 551.36 262.16 L 551.41 260.9 L 551.44 259.64 L 551.48 258.38 L 551.5500000000001 257.12 L 551.65 255.86 L 551.8000000000001 254.6 L 551.99 253.34 L 552.23 252.08 L 552.53 250.82 L 552.87 249.56 L 553.24 248.3 L 553.64 247.03 L 554.0600000000001 245.77 L 554.49 244.51 L 554.91 243.25 L 555.34 241.99 L 555.75 240.73000000000002 L 556.16 239.47 L 556.5500000000001 238.21 L 556.94 236.95000000000002 L 557.33 235.69 L 557.71 234.43 L 558.09 233.17000000000002 L 558.47 231.91 L 558.84 230.65 L 559.21 229.39000000000001 L 559.5600000000001 228.13 L 559.91 226.87 L 560.23 225.61 L 560.54 224.35 L 560.82 223.09 L 561.09 221.83 L 561.32 220.57 L 561.53 219.31 L 561.71 218.04 L 561.86 216.78 L 561.98 215.52 L 562.08 214.26 L 562.16 213.0 L 562.22 211.74 L 562.26 210.48000000000002 L 562.3000000000001 209.22 L 562.33 207.96 L 562.37 206.70000000000002 L 562.41 205.44 L 562.45 204.18 L 562.51 202.92000000000002 L 562.5600000000001 201.66 L 562.63 200.4 L 562.69 199.14000000000001 L 562.75 197.88 L 562.8000000000001 196.62 L 562.84 195.36 L 562.88 194.1 L 562.89 192.84 L 562.9 191.58 L 562.89 190.32 L 562.87 189.05 L 562.85 187.79 L 562.82 186.53 L 562.79 185.27 L 562.76 184.01 L 562.73 182.75 L 562.71 181.49 L 562.71 180.23 L 562.72 178.97 L 562.74 177.71 L 562.78 176.45000000000002 L 562.83 175.19 L 562.89 173.93 L 562.96 172.67000000000002 L 563.03 171.41 L 563.11 170.15 L 563.1800000000001 168.89000000000001 L 563.24 167.63 L 563.29 166.37 L 563.33 165.11 L 563.36 163.85 L 563.37 162.59 L 563.36 161.33 L 563.34 160.06 L 563.3100000000001 158.8 L 563.26 157.54 L 563.21 156.28 L 563.15 155.02 L 563.1 153.76 L 563.04 152.5 L 563.0 151.24 L 562.96 149.98 L 562.9300000000001 148.72 L 562.92 147.46 L 562.92 146.20000000000002 L 562.9300000000001 144.94 L 562.95 143.68 L 562.98 142.42000000000002 L 563.02 141.16 L 563.07 139.9 L 563.12 138.64000000000001 L 563.17 137.38 L 563.22 136.12 L 563.28 134.86 L 563.33 133.6 L 563.39 132.34 L 563.44 131.07 L 563.48 129.81 L 563.53 128.55 L 563.5600000000001 127.29 L 563.6 126.03 L 563.62 124.77 L 563.64 123.51 L 563.65 122.25 L 563.64 120.99000000000001 L 563.63 119.73 L 563.61 118.47 L 563.57 117.21000000000001 L 563.52 115.95 L 563.46 114.69 L 563.4 113.43 L 563.32 112.17 L 563.24 110.91 L 563.16 109.65 L 563.09 108.39 L 563.03 107.13 L 562.97 105.87 L 562.94 104.61 L 562.92 103.35000000000001 L 562.92 102.08 L 562.94 100.82000000000001 L 562.97 99.56 L 563.03 98.3 L 563.09 97.04 L 563.17 95.78 L 563.24 94.52 L 563.32 93.26 L 563.4 92.0 L 563.47 90.74 L 563.54 89.48 L 563.59 88.22 L 563.64 86.96000000000001 L 563.6800000000001 85.7 L 563.71 84.44 L 563.74 83.18 L 563.75 81.92 L 563.77 80.66 L 563.78 79.4 L 563.79 78.14 L 563.79 76.88 L 563.79 75.62 L 563.8000000000001 74.36 L 563.8000000000001 74.36 L 563.8100000000001 75.62 L 563.8100000000001 76.88 L 563.8100000000001 78.14 L 563.82 79.4 L 563.83 80.66 L 563.85 81.92 L 563.86 83.18 L 563.89 84.44 L 563.92 85.7 L 563.96 86.96000000000001 L 564.01 88.22 L 564.0600000000001 89.48 L 564.13 90.74 L 564.2 92.0 L 564.28 93.26 L 564.36 94.52 L 564.4300000000001 95.78 L 564.51 97.04 L 564.57 98.3 L 564.63 99.56 L 564.66 100.82000000000001 L 564.6800000000001 102.08 L 564.6800000000001 103.35000000000001 L 564.66 104.61 L 564.63 105.87 L 564.57 107.13 L 564.51 108.39 L 564.44 109.65 L 564.36 110.91 L 564.28 112.17 L 564.2 113.43 L 564.14 114.69 L 564.08 115.95 L 564.03 117.21000000000001 L 563.99 118.47 L 563.97 119.73 L 563.96 120.99000000000001 L 563.95 122.25 L 563.96 123.51 L 563.98 124.77 L 564.0 126.03 L 564.04 127.29 L 564.07 128.55 L 564.12 129.81 L 564.16 131.07 L 564.21 132.34 L 564.27 133.6 L 564.32 134.86 L 564.38 136.12 L 564.4300000000001 137.38 L 564.48 138.64000000000001 L 564.53 139.9 L 564.58 141.16 L 564.62 142.42000000000002 L 564.65 143.68 L 564.67 144.94 L 564.6800000000001 146.20000000000002 L 564.6800000000001 147.46 L 564.67 148.72 L 564.64 149.98 L 564.6 151.24 L 564.5600000000001 152.5 L 564.5 153.76 L 564.45 155.02 L 564.39 156.28 L 564.34 157.54 L 564.29 158.8 L 564.26 160.06 L 564.24 161.33 L 564.23 162.59 L 564.24 163.85 L 564.27 165.11 L 564.3100000000001 166.37 L 564.36 167.63 L 564.42 168.89000000000001 L 564.49 170.15 L 564.57 171.41 L 564.64 172.67000000000002 L 564.71 173.93 L 564.77 175.19 L 564.82 176.45000000000002 L 564.86 177.71 L 564.88 178.97 L 564.89 180.23 L 564.89 181.49 L 564.87 182.75 L 564.84 184.01 L 564.8100000000001 185.27 L 564.78 186.53 L 564.75 187.79 L 564.73 189.05 L 564.71 190.32 L 564.7 191.58 L 564.71 192.84 L 564.72 194.1 L 564.76 195.36 L 564.8000000000001 196.62 L 564.85 197.88 L 564.91 199.14000000000001 L 564.97 200.4 L 565.04 201.66 L 565.09 202.92000000000002 L 565.15 204.18 L 565.19 205.44 L 565.23 206.70000000000002 L 565.27 207.96 L 565.3000000000001 209.22 L 565.34 210.48000000000002 L 565.38 211.74 L 565.44 213.0 L 565.52 214.26 L 565.62 215.52 L 565.74 216.78 L 565.89 218.04 L 566.07 219.31 L 566.28 220.57 L 566.51 221.83 L 566.78 223.09 L 567.0600000000001 224.35 L 567.37 225.61 L 567.69 226.87 L 568.04 228.13 L 568.39 229.39000000000001 L 568.76 230.65 L 569.13 231.91 L 569.51 233.17000000000002 L 569.89 234.43 L 570.27 235.69 L 570.66 236.95000000000002 L 571.0500000000001 238.21 L 571.44 239.47 L 571.85 240.73000000000002 L 572.26 241.99 L 572.69 243.25 L 573.11 244.51 L 573.54 245.77 L 573.96 247.03 L 574.36 248.3 L 574.73 249.56 L 575.07 250.82 L 575.37 252.08 L 575.61 253.34 L 575.8000000000001 254.6 L 575.95 255.86 L 576.0500000000001 257.12 L 576.12 258.38 L 576.16 259.64 L 576.19 260.9 L 576.24 262.16 L 576.3100000000001 263.42 L 576.42 264.68 L 576.6 265.94 L 576.86 267.2 L 577.2 268.46 L 577.65 269.72 L 578.22 270.98 L 578.9 272.24 L 579.71 273.5 L 580.65 274.76 L 581.7 276.02 L 582.86 277.29 L 584.11 278.55 L 585.4300000000001 279.81 L 586.78 281.07 L 588.14 282.33 L 589.45 283.59000000000003 L 590.6800000000001 284.85 L 591.77 286.11 L 592.67 287.37 L 593.34 288.63 L 593.73 289.89 L 593.8000000000001 291.15000000000003 L 593.53 292.41 L 592.9 293.67 L 591.92 294.93 L 590.61 296.19 L 588.99 297.45 L 587.12 298.71 L 585.0500000000001 299.97 L 582.85 301.23 L 580.59 302.49 L 578.34 303.75 L 576.17 305.01 L 574.13 306.28000000000003 L 572.27 307.54 L 570.6 308.8 L 569.16 310.06 L 567.94 311.32 L 566.9300000000001 312.58 L 566.12 313.84000000000003 L 565.48 315.1 L 564.99 316.36 L 564.63 317.62 L 564.36 318.88 L 564.17 320.14 L 564.04 321.40000000000003 L 563.95 322.66 L 563.89 323.92 L 563.86 325.18 Z" stroke="#000000" stroke-width="0.5" fill="seagreen" /></g></svg>