<svg xmlns="http://www.w3.org/2000/svg" width="677.8000000000001" height="545" font-family="DejaVu Sans, Liberation Sans, Arial, sans-serif" fill="black"><rect width="100%" height="100%" fill="white" /><defs><clipPath id="kuva-clip-4"><rect x="63.800000000000004" y="44" width="600" height="450"/></clipPath></defs><line x1="63.800000000000004" y1="301.14" x2="663.8000000000001" y2="301.14" stroke="#cccccc" stroke-width="1" /><line x1="63.800000000000004" y1="172.57" x2="663.8000000000001" y2="172.57" stroke="#cccccc" stroke-width="1" /><line x1="63.800000000000004" y1="44" x2="663.8000000000001" y2="44" stroke="#cccccc" stroke-width="1" /><line x1="63.800000000000004" y1="494" x2="663.8000000000001" y2="494" stroke="#000000" stroke-width="1" /><line x1="63.800000000000004" y1="44" x2="63.800000000000004" y2="494" stroke="#000000" stroke-width="1" /><text x="163.8" y="511" font-size="12" text-anchor="middle">Normal</text><line x1="163.8" y1="494" x2="163.8" y2="499" stroke="#000000" stroke-width="1" /><text x="363.8" y="511" font-size="12" text-anchor="middle">Bimodal</text><line x1="363.8" y1="494" x2="363.8" y2="499" stroke="#000000" stroke-width="1" /><text x="563.8000000000001" y="511" font-size="12" text-anchor="middle">Skewed</text><line x1="563.8000000000001" y1="494" x2="563.8000000000001" y2="499" stroke="#000000" stroke-width="1" /><line x1="58.800000000000004" y1="429.71000000000004" x2="63.800000000000004" y2="429.71000000000004" stroke="#000000" stroke-width="1" /><text x="55.800000000000004" y="433.91" font-size="12" text-anchor="end">-5</text><line x1="58.800000000000004" y1="301.14" x2="63.800000000000004" y2="301.14" stroke="#000000" stroke-width="1" /><text x="55.800000000000004" y="305.34000000000003" font-size="12" text-anchor="end">0</text><line x1="58.800000000000004" y1="172.57" x2="63.800000000000004" y2="172.57" stroke="#000000" stroke-width="1" /><text x="55.800000000000004" y="176.77" font-size="12" text-anchor="end">5</text><line x1="58.800000000000004" y1="44" x2="63.800000000000004" y2="44" stroke="#000000" stroke-width="1" /><text x="55.800000000000004" y="48.2" font-size="12" text-anchor="end">10</text><text x="15" y="272.5" font-size="14" text-anchor="middle" transform="rotate(-90,15,272.5)">Value</text><text x="363.8" y="22" font-size="18" text-anchor="middle">Violin + Swarm Overlay</text><g clip-path="url(#kuva-clip-4)"><path d="M 163.79 387.11 L 163.79 386.19 L 163.78 385.26 L 163.78 384.34000000000003 L 163.77 383.42 L 163.75 382.49 L 163.74 381.57 L 163.72 380.65000000000003 L 163.69 379.72 L 163.66 378.8 L 163.63 377.88 L 163.58 376.95 L 163.53 376.03000000000003 L 163.48 375.11 L 163.41 374.18 L 163.34 373.26 L 163.27 372.34000000000003 L 163.19 371.41 L 163.1 370.49 L 163.01 369.57 L 162.91 368.64 L 162.81 367.72 L 162.70000000000002 366.8 L 162.59 365.87 L 162.47 364.95 L 162.35 364.03000000000003 L 162.21 363.1 L 162.07 362.18 L 161.91 361.26 L 161.74 360.33 L 161.56 359.41 L 161.38 358.49 L 161.18 357.56 L 160.97 356.64 L 160.77 355.72 L 160.57 354.79 L 160.37 353.87 L 160.19 352.95 L 160.02 352.02 L 159.88 351.1 L 159.75 350.18 L 159.64000000000001 349.25 L 159.55 348.33 L 159.48 347.41 L 159.43 346.48 L 159.37 345.56 L 159.31 344.64 L 159.24 343.71 L 159.15 342.79 L 159.02 341.87 L 158.84 340.94 L 158.61 340.02 L 158.31 339.1 L 157.93 338.17 L 157.47 337.25 L 156.92000000000002 336.33 L 156.27 335.40000000000003 L 155.52 334.48 L 154.68 333.56 L 153.76 332.63 L 152.75 331.71 L 151.68 330.79 L 150.56 329.86 L 149.41 328.94 L 148.26 328.02 L 147.12 327.09000000000003 L 146.02 326.17 L 144.97 325.25 L 143.99 324.33 L 143.1 323.40000000000003 L 142.31 322.48 L 141.6 321.56 L 141.0 320.63 L 140.48 319.71 L 140.04 318.79 L 139.66 317.86 L 139.33 316.94 L 139.04 316.02 L 138.76 315.09000000000003 L 138.48 314.17 L 138.19 313.25 L 137.88 312.32 L 137.55 311.40000000000003 L 137.19 310.48 L 136.81 309.55 L 136.41 308.63 L 136.01 307.71 L 135.6 306.78000000000003 L 135.21 305.86 L 134.85 304.94 L 134.52 304.01 L 134.24 303.09000000000003 L 134.02 302.17 L 133.87 301.24 L 133.8 300.32 L 133.82 299.40000000000003 L 133.92000000000002 298.47 L 134.13 297.55 L 134.43 296.63 L 134.84 295.7 L 135.34 294.78000000000003 L 135.95 293.86 L 136.64000000000001 292.93 L 137.42000000000002 292.01 L 138.28 291.09000000000003 L 139.20000000000002 290.16 L 140.16 289.24 L 141.15 288.32 L 142.16 287.39 L 143.15 286.47 L 144.12 285.55 L 145.05 284.62 L 145.92000000000002 283.7 L 146.74 282.78000000000003 L 147.48 281.85 L 148.16 280.93 L 148.77 280.01 L 149.32 279.08 L 149.82 278.16 L 150.27 277.24 L 150.69 276.31 L 151.09 275.39 L 151.48 274.47 L 151.86 273.54 L 152.24 272.62 L 152.62 271.7 L 153.0 270.77 L 153.39000000000001 269.85 L 153.79 268.93 L 154.18 268.0 L 154.57 267.08 L 154.95000000000002 266.16 L 155.32 265.23 L 155.68 264.31 L 156.04 263.39 L 156.38 262.46 L 156.72 261.54 L 157.05 260.62 L 157.38 259.69 L 157.71 258.77 L 158.04 257.85 L 158.38 256.92 L 158.73 256.0 L 159.08 255.08 L 159.44 254.15 L 159.8 253.23000000000002 L 160.16 252.31 L 160.52 251.38 L 160.87 250.46 L 161.21 249.54 L 161.53 248.61 L 161.83 247.69 L 162.11 246.77 L 162.36 245.84 L 162.58 244.92000000000002 L 162.78 244.0 L 162.95000000000002 243.07 L 163.09 242.15 L 163.20000000000002 241.23000000000002 L 163.29 240.3 L 163.36 239.38 L 163.4 238.46 L 163.42000000000002 237.53 L 163.43 236.61 L 163.42000000000002 235.69 L 163.39000000000001 234.77 L 163.36 233.84 L 163.32 232.92000000000002 L 163.27 232.0 L 163.23 231.07 L 163.18 230.15 L 163.14000000000001 229.23000000000002 L 163.1 228.3 L 163.07 227.38 L 163.05 226.46 L 163.04 225.53 L 163.05 224.61 L 163.06 223.69 L 163.09 222.76 L 163.13 221.84 L 163.17000000000002 220.92000000000002 L 163.22 219.99 L 163.28 219.07 L 163.33 218.15 L 163.39000000000001 217.22 L 163.45000000000002 216.3 L 163.5 215.38 L 163.55 214.45000000000002 L 163.59 213.53 L 163.63 212.61 L 163.67000000000002 211.68 L 163.70000000000002 210.76 L 163.72 209.84 L 163.74 208.91 L 163.75 207.99 L 163.77 207.07 L 163.78 206.14000000000001 L 163.78 205.22 L 163.79 204.3 L 163.79 203.37 L 163.81 203.37 L 163.81 204.3 L 163.82 205.22 L 163.82 206.14000000000001 L 163.83 207.07 L 163.85 207.99 L 163.86 208.91 L 163.88 209.84 L 163.9 210.76 L 163.93 211.68 L 163.97 212.61 L 164.01 213.53 L 164.05 214.45000000000002 L 164.1 215.38 L 164.15 216.3 L 164.21 217.22 L 164.27 218.15 L 164.32 219.07 L 164.38 219.99 L 164.43 220.92000000000002 L 164.47 221.84 L 164.51 222.76 L 164.54 223.69 L 164.55 224.61 L 164.56 225.53 L 164.55 226.46 L 164.53 227.38 L 164.5 228.3 L 164.46 229.23000000000002 L 164.42000000000002 230.15 L 164.37 231.07 L 164.33 232.0 L 164.28 232.92000000000002 L 164.24 233.84 L 164.21 234.77 L 164.18 235.69 L 164.17000000000002 236.61 L 164.18 237.53 L 164.20000000000002 238.46 L 164.24 239.38 L 164.31 240.3 L 164.4 241.23000000000002 L 164.51 242.15 L 164.65 243.07 L 164.82 244.0 L 165.02 244.92000000000002 L 165.24 245.84 L 165.49 246.77 L 165.77 247.69 L 166.07 248.61 L 166.39000000000001 249.54 L 166.73 250.46 L 167.08 251.38 L 167.44 252.31 L 167.8 253.23000000000002 L 168.16 254.15 L 168.52 255.08 L 168.87 256.0 L 169.22 256.92 L 169.56 257.85 L 169.89000000000001 258.77 L 170.22 259.69 L 170.55 260.62 L 170.88 261.54 L 171.22 262.46 L 171.56 263.39 L 171.92000000000002 264.31 L 172.28 265.23 L 172.65 266.16 L 173.03 267.08 L 173.42000000000002 268.0 L 173.81 268.93 L 174.21 269.85 L 174.6 270.77 L 174.98 271.7 L 175.36 272.62 L 175.74 273.54 L 176.12 274.47 L 176.51 275.39 L 176.91 276.31 L 177.33 277.24 L 177.78 278.16 L 178.28 279.08 L 178.83 280.01 L 179.44 280.93 L 180.12 281.85 L 180.86 282.78000000000003 L 181.68 283.7 L 182.55 284.62 L 183.48 285.55 L 184.45000000000002 286.47 L 185.44 287.39 L 186.45000000000002 288.32 L 187.44 289.24 L 188.4 290.16 L 189.32 291.09000000000003 L 190.18 292.01 L 190.96 292.93 L 191.65 293.86 L 192.26 294.78000000000003 L 192.76 295.7 L 193.17000000000002 296.63 L 193.47 297.55 L 193.68 298.47 L 193.78 299.40000000000003 L 193.8 300.32 L 193.73000000000002 301.24 L 193.58 302.17 L 193.36 303.09000000000003 L 193.08 304.01 L 192.75 304.94 L 192.39000000000001 305.86 L 192.0 306.78000000000003 L 191.59 307.71 L 191.19 308.63 L 190.79 309.55 L 190.41 310.48 L 190.05 311.40000000000003 L 189.72 312.32 L 189.41 313.25 L 189.12 314.17 L 188.84 315.09000000000003 L 188.56 316.02 L 188.27 316.94 L 187.94 317.86 L 187.56 318.79 L 187.12 319.71 L 186.6 320.63 L 186.0 321.56 L 185.29 322.48 L 184.5 323.40000000000003 L 183.61 324.33 L 182.63 325.25 L 181.58 326.17 L 180.48 327.09000000000003 L 179.34 328.02 L 178.19 328.94 L 177.04 329.86 L 175.92000000000002 330.79 L 174.85 331.71 L 173.84 332.63 L 172.92000000000002 333.56 L 172.08 334.48 L 171.33 335.40000000000003 L 170.68 336.33 L 170.13 337.25 L 169.67000000000002 338.17 L 169.29 339.1 L 168.99 340.02 L 168.76 340.94 L 168.58 341.87 L 168.45000000000002 342.79 L 168.36 343.71 L 168.29 344.64 L 168.23 345.56 L 168.17000000000002 346.48 L 168.12 347.41 L 168.05 348.33 L 167.96 349.25 L 167.85 350.18 L 167.72 351.1 L 167.58 352.02 L 167.41 352.95 L 167.23 353.87 L 167.03 354.79 L 166.83 355.72 L 166.63 356.64 L 166.42000000000002 357.56 L 166.22 358.49 L 166.04 359.41 L 165.86 360.33 L 165.69 361.26 L 165.53 362.18 L 165.39000000000001 363.1 L 165.25 364.03000000000003 L 165.13 364.95 L 165.01 365.87 L 164.9 366.8 L 164.79 367.72 L 164.69 368.64 L 164.59 369.57 L 164.5 370.49 L 164.41 371.41 L 164.33 372.34000000000003 L 164.26 373.26 L 164.19 374.18 L 164.12 375.11 L 164.07 376.03000000000003 L 164.02 376.95 L 163.97 377.88 L 163.94 378.8 L 163.91 379.72 L 163.88 380.65000000000003 L 163.86 381.57 L 163.85 382.49 L 163.83 383.42 L 163.82 384.34000000000003 L 163.82 385.26 L 163.81 386.19 L 163.81 387.11 Z" stroke="#000000" stroke-width="0.5" fill="#4682b4" /><path d="M 363.79 440.08 L 363.79 438.63 L 363.78000000000003 437.19 L 363.77 435.75 L 363.77 434.31 L 363.76 432.86 L 363.75 431.42 L 363.73 429.98 L 363.71 428.54 L 363.69 427.09000000000003 L 363.67 425.65000000000003 L 363.63 424.21000000000004 L 363.6 422.77 L 363.55 421.32 L 363.5 419.88 L 363.43 418.44 L 363.35 417.0 L 363.26 415.55 L 363.16 414.11 L 363.03000000000003 412.67 L 362.89 411.23 L 362.72 409.78000000000003 L 362.53000000000003 408.34000000000003 L 362.31 406.90000000000003 L 362.06 405.46000000000004 L 361.78000000000003 404.01 L 361.46 402.57 L 361.1 401.13 L 360.7 399.69 L 360.25 398.24 L 359.76 396.8 L 359.22 395.36 L 358.62 393.92 L 357.98 392.47 L 357.28000000000003 391.03000000000003 L 356.52 389.59000000000003 L 355.72 388.15000000000003 L 354.86 386.7 L 353.95 385.26 L 352.99 383.82 L 351.98 382.37 L 350.94 380.93 L 349.86 379.49 L 348.75 378.05 L 347.62 376.6 L 346.48 375.16 L 345.33 373.72 L 344.18 372.28000000000003 L 343.05 370.83 L 341.94 369.39 L 340.86 367.95 L 339.83 366.51 L 338.85 365.06 L 337.93 363.62 L 337.09000000000003 362.18 L 336.33 360.74 L 335.65000000000003 359.29 L 335.08 357.85 L 334.6 356.41 L 334.24 354.97 L 333.98 353.52 L 333.83 352.08 L 333.8 350.64 L 333.89 349.2 L 334.09000000000003 347.75 L 334.39 346.31 L 334.8 344.87 L 335.32 343.43 L 335.93 341.98 L 336.62 340.54 L 337.40000000000003 339.1 L 338.25 337.66 L 339.16 336.21 L 340.13 334.77 L 341.15000000000003 333.33 L 342.19 331.89 L 343.27 330.44 L 344.36 329.0 L 345.46 327.56 L 346.55 326.12 L 347.63 324.67 L 348.7 323.23 L 349.74 321.79 L 350.74 320.34000000000003 L 351.71 318.90000000000003 L 352.63 317.46 L 353.49 316.02 L 354.3 314.57 L 355.06 313.13 L 355.74 311.69 L 356.36 310.25 L 356.91 308.8 L 357.39 307.36 L 357.79 305.92 L 358.12 304.48 L 358.37 303.03000000000003 L 358.55 301.59000000000003 L 358.65000000000003 300.15000000000003 L 358.66 298.71 L 358.6 297.26 L 358.46 295.82 L 358.25 294.38 L 357.95 292.94 L 357.57 291.49 L 357.12 290.05 L 356.59000000000003 288.61 L 355.99 287.17 L 355.32 285.72 L 354.58 284.28000000000003 L 353.77 282.84000000000003 L 352.90000000000003 281.40000000000003 L 351.97 279.95 L 350.99 278.51 L 349.97 277.07 L 348.91 275.63 L 347.82 274.18 L 346.7 272.74 L 345.58 271.3 L 344.45 269.86 L 343.32 268.41 L 342.22 266.97 L 341.14 265.53000000000003 L 340.1 264.09000000000003 L 339.11 262.64 L 338.18 261.2 L 337.32 259.76 L 336.54 258.32 L 335.84000000000003 256.87 L 335.23 255.43 L 334.73 253.99 L 334.33 252.54 L 334.04 251.1 L 333.86 249.66 L 333.8 248.22 L 333.85 246.77 L 334.01 245.33 L 334.29 243.89000000000001 L 334.67 242.45000000000002 L 335.15000000000003 241.0 L 335.74 239.56 L 336.41 238.12 L 337.17 236.68 L 338.0 235.23000000000002 L 338.90000000000003 233.79 L 339.85 232.35 L 340.86 230.91 L 341.90000000000003 229.46 L 342.98 228.02 L 344.07 226.58 L 345.18 225.14000000000001 L 346.3 223.69 L 347.40000000000003 222.25 L 348.5 220.81 L 349.57 219.37 L 350.62 217.92000000000002 L 351.64 216.48000000000002 L 352.62 215.04 L 353.57 213.6 L 354.46 212.15 L 355.32 210.71 L 356.12 209.27 L 356.87 207.83 L 357.58 206.38 L 358.23 204.94 L 358.83 203.5 L 359.38 202.06 L 359.89 200.61 L 360.35 199.17000000000002 L 360.77 197.73000000000002 L 361.15000000000003 196.29 L 361.49 194.84 L 361.79 193.4 L 362.06 191.96 L 362.3 190.51 L 362.51 189.07 L 362.69 187.63 L 362.85 186.19 L 363.0 184.74 L 363.12 183.3 L 363.22 181.86 L 363.32 180.42000000000002 L 363.39 178.97 L 363.46 177.53 L 363.52 176.09 L 363.57 174.65 L 363.61 173.20000000000002 L 363.64 171.76 L 363.67 170.32 L 363.69 168.88 L 363.71 167.43 L 363.73 165.99 L 363.74 164.55 L 363.75 163.11 L 363.76 161.66 L 363.77 160.22 L 363.78000000000003 158.78 L 363.78000000000003 157.34 L 363.79 155.89000000000001 L 363.79 154.45000000000002 L 363.79 153.01 L 363.81 153.01 L 363.81 154.45000000000002 L 363.81 155.89000000000001 L 363.82 157.34 L 363.82 158.78 L 363.83 160.22 L 363.84000000000003 161.66 L 363.85 163.11 L 363.86 164.55 L 363.87 165.99 L 363.89 167.43 L 363.91 168.88 L 363.93 170.32 L 363.96 171.76 L 363.99 173.20000000000002 L 364.03000000000003 174.65 L 364.08 176.09 L 364.14 177.53 L 364.21 178.97 L 364.28000000000003 180.42000000000002 L 364.38 181.86 L 364.48 183.3 L 364.6 184.74 L 364.75 186.19 L 364.91 187.63 L 365.09000000000003 189.07 L 365.3 190.51 L 365.54 191.96 L 365.81 193.4 L 366.11 194.84 L 366.45 196.29 L 366.83 197.73000000000002 L 367.25 199.17000000000002 L 367.71 200.61 L 368.22 202.06 L 368.77 203.5 L 369.37 204.94 L 370.02 206.38 L 370.73 207.83 L 371.48 209.27 L 372.28000000000003 210.71 L 373.14 212.15 L 374.03000000000003 213.6 L 374.98 215.04 L 375.96 216.48000000000002 L 376.98 217.92000000000002 L 378.03000000000003 219.37 L 379.1 220.81 L 380.2 222.25 L 381.3 223.69 L 382.42 225.14000000000001 L 383.53000000000003 226.58 L 384.62 228.02 L 385.7 229.46 L 386.74 230.91 L 387.75 232.35 L 388.7 233.79 L 389.6 235.23000000000002 L 390.43 236.68 L 391.19 238.12 L 391.86 239.56 L 392.45 241.0 L 392.93 242.45000000000002 L 393.31 243.89000000000001 L 393.59000000000003 245.33 L 393.75 246.77 L 393.8 248.22 L 393.74 249.66 L 393.56 251.1 L 393.27 252.54 L 392.87 253.99 L 392.37 255.43 L 391.76 256.87 L 391.06 258.32 L 390.28000000000003 259.76 L 389.42 261.2 L 388.49 262.64 L 387.5 264.09000000000003 L 386.46000000000004 265.53000000000003 L 385.38 266.97 L 384.28000000000003 268.41 L 383.15000000000003 269.86 L 382.02 271.3 L 380.90000000000003 272.74 L 379.78000000000003 274.18 L 378.69 275.63 L 377.63 277.07 L 376.61 278.51 L 375.63 279.95 L 374.7 281.40000000000003 L 373.83 282.84000000000003 L 373.02 284.28000000000003 L 372.28000000000003 285.72 L 371.61 287.17 L 371.01 288.61 L 370.48 290.05 L 370.03000000000003 291.49 L 369.65000000000003 292.94 L 369.35 294.38 L 369.14 295.82 L 369.0 297.26 L 368.94 298.71 L 368.95 300.15000000000003 L 369.05 301.59000000000003 L 369.23 303.03000000000003 L 369.48 304.48 L 369.81 305.92 L 370.21 307.36 L 370.69 308.8 L 371.24 310.25 L 371.86 311.69 L 372.54 313.13 L 373.3 314.57 L 374.11 316.02 L 374.97 317.46 L 375.89 318.90000000000003 L 376.86 320.34000000000003 L 377.86 321.79 L 378.90000000000003 323.23 L 379.97 324.67 L 381.05 326.12 L 382.14 327.56 L 383.24 329.0 L 384.33 330.44 L 385.41 331.89 L 386.45 333.33 L 387.47 334.77 L 388.44 336.21 L 389.35 337.66 L 390.2 339.1 L 390.98 340.54 L 391.67 341.98 L 392.28000000000003 343.43 L 392.8 344.87 L 393.21000000000004 346.31 L 393.51 347.75 L 393.71000000000004 349.2 L 393.8 350.64 L 393.77 352.08 L 393.62 353.52 L 393.36 354.97 L 393.0 356.41 L 392.52 357.85 L 391.95 359.29 L 391.27 360.74 L 390.51 362.18 L 389.67 363.62 L 388.75 365.06 L 387.77 366.51 L 386.74 367.95 L 385.66 369.39 L 384.55 370.83 L 383.42 372.28000000000003 L 382.27 373.72 L 381.12 375.16 L 379.98 376.6 L 378.85 378.05 L 377.74 379.49 L 376.66 380.93 L 375.62 382.37 L 374.61 383.82 L 373.65000000000003 385.26 L 372.74 386.7 L 371.88 388.15000000000003 L 371.08 389.59000000000003 L 370.32 391.03000000000003 L 369.62 392.47 L 368.98 393.92 L 368.38 395.36 L 367.84000000000003 396.8 L 367.35 398.24 L 366.90000000000003 399.69 L 366.5 401.13 L 366.14 402.57 L 365.82 404.01 L 365.54 405.46000000000004 L 365.29 406.90000000000003 L 365.07 408.34000000000003 L 364.88 409.78000000000003 L 364.71 411.23 L 364.57 412.67 L 364.44 414.11 L 364.34000000000003 415.55 L 364.25 417.0 L 364.17 418.44 L 364.1 419.88 L 364.05 421.32 L 364.0 422.77 L 363.97 424.21000000000004 L 363.93 425.65000000000003 L 363.91 427.09000000000003 L 363.89 428.54 L 363.87 429.98 L 363.85 431.42 L 363.84000000000003 432.86 L 363.83 434.31 L 363.83 435.75 L 363.82 437.19 L 363.81 438.63 L 363.81 440.08 Z" stroke="#000000" stroke-width="0.5" fill="#4682b4" /><path d="M 563.74 326.13 L 563.7 324.86 L 563.63 323.59000000000003 L 563.54 322.32 L 563.41 321.05 L 563.22 319.77 L 562.95 318.5 L 562.59 317.23 L 562.1 315.96 L 561.47 314.69 L 560.67 313.42 L 559.6800000000001 312.15000000000003 L 558.48 310.88 L 557.0500000000001 309.6 L 555.41 308.33 L 553.5600000000001 307.06 L 551.53 305.79 L 549.36 304.52 L 547.11 303.25 L 544.84 301.98 L 542.62 300.71 L 540.53 299.43 L 538.63 298.16 L 537.0 296.89 L 535.67 295.62 L 534.6800000000001 294.35 L 534.0600000000001 293.08 L 533.8 291.81 L 533.88 290.54 L 534.29 289.26 L 534.96 287.99 L 535.87 286.72 L 536.96 285.45 L 538.1800000000001 284.18 L 539.48 282.91 L 540.82 281.64 L 542.16 280.37 L 543.46 279.09000000000003 L 544.71 277.82 L 545.89 276.55 L 546.98 275.28000000000003 L 547.98 274.01 L 548.89 272.74 L 549.71 271.47 L 550.45 270.2 L 551.1 268.92 L 551.69 267.65 L 552.2 266.38 L 552.67 265.11 L 553.08 263.84000000000003 L 553.45 262.57 L 553.79 261.3 L 554.09 260.03000000000003 L 554.38 258.75 L 554.66 257.48 L 554.92 256.21 L 555.19 254.94 L 555.46 253.67000000000002 L 555.74 252.4 L 556.03 251.13 L 556.33 249.86 L 556.64 248.58 L 556.95 247.31 L 557.26 246.04 L 557.5600000000001 244.77 L 557.85 243.5 L 558.12 242.23000000000002 L 558.36 240.96 L 558.58 239.69 L 558.78 238.41 L 558.95 237.14000000000001 L 559.1 235.87 L 559.23 234.6 L 559.35 233.33 L 559.46 232.06 L 559.58 230.79 L 559.7 229.52 L 559.82 228.24 L 559.96 226.97 L 560.1 225.70000000000002 L 560.25 224.43 L 560.42 223.16 L 560.58 221.89000000000001 L 560.74 220.62 L 560.9 219.35 L 561.0500000000001 218.07 L 561.1800000000001 216.8 L 561.3000000000001 215.53 L 561.4 214.26 L 561.49 212.99 L 561.57 211.72 L 561.64 210.45000000000002 L 561.72 209.18 L 561.8000000000001 207.9 L 561.88 206.63 L 561.99 205.36 L 562.1 204.09 L 562.23 202.82 L 562.36 201.55 L 562.5 200.28 L 562.64 199.01 L 562.78 197.73000000000002 L 562.9 196.46 L 563.01 195.19 L 563.11 193.92000000000002 L 563.1800000000001 192.65 L 563.23 191.38 L 563.27 190.11 L 563.28 188.83 L 563.29 187.56 L 563.29 186.29 L 563.28 185.02 L 563.27 183.75 L 563.26 182.48 L 563.26 181.21 L 563.27 179.94 L 563.29 178.66 L 563.32 177.39000000000001 L 563.35 176.12 L 563.39 174.85 L 563.44 173.58 L 563.48 172.31 L 563.53 171.04 L 563.57 169.77 L 563.61 168.49 L 563.65 167.22 L 563.67 165.95000000000002 L 563.69 164.68 L 563.71 163.41 L 563.71 162.14000000000001 L 563.71 160.87 L 563.7 159.6 L 563.6800000000001 158.32 L 563.66 157.05 L 563.62 155.78 L 563.59 154.51 L 563.54 153.24 L 563.5 151.97 L 563.45 150.70000000000002 L 563.41 149.43 L 563.37 148.15 L 563.33 146.88 L 563.3100000000001 145.61 L 563.29 144.34 L 563.28 143.07 L 563.29 141.8 L 563.3100000000001 140.53 L 563.34 139.26 L 563.37 137.98 L 563.41 136.71 L 563.46 135.44 L 563.51 134.17000000000002 L 563.5500000000001 132.9 L 563.6 131.63 L 563.63 130.36 L 563.67 129.09 L 563.69 127.81 L 563.71 126.54 L 563.73 125.27 L 563.74 124.0 L 563.73 122.73 L 563.73 121.46000000000001 L 563.71 120.19 L 563.69 118.92 L 563.65 117.64 L 563.61 116.37 L 563.5500000000001 115.10000000000001 L 563.49 113.83 L 563.42 112.56 L 563.34 111.29 L 563.25 110.02 L 563.16 108.75 L 563.07 107.47 L 562.99 106.2 L 562.92 104.93 L 562.86 103.66 L 562.82 102.39 L 562.8000000000001 101.12 L 562.8000000000001 99.85000000000001 L 562.82 98.58 L 562.86 97.3 L 562.92 96.03 L 562.99 94.76 L 563.07 93.49 L 563.16 92.22 L 563.25 90.95 L 563.34 89.68 L 563.42 88.41 L 563.49 87.13 L 563.5600000000001 85.86 L 563.61 84.59 L 563.66 83.32000000000001 L 563.69 82.05 L 563.72 80.78 L 563.75 79.51 L 563.76 78.24 L 563.77 76.96000000000001 L 563.78 75.69 L 563.79 74.42 L 563.79 73.15 L 563.8100000000001 73.15 L 563.8100000000001 74.42 L 563.82 75.69 L 563.83 76.96000000000001 L 563.84 78.24 L 563.85 79.51 L 563.88 80.78 L 563.91 82.05 L 563.94 83.32000000000001 L 563.99 84.59 L 564.04 85.86 L 564.11 87.13 L 564.1800000000001 88.41 L 564.26 89.68 L 564.35 90.95 L 564.44 92.22 L 564.53 93.49 L 564.61 94.76 L 564.6800000000001 96.03 L 564.74 97.3 L 564.78 98.58 L 564.8000000000001 99.85000000000001 L 564.8000000000001 101.12 L 564.78 102.39 L 564.74 103.66 L 564.6800000000001 104.93 L 564.61 106.2 L 564.53 107.47 L 564.44 108.75 L 564.35 110.02 L 564.26 111.29 L 564.1800000000001 112.56 L 564.11 113.83 L 564.0500000000001 115.10000000000001 L 563.99 116.37 L 563.95 117.64 L 563.91 118.92 L 563.89 120.19 L 563.87 121.46000000000001 L 563.87 122.73 L 563.86 124.0 L 563.87 125.27 L 563.89 126.54 L 563.91 127.81 L 563.9300000000001 129.09 L 563.97 130.36 L 564.0 131.63 L 564.0500000000001 132.9 L 564.09 134.17000000000002 L 564.14 135.44 L 564.19 136.71 L 564.23 137.98 L 564.26 139.26 L 564.29 140.53 L 564.3100000000001 141.8 L 564.32 143.07 L 564.3100000000001 144.34 L 564.29 145.61 L 564.27 146.88 L 564.23 148.15 L 564.19 149.43 L 564.15 150.70000000000002 L 564.1 151.97 L 564.0600000000001 153.24 L 564.01 154.51 L 563.98 155.78 L 563.94 157.05 L 563.92 158.32 L 563.9 159.6 L 563.89 160.87 L 563.89 162.14000000000001 L 563.89 163.41 L 563.91 164.68 L 563.9300000000001 165.95000000000002 L 563.95 167.22 L 563.99 168.49 L 564.03 169.77 L 564.07 171.04 L 564.12 172.31 L 564.16 173.58 L 564.21 174.85 L 564.25 176.12 L 564.28 177.39000000000001 L 564.3100000000001 178.66 L 564.33 179.94 L 564.34 181.21 L 564.34 182.48 L 564.33 183.75 L 564.32 185.02 L 564.3100000000001 186.29 L 564.3100000000001 187.56 L 564.32 188.83 L 564.33 190.11 L 564.37 191.38 L 564.42 192.65 L 564.49 193.92000000000002 L 564.59 195.19 L 564.7 196.46 L 564.82 197.73000000000002 L 564.96 199.01 L 565.1 200.28 L 565.24 201.55 L 565.37 202.82 L 565.5 204.09 L 565.61 205.36 L 565.72 206.63 L 565.8000000000001 207.9 L 565.88 209.18 L 565.96 210.45000000000002 L 566.03 211.72 L 566.11 212.99 L 566.2 214.26 L 566.3000000000001 215.53 L 566.42 216.8 L 566.5500000000001 218.07 L 566.7 219.35 L 566.86 220.62 L 567.02 221.89000000000001 L 567.1800000000001 223.16 L 567.35 224.43 L 567.5 225.70000000000002 L 567.64 226.97 L 567.78 228.24 L 567.9 229.52 L 568.02 230.79 L 568.14 232.06 L 568.25 233.33 L 568.37 234.6 L 568.5 235.87 L 568.65 237.14000000000001 L 568.82 238.41 L 569.02 239.69 L 569.24 240.96 L 569.48 242.23000000000002 L 569.75 243.5 L 570.04 244.77 L 570.34 246.04 L 570.65 247.31 L 570.96 248.58 L 571.27 249.86 L 571.57 251.13 L 571.86 252.4 L 572.14 253.67000000000002 L 572.41 254.94 L 572.6800000000001 256.21 L 572.94 257.48 L 573.22 258.75 L 573.51 260.03000000000003 L 573.8100000000001 261.3 L 574.15 262.57 L 574.52 263.84000000000003 L 574.9300000000001 265.11 L 575.4 266.38 L 575.91 267.65 L 576.5 268.92 L 577.15 270.2 L 577.89 271.47 L 578.71 272.74 L 579.62 274.01 L 580.62 275.28000000000003 L 581.71 276.55 L 582.89 277.82 L 584.14 279.09000000000003 L 585.44 280.37 L 586.78 281.64 L 588.12 282.91 L 589.42 284.18 L 590.64 285.45 L 591.73 286.72 L 592.64 287.99 L 593.3100000000001 289.26 L 593.72 290.54 L 593.8000000000001 291.81 L 593.54 293.08 L 592.92 294.35 L 591.9300000000001 295.62 L 590.6 296.89 L 588.97 298.16 L 587.07 299.43 L 584.98 300.71 L 582.76 301.98 L 580.49 303.25 L 578.24 304.52 L 576.07 305.79 L 574.04 307.06 L 572.19 308.33 L 570.5500000000001 309.6 L 569.12 310.88 L 567.92 312.15000000000003 L 566.9300000000001 313.42 L 566.13 314.69 L 565.5 315.96 L 565.01 317.23 L 564.65 318.5 L 564.38 319.77 L 564.19 321.05 L 564.0600000000001 322.32 L 563.97 323.59000000000003 L 563.9 324.86 L 563.86 326.13 Z" stroke="#000000" stroke-width="0.5" fill="#4682b4" /><circle cx="153.8" cy="279.44" r="2.5" fill="rgba(0,0,0,0.35)" /><circle cx="163.8" cy="282.74" r="2.5" fill="rgba(0,0,0,0.35)" /><circle cx="173.8" cy="350.41" r="2.5" fill="rgba(0,0,0,0.35)" /><circle cx="148.8" cy="289.51" r="2.5" fill="rgba(0,0,0,0.35)" /><circle cx="133.8" cy="322.12" r="2.5" fill="rgba(0,0,0,0.35)" /><circle cx="188.8" cy="291.93" r="2.5" fill="rgba(0,0,0,0.35)" /><circle cx="163.8" cy="225.33" r="2.5" fill="rgba(0,0,0,0.35)" /><circle cx="178.8" cy="298.28000000000003" r="2.5" fill="rgba(0,0,0,0.35)" /><circle cx="171.3" cy="321.28000000000003" r="2.5" fill="rgba(0,0,0,0.35)" /><circle cx="158.8" cy="349.46" r="2.5" fill="rgba(0,0,0,0.35)" /><circle cx="173.8" cy="259.09000000000003" r="2.5" fill="rgba(0,0,0,0.35)" /><circle cx="168.8" cy="310.72" r="2.5" fill="rgba(0,0,0,0.35)" /><circle cx="138.8" cy="321.35" r="2.5" fill="rgba(0,0,0,0.35)" /><circle cx="151.3" cy="311.69" r="2.5" fill="rgba(0,0,0,0.35)" /><circle cx="186.3" cy="325.21" r="2.5" fill="rgba(0,0,0,0.35)" /><circle cx="163.8" cy="321.17" r="2.5" fill="rgba(0,0,0,0.35)" /><circle cx="173.8" cy="297.3" r="2.5" fill="rgba(0,0,0,0.35)" /><circle cx="133.8" cy="301.96" r="2.5" fill="rgba(0,0,0,0.35)" /><circle cx="163.8" cy="269.73" r="2.5" fill="rgba(0,0,0,0.35)" /><circle cx="178.8" cy="286.98" r="2.5" fill="rgba(0,0,0,0.35)" /><circle cx="168.8" cy="335.82" r="2.5" fill="rgba(0,0,0,0.35)" /><circle cx="163.8" cy="257.39" r="2.5" fill="rgba(0,0,0,0.35)" /><circle cx="188.8" cy="313.44" r="2.5" fill="rgba(0,0,0,0.35)" /><circle cx="148.8" cy="306.90000000000003" r="2.5" fill="rgba(0,0,0,0.35)" /><circle cx="176.3" cy="323.82" r="2.5" fill="rgba(0,0,0,0.35)" /><circle cx="138.8" cy="292.45" r="2.5" fill="rgba(0,0,0,0.35)" /><circle cx="156.3" cy="328.56" r="2.5" fill="rgba(0,0,0,0.35)" /><circle cx="158.8" cy="266.08" r="2.5" fill="rgba(0,0,0,0.35)" /><circle cx="143.8" cy="298.36" r="2.5" fill="rgba(0,0,0,0.35)" /><circle cx="171.3" cy="276.01" r="2.5" fill="rgba(0,0,0,0.35)" /><circle cx="148.8" cy="295.28000000000003" r="2.5" fill="rgba(0,0,0,0.35)" /><circle cx="158.8" cy="294.73" r="2.5" fill="rgba(0,0,0,0.35)" /><circle cx="158.8" cy="300.54" r="2.5" fill="rgba(0,0,0,0.35)" /><circle cx="163.8" cy="299.07" r="2.5" fill="rgba(0,0,0,0.35)" /><circle cx="163.8" cy="251.52" r="2.5" fill="rgba(0,0,0,0.35)" /><circle cx="163.8" cy="316.05" r="2.5" fill="rgba(0,0,0,0.35)" /><circle cx="173.8" cy="307.91" r="2.5" fill="rgba(0,0,0,0.35)" /><circle cx="193.8" cy="292.55" r="2.5" fill="rgba(0,0,0,0.35)" /><circle cx="158.8" cy="289.40000000000003" r="2.5" fill="rgba(0,0,0,0.35)" /><circle cx="158.8" cy="284.28000000000003" r="2.5" fill="rgba(0,0,0,0.35)" /><circle cx="173.8" cy="302.67" r="2.5" fill="rgba(0,0,0,0.35)" /><circle cx="148.8" cy="301.19" r="2.5" fill="rgba(0,0,0,0.35)" /><circle cx="188.8" cy="305.06" r="2.5" fill="rgba(0,0,0,0.35)" /><circle cx="168.8" cy="257.48" r="2.5" fill="rgba(0,0,0,0.35)" /><circle cx="183.8" cy="295.67" r="2.5" fill="rgba(0,0,0,0.35)" /><circle cx="173.8" cy="291.26" r="2.5" fill="rgba(0,0,0,0.35)" /><circle cx="153.8" cy="291.51" r="2.5" fill="rgba(0,0,0,0.35)" /><circle cx="178.8" cy="311.77" r="2.5" fill="rgba(0,0,0,0.35)" /><circle cx="163.8" cy="346.35" r="2.5" fill="rgba(0,0,0,0.35)" /><circle cx="163.8" cy="365.15000000000003" r="2.5" fill="rgba(0,0,0,0.35)" /><circle cx="158.8" cy="277.47" r="2.5" fill="rgba(0,0,0,0.35)" /><circle cx="163.8" cy="293.86" r="2.5" fill="rgba(0,0,0,0.35)" /><circle cx="153.8" cy="303.92" r="2.5" fill="rgba(0,0,0,0.35)" /><circle cx="168.8" cy="347.83" r="2.5" fill="rgba(0,0,0,0.35)" /><circle cx="163.8" cy="304.64" r="2.5" fill="rgba(0,0,0,0.35)" /><circle cx="198.8" cy="302.05" r="2.5" fill="rgba(0,0,0,0.35)" /><circle cx="166.3" cy="325.55" r="2.5" fill="rgba(0,0,0,0.35)" /><circle cx="151.3" cy="324.04" r="2.5" fill="rgba(0,0,0,0.35)" /><circle cx="168.8" cy="305.64" r="2.5" fill="rgba(0,0,0,0.35)" /><circle cx="181.3" cy="324.35" r="2.5" fill="rgba(0,0,0,0.35)" /><circle cx="141.3" cy="313.29" r="2.5" fill="rgba(0,0,0,0.35)" /><circle cx="178.8" cy="303.96" r="2.5" fill="rgba(0,0,0,0.35)" /><circle cx="158.8" cy="272.4" r="2.5" fill="rgba(0,0,0,0.35)" /><circle cx="181.3" cy="319.12" r="2.5" fill="rgba(0,0,0,0.35)" /><circle cx="153.8" cy="286.07" r="2.5" fill="rgba(0,0,0,0.35)" /><circle cx="168.8" cy="271.64" r="2.5" fill="rgba(0,0,0,0.35)" /><circle cx="198.8" cy="292.73" r="2.5" fill="rgba(0,0,0,0.35)" /><circle cx="168.8" cy="283.33" r="2.5" fill="rgba(0,0,0,0.35)" /><circle cx="153.8" cy="317.5" r="2.5" fill="rgba(0,0,0,0.35)" /><circle cx="188.8" cy="299.21" r="2.5" fill="rgba(0,0,0,0.35)" /><circle cx="163.8" cy="335.49" r="2.5" fill="rgba(0,0,0,0.35)" /><circle cx="138.8" cy="305.08" r="2.5" fill="rgba(0,0,0,0.35)" /><circle cx="181.3" cy="277.74" r="2.5" fill="rgba(0,0,0,0.35)" /><circle cx="196.3" cy="325.29" r="2.5" fill="rgba(0,0,0,0.35)" /><circle cx="143.8" cy="305" r="2.5" fill="rgba(0,0,0,0.35)" /><circle cx="178.8" cy="292.18" r="2.5" fill="rgba(0,0,0,0.35)" /><circle cx="146.3" cy="312.32" r="2.5" fill="rgba(0,0,0,0.35)" /><circle cx="163.8" cy="310.33" r="2.5" fill="rgba(0,0,0,0.35)" /><circle cx="158.8" cy="257.54" r="2.5" fill="rgba(0,0,0,0.35)" /><circle cx="158.8" cy="338.75" r="2.5" fill="rgba(0,0,0,0.35)" /><circle cx="161.3" cy="326.58" r="2.5" fill="rgba(0,0,0,0.35)" /><circle cx="168.8" cy="294.69" r="2.5" fill="rgba(0,0,0,0.35)" /><circle cx="171.3" cy="326.59000000000003" r="2.5" fill="rgba(0,0,0,0.35)" /><circle cx="183.8" cy="312.34000000000003" r="2.5" fill="rgba(0,0,0,0.35)" /><circle cx="168.8" cy="265.9" r="2.5" fill="rgba(0,0,0,0.35)" /><circle cx="153.8" cy="297.89" r="2.5" fill="rgba(0,0,0,0.35)" /><circle cx="138.8" cy="299.36" r="2.5" fill="rgba(0,0,0,0.35)" /><circle cx="158.8" cy="317.03000000000003" r="2.5" fill="rgba(0,0,0,0.35)" /><circle cx="183.8" cy="306.96" r="2.5" fill="rgba(0,0,0,0.35)" /><circle cx="141.3" cy="326.78000000000003" r="2.5" fill="rgba(0,0,0,0.35)" /><circle cx="173.8" cy="285.39" r="2.5" fill="rgba(0,0,0,0.35)" /><circle cx="168.8" cy="316.38" r="2.5" fill="rgba(0,0,0,0.35)" /><circle cx="133.8" cy="292.69" r="2.5" fill="rgba(0,0,0,0.35)" /><circle cx="128.8" cy="293.33" r="2.5" fill="rgba(0,0,0,0.35)" /><circle cx="163.8" cy="264.09000000000003" r="2.5" fill="rgba(0,0,0,0.35)" /><circle cx="173.8" cy="270.18" r="2.5" fill="rgba(0,0,0,0.35)" /><circle cx="176.3" cy="317.63" r="2.5" fill="rgba(0,0,0,0.35)" /><circle cx="186.3" cy="319.94" r="2.5" fill="rgba(0,0,0,0.35)" /><circle cx="148.8" cy="277.52" r="2.5" fill="rgba(0,0,0,0.35)" /><circle cx="163.8" cy="355.08" r="2.5" fill="rgba(0,0,0,0.35)" /><circle cx="193.8" cy="301.96" r="2.5" fill="rgba(0,0,0,0.35)" /><circle cx="143.8" cy="291.88" r="2.5" fill="rgba(0,0,0,0.35)" /><circle cx="193.8" cy="308.28000000000003" r="2.5" fill="rgba(0,0,0,0.35)" /><circle cx="163.8" cy="275.65000000000003" r="2.5" fill="rgba(0,0,0,0.35)" /><circle cx="143.8" cy="319.58" r="2.5" fill="rgba(0,0,0,0.35)" /><circle cx="168.8" cy="289.3" r="2.5" fill="rgba(0,0,0,0.35)" /><circle cx="156.3" cy="310.58" r="2.5" fill="rgba(0,0,0,0.35)" /><circle cx="156.3" cy="321.98" r="2.5" fill="rgba(0,0,0,0.35)" /><circle cx="148.8" cy="318.57" r="2.5" fill="rgba(0,0,0,0.35)" /><circle cx="168.8" cy="300.09000000000003" r="2.5" fill="rgba(0,0,0,0.35)" /><circle cx="146.3" cy="325.18" r="2.5" fill="rgba(0,0,0,0.35)" /><circle cx="183.8" cy="301.68" r="2.5" fill="rgba(0,0,0,0.35)" /><circle cx="128.8" cy="302.73" r="2.5" fill="rgba(0,0,0,0.35)" /><circle cx="191.3" cy="321.42" r="2.5" fill="rgba(0,0,0,0.35)" /><circle cx="158.8" cy="305.84000000000003" r="2.5" fill="rgba(0,0,0,0.35)" /><circle cx="153.8" cy="273.86" r="2.5" fill="rgba(0,0,0,0.35)" /><circle cx="176.3" cy="274.65000000000003" r="2.5" fill="rgba(0,0,0,0.35)" /><circle cx="173.8" cy="313" r="2.5" fill="rgba(0,0,0,0.35)" /><circle cx="183.8" cy="290.04" r="2.5" fill="rgba(0,0,0,0.35)" /><circle cx="163.8" cy="288.78000000000003" r="2.5" fill="rgba(0,0,0,0.35)" /><circle cx="378.8" cy="334.08" r="2.5" fill="rgba(0,0,0,0.35)" /><circle cx="343.8" cy="351.38" r="2.5" fill="rgba(0,0,0,0.35)" /><circle cx="358.8" cy="347.93" r="2.5" fill="rgba(0,0,0,0.35)" /><circle cx="348.8" cy="362.96" r="2.5" fill="rgba(0,0,0,0.35)" /><circle cx="368.8" cy="352.71" r="2.5" fill="rgba(0,0,0,0.35)" /><circle cx="353.8" cy="331.35" r="2.5" fill="rgba(0,0,0,0.35)" /><circle cx="373.8" cy="359" r="2.5" fill="rgba(0,0,0,0.35)" /><circle cx="368.8" cy="333.6" r="2.5" fill="rgba(0,0,0,0.35)" /><circle cx="353.8" cy="354.18" r="2.5" fill="rgba(0,0,0,0.35)" /><circle cx="373.8" cy="330.84000000000003" r="2.5" fill="rgba(0,0,0,0.35)" /><circle cx="388.8" cy="352.25" r="2.5" fill="rgba(0,0,0,0.35)" /><circle cx="368.8" cy="347.62" r="2.5" fill="rgba(0,0,0,0.35)" /><circle cx="378.8" cy="341.89" r="2.5" fill="rgba(0,0,0,0.35)" /><circle cx="353.8" cy="341.29" r="2.5" fill="rgba(0,0,0,0.35)" /><circle cx="363.8" cy="326.78000000000003" r="2.5" fill="rgba(0,0,0,0.35)" /><circle cx="378.8" cy="354.52" r="2.5" fill="rgba(0,0,0,0.35)" /><circle cx="353.8" cy="348.8" r="2.5" fill="rgba(0,0,0,0.35)" /><circle cx="343.8" cy="357.90000000000003" r="2.5" fill="rgba(0,0,0,0.35)" /><circle cx="383.8" cy="363.12" r="2.5" fill="rgba(0,0,0,0.35)" /><circle cx="373.8" cy="371.90000000000003" r="2.5" fill="rgba(0,0,0,0.35)" /><circle cx="348.8" cy="349.51" r="2.5" fill="rgba(0,0,0,0.35)" /><circle cx="378.8" cy="349.32" r="2.5" fill="rgba(0,0,0,0.35)" /><circle cx="373.8" cy="348.49" r="2.5" fill="rgba(0,0,0,0.35)" /><circle cx="363.8" cy="311.34000000000003" r="2.5" fill="rgba(0,0,0,0.35)" /><circle cx="353.8" cy="372.06" r="2.5" fill="rgba(0,0,0,0.35)" /><circle cx="363.8" cy="356.06" r="2.5" fill="rgba(0,0,0,0.35)" /><circle cx="358.8" cy="363.98" r="2.5" fill="rgba(0,0,0,0.35)" /><circle cx="363.8" cy="375.89" r="2.5" fill="rgba(0,0,0,0.35)" /><circle cx="338.8" cy="358.28000000000003" r="2.5" fill="rgba(0,0,0,0.35)" /><circle cx="383.8" cy="334.54" r="2.5" fill="rgba(0,0,0,0.35)" /><circle cx="358.8" cy="358.27" r="2.5" fill="rgba(0,0,0,0.35)" /><circle cx="373.8" cy="353.64" r="2.5" fill="rgba(0,0,0,0.35)" /><circle cx="383.8" cy="349.62" r="2.5" fill="rgba(0,0,0,0.35)" /><circle cx="358.8" cy="337.13" r="2.5" fill="rgba(0,0,0,0.35)" /><circle cx="363.8" cy="368.16" r="2.5" fill="rgba(0,0,0,0.35)" /><circle cx="343.8" cy="335.44" r="2.5" fill="rgba(0,0,0,0.35)" /><circle cx="348.8" cy="334.2" r="2.5" fill="rgba(0,0,0,0.35)" /><circle cx="358.8" cy="371.85" r="2.5" fill="rgba(0,0,0,0.35)" /><circle cx="348.8" cy="343.22" r="2.5" fill="rgba(0,0,0,0.35)" /><circle cx="373.8" cy="365.68" r="2.5" fill="rgba(0,0,0,0.35)" /><circle cx="363.8" cy="350.96" r="2.5" fill="rgba(0,0,0,0.35)" /><circle cx="363.8" cy="361.29" r="2.5" fill="rgba(0,0,0,0.35)" /><circle cx="363.8" cy="384.6" r="2.5" fill="rgba(0,0,0,0.35)" /><circle cx="358.8" cy="330.47" r="2.5" fill="rgba(0,0,0,0.35)" /><circle cx="348.8" cy="355.35" r="2.5" fill="rgba(0,0,0,0.35)" /><circle cx="368.8" cy="339.12" r="2.5" fill="rgba(0,0,0,0.35)" /><circle cx="368.8" cy="362.89" r="2.5" fill="rgba(0,0,0,0.35)" /><circle cx="358.8" cy="353.17" r="2.5" fill="rgba(0,0,0,0.35)" /><circle cx="363.8" cy="333.34000000000003" r="2.5" fill="rgba(0,0,0,0.35)" /><circle cx="383.8" cy="356.44" r="2.5" fill="rgba(0,0,0,0.35)" /><circle cx="368.8" cy="328.53000000000003" r="2.5" fill="rgba(0,0,0,0.35)" /><circle cx="353.8" cy="359.34000000000003" r="2.5" fill="rgba(0,0,0,0.35)" /><circle cx="368.8" cy="369.76" r="2.5" fill="rgba(0,0,0,0.35)" /><circle cx="378.8" cy="360.42" r="2.5" fill="rgba(0,0,0,0.35)" /><circle cx="358.8" cy="342.55" r="2.5" fill="rgba(0,0,0,0.35)" /><circle cx="388.8" cy="358.05" r="2.5" fill="rgba(0,0,0,0.35)" /><circle cx="363.8" cy="338.36" r="2.5" fill="rgba(0,0,0,0.35)" /><circle cx="373.8" cy="339.91" r="2.5" fill="rgba(0,0,0,0.35)" /><circle cx="368.8" cy="357.79" r="2.5" fill="rgba(0,0,0,0.35)" /><circle cx="363.8" cy="345.94" r="2.5" fill="rgba(0,0,0,0.35)" /><circle cx="378.8" cy="231.22" r="2.5" fill="rgba(0,0,0,0.35)" /><circle cx="343.8" cy="248.53" r="2.5" fill="rgba(0,0,0,0.35)" /><circle cx="358.8" cy="245.07" r="2.5" fill="rgba(0,0,0,0.35)" /><circle cx="348.8" cy="260.1" r="2.5" fill="rgba(0,0,0,0.35)" /><circle cx="368.8" cy="249.86" r="2.5" fill="rgba(0,0,0,0.35)" /><circle cx="353.8" cy="228.5" r="2.5" fill="rgba(0,0,0,0.35)" /><circle cx="373.8" cy="256.14" r="2.5" fill="rgba(0,0,0,0.35)" /><circle cx="368.8" cy="230.74" r="2.5" fill="rgba(0,0,0,0.35)" /><circle cx="353.8" cy="251.32" r="2.5" fill="rgba(0,0,0,0.35)" /><circle cx="373.8" cy="227.98000000000002" r="2.5" fill="rgba(0,0,0,0.35)" /><circle cx="388.8" cy="249.39000000000001" r="2.5" fill="rgba(0,0,0,0.35)" /><circle cx="368.8" cy="244.77" r="2.5" fill="rgba(0,0,0,0.35)" /><circle cx="378.8" cy="239.03" r="2.5" fill="rgba(0,0,0,0.35)" /><circle cx="353.8" cy="238.44" r="2.5" fill="rgba(0,0,0,0.35)" /><circle cx="363.8" cy="223.92000000000002" r="2.5" fill="rgba(0,0,0,0.35)" /><circle cx="378.8" cy="251.66" r="2.5" fill="rgba(0,0,0,0.35)" /><circle cx="353.8" cy="245.94" r="2.5" fill="rgba(0,0,0,0.35)" /><circle cx="343.8" cy="255.04" r="2.5" fill="rgba(0,0,0,0.35)" /><circle cx="383.8" cy="260.27" r="2.5" fill="rgba(0,0,0,0.35)" /><circle cx="373.8" cy="269.04" r="2.5" fill="rgba(0,0,0,0.35)" /><circle cx="348.8" cy="246.65" r="2.5" fill="rgba(0,0,0,0.35)" /><circle cx="378.8" cy="246.46" r="2.5" fill="rgba(0,0,0,0.35)" /><circle cx="373.8" cy="245.63" r="2.5" fill="rgba(0,0,0,0.35)" /><circle cx="363.8" cy="208.48000000000002" r="2.5" fill="rgba(0,0,0,0.35)" /><circle cx="353.8" cy="269.2" r="2.5" fill="rgba(0,0,0,0.35)" /><circle cx="363.8" cy="253.20000000000002" r="2.5" fill="rgba(0,0,0,0.35)" /><circle cx="358.8" cy="261.12" r="2.5" fill="rgba(0,0,0,0.35)" /><circle cx="363.8" cy="273.04" r="2.5" fill="rgba(0,0,0,0.35)" /><circle cx="338.8" cy="255.42000000000002" r="2.5" fill="rgba(0,0,0,0.35)" /><circle cx="383.8" cy="231.68" r="2.5" fill="rgba(0,0,0,0.35)" /><circle cx="358.8" cy="255.41" r="2.5" fill="rgba(0,0,0,0.35)" /><circle cx="373.8" cy="250.78" r="2.5" fill="rgba(0,0,0,0.35)" /><circle cx="383.8" cy="246.77" r="2.5" fill="rgba(0,0,0,0.35)" /><circle cx="358.8" cy="234.28" r="2.5" fill="rgba(0,0,0,0.35)" /><circle cx="363.8" cy="265.3" r="2.5" fill="rgba(0,0,0,0.35)" /><circle cx="343.8" cy="232.58" r="2.5" fill="rgba(0,0,0,0.35)" /><circle cx="348.8" cy="231.35" r="2.5" fill="rgba(0,0,0,0.35)" /><circle cx="358.8" cy="269" r="2.5" fill="rgba(0,0,0,0.35)" /><circle cx="348.8" cy="240.36" r="2.5" fill="rgba(0,0,0,0.35)" /><circle cx="373.8" cy="262.82" r="2.5" fill="rgba(0,0,0,0.35)" /><circle cx="363.8" cy="248.1" r="2.5" fill="rgba(0,0,0,0.35)" /><circle cx="363.8" cy="258.43" r="2.5" fill="rgba(0,0,0,0.35)" /><circle cx="363.8" cy="281.75" r="2.5" fill="rgba(0,0,0,0.35)" /><circle cx="358.8" cy="227.61" r="2.5" fill="rgba(0,0,0,0.35)" /><circle cx="348.8" cy="252.5" r="2.5" fill="rgba(0,0,0,0.35)" /><circle cx="368.8" cy="236.27" r="2.5" fill="rgba(0,0,0,0.35)" /><circle cx="368.8" cy="260.04" r="2.5" fill="rgba(0,0,0,0.35)" /><circle cx="358.8" cy="250.31" r="2.5" fill="rgba(0,0,0,0.35)" /><circle cx="363.8" cy="230.48000000000002" r="2.5" fill="rgba(0,0,0,0.35)" /><circle cx="383.8" cy="253.59" r="2.5" fill="rgba(0,0,0,0.35)" /><circle cx="368.8" cy="225.68" r="2.5" fill="rgba(0,0,0,0.35)" /><circle cx="353.8" cy="256.48" r="2.5" fill="rgba(0,0,0,0.35)" /><circle cx="368.8" cy="266.9" r="2.5" fill="rgba(0,0,0,0.35)" /><circle cx="378.8" cy="257.56" r="2.5" fill="rgba(0,0,0,0.35)" /><circle cx="358.8" cy="239.70000000000002" r="2.5" fill="rgba(0,0,0,0.35)" /><circle cx="388.8" cy="255.19" r="2.5" fill="rgba(0,0,0,0.35)" /><circle cx="363.8" cy="235.5" r="2.5" fill="rgba(0,0,0,0.35)" /><circle cx="373.8" cy="237.05" r="2.5" fill="rgba(0,0,0,0.35)" /><circle cx="368.8" cy="254.93" r="2.5" fill="rgba(0,0,0,0.35)" /><circle cx="363.8" cy="243.09" r="2.5" fill="rgba(0,0,0,0.35)" /><circle cx="593.8000000000001" cy="295.71" r="2.5" fill="rgba(0,0,0,0.35)" /><circle cx="556.3000000000001" cy="229.16" r="2.5" fill="rgba(0,0,0,0.35)" /><circle cx="563.8000000000001" cy="264.73" r="2.5" fill="rgba(0,0,0,0.35)" /><circle cx="566.3000000000001" cy="222.51" r="2.5" fill="rgba(0,0,0,0.35)" /><circle cx="573.8000000000001" cy="249.47" r="2.5" fill="rgba(0,0,0,0.35)" /><circle cx="541.3" cy="294.18" r="2.5" fill="rgba(0,0,0,0.35)" /><circle cx="531.3" cy="284.65000000000003" r="2.5" fill="rgba(0,0,0,0.35)" /><circle cx="568.8000000000001" cy="273.11" r="2.5" fill="rgba(0,0,0,0.35)" /><circle cx="558.8000000000001" cy="238.86" r="2.5" fill="rgba(0,0,0,0.35)" /><circle cx="598.8000000000001" cy="297.42" r="2.5" fill="rgba(0,0,0,0.35)" /><circle cx="536.3" cy="283.93" r="2.5" fill="rgba(0,0,0,0.35)" /><circle cx="548.8000000000001" cy="293.27" r="2.5" fill="rgba(0,0,0,0.35)" /><circle cx="563.8000000000001" cy="296.25" r="2.5" fill="rgba(0,0,0,0.35)" /><circle cx="573.8000000000001" cy="291.49" r="2.5" fill="rgba(0,0,0,0.35)" /><circle cx="521.3" cy="299.38" r="2.5" fill="rgba(0,0,0,0.35)" /><circle cx="543.8" cy="277.92" r="2.5" fill="rgba(0,0,0,0.35)" /><circle cx="558.8000000000001" cy="267.97" r="2.5" fill="rgba(0,0,0,0.35)" /><circle cx="558.8000000000001" cy="261.45" r="2.5" fill="rgba(0,0,0,0.35)" /><circle cx="553.8000000000001" cy="275.51" r="2.5" fill="rgba(0,0,0,0.35)" /><circle cx="541.3" cy="283.47" r="2.5" fill="rgba(0,0,0,0.35)" /><circle cx="566.3000000000001" cy="251.79" r="2.5" fill="rgba(0,0,0,0.35)" /><circle cx="578.8000000000001" cy="292.6" r="2.5" fill="rgba(0,0,0,0.35)" /><circle cx="588.8000000000001" cy="294.51" r="2.5" fill="rgba(0,0,0,0.35)" /><circle cx="618.8000000000001" cy="294.77" r="2.5" fill="rgba(0,0,0,0.35)" /><circle cx="563.8000000000001" cy="180.73" r="2.5" fill="rgba(0,0,0,0.35)" /><circle cx="561.3000000000001" cy="281.44" r="2.5" fill="rgba(0,0,0,0.35)" /><circle cx="563.8000000000001" cy="246.89000000000001" r="2.5" fill="rgba(0,0,0,0.35)" /><circle cx="563.8000000000001" cy="218.14000000000001" r="2.5" fill="rgba(0,0,0,0.35)" /><circle cx="553.8000000000001" cy="296.82" r="2.5" fill="rgba(0,0,0,0.35)" /><circle cx="563.8000000000001" cy="275.51" r="2.5" fill="rgba(0,0,0,0.35)" /><circle cx="568.8000000000001" cy="102.5" r="2.5" fill="rgba(0,0,0,0.35)" /><circle cx="568.8000000000001" cy="226.9" r="2.5" fill="rgba(0,0,0,0.35)" /><circle cx="601.3000000000001" cy="287.22" r="2.5" fill="rgba(0,0,0,0.35)" /><circle cx="573.8000000000001" cy="239.73000000000002" r="2.5" fill="rgba(0,0,0,0.35)" /><circle cx="531.3" cy="296.98" r="2.5" fill="rgba(0,0,0,0.35)" /><circle cx="613.8000000000001" cy="294.76" r="2.5" fill="rgba(0,0,0,0.35)" /><circle cx="556.3000000000001" cy="287.44" r="2.5" fill="rgba(0,0,0,0.35)" /><circle cx="583.8000000000001" cy="288.68" r="2.5" fill="rgba(0,0,0,0.35)" /><circle cx="558.8000000000001" cy="207.77" r="2.5" fill="rgba(0,0,0,0.35)" /><circle cx="513.8" cy="294.76" r="2.5" fill="rgba(0,0,0,0.35)" /><circle cx="566.3000000000001" cy="279.96" r="2.5" fill="rgba(0,0,0,0.35)" /><circle cx="561.3000000000001" cy="300.79" r="2.5" fill="rgba(0,0,0,0.35)" /><circle cx="623.8000000000001" cy="295.76" r="2.5" fill="rgba(0,0,0,0.35)" /><circle cx="568.8000000000001" cy="237.98000000000002" r="2.5" fill="rgba(0,0,0,0.35)" /><circle cx="548.8000000000001" cy="288.07" r="2.5" fill="rgba(0,0,0,0.35)" /><circle cx="561.3000000000001" cy="225.68" r="2.5" fill="rgba(0,0,0,0.35)" /><circle cx="563.8000000000001" cy="235.71" r="2.5" fill="rgba(0,0,0,0.35)" /><circle cx="563.8000000000001" cy="270.15" r="2.5" fill="rgba(0,0,0,0.35)" /><circle cx="616.3000000000001" cy="300.59000000000003" r="2.5" fill="rgba(0,0,0,0.35)" /><circle cx="558.8000000000001" cy="248.70000000000002" r="2.5" fill="rgba(0,0,0,0.35)" /><circle cx="553.8000000000001" cy="269.45" r="2.5" fill="rgba(0,0,0,0.35)" /><circle cx="528.8" cy="292.65000000000003" r="2.5" fill="rgba(0,0,0,0.35)" /><circle cx="518.8" cy="294.63" r="2.5" fill="rgba(0,0,0,0.35)" /><circle cx="583.8000000000001" cy="293.97" r="2.5" fill="rgba(0,0,0,0.35)" /><circle cx="553.8000000000001" cy="291.8" r="2.5" fill="rgba(0,0,0,0.35)" /><circle cx="536.3" cy="296.87" r="2.5" fill="rgba(0,0,0,0.35)" /><circle cx="556.3000000000001" cy="282.23" r="2.5" fill="rgba(0,0,0,0.35)" /><circle cx="568.8000000000001" cy="295.01" r="2.5" fill="rgba(0,0,0,0.35)" /><circle cx="591.3000000000001" cy="283.69" r="2.5" fill="rgba(0,0,0,0.35)" /><circle cx="561.3000000000001" cy="286.59000000000003" r="2.5" fill="rgba(0,0,0,0.35)" /><circle cx="568.8000000000001" cy="266.52" r="2.5" fill="rgba(0,0,0,0.35)" /><circle cx="546.3000000000001" cy="283.3" r="2.5" fill="rgba(0,0,0,0.35)" /><circle cx="611.3000000000001" cy="299.42" r="2.5" fill="rgba(0,0,0,0.35)" /><circle cx="571.3000000000001" cy="287.07" r="2.5" fill="rgba(0,0,0,0.35)" /><circle cx="526.3" cy="297.58" r="2.5" fill="rgba(0,0,0,0.35)" /><circle cx="566.3000000000001" cy="290.68" r="2.5" fill="rgba(0,0,0,0.35)" /><circle cx="558.8000000000001" cy="296.27" r="2.5" fill="rgba(0,0,0,0.35)" /><circle cx="553.8000000000001" cy="261.71" r="2.5" fill="rgba(0,0,0,0.35)" /><circle cx="548.8000000000001" cy="255.34" r="2.5" fill="rgba(0,0,0,0.35)" /><circle cx="543.8" cy="299.15000000000003" r="2.5" fill="rgba(0,0,0,0.35)" /><circle cx="568.8000000000001" cy="260.24" r="2.5" fill="rgba(0,0,0,0.35)" /><circle cx="558.8000000000001" cy="273.32" r="2.5" fill="rgba(0,0,0,0.35)" /><circle cx="583.8000000000001" cy="299.07" r="2.5" fill="rgba(0,0,0,0.35)" /><circle cx="553.8000000000001" cy="251.04" r="2.5" fill="rgba(0,0,0,0.35)" /><circle cx="563.8000000000001" cy="143.18" r="2.5" fill="rgba(0,0,0,0.35)" /><circle cx="548.8000000000001" cy="298.69" r="2.5" fill="rgba(0,0,0,0.35)" /><circle cx="563.8000000000001" cy="98.49000000000001" r="2.5" fill="rgba(0,0,0,0.35)" /><circle cx="523.8" cy="293.04" r="2.5" fill="rgba(0,0,0,0.35)" /><circle cx="596.3000000000001" cy="284.62" r="2.5" fill="rgba(0,0,0,0.35)" /><circle cx="603.8000000000001" cy="299.21" r="2.5" fill="rgba(0,0,0,0.35)" /><circle cx="588.8000000000001" cy="299.86" r="2.5" fill="rgba(0,0,0,0.35)" /><circle cx="578.8000000000001" cy="276.45" r="2.5" fill="rgba(0,0,0,0.35)" /><circle cx="563.8000000000001" cy="230.22" r="2.5" fill="rgba(0,0,0,0.35)" /><circle cx="576.3000000000001" cy="283.03000000000003" r="2.5" fill="rgba(0,0,0,0.35)" /><circle cx="578.8000000000001" cy="262" r="2.5" fill="rgba(0,0,0,0.35)" /><circle cx="538.8" cy="289.7" r="2.5" fill="rgba(0,0,0,0.35)" /><circle cx="563.8000000000001" cy="259.15" r="2.5" fill="rgba(0,0,0,0.35)" /><circle cx="578.8000000000001" cy="298.67" r="2.5" fill="rgba(0,0,0,0.35)" /><circle cx="548.8000000000001" cy="276.84000000000003" r="2.5" fill="rgba(0,0,0,0.35)" /><circle cx="561.3000000000001" cy="253.47" r="2.5" fill="rgba(0,0,0,0.35)" /><circle cx="566.3000000000001" cy="285.36" r="2.5" fill="rgba(0,0,0,0.35)" /><circle cx="568.8000000000001" cy="300.37" r="2.5" fill="rgba(0,0,0,0.35)" /><circle cx="581.3000000000001" cy="283.19" r="2.5" fill="rgba(0,0,0,0.35)" /><circle cx="568.8000000000001" cy="246.93" r="2.5" fill="rgba(0,0,0,0.35)" /><circle cx="578.8000000000001" cy="287.52" r="2.5" fill="rgba(0,0,0,0.35)" /><circle cx="561.3000000000001" cy="291.63" r="2.5" fill="rgba(0,0,0,0.35)" /><circle cx="573.8000000000001" cy="296.77" r="2.5" fill="rgba(0,0,0,0.35)" /><circle cx="583.8000000000001" cy="276.85" r="2.5" fill="rgba(0,0,0,0.35)" /><circle cx="598.8000000000001" cy="292.19" r="2.5" fill="rgba(0,0,0,0.35)" /><circle cx="516.3" cy="299.98" r="2.5" fill="rgba(0,0,0,0.35)" /><circle cx="571.3000000000001" cy="281.62" r="2.5" fill="rgba(0,0,0,0.35)" /><circle cx="568.8000000000001" cy="207.18" r="2.5" fill="rgba(0,0,0,0.35)" /><circle cx="573.8000000000001" cy="261.51" r="2.5" fill="rgba(0,0,0,0.35)" /><circle cx="593.8000000000001" cy="289.91" r="2.5" fill="rgba(0,0,0,0.35)" /><circle cx="563.8000000000001" cy="204.22" r="2.5" fill="rgba(0,0,0,0.35)" /><circle cx="548.8000000000001" cy="270.75" r="2.5" fill="rgba(0,0,0,0.35)" /><circle cx="571.3000000000001" cy="254.81" r="2.5" fill="rgba(0,0,0,0.35)" /><circle cx="533.8" cy="292.14" r="2.5" fill="rgba(0,0,0,0.35)" /><circle cx="508.8" cy="294.88" r="2.5" fill="rgba(0,0,0,0.35)" /><circle cx="608.8000000000001" cy="294.55" r="2.5" fill="rgba(0,0,0,0.35)" /><circle cx="603.8000000000001" cy="292.73" r="2.5" fill="rgba(0,0,0,0.35)" /><circle cx="578.8000000000001" cy="270.27" r="2.5" fill="rgba(0,0,0,0.35)" /><circle cx="588.8000000000001" cy="289.49" r="2.5" fill="rgba(0,0,0,0.35)" /><circle cx="586.3000000000001" cy="283.39" r="2.5" fill="rgba(0,0,0,0.35)" /><circle cx="578.8000000000001" cy="251.98000000000002" r="2.5" fill="rgba(0,0,0,0.35)" /><circle cx="573.8000000000001" cy="273.59000000000003" r="2.5" fill="rgba(0,0,0,0.35)" /><circle cx="551.3000000000001" cy="283.15000000000003" r="2.5" fill="rgba(0,0,0,0.35)" /><circle cx="573.8000000000001" cy="268.32" r="2.5" fill="rgba(0,0,0,0.35)" /><circle cx="526.3" cy="287.54" r="2.5" fill="rgba(0,0,0,0.35)" /><circle cx="543.8" cy="289.28000000000003" r="2.5" fill="rgba(0,0,0,0.35)" /></g></svg>