<svg xmlns="http://www.w3.org/2000/svg" width="686.2" height="545" font-family="DejaVu Sans, Liberation Sans, Arial, sans-serif" fill="black"><rect width="100%" height="100%" fill="white" /><line x1="72.2" y1="494" x2="672.2" y2="494" stroke="#000000" stroke-width="1" /><line x1="72.2" y1="44" x2="72.2" y2="494" stroke="#000000" stroke-width="1" /><line x1="72.2" y1="301.14" x2="672.2" y2="301.14" stroke="#cccccc" stroke-width="1" /><line x1="72.2" y1="172.57" x2="672.2" y2="172.57" stroke="#cccccc" stroke-width="1" /><line x1="72.2" y1="44" x2="672.2" y2="44" stroke="#cccccc" stroke-width="1" /><text x="172.20000000000002" y="511" font-size="12" text-anchor="middle">Normal</text><line x1="172.20000000000002" y1="494" x2="172.20000000000002" y2="499" stroke="#000000" stroke-width="1" /><text x="372.2" y="511" font-size="12" text-anchor="middle">Bimodal</text><line x1="372.2" y1="494" x2="372.2" y2="499" stroke="#000000" stroke-width="1" /><text x="572.2" y="511" font-size="12" text-anchor="middle">Skewed</text><line x1="572.2" y1="494" x2="572.2" y2="499" stroke="#000000" stroke-width="1" /><line x1="67.2" y1="429.71000000000004" x2="72.2" y2="429.71000000000004" stroke="#000000" stroke-width="1" /><text x="64.2" y="433.91" font-size="12" text-anchor="end">-5</text><line x1="67.2" y1="301.14" x2="72.2" y2="301.14" stroke="#000000" stroke-width="1" /><text x="64.2" y="305.34000000000003" font-size="12" text-anchor="end">0</text><line x1="67.2" y1="172.57" x2="72.2" y2="172.57" stroke="#000000" stroke-width="1" /><text x="64.2" y="176.77" font-size="12" text-anchor="end">5</text><line x1="67.2" y1="44" x2="72.2" y2="44" stroke="#000000" stroke-width="1" /><text x="64.2" y="48.2" font-size="12" text-anchor="end">10</text><text x="7" y="272.5" font-size="14" text-anchor="middle" transform="rotate(-90,7,272.5)">Value</text><text x="372.2" y="22" font-size="18" text-anchor="middle">Violin + Swarm Overlay</text><path d="M 172.19 387.11 L 172.19 386.19 L 172.18 385.26 L 172.18 384.34000000000003 L 172.17000000000002 383.42 L 172.15 382.49 L 172.14000000000001 381.57 L 172.12 380.65000000000003 L 172.09 379.72 L 172.06 378.8 L 172.03 377.88 L 171.98 376.95 L 171.93 376.03000000000003 L 171.88 375.11 L 171.81 374.18 L 171.74 373.26 L 171.67000000000002 372.34000000000003 L 171.59 371.41 L 171.5 370.49 L 171.41 369.57 L 171.31 368.64 L 171.21 367.72 L 171.1 366.8 L 170.99 365.87 L 170.87 364.95 L 170.75 364.03000000000003 L 170.61 363.1 L 170.47 362.18 L 170.31 361.26 L 170.14000000000001 360.33 L 169.96 359.41 L 169.78 358.49 L 169.58 357.56 L 169.37 356.64 L 169.17000000000002 355.72 L 168.97 354.79 L 168.77 353.87 L 168.59 352.95 L 168.42000000000002 352.02 L 168.28 351.1 L 168.15 350.18 L 168.04 349.25 L 167.95000000000002 348.33 L 167.88 347.41 L 167.83 346.48 L 167.77 345.56 L 167.71 344.64 L 167.64000000000001 343.71 L 167.55 342.79 L 167.42000000000002 341.87 L 167.24 340.94 L 167.01 340.02 L 166.71 339.1 L 166.33 338.17 L 165.87 337.25 L 165.32 336.33 L 164.67000000000002 335.40000000000003 L 163.92000000000002 334.48 L 163.08 333.56 L 162.16 332.63 L 161.15 331.71 L 160.08 330.79 L 158.96 329.86 L 157.81 328.94 L 156.66 328.02 L 155.52 327.09000000000003 L 154.42000000000002 326.17 L 153.37 325.25 L 152.39000000000001 324.33 L 151.5 323.40000000000003 L 150.71 322.48 L 150.0 321.56 L 149.4 320.63 L 148.88 319.71 L 148.44 318.79 L 148.06 317.86 L 147.73 316.94 L 147.44 316.02 L 147.16 315.09000000000003 L 146.88 314.17 L 146.59 313.25 L 146.28 312.32 L 145.95000000000002 311.40000000000003 L 145.59 310.48 L 145.21 309.55 L 144.81 308.63 L 144.41 307.71 L 144.0 306.78000000000003 L 143.61 305.86 L 143.25 304.94 L 142.92000000000002 304.01 L 142.64000000000001 303.09000000000003 L 142.42000000000002 302.17 L 142.27 301.24 L 142.20000000000002 300.32 L 142.22 299.40000000000003 L 142.32 298.47 L 142.53 297.55 L 142.83 296.63 L 143.24 295.7 L 143.74 294.78000000000003 L 144.35 293.86 L 145.04 292.93 L 145.82 292.01 L 146.68 291.09000000000003 L 147.6 290.16 L 148.56 289.24 L 149.55 288.32 L 150.56 287.39 L 151.55 286.47 L 152.52 285.55 L 153.45000000000002 284.62 L 154.32 283.7 L 155.14000000000001 282.78000000000003 L 155.88 281.85 L 156.56 280.93 L 157.17000000000002 280.01 L 157.72 279.08 L 158.22 278.16 L 158.67000000000002 277.24 L 159.09 276.31 L 159.49 275.39 L 159.88 274.47 L 160.26 273.54 L 160.64000000000001 272.62 L 161.02 271.7 L 161.4 270.77 L 161.79 269.85 L 162.19 268.93 L 162.58 268.0 L 162.97 267.08 L 163.35 266.16 L 163.72 265.23 L 164.08 264.31 L 164.44 263.39 L 164.78 262.46 L 165.12 261.54 L 165.45000000000002 260.62 L 165.78 259.69 L 166.11 258.77 L 166.44 257.85 L 166.78 256.92 L 167.13 256.0 L 167.48 255.08 L 167.84 254.15 L 168.20000000000002 253.23000000000002 L 168.56 252.31 L 168.92000000000002 251.38 L 169.27 250.46 L 169.61 249.54 L 169.93 248.61 L 170.23 247.69 L 170.51 246.77 L 170.76 245.84 L 170.98 244.92000000000002 L 171.18 244.0 L 171.35 243.07 L 171.49 242.15 L 171.6 241.23000000000002 L 171.69 240.3 L 171.76 239.38 L 171.8 238.46 L 171.82 237.53 L 171.83 236.61 L 171.82 235.69 L 171.79 234.77 L 171.76 233.84 L 171.72 232.92000000000002 L 171.67000000000002 232.0 L 171.63 231.07 L 171.58 230.15 L 171.54 229.23000000000002 L 171.5 228.3 L 171.47 227.38 L 171.45000000000002 226.46 L 171.44 225.53 L 171.45000000000002 224.61 L 171.46 223.69 L 171.49 222.76 L 171.53 221.84 L 171.57 220.92000000000002 L 171.62 219.99 L 171.68 219.07 L 171.73 218.15 L 171.79 217.22 L 171.85 216.3 L 171.9 215.38 L 171.95000000000002 214.45000000000002 L 171.99 213.53 L 172.03 212.61 L 172.07 211.68 L 172.1 210.76 L 172.12 209.84 L 172.14000000000001 208.91 L 172.15 207.99 L 172.17000000000002 207.07 L 172.18 206.14000000000001 L 172.18 205.22 L 172.19 204.3 L 172.19 203.37 L 172.21 203.37 L 172.21 204.3 L 172.22 205.22 L 172.22 206.14000000000001 L 172.23 207.07 L 172.25 207.99 L 172.26 208.91 L 172.28 209.84 L 172.3 210.76 L 172.33 211.68 L 172.37 212.61 L 172.41 213.53 L 172.45000000000002 214.45000000000002 L 172.5 215.38 L 172.55 216.3 L 172.61 217.22 L 172.67000000000002 218.15 L 172.72 219.07 L 172.78 219.99 L 172.83 220.92000000000002 L 172.87 221.84 L 172.91 222.76 L 172.94 223.69 L 172.95000000000002 224.61 L 172.96 225.53 L 172.95000000000002 226.46 L 172.93 227.38 L 172.9 228.3 L 172.86 229.23000000000002 L 172.82 230.15 L 172.77 231.07 L 172.73 232.0 L 172.68 232.92000000000002 L 172.64000000000001 233.84 L 172.61 234.77 L 172.58 235.69 L 172.57 236.61 L 172.58 237.53 L 172.6 238.46 L 172.64000000000001 239.38 L 172.71 240.3 L 172.8 241.23000000000002 L 172.91 242.15 L 173.05 243.07 L 173.22 244.0 L 173.42000000000002 244.92000000000002 L 173.64000000000001 245.84 L 173.89000000000001 246.77 L 174.17000000000002 247.69 L 174.47 248.61 L 174.79 249.54 L 175.13 250.46 L 175.48 251.38 L 175.84 252.31 L 176.20000000000002 253.23000000000002 L 176.56 254.15 L 176.92000000000002 255.08 L 177.27 256.0 L 177.62 256.92 L 177.96 257.85 L 178.29 258.77 L 178.62 259.69 L 178.95000000000002 260.62 L 179.28 261.54 L 179.62 262.46 L 179.96 263.39 L 180.32 264.31 L 180.68 265.23 L 181.05 266.16 L 181.43 267.08 L 181.82 268.0 L 182.21 268.93 L 182.61 269.85 L 183.0 270.77 L 183.38 271.7 L 183.76 272.62 L 184.14000000000001 273.54 L 184.52 274.47 L 184.91 275.39 L 185.31 276.31 L 185.73 277.24 L 186.18 278.16 L 186.68 279.08 L 187.23 280.01 L 187.84 280.93 L 188.52 281.85 L 189.26 282.78000000000003 L 190.08 283.7 L 190.95000000000002 284.62 L 191.88 285.55 L 192.85 286.47 L 193.84 287.39 L 194.85 288.32 L 195.84 289.24 L 196.8 290.16 L 197.72 291.09000000000003 L 198.58 292.01 L 199.36 292.93 L 200.05 293.86 L 200.66 294.78000000000003 L 201.16 295.7 L 201.57 296.63 L 201.87 297.55 L 202.08 298.47 L 202.18 299.40000000000003 L 202.20000000000002 300.32 L 202.13 301.24 L 201.98000000000002 302.17 L 201.76 303.09000000000003 L 201.48000000000002 304.01 L 201.15 304.94 L 200.79 305.86 L 200.4 306.78000000000003 L 199.99 307.71 L 199.59 308.63 L 199.19 309.55 L 198.81 310.48 L 198.45000000000002 311.40000000000003 L 198.12 312.32 L 197.81 313.25 L 197.52 314.17 L 197.24 315.09000000000003 L 196.96 316.02 L 196.67000000000002 316.94 L 196.34 317.86 L 195.96 318.79 L 195.52 319.71 L 195.0 320.63 L 194.4 321.56 L 193.69 322.48 L 192.9 323.40000000000003 L 192.01 324.33 L 191.03 325.25 L 189.98 326.17 L 188.88 327.09000000000003 L 187.74 328.02 L 186.59 328.94 L 185.44 329.86 L 184.32 330.79 L 183.25 331.71 L 182.24 332.63 L 181.32 333.56 L 180.48 334.48 L 179.73 335.40000000000003 L 179.08 336.33 L 178.53 337.25 L 178.07 338.17 L 177.69 339.1 L 177.39000000000001 340.02 L 177.16 340.94 L 176.98 341.87 L 176.85 342.79 L 176.76 343.71 L 176.69 344.64 L 176.63 345.56 L 176.57 346.48 L 176.52 347.41 L 176.45000000000002 348.33 L 176.36 349.25 L 176.25 350.18 L 176.12 351.1 L 175.98 352.02 L 175.81 352.95 L 175.63 353.87 L 175.43 354.79 L 175.23 355.72 L 175.03 356.64 L 174.82 357.56 L 174.62 358.49 L 174.44 359.41 L 174.26 360.33 L 174.09 361.26 L 173.93 362.18 L 173.79 363.1 L 173.65 364.03000000000003 L 173.53 364.95 L 173.41 365.87 L 173.3 366.8 L 173.19 367.72 L 173.09 368.64 L 172.99 369.57 L 172.9 370.49 L 172.81 371.41 L 172.73 372.34000000000003 L 172.66 373.26 L 172.59 374.18 L 172.52 375.11 L 172.47 376.03000000000003 L 172.42000000000002 376.95 L 172.37 377.88 L 172.34 378.8 L 172.31 379.72 L 172.28 380.65000000000003 L 172.26 381.57 L 172.25 382.49 L 172.23 383.42 L 172.22 384.34000000000003 L 172.22 385.26 L 172.21 386.19 L 172.21 387.11 Z" stroke="#000000" stroke-width="0.5" fill="#4682b4" /><path d="M 372.19 440.08 L 372.19 438.63 L 372.18 437.19 L 372.17 435.75 L 372.17 434.31 L 372.16 432.86 L 372.15000000000003 431.42 L 372.13 429.98 L 372.11 428.54 L 372.09000000000003 427.09000000000003 L 372.07 425.65000000000003 L 372.03000000000003 424.21000000000004 L 372.0 422.77 L 371.95 421.32 L 371.90000000000003 419.88 L 371.83 418.44 L 371.75 417.0 L 371.66 415.55 L 371.56 414.11 L 371.43 412.67 L 371.29 411.23 L 371.12 409.78000000000003 L 370.93 408.34000000000003 L 370.71 406.90000000000003 L 370.46 405.46000000000004 L 370.18 404.01 L 369.86 402.57 L 369.5 401.13 L 369.1 399.69 L 368.65000000000003 398.24 L 368.16 396.8 L 367.62 395.36 L 367.02 393.92 L 366.38 392.47 L 365.68 391.03000000000003 L 364.92 389.59000000000003 L 364.12 388.15000000000003 L 363.26 386.7 L 362.35 385.26 L 361.39 383.82 L 360.38 382.37 L 359.34000000000003 380.93 L 358.26 379.49 L 357.15000000000003 378.05 L 356.02 376.6 L 354.88 375.16 L 353.73 373.72 L 352.58 372.28000000000003 L 351.45 370.83 L 350.34000000000003 369.39 L 349.26 367.95 L 348.23 366.51 L 347.25 365.06 L 346.33 363.62 L 345.49 362.18 L 344.73 360.74 L 344.05 359.29 L 343.48 357.85 L 343.0 356.41 L 342.64 354.97 L 342.38 353.52 L 342.23 352.08 L 342.2 350.64 L 342.29 349.2 L 342.49 347.75 L 342.79 346.31 L 343.2 344.87 L 343.72 343.43 L 344.33 341.98 L 345.02 340.54 L 345.8 339.1 L 346.65000000000003 337.66 L 347.56 336.21 L 348.53000000000003 334.77 L 349.55 333.33 L 350.59000000000003 331.89 L 351.67 330.44 L 352.76 329.0 L 353.86 327.56 L 354.95 326.12 L 356.03000000000003 324.67 L 357.1 323.23 L 358.14 321.79 L 359.14 320.34000000000003 L 360.11 318.90000000000003 L 361.03000000000003 317.46 L 361.89 316.02 L 362.7 314.57 L 363.46 313.13 L 364.14 311.69 L 364.76 310.25 L 365.31 308.8 L 365.79 307.36 L 366.19 305.92 L 366.52 304.48 L 366.77 303.03000000000003 L 366.95 301.59000000000003 L 367.05 300.15000000000003 L 367.06 298.71 L 367.0 297.26 L 366.86 295.82 L 366.65000000000003 294.38 L 366.35 292.94 L 365.97 291.49 L 365.52 290.05 L 364.99 288.61 L 364.39 287.17 L 363.72 285.72 L 362.98 284.28000000000003 L 362.17 282.84000000000003 L 361.3 281.40000000000003 L 360.37 279.95 L 359.39 278.51 L 358.37 277.07 L 357.31 275.63 L 356.22 274.18 L 355.1 272.74 L 353.98 271.3 L 352.85 269.86 L 351.72 268.41 L 350.62 266.97 L 349.54 265.53000000000003 L 348.5 264.09000000000003 L 347.51 262.64 L 346.58 261.2 L 345.72 259.76 L 344.94 258.32 L 344.24 256.87 L 343.63 255.43 L 343.13 253.99 L 342.73 252.54 L 342.44 251.1 L 342.26 249.66 L 342.2 248.22 L 342.25 246.77 L 342.41 245.33 L 342.69 243.89000000000001 L 343.07 242.45000000000002 L 343.55 241.0 L 344.14 239.56 L 344.81 238.12 L 345.57 236.68 L 346.40000000000003 235.23000000000002 L 347.3 233.79 L 348.25 232.35 L 349.26 230.91 L 350.3 229.46 L 351.38 228.02 L 352.47 226.58 L 353.58 225.14000000000001 L 354.7 223.69 L 355.8 222.25 L 356.90000000000003 220.81 L 357.97 219.37 L 359.02 217.92000000000002 L 360.04 216.48000000000002 L 361.02 215.04 L 361.97 213.6 L 362.86 212.15 L 363.72 210.71 L 364.52 209.27 L 365.27 207.83 L 365.98 206.38 L 366.63 204.94 L 367.23 203.5 L 367.78000000000003 202.06 L 368.29 200.61 L 368.75 199.17000000000002 L 369.17 197.73000000000002 L 369.55 196.29 L 369.89 194.84 L 370.19 193.4 L 370.46 191.96 L 370.7 190.51 L 370.91 189.07 L 371.09000000000003 187.63 L 371.25 186.19 L 371.40000000000003 184.74 L 371.52 183.3 L 371.62 181.86 L 371.72 180.42000000000002 L 371.79 178.97 L 371.86 177.53 L 371.92 176.09 L 371.97 174.65 L 372.01 173.20000000000002 L 372.04 171.76 L 372.07 170.32 L 372.09000000000003 168.88 L 372.11 167.43 L 372.13 165.99 L 372.14 164.55 L 372.15000000000003 163.11 L 372.16 161.66 L 372.17 160.22 L 372.18 158.78 L 372.18 157.34 L 372.19 155.89000000000001 L 372.19 154.45000000000002 L 372.19 153.01 L 372.21 153.01 L 372.21 154.45000000000002 L 372.21 155.89000000000001 L 372.22 157.34 L 372.22 158.78 L 372.23 160.22 L 372.24 161.66 L 372.25 163.11 L 372.26 164.55 L 372.27 165.99 L 372.29 167.43 L 372.31 168.88 L 372.33 170.32 L 372.36 171.76 L 372.39 173.20000000000002 L 372.43 174.65 L 372.48 176.09 L 372.54 177.53 L 372.61 178.97 L 372.68 180.42000000000002 L 372.78000000000003 181.86 L 372.88 183.3 L 373.0 184.74 L 373.15000000000003 186.19 L 373.31 187.63 L 373.49 189.07 L 373.7 190.51 L 373.94 191.96 L 374.21 193.4 L 374.51 194.84 L 374.85 196.29 L 375.23 197.73000000000002 L 375.65000000000003 199.17000000000002 L 376.11 200.61 L 376.62 202.06 L 377.17 203.5 L 377.77 204.94 L 378.42 206.38 L 379.13 207.83 L 379.88 209.27 L 380.68 210.71 L 381.54 212.15 L 382.43 213.6 L 383.38 215.04 L 384.36 216.48000000000002 L 385.38 217.92000000000002 L 386.43 219.37 L 387.5 220.81 L 388.6 222.25 L 389.7 223.69 L 390.82 225.14000000000001 L 391.93 226.58 L 393.02 228.02 L 394.1 229.46 L 395.14 230.91 L 396.15000000000003 232.35 L 397.1 233.79 L 398.0 235.23000000000002 L 398.83 236.68 L 399.59000000000003 238.12 L 400.26 239.56 L 400.85 241.0 L 401.33 242.45000000000002 L 401.71000000000004 243.89000000000001 L 401.99 245.33 L 402.15000000000003 246.77 L 402.2 248.22 L 402.14 249.66 L 401.96000000000004 251.1 L 401.67 252.54 L 401.27 253.99 L 400.77 255.43 L 400.16 256.87 L 399.46000000000004 258.32 L 398.68 259.76 L 397.82 261.2 L 396.89 262.64 L 395.90000000000003 264.09000000000003 L 394.86 265.53000000000003 L 393.78000000000003 266.97 L 392.68 268.41 L 391.55 269.86 L 390.42 271.3 L 389.3 272.74 L 388.18 274.18 L 387.09000000000003 275.63 L 386.03000000000003 277.07 L 385.01 278.51 L 384.03000000000003 279.95 L 383.1 281.40000000000003 L 382.23 282.84000000000003 L 381.42 284.28000000000003 L 380.68 285.72 L 380.01 287.17 L 379.41 288.61 L 378.88 290.05 L 378.43 291.49 L 378.05 292.94 L 377.75 294.38 L 377.54 295.82 L 377.40000000000003 297.26 L 377.34000000000003 298.71 L 377.35 300.15000000000003 L 377.45 301.59000000000003 L 377.63 303.03000000000003 L 377.88 304.48 L 378.21 305.92 L 378.61 307.36 L 379.09000000000003 308.8 L 379.64 310.25 L 380.26 311.69 L 380.94 313.13 L 381.7 314.57 L 382.51 316.02 L 383.37 317.46 L 384.29 318.90000000000003 L 385.26 320.34000000000003 L 386.26 321.79 L 387.3 323.23 L 388.37 324.67 L 389.45 326.12 L 390.54 327.56 L 391.64 329.0 L 392.73 330.44 L 393.81 331.89 L 394.85 333.33 L 395.87 334.77 L 396.84000000000003 336.21 L 397.75 337.66 L 398.6 339.1 L 399.38 340.54 L 400.07 341.98 L 400.68 343.43 L 401.2 344.87 L 401.61 346.31 L 401.91 347.75 L 402.11 349.2 L 402.2 350.64 L 402.17 352.08 L 402.02 353.52 L 401.76 354.97 L 401.40000000000003 356.41 L 400.92 357.85 L 400.35 359.29 L 399.67 360.74 L 398.91 362.18 L 398.07 363.62 L 397.15000000000003 365.06 L 396.17 366.51 L 395.14 367.95 L 394.06 369.39 L 392.95 370.83 L 391.82 372.28000000000003 L 390.67 373.72 L 389.52 375.16 L 388.38 376.6 L 387.25 378.05 L 386.14 379.49 L 385.06 380.93 L 384.02 382.37 L 383.01 383.82 L 382.05 385.26 L 381.14 386.7 L 380.28000000000003 388.15000000000003 L 379.48 389.59000000000003 L 378.72 391.03000000000003 L 378.02 392.47 L 377.38 393.92 L 376.78000000000003 395.36 L 376.24 396.8 L 375.75 398.24 L 375.3 399.69 L 374.90000000000003 401.13 L 374.54 402.57 L 374.22 404.01 L 373.94 405.46000000000004 L 373.69 406.90000000000003 L 373.47 408.34000000000003 L 373.28000000000003 409.78000000000003 L 373.11 411.23 L 372.97 412.67 L 372.84000000000003 414.11 L 372.74 415.55 L 372.65000000000003 417.0 L 372.57 418.44 L 372.5 419.88 L 372.45 421.32 L 372.40000000000003 422.77 L 372.37 424.21000000000004 L 372.33 425.65000000000003 L 372.31 427.09000000000003 L 372.29 428.54 L 372.27 429.98 L 372.25 431.42 L 372.24 432.86 L 372.23 434.31 L 372.23 435.75 L 372.22 437.19 L 372.21 438.63 L 372.21 440.08 Z" stroke="#000000" stroke-width="0.5" fill="#4682b4" /><path d="M 572.14 326.13 L 572.1 324.86 L 572.03 323.59000000000003 L 571.94 322.32 L 571.8100000000001 321.05 L 571.62 319.77 L 571.35 318.5 L 570.99 317.23 L 570.5 315.96 L 569.87 314.69 L 569.07 313.42 L 568.08 312.15000000000003 L 566.88 310.88 L 565.45 309.6 L 563.8100000000001 308.33 L 561.96 307.06 L 559.9300000000001 305.79 L 557.76 304.52 L 555.51 303.25 L 553.24 301.98 L 551.02 300.71 L 548.9300000000001 299.43 L 547.03 298.16 L 545.4 296.89 L 544.07 295.62 L 543.08 294.35 L 542.46 293.08 L 542.2 291.81 L 542.28 290.54 L 542.69 289.26 L 543.36 287.99 L 544.27 286.72 L 545.36 285.45 L 546.58 284.18 L 547.88 282.91 L 549.22 281.64 L 550.5600000000001 280.37 L 551.86 279.09000000000003 L 553.11 277.82 L 554.29 276.55 L 555.38 275.28000000000003 L 556.38 274.01 L 557.29 272.74 L 558.11 271.47 L 558.85 270.2 L 559.5 268.92 L 560.09 267.65 L 560.6 266.38 L 561.07 265.11 L 561.48 263.84000000000003 L 561.85 262.57 L 562.19 261.3 L 562.49 260.03000000000003 L 562.78 258.75 L 563.0600000000001 257.48 L 563.32 256.21 L 563.59 254.94 L 563.86 253.67000000000002 L 564.14 252.4 L 564.4300000000001 251.13 L 564.73 249.86 L 565.04 248.58 L 565.35 247.31 L 565.66 246.04 L 565.96 244.77 L 566.25 243.5 L 566.52 242.23000000000002 L 566.76 240.96 L 566.98 239.69 L 567.1800000000001 238.41 L 567.35 237.14000000000001 L 567.5 235.87 L 567.63 234.6 L 567.75 233.33 L 567.86 232.06 L 567.98 230.79 L 568.1 229.52 L 568.22 228.24 L 568.36 226.97 L 568.5 225.70000000000002 L 568.65 224.43 L 568.82 223.16 L 568.98 221.89000000000001 L 569.14 220.62 L 569.3000000000001 219.35 L 569.45 218.07 L 569.58 216.8 L 569.7 215.53 L 569.8000000000001 214.26 L 569.89 212.99 L 569.97 211.72 L 570.04 210.45000000000002 L 570.12 209.18 L 570.2 207.9 L 570.28 206.63 L 570.39 205.36 L 570.5 204.09 L 570.63 202.82 L 570.76 201.55 L 570.9 200.28 L 571.04 199.01 L 571.1800000000001 197.73000000000002 L 571.3000000000001 196.46 L 571.41 195.19 L 571.51 193.92000000000002 L 571.58 192.65 L 571.63 191.38 L 571.67 190.11 L 571.6800000000001 188.83 L 571.69 187.56 L 571.69 186.29 L 571.6800000000001 185.02 L 571.67 183.75 L 571.66 182.48 L 571.66 181.21 L 571.67 179.94 L 571.69 178.66 L 571.72 177.39000000000001 L 571.75 176.12 L 571.79 174.85 L 571.84 173.58 L 571.88 172.31 L 571.9300000000001 171.04 L 571.97 169.77 L 572.01 168.49 L 572.0500000000001 167.22 L 572.07 165.95000000000002 L 572.09 164.68 L 572.11 163.41 L 572.11 162.14000000000001 L 572.11 160.87 L 572.1 159.6 L 572.08 158.32 L 572.0600000000001 157.05 L 572.02 155.78 L 571.99 154.51 L 571.94 153.24 L 571.9 151.97 L 571.85 150.70000000000002 L 571.8100000000001 149.43 L 571.77 148.15 L 571.73 146.88 L 571.71 145.61 L 571.69 144.34 L 571.6800000000001 143.07 L 571.69 141.8 L 571.71 140.53 L 571.74 139.26 L 571.77 137.98 L 571.8100000000001 136.71 L 571.86 135.44 L 571.91 134.17000000000002 L 571.95 132.9 L 572.0 131.63 L 572.03 130.36 L 572.07 129.09 L 572.09 127.81 L 572.11 126.54 L 572.13 125.27 L 572.14 124.0 L 572.13 122.73 L 572.13 121.46000000000001 L 572.11 120.19 L 572.09 118.92 L 572.0500000000001 117.64 L 572.01 116.37 L 571.95 115.10000000000001 L 571.89 113.83 L 571.82 112.56 L 571.74 111.29 L 571.65 110.02 L 571.5600000000001 108.75 L 571.47 107.47 L 571.39 106.2 L 571.32 104.93 L 571.26 103.66 L 571.22 102.39 L 571.2 101.12 L 571.2 99.85000000000001 L 571.22 98.58 L 571.26 97.3 L 571.32 96.03 L 571.39 94.76 L 571.47 93.49 L 571.5600000000001 92.22 L 571.65 90.95 L 571.74 89.68 L 571.82 88.41 L 571.89 87.13 L 571.96 85.86 L 572.01 84.59 L 572.0600000000001 83.32000000000001 L 572.09 82.05 L 572.12 80.78 L 572.15 79.51 L 572.16 78.24 L 572.17 76.96000000000001 L 572.1800000000001 75.69 L 572.19 74.42 L 572.19 73.15 L 572.21 73.15 L 572.21 74.42 L 572.22 75.69 L 572.23 76.96000000000001 L 572.24 78.24 L 572.25 79.51 L 572.28 80.78 L 572.3100000000001 82.05 L 572.34 83.32000000000001 L 572.39 84.59 L 572.44 85.86 L 572.51 87.13 L 572.58 88.41 L 572.66 89.68 L 572.75 90.95 L 572.84 92.22 L 572.9300000000001 93.49 L 573.01 94.76 L 573.08 96.03 L 573.14 97.3 L 573.1800000000001 98.58 L 573.2 99.85000000000001 L 573.2 101.12 L 573.1800000000001 102.39 L 573.14 103.66 L 573.08 104.93 L 573.01 106.2 L 572.9300000000001 107.47 L 572.84 108.75 L 572.75 110.02 L 572.66 111.29 L 572.58 112.56 L 572.51 113.83 L 572.45 115.10000000000001 L 572.39 116.37 L 572.35 117.64 L 572.3100000000001 118.92 L 572.29 120.19 L 572.27 121.46000000000001 L 572.27 122.73 L 572.26 124.0 L 572.27 125.27 L 572.29 126.54 L 572.3100000000001 127.81 L 572.33 129.09 L 572.37 130.36 L 572.4 131.63 L 572.45 132.9 L 572.49 134.17000000000002 L 572.54 135.44 L 572.59 136.71 L 572.63 137.98 L 572.66 139.26 L 572.69 140.53 L 572.71 141.8 L 572.72 143.07 L 572.71 144.34 L 572.69 145.61 L 572.67 146.88 L 572.63 148.15 L 572.59 149.43 L 572.5500000000001 150.70000000000002 L 572.5 151.97 L 572.46 153.24 L 572.41 154.51 L 572.38 155.78 L 572.34 157.05 L 572.32 158.32 L 572.3000000000001 159.6 L 572.29 160.87 L 572.29 162.14000000000001 L 572.29 163.41 L 572.3100000000001 164.68 L 572.33 165.95000000000002 L 572.35 167.22 L 572.39 168.49 L 572.4300000000001 169.77 L 572.47 171.04 L 572.52 172.31 L 572.5600000000001 173.58 L 572.61 174.85 L 572.65 176.12 L 572.6800000000001 177.39000000000001 L 572.71 178.66 L 572.73 179.94 L 572.74 181.21 L 572.74 182.48 L 572.73 183.75 L 572.72 185.02 L 572.71 186.29 L 572.71 187.56 L 572.72 188.83 L 572.73 190.11 L 572.77 191.38 L 572.82 192.65 L 572.89 193.92000000000002 L 572.99 195.19 L 573.1 196.46 L 573.22 197.73000000000002 L 573.36 199.01 L 573.5 200.28 L 573.64 201.55 L 573.77 202.82 L 573.9 204.09 L 574.01 205.36 L 574.12 206.63 L 574.2 207.9 L 574.28 209.18 L 574.36 210.45000000000002 L 574.4300000000001 211.72 L 574.51 212.99 L 574.6 214.26 L 574.7 215.53 L 574.82 216.8 L 574.95 218.07 L 575.1 219.35 L 575.26 220.62 L 575.42 221.89000000000001 L 575.58 223.16 L 575.75 224.43 L 575.9 225.70000000000002 L 576.04 226.97 L 576.1800000000001 228.24 L 576.3000000000001 229.52 L 576.42 230.79 L 576.54 232.06 L 576.65 233.33 L 576.77 234.6 L 576.9 235.87 L 577.0500000000001 237.14000000000001 L 577.22 238.41 L 577.42 239.69 L 577.64 240.96 L 577.88 242.23000000000002 L 578.15 243.5 L 578.44 244.77 L 578.74 246.04 L 579.0500000000001 247.31 L 579.36 248.58 L 579.67 249.86 L 579.97 251.13 L 580.26 252.4 L 580.54 253.67000000000002 L 580.8100000000001 254.94 L 581.08 256.21 L 581.34 257.48 L 581.62 258.75 L 581.91 260.03000000000003 L 582.21 261.3 L 582.5500000000001 262.57 L 582.92 263.84000000000003 L 583.33 265.11 L 583.8000000000001 266.38 L 584.3100000000001 267.65 L 584.9 268.92 L 585.5500000000001 270.2 L 586.29 271.47 L 587.11 272.74 L 588.02 274.01 L 589.02 275.28000000000003 L 590.11 276.55 L 591.29 277.82 L 592.54 279.09000000000003 L 593.84 280.37 L 595.1800000000001 281.64 L 596.52 282.91 L 597.82 284.18 L 599.04 285.45 L 600.13 286.72 L 601.04 287.99 L 601.71 289.26 L 602.12 290.54 L 602.2 291.81 L 601.94 293.08 L 601.32 294.35 L 600.33 295.62 L 599.0 296.89 L 597.37 298.16 L 595.47 299.43 L 593.38 300.71 L 591.16 301.98 L 588.89 303.25 L 586.64 304.52 L 584.47 305.79 L 582.44 307.06 L 580.59 308.33 L 578.95 309.6 L 577.52 310.88 L 576.32 312.15000000000003 L 575.33 313.42 L 574.53 314.69 L 573.9 315.96 L 573.41 317.23 L 573.0500000000001 318.5 L 572.78 319.77 L 572.59 321.05 L 572.46 322.32 L 572.37 323.59000000000003 L 572.3000000000001 324.86 L 572.26 326.13 Z" stroke="#000000" stroke-width="0.5" fill="#4682b4" /><circle cx="162.20000000000002" cy="279.44" r="2.5" fill="rgba(0,0,0,0.35)" /><circle cx="172.20000000000002" cy="282.74" r="2.5" fill="rgba(0,0,0,0.35)" /><circle cx="182.20000000000002" cy="350.41" r="2.5" fill="rgba(0,0,0,0.35)" /><circle cx="157.20000000000002" cy="289.51" r="2.5" fill="rgba(0,0,0,0.35)" /><circle cx="142.20000000000002" cy="322.12" r="2.5" fill="rgba(0,0,0,0.35)" /><circle cx="197.20000000000002" cy="291.93" r="2.5" fill="rgba(0,0,0,0.35)" /><circle cx="172.20000000000002" cy="225.33" r="2.5" fill="rgba(0,0,0,0.35)" /><circle cx="187.20000000000002" cy="298.28000000000003" r="2.5" fill="rgba(0,0,0,0.35)" /><circle cx="179.70000000000002" cy="321.28000000000003" r="2.5" fill="rgba(0,0,0,0.35)" /><circle cx="167.20000000000002" cy="349.46" r="2.5" fill="rgba(0,0,0,0.35)" /><circle cx="182.20000000000002" cy="259.09000000000003" r="2.5" fill="rgba(0,0,0,0.35)" /><circle cx="177.20000000000002" cy="310.72" r="2.5" fill="rgba(0,0,0,0.35)" /><circle cx="147.20000000000002" cy="321.35" r="2.5" fill="rgba(0,0,0,0.35)" /><circle cx="159.70000000000002" cy="311.69" r="2.5" fill="rgba(0,0,0,0.35)" /><circle cx="194.70000000000002" cy="325.21" r="2.5" fill="rgba(0,0,0,0.35)" /><circle cx="172.20000000000002" cy="321.17" r="2.5" fill="rgba(0,0,0,0.35)" /><circle cx="182.20000000000002" cy="297.3" r="2.5" fill="rgba(0,0,0,0.35)" /><circle cx="142.20000000000002" cy="301.96" r="2.5" fill="rgba(0,0,0,0.35)" /><circle cx="172.20000000000002" cy="269.73" r="2.5" fill="rgba(0,0,0,0.35)" /><circle cx="187.20000000000002" cy="286.98" r="2.5" fill="rgba(0,0,0,0.35)" /><circle cx="177.20000000000002" cy="335.82" r="2.5" fill="rgba(0,0,0,0.35)" /><circle cx="172.20000000000002" cy="257.39" r="2.5" fill="rgba(0,0,0,0.35)" /><circle cx="197.20000000000002" cy="313.44" r="2.5" fill="rgba(0,0,0,0.35)" /><circle cx="157.20000000000002" cy="306.90000000000003" r="2.5" fill="rgba(0,0,0,0.35)" /><circle cx="184.70000000000002" cy="323.82" r="2.5" fill="rgba(0,0,0,0.35)" /><circle cx="147.20000000000002" cy="292.45" r="2.5" fill="rgba(0,0,0,0.35)" /><circle cx="164.70000000000002" cy="328.56" r="2.5" fill="rgba(0,0,0,0.35)" /><circle cx="167.20000000000002" cy="266.08" r="2.5" fill="rgba(0,0,0,0.35)" /><circle cx="152.20000000000002" cy="298.36" r="2.5" fill="rgba(0,0,0,0.35)" /><circle cx="179.70000000000002" cy="276.01" r="2.5" fill="rgba(0,0,0,0.35)" /><circle cx="157.20000000000002" cy="295.28000000000003" r="2.5" fill="rgba(0,0,0,0.35)" /><circle cx="167.20000000000002" cy="294.73" r="2.5" fill="rgba(0,0,0,0.35)" /><circle cx="167.20000000000002" cy="300.54" r="2.5" fill="rgba(0,0,0,0.35)" /><circle cx="172.20000000000002" cy="299.07" r="2.5" fill="rgba(0,0,0,0.35)" /><circle cx="172.20000000000002" cy="251.52" r="2.5" fill="rgba(0,0,0,0.35)" /><circle cx="172.20000000000002" cy="316.05" r="2.5" fill="rgba(0,0,0,0.35)" /><circle cx="182.20000000000002" cy="307.91" r="2.5" fill="rgba(0,0,0,0.35)" /><circle cx="202.20000000000002" cy="292.55" r="2.5" fill="rgba(0,0,0,0.35)" /><circle cx="167.20000000000002" cy="289.40000000000003" r="2.5" fill="rgba(0,0,0,0.35)" /><circle cx="167.20000000000002" cy="284.28000000000003" r="2.5" fill="rgba(0,0,0,0.35)" /><circle cx="182.20000000000002" cy="302.67" r="2.5" fill="rgba(0,0,0,0.35)" /><circle cx="157.20000000000002" cy="301.19" r="2.5" fill="rgba(0,0,0,0.35)" /><circle cx="197.20000000000002" cy="305.06" r="2.5" fill="rgba(0,0,0,0.35)" /><circle cx="177.20000000000002" cy="257.48" r="2.5" fill="rgba(0,0,0,0.35)" /><circle cx="192.20000000000002" cy="295.67" r="2.5" fill="rgba(0,0,0,0.35)" /><circle cx="182.20000000000002" cy="291.26" r="2.5" fill="rgba(0,0,0,0.35)" /><circle cx="162.20000000000002" cy="291.51" r="2.5" fill="rgba(0,0,0,0.35)" /><circle cx="187.20000000000002" cy="311.77" r="2.5" fill="rgba(0,0,0,0.35)" /><circle cx="172.20000000000002" cy="346.35" r="2.5" fill="rgba(0,0,0,0.35)" /><circle cx="172.20000000000002" cy="365.15000000000003" r="2.5" fill="rgba(0,0,0,0.35)" /><circle cx="167.20000000000002" cy="277.47" r="2.5" fill="rgba(0,0,0,0.35)" /><circle cx="172.20000000000002" cy="293.86" r="2.5" fill="rgba(0,0,0,0.35)" /><circle cx="162.20000000000002" cy="303.92" r="2.5" fill="rgba(0,0,0,0.35)" /><circle cx="177.20000000000002" cy="347.83" r="2.5" fill="rgba(0,0,0,0.35)" /><circle cx="172.20000000000002" cy="304.64" r="2.5" fill="rgba(0,0,0,0.35)" /><circle cx="207.20000000000002" cy="302.05" r="2.5" fill="rgba(0,0,0,0.35)" /><circle cx="174.70000000000002" cy="325.55" r="2.5" fill="rgba(0,0,0,0.35)" /><circle cx="159.70000000000002" cy="324.04" r="2.5" fill="rgba(0,0,0,0.35)" /><circle cx="177.20000000000002" cy="305.64" r="2.5" fill="rgba(0,0,0,0.35)" /><circle cx="189.70000000000002" cy="324.35" r="2.5" fill="rgba(0,0,0,0.35)" /><circle cx="149.70000000000002" cy="313.29" r="2.5" fill="rgba(0,0,0,0.35)" /><circle cx="187.20000000000002" cy="303.96" r="2.5" fill="rgba(0,0,0,0.35)" /><circle cx="167.20000000000002" cy="272.4" r="2.5" fill="rgba(0,0,0,0.35)" /><circle cx="189.70000000000002" cy="319.12" r="2.5" fill="rgba(0,0,0,0.35)" /><circle cx="162.20000000000002" cy="286.07" r="2.5" fill="rgba(0,0,0,0.35)" /><circle cx="177.20000000000002" cy="271.64" r="2.5" fill="rgba(0,0,0,0.35)" /><circle cx="207.20000000000002" cy="292.73" r="2.5" fill="rgba(0,0,0,0.35)" /><circle cx="177.20000000000002" cy="283.33" r="2.5" fill="rgba(0,0,0,0.35)" /><circle cx="162.20000000000002" cy="317.5" r="2.5" fill="rgba(0,0,0,0.35)" /><circle cx="197.20000000000002" cy="299.21" r="2.5" fill="rgba(0,0,0,0.35)" /><circle cx="172.20000000000002" cy="335.49" r="2.5" fill="rgba(0,0,0,0.35)" /><circle cx="147.20000000000002" cy="305.08" r="2.5" fill="rgba(0,0,0,0.35)" /><circle cx="189.70000000000002" cy="277.74" r="2.5" fill="rgba(0,0,0,0.35)" /><circle cx="204.70000000000002" cy="325.29" r="2.5" fill="rgba(0,0,0,0.35)" /><circle cx="152.20000000000002" cy="305" r="2.5" fill="rgba(0,0,0,0.35)" /><circle cx="187.20000000000002" cy="292.18" r="2.5" fill="rgba(0,0,0,0.35)" /><circle cx="154.70000000000002" cy="312.32" r="2.5" fill="rgba(0,0,0,0.35)" /><circle cx="172.20000000000002" cy="310.33" r="2.5" fill="rgba(0,0,0,0.35)" /><circle cx="167.20000000000002" cy="257.54" r="2.5" fill="rgba(0,0,0,0.35)" /><circle cx="167.20000000000002" cy="338.75" r="2.5" fill="rgba(0,0,0,0.35)" /><circle cx="169.70000000000002" cy="326.58" r="2.5" fill="rgba(0,0,0,0.35)" /><circle cx="177.20000000000002" cy="294.69" r="2.5" fill="rgba(0,0,0,0.35)" /><circle cx="179.70000000000002" cy="326.59000000000003" r="2.5" fill="rgba(0,0,0,0.35)" /><circle cx="192.20000000000002" cy="312.34000000000003" r="2.5" fill="rgba(0,0,0,0.35)" /><circle cx="177.20000000000002" cy="265.9" r="2.5" fill="rgba(0,0,0,0.35)" /><circle cx="162.20000000000002" cy="297.89" r="2.5" fill="rgba(0,0,0,0.35)" /><circle cx="147.20000000000002" cy="299.36" r="2.5" fill="rgba(0,0,0,0.35)" /><circle cx="167.20000000000002" cy="317.03000000000003" r="2.5" fill="rgba(0,0,0,0.35)" /><circle cx="192.20000000000002" cy="306.96" r="2.5" fill="rgba(0,0,0,0.35)" /><circle cx="149.70000000000002" cy="326.78000000000003" r="2.5" fill="rgba(0,0,0,0.35)" /><circle cx="182.20000000000002" cy="285.39" r="2.5" fill="rgba(0,0,0,0.35)" /><circle cx="177.20000000000002" cy="316.38" r="2.5" fill="rgba(0,0,0,0.35)" /><circle cx="142.20000000000002" cy="292.69" r="2.5" fill="rgba(0,0,0,0.35)" /><circle cx="137.20000000000002" cy="293.33" r="2.5" fill="rgba(0,0,0,0.35)" /><circle cx="172.20000000000002" cy="264.09000000000003" r="2.5" fill="rgba(0,0,0,0.35)" /><circle cx="182.20000000000002" cy="270.18" r="2.5" fill="rgba(0,0,0,0.35)" /><circle cx="184.70000000000002" cy="317.63" r="2.5" fill="rgba(0,0,0,0.35)" /><circle cx="194.70000000000002" cy="319.94" r="2.5" fill="rgba(0,0,0,0.35)" /><circle cx="157.20000000000002" cy="277.52" r="2.5" fill="rgba(0,0,0,0.35)" /><circle cx="172.20000000000002" cy="355.08" r="2.5" fill="rgba(0,0,0,0.35)" /><circle cx="202.20000000000002" cy="301.96" r="2.5" fill="rgba(0,0,0,0.35)" /><circle cx="152.20000000000002" cy="291.88" r="2.5" fill="rgba(0,0,0,0.35)" /><circle cx="202.20000000000002" cy="308.28000000000003" r="2.5" fill="rgba(0,0,0,0.35)" /><circle cx="172.20000000000002" cy="275.65000000000003" r="2.5" fill="rgba(0,0,0,0.35)" /><circle cx="152.20000000000002" cy="319.58" r="2.5" fill="rgba(0,0,0,0.35)" /><circle cx="177.20000000000002" cy="289.3" r="2.5" fill="rgba(0,0,0,0.35)" /><circle cx="164.70000000000002" cy="310.58" r="2.5" fill="rgba(0,0,0,0.35)" /><circle cx="164.70000000000002" cy="321.98" r="2.5" fill="rgba(0,0,0,0.35)" /><circle cx="157.20000000000002" cy="318.57" r="2.5" fill="rgba(0,0,0,0.35)" /><circle cx="177.20000000000002" cy="300.09000000000003" r="2.5" fill="rgba(0,0,0,0.35)" /><circle cx="154.70000000000002" cy="325.18" r="2.5" fill="rgba(0,0,0,0.35)" /><circle cx="192.20000000000002" cy="301.68" r="2.5" fill="rgba(0,0,0,0.35)" /><circle cx="137.20000000000002" cy="302.73" r="2.5" fill="rgba(0,0,0,0.35)" /><circle cx="199.70000000000002" cy="321.42" r="2.5" fill="rgba(0,0,0,0.35)" /><circle cx="167.20000000000002" cy="305.84000000000003" r="2.5" fill="rgba(0,0,0,0.35)" /><circle cx="162.20000000000002" cy="273.86" r="2.5" fill="rgba(0,0,0,0.35)" /><circle cx="184.70000000000002" cy="274.65000000000003" r="2.5" fill="rgba(0,0,0,0.35)" /><circle cx="182.20000000000002" cy="313" r="2.5" fill="rgba(0,0,0,0.35)" /><circle cx="192.20000000000002" cy="290.04" r="2.5" fill="rgba(0,0,0,0.35)" /><circle cx="172.20000000000002" cy="288.78000000000003" r="2.5" fill="rgba(0,0,0,0.35)" /><circle cx="387.2" cy="334.08" r="2.5" fill="rgba(0,0,0,0.35)" /><circle cx="352.2" cy="351.38" r="2.5" fill="rgba(0,0,0,0.35)" /><circle cx="367.2" cy="347.93" r="2.5" fill="rgba(0,0,0,0.35)" /><circle cx="357.2" cy="362.96" r="2.5" fill="rgba(0,0,0,0.35)" /><circle cx="377.2" cy="352.71" r="2.5" fill="rgba(0,0,0,0.35)" /><circle cx="362.2" cy="331.35" r="2.5" fill="rgba(0,0,0,0.35)" /><circle cx="382.2" cy="359" r="2.5" fill="rgba(0,0,0,0.35)" /><circle cx="377.2" cy="333.6" r="2.5" fill="rgba(0,0,0,0.35)" /><circle cx="362.2" cy="354.18" r="2.5" fill="rgba(0,0,0,0.35)" /><circle cx="382.2" cy="330.84000000000003" r="2.5" fill="rgba(0,0,0,0.35)" /><circle cx="397.2" cy="352.25" r="2.5" fill="rgba(0,0,0,0.35)" /><circle cx="377.2" cy="347.62" r="2.5" fill="rgba(0,0,0,0.35)" /><circle cx="387.2" cy="341.89" r="2.5" fill="rgba(0,0,0,0.35)" /><circle cx="362.2" cy="341.29" r="2.5" fill="rgba(0,0,0,0.35)" /><circle cx="372.2" cy="326.78000000000003" r="2.5" fill="rgba(0,0,0,0.35)" /><circle cx="387.2" cy="354.52" r="2.5" fill="rgba(0,0,0,0.35)" /><circle cx="362.2" cy="348.8" r="2.5" fill="rgba(0,0,0,0.35)" /><circle cx="352.2" cy="357.90000000000003" r="2.5" fill="rgba(0,0,0,0.35)" /><circle cx="392.2" cy="363.12" r="2.5" fill="rgba(0,0,0,0.35)" /><circle cx="382.2" cy="371.90000000000003" r="2.5" fill="rgba(0,0,0,0.35)" /><circle cx="357.2" cy="349.51" r="2.5" fill="rgba(0,0,0,0.35)" /><circle cx="387.2" cy="349.32" r="2.5" fill="rgba(0,0,0,0.35)" /><circle cx="382.2" cy="348.49" r="2.5" fill="rgba(0,0,0,0.35)" /><circle cx="372.2" cy="311.34000000000003" r="2.5" fill="rgba(0,0,0,0.35)" /><circle cx="362.2" cy="372.06" r="2.5" fill="rgba(0,0,0,0.35)" /><circle cx="372.2" cy="356.06" r="2.5" fill="rgba(0,0,0,0.35)" /><circle cx="367.2" cy="363.98" r="2.5" fill="rgba(0,0,0,0.35)" /><circle cx="372.2" cy="375.89" r="2.5" fill="rgba(0,0,0,0.35)" /><circle cx="347.2" cy="358.28000000000003" r="2.5" fill="rgba(0,0,0,0.35)" /><circle cx="392.2" cy="334.54" r="2.5" fill="rgba(0,0,0,0.35)" /><circle cx="367.2" cy="358.27" r="2.5" fill="rgba(0,0,0,0.35)" /><circle cx="382.2" cy="353.64" r="2.5" fill="rgba(0,0,0,0.35)" /><circle cx="392.2" cy="349.62" r="2.5" fill="rgba(0,0,0,0.35)" /><circle cx="367.2" cy="337.13" r="2.5" fill="rgba(0,0,0,0.35)" /><circle cx="372.2" cy="368.16" r="2.5" fill="rgba(0,0,0,0.35)" /><circle cx="352.2" cy="335.44" r="2.5" fill="rgba(0,0,0,0.35)" /><circle cx="357.2" cy="334.2" r="2.5" fill="rgba(0,0,0,0.35)" /><circle cx="367.2" cy="371.85" r="2.5" fill="rgba(0,0,0,0.35)" /><circle cx="357.2" cy="343.22" r="2.5" fill="rgba(0,0,0,0.35)" /><circle cx="382.2" cy="365.68" r="2.5" fill="rgba(0,0,0,0.35)" /><circle cx="372.2" cy="350.96" r="2.5" fill="rgba(0,0,0,0.35)" /><circle cx="372.2" cy="361.29" r="2.5" fill="rgba(0,0,0,0.35)" /><circle cx="372.2" cy="384.6" r="2.5" fill="rgba(0,0,0,0.35)" /><circle cx="367.2" cy="330.47" r="2.5" fill="rgba(0,0,0,0.35)" /><circle cx="357.2" cy="355.35" r="2.5" fill="rgba(0,0,0,0.35)" /><circle cx="377.2" cy="339.12" r="2.5" fill="rgba(0,0,0,0.35)" /><circle cx="377.2" cy="362.89" r="2.5" fill="rgba(0,0,0,0.35)" /><circle cx="367.2" cy="353.17" r="2.5" fill="rgba(0,0,0,0.35)" /><circle cx="372.2" cy="333.34000000000003" r="2.5" fill="rgba(0,0,0,0.35)" /><circle cx="392.2" cy="356.44" r="2.5" fill="rgba(0,0,0,0.35)" /><circle cx="377.2" cy="328.53000000000003" r="2.5" fill="rgba(0,0,0,0.35)" /><circle cx="362.2" cy="359.34000000000003" r="2.5" fill="rgba(0,0,0,0.35)" /><circle cx="377.2" cy="369.76" r="2.5" fill="rgba(0,0,0,0.35)" /><circle cx="387.2" cy="360.42" r="2.5" fill="rgba(0,0,0,0.35)" /><circle cx="367.2" cy="342.55" r="2.5" fill="rgba(0,0,0,0.35)" /><circle cx="397.2" cy="358.05" r="2.5" fill="rgba(0,0,0,0.35)" /><circle cx="372.2" cy="338.36" r="2.5" fill="rgba(0,0,0,0.35)" /><circle cx="382.2" cy="339.91" r="2.5" fill="rgba(0,0,0,0.35)" /><circle cx="377.2" cy="357.79" r="2.5" fill="rgba(0,0,0,0.35)" /><circle cx="372.2" cy="345.94" r="2.5" fill="rgba(0,0,0,0.35)" /><circle cx="387.2" cy="231.22" r="2.5" fill="rgba(0,0,0,0.35)" /><circle cx="352.2" cy="248.53" r="2.5" fill="rgba(0,0,0,0.35)" /><circle cx="367.2" cy="245.07" r="2.5" fill="rgba(0,0,0,0.35)" /><circle cx="357.2" cy="260.1" r="2.5" fill="rgba(0,0,0,0.35)" /><circle cx="377.2" cy="249.86" r="2.5" fill="rgba(0,0,0,0.35)" /><circle cx="362.2" cy="228.5" r="2.5" fill="rgba(0,0,0,0.35)" /><circle cx="382.2" cy="256.14" r="2.5" fill="rgba(0,0,0,0.35)" /><circle cx="377.2" cy="230.74" r="2.5" fill="rgba(0,0,0,0.35)" /><circle cx="362.2" cy="251.32" r="2.5" fill="rgba(0,0,0,0.35)" /><circle cx="382.2" cy="227.98000000000002" r="2.5" fill="rgba(0,0,0,0.35)" /><circle cx="397.2" cy="249.39000000000001" r="2.5" fill="rgba(0,0,0,0.35)" /><circle cx="377.2" cy="244.77" r="2.5" fill="rgba(0,0,0,0.35)" /><circle cx="387.2" cy="239.03" r="2.5" fill="rgba(0,0,0,0.35)" /><circle cx="362.2" cy="238.44" r="2.5" fill="rgba(0,0,0,0.35)" /><circle cx="372.2" cy="223.92000000000002" r="2.5" fill="rgba(0,0,0,0.35)" /><circle cx="387.2" cy="251.66" r="2.5" fill="rgba(0,0,0,0.35)" /><circle cx="362.2" cy="245.94" r="2.5" fill="rgba(0,0,0,0.35)" /><circle cx="352.2" cy="255.04" r="2.5" fill="rgba(0,0,0,0.35)" /><circle cx="392.2" cy="260.27" r="2.5" fill="rgba(0,0,0,0.35)" /><circle cx="382.2" cy="269.04" r="2.5" fill="rgba(0,0,0,0.35)" /><circle cx="357.2" cy="246.65" r="2.5" fill="rgba(0,0,0,0.35)" /><circle cx="387.2" cy="246.46" r="2.5" fill="rgba(0,0,0,0.35)" /><circle cx="382.2" cy="245.63" r="2.5" fill="rgba(0,0,0,0.35)" /><circle cx="372.2" cy="208.48000000000002" r="2.5" fill="rgba(0,0,0,0.35)" /><circle cx="362.2" cy="269.2" r="2.5" fill="rgba(0,0,0,0.35)" /><circle cx="372.2" cy="253.20000000000002" r="2.5" fill="rgba(0,0,0,0.35)" /><circle cx="367.2" cy="261.12" r="2.5" fill="rgba(0,0,0,0.35)" /><circle cx="372.2" cy="273.04" r="2.5" fill="rgba(0,0,0,0.35)" /><circle cx="347.2" cy="255.42000000000002" r="2.5" fill="rgba(0,0,0,0.35)" /><circle cx="392.2" cy="231.68" r="2.5" fill="rgba(0,0,0,0.35)" /><circle cx="367.2" cy="255.41" r="2.5" fill="rgba(0,0,0,0.35)" /><circle cx="382.2" cy="250.78" r="2.5" fill="rgba(0,0,0,0.35)" /><circle cx="392.2" cy="246.77" r="2.5" fill="rgba(0,0,0,0.35)" /><circle cx="367.2" cy="234.28" r="2.5" fill="rgba(0,0,0,0.35)" /><circle cx="372.2" cy="265.3" r="2.5" fill="rgba(0,0,0,0.35)" /><circle cx="352.2" cy="232.58" r="2.5" fill="rgba(0,0,0,0.35)" /><circle cx="357.2" cy="231.35" r="2.5" fill="rgba(0,0,0,0.35)" /><circle cx="367.2" cy="269" r="2.5" fill="rgba(0,0,0,0.35)" /><circle cx="357.2" cy="240.36" r="2.5" fill="rgba(0,0,0,0.35)" /><circle cx="382.2" cy="262.82" r="2.5" fill="rgba(0,0,0,0.35)" /><circle cx="372.2" cy="248.1" r="2.5" fill="rgba(0,0,0,0.35)" /><circle cx="372.2" cy="258.43" r="2.5" fill="rgba(0,0,0,0.35)" /><circle cx="372.2" cy="281.75" r="2.5" fill="rgba(0,0,0,0.35)" /><circle cx="367.2" cy="227.61" r="2.5" fill="rgba(0,0,0,0.35)" /><circle cx="357.2" cy="252.5" r="2.5" fill="rgba(0,0,0,0.35)" /><circle cx="377.2" cy="236.27" r="2.5" fill="rgba(0,0,0,0.35)" /><circle cx="377.2" cy="260.04" r="2.5" fill="rgba(0,0,0,0.35)" /><circle cx="367.2" cy="250.31" r="2.5" fill="rgba(0,0,0,0.35)" /><circle cx="372.2" cy="230.48000000000002" r="2.5" fill="rgba(0,0,0,0.35)" /><circle cx="392.2" cy="253.59" r="2.5" fill="rgba(0,0,0,0.35)" /><circle cx="377.2" cy="225.68" r="2.5" fill="rgba(0,0,0,0.35)" /><circle cx="362.2" cy="256.48" r="2.5" fill="rgba(0,0,0,0.35)" /><circle cx="377.2" cy="266.9" r="2.5" fill="rgba(0,0,0,0.35)" /><circle cx="387.2" cy="257.56" r="2.5" fill="rgba(0,0,0,0.35)" /><circle cx="367.2" cy="239.70000000000002" r="2.5" fill="rgba(0,0,0,0.35)" /><circle cx="397.2" cy="255.19" r="2.5" fill="rgba(0,0,0,0.35)" /><circle cx="372.2" cy="235.5" r="2.5" fill="rgba(0,0,0,0.35)" /><circle cx="382.2" cy="237.05" r="2.5" fill="rgba(0,0,0,0.35)" /><circle cx="377.2" cy="254.93" r="2.5" fill="rgba(0,0,0,0.35)" /><circle cx="372.2" cy="243.09" r="2.5" fill="rgba(0,0,0,0.35)" /><circle cx="602.2" cy="295.71" r="2.5" fill="rgba(0,0,0,0.35)" /><circle cx="564.7" cy="229.16" r="2.5" fill="rgba(0,0,0,0.35)" /><circle cx="572.2" cy="264.73" r="2.5" fill="rgba(0,0,0,0.35)" /><circle cx="574.7" cy="222.51" r="2.5" fill="rgba(0,0,0,0.35)" /><circle cx="582.2" cy="249.47" r="2.5" fill="rgba(0,0,0,0.35)" /><circle cx="549.7" cy="294.18" r="2.5" fill="rgba(0,0,0,0.35)" /><circle cx="539.7" cy="284.65000000000003" r="2.5" fill="rgba(0,0,0,0.35)" /><circle cx="577.2" cy="273.11" r="2.5" fill="rgba(0,0,0,0.35)" /><circle cx="567.2" cy="238.86" r="2.5" fill="rgba(0,0,0,0.35)" /><circle cx="607.2" cy="297.42" r="2.5" fill="rgba(0,0,0,0.35)" /><circle cx="544.7" cy="283.93" r="2.5" fill="rgba(0,0,0,0.35)" /><circle cx="557.2" cy="293.27" r="2.5" fill="rgba(0,0,0,0.35)" /><circle cx="572.2" cy="296.25" r="2.5" fill="rgba(0,0,0,0.35)" /><circle cx="582.2" cy="291.49" r="2.5" fill="rgba(0,0,0,0.35)" /><circle cx="529.7" cy="299.38" r="2.5" fill="rgba(0,0,0,0.35)" /><circle cx="552.2" cy="277.92" r="2.5" fill="rgba(0,0,0,0.35)" /><circle cx="567.2" cy="267.97" r="2.5" fill="rgba(0,0,0,0.35)" /><circle cx="567.2" cy="261.45" r="2.5" fill="rgba(0,0,0,0.35)" /><circle cx="562.2" cy="275.51" r="2.5" fill="rgba(0,0,0,0.35)" /><circle cx="549.7" cy="283.47" r="2.5" fill="rgba(0,0,0,0.35)" /><circle cx="574.7" cy="251.79" r="2.5" fill="rgba(0,0,0,0.35)" /><circle cx="587.2" cy="292.6" r="2.5" fill="rgba(0,0,0,0.35)" /><circle cx="597.2" cy="294.51" r="2.5" fill="rgba(0,0,0,0.35)" /><circle cx="627.2" cy="294.77" r="2.5" fill="rgba(0,0,0,0.35)" /><circle cx="572.2" cy="180.73" r="2.5" fill="rgba(0,0,0,0.35)" /><circle cx="569.7" cy="281.44" r="2.5" fill="rgba(0,0,0,0.35)" /><circle cx="572.2" cy="246.89000000000001" r="2.5" fill="rgba(0,0,0,0.35)" /><circle cx="572.2" cy="218.14000000000001" r="2.5" fill="rgba(0,0,0,0.35)" /><circle cx="562.2" cy="296.82" r="2.5" fill="rgba(0,0,0,0.35)" /><circle cx="572.2" cy="275.51" r="2.5" fill="rgba(0,0,0,0.35)" /><circle cx="577.2" cy="102.5" r="2.5" fill="rgba(0,0,0,0.35)" /><circle cx="577.2" cy="226.9" r="2.5" fill="rgba(0,0,0,0.35)" /><circle cx="609.7" cy="287.22" r="2.5" fill="rgba(0,0,0,0.35)" /><circle cx="582.2" cy="239.73000000000002" r="2.5" fill="rgba(0,0,0,0.35)" /><circle cx="539.7" cy="296.98" r="2.5" fill="rgba(0,0,0,0.35)" /><circle cx="622.2" cy="294.76" r="2.5" fill="rgba(0,0,0,0.35)" /><circle cx="564.7" cy="287.44" r="2.5" fill="rgba(0,0,0,0.35)" /><circle cx="592.2" cy="288.68" r="2.5" fill="rgba(0,0,0,0.35)" /><circle cx="567.2" cy="207.77" r="2.5" fill="rgba(0,0,0,0.35)" /><circle cx="522.2" cy="294.76" r="2.5" fill="rgba(0,0,0,0.35)" /><circle cx="574.7" cy="279.96" r="2.5" fill="rgba(0,0,0,0.35)" /><circle cx="569.7" cy="300.79" r="2.5" fill="rgba(0,0,0,0.35)" /><circle cx="632.2" cy="295.76" r="2.5" fill="rgba(0,0,0,0.35)" /><circle cx="577.2" cy="237.98000000000002" r="2.5" fill="rgba(0,0,0,0.35)" /><circle cx="557.2" cy="288.07" r="2.5" fill="rgba(0,0,0,0.35)" /><circle cx="569.7" cy="225.68" r="2.5" fill="rgba(0,0,0,0.35)" /><circle cx="572.2" cy="235.71" r="2.5" fill="rgba(0,0,0,0.35)" /><circle cx="572.2" cy="270.15" r="2.5" fill="rgba(0,0,0,0.35)" /><circle cx="624.7" cy="300.59000000000003" r="2.5" fill="rgba(0,0,0,0.35)" /><circle cx="567.2" cy="248.70000000000002" r="2.5" fill="rgba(0,0,0,0.35)" /><circle cx="562.2" cy="269.45" r="2.5" fill="rgba(0,0,0,0.35)" /><circle cx="537.2" cy="292.65000000000003" r="2.5" fill="rgba(0,0,0,0.35)" /><circle cx="527.2" cy="294.63" r="2.5" fill="rgba(0,0,0,0.35)" /><circle cx="592.2" cy="293.97" r="2.5" fill="rgba(0,0,0,0.35)" /><circle cx="562.2" cy="291.8" r="2.5" fill="rgba(0,0,0,0.35)" /><circle cx="544.7" cy="296.87" r="2.5" fill="rgba(0,0,0,0.35)" /><circle cx="564.7" cy="282.23" r="2.5" fill="rgba(0,0,0,0.35)" /><circle cx="577.2" cy="295.01" r="2.5" fill="rgba(0,0,0,0.35)" /><circle cx="599.7" cy="283.69" r="2.5" fill="rgba(0,0,0,0.35)" /><circle cx="569.7" cy="286.59000000000003" r="2.5" fill="rgba(0,0,0,0.35)" /><circle cx="577.2" cy="266.52" r="2.5" fill="rgba(0,0,0,0.35)" /><circle cx="554.7" cy="283.3" r="2.5" fill="rgba(0,0,0,0.35)" /><circle cx="619.7" cy="299.42" r="2.5" fill="rgba(0,0,0,0.35)" /><circle cx="579.7" cy="287.07" r="2.5" fill="rgba(0,0,0,0.35)" /><circle cx="534.7" cy="297.58" r="2.5" fill="rgba(0,0,0,0.35)" /><circle cx="574.7" cy="290.68" r="2.5" fill="rgba(0,0,0,0.35)" /><circle cx="567.2" cy="296.27" r="2.5" fill="rgba(0,0,0,0.35)" /><circle cx="562.2" cy="261.71" r="2.5" fill="rgba(0,0,0,0.35)" /><circle cx="557.2" cy="255.34" r="2.5" fill="rgba(0,0,0,0.35)" /><circle cx="552.2" cy="299.15000000000003" r="2.5" fill="rgba(0,0,0,0.35)" /><circle cx="577.2" cy="260.24" r="2.5" fill="rgba(0,0,0,0.35)" /><circle cx="567.2" cy="273.32" r="2.5" fill="rgba(0,0,0,0.35)" /><circle cx="592.2" cy="299.07" r="2.5" fill="rgba(0,0,0,0.35)" /><circle cx="562.2" cy="251.04" r="2.5" fill="rgba(0,0,0,0.35)" /><circle cx="572.2" cy="143.18" r="2.5" fill="rgba(0,0,0,0.35)" /><circle cx="557.2" cy="298.69" r="2.5" fill="rgba(0,0,0,0.35)" /><circle cx="572.2" cy="98.49000000000001" r="2.5" fill="rgba(0,0,0,0.35)" /><circle cx="532.2" cy="293.04" r="2.5" fill="rgba(0,0,0,0.35)" /><circle cx="604.7" cy="284.62" r="2.5" fill="rgba(0,0,0,0.35)" /><circle cx="612.2" cy="299.21" r="2.5" fill="rgba(0,0,0,0.35)" /><circle cx="597.2" cy="299.86" r="2.5" fill="rgba(0,0,0,0.35)" /><circle cx="587.2" cy="276.45" r="2.5" fill="rgba(0,0,0,0.35)" /><circle cx="572.2" cy="230.22" r="2.5" fill="rgba(0,0,0,0.35)" /><circle cx="584.7" cy="283.03000000000003" r="2.5" fill="rgba(0,0,0,0.35)" /><circle cx="587.2" cy="262" r="2.5" fill="rgba(0,0,0,0.35)" /><circle cx="547.2" cy="289.7" r="2.5" fill="rgba(0,0,0,0.35)" /><circle cx="572.2" cy="259.15" r="2.5" fill="rgba(0,0,0,0.35)" /><circle cx="587.2" cy="298.67" r="2.5" fill="rgba(0,0,0,0.35)" /><circle cx="557.2" cy="276.84000000000003" r="2.5" fill="rgba(0,0,0,0.35)" /><circle cx="569.7" cy="253.47" r="2.5" fill="rgba(0,0,0,0.35)" /><circle cx="574.7" cy="285.36" r="2.5" fill="rgba(0,0,0,0.35)" /><circle cx="577.2" cy="300.37" r="2.5" fill="rgba(0,0,0,0.35)" /><circle cx="589.7" cy="283.19" r="2.5" fill="rgba(0,0,0,0.35)" /><circle cx="577.2" cy="246.93" r="2.5" fill="rgba(0,0,0,0.35)" /><circle cx="587.2" cy="287.52" r="2.5" fill="rgba(0,0,0,0.35)" /><circle cx="569.7" cy="291.63" r="2.5" fill="rgba(0,0,0,0.35)" /><circle cx="582.2" cy="296.77" r="2.5" fill="rgba(0,0,0,0.35)" /><circle cx="592.2" cy="276.85" r="2.5" fill="rgba(0,0,0,0.35)" /><circle cx="607.2" cy="292.19" r="2.5" fill="rgba(0,0,0,0.35)" /><circle cx="524.7" cy="299.98" r="2.5" fill="rgba(0,0,0,0.35)" /><circle cx="579.7" cy="281.62" r="2.5" fill="rgba(0,0,0,0.35)" /><circle cx="577.2" cy="207.18" r="2.5" fill="rgba(0,0,0,0.35)" /><circle cx="582.2" cy="261.51" r="2.5" fill="rgba(0,0,0,0.35)" /><circle cx="602.2" cy="289.91" r="2.5" fill="rgba(0,0,0,0.35)" /><circle cx="572.2" cy="204.22" r="2.5" fill="rgba(0,0,0,0.35)" /><circle cx="557.2" cy="270.75" r="2.5" fill="rgba(0,0,0,0.35)" /><circle cx="579.7" cy="254.81" r="2.5" fill="rgba(0,0,0,0.35)" /><circle cx="542.2" cy="292.14" r="2.5" fill="rgba(0,0,0,0.35)" /><circle cx="517.2" cy="294.88" r="2.5" fill="rgba(0,0,0,0.35)" /><circle cx="617.2" cy="294.55" r="2.5" fill="rgba(0,0,0,0.35)" /><circle cx="612.2" cy="292.73" r="2.5" fill="rgba(0,0,0,0.35)" /><circle cx="587.2" cy="270.27" r="2.5" fill="rgba(0,0,0,0.35)" /><circle cx="597.2" cy="289.49" r="2.5" fill="rgba(0,0,0,0.35)" /><circle cx="594.7" cy="283.39" r="2.5" fill="rgba(0,0,0,0.35)" /><circle cx="587.2" cy="251.98000000000002" r="2.5" fill="rgba(0,0,0,0.35)" /><circle cx="582.2" cy="273.59000000000003" r="2.5" fill="rgba(0,0,0,0.35)" /><circle cx="559.7" cy="283.15000000000003" r="2.5" fill="rgba(0,0,0,0.35)" /><circle cx="582.2" cy="268.32" r="2.5" fill="rgba(0,0,0,0.35)" /><circle cx="534.7" cy="287.54" r="2.5" fill="rgba(0,0,0,0.35)" /><circle cx="552.2" cy="289.28000000000003" r="2.5" fill="rgba(0,0,0,0.35)" /></svg>