<svg xmlns="http://www.w3.org/2000/svg" width="769.4" height="545" font-family="DejaVu Sans, Liberation Sans, Arial, sans-serif" fill="black"><rect width="100%" height="100%" fill="white" /><text x="384.7" y="27.400000000000002" font-size="18" text-anchor="middle">Character Stats</text><line x1="359" y1="269" x2="359" y2="122.75" stroke="#cccccc" stroke-width="1" /><line x1="359" y1="269" x2="498.09000000000003" y2="223.81" stroke="#cccccc" stroke-width="1" /><line x1="359" y1="269" x2="444.96000000000004" y2="387.32" stroke="#cccccc" stroke-width="1" /><line x1="359" y1="269" x2="273.04" y2="387.32" stroke="#cccccc" stroke-width="1" /><line x1="359" y1="269" x2="219.91" y2="223.81" stroke="#cccccc" stroke-width="1" /><path d="M 359 239.75 L 386.82 259.96 L 376.19 292.66 L 341.81 292.66 L 331.18 259.96 Z" stroke="#cccccc" stroke-width="1" fill="none" stroke-dasharray="4,3" /><text x="366" y="239.75" font-size="9" text-anchor="start" fill="#000000">2</text><path d="M 359 210.5 L 414.64 250.92000000000002 L 393.39 316.33 L 324.61 316.33 L 303.36 250.92000000000002 Z" stroke="#cccccc" stroke-width="1" fill="none" stroke-dasharray="4,3" /><text x="366" y="210.5" font-size="9" text-anchor="start" fill="#000000">4</text><path d="M 359 181.25 L 442.46000000000004 241.88 L 410.58 339.99 L 307.42 339.99 L 275.54 241.88 Z" stroke="#cccccc" stroke-width="1" fill="none" stroke-dasharray="4,3" /><text x="366" y="181.25" font-size="9" text-anchor="start" fill="#000000">6</text><path d="M 359 152 L 470.27 232.85 L 427.77 363.65000000000003 L 290.23 363.65000000000003 L 247.73000000000002 232.85 Z" stroke="#cccccc" stroke-width="1" fill="none" stroke-dasharray="4,3" /><text x="366" y="152" font-size="9" text-anchor="start" fill="#000000">8</text><path d="M 359 122.75 L 498.09000000000003 223.81 L 444.96000000000004 387.32 L 273.04 387.32 L 219.91 223.81 Z" stroke="#cccccc" stroke-width="1" fill="none" stroke-dasharray="4,3" /><text x="366" y="122.75" font-size="9" text-anchor="start" fill="#000000">10</text><text x="359" y="96.43" font-size="12" text-anchor="middle">Attack</text><text x="523.13" y="215.67000000000002" font-size="12" text-anchor="start">Defense</text><text x="460.44" y="419.42" font-size="12" text-anchor="start">Speed</text><text x="257.56" y="419.42" font-size="12" text-anchor="end">Magic</text><text x="194.87" y="215.67000000000002" font-size="12" text-anchor="end">Stamina</text><path d="M 359 137.38 L 428.55 246.4 L 419.17 351.82 L 333.21 304.5 L 247.73000000000002 232.85 Z" stroke="#1f77b4" stroke-width="1.5" fill="#1f77b4" fill-opacity="0.25" /><path d="M 359 210.5 L 456.36 237.36 L 410.58 339.99 L 281.63 375.49 L 289.45 246.4 Z" stroke="#ff7f0e" stroke-width="1.5" fill="#ff7f0e" fill-opacity="0.25" /><path d="M 359 181.25 L 414.64 250.92000000000002 L 444.96000000000004 387.32 L 316.02 328.16 L 275.54 241.88 Z" stroke="#2ca02c" stroke-width="1.5" fill="#2ca02c" fill-opacity="0.25" /><rect x="664" y="34" width="96" height="74" fill="#ffffff" /><rect x="664" y="34" width="96" height="74" fill="none" stroke="#000000" stroke-width="1" /><text x="694" y="53.2" font-size="12" text-anchor="start">Warrior</text><line x1="674" y1="49" x2="686" y2="49" stroke="#1f77b4" stroke-width="2" /><text x="694" y="71.2" font-size="12" text-anchor="start">Mage</text><line x1="674" y1="67" x2="686" y2="67" stroke="#ff7f0e" stroke-width="2" /><text x="694" y="89.2" font-size="12" text-anchor="start">Rogue</text><line x1="674" y1="85" x2="686" y2="85" stroke="#2ca02c" stroke-width="2" /></svg>