<svg xmlns="http://www.w3.org/2000/svg" width="686.2" height="545" font-family="DejaVu Sans, Liberation Sans, Arial, sans-serif" fill="black"><rect width="100%" height="100%" fill="white" /><line x1="72.2" y1="494" x2="672.2" y2="494" stroke="#000000" stroke-width="1" /><line x1="72.2" y1="44" x2="72.2" y2="494" stroke="#000000" stroke-width="1" /><line x1="197.20000000000002" y1="44" x2="197.20000000000002" y2="494" stroke="#cccccc" stroke-width="1" /><line x1="322.2" y1="44" x2="322.2" y2="494" stroke="#cccccc" stroke-width="1" /><line x1="447.2" y1="44" x2="447.2" y2="494" stroke="#cccccc" stroke-width="1" /><line x1="572.2" y1="44" x2="572.2" y2="494" stroke="#cccccc" stroke-width="1" /><line x1="72.2" y1="419" x2="672.2" y2="419" stroke="#cccccc" stroke-width="1" /><line x1="72.2" y1="344" x2="672.2" y2="344" stroke="#cccccc" stroke-width="1" /><line x1="72.2" y1="269" x2="672.2" y2="269" stroke="#cccccc" stroke-width="1" /><line x1="72.2" y1="194" x2="672.2" y2="194" stroke="#cccccc" stroke-width="1" /><line x1="72.2" y1="119" x2="672.2" y2="119" stroke="#cccccc" stroke-width="1" /><line x1="72.2" y1="44" x2="672.2" y2="44" stroke="#cccccc" stroke-width="1" /><line x1="72.2" y1="494" x2="72.2" y2="499" stroke="#000000" stroke-width="1" /><text x="72.2" y="511" font-size="12" text-anchor="middle">0</text><line x1="197.20000000000002" y1="494" x2="197.20000000000002" y2="499" stroke="#000000" stroke-width="1" /><text x="197.20000000000002" y="511" font-size="12" text-anchor="middle">2.5</text><line x1="322.2" y1="494" x2="322.2" y2="499" stroke="#000000" stroke-width="1" /><text x="322.2" y="511" font-size="12" text-anchor="middle">5</text><line x1="447.2" y1="494" x2="447.2" y2="499" stroke="#000000" stroke-width="1" /><text x="447.2" y="511" font-size="12" text-anchor="middle">7.5</text><line x1="572.2" y1="494" x2="572.2" y2="499" stroke="#000000" stroke-width="1" /><text x="572.2" y="511" font-size="12" text-anchor="middle">10</text><line x1="67.2" y1="494" x2="72.2" y2="494" stroke="#000000" stroke-width="1" /><text x="64.2" y="498.2" font-size="12" text-anchor="end">-1.5</text><line x1="67.2" y1="419" x2="72.2" y2="419" stroke="#000000" stroke-width="1" /><text x="64.2" y="423.2" font-size="12" text-anchor="end">-1</text><line x1="67.2" y1="344" x2="72.2" y2="344" stroke="#000000" stroke-width="1" /><text x="64.2" y="348.2" font-size="12" text-anchor="end">-0.5</text><line x1="67.2" y1="269" x2="72.2" y2="269" stroke="#000000" stroke-width="1" /><text x="64.2" y="273.2" font-size="12" text-anchor="end">0</text><line x1="67.2" y1="194" x2="72.2" y2="194" stroke="#000000" stroke-width="1" /><text x="64.2" y="198.20000000000002" font-size="12" text-anchor="end">0.5</text><line x1="67.2" y1="119" x2="72.2" y2="119" stroke="#000000" stroke-width="1" /><text x="64.2" y="123.2" font-size="12" text-anchor="end">1</text><line x1="67.2" y1="44" x2="72.2" y2="44" stroke="#000000" stroke-width="1" /><text x="64.2" y="48.2" font-size="12" text-anchor="end">1.5</text><text x="372.2" y="538" font-size="14" text-anchor="middle">X</text><text x="7" y="272.5" font-size="14" text-anchor="middle" transform="rotate(-90,7,272.5)">Y</text><text x="372.2" y="22" font-size="18" text-anchor="middle">Confidence Band</text><path d="M 72.2 224.0 L 78.45 205.3 L 84.7 186.89000000000001 L 90.95 169.06 L 97.2 152.09 L 103.45 136.24 L 109.7 121.75 L 115.95 108.87 L 122.2 97.78 L 128.45 88.66 L 134.7 81.65 L 140.95000000000002 76.87 L 147.20000000000002 74.38 L 153.45000000000002 74.22 L 159.70000000000002 76.4 L 165.95000000000002 80.89 L 172.20000000000002 87.61 L 178.45000000000002 96.45 L 184.70000000000002 107.29 L 190.95000000000002 119.95 L 197.20000000000002 134.23 L 203.45000000000002 149.91 L 209.70000000000002 166.75 L 215.95000000000002 184.48 L 222.20000000000002 202.83 L 228.45000000000002 221.51 L 234.70000000000002 240.23000000000002 L 240.95000000000002 258.69 L 247.20000000000002 276.62 L 253.45000000000002 293.72 L 259.7 309.73 L 265.95 324.41 L 272.2 337.52 L 278.45 348.86 L 284.7 358.25 L 290.95 365.54 L 297.2 370.63 L 303.45 373.43 L 309.7 373.89 L 315.95 372.02 L 322.2 367.84000000000003 L 328.45 361.41 L 334.7 352.84000000000003 L 340.95 342.26 L 347.2 329.83 L 353.45 315.75 L 359.7 300.24 L 365.95 283.54 L 372.2 265.91 L 378.45 247.63 L 384.7 228.98000000000002 L 390.95 210.25 L 397.2 191.73000000000002 L 403.45 173.72 L 409.7 156.49 L 415.95 140.32 L 422.2 125.45 L 428.45 112.12 L 434.7 100.54 L 440.95 90.88 L 447.2 83.3 L 453.45 77.92 L 459.7 74.81 L 465.95 74.03 L 472.2 75.60000000000001 L 478.45 79.48 L 484.7 85.61 L 490.95 93.9 L 497.2 104.23 L 503.45 116.42 L 509.7 130.29 L 515.95 145.63 L 522.2 162.18 L 528.45 179.70000000000002 L 534.7 197.92000000000002 L 540.95 216.54 L 547.2 235.27 L 553.45 253.83 L 559.7 271.93 L 565.95 289.27 L 572.2 305.6 L 572.2 395.6 L 565.95 379.27 L 559.7 361.93 L 553.45 343.83 L 547.2 325.27 L 540.95 306.54 L 534.7 287.92 L 528.45 269.7 L 522.2 252.18 L 515.95 235.63 L 509.7 220.29 L 503.45 206.42000000000002 L 497.2 194.23000000000002 L 490.95 183.9 L 484.7 175.61 L 478.45 169.48 L 472.2 165.6 L 465.95 164.03 L 459.7 164.81 L 453.45 167.92000000000002 L 447.2 173.3 L 440.95 180.88 L 434.7 190.54 L 428.45 202.12 L 422.2 215.45000000000002 L 415.95 230.32 L 409.7 246.49 L 403.45 263.72 L 397.2 281.73 L 390.95 300.25 L 384.7 318.98 L 378.45 337.63 L 372.2 355.91 L 365.95 373.54 L 359.7 390.24 L 353.45 405.75 L 347.2 419.83 L 340.95 432.26 L 334.7 442.84000000000003 L 328.45 451.41 L 322.2 457.84000000000003 L 315.95 462.02 L 309.7 463.89 L 303.45 463.43 L 297.2 460.63 L 290.95 455.54 L 284.7 448.25 L 278.45 438.86 L 272.2 427.52 L 265.95 414.41 L 259.7 399.73 L 253.45000000000002 383.72 L 247.20000000000002 366.62 L 240.95000000000002 348.69 L 234.70000000000002 330.23 L 228.45000000000002 311.51 L 222.20000000000002 292.83 L 215.95000000000002 274.48 L 209.70000000000002 256.75 L 203.45000000000002 239.91 L 197.20000000000002 224.23000000000002 L 190.95000000000002 209.95000000000002 L 184.70000000000002 197.29 L 178.45000000000002 186.45000000000002 L 172.20000000000002 177.61 L 165.95000000000002 170.89000000000001 L 159.70000000000002 166.4 L 153.45000000000002 164.22 L 147.20000000000002 164.38 L 140.95000000000002 166.87 L 134.7 171.65 L 128.45 178.66 L 122.2 187.78 L 115.95 198.87 L 109.7 211.75 L 103.45 226.24 L 97.2 242.09 L 90.95 259.06 L 84.7 276.89 L 78.45 295.3 L 72.2 314.0 Z" stroke="none" stroke-width="0" fill="#4682b4" fill-opacity="0.2" /><path d="M 72.2 269.0 L 78.45 250.3 L 84.7 231.89000000000001 L 90.95 214.06 L 97.2 197.09 L 103.45 181.24 L 109.7 166.75 L 115.95 153.87 L 122.2 142.78 L 128.45 133.66 L 134.7 126.65 L 140.95000000000002 121.87 L 147.20000000000002 119.38 L 153.45000000000002 119.22 L 159.70000000000002 121.4 L 165.95000000000002 125.89 L 172.20000000000002 132.61 L 178.45000000000002 141.45000000000002 L 184.70000000000002 152.29 L 190.95000000000002 164.95000000000002 L 197.20000000000002 179.23 L 203.45000000000002 194.91 L 209.70000000000002 211.75 L 215.95000000000002 229.48000000000002 L 222.20000000000002 247.83 L 228.45000000000002 266.51 L 234.70000000000002 285.23 L 240.95000000000002 303.69 L 247.20000000000002 321.62 L 253.45000000000002 338.72 L 259.7 354.73 L 265.95 369.41 L 272.2 382.52 L 278.45 393.86 L 284.7 403.25 L 290.95 410.54 L 297.2 415.63 L 303.45 418.43 L 309.7 418.89 L 315.95 417.02 L 322.2 412.84000000000003 L 328.45 406.41 L 334.7 397.84000000000003 L 340.95 387.26 L 347.2 374.83 L 353.45 360.75 L 359.7 345.24 L 365.95 328.54 L 372.2 310.91 L 378.45 292.63 L 384.7 273.98 L 390.95 255.25 L 397.2 236.73000000000002 L 403.45 218.72 L 409.7 201.49 L 415.95 185.32 L 422.2 170.45000000000002 L 428.45 157.12 L 434.7 145.54 L 440.95 135.88 L 447.2 128.3 L 453.45 122.92 L 459.7 119.81 L 465.95 119.03 L 472.2 120.60000000000001 L 478.45 124.48 L 484.7 130.61 L 490.95 138.9 L 497.2 149.23 L 503.45 161.42000000000002 L 509.7 175.29 L 515.95 190.63 L 522.2 207.18 L 528.45 224.70000000000002 L 534.7 242.92000000000002 L 540.95 261.54 L 547.2 280.27 L 553.45 298.83 L 559.7 316.93 L 565.95 334.27 L 572.2 350.6 " stroke="#4682b4" stroke-width="2" fill="none" /></svg>