<svg xmlns="http://www.w3.org/2000/svg" width="678.2" height="545" font-family="DejaVu Sans, Liberation Sans, Arial, sans-serif" fill="black"><rect width="100%" height="100%" fill="white" /><defs><clipPath id="kuva-clip-4"><rect x="63.800000000000004" y="44" width="600" height="450"/></clipPath></defs><line x1="188.8" y1="44" x2="188.8" y2="494" stroke="#cccccc" stroke-width="1" /><line x1="313.8" y1="44" x2="313.8" y2="494" stroke="#cccccc" stroke-width="1" /><line x1="438.8" y1="44" x2="438.8" y2="494" stroke="#cccccc" stroke-width="1" /><line x1="563.8000000000001" y1="44" x2="563.8000000000001" y2="494" stroke="#cccccc" stroke-width="1" /><line x1="63.800000000000004" y1="419" x2="663.8000000000001" y2="419" stroke="#cccccc" stroke-width="1" /><line x1="63.800000000000004" y1="344" x2="663.8000000000001" y2="344" stroke="#cccccc" stroke-width="1" /><line x1="63.800000000000004" y1="269" x2="663.8000000000001" y2="269" stroke="#cccccc" stroke-width="1" /><line x1="63.800000000000004" y1="194" x2="663.8000000000001" y2="194" stroke="#cccccc" stroke-width="1" /><line x1="63.800000000000004" y1="119" x2="663.8000000000001" y2="119" stroke="#cccccc" stroke-width="1" /><line x1="63.800000000000004" y1="44" x2="663.8000000000001" y2="44" stroke="#cccccc" stroke-width="1" /><line x1="63.800000000000004" y1="494" x2="663.8000000000001" y2="494" stroke="#000000" stroke-width="1" /><line x1="63.800000000000004" y1="44" x2="63.800000000000004" y2="494" stroke="#000000" stroke-width="1" /><line x1="63.800000000000004" y1="494" x2="63.800000000000004" y2="499" stroke="#000000" stroke-width="1" /><text x="63.800000000000004" y="511" font-size="12" text-anchor="middle">0</text><line x1="188.8" y1="494" x2="188.8" y2="499" stroke="#000000" stroke-width="1" /><text x="188.8" y="511" font-size="12" text-anchor="middle">2.5</text><line x1="313.8" y1="494" x2="313.8" y2="499" stroke="#000000" stroke-width="1" /><text x="313.8" y="511" font-size="12" text-anchor="middle">5</text><line x1="438.8" y1="494" x2="438.8" y2="499" stroke="#000000" stroke-width="1" /><text x="438.8" y="511" font-size="12" text-anchor="middle">7.5</text><line x1="563.8000000000001" y1="494" x2="563.8000000000001" y2="499" stroke="#000000" stroke-width="1" /><text x="563.8000000000001" y="511" font-size="12" text-anchor="middle">10</text><line x1="58.800000000000004" y1="494" x2="63.800000000000004" y2="494" stroke="#000000" stroke-width="1" /><text x="55.800000000000004" y="498.2" font-size="12" text-anchor="end">-1.5</text><line x1="58.800000000000004" y1="419" x2="63.800000000000004" y2="419" stroke="#000000" stroke-width="1" /><text x="55.800000000000004" y="423.2" font-size="12" text-anchor="end">-1</text><line x1="58.800000000000004" y1="344" x2="63.800000000000004" y2="344" stroke="#000000" stroke-width="1" /><text x="55.800000000000004" y="348.2" font-size="12" text-anchor="end">-0.5</text><line x1="58.800000000000004" y1="269" x2="63.800000000000004" y2="269" stroke="#000000" stroke-width="1" /><text x="55.800000000000004" y="273.2" font-size="12" text-anchor="end">0</text><line x1="58.800000000000004" y1="194" x2="63.800000000000004" y2="194" stroke="#000000" stroke-width="1" /><text x="55.800000000000004" y="198.20000000000002" font-size="12" text-anchor="end">0.5</text><line x1="58.800000000000004" y1="119" x2="63.800000000000004" y2="119" stroke="#000000" stroke-width="1" /><text x="55.800000000000004" y="123.2" font-size="12" text-anchor="end">1</text><line x1="58.800000000000004" y1="44" x2="63.800000000000004" y2="44" stroke="#000000" stroke-width="1" /><text x="55.800000000000004" y="48.2" font-size="12" text-anchor="end">1.5</text><text x="363.8" y="538" font-size="14" text-anchor="middle">X</text><text x="15" y="272.5" font-size="14" text-anchor="middle" transform="rotate(-90,15,272.5)">Y</text><text x="339.1" y="27.400000000000002" font-size="18" text-anchor="middle">Confidence Band</text><g clip-path="url(#kuva-clip-4)"><path d="M 63.800000000000004 224.0 L 70.05 205.3 L 76.3 186.89000000000001 L 82.55 169.06 L 88.8 152.09 L 95.05 136.24 L 101.3 121.75 L 107.55 108.87 L 113.8 97.78 L 120.05 88.66 L 126.3 81.65 L 132.55 76.87 L 138.8 74.38 L 145.05 74.22 L 151.3 76.4 L 157.55 80.89 L 163.8 87.61 L 170.05 96.45 L 176.3 107.29 L 182.55 119.95 L 188.8 134.23 L 195.05 149.91 L 201.3 166.75 L 207.55 184.48 L 213.8 202.83 L 220.05 221.51 L 226.3 240.23000000000002 L 232.55 258.69 L 238.8 276.62 L 245.05 293.72 L 251.3 309.73 L 257.55 324.41 L 263.8 337.52 L 270.05 348.86 L 276.3 358.25 L 282.55 365.54 L 288.8 370.63 L 295.05 373.43 L 301.3 373.89 L 307.55 372.02 L 313.8 367.84000000000003 L 320.05 361.41 L 326.3 352.84000000000003 L 332.55 342.26 L 338.8 329.83 L 345.05 315.75 L 351.3 300.24 L 357.55 283.54 L 363.8 265.91 L 370.05 247.63 L 376.3 228.98000000000002 L 382.55 210.25 L 388.8 191.73000000000002 L 395.05 173.72 L 401.3 156.49 L 407.55 140.32 L 413.8 125.45 L 420.05 112.12 L 426.3 100.54 L 432.55 90.88 L 438.8 83.3 L 445.05 77.92 L 451.3 74.81 L 457.55 74.03 L 463.8 75.60000000000001 L 470.05 79.48 L 476.3 85.61 L 482.55 93.9 L 488.8 104.23 L 495.05 116.42 L 501.3 130.29 L 507.55 145.63 L 513.8 162.18 L 520.05 179.70000000000002 L 526.3 197.92000000000002 L 532.55 216.54 L 538.8 235.27 L 545.05 253.83 L 551.3000000000001 271.93 L 557.5500000000001 289.27 L 563.8000000000001 305.6 L 563.8000000000001 395.6 L 557.5500000000001 379.27 L 551.3000000000001 361.93 L 545.05 343.83 L 538.8 325.27 L 532.55 306.54 L 526.3 287.92 L 520.05 269.7 L 513.8 252.18 L 507.55 235.63 L 501.3 220.29 L 495.05 206.42000000000002 L 488.8 194.23000000000002 L 482.55 183.9 L 476.3 175.61 L 470.05 169.48 L 463.8 165.6 L 457.55 164.03 L 451.3 164.81 L 445.05 167.92000000000002 L 438.8 173.3 L 432.55 180.88 L 426.3 190.54 L 420.05 202.12 L 413.8 215.45000000000002 L 407.55 230.32 L 401.3 246.49 L 395.05 263.72 L 388.8 281.73 L 382.55 300.25 L 376.3 318.98 L 370.05 337.63 L 363.8 355.91 L 357.55 373.54 L 351.3 390.24 L 345.05 405.75 L 338.8 419.83 L 332.55 432.26 L 326.3 442.84000000000003 L 320.05 451.41 L 313.8 457.84000000000003 L 307.55 462.02 L 301.3 463.89 L 295.05 463.43 L 288.8 460.63 L 282.55 455.54 L 276.3 448.25 L 270.05 438.86 L 263.8 427.52 L 257.55 414.41 L 251.3 399.73 L 245.05 383.72 L 238.8 366.62 L 232.55 348.69 L 226.3 330.23 L 220.05 311.51 L 213.8 292.83 L 207.55 274.48 L 201.3 256.75 L 195.05 239.91 L 188.8 224.23000000000002 L 182.55 209.95000000000002 L 176.3 197.29 L 170.05 186.45000000000002 L 163.8 177.61 L 157.55 170.89000000000001 L 151.3 166.4 L 145.05 164.22 L 138.8 164.38 L 132.55 166.87 L 126.3 171.65 L 120.05 178.66 L 113.8 187.78 L 107.55 198.87 L 101.3 211.75 L 95.05 226.24 L 88.8 242.09 L 82.55 259.06 L 76.3 276.89 L 70.05 295.3 L 63.800000000000004 314.0 Z" stroke="none" stroke-width="0" fill="#4682b4" fill-opacity="0.2" /><path d="M 63.800000000000004 269.0 L 70.05 250.3 L 76.3 231.89000000000001 L 82.55 214.06 L 88.8 197.09 L 95.05 181.24 L 101.3 166.75 L 107.55 153.87 L 113.8 142.78 L 120.05 133.66 L 126.3 126.65 L 132.55 121.87 L 138.8 119.38 L 145.05 119.22 L 151.3 121.4 L 157.55 125.89 L 163.8 132.61 L 170.05 141.45000000000002 L 176.3 152.29 L 182.55 164.95000000000002 L 188.8 179.23 L 195.05 194.91 L 201.3 211.75 L 207.55 229.48000000000002 L 213.8 247.83 L 220.05 266.51 L 226.3 285.23 L 232.55 303.69 L 238.8 321.62 L 245.05 338.72 L 251.3 354.73 L 257.55 369.41 L 263.8 382.52 L 270.05 393.86 L 276.3 403.25 L 282.55 410.54 L 288.8 415.63 L 295.05 418.43 L 301.3 418.89 L 307.55 417.02 L 313.8 412.84000000000003 L 320.05 406.41 L 326.3 397.84000000000003 L 332.55 387.26 L 338.8 374.83 L 345.05 360.75 L 351.3 345.24 L 357.55 328.54 L 363.8 310.91 L 370.05 292.63 L 376.3 273.98 L 382.55 255.25 L 388.8 236.73000000000002 L 395.05 218.72 L 401.3 201.49 L 407.55 185.32 L 413.8 170.45000000000002 L 420.05 157.12 L 426.3 145.54 L 432.55 135.88 L 438.8 128.3 L 445.05 122.92 L 451.3 119.81 L 457.55 119.03 L 463.8 120.60000000000001 L 470.05 124.48 L 476.3 130.61 L 482.55 138.9 L 488.8 149.23 L 495.05 161.42000000000002 L 501.3 175.29 L 507.55 190.63 L 513.8 207.18 L 520.05 224.70000000000002 L 526.3 242.92000000000002 L 532.55 261.54 L 538.8 280.27 L 545.05 298.83 L 551.3000000000001 316.93 L 557.5500000000001 334.27 L 563.8000000000001 350.6 " stroke="#4682b4" stroke-width="2" fill="none" /></g></svg>