<svg xmlns="http://www.w3.org/2000/svg" width="686.2" height="545" font-family="DejaVu Sans, Liberation Sans, Arial, sans-serif" fill="black"><rect width="100%" height="100%" fill="white" /><line x1="72.2" y1="494" x2="672.2" y2="494" stroke="#000000" stroke-width="1" /><line x1="72.2" y1="44" x2="72.2" y2="494" stroke="#000000" stroke-width="1" /><line x1="197.20000000000002" y1="44" x2="197.20000000000002" y2="494" stroke="#cccccc" stroke-width="1" /><line x1="322.2" y1="44" x2="322.2" y2="494" stroke="#cccccc" stroke-width="1" /><line x1="447.2" y1="44" x2="447.2" y2="494" stroke="#cccccc" stroke-width="1" /><line x1="572.2" y1="44" x2="572.2" y2="494" stroke="#cccccc" stroke-width="1" /><line x1="72.2" y1="419" x2="672.2" y2="419" stroke="#cccccc" stroke-width="1" /><line x1="72.2" y1="344" x2="672.2" y2="344" stroke="#cccccc" stroke-width="1" /><line x1="72.2" y1="269" x2="672.2" y2="269" stroke="#cccccc" stroke-width="1" /><line x1="72.2" y1="194" x2="672.2" y2="194" stroke="#cccccc" stroke-width="1" /><line x1="72.2" y1="119" x2="672.2" y2="119" stroke="#cccccc" stroke-width="1" /><line x1="72.2" y1="44" x2="672.2" y2="44" stroke="#cccccc" stroke-width="1" /><line x1="72.2" y1="494" x2="72.2" y2="499" stroke="#000000" stroke-width="1" /><text x="72.2" y="511" font-size="12" text-anchor="middle">0</text><line x1="197.20000000000002" y1="494" x2="197.20000000000002" y2="499" stroke="#000000" stroke-width="1" /><text x="197.20000000000002" y="511" font-size="12" text-anchor="middle">2.5</text><line x1="322.2" y1="494" x2="322.2" y2="499" stroke="#000000" stroke-width="1" /><text x="322.2" y="511" font-size="12" text-anchor="middle">5</text><line x1="447.2" y1="494" x2="447.2" y2="499" stroke="#000000" stroke-width="1" /><text x="447.2" y="511" font-size="12" text-anchor="middle">7.5</text><line x1="572.2" y1="494" x2="572.2" y2="499" stroke="#000000" stroke-width="1" /><text x="572.2" y="511" font-size="12" text-anchor="middle">10</text><line x1="67.2" y1="494" x2="72.2" y2="494" stroke="#000000" stroke-width="1" /><text x="64.2" y="498.2" font-size="12" text-anchor="end">-1.5</text><line x1="67.2" y1="419" x2="72.2" y2="419" stroke="#000000" stroke-width="1" /><text x="64.2" y="423.2" font-size="12" text-anchor="end">-1</text><line x1="67.2" y1="344" x2="72.2" y2="344" stroke="#000000" stroke-width="1" /><text x="64.2" y="348.2" font-size="12" text-anchor="end">-0.5</text><line x1="67.2" y1="269" x2="72.2" y2="269" stroke="#000000" stroke-width="1" /><text x="64.2" y="273.2" font-size="12" text-anchor="end">0</text><line x1="67.2" y1="194" x2="72.2" y2="194" stroke="#000000" stroke-width="1" /><text x="64.2" y="198.20000000000002" font-size="12" text-anchor="end">0.5</text><line x1="67.2" y1="119" x2="72.2" y2="119" stroke="#000000" stroke-width="1" /><text x="64.2" y="123.2" font-size="12" text-anchor="end">1</text><line x1="67.2" y1="44" x2="72.2" y2="44" stroke="#000000" stroke-width="1" /><text x="64.2" y="48.2" font-size="12" text-anchor="end">1.5</text><text x="372.2" y="538" font-size="14" text-anchor="middle">X</text><text x="7" y="272.5" font-size="14" text-anchor="middle" transform="rotate(-90,7,272.5)">Y</text><text x="372.2" y="22" font-size="18" text-anchor="middle">Line Plot</text><path d="M 72.2 269.0 L 77.2 254.02 L 82.2 239.20000000000002 L 87.2 224.67000000000002 L 92.2 210.59 L 97.2 197.09 L 102.2 184.3 L 107.2 172.37 L 112.2 161.4 L 117.2 151.5 L 122.2 142.78 L 127.2 135.32 L 132.2 129.19 L 137.20000000000002 124.47 L 142.20000000000002 121.18 L 147.20000000000002 119.38 L 152.20000000000002 119.06 L 157.20000000000002 120.25 L 162.20000000000002 122.92 L 167.20000000000002 127.05 L 172.20000000000002 132.61 L 177.20000000000002 139.52 L 182.20000000000002 147.73 L 187.20000000000002 157.14000000000001 L 192.20000000000002 167.68 L 197.20000000000002 179.23 L 202.20000000000002 191.67000000000002 L 207.20000000000002 204.89000000000001 L 212.20000000000002 218.75 L 217.20000000000002 233.11 L 222.20000000000002 247.83 L 227.20000000000002 262.76 L 232.20000000000002 277.76 L 237.20000000000002 292.66 L 242.20000000000002 307.33 L 247.20000000000002 321.62 L 252.20000000000002 335.38 L 257.2 348.48 L 262.2 360.78000000000003 L 267.2 372.16 L 272.2 382.52 L 277.2 391.74 L 282.2 399.74 L 287.2 406.42 L 292.2 411.74 L 297.2 415.63 L 302.2 418.05 L 307.2 418.99 L 312.2 418.42 L 317.2 416.37 L 322.2 412.84000000000003 L 327.2 407.87 L 332.2 401.52 L 337.2 393.84000000000003 L 342.2 384.91 L 347.2 374.83 L 352.2 363.69 L 357.2 351.6 L 362.2 338.69 L 367.2 325.08 L 372.2 310.91 L 377.2 296.32 L 382.2 281.46 L 387.2 266.48 L 392.2 251.52 L 397.2 236.73000000000002 L 402.2 222.27 L 407.2 208.27 L 412.2 194.88 L 417.2 182.23 L 422.2 170.45000000000002 L 427.2 159.65 L 432.2 149.95000000000002 L 437.2 141.43 L 442.2 134.19 L 447.2 128.3 L 452.2 123.81 L 457.2 120.77 L 462.2 119.22 L 467.2 119.16 L 472.2 120.60000000000001 L 477.2 123.52 L 482.2 127.89 L 487.2 133.67000000000002 L 492.2 140.81 L 497.2 149.23 L 502.2 158.84 L 507.2 169.55 L 512.2 181.26 L 517.2 193.85 L 522.2 207.18 L 527.2 221.14000000000001 L 532.2 235.57 L 537.2 250.33 L 542.2 265.28000000000003 L 547.2 280.27 L 552.2 295.15000000000003 L 557.2 309.76 L 562.2 323.97 L 567.2 337.63 L 572.2 350.6 " stroke="#4682b4" stroke-width="2" fill="none" /></svg>