<svg xmlns="http://www.w3.org/2000/svg" width="686.2" height="545" font-family="DejaVu Sans, Liberation Sans, Arial, sans-serif" fill="black"><rect width="100%" height="100%" fill="white" /><line x1="72.2" y1="494" x2="672.2" y2="494" stroke="#000000" stroke-width="1" /><line x1="72.2" y1="44" x2="72.2" y2="494" stroke="#000000" stroke-width="1" /><line x1="192.20000000000002" y1="44" x2="192.20000000000002" y2="494" stroke="#cccccc" stroke-width="1" /><line x1="312.2" y1="44" x2="312.2" y2="494" stroke="#cccccc" stroke-width="1" /><line x1="432.2" y1="44" x2="432.2" y2="494" stroke="#cccccc" stroke-width="1" /><line x1="552.2" y1="44" x2="552.2" y2="494" stroke="#cccccc" stroke-width="1" /><line x1="672.2" y1="44" x2="672.2" y2="494" stroke="#cccccc" stroke-width="1" /><line x1="72.2" y1="419" x2="672.2" y2="419" stroke="#cccccc" stroke-width="1" /><line x1="72.2" y1="344" x2="672.2" y2="344" stroke="#cccccc" stroke-width="1" /><line x1="72.2" y1="269" x2="672.2" y2="269" stroke="#cccccc" stroke-width="1" /><line x1="72.2" y1="194" x2="672.2" y2="194" stroke="#cccccc" stroke-width="1" /><line x1="72.2" y1="119" x2="672.2" y2="119" stroke="#cccccc" stroke-width="1" /><line x1="72.2" y1="44" x2="672.2" y2="44" stroke="#cccccc" stroke-width="1" /><line x1="72.2" y1="494" x2="72.2" y2="499" stroke="#000000" stroke-width="1" /><text x="72.2" y="511" font-size="12" text-anchor="middle">0</text><line x1="192.20000000000002" y1="494" x2="192.20000000000002" y2="499" stroke="#000000" stroke-width="1" /><text x="192.20000000000002" y="511" font-size="12" text-anchor="middle">2</text><line x1="312.2" y1="494" x2="312.2" y2="499" stroke="#000000" stroke-width="1" /><text x="312.2" y="511" font-size="12" text-anchor="middle">4</text><line x1="432.2" y1="494" x2="432.2" y2="499" stroke="#000000" stroke-width="1" /><text x="432.2" y="511" font-size="12" text-anchor="middle">6</text><line x1="552.2" y1="494" x2="552.2" y2="499" stroke="#000000" stroke-width="1" /><text x="552.2" y="511" font-size="12" text-anchor="middle">8</text><line x1="672.2" y1="494" x2="672.2" y2="499" stroke="#000000" stroke-width="1" /><text x="672.2" y="511" font-size="12" text-anchor="middle">10</text><line x1="67.2" y1="494" x2="72.2" y2="494" stroke="#000000" stroke-width="1" /><text x="64.2" y="498.2" font-size="12" text-anchor="end">-1.5</text><line x1="67.2" y1="419" x2="72.2" y2="419" stroke="#000000" stroke-width="1" /><text x="64.2" y="423.2" font-size="12" text-anchor="end">-1</text><line x1="67.2" y1="344" x2="72.2" y2="344" stroke="#000000" stroke-width="1" /><text x="64.2" y="348.2" font-size="12" text-anchor="end">-0.5</text><line x1="67.2" y1="269" x2="72.2" y2="269" stroke="#000000" stroke-width="1" /><text x="64.2" y="273.2" font-size="12" text-anchor="end">0</text><line x1="67.2" y1="194" x2="72.2" y2="194" stroke="#000000" stroke-width="1" /><text x="64.2" y="198.20000000000002" font-size="12" text-anchor="end">0.5</text><line x1="67.2" y1="119" x2="72.2" y2="119" stroke="#000000" stroke-width="1" /><text x="64.2" y="123.2" font-size="12" text-anchor="end">1</text><line x1="67.2" y1="44" x2="72.2" y2="44" stroke="#000000" stroke-width="1" /><text x="64.2" y="48.2" font-size="12" text-anchor="end">1.5</text><text x="372.2" y="538" font-size="14" text-anchor="middle">X</text><text x="7" y="272.5" font-size="14" text-anchor="middle" transform="rotate(-90,7,272.5)">Y</text><text x="372.2" y="22" font-size="18" text-anchor="middle">Error Bars</text><path d="M 72.2 269.0 L 132.2 161.4 L 192.20000000000002 119.06 L 252.20000000000002 167.68 L 312.2 277.76 L 372.2 382.52 L 432.2 418.42 L 492.2 363.69 L 552.2 251.52 " stroke="#4682b4" stroke-width="2" fill="none" /><line x1="72.2" y1="291.5" x2="72.2" y2="246.5" stroke="#4682b4" stroke-width="1" /><line x1="67.2" y1="291.5" x2="77.2" y2="291.5" stroke="#4682b4" stroke-width="1" /><line x1="67.2" y1="246.5" x2="77.2" y2="246.5" stroke="#4682b4" stroke-width="1" /><line x1="132.2" y1="191.4" x2="132.2" y2="131.4" stroke="#4682b4" stroke-width="1" /><line x1="127.2" y1="191.4" x2="137.20000000000002" y2="191.4" stroke="#4682b4" stroke-width="1" /><line x1="127.2" y1="131.4" x2="137.20000000000002" y2="131.4" stroke="#4682b4" stroke-width="1" /><line x1="192.20000000000002" y1="137.06" x2="192.20000000000002" y2="101.06" stroke="#4682b4" stroke-width="1" /><line x1="187.20000000000002" y1="137.06" x2="197.20000000000002" y2="137.06" stroke="#4682b4" stroke-width="1" /><line x1="187.20000000000002" y1="101.06" x2="197.20000000000002" y2="101.06" stroke="#4682b4" stroke-width="1" /><line x1="252.20000000000002" y1="194.68" x2="252.20000000000002" y2="140.68" stroke="#4682b4" stroke-width="1" /><line x1="247.20000000000002" y1="194.68" x2="257.2" y2="194.68" stroke="#4682b4" stroke-width="1" /><line x1="247.20000000000002" y1="140.68" x2="257.2" y2="140.68" stroke="#4682b4" stroke-width="1" /><line x1="312.2" y1="310.76" x2="312.2" y2="244.76" stroke="#4682b4" stroke-width="1" /><line x1="307.2" y1="310.76" x2="317.2" y2="310.76" stroke="#4682b4" stroke-width="1" /><line x1="307.2" y1="244.76" x2="317.2" y2="244.76" stroke="#4682b4" stroke-width="1" /><line x1="372.2" y1="403.52" x2="372.2" y2="361.52" stroke="#4682b4" stroke-width="1" /><line x1="367.2" y1="403.52" x2="377.2" y2="403.52" stroke="#4682b4" stroke-width="1" /><line x1="367.2" y1="361.52" x2="377.2" y2="361.52" stroke="#4682b4" stroke-width="1" /><line x1="432.2" y1="446.92" x2="432.2" y2="389.92" stroke="#4682b4" stroke-width="1" /><line x1="427.2" y1="446.92" x2="437.2" y2="446.92" stroke="#4682b4" stroke-width="1" /><line x1="427.2" y1="389.92" x2="437.2" y2="389.92" stroke="#4682b4" stroke-width="1" /><line x1="492.2" y1="387.69" x2="492.2" y2="339.69" stroke="#4682b4" stroke-width="1" /><line x1="487.2" y1="387.69" x2="497.2" y2="387.69" stroke="#4682b4" stroke-width="1" /><line x1="487.2" y1="339.69" x2="497.2" y2="339.69" stroke="#4682b4" stroke-width="1" /><line x1="552.2" y1="283.02" x2="552.2" y2="220.02" stroke="#4682b4" stroke-width="1" /><line x1="547.2" y1="283.02" x2="557.2" y2="283.02" stroke="#4682b4" stroke-width="1" /><line x1="547.2" y1="220.02" x2="557.2" y2="220.02" stroke="#4682b4" stroke-width="1" /></svg>