<svg xmlns="http://www.w3.org/2000/svg" width="678.2" height="545" font-family="DejaVu Sans, Liberation Sans, Arial, sans-serif" fill="black"><rect width="100%" height="100%" fill="white" /><defs><clipPath id="kuva-clip-5"><rect x="63.800000000000004" y="44" width="600" height="450"/></clipPath></defs><line x1="183.8" y1="44" x2="183.8" y2="494" stroke="#cccccc" stroke-width="1" /><line x1="303.8" y1="44" x2="303.8" y2="494" stroke="#cccccc" stroke-width="1" /><line x1="423.8" y1="44" x2="423.8" y2="494" stroke="#cccccc" stroke-width="1" /><line x1="543.8" y1="44" x2="543.8" y2="494" stroke="#cccccc" stroke-width="1" /><line x1="663.8000000000001" y1="44" x2="663.8000000000001" y2="494" stroke="#cccccc" stroke-width="1" /><line x1="63.800000000000004" y1="419" x2="663.8000000000001" y2="419" stroke="#cccccc" stroke-width="1" /><line x1="63.800000000000004" y1="344" x2="663.8000000000001" y2="344" stroke="#cccccc" stroke-width="1" /><line x1="63.800000000000004" y1="269" x2="663.8000000000001" y2="269" stroke="#cccccc" stroke-width="1" /><line x1="63.800000000000004" y1="194" x2="663.8000000000001" y2="194" stroke="#cccccc" stroke-width="1" /><line x1="63.800000000000004" y1="119" x2="663.8000000000001" y2="119" stroke="#cccccc" stroke-width="1" /><line x1="63.800000000000004" y1="44" x2="663.8000000000001" y2="44" stroke="#cccccc" stroke-width="1" /><line x1="63.800000000000004" y1="494" x2="663.8000000000001" y2="494" stroke="#000000" stroke-width="1" /><line x1="63.800000000000004" y1="44" x2="63.800000000000004" y2="494" stroke="#000000" stroke-width="1" /><line x1="63.800000000000004" y1="494" x2="63.800000000000004" y2="499" stroke="#000000" stroke-width="1" /><text x="63.800000000000004" y="511" font-size="12" text-anchor="middle">0</text><line x1="183.8" y1="494" x2="183.8" y2="499" stroke="#000000" stroke-width="1" /><text x="183.8" y="511" font-size="12" text-anchor="middle">2</text><line x1="303.8" y1="494" x2="303.8" y2="499" stroke="#000000" stroke-width="1" /><text x="303.8" y="511" font-size="12" text-anchor="middle">4</text><line x1="423.8" y1="494" x2="423.8" y2="499" stroke="#000000" stroke-width="1" /><text x="423.8" y="511" font-size="12" text-anchor="middle">6</text><line x1="543.8" y1="494" x2="543.8" y2="499" stroke="#000000" stroke-width="1" /><text x="543.8" y="511" font-size="12" text-anchor="middle">8</text><line x1="663.8000000000001" y1="494" x2="663.8000000000001" y2="499" stroke="#000000" stroke-width="1" /><text x="663.8000000000001" y="511" font-size="12" text-anchor="middle">10</text><line x1="58.800000000000004" y1="494" x2="63.800000000000004" y2="494" stroke="#000000" stroke-width="1" /><text x="55.800000000000004" y="498.2" font-size="12" text-anchor="end">-1.5</text><line x1="58.800000000000004" y1="419" x2="63.800000000000004" y2="419" stroke="#000000" stroke-width="1" /><text x="55.800000000000004" y="423.2" font-size="12" text-anchor="end">-1</text><line x1="58.800000000000004" y1="344" x2="63.800000000000004" y2="344" stroke="#000000" stroke-width="1" /><text x="55.800000000000004" y="348.2" font-size="12" text-anchor="end">-0.5</text><line x1="58.800000000000004" y1="269" x2="63.800000000000004" y2="269" stroke="#000000" stroke-width="1" /><text x="55.800000000000004" y="273.2" font-size="12" text-anchor="end">0</text><line x1="58.800000000000004" y1="194" x2="63.800000000000004" y2="194" stroke="#000000" stroke-width="1" /><text x="55.800000000000004" y="198.20000000000002" font-size="12" text-anchor="end">0.5</text><line x1="58.800000000000004" y1="119" x2="63.800000000000004" y2="119" stroke="#000000" stroke-width="1" /><text x="55.800000000000004" y="123.2" font-size="12" text-anchor="end">1</text><line x1="58.800000000000004" y1="44" x2="63.800000000000004" y2="44" stroke="#000000" stroke-width="1" /><text x="55.800000000000004" y="48.2" font-size="12" text-anchor="end">1.5</text><text x="363.8" y="538" font-size="14" text-anchor="middle">X</text><text x="15" y="272.5" font-size="14" text-anchor="middle" transform="rotate(-90,15,272.5)">Y</text><text x="339.1" y="27.400000000000002" font-size="18" text-anchor="middle">Error Bars</text><g clip-path="url(#kuva-clip-5)"><path d="M 63.800000000000004 269.0 L 123.8 161.4 L 183.8 119.06 L 243.8 167.68 L 303.8 277.76 L 363.8 382.52 L 423.8 418.42 L 483.8 363.69 L 543.8 251.52 " stroke="#4682b4" stroke-width="2" fill="none" /><line x1="63.800000000000004" y1="291.5" x2="63.800000000000004" y2="246.5" stroke="#4682b4" stroke-width="1" /><line x1="58.800000000000004" y1="291.5" x2="68.8" y2="291.5" stroke="#4682b4" stroke-width="1" /><line x1="58.800000000000004" y1="246.5" x2="68.8" y2="246.5" stroke="#4682b4" stroke-width="1" /><line x1="123.8" y1="191.4" x2="123.8" y2="131.4" stroke="#4682b4" stroke-width="1" /><line x1="118.8" y1="191.4" x2="128.8" y2="191.4" stroke="#4682b4" stroke-width="1" /><line x1="118.8" y1="131.4" x2="128.8" y2="131.4" stroke="#4682b4" stroke-width="1" /><line x1="183.8" y1="137.06" x2="183.8" y2="101.06" stroke="#4682b4" stroke-width="1" /><line x1="178.8" y1="137.06" x2="188.8" y2="137.06" stroke="#4682b4" stroke-width="1" /><line x1="178.8" y1="101.06" x2="188.8" y2="101.06" stroke="#4682b4" stroke-width="1" /><line x1="243.8" y1="194.68" x2="243.8" y2="140.68" stroke="#4682b4" stroke-width="1" /><line x1="238.8" y1="194.68" x2="248.8" y2="194.68" stroke="#4682b4" stroke-width="1" /><line x1="238.8" y1="140.68" x2="248.8" y2="140.68" stroke="#4682b4" stroke-width="1" /><line x1="303.8" y1="310.76" x2="303.8" y2="244.76" stroke="#4682b4" stroke-width="1" /><line x1="298.8" y1="310.76" x2="308.8" y2="310.76" stroke="#4682b4" stroke-width="1" /><line x1="298.8" y1="244.76" x2="308.8" y2="244.76" stroke="#4682b4" stroke-width="1" /><line x1="363.8" y1="403.52" x2="363.8" y2="361.52" stroke="#4682b4" stroke-width="1" /><line x1="358.8" y1="403.52" x2="368.8" y2="403.52" stroke="#4682b4" stroke-width="1" /><line x1="358.8" y1="361.52" x2="368.8" y2="361.52" stroke="#4682b4" stroke-width="1" /><line x1="423.8" y1="446.92" x2="423.8" y2="389.92" stroke="#4682b4" stroke-width="1" /><line x1="418.8" y1="446.92" x2="428.8" y2="446.92" stroke="#4682b4" stroke-width="1" /><line x1="418.8" y1="389.92" x2="428.8" y2="389.92" stroke="#4682b4" stroke-width="1" /><line x1="483.8" y1="387.69" x2="483.8" y2="339.69" stroke="#4682b4" stroke-width="1" /><line x1="478.8" y1="387.69" x2="488.8" y2="387.69" stroke="#4682b4" stroke-width="1" /><line x1="478.8" y1="339.69" x2="488.8" y2="339.69" stroke="#4682b4" stroke-width="1" /><line x1="543.8" y1="283.02" x2="543.8" y2="220.02" stroke="#4682b4" stroke-width="1" /><line x1="538.8" y1="283.02" x2="548.8000000000001" y2="283.02" stroke="#4682b4" stroke-width="1" /><line x1="538.8" y1="220.02" x2="548.8000000000001" y2="220.02" stroke="#4682b4" stroke-width="1" /></g></svg>