<svg xmlns="http://www.w3.org/2000/svg" width="678.2" height="545" font-family="DejaVu Sans, Liberation Sans, Arial, sans-serif" fill="black"><rect width="100%" height="100%" fill="white" /><defs><clipPath id="kuva-clip-2"><rect x="63.800000000000004" y="44" width="600" height="450"/></clipPath></defs><line x1="188.8" y1="44" x2="188.8" y2="494" stroke="#cccccc" stroke-width="1" /><line x1="313.8" y1="44" x2="313.8" y2="494" stroke="#cccccc" stroke-width="1" /><line x1="438.8" y1="44" x2="438.8" y2="494" stroke="#cccccc" stroke-width="1" /><line x1="563.8000000000001" y1="44" x2="563.8000000000001" y2="494" stroke="#cccccc" stroke-width="1" /><line x1="63.800000000000004" y1="419" x2="663.8000000000001" y2="419" stroke="#cccccc" stroke-width="1" /><line x1="63.800000000000004" y1="344" x2="663.8000000000001" y2="344" stroke="#cccccc" stroke-width="1" /><line x1="63.800000000000004" y1="269" x2="663.8000000000001" y2="269" stroke="#cccccc" stroke-width="1" /><line x1="63.800000000000004" y1="194" x2="663.8000000000001" y2="194" stroke="#cccccc" stroke-width="1" /><line x1="63.800000000000004" y1="119" x2="663.8000000000001" y2="119" stroke="#cccccc" stroke-width="1" /><line x1="63.800000000000004" y1="44" x2="663.8000000000001" y2="44" stroke="#cccccc" stroke-width="1" /><line x1="63.800000000000004" y1="494" x2="663.8000000000001" y2="494" stroke="#000000" stroke-width="1" /><line x1="63.800000000000004" y1="44" x2="63.800000000000004" y2="494" stroke="#000000" stroke-width="1" /><line x1="63.800000000000004" y1="494" x2="63.800000000000004" y2="499" stroke="#000000" stroke-width="1" /><text x="63.800000000000004" y="511" font-size="12" text-anchor="middle">0</text><line x1="188.8" y1="494" x2="188.8" y2="499" stroke="#000000" stroke-width="1" /><text x="188.8" y="511" font-size="12" text-anchor="middle">2.5</text><line x1="313.8" y1="494" x2="313.8" y2="499" stroke="#000000" stroke-width="1" /><text x="313.8" y="511" font-size="12" text-anchor="middle">5</text><line x1="438.8" y1="494" x2="438.8" y2="499" stroke="#000000" stroke-width="1" /><text x="438.8" y="511" font-size="12" text-anchor="middle">7.5</text><line x1="563.8000000000001" y1="494" x2="563.8000000000001" y2="499" stroke="#000000" stroke-width="1" /><text x="563.8000000000001" y="511" font-size="12" text-anchor="middle">10</text><line x1="58.800000000000004" y1="494" x2="63.800000000000004" y2="494" stroke="#000000" stroke-width="1" /><text x="55.800000000000004" y="498.2" font-size="12" text-anchor="end">-1.5</text><line x1="58.800000000000004" y1="419" x2="63.800000000000004" y2="419" stroke="#000000" stroke-width="1" /><text x="55.800000000000004" y="423.2" font-size="12" text-anchor="end">-1</text><line x1="58.800000000000004" y1="344" x2="63.800000000000004" y2="344" stroke="#000000" stroke-width="1" /><text x="55.800000000000004" y="348.2" font-size="12" text-anchor="end">-0.5</text><line x1="58.800000000000004" y1="269" x2="63.800000000000004" y2="269" stroke="#000000" stroke-width="1" /><text x="55.800000000000004" y="273.2" font-size="12" text-anchor="end">0</text><line x1="58.800000000000004" y1="194" x2="63.800000000000004" y2="194" stroke="#000000" stroke-width="1" /><text x="55.800000000000004" y="198.20000000000002" font-size="12" text-anchor="end">0.5</text><line x1="58.800000000000004" y1="119" x2="63.800000000000004" y2="119" stroke="#000000" stroke-width="1" /><text x="55.800000000000004" y="123.2" font-size="12" text-anchor="end">1</text><line x1="58.800000000000004" y1="44" x2="63.800000000000004" y2="44" stroke="#000000" stroke-width="1" /><text x="55.800000000000004" y="48.2" font-size="12" text-anchor="end">1.5</text><text x="363.8" y="538" font-size="14" text-anchor="middle">X</text><text x="15" y="272.5" font-size="14" text-anchor="middle" transform="rotate(-90,15,272.5)">Y</text><text x="363.8" y="22" font-size="18" text-anchor="middle">Area Plot</text><g clip-path="url(#kuva-clip-2)"><path d="M 63.800000000000004 269.0 L 68.8 254.02 L 73.8 239.20000000000002 L 78.8 224.67000000000002 L 83.8 210.59 L 88.8 197.09 L 93.8 184.3 L 98.8 172.37 L 103.8 161.4 L 108.8 151.5 L 113.8 142.78 L 118.8 135.32 L 123.8 129.19 L 128.8 124.47 L 133.8 121.18 L 138.8 119.38 L 143.8 119.06 L 148.8 120.25 L 153.8 122.92 L 158.8 127.05 L 163.8 132.61 L 168.8 139.52 L 173.8 147.73 L 178.8 157.14000000000001 L 183.8 167.68 L 188.8 179.23 L 193.8 191.67000000000002 L 198.8 204.89000000000001 L 203.8 218.75 L 208.8 233.11 L 213.8 247.83 L 218.8 262.76 L 223.8 277.76 L 228.8 292.66 L 233.8 307.33 L 238.8 321.62 L 243.8 335.38 L 248.8 348.48 L 253.8 360.78000000000003 L 258.8 372.16 L 263.8 382.52 L 268.8 391.74 L 273.8 399.74 L 278.8 406.42 L 283.8 411.74 L 288.8 415.63 L 293.8 418.05 L 298.8 418.99 L 303.8 418.42 L 308.8 416.37 L 313.8 412.84000000000003 L 318.8 407.87 L 323.8 401.52 L 328.8 393.84000000000003 L 333.8 384.91 L 338.8 374.83 L 343.8 363.69 L 348.8 351.6 L 353.8 338.69 L 358.8 325.08 L 363.8 310.91 L 368.8 296.32 L 373.8 281.46 L 378.8 266.48 L 383.8 251.52 L 388.8 236.73000000000002 L 393.8 222.27 L 398.8 208.27 L 403.8 194.88 L 408.8 182.23 L 413.8 170.45000000000002 L 418.8 159.65 L 423.8 149.95000000000002 L 428.8 141.43 L 433.8 134.19 L 438.8 128.3 L 443.8 123.81 L 448.8 120.77 L 453.8 119.22 L 458.8 119.16 L 463.8 120.60000000000001 L 468.8 123.52 L 473.8 127.89 L 478.8 133.67000000000002 L 483.8 140.81 L 488.8 149.23 L 493.8 158.84 L 498.8 169.55 L 503.8 181.26 L 508.8 193.85 L 513.8 207.18 L 518.8 221.14000000000001 L 523.8 235.57 L 528.8 250.33 L 533.8 265.28000000000003 L 538.8 280.27 L 543.8 295.15000000000003 L 548.8000000000001 309.76 L 553.8000000000001 323.97 L 558.8000000000001 337.63 L 563.8000000000001 350.6 L 563.8 269 L 63.8 269 Z" stroke="none" stroke-width="0" fill="#4682b4" fill-opacity="0.3" /><path d="M 63.800000000000004 269.0 L 68.8 254.02 L 73.8 239.20000000000002 L 78.8 224.67000000000002 L 83.8 210.59 L 88.8 197.09 L 93.8 184.3 L 98.8 172.37 L 103.8 161.4 L 108.8 151.5 L 113.8 142.78 L 118.8 135.32 L 123.8 129.19 L 128.8 124.47 L 133.8 121.18 L 138.8 119.38 L 143.8 119.06 L 148.8 120.25 L 153.8 122.92 L 158.8 127.05 L 163.8 132.61 L 168.8 139.52 L 173.8 147.73 L 178.8 157.14000000000001 L 183.8 167.68 L 188.8 179.23 L 193.8 191.67000000000002 L 198.8 204.89000000000001 L 203.8 218.75 L 208.8 233.11 L 213.8 247.83 L 218.8 262.76 L 223.8 277.76 L 228.8 292.66 L 233.8 307.33 L 238.8 321.62 L 243.8 335.38 L 248.8 348.48 L 253.8 360.78000000000003 L 258.8 372.16 L 263.8 382.52 L 268.8 391.74 L 273.8 399.74 L 278.8 406.42 L 283.8 411.74 L 288.8 415.63 L 293.8 418.05 L 298.8 418.99 L 303.8 418.42 L 308.8 416.37 L 313.8 412.84000000000003 L 318.8 407.87 L 323.8 401.52 L 328.8 393.84000000000003 L 333.8 384.91 L 338.8 374.83 L 343.8 363.69 L 348.8 351.6 L 353.8 338.69 L 358.8 325.08 L 363.8 310.91 L 368.8 296.32 L 373.8 281.46 L 378.8 266.48 L 383.8 251.52 L 388.8 236.73000000000002 L 393.8 222.27 L 398.8 208.27 L 403.8 194.88 L 408.8 182.23 L 413.8 170.45000000000002 L 418.8 159.65 L 423.8 149.95000000000002 L 428.8 141.43 L 433.8 134.19 L 438.8 128.3 L 443.8 123.81 L 448.8 120.77 L 453.8 119.22 L 458.8 119.16 L 463.8 120.60000000000001 L 468.8 123.52 L 473.8 127.89 L 478.8 133.67000000000002 L 483.8 140.81 L 488.8 149.23 L 493.8 158.84 L 498.8 169.55 L 503.8 181.26 L 508.8 193.85 L 513.8 207.18 L 518.8 221.14000000000001 L 523.8 235.57 L 528.8 250.33 L 533.8 265.28000000000003 L 538.8 280.27 L 543.8 295.15000000000003 L 548.8000000000001 309.76 L 553.8000000000001 323.97 L 558.8000000000001 337.63 L 563.8000000000001 350.6 " stroke="#4682b4" stroke-width="2" fill="none" /></g></svg>