<svg xmlns="http://www.w3.org/2000/svg" width="673.4" height="545" font-family="DejaVu Sans, Liberation Sans, Arial, sans-serif" fill="black"><rect width="100%" height="100%" fill="white" /><defs><clipPath id="kuva-clip-3"><rect x="59" y="44" width="600" height="450"/></clipPath></defs><line x1="209" y1="44" x2="209" y2="494" stroke="#cccccc" stroke-width="1" /><line x1="359" y1="44" x2="359" y2="494" stroke="#cccccc" stroke-width="1" /><line x1="509" y1="44" x2="509" y2="494" stroke="#cccccc" stroke-width="1" /><line x1="659" y1="44" x2="659" y2="494" stroke="#cccccc" stroke-width="1" /><line x1="59" y1="444" x2="659" y2="444" stroke="#cccccc" stroke-width="1" /><line x1="59" y1="344" x2="659" y2="344" stroke="#cccccc" stroke-width="1" /><line x1="59" y1="244" x2="659" y2="244" stroke="#cccccc" stroke-width="1" /><line x1="59" y1="144" x2="659" y2="144" stroke="#cccccc" stroke-width="1" /><line x1="59" y1="44" x2="659" y2="44" stroke="#cccccc" stroke-width="1" /><line x1="59" y1="494" x2="659" y2="494" stroke="#000000" stroke-width="1" /><line x1="59" y1="44" x2="59" y2="494" stroke="#000000" stroke-width="1" /><line x1="59" y1="494" x2="59" y2="499" stroke="#000000" stroke-width="1" /><text x="59" y="511" font-size="12" text-anchor="middle">0</text><line x1="209" y1="494" x2="209" y2="499" stroke="#000000" stroke-width="1" /><text x="209" y="511" font-size="12" text-anchor="middle">2</text><line x1="359" y1="494" x2="359" y2="499" stroke="#000000" stroke-width="1" /><text x="359" y="511" font-size="12" text-anchor="middle">4</text><line x1="509" y1="494" x2="509" y2="499" stroke="#000000" stroke-width="1" /><text x="509" y="511" font-size="12" text-anchor="middle">6</text><line x1="659" y1="494" x2="659" y2="499" stroke="#000000" stroke-width="1" /><text x="659" y="511" font-size="12" text-anchor="middle">8</text><line x1="54" y1="444" x2="59" y2="444" stroke="#000000" stroke-width="1" /><text x="51" y="448.2" font-size="12" text-anchor="end">2</text><line x1="54" y1="344" x2="59" y2="344" stroke="#000000" stroke-width="1" /><text x="51" y="348.2" font-size="12" text-anchor="end">4</text><line x1="54" y1="244" x2="59" y2="244" stroke="#000000" stroke-width="1" /><text x="51" y="248.20000000000002" font-size="12" text-anchor="end">6</text><line x1="54" y1="144" x2="59" y2="144" stroke="#000000" stroke-width="1" /><text x="51" y="148.20000000000002" font-size="12" text-anchor="end">8</text><line x1="54" y1="44" x2="59" y2="44" stroke="#000000" stroke-width="1" /><text x="51" y="48.2" font-size="12" text-anchor="end">10</text><text x="359" y="538" font-size="14" text-anchor="middle">X</text><text x="15" y="272.5" font-size="14" text-anchor="middle" transform="rotate(-90,15,272.5)">Y</text><text x="336.7" y="27.400000000000002" font-size="18" text-anchor="middle">Step Plot</text><g clip-path="url(#kuva-clip-3)"><path d="M 59.0 444.0 L 134.0 444.0 L 134.0 294.0 L 209.0 294.0 L 209.0 394.0 L 284.0 394.0 L 284.0 194.0 L 359.0 194.0 L 359.0 344.0 L 434.0 344.0 L 434.0 144.0 L 509.0 144.0 L 509.0 294.0 L 584.0 294.0 L 584.0 94.0 " stroke="#4682b4" stroke-width="2" fill="none" /></g></svg>