<svg xmlns="http://www.w3.org/2000/svg" width="781.2" height="545" font-family="DejaVu Sans, Liberation Sans, Arial, sans-serif" fill="black"><rect width="100%" height="100%" fill="white" /><defs><clipPath id="kuva-clip-1"><rect x="63.800000000000004" y="44" width="600" height="450"/></clipPath></defs><line x1="188.8" y1="44" x2="188.8" y2="494" stroke="#cccccc" stroke-width="1" /><line x1="313.8" y1="44" x2="313.8" y2="494" stroke="#cccccc" stroke-width="1" /><line x1="438.8" y1="44" x2="438.8" y2="494" stroke="#cccccc" stroke-width="1" /><line x1="563.8000000000001" y1="44" x2="563.8000000000001" y2="494" stroke="#cccccc" stroke-width="1" /><line x1="63.800000000000004" y1="419" x2="663.8000000000001" y2="419" stroke="#cccccc" stroke-width="1" /><line x1="63.800000000000004" y1="344" x2="663.8000000000001" y2="344" stroke="#cccccc" stroke-width="1" /><line x1="63.800000000000004" y1="269" x2="663.8000000000001" y2="269" stroke="#cccccc" stroke-width="1" /><line x1="63.800000000000004" y1="194" x2="663.8000000000001" y2="194" stroke="#cccccc" stroke-width="1" /><line x1="63.800000000000004" y1="119" x2="663.8000000000001" y2="119" stroke="#cccccc" stroke-width="1" /><line x1="63.800000000000004" y1="44" x2="663.8000000000001" y2="44" stroke="#cccccc" stroke-width="1" /><line x1="63.800000000000004" y1="494" x2="663.8000000000001" y2="494" stroke="#000000" stroke-width="1" /><line x1="63.800000000000004" y1="44" x2="63.800000000000004" y2="494" stroke="#000000" stroke-width="1" /><line x1="63.800000000000004" y1="494" x2="63.800000000000004" y2="499" stroke="#000000" stroke-width="1" /><text x="63.800000000000004" y="511" font-size="12" text-anchor="middle">0</text><line x1="188.8" y1="494" x2="188.8" y2="499" stroke="#000000" stroke-width="1" /><text x="188.8" y="511" font-size="12" text-anchor="middle">2.5</text><line x1="313.8" y1="494" x2="313.8" y2="499" stroke="#000000" stroke-width="1" /><text x="313.8" y="511" font-size="12" text-anchor="middle">5</text><line x1="438.8" y1="494" x2="438.8" y2="499" stroke="#000000" stroke-width="1" /><text x="438.8" y="511" font-size="12" text-anchor="middle">7.5</text><line x1="563.8000000000001" y1="494" x2="563.8000000000001" y2="499" stroke="#000000" stroke-width="1" /><text x="563.8000000000001" y="511" font-size="12" text-anchor="middle">10</text><line x1="58.800000000000004" y1="494" x2="63.800000000000004" y2="494" stroke="#000000" stroke-width="1" /><text x="55.800000000000004" y="498.2" font-size="12" text-anchor="end">-1.5</text><line x1="58.800000000000004" y1="419" x2="63.800000000000004" y2="419" stroke="#000000" stroke-width="1" /><text x="55.800000000000004" y="423.2" font-size="12" text-anchor="end">-1</text><line x1="58.800000000000004" y1="344" x2="63.800000000000004" y2="344" stroke="#000000" stroke-width="1" /><text x="55.800000000000004" y="348.2" font-size="12" text-anchor="end">-0.5</text><line x1="58.800000000000004" y1="269" x2="63.800000000000004" y2="269" stroke="#000000" stroke-width="1" /><text x="55.800000000000004" y="273.2" font-size="12" text-anchor="end">0</text><line x1="58.800000000000004" y1="194" x2="63.800000000000004" y2="194" stroke="#000000" stroke-width="1" /><text x="55.800000000000004" y="198.20000000000002" font-size="12" text-anchor="end">0.5</text><line x1="58.800000000000004" y1="119" x2="63.800000000000004" y2="119" stroke="#000000" stroke-width="1" /><text x="55.800000000000004" y="123.2" font-size="12" text-anchor="end">1</text><line x1="58.800000000000004" y1="44" x2="63.800000000000004" y2="44" stroke="#000000" stroke-width="1" /><text x="55.800000000000004" y="48.2" font-size="12" text-anchor="end">1.5</text><text x="363.8" y="538" font-size="14" text-anchor="middle">X</text><text x="15" y="272.5" font-size="14" text-anchor="middle" transform="rotate(-90,15,272.5)">Y</text><text x="363.8" y="22" font-size="18" text-anchor="middle">Line Styles</text><g clip-path="url(#kuva-clip-1)"><path d="M 63.800000000000004 269.0 L 70.05 250.3 L 76.3 231.89000000000001 L 82.55 214.06 L 88.8 197.09 L 95.05 181.24 L 101.3 166.75 L 107.55 153.87 L 113.8 142.78 L 120.05 133.66 L 126.3 126.65 L 132.55 121.87 L 138.8 119.38 L 145.05 119.22 L 151.3 121.4 L 157.55 125.89 L 163.8 132.61 L 170.05 141.45000000000002 L 176.3 152.29 L 182.55 164.95000000000002 L 188.8 179.23 L 195.05 194.91 L 201.3 211.75 L 207.55 229.48000000000002 L 213.8 247.83 L 220.05 266.51 L 226.3 285.23 L 232.55 303.69 L 238.8 321.62 L 245.05 338.72 L 251.3 354.73 L 257.55 369.41 L 263.8 382.52 L 270.05 393.86 L 276.3 403.25 L 282.55 410.54 L 288.8 415.63 L 295.05 418.43 L 301.3 418.89 L 307.55 417.02 L 313.8 412.84000000000003 L 320.05 406.41 L 326.3 397.84000000000003 L 332.55 387.26 L 338.8 374.83 L 345.05 360.75 L 351.3 345.24 L 357.55 328.54 L 363.8 310.91 L 370.05 292.63 L 376.3 273.98 L 382.55 255.25 L 388.8 236.73000000000002 L 395.05 218.72 L 401.3 201.49 L 407.55 185.32 L 413.8 170.45000000000002 L 420.05 157.12 L 426.3 145.54 L 432.55 135.88 L 438.8 128.3 L 445.05 122.92 L 451.3 119.81 L 457.55 119.03 L 463.8 120.60000000000001 L 470.05 124.48 L 476.3 130.61 L 482.55 138.9 L 488.8 149.23 L 495.05 161.42000000000002 L 501.3 175.29 L 507.55 190.63 L 513.8 207.18 L 520.05 224.70000000000002 L 526.3 242.92000000000002 L 532.55 261.54 L 538.8 280.27 L 545.05 298.83 L 551.3000000000001 316.93 L 557.5500000000001 334.27 L 563.8000000000001 350.6 " stroke="#4682b4" stroke-width="2" fill="none" /><path d="M 63.800000000000004 119.0 L 70.05 120.17 L 76.3 123.66 L 82.55 129.42000000000002 L 88.8 137.36 L 95.05 147.36 L 101.3 159.25 L 107.55 172.85 L 113.8 187.95000000000002 L 120.05 204.32 L 126.3 221.70000000000002 L 132.55 239.82 L 138.8 258.39 L 145.05 277.13 L 151.3 295.74 L 157.55 313.93 L 163.8 331.42 L 170.05 347.94 L 176.3 363.23 L 182.55 377.04 L 188.8 389.17 L 195.05 399.43 L 201.3 407.65000000000003 L 207.55 413.7 L 213.8 417.5 L 220.05 418.98 L 226.3 418.12 L 232.55 414.93 L 238.8 409.47 L 245.05 401.81 L 251.3 392.08 L 257.55 380.43 L 263.8 367.05 L 270.05 352.13 L 276.3 335.91 L 282.55 318.65000000000003 L 288.8 300.62 L 295.05 282.09000000000003 L 301.3 263.36 L 307.55 244.72 L 313.8 226.45000000000002 L 320.05 208.85 L 326.3 192.19 L 332.55 176.72 L 338.8 162.70000000000002 L 345.05 150.33 L 351.3 139.82 L 357.55 131.32 L 363.8 124.97 L 370.05 120.87 L 376.3 119.08 L 382.55 119.63 L 388.8 122.51 L 395.05 127.68 L 401.3 135.05 L 407.55 144.51 L 413.8 155.91 L 420.05 169.08 L 426.3 183.81 L 432.55 199.87 L 438.8 217.0 L 445.05 234.95000000000002 L 451.3 253.43 L 457.55 272.15 L 463.8 290.83 L 470.05 309.16 L 476.3 326.86 L 482.55 343.66 L 488.8 359.3 L 495.05 373.53000000000003 L 501.3 386.13 L 507.55 396.90000000000003 L 513.8 405.67 L 520.05 412.31 L 526.3 416.71000000000004 L 532.55 418.81 L 538.8 418.58 L 545.05 416.0 L 551.3000000000001 411.14 L 557.5500000000001 404.05 L 563.8000000000001 394.86 " stroke="#dc143c" stroke-width="2" fill="none" stroke-dasharray="8 4" /><path d="M 63.800000000000004 269.0 L 70.05 255.89000000000001 L 76.3 242.88 L 82.55 230.08 L 88.8 217.57 L 95.05 205.45000000000002 L 101.3 193.82 L 107.55 182.76 L 113.8 172.37 L 120.05 162.71 L 126.3 153.87 L 132.55 145.91 L 138.8 138.89000000000001 L 145.05 132.86 L 151.3 127.88000000000001 L 157.55 123.98 L 163.8 121.18 L 170.05 119.52 L 176.3 119.0 L 182.55 119.63 L 188.8 121.4 L 195.05 124.3 L 201.3 128.31 L 207.55 133.4 L 213.8 139.52 L 220.05 146.63 L 226.3 154.68 L 232.55 163.6 L 238.8 173.34 L 245.05 183.8 L 251.3 194.91 L 257.55 206.59 L 263.8 218.75 L 270.05 231.29 L 276.3 244.13 L 282.55 257.15 L 288.8 270.26 L 295.05 283.36 L 301.3 296.36 L 307.55 309.14 L 313.8 321.62 L 320.05 333.69 L 326.3 345.27 L 332.55 356.27 L 338.8 366.59000000000003 L 345.05 376.17 L 351.3 384.94 L 357.55 392.81 L 363.8 399.74 L 370.05 405.66 L 376.3 410.54 L 382.55 414.34000000000003 L 388.8 417.03000000000003 L 395.05 418.58 L 401.3 418.99 L 407.55 418.25 L 413.8 416.37 L 420.05 413.36 L 426.3 409.25 L 432.55 404.06 L 438.8 397.84000000000003 L 445.05 390.63 L 451.3 382.5 L 457.55 373.49 L 463.8 363.69 L 470.05 353.16 L 476.3 341.99 L 482.55 330.26 L 488.8 318.06 L 495.05 305.48 L 501.3 292.63 L 507.55 279.59000000000003 L 513.8 266.48 L 520.05 253.38 L 526.3 240.4 L 532.55 227.65 L 538.8 215.20000000000002 L 545.05 203.17000000000002 L 551.3000000000001 191.65 L 557.5500000000001 180.71 L 563.8000000000001 170.45000000000002 " stroke="seagreen" stroke-width="2" fill="none" stroke-dasharray="2 4" /><path d="M 63.800000000000004 119.0 L 70.05 119.57000000000001 L 76.3 121.29 L 82.55 124.14 L 88.8 128.09 L 95.05 133.13 L 101.3 139.20000000000002 L 107.55 146.27 L 113.8 154.27 L 120.05 163.16 L 126.3 172.85 L 132.55 183.28 L 138.8 194.36 L 145.05 206.02 L 151.3 218.16 L 157.55 230.68 L 163.8 243.5 L 170.05 256.52 L 176.3 269.63 L 182.55 282.74 L 188.8 295.74 L 195.05 308.53000000000003 L 201.3 321.03000000000003 L 207.55 333.12 L 213.8 344.73 L 220.05 355.75 L 226.3 366.11 L 232.55 375.73 L 238.8 384.53000000000003 L 245.05 392.45 L 251.3 399.43 L 257.55 405.40000000000003 L 263.8 410.33 L 270.05 414.18 L 276.3 416.92 L 282.55 418.53000000000003 L 288.8 418.99 L 295.05 418.31 L 301.3 416.48 L 307.55 413.53000000000003 L 313.8 409.47 L 320.05 404.33 L 326.3 398.16 L 332.55 391.0 L 338.8 382.91 L 345.05 373.95 L 351.3 364.18 L 357.55 353.68 L 363.8 342.54 L 370.05 330.83 L 376.3 318.65000000000003 L 382.55 306.09000000000003 L 388.8 293.25 L 395.05 280.22 L 401.3 267.11 L 407.55 254.01000000000002 L 413.8 241.02 L 420.05 228.25 L 426.3 215.79 L 432.55 203.74 L 438.8 192.19 L 445.05 181.22 L 451.3 170.93 L 457.55 161.38 L 463.8 152.67000000000002 L 470.05 144.84 L 476.3 137.96 L 482.55 132.08 L 488.8 127.25 L 495.05 123.5 L 501.3 120.87 L 507.55 119.37 L 513.8 119.02 L 520.05 119.82000000000001 L 526.3 121.75 L 532.55 124.81 L 538.8 128.98 L 545.05 134.22 L 551.3000000000001 140.48 L 557.5500000000001 147.74 L 563.8000000000001 155.91 " stroke="#ff8c00" stroke-width="2" fill="none" stroke-dasharray="8 4 2 4" /></g><rect x="668.8000000000001" y="34" width="103" height="92" fill="#ffffff" /><rect x="668.8000000000001" y="34" width="103" height="92" fill="none" stroke="#000000" stroke-width="1" /><text x="698.8000000000001" y="53.2" font-size="12" text-anchor="start">Solid</text><line x1="678.8000000000001" y1="49" x2="690.8000000000001" y2="49" stroke="#4682b4" stroke-width="2" /><text x="698.8000000000001" y="71.2" font-size="12" text-anchor="start">Dashed</text><line x1="678.8000000000001" y1="67" x2="690.8000000000001" y2="67" stroke="#dc143c" stroke-width="2" stroke-dasharray="8 4" /><text x="698.8000000000001" y="89.2" font-size="12" text-anchor="start">Dotted</text><line x1="678.8000000000001" y1="85" x2="690.8000000000001" y2="85" stroke="seagreen" stroke-width="2" stroke-dasharray="2 4" /><text x="698.8000000000001" y="107.2" font-size="12" text-anchor="start">Dash-dot</text><line x1="678.8000000000001" y1="103" x2="690.8000000000001" y2="103" stroke="#ff8c00" stroke-width="2" stroke-dasharray="8 4 2 4" /></svg>