<svg xmlns="http://www.w3.org/2000/svg" width="789.2" height="545" font-family="DejaVu Sans, Liberation Sans, Arial, sans-serif" fill="black"><rect width="100%" height="100%" fill="white" /><line x1="72.2" y1="494" x2="672.2" y2="494" stroke="#000000" stroke-width="1" /><line x1="72.2" y1="44" x2="72.2" y2="494" stroke="#000000" stroke-width="1" /><line x1="197.20000000000002" y1="44" x2="197.20000000000002" y2="494" stroke="#cccccc" stroke-width="1" /><line x1="322.2" y1="44" x2="322.2" y2="494" stroke="#cccccc" stroke-width="1" /><line x1="447.2" y1="44" x2="447.2" y2="494" stroke="#cccccc" stroke-width="1" /><line x1="572.2" y1="44" x2="572.2" y2="494" stroke="#cccccc" stroke-width="1" /><line x1="72.2" y1="419" x2="672.2" y2="419" stroke="#cccccc" stroke-width="1" /><line x1="72.2" y1="344" x2="672.2" y2="344" stroke="#cccccc" stroke-width="1" /><line x1="72.2" y1="269" x2="672.2" y2="269" stroke="#cccccc" stroke-width="1" /><line x1="72.2" y1="194" x2="672.2" y2="194" stroke="#cccccc" stroke-width="1" /><line x1="72.2" y1="119" x2="672.2" y2="119" stroke="#cccccc" stroke-width="1" /><line x1="72.2" y1="44" x2="672.2" y2="44" stroke="#cccccc" stroke-width="1" /><line x1="72.2" y1="494" x2="72.2" y2="499" stroke="#000000" stroke-width="1" /><text x="72.2" y="511" font-size="12" text-anchor="middle">0</text><line x1="197.20000000000002" y1="494" x2="197.20000000000002" y2="499" stroke="#000000" stroke-width="1" /><text x="197.20000000000002" y="511" font-size="12" text-anchor="middle">2.5</text><line x1="322.2" y1="494" x2="322.2" y2="499" stroke="#000000" stroke-width="1" /><text x="322.2" y="511" font-size="12" text-anchor="middle">5</text><line x1="447.2" y1="494" x2="447.2" y2="499" stroke="#000000" stroke-width="1" /><text x="447.2" y="511" font-size="12" text-anchor="middle">7.5</text><line x1="572.2" y1="494" x2="572.2" y2="499" stroke="#000000" stroke-width="1" /><text x="572.2" y="511" font-size="12" text-anchor="middle">10</text><line x1="67.2" y1="494" x2="72.2" y2="494" stroke="#000000" stroke-width="1" /><text x="64.2" y="498.2" font-size="12" text-anchor="end">-1.5</text><line x1="67.2" y1="419" x2="72.2" y2="419" stroke="#000000" stroke-width="1" /><text x="64.2" y="423.2" font-size="12" text-anchor="end">-1</text><line x1="67.2" y1="344" x2="72.2" y2="344" stroke="#000000" stroke-width="1" /><text x="64.2" y="348.2" font-size="12" text-anchor="end">-0.5</text><line x1="67.2" y1="269" x2="72.2" y2="269" stroke="#000000" stroke-width="1" /><text x="64.2" y="273.2" font-size="12" text-anchor="end">0</text><line x1="67.2" y1="194" x2="72.2" y2="194" stroke="#000000" stroke-width="1" /><text x="64.2" y="198.20000000000002" font-size="12" text-anchor="end">0.5</text><line x1="67.2" y1="119" x2="72.2" y2="119" stroke="#000000" stroke-width="1" /><text x="64.2" y="123.2" font-size="12" text-anchor="end">1</text><line x1="67.2" y1="44" x2="72.2" y2="44" stroke="#000000" stroke-width="1" /><text x="64.2" y="48.2" font-size="12" text-anchor="end">1.5</text><text x="372.2" y="538" font-size="14" text-anchor="middle">X</text><text x="7" y="272.5" font-size="14" text-anchor="middle" transform="rotate(-90,7,272.5)">Y</text><text x="372.2" y="22" font-size="18" text-anchor="middle">Line Styles</text><path d="M 72.2 269.0 L 78.45 250.3 L 84.7 231.89000000000001 L 90.95 214.06 L 97.2 197.09 L 103.45 181.24 L 109.7 166.75 L 115.95 153.87 L 122.2 142.78 L 128.45 133.66 L 134.7 126.65 L 140.95000000000002 121.87 L 147.20000000000002 119.38 L 153.45000000000002 119.22 L 159.70000000000002 121.4 L 165.95000000000002 125.89 L 172.20000000000002 132.61 L 178.45000000000002 141.45000000000002 L 184.70000000000002 152.29 L 190.95000000000002 164.95000000000002 L 197.20000000000002 179.23 L 203.45000000000002 194.91 L 209.70000000000002 211.75 L 215.95000000000002 229.48000000000002 L 222.20000000000002 247.83 L 228.45000000000002 266.51 L 234.70000000000002 285.23 L 240.95000000000002 303.69 L 247.20000000000002 321.62 L 253.45000000000002 338.72 L 259.7 354.73 L 265.95 369.41 L 272.2 382.52 L 278.45 393.86 L 284.7 403.25 L 290.95 410.54 L 297.2 415.63 L 303.45 418.43 L 309.7 418.89 L 315.95 417.02 L 322.2 412.84000000000003 L 328.45 406.41 L 334.7 397.84000000000003 L 340.95 387.26 L 347.2 374.83 L 353.45 360.75 L 359.7 345.24 L 365.95 328.54 L 372.2 310.91 L 378.45 292.63 L 384.7 273.98 L 390.95 255.25 L 397.2 236.73000000000002 L 403.45 218.72 L 409.7 201.49 L 415.95 185.32 L 422.2 170.45000000000002 L 428.45 157.12 L 434.7 145.54 L 440.95 135.88 L 447.2 128.3 L 453.45 122.92 L 459.7 119.81 L 465.95 119.03 L 472.2 120.60000000000001 L 478.45 124.48 L 484.7 130.61 L 490.95 138.9 L 497.2 149.23 L 503.45 161.42000000000002 L 509.7 175.29 L 515.95 190.63 L 522.2 207.18 L 528.45 224.70000000000002 L 534.7 242.92000000000002 L 540.95 261.54 L 547.2 280.27 L 553.45 298.83 L 559.7 316.93 L 565.95 334.27 L 572.2 350.6 " stroke="#4682b4" stroke-width="2" fill="none" /><path d="M 72.2 119.0 L 78.45 120.17 L 84.7 123.66 L 90.95 129.42000000000002 L 97.2 137.36 L 103.45 147.36 L 109.7 159.25 L 115.95 172.85 L 122.2 187.95000000000002 L 128.45 204.32 L 134.7 221.70000000000002 L 140.95000000000002 239.82 L 147.20000000000002 258.39 L 153.45000000000002 277.13 L 159.70000000000002 295.74 L 165.95000000000002 313.93 L 172.20000000000002 331.42 L 178.45000000000002 347.94 L 184.70000000000002 363.23 L 190.95000000000002 377.04 L 197.20000000000002 389.17 L 203.45000000000002 399.43 L 209.70000000000002 407.65000000000003 L 215.95000000000002 413.7 L 222.20000000000002 417.5 L 228.45000000000002 418.98 L 234.70000000000002 418.12 L 240.95000000000002 414.93 L 247.20000000000002 409.47 L 253.45000000000002 401.81 L 259.7 392.08 L 265.95 380.43 L 272.2 367.05 L 278.45 352.13 L 284.7 335.91 L 290.95 318.65000000000003 L 297.2 300.62 L 303.45 282.09000000000003 L 309.7 263.36 L 315.95 244.72 L 322.2 226.45000000000002 L 328.45 208.85 L 334.7 192.19 L 340.95 176.72 L 347.2 162.70000000000002 L 353.45 150.33 L 359.7 139.82 L 365.95 131.32 L 372.2 124.97 L 378.45 120.87 L 384.7 119.08 L 390.95 119.63 L 397.2 122.51 L 403.45 127.68 L 409.7 135.05 L 415.95 144.51 L 422.2 155.91 L 428.45 169.08 L 434.7 183.81 L 440.95 199.87 L 447.2 217.0 L 453.45 234.95000000000002 L 459.7 253.43 L 465.95 272.15 L 472.2 290.83 L 478.45 309.16 L 484.7 326.86 L 490.95 343.66 L 497.2 359.3 L 503.45 373.53000000000003 L 509.7 386.13 L 515.95 396.90000000000003 L 522.2 405.67 L 528.45 412.31 L 534.7 416.71000000000004 L 540.95 418.81 L 547.2 418.58 L 553.45 416.0 L 559.7 411.14 L 565.95 404.05 L 572.2 394.86 " stroke="#dc143c" stroke-width="2" fill="none" stroke-dasharray="8 4" /><path d="M 72.2 269.0 L 78.45 255.89000000000001 L 84.7 242.88 L 90.95 230.08 L 97.2 217.57 L 103.45 205.45000000000002 L 109.7 193.82 L 115.95 182.76 L 122.2 172.37 L 128.45 162.71 L 134.7 153.87 L 140.95000000000002 145.91 L 147.20000000000002 138.89000000000001 L 153.45000000000002 132.86 L 159.70000000000002 127.88000000000001 L 165.95000000000002 123.98 L 172.20000000000002 121.18 L 178.45000000000002 119.52 L 184.70000000000002 119.0 L 190.95000000000002 119.63 L 197.20000000000002 121.4 L 203.45000000000002 124.3 L 209.70000000000002 128.31 L 215.95000000000002 133.4 L 222.20000000000002 139.52 L 228.45000000000002 146.63 L 234.70000000000002 154.68 L 240.95000000000002 163.6 L 247.20000000000002 173.34 L 253.45000000000002 183.8 L 259.7 194.91 L 265.95 206.59 L 272.2 218.75 L 278.45 231.29 L 284.7 244.13 L 290.95 257.15 L 297.2 270.26 L 303.45 283.36 L 309.7 296.36 L 315.95 309.14 L 322.2 321.62 L 328.45 333.69 L 334.7 345.27 L 340.95 356.27 L 347.2 366.59000000000003 L 353.45 376.17 L 359.7 384.94 L 365.95 392.81 L 372.2 399.74 L 378.45 405.66 L 384.7 410.54 L 390.95 414.34000000000003 L 397.2 417.03000000000003 L 403.45 418.58 L 409.7 418.99 L 415.95 418.25 L 422.2 416.37 L 428.45 413.36 L 434.7 409.25 L 440.95 404.06 L 447.2 397.84000000000003 L 453.45 390.63 L 459.7 382.5 L 465.95 373.49 L 472.2 363.69 L 478.45 353.16 L 484.7 341.99 L 490.95 330.26 L 497.2 318.06 L 503.45 305.48 L 509.7 292.63 L 515.95 279.59000000000003 L 522.2 266.48 L 528.45 253.38 L 534.7 240.4 L 540.95 227.65 L 547.2 215.20000000000002 L 553.45 203.17000000000002 L 559.7 191.65 L 565.95 180.71 L 572.2 170.45000000000002 " stroke="seagreen" stroke-width="2" fill="none" stroke-dasharray="2 4" /><path d="M 72.2 119.0 L 78.45 119.57000000000001 L 84.7 121.29 L 90.95 124.14 L 97.2 128.09 L 103.45 133.13 L 109.7 139.20000000000002 L 115.95 146.27 L 122.2 154.27 L 128.45 163.16 L 134.7 172.85 L 140.95000000000002 183.28 L 147.20000000000002 194.36 L 153.45000000000002 206.02 L 159.70000000000002 218.16 L 165.95000000000002 230.68 L 172.20000000000002 243.5 L 178.45000000000002 256.52 L 184.70000000000002 269.63 L 190.95000000000002 282.74 L 197.20000000000002 295.74 L 203.45000000000002 308.53000000000003 L 209.70000000000002 321.03000000000003 L 215.95000000000002 333.12 L 222.20000000000002 344.73 L 228.45000000000002 355.75 L 234.70000000000002 366.11 L 240.95000000000002 375.73 L 247.20000000000002 384.53000000000003 L 253.45000000000002 392.45 L 259.7 399.43 L 265.95 405.40000000000003 L 272.2 410.33 L 278.45 414.18 L 284.7 416.92 L 290.95 418.53000000000003 L 297.2 418.99 L 303.45 418.31 L 309.7 416.48 L 315.95 413.53000000000003 L 322.2 409.47 L 328.45 404.33 L 334.7 398.16 L 340.95 391.0 L 347.2 382.91 L 353.45 373.95 L 359.7 364.18 L 365.95 353.68 L 372.2 342.54 L 378.45 330.83 L 384.7 318.65000000000003 L 390.95 306.09000000000003 L 397.2 293.25 L 403.45 280.22 L 409.7 267.11 L 415.95 254.01000000000002 L 422.2 241.02 L 428.45 228.25 L 434.7 215.79 L 440.95 203.74 L 447.2 192.19 L 453.45 181.22 L 459.7 170.93 L 465.95 161.38 L 472.2 152.67000000000002 L 478.45 144.84 L 484.7 137.96 L 490.95 132.08 L 497.2 127.25 L 503.45 123.5 L 509.7 120.87 L 515.95 119.37 L 522.2 119.02 L 528.45 119.82000000000001 L 534.7 121.75 L 540.95 124.81 L 547.2 128.98 L 553.45 134.22 L 559.7 140.48 L 565.95 147.74 L 572.2 155.91 " stroke="#ff8c00" stroke-width="2" fill="none" stroke-dasharray="8 4 2 4" /><rect x="677.2" y="34" width="103" height="92" fill="#ffffff" /><rect x="677.2" y="34" width="103" height="92" fill="none" stroke="#000000" stroke-width="1" /><text x="707.2" y="53.2" font-size="12" text-anchor="start">Solid</text><line x1="687.2" y1="49" x2="699.2" y2="49" stroke="#4682b4" stroke-width="2" /><text x="707.2" y="71.2" font-size="12" text-anchor="start">Dashed</text><line x1="687.2" y1="67" x2="699.2" y2="67" stroke="#dc143c" stroke-width="2" stroke-dasharray="8 4" /><text x="707.2" y="89.2" font-size="12" text-anchor="start">Dotted</text><line x1="687.2" y1="85" x2="699.2" y2="85" stroke="seagreen" stroke-width="2" stroke-dasharray="2 4" /><text x="707.2" y="107.2" font-size="12" text-anchor="start">Dash-dot</text><line x1="687.2" y1="103" x2="699.2" y2="103" stroke="#ff8c00" stroke-width="2" stroke-dasharray="8 4 2 4" /></svg>