<svg xmlns="http://www.w3.org/2000/svg" width="480" height="380" font-family="DejaVu Sans, Liberation Sans, Arial, sans-serif" fill="black"><rect width="100%" height="100%" fill="white" /><text x="240" y="27.400000000000002" font-size="18" text-anchor="middle">Sales Funnel</text><rect x="182.8" y="44" width="282.8" height="53.800000000000004" fill="#1f77b4" /><path d="M 182.80,97.80 L 465.60,97.80 L 359.27,101.80 L 289.13,101.80 Z" stroke="none" stroke-width="0" fill="#1f77b4" fill-opacity="0.4" /><text x="324.2" y="74.75" font-size="11" text-anchor="middle" fill="#ffffff">50000 (100.0%)</text><text x="176.8" y="74.75" font-size="11" text-anchor="end">Impressions</text><rect x="289.13" y="101.8" width="70.13" height="53.800000000000004" fill="#1f77b4" /><path d="M 289.13,155.60 L 359.27,155.60 L 333.25,159.60 L 315.15,159.60 Z" stroke="none" stroke-width="0" fill="#1f77b4" fill-opacity="0.4" /><text x="324.2" y="132.55" font-size="11" text-anchor="middle" fill="#ffffff">12400 (24.8%)</text><text x="283.13" y="132.55" font-size="11" text-anchor="end">Website visits</text><rect x="315.15000000000003" y="159.6" width="18.1" height="53.800000000000004" fill="#1f77b4" /><path d="M 315.15,213.40 L 333.25,213.40 L 327.31,217.40 L 321.09,217.40 Z" stroke="none" stroke-width="0" fill="#1f77b4" fill-opacity="0.4" /><text x="337.25" y="190.35" font-size="11" text-anchor="start" fill="#333333">3200 (6.4%)</text><text x="309.15000000000003" y="190.35" font-size="11" text-anchor="end">Sign-ups</text><rect x="321.09000000000003" y="217.4" width="6.22" height="53.800000000000004" fill="#1f77b4" /><path d="M 321.09,271.20 L 327.31,271.20 L 325.39,275.20 L 323.01,275.20 Z" stroke="none" stroke-width="0" fill="#1f77b4" fill-opacity="0.4" /><text x="331.31" y="248.15" font-size="11" text-anchor="start" fill="#333333">1100 (2.2%)</text><text x="315.09000000000003" y="248.15" font-size="11" text-anchor="end">Free trials</text><rect x="323.01" y="275.2" width="2.38" height="53.800000000000004" fill="#1f77b4" /><text x="329.39" y="305.95" font-size="11" text-anchor="start" fill="#333333">420 (0.8%)</text><text x="317.01" y="305.95" font-size="11" text-anchor="end">Paid customers</text></svg>