<svg xmlns="http://www.w3.org/2000/svg" width="560" height="360" font-family="DejaVu Sans, Liberation Sans, Arial, sans-serif" fill="black"><rect width="100%" height="100%" fill="white" /><text x="280" y="27.400000000000002" font-size="18" text-anchor="middle">Clinical Trial Enrollment</text><text x="184.25" y="38" font-size="12" text-anchor="middle" font-weight="bold">Treatment</text><text x="425.15000000000003" y="38" font-size="12" text-anchor="middle" font-weight="bold">Control</text><line x1="304.7" y1="44" x2="304.7" y2="309" stroke="#cccccc" stroke-width="1" stroke-dasharray="4,3" /><rect x="227" y="44" width="77.7" height="63.25" fill="#1f77b4" /><path d="M 227.00,107.25 L 304.70,107.25 L 304.70,111.25 L 252.25,111.25 Z" stroke="none" stroke-width="0" fill="#1f77b4" fill-opacity="0.4" /><text x="265.85" y="79.47" font-size="11" text-anchor="middle" fill="#ffffff">800</text><text x="221" y="79.47" font-size="11" text-anchor="end">Screened</text><rect x="304.7" y="44" width="73.82000000000001" height="63.25" fill="#1f77b4" /><path d="M 304.70,107.25 L 378.52,107.25 L 352.29,111.25 L 304.70,111.25 Z" stroke="none" stroke-width="0" fill="#1f77b4" fill-opacity="0.4" /><text x="341.61" y="79.47" font-size="11" text-anchor="middle" fill="#ffffff">760</text><text x="388.40000000000003" y="79.47" font-size="11" text-anchor="start">Screened</text><rect x="252.25" y="111.25" width="52.45" height="63.25" fill="#1f77b4" /><path d="M 252.25,174.50 L 304.70,174.50 L 304.70,178.50 L 265.85,178.50 Z" stroke="none" stroke-width="0" fill="#1f77b4" fill-opacity="0.4" /><text x="252.25" y="146.73" font-size="11" text-anchor="end" fill="#333333">540</text><text x="221" y="146.73" font-size="11" text-anchor="end">Eligible</text><rect x="304.7" y="111.25" width="47.59" height="63.25" fill="#1f77b4" /><path d="M 304.70,174.50 L 352.29,174.50 L 341.61,178.50 L 304.70,178.50 Z" stroke="none" stroke-width="0" fill="#1f77b4" fill-opacity="0.4" /><text x="356.29" y="146.73" font-size="11" text-anchor="start" fill="#333333">490</text><text x="388.40000000000003" y="146.73" font-size="11" text-anchor="start">Eligible</text><rect x="265.85" y="178.5" width="38.85" height="63.25" fill="#1f77b4" /><path d="M 265.85,241.75 L 304.70,241.75 L 304.70,245.75 L 269.74,245.75 Z" stroke="none" stroke-width="0" fill="#1f77b4" fill-opacity="0.4" /><text x="265.85" y="213.98000000000002" font-size="11" text-anchor="end" fill="#333333">400</text><text x="221" y="213.98000000000002" font-size="11" text-anchor="end">Enrolled</text><rect x="304.7" y="178.5" width="36.910000000000004" height="63.25" fill="#1f77b4" /><path d="M 304.70,241.75 L 341.61,241.75 L 338.69,245.75 L 304.70,245.75 Z" stroke="none" stroke-width="0" fill="#1f77b4" fill-opacity="0.4" /><text x="345.61" y="213.98000000000002" font-size="11" text-anchor="start" fill="#333333">380</text><text x="388.40000000000003" y="213.98000000000002" font-size="11" text-anchor="start">Enrolled</text><rect x="269.74" y="245.75" width="34.97" height="63.25" fill="#1f77b4" /><text x="269.74" y="281.23" font-size="11" text-anchor="end" fill="#333333">360</text><text x="221" y="281.23" font-size="11" text-anchor="end">Completed</text><rect x="304.7" y="245.75" width="33.99" height="63.25" fill="#1f77b4" /><text x="342.69" y="281.23" font-size="11" text-anchor="start" fill="#333333">350</text><text x="388.40000000000003" y="281.23" font-size="11" text-anchor="start">Completed</text></svg>