<svg xmlns="http://www.w3.org/2000/svg" width="600" height="180" font-family="DejaVu Sans, Liberation Sans, Arial, sans-serif" fill="black"><rect width="100%" height="100%" fill="white" /><defs><clipPath id="kuva-clip-0"><rect x="157.4" y="44" width="291.40000000000003" height="85"/></clipPath></defs><line x1="157.4" y1="129" x2="448.8" y2="129" stroke="#000000" stroke-width="1" /><line x1="157.4" y1="44" x2="157.4" y2="129" stroke="#000000" stroke-width="1" /><text x="149.4" y="116.2" font-size="12" text-anchor="end">Write-up</text><line x1="152.4" y1="112" x2="157.4" y2="112" stroke="#000000" stroke-width="1" /><text x="149.4" y="99.2" font-size="12" text-anchor="end">Analysis</text><line x1="152.4" y1="95" x2="157.4" y2="95" stroke="#000000" stroke-width="1" /><text x="149.4" y="82.2" font-size="12" text-anchor="end">Data collection</text><line x1="152.4" y1="78" x2="157.4" y2="78" stroke="#000000" stroke-width="1" /><text x="149.4" y="65.2" font-size="12" text-anchor="end">Literature review</text><line x1="152.4" y1="61" x2="157.4" y2="61" stroke="#000000" stroke-width="1" /><line x1="157.4" y1="129" x2="157.4" y2="134" stroke="#000000" stroke-width="1" /><text x="157.4" y="146" font-size="12" text-anchor="middle">0</text><line x1="240.66" y1="129" x2="240.66" y2="134" stroke="#000000" stroke-width="1" /><text x="240.66" y="146" font-size="12" text-anchor="middle">5</text><line x1="323.91" y1="129" x2="323.91" y2="134" stroke="#000000" stroke-width="1" /><text x="323.91" y="146" font-size="12" text-anchor="middle">10</text><line x1="407.17" y1="129" x2="407.17" y2="134" stroke="#000000" stroke-width="1" /><text x="407.17" y="146" font-size="12" text-anchor="middle">15</text><text x="303.1" y="173" font-size="14" text-anchor="middle">Week</text><text x="300" y="27.400000000000002" font-size="18" text-anchor="middle">Research Project</text><g clip-path="url(#kuva-clip-0)"><rect x="157.4" y="55.9" width="66.61" height="10.200000000000001" fill="#4682b4" fill-opacity="0.85" /><rect x="157.4" y="55.9" width="66.61" height="10.200000000000001" fill="none" stroke="rgba(0,0,0,0.18)" stroke-width="0.8" /><rect x="190.70000000000002" y="72.9" width="99.91" height="10.200000000000001" fill="#4682b4" fill-opacity="0.85" /><rect x="190.70000000000002" y="72.9" width="99.91" height="10.200000000000001" fill="none" stroke="rgba(0,0,0,0.18)" stroke-width="0.8" /><text x="240.66" y="81.85000000000001" font-size="11" text-anchor="middle" fill="#ffffff">Data collection</text><rect x="273.96" y="89.9" width="83.26" height="10.200000000000001" fill="#4682b4" fill-opacity="0.85" /><rect x="273.96" y="89.9" width="83.26" height="10.200000000000001" fill="none" stroke="rgba(0,0,0,0.18)" stroke-width="0.8" /><text x="315.59000000000003" y="98.85000000000001" font-size="11" text-anchor="middle" fill="#ffffff">Analysis</text><rect x="340.57" y="106.9" width="83.26" height="10.200000000000001" fill="#4682b4" fill-opacity="0.85" /><rect x="340.57" y="106.9" width="83.26" height="10.200000000000001" fill="none" stroke="rgba(0,0,0,0.18)" stroke-width="0.8" /><text x="382.19" y="115.85000000000001" font-size="11" text-anchor="middle" fill="#ffffff">Write-up</text></g><text x="229.01" y="64.85" font-size="11" text-anchor="start">Literature review</text></svg>