<svg xmlns="http://www.w3.org/2000/svg" width="620" height="300" font-family="DejaVu Sans, Liberation Sans, Arial, sans-serif" fill="black"><rect width="100%" height="100%" fill="white" /><defs><clipPath id="kuva-clip-1"><rect x="157.4" y="44" width="311.40000000000003" height="205"/></clipPath></defs><line x1="157.4" y1="249" x2="468.8" y2="249" stroke="#000000" stroke-width="1" /><line x1="157.4" y1="44" x2="157.4" y2="249" stroke="#000000" stroke-width="1" /><text x="149.4" y="232.70000000000002" font-size="12" text-anchor="end">Backend</text><line x1="152.4" y1="228.5" x2="157.4" y2="228.5" stroke="#000000" stroke-width="1" /><text x="149.4" y="212.20000000000002" font-size="12" text-anchor="end">Frontend</text><line x1="152.4" y1="208" x2="157.4" y2="208" stroke="#000000" stroke-width="1" /><text x="149.4" y="191.70000000000002" font-size="12" text-anchor="end">Build</text><line x1="152.4" y1="187.5" x2="157.4" y2="187.5" stroke="#000000" stroke-width="1" /><text x="149.4" y="171.20000000000002" font-size="12" text-anchor="end">Prototyping</text><line x1="152.4" y1="167" x2="157.4" y2="167" stroke="#000000" stroke-width="1" /><text x="149.4" y="150.70000000000002" font-size="12" text-anchor="end">Wireframes</text><line x1="152.4" y1="146.5" x2="157.4" y2="146.5" stroke="#000000" stroke-width="1" /><text x="149.4" y="130.2" font-size="12" text-anchor="end">Design</text><line x1="152.4" y1="126" x2="157.4" y2="126" stroke="#000000" stroke-width="1" /><text x="149.4" y="109.7" font-size="12" text-anchor="end">Competitive audit</text><line x1="152.4" y1="105.5" x2="157.4" y2="105.5" stroke="#000000" stroke-width="1" /><text x="149.4" y="89.2" font-size="12" text-anchor="end">User research</text><line x1="152.4" y1="85" x2="157.4" y2="85" stroke="#000000" stroke-width="1" /><text x="149.4" y="68.7" font-size="12" text-anchor="end">Discovery</text><line x1="152.4" y1="64.5" x2="157.4" y2="64.5" stroke="#000000" stroke-width="1" /><line x1="157.4" y1="249" x2="157.4" y2="254" stroke="#000000" stroke-width="1" /><text x="157.4" y="266" font-size="12" text-anchor="middle">0</text><line x1="219.68" y1="249" x2="219.68" y2="254" stroke="#000000" stroke-width="1" /><text x="219.68" y="266" font-size="12" text-anchor="middle">2.5</text><line x1="281.96" y1="249" x2="281.96" y2="254" stroke="#000000" stroke-width="1" /><text x="281.96" y="266" font-size="12" text-anchor="middle">5</text><line x1="344.24" y1="249" x2="344.24" y2="254" stroke="#000000" stroke-width="1" /><text x="344.24" y="266" font-size="12" text-anchor="middle">7.5</text><line x1="406.52" y1="249" x2="406.52" y2="254" stroke="#000000" stroke-width="1" /><text x="406.52" y="266" font-size="12" text-anchor="middle">10</text><line x1="468.8" y1="249" x2="468.8" y2="254" stroke="#000000" stroke-width="1" /><text x="468.8" y="266" font-size="12" text-anchor="middle">12.5</text><text x="313.1" y="293" font-size="14" text-anchor="middle">Week</text><text x="310" y="27.400000000000002" font-size="18" text-anchor="middle">Product Development</text><g clip-path="url(#kuva-clip-1)"><rect x="157.4" y="54.25" width="311.40000000000003" height="20.5" fill="#ebebeb" /><rect x="157.4" y="78.85000000000001" width="74.74" height="12.3" fill="#1f77b4" fill-opacity="0.85" /><rect x="157.4" y="78.85000000000001" width="74.74" height="12.3" fill="none" stroke="rgba(0,0,0,0.18)" stroke-width="0.8" /><rect x="182.31" y="99.35000000000001" width="74.74" height="12.3" fill="#1f77b4" fill-opacity="0.85" /><rect x="182.31" y="99.35000000000001" width="74.74" height="12.3" fill="none" stroke="rgba(0,0,0,0.18)" stroke-width="0.8" /><rect x="157.4" y="115.75" width="311.40000000000003" height="20.5" fill="#ebebeb" /><rect x="244.59" y="140.35" width="62.28" height="12.3" fill="#ff7f0e" fill-opacity="0.85" /><rect x="244.59" y="140.35" width="62.28" height="12.3" fill="none" stroke="rgba(0,0,0,0.18)" stroke-width="0.8" /><rect x="281.96" y="160.85" width="74.74" height="12.3" fill="#ff7f0e" fill-opacity="0.85" /><rect x="281.96" y="160.85" width="74.74" height="12.3" fill="none" stroke="rgba(0,0,0,0.18)" stroke-width="0.8" /><text x="319.33" y="170.85" font-size="11" text-anchor="middle" fill="#ffffff">Prototyping</text><rect x="157.4" y="177.25" width="311.40000000000003" height="20.5" fill="#ebebeb" /><rect x="331.78000000000003" y="201.85" width="124.56" height="12.3" fill="#2ca02c" fill-opacity="0.85" /><rect x="331.78000000000003" y="201.85" width="124.56" height="12.3" fill="none" stroke="rgba(0,0,0,0.18)" stroke-width="0.8" /><text x="394.06" y="211.85" font-size="11" text-anchor="middle" fill="#ffffff">Frontend</text><rect x="306.87" y="222.35" width="124.56" height="12.3" fill="#2ca02c" fill-opacity="0.85" /><rect x="306.87" y="222.35" width="124.56" height="12.3" fill="none" stroke="rgba(0,0,0,0.18)" stroke-width="0.8" /><text x="369.15000000000003" y="232.35" font-size="11" text-anchor="middle" fill="#ffffff">Backend</text></g><text x="237.14000000000001" y="88.85000000000001" font-size="11" text-anchor="start">User research</text><text x="262.05" y="109.35000000000001" font-size="11" text-anchor="start">Competitive audit</text><text x="311.87" y="150.35" font-size="11" text-anchor="start">Wireframes</text></svg>