<svg xmlns="http://www.w3.org/2000/svg" width="680" height="340" font-family="DejaVu Sans, Liberation Sans, Arial, sans-serif" fill="black"><rect width="100%" height="100%" fill="white" /><defs><clipPath id="kuva-clip-3"><rect x="128.6" y="44" width="426.6" height="245"/></clipPath></defs><line x1="128.6" y1="289" x2="555.2" y2="289" stroke="#000000" stroke-width="1" /><line x1="128.6" y1="44" x2="128.6" y2="289" stroke="#000000" stroke-width="1" /><text x="120.60000000000001" y="272.78000000000003" font-size="12" text-anchor="end">Public launch</text><line x1="123.60000000000001" y1="268.58" x2="128.6" y2="268.58" stroke="#000000" stroke-width="1" /><text x="120.60000000000001" y="252.37" font-size="12" text-anchor="end">Testing</text><line x1="123.60000000000001" y1="248.17000000000002" x2="128.6" y2="248.17000000000002" stroke="#000000" stroke-width="1" /><text x="120.60000000000001" y="231.95000000000002" font-size="12" text-anchor="end">Launch</text><line x1="123.60000000000001" y1="227.75" x2="128.6" y2="227.75" stroke="#000000" stroke-width="1" /><text x="120.60000000000001" y="211.53" font-size="12" text-anchor="end">Code freeze</text><line x1="123.60000000000001" y1="207.33" x2="128.6" y2="207.33" stroke="#000000" stroke-width="1" /><text x="120.60000000000001" y="191.12" font-size="12" text-anchor="end">Integration</text><line x1="123.60000000000001" y1="186.92000000000002" x2="128.6" y2="186.92000000000002" stroke="#000000" stroke-width="1" /><text x="120.60000000000001" y="170.70000000000002" font-size="12" text-anchor="end">Core build</text><line x1="123.60000000000001" y1="166.5" x2="128.6" y2="166.5" stroke="#000000" stroke-width="1" /><text x="120.60000000000001" y="150.28" font-size="12" text-anchor="end">Execution</text><line x1="123.60000000000001" y1="146.08" x2="128.6" y2="146.08" stroke="#000000" stroke-width="1" /><text x="120.60000000000001" y="129.87" font-size="12" text-anchor="end">Sign-off</text><line x1="123.60000000000001" y1="125.67" x2="128.6" y2="125.67" stroke="#000000" stroke-width="1" /><text x="120.60000000000001" y="109.45" font-size="12" text-anchor="end">Architecture</text><line x1="123.60000000000001" y1="105.25" x2="128.6" y2="105.25" stroke="#000000" stroke-width="1" /><text x="120.60000000000001" y="89.03" font-size="12" text-anchor="end">Requirements</text><line x1="123.60000000000001" y1="84.83" x2="128.6" y2="84.83" stroke="#000000" stroke-width="1" /><text x="120.60000000000001" y="68.62" font-size="12" text-anchor="end">Planning</text><line x1="123.60000000000001" y1="64.42" x2="128.6" y2="64.42" stroke="#000000" stroke-width="1" /><line x1="128.6" y1="289" x2="128.6" y2="294" stroke="#000000" stroke-width="1" /><text x="128.6" y="306" font-size="12" text-anchor="middle">0</text><line x1="199.70000000000002" y1="289" x2="199.70000000000002" y2="294" stroke="#000000" stroke-width="1" /><text x="199.70000000000002" y="306" font-size="12" text-anchor="middle">2.5</text><line x1="270.8" y1="289" x2="270.8" y2="294" stroke="#000000" stroke-width="1" /><text x="270.8" y="306" font-size="12" text-anchor="middle">5</text><line x1="341.90000000000003" y1="289" x2="341.90000000000003" y2="294" stroke="#000000" stroke-width="1" /><text x="341.90000000000003" y="306" font-size="12" text-anchor="middle">7.5</text><line x1="413" y1="289" x2="413" y2="294" stroke="#000000" stroke-width="1" /><text x="413" y="306" font-size="12" text-anchor="middle">10</text><line x1="484.1" y1="289" x2="484.1" y2="294" stroke="#000000" stroke-width="1" /><text x="484.1" y="306" font-size="12" text-anchor="middle">12.5</text><line x1="555.2" y1="289" x2="555.2" y2="294" stroke="#000000" stroke-width="1" /><text x="555.2" y="306" font-size="12" text-anchor="middle">15</text><text x="341.90000000000003" y="333" font-size="14" text-anchor="middle">Week</text><text x="340" y="27.400000000000002" font-size="18" text-anchor="middle">Software Release Plan</text><g clip-path="url(#kuva-clip-3)"><rect x="128.6" y="54.21" width="426.6" height="20.42" fill="#ebebeb" /><rect x="128.6" y="78.71000000000001" width="56.88" height="12.25" fill="#1f77b4" fill-opacity="0.85" /><rect x="128.6" y="78.71000000000001" width="56.88" height="12.25" fill="none" stroke="rgba(0,0,0,0.18)" stroke-width="0.8" /><rect x="157.04" y="99.13" width="56.88" height="12.25" fill="#1f77b4" fill-opacity="0.85" /><rect x="157.04" y="99.13" width="56.88" height="12.25" fill="none" stroke="rgba(0,0,0,0.18)" stroke-width="0.8" /><path d="M 213.92000000000002,118.67 L 220.92000000000002,125.67 L 213.92000000000002,132.67000000000002 L 206.92000000000002,125.67 Z" stroke="#1f77b4" stroke-width="1" fill="#1f77b4" /><rect x="128.6" y="135.87" width="426.6" height="20.42" fill="#ebebeb" /><rect x="213.92000000000002" y="160.38" width="170.64000000000001" height="12.25" fill="#ff7f0e" fill-opacity="0.85" /><rect x="213.92000000000002" y="160.38" width="170.64000000000001" height="12.25" fill="none" stroke="rgba(0,0,0,0.18)" stroke-width="0.8" /><text x="299.24" y="170.35" font-size="11" text-anchor="middle" fill="#ffffff">Core build</text><rect x="327.68" y="180.79" width="113.76" height="12.25" fill="#ff7f0e" fill-opacity="0.85" /><rect x="327.68" y="180.79" width="113.76" height="12.25" fill="none" stroke="rgba(0,0,0,0.18)" stroke-width="0.8" /><text x="384.56" y="190.77" font-size="11" text-anchor="middle" fill="#ffffff">Integration</text><path d="M 441.44,200.33 L 448.44,207.33 L 441.44,214.33 L 434.44,207.33 Z" stroke="#ff7f0e" stroke-width="1" fill="#ff7f0e" /><rect x="128.6" y="217.54" width="426.6" height="20.42" fill="#ebebeb" /><rect x="413" y="242.04" width="85.32000000000001" height="12.25" fill="#2ca02c" fill-opacity="0.85" /><rect x="413" y="242.04" width="85.32000000000001" height="12.25" fill="none" stroke="rgba(0,0,0,0.18)" stroke-width="0.8" /><text x="455.66" y="252.02" font-size="11" text-anchor="middle" fill="#ffffff">Testing</text><path d="M 526.76,261.58 L 533.76,268.58 L 526.76,275.58 L 519.76,268.58 Z" stroke="#4682b4" stroke-width="1" fill="#4682b4" /><line x1="327.68" y1="54.21" x2="327.68" y2="278.79" stroke="#cc3333" stroke-width="1.5" stroke-dasharray="5,3" /></g><text x="190.48" y="88.68" font-size="11" text-anchor="start">Requirements</text><text x="218.92000000000002" y="109.10000000000001" font-size="11" text-anchor="start">Architecture</text><text x="225.92000000000002" y="129.52" font-size="11" text-anchor="start" font-weight="bold" fill="#1f77b4">Sign-off</text><text x="453.44" y="211.18" font-size="11" text-anchor="start" font-weight="bold" fill="#ff7f0e">Code freeze</text><text x="538.76" y="272.43" font-size="11" text-anchor="start" font-weight="bold" fill="#4682b4">Public launch</text></svg>