<svg xmlns="http://www.w3.org/2000/svg" width="650" height="310" font-family="DejaVu Sans, Liberation Sans, Arial, sans-serif" fill="black"><rect width="100%" height="100%" fill="white" /><defs><clipPath id="kuva-clip-2"><rect x="121.4" y="44" width="410.40000000000003" height="215"/></clipPath></defs><line x1="121.4" y1="259" x2="531.8" y2="259" stroke="#000000" stroke-width="1" /><line x1="121.4" y1="44" x2="121.4" y2="259" stroke="#000000" stroke-width="1" /><text x="113.4" y="241.70000000000002" font-size="12" text-anchor="end">Performance</text><line x1="116.4" y1="237.5" x2="121.4" y2="237.5" stroke="#000000" stroke-width="1" /><text x="113.4" y="220.20000000000002" font-size="12" text-anchor="end">Mobile app</text><line x1="116.4" y1="216" x2="121.4" y2="216" stroke="#000000" stroke-width="1" /><text x="113.4" y="198.70000000000002" font-size="12" text-anchor="end">Q3</text><line x1="116.4" y1="194.5" x2="121.4" y2="194.5" stroke="#000000" stroke-width="1" /><text x="113.4" y="177.20000000000002" font-size="12" text-anchor="end">Reporting</text><line x1="116.4" y1="173" x2="121.4" y2="173" stroke="#000000" stroke-width="1" /><text x="113.4" y="155.70000000000002" font-size="12" text-anchor="end">Dashboard</text><line x1="116.4" y1="151.5" x2="121.4" y2="151.5" stroke="#000000" stroke-width="1" /><text x="113.4" y="134.2" font-size="12" text-anchor="end">Q2</text><line x1="116.4" y1="130" x2="121.4" y2="130" stroke="#000000" stroke-width="1" /><text x="113.4" y="112.7" font-size="12" text-anchor="end">Auth service</text><line x1="116.4" y1="108.5" x2="121.4" y2="108.5" stroke="#000000" stroke-width="1" /><text x="113.4" y="91.2" font-size="12" text-anchor="end">API design</text><line x1="116.4" y1="87" x2="121.4" y2="87" stroke="#000000" stroke-width="1" /><text x="113.4" y="69.7" font-size="12" text-anchor="end">Q1</text><line x1="116.4" y1="65.5" x2="121.4" y2="65.5" stroke="#000000" stroke-width="1" /><line x1="121.4" y1="259" x2="121.4" y2="264" stroke="#000000" stroke-width="1" /><text x="121.4" y="276" font-size="12" text-anchor="middle">0</text><line x1="203.48000000000002" y1="259" x2="203.48000000000002" y2="264" stroke="#000000" stroke-width="1" /><text x="203.48000000000002" y="276" font-size="12" text-anchor="middle">2.5</text><line x1="285.56" y1="259" x2="285.56" y2="264" stroke="#000000" stroke-width="1" /><text x="285.56" y="276" font-size="12" text-anchor="middle">5</text><line x1="367.64" y1="259" x2="367.64" y2="264" stroke="#000000" stroke-width="1" /><text x="367.64" y="276" font-size="12" text-anchor="middle">7.5</text><line x1="449.72" y1="259" x2="449.72" y2="264" stroke="#000000" stroke-width="1" /><text x="449.72" y="276" font-size="12" text-anchor="middle">10</text><line x1="531.8" y1="259" x2="531.8" y2="264" stroke="#000000" stroke-width="1" /><text x="531.8" y="276" font-size="12" text-anchor="middle">12.5</text><text x="326.6" y="303" font-size="14" text-anchor="middle">Week</text><text x="325" y="27.400000000000002" font-size="18" text-anchor="middle">Engineering Roadmap — progress at week 5.5</text><g clip-path="url(#kuva-clip-2)"><rect x="121.4" y="54.75" width="410.40000000000003" height="21.5" fill="#ebebeb" /><rect x="121.4" y="80.55" width="98.5" height="12.9" fill="#1f77b4" fill-opacity="0.85" /><rect x="121.4" y="80.55" width="98.5" height="12.9" fill="#1f77b4" fill-opacity="1" /><line x1="219.9" y1="80.55" x2="219.9" y2="93.45" stroke="rgba(0,0,0,0.25)" stroke-width="1" /><rect x="121.4" y="80.55" width="98.5" height="12.9" fill="none" stroke="rgba(0,0,0,0.18)" stroke-width="0.8" /><text x="170.65" y="90.85000000000001" font-size="11" text-anchor="middle" fill="#ffffff">API design</text><rect x="154.23" y="102.05" width="98.5" height="12.9" fill="#1f77b4" fill-opacity="0.85" /><rect x="154.23" y="102.05" width="98.5" height="12.9" fill="#1f77b4" fill-opacity="1" /><line x1="252.73000000000002" y1="102.05" x2="252.73000000000002" y2="114.95" stroke="rgba(0,0,0,0.25)" stroke-width="1" /><rect x="154.23" y="102.05" width="98.5" height="12.9" fill="none" stroke="rgba(0,0,0,0.18)" stroke-width="0.8" /><text x="203.48000000000002" y="112.35000000000001" font-size="11" text-anchor="middle" fill="#ffffff">Auth service</text><rect x="121.4" y="119.25" width="410.40000000000003" height="21.5" fill="#ebebeb" /><rect x="219.9" y="145.05" width="131.33" height="12.9" fill="#ff7f0e" fill-opacity="0.85" /><rect x="219.9" y="145.05" width="85.36" height="12.9" fill="#ff7f0e" fill-opacity="1" /><line x1="305.26" y1="145.05" x2="305.26" y2="157.95000000000002" stroke="rgba(0,0,0,0.25)" stroke-width="1" /><rect x="219.9" y="145.05" width="131.33" height="12.9" fill="none" stroke="rgba(0,0,0,0.18)" stroke-width="0.8" /><text x="285.56" y="155.35" font-size="11" text-anchor="middle" fill="#ffffff">Dashboard</text><rect x="252.73000000000002" y="166.55" width="131.33" height="12.9" fill="#ff7f0e" fill-opacity="0.85" /><rect x="252.73000000000002" y="166.55" width="32.83" height="12.9" fill="#ff7f0e" fill-opacity="1" /><line x1="285.56" y1="166.55" x2="285.56" y2="179.45000000000002" stroke="rgba(0,0,0,0.25)" stroke-width="1" /><rect x="252.73000000000002" y="166.55" width="131.33" height="12.9" fill="none" stroke="rgba(0,0,0,0.18)" stroke-width="0.8" /><text x="318.39" y="176.85" font-size="11" text-anchor="middle" fill="#ffffff">Reporting</text><rect x="121.4" y="183.75" width="410.40000000000003" height="21.5" fill="#ebebeb" /><rect x="351.22" y="209.55" width="131.33" height="12.9" fill="#2ca02c" fill-opacity="0.85" /><rect x="351.22" y="209.55" width="131.33" height="12.9" fill="none" stroke="rgba(0,0,0,0.18)" stroke-width="0.8" /><text x="416.89" y="219.85" font-size="11" text-anchor="middle" fill="#ffffff">Mobile app</text><rect x="384.06" y="231.05" width="131.33" height="12.9" fill="#2ca02c" fill-opacity="0.85" /><rect x="384.06" y="231.05" width="131.33" height="12.9" fill="none" stroke="rgba(0,0,0,0.18)" stroke-width="0.8" /><text x="449.72" y="241.35" font-size="11" text-anchor="middle" fill="#ffffff">Performance</text><line x1="301.98" y1="54.75" x2="301.98" y2="248.25" stroke="#cc3333" stroke-width="1.5" stroke-dasharray="5,3" /></g></svg>