<svg xmlns="http://www.w3.org/2000/svg" width="800" height="520" font-family="DejaVu Sans, Liberation Sans, Arial, sans-serif" fill="black"><rect width="100%" height="100%" fill="white" /><defs><clipPath id="kuva-clip-4"><rect x="179" y="44" width="450" height="425"/></clipPath></defs><line x1="179" y1="469" x2="629" y2="469" stroke="#000000" stroke-width="1" /><line x1="179" y1="44" x2="179" y2="469" stroke="#000000" stroke-width="1" /><text x="171" y="451.95" font-size="12" text-anchor="end">Submission</text><line x1="174" y1="447.75" x2="179" y2="447.75" stroke="#000000" stroke-width="1" /><text x="171" y="430.7" font-size="12" text-anchor="end">Primary endpoint</text><line x1="174" y1="426.5" x2="179" y2="426.5" stroke="#000000" stroke-width="1" /><text x="171" y="409.45" font-size="12" text-anchor="end">Report writing</text><line x1="174" y1="405.25" x2="179" y2="405.25" stroke="#000000" stroke-width="1" /><text x="171" y="388.2" font-size="12" text-anchor="end">Statistical analysis</text><line x1="174" y1="384" x2="179" y2="384" stroke="#000000" stroke-width="1" /><text x="171" y="366.95" font-size="12" text-anchor="end">Data lock</text><line x1="174" y1="362.75" x2="179" y2="362.75" stroke="#000000" stroke-width="1" /><text x="171" y="345.7" font-size="12" text-anchor="end">Analysis</text><line x1="174" y1="341.5" x2="179" y2="341.5" stroke="#000000" stroke-width="1" /><text x="171" y="324.45" font-size="12" text-anchor="end">Interim analysis</text><line x1="174" y1="320.25" x2="179" y2="320.25" stroke="#000000" stroke-width="1" /><text x="171" y="303.2" font-size="12" text-anchor="end">Arm B (n=150)</text><line x1="174" y1="299" x2="179" y2="299" stroke="#000000" stroke-width="1" /><text x="171" y="281.95" font-size="12" text-anchor="end">Arm A (n=150)</text><line x1="174" y1="277.75" x2="179" y2="277.75" stroke="#000000" stroke-width="1" /><text x="171" y="260.7" font-size="12" text-anchor="end">Treatment</text><line x1="174" y1="256.5" x2="179" y2="256.5" stroke="#000000" stroke-width="1" /><text x="171" y="239.45000000000002" font-size="12" text-anchor="end">Enrollment</text><line x1="174" y1="235.25" x2="179" y2="235.25" stroke="#000000" stroke-width="1" /><text x="171" y="218.20000000000002" font-size="12" text-anchor="end">Screening</text><line x1="174" y1="214" x2="179" y2="214" stroke="#000000" stroke-width="1" /><text x="171" y="196.95000000000002" font-size="12" text-anchor="end">Recruitment</text><line x1="174" y1="192.75" x2="179" y2="192.75" stroke="#000000" stroke-width="1" /><text x="171" y="175.70000000000002" font-size="12" text-anchor="end">Trial start</text><line x1="174" y1="171.5" x2="179" y2="171.5" stroke="#000000" stroke-width="1" /><text x="171" y="154.45000000000002" font-size="12" text-anchor="end">Site selection</text><line x1="174" y1="150.25" x2="179" y2="150.25" stroke="#000000" stroke-width="1" /><text x="171" y="133.2" font-size="12" text-anchor="end">IRB approval</text><line x1="174" y1="129" x2="179" y2="129" stroke="#000000" stroke-width="1" /><text x="171" y="111.95" font-size="12" text-anchor="end">Protocol writing</text><line x1="174" y1="107.75" x2="179" y2="107.75" stroke="#000000" stroke-width="1" /><text x="171" y="90.7" font-size="12" text-anchor="end">Pre-trial</text><line x1="174" y1="86.5" x2="179" y2="86.5" stroke="#000000" stroke-width="1" /><line x1="179" y1="469" x2="179" y2="474" stroke="#000000" stroke-width="1" /><text x="179" y="486" font-size="12" text-anchor="middle">0</text><line x1="291.5" y1="469" x2="291.5" y2="474" stroke="#000000" stroke-width="1" /><text x="291.5" y="486" font-size="12" text-anchor="middle">10</text><line x1="404" y1="469" x2="404" y2="474" stroke="#000000" stroke-width="1" /><text x="404" y="486" font-size="12" text-anchor="middle">20</text><line x1="516.5" y1="469" x2="516.5" y2="474" stroke="#000000" stroke-width="1" /><text x="516.5" y="486" font-size="12" text-anchor="middle">30</text><line x1="629" y1="469" x2="629" y2="474" stroke="#000000" stroke-width="1" /><text x="629" y="486" font-size="12" text-anchor="middle">40</text><text x="404" y="513" font-size="14" text-anchor="middle">Month</text><text x="400" y="27.400000000000002" font-size="18" text-anchor="middle">Phase III Clinical Trial Timeline</text><g clip-path="url(#kuva-clip-4)"><rect x="179" y="75.88" width="450" height="21.25" fill="#ebebeb" /><rect x="179" y="101.91" width="33.75" height="11.69" fill="#1f77b4" fill-opacity="0.85" /><rect x="179" y="101.91" width="33.75" height="11.69" fill="#1f77b4" fill-opacity="1" /><line x1="212.75" y1="101.91" x2="212.75" y2="113.59" stroke="rgba(0,0,0,0.25)" stroke-width="1" /><rect x="179" y="101.91" width="33.75" height="11.69" fill="none" stroke="rgba(0,0,0,0.18)" stroke-width="0.8" /><rect x="201.5" y="123.16" width="33.75" height="11.69" fill="#1f77b4" fill-opacity="0.85" /><rect x="201.5" y="123.16" width="33.75" height="11.69" fill="#1f77b4" fill-opacity="1" /><line x1="235.25" y1="123.16" x2="235.25" y2="134.84" stroke="rgba(0,0,0,0.25)" stroke-width="1" /><rect x="201.5" y="123.16" width="33.75" height="11.69" fill="none" stroke="rgba(0,0,0,0.18)" stroke-width="0.8" /><rect x="212.75" y="144.41" width="33.75" height="11.69" fill="#1f77b4" fill-opacity="0.85" /><rect x="212.75" y="144.41" width="33.75" height="11.69" fill="#1f77b4" fill-opacity="1" /><line x1="246.5" y1="144.41" x2="246.5" y2="156.09" stroke="rgba(0,0,0,0.25)" stroke-width="1" /><rect x="212.75" y="144.41" width="33.75" height="11.69" fill="none" stroke="rgba(0,0,0,0.18)" stroke-width="0.8" /><path d="M 246.5,164.5 L 253.5,171.5 L 246.5,178.5 L 239.5,171.5 Z" stroke="#1f77b4" stroke-width="1" fill="#1f77b4" /><rect x="179" y="182.13" width="450" height="21.25" fill="#ebebeb" /><rect x="246.5" y="208.16" width="67.5" height="11.69" fill="#ff7f0e" fill-opacity="0.85" /><rect x="246.5" y="208.16" width="50.63" height="11.69" fill="#ff7f0e" fill-opacity="1" /><line x1="297.13" y1="208.16" x2="297.13" y2="219.84" stroke="rgba(0,0,0,0.25)" stroke-width="1" /><rect x="246.5" y="208.16" width="67.5" height="11.69" fill="none" stroke="rgba(0,0,0,0.18)" stroke-width="0.8" /><text x="280.25" y="217.85" font-size="11" text-anchor="middle" fill="#ffffff">Screening</text><rect x="257.75" y="229.41" width="78.75" height="11.69" fill="#ff7f0e" fill-opacity="0.85" /><rect x="257.75" y="229.41" width="35.44" height="11.69" fill="#ff7f0e" fill-opacity="1" /><line x1="293.19" y1="229.41" x2="293.19" y2="241.09" stroke="rgba(0,0,0,0.25)" stroke-width="1" /><rect x="257.75" y="229.41" width="78.75" height="11.69" fill="none" stroke="rgba(0,0,0,0.18)" stroke-width="0.8" /><text x="297.13" y="239.1" font-size="11" text-anchor="middle" fill="#ffffff">Enrollment</text><rect x="179" y="245.88" width="450" height="21.25" fill="#ebebeb" /><rect x="314" y="271.91" width="135" height="11.69" fill="#2ca02c" fill-opacity="0.85" /><rect x="314" y="271.91" width="135" height="11.69" fill="none" stroke="rgba(0,0,0,0.18)" stroke-width="0.8" /><text x="381.5" y="281.6" font-size="11" text-anchor="middle" fill="#ffffff">Arm A (n=150)</text><rect x="314" y="293.16" width="135" height="11.69" fill="#2ca02c" fill-opacity="0.85" /><rect x="314" y="293.16" width="135" height="11.69" fill="none" stroke="rgba(0,0,0,0.18)" stroke-width="0.8" /><text x="381.5" y="302.85" font-size="11" text-anchor="middle" fill="#ffffff">Arm B (n=150)</text><path d="M 381.5,313.25 L 388.5,320.25 L 381.5,327.25 L 374.5,320.25 Z" stroke="#2ca02c" stroke-width="1" fill="#2ca02c" /><rect x="179" y="330.88" width="450" height="21.25" fill="#ebebeb" /><rect x="437.75" y="356.91" width="33.75" height="11.69" fill="#d62728" fill-opacity="0.85" /><rect x="437.75" y="356.91" width="33.75" height="11.69" fill="none" stroke="rgba(0,0,0,0.18)" stroke-width="0.8" /><rect x="460.25" y="378.16" width="56.25" height="11.69" fill="#d62728" fill-opacity="0.85" /><rect x="460.25" y="378.16" width="56.25" height="11.69" fill="none" stroke="rgba(0,0,0,0.18)" stroke-width="0.8" /><rect x="494" y="399.41" width="67.5" height="11.69" fill="#d62728" fill-opacity="0.85" /><rect x="494" y="399.41" width="67.5" height="11.69" fill="none" stroke="rgba(0,0,0,0.18)" stroke-width="0.8" /><path d="M 449,419.5 L 456,426.5 L 449,433.5 L 442,426.5 Z" stroke="#4682b4" stroke-width="1" fill="#4682b4" /><path d="M 572.75,440.75 L 579.75,447.75 L 572.75,454.75 L 565.75,447.75 Z" stroke="#4682b4" stroke-width="1" fill="#4682b4" /><line x1="359" y1="75.88" x2="359" y2="458.38" stroke="#cc3333" stroke-width="1.5" stroke-dasharray="5,3" /></g><text x="217.75" y="111.60000000000001" font-size="11" text-anchor="start">Protocol writing</text><text x="240.25" y="132.85" font-size="11" text-anchor="start">IRB approval</text><text x="251.5" y="154.1" font-size="11" text-anchor="start">Site selection</text><text x="258.5" y="175.35" font-size="11" text-anchor="start" font-weight="bold" fill="#1f77b4">Trial start</text><text x="393.5" y="324.1" font-size="11" text-anchor="start" font-weight="bold" fill="#2ca02c">Interim analysis</text><text x="476.5" y="366.6" font-size="11" text-anchor="start">Data lock</text><text x="521.5" y="387.85" font-size="11" text-anchor="start">Statistical analysis</text><text x="566.5" y="409.1" font-size="11" text-anchor="start">Report writing</text><text x="461" y="430.35" font-size="11" text-anchor="start" font-weight="bold" fill="#4682b4">Primary endpoint</text><text x="584.75" y="451.6" font-size="11" text-anchor="start" font-weight="bold" fill="#4682b4">Submission</text></svg>