<svg xmlns="http://www.w3.org/2000/svg" width="673.4" height="545" font-family="DejaVu Sans, Liberation Sans, Arial, sans-serif" fill="black"><rect width="100%" height="100%" fill="white" /><text x="336.7" y="27.400000000000002" font-size="18" text-anchor="middle">Gene Regulatory Network</text><g opacity="0.6"><path d="M 398.41 289.03 Q 423.29 213.25 402.86 152.32" stroke="#888888" stroke-width="5" fill="none" /><path d="M 397.94 137.62 L 408.74 150.35 L 396.99 154.29 Z" stroke="none" stroke-width="0" fill="#888888" /></g><g opacity="0.6"><line x1="393.48" y1="303.32" x2="322.76" y2="393.02" stroke="#888888" stroke-width="3.42" /><path d="M 315.61 402.10 L 319.13 390.16 L 326.40 395.88 Z" stroke="none" stroke-width="0" fill="#888888" /></g><g opacity="0.6"><line x1="403.57" y1="303.17" x2="475.59000000000003" y2="389.38" stroke="#888888" stroke-width="2.94" /><path d="M 482.22 397.32 L 472.41 392.04 L 478.76 386.73 Z" stroke="none" stroke-width="0" fill="#888888" /></g><g opacity="0.6"><path d="M 397.94 137.62 Q 373.06 213.41 394.16 276.35" stroke="#888888" stroke-width="4.15" fill="none" /><path d="M 398.41 289.03 L 389.09 278.05 L 399.23 274.65 Z" stroke="none" stroke-width="0" fill="#888888" /></g><g opacity="0.6"><line x1="538.4300000000001" y1="270.49" x2="412.59000000000003" y2="294.35" stroke="#888888" stroke-width="1.36" /><path d="M 406.30 295.54 L 412.12 291.83 L 413.07 296.87 Z" stroke="none" stroke-width="0" fill="#888888" /></g><g opacity="0.6"><line x1="163.24" y1="224.56" x2="207.78" y2="98.32000000000001" stroke="#888888" stroke-width="4.5200000000000005" /><path d="M 212.53 84.84 L 213.17 100.22 L 202.39 96.42 Z" stroke="none" stroke-width="0" fill="#888888" /></g><g opacity="0.6"><line x1="168.38" y1="233.88" x2="233.19" y2="248.6" stroke="#888888" stroke-width="2.45" /><path d="M 242.10 250.63 L 232.38 252.17 L 234.00 245.04 Z" stroke="none" stroke-width="0" fill="#888888" /></g><g opacity="0.6"><line x1="216.75" y1="85.15" x2="246.04" y2="232.92000000000002" stroke="#888888" stroke-width="3.5500000000000003" /><path d="M 248.35 244.55 L 241.39 233.84 L 250.70 231.99 Z" stroke="none" stroke-width="0" fill="#888888" /></g><g opacity="0.6"><line x1="249.57" y1="260.39" x2="241.91" y2="442.07" stroke="#888888" stroke-width="3.06" /><path d="M 241.46 452.71 L 237.66 441.89 L 246.17 442.24 Z" stroke="none" stroke-width="0" fill="#888888" /></g><g opacity="0.6"><line x1="233.33" y1="458.93" x2="164.58" y2="443.31" stroke="#888888" stroke-width="3.91" /><path d="M 152.13 440.48 L 165.71 438.32 L 163.45 448.29 Z" stroke="none" stroke-width="0" fill="#888888" /></g><g opacity="0.6"><line x1="144.95000000000002" y1="430.73" x2="159.52" y2="245.56" stroke="#888888" stroke-width="1" /><path d="M 159.95 240.08 L 161.71 245.73 L 157.33 245.39 Z" stroke="none" stroke-width="0" fill="#888888" /></g><circle cx="398.44" cy="297.03000000000003" r="8" fill="#1f77b4" stroke="#ffffff" stroke-width="1.5" /><circle cx="397.91" cy="129.62" r="8" fill="#ff7f0e" stroke="#ffffff" stroke-width="1.5" /><circle cx="310.65000000000003" cy="408.38" r="8" fill="#2ca02c" stroke="#ffffff" stroke-width="1.5" /><circle cx="487.35" cy="403.46000000000004" r="8" fill="#d62728" stroke="#ffffff" stroke-width="1.5" /><circle cx="546.29" cy="269" r="8" fill="#9467bd" stroke="#ffffff" stroke-width="1.5" /><circle cx="160.58" cy="232.1" r="8" fill="#8c564b" stroke="#ffffff" stroke-width="1.5" /><circle cx="215.19" cy="77.3" r="8" fill="#e377c2" stroke="#ffffff" stroke-width="1.5" /><circle cx="249.91" cy="252.4" r="8" fill="#7f7f7f" stroke="#ffffff" stroke-width="1.5" /><circle cx="241.13" cy="460.7" r="8" fill="#bcbd22" stroke="#ffffff" stroke-width="1.5" /><circle cx="144.33" cy="438.7" r="8" fill="#17becf" stroke="#ffffff" stroke-width="1.5" /><text x="410.44" y="301.26" font-size="12" text-anchor="start">TP53</text><text x="403.23" y="123.06" font-size="12" text-anchor="start">MDM2</text><text x="310.65000000000003" y="424.57" font-size="12" text-anchor="middle">BAX</text><text x="497.55" y="413.98" font-size="12" text-anchor="start">CDKN1A</text><text x="558.2" y="271.76" font-size="12" text-anchor="start">BRCA1</text><text x="149.51" y="231.67000000000002" font-size="12" text-anchor="end">MYC</text><text x="210.22" y="70.58" font-size="12" text-anchor="end">CCND1</text><text x="239.99" y="249.84" font-size="12" text-anchor="end">CDK4</text><text x="236.18" y="475.83" font-size="12" text-anchor="end">RB1</text><text x="135.09" y="450.57" font-size="12" text-anchor="end">E2F1</text></svg>