<svg xmlns="http://www.w3.org/2000/svg" width="793.4" height="545" font-family="DejaVu Sans, Liberation Sans, Arial, sans-serif" fill="black"><rect width="100%" height="100%" fill="white" /><text x="396.7" y="27.400000000000002" font-size="18" text-anchor="middle">Gene Network by Pathway</text><g opacity="0.6"><line x1="355.8" y1="79.06" x2="474.98" y2="105.97" stroke="#888888" stroke-width="5" /></g><g opacity="0.6"><line x1="355.17" y1="80.84" x2="567.6" y2="185.82" stroke="#888888" stroke-width="3.96" /></g><g opacity="0.6"><line x1="474.98" y1="105.97" x2="355.8" y2="79.06" stroke="#888888" stroke-width="4.44" /></g><g opacity="0.6"><line x1="588.78" y1="290.97" x2="353.98" y2="82.61" stroke="#888888" stroke-width="2.6" /></g><g opacity="0.6"><line x1="590.6800000000001" y1="303.16" x2="540.49" y2="387.66" stroke="#888888" stroke-width="3.16" /></g><g opacity="0.6"><line x1="529.24" y1="398.08" x2="425.41" y2="449.39" stroke="#888888" stroke-width="2.84" /></g><g opacity="0.6"><line x1="270.59000000000003" y1="449.39" x2="166.76" y2="398.08" stroke="#888888" stroke-width="4.68" /></g><g opacity="0.6"><line x1="155.51" y1="387.66" x2="105.32000000000001" y2="303.16" stroke="#888888" stroke-width="4.04" /></g><g opacity="0.6"><line x1="102.71000000000001" y1="288.42" x2="119.76" y2="197.23000000000002" stroke="#888888" stroke-width="3.72" /></g><g opacity="0.6"><line x1="127.21000000000001" y1="184.05" x2="207.23000000000002" y2="113.04" stroke="#888888" stroke-width="4.28" /></g><g opacity="0.6"><line x1="214.69" y1="115.60000000000001" x2="276.29" y2="445.07" stroke="#888888" stroke-width="2.36" /></g><g opacity="0.6"><line x1="340.83" y1="80.84" x2="128.4" y2="185.82" stroke="#888888" stroke-width="1" /></g><circle cx="348" cy="77.3" r="8" fill="#1f77b4" stroke="#ffffff" stroke-width="1.5" /><circle cx="482.78000000000003" cy="107.73" r="8" fill="#1f77b4" stroke="#ffffff" stroke-width="1.5" /><circle cx="574.77" cy="189.36" r="8" fill="#1f77b4" stroke="#ffffff" stroke-width="1.5" /><circle cx="594.76" cy="296.28000000000003" r="8" fill="#ff7f0e" stroke="#ffffff" stroke-width="1.5" /><circle cx="536.41" cy="394.54" r="8" fill="#ff7f0e" stroke="#ffffff" stroke-width="1.5" /><circle cx="418.24" cy="452.93" r="8" fill="#ff7f0e" stroke="#ffffff" stroke-width="1.5" /><circle cx="277.76" cy="452.93" r="8" fill="#2ca02c" stroke="#ffffff" stroke-width="1.5" /><circle cx="159.59" cy="394.54" r="8" fill="#2ca02c" stroke="#ffffff" stroke-width="1.5" /><circle cx="101.24000000000001" cy="296.28000000000003" r="8" fill="#2ca02c" stroke="#ffffff" stroke-width="1.5" /><circle cx="121.23" cy="189.36" r="8" fill="#2ca02c" stroke="#ffffff" stroke-width="1.5" /><circle cx="213.22" cy="107.73" r="8" fill="#2ca02c" stroke="#ffffff" stroke-width="1.5" /><text x="348" y="69.5" font-size="12" text-anchor="middle">TP53</text><text x="490.48" y="102.72" font-size="12" text-anchor="start">MDM2</text><text x="586.09" y="189.59" font-size="12" text-anchor="start">BAX</text><text x="606.69" y="301.8" font-size="12" text-anchor="start">BRCA1</text><text x="546.39" y="405.39" font-size="12" text-anchor="start">RAD51</text><text x="422.52" y="468.35" font-size="12" text-anchor="start">BRCA2</text><text x="273.48" y="468.35" font-size="12" text-anchor="end">MYC</text><text x="149.61" y="405.39" font-size="12" text-anchor="end">CCND1</text><text x="89.31" y="301.8" font-size="12" text-anchor="end">CDK4</text><text x="109.91" y="189.59" font-size="12" text-anchor="end">RB1</text><text x="205.52" y="102.72" font-size="12" text-anchor="end">E2F1</text><rect x="664" y="34" width="120" height="74" fill="#ffffff" /><rect x="664" y="34" width="120" height="74" fill="none" stroke="#000000" stroke-width="1" /><text x="694" y="53.2" font-size="12" text-anchor="start">DNA damage</text><circle cx="679" cy="49" r="5" fill="#1f77b4" /><text x="694" y="71.2" font-size="12" text-anchor="start">DNA repair</text><circle cx="679" cy="67" r="5" fill="#ff7f0e" /><text x="694" y="89.2" font-size="12" text-anchor="start">Cell cycle</text><circle cx="679" cy="85" r="5" fill="#2ca02c" /></svg>