<svg xmlns="http://www.w3.org/2000/svg" width="673" height="545" font-family="DejaVu Sans, Liberation Sans, Arial, sans-serif" fill="black"><rect width="100%" height="100%" fill="white" /><defs><clipPath id="kuva-clip-3"><rect x="59" y="44" width="600" height="450"/></clipPath></defs><line x1="59" y1="404" x2="659" y2="404" stroke="#cccccc" stroke-width="1" /><line x1="59" y1="314" x2="659" y2="314" stroke="#cccccc" stroke-width="1" /><line x1="59" y1="224" x2="659" y2="224" stroke="#cccccc" stroke-width="1" /><line x1="59" y1="134" x2="659" y2="134" stroke="#cccccc" stroke-width="1" /><line x1="59" y1="44" x2="659" y2="44" stroke="#cccccc" stroke-width="1" /><line x1="59" y1="494" x2="659" y2="494" stroke="#000000" stroke-width="1" /><line x1="59" y1="44" x2="59" y2="494" stroke="#000000" stroke-width="1" /><text x="359" y="511" font-size="12" text-anchor="middle"></text><line x1="359" y1="494" x2="359" y2="499" stroke="#000000" stroke-width="1" /><line x1="54" y1="494" x2="59" y2="494" stroke="#000000" stroke-width="1" /><text x="51" y="498.2" font-size="12" text-anchor="end">0</text><line x1="54" y1="404" x2="59" y2="404" stroke="#000000" stroke-width="1" /><text x="51" y="408.2" font-size="12" text-anchor="end">2</text><line x1="54" y1="314" x2="59" y2="314" stroke="#000000" stroke-width="1" /><text x="51" y="318.2" font-size="12" text-anchor="end">4</text><line x1="54" y1="224" x2="59" y2="224" stroke="#000000" stroke-width="1" /><text x="51" y="228.20000000000002" font-size="12" text-anchor="end">6</text><line x1="54" y1="134" x2="59" y2="134" stroke="#000000" stroke-width="1" /><text x="51" y="138.20000000000002" font-size="12" text-anchor="end">8</text><line x1="54" y1="44" x2="59" y2="44" stroke="#000000" stroke-width="1" /><text x="51" y="48.2" font-size="12" text-anchor="end">10</text><text x="15" y="272.5" font-size="14" text-anchor="middle" transform="rotate(-90,15,272.5)">Value</text><text x="336.5" y="27.400000000000002" font-size="18" text-anchor="middle">bandwidth_scale = 2.0 (over-smoothed)</text><g clip-path="url(#kuva-clip-3)"><path d="M 446.04 451.58 L 446.85 447.94 L 447.69 444.3 L 448.54 440.66 L 449.41 437.02 L 450.29 433.37 L 451.18 429.73 L 452.07 426.09000000000003 L 452.95 422.45 L 453.84000000000003 418.81 L 454.71000000000004 415.17 L 455.57 411.53000000000003 L 456.41 407.89 L 457.22 404.25 L 458.01 400.6 L 458.76 396.96000000000004 L 459.47 393.32 L 460.15000000000003 389.68 L 460.77 386.04 L 461.35 382.40000000000003 L 461.88 378.76 L 462.35 375.12 L 462.76 371.48 L 463.12 367.83 L 463.41 364.19 L 463.65000000000003 360.55 L 463.82 356.91 L 463.94 353.27 L 464.0 349.63 L 464.0 345.99 L 463.95 342.35 L 463.85 338.71 L 463.71000000000004 335.06 L 463.52 331.42 L 463.3 327.78000000000003 L 463.04 324.14 L 462.76 320.5 L 462.47 316.86 L 462.15000000000003 313.22 L 461.83 309.58 L 461.51 305.94 L 461.19 302.3 L 460.89 298.65000000000003 L 460.59000000000003 295.01 L 460.32 291.37 L 460.08 287.73 L 459.86 284.09000000000003 L 459.68 280.45 L 459.53000000000003 276.81 L 459.42 273.17 L 459.36 269.53000000000003 L 459.33 265.88 L 459.35 262.24 L 459.41 258.6 L 459.51 254.96 L 459.65000000000003 251.32 L 459.83 247.68 L 460.03000000000003 244.04 L 460.27 240.4 L 460.53000000000003 236.76 L 460.82 233.11 L 461.11 229.47 L 461.42 225.83 L 461.73 222.19 L 462.04 218.55 L 462.34000000000003 214.91 L 462.62 211.27 L 462.88 207.63 L 463.12 203.99 L 463.32 200.34 L 463.49 196.70000000000002 L 463.61 193.06 L 463.69 189.42000000000002 L 463.71000000000004 185.78 L 463.68 182.14000000000001 L 463.59000000000003 178.5 L 463.44 174.86 L 463.23 171.22 L 462.96000000000004 167.57 L 462.63 163.93 L 462.23 160.29 L 461.77 156.65 L 461.26 153.01 L 460.69 149.37 L 460.06 145.73 L 459.39 142.09 L 458.66 138.45000000000002 L 457.90000000000003 134.8 L 457.1 131.16 L 456.26 127.52 L 455.40000000000003 123.88000000000001 L 454.52 120.24000000000001 L 453.62 116.60000000000001 L 452.71000000000004 112.96000000000001 L 451.79 109.32000000000001 L 450.87 105.68 L 449.95 102.04 L 449.05 98.39 L 448.15000000000003 94.75 L 447.27 91.11 L 434.0 91.11 L 434.0 94.75 L 434.0 98.39 L 434.0 102.04 L 434.0 105.68 L 434.0 109.32000000000001 L 434.0 112.96000000000001 L 434.0 116.60000000000001 L 434.0 120.24000000000001 L 434.0 123.88000000000001 L 434.0 127.52 L 434.0 131.16 L 434.0 134.8 L 434.0 138.45000000000002 L 434.0 142.09 L 434.0 145.73 L 434.0 149.37 L 434.0 153.01 L 434.0 156.65 L 434.0 160.29 L 434.0 163.93 L 434.0 167.57 L 434.0 171.22 L 434.0 174.86 L 434.0 178.5 L 434.0 182.14000000000001 L 434.0 185.78 L 434.0 189.42000000000002 L 434.0 193.06 L 434.0 196.70000000000002 L 434.0 200.34 L 434.0 203.99 L 434.0 207.63 L 434.0 211.27 L 434.0 214.91 L 434.0 218.55 L 434.0 222.19 L 434.0 225.83 L 434.0 229.47 L 434.0 233.11 L 434.0 236.76 L 434.0 240.4 L 434.0 244.04 L 434.0 247.68 L 434.0 251.32 L 434.0 254.96 L 434.0 258.6 L 434.0 262.24 L 434.0 265.88 L 434.0 269.53000000000003 L 434.0 273.17 L 434.0 276.81 L 434.0 280.45 L 434.0 284.09000000000003 L 434.0 287.73 L 434.0 291.37 L 434.0 295.01 L 434.0 298.65000000000003 L 434.0 302.3 L 434.0 305.94 L 434.0 309.58 L 434.0 313.22 L 434.0 316.86 L 434.0 320.5 L 434.0 324.14 L 434.0 327.78000000000003 L 434.0 331.42 L 434.0 335.06 L 434.0 338.71 L 434.0 342.35 L 434.0 345.99 L 434.0 349.63 L 434.0 353.27 L 434.0 356.91 L 434.0 360.55 L 434.0 364.19 L 434.0 367.83 L 434.0 371.48 L 434.0 375.12 L 434.0 378.76 L 434.0 382.40000000000003 L 434.0 386.04 L 434.0 389.68 L 434.0 393.32 L 434.0 396.96000000000004 L 434.0 400.6 L 434.0 404.25 L 434.0 407.89 L 434.0 411.53000000000003 L 434.0 415.17 L 434.0 418.81 L 434.0 422.45 L 434.0 426.09000000000003 L 434.0 429.73 L 434.0 433.37 L 434.0 437.02 L 434.0 440.66 L 434.0 444.3 L 434.0 447.94 L 434.0 451.58 Z" stroke="#4682b4" stroke-width="0.5" fill="#4682b4" fill-opacity="0.7000000000000001" /><rect x="335" y="173.87" width="48" height="179.66" fill="#4682b4" /><line x1="335" y1="271.35" x2="383" y2="271.35" stroke="#ffffff" stroke-width="1.5" /><line x1="359" y1="451.90000000000003" x2="359" y2="353.53000000000003" stroke="#4682b4" stroke-width="1" /><line x1="359" y1="173.87" x2="359" y2="90.79" stroke="#4682b4" stroke-width="1" /><line x1="347" y1="451.90000000000003" x2="371" y2="451.90000000000003" stroke="#4682b4" stroke-width="1" /><line x1="347" y1="90.79" x2="371" y2="90.79" stroke="#4682b4" stroke-width="1" /><circle cx="267.99" cy="328.96" r="3" fill="#4682b4" fill-opacity="0.7000000000000001" /><circle cx="265.74" cy="377.54" r="3" fill="#4682b4" fill-opacity="0.7000000000000001" /><circle cx="269.95" cy="308.32" r="3" fill="#4682b4" fill-opacity="0.7000000000000001" /><circle cx="248.88" cy="342.28000000000003" r="3" fill="#4682b4" fill-opacity="0.7000000000000001" /><circle cx="256.12" cy="324.67" r="3" fill="#4682b4" fill-opacity="0.7000000000000001" /><circle cx="249.14000000000001" cy="349.13" r="3" fill="#4682b4" fill-opacity="0.7000000000000001" /><circle cx="246.9" cy="408.58" r="3" fill="#4682b4" fill-opacity="0.7000000000000001" /><circle cx="253.81" cy="344.08" r="3" fill="#4682b4" fill-opacity="0.7000000000000001" /><circle cx="258.23" cy="380.95" r="3" fill="#4682b4" fill-opacity="0.7000000000000001" /><circle cx="267.6" cy="329.78000000000003" r="3" fill="#4682b4" fill-opacity="0.7000000000000001" /><circle cx="248.51000000000002" cy="350.40000000000003" r="3" fill="#4682b4" fill-opacity="0.7000000000000001" /><circle cx="268.53000000000003" cy="288.66" r="3" fill="#4682b4" fill-opacity="0.7000000000000001" /><circle cx="247.15" cy="341.19" r="3" fill="#4682b4" fill-opacity="0.7000000000000001" /><circle cx="255.05" cy="393.66" r="3" fill="#4682b4" fill-opacity="0.7000000000000001" /><circle cx="258.6" cy="366.8" r="3" fill="#4682b4" fill-opacity="0.7000000000000001" /><circle cx="260.37" cy="353.36" r="3" fill="#4682b4" fill-opacity="0.7000000000000001" /><circle cx="257.89" cy="404.73" r="3" fill="#4682b4" fill-opacity="0.7000000000000001" /><circle cx="268.55" cy="409.15000000000003" r="3" fill="#4682b4" fill-opacity="0.7000000000000001" /><circle cx="261.4" cy="356.93" r="3" fill="#4682b4" fill-opacity="0.7000000000000001" /><circle cx="268.59000000000003" cy="362.74" r="3" fill="#4682b4" fill-opacity="0.7000000000000001" /><circle cx="253.27" cy="390.51" r="3" fill="#4682b4" fill-opacity="0.7000000000000001" /><circle cx="251.66" cy="338.28000000000003" r="3" fill="#4682b4" fill-opacity="0.7000000000000001" /><circle cx="268.18" cy="335.55" r="3" fill="#4682b4" fill-opacity="0.7000000000000001" /><circle cx="246.89000000000001" cy="354.49" r="3" fill="#4682b4" fill-opacity="0.7000000000000001" /><circle cx="259.3" cy="326.99" r="3" fill="#4682b4" fill-opacity="0.7000000000000001" /><circle cx="261.53000000000003" cy="412.09000000000003" r="3" fill="#4682b4" fill-opacity="0.7000000000000001" /><circle cx="260.9" cy="366.74" r="3" fill="#4682b4" fill-opacity="0.7000000000000001" /><circle cx="255.64000000000001" cy="322.38" r="3" fill="#4682b4" fill-opacity="0.7000000000000001" /><circle cx="258.91" cy="355.43" r="3" fill="#4682b4" fill-opacity="0.7000000000000001" /><circle cx="258.39" cy="340.24" r="3" fill="#4682b4" fill-opacity="0.7000000000000001" /><circle cx="248.62" cy="431.13" r="3" fill="#4682b4" fill-opacity="0.7000000000000001" /><circle cx="256.02" cy="335.35" r="3" fill="#4682b4" fill-opacity="0.7000000000000001" /><circle cx="247.26000000000002" cy="325.78000000000003" r="3" fill="#4682b4" fill-opacity="0.7000000000000001" /><circle cx="253.66" cy="410.28000000000003" r="3" fill="#4682b4" fill-opacity="0.7000000000000001" /><circle cx="264.44" cy="270.79" r="3" fill="#4682b4" fill-opacity="0.7000000000000001" /><circle cx="258.21" cy="316.61" r="3" fill="#4682b4" fill-opacity="0.7000000000000001" /><circle cx="262.15" cy="339.90000000000003" r="3" fill="#4682b4" fill-opacity="0.7000000000000001" /><circle cx="269.1" cy="371.56" r="3" fill="#4682b4" fill-opacity="0.7000000000000001" /><circle cx="253.53" cy="355.13" r="3" fill="#4682b4" fill-opacity="0.7000000000000001" /><circle cx="248.65" cy="314.71" r="3" fill="#4682b4" fill-opacity="0.7000000000000001" /><circle cx="253.77" cy="306.75" r="3" fill="#4682b4" fill-opacity="0.7000000000000001" /><circle cx="262.19" cy="416.76" r="3" fill="#4682b4" fill-opacity="0.7000000000000001" /><circle cx="254.4" cy="360.96" r="3" fill="#4682b4" fill-opacity="0.7000000000000001" /><circle cx="267.13" cy="348.13" r="3" fill="#4682b4" fill-opacity="0.7000000000000001" /><circle cx="253.92000000000002" cy="403.97" r="3" fill="#4682b4" fill-opacity="0.7000000000000001" /><circle cx="257.7" cy="367.04" r="3" fill="#4682b4" fill-opacity="0.7000000000000001" /><circle cx="254.94" cy="345.87" r="3" fill="#4682b4" fill-opacity="0.7000000000000001" /><circle cx="253.1" cy="348.72" r="3" fill="#4682b4" fill-opacity="0.7000000000000001" /><circle cx="251.24" cy="350" r="3" fill="#4682b4" fill-opacity="0.7000000000000001" /><circle cx="252.14000000000001" cy="391.29" r="3" fill="#4682b4" fill-opacity="0.7000000000000001" /><circle cx="254.41" cy="314.24" r="3" fill="#4682b4" fill-opacity="0.7000000000000001" /><circle cx="266.97" cy="360.2" r="3" fill="#4682b4" fill-opacity="0.7000000000000001" /><circle cx="248.45000000000002" cy="364.29" r="3" fill="#4682b4" fill-opacity="0.7000000000000001" /><circle cx="260.4" cy="332.47" r="3" fill="#4682b4" fill-opacity="0.7000000000000001" /><circle cx="253.45000000000002" cy="343.03000000000003" r="3" fill="#4682b4" fill-opacity="0.7000000000000001" /><circle cx="262.17" cy="393.89" r="3" fill="#4682b4" fill-opacity="0.7000000000000001" /><circle cx="247.39000000000001" cy="337.93" r="3" fill="#4682b4" fill-opacity="0.7000000000000001" /><circle cx="258.03000000000003" cy="382.94" r="3" fill="#4682b4" fill-opacity="0.7000000000000001" /><circle cx="270.14" cy="344.87" r="3" fill="#4682b4" fill-opacity="0.7000000000000001" /><circle cx="257.75" cy="405.25" r="3" fill="#4682b4" fill-opacity="0.7000000000000001" /><circle cx="246.84" cy="345.06" r="3" fill="#4682b4" fill-opacity="0.7000000000000001" /><circle cx="258.84000000000003" cy="294.22" r="3" fill="#4682b4" fill-opacity="0.7000000000000001" /><circle cx="248.13" cy="312.74" r="3" fill="#4682b4" fill-opacity="0.7000000000000001" /><circle cx="269.16" cy="330.58" r="3" fill="#4682b4" fill-opacity="0.7000000000000001" /><circle cx="266.1" cy="307.55" r="3" fill="#4682b4" fill-opacity="0.7000000000000001" /><circle cx="265.32" cy="346.09000000000003" r="3" fill="#4682b4" fill-opacity="0.7000000000000001" /><circle cx="257.41" cy="348.88" r="3" fill="#4682b4" fill-opacity="0.7000000000000001" /><circle cx="252.70000000000002" cy="325.07" r="3" fill="#4682b4" fill-opacity="0.7000000000000001" /><circle cx="250.94" cy="407.38" r="3" fill="#4682b4" fill-opacity="0.7000000000000001" /><circle cx="268.66" cy="451.90000000000003" r="3" fill="#4682b4" fill-opacity="0.7000000000000001" /><circle cx="267.92" cy="403.86" r="3" fill="#4682b4" fill-opacity="0.7000000000000001" /><circle cx="259.4" cy="284.93" r="3" fill="#4682b4" fill-opacity="0.7000000000000001" /><circle cx="267.71" cy="340.40000000000003" r="3" fill="#4682b4" fill-opacity="0.7000000000000001" /><circle cx="254.63" cy="383.89" r="3" fill="#4682b4" fill-opacity="0.7000000000000001" /><circle cx="253.32" cy="391.75" r="3" fill="#4682b4" fill-opacity="0.7000000000000001" /><circle cx="258.59000000000003" cy="361.04" r="3" fill="#4682b4" fill-opacity="0.7000000000000001" /><circle cx="260.85" cy="403.86" r="3" fill="#4682b4" fill-opacity="0.7000000000000001" /><circle cx="261.28000000000003" cy="379.24" r="3" fill="#4682b4" fill-opacity="0.7000000000000001" /><circle cx="269.23" cy="334.83" r="3" fill="#4682b4" fill-opacity="0.7000000000000001" /><circle cx="251.47" cy="372.09000000000003" r="3" fill="#4682b4" fill-opacity="0.7000000000000001" /><circle cx="252.05" cy="339.43" r="3" fill="#4682b4" fill-opacity="0.7000000000000001" /><circle cx="261.64" cy="372.93" r="3" fill="#4682b4" fill-opacity="0.7000000000000001" /><circle cx="254.6" cy="409" r="3" fill="#4682b4" fill-opacity="0.7000000000000001" /><circle cx="267.58" cy="378.29" r="3" fill="#4682b4" fill-opacity="0.7000000000000001" /><circle cx="268.01" cy="443.29" r="3" fill="#4682b4" fill-opacity="0.7000000000000001" /><circle cx="247.45000000000002" cy="373.68" r="3" fill="#4682b4" fill-opacity="0.7000000000000001" /><circle cx="252.27" cy="369.7" r="3" fill="#4682b4" fill-opacity="0.7000000000000001" /><circle cx="250.15" cy="364.52" r="3" fill="#4682b4" fill-opacity="0.7000000000000001" /><circle cx="269.27" cy="345.46" r="3" fill="#4682b4" fill-opacity="0.7000000000000001" /><circle cx="265.76" cy="354.04" r="3" fill="#4682b4" fill-opacity="0.7000000000000001" /><circle cx="256.88" cy="334.92" r="3" fill="#4682b4" fill-opacity="0.7000000000000001" /><circle cx="256.41" cy="414.85" r="3" fill="#4682b4" fill-opacity="0.7000000000000001" /><circle cx="247.37" cy="327.93" r="3" fill="#4682b4" fill-opacity="0.7000000000000001" /><circle cx="263.14" cy="349.09000000000003" r="3" fill="#4682b4" fill-opacity="0.7000000000000001" /><circle cx="249.48000000000002" cy="317.38" r="3" fill="#4682b4" fill-opacity="0.7000000000000001" /><circle cx="265.34000000000003" cy="355.76" r="3" fill="#4682b4" fill-opacity="0.7000000000000001" /><circle cx="252.3" cy="425.81" r="3" fill="#4682b4" fill-opacity="0.7000000000000001" /><circle cx="270.28000000000003" cy="352.31" r="3" fill="#4682b4" fill-opacity="0.7000000000000001" /><circle cx="262.08" cy="397.76" r="3" fill="#4682b4" fill-opacity="0.7000000000000001" /><circle cx="254.93" cy="408.54" r="3" fill="#4682b4" fill-opacity="0.7000000000000001" /><circle cx="258.64" cy="148.96" r="3" fill="#4682b4" fill-opacity="0.7000000000000001" /><circle cx="263.23" cy="197.54" r="3" fill="#4682b4" fill-opacity="0.7000000000000001" /><circle cx="267.71" cy="128.32" r="3" fill="#4682b4" fill-opacity="0.7000000000000001" /><circle cx="250.1" cy="162.28" r="3" fill="#4682b4" fill-opacity="0.7000000000000001" /><circle cx="250.59" cy="144.67000000000002" r="3" fill="#4682b4" fill-opacity="0.7000000000000001" /><circle cx="250.37" cy="169.13" r="3" fill="#4682b4" fill-opacity="0.7000000000000001" /><circle cx="258.88" cy="228.58" r="3" fill="#4682b4" fill-opacity="0.7000000000000001" /><circle cx="259" cy="164.08" r="3" fill="#4682b4" fill-opacity="0.7000000000000001" /><circle cx="247.08" cy="200.95000000000002" r="3" fill="#4682b4" fill-opacity="0.7000000000000001" /><circle cx="260.36" cy="149.78" r="3" fill="#4682b4" fill-opacity="0.7000000000000001" /><circle cx="254.62" cy="170.4" r="3" fill="#4682b4" fill-opacity="0.7000000000000001" /><circle cx="252.66" cy="108.66" r="3" fill="#4682b4" fill-opacity="0.7000000000000001" /><circle cx="263.33" cy="161.19" r="3" fill="#4682b4" fill-opacity="0.7000000000000001" /><circle cx="262.76" cy="213.66" r="3" fill="#4682b4" fill-opacity="0.7000000000000001" /><circle cx="265.62" cy="186.8" r="3" fill="#4682b4" fill-opacity="0.7000000000000001" /><circle cx="252.75" cy="173.36" r="3" fill="#4682b4" fill-opacity="0.7000000000000001" /><circle cx="258.09000000000003" cy="224.73000000000002" r="3" fill="#4682b4" fill-opacity="0.7000000000000001" /><circle cx="251.09" cy="229.15" r="3" fill="#4682b4" fill-opacity="0.7000000000000001" /><circle cx="265.89" cy="176.93" r="3" fill="#4682b4" fill-opacity="0.7000000000000001" /><circle cx="250.29" cy="182.74" r="3" fill="#4682b4" fill-opacity="0.7000000000000001" /><circle cx="269.44" cy="210.51" r="3" fill="#4682b4" fill-opacity="0.7000000000000001" /><circle cx="267.38" cy="158.28" r="3" fill="#4682b4" fill-opacity="0.7000000000000001" /><circle cx="254.26000000000002" cy="155.55" r="3" fill="#4682b4" fill-opacity="0.7000000000000001" /><circle cx="267.3" cy="174.49" r="3" fill="#4682b4" fill-opacity="0.7000000000000001" /><circle cx="250.08" cy="146.99" r="3" fill="#4682b4" fill-opacity="0.7000000000000001" /><circle cx="257.62" cy="232.09" r="3" fill="#4682b4" fill-opacity="0.7000000000000001" /><circle cx="251.4" cy="186.74" r="3" fill="#4682b4" fill-opacity="0.7000000000000001" /><circle cx="255.64000000000001" cy="142.38" r="3" fill="#4682b4" fill-opacity="0.7000000000000001" /><circle cx="269.4" cy="175.43" r="3" fill="#4682b4" fill-opacity="0.7000000000000001" /><circle cx="250.48000000000002" cy="160.24" r="3" fill="#4682b4" fill-opacity="0.7000000000000001" /><circle cx="266.58" cy="251.13" r="3" fill="#4682b4" fill-opacity="0.7000000000000001" /><circle cx="252.75" cy="155.35" r="3" fill="#4682b4" fill-opacity="0.7000000000000001" /><circle cx="270.52" cy="145.78" r="3" fill="#4682b4" fill-opacity="0.7000000000000001" /><circle cx="268.25" cy="230.28" r="3" fill="#4682b4" fill-opacity="0.7000000000000001" /><circle cx="270.06" cy="90.79" r="3" fill="#4682b4" fill-opacity="0.7000000000000001" /><circle cx="246.77" cy="136.61" r="3" fill="#4682b4" fill-opacity="0.7000000000000001" /><circle cx="255.68" cy="159.9" r="3" fill="#4682b4" fill-opacity="0.7000000000000001" /><circle cx="253.29" cy="191.56" r="3" fill="#4682b4" fill-opacity="0.7000000000000001" /><circle cx="261.67" cy="175.13" r="3" fill="#4682b4" fill-opacity="0.7000000000000001" /><circle cx="249.42000000000002" cy="134.71" r="3" fill="#4682b4" fill-opacity="0.7000000000000001" /><circle cx="254.51000000000002" cy="126.75" r="3" fill="#4682b4" fill-opacity="0.7000000000000001" /><circle cx="258.87" cy="236.76" r="3" fill="#4682b4" fill-opacity="0.7000000000000001" /><circle cx="267.97" cy="180.96" r="3" fill="#4682b4" fill-opacity="0.7000000000000001" /><circle cx="250.83" cy="168.13" r="3" fill="#4682b4" fill-opacity="0.7000000000000001" /><circle cx="252.89000000000001" cy="223.97" r="3" fill="#4682b4" fill-opacity="0.7000000000000001" /><circle cx="264.2" cy="187.04" r="3" fill="#4682b4" fill-opacity="0.7000000000000001" /><circle cx="249.89000000000001" cy="165.87" r="3" fill="#4682b4" fill-opacity="0.7000000000000001" /><circle cx="249.72" cy="168.72" r="3" fill="#4682b4" fill-opacity="0.7000000000000001" /><circle cx="250.93" cy="170" r="3" fill="#4682b4" fill-opacity="0.7000000000000001" /><circle cx="260.1" cy="211.29" r="3" fill="#4682b4" fill-opacity="0.7000000000000001" /><circle cx="247.05" cy="134.24" r="3" fill="#4682b4" fill-opacity="0.7000000000000001" /><circle cx="257.28000000000003" cy="180.20000000000002" r="3" fill="#4682b4" fill-opacity="0.7000000000000001" /><circle cx="255.39000000000001" cy="184.29" r="3" fill="#4682b4" fill-opacity="0.7000000000000001" /><circle cx="256.88" cy="152.47" r="3" fill="#4682b4" fill-opacity="0.7000000000000001" /><circle cx="255.51000000000002" cy="163.03" r="3" fill="#4682b4" fill-opacity="0.7000000000000001" /><circle cx="251.34" cy="213.89000000000001" r="3" fill="#4682b4" fill-opacity="0.7000000000000001" /><circle cx="271.44" cy="157.93" r="3" fill="#4682b4" fill-opacity="0.7000000000000001" /><circle cx="253.4" cy="202.94" r="3" fill="#4682b4" fill-opacity="0.7000000000000001" /><circle cx="258.78000000000003" cy="164.87" r="3" fill="#4682b4" fill-opacity="0.7000000000000001" /><circle cx="265.7" cy="225.25" r="3" fill="#4682b4" fill-opacity="0.7000000000000001" /><circle cx="265.63" cy="165.06" r="3" fill="#4682b4" fill-opacity="0.7000000000000001" /><circle cx="264.12" cy="114.22" r="3" fill="#4682b4" fill-opacity="0.7000000000000001" /><circle cx="257.52" cy="132.74" r="3" fill="#4682b4" fill-opacity="0.7000000000000001" /><circle cx="265.34000000000003" cy="150.58" r="3" fill="#4682b4" fill-opacity="0.7000000000000001" /><circle cx="247.69" cy="127.55" r="3" fill="#4682b4" fill-opacity="0.7000000000000001" /><circle cx="260.5" cy="166.09" r="3" fill="#4682b4" fill-opacity="0.7000000000000001" /><circle cx="261.26" cy="168.88" r="3" fill="#4682b4" fill-opacity="0.7000000000000001" /><circle cx="271.08" cy="145.07" r="3" fill="#4682b4" fill-opacity="0.7000000000000001" /><circle cx="250.92000000000002" cy="227.38" r="3" fill="#4682b4" fill-opacity="0.7000000000000001" /><circle cx="263.47" cy="271.9" r="3" fill="#4682b4" fill-opacity="0.7000000000000001" /><circle cx="265.14" cy="223.86" r="3" fill="#4682b4" fill-opacity="0.7000000000000001" /><circle cx="251.9" cy="104.93" r="3" fill="#4682b4" fill-opacity="0.7000000000000001" /><circle cx="250.97" cy="160.4" r="3" fill="#4682b4" fill-opacity="0.7000000000000001" /><circle cx="250.57" cy="203.89000000000001" r="3" fill="#4682b4" fill-opacity="0.7000000000000001" /><circle cx="251.87" cy="211.75" r="3" fill="#4682b4" fill-opacity="0.7000000000000001" /><circle cx="255.47" cy="181.04" r="3" fill="#4682b4" fill-opacity="0.7000000000000001" /><circle cx="247.25" cy="223.86" r="3" fill="#4682b4" fill-opacity="0.7000000000000001" /><circle cx="263.9" cy="199.24" r="3" fill="#4682b4" fill-opacity="0.7000000000000001" /><circle cx="259.71" cy="154.83" r="3" fill="#4682b4" fill-opacity="0.7000000000000001" /><circle cx="260.45" cy="192.09" r="3" fill="#4682b4" fill-opacity="0.7000000000000001" /><circle cx="259.23" cy="159.43" r="3" fill="#4682b4" fill-opacity="0.7000000000000001" /><circle cx="247.74" cy="192.93" r="3" fill="#4682b4" fill-opacity="0.7000000000000001" /><circle cx="251.18" cy="229" r="3" fill="#4682b4" fill-opacity="0.7000000000000001" /><circle cx="269.92" cy="198.29" r="3" fill="#4682b4" fill-opacity="0.7000000000000001" /><circle cx="253.33" cy="263.29" r="3" fill="#4682b4" fill-opacity="0.7000000000000001" /><circle cx="261.92" cy="193.68" r="3" fill="#4682b4" fill-opacity="0.7000000000000001" /><circle cx="258.69" cy="189.70000000000002" r="3" fill="#4682b4" fill-opacity="0.7000000000000001" /><circle cx="261.22" cy="184.52" r="3" fill="#4682b4" fill-opacity="0.7000000000000001" /><circle cx="251.84" cy="165.46" r="3" fill="#4682b4" fill-opacity="0.7000000000000001" /><circle cx="268.4" cy="174.04" r="3" fill="#4682b4" fill-opacity="0.7000000000000001" /><circle cx="262.55" cy="154.92000000000002" r="3" fill="#4682b4" fill-opacity="0.7000000000000001" /><circle cx="262.73" cy="234.85" r="3" fill="#4682b4" fill-opacity="0.7000000000000001" /><circle cx="264.94" cy="147.93" r="3" fill="#4682b4" fill-opacity="0.7000000000000001" /><circle cx="247.25" cy="169.09" r="3" fill="#4682b4" fill-opacity="0.7000000000000001" /><circle cx="256.47" cy="137.38" r="3" fill="#4682b4" fill-opacity="0.7000000000000001" /><circle cx="261.46" cy="175.76" r="3" fill="#4682b4" fill-opacity="0.7000000000000001" /><circle cx="253.97" cy="245.81" r="3" fill="#4682b4" fill-opacity="0.7000000000000001" /><circle cx="266.94" cy="172.31" r="3" fill="#4682b4" fill-opacity="0.7000000000000001" /><circle cx="247.79" cy="217.76" r="3" fill="#4682b4" fill-opacity="0.7000000000000001" /><circle cx="250.01000000000002" cy="228.54" r="3" fill="#4682b4" fill-opacity="0.7000000000000001" /></g></svg>