<svg xmlns="http://www.w3.org/2000/svg" width="673" height="545" font-family="DejaVu Sans, Liberation Sans, Arial, sans-serif" fill="black"><rect width="100%" height="100%" fill="white" /><defs><clipPath id="kuva-clip-5"><rect x="59" y="44" width="600" height="450"/></clipPath></defs><line x1="59" y1="404" x2="659" y2="404" stroke="#cccccc" stroke-width="1" /><line x1="59" y1="314" x2="659" y2="314" stroke="#cccccc" stroke-width="1" /><line x1="59" y1="224" x2="659" y2="224" stroke="#cccccc" stroke-width="1" /><line x1="59" y1="134" x2="659" y2="134" stroke="#cccccc" stroke-width="1" /><line x1="59" y1="44" x2="659" y2="44" stroke="#cccccc" stroke-width="1" /><line x1="59" y1="494" x2="659" y2="494" stroke="#000000" stroke-width="1" /><line x1="59" y1="44" x2="59" y2="494" stroke="#000000" stroke-width="1" /><text x="359" y="511" font-size="12" text-anchor="middle"></text><line x1="359" y1="494" x2="359" y2="499" stroke="#000000" stroke-width="1" /><line x1="54" y1="494" x2="59" y2="494" stroke="#000000" stroke-width="1" /><text x="51" y="498.2" font-size="12" text-anchor="end">0</text><line x1="54" y1="404" x2="59" y2="404" stroke="#000000" stroke-width="1" /><text x="51" y="408.2" font-size="12" text-anchor="end">2</text><line x1="54" y1="314" x2="59" y2="314" stroke="#000000" stroke-width="1" /><text x="51" y="318.2" font-size="12" text-anchor="end">4</text><line x1="54" y1="224" x2="59" y2="224" stroke="#000000" stroke-width="1" /><text x="51" y="228.20000000000002" font-size="12" text-anchor="end">6</text><line x1="54" y1="134" x2="59" y2="134" stroke="#000000" stroke-width="1" /><text x="51" y="138.20000000000002" font-size="12" text-anchor="end">8</text><line x1="54" y1="44" x2="59" y2="44" stroke="#000000" stroke-width="1" /><text x="51" y="48.2" font-size="12" text-anchor="end">10</text><text x="15" y="272.5" font-size="14" text-anchor="middle" transform="rotate(-90,15,272.5)">Value</text><text x="336.5" y="27.400000000000002" font-size="18" text-anchor="middle">bandwidth_scale = 0.4 (sensitive)</text><g clip-path="url(#kuva-clip-5)"><path d="M 435.81 451.19 L 436.0 449.01 L 436.18 446.83 L 436.37 444.65000000000003 L 436.58 442.47 L 436.81 440.29 L 437.09000000000003 438.11 L 437.43 435.93 L 437.86 433.75 L 438.39 431.57 L 439.03000000000003 429.39 L 439.8 427.21000000000004 L 440.68 425.03000000000003 L 441.66 422.85 L 442.72 420.67 L 443.81 418.49 L 444.90000000000003 416.31 L 445.92 414.13 L 446.83 411.95 L 447.58 409.77 L 448.16 407.59000000000003 L 448.54 405.41 L 448.73 403.23 L 448.78000000000003 401.05 L 448.71000000000004 398.87 L 448.58 396.69 L 448.43 394.51 L 448.33 392.33 L 448.3 390.15000000000003 L 448.38 387.97 L 448.6 385.79 L 448.95 383.61 L 449.44 381.43 L 450.07 379.25 L 450.82 377.07 L 451.68 374.89 L 452.63 372.71 L 453.68 370.53000000000003 L 454.79 368.35 L 455.97 366.17 L 457.18 363.99 L 458.40000000000003 361.81 L 459.6 359.63 L 460.75 357.45 L 461.79 355.27 L 462.68 353.09000000000003 L 463.37 350.91 L 463.82 348.73 L 464.0 346.55 L 463.89 344.37 L 463.48 342.19 L 462.8 340.01 L 461.87 337.83 L 460.72 335.65000000000003 L 459.41 333.47 L 457.98 331.29 L 456.49 329.11 L 454.96000000000004 326.93 L 453.44 324.75 L 451.95 322.57 L 450.51 320.39 L 449.13 318.21 L 447.81 316.03000000000003 L 446.56 313.85 L 445.38 311.67 L 444.27 309.49 L 443.23 307.31 L 442.28000000000003 305.13 L 441.42 302.95 L 440.66 300.77 L 440.0 298.59000000000003 L 439.44 296.41 L 438.98 294.24 L 438.61 292.06 L 438.32 289.88 L 438.1 287.7 L 437.94 285.52 L 437.82 283.34000000000003 L 437.73 281.16 L 437.66 278.98 L 437.61 276.8 L 437.57 274.62 L 437.53000000000003 272.44 L 437.5 270.26 L 437.47 268.08 L 437.45 265.9 L 437.46000000000004 263.72 L 437.5 261.54 L 437.59000000000003 259.36 L 437.76 257.18 L 438.01 255.0 L 438.38 252.82 L 438.88 250.64000000000001 L 439.51 248.46 L 440.27 246.28 L 441.16 244.1 L 442.16 241.92000000000002 L 443.22 239.74 L 444.3 237.56 L 445.36 235.38 L 446.33 233.20000000000002 L 447.18 231.02 L 447.85 228.84 L 448.34000000000003 226.66 L 448.64 224.48000000000002 L 448.77 222.3 L 448.76 220.12 L 448.66 217.94 L 448.51 215.76 L 448.38 213.58 L 448.3 211.4 L 448.32 209.22 L 448.46000000000004 207.04 L 448.73 204.86 L 449.14 202.68 L 449.69 200.5 L 450.37 198.32 L 451.17 196.14000000000001 L 452.08 193.96 L 453.07 191.78 L 454.15000000000003 189.6 L 455.29 187.42000000000002 L 456.48 185.24 L 457.7 183.06 L 458.92 180.88 L 460.1 178.70000000000002 L 461.21000000000004 176.52 L 462.19 174.34 L 463.0 172.16 L 463.59000000000003 169.98 L 463.93 167.8 L 463.99 165.62 L 463.75 163.44 L 463.22 161.26 L 462.43 159.08 L 461.40000000000003 156.9 L 460.18 154.72 L 458.81 152.54 L 457.35 150.36 L 455.83 148.18 L 454.31 146.0 L 452.8 143.82 L 451.33 141.64000000000001 L 449.91 139.46 L 448.55 137.28 L 447.26 135.1 L 446.04 132.92000000000002 L 444.89 130.74 L 443.81 128.56 L 442.8 126.38000000000001 L 441.88 124.2 L 441.04 122.02 L 440.3 119.84 L 439.65000000000003 117.66 L 439.09000000000003 115.48 L 438.6 113.3 L 438.19 111.12 L 437.82 108.94 L 437.5 106.76 L 437.21000000000004 104.58 L 436.94 102.4 L 436.68 100.22 L 436.44 98.04 L 436.19 95.86 L 435.96000000000004 93.68 L 435.73 91.5 L 434.0 91.5 L 434.0 93.68 L 434.0 95.86 L 434.0 98.04 L 434.0 100.22 L 434.0 102.4 L 434.0 104.58 L 434.0 106.76 L 434.0 108.94 L 434.0 111.12 L 434.0 113.3 L 434.0 115.48 L 434.0 117.66 L 434.0 119.84 L 434.0 122.02 L 434.0 124.2 L 434.0 126.38000000000001 L 434.0 128.56 L 434.0 130.74 L 434.0 132.92000000000002 L 434.0 135.1 L 434.0 137.28 L 434.0 139.46 L 434.0 141.64000000000001 L 434.0 143.82 L 434.0 146.0 L 434.0 148.18 L 434.0 150.36 L 434.0 152.54 L 434.0 154.72 L 434.0 156.9 L 434.0 159.08 L 434.0 161.26 L 434.0 163.44 L 434.0 165.62 L 434.0 167.8 L 434.0 169.98 L 434.0 172.16 L 434.0 174.34 L 434.0 176.52 L 434.0 178.70000000000002 L 434.0 180.88 L 434.0 183.06 L 434.0 185.24 L 434.0 187.42000000000002 L 434.0 189.6 L 434.0 191.78 L 434.0 193.96 L 434.0 196.14000000000001 L 434.0 198.32 L 434.0 200.5 L 434.0 202.68 L 434.0 204.86 L 434.0 207.04 L 434.0 209.22 L 434.0 211.4 L 434.0 213.58 L 434.0 215.76 L 434.0 217.94 L 434.0 220.12 L 434.0 222.3 L 434.0 224.48000000000002 L 434.0 226.66 L 434.0 228.84 L 434.0 231.02 L 434.0 233.20000000000002 L 434.0 235.38 L 434.0 237.56 L 434.0 239.74 L 434.0 241.92000000000002 L 434.0 244.1 L 434.0 246.28 L 434.0 248.46 L 434.0 250.64000000000001 L 434.0 252.82 L 434.0 255.0 L 434.0 257.18 L 434.0 259.36 L 434.0 261.54 L 434.0 263.72 L 434.0 265.9 L 434.0 268.08 L 434.0 270.26 L 434.0 272.44 L 434.0 274.62 L 434.0 276.8 L 434.0 278.98 L 434.0 281.16 L 434.0 283.34000000000003 L 434.0 285.52 L 434.0 287.7 L 434.0 289.88 L 434.0 292.06 L 434.0 294.24 L 434.0 296.41 L 434.0 298.59000000000003 L 434.0 300.77 L 434.0 302.95 L 434.0 305.13 L 434.0 307.31 L 434.0 309.49 L 434.0 311.67 L 434.0 313.85 L 434.0 316.03000000000003 L 434.0 318.21 L 434.0 320.39 L 434.0 322.57 L 434.0 324.75 L 434.0 326.93 L 434.0 329.11 L 434.0 331.29 L 434.0 333.47 L 434.0 335.65000000000003 L 434.0 337.83 L 434.0 340.01 L 434.0 342.19 L 434.0 344.37 L 434.0 346.55 L 434.0 348.73 L 434.0 350.91 L 434.0 353.09000000000003 L 434.0 355.27 L 434.0 357.45 L 434.0 359.63 L 434.0 361.81 L 434.0 363.99 L 434.0 366.17 L 434.0 368.35 L 434.0 370.53000000000003 L 434.0 372.71 L 434.0 374.89 L 434.0 377.07 L 434.0 379.25 L 434.0 381.43 L 434.0 383.61 L 434.0 385.79 L 434.0 387.97 L 434.0 390.15000000000003 L 434.0 392.33 L 434.0 394.51 L 434.0 396.69 L 434.0 398.87 L 434.0 401.05 L 434.0 403.23 L 434.0 405.41 L 434.0 407.59000000000003 L 434.0 409.77 L 434.0 411.95 L 434.0 414.13 L 434.0 416.31 L 434.0 418.49 L 434.0 420.67 L 434.0 422.85 L 434.0 425.03000000000003 L 434.0 427.21000000000004 L 434.0 429.39 L 434.0 431.57 L 434.0 433.75 L 434.0 435.93 L 434.0 438.11 L 434.0 440.29 L 434.0 442.47 L 434.0 444.65000000000003 L 434.0 446.83 L 434.0 449.01 L 434.0 451.19 Z" stroke="#4682b4" stroke-width="0.5" fill="#4682b4" fill-opacity="0.7000000000000001" /><rect x="335" y="173.87" width="48" height="179.66" fill="#4682b4" /><line x1="335" y1="271.35" x2="383" y2="271.35" stroke="#ffffff" stroke-width="1.5" /><line x1="359" y1="451.90000000000003" x2="359" y2="353.53000000000003" stroke="#4682b4" stroke-width="1" /><line x1="359" y1="173.87" x2="359" y2="90.79" stroke="#4682b4" stroke-width="1" /><line x1="347" y1="451.90000000000003" x2="371" y2="451.90000000000003" stroke="#4682b4" stroke-width="1" /><line x1="347" y1="90.79" x2="371" y2="90.79" stroke="#4682b4" stroke-width="1" /><circle cx="267.99" cy="328.96" r="3" fill="#4682b4" fill-opacity="0.7000000000000001" /><circle cx="265.74" cy="377.54" r="3" fill="#4682b4" fill-opacity="0.7000000000000001" /><circle cx="269.95" cy="308.32" r="3" fill="#4682b4" fill-opacity="0.7000000000000001" /><circle cx="248.88" cy="342.28000000000003" r="3" fill="#4682b4" fill-opacity="0.7000000000000001" /><circle cx="256.12" cy="324.67" r="3" fill="#4682b4" fill-opacity="0.7000000000000001" /><circle cx="249.14000000000001" cy="349.13" r="3" fill="#4682b4" fill-opacity="0.7000000000000001" /><circle cx="246.9" cy="408.58" r="3" fill="#4682b4" fill-opacity="0.7000000000000001" /><circle cx="253.81" cy="344.08" r="3" fill="#4682b4" fill-opacity="0.7000000000000001" /><circle cx="258.23" cy="380.95" r="3" fill="#4682b4" fill-opacity="0.7000000000000001" /><circle cx="267.6" cy="329.78000000000003" r="3" fill="#4682b4" fill-opacity="0.7000000000000001" /><circle cx="248.51000000000002" cy="350.40000000000003" r="3" fill="#4682b4" fill-opacity="0.7000000000000001" /><circle cx="268.53000000000003" cy="288.66" r="3" fill="#4682b4" fill-opacity="0.7000000000000001" /><circle cx="247.15" cy="341.19" r="3" fill="#4682b4" fill-opacity="0.7000000000000001" /><circle cx="255.05" cy="393.66" r="3" fill="#4682b4" fill-opacity="0.7000000000000001" /><circle cx="258.6" cy="366.8" r="3" fill="#4682b4" fill-opacity="0.7000000000000001" /><circle cx="260.37" cy="353.36" r="3" fill="#4682b4" fill-opacity="0.7000000000000001" /><circle cx="257.89" cy="404.73" r="3" fill="#4682b4" fill-opacity="0.7000000000000001" /><circle cx="268.55" cy="409.15000000000003" r="3" fill="#4682b4" fill-opacity="0.7000000000000001" /><circle cx="261.4" cy="356.93" r="3" fill="#4682b4" fill-opacity="0.7000000000000001" /><circle cx="268.59000000000003" cy="362.74" r="3" fill="#4682b4" fill-opacity="0.7000000000000001" /><circle cx="253.27" cy="390.51" r="3" fill="#4682b4" fill-opacity="0.7000000000000001" /><circle cx="251.66" cy="338.28000000000003" r="3" fill="#4682b4" fill-opacity="0.7000000000000001" /><circle cx="268.18" cy="335.55" r="3" fill="#4682b4" fill-opacity="0.7000000000000001" /><circle cx="246.89000000000001" cy="354.49" r="3" fill="#4682b4" fill-opacity="0.7000000000000001" /><circle cx="259.3" cy="326.99" r="3" fill="#4682b4" fill-opacity="0.7000000000000001" /><circle cx="261.53000000000003" cy="412.09000000000003" r="3" fill="#4682b4" fill-opacity="0.7000000000000001" /><circle cx="260.9" cy="366.74" r="3" fill="#4682b4" fill-opacity="0.7000000000000001" /><circle cx="255.64000000000001" cy="322.38" r="3" fill="#4682b4" fill-opacity="0.7000000000000001" /><circle cx="258.91" cy="355.43" r="3" fill="#4682b4" fill-opacity="0.7000000000000001" /><circle cx="258.39" cy="340.24" r="3" fill="#4682b4" fill-opacity="0.7000000000000001" /><circle cx="248.62" cy="431.13" r="3" fill="#4682b4" fill-opacity="0.7000000000000001" /><circle cx="256.02" cy="335.35" r="3" fill="#4682b4" fill-opacity="0.7000000000000001" /><circle cx="247.26000000000002" cy="325.78000000000003" r="3" fill="#4682b4" fill-opacity="0.7000000000000001" /><circle cx="253.66" cy="410.28000000000003" r="3" fill="#4682b4" fill-opacity="0.7000000000000001" /><circle cx="264.44" cy="270.79" r="3" fill="#4682b4" fill-opacity="0.7000000000000001" /><circle cx="258.21" cy="316.61" r="3" fill="#4682b4" fill-opacity="0.7000000000000001" /><circle cx="262.15" cy="339.90000000000003" r="3" fill="#4682b4" fill-opacity="0.7000000000000001" /><circle cx="269.1" cy="371.56" r="3" fill="#4682b4" fill-opacity="0.7000000000000001" /><circle cx="253.53" cy="355.13" r="3" fill="#4682b4" fill-opacity="0.7000000000000001" /><circle cx="248.65" cy="314.71" r="3" fill="#4682b4" fill-opacity="0.7000000000000001" /><circle cx="253.77" cy="306.75" r="3" fill="#4682b4" fill-opacity="0.7000000000000001" /><circle cx="262.19" cy="416.76" r="3" fill="#4682b4" fill-opacity="0.7000000000000001" /><circle cx="254.4" cy="360.96" r="3" fill="#4682b4" fill-opacity="0.7000000000000001" /><circle cx="267.13" cy="348.13" r="3" fill="#4682b4" fill-opacity="0.7000000000000001" /><circle cx="253.92000000000002" cy="403.97" r="3" fill="#4682b4" fill-opacity="0.7000000000000001" /><circle cx="257.7" cy="367.04" r="3" fill="#4682b4" fill-opacity="0.7000000000000001" /><circle cx="254.94" cy="345.87" r="3" fill="#4682b4" fill-opacity="0.7000000000000001" /><circle cx="253.1" cy="348.72" r="3" fill="#4682b4" fill-opacity="0.7000000000000001" /><circle cx="251.24" cy="350" r="3" fill="#4682b4" fill-opacity="0.7000000000000001" /><circle cx="252.14000000000001" cy="391.29" r="3" fill="#4682b4" fill-opacity="0.7000000000000001" /><circle cx="254.41" cy="314.24" r="3" fill="#4682b4" fill-opacity="0.7000000000000001" /><circle cx="266.97" cy="360.2" r="3" fill="#4682b4" fill-opacity="0.7000000000000001" /><circle cx="248.45000000000002" cy="364.29" r="3" fill="#4682b4" fill-opacity="0.7000000000000001" /><circle cx="260.4" cy="332.47" r="3" fill="#4682b4" fill-opacity="0.7000000000000001" /><circle cx="253.45000000000002" cy="343.03000000000003" r="3" fill="#4682b4" fill-opacity="0.7000000000000001" /><circle cx="262.17" cy="393.89" r="3" fill="#4682b4" fill-opacity="0.7000000000000001" /><circle cx="247.39000000000001" cy="337.93" r="3" fill="#4682b4" fill-opacity="0.7000000000000001" /><circle cx="258.03000000000003" cy="382.94" r="3" fill="#4682b4" fill-opacity="0.7000000000000001" /><circle cx="270.14" cy="344.87" r="3" fill="#4682b4" fill-opacity="0.7000000000000001" /><circle cx="257.75" cy="405.25" r="3" fill="#4682b4" fill-opacity="0.7000000000000001" /><circle cx="246.84" cy="345.06" r="3" fill="#4682b4" fill-opacity="0.7000000000000001" /><circle cx="258.84000000000003" cy="294.22" r="3" fill="#4682b4" fill-opacity="0.7000000000000001" /><circle cx="248.13" cy="312.74" r="3" fill="#4682b4" fill-opacity="0.7000000000000001" /><circle cx="269.16" cy="330.58" r="3" fill="#4682b4" fill-opacity="0.7000000000000001" /><circle cx="266.1" cy="307.55" r="3" fill="#4682b4" fill-opacity="0.7000000000000001" /><circle cx="265.32" cy="346.09000000000003" r="3" fill="#4682b4" fill-opacity="0.7000000000000001" /><circle cx="257.41" cy="348.88" r="3" fill="#4682b4" fill-opacity="0.7000000000000001" /><circle cx="252.70000000000002" cy="325.07" r="3" fill="#4682b4" fill-opacity="0.7000000000000001" /><circle cx="250.94" cy="407.38" r="3" fill="#4682b4" fill-opacity="0.7000000000000001" /><circle cx="268.66" cy="451.90000000000003" r="3" fill="#4682b4" fill-opacity="0.7000000000000001" /><circle cx="267.92" cy="403.86" r="3" fill="#4682b4" fill-opacity="0.7000000000000001" /><circle cx="259.4" cy="284.93" r="3" fill="#4682b4" fill-opacity="0.7000000000000001" /><circle cx="267.71" cy="340.40000000000003" r="3" fill="#4682b4" fill-opacity="0.7000000000000001" /><circle cx="254.63" cy="383.89" r="3" fill="#4682b4" fill-opacity="0.7000000000000001" /><circle cx="253.32" cy="391.75" r="3" fill="#4682b4" fill-opacity="0.7000000000000001" /><circle cx="258.59000000000003" cy="361.04" r="3" fill="#4682b4" fill-opacity="0.7000000000000001" /><circle cx="260.85" cy="403.86" r="3" fill="#4682b4" fill-opacity="0.7000000000000001" /><circle cx="261.28000000000003" cy="379.24" r="3" fill="#4682b4" fill-opacity="0.7000000000000001" /><circle cx="269.23" cy="334.83" r="3" fill="#4682b4" fill-opacity="0.7000000000000001" /><circle cx="251.47" cy="372.09000000000003" r="3" fill="#4682b4" fill-opacity="0.7000000000000001" /><circle cx="252.05" cy="339.43" r="3" fill="#4682b4" fill-opacity="0.7000000000000001" /><circle cx="261.64" cy="372.93" r="3" fill="#4682b4" fill-opacity="0.7000000000000001" /><circle cx="254.6" cy="409" r="3" fill="#4682b4" fill-opacity="0.7000000000000001" /><circle cx="267.58" cy="378.29" r="3" fill="#4682b4" fill-opacity="0.7000000000000001" /><circle cx="268.01" cy="443.29" r="3" fill="#4682b4" fill-opacity="0.7000000000000001" /><circle cx="247.45000000000002" cy="373.68" r="3" fill="#4682b4" fill-opacity="0.7000000000000001" /><circle cx="252.27" cy="369.7" r="3" fill="#4682b4" fill-opacity="0.7000000000000001" /><circle cx="250.15" cy="364.52" r="3" fill="#4682b4" fill-opacity="0.7000000000000001" /><circle cx="269.27" cy="345.46" r="3" fill="#4682b4" fill-opacity="0.7000000000000001" /><circle cx="265.76" cy="354.04" r="3" fill="#4682b4" fill-opacity="0.7000000000000001" /><circle cx="256.88" cy="334.92" r="3" fill="#4682b4" fill-opacity="0.7000000000000001" /><circle cx="256.41" cy="414.85" r="3" fill="#4682b4" fill-opacity="0.7000000000000001" /><circle cx="247.37" cy="327.93" r="3" fill="#4682b4" fill-opacity="0.7000000000000001" /><circle cx="263.14" cy="349.09000000000003" r="3" fill="#4682b4" fill-opacity="0.7000000000000001" /><circle cx="249.48000000000002" cy="317.38" r="3" fill="#4682b4" fill-opacity="0.7000000000000001" /><circle cx="265.34000000000003" cy="355.76" r="3" fill="#4682b4" fill-opacity="0.7000000000000001" /><circle cx="252.3" cy="425.81" r="3" fill="#4682b4" fill-opacity="0.7000000000000001" /><circle cx="270.28000000000003" cy="352.31" r="3" fill="#4682b4" fill-opacity="0.7000000000000001" /><circle cx="262.08" cy="397.76" r="3" fill="#4682b4" fill-opacity="0.7000000000000001" /><circle cx="254.93" cy="408.54" r="3" fill="#4682b4" fill-opacity="0.7000000000000001" /><circle cx="258.64" cy="148.96" r="3" fill="#4682b4" fill-opacity="0.7000000000000001" /><circle cx="263.23" cy="197.54" r="3" fill="#4682b4" fill-opacity="0.7000000000000001" /><circle cx="267.71" cy="128.32" r="3" fill="#4682b4" fill-opacity="0.7000000000000001" /><circle cx="250.1" cy="162.28" r="3" fill="#4682b4" fill-opacity="0.7000000000000001" /><circle cx="250.59" cy="144.67000000000002" r="3" fill="#4682b4" fill-opacity="0.7000000000000001" /><circle cx="250.37" cy="169.13" r="3" fill="#4682b4" fill-opacity="0.7000000000000001" /><circle cx="258.88" cy="228.58" r="3" fill="#4682b4" fill-opacity="0.7000000000000001" /><circle cx="259" cy="164.08" r="3" fill="#4682b4" fill-opacity="0.7000000000000001" /><circle cx="247.08" cy="200.95000000000002" r="3" fill="#4682b4" fill-opacity="0.7000000000000001" /><circle cx="260.36" cy="149.78" r="3" fill="#4682b4" fill-opacity="0.7000000000000001" /><circle cx="254.62" cy="170.4" r="3" fill="#4682b4" fill-opacity="0.7000000000000001" /><circle cx="252.66" cy="108.66" r="3" fill="#4682b4" fill-opacity="0.7000000000000001" /><circle cx="263.33" cy="161.19" r="3" fill="#4682b4" fill-opacity="0.7000000000000001" /><circle cx="262.76" cy="213.66" r="3" fill="#4682b4" fill-opacity="0.7000000000000001" /><circle cx="265.62" cy="186.8" r="3" fill="#4682b4" fill-opacity="0.7000000000000001" /><circle cx="252.75" cy="173.36" r="3" fill="#4682b4" fill-opacity="0.7000000000000001" /><circle cx="258.09000000000003" cy="224.73000000000002" r="3" fill="#4682b4" fill-opacity="0.7000000000000001" /><circle cx="251.09" cy="229.15" r="3" fill="#4682b4" fill-opacity="0.7000000000000001" /><circle cx="265.89" cy="176.93" r="3" fill="#4682b4" fill-opacity="0.7000000000000001" /><circle cx="250.29" cy="182.74" r="3" fill="#4682b4" fill-opacity="0.7000000000000001" /><circle cx="269.44" cy="210.51" r="3" fill="#4682b4" fill-opacity="0.7000000000000001" /><circle cx="267.38" cy="158.28" r="3" fill="#4682b4" fill-opacity="0.7000000000000001" /><circle cx="254.26000000000002" cy="155.55" r="3" fill="#4682b4" fill-opacity="0.7000000000000001" /><circle cx="267.3" cy="174.49" r="3" fill="#4682b4" fill-opacity="0.7000000000000001" /><circle cx="250.08" cy="146.99" r="3" fill="#4682b4" fill-opacity="0.7000000000000001" /><circle cx="257.62" cy="232.09" r="3" fill="#4682b4" fill-opacity="0.7000000000000001" /><circle cx="251.4" cy="186.74" r="3" fill="#4682b4" fill-opacity="0.7000000000000001" /><circle cx="255.64000000000001" cy="142.38" r="3" fill="#4682b4" fill-opacity="0.7000000000000001" /><circle cx="269.4" cy="175.43" r="3" fill="#4682b4" fill-opacity="0.7000000000000001" /><circle cx="250.48000000000002" cy="160.24" r="3" fill="#4682b4" fill-opacity="0.7000000000000001" /><circle cx="266.58" cy="251.13" r="3" fill="#4682b4" fill-opacity="0.7000000000000001" /><circle cx="252.75" cy="155.35" r="3" fill="#4682b4" fill-opacity="0.7000000000000001" /><circle cx="270.52" cy="145.78" r="3" fill="#4682b4" fill-opacity="0.7000000000000001" /><circle cx="268.25" cy="230.28" r="3" fill="#4682b4" fill-opacity="0.7000000000000001" /><circle cx="270.06" cy="90.79" r="3" fill="#4682b4" fill-opacity="0.7000000000000001" /><circle cx="246.77" cy="136.61" r="3" fill="#4682b4" fill-opacity="0.7000000000000001" /><circle cx="255.68" cy="159.9" r="3" fill="#4682b4" fill-opacity="0.7000000000000001" /><circle cx="253.29" cy="191.56" r="3" fill="#4682b4" fill-opacity="0.7000000000000001" /><circle cx="261.67" cy="175.13" r="3" fill="#4682b4" fill-opacity="0.7000000000000001" /><circle cx="249.42000000000002" cy="134.71" r="3" fill="#4682b4" fill-opacity="0.7000000000000001" /><circle cx="254.51000000000002" cy="126.75" r="3" fill="#4682b4" fill-opacity="0.7000000000000001" /><circle cx="258.87" cy="236.76" r="3" fill="#4682b4" fill-opacity="0.7000000000000001" /><circle cx="267.97" cy="180.96" r="3" fill="#4682b4" fill-opacity="0.7000000000000001" /><circle cx="250.83" cy="168.13" r="3" fill="#4682b4" fill-opacity="0.7000000000000001" /><circle cx="252.89000000000001" cy="223.97" r="3" fill="#4682b4" fill-opacity="0.7000000000000001" /><circle cx="264.2" cy="187.04" r="3" fill="#4682b4" fill-opacity="0.7000000000000001" /><circle cx="249.89000000000001" cy="165.87" r="3" fill="#4682b4" fill-opacity="0.7000000000000001" /><circle cx="249.72" cy="168.72" r="3" fill="#4682b4" fill-opacity="0.7000000000000001" /><circle cx="250.93" cy="170" r="3" fill="#4682b4" fill-opacity="0.7000000000000001" /><circle cx="260.1" cy="211.29" r="3" fill="#4682b4" fill-opacity="0.7000000000000001" /><circle cx="247.05" cy="134.24" r="3" fill="#4682b4" fill-opacity="0.7000000000000001" /><circle cx="257.28000000000003" cy="180.20000000000002" r="3" fill="#4682b4" fill-opacity="0.7000000000000001" /><circle cx="255.39000000000001" cy="184.29" r="3" fill="#4682b4" fill-opacity="0.7000000000000001" /><circle cx="256.88" cy="152.47" r="3" fill="#4682b4" fill-opacity="0.7000000000000001" /><circle cx="255.51000000000002" cy="163.03" r="3" fill="#4682b4" fill-opacity="0.7000000000000001" /><circle cx="251.34" cy="213.89000000000001" r="3" fill="#4682b4" fill-opacity="0.7000000000000001" /><circle cx="271.44" cy="157.93" r="3" fill="#4682b4" fill-opacity="0.7000000000000001" /><circle cx="253.4" cy="202.94" r="3" fill="#4682b4" fill-opacity="0.7000000000000001" /><circle cx="258.78000000000003" cy="164.87" r="3" fill="#4682b4" fill-opacity="0.7000000000000001" /><circle cx="265.7" cy="225.25" r="3" fill="#4682b4" fill-opacity="0.7000000000000001" /><circle cx="265.63" cy="165.06" r="3" fill="#4682b4" fill-opacity="0.7000000000000001" /><circle cx="264.12" cy="114.22" r="3" fill="#4682b4" fill-opacity="0.7000000000000001" /><circle cx="257.52" cy="132.74" r="3" fill="#4682b4" fill-opacity="0.7000000000000001" /><circle cx="265.34000000000003" cy="150.58" r="3" fill="#4682b4" fill-opacity="0.7000000000000001" /><circle cx="247.69" cy="127.55" r="3" fill="#4682b4" fill-opacity="0.7000000000000001" /><circle cx="260.5" cy="166.09" r="3" fill="#4682b4" fill-opacity="0.7000000000000001" /><circle cx="261.26" cy="168.88" r="3" fill="#4682b4" fill-opacity="0.7000000000000001" /><circle cx="271.08" cy="145.07" r="3" fill="#4682b4" fill-opacity="0.7000000000000001" /><circle cx="250.92000000000002" cy="227.38" r="3" fill="#4682b4" fill-opacity="0.7000000000000001" /><circle cx="263.47" cy="271.9" r="3" fill="#4682b4" fill-opacity="0.7000000000000001" /><circle cx="265.14" cy="223.86" r="3" fill="#4682b4" fill-opacity="0.7000000000000001" /><circle cx="251.9" cy="104.93" r="3" fill="#4682b4" fill-opacity="0.7000000000000001" /><circle cx="250.97" cy="160.4" r="3" fill="#4682b4" fill-opacity="0.7000000000000001" /><circle cx="250.57" cy="203.89000000000001" r="3" fill="#4682b4" fill-opacity="0.7000000000000001" /><circle cx="251.87" cy="211.75" r="3" fill="#4682b4" fill-opacity="0.7000000000000001" /><circle cx="255.47" cy="181.04" r="3" fill="#4682b4" fill-opacity="0.7000000000000001" /><circle cx="247.25" cy="223.86" r="3" fill="#4682b4" fill-opacity="0.7000000000000001" /><circle cx="263.9" cy="199.24" r="3" fill="#4682b4" fill-opacity="0.7000000000000001" /><circle cx="259.71" cy="154.83" r="3" fill="#4682b4" fill-opacity="0.7000000000000001" /><circle cx="260.45" cy="192.09" r="3" fill="#4682b4" fill-opacity="0.7000000000000001" /><circle cx="259.23" cy="159.43" r="3" fill="#4682b4" fill-opacity="0.7000000000000001" /><circle cx="247.74" cy="192.93" r="3" fill="#4682b4" fill-opacity="0.7000000000000001" /><circle cx="251.18" cy="229" r="3" fill="#4682b4" fill-opacity="0.7000000000000001" /><circle cx="269.92" cy="198.29" r="3" fill="#4682b4" fill-opacity="0.7000000000000001" /><circle cx="253.33" cy="263.29" r="3" fill="#4682b4" fill-opacity="0.7000000000000001" /><circle cx="261.92" cy="193.68" r="3" fill="#4682b4" fill-opacity="0.7000000000000001" /><circle cx="258.69" cy="189.70000000000002" r="3" fill="#4682b4" fill-opacity="0.7000000000000001" /><circle cx="261.22" cy="184.52" r="3" fill="#4682b4" fill-opacity="0.7000000000000001" /><circle cx="251.84" cy="165.46" r="3" fill="#4682b4" fill-opacity="0.7000000000000001" /><circle cx="268.4" cy="174.04" r="3" fill="#4682b4" fill-opacity="0.7000000000000001" /><circle cx="262.55" cy="154.92000000000002" r="3" fill="#4682b4" fill-opacity="0.7000000000000001" /><circle cx="262.73" cy="234.85" r="3" fill="#4682b4" fill-opacity="0.7000000000000001" /><circle cx="264.94" cy="147.93" r="3" fill="#4682b4" fill-opacity="0.7000000000000001" /><circle cx="247.25" cy="169.09" r="3" fill="#4682b4" fill-opacity="0.7000000000000001" /><circle cx="256.47" cy="137.38" r="3" fill="#4682b4" fill-opacity="0.7000000000000001" /><circle cx="261.46" cy="175.76" r="3" fill="#4682b4" fill-opacity="0.7000000000000001" /><circle cx="253.97" cy="245.81" r="3" fill="#4682b4" fill-opacity="0.7000000000000001" /><circle cx="266.94" cy="172.31" r="3" fill="#4682b4" fill-opacity="0.7000000000000001" /><circle cx="247.79" cy="217.76" r="3" fill="#4682b4" fill-opacity="0.7000000000000001" /><circle cx="250.01000000000002" cy="228.54" r="3" fill="#4682b4" fill-opacity="0.7000000000000001" /></g></svg>