<svg xmlns="http://www.w3.org/2000/svg" width="673" height="545" font-family="DejaVu Sans, Liberation Sans, Arial, sans-serif" fill="black"><rect width="100%" height="100%" fill="white" /><defs><clipPath id="kuva-clip-4"><rect x="59" y="44" width="600" height="450"/></clipPath></defs><line x1="59" y1="404" x2="659" y2="404" stroke="#cccccc" stroke-width="1" /><line x1="59" y1="314" x2="659" y2="314" stroke="#cccccc" stroke-width="1" /><line x1="59" y1="224" x2="659" y2="224" stroke="#cccccc" stroke-width="1" /><line x1="59" y1="134" x2="659" y2="134" stroke="#cccccc" stroke-width="1" /><line x1="59" y1="44" x2="659" y2="44" stroke="#cccccc" stroke-width="1" /><line x1="59" y1="494" x2="659" y2="494" stroke="#000000" stroke-width="1" /><line x1="59" y1="44" x2="59" y2="494" stroke="#000000" stroke-width="1" /><text x="359" y="511" font-size="12" text-anchor="middle"></text><line x1="359" y1="494" x2="359" y2="499" stroke="#000000" stroke-width="1" /><line x1="54" y1="494" x2="59" y2="494" stroke="#000000" stroke-width="1" /><text x="51" y="498.2" font-size="12" text-anchor="end">0</text><line x1="54" y1="404" x2="59" y2="404" stroke="#000000" stroke-width="1" /><text x="51" y="408.2" font-size="12" text-anchor="end">2</text><line x1="54" y1="314" x2="59" y2="314" stroke="#000000" stroke-width="1" /><text x="51" y="318.2" font-size="12" text-anchor="end">4</text><line x1="54" y1="224" x2="59" y2="224" stroke="#000000" stroke-width="1" /><text x="51" y="228.20000000000002" font-size="12" text-anchor="end">6</text><line x1="54" y1="134" x2="59" y2="134" stroke="#000000" stroke-width="1" /><text x="51" y="138.20000000000002" font-size="12" text-anchor="end">8</text><line x1="54" y1="44" x2="59" y2="44" stroke="#000000" stroke-width="1" /><text x="51" y="48.2" font-size="12" text-anchor="end">10</text><text x="15" y="272.5" font-size="14" text-anchor="middle" transform="rotate(-90,15,272.5)">Value</text><text x="336.5" y="27.400000000000002" font-size="18" text-anchor="middle">bandwidth_scale = 1.0 (Silverman default)</text><g clip-path="url(#kuva-clip-4)"><path d="M 439.07 450.02 L 439.63 447.29 L 440.22 444.56 L 440.85 441.84000000000003 L 441.51 439.11 L 442.2 436.38 L 442.92 433.65000000000003 L 443.67 430.93 L 444.44 428.2 L 445.24 425.47 L 446.05 422.74 L 446.88 420.01 L 447.72 417.29 L 448.58 414.56 L 449.44 411.83 L 450.31 409.1 L 451.18 406.37 L 452.06 403.65000000000003 L 452.94 400.92 L 453.81 398.19 L 454.68 395.46000000000004 L 455.54 392.74 L 456.40000000000003 390.01 L 457.24 387.28000000000003 L 458.06 384.55 L 458.86 381.82 L 459.63 379.1 L 460.36 376.37 L 461.05 373.64 L 461.69 370.91 L 462.27 368.18 L 462.78000000000003 365.46 L 463.21000000000004 362.73 L 463.55 360.0 L 463.81 357.27 L 463.96000000000004 354.55 L 464.0 351.82 L 463.93 349.09000000000003 L 463.75 346.36 L 463.46000000000004 343.63 L 463.05 340.91 L 462.54 338.18 L 461.92 335.45 L 461.2 332.72 L 460.39 329.99 L 459.51 327.27 L 458.55 324.54 L 457.55 321.81 L 456.5 319.08 L 455.42 316.36 L 454.33 313.63 L 453.25 310.90000000000003 L 452.17 308.17 L 451.12 305.44 L 450.11 302.72 L 449.15000000000003 299.99 L 448.25 297.26 L 447.41 294.53000000000003 L 446.65000000000003 291.8 L 445.96000000000004 289.08 L 445.37 286.35 L 444.86 283.62 L 444.44 280.89 L 444.11 278.17 L 443.88 275.44 L 443.73 272.71 L 443.67 269.98 L 443.71000000000004 267.25 L 443.82 264.53000000000003 L 444.02 261.8 L 444.29 259.07 L 444.63 256.34000000000003 L 445.04 253.61 L 445.51 250.89000000000001 L 446.03000000000003 248.16 L 446.61 245.43 L 447.23 242.70000000000002 L 447.89 239.98000000000002 L 448.58 237.25 L 449.3 234.52 L 450.05 231.79 L 450.83 229.06 L 451.61 226.34 L 452.42 223.61 L 453.23 220.88 L 454.06 218.15 L 454.88 215.42000000000002 L 455.71000000000004 212.70000000000002 L 456.53000000000003 209.97 L 457.35 207.24 L 458.15000000000003 204.51 L 458.93 201.79 L 459.69 199.06 L 460.41 196.33 L 461.09000000000003 193.6 L 461.72 190.87 L 462.29 188.15 L 462.79 185.42000000000002 L 463.22 182.69 L 463.55 179.96 L 463.8 177.23 L 463.94 174.51 L 463.98 171.78 L 463.90000000000003 169.05 L 463.71000000000004 166.32 L 463.40000000000003 163.6 L 462.98 160.87 L 462.44 158.14000000000001 L 461.8 155.41 L 461.05 152.68 L 460.21000000000004 149.96 L 459.29 147.23 L 458.29 144.5 L 457.22 141.77 L 456.11 139.04 L 454.96000000000004 136.32 L 453.78000000000003 133.59 L 452.59000000000003 130.86 L 451.40000000000003 128.13 L 450.21000000000004 125.41 L 449.05 122.68 L 447.91 119.95 L 446.81 117.22 L 445.75 114.49000000000001 L 444.73 111.77 L 443.77 109.04 L 442.86 106.31 L 442.01 103.58 L 441.21000000000004 100.85000000000001 L 440.47 98.13 L 439.79 95.4 L 439.16 92.67 L 434.0 92.67 L 434.0 95.4 L 434.0 98.13 L 434.0 100.85000000000001 L 434.0 103.58 L 434.0 106.31 L 434.0 109.04 L 434.0 111.77 L 434.0 114.49000000000001 L 434.0 117.22 L 434.0 119.95 L 434.0 122.68 L 434.0 125.41 L 434.0 128.13 L 434.0 130.86 L 434.0 133.59 L 434.0 136.32 L 434.0 139.04 L 434.0 141.77 L 434.0 144.5 L 434.0 147.23 L 434.0 149.96 L 434.0 152.68 L 434.0 155.41 L 434.0 158.14000000000001 L 434.0 160.87 L 434.0 163.6 L 434.0 166.32 L 434.0 169.05 L 434.0 171.78 L 434.0 174.51 L 434.0 177.23 L 434.0 179.96 L 434.0 182.69 L 434.0 185.42000000000002 L 434.0 188.15 L 434.0 190.87 L 434.0 193.6 L 434.0 196.33 L 434.0 199.06 L 434.0 201.79 L 434.0 204.51 L 434.0 207.24 L 434.0 209.97 L 434.0 212.70000000000002 L 434.0 215.42000000000002 L 434.0 218.15 L 434.0 220.88 L 434.0 223.61 L 434.0 226.34 L 434.0 229.06 L 434.0 231.79 L 434.0 234.52 L 434.0 237.25 L 434.0 239.98000000000002 L 434.0 242.70000000000002 L 434.0 245.43 L 434.0 248.16 L 434.0 250.89000000000001 L 434.0 253.61 L 434.0 256.34000000000003 L 434.0 259.07 L 434.0 261.8 L 434.0 264.53000000000003 L 434.0 267.25 L 434.0 269.98 L 434.0 272.71 L 434.0 275.44 L 434.0 278.17 L 434.0 280.89 L 434.0 283.62 L 434.0 286.35 L 434.0 289.08 L 434.0 291.8 L 434.0 294.53000000000003 L 434.0 297.26 L 434.0 299.99 L 434.0 302.72 L 434.0 305.44 L 434.0 308.17 L 434.0 310.90000000000003 L 434.0 313.63 L 434.0 316.36 L 434.0 319.08 L 434.0 321.81 L 434.0 324.54 L 434.0 327.27 L 434.0 329.99 L 434.0 332.72 L 434.0 335.45 L 434.0 338.18 L 434.0 340.91 L 434.0 343.63 L 434.0 346.36 L 434.0 349.09000000000003 L 434.0 351.82 L 434.0 354.55 L 434.0 357.27 L 434.0 360.0 L 434.0 362.73 L 434.0 365.46 L 434.0 368.18 L 434.0 370.91 L 434.0 373.64 L 434.0 376.37 L 434.0 379.1 L 434.0 381.82 L 434.0 384.55 L 434.0 387.28000000000003 L 434.0 390.01 L 434.0 392.74 L 434.0 395.46000000000004 L 434.0 398.19 L 434.0 400.92 L 434.0 403.65000000000003 L 434.0 406.37 L 434.0 409.1 L 434.0 411.83 L 434.0 414.56 L 434.0 417.29 L 434.0 420.01 L 434.0 422.74 L 434.0 425.47 L 434.0 428.2 L 434.0 430.93 L 434.0 433.65000000000003 L 434.0 436.38 L 434.0 439.11 L 434.0 441.84000000000003 L 434.0 444.56 L 434.0 447.29 L 434.0 450.02 Z" stroke="#4682b4" stroke-width="0.5" fill="#4682b4" fill-opacity="0.7000000000000001" /><rect x="335" y="173.87" width="48" height="179.66" fill="#4682b4" /><line x1="335" y1="271.35" x2="383" y2="271.35" stroke="#ffffff" stroke-width="1.5" /><line x1="359" y1="451.90000000000003" x2="359" y2="353.53000000000003" stroke="#4682b4" stroke-width="1" /><line x1="359" y1="173.87" x2="359" y2="90.79" stroke="#4682b4" stroke-width="1" /><line x1="347" y1="451.90000000000003" x2="371" y2="451.90000000000003" stroke="#4682b4" stroke-width="1" /><line x1="347" y1="90.79" x2="371" y2="90.79" stroke="#4682b4" stroke-width="1" /><circle cx="267.99" cy="328.96" r="3" fill="#4682b4" fill-opacity="0.7000000000000001" /><circle cx="265.74" cy="377.54" r="3" fill="#4682b4" fill-opacity="0.7000000000000001" /><circle cx="269.95" cy="308.32" r="3" fill="#4682b4" fill-opacity="0.7000000000000001" /><circle cx="248.88" cy="342.28000000000003" r="3" fill="#4682b4" fill-opacity="0.7000000000000001" /><circle cx="256.12" cy="324.67" r="3" fill="#4682b4" fill-opacity="0.7000000000000001" /><circle cx="249.14000000000001" cy="349.13" r="3" fill="#4682b4" fill-opacity="0.7000000000000001" /><circle cx="246.9" cy="408.58" r="3" fill="#4682b4" fill-opacity="0.7000000000000001" /><circle cx="253.81" cy="344.08" r="3" fill="#4682b4" fill-opacity="0.7000000000000001" /><circle cx="258.23" cy="380.95" r="3" fill="#4682b4" fill-opacity="0.7000000000000001" /><circle cx="267.6" cy="329.78000000000003" r="3" fill="#4682b4" fill-opacity="0.7000000000000001" /><circle cx="248.51000000000002" cy="350.40000000000003" r="3" fill="#4682b4" fill-opacity="0.7000000000000001" /><circle cx="268.53000000000003" cy="288.66" r="3" fill="#4682b4" fill-opacity="0.7000000000000001" /><circle cx="247.15" cy="341.19" r="3" fill="#4682b4" fill-opacity="0.7000000000000001" /><circle cx="255.05" cy="393.66" r="3" fill="#4682b4" fill-opacity="0.7000000000000001" /><circle cx="258.6" cy="366.8" r="3" fill="#4682b4" fill-opacity="0.7000000000000001" /><circle cx="260.37" cy="353.36" r="3" fill="#4682b4" fill-opacity="0.7000000000000001" /><circle cx="257.89" cy="404.73" r="3" fill="#4682b4" fill-opacity="0.7000000000000001" /><circle cx="268.55" cy="409.15000000000003" r="3" fill="#4682b4" fill-opacity="0.7000000000000001" /><circle cx="261.4" cy="356.93" r="3" fill="#4682b4" fill-opacity="0.7000000000000001" /><circle cx="268.59000000000003" cy="362.74" r="3" fill="#4682b4" fill-opacity="0.7000000000000001" /><circle cx="253.27" cy="390.51" r="3" fill="#4682b4" fill-opacity="0.7000000000000001" /><circle cx="251.66" cy="338.28000000000003" r="3" fill="#4682b4" fill-opacity="0.7000000000000001" /><circle cx="268.18" cy="335.55" r="3" fill="#4682b4" fill-opacity="0.7000000000000001" /><circle cx="246.89000000000001" cy="354.49" r="3" fill="#4682b4" fill-opacity="0.7000000000000001" /><circle cx="259.3" cy="326.99" r="3" fill="#4682b4" fill-opacity="0.7000000000000001" /><circle cx="261.53000000000003" cy="412.09000000000003" r="3" fill="#4682b4" fill-opacity="0.7000000000000001" /><circle cx="260.9" cy="366.74" r="3" fill="#4682b4" fill-opacity="0.7000000000000001" /><circle cx="255.64000000000001" cy="322.38" r="3" fill="#4682b4" fill-opacity="0.7000000000000001" /><circle cx="258.91" cy="355.43" r="3" fill="#4682b4" fill-opacity="0.7000000000000001" /><circle cx="258.39" cy="340.24" r="3" fill="#4682b4" fill-opacity="0.7000000000000001" /><circle cx="248.62" cy="431.13" r="3" fill="#4682b4" fill-opacity="0.7000000000000001" /><circle cx="256.02" cy="335.35" r="3" fill="#4682b4" fill-opacity="0.7000000000000001" /><circle cx="247.26000000000002" cy="325.78000000000003" r="3" fill="#4682b4" fill-opacity="0.7000000000000001" /><circle cx="253.66" cy="410.28000000000003" r="3" fill="#4682b4" fill-opacity="0.7000000000000001" /><circle cx="264.44" cy="270.79" r="3" fill="#4682b4" fill-opacity="0.7000000000000001" /><circle cx="258.21" cy="316.61" r="3" fill="#4682b4" fill-opacity="0.7000000000000001" /><circle cx="262.15" cy="339.90000000000003" r="3" fill="#4682b4" fill-opacity="0.7000000000000001" /><circle cx="269.1" cy="371.56" r="3" fill="#4682b4" fill-opacity="0.7000000000000001" /><circle cx="253.53" cy="355.13" r="3" fill="#4682b4" fill-opacity="0.7000000000000001" /><circle cx="248.65" cy="314.71" r="3" fill="#4682b4" fill-opacity="0.7000000000000001" /><circle cx="253.77" cy="306.75" r="3" fill="#4682b4" fill-opacity="0.7000000000000001" /><circle cx="262.19" cy="416.76" r="3" fill="#4682b4" fill-opacity="0.7000000000000001" /><circle cx="254.4" cy="360.96" r="3" fill="#4682b4" fill-opacity="0.7000000000000001" /><circle cx="267.13" cy="348.13" r="3" fill="#4682b4" fill-opacity="0.7000000000000001" /><circle cx="253.92000000000002" cy="403.97" r="3" fill="#4682b4" fill-opacity="0.7000000000000001" /><circle cx="257.7" cy="367.04" r="3" fill="#4682b4" fill-opacity="0.7000000000000001" /><circle cx="254.94" cy="345.87" r="3" fill="#4682b4" fill-opacity="0.7000000000000001" /><circle cx="253.1" cy="348.72" r="3" fill="#4682b4" fill-opacity="0.7000000000000001" /><circle cx="251.24" cy="350" r="3" fill="#4682b4" fill-opacity="0.7000000000000001" /><circle cx="252.14000000000001" cy="391.29" r="3" fill="#4682b4" fill-opacity="0.7000000000000001" /><circle cx="254.41" cy="314.24" r="3" fill="#4682b4" fill-opacity="0.7000000000000001" /><circle cx="266.97" cy="360.2" r="3" fill="#4682b4" fill-opacity="0.7000000000000001" /><circle cx="248.45000000000002" cy="364.29" r="3" fill="#4682b4" fill-opacity="0.7000000000000001" /><circle cx="260.4" cy="332.47" r="3" fill="#4682b4" fill-opacity="0.7000000000000001" /><circle cx="253.45000000000002" cy="343.03000000000003" r="3" fill="#4682b4" fill-opacity="0.7000000000000001" /><circle cx="262.17" cy="393.89" r="3" fill="#4682b4" fill-opacity="0.7000000000000001" /><circle cx="247.39000000000001" cy="337.93" r="3" fill="#4682b4" fill-opacity="0.7000000000000001" /><circle cx="258.03000000000003" cy="382.94" r="3" fill="#4682b4" fill-opacity="0.7000000000000001" /><circle cx="270.14" cy="344.87" r="3" fill="#4682b4" fill-opacity="0.7000000000000001" /><circle cx="257.75" cy="405.25" r="3" fill="#4682b4" fill-opacity="0.7000000000000001" /><circle cx="246.84" cy="345.06" r="3" fill="#4682b4" fill-opacity="0.7000000000000001" /><circle cx="258.84000000000003" cy="294.22" r="3" fill="#4682b4" fill-opacity="0.7000000000000001" /><circle cx="248.13" cy="312.74" r="3" fill="#4682b4" fill-opacity="0.7000000000000001" /><circle cx="269.16" cy="330.58" r="3" fill="#4682b4" fill-opacity="0.7000000000000001" /><circle cx="266.1" cy="307.55" r="3" fill="#4682b4" fill-opacity="0.7000000000000001" /><circle cx="265.32" cy="346.09000000000003" r="3" fill="#4682b4" fill-opacity="0.7000000000000001" /><circle cx="257.41" cy="348.88" r="3" fill="#4682b4" fill-opacity="0.7000000000000001" /><circle cx="252.70000000000002" cy="325.07" r="3" fill="#4682b4" fill-opacity="0.7000000000000001" /><circle cx="250.94" cy="407.38" r="3" fill="#4682b4" fill-opacity="0.7000000000000001" /><circle cx="268.66" cy="451.90000000000003" r="3" fill="#4682b4" fill-opacity="0.7000000000000001" /><circle cx="267.92" cy="403.86" r="3" fill="#4682b4" fill-opacity="0.7000000000000001" /><circle cx="259.4" cy="284.93" r="3" fill="#4682b4" fill-opacity="0.7000000000000001" /><circle cx="267.71" cy="340.40000000000003" r="3" fill="#4682b4" fill-opacity="0.7000000000000001" /><circle cx="254.63" cy="383.89" r="3" fill="#4682b4" fill-opacity="0.7000000000000001" /><circle cx="253.32" cy="391.75" r="3" fill="#4682b4" fill-opacity="0.7000000000000001" /><circle cx="258.59000000000003" cy="361.04" r="3" fill="#4682b4" fill-opacity="0.7000000000000001" /><circle cx="260.85" cy="403.86" r="3" fill="#4682b4" fill-opacity="0.7000000000000001" /><circle cx="261.28000000000003" cy="379.24" r="3" fill="#4682b4" fill-opacity="0.7000000000000001" /><circle cx="269.23" cy="334.83" r="3" fill="#4682b4" fill-opacity="0.7000000000000001" /><circle cx="251.47" cy="372.09000000000003" r="3" fill="#4682b4" fill-opacity="0.7000000000000001" /><circle cx="252.05" cy="339.43" r="3" fill="#4682b4" fill-opacity="0.7000000000000001" /><circle cx="261.64" cy="372.93" r="3" fill="#4682b4" fill-opacity="0.7000000000000001" /><circle cx="254.6" cy="409" r="3" fill="#4682b4" fill-opacity="0.7000000000000001" /><circle cx="267.58" cy="378.29" r="3" fill="#4682b4" fill-opacity="0.7000000000000001" /><circle cx="268.01" cy="443.29" r="3" fill="#4682b4" fill-opacity="0.7000000000000001" /><circle cx="247.45000000000002" cy="373.68" r="3" fill="#4682b4" fill-opacity="0.7000000000000001" /><circle cx="252.27" cy="369.7" r="3" fill="#4682b4" fill-opacity="0.7000000000000001" /><circle cx="250.15" cy="364.52" r="3" fill="#4682b4" fill-opacity="0.7000000000000001" /><circle cx="269.27" cy="345.46" r="3" fill="#4682b4" fill-opacity="0.7000000000000001" /><circle cx="265.76" cy="354.04" r="3" fill="#4682b4" fill-opacity="0.7000000000000001" /><circle cx="256.88" cy="334.92" r="3" fill="#4682b4" fill-opacity="0.7000000000000001" /><circle cx="256.41" cy="414.85" r="3" fill="#4682b4" fill-opacity="0.7000000000000001" /><circle cx="247.37" cy="327.93" r="3" fill="#4682b4" fill-opacity="0.7000000000000001" /><circle cx="263.14" cy="349.09000000000003" r="3" fill="#4682b4" fill-opacity="0.7000000000000001" /><circle cx="249.48000000000002" cy="317.38" r="3" fill="#4682b4" fill-opacity="0.7000000000000001" /><circle cx="265.34000000000003" cy="355.76" r="3" fill="#4682b4" fill-opacity="0.7000000000000001" /><circle cx="252.3" cy="425.81" r="3" fill="#4682b4" fill-opacity="0.7000000000000001" /><circle cx="270.28000000000003" cy="352.31" r="3" fill="#4682b4" fill-opacity="0.7000000000000001" /><circle cx="262.08" cy="397.76" r="3" fill="#4682b4" fill-opacity="0.7000000000000001" /><circle cx="254.93" cy="408.54" r="3" fill="#4682b4" fill-opacity="0.7000000000000001" /><circle cx="258.64" cy="148.96" r="3" fill="#4682b4" fill-opacity="0.7000000000000001" /><circle cx="263.23" cy="197.54" r="3" fill="#4682b4" fill-opacity="0.7000000000000001" /><circle cx="267.71" cy="128.32" r="3" fill="#4682b4" fill-opacity="0.7000000000000001" /><circle cx="250.1" cy="162.28" r="3" fill="#4682b4" fill-opacity="0.7000000000000001" /><circle cx="250.59" cy="144.67000000000002" r="3" fill="#4682b4" fill-opacity="0.7000000000000001" /><circle cx="250.37" cy="169.13" r="3" fill="#4682b4" fill-opacity="0.7000000000000001" /><circle cx="258.88" cy="228.58" r="3" fill="#4682b4" fill-opacity="0.7000000000000001" /><circle cx="259" cy="164.08" r="3" fill="#4682b4" fill-opacity="0.7000000000000001" /><circle cx="247.08" cy="200.95000000000002" r="3" fill="#4682b4" fill-opacity="0.7000000000000001" /><circle cx="260.36" cy="149.78" r="3" fill="#4682b4" fill-opacity="0.7000000000000001" /><circle cx="254.62" cy="170.4" r="3" fill="#4682b4" fill-opacity="0.7000000000000001" /><circle cx="252.66" cy="108.66" r="3" fill="#4682b4" fill-opacity="0.7000000000000001" /><circle cx="263.33" cy="161.19" r="3" fill="#4682b4" fill-opacity="0.7000000000000001" /><circle cx="262.76" cy="213.66" r="3" fill="#4682b4" fill-opacity="0.7000000000000001" /><circle cx="265.62" cy="186.8" r="3" fill="#4682b4" fill-opacity="0.7000000000000001" /><circle cx="252.75" cy="173.36" r="3" fill="#4682b4" fill-opacity="0.7000000000000001" /><circle cx="258.09000000000003" cy="224.73000000000002" r="3" fill="#4682b4" fill-opacity="0.7000000000000001" /><circle cx="251.09" cy="229.15" r="3" fill="#4682b4" fill-opacity="0.7000000000000001" /><circle cx="265.89" cy="176.93" r="3" fill="#4682b4" fill-opacity="0.7000000000000001" /><circle cx="250.29" cy="182.74" r="3" fill="#4682b4" fill-opacity="0.7000000000000001" /><circle cx="269.44" cy="210.51" r="3" fill="#4682b4" fill-opacity="0.7000000000000001" /><circle cx="267.38" cy="158.28" r="3" fill="#4682b4" fill-opacity="0.7000000000000001" /><circle cx="254.26000000000002" cy="155.55" r="3" fill="#4682b4" fill-opacity="0.7000000000000001" /><circle cx="267.3" cy="174.49" r="3" fill="#4682b4" fill-opacity="0.7000000000000001" /><circle cx="250.08" cy="146.99" r="3" fill="#4682b4" fill-opacity="0.7000000000000001" /><circle cx="257.62" cy="232.09" r="3" fill="#4682b4" fill-opacity="0.7000000000000001" /><circle cx="251.4" cy="186.74" r="3" fill="#4682b4" fill-opacity="0.7000000000000001" /><circle cx="255.64000000000001" cy="142.38" r="3" fill="#4682b4" fill-opacity="0.7000000000000001" /><circle cx="269.4" cy="175.43" r="3" fill="#4682b4" fill-opacity="0.7000000000000001" /><circle cx="250.48000000000002" cy="160.24" r="3" fill="#4682b4" fill-opacity="0.7000000000000001" /><circle cx="266.58" cy="251.13" r="3" fill="#4682b4" fill-opacity="0.7000000000000001" /><circle cx="252.75" cy="155.35" r="3" fill="#4682b4" fill-opacity="0.7000000000000001" /><circle cx="270.52" cy="145.78" r="3" fill="#4682b4" fill-opacity="0.7000000000000001" /><circle cx="268.25" cy="230.28" r="3" fill="#4682b4" fill-opacity="0.7000000000000001" /><circle cx="270.06" cy="90.79" r="3" fill="#4682b4" fill-opacity="0.7000000000000001" /><circle cx="246.77" cy="136.61" r="3" fill="#4682b4" fill-opacity="0.7000000000000001" /><circle cx="255.68" cy="159.9" r="3" fill="#4682b4" fill-opacity="0.7000000000000001" /><circle cx="253.29" cy="191.56" r="3" fill="#4682b4" fill-opacity="0.7000000000000001" /><circle cx="261.67" cy="175.13" r="3" fill="#4682b4" fill-opacity="0.7000000000000001" /><circle cx="249.42000000000002" cy="134.71" r="3" fill="#4682b4" fill-opacity="0.7000000000000001" /><circle cx="254.51000000000002" cy="126.75" r="3" fill="#4682b4" fill-opacity="0.7000000000000001" /><circle cx="258.87" cy="236.76" r="3" fill="#4682b4" fill-opacity="0.7000000000000001" /><circle cx="267.97" cy="180.96" r="3" fill="#4682b4" fill-opacity="0.7000000000000001" /><circle cx="250.83" cy="168.13" r="3" fill="#4682b4" fill-opacity="0.7000000000000001" /><circle cx="252.89000000000001" cy="223.97" r="3" fill="#4682b4" fill-opacity="0.7000000000000001" /><circle cx="264.2" cy="187.04" r="3" fill="#4682b4" fill-opacity="0.7000000000000001" /><circle cx="249.89000000000001" cy="165.87" r="3" fill="#4682b4" fill-opacity="0.7000000000000001" /><circle cx="249.72" cy="168.72" r="3" fill="#4682b4" fill-opacity="0.7000000000000001" /><circle cx="250.93" cy="170" r="3" fill="#4682b4" fill-opacity="0.7000000000000001" /><circle cx="260.1" cy="211.29" r="3" fill="#4682b4" fill-opacity="0.7000000000000001" /><circle cx="247.05" cy="134.24" r="3" fill="#4682b4" fill-opacity="0.7000000000000001" /><circle cx="257.28000000000003" cy="180.20000000000002" r="3" fill="#4682b4" fill-opacity="0.7000000000000001" /><circle cx="255.39000000000001" cy="184.29" r="3" fill="#4682b4" fill-opacity="0.7000000000000001" /><circle cx="256.88" cy="152.47" r="3" fill="#4682b4" fill-opacity="0.7000000000000001" /><circle cx="255.51000000000002" cy="163.03" r="3" fill="#4682b4" fill-opacity="0.7000000000000001" /><circle cx="251.34" cy="213.89000000000001" r="3" fill="#4682b4" fill-opacity="0.7000000000000001" /><circle cx="271.44" cy="157.93" r="3" fill="#4682b4" fill-opacity="0.7000000000000001" /><circle cx="253.4" cy="202.94" r="3" fill="#4682b4" fill-opacity="0.7000000000000001" /><circle cx="258.78000000000003" cy="164.87" r="3" fill="#4682b4" fill-opacity="0.7000000000000001" /><circle cx="265.7" cy="225.25" r="3" fill="#4682b4" fill-opacity="0.7000000000000001" /><circle cx="265.63" cy="165.06" r="3" fill="#4682b4" fill-opacity="0.7000000000000001" /><circle cx="264.12" cy="114.22" r="3" fill="#4682b4" fill-opacity="0.7000000000000001" /><circle cx="257.52" cy="132.74" r="3" fill="#4682b4" fill-opacity="0.7000000000000001" /><circle cx="265.34000000000003" cy="150.58" r="3" fill="#4682b4" fill-opacity="0.7000000000000001" /><circle cx="247.69" cy="127.55" r="3" fill="#4682b4" fill-opacity="0.7000000000000001" /><circle cx="260.5" cy="166.09" r="3" fill="#4682b4" fill-opacity="0.7000000000000001" /><circle cx="261.26" cy="168.88" r="3" fill="#4682b4" fill-opacity="0.7000000000000001" /><circle cx="271.08" cy="145.07" r="3" fill="#4682b4" fill-opacity="0.7000000000000001" /><circle cx="250.92000000000002" cy="227.38" r="3" fill="#4682b4" fill-opacity="0.7000000000000001" /><circle cx="263.47" cy="271.9" r="3" fill="#4682b4" fill-opacity="0.7000000000000001" /><circle cx="265.14" cy="223.86" r="3" fill="#4682b4" fill-opacity="0.7000000000000001" /><circle cx="251.9" cy="104.93" r="3" fill="#4682b4" fill-opacity="0.7000000000000001" /><circle cx="250.97" cy="160.4" r="3" fill="#4682b4" fill-opacity="0.7000000000000001" /><circle cx="250.57" cy="203.89000000000001" r="3" fill="#4682b4" fill-opacity="0.7000000000000001" /><circle cx="251.87" cy="211.75" r="3" fill="#4682b4" fill-opacity="0.7000000000000001" /><circle cx="255.47" cy="181.04" r="3" fill="#4682b4" fill-opacity="0.7000000000000001" /><circle cx="247.25" cy="223.86" r="3" fill="#4682b4" fill-opacity="0.7000000000000001" /><circle cx="263.9" cy="199.24" r="3" fill="#4682b4" fill-opacity="0.7000000000000001" /><circle cx="259.71" cy="154.83" r="3" fill="#4682b4" fill-opacity="0.7000000000000001" /><circle cx="260.45" cy="192.09" r="3" fill="#4682b4" fill-opacity="0.7000000000000001" /><circle cx="259.23" cy="159.43" r="3" fill="#4682b4" fill-opacity="0.7000000000000001" /><circle cx="247.74" cy="192.93" r="3" fill="#4682b4" fill-opacity="0.7000000000000001" /><circle cx="251.18" cy="229" r="3" fill="#4682b4" fill-opacity="0.7000000000000001" /><circle cx="269.92" cy="198.29" r="3" fill="#4682b4" fill-opacity="0.7000000000000001" /><circle cx="253.33" cy="263.29" r="3" fill="#4682b4" fill-opacity="0.7000000000000001" /><circle cx="261.92" cy="193.68" r="3" fill="#4682b4" fill-opacity="0.7000000000000001" /><circle cx="258.69" cy="189.70000000000002" r="3" fill="#4682b4" fill-opacity="0.7000000000000001" /><circle cx="261.22" cy="184.52" r="3" fill="#4682b4" fill-opacity="0.7000000000000001" /><circle cx="251.84" cy="165.46" r="3" fill="#4682b4" fill-opacity="0.7000000000000001" /><circle cx="268.4" cy="174.04" r="3" fill="#4682b4" fill-opacity="0.7000000000000001" /><circle cx="262.55" cy="154.92000000000002" r="3" fill="#4682b4" fill-opacity="0.7000000000000001" /><circle cx="262.73" cy="234.85" r="3" fill="#4682b4" fill-opacity="0.7000000000000001" /><circle cx="264.94" cy="147.93" r="3" fill="#4682b4" fill-opacity="0.7000000000000001" /><circle cx="247.25" cy="169.09" r="3" fill="#4682b4" fill-opacity="0.7000000000000001" /><circle cx="256.47" cy="137.38" r="3" fill="#4682b4" fill-opacity="0.7000000000000001" /><circle cx="261.46" cy="175.76" r="3" fill="#4682b4" fill-opacity="0.7000000000000001" /><circle cx="253.97" cy="245.81" r="3" fill="#4682b4" fill-opacity="0.7000000000000001" /><circle cx="266.94" cy="172.31" r="3" fill="#4682b4" fill-opacity="0.7000000000000001" /><circle cx="247.79" cy="217.76" r="3" fill="#4682b4" fill-opacity="0.7000000000000001" /><circle cx="250.01000000000002" cy="228.54" r="3" fill="#4682b4" fill-opacity="0.7000000000000001" /></g></svg>