<svg xmlns="http://www.w3.org/2000/svg" width="673" height="545" font-family="DejaVu Sans, Liberation Sans, Arial, sans-serif" fill="black"><rect width="100%" height="100%" fill="white" /><defs><clipPath id="kuva-clip-0"><rect x="59" y="44" width="600" height="450"/></clipPath></defs><line x1="59" y1="404" x2="659" y2="404" stroke="#cccccc" stroke-width="1" /><line x1="59" y1="314" x2="659" y2="314" stroke="#cccccc" stroke-width="1" /><line x1="59" y1="224" x2="659" y2="224" stroke="#cccccc" stroke-width="1" /><line x1="59" y1="134" x2="659" y2="134" stroke="#cccccc" stroke-width="1" /><line x1="59" y1="44" x2="659" y2="44" stroke="#cccccc" stroke-width="1" /><line x1="59" y1="494" x2="659" y2="494" stroke="#000000" stroke-width="1" /><line x1="59" y1="44" x2="59" y2="494" stroke="#000000" stroke-width="1" /><text x="159" y="511" font-size="12" text-anchor="middle">Normal</text><line x1="159" y1="494" x2="159" y2="499" stroke="#000000" stroke-width="1" /><text x="359" y="511" font-size="12" text-anchor="middle">Bimodal</text><line x1="359" y1="494" x2="359" y2="499" stroke="#000000" stroke-width="1" /><text x="559" y="511" font-size="12" text-anchor="middle">Skewed</text><line x1="559" y1="494" x2="559" y2="499" stroke="#000000" stroke-width="1" /><line x1="54" y1="494" x2="59" y2="494" stroke="#000000" stroke-width="1" /><text x="51" y="498.2" font-size="12" text-anchor="end">0</text><line x1="54" y1="404" x2="59" y2="404" stroke="#000000" stroke-width="1" /><text x="51" y="408.2" font-size="12" text-anchor="end">2</text><line x1="54" y1="314" x2="59" y2="314" stroke="#000000" stroke-width="1" /><text x="51" y="318.2" font-size="12" text-anchor="end">4</text><line x1="54" y1="224" x2="59" y2="224" stroke="#000000" stroke-width="1" /><text x="51" y="228.20000000000002" font-size="12" text-anchor="end">6</text><line x1="54" y1="134" x2="59" y2="134" stroke="#000000" stroke-width="1" /><text x="51" y="138.20000000000002" font-size="12" text-anchor="end">8</text><line x1="54" y1="44" x2="59" y2="44" stroke="#000000" stroke-width="1" /><text x="51" y="48.2" font-size="12" text-anchor="end">10</text><text x="359" y="538" font-size="14" text-anchor="middle">Group</text><text x="15" y="272.5" font-size="14" text-anchor="middle" transform="rotate(-90,15,272.5)">Value</text><text x="336.5" y="27.400000000000002" font-size="18" text-anchor="middle">Raincloud Plot</text><g clip-path="url(#kuva-clip-0)"><path d="M 190.24 380.63 L 190.38 379.01 L 190.53 377.40000000000003 L 190.69 375.78000000000003 L 190.87 374.17 L 191.06 372.55 L 191.26 370.94 L 191.48000000000002 369.32 L 191.70000000000002 367.71 L 191.93 366.09000000000003 L 192.15 364.48 L 192.37 362.86 L 192.59 361.25 L 192.78 359.63 L 192.96 358.01 L 193.12 356.40000000000003 L 193.25 354.78000000000003 L 193.36 353.17 L 193.45000000000002 351.55 L 193.52 349.94 L 193.58 348.32 L 193.63 346.71 L 193.68 345.09000000000003 L 193.74 343.48 L 193.82 341.86 L 193.93 340.25 L 194.09 338.63 L 194.3 337.02 L 194.58 335.40000000000003 L 194.95000000000002 333.78000000000003 L 195.4 332.17 L 195.96 330.55 L 196.63 328.94 L 197.41 327.32 L 198.3 325.71 L 199.31 324.09000000000003 L 200.41 322.48 L 201.6 320.86 L 202.86 319.25 L 204.16 317.63 L 205.48000000000002 316.02 L 206.79 314.40000000000003 L 208.06 312.79 L 209.27 311.17 L 210.39000000000001 309.55 L 211.41 307.94 L 212.31 306.32 L 213.09 304.71 L 213.74 303.09000000000003 L 214.27 301.48 L 214.69 299.86 L 215.02 298.25 L 215.28 296.63 L 215.48000000000002 295.02 L 215.65 293.40000000000003 L 215.81 291.79 L 215.96 290.17 L 216.14000000000001 288.56 L 216.33 286.94 L 216.55 285.32 L 216.79 283.71 L 217.06 282.09000000000003 L 217.35 280.48 L 217.64000000000001 278.86 L 217.93 277.25 L 218.21 275.63 L 218.46 274.02 L 218.67000000000002 272.4 L 218.84 270.79 L 218.95000000000002 269.17 L 219.0 267.56 L 218.97 265.94 L 218.87 264.33 L 218.68 262.71 L 218.4 261.09000000000003 L 218.04 259.48 L 217.58 257.86 L 217.02 256.25 L 216.39000000000001 254.63 L 215.66 253.02 L 214.87 251.4 L 214.01 249.79 L 213.1 248.17000000000002 L 212.16 246.56 L 211.19 244.94 L 210.22 243.33 L 209.27 241.71 L 208.35 240.1 L 207.46 238.48000000000002 L 206.63 236.87 L 205.86 235.25 L 205.16 233.63 L 204.51 232.02 L 203.93 230.4 L 203.39000000000001 228.79 L 202.91 227.17000000000002 L 202.45000000000002 225.56 L 202.03 223.94 L 201.62 222.33 L 201.22 220.71 L 200.82 219.1 L 200.42000000000002 217.48000000000002 L 200.02 215.87 L 199.61 214.25 L 199.20000000000002 212.64000000000001 L 198.79 211.02 L 198.38 209.4 L 197.98000000000002 207.79 L 197.58 206.17000000000002 L 197.20000000000002 204.56 L 196.83 202.94 L 196.47 201.33 L 196.12 199.71 L 195.78 198.1 L 195.44 196.48000000000002 L 195.11 194.87 L 194.78 193.25 L 194.45000000000002 191.64000000000001 L 194.11 190.02 L 193.78 188.41 L 193.45000000000002 186.79 L 193.12 185.17000000000002 L 192.79 183.56 L 192.47 181.94 L 192.17000000000002 180.33 L 191.88 178.71 L 191.61 177.1 L 191.35 175.48 L 191.12 173.87 L 190.91 172.25 L 190.72 170.64000000000001 L 190.56 169.02 L 190.41 167.41 L 190.27 165.79 L 190.16 164.18 L 190.06 162.56 L 189.97 160.94 L 189.9 159.33 L 189.83 157.71 L 189.78 156.1 L 189.74 154.48 L 189.71 152.87 L 189.69 151.25 L 189.68 149.64000000000001 L 189.67000000000002 148.02 L 189.67000000000002 146.41 L 189.67000000000002 144.79 L 189.68 143.18 L 189.68 141.56 L 189.68 139.95000000000002 L 189.68 138.33 L 189.67000000000002 136.71 L 189.0 136.71 L 189.0 138.33 L 189.0 139.95000000000002 L 189.0 141.56 L 189.0 143.18 L 189.0 144.79 L 189.0 146.41 L 189.0 148.02 L 189.0 149.64000000000001 L 189.0 151.25 L 189.0 152.87 L 189.0 154.48 L 189.0 156.1 L 189.0 157.71 L 189.0 159.33 L 189.0 160.94 L 189.0 162.56 L 189.0 164.18 L 189.0 165.79 L 189.0 167.41 L 189.0 169.02 L 189.0 170.64000000000001 L 189.0 172.25 L 189.0 173.87 L 189.0 175.48 L 189.0 177.1 L 189.0 178.71 L 189.0 180.33 L 189.0 181.94 L 189.0 183.56 L 189.0 185.17000000000002 L 189.0 186.79 L 189.0 188.41 L 189.0 190.02 L 189.0 191.64000000000001 L 189.0 193.25 L 189.0 194.87 L 189.0 196.48000000000002 L 189.0 198.1 L 189.0 199.71 L 189.0 201.33 L 189.0 202.94 L 189.0 204.56 L 189.0 206.17000000000002 L 189.0 207.79 L 189.0 209.4 L 189.0 211.02 L 189.0 212.64000000000001 L 189.0 214.25 L 189.0 215.87 L 189.0 217.48000000000002 L 189.0 219.1 L 189.0 220.71 L 189.0 222.33 L 189.0 223.94 L 189.0 225.56 L 189.0 227.17000000000002 L 189.0 228.79 L 189.0 230.4 L 189.0 232.02 L 189.0 233.63 L 189.0 235.25 L 189.0 236.87 L 189.0 238.48000000000002 L 189.0 240.1 L 189.0 241.71 L 189.0 243.33 L 189.0 244.94 L 189.0 246.56 L 189.0 248.17000000000002 L 189.0 249.79 L 189.0 251.4 L 189.0 253.02 L 189.0 254.63 L 189.0 256.25 L 189.0 257.86 L 189.0 259.48 L 189.0 261.09000000000003 L 189.0 262.71 L 189.0 264.33 L 189.0 265.94 L 189.0 267.56 L 189.0 269.17 L 189.0 270.79 L 189.0 272.4 L 189.0 274.02 L 189.0 275.63 L 189.0 277.25 L 189.0 278.86 L 189.0 280.48 L 189.0 282.09000000000003 L 189.0 283.71 L 189.0 285.32 L 189.0 286.94 L 189.0 288.56 L 189.0 290.17 L 189.0 291.79 L 189.0 293.40000000000003 L 189.0 295.02 L 189.0 296.63 L 189.0 298.25 L 189.0 299.86 L 189.0 301.48 L 189.0 303.09000000000003 L 189.0 304.71 L 189.0 306.32 L 189.0 307.94 L 189.0 309.55 L 189.0 311.17 L 189.0 312.79 L 189.0 314.40000000000003 L 189.0 316.02 L 189.0 317.63 L 189.0 319.25 L 189.0 320.86 L 189.0 322.48 L 189.0 324.09000000000003 L 189.0 325.71 L 189.0 327.32 L 189.0 328.94 L 189.0 330.55 L 189.0 332.17 L 189.0 333.78000000000003 L 189.0 335.40000000000003 L 189.0 337.02 L 189.0 338.63 L 189.0 340.25 L 189.0 341.86 L 189.0 343.48 L 189.0 345.09000000000003 L 189.0 346.71 L 189.0 348.32 L 189.0 349.94 L 189.0 351.55 L 189.0 353.17 L 189.0 354.78000000000003 L 189.0 356.40000000000003 L 189.0 358.01 L 189.0 359.63 L 189.0 361.25 L 189.0 362.86 L 189.0 364.48 L 189.0 366.09000000000003 L 189.0 367.71 L 189.0 369.32 L 189.0 370.94 L 189.0 372.55 L 189.0 374.17 L 189.0 375.78000000000003 L 189.0 377.40000000000003 L 189.0 379.01 L 189.0 380.63 Z" stroke="#1f77b4" stroke-width="0.5" fill="#1f77b4" fill-opacity="0.7000000000000001" /><rect x="151" y="248.32" width="16" height="51.88" fill="#1f77b4" /><line x1="151" y1="271.08" x2="167" y2="271.08" stroke="#ffffff" stroke-width="1.5" /><line x1="159" y1="363.40000000000003" x2="159" y2="300.2" stroke="#1f77b4" stroke-width="1" /><line x1="159" y1="248.32" x2="159" y2="182.16" stroke="#1f77b4" stroke-width="1" /><line x1="155" y1="363.40000000000003" x2="163" y2="363.40000000000003" stroke="#1f77b4" stroke-width="1" /><line x1="155" y1="182.16" x2="163" y2="182.16" stroke="#1f77b4" stroke-width="1" /><circle cx="122.60000000000001" cy="231.02" r="3" fill="#1f77b4" fill-opacity="0.7000000000000001" /><circle cx="121.69" cy="236.8" r="3" fill="#1f77b4" fill-opacity="0.7000000000000001" /><circle cx="123.38000000000001" cy="355.21" r="3" fill="#1f77b4" fill-opacity="0.7000000000000001" /><circle cx="114.95" cy="248.64000000000001" r="3" fill="#1f77b4" fill-opacity="0.7000000000000001" /><circle cx="117.85000000000001" cy="305.71" r="3" fill="#1f77b4" fill-opacity="0.7000000000000001" /><circle cx="115.06" cy="252.88" r="3" fill="#1f77b4" fill-opacity="0.7000000000000001" /><circle cx="114.16" cy="136.32" r="3" fill="#1f77b4" fill-opacity="0.7000000000000001" /><circle cx="116.92" cy="263.98" r="3" fill="#1f77b4" fill-opacity="0.7000000000000001" /><circle cx="118.69" cy="304.23" r="3" fill="#1f77b4" fill-opacity="0.7000000000000001" /><circle cx="122.44" cy="353.56" r="3" fill="#1f77b4" fill-opacity="0.7000000000000001" /><circle cx="114.8" cy="195.41" r="3" fill="#1f77b4" fill-opacity="0.7000000000000001" /><circle cx="122.81" cy="285.76" r="3" fill="#1f77b4" fill-opacity="0.7000000000000001" /><circle cx="114.26" cy="304.36" r="3" fill="#1f77b4" fill-opacity="0.7000000000000001" /><circle cx="117.42" cy="287.45" r="3" fill="#1f77b4" fill-opacity="0.7000000000000001" /><circle cx="118.84" cy="311.12" r="3" fill="#1f77b4" fill-opacity="0.7000000000000001" /><circle cx="119.55" cy="304.04" r="3" fill="#1f77b4" fill-opacity="0.7000000000000001" /><circle cx="118.56" cy="262.28000000000003" r="3" fill="#1f77b4" fill-opacity="0.7000000000000001" /><circle cx="122.82000000000001" cy="270.43" r="3" fill="#1f77b4" fill-opacity="0.7000000000000001" /><circle cx="119.96000000000001" cy="214.02" r="3" fill="#1f77b4" fill-opacity="0.7000000000000001" /><circle cx="122.84" cy="244.21" r="3" fill="#1f77b4" fill-opacity="0.7000000000000001" /><circle cx="116.71000000000001" cy="329.69" r="3" fill="#1f77b4" fill-opacity="0.7000000000000001" /><circle cx="116.06" cy="192.44" r="3" fill="#1f77b4" fill-opacity="0.7000000000000001" /><circle cx="122.67" cy="290.52" r="3" fill="#1f77b4" fill-opacity="0.7000000000000001" /><circle cx="114.16" cy="279.07" r="3" fill="#1f77b4" fill-opacity="0.7000000000000001" /><circle cx="119.12" cy="308.69" r="3" fill="#1f77b4" fill-opacity="0.7000000000000001" /><circle cx="120.01" cy="253.78" r="3" fill="#1f77b4" fill-opacity="0.7000000000000001" /><circle cx="119.76" cy="316.98" r="3" fill="#1f77b4" fill-opacity="0.7000000000000001" /><circle cx="117.66" cy="207.63" r="3" fill="#1f77b4" fill-opacity="0.7000000000000001" /><circle cx="118.96000000000001" cy="264.12" r="3" fill="#1f77b4" fill-opacity="0.7000000000000001" /><circle cx="118.76" cy="225.01" r="3" fill="#1f77b4" fill-opacity="0.7000000000000001" /><circle cx="114.85000000000001" cy="258.74" r="3" fill="#1f77b4" fill-opacity="0.7000000000000001" /><circle cx="117.81" cy="257.77" r="3" fill="#1f77b4" fill-opacity="0.7000000000000001" /><circle cx="114.31" cy="267.94" r="3" fill="#1f77b4" fill-opacity="0.7000000000000001" /><circle cx="116.86" cy="265.36" r="3" fill="#1f77b4" fill-opacity="0.7000000000000001" /><circle cx="121.18" cy="182.16" r="3" fill="#1f77b4" fill-opacity="0.7000000000000001" /><circle cx="118.68" cy="295.09000000000003" r="3" fill="#1f77b4" fill-opacity="0.7000000000000001" /><circle cx="120.26" cy="280.84000000000003" r="3" fill="#1f77b4" fill-opacity="0.7000000000000001" /><circle cx="123.04" cy="253.96" r="3" fill="#1f77b4" fill-opacity="0.7000000000000001" /><circle cx="116.81" cy="248.45000000000002" r="3" fill="#1f77b4" fill-opacity="0.7000000000000001" /><circle cx="114.86" cy="239.49" r="3" fill="#1f77b4" fill-opacity="0.7000000000000001" /><circle cx="116.91" cy="271.68" r="3" fill="#1f77b4" fill-opacity="0.7000000000000001" /><circle cx="120.27" cy="269.09000000000003" r="3" fill="#1f77b4" fill-opacity="0.7000000000000001" /><circle cx="117.16" cy="275.85" r="3" fill="#1f77b4" fill-opacity="0.7000000000000001" /><circle cx="122.25" cy="192.59" r="3" fill="#1f77b4" fill-opacity="0.7000000000000001" /><circle cx="116.97" cy="259.42" r="3" fill="#1f77b4" fill-opacity="0.7000000000000001" /><circle cx="118.48" cy="251.71" r="3" fill="#1f77b4" fill-opacity="0.7000000000000001" /><circle cx="117.38" cy="252.14000000000001" r="3" fill="#1f77b4" fill-opacity="0.7000000000000001" /><circle cx="116.64" cy="287.6" r="3" fill="#1f77b4" fill-opacity="0.7000000000000001" /><circle cx="115.9" cy="348.11" r="3" fill="#1f77b4" fill-opacity="0.7000000000000001" /><circle cx="116.25" cy="381.02" r="3" fill="#1f77b4" fill-opacity="0.7000000000000001" /><circle cx="117.16" cy="227.58" r="3" fill="#1f77b4" fill-opacity="0.7000000000000001" /><circle cx="122.19" cy="256.25" r="3" fill="#1f77b4" fill-opacity="0.7000000000000001" /><circle cx="114.78" cy="273.86" r="3" fill="#1f77b4" fill-opacity="0.7000000000000001" /><circle cx="119.56" cy="350.7" r="3" fill="#1f77b4" fill-opacity="0.7000000000000001" /><circle cx="116.78" cy="275.12" r="3" fill="#1f77b4" fill-opacity="0.7000000000000001" /><circle cx="120.27" cy="270.59000000000003" r="3" fill="#1f77b4" fill-opacity="0.7000000000000001" /><circle cx="114.35000000000001" cy="311.71" r="3" fill="#1f77b4" fill-opacity="0.7000000000000001" /><circle cx="118.61" cy="309.07" r="3" fill="#1f77b4" fill-opacity="0.7000000000000001" /><circle cx="123.46000000000001" cy="276.88" r="3" fill="#1f77b4" fill-opacity="0.7000000000000001" /><circle cx="118.5" cy="309.61" r="3" fill="#1f77b4" fill-opacity="0.7000000000000001" /><circle cx="114.14" cy="290.25" r="3" fill="#1f77b4" fill-opacity="0.7000000000000001" /><circle cx="118.93" cy="273.93" r="3" fill="#1f77b4" fill-opacity="0.7000000000000001" /><circle cx="114.65" cy="218.70000000000002" r="3" fill="#1f77b4" fill-opacity="0.7000000000000001" /><circle cx="123.06" cy="300.45" r="3" fill="#1f77b4" fill-opacity="0.7000000000000001" /><circle cx="121.84" cy="242.62" r="3" fill="#1f77b4" fill-opacity="0.7000000000000001" /><circle cx="121.53" cy="217.37" r="3" fill="#1f77b4" fill-opacity="0.7000000000000001" /><circle cx="118.36" cy="254.28" r="3" fill="#1f77b4" fill-opacity="0.7000000000000001" /><circle cx="116.48" cy="237.83" r="3" fill="#1f77b4" fill-opacity="0.7000000000000001" /><circle cx="115.77" cy="297.62" r="3" fill="#1f77b4" fill-opacity="0.7000000000000001" /><circle cx="122.86" cy="265.63" r="3" fill="#1f77b4" fill-opacity="0.7000000000000001" /><circle cx="122.57000000000001" cy="329.11" r="3" fill="#1f77b4" fill-opacity="0.7000000000000001" /><circle cx="119.16" cy="275.89" r="3" fill="#1f77b4" fill-opacity="0.7000000000000001" /><circle cx="122.48" cy="228.04" r="3" fill="#1f77b4" fill-opacity="0.7000000000000001" /><circle cx="117.25" cy="311.26" r="3" fill="#1f77b4" fill-opacity="0.7000000000000001" /><circle cx="116.73" cy="275.75" r="3" fill="#1f77b4" fill-opacity="0.7000000000000001" /><circle cx="118.84" cy="253.32" r="3" fill="#1f77b4" fill-opacity="0.7000000000000001" /><circle cx="119.74000000000001" cy="288.56" r="3" fill="#1f77b4" fill-opacity="0.7000000000000001" /><circle cx="119.91" cy="285.08" r="3" fill="#1f77b4" fill-opacity="0.7000000000000001" /><circle cx="123.09" cy="192.70000000000002" r="3" fill="#1f77b4" fill-opacity="0.7000000000000001" /><circle cx="115.99000000000001" cy="334.82" r="3" fill="#1f77b4" fill-opacity="0.7000000000000001" /><circle cx="116.22" cy="313.51" r="3" fill="#1f77b4" fill-opacity="0.7000000000000001" /><circle cx="120.05" cy="257.72" r="3" fill="#1f77b4" fill-opacity="0.7000000000000001" /><circle cx="117.24000000000001" cy="313.53000000000003" r="3" fill="#1f77b4" fill-opacity="0.7000000000000001" /><circle cx="122.43" cy="288.6" r="3" fill="#1f77b4" fill-opacity="0.7000000000000001" /><circle cx="122.60000000000001" cy="207.33" r="3" fill="#1f77b4" fill-opacity="0.7000000000000001" /><circle cx="114.38" cy="263.31" r="3" fill="#1f77b4" fill-opacity="0.7000000000000001" /><circle cx="116.31" cy="265.87" r="3" fill="#1f77b4" fill-opacity="0.7000000000000001" /><circle cx="115.46000000000001" cy="296.8" r="3" fill="#1f77b4" fill-opacity="0.7000000000000001" /><circle cx="123.11" cy="279.18" r="3" fill="#1f77b4" fill-opacity="0.7000000000000001" /><circle cx="121.7" cy="313.86" r="3" fill="#1f77b4" fill-opacity="0.7000000000000001" /><circle cx="118.15" cy="241.43" r="3" fill="#1f77b4" fill-opacity="0.7000000000000001" /><circle cx="117.96000000000001" cy="295.66" r="3" fill="#1f77b4" fill-opacity="0.7000000000000001" /><circle cx="114.35000000000001" cy="254.21" r="3" fill="#1f77b4" fill-opacity="0.7000000000000001" /><circle cx="120.66" cy="255.33" r="3" fill="#1f77b4" fill-opacity="0.7000000000000001" /><circle cx="115.19" cy="204.16" r="3" fill="#1f77b4" fill-opacity="0.7000000000000001" /><circle cx="121.54" cy="214.82" r="3" fill="#1f77b4" fill-opacity="0.7000000000000001" /><circle cx="116.32000000000001" cy="297.86" r="3" fill="#1f77b4" fill-opacity="0.7000000000000001" /><circle cx="123.51" cy="301.90000000000003" r="3" fill="#1f77b4" fill-opacity="0.7000000000000001" /><circle cx="120.23" cy="227.65" r="3" fill="#1f77b4" fill-opacity="0.7000000000000001" /><circle cx="117.37" cy="363.40000000000003" r="3" fill="#1f77b4" fill-opacity="0.7000000000000001" /><circle cx="118.85000000000001" cy="270.42" r="3" fill="#1f77b4" fill-opacity="0.7000000000000001" /><circle cx="120.69" cy="252.79" r="3" fill="#1f77b4" fill-opacity="0.7000000000000001" /><circle cx="122.49000000000001" cy="281.49" r="3" fill="#1f77b4" fill-opacity="0.7000000000000001" /><circle cx="115.44" cy="224.39000000000001" r="3" fill="#1f77b4" fill-opacity="0.7000000000000001" /><circle cx="115.64" cy="301.27" r="3" fill="#1f77b4" fill-opacity="0.7000000000000001" /><circle cx="115.55" cy="248.27" r="3" fill="#1f77b4" fill-opacity="0.7000000000000001" /><circle cx="118.95" cy="285.52" r="3" fill="#1f77b4" fill-opacity="0.7000000000000001" /><circle cx="119" cy="305.46" r="3" fill="#1f77b4" fill-opacity="0.7000000000000001" /><circle cx="114.23" cy="299.5" r="3" fill="#1f77b4" fill-opacity="0.7000000000000001" /><circle cx="119.55" cy="267.15" r="3" fill="#1f77b4" fill-opacity="0.7000000000000001" /><circle cx="117.25" cy="311.06" r="3" fill="#1f77b4" fill-opacity="0.7000000000000001" /><circle cx="116.46000000000001" cy="269.94" r="3" fill="#1f77b4" fill-opacity="0.7000000000000001" /><circle cx="120.73" cy="271.77" r="3" fill="#1f77b4" fill-opacity="0.7000000000000001" /><circle cx="120.5" cy="304.48" r="3" fill="#1f77b4" fill-opacity="0.7000000000000001" /><circle cx="121.65" cy="277.22" r="3" fill="#1f77b4" fill-opacity="0.7000000000000001" /><circle cx="116.5" cy="221.26" r="3" fill="#1f77b4" fill-opacity="0.7000000000000001" /><circle cx="118.63" cy="222.64000000000001" r="3" fill="#1f77b4" fill-opacity="0.7000000000000001" /><circle cx="115.84" cy="289.74" r="3" fill="#1f77b4" fill-opacity="0.7000000000000001" /><circle cx="121.75" cy="249.57" r="3" fill="#1f77b4" fill-opacity="0.7000000000000001" /><circle cx="115.52" cy="247.36" r="3" fill="#1f77b4" fill-opacity="0.7000000000000001" /><circle cx="123.17" cy="271.57" r="3" fill="#1f77b4" fill-opacity="0.7000000000000001" /><circle cx="122.35000000000001" cy="300.36" r="3" fill="#1f77b4" fill-opacity="0.7000000000000001" /><circle cx="117.10000000000001" cy="225.44" r="3" fill="#1f77b4" fill-opacity="0.7000000000000001" /><circle cx="122.32000000000001" cy="256.77" r="3" fill="#1f77b4" fill-opacity="0.7000000000000001" /><circle cx="115.43" cy="286.92" r="3" fill="#1f77b4" fill-opacity="0.7000000000000001" /><circle cx="118.45" cy="257.73" r="3" fill="#1f77b4" fill-opacity="0.7000000000000001" /><circle cx="115.96000000000001" cy="307.54" r="3" fill="#1f77b4" fill-opacity="0.7000000000000001" /><circle cx="117.65" cy="300.13" r="3" fill="#1f77b4" fill-opacity="0.7000000000000001" /><circle cx="123.16" cy="276.49" r="3" fill="#1f77b4" fill-opacity="0.7000000000000001" /><circle cx="115.59" cy="265.12" r="3" fill="#1f77b4" fill-opacity="0.7000000000000001" /><circle cx="122.03" cy="193.22" r="3" fill="#1f77b4" fill-opacity="0.7000000000000001" /><circle cx="116.5" cy="211.72" r="3" fill="#1f77b4" fill-opacity="0.7000000000000001" /><circle cx="123.61" cy="308.72" r="3" fill="#1f77b4" fill-opacity="0.7000000000000001" /><circle cx="122.7" cy="308.38" r="3" fill="#1f77b4" fill-opacity="0.7000000000000001" /><circle cx="123.42" cy="165.87" r="3" fill="#1f77b4" fill-opacity="0.7000000000000001" /><circle cx="114.11" cy="268.16" r="3" fill="#1f77b4" fill-opacity="0.7000000000000001" /><circle cx="117.67" cy="218.82" r="3" fill="#1f77b4" fill-opacity="0.7000000000000001" /><circle cx="116.72" cy="284.3" r="3" fill="#1f77b4" fill-opacity="0.7000000000000001" /><circle cx="120.07000000000001" cy="289.11" r="3" fill="#1f77b4" fill-opacity="0.7000000000000001" /><circle cx="115.17" cy="244.55" r="3" fill="#1f77b4" fill-opacity="0.7000000000000001" /><circle cx="117.2" cy="280.53000000000003" r="3" fill="#1f77b4" fill-opacity="0.7000000000000001" /><circle cx="118.95" cy="247.16" r="3" fill="#1f77b4" fill-opacity="0.7000000000000001" /><circle cx="122.59" cy="300.22" r="3" fill="#1f77b4" fill-opacity="0.7000000000000001" /><circle cx="115.73" cy="242.23000000000002" r="3" fill="#1f77b4" fill-opacity="0.7000000000000001" /><circle cx="116.55" cy="339.18" r="3" fill="#1f77b4" fill-opacity="0.7000000000000001" /><circle cx="121.08" cy="238.96" r="3" fill="#1f77b4" fill-opacity="0.7000000000000001" /><circle cx="115.36" cy="257.37" r="3" fill="#1f77b4" fill-opacity="0.7000000000000001" /><circle cx="115.29" cy="358.39" r="3" fill="#1f77b4" fill-opacity="0.7000000000000001" /><circle cx="115.77" cy="305.57" r="3" fill="#1f77b4" fill-opacity="0.7000000000000001" /><circle cx="119.44" cy="305.92" r="3" fill="#1f77b4" fill-opacity="0.7000000000000001" /><path d="M 397.91 422.12 L 398.83 419.52 L 399.8 416.92 L 400.82 414.32 L 401.87 411.72 L 402.96000000000004 409.12 L 404.09000000000003 406.52 L 405.23 403.92 L 406.39 401.32 L 407.55 398.72 L 408.71000000000004 396.12 L 409.85 393.52 L 410.97 390.92 L 412.05 388.32 L 413.09000000000003 385.72 L 414.07 383.12 L 414.98 380.52 L 415.82 377.92 L 416.57 375.32 L 417.23 372.72 L 417.79 370.12 L 418.25 367.52 L 418.61 364.92 L 418.85 362.32 L 418.97 359.72 L 418.99 357.12 L 418.89 354.52 L 418.69 351.91 L 418.38 349.31 L 417.97 346.71 L 417.47 344.11 L 416.88 341.51 L 416.21000000000004 338.91 L 415.46000000000004 336.31 L 414.65000000000003 333.71 L 413.78000000000003 331.11 L 412.87 328.51 L 411.91 325.91 L 410.92 323.31 L 409.91 320.71 L 408.88 318.11 L 407.85 315.51 L 406.82 312.91 L 405.79 310.31 L 404.78000000000003 307.71 L 403.8 305.11 L 402.84000000000003 302.51 L 401.92 299.91 L 401.04 297.31 L 400.21000000000004 294.71 L 399.43 292.11 L 398.7 289.51 L 398.04 286.91 L 397.44 284.31 L 396.91 281.71 L 396.46000000000004 279.11 L 396.08 276.51 L 395.78000000000003 273.91 L 395.55 271.31 L 395.42 268.71 L 395.36 266.11 L 395.39 263.51 L 395.51 260.91 L 395.71000000000004 258.31 L 395.99 255.71 L 396.37 253.11 L 396.82 250.51000000000002 L 397.36 247.91 L 397.98 245.31 L 398.67 242.71 L 399.44 240.11 L 400.28000000000003 237.51 L 401.17 234.91 L 402.13 232.31 L 403.13 229.71 L 404.18 227.11 L 405.26 224.51 L 406.37 221.91 L 407.49 219.31 L 408.61 216.70000000000002 L 409.73 214.1 L 410.83 211.5 L 411.90000000000003 208.9 L 412.93 206.3 L 413.91 203.70000000000002 L 414.83 201.1 L 415.67 198.5 L 416.44 195.9 L 417.11 193.3 L 417.69 190.70000000000002 L 418.17 188.1 L 418.55 185.5 L 418.81 182.9 L 418.96000000000004 180.3 L 419.0 177.70000000000002 L 418.93 175.1 L 418.75 172.5 L 418.46000000000004 169.9 L 418.07 167.3 L 417.59000000000003 164.70000000000002 L 417.02 162.1 L 416.36 159.5 L 415.63 156.9 L 414.83 154.3 L 413.97 151.70000000000002 L 413.05 149.1 L 412.1 146.5 L 411.11 143.9 L 410.09000000000003 141.3 L 409.05 138.70000000000002 L 408.0 136.1 L 406.94 133.5 L 405.89 130.9 L 404.84000000000003 128.3 L 403.81 125.7 L 402.8 123.10000000000001 L 401.81 120.5 L 400.85 117.9 L 399.93 115.3 L 399.04 112.7 L 398.19 110.10000000000001 L 397.38 107.5 L 396.62 104.9 L 395.90000000000003 102.3 L 395.22 99.7 L 394.59000000000003 97.10000000000001 L 389.0 97.10000000000001 L 389.0 99.7 L 389.0 102.3 L 389.0 104.9 L 389.0 107.5 L 389.0 110.10000000000001 L 389.0 112.7 L 389.0 115.3 L 389.0 117.9 L 389.0 120.5 L 389.0 123.10000000000001 L 389.0 125.7 L 389.0 128.3 L 389.0 130.9 L 389.0 133.5 L 389.0 136.1 L 389.0 138.70000000000002 L 389.0 141.3 L 389.0 143.9 L 389.0 146.5 L 389.0 149.1 L 389.0 151.70000000000002 L 389.0 154.3 L 389.0 156.9 L 389.0 159.5 L 389.0 162.1 L 389.0 164.70000000000002 L 389.0 167.3 L 389.0 169.9 L 389.0 172.5 L 389.0 175.1 L 389.0 177.70000000000002 L 389.0 180.3 L 389.0 182.9 L 389.0 185.5 L 389.0 188.1 L 389.0 190.70000000000002 L 389.0 193.3 L 389.0 195.9 L 389.0 198.5 L 389.0 201.1 L 389.0 203.70000000000002 L 389.0 206.3 L 389.0 208.9 L 389.0 211.5 L 389.0 214.1 L 389.0 216.70000000000002 L 389.0 219.31 L 389.0 221.91 L 389.0 224.51 L 389.0 227.11 L 389.0 229.71 L 389.0 232.31 L 389.0 234.91 L 389.0 237.51 L 389.0 240.11 L 389.0 242.71 L 389.0 245.31 L 389.0 247.91 L 389.0 250.51000000000002 L 389.0 253.11 L 389.0 255.71 L 389.0 258.31 L 389.0 260.91 L 389.0 263.51 L 389.0 266.11 L 389.0 268.71 L 389.0 271.31 L 389.0 273.91 L 389.0 276.51 L 389.0 279.11 L 389.0 281.71 L 389.0 284.31 L 389.0 286.91 L 389.0 289.51 L 389.0 292.11 L 389.0 294.71 L 389.0 297.31 L 389.0 299.91 L 389.0 302.51 L 389.0 305.11 L 389.0 307.71 L 389.0 310.31 L 389.0 312.91 L 389.0 315.51 L 389.0 318.11 L 389.0 320.71 L 389.0 323.31 L 389.0 325.91 L 389.0 328.51 L 389.0 331.11 L 389.0 333.71 L 389.0 336.31 L 389.0 338.91 L 389.0 341.51 L 389.0 344.11 L 389.0 346.71 L 389.0 349.31 L 389.0 351.91 L 389.0 354.52 L 389.0 357.12 L 389.0 359.72 L 389.0 362.32 L 389.0 364.92 L 389.0 367.52 L 389.0 370.12 L 389.0 372.72 L 389.0 375.32 L 389.0 377.92 L 389.0 380.52 L 389.0 383.12 L 389.0 385.72 L 389.0 388.32 L 389.0 390.92 L 389.0 393.52 L 389.0 396.12 L 389.0 398.72 L 389.0 401.32 L 389.0 403.92 L 389.0 406.52 L 389.0 409.12 L 389.0 411.72 L 389.0 414.32 L 389.0 416.92 L 389.0 419.52 L 389.0 422.12 Z" stroke="#ff7f0e" stroke-width="0.5" fill="#ff7f0e" fill-opacity="0.7000000000000001" /><rect x="351" y="178.48" width="16" height="179.74" fill="#ff7f0e" /><line x1="351" y1="259.61" x2="367" y2="259.61" stroke="#ffffff" stroke-width="1.5" /><line x1="359" y1="424.40000000000003" x2="359" y2="358.22" stroke="#ff7f0e" stroke-width="1" /><line x1="359" y1="178.48" x2="359" y2="94.82000000000001" stroke="#ff7f0e" stroke-width="1" /><line x1="355" y1="424.40000000000003" x2="363" y2="424.40000000000003" stroke="#ff7f0e" stroke-width="1" /><line x1="355" y1="94.82000000000001" x2="363" y2="94.82000000000001" stroke="#ff7f0e" stroke-width="1" /><circle cx="322.6" cy="321.24" r="3" fill="#ff7f0e" fill-opacity="0.7000000000000001" /><circle cx="316.73" cy="356.58" r="3" fill="#ff7f0e" fill-opacity="0.7000000000000001" /><circle cx="321.72" cy="349.51" r="3" fill="#ff7f0e" fill-opacity="0.7000000000000001" /><circle cx="314.99" cy="380.2" r="3" fill="#ff7f0e" fill-opacity="0.7000000000000001" /><circle cx="321.01" cy="359.29" r="3" fill="#ff7f0e" fill-opacity="0.7000000000000001" /><circle cx="321.36" cy="315.68" r="3" fill="#ff7f0e" fill-opacity="0.7000000000000001" /><circle cx="314.36" cy="372.13" r="3" fill="#ff7f0e" fill-opacity="0.7000000000000001" /><circle cx="322.29" cy="320.27" r="3" fill="#ff7f0e" fill-opacity="0.7000000000000001" /><circle cx="321.45" cy="362.27" r="3" fill="#ff7f0e" fill-opacity="0.7000000000000001" /><circle cx="316.15000000000003" cy="314.62" r="3" fill="#ff7f0e" fill-opacity="0.7000000000000001" /><circle cx="321.32" cy="358.34000000000003" r="3" fill="#ff7f0e" fill-opacity="0.7000000000000001" /><circle cx="322.04" cy="348.90000000000003" r="3" fill="#ff7f0e" fill-opacity="0.7000000000000001" /><circle cx="318.74" cy="337.18" r="3" fill="#ff7f0e" fill-opacity="0.7000000000000001" /><circle cx="319.15000000000003" cy="335.98" r="3" fill="#ff7f0e" fill-opacity="0.7000000000000001" /><circle cx="314.62" cy="306.33" r="3" fill="#ff7f0e" fill-opacity="0.7000000000000001" /><circle cx="318.41" cy="362.97" r="3" fill="#ff7f0e" fill-opacity="0.7000000000000001" /><circle cx="316.74" cy="351.3" r="3" fill="#ff7f0e" fill-opacity="0.7000000000000001" /><circle cx="314.90000000000003" cy="369.88" r="3" fill="#ff7f0e" fill-opacity="0.7000000000000001" /><circle cx="322.56" cy="380.54" r="3" fill="#ff7f0e" fill-opacity="0.7000000000000001" /><circle cx="321.46" cy="398.46000000000004" r="3" fill="#ff7f0e" fill-opacity="0.7000000000000001" /><circle cx="316.05" cy="352.75" r="3" fill="#ff7f0e" fill-opacity="0.7000000000000001" /><circle cx="321.26" cy="352.36" r="3" fill="#ff7f0e" fill-opacity="0.7000000000000001" /><circle cx="315.89" cy="350.66" r="3" fill="#ff7f0e" fill-opacity="0.7000000000000001" /><circle cx="322.69" cy="274.82" r="3" fill="#ff7f0e" fill-opacity="0.7000000000000001" /><circle cx="322.17" cy="398.79" r="3" fill="#ff7f0e" fill-opacity="0.7000000000000001" /><circle cx="323.6" cy="366.11" r="3" fill="#ff7f0e" fill-opacity="0.7000000000000001" /><circle cx="322.79" cy="382.29" r="3" fill="#ff7f0e" fill-opacity="0.7000000000000001" /><circle cx="319.41" cy="406.61" r="3" fill="#ff7f0e" fill-opacity="0.7000000000000001" /><circle cx="319.19" cy="370.65000000000003" r="3" fill="#ff7f0e" fill-opacity="0.7000000000000001" /><circle cx="316.27" cy="322.18" r="3" fill="#ff7f0e" fill-opacity="0.7000000000000001" /><circle cx="317.57" cy="370.63" r="3" fill="#ff7f0e" fill-opacity="0.7000000000000001" /><circle cx="318.87" cy="361.18" r="3" fill="#ff7f0e" fill-opacity="0.7000000000000001" /><circle cx="320.83" cy="352.98" r="3" fill="#ff7f0e" fill-opacity="0.7000000000000001" /><circle cx="316.63" cy="327.48" r="3" fill="#ff7f0e" fill-opacity="0.7000000000000001" /><circle cx="315.53000000000003" cy="390.83" r="3" fill="#ff7f0e" fill-opacity="0.7000000000000001" /><circle cx="322.73" cy="324.02" r="3" fill="#ff7f0e" fill-opacity="0.7000000000000001" /><circle cx="319.40000000000003" cy="321.5" r="3" fill="#ff7f0e" fill-opacity="0.7000000000000001" /><circle cx="323.49" cy="398.37" r="3" fill="#ff7f0e" fill-opacity="0.7000000000000001" /><circle cx="317.6" cy="339.91" r="3" fill="#ff7f0e" fill-opacity="0.7000000000000001" /><circle cx="323.82" cy="385.76" r="3" fill="#ff7f0e" fill-opacity="0.7000000000000001" /><circle cx="316.27" cy="355.71" r="3" fill="#ff7f0e" fill-opacity="0.7000000000000001" /><circle cx="316" cy="376.8" r="3" fill="#ff7f0e" fill-opacity="0.7000000000000001" /><circle cx="314.31" cy="424.40000000000003" r="3" fill="#ff7f0e" fill-opacity="0.7000000000000001" /><circle cx="322.79" cy="313.88" r="3" fill="#ff7f0e" fill-opacity="0.7000000000000001" /><circle cx="322.83" cy="364.68" r="3" fill="#ff7f0e" fill-opacity="0.7000000000000001" /><circle cx="317.37" cy="331.55" r="3" fill="#ff7f0e" fill-opacity="0.7000000000000001" /><circle cx="323.05" cy="380.07" r="3" fill="#ff7f0e" fill-opacity="0.7000000000000001" /><circle cx="314.49" cy="360.22" r="3" fill="#ff7f0e" fill-opacity="0.7000000000000001" /><circle cx="315.18" cy="319.73" r="3" fill="#ff7f0e" fill-opacity="0.7000000000000001" /><circle cx="314.52" cy="366.91" r="3" fill="#ff7f0e" fill-opacity="0.7000000000000001" /><circle cx="317.17" cy="309.92" r="3" fill="#ff7f0e" fill-opacity="0.7000000000000001" /><circle cx="322.89" cy="372.82" r="3" fill="#ff7f0e" fill-opacity="0.7000000000000001" /><circle cx="317" cy="394.1" r="3" fill="#ff7f0e" fill-opacity="0.7000000000000001" /><circle cx="318.21" cy="375.02" r="3" fill="#ff7f0e" fill-opacity="0.7000000000000001" /><circle cx="320.68" cy="338.55" r="3" fill="#ff7f0e" fill-opacity="0.7000000000000001" /><circle cx="321.36" cy="370.18" r="3" fill="#ff7f0e" fill-opacity="0.7000000000000001" /><circle cx="320.47" cy="329.98" r="3" fill="#ff7f0e" fill-opacity="0.7000000000000001" /><circle cx="321.36" cy="333.15000000000003" r="3" fill="#ff7f0e" fill-opacity="0.7000000000000001" /><circle cx="315.29" cy="369.65000000000003" r="3" fill="#ff7f0e" fill-opacity="0.7000000000000001" /><circle cx="316.73" cy="345.47" r="3" fill="#ff7f0e" fill-opacity="0.7000000000000001" /><circle cx="315.45" cy="368.17" r="3" fill="#ff7f0e" fill-opacity="0.7000000000000001" /><circle cx="322.25" cy="332.57" r="3" fill="#ff7f0e" fill-opacity="0.7000000000000001" /><circle cx="322.22" cy="379.46" r="3" fill="#ff7f0e" fill-opacity="0.7000000000000001" /><circle cx="314.47" cy="382.17" r="3" fill="#ff7f0e" fill-opacity="0.7000000000000001" /><circle cx="316.48" cy="379.6" r="3" fill="#ff7f0e" fill-opacity="0.7000000000000001" /><circle cx="323.17" cy="358.90000000000003" r="3" fill="#ff7f0e" fill-opacity="0.7000000000000001" /><circle cx="318.53000000000003" cy="357.88" r="3" fill="#ff7f0e" fill-opacity="0.7000000000000001" /><circle cx="314.5" cy="352" r="3" fill="#ff7f0e" fill-opacity="0.7000000000000001" /><circle cx="317.56" cy="352.93" r="3" fill="#ff7f0e" fill-opacity="0.7000000000000001" /><circle cx="320.11" cy="304.93" r="3" fill="#ff7f0e" fill-opacity="0.7000000000000001" /><circle cx="318.51" cy="349.55" r="3" fill="#ff7f0e" fill-opacity="0.7000000000000001" /><circle cx="320.39" cy="365.63" r="3" fill="#ff7f0e" fill-opacity="0.7000000000000001" /><circle cx="317.03000000000003" cy="404.42" r="3" fill="#ff7f0e" fill-opacity="0.7000000000000001" /><circle cx="318.45" cy="301.64" r="3" fill="#ff7f0e" fill-opacity="0.7000000000000001" /><circle cx="319" cy="398.76" r="3" fill="#ff7f0e" fill-opacity="0.7000000000000001" /><circle cx="320.87" cy="141.24" r="3" fill="#ff7f0e" fill-opacity="0.7000000000000001" /><circle cx="317.96" cy="176.58" r="3" fill="#ff7f0e" fill-opacity="0.7000000000000001" /><circle cx="319.84000000000003" cy="169.51" r="3" fill="#ff7f0e" fill-opacity="0.7000000000000001" /><circle cx="315.53000000000003" cy="200.20000000000002" r="3" fill="#ff7f0e" fill-opacity="0.7000000000000001" /><circle cx="321.46" cy="179.29" r="3" fill="#ff7f0e" fill-opacity="0.7000000000000001" /><circle cx="316.12" cy="135.68" r="3" fill="#ff7f0e" fill-opacity="0.7000000000000001" /><circle cx="323.13" cy="192.13" r="3" fill="#ff7f0e" fill-opacity="0.7000000000000001" /><circle cx="320.04" cy="140.27" r="3" fill="#ff7f0e" fill-opacity="0.7000000000000001" /><circle cx="321.1" cy="182.27" r="3" fill="#ff7f0e" fill-opacity="0.7000000000000001" /><circle cx="320.63" cy="134.62" r="3" fill="#ff7f0e" fill-opacity="0.7000000000000001" /><circle cx="322.48" cy="178.34" r="3" fill="#ff7f0e" fill-opacity="0.7000000000000001" /><circle cx="316.09000000000003" cy="168.9" r="3" fill="#ff7f0e" fill-opacity="0.7000000000000001" /><circle cx="315.81" cy="157.18" r="3" fill="#ff7f0e" fill-opacity="0.7000000000000001" /><circle cx="320.12" cy="155.98" r="3" fill="#ff7f0e" fill-opacity="0.7000000000000001" /><circle cx="319.09000000000003" cy="126.33" r="3" fill="#ff7f0e" fill-opacity="0.7000000000000001" /><circle cx="322.57" cy="182.97" r="3" fill="#ff7f0e" fill-opacity="0.7000000000000001" /><circle cx="322.74" cy="171.3" r="3" fill="#ff7f0e" fill-opacity="0.7000000000000001" /><circle cx="315.37" cy="189.88" r="3" fill="#ff7f0e" fill-opacity="0.7000000000000001" /><circle cx="315.74" cy="200.54" r="3" fill="#ff7f0e" fill-opacity="0.7000000000000001" /><circle cx="315.71" cy="218.46" r="3" fill="#ff7f0e" fill-opacity="0.7000000000000001" /><circle cx="321.13" cy="172.75" r="3" fill="#ff7f0e" fill-opacity="0.7000000000000001" /><circle cx="321.83" cy="172.36" r="3" fill="#ff7f0e" fill-opacity="0.7000000000000001" /><circle cx="315.88" cy="170.66" r="3" fill="#ff7f0e" fill-opacity="0.7000000000000001" /><circle cx="317.77" cy="94.82000000000001" r="3" fill="#ff7f0e" fill-opacity="0.7000000000000001" /><circle cx="319.57" cy="218.79" r="3" fill="#ff7f0e" fill-opacity="0.7000000000000001" /><circle cx="323.84000000000003" cy="186.11" r="3" fill="#ff7f0e" fill-opacity="0.7000000000000001" /><circle cx="322.18" cy="202.29" r="3" fill="#ff7f0e" fill-opacity="0.7000000000000001" /><circle cx="317.18" cy="226.61" r="3" fill="#ff7f0e" fill-opacity="0.7000000000000001" /><circle cx="314.69" cy="190.65" r="3" fill="#ff7f0e" fill-opacity="0.7000000000000001" /><circle cx="321.78000000000003" cy="142.18" r="3" fill="#ff7f0e" fill-opacity="0.7000000000000001" /><circle cx="321.23" cy="190.63" r="3" fill="#ff7f0e" fill-opacity="0.7000000000000001" /><circle cx="320.22" cy="181.18" r="3" fill="#ff7f0e" fill-opacity="0.7000000000000001" /><circle cx="315.95" cy="172.98" r="3" fill="#ff7f0e" fill-opacity="0.7000000000000001" /><circle cx="317.59000000000003" cy="147.48" r="3" fill="#ff7f0e" fill-opacity="0.7000000000000001" /><circle cx="319.83" cy="210.83" r="3" fill="#ff7f0e" fill-opacity="0.7000000000000001" /><circle cx="322.58" cy="144.02" r="3" fill="#ff7f0e" fill-opacity="0.7000000000000001" /><circle cx="321.03000000000003" cy="141.5" r="3" fill="#ff7f0e" fill-opacity="0.7000000000000001" /><circle cx="314.02" cy="218.37" r="3" fill="#ff7f0e" fill-opacity="0.7000000000000001" /><circle cx="315.37" cy="159.91" r="3" fill="#ff7f0e" fill-opacity="0.7000000000000001" /><circle cx="316.18" cy="205.76" r="3" fill="#ff7f0e" fill-opacity="0.7000000000000001" /><circle cx="320.46" cy="175.71" r="3" fill="#ff7f0e" fill-opacity="0.7000000000000001" /><circle cx="318.54" cy="196.8" r="3" fill="#ff7f0e" fill-opacity="0.7000000000000001" /><circle cx="314.7" cy="244.4" r="3" fill="#ff7f0e" fill-opacity="0.7000000000000001" /><circle cx="314.86" cy="133.88" r="3" fill="#ff7f0e" fill-opacity="0.7000000000000001" /><circle cx="321.15000000000003" cy="184.68" r="3" fill="#ff7f0e" fill-opacity="0.7000000000000001" /><circle cx="321" cy="151.55" r="3" fill="#ff7f0e" fill-opacity="0.7000000000000001" /><circle cx="314.23" cy="200.07" r="3" fill="#ff7f0e" fill-opacity="0.7000000000000001" /><circle cx="316.13" cy="180.22" r="3" fill="#ff7f0e" fill-opacity="0.7000000000000001" /><circle cx="317.21" cy="139.73" r="3" fill="#ff7f0e" fill-opacity="0.7000000000000001" /><circle cx="315.72" cy="186.91" r="3" fill="#ff7f0e" fill-opacity="0.7000000000000001" /><circle cx="318.54" cy="129.92000000000002" r="3" fill="#ff7f0e" fill-opacity="0.7000000000000001" /><circle cx="314.06" cy="192.82" r="3" fill="#ff7f0e" fill-opacity="0.7000000000000001" /><circle cx="323.98" cy="214.1" r="3" fill="#ff7f0e" fill-opacity="0.7000000000000001" /><circle cx="315.66" cy="195.02" r="3" fill="#ff7f0e" fill-opacity="0.7000000000000001" /><circle cx="323.82" cy="158.55" r="3" fill="#ff7f0e" fill-opacity="0.7000000000000001" /><circle cx="314.81" cy="190.18" r="3" fill="#ff7f0e" fill-opacity="0.7000000000000001" /><circle cx="316.16" cy="149.98" r="3" fill="#ff7f0e" fill-opacity="0.7000000000000001" /><circle cx="315.33" cy="153.15" r="3" fill="#ff7f0e" fill-opacity="0.7000000000000001" /><circle cx="319.86" cy="189.65" r="3" fill="#ff7f0e" fill-opacity="0.7000000000000001" /><circle cx="317.52" cy="165.47" r="3" fill="#ff7f0e" fill-opacity="0.7000000000000001" /><circle cx="321.37" cy="188.17000000000002" r="3" fill="#ff7f0e" fill-opacity="0.7000000000000001" /><circle cx="317.36" cy="152.57" r="3" fill="#ff7f0e" fill-opacity="0.7000000000000001" /><circle cx="322.41" cy="199.46" r="3" fill="#ff7f0e" fill-opacity="0.7000000000000001" /><circle cx="320.51" cy="202.17000000000002" r="3" fill="#ff7f0e" fill-opacity="0.7000000000000001" /><circle cx="315.97" cy="199.6" r="3" fill="#ff7f0e" fill-opacity="0.7000000000000001" /><circle cx="318.85" cy="178.9" r="3" fill="#ff7f0e" fill-opacity="0.7000000000000001" /><circle cx="316.19" cy="177.88" r="3" fill="#ff7f0e" fill-opacity="0.7000000000000001" /><circle cx="321.32" cy="172" r="3" fill="#ff7f0e" fill-opacity="0.7000000000000001" /><circle cx="314.72" cy="172.93" r="3" fill="#ff7f0e" fill-opacity="0.7000000000000001" /><circle cx="318.57" cy="124.93" r="3" fill="#ff7f0e" fill-opacity="0.7000000000000001" /><circle cx="316.06" cy="169.55" r="3" fill="#ff7f0e" fill-opacity="0.7000000000000001" /><circle cx="314.18" cy="185.63" r="3" fill="#ff7f0e" fill-opacity="0.7000000000000001" /><circle cx="320.54" cy="224.42000000000002" r="3" fill="#ff7f0e" fill-opacity="0.7000000000000001" /><circle cx="316.51" cy="121.64" r="3" fill="#ff7f0e" fill-opacity="0.7000000000000001" /><circle cx="323.05" cy="218.76" r="3" fill="#ff7f0e" fill-opacity="0.7000000000000001" /><path d="M 609.65 403.5 L 611.73 402.02 L 613.64 400.54 L 615.3100000000001 399.05 L 616.71 397.57 L 617.78 396.09000000000003 L 618.53 394.61 L 618.9300000000001 393.13 L 619.0 391.65000000000003 L 618.76 390.17 L 618.25 388.68 L 617.5 387.2 L 616.5500000000001 385.72 L 615.45 384.24 L 614.25 382.76 L 612.99 381.28000000000003 L 611.7 379.8 L 610.42 378.32 L 609.19 376.83 L 608.01 375.35 L 606.92 373.87 L 605.92 372.39 L 605.03 370.91 L 604.24 369.43 L 603.5600000000001 367.95 L 602.98 366.46 L 602.5 364.98 L 602.1 363.5 L 601.78 362.02 L 601.53 360.54 L 601.32 359.06 L 601.15 357.58 L 600.99 356.09000000000003 L 600.84 354.61 L 600.6800000000001 353.13 L 600.5 351.65000000000003 L 600.29 350.17 L 600.04 348.69 L 599.74 347.21 L 599.39 345.73 L 599.0 344.24 L 598.58 342.76 L 598.12 341.28000000000003 L 597.65 339.8 L 597.17 338.32 L 596.7 336.84000000000003 L 596.25 335.36 L 595.83 333.87 L 595.44 332.39 L 595.09 330.91 L 594.77 329.43 L 594.48 327.95 L 594.21 326.47 L 593.97 324.99 L 593.74 323.5 L 593.51 322.02 L 593.3000000000001 320.54 L 593.08 319.06 L 592.85 317.58 L 592.63 316.1 L 592.41 314.62 L 592.2 313.14 L 591.99 311.65000000000003 L 591.79 310.17 L 591.61 308.69 L 591.45 307.21 L 591.3000000000001 305.73 L 591.1800000000001 304.25 L 591.08 302.77 L 591.0 301.28000000000003 L 590.94 299.8 L 590.89 298.32 L 590.84 296.84000000000003 L 590.79 295.36 L 590.74 293.88 L 590.69 292.40000000000003 L 590.62 290.91 L 590.5500000000001 289.43 L 590.48 287.95 L 590.4 286.47 L 590.32 284.99 L 590.24 283.51 L 590.16 282.03000000000003 L 590.09 280.55 L 590.02 279.06 L 589.96 277.58 L 589.91 276.1 L 589.87 274.62 L 589.83 273.14 L 589.8000000000001 271.66 L 589.76 270.18 L 589.73 268.69 L 589.7 267.21 L 589.67 265.73 L 589.63 264.25 L 589.59 262.77 L 589.5500000000001 261.29 L 589.5 259.81 L 589.45 258.32 L 589.4 256.84000000000003 L 589.34 255.36 L 589.29 253.88 L 589.25 252.4 L 589.2 250.92000000000002 L 589.17 249.44 L 589.13 247.96 L 589.11 246.47 L 589.09 244.99 L 589.08 243.51 L 589.07 242.03 L 589.07 240.55 L 589.08 239.07 L 589.09 237.59 L 589.12 236.1 L 589.14 234.62 L 589.17 233.14000000000001 L 589.21 231.66 L 589.25 230.18 L 589.29 228.70000000000002 L 589.33 227.22 L 589.36 225.73000000000002 L 589.4 224.25 L 589.42 222.77 L 589.4300000000001 221.29 L 589.44 219.81 L 589.44 218.33 L 589.42 216.85 L 589.4 215.37 L 589.37 213.88 L 589.33 212.4 L 589.29 210.92000000000002 L 589.25 209.44 L 589.21 207.96 L 589.1800000000001 206.48000000000002 L 589.14 205.0 L 589.11 203.51 L 589.09 202.03 L 589.07 200.55 L 589.0600000000001 199.07 L 589.0500000000001 197.59 L 589.0500000000001 196.11 L 589.0600000000001 194.63 L 589.07 193.14000000000001 L 589.09 191.66 L 589.12 190.18 L 589.15 188.70000000000002 L 589.19 187.22 L 589.25 185.74 L 589.3100000000001 184.26 L 589.38 182.78 L 589.45 181.29 L 589.53 179.81 L 589.6 178.33 L 589.67 176.85 L 589.74 175.37 L 589.79 173.89000000000001 L 589.83 172.41 L 589.85 170.92000000000002 L 589.86 169.44 L 589.84 167.96 L 589.0 167.96 L 589.0 169.44 L 589.0 170.92000000000002 L 589.0 172.41 L 589.0 173.89000000000001 L 589.0 175.37 L 589.0 176.85 L 589.0 178.33 L 589.0 179.81 L 589.0 181.29 L 589.0 182.78 L 589.0 184.26 L 589.0 185.74 L 589.0 187.22 L 589.0 188.70000000000002 L 589.0 190.18 L 589.0 191.66 L 589.0 193.14000000000001 L 589.0 194.63 L 589.0 196.11 L 589.0 197.59 L 589.0 199.07 L 589.0 200.55 L 589.0 202.03 L 589.0 203.51 L 589.0 205.0 L 589.0 206.48000000000002 L 589.0 207.96 L 589.0 209.44 L 589.0 210.92000000000002 L 589.0 212.4 L 589.0 213.88 L 589.0 215.37 L 589.0 216.85 L 589.0 218.33 L 589.0 219.81 L 589.0 221.29 L 589.0 222.77 L 589.0 224.25 L 589.0 225.73000000000002 L 589.0 227.22 L 589.0 228.70000000000002 L 589.0 230.18 L 589.0 231.66 L 589.0 233.14000000000001 L 589.0 234.62 L 589.0 236.1 L 589.0 237.59 L 589.0 239.07 L 589.0 240.55 L 589.0 242.03 L 589.0 243.51 L 589.0 244.99 L 589.0 246.47 L 589.0 247.96 L 589.0 249.44 L 589.0 250.92000000000002 L 589.0 252.4 L 589.0 253.88 L 589.0 255.36 L 589.0 256.84000000000003 L 589.0 258.32 L 589.0 259.81 L 589.0 261.29 L 589.0 262.77 L 589.0 264.25 L 589.0 265.73 L 589.0 267.21 L 589.0 268.69 L 589.0 270.18 L 589.0 271.66 L 589.0 273.14 L 589.0 274.62 L 589.0 276.1 L 589.0 277.58 L 589.0 279.06 L 589.0 280.55 L 589.0 282.03000000000003 L 589.0 283.51 L 589.0 284.99 L 589.0 286.47 L 589.0 287.95 L 589.0 289.43 L 589.0 290.91 L 589.0 292.40000000000003 L 589.0 293.88 L 589.0 295.36 L 589.0 296.84000000000003 L 589.0 298.32 L 589.0 299.8 L 589.0 301.28000000000003 L 589.0 302.77 L 589.0 304.25 L 589.0 305.73 L 589.0 307.21 L 589.0 308.69 L 589.0 310.17 L 589.0 311.65000000000003 L 589.0 313.14 L 589.0 314.62 L 589.0 316.1 L 589.0 317.58 L 589.0 319.06 L 589.0 320.54 L 589.0 322.02 L 589.0 323.5 L 589.0 324.99 L 589.0 326.47 L 589.0 327.95 L 589.0 329.43 L 589.0 330.91 L 589.0 332.39 L 589.0 333.87 L 589.0 335.36 L 589.0 336.84000000000003 L 589.0 338.32 L 589.0 339.8 L 589.0 341.28000000000003 L 589.0 342.76 L 589.0 344.24 L 589.0 345.73 L 589.0 347.21 L 589.0 348.69 L 589.0 350.17 L 589.0 351.65000000000003 L 589.0 353.13 L 589.0 354.61 L 589.0 356.09000000000003 L 589.0 357.58 L 589.0 359.06 L 589.0 360.54 L 589.0 362.02 L 589.0 363.5 L 589.0 364.98 L 589.0 366.46 L 589.0 367.95 L 589.0 369.43 L 589.0 370.91 L 589.0 372.39 L 589.0 373.87 L 589.0 375.35 L 589.0 376.83 L 589.0 378.32 L 589.0 379.8 L 589.0 381.28000000000003 L 589.0 382.76 L 589.0 384.24 L 589.0 385.72 L 589.0 387.2 L 589.0 388.68 L 589.0 390.17 L 589.0 391.65000000000003 L 589.0 393.13 L 589.0 394.61 L 589.0 396.09000000000003 L 589.0 397.57 L 589.0 399.05 L 589.0 400.54 L 589.0 402.02 L 589.0 403.5 Z" stroke="#2ca02c" stroke-width="0.5" fill="#2ca02c" fill-opacity="0.7000000000000001" /><rect x="551" y="354.93" width="16" height="39.53" fill="#2ca02c" /><line x1="551" y1="383.03000000000003" x2="567" y2="383.03000000000003" stroke="#ffffff" stroke-width="1.5" /><line x1="559" y1="403.89" x2="559" y2="394.46000000000004" stroke="#2ca02c" stroke-width="1" /><line x1="559" y1="354.93" x2="559" y2="307.17" stroke="#2ca02c" stroke-width="1" /><line x1="555" y1="403.89" x2="563" y2="403.89" stroke="#2ca02c" stroke-width="1" /><line x1="555" y1="307.17" x2="563" y2="307.17" stroke="#2ca02c" stroke-width="1" /><circle cx="522.6" cy="397.66" r="3" fill="#2ca02c" fill-opacity="0.7000000000000001" /><circle cx="521.7" cy="320.02" r="3" fill="#2ca02c" fill-opacity="0.7000000000000001" /><circle cx="520.52" cy="361.52" r="3" fill="#2ca02c" fill-opacity="0.7000000000000001" /><circle cx="519.26" cy="312.26" r="3" fill="#2ca02c" fill-opacity="0.7000000000000001" /><circle cx="517.9" cy="343.72" r="3" fill="#2ca02c" fill-opacity="0.7000000000000001" /><circle cx="514.79" cy="395.87" r="3" fill="#2ca02c" fill-opacity="0.7000000000000001" /><circle cx="523.03" cy="384.76" r="3" fill="#2ca02c" fill-opacity="0.7000000000000001" /><circle cx="515.19" cy="371.29" r="3" fill="#2ca02c" fill-opacity="0.7000000000000001" /><circle cx="521.89" cy="331.33" r="3" fill="#2ca02c" fill-opacity="0.7000000000000001" /><circle cx="523.1" cy="399.65000000000003" r="3" fill="#2ca02c" fill-opacity="0.7000000000000001" /><circle cx="522.6800000000001" cy="383.92" r="3" fill="#2ca02c" fill-opacity="0.7000000000000001" /><circle cx="523.83" cy="394.81" r="3" fill="#2ca02c" fill-opacity="0.7000000000000001" /><circle cx="522.23" cy="398.29" r="3" fill="#2ca02c" fill-opacity="0.7000000000000001" /><circle cx="520.5600000000001" cy="392.74" r="3" fill="#2ca02c" fill-opacity="0.7000000000000001" /><circle cx="519.73" cy="401.94" r="3" fill="#2ca02c" fill-opacity="0.7000000000000001" /><circle cx="521.0600000000001" cy="376.90000000000003" r="3" fill="#2ca02c" fill-opacity="0.7000000000000001" /><circle cx="521.42" cy="365.29" r="3" fill="#2ca02c" fill-opacity="0.7000000000000001" /><circle cx="521.7" cy="357.7" r="3" fill="#2ca02c" fill-opacity="0.7000000000000001" /><circle cx="514.71" cy="374.09000000000003" r="3" fill="#2ca02c" fill-opacity="0.7000000000000001" /><circle cx="516.39" cy="383.38" r="3" fill="#2ca02c" fill-opacity="0.7000000000000001" /><circle cx="518.84" cy="346.42" r="3" fill="#2ca02c" fill-opacity="0.7000000000000001" /><circle cx="517.05" cy="394.03000000000003" r="3" fill="#2ca02c" fill-opacity="0.7000000000000001" /><circle cx="515.0600000000001" cy="396.26" r="3" fill="#2ca02c" fill-opacity="0.7000000000000001" /><circle cx="520.03" cy="396.56" r="3" fill="#2ca02c" fill-opacity="0.7000000000000001" /><circle cx="517.59" cy="263.51" r="3" fill="#2ca02c" fill-opacity="0.7000000000000001" /><circle cx="517.13" cy="381.01" r="3" fill="#2ca02c" fill-opacity="0.7000000000000001" /><circle cx="522.2" cy="340.7" r="3" fill="#2ca02c" fill-opacity="0.7000000000000001" /><circle cx="515.4300000000001" cy="307.17" r="3" fill="#2ca02c" fill-opacity="0.7000000000000001" /><circle cx="517.27" cy="398.96000000000004" r="3" fill="#2ca02c" fill-opacity="0.7000000000000001" /><circle cx="514.73" cy="374.09000000000003" r="3" fill="#2ca02c" fill-opacity="0.7000000000000001" /><circle cx="519.0600000000001" cy="172.25" r="3" fill="#2ca02c" fill-opacity="0.7000000000000001" /><circle cx="514.33" cy="317.38" r="3" fill="#2ca02c" fill-opacity="0.7000000000000001" /><circle cx="518.83" cy="387.75" r="3" fill="#2ca02c" fill-opacity="0.7000000000000001" /><circle cx="523.74" cy="332.36" r="3" fill="#2ca02c" fill-opacity="0.7000000000000001" /><circle cx="517.08" cy="399.15000000000003" r="3" fill="#2ca02c" fill-opacity="0.7000000000000001" /><circle cx="517.61" cy="396.55" r="3" fill="#2ca02c" fill-opacity="0.7000000000000001" /><circle cx="521.49" cy="388.01" r="3" fill="#2ca02c" fill-opacity="0.7000000000000001" /><circle cx="516.42" cy="389.46000000000004" r="3" fill="#2ca02c" fill-opacity="0.7000000000000001" /><circle cx="517.55" cy="295.06" r="3" fill="#2ca02c" fill-opacity="0.7000000000000001" /><circle cx="518.0600000000001" cy="396.55" r="3" fill="#2ca02c" fill-opacity="0.7000000000000001" /><circle cx="514.94" cy="379.29" r="3" fill="#2ca02c" fill-opacity="0.7000000000000001" /><circle cx="521.41" cy="403.59000000000003" r="3" fill="#2ca02c" fill-opacity="0.7000000000000001" /><circle cx="516.4300000000001" cy="397.72" r="3" fill="#2ca02c" fill-opacity="0.7000000000000001" /><circle cx="520.2" cy="330.31" r="3" fill="#2ca02c" fill-opacity="0.7000000000000001" /><circle cx="517.26" cy="388.75" r="3" fill="#2ca02c" fill-opacity="0.7000000000000001" /><circle cx="515.03" cy="315.96" r="3" fill="#2ca02c" fill-opacity="0.7000000000000001" /><circle cx="521.5600000000001" cy="327.66" r="3" fill="#2ca02c" fill-opacity="0.7000000000000001" /><circle cx="519.41" cy="367.84000000000003" r="3" fill="#2ca02c" fill-opacity="0.7000000000000001" /><circle cx="515.63" cy="403.36" r="3" fill="#2ca02c" fill-opacity="0.7000000000000001" /><circle cx="523.04" cy="342.82" r="3" fill="#2ca02c" fill-opacity="0.7000000000000001" /><circle cx="516.98" cy="367.03000000000003" r="3" fill="#2ca02c" fill-opacity="0.7000000000000001" /><circle cx="518.82" cy="394.09000000000003" r="3" fill="#2ca02c" fill-opacity="0.7000000000000001" /><circle cx="517.27" cy="396.40000000000003" r="3" fill="#2ca02c" fill-opacity="0.7000000000000001" /><circle cx="523.54" cy="395.63" r="3" fill="#2ca02c" fill-opacity="0.7000000000000001" /><circle cx="518.59" cy="393.1" r="3" fill="#2ca02c" fill-opacity="0.7000000000000001" /><circle cx="517.22" cy="399.01" r="3" fill="#2ca02c" fill-opacity="0.7000000000000001" /><circle cx="522.8" cy="381.93" r="3" fill="#2ca02c" fill-opacity="0.7000000000000001" /><circle cx="514.28" cy="396.84000000000003" r="3" fill="#2ca02c" fill-opacity="0.7000000000000001" /><circle cx="520.12" cy="383.64" r="3" fill="#2ca02c" fill-opacity="0.7000000000000001" /><circle cx="522.25" cy="387.02" r="3" fill="#2ca02c" fill-opacity="0.7000000000000001" /><circle cx="521.4300000000001" cy="363.6" r="3" fill="#2ca02c" fill-opacity="0.7000000000000001" /><circle cx="518.2" cy="383.19" r="3" fill="#2ca02c" fill-opacity="0.7000000000000001" /><circle cx="520" cy="402" r="3" fill="#2ca02c" fill-opacity="0.7000000000000001" /><circle cx="520.17" cy="387.58" r="3" fill="#2ca02c" fill-opacity="0.7000000000000001" /><circle cx="519.02" cy="399.85" r="3" fill="#2ca02c" fill-opacity="0.7000000000000001" /><circle cx="519.45" cy="391.79" r="3" fill="#2ca02c" fill-opacity="0.7000000000000001" /><circle cx="516.22" cy="398.31" r="3" fill="#2ca02c" fill-opacity="0.7000000000000001" /><circle cx="514.94" cy="358" r="3" fill="#2ca02c" fill-opacity="0.7000000000000001" /><circle cx="518.5" cy="350.56" r="3" fill="#2ca02c" fill-opacity="0.7000000000000001" /><circle cx="521.34" cy="401.67" r="3" fill="#2ca02c" fill-opacity="0.7000000000000001" /><circle cx="521.08" cy="356.28000000000003" r="3" fill="#2ca02c" fill-opacity="0.7000000000000001" /><circle cx="519.15" cy="371.53000000000003" r="3" fill="#2ca02c" fill-opacity="0.7000000000000001" /><circle cx="520.1" cy="401.58" r="3" fill="#2ca02c" fill-opacity="0.7000000000000001" /><circle cx="520.76" cy="345.55" r="3" fill="#2ca02c" fill-opacity="0.7000000000000001" /><circle cx="519.62" cy="219.71" r="3" fill="#2ca02c" fill-opacity="0.7000000000000001" /><circle cx="518.97" cy="401.14" r="3" fill="#2ca02c" fill-opacity="0.7000000000000001" /><circle cx="521.15" cy="167.57" r="3" fill="#2ca02c" fill-opacity="0.7000000000000001" /><circle cx="515.78" cy="394.55" r="3" fill="#2ca02c" fill-opacity="0.7000000000000001" /><circle cx="521" cy="384.72" r="3" fill="#2ca02c" fill-opacity="0.7000000000000001" /><circle cx="517.3" cy="401.74" r="3" fill="#2ca02c" fill-opacity="0.7000000000000001" /><circle cx="520.97" cy="402.5" r="3" fill="#2ca02c" fill-opacity="0.7000000000000001" /><circle cx="523.96" cy="375.19" r="3" fill="#2ca02c" fill-opacity="0.7000000000000001" /><circle cx="521.62" cy="321.26" r="3" fill="#2ca02c" fill-opacity="0.7000000000000001" /><circle cx="521.26" cy="382.87" r="3" fill="#2ca02c" fill-opacity="0.7000000000000001" /><circle cx="518.47" cy="358.33" r="3" fill="#2ca02c" fill-opacity="0.7000000000000001" /><circle cx="517.94" cy="390.65000000000003" r="3" fill="#2ca02c" fill-opacity="0.7000000000000001" /><circle cx="519.95" cy="355.01" r="3" fill="#2ca02c" fill-opacity="0.7000000000000001" /><circle cx="522.25" cy="401.11" r="3" fill="#2ca02c" fill-opacity="0.7000000000000001" /><circle cx="520.62" cy="375.65000000000003" r="3" fill="#2ca02c" fill-opacity="0.7000000000000001" /><circle cx="514.98" cy="348.38" r="3" fill="#2ca02c" fill-opacity="0.7000000000000001" /><circle cx="520.51" cy="385.58" r="3" fill="#2ca02c" fill-opacity="0.7000000000000001" /><circle cx="515.71" cy="403.1" r="3" fill="#2ca02c" fill-opacity="0.7000000000000001" /><circle cx="519.13" cy="383.05" r="3" fill="#2ca02c" fill-opacity="0.7000000000000001" /><circle cx="514.14" cy="340.75" r="3" fill="#2ca02c" fill-opacity="0.7000000000000001" /><circle cx="522.11" cy="388.11" r="3" fill="#2ca02c" fill-opacity="0.7000000000000001" /><circle cx="518.46" cy="392.90000000000003" r="3" fill="#2ca02c" fill-opacity="0.7000000000000001" /><circle cx="519.23" cy="398.90000000000003" r="3" fill="#2ca02c" fill-opacity="0.7000000000000001" /><circle cx="517.97" cy="375.66" r="3" fill="#2ca02c" fill-opacity="0.7000000000000001" /><circle cx="522.27" cy="393.55" r="3" fill="#2ca02c" fill-opacity="0.7000000000000001" /><circle cx="518.55" cy="402.64" r="3" fill="#2ca02c" fill-opacity="0.7000000000000001" /><circle cx="517.25" cy="381.22" r="3" fill="#2ca02c" fill-opacity="0.7000000000000001" /><circle cx="514.12" cy="294.38" r="3" fill="#2ca02c" fill-opacity="0.7000000000000001" /><circle cx="519.27" cy="357.76" r="3" fill="#2ca02c" fill-opacity="0.7000000000000001" /><circle cx="519.34" cy="390.89" r="3" fill="#2ca02c" fill-opacity="0.7000000000000001" /><circle cx="518.1" cy="290.92" r="3" fill="#2ca02c" fill-opacity="0.7000000000000001" /><circle cx="523.6" cy="368.55" r="3" fill="#2ca02c" fill-opacity="0.7000000000000001" /><circle cx="521.3" cy="349.95" r="3" fill="#2ca02c" fill-opacity="0.7000000000000001" /><circle cx="523.36" cy="393.5" r="3" fill="#2ca02c" fill-opacity="0.7000000000000001" /><circle cx="520.04" cy="396.69" r="3" fill="#2ca02c" fill-opacity="0.7000000000000001" /><circle cx="523.1" cy="396.31" r="3" fill="#2ca02c" fill-opacity="0.7000000000000001" /><circle cx="517.34" cy="394.19" r="3" fill="#2ca02c" fill-opacity="0.7000000000000001" /><circle cx="519.21" cy="367.98" r="3" fill="#2ca02c" fill-opacity="0.7000000000000001" /><circle cx="518.09" cy="390.41" r="3" fill="#2ca02c" fill-opacity="0.7000000000000001" /><circle cx="521.41" cy="383.29" r="3" fill="#2ca02c" fill-opacity="0.7000000000000001" /><circle cx="515.05" cy="346.65000000000003" r="3" fill="#2ca02c" fill-opacity="0.7000000000000001" /><circle cx="514.59" cy="371.86" r="3" fill="#2ca02c" fill-opacity="0.7000000000000001" /><circle cx="516.67" cy="383.01" r="3" fill="#2ca02c" fill-opacity="0.7000000000000001" /><circle cx="520.39" cy="365.7" r="3" fill="#2ca02c" fill-opacity="0.7000000000000001" /><circle cx="522.79" cy="388.13" r="3" fill="#2ca02c" fill-opacity="0.7000000000000001" /><circle cx="520.11" cy="390.16" r="3" fill="#2ca02c" fill-opacity="0.7000000000000001" /><circle cx="518.83" cy="395.84000000000003" r="3" fill="#2ca02c" fill-opacity="0.7000000000000001" /><circle cx="518.22" cy="325.39" r="3" fill="#2ca02c" fill-opacity="0.7000000000000001" /><circle cx="520.27" cy="358.66" r="3" fill="#2ca02c" fill-opacity="0.7000000000000001" /><circle cx="523.79" cy="382.29" r="3" fill="#2ca02c" fill-opacity="0.7000000000000001" /><circle cx="522.42" cy="403.89" r="3" fill="#2ca02c" fill-opacity="0.7000000000000001" /><circle cx="516.45" cy="379.3" r="3" fill="#2ca02c" fill-opacity="0.7000000000000001" /><circle cx="514.52" cy="371.6" r="3" fill="#2ca02c" fill-opacity="0.7000000000000001" /><circle cx="520.85" cy="340.64" r="3" fill="#2ca02c" fill-opacity="0.7000000000000001" /><circle cx="518.25" cy="345.55" r="3" fill="#2ca02c" fill-opacity="0.7000000000000001" /><circle cx="519.6800000000001" cy="383.72" r="3" fill="#2ca02c" fill-opacity="0.7000000000000001" /><circle cx="517.69" cy="343.91" r="3" fill="#2ca02c" fill-opacity="0.7000000000000001" /><circle cx="518.73" cy="375.56" r="3" fill="#2ca02c" fill-opacity="0.7000000000000001" /><circle cx="521.38" cy="392.25" r="3" fill="#2ca02c" fill-opacity="0.7000000000000001" /><circle cx="518.84" cy="347.14" r="3" fill="#2ca02c" fill-opacity="0.7000000000000001" /><circle cx="514.19" cy="403.68" r="3" fill="#2ca02c" fill-opacity="0.7000000000000001" /><circle cx="519.17" cy="347.7" r="3" fill="#2ca02c" fill-opacity="0.7000000000000001" /><circle cx="523.17" cy="385.69" r="3" fill="#2ca02c" fill-opacity="0.7000000000000001" /><circle cx="521.64" cy="277.52" r="3" fill="#2ca02c" fill-opacity="0.7000000000000001" /><circle cx="520.65" cy="344.44" r="3" fill="#2ca02c" fill-opacity="0.7000000000000001" /><circle cx="520.66" cy="329.43" r="3" fill="#2ca02c" fill-opacity="0.7000000000000001" /><circle cx="519.91" cy="390.37" r="3" fill="#2ca02c" fill-opacity="0.7000000000000001" /><circle cx="514.55" cy="390.71000000000004" r="3" fill="#2ca02c" fill-opacity="0.7000000000000001" /><circle cx="515.01" cy="354.12" r="3" fill="#2ca02c" fill-opacity="0.7000000000000001" /><circle cx="517.8" cy="384.90000000000003" r="3" fill="#2ca02c" fill-opacity="0.7000000000000001" /><circle cx="523.39" cy="375.05" r="3" fill="#2ca02c" fill-opacity="0.7000000000000001" /><circle cx="518.4300000000001" cy="401.7" r="3" fill="#2ca02c" fill-opacity="0.7000000000000001" /><circle cx="518.38" cy="358.16" r="3" fill="#2ca02c" fill-opacity="0.7000000000000001" /><circle cx="515.83" cy="354.91" r="3" fill="#2ca02c" fill-opacity="0.7000000000000001" /><circle cx="521.77" cy="362.12" r="3" fill="#2ca02c" fill-opacity="0.7000000000000001" /><circle cx="518.08" cy="391.41" r="3" fill="#2ca02c" fill-opacity="0.7000000000000001" /></g></svg>