<svg xmlns="http://www.w3.org/2000/svg" width="673" height="545" font-family="DejaVu Sans, Liberation Sans, Arial, sans-serif" fill="black"><rect width="100%" height="100%" fill="white" /><defs><clipPath id="kuva-clip-8"><rect x="59" y="44" width="600" height="450"/></clipPath></defs><line x1="59" y1="404" x2="659" y2="404" stroke="#cccccc" stroke-width="1" /><line x1="59" y1="314" x2="659" y2="314" stroke="#cccccc" stroke-width="1" /><line x1="59" y1="224" x2="659" y2="224" stroke="#cccccc" stroke-width="1" /><line x1="59" y1="134" x2="659" y2="134" stroke="#cccccc" stroke-width="1" /><line x1="59" y1="44" x2="659" y2="44" stroke="#cccccc" stroke-width="1" /><line x1="59" y1="494" x2="659" y2="494" stroke="#000000" stroke-width="1" /><line x1="59" y1="44" x2="59" y2="494" stroke="#000000" stroke-width="1" /><text x="209" y="511" font-size="12" text-anchor="middle">A</text><line x1="209" y1="494" x2="209" y2="499" stroke="#000000" stroke-width="1" /><text x="509" y="511" font-size="12" text-anchor="middle">B</text><line x1="509" y1="494" x2="509" y2="499" stroke="#000000" stroke-width="1" /><line x1="54" y1="494" x2="59" y2="494" stroke="#000000" stroke-width="1" /><text x="51" y="498.2" font-size="12" text-anchor="end">0</text><line x1="54" y1="404" x2="59" y2="404" stroke="#000000" stroke-width="1" /><text x="51" y="408.2" font-size="12" text-anchor="end">2</text><line x1="54" y1="314" x2="59" y2="314" stroke="#000000" stroke-width="1" /><text x="51" y="318.2" font-size="12" text-anchor="end">4</text><line x1="54" y1="224" x2="59" y2="224" stroke="#000000" stroke-width="1" /><text x="51" y="228.20000000000002" font-size="12" text-anchor="end">6</text><line x1="54" y1="134" x2="59" y2="134" stroke="#000000" stroke-width="1" /><text x="51" y="138.20000000000002" font-size="12" text-anchor="end">8</text><line x1="54" y1="44" x2="59" y2="44" stroke="#000000" stroke-width="1" /><text x="51" y="48.2" font-size="12" text-anchor="end">10</text><text x="15" y="272.5" font-size="14" text-anchor="middle" transform="rotate(-90,15,272.5)">Value</text><text x="336.5" y="27.400000000000002" font-size="18" text-anchor="middle">Box + Rain</text><g clip-path="url(#kuva-clip-8)"><rect x="197" y="237.88" width="24" height="73.52" fill="#1f77b4" /><line x1="197" y1="274.92" x2="221" y2="274.92" stroke="#ffffff" stroke-width="1.5" /><line x1="209" y1="390.55" x2="209" y2="311.40000000000003" stroke="#1f77b4" stroke-width="1" /><line x1="209" y1="237.88" x2="209" y2="153.87" stroke="#1f77b4" stroke-width="1" /><line x1="203" y1="390.55" x2="215" y2="390.55" stroke="#1f77b4" stroke-width="1" /><line x1="203" y1="153.87" x2="215" y2="153.87" stroke="#1f77b4" stroke-width="1" /><circle cx="154.4" cy="293.75" r="3" fill="#1f77b4" fill-opacity="0.7000000000000001" /><circle cx="153.04" cy="243.99" r="3" fill="#1f77b4" fill-opacity="0.7000000000000001" /><circle cx="155.57" cy="276.68" r="3" fill="#1f77b4" fill-opacity="0.7000000000000001" /><circle cx="142.93" cy="313.7" r="3" fill="#1f77b4" fill-opacity="0.7000000000000001" /><circle cx="147.27" cy="240.5" r="3" fill="#1f77b4" fill-opacity="0.7000000000000001" /><circle cx="143.08" cy="170.14000000000001" r="3" fill="#1f77b4" fill-opacity="0.7000000000000001" /><circle cx="141.74" cy="229.4" r="3" fill="#1f77b4" fill-opacity="0.7000000000000001" /><circle cx="145.89000000000001" cy="209.91" r="3" fill="#1f77b4" fill-opacity="0.7000000000000001" /><circle cx="148.54" cy="94.68" r="3" fill="#1f77b4" fill-opacity="0.7000000000000001" /><circle cx="154.16" cy="311.12" r="3" fill="#1f77b4" fill-opacity="0.7000000000000001" /><circle cx="142.71" cy="294.05" r="3" fill="#1f77b4" fill-opacity="0.7000000000000001" /><circle cx="154.72" cy="335.2" r="3" fill="#1f77b4" fill-opacity="0.7000000000000001" /><circle cx="141.89000000000001" cy="250.6" r="3" fill="#1f77b4" fill-opacity="0.7000000000000001" /><circle cx="146.63" cy="253.20000000000002" r="3" fill="#1f77b4" fill-opacity="0.7000000000000001" /><circle cx="148.76" cy="280.97" r="3" fill="#1f77b4" fill-opacity="0.7000000000000001" /><circle cx="149.82" cy="235.95000000000002" r="3" fill="#1f77b4" fill-opacity="0.7000000000000001" /><circle cx="148.33" cy="298.54" r="3" fill="#1f77b4" fill-opacity="0.7000000000000001" /><circle cx="154.73" cy="249.5" r="3" fill="#1f77b4" fill-opacity="0.7000000000000001" /><circle cx="150.44" cy="316.6" r="3" fill="#1f77b4" fill-opacity="0.7000000000000001" /><circle cx="154.75" cy="328.6" r="3" fill="#1f77b4" fill-opacity="0.7000000000000001" /><circle cx="145.56" cy="317.48" r="3" fill="#1f77b4" fill-opacity="0.7000000000000001" /><circle cx="144.6" cy="328.48" r="3" fill="#1f77b4" fill-opacity="0.7000000000000001" /><circle cx="154.51" cy="244.69" r="3" fill="#1f77b4" fill-opacity="0.7000000000000001" /><circle cx="141.73" cy="270.84000000000003" r="3" fill="#1f77b4" fill-opacity="0.7000000000000001" /><circle cx="149.18" cy="190.86" r="3" fill="#1f77b4" fill-opacity="0.7000000000000001" /><circle cx="150.52" cy="171.6" r="3" fill="#1f77b4" fill-opacity="0.7000000000000001" /><circle cx="150.14000000000001" cy="257.04" r="3" fill="#1f77b4" fill-opacity="0.7000000000000001" /><circle cx="146.98" cy="276.54" r="3" fill="#1f77b4" fill-opacity="0.7000000000000001" /><circle cx="148.95000000000002" cy="337.98" r="3" fill="#1f77b4" fill-opacity="0.7000000000000001" /><circle cx="148.63" cy="206.49" r="3" fill="#1f77b4" fill-opacity="0.7000000000000001" /><circle cx="142.77" cy="249.77" r="3" fill="#1f77b4" fill-opacity="0.7000000000000001" /><circle cx="147.21" cy="255.54" r="3" fill="#1f77b4" fill-opacity="0.7000000000000001" /><circle cx="141.96" cy="243.73000000000002" r="3" fill="#1f77b4" fill-opacity="0.7000000000000001" /><circle cx="145.8" cy="279.02" r="3" fill="#1f77b4" fill-opacity="0.7000000000000001" /><circle cx="152.26" cy="236.65" r="3" fill="#1f77b4" fill-opacity="0.7000000000000001" /><circle cx="148.52" cy="320.36" r="3" fill="#1f77b4" fill-opacity="0.7000000000000001" /><circle cx="150.89000000000001" cy="390.55" r="3" fill="#1f77b4" fill-opacity="0.7000000000000001" /><circle cx="155.06" cy="278.96" r="3" fill="#1f77b4" fill-opacity="0.7000000000000001" /><circle cx="145.72" cy="153.87" r="3" fill="#1f77b4" fill-opacity="0.7000000000000001" /><circle cx="142.79" cy="255.71" r="3" fill="#1f77b4" fill-opacity="0.7000000000000001" /><circle cx="145.86" cy="280.86" r="3" fill="#1f77b4" fill-opacity="0.7000000000000001" /><circle cx="150.91" cy="350.75" r="3" fill="#1f77b4" fill-opacity="0.7000000000000001" /><circle cx="146.24" cy="372.61" r="3" fill="#1f77b4" fill-opacity="0.7000000000000001" /><circle cx="153.88" cy="277.52" r="3" fill="#1f77b4" fill-opacity="0.7000000000000001" /><circle cx="145.95000000000002" cy="225.68" r="3" fill="#1f77b4" fill-opacity="0.7000000000000001" /><circle cx="148.22" cy="200.57" r="3" fill="#1f77b4" fill-opacity="0.7000000000000001" /><circle cx="146.56" cy="290.42" r="3" fill="#1f77b4" fill-opacity="0.7000000000000001" /><circle cx="145.46" cy="305.54" r="3" fill="#1f77b4" fill-opacity="0.7000000000000001" /><circle cx="144.35" cy="224.44" r="3" fill="#1f77b4" fill-opacity="0.7000000000000001" /><circle cx="144.88" cy="335.55" r="3" fill="#1f77b4" fill-opacity="0.7000000000000001" /><circle cx="146.25" cy="359.31" r="3" fill="#1f77b4" fill-opacity="0.7000000000000001" /><circle cx="153.78" cy="313.38" r="3" fill="#1f77b4" fill-opacity="0.7000000000000001" /><circle cx="142.67000000000002" cy="354.95" r="3" fill="#1f77b4" fill-opacity="0.7000000000000001" /><circle cx="149.84" cy="252.67000000000002" r="3" fill="#1f77b4" fill-opacity="0.7000000000000001" /><circle cx="145.67000000000002" cy="314.54" r="3" fill="#1f77b4" fill-opacity="0.7000000000000001" /><circle cx="150.9" cy="260.41" r="3" fill="#1f77b4" fill-opacity="0.7000000000000001" /><circle cx="142.03" cy="278.67" r="3" fill="#1f77b4" fill-opacity="0.7000000000000001" /><circle cx="148.42000000000002" cy="192.3" r="3" fill="#1f77b4" fill-opacity="0.7000000000000001" /><circle cx="155.69" cy="208.07" r="3" fill="#1f77b4" fill-opacity="0.7000000000000001" /><circle cx="148.25" cy="325.35" r="3" fill="#1f77b4" fill-opacity="0.7000000000000001" /><circle cx="141.70000000000002" cy="265.54" r="3" fill="#1f77b4" fill-opacity="0.7000000000000001" /><circle cx="148.9" cy="350.44" r="3" fill="#1f77b4" fill-opacity="0.7000000000000001" /><circle cx="142.48" cy="261.23" r="3" fill="#1f77b4" fill-opacity="0.7000000000000001" /><circle cx="155.1" cy="234.95000000000002" r="3" fill="#1f77b4" fill-opacity="0.7000000000000001" /><circle cx="153.26" cy="289.26" r="3" fill="#1f77b4" fill-opacity="0.7000000000000001" /><circle cx="152.79" cy="301.43" r="3" fill="#1f77b4" fill-opacity="0.7000000000000001" /><circle cx="148.05" cy="186.68" r="3" fill="#1f77b4" fill-opacity="0.7000000000000001" /><circle cx="145.22" cy="321.27" r="3" fill="#1f77b4" fill-opacity="0.7000000000000001" /><circle cx="144.16" cy="290.8" r="3" fill="#1f77b4" fill-opacity="0.7000000000000001" /><circle cx="154.8" cy="261.39" r="3" fill="#1f77b4" fill-opacity="0.7000000000000001" /><circle cx="154.35" cy="273.3" r="3" fill="#1f77b4" fill-opacity="0.7000000000000001" /><circle cx="149.24" cy="340.43" r="3" fill="#1f77b4" fill-opacity="0.7000000000000001" /><circle cx="154.22" cy="232.75" r="3" fill="#1f77b4" fill-opacity="0.7000000000000001" /><circle cx="146.38" cy="237.49" r="3" fill="#1f77b4" fill-opacity="0.7000000000000001" /><circle cx="145.59" cy="312.24" r="3" fill="#1f77b4" fill-opacity="0.7000000000000001" /><circle cx="148.75" cy="336.93" r="3" fill="#1f77b4" fill-opacity="0.7000000000000001" /><circle cx="150.11" cy="303.75" r="3" fill="#1f77b4" fill-opacity="0.7000000000000001" /><circle cx="150.37" cy="259.67" r="3" fill="#1f77b4" fill-opacity="0.7000000000000001" /><circle cx="155.14000000000001" cy="239.78" r="3" fill="#1f77b4" fill-opacity="0.7000000000000001" /><circle cx="144.48" cy="167.35" r="3" fill="#1f77b4" fill-opacity="0.7000000000000001" /><circle cx="144.83" cy="385.14" r="3" fill="#1f77b4" fill-opacity="0.7000000000000001" /><circle cx="150.58" cy="288.83" r="3" fill="#1f77b4" fill-opacity="0.7000000000000001" /><circle cx="146.36" cy="189.21" r="3" fill="#1f77b4" fill-opacity="0.7000000000000001" /><circle cx="154.15" cy="326.65000000000003" r="3" fill="#1f77b4" fill-opacity="0.7000000000000001" /><circle cx="154.41" cy="330.52" r="3" fill="#1f77b4" fill-opacity="0.7000000000000001" /><circle cx="142.07" cy="208.1" r="3" fill="#1f77b4" fill-opacity="0.7000000000000001" /><circle cx="144.96" cy="203.20000000000002" r="3" fill="#1f77b4" fill-opacity="0.7000000000000001" /><circle cx="143.69" cy="309.61" r="3" fill="#1f77b4" fill-opacity="0.7000000000000001" /><circle cx="155.16" cy="266.41" r="3" fill="#1f77b4" fill-opacity="0.7000000000000001" /><circle cx="153.05" cy="323.7" r="3" fill="#1f77b4" fill-opacity="0.7000000000000001" /><circle cx="147.73" cy="214.94" r="3" fill="#1f77b4" fill-opacity="0.7000000000000001" /><circle cx="147.45000000000002" cy="318.47" r="3" fill="#1f77b4" fill-opacity="0.7000000000000001" /><circle cx="142.02" cy="227.04" r="3" fill="#1f77b4" fill-opacity="0.7000000000000001" /><circle cx="151.48" cy="194.87" r="3" fill="#1f77b4" fill-opacity="0.7000000000000001" /><circle cx="143.29" cy="289.07" r="3" fill="#1f77b4" fill-opacity="0.7000000000000001" /><circle cx="152.8" cy="202.62" r="3" fill="#1f77b4" fill-opacity="0.7000000000000001" /><circle cx="144.98" cy="263.8" r="3" fill="#1f77b4" fill-opacity="0.7000000000000001" /><circle cx="155.77" cy="171.33" r="3" fill="#1f77b4" fill-opacity="0.7000000000000001" /><circle cx="150.85" cy="217.01" r="3" fill="#1f77b4" fill-opacity="0.7000000000000001" /><circle cx="146.56" cy="295.39" r="3" fill="#1f77b4" fill-opacity="0.7000000000000001" /><circle cx="148.78" cy="315.43" r="3" fill="#1f77b4" fill-opacity="0.7000000000000001" /><circle cx="151.54" cy="256.51" r="3" fill="#1f77b4" fill-opacity="0.7000000000000001" /><circle cx="154.23" cy="287.14" r="3" fill="#1f77b4" fill-opacity="0.7000000000000001" /><circle cx="143.66" cy="229.86" r="3" fill="#1f77b4" fill-opacity="0.7000000000000001" /><circle cx="143.95000000000002" cy="238.01" r="3" fill="#1f77b4" fill-opacity="0.7000000000000001" /><circle cx="143.82" cy="271.72" r="3" fill="#1f77b4" fill-opacity="0.7000000000000001" /><circle cx="148.93" cy="259.6" r="3" fill="#1f77b4" fill-opacity="0.7000000000000001" /><circle cx="149" cy="246.31" r="3" fill="#1f77b4" fill-opacity="0.7000000000000001" /><circle cx="141.85" cy="278.01" r="3" fill="#1f77b4" fill-opacity="0.7000000000000001" /><circle cx="149.82" cy="317.08" r="3" fill="#1f77b4" fill-opacity="0.7000000000000001" /><circle cx="146.37" cy="293.75" r="3" fill="#1f77b4" fill-opacity="0.7000000000000001" /><circle cx="145.19" cy="303.15000000000003" r="3" fill="#1f77b4" fill-opacity="0.7000000000000001" /><circle cx="151.6" cy="289.52" r="3" fill="#1f77b4" fill-opacity="0.7000000000000001" /><circle cx="151.26" cy="249.19" r="3" fill="#1f77b4" fill-opacity="0.7000000000000001" /><circle cx="152.97" cy="303.45" r="3" fill="#1f77b4" fill-opacity="0.7000000000000001" /><circle cx="145.25" cy="249.17000000000002" r="3" fill="#1f77b4" fill-opacity="0.7000000000000001" /><circle cx="148.45000000000002" cy="282.25" r="3" fill="#1f77b4" fill-opacity="0.7000000000000001" /><circle cx="144.25" cy="342.57" r="3" fill="#1f77b4" fill-opacity="0.7000000000000001" /><circle cx="153.13" cy="243.5" r="3" fill="#1f77b4" fill-opacity="0.7000000000000001" /><circle cx="143.78" cy="293.94" r="3" fill="#1f77b4" fill-opacity="0.7000000000000001" /><rect x="497" y="198.96" width="24" height="133.82" fill="#ff7f0e" /><line x1="497" y1="255.08" x2="521" y2="255.08" stroke="#ffffff" stroke-width="1.5" /><line x1="509" y1="398.65000000000003" x2="509" y2="332.78000000000003" stroke="#ff7f0e" stroke-width="1" /><line x1="509" y1="198.96" x2="509" y2="111.51" stroke="#ff7f0e" stroke-width="1" /><line x1="503" y1="398.65000000000003" x2="515" y2="398.65000000000003" stroke="#ff7f0e" stroke-width="1" /><line x1="503" y1="111.51" x2="515" y2="111.51" stroke="#ff7f0e" stroke-width="1" /><circle cx="454.40000000000003" cy="295.91" r="3" fill="#ff7f0e" fill-opacity="0.7000000000000001" /><circle cx="445.6" cy="344.31" r="3" fill="#ff7f0e" fill-opacity="0.7000000000000001" /><circle cx="453.07" cy="325.91" r="3" fill="#ff7f0e" fill-opacity="0.7000000000000001" /><circle cx="442.99" cy="337.67" r="3" fill="#ff7f0e" fill-opacity="0.7000000000000001" /><circle cx="452.02" cy="290.19" r="3" fill="#ff7f0e" fill-opacity="0.7000000000000001" /><circle cx="452.54" cy="329.56" r="3" fill="#ff7f0e" fill-opacity="0.7000000000000001" /><circle cx="442.04" cy="341.27" r="3" fill="#ff7f0e" fill-opacity="0.7000000000000001" /><circle cx="453.93" cy="246.51000000000002" r="3" fill="#ff7f0e" fill-opacity="0.7000000000000001" /><circle cx="452.68" cy="321.32" r="3" fill="#ff7f0e" fill-opacity="0.7000000000000001" /><circle cx="444.72" cy="342.85" r="3" fill="#ff7f0e" fill-opacity="0.7000000000000001" /><circle cx="452.47" cy="332.19" r="3" fill="#ff7f0e" fill-opacity="0.7000000000000001" /><circle cx="453.55" cy="346.34000000000003" r="3" fill="#ff7f0e" fill-opacity="0.7000000000000001" /><circle cx="448.61" cy="398.65000000000003" r="3" fill="#ff7f0e" fill-opacity="0.7000000000000001" /><circle cx="449.22" cy="292.19" r="3" fill="#ff7f0e" fill-opacity="0.7000000000000001" /><circle cx="442.43" cy="367.40000000000003" r="3" fill="#ff7f0e" fill-opacity="0.7000000000000001" /><circle cx="448.11" cy="334.66" r="3" fill="#ff7f0e" fill-opacity="0.7000000000000001" /><circle cx="445.6" cy="347.57" r="3" fill="#ff7f0e" fill-opacity="0.7000000000000001" /><circle cx="442.85" cy="320.03000000000003" r="3" fill="#ff7f0e" fill-opacity="0.7000000000000001" /><circle cx="454.35" cy="335.90000000000003" r="3" fill="#ff7f0e" fill-opacity="0.7000000000000001" /><circle cx="452.69" cy="337.15000000000003" r="3" fill="#ff7f0e" fill-opacity="0.7000000000000001" /><circle cx="444.58" cy="308.74" r="3" fill="#ff7f0e" fill-opacity="0.7000000000000001" /><circle cx="452.40000000000003" cy="318.06" r="3" fill="#ff7f0e" fill-opacity="0.7000000000000001" /><circle cx="444.34000000000003" cy="349.3" r="3" fill="#ff7f0e" fill-opacity="0.7000000000000001" /><circle cx="454.53000000000003" cy="323.35" r="3" fill="#ff7f0e" fill-opacity="0.7000000000000001" /><circle cx="453.75" cy="323.57" r="3" fill="#ff7f0e" fill-opacity="0.7000000000000001" /><circle cx="455.90000000000003" cy="350.96" r="3" fill="#ff7f0e" fill-opacity="0.7000000000000001" /><circle cx="454.69" cy="303.34000000000003" r="3" fill="#ff7f0e" fill-opacity="0.7000000000000001" /><circle cx="449.61" cy="339.40000000000003" r="3" fill="#ff7f0e" fill-opacity="0.7000000000000001" /><circle cx="449.28000000000003" cy="347.6" r="3" fill="#ff7f0e" fill-opacity="0.7000000000000001" /><circle cx="444.91" cy="318.08" r="3" fill="#ff7f0e" fill-opacity="0.7000000000000001" /><circle cx="446.86" cy="279.36" r="3" fill="#ff7f0e" fill-opacity="0.7000000000000001" /><circle cx="448.81" cy="365.73" r="3" fill="#ff7f0e" fill-opacity="0.7000000000000001" /><circle cx="451.74" cy="291.15000000000003" r="3" fill="#ff7f0e" fill-opacity="0.7000000000000001" /><circle cx="445.45" cy="358.46" r="3" fill="#ff7f0e" fill-opacity="0.7000000000000001" /><circle cx="443.79" cy="347.69" r="3" fill="#ff7f0e" fill-opacity="0.7000000000000001" /><circle cx="454.59000000000003" cy="281.38" r="3" fill="#ff7f0e" fill-opacity="0.7000000000000001" /><circle cx="449.6" cy="345.99" r="3" fill="#ff7f0e" fill-opacity="0.7000000000000001" /><circle cx="455.74" cy="322.55" r="3" fill="#ff7f0e" fill-opacity="0.7000000000000001" /><circle cx="446.91" cy="307.15000000000003" r="3" fill="#ff7f0e" fill-opacity="0.7000000000000001" /><circle cx="456.23" cy="322.51" r="3" fill="#ff7f0e" fill-opacity="0.7000000000000001" /><circle cx="444.91" cy="346.32" r="3" fill="#ff7f0e" fill-opacity="0.7000000000000001" /><circle cx="444.51" cy="350.52" r="3" fill="#ff7f0e" fill-opacity="0.7000000000000001" /><circle cx="441.97" cy="359.86" r="3" fill="#ff7f0e" fill-opacity="0.7000000000000001" /><circle cx="454.68" cy="377.2" r="3" fill="#ff7f0e" fill-opacity="0.7000000000000001" /><circle cx="454.75" cy="345.81" r="3" fill="#ff7f0e" fill-opacity="0.7000000000000001" /><circle cx="446.56" cy="342.09000000000003" r="3" fill="#ff7f0e" fill-opacity="0.7000000000000001" /><circle cx="455.07" cy="345.39" r="3" fill="#ff7f0e" fill-opacity="0.7000000000000001" /><circle cx="442.23" cy="327.02" r="3" fill="#ff7f0e" fill-opacity="0.7000000000000001" /><circle cx="443.28000000000003" cy="296.62" r="3" fill="#ff7f0e" fill-opacity="0.7000000000000001" /><circle cx="442.29" cy="293.23" r="3" fill="#ff7f0e" fill-opacity="0.7000000000000001" /><circle cx="446.26" cy="299.34000000000003" r="3" fill="#ff7f0e" fill-opacity="0.7000000000000001" /><circle cx="454.84000000000003" cy="324.31" r="3" fill="#ff7f0e" fill-opacity="0.7000000000000001" /><circle cx="446" cy="351.81" r="3" fill="#ff7f0e" fill-opacity="0.7000000000000001" /><circle cx="447.82" cy="334.55" r="3" fill="#ff7f0e" fill-opacity="0.7000000000000001" /><circle cx="451.52" cy="335.03000000000003" r="3" fill="#ff7f0e" fill-opacity="0.7000000000000001" /><circle cx="452.54" cy="301.22" r="3" fill="#ff7f0e" fill-opacity="0.7000000000000001" /><circle cx="451.2" cy="360.04" r="3" fill="#ff7f0e" fill-opacity="0.7000000000000001" /><circle cx="452.54" cy="289.19" r="3" fill="#ff7f0e" fill-opacity="0.7000000000000001" /><circle cx="443.44" cy="267.93" r="3" fill="#ff7f0e" fill-opacity="0.7000000000000001" /><circle cx="445.59000000000003" cy="305.48" r="3" fill="#ff7f0e" fill-opacity="0.7000000000000001" /><circle cx="443.67" cy="160.91" r="3" fill="#ff7f0e" fill-opacity="0.7000000000000001" /><circle cx="453.87" cy="209.31" r="3" fill="#ff7f0e" fill-opacity="0.7000000000000001" /><circle cx="453.83" cy="190.91" r="3" fill="#ff7f0e" fill-opacity="0.7000000000000001" /><circle cx="442.2" cy="202.67000000000002" r="3" fill="#ff7f0e" fill-opacity="0.7000000000000001" /><circle cx="445.22" cy="155.19" r="3" fill="#ff7f0e" fill-opacity="0.7000000000000001" /><circle cx="455.25" cy="194.56" r="3" fill="#ff7f0e" fill-opacity="0.7000000000000001" /><circle cx="448.3" cy="206.27" r="3" fill="#ff7f0e" fill-opacity="0.7000000000000001" /><circle cx="442.25" cy="111.51" r="3" fill="#ff7f0e" fill-opacity="0.7000000000000001" /><circle cx="446.84000000000003" cy="186.32" r="3" fill="#ff7f0e" fill-opacity="0.7000000000000001" /><circle cx="450.66" cy="207.85" r="3" fill="#ff7f0e" fill-opacity="0.7000000000000001" /><circle cx="448.27" cy="197.19" r="3" fill="#ff7f0e" fill-opacity="0.7000000000000001" /><circle cx="451.08" cy="211.34" r="3" fill="#ff7f0e" fill-opacity="0.7000000000000001" /><circle cx="446.05" cy="263.65" r="3" fill="#ff7f0e" fill-opacity="0.7000000000000001" /><circle cx="448.17" cy="157.19" r="3" fill="#ff7f0e" fill-opacity="0.7000000000000001" /><circle cx="449.01" cy="232.4" r="3" fill="#ff7f0e" fill-opacity="0.7000000000000001" /><circle cx="451.81" cy="199.66" r="3" fill="#ff7f0e" fill-opacity="0.7000000000000001" /><circle cx="447.44" cy="212.57" r="3" fill="#ff7f0e" fill-opacity="0.7000000000000001" /><circle cx="450.26" cy="185.03" r="3" fill="#ff7f0e" fill-opacity="0.7000000000000001" /><circle cx="443.8" cy="200.9" r="3" fill="#ff7f0e" fill-opacity="0.7000000000000001" /><circle cx="452.7" cy="202.15" r="3" fill="#ff7f0e" fill-opacity="0.7000000000000001" /><circle cx="444.68" cy="173.74" r="3" fill="#ff7f0e" fill-opacity="0.7000000000000001" /><circle cx="455.2" cy="183.06" r="3" fill="#ff7f0e" fill-opacity="0.7000000000000001" /><circle cx="450.56" cy="214.3" r="3" fill="#ff7f0e" fill-opacity="0.7000000000000001" /><circle cx="452.15000000000003" cy="188.35" r="3" fill="#ff7f0e" fill-opacity="0.7000000000000001" /><circle cx="451.45" cy="188.57" r="3" fill="#ff7f0e" fill-opacity="0.7000000000000001" /><circle cx="454.23" cy="215.96" r="3" fill="#ff7f0e" fill-opacity="0.7000000000000001" /><circle cx="444.63" cy="168.34" r="3" fill="#ff7f0e" fill-opacity="0.7000000000000001" /><circle cx="444.22" cy="204.4" r="3" fill="#ff7f0e" fill-opacity="0.7000000000000001" /><circle cx="450.69" cy="212.6" r="3" fill="#ff7f0e" fill-opacity="0.7000000000000001" /><circle cx="449.13" cy="183.08" r="3" fill="#ff7f0e" fill-opacity="0.7000000000000001" /><circle cx="454.35" cy="144.36" r="3" fill="#ff7f0e" fill-opacity="0.7000000000000001" /><circle cx="454.61" cy="230.73000000000002" r="3" fill="#ff7f0e" fill-opacity="0.7000000000000001" /><circle cx="443.56" cy="156.15" r="3" fill="#ff7f0e" fill-opacity="0.7000000000000001" /><circle cx="444.11" cy="223.46" r="3" fill="#ff7f0e" fill-opacity="0.7000000000000001" /><circle cx="444.07" cy="212.69" r="3" fill="#ff7f0e" fill-opacity="0.7000000000000001" /><circle cx="452.19" cy="146.38" r="3" fill="#ff7f0e" fill-opacity="0.7000000000000001" /><circle cx="453.24" cy="210.99" r="3" fill="#ff7f0e" fill-opacity="0.7000000000000001" /><circle cx="444.33" cy="187.55" r="3" fill="#ff7f0e" fill-opacity="0.7000000000000001" /><circle cx="447.15000000000003" cy="172.15" r="3" fill="#ff7f0e" fill-opacity="0.7000000000000001" /><circle cx="449.86" cy="187.51" r="3" fill="#ff7f0e" fill-opacity="0.7000000000000001" /><circle cx="456.27" cy="211.32" r="3" fill="#ff7f0e" fill-opacity="0.7000000000000001" /><circle cx="453.78000000000003" cy="215.52" r="3" fill="#ff7f0e" fill-opacity="0.7000000000000001" /><circle cx="446.26" cy="224.86" r="3" fill="#ff7f0e" fill-opacity="0.7000000000000001" /><circle cx="442.54" cy="242.20000000000002" r="3" fill="#ff7f0e" fill-opacity="0.7000000000000001" /><circle cx="453.17" cy="210.81" r="3" fill="#ff7f0e" fill-opacity="0.7000000000000001" /><circle cx="452.34000000000003" cy="207.09" r="3" fill="#ff7f0e" fill-opacity="0.7000000000000001" /><circle cx="450.82" cy="210.39000000000001" r="3" fill="#ff7f0e" fill-opacity="0.7000000000000001" /><circle cx="444.43" cy="192.02" r="3" fill="#ff7f0e" fill-opacity="0.7000000000000001" /><circle cx="446.88" cy="161.62" r="3" fill="#ff7f0e" fill-opacity="0.7000000000000001" /><circle cx="450.25" cy="158.23" r="3" fill="#ff7f0e" fill-opacity="0.7000000000000001" /><circle cx="454.37" cy="164.34" r="3" fill="#ff7f0e" fill-opacity="0.7000000000000001" /><circle cx="452.04" cy="189.31" r="3" fill="#ff7f0e" fill-opacity="0.7000000000000001" /><circle cx="441.53000000000003" cy="216.81" r="3" fill="#ff7f0e" fill-opacity="0.7000000000000001" /><circle cx="443.55" cy="199.55" r="3" fill="#ff7f0e" fill-opacity="0.7000000000000001" /><circle cx="444.77" cy="200.03" r="3" fill="#ff7f0e" fill-opacity="0.7000000000000001" /><circle cx="451.2" cy="166.22" r="3" fill="#ff7f0e" fill-opacity="0.7000000000000001" /><circle cx="448.31" cy="225.04" r="3" fill="#ff7f0e" fill-opacity="0.7000000000000001" /><circle cx="442.55" cy="154.19" r="3" fill="#ff7f0e" fill-opacity="0.7000000000000001" /><circle cx="442.8" cy="132.93" r="3" fill="#ff7f0e" fill-opacity="0.7000000000000001" /><circle cx="452.22" cy="170.48" r="3" fill="#ff7f0e" fill-opacity="0.7000000000000001" /></g></svg>