<svg xmlns="http://www.w3.org/2000/svg" width="673" height="545" font-family="DejaVu Sans, Liberation Sans, Arial, sans-serif" fill="black"><rect width="100%" height="100%" fill="white" /><defs><clipPath id="kuva-clip-7"><rect x="59" y="44" width="600" height="450"/></clipPath></defs><line x1="59" y1="404" x2="659" y2="404" stroke="#cccccc" stroke-width="1" /><line x1="59" y1="314" x2="659" y2="314" stroke="#cccccc" stroke-width="1" /><line x1="59" y1="224" x2="659" y2="224" stroke="#cccccc" stroke-width="1" /><line x1="59" y1="134" x2="659" y2="134" stroke="#cccccc" stroke-width="1" /><line x1="59" y1="44" x2="659" y2="44" stroke="#cccccc" stroke-width="1" /><line x1="59" y1="494" x2="659" y2="494" stroke="#000000" stroke-width="1" /><line x1="59" y1="44" x2="59" y2="494" stroke="#000000" stroke-width="1" /><text x="209" y="511" font-size="12" text-anchor="middle">A</text><line x1="209" y1="494" x2="209" y2="499" stroke="#000000" stroke-width="1" /><text x="509" y="511" font-size="12" text-anchor="middle">B</text><line x1="509" y1="494" x2="509" y2="499" stroke="#000000" stroke-width="1" /><line x1="54" y1="494" x2="59" y2="494" stroke="#000000" stroke-width="1" /><text x="51" y="498.2" font-size="12" text-anchor="end">0</text><line x1="54" y1="404" x2="59" y2="404" stroke="#000000" stroke-width="1" /><text x="51" y="408.2" font-size="12" text-anchor="end">2</text><line x1="54" y1="314" x2="59" y2="314" stroke="#000000" stroke-width="1" /><text x="51" y="318.2" font-size="12" text-anchor="end">4</text><line x1="54" y1="224" x2="59" y2="224" stroke="#000000" stroke-width="1" /><text x="51" y="228.20000000000002" font-size="12" text-anchor="end">6</text><line x1="54" y1="134" x2="59" y2="134" stroke="#000000" stroke-width="1" /><text x="51" y="138.20000000000002" font-size="12" text-anchor="end">8</text><line x1="54" y1="44" x2="59" y2="44" stroke="#000000" stroke-width="1" /><text x="51" y="48.2" font-size="12" text-anchor="end">10</text><text x="15" y="272.5" font-size="14" text-anchor="middle" transform="rotate(-90,15,272.5)">Value</text><text x="336.5" y="27.400000000000002" font-size="18" text-anchor="middle">Cloud + Rain</text><g clip-path="url(#kuva-clip-7)"><path d="M 256.61 390.15000000000003 L 256.82 388.11 L 257.04 386.08 L 257.27 384.04 L 257.51 382.01 L 257.77 379.97 L 258.04 377.94 L 258.34000000000003 375.90000000000003 L 258.67 373.87 L 259.03000000000003 371.83 L 259.42 369.8 L 259.86 367.77 L 260.34000000000003 365.73 L 260.86 363.7 L 261.43 361.66 L 262.05 359.63 L 262.72 357.59000000000003 L 263.43 355.56 L 264.19 353.52 L 264.99 351.49 L 265.83 349.45 L 266.7 347.42 L 267.6 345.38 L 268.53000000000003 343.35 L 269.46 341.31 L 270.4 339.28000000000003 L 271.35 337.24 L 272.28000000000003 335.21 L 273.2 333.17 L 274.09000000000003 331.14 L 274.95 329.1 L 275.77 327.07 L 276.55 325.03000000000003 L 277.29 323.0 L 277.97 320.96 L 278.6 318.93 L 279.18 316.89 L 279.72 314.86 L 280.2 312.82 L 280.64 310.79 L 281.03000000000003 308.75 L 281.39 306.72 L 281.71 304.68 L 282.0 302.65000000000003 L 282.26 300.61 L 282.49 298.58 L 282.7 296.54 L 282.88 294.51 L 283.05 292.47 L 283.19 290.44 L 283.32 288.40000000000003 L 283.43 286.37 L 283.53000000000003 284.33 L 283.61 282.3 L 283.68 280.26 L 283.75 278.23 L 283.81 276.19 L 283.86 274.16 L 283.91 272.12 L 283.95 270.09000000000003 L 283.98 268.05 L 284.0 266.02 L 284.0 263.98 L 283.97 261.95 L 283.92 259.91 L 283.82 257.88 L 283.67 255.84 L 283.46 253.81 L 283.19 251.77 L 282.85 249.74 L 282.44 247.70000000000002 L 281.95 245.67000000000002 L 281.40000000000003 243.63 L 280.77 241.6 L 280.09000000000003 239.56 L 279.35 237.53 L 278.56 235.49 L 277.75 233.46 L 276.92 231.42000000000002 L 276.08 229.39000000000001 L 275.24 227.35 L 274.43 225.32 L 273.64 223.28 L 272.88 221.25 L 272.16 219.21 L 271.48 217.18 L 270.84000000000003 215.14000000000001 L 270.25 213.11 L 269.69 211.07 L 269.17 209.04 L 268.67 207.0 L 268.2 204.97 L 267.74 202.93 L 267.3 200.9 L 266.86 198.86 L 266.43 196.83 L 266.0 194.79 L 265.57 192.76 L 265.14 190.72 L 264.7 188.69 L 264.26 186.66 L 263.83 184.62 L 263.39 182.59 L 262.95 180.55 L 262.52 178.52 L 262.08 176.48 L 261.65 174.45000000000002 L 261.23 172.41 L 260.8 170.38 L 260.38 168.34 L 259.96 166.31 L 259.55 164.27 L 259.14 162.24 L 258.75 160.20000000000002 L 258.35 158.17000000000002 L 257.97 156.13 L 257.6 154.1 L 257.25 152.06 L 256.91 150.03 L 256.59000000000003 147.99 L 256.29 145.96 L 256.01 143.92000000000002 L 255.75 141.89000000000001 L 255.52 139.85 L 255.31 137.82 L 255.13 135.78 L 254.98000000000002 133.75 L 254.85 131.71 L 254.74 129.68 L 254.66 127.64 L 254.59 125.61 L 254.55 123.57000000000001 L 254.52 121.54 L 254.51000000000002 119.5 L 254.52 117.47 L 254.53 115.43 L 254.56 113.4 L 254.59 111.36 L 254.63 109.33 L 254.66 107.29 L 254.70000000000002 105.26 L 254.73000000000002 103.22 L 254.76000000000002 101.19 L 254.78 99.15 L 254.79 97.12 L 254.8 95.08 L 254.0 95.08 L 254.0 97.12 L 254.0 99.15 L 254.0 101.19 L 254.0 103.22 L 254.0 105.26 L 254.0 107.29 L 254.0 109.33 L 254.0 111.36 L 254.0 113.4 L 254.0 115.43 L 254.0 117.47 L 254.0 119.5 L 254.0 121.54 L 254.0 123.57000000000001 L 254.0 125.61 L 254.0 127.64 L 254.0 129.68 L 254.0 131.71 L 254.0 133.75 L 254.0 135.78 L 254.0 137.82 L 254.0 139.85 L 254.0 141.89000000000001 L 254.0 143.92000000000002 L 254.0 145.96 L 254.0 147.99 L 254.0 150.03 L 254.0 152.06 L 254.0 154.1 L 254.0 156.13 L 254.0 158.17000000000002 L 254.0 160.20000000000002 L 254.0 162.24 L 254.0 164.27 L 254.0 166.31 L 254.0 168.34 L 254.0 170.38 L 254.0 172.41 L 254.0 174.45000000000002 L 254.0 176.48 L 254.0 178.52 L 254.0 180.55 L 254.0 182.59 L 254.0 184.62 L 254.0 186.66 L 254.0 188.69 L 254.0 190.72 L 254.0 192.76 L 254.0 194.79 L 254.0 196.83 L 254.0 198.86 L 254.0 200.9 L 254.0 202.93 L 254.0 204.97 L 254.0 207.0 L 254.0 209.04 L 254.0 211.07 L 254.0 213.11 L 254.0 215.14000000000001 L 254.0 217.18 L 254.0 219.21 L 254.0 221.25 L 254.0 223.28 L 254.0 225.32 L 254.0 227.35 L 254.0 229.39000000000001 L 254.0 231.42000000000002 L 254.0 233.46 L 254.0 235.49 L 254.0 237.53 L 254.0 239.56 L 254.0 241.6 L 254.0 243.63 L 254.0 245.67000000000002 L 254.0 247.70000000000002 L 254.0 249.74 L 254.0 251.77 L 254.0 253.81 L 254.0 255.84 L 254.0 257.88 L 254.0 259.91 L 254.0 261.95 L 254.0 263.98 L 254.0 266.02 L 254.0 268.05 L 254.0 270.09000000000003 L 254.0 272.12 L 254.0 274.16 L 254.0 276.19 L 254.0 278.23 L 254.0 280.26 L 254.0 282.3 L 254.0 284.33 L 254.0 286.37 L 254.0 288.40000000000003 L 254.0 290.44 L 254.0 292.47 L 254.0 294.51 L 254.0 296.54 L 254.0 298.58 L 254.0 300.61 L 254.0 302.65000000000003 L 254.0 304.68 L 254.0 306.72 L 254.0 308.75 L 254.0 310.79 L 254.0 312.82 L 254.0 314.86 L 254.0 316.89 L 254.0 318.93 L 254.0 320.96 L 254.0 323.0 L 254.0 325.03000000000003 L 254.0 327.07 L 254.0 329.1 L 254.0 331.14 L 254.0 333.17 L 254.0 335.21 L 254.0 337.24 L 254.0 339.28000000000003 L 254.0 341.31 L 254.0 343.35 L 254.0 345.38 L 254.0 347.42 L 254.0 349.45 L 254.0 351.49 L 254.0 353.52 L 254.0 355.56 L 254.0 357.59000000000003 L 254.0 359.63 L 254.0 361.66 L 254.0 363.7 L 254.0 365.73 L 254.0 367.77 L 254.0 369.8 L 254.0 371.83 L 254.0 373.87 L 254.0 375.90000000000003 L 254.0 377.94 L 254.0 379.97 L 254.0 382.01 L 254.0 384.04 L 254.0 386.08 L 254.0 388.11 L 254.0 390.15000000000003 Z" stroke="#1f77b4" stroke-width="0.5" fill="#1f77b4" fill-opacity="0.7000000000000001" /><circle cx="154.4" cy="293.75" r="3" fill="#1f77b4" fill-opacity="0.7000000000000001" /><circle cx="153.04" cy="243.99" r="3" fill="#1f77b4" fill-opacity="0.7000000000000001" /><circle cx="155.57" cy="276.68" r="3" fill="#1f77b4" fill-opacity="0.7000000000000001" /><circle cx="142.93" cy="313.7" r="3" fill="#1f77b4" fill-opacity="0.7000000000000001" /><circle cx="147.27" cy="240.5" r="3" fill="#1f77b4" fill-opacity="0.7000000000000001" /><circle cx="143.08" cy="170.14000000000001" r="3" fill="#1f77b4" fill-opacity="0.7000000000000001" /><circle cx="141.74" cy="229.4" r="3" fill="#1f77b4" fill-opacity="0.7000000000000001" /><circle cx="145.89000000000001" cy="209.91" r="3" fill="#1f77b4" fill-opacity="0.7000000000000001" /><circle cx="148.54" cy="94.68" r="3" fill="#1f77b4" fill-opacity="0.7000000000000001" /><circle cx="154.16" cy="311.12" r="3" fill="#1f77b4" fill-opacity="0.7000000000000001" /><circle cx="142.71" cy="294.05" r="3" fill="#1f77b4" fill-opacity="0.7000000000000001" /><circle cx="154.72" cy="335.2" r="3" fill="#1f77b4" fill-opacity="0.7000000000000001" /><circle cx="141.89000000000001" cy="250.6" r="3" fill="#1f77b4" fill-opacity="0.7000000000000001" /><circle cx="146.63" cy="253.20000000000002" r="3" fill="#1f77b4" fill-opacity="0.7000000000000001" /><circle cx="148.76" cy="280.97" r="3" fill="#1f77b4" fill-opacity="0.7000000000000001" /><circle cx="149.82" cy="235.95000000000002" r="3" fill="#1f77b4" fill-opacity="0.7000000000000001" /><circle cx="148.33" cy="298.54" r="3" fill="#1f77b4" fill-opacity="0.7000000000000001" /><circle cx="154.73" cy="249.5" r="3" fill="#1f77b4" fill-opacity="0.7000000000000001" /><circle cx="150.44" cy="316.6" r="3" fill="#1f77b4" fill-opacity="0.7000000000000001" /><circle cx="154.75" cy="328.6" r="3" fill="#1f77b4" fill-opacity="0.7000000000000001" /><circle cx="145.56" cy="317.48" r="3" fill="#1f77b4" fill-opacity="0.7000000000000001" /><circle cx="144.6" cy="328.48" r="3" fill="#1f77b4" fill-opacity="0.7000000000000001" /><circle cx="154.51" cy="244.69" r="3" fill="#1f77b4" fill-opacity="0.7000000000000001" /><circle cx="141.73" cy="270.84000000000003" r="3" fill="#1f77b4" fill-opacity="0.7000000000000001" /><circle cx="149.18" cy="190.86" r="3" fill="#1f77b4" fill-opacity="0.7000000000000001" /><circle cx="150.52" cy="171.6" r="3" fill="#1f77b4" fill-opacity="0.7000000000000001" /><circle cx="150.14000000000001" cy="257.04" r="3" fill="#1f77b4" fill-opacity="0.7000000000000001" /><circle cx="146.98" cy="276.54" r="3" fill="#1f77b4" fill-opacity="0.7000000000000001" /><circle cx="148.95000000000002" cy="337.98" r="3" fill="#1f77b4" fill-opacity="0.7000000000000001" /><circle cx="148.63" cy="206.49" r="3" fill="#1f77b4" fill-opacity="0.7000000000000001" /><circle cx="142.77" cy="249.77" r="3" fill="#1f77b4" fill-opacity="0.7000000000000001" /><circle cx="147.21" cy="255.54" r="3" fill="#1f77b4" fill-opacity="0.7000000000000001" /><circle cx="141.96" cy="243.73000000000002" r="3" fill="#1f77b4" fill-opacity="0.7000000000000001" /><circle cx="145.8" cy="279.02" r="3" fill="#1f77b4" fill-opacity="0.7000000000000001" /><circle cx="152.26" cy="236.65" r="3" fill="#1f77b4" fill-opacity="0.7000000000000001" /><circle cx="148.52" cy="320.36" r="3" fill="#1f77b4" fill-opacity="0.7000000000000001" /><circle cx="150.89000000000001" cy="390.55" r="3" fill="#1f77b4" fill-opacity="0.7000000000000001" /><circle cx="155.06" cy="278.96" r="3" fill="#1f77b4" fill-opacity="0.7000000000000001" /><circle cx="145.72" cy="153.87" r="3" fill="#1f77b4" fill-opacity="0.7000000000000001" /><circle cx="142.79" cy="255.71" r="3" fill="#1f77b4" fill-opacity="0.7000000000000001" /><circle cx="145.86" cy="280.86" r="3" fill="#1f77b4" fill-opacity="0.7000000000000001" /><circle cx="150.91" cy="350.75" r="3" fill="#1f77b4" fill-opacity="0.7000000000000001" /><circle cx="146.24" cy="372.61" r="3" fill="#1f77b4" fill-opacity="0.7000000000000001" /><circle cx="153.88" cy="277.52" r="3" fill="#1f77b4" fill-opacity="0.7000000000000001" /><circle cx="145.95000000000002" cy="225.68" r="3" fill="#1f77b4" fill-opacity="0.7000000000000001" /><circle cx="148.22" cy="200.57" r="3" fill="#1f77b4" fill-opacity="0.7000000000000001" /><circle cx="146.56" cy="290.42" r="3" fill="#1f77b4" fill-opacity="0.7000000000000001" /><circle cx="145.46" cy="305.54" r="3" fill="#1f77b4" fill-opacity="0.7000000000000001" /><circle cx="144.35" cy="224.44" r="3" fill="#1f77b4" fill-opacity="0.7000000000000001" /><circle cx="144.88" cy="335.55" r="3" fill="#1f77b4" fill-opacity="0.7000000000000001" /><circle cx="146.25" cy="359.31" r="3" fill="#1f77b4" fill-opacity="0.7000000000000001" /><circle cx="153.78" cy="313.38" r="3" fill="#1f77b4" fill-opacity="0.7000000000000001" /><circle cx="142.67000000000002" cy="354.95" r="3" fill="#1f77b4" fill-opacity="0.7000000000000001" /><circle cx="149.84" cy="252.67000000000002" r="3" fill="#1f77b4" fill-opacity="0.7000000000000001" /><circle cx="145.67000000000002" cy="314.54" r="3" fill="#1f77b4" fill-opacity="0.7000000000000001" /><circle cx="150.9" cy="260.41" r="3" fill="#1f77b4" fill-opacity="0.7000000000000001" /><circle cx="142.03" cy="278.67" r="3" fill="#1f77b4" fill-opacity="0.7000000000000001" /><circle cx="148.42000000000002" cy="192.3" r="3" fill="#1f77b4" fill-opacity="0.7000000000000001" /><circle cx="155.69" cy="208.07" r="3" fill="#1f77b4" fill-opacity="0.7000000000000001" /><circle cx="148.25" cy="325.35" r="3" fill="#1f77b4" fill-opacity="0.7000000000000001" /><circle cx="141.70000000000002" cy="265.54" r="3" fill="#1f77b4" fill-opacity="0.7000000000000001" /><circle cx="148.9" cy="350.44" r="3" fill="#1f77b4" fill-opacity="0.7000000000000001" /><circle cx="142.48" cy="261.23" r="3" fill="#1f77b4" fill-opacity="0.7000000000000001" /><circle cx="155.1" cy="234.95000000000002" r="3" fill="#1f77b4" fill-opacity="0.7000000000000001" /><circle cx="153.26" cy="289.26" r="3" fill="#1f77b4" fill-opacity="0.7000000000000001" /><circle cx="152.79" cy="301.43" r="3" fill="#1f77b4" fill-opacity="0.7000000000000001" /><circle cx="148.05" cy="186.68" r="3" fill="#1f77b4" fill-opacity="0.7000000000000001" /><circle cx="145.22" cy="321.27" r="3" fill="#1f77b4" fill-opacity="0.7000000000000001" /><circle cx="144.16" cy="290.8" r="3" fill="#1f77b4" fill-opacity="0.7000000000000001" /><circle cx="154.8" cy="261.39" r="3" fill="#1f77b4" fill-opacity="0.7000000000000001" /><circle cx="154.35" cy="273.3" r="3" fill="#1f77b4" fill-opacity="0.7000000000000001" /><circle cx="149.24" cy="340.43" r="3" fill="#1f77b4" fill-opacity="0.7000000000000001" /><circle cx="154.22" cy="232.75" r="3" fill="#1f77b4" fill-opacity="0.7000000000000001" /><circle cx="146.38" cy="237.49" r="3" fill="#1f77b4" fill-opacity="0.7000000000000001" /><circle cx="145.59" cy="312.24" r="3" fill="#1f77b4" fill-opacity="0.7000000000000001" /><circle cx="148.75" cy="336.93" r="3" fill="#1f77b4" fill-opacity="0.7000000000000001" /><circle cx="150.11" cy="303.75" r="3" fill="#1f77b4" fill-opacity="0.7000000000000001" /><circle cx="150.37" cy="259.67" r="3" fill="#1f77b4" fill-opacity="0.7000000000000001" /><circle cx="155.14000000000001" cy="239.78" r="3" fill="#1f77b4" fill-opacity="0.7000000000000001" /><circle cx="144.48" cy="167.35" r="3" fill="#1f77b4" fill-opacity="0.7000000000000001" /><circle cx="144.83" cy="385.14" r="3" fill="#1f77b4" fill-opacity="0.7000000000000001" /><circle cx="150.58" cy="288.83" r="3" fill="#1f77b4" fill-opacity="0.7000000000000001" /><circle cx="146.36" cy="189.21" r="3" fill="#1f77b4" fill-opacity="0.7000000000000001" /><circle cx="154.15" cy="326.65000000000003" r="3" fill="#1f77b4" fill-opacity="0.7000000000000001" /><circle cx="154.41" cy="330.52" r="3" fill="#1f77b4" fill-opacity="0.7000000000000001" /><circle cx="142.07" cy="208.1" r="3" fill="#1f77b4" fill-opacity="0.7000000000000001" /><circle cx="144.96" cy="203.20000000000002" r="3" fill="#1f77b4" fill-opacity="0.7000000000000001" /><circle cx="143.69" cy="309.61" r="3" fill="#1f77b4" fill-opacity="0.7000000000000001" /><circle cx="155.16" cy="266.41" r="3" fill="#1f77b4" fill-opacity="0.7000000000000001" /><circle cx="153.05" cy="323.7" r="3" fill="#1f77b4" fill-opacity="0.7000000000000001" /><circle cx="147.73" cy="214.94" r="3" fill="#1f77b4" fill-opacity="0.7000000000000001" /><circle cx="147.45000000000002" cy="318.47" r="3" fill="#1f77b4" fill-opacity="0.7000000000000001" /><circle cx="142.02" cy="227.04" r="3" fill="#1f77b4" fill-opacity="0.7000000000000001" /><circle cx="151.48" cy="194.87" r="3" fill="#1f77b4" fill-opacity="0.7000000000000001" /><circle cx="143.29" cy="289.07" r="3" fill="#1f77b4" fill-opacity="0.7000000000000001" /><circle cx="152.8" cy="202.62" r="3" fill="#1f77b4" fill-opacity="0.7000000000000001" /><circle cx="144.98" cy="263.8" r="3" fill="#1f77b4" fill-opacity="0.7000000000000001" /><circle cx="155.77" cy="171.33" r="3" fill="#1f77b4" fill-opacity="0.7000000000000001" /><circle cx="150.85" cy="217.01" r="3" fill="#1f77b4" fill-opacity="0.7000000000000001" /><circle cx="146.56" cy="295.39" r="3" fill="#1f77b4" fill-opacity="0.7000000000000001" /><circle cx="148.78" cy="315.43" r="3" fill="#1f77b4" fill-opacity="0.7000000000000001" /><circle cx="151.54" cy="256.51" r="3" fill="#1f77b4" fill-opacity="0.7000000000000001" /><circle cx="154.23" cy="287.14" r="3" fill="#1f77b4" fill-opacity="0.7000000000000001" /><circle cx="143.66" cy="229.86" r="3" fill="#1f77b4" fill-opacity="0.7000000000000001" /><circle cx="143.95000000000002" cy="238.01" r="3" fill="#1f77b4" fill-opacity="0.7000000000000001" /><circle cx="143.82" cy="271.72" r="3" fill="#1f77b4" fill-opacity="0.7000000000000001" /><circle cx="148.93" cy="259.6" r="3" fill="#1f77b4" fill-opacity="0.7000000000000001" /><circle cx="149" cy="246.31" r="3" fill="#1f77b4" fill-opacity="0.7000000000000001" /><circle cx="141.85" cy="278.01" r="3" fill="#1f77b4" fill-opacity="0.7000000000000001" /><circle cx="149.82" cy="317.08" r="3" fill="#1f77b4" fill-opacity="0.7000000000000001" /><circle cx="146.37" cy="293.75" r="3" fill="#1f77b4" fill-opacity="0.7000000000000001" /><circle cx="145.19" cy="303.15000000000003" r="3" fill="#1f77b4" fill-opacity="0.7000000000000001" /><circle cx="151.6" cy="289.52" r="3" fill="#1f77b4" fill-opacity="0.7000000000000001" /><circle cx="151.26" cy="249.19" r="3" fill="#1f77b4" fill-opacity="0.7000000000000001" /><circle cx="152.97" cy="303.45" r="3" fill="#1f77b4" fill-opacity="0.7000000000000001" /><circle cx="145.25" cy="249.17000000000002" r="3" fill="#1f77b4" fill-opacity="0.7000000000000001" /><circle cx="148.45000000000002" cy="282.25" r="3" fill="#1f77b4" fill-opacity="0.7000000000000001" /><circle cx="144.25" cy="342.57" r="3" fill="#1f77b4" fill-opacity="0.7000000000000001" /><circle cx="153.13" cy="243.5" r="3" fill="#1f77b4" fill-opacity="0.7000000000000001" /><circle cx="143.78" cy="293.94" r="3" fill="#1f77b4" fill-opacity="0.7000000000000001" /><path d="M 558.7 397.45 L 559.3000000000001 395.24 L 559.96 393.03000000000003 L 560.6800000000001 390.82 L 561.47 388.62 L 562.3100000000001 386.41 L 563.22 384.2 L 564.19 382.0 L 565.22 379.79 L 566.3000000000001 377.58 L 567.42 375.37 L 568.59 373.17 L 569.78 370.96 L 571.0 368.75 L 572.22 366.55 L 573.45 364.34000000000003 L 574.65 362.13 L 575.84 359.92 L 576.98 357.72 L 578.0600000000001 355.51 L 579.09 353.3 L 580.03 351.09000000000003 L 580.89 348.89 L 581.65 346.68 L 582.3000000000001 344.47 L 582.85 342.27 L 583.28 340.06 L 583.59 337.85 L 583.79 335.64 L 583.87 333.44 L 583.83 331.23 L 583.69 329.02 L 583.45 326.81 L 583.11 324.61 L 582.69 322.40000000000003 L 582.1800000000001 320.19 L 581.61 317.99 L 580.97 315.78000000000003 L 580.28 313.57 L 579.5500000000001 311.36 L 578.78 309.16 L 577.98 306.95 L 577.16 304.74 L 576.32 302.54 L 575.48 300.33 L 574.63 298.12 L 573.79 295.91 L 572.96 293.71 L 572.14 291.5 L 571.34 289.29 L 570.57 287.08 L 569.83 284.88 L 569.13 282.67 L 568.47 280.46 L 567.86 278.26 L 567.3100000000001 276.05 L 566.8100000000001 273.84000000000003 L 566.39 271.63 L 566.04 269.43 L 565.76 267.22 L 565.57 265.01 L 565.47 262.8 L 565.46 260.6 L 565.5500000000001 258.39 L 565.73 256.18 L 566.01 253.98000000000002 L 566.39 251.77 L 566.87 249.56 L 567.45 247.35 L 568.11 245.15 L 568.85 242.94 L 569.6800000000001 240.73000000000002 L 570.57 238.53 L 571.51 236.32 L 572.51 234.11 L 573.53 231.9 L 574.58 229.70000000000002 L 575.63 227.49 L 576.67 225.28 L 577.69 223.07 L 578.67 220.87 L 579.6 218.66 L 580.47 216.45000000000002 L 581.26 214.25 L 581.96 212.04 L 582.57 209.83 L 583.07 207.62 L 583.47 205.42000000000002 L 583.76 203.21 L 583.94 201.0 L 584.0 198.79 L 583.95 196.59 L 583.8000000000001 194.38 L 583.5500000000001 192.17000000000002 L 583.2 189.97 L 582.76 187.76 L 582.25 185.55 L 581.66 183.34 L 581.0 181.14000000000001 L 580.29 178.93 L 579.53 176.72 L 578.73 174.52 L 577.89 172.31 L 577.02 170.1 L 576.13 167.89000000000001 L 575.23 165.69 L 574.3100000000001 163.48 L 573.39 161.27 L 572.46 159.06 L 571.53 156.86 L 570.6 154.65 L 569.69 152.44 L 568.78 150.24 L 567.89 148.03 L 567.02 145.82 L 566.16 143.61 L 565.33 141.41 L 564.53 139.20000000000002 L 563.75 136.99 L 563.0 134.79 L 562.29 132.58 L 561.61 130.37 L 560.97 128.16 L 560.36 125.96000000000001 L 559.79 123.75 L 559.25 121.54 L 558.76 119.33 L 558.29 117.13 L 557.87 114.92 L 557.48 112.71000000000001 L 554.0 112.71000000000001 L 554.0 114.92 L 554.0 117.13 L 554.0 119.33 L 554.0 121.54 L 554.0 123.75 L 554.0 125.96000000000001 L 554.0 128.16 L 554.0 130.37 L 554.0 132.58 L 554.0 134.79 L 554.0 136.99 L 554.0 139.20000000000002 L 554.0 141.41 L 554.0 143.61 L 554.0 145.82 L 554.0 148.03 L 554.0 150.24 L 554.0 152.44 L 554.0 154.65 L 554.0 156.86 L 554.0 159.06 L 554.0 161.27 L 554.0 163.48 L 554.0 165.69 L 554.0 167.89000000000001 L 554.0 170.1 L 554.0 172.31 L 554.0 174.52 L 554.0 176.72 L 554.0 178.93 L 554.0 181.14000000000001 L 554.0 183.34 L 554.0 185.55 L 554.0 187.76 L 554.0 189.97 L 554.0 192.17000000000002 L 554.0 194.38 L 554.0 196.59 L 554.0 198.79 L 554.0 201.0 L 554.0 203.21 L 554.0 205.42000000000002 L 554.0 207.62 L 554.0 209.83 L 554.0 212.04 L 554.0 214.25 L 554.0 216.45000000000002 L 554.0 218.66 L 554.0 220.87 L 554.0 223.07 L 554.0 225.28 L 554.0 227.49 L 554.0 229.70000000000002 L 554.0 231.9 L 554.0 234.11 L 554.0 236.32 L 554.0 238.53 L 554.0 240.73000000000002 L 554.0 242.94 L 554.0 245.15 L 554.0 247.35 L 554.0 249.56 L 554.0 251.77 L 554.0 253.98000000000002 L 554.0 256.18 L 554.0 258.39 L 554.0 260.6 L 554.0 262.8 L 554.0 265.01 L 554.0 267.22 L 554.0 269.43 L 554.0 271.63 L 554.0 273.84000000000003 L 554.0 276.05 L 554.0 278.26 L 554.0 280.46 L 554.0 282.67 L 554.0 284.88 L 554.0 287.08 L 554.0 289.29 L 554.0 291.5 L 554.0 293.71 L 554.0 295.91 L 554.0 298.12 L 554.0 300.33 L 554.0 302.54 L 554.0 304.74 L 554.0 306.95 L 554.0 309.16 L 554.0 311.36 L 554.0 313.57 L 554.0 315.78000000000003 L 554.0 317.99 L 554.0 320.19 L 554.0 322.40000000000003 L 554.0 324.61 L 554.0 326.81 L 554.0 329.02 L 554.0 331.23 L 554.0 333.44 L 554.0 335.64 L 554.0 337.85 L 554.0 340.06 L 554.0 342.27 L 554.0 344.47 L 554.0 346.68 L 554.0 348.89 L 554.0 351.09000000000003 L 554.0 353.3 L 554.0 355.51 L 554.0 357.72 L 554.0 359.92 L 554.0 362.13 L 554.0 364.34000000000003 L 554.0 366.55 L 554.0 368.75 L 554.0 370.96 L 554.0 373.17 L 554.0 375.37 L 554.0 377.58 L 554.0 379.79 L 554.0 382.0 L 554.0 384.2 L 554.0 386.41 L 554.0 388.62 L 554.0 390.82 L 554.0 393.03000000000003 L 554.0 395.24 L 554.0 397.45 Z" stroke="#ff7f0e" stroke-width="0.5" fill="#ff7f0e" fill-opacity="0.7000000000000001" /><circle cx="454.40000000000003" cy="295.91" r="3" fill="#ff7f0e" fill-opacity="0.7000000000000001" /><circle cx="445.6" cy="344.31" r="3" fill="#ff7f0e" fill-opacity="0.7000000000000001" /><circle cx="453.07" cy="325.91" r="3" fill="#ff7f0e" fill-opacity="0.7000000000000001" /><circle cx="442.99" cy="337.67" r="3" fill="#ff7f0e" fill-opacity="0.7000000000000001" /><circle cx="452.02" cy="290.19" r="3" fill="#ff7f0e" fill-opacity="0.7000000000000001" /><circle cx="452.54" cy="329.56" r="3" fill="#ff7f0e" fill-opacity="0.7000000000000001" /><circle cx="442.04" cy="341.27" r="3" fill="#ff7f0e" fill-opacity="0.7000000000000001" /><circle cx="453.93" cy="246.51000000000002" r="3" fill="#ff7f0e" fill-opacity="0.7000000000000001" /><circle cx="452.68" cy="321.32" r="3" fill="#ff7f0e" fill-opacity="0.7000000000000001" /><circle cx="444.72" cy="342.85" r="3" fill="#ff7f0e" fill-opacity="0.7000000000000001" /><circle cx="452.47" cy="332.19" r="3" fill="#ff7f0e" fill-opacity="0.7000000000000001" /><circle cx="453.55" cy="346.34000000000003" r="3" fill="#ff7f0e" fill-opacity="0.7000000000000001" /><circle cx="448.61" cy="398.65000000000003" r="3" fill="#ff7f0e" fill-opacity="0.7000000000000001" /><circle cx="449.22" cy="292.19" r="3" fill="#ff7f0e" fill-opacity="0.7000000000000001" /><circle cx="442.43" cy="367.40000000000003" r="3" fill="#ff7f0e" fill-opacity="0.7000000000000001" /><circle cx="448.11" cy="334.66" r="3" fill="#ff7f0e" fill-opacity="0.7000000000000001" /><circle cx="445.6" cy="347.57" r="3" fill="#ff7f0e" fill-opacity="0.7000000000000001" /><circle cx="442.85" cy="320.03000000000003" r="3" fill="#ff7f0e" fill-opacity="0.7000000000000001" /><circle cx="454.35" cy="335.90000000000003" r="3" fill="#ff7f0e" fill-opacity="0.7000000000000001" /><circle cx="452.69" cy="337.15000000000003" r="3" fill="#ff7f0e" fill-opacity="0.7000000000000001" /><circle cx="444.58" cy="308.74" r="3" fill="#ff7f0e" fill-opacity="0.7000000000000001" /><circle cx="452.40000000000003" cy="318.06" r="3" fill="#ff7f0e" fill-opacity="0.7000000000000001" /><circle cx="444.34000000000003" cy="349.3" r="3" fill="#ff7f0e" fill-opacity="0.7000000000000001" /><circle cx="454.53000000000003" cy="323.35" r="3" fill="#ff7f0e" fill-opacity="0.7000000000000001" /><circle cx="453.75" cy="323.57" r="3" fill="#ff7f0e" fill-opacity="0.7000000000000001" /><circle cx="455.90000000000003" cy="350.96" r="3" fill="#ff7f0e" fill-opacity="0.7000000000000001" /><circle cx="454.69" cy="303.34000000000003" r="3" fill="#ff7f0e" fill-opacity="0.7000000000000001" /><circle cx="449.61" cy="339.40000000000003" r="3" fill="#ff7f0e" fill-opacity="0.7000000000000001" /><circle cx="449.28000000000003" cy="347.6" r="3" fill="#ff7f0e" fill-opacity="0.7000000000000001" /><circle cx="444.91" cy="318.08" r="3" fill="#ff7f0e" fill-opacity="0.7000000000000001" /><circle cx="446.86" cy="279.36" r="3" fill="#ff7f0e" fill-opacity="0.7000000000000001" /><circle cx="448.81" cy="365.73" r="3" fill="#ff7f0e" fill-opacity="0.7000000000000001" /><circle cx="451.74" cy="291.15000000000003" r="3" fill="#ff7f0e" fill-opacity="0.7000000000000001" /><circle cx="445.45" cy="358.46" r="3" fill="#ff7f0e" fill-opacity="0.7000000000000001" /><circle cx="443.79" cy="347.69" r="3" fill="#ff7f0e" fill-opacity="0.7000000000000001" /><circle cx="454.59000000000003" cy="281.38" r="3" fill="#ff7f0e" fill-opacity="0.7000000000000001" /><circle cx="449.6" cy="345.99" r="3" fill="#ff7f0e" fill-opacity="0.7000000000000001" /><circle cx="455.74" cy="322.55" r="3" fill="#ff7f0e" fill-opacity="0.7000000000000001" /><circle cx="446.91" cy="307.15000000000003" r="3" fill="#ff7f0e" fill-opacity="0.7000000000000001" /><circle cx="456.23" cy="322.51" r="3" fill="#ff7f0e" fill-opacity="0.7000000000000001" /><circle cx="444.91" cy="346.32" r="3" fill="#ff7f0e" fill-opacity="0.7000000000000001" /><circle cx="444.51" cy="350.52" r="3" fill="#ff7f0e" fill-opacity="0.7000000000000001" /><circle cx="441.97" cy="359.86" r="3" fill="#ff7f0e" fill-opacity="0.7000000000000001" /><circle cx="454.68" cy="377.2" r="3" fill="#ff7f0e" fill-opacity="0.7000000000000001" /><circle cx="454.75" cy="345.81" r="3" fill="#ff7f0e" fill-opacity="0.7000000000000001" /><circle cx="446.56" cy="342.09000000000003" r="3" fill="#ff7f0e" fill-opacity="0.7000000000000001" /><circle cx="455.07" cy="345.39" r="3" fill="#ff7f0e" fill-opacity="0.7000000000000001" /><circle cx="442.23" cy="327.02" r="3" fill="#ff7f0e" fill-opacity="0.7000000000000001" /><circle cx="443.28000000000003" cy="296.62" r="3" fill="#ff7f0e" fill-opacity="0.7000000000000001" /><circle cx="442.29" cy="293.23" r="3" fill="#ff7f0e" fill-opacity="0.7000000000000001" /><circle cx="446.26" cy="299.34000000000003" r="3" fill="#ff7f0e" fill-opacity="0.7000000000000001" /><circle cx="454.84000000000003" cy="324.31" r="3" fill="#ff7f0e" fill-opacity="0.7000000000000001" /><circle cx="446" cy="351.81" r="3" fill="#ff7f0e" fill-opacity="0.7000000000000001" /><circle cx="447.82" cy="334.55" r="3" fill="#ff7f0e" fill-opacity="0.7000000000000001" /><circle cx="451.52" cy="335.03000000000003" r="3" fill="#ff7f0e" fill-opacity="0.7000000000000001" /><circle cx="452.54" cy="301.22" r="3" fill="#ff7f0e" fill-opacity="0.7000000000000001" /><circle cx="451.2" cy="360.04" r="3" fill="#ff7f0e" fill-opacity="0.7000000000000001" /><circle cx="452.54" cy="289.19" r="3" fill="#ff7f0e" fill-opacity="0.7000000000000001" /><circle cx="443.44" cy="267.93" r="3" fill="#ff7f0e" fill-opacity="0.7000000000000001" /><circle cx="445.59000000000003" cy="305.48" r="3" fill="#ff7f0e" fill-opacity="0.7000000000000001" /><circle cx="443.67" cy="160.91" r="3" fill="#ff7f0e" fill-opacity="0.7000000000000001" /><circle cx="453.87" cy="209.31" r="3" fill="#ff7f0e" fill-opacity="0.7000000000000001" /><circle cx="453.83" cy="190.91" r="3" fill="#ff7f0e" fill-opacity="0.7000000000000001" /><circle cx="442.2" cy="202.67000000000002" r="3" fill="#ff7f0e" fill-opacity="0.7000000000000001" /><circle cx="445.22" cy="155.19" r="3" fill="#ff7f0e" fill-opacity="0.7000000000000001" /><circle cx="455.25" cy="194.56" r="3" fill="#ff7f0e" fill-opacity="0.7000000000000001" /><circle cx="448.3" cy="206.27" r="3" fill="#ff7f0e" fill-opacity="0.7000000000000001" /><circle cx="442.25" cy="111.51" r="3" fill="#ff7f0e" fill-opacity="0.7000000000000001" /><circle cx="446.84000000000003" cy="186.32" r="3" fill="#ff7f0e" fill-opacity="0.7000000000000001" /><circle cx="450.66" cy="207.85" r="3" fill="#ff7f0e" fill-opacity="0.7000000000000001" /><circle cx="448.27" cy="197.19" r="3" fill="#ff7f0e" fill-opacity="0.7000000000000001" /><circle cx="451.08" cy="211.34" r="3" fill="#ff7f0e" fill-opacity="0.7000000000000001" /><circle cx="446.05" cy="263.65" r="3" fill="#ff7f0e" fill-opacity="0.7000000000000001" /><circle cx="448.17" cy="157.19" r="3" fill="#ff7f0e" fill-opacity="0.7000000000000001" /><circle cx="449.01" cy="232.4" r="3" fill="#ff7f0e" fill-opacity="0.7000000000000001" /><circle cx="451.81" cy="199.66" r="3" fill="#ff7f0e" fill-opacity="0.7000000000000001" /><circle cx="447.44" cy="212.57" r="3" fill="#ff7f0e" fill-opacity="0.7000000000000001" /><circle cx="450.26" cy="185.03" r="3" fill="#ff7f0e" fill-opacity="0.7000000000000001" /><circle cx="443.8" cy="200.9" r="3" fill="#ff7f0e" fill-opacity="0.7000000000000001" /><circle cx="452.7" cy="202.15" r="3" fill="#ff7f0e" fill-opacity="0.7000000000000001" /><circle cx="444.68" cy="173.74" r="3" fill="#ff7f0e" fill-opacity="0.7000000000000001" /><circle cx="455.2" cy="183.06" r="3" fill="#ff7f0e" fill-opacity="0.7000000000000001" /><circle cx="450.56" cy="214.3" r="3" fill="#ff7f0e" fill-opacity="0.7000000000000001" /><circle cx="452.15000000000003" cy="188.35" r="3" fill="#ff7f0e" fill-opacity="0.7000000000000001" /><circle cx="451.45" cy="188.57" r="3" fill="#ff7f0e" fill-opacity="0.7000000000000001" /><circle cx="454.23" cy="215.96" r="3" fill="#ff7f0e" fill-opacity="0.7000000000000001" /><circle cx="444.63" cy="168.34" r="3" fill="#ff7f0e" fill-opacity="0.7000000000000001" /><circle cx="444.22" cy="204.4" r="3" fill="#ff7f0e" fill-opacity="0.7000000000000001" /><circle cx="450.69" cy="212.6" r="3" fill="#ff7f0e" fill-opacity="0.7000000000000001" /><circle cx="449.13" cy="183.08" r="3" fill="#ff7f0e" fill-opacity="0.7000000000000001" /><circle cx="454.35" cy="144.36" r="3" fill="#ff7f0e" fill-opacity="0.7000000000000001" /><circle cx="454.61" cy="230.73000000000002" r="3" fill="#ff7f0e" fill-opacity="0.7000000000000001" /><circle cx="443.56" cy="156.15" r="3" fill="#ff7f0e" fill-opacity="0.7000000000000001" /><circle cx="444.11" cy="223.46" r="3" fill="#ff7f0e" fill-opacity="0.7000000000000001" /><circle cx="444.07" cy="212.69" r="3" fill="#ff7f0e" fill-opacity="0.7000000000000001" /><circle cx="452.19" cy="146.38" r="3" fill="#ff7f0e" fill-opacity="0.7000000000000001" /><circle cx="453.24" cy="210.99" r="3" fill="#ff7f0e" fill-opacity="0.7000000000000001" /><circle cx="444.33" cy="187.55" r="3" fill="#ff7f0e" fill-opacity="0.7000000000000001" /><circle cx="447.15000000000003" cy="172.15" r="3" fill="#ff7f0e" fill-opacity="0.7000000000000001" /><circle cx="449.86" cy="187.51" r="3" fill="#ff7f0e" fill-opacity="0.7000000000000001" /><circle cx="456.27" cy="211.32" r="3" fill="#ff7f0e" fill-opacity="0.7000000000000001" /><circle cx="453.78000000000003" cy="215.52" r="3" fill="#ff7f0e" fill-opacity="0.7000000000000001" /><circle cx="446.26" cy="224.86" r="3" fill="#ff7f0e" fill-opacity="0.7000000000000001" /><circle cx="442.54" cy="242.20000000000002" r="3" fill="#ff7f0e" fill-opacity="0.7000000000000001" /><circle cx="453.17" cy="210.81" r="3" fill="#ff7f0e" fill-opacity="0.7000000000000001" /><circle cx="452.34000000000003" cy="207.09" r="3" fill="#ff7f0e" fill-opacity="0.7000000000000001" /><circle cx="450.82" cy="210.39000000000001" r="3" fill="#ff7f0e" fill-opacity="0.7000000000000001" /><circle cx="444.43" cy="192.02" r="3" fill="#ff7f0e" fill-opacity="0.7000000000000001" /><circle cx="446.88" cy="161.62" r="3" fill="#ff7f0e" fill-opacity="0.7000000000000001" /><circle cx="450.25" cy="158.23" r="3" fill="#ff7f0e" fill-opacity="0.7000000000000001" /><circle cx="454.37" cy="164.34" r="3" fill="#ff7f0e" fill-opacity="0.7000000000000001" /><circle cx="452.04" cy="189.31" r="3" fill="#ff7f0e" fill-opacity="0.7000000000000001" /><circle cx="441.53000000000003" cy="216.81" r="3" fill="#ff7f0e" fill-opacity="0.7000000000000001" /><circle cx="443.55" cy="199.55" r="3" fill="#ff7f0e" fill-opacity="0.7000000000000001" /><circle cx="444.77" cy="200.03" r="3" fill="#ff7f0e" fill-opacity="0.7000000000000001" /><circle cx="451.2" cy="166.22" r="3" fill="#ff7f0e" fill-opacity="0.7000000000000001" /><circle cx="448.31" cy="225.04" r="3" fill="#ff7f0e" fill-opacity="0.7000000000000001" /><circle cx="442.55" cy="154.19" r="3" fill="#ff7f0e" fill-opacity="0.7000000000000001" /><circle cx="442.8" cy="132.93" r="3" fill="#ff7f0e" fill-opacity="0.7000000000000001" /><circle cx="452.22" cy="170.48" r="3" fill="#ff7f0e" fill-opacity="0.7000000000000001" /></g></svg>