<svg xmlns="http://www.w3.org/2000/svg" width="673" height="545" font-family="DejaVu Sans, Liberation Sans, Arial, sans-serif" fill="black"><rect width="100%" height="100%" fill="white" /><defs><clipPath id="kuva-clip-1"><rect x="59" y="44" width="600" height="450"/></clipPath></defs><line x1="59" y1="404" x2="659" y2="404" stroke="#cccccc" stroke-width="1" /><line x1="59" y1="314" x2="659" y2="314" stroke="#cccccc" stroke-width="1" /><line x1="59" y1="224" x2="659" y2="224" stroke="#cccccc" stroke-width="1" /><line x1="59" y1="134" x2="659" y2="134" stroke="#cccccc" stroke-width="1" /><line x1="59" y1="44" x2="659" y2="44" stroke="#cccccc" stroke-width="1" /><line x1="59" y1="494" x2="659" y2="494" stroke="#000000" stroke-width="1" /><line x1="59" y1="44" x2="59" y2="494" stroke="#000000" stroke-width="1" /><text x="159" y="511" font-size="12" text-anchor="middle">Normal</text><line x1="159" y1="494" x2="159" y2="499" stroke="#000000" stroke-width="1" /><text x="359" y="511" font-size="12" text-anchor="middle">Bimodal</text><line x1="359" y1="494" x2="359" y2="499" stroke="#000000" stroke-width="1" /><text x="559" y="511" font-size="12" text-anchor="middle">Skewed</text><line x1="559" y1="494" x2="559" y2="499" stroke="#000000" stroke-width="1" /><line x1="54" y1="494" x2="59" y2="494" stroke="#000000" stroke-width="1" /><text x="51" y="498.2" font-size="12" text-anchor="end">0</text><line x1="54" y1="404" x2="59" y2="404" stroke="#000000" stroke-width="1" /><text x="51" y="408.2" font-size="12" text-anchor="end">2</text><line x1="54" y1="314" x2="59" y2="314" stroke="#000000" stroke-width="1" /><text x="51" y="318.2" font-size="12" text-anchor="end">4</text><line x1="54" y1="224" x2="59" y2="224" stroke="#000000" stroke-width="1" /><text x="51" y="228.20000000000002" font-size="12" text-anchor="end">6</text><line x1="54" y1="134" x2="59" y2="134" stroke="#000000" stroke-width="1" /><text x="51" y="138.20000000000002" font-size="12" text-anchor="end">8</text><line x1="54" y1="44" x2="59" y2="44" stroke="#000000" stroke-width="1" /><text x="51" y="48.2" font-size="12" text-anchor="end">10</text><text x="359" y="538" font-size="14" text-anchor="middle">Group</text><text x="15" y="272.5" font-size="14" text-anchor="middle" transform="rotate(-90,15,272.5)">Value</text><text x="336.5" y="27.400000000000002" font-size="18" text-anchor="middle">Raincloud Plot — Flipped</text><g clip-path="url(#kuva-clip-1)"><path d="M 127.76 380.63 L 127.62 379.01 L 127.47 377.40000000000003 L 127.31 375.78000000000003 L 127.13000000000001 374.17 L 126.94 372.55 L 126.74000000000001 370.94 L 126.52 369.32 L 126.3 367.71 L 126.07000000000001 366.09000000000003 L 125.85000000000001 364.48 L 125.63000000000001 362.86 L 125.41 361.25 L 125.22 359.63 L 125.04 358.01 L 124.88000000000001 356.40000000000003 L 124.75 354.78000000000003 L 124.64 353.17 L 124.55 351.55 L 124.48 349.94 L 124.42 348.32 L 124.37 346.71 L 124.32000000000001 345.09000000000003 L 124.26 343.48 L 124.18 341.86 L 124.07000000000001 340.25 L 123.91 338.63 L 123.7 337.02 L 123.42 335.40000000000003 L 123.05 333.78000000000003 L 122.60000000000001 332.17 L 122.04 330.55 L 121.37 328.94 L 120.59 327.32 L 119.7 325.71 L 118.69 324.09000000000003 L 117.59 322.48 L 116.4 320.86 L 115.14 319.25 L 113.84 317.63 L 112.52 316.02 L 111.21000000000001 314.40000000000003 L 109.94 312.79 L 108.73 311.17 L 107.61 309.55 L 106.59 307.94 L 105.69 306.32 L 104.91 304.71 L 104.26 303.09000000000003 L 103.73 301.48 L 103.31 299.86 L 102.98 298.25 L 102.72 296.63 L 102.52 295.02 L 102.35000000000001 293.40000000000003 L 102.19 291.79 L 102.04 290.17 L 101.86 288.56 L 101.67 286.94 L 101.45 285.32 L 101.21000000000001 283.71 L 100.94 282.09000000000003 L 100.65 280.48 L 100.36 278.86 L 100.07000000000001 277.25 L 99.79 275.63 L 99.54 274.02 L 99.33 272.4 L 99.16 270.79 L 99.05 269.17 L 99.0 267.56 L 99.03 265.94 L 99.13 264.33 L 99.32000000000001 262.71 L 99.60000000000001 261.09000000000003 L 99.96000000000001 259.48 L 100.42 257.86 L 100.98 256.25 L 101.61 254.63 L 102.34 253.02 L 103.13 251.4 L 103.99000000000001 249.79 L 104.9 248.17000000000002 L 105.84 246.56 L 106.81 244.94 L 107.78 243.33 L 108.73 241.71 L 109.65 240.1 L 110.54 238.48000000000002 L 111.37 236.87 L 112.14 235.25 L 112.84 233.63 L 113.49000000000001 232.02 L 114.07000000000001 230.4 L 114.61 228.79 L 115.09 227.17000000000002 L 115.55 225.56 L 115.97 223.94 L 116.38 222.33 L 116.78 220.71 L 117.18 219.1 L 117.58 217.48000000000002 L 117.98 215.87 L 118.39 214.25 L 118.8 212.64000000000001 L 119.21000000000001 211.02 L 119.62 209.4 L 120.02 207.79 L 120.42 206.17000000000002 L 120.8 204.56 L 121.17 202.94 L 121.53 201.33 L 121.88 199.71 L 122.22 198.1 L 122.56 196.48000000000002 L 122.89 194.87 L 123.22 193.25 L 123.55 191.64000000000001 L 123.89 190.02 L 124.22 188.41 L 124.55 186.79 L 124.88000000000001 185.17000000000002 L 125.21000000000001 183.56 L 125.53 181.94 L 125.83 180.33 L 126.12 178.71 L 126.39 177.1 L 126.65 175.48 L 126.88000000000001 173.87 L 127.09 172.25 L 127.28 170.64000000000001 L 127.44 169.02 L 127.59 167.41 L 127.73 165.79 L 127.84 164.18 L 127.94 162.56 L 128.03 160.94 L 128.1 159.33 L 128.17000000000002 157.71 L 128.22 156.1 L 128.26 154.48 L 128.29 152.87 L 128.31 151.25 L 128.32 149.64000000000001 L 128.33 148.02 L 128.33 146.41 L 128.33 144.79 L 128.32 143.18 L 128.32 141.56 L 128.32 139.95000000000002 L 128.32 138.33 L 128.33 136.71 L 129.0 136.71 L 129.0 138.33 L 129.0 139.95000000000002 L 129.0 141.56 L 129.0 143.18 L 129.0 144.79 L 129.0 146.41 L 129.0 148.02 L 129.0 149.64000000000001 L 129.0 151.25 L 129.0 152.87 L 129.0 154.48 L 129.0 156.1 L 129.0 157.71 L 129.0 159.33 L 129.0 160.94 L 129.0 162.56 L 129.0 164.18 L 129.0 165.79 L 129.0 167.41 L 129.0 169.02 L 129.0 170.64000000000001 L 129.0 172.25 L 129.0 173.87 L 129.0 175.48 L 129.0 177.1 L 129.0 178.71 L 129.0 180.33 L 129.0 181.94 L 129.0 183.56 L 129.0 185.17000000000002 L 129.0 186.79 L 129.0 188.41 L 129.0 190.02 L 129.0 191.64000000000001 L 129.0 193.25 L 129.0 194.87 L 129.0 196.48000000000002 L 129.0 198.1 L 129.0 199.71 L 129.0 201.33 L 129.0 202.94 L 129.0 204.56 L 129.0 206.17000000000002 L 129.0 207.79 L 129.0 209.4 L 129.0 211.02 L 129.0 212.64000000000001 L 129.0 214.25 L 129.0 215.87 L 129.0 217.48000000000002 L 129.0 219.1 L 129.0 220.71 L 129.0 222.33 L 129.0 223.94 L 129.0 225.56 L 129.0 227.17000000000002 L 129.0 228.79 L 129.0 230.4 L 129.0 232.02 L 129.0 233.63 L 129.0 235.25 L 129.0 236.87 L 129.0 238.48000000000002 L 129.0 240.1 L 129.0 241.71 L 129.0 243.33 L 129.0 244.94 L 129.0 246.56 L 129.0 248.17000000000002 L 129.0 249.79 L 129.0 251.4 L 129.0 253.02 L 129.0 254.63 L 129.0 256.25 L 129.0 257.86 L 129.0 259.48 L 129.0 261.09000000000003 L 129.0 262.71 L 129.0 264.33 L 129.0 265.94 L 129.0 267.56 L 129.0 269.17 L 129.0 270.79 L 129.0 272.4 L 129.0 274.02 L 129.0 275.63 L 129.0 277.25 L 129.0 278.86 L 129.0 280.48 L 129.0 282.09000000000003 L 129.0 283.71 L 129.0 285.32 L 129.0 286.94 L 129.0 288.56 L 129.0 290.17 L 129.0 291.79 L 129.0 293.40000000000003 L 129.0 295.02 L 129.0 296.63 L 129.0 298.25 L 129.0 299.86 L 129.0 301.48 L 129.0 303.09000000000003 L 129.0 304.71 L 129.0 306.32 L 129.0 307.94 L 129.0 309.55 L 129.0 311.17 L 129.0 312.79 L 129.0 314.40000000000003 L 129.0 316.02 L 129.0 317.63 L 129.0 319.25 L 129.0 320.86 L 129.0 322.48 L 129.0 324.09000000000003 L 129.0 325.71 L 129.0 327.32 L 129.0 328.94 L 129.0 330.55 L 129.0 332.17 L 129.0 333.78000000000003 L 129.0 335.40000000000003 L 129.0 337.02 L 129.0 338.63 L 129.0 340.25 L 129.0 341.86 L 129.0 343.48 L 129.0 345.09000000000003 L 129.0 346.71 L 129.0 348.32 L 129.0 349.94 L 129.0 351.55 L 129.0 353.17 L 129.0 354.78000000000003 L 129.0 356.40000000000003 L 129.0 358.01 L 129.0 359.63 L 129.0 361.25 L 129.0 362.86 L 129.0 364.48 L 129.0 366.09000000000003 L 129.0 367.71 L 129.0 369.32 L 129.0 370.94 L 129.0 372.55 L 129.0 374.17 L 129.0 375.78000000000003 L 129.0 377.40000000000003 L 129.0 379.01 L 129.0 380.63 Z" stroke="#1f77b4" stroke-width="0.5" fill="#1f77b4" fill-opacity="0.7000000000000001" /><rect x="151" y="248.32" width="16" height="51.88" fill="#1f77b4" /><line x1="151" y1="271.08" x2="167" y2="271.08" stroke="#ffffff" stroke-width="1.5" /><line x1="159" y1="363.40000000000003" x2="159" y2="300.2" stroke="#1f77b4" stroke-width="1" /><line x1="159" y1="248.32" x2="159" y2="182.16" stroke="#1f77b4" stroke-width="1" /><line x1="155" y1="363.40000000000003" x2="163" y2="363.40000000000003" stroke="#1f77b4" stroke-width="1" /><line x1="155" y1="182.16" x2="163" y2="182.16" stroke="#1f77b4" stroke-width="1" /><circle cx="202.6" cy="231.02" r="3" fill="#1f77b4" fill-opacity="0.7000000000000001" /><circle cx="201.69" cy="236.8" r="3" fill="#1f77b4" fill-opacity="0.7000000000000001" /><circle cx="203.38" cy="355.21" r="3" fill="#1f77b4" fill-opacity="0.7000000000000001" /><circle cx="194.95000000000002" cy="248.64000000000001" r="3" fill="#1f77b4" fill-opacity="0.7000000000000001" /><circle cx="197.85" cy="305.71" r="3" fill="#1f77b4" fill-opacity="0.7000000000000001" /><circle cx="195.06" cy="252.88" r="3" fill="#1f77b4" fill-opacity="0.7000000000000001" /><circle cx="194.16" cy="136.32" r="3" fill="#1f77b4" fill-opacity="0.7000000000000001" /><circle cx="196.92000000000002" cy="263.98" r="3" fill="#1f77b4" fill-opacity="0.7000000000000001" /><circle cx="198.69" cy="304.23" r="3" fill="#1f77b4" fill-opacity="0.7000000000000001" /><circle cx="202.44" cy="353.56" r="3" fill="#1f77b4" fill-opacity="0.7000000000000001" /><circle cx="194.8" cy="195.41" r="3" fill="#1f77b4" fill-opacity="0.7000000000000001" /><circle cx="202.81" cy="285.76" r="3" fill="#1f77b4" fill-opacity="0.7000000000000001" /><circle cx="194.26" cy="304.36" r="3" fill="#1f77b4" fill-opacity="0.7000000000000001" /><circle cx="197.42000000000002" cy="287.45" r="3" fill="#1f77b4" fill-opacity="0.7000000000000001" /><circle cx="198.84" cy="311.12" r="3" fill="#1f77b4" fill-opacity="0.7000000000000001" /><circle cx="199.55" cy="304.04" r="3" fill="#1f77b4" fill-opacity="0.7000000000000001" /><circle cx="198.56" cy="262.28000000000003" r="3" fill="#1f77b4" fill-opacity="0.7000000000000001" /><circle cx="202.82" cy="270.43" r="3" fill="#1f77b4" fill-opacity="0.7000000000000001" /><circle cx="199.96" cy="214.02" r="3" fill="#1f77b4" fill-opacity="0.7000000000000001" /><circle cx="202.84" cy="244.21" r="3" fill="#1f77b4" fill-opacity="0.7000000000000001" /><circle cx="196.71" cy="329.69" r="3" fill="#1f77b4" fill-opacity="0.7000000000000001" /><circle cx="196.06" cy="192.44" r="3" fill="#1f77b4" fill-opacity="0.7000000000000001" /><circle cx="202.67000000000002" cy="290.52" r="3" fill="#1f77b4" fill-opacity="0.7000000000000001" /><circle cx="194.16" cy="279.07" r="3" fill="#1f77b4" fill-opacity="0.7000000000000001" /><circle cx="199.12" cy="308.69" r="3" fill="#1f77b4" fill-opacity="0.7000000000000001" /><circle cx="200.01" cy="253.78" r="3" fill="#1f77b4" fill-opacity="0.7000000000000001" /><circle cx="199.76" cy="316.98" r="3" fill="#1f77b4" fill-opacity="0.7000000000000001" /><circle cx="197.66" cy="207.63" r="3" fill="#1f77b4" fill-opacity="0.7000000000000001" /><circle cx="198.96" cy="264.12" r="3" fill="#1f77b4" fill-opacity="0.7000000000000001" /><circle cx="198.76" cy="225.01" r="3" fill="#1f77b4" fill-opacity="0.7000000000000001" /><circle cx="194.85" cy="258.74" r="3" fill="#1f77b4" fill-opacity="0.7000000000000001" /><circle cx="197.81" cy="257.77" r="3" fill="#1f77b4" fill-opacity="0.7000000000000001" /><circle cx="194.31" cy="267.94" r="3" fill="#1f77b4" fill-opacity="0.7000000000000001" /><circle cx="196.86" cy="265.36" r="3" fill="#1f77b4" fill-opacity="0.7000000000000001" /><circle cx="201.18" cy="182.16" r="3" fill="#1f77b4" fill-opacity="0.7000000000000001" /><circle cx="198.68" cy="295.09000000000003" r="3" fill="#1f77b4" fill-opacity="0.7000000000000001" /><circle cx="200.26" cy="280.84000000000003" r="3" fill="#1f77b4" fill-opacity="0.7000000000000001" /><circle cx="203.04" cy="253.96" r="3" fill="#1f77b4" fill-opacity="0.7000000000000001" /><circle cx="196.81" cy="248.45000000000002" r="3" fill="#1f77b4" fill-opacity="0.7000000000000001" /><circle cx="194.86" cy="239.49" r="3" fill="#1f77b4" fill-opacity="0.7000000000000001" /><circle cx="196.91" cy="271.68" r="3" fill="#1f77b4" fill-opacity="0.7000000000000001" /><circle cx="200.27" cy="269.09000000000003" r="3" fill="#1f77b4" fill-opacity="0.7000000000000001" /><circle cx="197.16" cy="275.85" r="3" fill="#1f77b4" fill-opacity="0.7000000000000001" /><circle cx="202.25" cy="192.59" r="3" fill="#1f77b4" fill-opacity="0.7000000000000001" /><circle cx="196.97" cy="259.42" r="3" fill="#1f77b4" fill-opacity="0.7000000000000001" /><circle cx="198.48000000000002" cy="251.71" r="3" fill="#1f77b4" fill-opacity="0.7000000000000001" /><circle cx="197.38" cy="252.14000000000001" r="3" fill="#1f77b4" fill-opacity="0.7000000000000001" /><circle cx="196.64000000000001" cy="287.6" r="3" fill="#1f77b4" fill-opacity="0.7000000000000001" /><circle cx="195.9" cy="348.11" r="3" fill="#1f77b4" fill-opacity="0.7000000000000001" /><circle cx="196.25" cy="381.02" r="3" fill="#1f77b4" fill-opacity="0.7000000000000001" /><circle cx="197.16" cy="227.58" r="3" fill="#1f77b4" fill-opacity="0.7000000000000001" /><circle cx="202.19" cy="256.25" r="3" fill="#1f77b4" fill-opacity="0.7000000000000001" /><circle cx="194.78" cy="273.86" r="3" fill="#1f77b4" fill-opacity="0.7000000000000001" /><circle cx="199.56" cy="350.7" r="3" fill="#1f77b4" fill-opacity="0.7000000000000001" /><circle cx="196.78" cy="275.12" r="3" fill="#1f77b4" fill-opacity="0.7000000000000001" /><circle cx="200.27" cy="270.59000000000003" r="3" fill="#1f77b4" fill-opacity="0.7000000000000001" /><circle cx="194.35" cy="311.71" r="3" fill="#1f77b4" fill-opacity="0.7000000000000001" /><circle cx="198.61" cy="309.07" r="3" fill="#1f77b4" fill-opacity="0.7000000000000001" /><circle cx="203.46" cy="276.88" r="3" fill="#1f77b4" fill-opacity="0.7000000000000001" /><circle cx="198.5" cy="309.61" r="3" fill="#1f77b4" fill-opacity="0.7000000000000001" /><circle cx="194.14000000000001" cy="290.25" r="3" fill="#1f77b4" fill-opacity="0.7000000000000001" /><circle cx="198.93" cy="273.93" r="3" fill="#1f77b4" fill-opacity="0.7000000000000001" /><circle cx="194.65" cy="218.70000000000002" r="3" fill="#1f77b4" fill-opacity="0.7000000000000001" /><circle cx="203.06" cy="300.45" r="3" fill="#1f77b4" fill-opacity="0.7000000000000001" /><circle cx="201.84" cy="242.62" r="3" fill="#1f77b4" fill-opacity="0.7000000000000001" /><circle cx="201.53" cy="217.37" r="3" fill="#1f77b4" fill-opacity="0.7000000000000001" /><circle cx="198.36" cy="254.28" r="3" fill="#1f77b4" fill-opacity="0.7000000000000001" /><circle cx="196.48000000000002" cy="237.83" r="3" fill="#1f77b4" fill-opacity="0.7000000000000001" /><circle cx="195.77" cy="297.62" r="3" fill="#1f77b4" fill-opacity="0.7000000000000001" /><circle cx="202.86" cy="265.63" r="3" fill="#1f77b4" fill-opacity="0.7000000000000001" /><circle cx="202.57" cy="329.11" r="3" fill="#1f77b4" fill-opacity="0.7000000000000001" /><circle cx="199.16" cy="275.89" r="3" fill="#1f77b4" fill-opacity="0.7000000000000001" /><circle cx="202.48000000000002" cy="228.04" r="3" fill="#1f77b4" fill-opacity="0.7000000000000001" /><circle cx="197.25" cy="311.26" r="3" fill="#1f77b4" fill-opacity="0.7000000000000001" /><circle cx="196.73000000000002" cy="275.75" r="3" fill="#1f77b4" fill-opacity="0.7000000000000001" /><circle cx="198.84" cy="253.32" r="3" fill="#1f77b4" fill-opacity="0.7000000000000001" /><circle cx="199.74" cy="288.56" r="3" fill="#1f77b4" fill-opacity="0.7000000000000001" /><circle cx="199.91" cy="285.08" r="3" fill="#1f77b4" fill-opacity="0.7000000000000001" /><circle cx="203.09" cy="192.70000000000002" r="3" fill="#1f77b4" fill-opacity="0.7000000000000001" /><circle cx="195.99" cy="334.82" r="3" fill="#1f77b4" fill-opacity="0.7000000000000001" /><circle cx="196.22" cy="313.51" r="3" fill="#1f77b4" fill-opacity="0.7000000000000001" /><circle cx="200.05" cy="257.72" r="3" fill="#1f77b4" fill-opacity="0.7000000000000001" /><circle cx="197.24" cy="313.53000000000003" r="3" fill="#1f77b4" fill-opacity="0.7000000000000001" /><circle cx="202.43" cy="288.6" r="3" fill="#1f77b4" fill-opacity="0.7000000000000001" /><circle cx="202.6" cy="207.33" r="3" fill="#1f77b4" fill-opacity="0.7000000000000001" /><circle cx="194.38" cy="263.31" r="3" fill="#1f77b4" fill-opacity="0.7000000000000001" /><circle cx="196.31" cy="265.87" r="3" fill="#1f77b4" fill-opacity="0.7000000000000001" /><circle cx="195.46" cy="296.8" r="3" fill="#1f77b4" fill-opacity="0.7000000000000001" /><circle cx="203.11" cy="279.18" r="3" fill="#1f77b4" fill-opacity="0.7000000000000001" /><circle cx="201.70000000000002" cy="313.86" r="3" fill="#1f77b4" fill-opacity="0.7000000000000001" /><circle cx="198.15" cy="241.43" r="3" fill="#1f77b4" fill-opacity="0.7000000000000001" /><circle cx="197.96" cy="295.66" r="3" fill="#1f77b4" fill-opacity="0.7000000000000001" /><circle cx="194.35" cy="254.21" r="3" fill="#1f77b4" fill-opacity="0.7000000000000001" /><circle cx="200.66" cy="255.33" r="3" fill="#1f77b4" fill-opacity="0.7000000000000001" /><circle cx="195.19" cy="204.16" r="3" fill="#1f77b4" fill-opacity="0.7000000000000001" /><circle cx="201.54" cy="214.82" r="3" fill="#1f77b4" fill-opacity="0.7000000000000001" /><circle cx="196.32" cy="297.86" r="3" fill="#1f77b4" fill-opacity="0.7000000000000001" /><circle cx="203.51" cy="301.90000000000003" r="3" fill="#1f77b4" fill-opacity="0.7000000000000001" /><circle cx="200.23000000000002" cy="227.65" r="3" fill="#1f77b4" fill-opacity="0.7000000000000001" /><circle cx="197.37" cy="363.40000000000003" r="3" fill="#1f77b4" fill-opacity="0.7000000000000001" /><circle cx="198.85" cy="270.42" r="3" fill="#1f77b4" fill-opacity="0.7000000000000001" /><circle cx="200.69" cy="252.79" r="3" fill="#1f77b4" fill-opacity="0.7000000000000001" /><circle cx="202.49" cy="281.49" r="3" fill="#1f77b4" fill-opacity="0.7000000000000001" /><circle cx="195.44" cy="224.39000000000001" r="3" fill="#1f77b4" fill-opacity="0.7000000000000001" /><circle cx="195.64000000000001" cy="301.27" r="3" fill="#1f77b4" fill-opacity="0.7000000000000001" /><circle cx="195.55" cy="248.27" r="3" fill="#1f77b4" fill-opacity="0.7000000000000001" /><circle cx="198.95000000000002" cy="285.52" r="3" fill="#1f77b4" fill-opacity="0.7000000000000001" /><circle cx="199" cy="305.46" r="3" fill="#1f77b4" fill-opacity="0.7000000000000001" /><circle cx="194.23000000000002" cy="299.5" r="3" fill="#1f77b4" fill-opacity="0.7000000000000001" /><circle cx="199.55" cy="267.15" r="3" fill="#1f77b4" fill-opacity="0.7000000000000001" /><circle cx="197.25" cy="311.06" r="3" fill="#1f77b4" fill-opacity="0.7000000000000001" /><circle cx="196.46" cy="269.94" r="3" fill="#1f77b4" fill-opacity="0.7000000000000001" /><circle cx="200.73000000000002" cy="271.77" r="3" fill="#1f77b4" fill-opacity="0.7000000000000001" /><circle cx="200.5" cy="304.48" r="3" fill="#1f77b4" fill-opacity="0.7000000000000001" /><circle cx="201.65" cy="277.22" r="3" fill="#1f77b4" fill-opacity="0.7000000000000001" /><circle cx="196.5" cy="221.26" r="3" fill="#1f77b4" fill-opacity="0.7000000000000001" /><circle cx="198.63" cy="222.64000000000001" r="3" fill="#1f77b4" fill-opacity="0.7000000000000001" /><circle cx="195.84" cy="289.74" r="3" fill="#1f77b4" fill-opacity="0.7000000000000001" /><circle cx="201.75" cy="249.57" r="3" fill="#1f77b4" fill-opacity="0.7000000000000001" /><circle cx="195.52" cy="247.36" r="3" fill="#1f77b4" fill-opacity="0.7000000000000001" /><circle cx="203.17000000000002" cy="271.57" r="3" fill="#1f77b4" fill-opacity="0.7000000000000001" /><circle cx="202.35" cy="300.36" r="3" fill="#1f77b4" fill-opacity="0.7000000000000001" /><circle cx="197.1" cy="225.44" r="3" fill="#1f77b4" fill-opacity="0.7000000000000001" /><circle cx="202.32" cy="256.77" r="3" fill="#1f77b4" fill-opacity="0.7000000000000001" /><circle cx="195.43" cy="286.92" r="3" fill="#1f77b4" fill-opacity="0.7000000000000001" /><circle cx="198.45000000000002" cy="257.73" r="3" fill="#1f77b4" fill-opacity="0.7000000000000001" /><circle cx="195.96" cy="307.54" r="3" fill="#1f77b4" fill-opacity="0.7000000000000001" /><circle cx="197.65" cy="300.13" r="3" fill="#1f77b4" fill-opacity="0.7000000000000001" /><circle cx="203.16" cy="276.49" r="3" fill="#1f77b4" fill-opacity="0.7000000000000001" /><circle cx="195.59" cy="265.12" r="3" fill="#1f77b4" fill-opacity="0.7000000000000001" /><circle cx="202.03" cy="193.22" r="3" fill="#1f77b4" fill-opacity="0.7000000000000001" /><circle cx="196.5" cy="211.72" r="3" fill="#1f77b4" fill-opacity="0.7000000000000001" /><circle cx="203.61" cy="308.72" r="3" fill="#1f77b4" fill-opacity="0.7000000000000001" /><circle cx="202.70000000000002" cy="308.38" r="3" fill="#1f77b4" fill-opacity="0.7000000000000001" /><circle cx="203.42000000000002" cy="165.87" r="3" fill="#1f77b4" fill-opacity="0.7000000000000001" /><circle cx="194.11" cy="268.16" r="3" fill="#1f77b4" fill-opacity="0.7000000000000001" /><circle cx="197.67000000000002" cy="218.82" r="3" fill="#1f77b4" fill-opacity="0.7000000000000001" /><circle cx="196.72" cy="284.3" r="3" fill="#1f77b4" fill-opacity="0.7000000000000001" /><circle cx="200.07" cy="289.11" r="3" fill="#1f77b4" fill-opacity="0.7000000000000001" /><circle cx="195.17000000000002" cy="244.55" r="3" fill="#1f77b4" fill-opacity="0.7000000000000001" /><circle cx="197.20000000000002" cy="280.53000000000003" r="3" fill="#1f77b4" fill-opacity="0.7000000000000001" /><circle cx="198.95000000000002" cy="247.16" r="3" fill="#1f77b4" fill-opacity="0.7000000000000001" /><circle cx="202.59" cy="300.22" r="3" fill="#1f77b4" fill-opacity="0.7000000000000001" /><circle cx="195.73000000000002" cy="242.23000000000002" r="3" fill="#1f77b4" fill-opacity="0.7000000000000001" /><circle cx="196.55" cy="339.18" r="3" fill="#1f77b4" fill-opacity="0.7000000000000001" /><circle cx="201.08" cy="238.96" r="3" fill="#1f77b4" fill-opacity="0.7000000000000001" /><circle cx="195.36" cy="257.37" r="3" fill="#1f77b4" fill-opacity="0.7000000000000001" /><circle cx="195.29" cy="358.39" r="3" fill="#1f77b4" fill-opacity="0.7000000000000001" /><circle cx="195.77" cy="305.57" r="3" fill="#1f77b4" fill-opacity="0.7000000000000001" /><circle cx="199.44" cy="305.92" r="3" fill="#1f77b4" fill-opacity="0.7000000000000001" /><path d="M 320.09000000000003 422.12 L 319.17 419.52 L 318.2 416.92 L 317.18 414.32 L 316.13 411.72 L 315.04 409.12 L 313.91 406.52 L 312.77 403.92 L 311.61 401.32 L 310.45 398.72 L 309.29 396.12 L 308.15000000000003 393.52 L 307.03000000000003 390.92 L 305.95 388.32 L 304.91 385.72 L 303.93 383.12 L 303.02 380.52 L 302.18 377.92 L 301.43 375.32 L 300.77 372.72 L 300.21 370.12 L 299.75 367.52 L 299.39 364.92 L 299.15000000000003 362.32 L 299.03000000000003 359.72 L 299.01 357.12 L 299.11 354.52 L 299.31 351.91 L 299.62 349.31 L 300.03000000000003 346.71 L 300.53000000000003 344.11 L 301.12 341.51 L 301.79 338.91 L 302.54 336.31 L 303.35 333.71 L 304.22 331.11 L 305.13 328.51 L 306.09000000000003 325.91 L 307.08 323.31 L 308.09000000000003 320.71 L 309.12 318.11 L 310.15000000000003 315.51 L 311.18 312.91 L 312.21 310.31 L 313.22 307.71 L 314.2 305.11 L 315.16 302.51 L 316.08 299.91 L 316.96 297.31 L 317.79 294.71 L 318.57 292.11 L 319.3 289.51 L 319.96 286.91 L 320.56 284.31 L 321.09000000000003 281.71 L 321.54 279.11 L 321.92 276.51 L 322.22 273.91 L 322.45 271.31 L 322.58 268.71 L 322.64 266.11 L 322.61 263.51 L 322.49 260.91 L 322.29 258.31 L 322.01 255.71 L 321.63 253.11 L 321.18 250.51000000000002 L 320.64 247.91 L 320.02 245.31 L 319.33 242.71 L 318.56 240.11 L 317.72 237.51 L 316.83 234.91 L 315.87 232.31 L 314.87 229.71 L 313.82 227.11 L 312.74 224.51 L 311.63 221.91 L 310.51 219.31 L 309.39 216.70000000000002 L 308.27 214.1 L 307.17 211.5 L 306.1 208.9 L 305.07 206.3 L 304.09000000000003 203.70000000000002 L 303.17 201.1 L 302.33 198.5 L 301.56 195.9 L 300.89 193.3 L 300.31 190.70000000000002 L 299.83 188.1 L 299.45 185.5 L 299.19 182.9 L 299.04 180.3 L 299.0 177.70000000000002 L 299.07 175.1 L 299.25 172.5 L 299.54 169.9 L 299.93 167.3 L 300.41 164.70000000000002 L 300.98 162.1 L 301.64 159.5 L 302.37 156.9 L 303.17 154.3 L 304.03000000000003 151.70000000000002 L 304.95 149.1 L 305.90000000000003 146.5 L 306.89 143.9 L 307.91 141.3 L 308.95 138.70000000000002 L 310.0 136.1 L 311.06 133.5 L 312.11 130.9 L 313.16 128.3 L 314.19 125.7 L 315.2 123.10000000000001 L 316.19 120.5 L 317.15000000000003 117.9 L 318.07 115.3 L 318.96 112.7 L 319.81 110.10000000000001 L 320.62 107.5 L 321.38 104.9 L 322.1 102.3 L 322.78000000000003 99.7 L 323.41 97.10000000000001 L 329.0 97.10000000000001 L 329.0 99.7 L 329.0 102.3 L 329.0 104.9 L 329.0 107.5 L 329.0 110.10000000000001 L 329.0 112.7 L 329.0 115.3 L 329.0 117.9 L 329.0 120.5 L 329.0 123.10000000000001 L 329.0 125.7 L 329.0 128.3 L 329.0 130.9 L 329.0 133.5 L 329.0 136.1 L 329.0 138.70000000000002 L 329.0 141.3 L 329.0 143.9 L 329.0 146.5 L 329.0 149.1 L 329.0 151.70000000000002 L 329.0 154.3 L 329.0 156.9 L 329.0 159.5 L 329.0 162.1 L 329.0 164.70000000000002 L 329.0 167.3 L 329.0 169.9 L 329.0 172.5 L 329.0 175.1 L 329.0 177.70000000000002 L 329.0 180.3 L 329.0 182.9 L 329.0 185.5 L 329.0 188.1 L 329.0 190.70000000000002 L 329.0 193.3 L 329.0 195.9 L 329.0 198.5 L 329.0 201.1 L 329.0 203.70000000000002 L 329.0 206.3 L 329.0 208.9 L 329.0 211.5 L 329.0 214.1 L 329.0 216.70000000000002 L 329.0 219.31 L 329.0 221.91 L 329.0 224.51 L 329.0 227.11 L 329.0 229.71 L 329.0 232.31 L 329.0 234.91 L 329.0 237.51 L 329.0 240.11 L 329.0 242.71 L 329.0 245.31 L 329.0 247.91 L 329.0 250.51000000000002 L 329.0 253.11 L 329.0 255.71 L 329.0 258.31 L 329.0 260.91 L 329.0 263.51 L 329.0 266.11 L 329.0 268.71 L 329.0 271.31 L 329.0 273.91 L 329.0 276.51 L 329.0 279.11 L 329.0 281.71 L 329.0 284.31 L 329.0 286.91 L 329.0 289.51 L 329.0 292.11 L 329.0 294.71 L 329.0 297.31 L 329.0 299.91 L 329.0 302.51 L 329.0 305.11 L 329.0 307.71 L 329.0 310.31 L 329.0 312.91 L 329.0 315.51 L 329.0 318.11 L 329.0 320.71 L 329.0 323.31 L 329.0 325.91 L 329.0 328.51 L 329.0 331.11 L 329.0 333.71 L 329.0 336.31 L 329.0 338.91 L 329.0 341.51 L 329.0 344.11 L 329.0 346.71 L 329.0 349.31 L 329.0 351.91 L 329.0 354.52 L 329.0 357.12 L 329.0 359.72 L 329.0 362.32 L 329.0 364.92 L 329.0 367.52 L 329.0 370.12 L 329.0 372.72 L 329.0 375.32 L 329.0 377.92 L 329.0 380.52 L 329.0 383.12 L 329.0 385.72 L 329.0 388.32 L 329.0 390.92 L 329.0 393.52 L 329.0 396.12 L 329.0 398.72 L 329.0 401.32 L 329.0 403.92 L 329.0 406.52 L 329.0 409.12 L 329.0 411.72 L 329.0 414.32 L 329.0 416.92 L 329.0 419.52 L 329.0 422.12 Z" stroke="#ff7f0e" stroke-width="0.5" fill="#ff7f0e" fill-opacity="0.7000000000000001" /><rect x="351" y="178.48" width="16" height="179.74" fill="#ff7f0e" /><line x1="351" y1="259.61" x2="367" y2="259.61" stroke="#ffffff" stroke-width="1.5" /><line x1="359" y1="424.40000000000003" x2="359" y2="358.22" stroke="#ff7f0e" stroke-width="1" /><line x1="359" y1="178.48" x2="359" y2="94.82000000000001" stroke="#ff7f0e" stroke-width="1" /><line x1="355" y1="424.40000000000003" x2="363" y2="424.40000000000003" stroke="#ff7f0e" stroke-width="1" /><line x1="355" y1="94.82000000000001" x2="363" y2="94.82000000000001" stroke="#ff7f0e" stroke-width="1" /><circle cx="402.6" cy="321.24" r="3" fill="#ff7f0e" fill-opacity="0.7000000000000001" /><circle cx="396.73" cy="356.58" r="3" fill="#ff7f0e" fill-opacity="0.7000000000000001" /><circle cx="401.72" cy="349.51" r="3" fill="#ff7f0e" fill-opacity="0.7000000000000001" /><circle cx="394.99" cy="380.2" r="3" fill="#ff7f0e" fill-opacity="0.7000000000000001" /><circle cx="401.01" cy="359.29" r="3" fill="#ff7f0e" fill-opacity="0.7000000000000001" /><circle cx="401.36" cy="315.68" r="3" fill="#ff7f0e" fill-opacity="0.7000000000000001" /><circle cx="394.36" cy="372.13" r="3" fill="#ff7f0e" fill-opacity="0.7000000000000001" /><circle cx="402.29" cy="320.27" r="3" fill="#ff7f0e" fill-opacity="0.7000000000000001" /><circle cx="401.45" cy="362.27" r="3" fill="#ff7f0e" fill-opacity="0.7000000000000001" /><circle cx="396.15000000000003" cy="314.62" r="3" fill="#ff7f0e" fill-opacity="0.7000000000000001" /><circle cx="401.32" cy="358.34000000000003" r="3" fill="#ff7f0e" fill-opacity="0.7000000000000001" /><circle cx="402.04" cy="348.90000000000003" r="3" fill="#ff7f0e" fill-opacity="0.7000000000000001" /><circle cx="398.74" cy="337.18" r="3" fill="#ff7f0e" fill-opacity="0.7000000000000001" /><circle cx="399.15000000000003" cy="335.98" r="3" fill="#ff7f0e" fill-opacity="0.7000000000000001" /><circle cx="394.62" cy="306.33" r="3" fill="#ff7f0e" fill-opacity="0.7000000000000001" /><circle cx="398.41" cy="362.97" r="3" fill="#ff7f0e" fill-opacity="0.7000000000000001" /><circle cx="396.74" cy="351.3" r="3" fill="#ff7f0e" fill-opacity="0.7000000000000001" /><circle cx="394.90000000000003" cy="369.88" r="3" fill="#ff7f0e" fill-opacity="0.7000000000000001" /><circle cx="402.56" cy="380.54" r="3" fill="#ff7f0e" fill-opacity="0.7000000000000001" /><circle cx="401.46000000000004" cy="398.46000000000004" r="3" fill="#ff7f0e" fill-opacity="0.7000000000000001" /><circle cx="396.05" cy="352.75" r="3" fill="#ff7f0e" fill-opacity="0.7000000000000001" /><circle cx="401.26" cy="352.36" r="3" fill="#ff7f0e" fill-opacity="0.7000000000000001" /><circle cx="395.89" cy="350.66" r="3" fill="#ff7f0e" fill-opacity="0.7000000000000001" /><circle cx="402.69" cy="274.82" r="3" fill="#ff7f0e" fill-opacity="0.7000000000000001" /><circle cx="402.17" cy="398.79" r="3" fill="#ff7f0e" fill-opacity="0.7000000000000001" /><circle cx="403.6" cy="366.11" r="3" fill="#ff7f0e" fill-opacity="0.7000000000000001" /><circle cx="402.79" cy="382.29" r="3" fill="#ff7f0e" fill-opacity="0.7000000000000001" /><circle cx="399.41" cy="406.61" r="3" fill="#ff7f0e" fill-opacity="0.7000000000000001" /><circle cx="399.19" cy="370.65000000000003" r="3" fill="#ff7f0e" fill-opacity="0.7000000000000001" /><circle cx="396.27" cy="322.18" r="3" fill="#ff7f0e" fill-opacity="0.7000000000000001" /><circle cx="397.57" cy="370.63" r="3" fill="#ff7f0e" fill-opacity="0.7000000000000001" /><circle cx="398.87" cy="361.18" r="3" fill="#ff7f0e" fill-opacity="0.7000000000000001" /><circle cx="400.83" cy="352.98" r="3" fill="#ff7f0e" fill-opacity="0.7000000000000001" /><circle cx="396.63" cy="327.48" r="3" fill="#ff7f0e" fill-opacity="0.7000000000000001" /><circle cx="395.53000000000003" cy="390.83" r="3" fill="#ff7f0e" fill-opacity="0.7000000000000001" /><circle cx="402.73" cy="324.02" r="3" fill="#ff7f0e" fill-opacity="0.7000000000000001" /><circle cx="399.40000000000003" cy="321.5" r="3" fill="#ff7f0e" fill-opacity="0.7000000000000001" /><circle cx="403.49" cy="398.37" r="3" fill="#ff7f0e" fill-opacity="0.7000000000000001" /><circle cx="397.6" cy="339.91" r="3" fill="#ff7f0e" fill-opacity="0.7000000000000001" /><circle cx="403.82" cy="385.76" r="3" fill="#ff7f0e" fill-opacity="0.7000000000000001" /><circle cx="396.27" cy="355.71" r="3" fill="#ff7f0e" fill-opacity="0.7000000000000001" /><circle cx="396" cy="376.8" r="3" fill="#ff7f0e" fill-opacity="0.7000000000000001" /><circle cx="394.31" cy="424.40000000000003" r="3" fill="#ff7f0e" fill-opacity="0.7000000000000001" /><circle cx="402.79" cy="313.88" r="3" fill="#ff7f0e" fill-opacity="0.7000000000000001" /><circle cx="402.83" cy="364.68" r="3" fill="#ff7f0e" fill-opacity="0.7000000000000001" /><circle cx="397.37" cy="331.55" r="3" fill="#ff7f0e" fill-opacity="0.7000000000000001" /><circle cx="403.05" cy="380.07" r="3" fill="#ff7f0e" fill-opacity="0.7000000000000001" /><circle cx="394.49" cy="360.22" r="3" fill="#ff7f0e" fill-opacity="0.7000000000000001" /><circle cx="395.18" cy="319.73" r="3" fill="#ff7f0e" fill-opacity="0.7000000000000001" /><circle cx="394.52" cy="366.91" r="3" fill="#ff7f0e" fill-opacity="0.7000000000000001" /><circle cx="397.17" cy="309.92" r="3" fill="#ff7f0e" fill-opacity="0.7000000000000001" /><circle cx="402.89" cy="372.82" r="3" fill="#ff7f0e" fill-opacity="0.7000000000000001" /><circle cx="397" cy="394.1" r="3" fill="#ff7f0e" fill-opacity="0.7000000000000001" /><circle cx="398.21000000000004" cy="375.02" r="3" fill="#ff7f0e" fill-opacity="0.7000000000000001" /><circle cx="400.68" cy="338.55" r="3" fill="#ff7f0e" fill-opacity="0.7000000000000001" /><circle cx="401.36" cy="370.18" r="3" fill="#ff7f0e" fill-opacity="0.7000000000000001" /><circle cx="400.47" cy="329.98" r="3" fill="#ff7f0e" fill-opacity="0.7000000000000001" /><circle cx="401.36" cy="333.15000000000003" r="3" fill="#ff7f0e" fill-opacity="0.7000000000000001" /><circle cx="395.29" cy="369.65000000000003" r="3" fill="#ff7f0e" fill-opacity="0.7000000000000001" /><circle cx="396.73" cy="345.47" r="3" fill="#ff7f0e" fill-opacity="0.7000000000000001" /><circle cx="395.45" cy="368.17" r="3" fill="#ff7f0e" fill-opacity="0.7000000000000001" /><circle cx="402.25" cy="332.57" r="3" fill="#ff7f0e" fill-opacity="0.7000000000000001" /><circle cx="402.22" cy="379.46" r="3" fill="#ff7f0e" fill-opacity="0.7000000000000001" /><circle cx="394.47" cy="382.17" r="3" fill="#ff7f0e" fill-opacity="0.7000000000000001" /><circle cx="396.48" cy="379.6" r="3" fill="#ff7f0e" fill-opacity="0.7000000000000001" /><circle cx="403.17" cy="358.90000000000003" r="3" fill="#ff7f0e" fill-opacity="0.7000000000000001" /><circle cx="398.53000000000003" cy="357.88" r="3" fill="#ff7f0e" fill-opacity="0.7000000000000001" /><circle cx="394.5" cy="352" r="3" fill="#ff7f0e" fill-opacity="0.7000000000000001" /><circle cx="397.56" cy="352.93" r="3" fill="#ff7f0e" fill-opacity="0.7000000000000001" /><circle cx="400.11" cy="304.93" r="3" fill="#ff7f0e" fill-opacity="0.7000000000000001" /><circle cx="398.51" cy="349.55" r="3" fill="#ff7f0e" fill-opacity="0.7000000000000001" /><circle cx="400.39" cy="365.63" r="3" fill="#ff7f0e" fill-opacity="0.7000000000000001" /><circle cx="397.03000000000003" cy="404.42" r="3" fill="#ff7f0e" fill-opacity="0.7000000000000001" /><circle cx="398.45" cy="301.64" r="3" fill="#ff7f0e" fill-opacity="0.7000000000000001" /><circle cx="399" cy="398.76" r="3" fill="#ff7f0e" fill-opacity="0.7000000000000001" /><circle cx="400.87" cy="141.24" r="3" fill="#ff7f0e" fill-opacity="0.7000000000000001" /><circle cx="397.96000000000004" cy="176.58" r="3" fill="#ff7f0e" fill-opacity="0.7000000000000001" /><circle cx="399.84000000000003" cy="169.51" r="3" fill="#ff7f0e" fill-opacity="0.7000000000000001" /><circle cx="395.53000000000003" cy="200.20000000000002" r="3" fill="#ff7f0e" fill-opacity="0.7000000000000001" /><circle cx="401.46000000000004" cy="179.29" r="3" fill="#ff7f0e" fill-opacity="0.7000000000000001" /><circle cx="396.12" cy="135.68" r="3" fill="#ff7f0e" fill-opacity="0.7000000000000001" /><circle cx="403.13" cy="192.13" r="3" fill="#ff7f0e" fill-opacity="0.7000000000000001" /><circle cx="400.04" cy="140.27" r="3" fill="#ff7f0e" fill-opacity="0.7000000000000001" /><circle cx="401.1" cy="182.27" r="3" fill="#ff7f0e" fill-opacity="0.7000000000000001" /><circle cx="400.63" cy="134.62" r="3" fill="#ff7f0e" fill-opacity="0.7000000000000001" /><circle cx="402.48" cy="178.34" r="3" fill="#ff7f0e" fill-opacity="0.7000000000000001" /><circle cx="396.09000000000003" cy="168.9" r="3" fill="#ff7f0e" fill-opacity="0.7000000000000001" /><circle cx="395.81" cy="157.18" r="3" fill="#ff7f0e" fill-opacity="0.7000000000000001" /><circle cx="400.12" cy="155.98" r="3" fill="#ff7f0e" fill-opacity="0.7000000000000001" /><circle cx="399.09000000000003" cy="126.33" r="3" fill="#ff7f0e" fill-opacity="0.7000000000000001" /><circle cx="402.57" cy="182.97" r="3" fill="#ff7f0e" fill-opacity="0.7000000000000001" /><circle cx="402.74" cy="171.3" r="3" fill="#ff7f0e" fill-opacity="0.7000000000000001" /><circle cx="395.37" cy="189.88" r="3" fill="#ff7f0e" fill-opacity="0.7000000000000001" /><circle cx="395.74" cy="200.54" r="3" fill="#ff7f0e" fill-opacity="0.7000000000000001" /><circle cx="395.71000000000004" cy="218.46" r="3" fill="#ff7f0e" fill-opacity="0.7000000000000001" /><circle cx="401.13" cy="172.75" r="3" fill="#ff7f0e" fill-opacity="0.7000000000000001" /><circle cx="401.83" cy="172.36" r="3" fill="#ff7f0e" fill-opacity="0.7000000000000001" /><circle cx="395.88" cy="170.66" r="3" fill="#ff7f0e" fill-opacity="0.7000000000000001" /><circle cx="397.77" cy="94.82000000000001" r="3" fill="#ff7f0e" fill-opacity="0.7000000000000001" /><circle cx="399.57" cy="218.79" r="3" fill="#ff7f0e" fill-opacity="0.7000000000000001" /><circle cx="403.84000000000003" cy="186.11" r="3" fill="#ff7f0e" fill-opacity="0.7000000000000001" /><circle cx="402.18" cy="202.29" r="3" fill="#ff7f0e" fill-opacity="0.7000000000000001" /><circle cx="397.18" cy="226.61" r="3" fill="#ff7f0e" fill-opacity="0.7000000000000001" /><circle cx="394.69" cy="190.65" r="3" fill="#ff7f0e" fill-opacity="0.7000000000000001" /><circle cx="401.78000000000003" cy="142.18" r="3" fill="#ff7f0e" fill-opacity="0.7000000000000001" /><circle cx="401.23" cy="190.63" r="3" fill="#ff7f0e" fill-opacity="0.7000000000000001" /><circle cx="400.22" cy="181.18" r="3" fill="#ff7f0e" fill-opacity="0.7000000000000001" /><circle cx="395.95" cy="172.98" r="3" fill="#ff7f0e" fill-opacity="0.7000000000000001" /><circle cx="397.59000000000003" cy="147.48" r="3" fill="#ff7f0e" fill-opacity="0.7000000000000001" /><circle cx="399.83" cy="210.83" r="3" fill="#ff7f0e" fill-opacity="0.7000000000000001" /><circle cx="402.58" cy="144.02" r="3" fill="#ff7f0e" fill-opacity="0.7000000000000001" /><circle cx="401.03000000000003" cy="141.5" r="3" fill="#ff7f0e" fill-opacity="0.7000000000000001" /><circle cx="394.02" cy="218.37" r="3" fill="#ff7f0e" fill-opacity="0.7000000000000001" /><circle cx="395.37" cy="159.91" r="3" fill="#ff7f0e" fill-opacity="0.7000000000000001" /><circle cx="396.18" cy="205.76" r="3" fill="#ff7f0e" fill-opacity="0.7000000000000001" /><circle cx="400.46000000000004" cy="175.71" r="3" fill="#ff7f0e" fill-opacity="0.7000000000000001" /><circle cx="398.54" cy="196.8" r="3" fill="#ff7f0e" fill-opacity="0.7000000000000001" /><circle cx="394.7" cy="244.4" r="3" fill="#ff7f0e" fill-opacity="0.7000000000000001" /><circle cx="394.86" cy="133.88" r="3" fill="#ff7f0e" fill-opacity="0.7000000000000001" /><circle cx="401.15000000000003" cy="184.68" r="3" fill="#ff7f0e" fill-opacity="0.7000000000000001" /><circle cx="401" cy="151.55" r="3" fill="#ff7f0e" fill-opacity="0.7000000000000001" /><circle cx="394.23" cy="200.07" r="3" fill="#ff7f0e" fill-opacity="0.7000000000000001" /><circle cx="396.13" cy="180.22" r="3" fill="#ff7f0e" fill-opacity="0.7000000000000001" /><circle cx="397.21000000000004" cy="139.73" r="3" fill="#ff7f0e" fill-opacity="0.7000000000000001" /><circle cx="395.72" cy="186.91" r="3" fill="#ff7f0e" fill-opacity="0.7000000000000001" /><circle cx="398.54" cy="129.92000000000002" r="3" fill="#ff7f0e" fill-opacity="0.7000000000000001" /><circle cx="394.06" cy="192.82" r="3" fill="#ff7f0e" fill-opacity="0.7000000000000001" /><circle cx="403.98" cy="214.1" r="3" fill="#ff7f0e" fill-opacity="0.7000000000000001" /><circle cx="395.66" cy="195.02" r="3" fill="#ff7f0e" fill-opacity="0.7000000000000001" /><circle cx="403.82" cy="158.55" r="3" fill="#ff7f0e" fill-opacity="0.7000000000000001" /><circle cx="394.81" cy="190.18" r="3" fill="#ff7f0e" fill-opacity="0.7000000000000001" /><circle cx="396.16" cy="149.98" r="3" fill="#ff7f0e" fill-opacity="0.7000000000000001" /><circle cx="395.33" cy="153.15" r="3" fill="#ff7f0e" fill-opacity="0.7000000000000001" /><circle cx="399.86" cy="189.65" r="3" fill="#ff7f0e" fill-opacity="0.7000000000000001" /><circle cx="397.52" cy="165.47" r="3" fill="#ff7f0e" fill-opacity="0.7000000000000001" /><circle cx="401.37" cy="188.17000000000002" r="3" fill="#ff7f0e" fill-opacity="0.7000000000000001" /><circle cx="397.36" cy="152.57" r="3" fill="#ff7f0e" fill-opacity="0.7000000000000001" /><circle cx="402.41" cy="199.46" r="3" fill="#ff7f0e" fill-opacity="0.7000000000000001" /><circle cx="400.51" cy="202.17000000000002" r="3" fill="#ff7f0e" fill-opacity="0.7000000000000001" /><circle cx="395.97" cy="199.6" r="3" fill="#ff7f0e" fill-opacity="0.7000000000000001" /><circle cx="398.85" cy="178.9" r="3" fill="#ff7f0e" fill-opacity="0.7000000000000001" /><circle cx="396.19" cy="177.88" r="3" fill="#ff7f0e" fill-opacity="0.7000000000000001" /><circle cx="401.32" cy="172" r="3" fill="#ff7f0e" fill-opacity="0.7000000000000001" /><circle cx="394.72" cy="172.93" r="3" fill="#ff7f0e" fill-opacity="0.7000000000000001" /><circle cx="398.57" cy="124.93" r="3" fill="#ff7f0e" fill-opacity="0.7000000000000001" /><circle cx="396.06" cy="169.55" r="3" fill="#ff7f0e" fill-opacity="0.7000000000000001" /><circle cx="394.18" cy="185.63" r="3" fill="#ff7f0e" fill-opacity="0.7000000000000001" /><circle cx="400.54" cy="224.42000000000002" r="3" fill="#ff7f0e" fill-opacity="0.7000000000000001" /><circle cx="396.51" cy="121.64" r="3" fill="#ff7f0e" fill-opacity="0.7000000000000001" /><circle cx="403.05" cy="218.76" r="3" fill="#ff7f0e" fill-opacity="0.7000000000000001" /><path d="M 508.35 403.5 L 506.27000000000004 402.02 L 504.36 400.54 L 502.69 399.05 L 501.29 397.57 L 500.22 396.09000000000003 L 499.47 394.61 L 499.07 393.13 L 499.0 391.65000000000003 L 499.24 390.17 L 499.75 388.68 L 500.5 387.2 L 501.45 385.72 L 502.55 384.24 L 503.75 382.76 L 505.01 381.28000000000003 L 506.3 379.8 L 507.58 378.32 L 508.81 376.83 L 509.99 375.35 L 511.08 373.87 L 512.08 372.39 L 512.97 370.91 L 513.76 369.43 L 514.44 367.95 L 515.02 366.46 L 515.5 364.98 L 515.9 363.5 L 516.22 362.02 L 516.47 360.54 L 516.6800000000001 359.06 L 516.85 357.58 L 517.01 356.09000000000003 L 517.16 354.61 L 517.32 353.13 L 517.5 351.65000000000003 L 517.71 350.17 L 517.96 348.69 L 518.26 347.21 L 518.61 345.73 L 519.0 344.24 L 519.42 342.76 L 519.88 341.28000000000003 L 520.35 339.8 L 520.83 338.32 L 521.3 336.84000000000003 L 521.75 335.36 L 522.17 333.87 L 522.5600000000001 332.39 L 522.91 330.91 L 523.23 329.43 L 523.52 327.95 L 523.79 326.47 L 524.03 324.99 L 524.26 323.5 L 524.49 322.02 L 524.7 320.54 L 524.92 319.06 L 525.15 317.58 L 525.37 316.1 L 525.59 314.62 L 525.8 313.14 L 526.01 311.65000000000003 L 526.21 310.17 L 526.39 308.69 L 526.55 307.21 L 526.7 305.73 L 526.82 304.25 L 526.92 302.77 L 527.0 301.28000000000003 L 527.0600000000001 299.8 L 527.11 298.32 L 527.16 296.84000000000003 L 527.21 295.36 L 527.26 293.88 L 527.3100000000001 292.40000000000003 L 527.38 290.91 L 527.45 289.43 L 527.52 287.95 L 527.6 286.47 L 527.6800000000001 284.99 L 527.76 283.51 L 527.84 282.03000000000003 L 527.91 280.55 L 527.98 279.06 L 528.04 277.58 L 528.09 276.1 L 528.13 274.62 L 528.17 273.14 L 528.2 271.66 L 528.24 270.18 L 528.27 268.69 L 528.3 267.21 L 528.33 265.73 L 528.37 264.25 L 528.41 262.77 L 528.45 261.29 L 528.5 259.81 L 528.55 258.32 L 528.6 256.84000000000003 L 528.66 255.36 L 528.71 253.88 L 528.75 252.4 L 528.8 250.92000000000002 L 528.83 249.44 L 528.87 247.96 L 528.89 246.47 L 528.91 244.99 L 528.92 243.51 L 528.9300000000001 242.03 L 528.9300000000001 240.55 L 528.92 239.07 L 528.91 237.59 L 528.88 236.1 L 528.86 234.62 L 528.83 233.14000000000001 L 528.79 231.66 L 528.75 230.18 L 528.71 228.70000000000002 L 528.67 227.22 L 528.64 225.73000000000002 L 528.6 224.25 L 528.58 222.77 L 528.57 221.29 L 528.5600000000001 219.81 L 528.5600000000001 218.33 L 528.58 216.85 L 528.6 215.37 L 528.63 213.88 L 528.67 212.4 L 528.71 210.92000000000002 L 528.75 209.44 L 528.79 207.96 L 528.82 206.48000000000002 L 528.86 205.0 L 528.89 203.51 L 528.91 202.03 L 528.9300000000001 200.55 L 528.94 199.07 L 528.95 197.59 L 528.95 196.11 L 528.94 194.63 L 528.9300000000001 193.14000000000001 L 528.91 191.66 L 528.88 190.18 L 528.85 188.70000000000002 L 528.8100000000001 187.22 L 528.75 185.74 L 528.69 184.26 L 528.62 182.78 L 528.55 181.29 L 528.47 179.81 L 528.4 178.33 L 528.33 176.85 L 528.26 175.37 L 528.21 173.89000000000001 L 528.17 172.41 L 528.15 170.92000000000002 L 528.14 169.44 L 528.16 167.96 L 529.0 167.96 L 529.0 169.44 L 529.0 170.92000000000002 L 529.0 172.41 L 529.0 173.89000000000001 L 529.0 175.37 L 529.0 176.85 L 529.0 178.33 L 529.0 179.81 L 529.0 181.29 L 529.0 182.78 L 529.0 184.26 L 529.0 185.74 L 529.0 187.22 L 529.0 188.70000000000002 L 529.0 190.18 L 529.0 191.66 L 529.0 193.14000000000001 L 529.0 194.63 L 529.0 196.11 L 529.0 197.59 L 529.0 199.07 L 529.0 200.55 L 529.0 202.03 L 529.0 203.51 L 529.0 205.0 L 529.0 206.48000000000002 L 529.0 207.96 L 529.0 209.44 L 529.0 210.92000000000002 L 529.0 212.4 L 529.0 213.88 L 529.0 215.37 L 529.0 216.85 L 529.0 218.33 L 529.0 219.81 L 529.0 221.29 L 529.0 222.77 L 529.0 224.25 L 529.0 225.73000000000002 L 529.0 227.22 L 529.0 228.70000000000002 L 529.0 230.18 L 529.0 231.66 L 529.0 233.14000000000001 L 529.0 234.62 L 529.0 236.1 L 529.0 237.59 L 529.0 239.07 L 529.0 240.55 L 529.0 242.03 L 529.0 243.51 L 529.0 244.99 L 529.0 246.47 L 529.0 247.96 L 529.0 249.44 L 529.0 250.92000000000002 L 529.0 252.4 L 529.0 253.88 L 529.0 255.36 L 529.0 256.84000000000003 L 529.0 258.32 L 529.0 259.81 L 529.0 261.29 L 529.0 262.77 L 529.0 264.25 L 529.0 265.73 L 529.0 267.21 L 529.0 268.69 L 529.0 270.18 L 529.0 271.66 L 529.0 273.14 L 529.0 274.62 L 529.0 276.1 L 529.0 277.58 L 529.0 279.06 L 529.0 280.55 L 529.0 282.03000000000003 L 529.0 283.51 L 529.0 284.99 L 529.0 286.47 L 529.0 287.95 L 529.0 289.43 L 529.0 290.91 L 529.0 292.40000000000003 L 529.0 293.88 L 529.0 295.36 L 529.0 296.84000000000003 L 529.0 298.32 L 529.0 299.8 L 529.0 301.28000000000003 L 529.0 302.77 L 529.0 304.25 L 529.0 305.73 L 529.0 307.21 L 529.0 308.69 L 529.0 310.17 L 529.0 311.65000000000003 L 529.0 313.14 L 529.0 314.62 L 529.0 316.1 L 529.0 317.58 L 529.0 319.06 L 529.0 320.54 L 529.0 322.02 L 529.0 323.5 L 529.0 324.99 L 529.0 326.47 L 529.0 327.95 L 529.0 329.43 L 529.0 330.91 L 529.0 332.39 L 529.0 333.87 L 529.0 335.36 L 529.0 336.84000000000003 L 529.0 338.32 L 529.0 339.8 L 529.0 341.28000000000003 L 529.0 342.76 L 529.0 344.24 L 529.0 345.73 L 529.0 347.21 L 529.0 348.69 L 529.0 350.17 L 529.0 351.65000000000003 L 529.0 353.13 L 529.0 354.61 L 529.0 356.09000000000003 L 529.0 357.58 L 529.0 359.06 L 529.0 360.54 L 529.0 362.02 L 529.0 363.5 L 529.0 364.98 L 529.0 366.46 L 529.0 367.95 L 529.0 369.43 L 529.0 370.91 L 529.0 372.39 L 529.0 373.87 L 529.0 375.35 L 529.0 376.83 L 529.0 378.32 L 529.0 379.8 L 529.0 381.28000000000003 L 529.0 382.76 L 529.0 384.24 L 529.0 385.72 L 529.0 387.2 L 529.0 388.68 L 529.0 390.17 L 529.0 391.65000000000003 L 529.0 393.13 L 529.0 394.61 L 529.0 396.09000000000003 L 529.0 397.57 L 529.0 399.05 L 529.0 400.54 L 529.0 402.02 L 529.0 403.5 Z" stroke="#2ca02c" stroke-width="0.5" fill="#2ca02c" fill-opacity="0.7000000000000001" /><rect x="551" y="354.93" width="16" height="39.53" fill="#2ca02c" /><line x1="551" y1="383.03000000000003" x2="567" y2="383.03000000000003" stroke="#ffffff" stroke-width="1.5" /><line x1="559" y1="403.89" x2="559" y2="394.46000000000004" stroke="#2ca02c" stroke-width="1" /><line x1="559" y1="354.93" x2="559" y2="307.17" stroke="#2ca02c" stroke-width="1" /><line x1="555" y1="403.89" x2="563" y2="403.89" stroke="#2ca02c" stroke-width="1" /><line x1="555" y1="307.17" x2="563" y2="307.17" stroke="#2ca02c" stroke-width="1" /><circle cx="602.6" cy="397.66" r="3" fill="#2ca02c" fill-opacity="0.7000000000000001" /><circle cx="601.7" cy="320.02" r="3" fill="#2ca02c" fill-opacity="0.7000000000000001" /><circle cx="600.52" cy="361.52" r="3" fill="#2ca02c" fill-opacity="0.7000000000000001" /><circle cx="599.26" cy="312.26" r="3" fill="#2ca02c" fill-opacity="0.7000000000000001" /><circle cx="597.9" cy="343.72" r="3" fill="#2ca02c" fill-opacity="0.7000000000000001" /><circle cx="594.79" cy="395.87" r="3" fill="#2ca02c" fill-opacity="0.7000000000000001" /><circle cx="603.03" cy="384.76" r="3" fill="#2ca02c" fill-opacity="0.7000000000000001" /><circle cx="595.19" cy="371.29" r="3" fill="#2ca02c" fill-opacity="0.7000000000000001" /><circle cx="601.89" cy="331.33" r="3" fill="#2ca02c" fill-opacity="0.7000000000000001" /><circle cx="603.1" cy="399.65000000000003" r="3" fill="#2ca02c" fill-opacity="0.7000000000000001" /><circle cx="602.6800000000001" cy="383.92" r="3" fill="#2ca02c" fill-opacity="0.7000000000000001" /><circle cx="603.83" cy="394.81" r="3" fill="#2ca02c" fill-opacity="0.7000000000000001" /><circle cx="602.23" cy="398.29" r="3" fill="#2ca02c" fill-opacity="0.7000000000000001" /><circle cx="600.5600000000001" cy="392.74" r="3" fill="#2ca02c" fill-opacity="0.7000000000000001" /><circle cx="599.73" cy="401.94" r="3" fill="#2ca02c" fill-opacity="0.7000000000000001" /><circle cx="601.0600000000001" cy="376.90000000000003" r="3" fill="#2ca02c" fill-opacity="0.7000000000000001" /><circle cx="601.42" cy="365.29" r="3" fill="#2ca02c" fill-opacity="0.7000000000000001" /><circle cx="601.7" cy="357.7" r="3" fill="#2ca02c" fill-opacity="0.7000000000000001" /><circle cx="594.71" cy="374.09000000000003" r="3" fill="#2ca02c" fill-opacity="0.7000000000000001" /><circle cx="596.39" cy="383.38" r="3" fill="#2ca02c" fill-opacity="0.7000000000000001" /><circle cx="598.84" cy="346.42" r="3" fill="#2ca02c" fill-opacity="0.7000000000000001" /><circle cx="597.0500000000001" cy="394.03000000000003" r="3" fill="#2ca02c" fill-opacity="0.7000000000000001" /><circle cx="595.0600000000001" cy="396.26" r="3" fill="#2ca02c" fill-opacity="0.7000000000000001" /><circle cx="600.03" cy="396.56" r="3" fill="#2ca02c" fill-opacity="0.7000000000000001" /><circle cx="597.59" cy="263.51" r="3" fill="#2ca02c" fill-opacity="0.7000000000000001" /><circle cx="597.13" cy="381.01" r="3" fill="#2ca02c" fill-opacity="0.7000000000000001" /><circle cx="602.2" cy="340.7" r="3" fill="#2ca02c" fill-opacity="0.7000000000000001" /><circle cx="595.4300000000001" cy="307.17" r="3" fill="#2ca02c" fill-opacity="0.7000000000000001" /><circle cx="597.27" cy="398.96000000000004" r="3" fill="#2ca02c" fill-opacity="0.7000000000000001" /><circle cx="594.73" cy="374.09000000000003" r="3" fill="#2ca02c" fill-opacity="0.7000000000000001" /><circle cx="599.0600000000001" cy="172.25" r="3" fill="#2ca02c" fill-opacity="0.7000000000000001" /><circle cx="594.33" cy="317.38" r="3" fill="#2ca02c" fill-opacity="0.7000000000000001" /><circle cx="598.83" cy="387.75" r="3" fill="#2ca02c" fill-opacity="0.7000000000000001" /><circle cx="603.74" cy="332.36" r="3" fill="#2ca02c" fill-opacity="0.7000000000000001" /><circle cx="597.08" cy="399.15000000000003" r="3" fill="#2ca02c" fill-opacity="0.7000000000000001" /><circle cx="597.61" cy="396.55" r="3" fill="#2ca02c" fill-opacity="0.7000000000000001" /><circle cx="601.49" cy="388.01" r="3" fill="#2ca02c" fill-opacity="0.7000000000000001" /><circle cx="596.42" cy="389.46000000000004" r="3" fill="#2ca02c" fill-opacity="0.7000000000000001" /><circle cx="597.5500000000001" cy="295.06" r="3" fill="#2ca02c" fill-opacity="0.7000000000000001" /><circle cx="598.0600000000001" cy="396.55" r="3" fill="#2ca02c" fill-opacity="0.7000000000000001" /><circle cx="594.94" cy="379.29" r="3" fill="#2ca02c" fill-opacity="0.7000000000000001" /><circle cx="601.41" cy="403.59000000000003" r="3" fill="#2ca02c" fill-opacity="0.7000000000000001" /><circle cx="596.4300000000001" cy="397.72" r="3" fill="#2ca02c" fill-opacity="0.7000000000000001" /><circle cx="600.2" cy="330.31" r="3" fill="#2ca02c" fill-opacity="0.7000000000000001" /><circle cx="597.26" cy="388.75" r="3" fill="#2ca02c" fill-opacity="0.7000000000000001" /><circle cx="595.03" cy="315.96" r="3" fill="#2ca02c" fill-opacity="0.7000000000000001" /><circle cx="601.5600000000001" cy="327.66" r="3" fill="#2ca02c" fill-opacity="0.7000000000000001" /><circle cx="599.41" cy="367.84000000000003" r="3" fill="#2ca02c" fill-opacity="0.7000000000000001" /><circle cx="595.63" cy="403.36" r="3" fill="#2ca02c" fill-opacity="0.7000000000000001" /><circle cx="603.04" cy="342.82" r="3" fill="#2ca02c" fill-opacity="0.7000000000000001" /><circle cx="596.98" cy="367.03000000000003" r="3" fill="#2ca02c" fill-opacity="0.7000000000000001" /><circle cx="598.82" cy="394.09000000000003" r="3" fill="#2ca02c" fill-opacity="0.7000000000000001" /><circle cx="597.27" cy="396.40000000000003" r="3" fill="#2ca02c" fill-opacity="0.7000000000000001" /><circle cx="603.54" cy="395.63" r="3" fill="#2ca02c" fill-opacity="0.7000000000000001" /><circle cx="598.59" cy="393.1" r="3" fill="#2ca02c" fill-opacity="0.7000000000000001" /><circle cx="597.22" cy="399.01" r="3" fill="#2ca02c" fill-opacity="0.7000000000000001" /><circle cx="602.8000000000001" cy="381.93" r="3" fill="#2ca02c" fill-opacity="0.7000000000000001" /><circle cx="594.28" cy="396.84000000000003" r="3" fill="#2ca02c" fill-opacity="0.7000000000000001" /><circle cx="600.12" cy="383.64" r="3" fill="#2ca02c" fill-opacity="0.7000000000000001" /><circle cx="602.25" cy="387.02" r="3" fill="#2ca02c" fill-opacity="0.7000000000000001" /><circle cx="601.4300000000001" cy="363.6" r="3" fill="#2ca02c" fill-opacity="0.7000000000000001" /><circle cx="598.2" cy="383.19" r="3" fill="#2ca02c" fill-opacity="0.7000000000000001" /><circle cx="600" cy="402" r="3" fill="#2ca02c" fill-opacity="0.7000000000000001" /><circle cx="600.17" cy="387.58" r="3" fill="#2ca02c" fill-opacity="0.7000000000000001" /><circle cx="599.02" cy="399.85" r="3" fill="#2ca02c" fill-opacity="0.7000000000000001" /><circle cx="599.45" cy="391.79" r="3" fill="#2ca02c" fill-opacity="0.7000000000000001" /><circle cx="596.22" cy="398.31" r="3" fill="#2ca02c" fill-opacity="0.7000000000000001" /><circle cx="594.94" cy="358" r="3" fill="#2ca02c" fill-opacity="0.7000000000000001" /><circle cx="598.5" cy="350.56" r="3" fill="#2ca02c" fill-opacity="0.7000000000000001" /><circle cx="601.34" cy="401.67" r="3" fill="#2ca02c" fill-opacity="0.7000000000000001" /><circle cx="601.08" cy="356.28000000000003" r="3" fill="#2ca02c" fill-opacity="0.7000000000000001" /><circle cx="599.15" cy="371.53000000000003" r="3" fill="#2ca02c" fill-opacity="0.7000000000000001" /><circle cx="600.1" cy="401.58" r="3" fill="#2ca02c" fill-opacity="0.7000000000000001" /><circle cx="600.76" cy="345.55" r="3" fill="#2ca02c" fill-opacity="0.7000000000000001" /><circle cx="599.62" cy="219.71" r="3" fill="#2ca02c" fill-opacity="0.7000000000000001" /><circle cx="598.97" cy="401.14" r="3" fill="#2ca02c" fill-opacity="0.7000000000000001" /><circle cx="601.15" cy="167.57" r="3" fill="#2ca02c" fill-opacity="0.7000000000000001" /><circle cx="595.78" cy="394.55" r="3" fill="#2ca02c" fill-opacity="0.7000000000000001" /><circle cx="601" cy="384.72" r="3" fill="#2ca02c" fill-opacity="0.7000000000000001" /><circle cx="597.3000000000001" cy="401.74" r="3" fill="#2ca02c" fill-opacity="0.7000000000000001" /><circle cx="600.97" cy="402.5" r="3" fill="#2ca02c" fill-opacity="0.7000000000000001" /><circle cx="603.96" cy="375.19" r="3" fill="#2ca02c" fill-opacity="0.7000000000000001" /><circle cx="601.62" cy="321.26" r="3" fill="#2ca02c" fill-opacity="0.7000000000000001" /><circle cx="601.26" cy="382.87" r="3" fill="#2ca02c" fill-opacity="0.7000000000000001" /><circle cx="598.47" cy="358.33" r="3" fill="#2ca02c" fill-opacity="0.7000000000000001" /><circle cx="597.94" cy="390.65000000000003" r="3" fill="#2ca02c" fill-opacity="0.7000000000000001" /><circle cx="599.95" cy="355.01" r="3" fill="#2ca02c" fill-opacity="0.7000000000000001" /><circle cx="602.25" cy="401.11" r="3" fill="#2ca02c" fill-opacity="0.7000000000000001" /><circle cx="600.62" cy="375.65000000000003" r="3" fill="#2ca02c" fill-opacity="0.7000000000000001" /><circle cx="594.98" cy="348.38" r="3" fill="#2ca02c" fill-opacity="0.7000000000000001" /><circle cx="600.51" cy="385.58" r="3" fill="#2ca02c" fill-opacity="0.7000000000000001" /><circle cx="595.71" cy="403.1" r="3" fill="#2ca02c" fill-opacity="0.7000000000000001" /><circle cx="599.13" cy="383.05" r="3" fill="#2ca02c" fill-opacity="0.7000000000000001" /><circle cx="594.14" cy="340.75" r="3" fill="#2ca02c" fill-opacity="0.7000000000000001" /><circle cx="602.11" cy="388.11" r="3" fill="#2ca02c" fill-opacity="0.7000000000000001" /><circle cx="598.46" cy="392.90000000000003" r="3" fill="#2ca02c" fill-opacity="0.7000000000000001" /><circle cx="599.23" cy="398.90000000000003" r="3" fill="#2ca02c" fill-opacity="0.7000000000000001" /><circle cx="597.97" cy="375.66" r="3" fill="#2ca02c" fill-opacity="0.7000000000000001" /><circle cx="602.27" cy="393.55" r="3" fill="#2ca02c" fill-opacity="0.7000000000000001" /><circle cx="598.5500000000001" cy="402.64" r="3" fill="#2ca02c" fill-opacity="0.7000000000000001" /><circle cx="597.25" cy="381.22" r="3" fill="#2ca02c" fill-opacity="0.7000000000000001" /><circle cx="594.12" cy="294.38" r="3" fill="#2ca02c" fill-opacity="0.7000000000000001" /><circle cx="599.27" cy="357.76" r="3" fill="#2ca02c" fill-opacity="0.7000000000000001" /><circle cx="599.34" cy="390.89" r="3" fill="#2ca02c" fill-opacity="0.7000000000000001" /><circle cx="598.1" cy="290.92" r="3" fill="#2ca02c" fill-opacity="0.7000000000000001" /><circle cx="603.6" cy="368.55" r="3" fill="#2ca02c" fill-opacity="0.7000000000000001" /><circle cx="601.3000000000001" cy="349.95" r="3" fill="#2ca02c" fill-opacity="0.7000000000000001" /><circle cx="603.36" cy="393.5" r="3" fill="#2ca02c" fill-opacity="0.7000000000000001" /><circle cx="600.04" cy="396.69" r="3" fill="#2ca02c" fill-opacity="0.7000000000000001" /><circle cx="603.1" cy="396.31" r="3" fill="#2ca02c" fill-opacity="0.7000000000000001" /><circle cx="597.34" cy="394.19" r="3" fill="#2ca02c" fill-opacity="0.7000000000000001" /><circle cx="599.21" cy="367.98" r="3" fill="#2ca02c" fill-opacity="0.7000000000000001" /><circle cx="598.09" cy="390.41" r="3" fill="#2ca02c" fill-opacity="0.7000000000000001" /><circle cx="601.41" cy="383.29" r="3" fill="#2ca02c" fill-opacity="0.7000000000000001" /><circle cx="595.0500000000001" cy="346.65000000000003" r="3" fill="#2ca02c" fill-opacity="0.7000000000000001" /><circle cx="594.59" cy="371.86" r="3" fill="#2ca02c" fill-opacity="0.7000000000000001" /><circle cx="596.67" cy="383.01" r="3" fill="#2ca02c" fill-opacity="0.7000000000000001" /><circle cx="600.39" cy="365.7" r="3" fill="#2ca02c" fill-opacity="0.7000000000000001" /><circle cx="602.79" cy="388.13" r="3" fill="#2ca02c" fill-opacity="0.7000000000000001" /><circle cx="600.11" cy="390.16" r="3" fill="#2ca02c" fill-opacity="0.7000000000000001" /><circle cx="598.83" cy="395.84000000000003" r="3" fill="#2ca02c" fill-opacity="0.7000000000000001" /><circle cx="598.22" cy="325.39" r="3" fill="#2ca02c" fill-opacity="0.7000000000000001" /><circle cx="600.27" cy="358.66" r="3" fill="#2ca02c" fill-opacity="0.7000000000000001" /><circle cx="603.79" cy="382.29" r="3" fill="#2ca02c" fill-opacity="0.7000000000000001" /><circle cx="602.42" cy="403.89" r="3" fill="#2ca02c" fill-opacity="0.7000000000000001" /><circle cx="596.45" cy="379.3" r="3" fill="#2ca02c" fill-opacity="0.7000000000000001" /><circle cx="594.52" cy="371.6" r="3" fill="#2ca02c" fill-opacity="0.7000000000000001" /><circle cx="600.85" cy="340.64" r="3" fill="#2ca02c" fill-opacity="0.7000000000000001" /><circle cx="598.25" cy="345.55" r="3" fill="#2ca02c" fill-opacity="0.7000000000000001" /><circle cx="599.6800000000001" cy="383.72" r="3" fill="#2ca02c" fill-opacity="0.7000000000000001" /><circle cx="597.69" cy="343.91" r="3" fill="#2ca02c" fill-opacity="0.7000000000000001" /><circle cx="598.73" cy="375.56" r="3" fill="#2ca02c" fill-opacity="0.7000000000000001" /><circle cx="601.38" cy="392.25" r="3" fill="#2ca02c" fill-opacity="0.7000000000000001" /><circle cx="598.84" cy="347.14" r="3" fill="#2ca02c" fill-opacity="0.7000000000000001" /><circle cx="594.19" cy="403.68" r="3" fill="#2ca02c" fill-opacity="0.7000000000000001" /><circle cx="599.17" cy="347.7" r="3" fill="#2ca02c" fill-opacity="0.7000000000000001" /><circle cx="603.17" cy="385.69" r="3" fill="#2ca02c" fill-opacity="0.7000000000000001" /><circle cx="601.64" cy="277.52" r="3" fill="#2ca02c" fill-opacity="0.7000000000000001" /><circle cx="600.65" cy="344.44" r="3" fill="#2ca02c" fill-opacity="0.7000000000000001" /><circle cx="600.66" cy="329.43" r="3" fill="#2ca02c" fill-opacity="0.7000000000000001" /><circle cx="599.91" cy="390.37" r="3" fill="#2ca02c" fill-opacity="0.7000000000000001" /><circle cx="594.5500000000001" cy="390.71000000000004" r="3" fill="#2ca02c" fill-opacity="0.7000000000000001" /><circle cx="595.01" cy="354.12" r="3" fill="#2ca02c" fill-opacity="0.7000000000000001" /><circle cx="597.8000000000001" cy="384.90000000000003" r="3" fill="#2ca02c" fill-opacity="0.7000000000000001" /><circle cx="603.39" cy="375.05" r="3" fill="#2ca02c" fill-opacity="0.7000000000000001" /><circle cx="598.4300000000001" cy="401.7" r="3" fill="#2ca02c" fill-opacity="0.7000000000000001" /><circle cx="598.38" cy="358.16" r="3" fill="#2ca02c" fill-opacity="0.7000000000000001" /><circle cx="595.83" cy="354.91" r="3" fill="#2ca02c" fill-opacity="0.7000000000000001" /><circle cx="601.77" cy="362.12" r="3" fill="#2ca02c" fill-opacity="0.7000000000000001" /><circle cx="598.08" cy="391.41" r="3" fill="#2ca02c" fill-opacity="0.7000000000000001" /></g></svg>