<svg xmlns="http://www.w3.org/2000/svg" width="673" height="545" font-family="DejaVu Sans, Liberation Sans, Arial, sans-serif" fill="black"><rect width="100%" height="100%" fill="white" /><defs><clipPath id="kuva-clip-2"><rect x="59" y="44" width="600" height="450"/></clipPath></defs><line x1="59" y1="400.25" x2="659" y2="400.25" stroke="#cccccc" stroke-width="1" /><line x1="59" y1="306.5" x2="659" y2="306.5" stroke="#cccccc" stroke-width="1" /><line x1="59" y1="212.75" x2="659" y2="212.75" stroke="#cccccc" stroke-width="1" /><line x1="59" y1="119" x2="659" y2="119" stroke="#cccccc" stroke-width="1" /><line x1="59" y1="494" x2="659" y2="494" stroke="#000000" stroke-width="1" /><line x1="59" y1="44" x2="59" y2="494" stroke="#000000" stroke-width="1" /><text x="159" y="511" font-size="12" text-anchor="middle">Control</text><line x1="159" y1="494" x2="159" y2="499" stroke="#000000" stroke-width="1" /><text x="359" y="511" font-size="12" text-anchor="middle">Low dose</text><line x1="359" y1="494" x2="359" y2="499" stroke="#000000" stroke-width="1" /><text x="559" y="511" font-size="12" text-anchor="middle">High dose</text><line x1="559" y1="494" x2="559" y2="499" stroke="#000000" stroke-width="1" /><line x1="54" y1="494" x2="59" y2="494" stroke="#000000" stroke-width="1" /><text x="51" y="498.2" font-size="12" text-anchor="end">0</text><line x1="54" y1="400.25" x2="59" y2="400.25" stroke="#000000" stroke-width="1" /><text x="51" y="404.45" font-size="12" text-anchor="end">2.5</text><line x1="54" y1="306.5" x2="59" y2="306.5" stroke="#000000" stroke-width="1" /><text x="51" y="310.7" font-size="12" text-anchor="end">5</text><line x1="54" y1="212.75" x2="59" y2="212.75" stroke="#000000" stroke-width="1" /><text x="51" y="216.95000000000002" font-size="12" text-anchor="end">7.5</text><line x1="54" y1="119" x2="59" y2="119" stroke="#000000" stroke-width="1" /><text x="51" y="123.2" font-size="12" text-anchor="end">10</text><text x="359" y="538" font-size="14" text-anchor="middle">Treatment</text><text x="15" y="272.5" font-size="14" text-anchor="middle" transform="rotate(-90,15,272.5)">Response</text><text x="336.5" y="27.400000000000002" font-size="18" text-anchor="middle">Raincloud Plot — Per-group Colors</text><g clip-path="url(#kuva-clip-2)"><path d="M 190.76 413.77 L 190.86 412.34000000000003 L 190.94 410.91 L 191.0 409.48 L 191.05 408.05 L 191.08 406.62 L 191.1 405.19 L 191.1 403.76 L 191.08 402.33 L 191.05 400.89 L 191.01 399.46000000000004 L 190.96 398.03000000000003 L 190.91 396.6 L 190.85 395.17 L 190.79 393.74 L 190.74 392.31 L 190.70000000000002 390.88 L 190.66 389.45 L 190.65 388.02 L 190.65 386.59000000000003 L 190.68 385.15000000000003 L 190.73 383.72 L 190.81 382.29 L 190.92000000000002 380.86 L 191.07 379.43 L 191.25 378.0 L 191.47 376.57 L 191.73000000000002 375.14 L 192.04 373.71 L 192.39000000000001 372.28000000000003 L 192.79 370.85 L 193.24 369.42 L 193.74 367.98 L 194.31 366.55 L 194.93 365.12 L 195.61 363.69 L 196.36 362.26 L 197.16 360.83 L 198.02 359.40000000000003 L 198.94 357.97 L 199.89000000000001 356.54 L 200.88 355.11 L 201.9 353.68 L 202.93 352.24 L 203.97 350.81 L 204.99 349.38 L 205.99 347.95 L 206.95000000000002 346.52 L 207.87 345.09000000000003 L 208.74 343.66 L 209.55 342.23 L 210.29 340.8 L 210.97 339.37 L 211.59 337.94 L 212.14000000000001 336.51 L 212.64000000000001 335.07 L 213.09 333.64 L 213.49 332.21 L 213.87 330.78000000000003 L 214.21 329.35 L 214.54 327.92 L 214.86 326.49 L 215.18 325.06 L 215.5 323.63 L 215.82 322.2 L 216.14000000000001 320.77 L 216.47 319.34000000000003 L 216.8 317.90000000000003 L 217.13 316.47 L 217.46 315.04 L 217.76 313.61 L 218.05 312.18 L 218.31 310.75 L 218.54 309.32 L 218.72 307.89 L 218.86 306.46 L 218.96 305.03000000000003 L 219.0 303.6 L 218.99 302.16 L 218.92000000000002 300.73 L 218.8 299.3 L 218.63 297.87 L 218.41 296.44 L 218.13 295.01 L 217.81 293.58 L 217.44 292.15000000000003 L 217.03 290.72 L 216.58 289.29 L 216.1 287.86 L 215.58 286.43 L 215.04 284.99 L 214.48000000000002 283.56 L 213.9 282.13 L 213.31 280.7 L 212.71 279.27 L 212.11 277.84000000000003 L 211.51 276.41 L 210.93 274.98 L 210.36 273.55 L 209.8 272.12 L 209.26 270.69 L 208.74 269.25 L 208.24 267.82 L 207.74 266.39 L 207.25 264.96 L 206.77 263.53000000000003 L 206.28 262.1 L 205.79 260.67 L 205.28 259.24 L 204.75 257.81 L 204.19 256.38 L 203.62 254.95000000000002 L 203.01 253.52 L 202.39000000000001 252.08 L 201.74 250.65 L 201.07 249.22 L 200.39000000000001 247.79 L 199.71 246.36 L 199.03 244.93 L 198.35 243.5 L 197.68 242.07 L 197.04 240.64000000000001 L 196.41 239.21 L 195.81 237.78 L 195.24 236.34 L 194.70000000000002 234.91 L 194.20000000000002 233.48000000000002 L 193.73000000000002 232.05 L 193.29 230.62 L 192.89000000000001 229.19 L 192.53 227.76 L 192.20000000000002 226.33 L 191.9 224.9 L 191.63 223.47 L 191.39000000000001 222.04 L 191.17000000000002 220.61 L 190.99 219.17000000000002 L 190.82 217.74 L 190.68 216.31 L 190.56 214.88 L 190.45000000000002 213.45000000000002 L 190.36 212.02 L 190.27 210.59 L 190.20000000000002 209.16 L 190.13 207.73000000000002 L 190.07 206.3 L 190.01 204.87 L 189.95000000000002 203.43 L 189.0 203.43 L 189.0 204.87 L 189.0 206.3 L 189.0 207.73000000000002 L 189.0 209.16 L 189.0 210.59 L 189.0 212.02 L 189.0 213.45000000000002 L 189.0 214.88 L 189.0 216.31 L 189.0 217.74 L 189.0 219.17000000000002 L 189.0 220.61 L 189.0 222.04 L 189.0 223.47 L 189.0 224.9 L 189.0 226.33 L 189.0 227.76 L 189.0 229.19 L 189.0 230.62 L 189.0 232.05 L 189.0 233.48000000000002 L 189.0 234.91 L 189.0 236.34 L 189.0 237.78 L 189.0 239.21 L 189.0 240.64000000000001 L 189.0 242.07 L 189.0 243.5 L 189.0 244.93 L 189.0 246.36 L 189.0 247.79 L 189.0 249.22 L 189.0 250.65 L 189.0 252.08 L 189.0 253.52 L 189.0 254.95000000000002 L 189.0 256.38 L 189.0 257.81 L 189.0 259.24 L 189.0 260.67 L 189.0 262.1 L 189.0 263.53000000000003 L 189.0 264.96 L 189.0 266.39 L 189.0 267.82 L 189.0 269.25 L 189.0 270.69 L 189.0 272.12 L 189.0 273.55 L 189.0 274.98 L 189.0 276.41 L 189.0 277.84000000000003 L 189.0 279.27 L 189.0 280.7 L 189.0 282.13 L 189.0 283.56 L 189.0 284.99 L 189.0 286.43 L 189.0 287.86 L 189.0 289.29 L 189.0 290.72 L 189.0 292.15000000000003 L 189.0 293.58 L 189.0 295.01 L 189.0 296.44 L 189.0 297.87 L 189.0 299.3 L 189.0 300.73 L 189.0 302.16 L 189.0 303.6 L 189.0 305.03000000000003 L 189.0 306.46 L 189.0 307.89 L 189.0 309.32 L 189.0 310.75 L 189.0 312.18 L 189.0 313.61 L 189.0 315.04 L 189.0 316.47 L 189.0 317.90000000000003 L 189.0 319.34000000000003 L 189.0 320.77 L 189.0 322.2 L 189.0 323.63 L 189.0 325.06 L 189.0 326.49 L 189.0 327.92 L 189.0 329.35 L 189.0 330.78000000000003 L 189.0 332.21 L 189.0 333.64 L 189.0 335.07 L 189.0 336.51 L 189.0 337.94 L 189.0 339.37 L 189.0 340.8 L 189.0 342.23 L 189.0 343.66 L 189.0 345.09000000000003 L 189.0 346.52 L 189.0 347.95 L 189.0 349.38 L 189.0 350.81 L 189.0 352.24 L 189.0 353.68 L 189.0 355.11 L 189.0 356.54 L 189.0 357.97 L 189.0 359.40000000000003 L 189.0 360.83 L 189.0 362.26 L 189.0 363.69 L 189.0 365.12 L 189.0 366.55 L 189.0 367.98 L 189.0 369.42 L 189.0 370.85 L 189.0 372.28000000000003 L 189.0 373.71 L 189.0 375.14 L 189.0 376.57 L 189.0 378.0 L 189.0 379.43 L 189.0 380.86 L 189.0 382.29 L 189.0 383.72 L 189.0 385.15000000000003 L 189.0 386.59000000000003 L 189.0 388.02 L 189.0 389.45 L 189.0 390.88 L 189.0 392.31 L 189.0 393.74 L 189.0 395.17 L 189.0 396.6 L 189.0 398.03000000000003 L 189.0 399.46000000000004 L 189.0 400.89 L 189.0 402.33 L 189.0 403.76 L 189.0 405.19 L 189.0 406.62 L 189.0 408.05 L 189.0 409.48 L 189.0 410.91 L 189.0 412.34000000000003 L 189.0 413.77 Z" stroke="#4878d0" stroke-width="0.5" fill="#4878d0" fill-opacity="0.7000000000000001" /><rect x="151" y="280.2" width="16" height="49.11" fill="#4878d0" /><line x1="151" y1="304.67" x2="167" y2="304.67" stroke="#ffffff" stroke-width="1.5" /><line x1="159" y1="401.47" x2="159" y2="329.31" stroke="#4878d0" stroke-width="1" /><line x1="159" y1="280.2" x2="159" y2="219.99" stroke="#4878d0" stroke-width="1" /><line x1="155" y1="401.47" x2="163" y2="401.47" stroke="#4878d0" stroke-width="1" /><line x1="155" y1="219.99" x2="163" y2="219.99" stroke="#4878d0" stroke-width="1" /><circle cx="122.60000000000001" cy="334.55" r="3" fill="#4878d0" fill-opacity="0.7000000000000001" /><circle cx="121.69" cy="290" r="3" fill="#4878d0" fill-opacity="0.7000000000000001" /><circle cx="123.38000000000001" cy="358.91" r="3" fill="#4878d0" fill-opacity="0.7000000000000001" /><circle cx="114.95" cy="253.89000000000001" r="3" fill="#4878d0" fill-opacity="0.7000000000000001" /><circle cx="117.85000000000001" cy="284.38" r="3" fill="#4878d0" fill-opacity="0.7000000000000001" /><circle cx="115.06" cy="334.07" r="3" fill="#4878d0" fill-opacity="0.7000000000000001" /><circle cx="114.16" cy="279.81" r="3" fill="#4878d0" fill-opacity="0.7000000000000001" /><circle cx="116.92" cy="370.94" r="3" fill="#4878d0" fill-opacity="0.7000000000000001" /><circle cx="118.69" cy="321.76" r="3" fill="#4878d0" fill-opacity="0.7000000000000001" /><circle cx="122.44" cy="326.63" r="3" fill="#4878d0" fill-opacity="0.7000000000000001" /><circle cx="114.8" cy="346.69" r="3" fill="#4878d0" fill-opacity="0.7000000000000001" /><circle cx="122.81" cy="318.28000000000003" r="3" fill="#4878d0" fill-opacity="0.7000000000000001" /><circle cx="114.26" cy="304.29" r="3" fill="#4878d0" fill-opacity="0.7000000000000001" /><circle cx="117.42" cy="321.95" r="3" fill="#4878d0" fill-opacity="0.7000000000000001" /><circle cx="118.84" cy="401.47" r="3" fill="#4878d0" fill-opacity="0.7000000000000001" /><circle cx="119.55" cy="275.04" r="3" fill="#4878d0" fill-opacity="0.7000000000000001" /><circle cx="118.56" cy="319.19" r="3" fill="#4878d0" fill-opacity="0.7000000000000001" /><circle cx="122.82000000000001" cy="326.55" r="3" fill="#4878d0" fill-opacity="0.7000000000000001" /><circle cx="119.96000000000001" cy="285.51" r="3" fill="#4878d0" fill-opacity="0.7000000000000001" /><circle cx="122.84" cy="329.56" r="3" fill="#4878d0" fill-opacity="0.7000000000000001" /><circle cx="116.71000000000001" cy="276.6" r="3" fill="#4878d0" fill-opacity="0.7000000000000001" /><circle cx="116.06" cy="409.25" r="3" fill="#4878d0" fill-opacity="0.7000000000000001" /><circle cx="122.67" cy="309.19" r="3" fill="#4878d0" fill-opacity="0.7000000000000001" /><circle cx="114.16" cy="336.13" r="3" fill="#4878d0" fill-opacity="0.7000000000000001" /><circle cx="119.12" cy="271.53000000000003" r="3" fill="#4878d0" fill-opacity="0.7000000000000001" /><circle cx="120.01" cy="361" r="3" fill="#4878d0" fill-opacity="0.7000000000000001" /><circle cx="119.76" cy="337.46" r="3" fill="#4878d0" fill-opacity="0.7000000000000001" /><circle cx="117.66" cy="275.15000000000003" r="3" fill="#4878d0" fill-opacity="0.7000000000000001" /><circle cx="118.96000000000001" cy="305.37" r="3" fill="#4878d0" fill-opacity="0.7000000000000001" /><circle cx="118.76" cy="344.2" r="3" fill="#4878d0" fill-opacity="0.7000000000000001" /><circle cx="114.85000000000001" cy="299.15000000000003" r="3" fill="#4878d0" fill-opacity="0.7000000000000001" /><circle cx="117.81" cy="344" r="3" fill="#4878d0" fill-opacity="0.7000000000000001" /><circle cx="114.31" cy="414.65000000000003" r="3" fill="#4878d0" fill-opacity="0.7000000000000001" /><circle cx="116.86" cy="282.47" r="3" fill="#4878d0" fill-opacity="0.7000000000000001" /><circle cx="121.18" cy="295.29" r="3" fill="#4878d0" fill-opacity="0.7000000000000001" /><circle cx="118.68" cy="336.49" r="3" fill="#4878d0" fill-opacity="0.7000000000000001" /><circle cx="120.26" cy="300.49" r="3" fill="#4878d0" fill-opacity="0.7000000000000001" /><circle cx="123.04" cy="248.62" r="3" fill="#4878d0" fill-opacity="0.7000000000000001" /><circle cx="116.81" cy="302.53000000000003" r="3" fill="#4878d0" fill-opacity="0.7000000000000001" /><circle cx="114.86" cy="346.2" r="3" fill="#4878d0" fill-opacity="0.7000000000000001" /><circle cx="116.91" cy="333" r="3" fill="#4878d0" fill-opacity="0.7000000000000001" /><circle cx="120.27" cy="257.04" r="3" fill="#4878d0" fill-opacity="0.7000000000000001" /><circle cx="117.16" cy="257.46" r="3" fill="#4878d0" fill-opacity="0.7000000000000001" /><circle cx="122.25" cy="307.77" r="3" fill="#4878d0" fill-opacity="0.7000000000000001" /><circle cx="116.97" cy="336.94" r="3" fill="#4878d0" fill-opacity="0.7000000000000001" /><circle cx="118.48" cy="312.55" r="3" fill="#4878d0" fill-opacity="0.7000000000000001" /><circle cx="117.38" cy="283.47" r="3" fill="#4878d0" fill-opacity="0.7000000000000001" /><circle cx="116.64" cy="315.11" r="3" fill="#4878d0" fill-opacity="0.7000000000000001" /><circle cx="115.9" cy="308.57" r="3" fill="#4878d0" fill-opacity="0.7000000000000001" /><circle cx="116.25" cy="259.35" r="3" fill="#4878d0" fill-opacity="0.7000000000000001" /><circle cx="117.16" cy="289.41" r="3" fill="#4878d0" fill-opacity="0.7000000000000001" /><circle cx="122.19" cy="331.19" r="3" fill="#4878d0" fill-opacity="0.7000000000000001" /><circle cx="114.78" cy="281.39" r="3" fill="#4878d0" fill-opacity="0.7000000000000001" /><circle cx="119.56" cy="291.42" r="3" fill="#4878d0" fill-opacity="0.7000000000000001" /><circle cx="116.78" cy="313.86" r="3" fill="#4878d0" fill-opacity="0.7000000000000001" /><circle cx="120.27" cy="219.99" r="3" fill="#4878d0" fill-opacity="0.7000000000000001" /><circle cx="114.35000000000001" cy="299.53000000000003" r="3" fill="#4878d0" fill-opacity="0.7000000000000001" /><circle cx="118.61" cy="261.37" r="3" fill="#4878d0" fill-opacity="0.7000000000000001" /><circle cx="123.46000000000001" cy="272.28000000000003" r="3" fill="#4878d0" fill-opacity="0.7000000000000001" /><circle cx="118.5" cy="310.55" r="3" fill="#4878d0" fill-opacity="0.7000000000000001" /><circle cx="114.14" cy="297.83" r="3" fill="#4878d0" fill-opacity="0.7000000000000001" /><circle cx="118.93" cy="293.46" r="3" fill="#4878d0" fill-opacity="0.7000000000000001" /><circle cx="114.65" cy="309.47" r="3" fill="#4878d0" fill-opacity="0.7000000000000001" /><circle cx="123.06" cy="328.56" r="3" fill="#4878d0" fill-opacity="0.7000000000000001" /><circle cx="121.84" cy="293.95" r="3" fill="#4878d0" fill-opacity="0.7000000000000001" /><circle cx="121.53" cy="273.21" r="3" fill="#4878d0" fill-opacity="0.7000000000000001" /><circle cx="118.36" cy="324.19" r="3" fill="#4878d0" fill-opacity="0.7000000000000001" /><circle cx="116.48" cy="286.43" r="3" fill="#4878d0" fill-opacity="0.7000000000000001" /><circle cx="115.77" cy="306.01" r="3" fill="#4878d0" fill-opacity="0.7000000000000001" /><circle cx="122.86" cy="283.18" r="3" fill="#4878d0" fill-opacity="0.7000000000000001" /><circle cx="122.57000000000001" cy="282.32" r="3" fill="#4878d0" fill-opacity="0.7000000000000001" /><circle cx="119.16" cy="241.09" r="3" fill="#4878d0" fill-opacity="0.7000000000000001" /><circle cx="122.48" cy="260.47" r="3" fill="#4878d0" fill-opacity="0.7000000000000001" /><circle cx="117.25" cy="271.61" r="3" fill="#4878d0" fill-opacity="0.7000000000000001" /><circle cx="116.73" cy="339.59000000000003" r="3" fill="#4878d0" fill-opacity="0.7000000000000001" /><circle cx="118.84" cy="264.32" r="3" fill="#4878d0" fill-opacity="0.7000000000000001" /><circle cx="119.74000000000001" cy="240.34" r="3" fill="#4878d0" fill-opacity="0.7000000000000001" /><circle cx="119.91" cy="314.03000000000003" r="3" fill="#4878d0" fill-opacity="0.7000000000000001" /><circle cx="123.09" cy="349.25" r="3" fill="#4878d0" fill-opacity="0.7000000000000001" /><circle cx="115.99000000000001" cy="231.55" r="3" fill="#4878d0" fill-opacity="0.7000000000000001" /><circle cx="116.22" cy="345.46" r="3" fill="#4878d0" fill-opacity="0.7000000000000001" /><circle cx="120.05" cy="274.29" r="3" fill="#4878d0" fill-opacity="0.7000000000000001" /><circle cx="117.24000000000001" cy="306.32" r="3" fill="#4878d0" fill-opacity="0.7000000000000001" /><circle cx="122.43" cy="250.68" r="3" fill="#4878d0" fill-opacity="0.7000000000000001" /><circle cx="122.60000000000001" cy="341.31" r="3" fill="#4878d0" fill-opacity="0.7000000000000001" /><circle cx="114.38" cy="310.8" r="3" fill="#4878d0" fill-opacity="0.7000000000000001" /><circle cx="116.31" cy="305.01" r="3" fill="#4878d0" fill-opacity="0.7000000000000001" /><circle cx="115.46000000000001" cy="314.17" r="3" fill="#4878d0" fill-opacity="0.7000000000000001" /><circle cx="123.11" cy="303.11" r="3" fill="#4878d0" fill-opacity="0.7000000000000001" /><circle cx="121.7" cy="237.36" r="3" fill="#4878d0" fill-opacity="0.7000000000000001" /><circle cx="118.15" cy="279.78000000000003" r="3" fill="#4878d0" fill-opacity="0.7000000000000001" /><circle cx="117.96000000000001" cy="330.90000000000003" r="3" fill="#4878d0" fill-opacity="0.7000000000000001" /><circle cx="114.35000000000001" cy="256.54" r="3" fill="#4878d0" fill-opacity="0.7000000000000001" /><circle cx="120.66" cy="250.43" r="3" fill="#4878d0" fill-opacity="0.7000000000000001" /><circle cx="115.19" cy="258.53000000000003" r="3" fill="#4878d0" fill-opacity="0.7000000000000001" /><circle cx="121.54" cy="323.87" r="3" fill="#4878d0" fill-opacity="0.7000000000000001" /><circle cx="116.32000000000001" cy="331.65000000000003" r="3" fill="#4878d0" fill-opacity="0.7000000000000001" /><circle cx="123.51" cy="328.32" r="3" fill="#4878d0" fill-opacity="0.7000000000000001" /><circle cx="120.23" cy="308.92" r="3" fill="#4878d0" fill-opacity="0.7000000000000001" /><circle cx="117.37" cy="297.03000000000003" r="3" fill="#4878d0" fill-opacity="0.7000000000000001" /><circle cx="118.85000000000001" cy="323.42" r="3" fill="#4878d0" fill-opacity="0.7000000000000001" /><circle cx="120.69" cy="253.99" r="3" fill="#4878d0" fill-opacity="0.7000000000000001" /><circle cx="122.49000000000001" cy="305.11" r="3" fill="#4878d0" fill-opacity="0.7000000000000001" /><circle cx="115.44" cy="316.42" r="3" fill="#4878d0" fill-opacity="0.7000000000000001" /><circle cx="115.64" cy="295.05" r="3" fill="#4878d0" fill-opacity="0.7000000000000001" /><circle cx="115.55" cy="296.49" r="3" fill="#4878d0" fill-opacity="0.7000000000000001" /><circle cx="118.95" cy="315.25" r="3" fill="#4878d0" fill-opacity="0.7000000000000001" /><circle cx="119" cy="348.6" r="3" fill="#4878d0" fill-opacity="0.7000000000000001" /><circle cx="114.23" cy="291.03000000000003" r="3" fill="#4878d0" fill-opacity="0.7000000000000001" /><circle cx="119.55" cy="345.95" r="3" fill="#4878d0" fill-opacity="0.7000000000000001" /><circle cx="117.25" cy="253.6" r="3" fill="#4878d0" fill-opacity="0.7000000000000001" /><circle cx="116.46000000000001" cy="264.75" r="3" fill="#4878d0" fill-opacity="0.7000000000000001" /><circle cx="120.73" cy="295.43" r="3" fill="#4878d0" fill-opacity="0.7000000000000001" /><circle cx="120.5" cy="294.66" r="3" fill="#4878d0" fill-opacity="0.7000000000000001" /><circle cx="121.65" cy="202.55" r="3" fill="#4878d0" fill-opacity="0.7000000000000001" /><circle cx="116.5" cy="319.84000000000003" r="3" fill="#4878d0" fill-opacity="0.7000000000000001" /><circle cx="118.63" cy="259.05" r="3" fill="#4878d0" fill-opacity="0.7000000000000001" /><circle cx="115.84" cy="300.74" r="3" fill="#4878d0" fill-opacity="0.7000000000000001" /><circle cx="121.75" cy="282.35" r="3" fill="#4878d0" fill-opacity="0.7000000000000001" /><circle cx="115.52" cy="241.02" r="3" fill="#4878d0" fill-opacity="0.7000000000000001" /><circle cx="123.17" cy="304.33" r="3" fill="#4878d0" fill-opacity="0.7000000000000001" /><circle cx="122.35000000000001" cy="313.92" r="3" fill="#4878d0" fill-opacity="0.7000000000000001" /><circle cx="117.10000000000001" cy="341.68" r="3" fill="#4878d0" fill-opacity="0.7000000000000001" /><circle cx="122.32000000000001" cy="269.15" r="3" fill="#4878d0" fill-opacity="0.7000000000000001" /><circle cx="115.43" cy="340.79" r="3" fill="#4878d0" fill-opacity="0.7000000000000001" /><circle cx="118.45" cy="256.51" r="3" fill="#4878d0" fill-opacity="0.7000000000000001" /><circle cx="115.96000000000001" cy="369.07" r="3" fill="#4878d0" fill-opacity="0.7000000000000001" /><circle cx="117.65" cy="325.13" r="3" fill="#4878d0" fill-opacity="0.7000000000000001" /><circle cx="123.16" cy="334.34000000000003" r="3" fill="#4878d0" fill-opacity="0.7000000000000001" /><circle cx="115.59" cy="349" r="3" fill="#4878d0" fill-opacity="0.7000000000000001" /><circle cx="122.03" cy="276.98" r="3" fill="#4878d0" fill-opacity="0.7000000000000001" /><circle cx="116.5" cy="294.37" r="3" fill="#4878d0" fill-opacity="0.7000000000000001" /><circle cx="123.61" cy="271.64" r="3" fill="#4878d0" fill-opacity="0.7000000000000001" /><circle cx="122.7" cy="327.77" r="3" fill="#4878d0" fill-opacity="0.7000000000000001" /><circle cx="123.42" cy="334.8" r="3" fill="#4878d0" fill-opacity="0.7000000000000001" /><circle cx="114.11" cy="283.03000000000003" r="3" fill="#4878d0" fill-opacity="0.7000000000000001" /><circle cx="117.67" cy="344.3" r="3" fill="#4878d0" fill-opacity="0.7000000000000001" /><circle cx="116.72" cy="350.47" r="3" fill="#4878d0" fill-opacity="0.7000000000000001" /><circle cx="120.07000000000001" cy="265.43" r="3" fill="#4878d0" fill-opacity="0.7000000000000001" /><circle cx="115.17" cy="346.85" r="3" fill="#4878d0" fill-opacity="0.7000000000000001" /><circle cx="117.2" cy="286.5" r="3" fill="#4878d0" fill-opacity="0.7000000000000001" /><circle cx="118.95" cy="309.89" r="3" fill="#4878d0" fill-opacity="0.7000000000000001" /><circle cx="122.59" cy="291.14" r="3" fill="#4878d0" fill-opacity="0.7000000000000001" /><circle cx="115.73" cy="288.76" r="3" fill="#4878d0" fill-opacity="0.7000000000000001" /><circle cx="116.55" cy="299.96" r="3" fill="#4878d0" fill-opacity="0.7000000000000001" /><circle cx="121.08" cy="318.35" r="3" fill="#4878d0" fill-opacity="0.7000000000000001" /><circle cx="115.36" cy="393.75" r="3" fill="#4878d0" fill-opacity="0.7000000000000001" /><circle cx="115.29" cy="310.75" r="3" fill="#4878d0" fill-opacity="0.7000000000000001" /><circle cx="115.77" cy="290.92" r="3" fill="#4878d0" fill-opacity="0.7000000000000001" /><circle cx="119.44" cy="353.66" r="3" fill="#4878d0" fill-opacity="0.7000000000000001" /><path d="M 390.43 363.21 L 390.57 361.85 L 390.72 360.49 L 390.88 359.14 L 391.05 357.78000000000003 L 391.22 356.43 L 391.41 355.07 L 391.6 353.71 L 391.8 352.36 L 392.01 351.0 L 392.22 349.65000000000003 L 392.44 348.29 L 392.66 346.93 L 392.88 345.58 L 393.11 344.22 L 393.33 342.87 L 393.56 341.51 L 393.8 340.15000000000003 L 394.04 338.8 L 394.28000000000003 337.44 L 394.54 336.09000000000003 L 394.8 334.73 L 395.08 333.37 L 395.38 332.02 L 395.7 330.66 L 396.04 329.31 L 396.40000000000003 327.95 L 396.78000000000003 326.59000000000003 L 397.2 325.24 L 397.64 323.88 L 398.1 322.53000000000003 L 398.59000000000003 321.17 L 399.11 319.81 L 399.65000000000003 318.46 L 400.21000000000004 317.1 L 400.79 315.75 L 401.39 314.39 L 402.01 313.03000000000003 L 402.64 311.68 L 403.29 310.32 L 403.94 308.97 L 404.6 307.61 L 405.26 306.25 L 405.93 304.90000000000003 L 406.59000000000003 303.54 L 407.25 302.19 L 407.91 300.83 L 408.56 299.47 L 409.21000000000004 298.12 L 409.85 296.76 L 410.48 295.41 L 411.1 294.05 L 411.72 292.69 L 412.33 291.34000000000003 L 412.93 289.98 L 413.52 288.63 L 414.09000000000003 287.27 L 414.66 285.91 L 415.21000000000004 284.56 L 415.74 283.2 L 416.24 281.85 L 416.72 280.49 L 417.17 279.13 L 417.57 277.78000000000003 L 417.94 276.42 L 418.26 275.07 L 418.52 273.71 L 418.73 272.35 L 418.88 271.0 L 418.97 269.64 L 419.0 268.29 L 418.97 266.93 L 418.88 265.57 L 418.74 264.22 L 418.54 262.86 L 418.3 261.5 L 418.01 260.15 L 417.69 258.79 L 417.34000000000003 257.44 L 416.97 256.08 L 416.57 254.72 L 416.16 253.37 L 415.73 252.01000000000002 L 415.3 250.66 L 414.85 249.3 L 414.40000000000003 247.94 L 413.94 246.59 L 413.48 245.23000000000002 L 413.02 243.88 L 412.55 242.52 L 412.07 241.16 L 411.6 239.81 L 411.12 238.45000000000002 L 410.65000000000003 237.1 L 410.18 235.74 L 409.71000000000004 234.38 L 409.25 233.03 L 408.8 231.67000000000002 L 408.36 230.32 L 407.93 228.96 L 407.51 227.6 L 407.09000000000003 226.25 L 406.69 224.89000000000001 L 406.28000000000003 223.54 L 405.88 222.18 L 405.47 220.82 L 405.06 219.47 L 404.64 218.11 L 404.21000000000004 216.76 L 403.77 215.4 L 403.33 214.04 L 402.87 212.69 L 402.42 211.33 L 401.96000000000004 209.98000000000002 L 401.5 208.62 L 401.04 207.26 L 400.59000000000003 205.91 L 400.16 204.55 L 399.74 203.20000000000002 L 399.33 201.84 L 398.94 200.48000000000002 L 398.57 199.13 L 398.22 197.77 L 397.89 196.42000000000002 L 397.58 195.06 L 397.29 193.70000000000002 L 397.01 192.35 L 396.75 190.99 L 396.49 189.64000000000001 L 396.25 188.28 L 396.01 186.92000000000002 L 395.77 185.57 L 395.54 184.21 L 395.3 182.86 L 395.06 181.5 L 394.81 180.14000000000001 L 394.55 178.79 L 394.29 177.43 L 394.01 176.08 L 393.73 174.72 L 393.44 173.36 L 393.14 172.01 L 392.84000000000003 170.65 L 392.53000000000003 169.3 L 389.0 169.3 L 389.0 170.65 L 389.0 172.01 L 389.0 173.36 L 389.0 174.72 L 389.0 176.08 L 389.0 177.43 L 389.0 178.79 L 389.0 180.14000000000001 L 389.0 181.5 L 389.0 182.86 L 389.0 184.21 L 389.0 185.57 L 389.0 186.92000000000002 L 389.0 188.28 L 389.0 189.64000000000001 L 389.0 190.99 L 389.0 192.35 L 389.0 193.70000000000002 L 389.0 195.06 L 389.0 196.42000000000002 L 389.0 197.77 L 389.0 199.13 L 389.0 200.48000000000002 L 389.0 201.84 L 389.0 203.20000000000002 L 389.0 204.55 L 389.0 205.91 L 389.0 207.26 L 389.0 208.62 L 389.0 209.98000000000002 L 389.0 211.33 L 389.0 212.69 L 389.0 214.04 L 389.0 215.4 L 389.0 216.76 L 389.0 218.11 L 389.0 219.47 L 389.0 220.82 L 389.0 222.18 L 389.0 223.54 L 389.0 224.89000000000001 L 389.0 226.25 L 389.0 227.6 L 389.0 228.96 L 389.0 230.32 L 389.0 231.67000000000002 L 389.0 233.03 L 389.0 234.38 L 389.0 235.74 L 389.0 237.1 L 389.0 238.45000000000002 L 389.0 239.81 L 389.0 241.16 L 389.0 242.52 L 389.0 243.88 L 389.0 245.23000000000002 L 389.0 246.59 L 389.0 247.94 L 389.0 249.3 L 389.0 250.66 L 389.0 252.01000000000002 L 389.0 253.37 L 389.0 254.72 L 389.0 256.08 L 389.0 257.44 L 389.0 258.79 L 389.0 260.15 L 389.0 261.5 L 389.0 262.86 L 389.0 264.22 L 389.0 265.57 L 389.0 266.93 L 389.0 268.29 L 389.0 269.64 L 389.0 271.0 L 389.0 272.35 L 389.0 273.71 L 389.0 275.07 L 389.0 276.42 L 389.0 277.78000000000003 L 389.0 279.13 L 389.0 280.49 L 389.0 281.85 L 389.0 283.2 L 389.0 284.56 L 389.0 285.91 L 389.0 287.27 L 389.0 288.63 L 389.0 289.98 L 389.0 291.34000000000003 L 389.0 292.69 L 389.0 294.05 L 389.0 295.41 L 389.0 296.76 L 389.0 298.12 L 389.0 299.47 L 389.0 300.83 L 389.0 302.19 L 389.0 303.54 L 389.0 304.90000000000003 L 389.0 306.25 L 389.0 307.61 L 389.0 308.97 L 389.0 310.32 L 389.0 311.68 L 389.0 313.03000000000003 L 389.0 314.39 L 389.0 315.75 L 389.0 317.1 L 389.0 318.46 L 389.0 319.81 L 389.0 321.17 L 389.0 322.53000000000003 L 389.0 323.88 L 389.0 325.24 L 389.0 326.59000000000003 L 389.0 327.95 L 389.0 329.31 L 389.0 330.66 L 389.0 332.02 L 389.0 333.37 L 389.0 334.73 L 389.0 336.09000000000003 L 389.0 337.44 L 389.0 338.8 L 389.0 340.15000000000003 L 389.0 341.51 L 389.0 342.87 L 389.0 344.22 L 389.0 345.58 L 389.0 346.93 L 389.0 348.29 L 389.0 349.65000000000003 L 389.0 351.0 L 389.0 352.36 L 389.0 353.71 L 389.0 355.07 L 389.0 356.43 L 389.0 357.78000000000003 L 389.0 359.14 L 389.0 360.49 L 389.0 361.85 L 389.0 363.21 Z" stroke="#ee854a" stroke-width="0.5" fill="#ee854a" fill-opacity="0.7000000000000001" /><rect x="351" y="237.75" width="16" height="50.660000000000004" fill="#ee854a" /><line x1="351" y1="262.86" x2="367" y2="262.86" stroke="#ffffff" stroke-width="1.5" /><line x1="359" y1="363.7" x2="359" y2="288.41" stroke="#ee854a" stroke-width="1" /><line x1="359" y1="237.75" x2="359" y2="168.8" stroke="#ee854a" stroke-width="1" /><line x1="355" y1="363.7" x2="363" y2="363.7" stroke="#ee854a" stroke-width="1" /><line x1="355" y1="168.8" x2="363" y2="168.8" stroke="#ee854a" stroke-width="1" /><circle cx="322.6" cy="215.93" r="3" fill="#ee854a" fill-opacity="0.7000000000000001" /><circle cx="316.73" cy="226.24" r="3" fill="#ee854a" fill-opacity="0.7000000000000001" /><circle cx="321.72" cy="181.33" r="3" fill="#ee854a" fill-opacity="0.7000000000000001" /><circle cx="314.99" cy="237.73000000000002" r="3" fill="#ee854a" fill-opacity="0.7000000000000001" /><circle cx="321.01" cy="313.58" r="3" fill="#ee854a" fill-opacity="0.7000000000000001" /><circle cx="321.36" cy="238.27" r="3" fill="#ee854a" fill-opacity="0.7000000000000001" /><circle cx="314.36" cy="316.16" r="3" fill="#ee854a" fill-opacity="0.7000000000000001" /><circle cx="322.29" cy="283.22" r="3" fill="#ee854a" fill-opacity="0.7000000000000001" /><circle cx="321.45" cy="251.07" r="3" fill="#ee854a" fill-opacity="0.7000000000000001" /><circle cx="316.15000000000003" cy="272.6" r="3" fill="#ee854a" fill-opacity="0.7000000000000001" /><circle cx="321.32" cy="229.05" r="3" fill="#ee854a" fill-opacity="0.7000000000000001" /><circle cx="322.04" cy="273.91" r="3" fill="#ee854a" fill-opacity="0.7000000000000001" /><circle cx="318.74" cy="275.37" r="3" fill="#ee854a" fill-opacity="0.7000000000000001" /><circle cx="319.15000000000003" cy="281.67" r="3" fill="#ee854a" fill-opacity="0.7000000000000001" /><circle cx="314.62" cy="288.56" r="3" fill="#ee854a" fill-opacity="0.7000000000000001" /><circle cx="318.41" cy="216.72" r="3" fill="#ee854a" fill-opacity="0.7000000000000001" /><circle cx="316.74" cy="345.48" r="3" fill="#ee854a" fill-opacity="0.7000000000000001" /><circle cx="314.90000000000003" cy="247.12" r="3" fill="#ee854a" fill-opacity="0.7000000000000001" /><circle cx="322.56" cy="217.61" r="3" fill="#ee854a" fill-opacity="0.7000000000000001" /><circle cx="321.46" cy="270.56" r="3" fill="#ee854a" fill-opacity="0.7000000000000001" /><circle cx="316.05" cy="311.56" r="3" fill="#ee854a" fill-opacity="0.7000000000000001" /><circle cx="321.26" cy="266.89" r="3" fill="#ee854a" fill-opacity="0.7000000000000001" /><circle cx="315.89" cy="196.05" r="3" fill="#ee854a" fill-opacity="0.7000000000000001" /><circle cx="322.69" cy="243.21" r="3" fill="#ee854a" fill-opacity="0.7000000000000001" /><circle cx="322.17" cy="207.11" r="3" fill="#ee854a" fill-opacity="0.7000000000000001" /><circle cx="323.6" cy="218.82" r="3" fill="#ee854a" fill-opacity="0.7000000000000001" /><circle cx="322.79" cy="262.89" r="3" fill="#ee854a" fill-opacity="0.7000000000000001" /><circle cx="319.41" cy="279.62" r="3" fill="#ee854a" fill-opacity="0.7000000000000001" /><circle cx="319.19" cy="289.62" r="3" fill="#ee854a" fill-opacity="0.7000000000000001" /><circle cx="316.27" cy="298.42" r="3" fill="#ee854a" fill-opacity="0.7000000000000001" /><circle cx="317.57" cy="246.57" r="3" fill="#ee854a" fill-opacity="0.7000000000000001" /><circle cx="318.87" cy="293.14" r="3" fill="#ee854a" fill-opacity="0.7000000000000001" /><circle cx="320.83" cy="256.83" r="3" fill="#ee854a" fill-opacity="0.7000000000000001" /><circle cx="316.63" cy="240.78" r="3" fill="#ee854a" fill-opacity="0.7000000000000001" /><circle cx="315.53000000000003" cy="333.64" r="3" fill="#ee854a" fill-opacity="0.7000000000000001" /><circle cx="322.73" cy="214.34" r="3" fill="#ee854a" fill-opacity="0.7000000000000001" /><circle cx="319.40000000000003" cy="279.6" r="3" fill="#ee854a" fill-opacity="0.7000000000000001" /><circle cx="323.49" cy="209.41" r="3" fill="#ee854a" fill-opacity="0.7000000000000001" /><circle cx="317.6" cy="318.91" r="3" fill="#ee854a" fill-opacity="0.7000000000000001" /><circle cx="323.82" cy="259.73" r="3" fill="#ee854a" fill-opacity="0.7000000000000001" /><circle cx="316.27" cy="303.57" r="3" fill="#ee854a" fill-opacity="0.7000000000000001" /><circle cx="316" cy="284.13" r="3" fill="#ee854a" fill-opacity="0.7000000000000001" /><circle cx="314.31" cy="272.94" r="3" fill="#ee854a" fill-opacity="0.7000000000000001" /><circle cx="322.79" cy="299.19" r="3" fill="#ee854a" fill-opacity="0.7000000000000001" /><circle cx="322.83" cy="301.99" r="3" fill="#ee854a" fill-opacity="0.7000000000000001" /><circle cx="317.37" cy="249.44" r="3" fill="#ee854a" fill-opacity="0.7000000000000001" /><circle cx="323.05" cy="347.23" r="3" fill="#ee854a" fill-opacity="0.7000000000000001" /><circle cx="314.49" cy="295.04" r="3" fill="#ee854a" fill-opacity="0.7000000000000001" /><circle cx="315.18" cy="221.45000000000002" r="3" fill="#ee854a" fill-opacity="0.7000000000000001" /><circle cx="314.52" cy="259.78000000000003" r="3" fill="#ee854a" fill-opacity="0.7000000000000001" /><circle cx="317.17" cy="217.72" r="3" fill="#ee854a" fill-opacity="0.7000000000000001" /><circle cx="322.89" cy="268.45" r="3" fill="#ee854a" fill-opacity="0.7000000000000001" /><circle cx="317" cy="229.52" r="3" fill="#ee854a" fill-opacity="0.7000000000000001" /><circle cx="318.21" cy="240.76" r="3" fill="#ee854a" fill-opacity="0.7000000000000001" /><circle cx="320.68" cy="262.26" r="3" fill="#ee854a" fill-opacity="0.7000000000000001" /><circle cx="321.36" cy="251.21" r="3" fill="#ee854a" fill-opacity="0.7000000000000001" /><circle cx="320.47" cy="268.5" r="3" fill="#ee854a" fill-opacity="0.7000000000000001" /><circle cx="321.36" cy="258.57" r="3" fill="#ee854a" fill-opacity="0.7000000000000001" /><circle cx="315.29" cy="299.94" r="3" fill="#ee854a" fill-opacity="0.7000000000000001" /><circle cx="316.73" cy="314.76" r="3" fill="#ee854a" fill-opacity="0.7000000000000001" /><circle cx="315.45" cy="192.31" r="3" fill="#ee854a" fill-opacity="0.7000000000000001" /><circle cx="322.25" cy="234.93" r="3" fill="#ee854a" fill-opacity="0.7000000000000001" /><circle cx="322.22" cy="321.59000000000003" r="3" fill="#ee854a" fill-opacity="0.7000000000000001" /><circle cx="314.47" cy="240.65" r="3" fill="#ee854a" fill-opacity="0.7000000000000001" /><circle cx="316.48" cy="245.61" r="3" fill="#ee854a" fill-opacity="0.7000000000000001" /><circle cx="323.17" cy="227.57" r="3" fill="#ee854a" fill-opacity="0.7000000000000001" /><circle cx="318.53000000000003" cy="253.47" r="3" fill="#ee854a" fill-opacity="0.7000000000000001" /><circle cx="314.5" cy="209.63" r="3" fill="#ee854a" fill-opacity="0.7000000000000001" /><circle cx="317.56" cy="302.67" r="3" fill="#ee854a" fill-opacity="0.7000000000000001" /><circle cx="320.11" cy="274.47" r="3" fill="#ee854a" fill-opacity="0.7000000000000001" /><circle cx="318.51" cy="198.21" r="3" fill="#ee854a" fill-opacity="0.7000000000000001" /><circle cx="320.39" cy="268.25" r="3" fill="#ee854a" fill-opacity="0.7000000000000001" /><circle cx="317.03000000000003" cy="262.83" r="3" fill="#ee854a" fill-opacity="0.7000000000000001" /><circle cx="318.45" cy="270.73" r="3" fill="#ee854a" fill-opacity="0.7000000000000001" /><circle cx="319" cy="267.95" r="3" fill="#ee854a" fill-opacity="0.7000000000000001" /><circle cx="320.87" cy="259.7" r="3" fill="#ee854a" fill-opacity="0.7000000000000001" /><circle cx="317.96" cy="274.24" r="3" fill="#ee854a" fill-opacity="0.7000000000000001" /><circle cx="319.84000000000003" cy="223.87" r="3" fill="#ee854a" fill-opacity="0.7000000000000001" /><circle cx="315.53000000000003" cy="255.88" r="3" fill="#ee854a" fill-opacity="0.7000000000000001" /><circle cx="321.46" cy="281.74" r="3" fill="#ee854a" fill-opacity="0.7000000000000001" /><circle cx="316.12" cy="268.18" r="3" fill="#ee854a" fill-opacity="0.7000000000000001" /><circle cx="323.13" cy="248.87" r="3" fill="#ee854a" fill-opacity="0.7000000000000001" /><circle cx="320.04" cy="264.69" r="3" fill="#ee854a" fill-opacity="0.7000000000000001" /><circle cx="321.1" cy="217.70000000000002" r="3" fill="#ee854a" fill-opacity="0.7000000000000001" /><circle cx="320.63" cy="239.70000000000002" r="3" fill="#ee854a" fill-opacity="0.7000000000000001" /><circle cx="322.48" cy="192.03" r="3" fill="#ee854a" fill-opacity="0.7000000000000001" /><circle cx="316.09000000000003" cy="195.88" r="3" fill="#ee854a" fill-opacity="0.7000000000000001" /><circle cx="315.81" cy="260.77" r="3" fill="#ee854a" fill-opacity="0.7000000000000001" /><circle cx="320.12" cy="176.67000000000002" r="3" fill="#ee854a" fill-opacity="0.7000000000000001" /><circle cx="319.09000000000003" cy="237.79" r="3" fill="#ee854a" fill-opacity="0.7000000000000001" /><circle cx="322.57" cy="341.49" r="3" fill="#ee854a" fill-opacity="0.7000000000000001" /><circle cx="322.74" cy="168.8" r="3" fill="#ee854a" fill-opacity="0.7000000000000001" /><circle cx="315.37" cy="254.3" r="3" fill="#ee854a" fill-opacity="0.7000000000000001" /><circle cx="315.74" cy="234.24" r="3" fill="#ee854a" fill-opacity="0.7000000000000001" /><circle cx="315.71" cy="241.56" r="3" fill="#ee854a" fill-opacity="0.7000000000000001" /><circle cx="321.13" cy="261.98" r="3" fill="#ee854a" fill-opacity="0.7000000000000001" /><circle cx="321.83" cy="268.9" r="3" fill="#ee854a" fill-opacity="0.7000000000000001" /><circle cx="315.88" cy="179.19" r="3" fill="#ee854a" fill-opacity="0.7000000000000001" /><circle cx="317.77" cy="321.87" r="3" fill="#ee854a" fill-opacity="0.7000000000000001" /><circle cx="319.57" cy="363.7" r="3" fill="#ee854a" fill-opacity="0.7000000000000001" /><circle cx="323.84000000000003" cy="265.61" r="3" fill="#ee854a" fill-opacity="0.7000000000000001" /><circle cx="322.18" cy="306.06" r="3" fill="#ee854a" fill-opacity="0.7000000000000001" /><circle cx="317.18" cy="279.06" r="3" fill="#ee854a" fill-opacity="0.7000000000000001" /><circle cx="314.69" cy="294.24" r="3" fill="#ee854a" fill-opacity="0.7000000000000001" /><circle cx="321.78000000000003" cy="313.02" r="3" fill="#ee854a" fill-opacity="0.7000000000000001" /><circle cx="321.23" cy="268.26" r="3" fill="#ee854a" fill-opacity="0.7000000000000001" /><circle cx="320.22" cy="321.05" r="3" fill="#ee854a" fill-opacity="0.7000000000000001" /><circle cx="315.95" cy="211.15" r="3" fill="#ee854a" fill-opacity="0.7000000000000001" /><circle cx="317.59000000000003" cy="226.56" r="3" fill="#ee854a" fill-opacity="0.7000000000000001" /><circle cx="319.83" cy="248.74" r="3" fill="#ee854a" fill-opacity="0.7000000000000001" /><circle cx="322.58" cy="292.66" r="3" fill="#ee854a" fill-opacity="0.7000000000000001" /><circle cx="321.03000000000003" cy="296.71" r="3" fill="#ee854a" fill-opacity="0.7000000000000001" /><circle cx="314.02" cy="179.57" r="3" fill="#ee854a" fill-opacity="0.7000000000000001" /><circle cx="315.37" cy="218.3" r="3" fill="#ee854a" fill-opacity="0.7000000000000001" /><circle cx="316.18" cy="333.93" r="3" fill="#ee854a" fill-opacity="0.7000000000000001" /><circle cx="320.46" cy="291.57" r="3" fill="#ee854a" fill-opacity="0.7000000000000001" /><circle cx="318.54" cy="280.53000000000003" r="3" fill="#ee854a" fill-opacity="0.7000000000000001" /><circle cx="314.7" cy="243.69" r="3" fill="#ee854a" fill-opacity="0.7000000000000001" /><circle cx="314.86" cy="255.15" r="3" fill="#ee854a" fill-opacity="0.7000000000000001" /><circle cx="321.15000000000003" cy="278.13" r="3" fill="#ee854a" fill-opacity="0.7000000000000001" /><circle cx="321" cy="235.89000000000001" r="3" fill="#ee854a" fill-opacity="0.7000000000000001" /><circle cx="314.23" cy="286.26" r="3" fill="#ee854a" fill-opacity="0.7000000000000001" /><circle cx="316.13" cy="224.13" r="3" fill="#ee854a" fill-opacity="0.7000000000000001" /><circle cx="317.21" cy="292.41" r="3" fill="#ee854a" fill-opacity="0.7000000000000001" /><circle cx="315.72" cy="284.46" r="3" fill="#ee854a" fill-opacity="0.7000000000000001" /><circle cx="318.54" cy="278.16" r="3" fill="#ee854a" fill-opacity="0.7000000000000001" /><circle cx="314.06" cy="238.63" r="3" fill="#ee854a" fill-opacity="0.7000000000000001" /><circle cx="323.98" cy="300.66" r="3" fill="#ee854a" fill-opacity="0.7000000000000001" /><circle cx="315.66" cy="252.16" r="3" fill="#ee854a" fill-opacity="0.7000000000000001" /><circle cx="323.82" cy="259.23" r="3" fill="#ee854a" fill-opacity="0.7000000000000001" /><circle cx="314.81" cy="308.7" r="3" fill="#ee854a" fill-opacity="0.7000000000000001" /><circle cx="316.16" cy="279.43" r="3" fill="#ee854a" fill-opacity="0.7000000000000001" /><circle cx="315.33" cy="335.51" r="3" fill="#ee854a" fill-opacity="0.7000000000000001" /><circle cx="319.86" cy="240.93" r="3" fill="#ee854a" fill-opacity="0.7000000000000001" /><circle cx="317.52" cy="270.12" r="3" fill="#ee854a" fill-opacity="0.7000000000000001" /><circle cx="321.37" cy="256.94" r="3" fill="#ee854a" fill-opacity="0.7000000000000001" /><circle cx="317.36" cy="283.24" r="3" fill="#ee854a" fill-opacity="0.7000000000000001" /><circle cx="322.41" cy="196.75" r="3" fill="#ee854a" fill-opacity="0.7000000000000001" /><circle cx="320.51" cy="176.75" r="3" fill="#ee854a" fill-opacity="0.7000000000000001" /><circle cx="315.97" cy="296.28000000000003" r="3" fill="#ee854a" fill-opacity="0.7000000000000001" /><circle cx="318.85" cy="261.38" r="3" fill="#ee854a" fill-opacity="0.7000000000000001" /><circle cx="316.19" cy="300.43" r="3" fill="#ee854a" fill-opacity="0.7000000000000001" /><circle cx="321.32" cy="303.98" r="3" fill="#ee854a" fill-opacity="0.7000000000000001" /><circle cx="314.72" cy="240.39000000000001" r="3" fill="#ee854a" fill-opacity="0.7000000000000001" /><circle cx="318.57" cy="201.34" r="3" fill="#ee854a" fill-opacity="0.7000000000000001" /><circle cx="316.06" cy="216.25" r="3" fill="#ee854a" fill-opacity="0.7000000000000001" /><circle cx="314.18" cy="277.36" r="3" fill="#ee854a" fill-opacity="0.7000000000000001" /><circle cx="320.54" cy="287.95" r="3" fill="#ee854a" fill-opacity="0.7000000000000001" /><circle cx="316.51" cy="288.82" r="3" fill="#ee854a" fill-opacity="0.7000000000000001" /><circle cx="323.05" cy="271.94" r="3" fill="#ee854a" fill-opacity="0.7000000000000001" /><path d="M 589.67 310.77 L 589.67 309.56 L 589.65 308.35 L 589.63 307.14 L 589.6 305.93 L 589.57 304.71 L 589.54 303.5 L 589.5 302.29 L 589.47 301.08 L 589.44 299.87 L 589.42 298.66 L 589.41 297.45 L 589.4 296.24 L 589.41 295.03000000000003 L 589.4300000000001 293.82 L 589.46 292.61 L 589.51 291.40000000000003 L 589.5600000000001 290.19 L 589.63 288.98 L 589.71 287.76 L 589.8100000000001 286.55 L 589.91 285.34000000000003 L 590.03 284.13 L 590.15 282.92 L 590.3000000000001 281.71 L 590.45 280.5 L 590.61 279.29 L 590.79 278.08 L 590.99 276.87 L 591.2 275.66 L 591.44 274.45 L 591.69 273.24 L 591.96 272.03000000000003 L 592.26 270.81 L 592.58 269.6 L 592.9300000000001 268.39 L 593.3100000000001 267.18 L 593.71 265.97 L 594.15 264.76 L 594.61 263.55 L 595.1 262.34000000000003 L 595.62 261.13 L 596.1800000000001 259.92 L 596.75 258.71 L 597.35 257.5 L 597.98 256.29 L 598.62 255.07 L 599.28 253.86 L 599.9300000000001 252.65 L 600.59 251.44 L 601.24 250.23000000000002 L 601.87 249.02 L 602.47 247.81 L 603.03 246.6 L 603.5500000000001 245.39000000000001 L 604.03 244.18 L 604.45 242.97 L 604.83 241.76 L 605.15 240.55 L 605.4300000000001 239.34 L 605.6800000000001 238.12 L 605.9 236.91 L 606.1 235.70000000000002 L 606.3000000000001 234.49 L 606.52 233.28 L 606.76 232.07 L 607.04 230.86 L 607.37 229.65 L 607.77 228.44 L 608.23 227.23000000000002 L 608.77 226.02 L 609.37 224.81 L 610.0500000000001 223.6 L 610.78 222.38 L 611.5600000000001 221.17000000000002 L 612.37 219.96 L 613.2 218.75 L 614.02 217.54 L 614.83 216.33 L 615.6 215.12 L 616.3100000000001 213.91 L 616.95 212.70000000000002 L 617.5 211.49 L 617.97 210.28 L 618.35 209.07 L 618.63 207.86 L 618.83 206.65 L 618.95 205.43 L 619.0 204.22 L 619.0 203.01 L 618.95 201.8 L 618.88 200.59 L 618.8000000000001 199.38 L 618.72 198.17000000000002 L 618.64 196.96 L 618.57 195.75 L 618.51 194.54 L 618.46 193.33 L 618.41 192.12 L 618.36 190.91 L 618.28 189.69 L 618.17 188.48 L 618.01 187.27 L 617.79 186.06 L 617.51 184.85 L 617.14 183.64000000000001 L 616.69 182.43 L 616.15 181.22 L 615.52 180.01 L 614.82 178.8 L 614.04 177.59 L 613.19 176.38 L 612.29 175.17000000000002 L 611.37 173.96 L 610.42 172.74 L 609.46 171.53 L 608.52 170.32 L 607.6 169.11 L 606.72 167.9 L 605.89 166.69 L 605.11 165.48 L 604.38 164.27 L 603.71 163.06 L 603.1 161.85 L 602.54 160.64000000000001 L 602.03 159.43 L 601.5600000000001 158.22 L 601.12 157.01 L 600.71 155.79 L 600.3000000000001 154.58 L 599.9 153.37 L 599.5 152.16 L 599.08 150.95000000000002 L 598.66 149.74 L 598.21 148.53 L 597.74 147.32 L 597.26 146.11 L 596.76 144.9 L 596.24 143.69 L 595.72 142.48 L 595.2 141.27 L 594.6800000000001 140.05 L 594.17 138.84 L 593.6800000000001 137.63 L 593.2 136.42000000000002 L 592.76 135.21 L 592.34 134.0 L 591.95 132.79 L 591.59 131.58 L 591.27 130.37 L 589.0 130.37 L 589.0 131.58 L 589.0 132.79 L 589.0 134.0 L 589.0 135.21 L 589.0 136.42000000000002 L 589.0 137.63 L 589.0 138.84 L 589.0 140.05 L 589.0 141.27 L 589.0 142.48 L 589.0 143.69 L 589.0 144.9 L 589.0 146.11 L 589.0 147.32 L 589.0 148.53 L 589.0 149.74 L 589.0 150.95000000000002 L 589.0 152.16 L 589.0 153.37 L 589.0 154.58 L 589.0 155.79 L 589.0 157.01 L 589.0 158.22 L 589.0 159.43 L 589.0 160.64000000000001 L 589.0 161.85 L 589.0 163.06 L 589.0 164.27 L 589.0 165.48 L 589.0 166.69 L 589.0 167.9 L 589.0 169.11 L 589.0 170.32 L 589.0 171.53 L 589.0 172.74 L 589.0 173.96 L 589.0 175.17000000000002 L 589.0 176.38 L 589.0 177.59 L 589.0 178.8 L 589.0 180.01 L 589.0 181.22 L 589.0 182.43 L 589.0 183.64000000000001 L 589.0 184.85 L 589.0 186.06 L 589.0 187.27 L 589.0 188.48 L 589.0 189.69 L 589.0 190.91 L 589.0 192.12 L 589.0 193.33 L 589.0 194.54 L 589.0 195.75 L 589.0 196.96 L 589.0 198.17000000000002 L 589.0 199.38 L 589.0 200.59 L 589.0 201.8 L 589.0 203.01 L 589.0 204.22 L 589.0 205.43 L 589.0 206.65 L 589.0 207.86 L 589.0 209.07 L 589.0 210.28 L 589.0 211.49 L 589.0 212.70000000000002 L 589.0 213.91 L 589.0 215.12 L 589.0 216.33 L 589.0 217.54 L 589.0 218.75 L 589.0 219.96 L 589.0 221.17000000000002 L 589.0 222.38 L 589.0 223.6 L 589.0 224.81 L 589.0 226.02 L 589.0 227.23000000000002 L 589.0 228.44 L 589.0 229.65 L 589.0 230.86 L 589.0 232.07 L 589.0 233.28 L 589.0 234.49 L 589.0 235.70000000000002 L 589.0 236.91 L 589.0 238.12 L 589.0 239.34 L 589.0 240.55 L 589.0 241.76 L 589.0 242.97 L 589.0 244.18 L 589.0 245.39000000000001 L 589.0 246.6 L 589.0 247.81 L 589.0 249.02 L 589.0 250.23000000000002 L 589.0 251.44 L 589.0 252.65 L 589.0 253.86 L 589.0 255.07 L 589.0 256.29 L 589.0 257.5 L 589.0 258.71 L 589.0 259.92 L 589.0 261.13 L 589.0 262.34000000000003 L 589.0 263.55 L 589.0 264.76 L 589.0 265.97 L 589.0 267.18 L 589.0 268.39 L 589.0 269.6 L 589.0 270.81 L 589.0 272.03000000000003 L 589.0 273.24 L 589.0 274.45 L 589.0 275.66 L 589.0 276.87 L 589.0 278.08 L 589.0 279.29 L 589.0 280.5 L 589.0 281.71 L 589.0 282.92 L 589.0 284.13 L 589.0 285.34000000000003 L 589.0 286.55 L 589.0 287.76 L 589.0 288.98 L 589.0 290.19 L 589.0 291.40000000000003 L 589.0 292.61 L 589.0 293.82 L 589.0 295.03000000000003 L 589.0 296.24 L 589.0 297.45 L 589.0 298.66 L 589.0 299.87 L 589.0 301.08 L 589.0 302.29 L 589.0 303.5 L 589.0 304.71 L 589.0 305.93 L 589.0 307.14 L 589.0 308.35 L 589.0 309.56 L 589.0 310.77 Z" stroke="#6acc65" stroke-width="0.5" fill="#6acc65" fill-opacity="0.7000000000000001" /><rect x="551" y="182.1" width="16" height="40.43" fill="#6acc65" /><line x1="551" y1="202.74" x2="567" y2="202.74" stroke="#ffffff" stroke-width="1.5" /><line x1="559" y1="279.47" x2="559" y2="222.53" stroke="#6acc65" stroke-width="1" /><line x1="559" y1="182.1" x2="559" y2="130" stroke="#6acc65" stroke-width="1" /><line x1="555" y1="279.47" x2="563" y2="279.47" stroke="#6acc65" stroke-width="1" /><line x1="555" y1="130" x2="563" y2="130" stroke="#6acc65" stroke-width="1" /><circle cx="522.6" cy="195.89000000000001" r="3" fill="#6acc65" fill-opacity="0.7000000000000001" /><circle cx="521.7" cy="183.8" r="3" fill="#6acc65" fill-opacity="0.7000000000000001" /><circle cx="520.52" cy="185" r="3" fill="#6acc65" fill-opacity="0.7000000000000001" /><circle cx="519.26" cy="235.28" r="3" fill="#6acc65" fill-opacity="0.7000000000000001" /><circle cx="517.9" cy="142.3" r="3" fill="#6acc65" fill-opacity="0.7000000000000001" /><circle cx="514.79" cy="243.04" r="3" fill="#6acc65" fill-opacity="0.7000000000000001" /><circle cx="523.03" cy="182.1" r="3" fill="#6acc65" fill-opacity="0.7000000000000001" /><circle cx="515.19" cy="193.1" r="3" fill="#6acc65" fill-opacity="0.7000000000000001" /><circle cx="521.89" cy="186.27" r="3" fill="#6acc65" fill-opacity="0.7000000000000001" /><circle cx="523.1" cy="171.57" r="3" fill="#6acc65" fill-opacity="0.7000000000000001" /><circle cx="522.6800000000001" cy="240.27" r="3" fill="#6acc65" fill-opacity="0.7000000000000001" /><circle cx="523.83" cy="195.24" r="3" fill="#6acc65" fill-opacity="0.7000000000000001" /><circle cx="522.23" cy="184.72" r="3" fill="#6acc65" fill-opacity="0.7000000000000001" /><circle cx="520.5600000000001" cy="210.03" r="3" fill="#6acc65" fill-opacity="0.7000000000000001" /><circle cx="519.73" cy="209.51" r="3" fill="#6acc65" fill-opacity="0.7000000000000001" /><circle cx="521.0600000000001" cy="209.03" r="3" fill="#6acc65" fill-opacity="0.7000000000000001" /><circle cx="521.42" cy="248.06" r="3" fill="#6acc65" fill-opacity="0.7000000000000001" /><circle cx="521.7" cy="247.04" r="3" fill="#6acc65" fill-opacity="0.7000000000000001" /><circle cx="514.71" cy="188.82" r="3" fill="#6acc65" fill-opacity="0.7000000000000001" /><circle cx="516.39" cy="186.45000000000002" r="3" fill="#6acc65" fill-opacity="0.7000000000000001" /><circle cx="518.84" cy="177.04" r="3" fill="#6acc65" fill-opacity="0.7000000000000001" /><circle cx="517.05" cy="198.39000000000001" r="3" fill="#6acc65" fill-opacity="0.7000000000000001" /><circle cx="515.0600000000001" cy="174.18" r="3" fill="#6acc65" fill-opacity="0.7000000000000001" /><circle cx="520.03" cy="183.35" r="3" fill="#6acc65" fill-opacity="0.7000000000000001" /><circle cx="517.59" cy="210.66" r="3" fill="#6acc65" fill-opacity="0.7000000000000001" /><circle cx="517.13" cy="158.45000000000002" r="3" fill="#6acc65" fill-opacity="0.7000000000000001" /><circle cx="522.2" cy="249.97" r="3" fill="#6acc65" fill-opacity="0.7000000000000001" /><circle cx="515.4300000000001" cy="248.17000000000002" r="3" fill="#6acc65" fill-opacity="0.7000000000000001" /><circle cx="517.27" cy="196.77" r="3" fill="#6acc65" fill-opacity="0.7000000000000001" /><circle cx="514.73" cy="181.89000000000001" r="3" fill="#6acc65" fill-opacity="0.7000000000000001" /><circle cx="519.0600000000001" cy="175.64000000000001" r="3" fill="#6acc65" fill-opacity="0.7000000000000001" /><circle cx="514.33" cy="151.87" r="3" fill="#6acc65" fill-opacity="0.7000000000000001" /><circle cx="518.83" cy="232.20000000000002" r="3" fill="#6acc65" fill-opacity="0.7000000000000001" /><circle cx="523.74" cy="215.48000000000002" r="3" fill="#6acc65" fill-opacity="0.7000000000000001" /><circle cx="517.08" cy="149.93" r="3" fill="#6acc65" fill-opacity="0.7000000000000001" /><circle cx="517.61" cy="202.51" r="3" fill="#6acc65" fill-opacity="0.7000000000000001" /><circle cx="521.49" cy="202.98000000000002" r="3" fill="#6acc65" fill-opacity="0.7000000000000001" /><circle cx="516.42" cy="241.84" r="3" fill="#6acc65" fill-opacity="0.7000000000000001" /><circle cx="517.55" cy="242.72" r="3" fill="#6acc65" fill-opacity="0.7000000000000001" /><circle cx="518.0600000000001" cy="182.98" r="3" fill="#6acc65" fill-opacity="0.7000000000000001" /><circle cx="514.94" cy="185.23" r="3" fill="#6acc65" fill-opacity="0.7000000000000001" /><circle cx="521.41" cy="210.51" r="3" fill="#6acc65" fill-opacity="0.7000000000000001" /><circle cx="516.4300000000001" cy="231.28" r="3" fill="#6acc65" fill-opacity="0.7000000000000001" /><circle cx="520.2" cy="211.71" r="3" fill="#6acc65" fill-opacity="0.7000000000000001" /><circle cx="517.26" cy="157.8" r="3" fill="#6acc65" fill-opacity="0.7000000000000001" /><circle cx="515.03" cy="243.73000000000002" r="3" fill="#6acc65" fill-opacity="0.7000000000000001" /><circle cx="521.5600000000001" cy="202.26" r="3" fill="#6acc65" fill-opacity="0.7000000000000001" /><circle cx="519.41" cy="159.38" r="3" fill="#6acc65" fill-opacity="0.7000000000000001" /><circle cx="515.63" cy="240.13" r="3" fill="#6acc65" fill-opacity="0.7000000000000001" /><circle cx="523.04" cy="254.69" r="3" fill="#6acc65" fill-opacity="0.7000000000000001" /><circle cx="516.98" cy="213.68" r="3" fill="#6acc65" fill-opacity="0.7000000000000001" /><circle cx="518.82" cy="176.52" r="3" fill="#6acc65" fill-opacity="0.7000000000000001" /><circle cx="517.27" cy="184.79" r="3" fill="#6acc65" fill-opacity="0.7000000000000001" /><circle cx="523.54" cy="184.68" r="3" fill="#6acc65" fill-opacity="0.7000000000000001" /><circle cx="518.59" cy="228.78" r="3" fill="#6acc65" fill-opacity="0.7000000000000001" /><circle cx="517.22" cy="167.56" r="3" fill="#6acc65" fill-opacity="0.7000000000000001" /><circle cx="522.8" cy="215.09" r="3" fill="#6acc65" fill-opacity="0.7000000000000001" /><circle cx="514.28" cy="164.37" r="3" fill="#6acc65" fill-opacity="0.7000000000000001" /><circle cx="520.12" cy="212.9" r="3" fill="#6acc65" fill-opacity="0.7000000000000001" /><circle cx="522.25" cy="216.32" r="3" fill="#6acc65" fill-opacity="0.7000000000000001" /><circle cx="521.4300000000001" cy="234.66" r="3" fill="#6acc65" fill-opacity="0.7000000000000001" /><circle cx="518.2" cy="175.91" r="3" fill="#6acc65" fill-opacity="0.7000000000000001" /><circle cx="520" cy="201.22" r="3" fill="#6acc65" fill-opacity="0.7000000000000001" /><circle cx="520.17" cy="226.32" r="3" fill="#6acc65" fill-opacity="0.7000000000000001" /><circle cx="519.02" cy="177.29" r="3" fill="#6acc65" fill-opacity="0.7000000000000001" /><circle cx="519.45" cy="210.18" r="3" fill="#6acc65" fill-opacity="0.7000000000000001" /><circle cx="516.22" cy="158.05" r="3" fill="#6acc65" fill-opacity="0.7000000000000001" /><circle cx="514.94" cy="165.55" r="3" fill="#6acc65" fill-opacity="0.7000000000000001" /><circle cx="518.5" cy="215.94" r="3" fill="#6acc65" fill-opacity="0.7000000000000001" /><circle cx="521.34" cy="236.89000000000001" r="3" fill="#6acc65" fill-opacity="0.7000000000000001" /><circle cx="521.08" cy="207.97" r="3" fill="#6acc65" fill-opacity="0.7000000000000001" /><circle cx="519.15" cy="183.29" r="3" fill="#6acc65" fill-opacity="0.7000000000000001" /><circle cx="520.1" cy="223.02" r="3" fill="#6acc65" fill-opacity="0.7000000000000001" /><circle cx="520.76" cy="217.06" r="3" fill="#6acc65" fill-opacity="0.7000000000000001" /><circle cx="519.62" cy="189.82" r="3" fill="#6acc65" fill-opacity="0.7000000000000001" /><circle cx="518.97" cy="223.84" r="3" fill="#6acc65" fill-opacity="0.7000000000000001" /><circle cx="521.15" cy="182.11" r="3" fill="#6acc65" fill-opacity="0.7000000000000001" /><circle cx="515.78" cy="262.78000000000003" r="3" fill="#6acc65" fill-opacity="0.7000000000000001" /><circle cx="521" cy="208.09" r="3" fill="#6acc65" fill-opacity="0.7000000000000001" /><circle cx="517.3" cy="205.08" r="3" fill="#6acc65" fill-opacity="0.7000000000000001" /><circle cx="520.97" cy="203.76" r="3" fill="#6acc65" fill-opacity="0.7000000000000001" /><circle cx="523.96" cy="222.63" r="3" fill="#6acc65" fill-opacity="0.7000000000000001" /><circle cx="521.62" cy="196.68" r="3" fill="#6acc65" fill-opacity="0.7000000000000001" /><circle cx="521.26" cy="242.54" r="3" fill="#6acc65" fill-opacity="0.7000000000000001" /><circle cx="518.47" cy="269.52" r="3" fill="#6acc65" fill-opacity="0.7000000000000001" /><circle cx="517.94" cy="188.34" r="3" fill="#6acc65" fill-opacity="0.7000000000000001" /><circle cx="519.95" cy="208.26" r="3" fill="#6acc65" fill-opacity="0.7000000000000001" /><circle cx="522.25" cy="150.52" r="3" fill="#6acc65" fill-opacity="0.7000000000000001" /><circle cx="520.62" cy="178.78" r="3" fill="#6acc65" fill-opacity="0.7000000000000001" /><circle cx="514.98" cy="279.47" r="3" fill="#6acc65" fill-opacity="0.7000000000000001" /><circle cx="520.51" cy="187.38" r="3" fill="#6acc65" fill-opacity="0.7000000000000001" /><circle cx="515.71" cy="224.11" r="3" fill="#6acc65" fill-opacity="0.7000000000000001" /><circle cx="519.13" cy="150.38" r="3" fill="#6acc65" fill-opacity="0.7000000000000001" /><circle cx="514.14" cy="166.59" r="3" fill="#6acc65" fill-opacity="0.7000000000000001" /><circle cx="522.11" cy="235.91" r="3" fill="#6acc65" fill-opacity="0.7000000000000001" /><circle cx="518.46" cy="172.14000000000001" r="3" fill="#6acc65" fill-opacity="0.7000000000000001" /><circle cx="519.23" cy="243.11" r="3" fill="#6acc65" fill-opacity="0.7000000000000001" /><circle cx="517.97" cy="202.98000000000002" r="3" fill="#6acc65" fill-opacity="0.7000000000000001" /><circle cx="522.27" cy="206.11" r="3" fill="#6acc65" fill-opacity="0.7000000000000001" /><circle cx="518.55" cy="173.01" r="3" fill="#6acc65" fill-opacity="0.7000000000000001" /><circle cx="517.25" cy="195.41" r="3" fill="#6acc65" fill-opacity="0.7000000000000001" /><circle cx="514.12" cy="257.5" r="3" fill="#6acc65" fill-opacity="0.7000000000000001" /><circle cx="519.27" cy="160.26" r="3" fill="#6acc65" fill-opacity="0.7000000000000001" /><circle cx="519.34" cy="168.71" r="3" fill="#6acc65" fill-opacity="0.7000000000000001" /><circle cx="518.1" cy="222.04" r="3" fill="#6acc65" fill-opacity="0.7000000000000001" /><circle cx="523.6" cy="205.67000000000002" r="3" fill="#6acc65" fill-opacity="0.7000000000000001" /><circle cx="521.3" cy="311.13" r="3" fill="#6acc65" fill-opacity="0.7000000000000001" /><circle cx="523.36" cy="220.22" r="3" fill="#6acc65" fill-opacity="0.7000000000000001" /><circle cx="520.04" cy="156.92000000000002" r="3" fill="#6acc65" fill-opacity="0.7000000000000001" /><circle cx="523.1" cy="230.78" r="3" fill="#6acc65" fill-opacity="0.7000000000000001" /><circle cx="517.34" cy="144.68" r="3" fill="#6acc65" fill-opacity="0.7000000000000001" /><circle cx="519.21" cy="188.07" r="3" fill="#6acc65" fill-opacity="0.7000000000000001" /><circle cx="518.09" cy="173.59" r="3" fill="#6acc65" fill-opacity="0.7000000000000001" /><circle cx="521.41" cy="199.22" r="3" fill="#6acc65" fill-opacity="0.7000000000000001" /><circle cx="515.05" cy="190.75" r="3" fill="#6acc65" fill-opacity="0.7000000000000001" /><circle cx="514.59" cy="204.3" r="3" fill="#6acc65" fill-opacity="0.7000000000000001" /><circle cx="516.67" cy="216.15" r="3" fill="#6acc65" fill-opacity="0.7000000000000001" /><circle cx="520.39" cy="245.57" r="3" fill="#6acc65" fill-opacity="0.7000000000000001" /><circle cx="522.79" cy="145.98" r="3" fill="#6acc65" fill-opacity="0.7000000000000001" /><circle cx="520.11" cy="222.23000000000002" r="3" fill="#6acc65" fill-opacity="0.7000000000000001" /><circle cx="518.83" cy="211.66" r="3" fill="#6acc65" fill-opacity="0.7000000000000001" /><circle cx="518.22" cy="184.87" r="3" fill="#6acc65" fill-opacity="0.7000000000000001" /><circle cx="520.27" cy="130" r="3" fill="#6acc65" fill-opacity="0.7000000000000001" /><circle cx="523.79" cy="191.15" r="3" fill="#6acc65" fill-opacity="0.7000000000000001" /><circle cx="522.42" cy="175.63" r="3" fill="#6acc65" fill-opacity="0.7000000000000001" /><circle cx="516.45" cy="192.91" r="3" fill="#6acc65" fill-opacity="0.7000000000000001" /><circle cx="514.52" cy="212.09" r="3" fill="#6acc65" fill-opacity="0.7000000000000001" /><circle cx="520.85" cy="233.63" r="3" fill="#6acc65" fill-opacity="0.7000000000000001" /><circle cx="518.25" cy="172.44" r="3" fill="#6acc65" fill-opacity="0.7000000000000001" /><circle cx="519.6800000000001" cy="250.93" r="3" fill="#6acc65" fill-opacity="0.7000000000000001" /><circle cx="517.69" cy="239.91" r="3" fill="#6acc65" fill-opacity="0.7000000000000001" /><circle cx="518.73" cy="219.86" r="3" fill="#6acc65" fill-opacity="0.7000000000000001" /><circle cx="521.38" cy="178.18" r="3" fill="#6acc65" fill-opacity="0.7000000000000001" /><circle cx="518.84" cy="179.72" r="3" fill="#6acc65" fill-opacity="0.7000000000000001" /><circle cx="514.19" cy="209.71" r="3" fill="#6acc65" fill-opacity="0.7000000000000001" /><circle cx="519.17" cy="214.83" r="3" fill="#6acc65" fill-opacity="0.7000000000000001" /><circle cx="523.17" cy="197.13" r="3" fill="#6acc65" fill-opacity="0.7000000000000001" /><circle cx="521.64" cy="206.09" r="3" fill="#6acc65" fill-opacity="0.7000000000000001" /><circle cx="520.65" cy="196.54" r="3" fill="#6acc65" fill-opacity="0.7000000000000001" /><circle cx="520.66" cy="148.97" r="3" fill="#6acc65" fill-opacity="0.7000000000000001" /><circle cx="519.91" cy="214.23000000000002" r="3" fill="#6acc65" fill-opacity="0.7000000000000001" /><circle cx="514.55" cy="194.58" r="3" fill="#6acc65" fill-opacity="0.7000000000000001" /><circle cx="515.01" cy="206.74" r="3" fill="#6acc65" fill-opacity="0.7000000000000001" /><circle cx="517.8" cy="194.5" r="3" fill="#6acc65" fill-opacity="0.7000000000000001" /><circle cx="523.39" cy="232.76" r="3" fill="#6acc65" fill-opacity="0.7000000000000001" /><circle cx="518.4300000000001" cy="203.87" r="3" fill="#6acc65" fill-opacity="0.7000000000000001" /><circle cx="518.38" cy="261.72" r="3" fill="#6acc65" fill-opacity="0.7000000000000001" /><circle cx="515.83" cy="142.92000000000002" r="3" fill="#6acc65" fill-opacity="0.7000000000000001" /><circle cx="521.77" cy="183.89000000000001" r="3" fill="#6acc65" fill-opacity="0.7000000000000001" /><circle cx="518.08" cy="258.95" r="3" fill="#6acc65" fill-opacity="0.7000000000000001" /></g></svg>