<svg xmlns="http://www.w3.org/2000/svg" width="793.4" height="545" font-family="DejaVu Sans, Liberation Sans, Arial, sans-serif" fill="black"><rect width="100%" height="100%" fill="white" /><text x="396.7" y="27.400000000000002" font-size="18" text-anchor="middle">Education × Employment (non-normalized)</text><rect x="104.60000000000001" y="419.45" width="201.81" height="48.15" fill="#2ca02c" /><text x="205.51" y="447.03000000000003" font-size="10" text-anchor="middle" fill="#ffffff">31.8%</text><rect x="104.60000000000001" y="386.5" width="201.81" height="30.95" fill="#ff7f0e" /><text x="205.51" y="405.48" font-size="10" text-anchor="middle" fill="#ffffff">20.5%</text><rect x="104.60000000000001" y="312.28000000000003" width="201.81" height="72.22" fill="#1f77b4" /><text x="205.51" y="351.89" font-size="10" text-anchor="middle" fill="#ffffff">47.7%</text><text x="205.51" y="485.6" font-size="12" text-anchor="middle">No degree</text><rect x="308.41" y="448.6" width="241.95000000000002" height="19" fill="#2ca02c" /><text x="429.39" y="461.6" font-size="10" text-anchor="middle" fill="#ffffff">10.4%</text><rect x="308.41" y="430.19" width="241.95000000000002" height="16.41" fill="#ff7f0e" /><rect x="308.41" y="281.39" width="241.95000000000002" height="146.8" fill="#1f77b4" /><text x="429.39" y="358.29" font-size="10" text-anchor="middle" fill="#ffffff">80.6%</text><text x="429.39" y="485.6" font-size="12" text-anchor="middle">Bachelor&apos;s</text><rect x="552.36" y="460.04" width="106.64" height="7.5600000000000005" fill="#2ca02c" /><rect x="552.36" y="453.01" width="106.64" height="5.04" fill="#ff7f0e" /><rect x="552.36" y="385.53000000000003" width="106.64" height="65.48" fill="#1f77b4" /><text x="605.6800000000001" y="421.77" font-size="10" text-anchor="middle" fill="#ffffff">83.9%</text><text x="605.6800000000001" y="485.6" font-size="12" text-anchor="middle">Postgraduate</text><line x1="104.60000000000001" y1="44" x2="104.60000000000001" y2="467.6" stroke="#000000" stroke-width="1" /><line x1="104.60000000000001" y1="467.6" x2="99.60000000000001" y2="467.6" stroke="#000000" stroke-width="1" /><text x="91.60000000000001" y="471.8" font-size="12" text-anchor="end">0%</text><line x1="104.60000000000001" y1="361.7" x2="99.60000000000001" y2="361.7" stroke="#000000" stroke-width="1" /><text x="91.60000000000001" y="365.90000000000003" font-size="12" text-anchor="end">25%</text><line x1="104.60000000000001" y1="255.8" x2="99.60000000000001" y2="255.8" stroke="#000000" stroke-width="1" /><text x="91.60000000000001" y="260" font-size="12" text-anchor="end">50%</text><line x1="104.60000000000001" y1="149.9" x2="99.60000000000001" y2="149.9" stroke="#000000" stroke-width="1" /><text x="91.60000000000001" y="154.1" font-size="12" text-anchor="end">75%</text><line x1="104.60000000000001" y1="44" x2="99.60000000000001" y2="44" stroke="#000000" stroke-width="1" /><text x="91.60000000000001" y="48.2" font-size="12" text-anchor="end">100%</text><rect x="664" y="34" width="120" height="74" fill="#ffffff" /><rect x="664" y="34" width="120" height="74" fill="none" stroke="#000000" stroke-width="1" /><text x="694" y="53.2" font-size="12" text-anchor="start">Employed</text><rect x="674" y="43" width="12" height="12" fill="#1f77b4" /><text x="694" y="71.2" font-size="12" text-anchor="start">Unemployed</text><rect x="674" y="61" width="12" height="12" fill="#ff7f0e" /><text x="694" y="89.2" font-size="12" text-anchor="start">Inactive</text><rect x="674" y="79" width="12" height="12" fill="#2ca02c" /></svg>