<svg xmlns="http://www.w3.org/2000/svg" width="785.4" height="545" font-family="DejaVu Sans, Liberation Sans, Arial, sans-serif" fill="black"><rect width="100%" height="100%" fill="white" /><text x="392.7" y="27.400000000000002" font-size="18" text-anchor="middle">Regional Market Share by Product</text><rect x="104.60000000000001" y="409.61" width="134.64000000000001" height="57.99" fill="#2ca02c" /><text x="171.92000000000002" y="442.1" font-size="10" text-anchor="middle" fill="#ffffff">13.8%</text><rect x="104.60000000000001" y="264.33" width="134.64000000000001" height="143.28" fill="#ff7f0e" /><text x="171.92000000000002" y="339.47" font-size="10" text-anchor="middle" fill="#ffffff">34.1%</text><rect x="104.60000000000001" y="44" width="134.64000000000001" height="218.33" fill="#1f77b4" /><text x="171.92000000000002" y="156.66" font-size="10" text-anchor="middle" fill="#ffffff">52.0%</text><text x="171.92000000000002" y="485.6" font-size="12" text-anchor="middle">North</text><rect x="241.24" y="376.69" width="131.35" height="90.91" fill="#2ca02c" /><text x="306.91" y="425.64" font-size="10" text-anchor="middle" fill="#ffffff">21.7%</text><rect x="241.24" y="171.88" width="131.35" height="202.81" fill="#ff7f0e" /><text x="306.91" y="276.78000000000003" font-size="10" text-anchor="middle" fill="#ffffff">48.3%</text><rect x="241.24" y="44" width="131.35" height="125.88000000000001" fill="#1f77b4" /><text x="306.91" y="110.44" font-size="10" text-anchor="middle" fill="#ffffff">30.0%</text><text x="306.91" y="485.6" font-size="12" text-anchor="middle">South</text><rect x="374.59000000000003" y="333.47" width="133.54" height="134.13" fill="#2ca02c" /><text x="441.36" y="404.03000000000003" font-size="10" text-anchor="middle" fill="#ffffff">32.0%</text><rect x="374.59000000000003" y="211.09" width="133.54" height="120.38" fill="#ff7f0e" /><text x="441.36" y="274.78000000000003" font-size="10" text-anchor="middle" fill="#ffffff">28.7%</text><rect x="374.59000000000003" y="44" width="133.54" height="165.09" fill="#1f77b4" /><text x="441.36" y="130.04" font-size="10" text-anchor="middle" fill="#ffffff">39.3%</text><text x="441.36" y="485.6" font-size="12" text-anchor="middle">East</text><rect x="510.13" y="338.02" width="148.87" height="129.58" fill="#2ca02c" /><text x="584.57" y="406.31" font-size="10" text-anchor="middle" fill="#ffffff">30.9%</text><rect x="510.13" y="138.56" width="148.87" height="197.46" fill="#ff7f0e" /><text x="584.57" y="240.79" font-size="10" text-anchor="middle" fill="#ffffff">47.1%</text><rect x="510.13" y="44" width="148.87" height="92.56" fill="#1f77b4" /><text x="584.57" y="93.78" font-size="10" text-anchor="middle" fill="#ffffff">22.1%</text><text x="584.57" y="485.6" font-size="12" text-anchor="middle">West</text><line x1="104.60000000000001" y1="44" x2="104.60000000000001" y2="467.6" stroke="#000000" stroke-width="1" /><line x1="104.60000000000001" y1="467.6" x2="99.60000000000001" y2="467.6" stroke="#000000" stroke-width="1" /><text x="91.60000000000001" y="471.8" font-size="12" text-anchor="end">0%</text><line x1="104.60000000000001" y1="361.7" x2="99.60000000000001" y2="361.7" stroke="#000000" stroke-width="1" /><text x="91.60000000000001" y="365.90000000000003" font-size="12" text-anchor="end">25%</text><line x1="104.60000000000001" y1="255.8" x2="99.60000000000001" y2="255.8" stroke="#000000" stroke-width="1" /><text x="91.60000000000001" y="260" font-size="12" text-anchor="end">50%</text><line x1="104.60000000000001" y1="149.9" x2="99.60000000000001" y2="149.9" stroke="#000000" stroke-width="1" /><text x="91.60000000000001" y="154.1" font-size="12" text-anchor="end">75%</text><line x1="104.60000000000001" y1="44" x2="99.60000000000001" y2="44" stroke="#000000" stroke-width="1" /><text x="91.60000000000001" y="48.2" font-size="12" text-anchor="end">100%</text><rect x="664" y="34" width="112" height="74" fill="#ffffff" /><rect x="664" y="34" width="112" height="74" fill="none" stroke="#000000" stroke-width="1" /><text x="694" y="53.2" font-size="12" text-anchor="start">Product A</text><rect x="674" y="43" width="12" height="12" fill="#1f77b4" /><text x="694" y="71.2" font-size="12" text-anchor="start">Product B</text><rect x="674" y="61" width="12" height="12" fill="#ff7f0e" /><text x="694" y="89.2" font-size="12" text-anchor="start">Product C</text><rect x="674" y="79" width="12" height="12" fill="#2ca02c" /></svg>