<svg xmlns="http://www.w3.org/2000/svg" width="777.4" height="545" font-family="DejaVu Sans, Liberation Sans, Arial, sans-serif" fill="black"><rect width="100%" height="100%" fill="white" /><text x="388.7" y="27.400000000000002" font-size="18" text-anchor="middle">Titanic — Survival by Passenger Class</text><rect x="104.60000000000001" y="307.05" width="135.81" height="160.55" fill="#d01c8b" /><text x="172.51" y="390.83" font-size="10" text-anchor="middle" fill="#ffffff">38.1%</text><rect x="104.60000000000001" y="44" width="135.81" height="261.05" fill="#4dac26" /><text x="172.51" y="178.03" font-size="10" text-anchor="middle" fill="#ffffff">61.9%</text><text x="172.51" y="485.6" font-size="12" text-anchor="middle">1st Class</text><rect x="242.41" y="227.12" width="116.47" height="240.48000000000002" fill="#d01c8b" /><text x="300.65000000000003" y="350.86" font-size="10" text-anchor="middle" fill="#ffffff">57.0%</text><rect x="242.41" y="44" width="116.47" height="181.12" fill="#4dac26" /><text x="300.65000000000003" y="138.06" font-size="10" text-anchor="middle" fill="#ffffff">43.0%</text><text x="300.65000000000003" y="485.6" font-size="12" text-anchor="middle">2nd Class</text><rect x="360.88" y="153.63" width="298.12" height="313.97" fill="#d01c8b" /><text x="509.94" y="314.11" font-size="10" text-anchor="middle" fill="#ffffff">74.5%</text><rect x="360.88" y="44" width="298.12" height="107.63" fill="#4dac26" /><text x="509.94" y="101.31" font-size="10" text-anchor="middle" fill="#ffffff">25.5%</text><text x="509.94" y="485.6" font-size="12" text-anchor="middle">3rd Class</text><line x1="104.60000000000001" y1="44" x2="104.60000000000001" y2="467.6" stroke="#000000" stroke-width="1" /><line x1="104.60000000000001" y1="467.6" x2="99.60000000000001" y2="467.6" stroke="#000000" stroke-width="1" /><text x="91.60000000000001" y="471.8" font-size="12" text-anchor="end">0%</text><line x1="104.60000000000001" y1="361.7" x2="99.60000000000001" y2="361.7" stroke="#000000" stroke-width="1" /><text x="91.60000000000001" y="365.90000000000003" font-size="12" text-anchor="end">25%</text><line x1="104.60000000000001" y1="255.8" x2="99.60000000000001" y2="255.8" stroke="#000000" stroke-width="1" /><text x="91.60000000000001" y="260" font-size="12" text-anchor="end">50%</text><line x1="104.60000000000001" y1="149.9" x2="99.60000000000001" y2="149.9" stroke="#000000" stroke-width="1" /><text x="91.60000000000001" y="154.1" font-size="12" text-anchor="end">75%</text><line x1="104.60000000000001" y1="44" x2="99.60000000000001" y2="44" stroke="#000000" stroke-width="1" /><text x="91.60000000000001" y="48.2" font-size="12" text-anchor="end">100%</text><rect x="664" y="34" width="104" height="56" fill="#ffffff" /><rect x="664" y="34" width="104" height="56" fill="none" stroke="#000000" stroke-width="1" /><text x="694" y="53.2" font-size="12" text-anchor="start">Survived</text><rect x="674" y="43" width="12" height="12" fill="#4dac26" /><text x="694" y="71.2" font-size="12" text-anchor="start">Died</text><rect x="674" y="61" width="12" height="12" fill="#d01c8b" /></svg>