<svg xmlns="http://www.w3.org/2000/svg" width="777.4" height="545" font-family="DejaVu Sans, Liberation Sans, Arial, sans-serif" fill="black"><rect width="100%" height="100%" fill="white" /><text x="388.7" y="27.400000000000002" font-size="18" text-anchor="middle">Treatment × Response</text><rect x="104.60000000000001" y="333.33" width="183.47" height="134.27" fill="#2ca02c" /><text x="196.33" y="403.96000000000004" font-size="10" text-anchor="middle" fill="#ffffff">32.0%</text><rect x="104.60000000000001" y="142.51" width="183.47" height="188.82" fill="#ff7f0e" /><text x="196.33" y="240.42000000000002" font-size="10" text-anchor="middle" fill="#ffffff">45.0%</text><rect x="104.60000000000001" y="44" width="183.47" height="96.51" fill="#1f77b4" /><text x="196.33" y="95.75" font-size="10" text-anchor="middle" fill="#ffffff">23.0%</text><text x="196.33" y="485.6" font-size="12" text-anchor="middle">Control</text><rect x="290.07" y="379.48" width="183.47" height="88.12" fill="#2ca02c" /><text x="381.8" y="427.04" font-size="10" text-anchor="middle" fill="#ffffff">21.0%</text><rect x="290.07" y="218.04" width="183.47" height="159.45000000000002" fill="#ff7f0e" /><text x="381.8" y="301.26" font-size="10" text-anchor="middle" fill="#ffffff">38.0%</text><rect x="290.07" y="44" width="183.47" height="172.04" fill="#1f77b4" /><text x="381.8" y="133.52" font-size="10" text-anchor="middle" fill="#ffffff">41.0%</text><text x="381.8" y="485.6" font-size="12" text-anchor="middle">Low Dose</text><rect x="475.53000000000003" y="421.44" width="183.47" height="46.160000000000004" fill="#2ca02c" /><text x="567.27" y="448.02" font-size="10" text-anchor="middle" fill="#ffffff">11.0%</text><rect x="475.53000000000003" y="327.13" width="183.47" height="92.31" fill="#ff7f0e" /><text x="567.27" y="376.79" font-size="10" text-anchor="middle" fill="#ffffff">22.0%</text><rect x="475.53000000000003" y="44" width="183.47" height="281.13" fill="#1f77b4" /><text x="567.27" y="188.07" font-size="10" text-anchor="middle" fill="#ffffff">67.0%</text><text x="567.27" y="485.6" font-size="12" text-anchor="middle">High Dose</text><line x1="104.60000000000001" y1="44" x2="104.60000000000001" y2="467.6" stroke="#000000" stroke-width="1" /><line x1="104.60000000000001" y1="467.6" x2="99.60000000000001" y2="467.6" stroke="#000000" stroke-width="1" /><text x="91.60000000000001" y="471.8" font-size="12" text-anchor="end">0%</text><line x1="104.60000000000001" y1="361.7" x2="99.60000000000001" y2="361.7" stroke="#000000" stroke-width="1" /><text x="91.60000000000001" y="365.90000000000003" font-size="12" text-anchor="end">25%</text><line x1="104.60000000000001" y1="255.8" x2="99.60000000000001" y2="255.8" stroke="#000000" stroke-width="1" /><text x="91.60000000000001" y="260" font-size="12" text-anchor="end">50%</text><line x1="104.60000000000001" y1="149.9" x2="99.60000000000001" y2="149.9" stroke="#000000" stroke-width="1" /><text x="91.60000000000001" y="154.1" font-size="12" text-anchor="end">75%</text><line x1="104.60000000000001" y1="44" x2="99.60000000000001" y2="44" stroke="#000000" stroke-width="1" /><text x="91.60000000000001" y="48.2" font-size="12" text-anchor="end">100%</text><rect x="664" y="34" width="104" height="74" fill="#ffffff" /><rect x="664" y="34" width="104" height="74" fill="none" stroke="#000000" stroke-width="1" /><text x="694" y="53.2" font-size="12" text-anchor="start">Positive</text><rect x="674" y="43" width="12" height="12" fill="#1f77b4" /><text x="694" y="71.2" font-size="12" text-anchor="start">Neutral</text><rect x="674" y="61" width="12" height="12" fill="#ff7f0e" /><text x="694" y="89.2" font-size="12" text-anchor="start">Negative</text><rect x="674" y="79" width="12" height="12" fill="#2ca02c" /></svg>