<svg xmlns="http://www.w3.org/2000/svg" width="809.4" height="545" font-family="DejaVu Sans, Liberation Sans, Arial, sans-serif" fill="black"><rect width="100%" height="100%" fill="white" /><text x="404.7" y="27.400000000000002" font-size="18" text-anchor="middle">Vaccine Efficacy</text><rect x="104.60000000000001" y="417.01" width="276.2" height="50.59" fill="#d7191c" /><text x="242.70000000000002" y="445.8" font-size="10" text-anchor="middle" fill="#ffffff">12.0%</text><rect x="104.60000000000001" y="44" width="276.2" height="371.01" fill="#1a9641" /><text x="242.70000000000002" y="233" font-size="10" text-anchor="middle" fill="#ffffff">88.0%</text><text x="242.70000000000002" y="485.6" font-size="12" text-anchor="middle">Vaccinated</text><rect x="382.8" y="172.48" width="276.2" height="295.12" fill="#d7191c" /><text x="520.9" y="323.54" font-size="10" text-anchor="middle" fill="#ffffff">70.0%</text><rect x="382.8" y="44" width="276.2" height="126.48" fill="#1a9641" /><text x="520.9" y="110.74000000000001" font-size="10" text-anchor="middle" fill="#ffffff">30.0%</text><text x="520.9" y="485.6" font-size="12" text-anchor="middle">Unvaccinated</text><line x1="104.60000000000001" y1="44" x2="104.60000000000001" y2="467.6" stroke="#000000" stroke-width="1" /><line x1="104.60000000000001" y1="467.6" x2="99.60000000000001" y2="467.6" stroke="#000000" stroke-width="1" /><text x="91.60000000000001" y="471.8" font-size="12" text-anchor="end">0%</text><line x1="104.60000000000001" y1="361.7" x2="99.60000000000001" y2="361.7" stroke="#000000" stroke-width="1" /><text x="91.60000000000001" y="365.90000000000003" font-size="12" text-anchor="end">25%</text><line x1="104.60000000000001" y1="255.8" x2="99.60000000000001" y2="255.8" stroke="#000000" stroke-width="1" /><text x="91.60000000000001" y="260" font-size="12" text-anchor="end">50%</text><line x1="104.60000000000001" y1="149.9" x2="99.60000000000001" y2="149.9" stroke="#000000" stroke-width="1" /><text x="91.60000000000001" y="154.1" font-size="12" text-anchor="end">75%</text><line x1="104.60000000000001" y1="44" x2="99.60000000000001" y2="44" stroke="#000000" stroke-width="1" /><text x="91.60000000000001" y="48.2" font-size="12" text-anchor="end">100%</text><rect x="664" y="34" width="136" height="56" fill="#ffffff" /><rect x="664" y="34" width="136" height="56" fill="none" stroke="#000000" stroke-width="1" /><text x="694" y="53.2" font-size="12" text-anchor="start">Protected</text><rect x="674" y="43" width="12" height="12" fill="#1a9641" /><text x="694" y="71.2" font-size="12" text-anchor="start">Breakthrough</text><rect x="674" y="61" width="12" height="12" fill="#d7191c" /></svg>