<svg xmlns="http://www.w3.org/2000/svg" width="673.4" height="545" font-family="DejaVu Sans, Liberation Sans, Arial, sans-serif" fill="black"><rect width="100%" height="100%" fill="white" /><text x="359" y="22" font-size="18" text-anchor="middle">Energy Flow</text><rect x="134.83" y="44" width="20" height="450" fill="#1f77b4" /><rect x="306.5" y="44" width="20" height="276.25" fill="#ff7f0e" /><rect x="306.5" y="328.25" width="20" height="165.75" fill="#2ca02c" /><rect x="478.17" y="44" width="20" height="276.25" fill="#d62728" /><rect x="478.17" y="328.25" width="20" height="165.75" fill="#9467bd" /><path d="M 154.83333333333331 44 C 230.66666666666666 44 230.66666666666666 44 306.5 44 L 306.5 320.25 C 230.66666666666666 320.25 230.66666666666666 325.25 154.83333333333331 325.25 Z" stroke="none" stroke-width="0" fill="#1f77b4" fill-opacity="0.5" /><path d="M 154.83333333333331 325.25 C 230.66666666666666 325.25 230.66666666666666 328.25 306.5 328.25 L 306.5 494 C 230.66666666666666 494 230.66666666666666 494 154.83333333333331 494 Z" stroke="none" stroke-width="0" fill="#1f77b4" fill-opacity="0.5" /><path d="M 326.5 44 C 402.3333333333333 44 402.3333333333333 44 478.16666666666663 44 L 478.16666666666663 265 C 402.3333333333333 265 402.3333333333333 265 326.5 265 Z" stroke="none" stroke-width="0" fill="#ff7f0e" fill-opacity="0.5" /><path d="M 326.5 328.25 C 402.3333333333333 328.25 402.3333333333333 265 478.16666666666663 265 L 478.16666666666663 320.25 C 402.3333333333333 320.25 402.3333333333333 383.5 326.5 383.5 Z" stroke="none" stroke-width="0" fill="#2ca02c" fill-opacity="0.5" /><path d="M 326.5 265 C 402.3333333333333 265 402.3333333333333 328.25 478.16666666666663 328.25 L 478.16666666666663 383.5 C 402.3333333333333 383.5 402.3333333333333 320.25 326.5 320.25 Z" stroke="none" stroke-width="0" fill="#ff7f0e" fill-opacity="0.5" /><path d="M 326.5 383.5 C 402.3333333333333 383.5 402.3333333333333 383.5 478.16666666666663 383.5 L 478.16666666666663 494 C 402.3333333333333 494 402.3333333333333 494 326.5 494 Z" stroke="none" stroke-width="0" fill="#2ca02c" fill-opacity="0.5" /><text x="128.83" y="273.2" font-size="12" text-anchor="end">Input</text><text x="332.5" y="186.33" font-size="12" text-anchor="start">Process A</text><text x="332.5" y="415.33" font-size="12" text-anchor="start">Process B</text><text x="504.17" y="186.33" font-size="12" text-anchor="start">Output X</text><text x="504.17" y="415.33" font-size="12" text-anchor="start">Output Y</text></svg>