<svg xmlns="http://www.w3.org/2000/svg" width="686.2" height="545" font-family="DejaVu Sans, Liberation Sans, Arial, sans-serif" fill="black"><rect width="100%" height="100%" fill="white" /><text x="372.2" y="22" font-size="18" text-anchor="middle">Energy Flow</text><rect x="148.03" y="44" width="20" height="450" fill="#1f77b4" /><rect x="319.7" y="44" width="20" height="276.25" fill="#ff7f0e" /><rect x="319.7" y="328.25" width="20" height="165.75" fill="#2ca02c" /><rect x="491.37" y="44" width="20" height="276.25" fill="#d62728" /><rect x="491.37" y="328.25" width="20" height="165.75" fill="#9467bd" /><path d="M 168.0333333333333 44 C 243.86666666666665 44 243.86666666666665 44 319.7 44 L 319.7 320.25 C 243.86666666666665 320.25 243.86666666666665 325.25 168.0333333333333 325.25 Z" stroke="none" stroke-width="0" fill="#1f77b4" fill-opacity="0.5" /><path d="M 168.0333333333333 325.25 C 243.86666666666665 325.25 243.86666666666665 328.25 319.7 328.25 L 319.7 494 C 243.86666666666665 494 243.86666666666665 494 168.0333333333333 494 Z" stroke="none" stroke-width="0" fill="#1f77b4" fill-opacity="0.5" /><path d="M 339.7 44 C 415.5333333333333 44 415.5333333333333 44 491.3666666666666 44 L 491.3666666666666 265 C 415.5333333333333 265 415.5333333333333 265 339.7 265 Z" stroke="none" stroke-width="0" fill="#ff7f0e" fill-opacity="0.5" /><path d="M 339.7 328.25 C 415.5333333333333 328.25 415.5333333333333 265 491.3666666666666 265 L 491.3666666666666 320.25 C 415.5333333333333 320.25 415.5333333333333 383.5 339.7 383.5 Z" stroke="none" stroke-width="0" fill="#2ca02c" fill-opacity="0.5" /><path d="M 339.7 265 C 415.5333333333333 265 415.5333333333333 328.25 491.3666666666666 328.25 L 491.3666666666666 383.5 C 415.5333333333333 383.5 415.5333333333333 320.25 339.7 320.25 Z" stroke="none" stroke-width="0" fill="#ff7f0e" fill-opacity="0.5" /><path d="M 339.7 383.5 C 415.5333333333333 383.5 415.5333333333333 383.5 491.3666666666666 383.5 L 491.3666666666666 494 C 415.5333333333333 494 415.5333333333333 494 339.7 494 Z" stroke="none" stroke-width="0" fill="#2ca02c" fill-opacity="0.5" /><text x="142.03" y="273.2" font-size="12" text-anchor="end">Input</text><text x="345.7" y="186.33" font-size="12" text-anchor="start">Process A</text><text x="345.7" y="415.33" font-size="12" text-anchor="start">Process B</text><text x="517.37" y="186.33" font-size="12" text-anchor="start">Output X</text><text x="517.37" y="415.33" font-size="12" text-anchor="start">Output Y</text></svg>