<svg xmlns="http://www.w3.org/2000/svg" width="673.4" height="545" font-family="DejaVu Sans, Liberation Sans, Arial, sans-serif" fill="black"><rect width="100%" height="100%" fill="white" /><text x="336.7" y="27.400000000000002" font-size="18" text-anchor="middle">RNA-seq Pipeline — % of Source Outflow</text><rect x="134.83" y="44" width="20" height="450" fill="#888888" /><rect x="306.5" y="44" width="20" height="426.40000000000003" fill="#4daf4a" /><rect x="306.5" y="478.40000000000003" width="20" height="15.6" fill="#e41a1c" /><rect x="478.17" y="44" width="20" height="359.90000000000003" fill="#377eb8" /><rect x="478.17" y="411.90000000000003" width="20" height="42.34" fill="#ff7f00" /><rect x="478.17" y="462.24" width="20" height="31.76" fill="#cccccc" /><path d="M 154.83333333333331 44 C 230.66666666666666 44 230.66666666666666 43.99999999999997 306.5 43.99999999999997 L 306.5 470.4 C 230.66666666666666 470.4 230.66666666666666 478.11764705882354 154.83333333333331 478.11764705882354 Z" stroke="none" stroke-width="0" fill="#888888" fill-opacity="0.5" /><text x="230.67000000000002" y="263.33" font-size="12" text-anchor="middle">96.5%</text><path d="M 154.83333333333331 478.11764705882354 C 230.66666666666666 478.11764705882354 230.66666666666666 478.4 306.5 478.4 L 306.5 494 C 230.66666666666666 494 230.66666666666666 494 154.83333333333331 494 Z" stroke="none" stroke-width="0" fill="#888888" fill-opacity="0.5" /><text x="230.67000000000002" y="490.33" font-size="12" text-anchor="middle">3.5%</text><path d="M 326.5 43.99999999999997 C 402.3333333333333 43.99999999999997 402.3333333333333 44 478.16666666666663 44 L 478.16666666666663 403.9024390243902 C 402.3333333333333 403.9024390243902 402.3333333333333 397.6 326.5 397.6 Z" stroke="none" stroke-width="0" fill="#4daf4a" fill-opacity="0.5" /><text x="430.53000000000003" y="227.41" font-size="12" text-anchor="middle">82.9%</text><path d="M 326.5 397.6 C 402.3333333333333 397.6 402.3333333333333 411.9024390243902 478.16666666666663 411.9024390243902 L 478.16666666666663 454.2439024390244 C 402.3333333333333 454.2439024390244 402.3333333333333 439.20000000000005 326.5 439.20000000000005 Z" stroke="none" stroke-width="0" fill="#4daf4a" fill-opacity="0.5" /><text x="430.53000000000003" y="433.84000000000003" font-size="12" text-anchor="middle">9.8%</text><path d="M 326.5 439.20000000000005 C 402.3333333333333 439.20000000000005 402.3333333333333 462.2439024390244 478.16666666666663 462.2439024390244 L 478.16666666666663 494 C 402.3333333333333 494 402.3333333333333 470.40000000000003 326.5 470.40000000000003 Z" stroke="none" stroke-width="0" fill="#4daf4a" fill-opacity="0.5" /><text x="430.53000000000003" y="476.87" font-size="12" text-anchor="middle">7.3%</text><text x="128.83" y="273.2" font-size="12" text-anchor="end">Raw reads</text><text x="332.5" y="261.4" font-size="12" text-anchor="start">Trimmed</text><text x="332.5" y="490.40000000000003" font-size="12" text-anchor="start">Discarded</text><text x="504.17" y="228.15" font-size="12" text-anchor="start">Genome aligned</text><text x="504.17" y="437.27" font-size="12" text-anchor="start">rRNA</text><text x="504.17" y="482.32" font-size="12" text-anchor="start">Unmapped</text></svg>