<svg xmlns="http://www.w3.org/2000/svg" width="673.4" height="545" font-family="DejaVu Sans, Liberation Sans, Arial, sans-serif" fill="black"><rect width="100%" height="100%" fill="white" /><text x="336.7" y="27.400000000000002" font-size="18" text-anchor="middle">RNA-seq Pipeline — Absolute Flow (M reads)</text><rect x="113.38" y="44" width="20" height="450" fill="#1f77b4" /><rect x="242.13" y="44" width="20" height="426.40000000000003" fill="#ff7f0e" /><rect x="242.13" y="478.40000000000003" width="20" height="15.6" fill="#2ca02c" /><rect x="370.88" y="44" width="20" height="359.90000000000003" fill="#d62728" /><rect x="370.88" y="411.90000000000003" width="20" height="42.34" fill="#9467bd" /><rect x="370.88" y="462.24" width="20" height="31.76" fill="#8c564b" /><rect x="499.63" y="44" width="20" height="268.06" fill="#e377c2" /><rect x="499.63" y="320.06" width="20" height="114.88" fill="#7f7f7f" /><rect x="499.63" y="442.94" width="20" height="51.06" fill="#bcbd22" /><path d="M 133.375 44 C 187.75 44 187.75 43.99999999999997 242.125 43.99999999999997 L 242.125 470.4 C 187.75 470.4 187.75 478.11764705882354 133.375 478.11764705882354 Z" stroke="none" stroke-width="0" fill="#1f77b4" fill-opacity="0.5" /><text x="187.75" y="263.33" font-size="12" text-anchor="middle">82 M reads</text><path d="M 133.375 478.11764705882354 C 187.75 478.11764705882354 187.75 478.4 242.125 478.4 L 242.125 494 C 187.75 494 187.75 494 133.375 494 Z" stroke="none" stroke-width="0" fill="#1f77b4" fill-opacity="0.5" /><text x="187.75" y="490.33" font-size="12" text-anchor="middle">3 M reads</text><path d="M 262.125 43.99999999999997 C 316.5 43.99999999999997 316.5 44 370.875 44 L 370.875 403.9024390243902 C 316.5 403.9024390243902 316.5 397.6 262.125 397.6 Z" stroke="none" stroke-width="0" fill="#ff7f0e" fill-opacity="0.5" /><text x="344.7" y="227.69" font-size="12" text-anchor="middle">68 M reads</text><path d="M 262.125 397.6 C 316.5 397.6 316.5 411.9024390243902 370.875 411.9024390243902 L 370.875 454.2439024390244 C 316.5 454.2439024390244 316.5 439.20000000000005 262.125 439.20000000000005 Z" stroke="none" stroke-width="0" fill="#ff7f0e" fill-opacity="0.5" /><text x="344.7" y="435.13" font-size="12" text-anchor="middle">8 M reads</text><path d="M 262.125 439.20000000000005 C 316.5 439.20000000000005 316.5 462.2439024390244 370.875 462.2439024390244 L 370.875 494 C 316.5 494 316.5 470.40000000000003 262.125 470.40000000000003 Z" stroke="none" stroke-width="0" fill="#ff7f0e" fill-opacity="0.5" /><text x="344.7" y="478.92" font-size="12" text-anchor="middle">6 M reads</text><path d="M 390.875 44 C 445.25 44 445.25 44 499.625 44 L 499.625 312.05882352941177 C 445.25 312.05882352941177 445.25 266.29268292682923 390.875 266.29268292682923 Z" stroke="none" stroke-width="0" fill="#d62728" fill-opacity="0.5" /><text x="461.56" y="175.78" font-size="12" text-anchor="middle">42 M reads</text><path d="M 390.875 266.29268292682923 C 445.25 266.29268292682923 445.25 320.05882352941177 499.625 320.05882352941177 L 499.625 434.94117647058823 C 445.25 434.94117647058823 445.25 361.56097560975604 390.875 361.56097560975604 Z" stroke="none" stroke-width="0" fill="#d62728" fill-opacity="0.5" /><text x="461.56" y="363.79" font-size="12" text-anchor="middle">18 M reads</text><path d="M 390.875 361.56097560975604 C 445.25 361.56097560975604 445.25 442.94117647058823 499.625 442.94117647058823 L 499.625 494 C 445.25 494 445.25 403.90243902439016 390.875 403.90243902439016 Z" stroke="none" stroke-width="0" fill="#d62728" fill-opacity="0.5" /><text x="461.56" y="448.51" font-size="12" text-anchor="middle">8 M reads</text><text x="107.38" y="273.2" font-size="12" text-anchor="end">Raw reads</text><text x="268.13" y="261.4" font-size="12" text-anchor="start">Trimmed</text><text x="268.13" y="490.40000000000003" font-size="12" text-anchor="start">Discarded</text><text x="396.88" y="228.15" font-size="12" text-anchor="start">Genome aligned</text><text x="396.88" y="437.27" font-size="12" text-anchor="start">rRNA</text><text x="396.88" y="482.32" font-size="12" text-anchor="start">Unmapped</text><text x="525.63" y="182.23" font-size="12" text-anchor="start">Exonic</text><text x="525.63" y="381.7" font-size="12" text-anchor="start">Intronic</text><text x="525.63" y="472.67" font-size="12" text-anchor="start">Intergenic</text></svg>