<svg xmlns="http://www.w3.org/2000/svg" width="673.4" height="545" font-family="DejaVu Sans, Liberation Sans, Arial, sans-serif" fill="black"><rect width="100%" height="100%" fill="white" /><defs><linearGradient id="grad_0" x1="0%" y1="0%" x2="100%" y2="0%"><stop offset="0%" stop-color="#e41a1c"/><stop offset="100%" stop-color="#377eb8"/></linearGradient><linearGradient id="grad_1" x1="0%" y1="0%" x2="100%" y2="0%"><stop offset="0%" stop-color="#e41a1c"/><stop offset="100%" stop-color="#4daf4a"/></linearGradient><linearGradient id="grad_2" x1="0%" y1="0%" x2="100%" y2="0%"><stop offset="0%" stop-color="#e41a1c"/><stop offset="100%" stop-color="#ff7f00"/></linearGradient><linearGradient id="grad_3" x1="0%" y1="0%" x2="100%" y2="0%"><stop offset="0%" stop-color="#377eb8"/><stop offset="100%" stop-color="#984ea3"/></linearGradient><linearGradient id="grad_4" x1="0%" y1="0%" x2="100%" y2="0%"><stop offset="0%" stop-color="#4daf4a"/><stop offset="100%" stop-color="#984ea3"/></linearGradient><linearGradient id="grad_5" x1="0%" y1="0%" x2="100%" y2="0%"><stop offset="0%" stop-color="#ff7f00"/><stop offset="100%" stop-color="#984ea3"/></linearGradient><linearGradient id="grad_6" x1="0%" y1="0%" x2="100%" y2="0%"><stop offset="0%" stop-color="#377eb8"/><stop offset="100%" stop-color="#a65628"/></linearGradient><linearGradient id="grad_7" x1="0%" y1="0%" x2="100%" y2="0%"><stop offset="0%" stop-color="#4daf4a"/><stop offset="100%" stop-color="#a65628"/></linearGradient><linearGradient id="grad_8" x1="0%" y1="0%" x2="100%" y2="0%"><stop offset="0%" stop-color="#ff7f00"/><stop offset="100%" stop-color="#a65628"/></linearGradient></defs><text x="336.7" y="27.400000000000002" font-size="18" text-anchor="middle">Budget Allocation — Gradient Ribbons</text><rect x="134.83" y="44" width="20" height="450" fill="#e41a1c" /><rect x="306.5" y="44" width="20" height="173.6" fill="#377eb8" /><rect x="306.5" y="225.6" width="20" height="108.5" fill="#4daf4a" /><rect x="306.5" y="342.1" width="20" height="151.9" fill="#ff7f00" /><rect x="478.17" y="44" width="20" height="265.2" fill="#984ea3" /><rect x="478.17" y="317.2" width="20" height="176.8" fill="#a65628" /><path d="M 154.83333333333331 44 C 230.66666666666666 44 230.66666666666666 44 306.5 44 L 306.5 217.60000000000002 C 230.66666666666666 217.60000000000002 230.66666666666666 224 154.83333333333331 224 Z" stroke="none" stroke-width="0" fill="url(#grad_0)" fill-opacity="0.6" /><path d="M 154.83333333333331 224 C 230.66666666666666 224 230.66666666666666 225.60000000000002 306.5 225.60000000000002 L 306.5 334.1 C 230.66666666666666 334.1 230.66666666666666 336.5 154.83333333333331 336.5 Z" stroke="none" stroke-width="0" fill="url(#grad_1)" fill-opacity="0.6" /><path d="M 154.83333333333331 336.5 C 230.66666666666666 336.5 230.66666666666666 342.1 306.5 342.1 L 306.5 494 C 230.66666666666666 494 230.66666666666666 494 154.83333333333331 494 Z" stroke="none" stroke-width="0" fill="url(#grad_2)" fill-opacity="0.6" /><path d="M 326.5 44 C 402.3333333333333 44 402.3333333333333 44 478.16666666666663 44 L 478.16666666666663 154.5 C 402.3333333333333 154.5 402.3333333333333 152.5 326.5 152.5 Z" stroke="none" stroke-width="0" fill="url(#grad_3)" fill-opacity="0.6" /><path d="M 326.5 225.60000000000002 C 402.3333333333333 225.60000000000002 402.3333333333333 154.5 478.16666666666663 154.5 L 478.16666666666663 220.8 C 402.3333333333333 220.8 402.3333333333333 290.70000000000005 326.5 290.70000000000005 Z" stroke="none" stroke-width="0" fill="url(#grad_4)" fill-opacity="0.6" /><path d="M 326.5 342.1 C 402.3333333333333 342.1 402.3333333333333 220.8 478.16666666666663 220.8 L 478.16666666666663 309.2 C 402.3333333333333 309.2 402.3333333333333 428.9 326.5 428.9 Z" stroke="none" stroke-width="0" fill="url(#grad_5)" fill-opacity="0.6" /><path d="M 326.5 152.5 C 402.3333333333333 152.5 402.3333333333333 317.2 478.16666666666663 317.2 L 478.16666666666663 383.5 C 402.3333333333333 383.5 402.3333333333333 217.60000000000002 326.5 217.60000000000002 Z" stroke="none" stroke-width="0" fill="url(#grad_6)" fill-opacity="0.6" /><path d="M 326.5 290.70000000000005 C 402.3333333333333 290.70000000000005 402.3333333333333 383.5 478.16666666666663 383.5 L 478.16666666666663 427.7 C 402.3333333333333 427.7 402.3333333333333 334.1 326.5 334.1 Z" stroke="none" stroke-width="0" fill="url(#grad_7)" fill-opacity="0.6" /><path d="M 326.5 428.9 C 402.3333333333333 428.9 402.3333333333333 427.7 478.16666666666663 427.7 L 478.16666666666663 494 C 402.3333333333333 494 402.3333333333333 493.99999999999994 326.5 493.99999999999994 Z" stroke="none" stroke-width="0" fill="url(#grad_8)" fill-opacity="0.6" /><text x="128.83" y="273.2" font-size="12" text-anchor="end">Budget</text><text x="332.5" y="135" font-size="12" text-anchor="start">R&amp;D</text><text x="332.5" y="284.05" font-size="12" text-anchor="start">Marketing</text><text x="332.5" y="422.25" font-size="12" text-anchor="start">Ops</text><text x="504.17" y="180.8" font-size="12" text-anchor="start">Product A</text><text x="504.17" y="409.8" font-size="12" text-anchor="start">Product B</text></svg>