<svg xmlns="http://www.w3.org/2000/svg" width="686.2" height="545" font-family="DejaVu Sans, Liberation Sans, Arial, sans-serif" fill="black"><rect width="100%" height="100%" fill="white" /><defs><linearGradient id="grad_0" x1="0%" y1="0%" x2="100%" y2="0%"><stop offset="0%" stop-color="#e41a1c"/><stop offset="100%" stop-color="#377eb8"/></linearGradient><linearGradient id="grad_1" x1="0%" y1="0%" x2="100%" y2="0%"><stop offset="0%" stop-color="#e41a1c"/><stop offset="100%" stop-color="#4daf4a"/></linearGradient><linearGradient id="grad_2" x1="0%" y1="0%" x2="100%" y2="0%"><stop offset="0%" stop-color="#e41a1c"/><stop offset="100%" stop-color="#ff7f00"/></linearGradient><linearGradient id="grad_3" x1="0%" y1="0%" x2="100%" y2="0%"><stop offset="0%" stop-color="#377eb8"/><stop offset="100%" stop-color="#984ea3"/></linearGradient><linearGradient id="grad_4" x1="0%" y1="0%" x2="100%" y2="0%"><stop offset="0%" stop-color="#4daf4a"/><stop offset="100%" stop-color="#984ea3"/></linearGradient><linearGradient id="grad_5" x1="0%" y1="0%" x2="100%" y2="0%"><stop offset="0%" stop-color="#ff7f00"/><stop offset="100%" stop-color="#984ea3"/></linearGradient><linearGradient id="grad_6" x1="0%" y1="0%" x2="100%" y2="0%"><stop offset="0%" stop-color="#377eb8"/><stop offset="100%" stop-color="#a65628"/></linearGradient><linearGradient id="grad_7" x1="0%" y1="0%" x2="100%" y2="0%"><stop offset="0%" stop-color="#4daf4a"/><stop offset="100%" stop-color="#a65628"/></linearGradient><linearGradient id="grad_8" x1="0%" y1="0%" x2="100%" y2="0%"><stop offset="0%" stop-color="#ff7f00"/><stop offset="100%" stop-color="#a65628"/></linearGradient></defs><text x="372.2" y="22" font-size="18" text-anchor="middle">Budget Allocation — Gradient Ribbons</text><rect x="148.03" y="44" width="20" height="450" fill="#e41a1c" /><rect x="319.7" y="44" width="20" height="173.6" fill="#377eb8" /><rect x="319.7" y="225.6" width="20" height="108.5" fill="#4daf4a" /><rect x="319.7" y="342.1" width="20" height="151.9" fill="#ff7f00" /><rect x="491.37" y="44" width="20" height="265.2" fill="#984ea3" /><rect x="491.37" y="317.2" width="20" height="176.8" fill="#a65628" /><path d="M 168.0333333333333 44 C 243.86666666666665 44 243.86666666666665 44 319.7 44 L 319.7 217.60000000000002 C 243.86666666666665 217.60000000000002 243.86666666666665 224 168.0333333333333 224 Z" stroke="none" stroke-width="0" fill="url(#grad_0)" fill-opacity="0.6" /><path d="M 168.0333333333333 224 C 243.86666666666665 224 243.86666666666665 225.60000000000002 319.7 225.60000000000002 L 319.7 334.1 C 243.86666666666665 334.1 243.86666666666665 336.5 168.0333333333333 336.5 Z" stroke="none" stroke-width="0" fill="url(#grad_1)" fill-opacity="0.6" /><path d="M 168.0333333333333 336.5 C 243.86666666666665 336.5 243.86666666666665 342.1 319.7 342.1 L 319.7 494 C 243.86666666666665 494 243.86666666666665 494 168.0333333333333 494 Z" stroke="none" stroke-width="0" fill="url(#grad_2)" fill-opacity="0.6" /><path d="M 339.7 44 C 415.5333333333333 44 415.5333333333333 44 491.3666666666666 44 L 491.3666666666666 154.5 C 415.5333333333333 154.5 415.5333333333333 152.5 339.7 152.5 Z" stroke="none" stroke-width="0" fill="url(#grad_3)" fill-opacity="0.6" /><path d="M 339.7 225.60000000000002 C 415.5333333333333 225.60000000000002 415.5333333333333 154.5 491.3666666666666 154.5 L 491.3666666666666 220.8 C 415.5333333333333 220.8 415.5333333333333 290.70000000000005 339.7 290.70000000000005 Z" stroke="none" stroke-width="0" fill="url(#grad_4)" fill-opacity="0.6" /><path d="M 339.7 342.1 C 415.5333333333333 342.1 415.5333333333333 220.8 491.3666666666666 220.8 L 491.3666666666666 309.2 C 415.5333333333333 309.2 415.5333333333333 428.9 339.7 428.9 Z" stroke="none" stroke-width="0" fill="url(#grad_5)" fill-opacity="0.6" /><path d="M 339.7 152.5 C 415.5333333333333 152.5 415.5333333333333 317.2 491.3666666666666 317.2 L 491.3666666666666 383.5 C 415.5333333333333 383.5 415.5333333333333 217.60000000000002 339.7 217.60000000000002 Z" stroke="none" stroke-width="0" fill="url(#grad_6)" fill-opacity="0.6" /><path d="M 339.7 290.70000000000005 C 415.5333333333333 290.70000000000005 415.5333333333333 383.5 491.3666666666666 383.5 L 491.3666666666666 427.7 C 415.5333333333333 427.7 415.5333333333333 334.1 339.7 334.1 Z" stroke="none" stroke-width="0" fill="url(#grad_7)" fill-opacity="0.6" /><path d="M 339.7 428.9 C 415.5333333333333 428.9 415.5333333333333 427.7 491.3666666666666 427.7 L 491.3666666666666 494 C 415.5333333333333 494 415.5333333333333 493.99999999999994 339.7 493.99999999999994 Z" stroke="none" stroke-width="0" fill="url(#grad_8)" fill-opacity="0.6" /><text x="142.03" y="273.2" font-size="12" text-anchor="end">Budget</text><text x="345.7" y="135" font-size="12" text-anchor="start">R&amp;D</text><text x="345.7" y="284.05" font-size="12" text-anchor="start">Marketing</text><text x="345.7" y="422.25" font-size="12" text-anchor="start">Ops</text><text x="517.37" y="180.8" font-size="12" text-anchor="start">Product A</text><text x="517.37" y="409.8" font-size="12" text-anchor="start">Product B</text></svg>