<svg xmlns="http://www.w3.org/2000/svg" width="785.4" height="545" font-family="DejaVu Sans, Liberation Sans, Arial, sans-serif" fill="black"><rect width="100%" height="100%" fill="white" /><text x="392.7" y="27.400000000000002" font-size="18" text-anchor="middle">Node Colors &amp; Legend</text><rect x="132.83" y="44" width="24" height="450" fill="#888888" /><rect x="304.5" y="44" width="24" height="252.57" fill="#377eb8" /><rect x="304.5" y="304.57" width="24" height="189.43" fill="#4daf4a" /><rect x="476.17" y="44" width="24" height="450" fill="#984ea3" /><path d="M 156.83333333333331 44 C 230.66666666666666 44 230.66666666666666 44 304.5 44 L 304.5 296.57142857142856 C 230.66666666666666 296.57142857142856 230.66666666666666 301.1428571428571 156.83333333333331 301.1428571428571 Z" stroke="none" stroke-width="0" fill="#888888" fill-opacity="0.5" /><path d="M 156.83333333333331 301.1428571428571 C 230.66666666666666 301.1428571428571 230.66666666666666 304.57142857142856 304.5 304.57142857142856 L 304.5 494 C 230.66666666666666 494 230.66666666666666 493.99999999999994 156.83333333333331 493.99999999999994 Z" stroke="none" stroke-width="0" fill="#888888" fill-opacity="0.5" /><path d="M 328.5 44 C 402.3333333333333 44 402.3333333333333 44 476.16666666666663 44 L 476.16666666666663 306.5 C 402.3333333333333 306.5 402.3333333333333 296.57142857142856 328.5 296.57142857142856 Z" stroke="none" stroke-width="0" fill="#377eb8" fill-opacity="0.5" /><path d="M 328.5 304.57142857142856 C 402.3333333333333 304.57142857142856 402.3333333333333 306.5 476.16666666666663 306.5 L 476.16666666666663 494 C 402.3333333333333 494 402.3333333333333 494 328.5 494 Z" stroke="none" stroke-width="0" fill="#4daf4a" fill-opacity="0.5" /><text x="126.83" y="273.2" font-size="12" text-anchor="end">Input</text><text x="334.5" y="174.49" font-size="12" text-anchor="start">Process A</text><text x="334.5" y="403.49" font-size="12" text-anchor="start">Process B</text><text x="506.17" y="273.2" font-size="12" text-anchor="start">Output</text><rect x="664" y="34" width="112" height="92" fill="#ffffff" /><rect x="664" y="34" width="112" height="92" fill="none" stroke="#000000" stroke-width="1" /><text x="694" y="53.2" font-size="12" text-anchor="start">Input</text><rect x="674" y="43" width="12" height="12" fill="#888888" /><text x="694" y="71.2" font-size="12" text-anchor="start">Process A</text><rect x="674" y="61" width="12" height="12" fill="#377eb8" /><text x="694" y="89.2" font-size="12" text-anchor="start">Process B</text><rect x="674" y="79" width="12" height="12" fill="#4daf4a" /><text x="694" y="107.2" font-size="12" text-anchor="start">Output</text><rect x="674" y="97" width="12" height="12" fill="#984ea3" /></svg>