<svg xmlns="http://www.w3.org/2000/svg" width="797.7" height="545" font-family="DejaVu Sans, Liberation Sans, Arial, sans-serif" fill="black"><rect width="100%" height="100%" fill="white" /><text x="372.2" y="22" font-size="18" text-anchor="middle">Node Colors &amp; Legend</text><rect x="146.03" y="44" width="24" height="450" fill="#888888" /><rect x="317.7" y="44" width="24" height="252.57" fill="#377eb8" /><rect x="317.7" y="304.57" width="24" height="189.43" fill="#4daf4a" /><rect x="489.37" y="44" width="24" height="450" fill="#984ea3" /><path d="M 170.0333333333333 44 C 243.86666666666665 44 243.86666666666665 44 317.7 44 L 317.7 296.57142857142856 C 243.86666666666665 296.57142857142856 243.86666666666665 301.1428571428571 170.0333333333333 301.1428571428571 Z" stroke="none" stroke-width="0" fill="#888888" fill-opacity="0.5" /><path d="M 170.0333333333333 301.1428571428571 C 243.86666666666665 301.1428571428571 243.86666666666665 304.57142857142856 317.7 304.57142857142856 L 317.7 494 C 243.86666666666665 494 243.86666666666665 493.99999999999994 170.0333333333333 493.99999999999994 Z" stroke="none" stroke-width="0" fill="#888888" fill-opacity="0.5" /><path d="M 341.7 44 C 415.5333333333333 44 415.5333333333333 44 489.3666666666666 44 L 489.3666666666666 306.5 C 415.5333333333333 306.5 415.5333333333333 296.57142857142856 341.7 296.57142857142856 Z" stroke="none" stroke-width="0" fill="#377eb8" fill-opacity="0.5" /><path d="M 341.7 304.57142857142856 C 415.5333333333333 304.57142857142856 415.5333333333333 306.5 489.3666666666666 306.5 L 489.3666666666666 494 C 415.5333333333333 494 415.5333333333333 494 341.7 494 Z" stroke="none" stroke-width="0" fill="#4daf4a" fill-opacity="0.5" /><text x="140.03" y="273.2" font-size="12" text-anchor="end">Input</text><text x="347.7" y="174.49" font-size="12" text-anchor="start">Process A</text><text x="347.7" y="403.49" font-size="12" text-anchor="start">Process B</text><text x="519.37" y="273.2" font-size="12" text-anchor="start">Output</text><rect x="677.2" y="34" width="111.5" height="92" fill="#ffffff" /><rect x="677.2" y="34" width="111.5" height="92" fill="none" stroke="#000000" stroke-width="1" /><text x="707.2" y="53.2" font-size="12" text-anchor="start">Input</text><rect x="687.2" y="43" width="12" height="12" fill="#888888" /><text x="707.2" y="71.2" font-size="12" text-anchor="start">Process A</text><rect x="687.2" y="61" width="12" height="12" fill="#377eb8" /><text x="707.2" y="89.2" font-size="12" text-anchor="start">Process B</text><rect x="687.2" y="79" width="12" height="12" fill="#4daf4a" /><text x="707.2" y="107.2" font-size="12" text-anchor="start">Output</text><rect x="687.2" y="97" width="12" height="12" fill="#984ea3" /></svg>