<svg xmlns="http://www.w3.org/2000/svg" width="823.2" height="545" font-family="DejaVu Sans, Liberation Sans, Arial, sans-serif" fill="black"><rect width="100%" height="100%" fill="white" /><text x="372.2" y="22" font-size="18" text-anchor="middle">Variant Filtering Pipeline</text><rect x="126.57000000000001" y="44" width="20" height="450" fill="#888888" /><rect x="255.33" y="44" width="20" height="353.6" fill="#4daf4a" /><rect x="255.33" y="405.6" width="20" height="88.4" fill="#e41a1c" /><rect x="384.08" y="44" width="20" height="331.5" fill="#377eb8" /><rect x="384.08" y="383.5" width="20" height="110.5" fill="#ff7f00" /><rect x="512.83" y="44" width="20" height="287.52" fill="#984ea3" /><rect x="512.83" y="339.53000000000003" width="20" height="65.1" fill="#a65628" /><rect x="512.83" y="412.63" width="20" height="81.38" fill="#cccccc" /><path d="M 146.575 44 C 200.95 44 200.95 44 255.325 44 L 255.325 397.6 C 200.95 397.6 200.95 404 146.575 404 Z" stroke="none" stroke-width="0" fill="#888888" fill-opacity="0.45" /><path d="M 146.575 404 C 200.95 404 200.95 405.6 255.325 405.6 L 255.325 494 C 200.95 494 200.95 494 146.575 494 Z" stroke="none" stroke-width="0" fill="#888888" fill-opacity="0.45" /><path d="M 275.325 44 C 329.7 44 329.7 44 384.075 44 L 384.075 375.5 C 329.7 375.5 329.7 309.20000000000005 275.325 309.20000000000005 Z" stroke="none" stroke-width="0" fill="#4daf4a" fill-opacity="0.45" /><path d="M 275.325 309.20000000000005 C 329.7 309.20000000000005 329.7 383.5 384.075 383.5 L 384.075 494 C 329.7 494 329.7 397.6 275.325 397.6 Z" stroke="none" stroke-width="0" fill="#4daf4a" fill-opacity="0.45" /><path d="M 404.075 44 C 458.45000000000005 44 458.45000000000005 44 512.825 44 L 512.825 288.125 C 458.45000000000005 288.125 458.45000000000005 292.625 404.075 292.625 Z" stroke="none" stroke-width="0" fill="#377eb8" fill-opacity="0.45" /><path d="M 404.075 383.5 C 458.45000000000005 383.5 458.45000000000005 288.125 512.825 288.125 L 512.825 331.525 C 458.45000000000005 331.525 458.45000000000005 427.7 404.075 427.7 Z" stroke="none" stroke-width="0" fill="#ff7f00" fill-opacity="0.45" /><path d="M 404.075 292.625 C 458.45000000000005 292.625 458.45000000000005 339.525 512.825 339.525 L 512.825 404.625 C 458.45000000000005 404.625 458.45000000000005 358.925 404.075 358.925 Z" stroke="none" stroke-width="0" fill="#377eb8" fill-opacity="0.45" /><path d="M 404.075 358.925 C 458.45000000000005 358.925 458.45000000000005 412.625 512.825 412.625 L 512.825 428.9 C 458.45000000000005 428.9 458.45000000000005 375.5 404.075 375.5 Z" stroke="none" stroke-width="0" fill="#377eb8" fill-opacity="0.45" /><path d="M 404.075 427.7 C 458.45000000000005 427.7 458.45000000000005 428.9 512.825 428.9 L 512.825 494 C 458.45000000000005 494 458.45000000000005 494 404.075 494 Z" stroke="none" stroke-width="0" fill="#ff7f00" fill-opacity="0.45" /><text x="120.57000000000001" y="273.2" font-size="12" text-anchor="end">Raw Variants</text><text x="281.33" y="225" font-size="12" text-anchor="start">QC Pass</text><text x="281.33" y="454" font-size="12" text-anchor="start">QC Fail</text><text x="410.08" y="213.95000000000002" font-size="12" text-anchor="start">High Conf</text><text x="410.08" y="442.95" font-size="12" text-anchor="start">Low Conf</text><text x="538.83" y="191.96" font-size="12" text-anchor="start">SNP</text><text x="538.83" y="376.28000000000003" font-size="12" text-anchor="start">Indel</text><text x="538.83" y="457.51" font-size="12" text-anchor="start">Filtered Out</text><rect x="677.2" y="34" width="137" height="164" fill="#ffffff" /><rect x="677.2" y="34" width="137" height="164" fill="none" stroke="#000000" stroke-width="1" /><text x="707.2" y="53.2" font-size="12" text-anchor="start">Raw Variants</text><rect x="687.2" y="43" width="12" height="12" fill="#888888" /><text x="707.2" y="71.2" font-size="12" text-anchor="start">QC Pass</text><rect x="687.2" y="61" width="12" height="12" fill="#4daf4a" /><text x="707.2" y="89.2" font-size="12" text-anchor="start">QC Fail</text><rect x="687.2" y="79" width="12" height="12" fill="#e41a1c" /><text x="707.2" y="107.2" font-size="12" text-anchor="start">High Conf</text><rect x="687.2" y="97" width="12" height="12" fill="#377eb8" /><text x="707.2" y="125.2" font-size="12" text-anchor="start">Low Conf</text><rect x="687.2" y="115" width="12" height="12" fill="#ff7f00" /><text x="707.2" y="143.20000000000002" font-size="12" text-anchor="start">SNP</text><rect x="687.2" y="133" width="12" height="12" fill="#984ea3" /><text x="707.2" y="161.20000000000002" font-size="12" text-anchor="start">Indel</text><rect x="687.2" y="151" width="12" height="12" fill="#a65628" /><text x="707.2" y="179.20000000000002" font-size="12" text-anchor="start">Filtered Out</text><rect x="687.2" y="169" width="12" height="12" fill="#cccccc" /></svg>