<svg xmlns="http://www.w3.org/2000/svg" width="809.4" height="545" font-family="DejaVu Sans, Liberation Sans, Arial, sans-serif" fill="black"><rect width="100%" height="100%" fill="white" /><text x="404.7" y="27.400000000000002" font-size="18" text-anchor="middle">Variant Filtering Pipeline</text><rect x="113.38" y="44" width="20" height="450" fill="#888888" /><rect x="242.13" y="44" width="20" height="353.6" fill="#4daf4a" /><rect x="242.13" y="405.6" width="20" height="88.4" fill="#e41a1c" /><rect x="370.88" y="44" width="20" height="331.5" fill="#377eb8" /><rect x="370.88" y="383.5" width="20" height="110.5" fill="#ff7f00" /><rect x="499.63" y="44" width="20" height="287.52" fill="#984ea3" /><rect x="499.63" y="339.53000000000003" width="20" height="65.1" fill="#a65628" /><rect x="499.63" y="412.63" width="20" height="81.38" fill="#cccccc" /><path d="M 133.375 44 C 187.75 44 187.75 44 242.125 44 L 242.125 397.6 C 187.75 397.6 187.75 404 133.375 404 Z" stroke="none" stroke-width="0" fill="#888888" fill-opacity="0.45" /><path d="M 133.375 404 C 187.75 404 187.75 405.6 242.125 405.6 L 242.125 494 C 187.75 494 187.75 494 133.375 494 Z" stroke="none" stroke-width="0" fill="#888888" fill-opacity="0.45" /><path d="M 262.125 44 C 316.5 44 316.5 44 370.875 44 L 370.875 375.5 C 316.5 375.5 316.5 309.20000000000005 262.125 309.20000000000005 Z" stroke="none" stroke-width="0" fill="#4daf4a" fill-opacity="0.45" /><path d="M 262.125 309.20000000000005 C 316.5 309.20000000000005 316.5 383.5 370.875 383.5 L 370.875 494 C 316.5 494 316.5 397.6 262.125 397.6 Z" stroke="none" stroke-width="0" fill="#4daf4a" fill-opacity="0.45" /><path d="M 390.875 44 C 445.25 44 445.25 44 499.625 44 L 499.625 288.125 C 445.25 288.125 445.25 292.625 390.875 292.625 Z" stroke="none" stroke-width="0" fill="#377eb8" fill-opacity="0.45" /><path d="M 390.875 383.5 C 445.25 383.5 445.25 288.125 499.625 288.125 L 499.625 331.525 C 445.25 331.525 445.25 427.7 390.875 427.7 Z" stroke="none" stroke-width="0" fill="#ff7f00" fill-opacity="0.45" /><path d="M 390.875 292.625 C 445.25 292.625 445.25 339.525 499.625 339.525 L 499.625 404.625 C 445.25 404.625 445.25 358.925 390.875 358.925 Z" stroke="none" stroke-width="0" fill="#377eb8" fill-opacity="0.45" /><path d="M 390.875 358.925 C 445.25 358.925 445.25 412.625 499.625 412.625 L 499.625 428.9 C 445.25 428.9 445.25 375.5 390.875 375.5 Z" stroke="none" stroke-width="0" fill="#377eb8" fill-opacity="0.45" /><path d="M 390.875 427.7 C 445.25 427.7 445.25 428.9 499.625 428.9 L 499.625 494 C 445.25 494 445.25 494 390.875 494 Z" stroke="none" stroke-width="0" fill="#ff7f00" fill-opacity="0.45" /><text x="107.38" y="273.2" font-size="12" text-anchor="end">Raw Variants</text><text x="268.13" y="225" font-size="12" text-anchor="start">QC Pass</text><text x="268.13" y="454" font-size="12" text-anchor="start">QC Fail</text><text x="396.88" y="213.95000000000002" font-size="12" text-anchor="start">High Conf</text><text x="396.88" y="442.95" font-size="12" text-anchor="start">Low Conf</text><text x="525.63" y="191.96" font-size="12" text-anchor="start">SNP</text><text x="525.63" y="376.28000000000003" font-size="12" text-anchor="start">Indel</text><text x="525.63" y="457.51" font-size="12" text-anchor="start">Filtered Out</text><rect x="664" y="34" width="136" height="164" fill="#ffffff" /><rect x="664" y="34" width="136" height="164" fill="none" stroke="#000000" stroke-width="1" /><text x="694" y="53.2" font-size="12" text-anchor="start">Raw Variants</text><rect x="674" y="43" width="12" height="12" fill="#888888" /><text x="694" y="71.2" font-size="12" text-anchor="start">QC Pass</text><rect x="674" y="61" width="12" height="12" fill="#4daf4a" /><text x="694" y="89.2" font-size="12" text-anchor="start">QC Fail</text><rect x="674" y="79" width="12" height="12" fill="#e41a1c" /><text x="694" y="107.2" font-size="12" text-anchor="start">High Conf</text><rect x="674" y="97" width="12" height="12" fill="#377eb8" /><text x="694" y="125.2" font-size="12" text-anchor="start">Low Conf</text><rect x="674" y="115" width="12" height="12" fill="#ff7f00" /><text x="694" y="143.20000000000002" font-size="12" text-anchor="start">SNP</text><rect x="674" y="133" width="12" height="12" fill="#984ea3" /><text x="694" y="161.20000000000002" font-size="12" text-anchor="start">Indel</text><rect x="674" y="151" width="12" height="12" fill="#a65628" /><text x="694" y="179.20000000000002" font-size="12" text-anchor="start">Filtered Out</text><rect x="674" y="169" width="12" height="12" fill="#cccccc" /></svg>