<svg xmlns="http://www.w3.org/2000/svg" width="806.3000000000001" height="545" font-family="DejaVu Sans, Liberation Sans, Arial, sans-serif" fill="black"><rect width="100%" height="100%" fill="white" /><text x="363.8" y="22" font-size="18" text-anchor="middle">Polar Plot</text><path d="M 315.05,269 A 48.75,48.75,0,1,0,412.55,269 A 48.75,48.75,0,1,0,315.05,269 Z" stroke="#cccccc" stroke-width="1" fill="none" stroke-dasharray="4,4" /><path d="M 266.3,269 A 97.5,97.5,0,1,0,461.3,269 A 97.5,97.5,0,1,0,266.3,269 Z" stroke="#cccccc" stroke-width="1" fill="none" stroke-dasharray="4,4" /><path d="M 217.55,269 A 146.25,146.25,0,1,0,510.05,269 A 146.25,146.25,0,1,0,217.55,269 Z" stroke="#cccccc" stroke-width="1" fill="none" stroke-dasharray="4,4" /><path d="M 168.8,269 A 195,195,0,1,0,558.8000000000001,269 A 195,195,0,1,0,168.8,269 Z" stroke="#000000" stroke-width="1" fill="none" /><line x1="363.8" y1="269" x2="363.8" y2="74" stroke="#cccccc" stroke-width="1" /><line x1="363.8" y1="269" x2="461.3" y2="100.13" stroke="#cccccc" stroke-width="1" /><line x1="363.8" y1="269" x2="532.67" y2="171.5" stroke="#cccccc" stroke-width="1" /><line x1="363.8" y1="269" x2="558.8000000000001" y2="269" stroke="#cccccc" stroke-width="1" /><line x1="363.8" y1="269" x2="532.67" y2="366.5" stroke="#cccccc" stroke-width="1" /><line x1="363.8" y1="269" x2="461.3" y2="437.87" stroke="#cccccc" stroke-width="1" /><line x1="363.8" y1="269" x2="363.8" y2="464" stroke="#cccccc" stroke-width="1" /><line x1="363.8" y1="269" x2="266.3" y2="437.87" stroke="#cccccc" stroke-width="1" /><line x1="363.8" y1="269" x2="194.93" y2="366.5" stroke="#cccccc" stroke-width="1" /><line x1="363.8" y1="269" x2="168.8" y2="269" stroke="#cccccc" stroke-width="1" /><line x1="363.8" y1="269" x2="194.93" y2="171.5" stroke="#cccccc" stroke-width="1" /><line x1="363.8" y1="269" x2="266.3" y2="100.13" stroke="#cccccc" stroke-width="1" /><text x="378.42" y="219.91" font-size="12" text-anchor="start">0.53</text><text x="391.03000000000003" y="172.82" font-size="12" text-anchor="start">1.05</text><text x="403.65000000000003" y="125.73" font-size="12" text-anchor="start">1.58</text><text x="416.27" y="78.64" font-size="12" text-anchor="start">2.10</text><text x="363.8" y="61.6" font-size="12" text-anchor="middle">0°</text><text x="466.3" y="89.06" font-size="12" text-anchor="start">30°</text><text x="541.34" y="164.1" font-size="12" text-anchor="start">60°</text><text x="568.8000000000001" y="273.2" font-size="12" text-anchor="start">90°</text><text x="541.34" y="381.1" font-size="12" text-anchor="start">120°</text><text x="466.3" y="456.14" font-size="12" text-anchor="start">150°</text><text x="363.8" y="483.6" font-size="12" text-anchor="middle">180°</text><text x="261.3" y="456.14" font-size="12" text-anchor="end">210°</text><text x="186.26" y="381.1" font-size="12" text-anchor="end">240°</text><text x="158.8" y="273.2" font-size="12" text-anchor="end">270°</text><text x="186.26" y="164.1" font-size="12" text-anchor="end">300°</text><text x="261.3" y="89.06" font-size="12" text-anchor="end">330°</text><path d="M 363.8 83.29 L 379.96 84.34 L 395.8 87.5 L 411.05 92.67 L 425.40000000000003 99.75 L 438.61 108.57000000000001 L 450.44 118.94 L 460.69 130.63 L 469.21000000000004 143.38 L 475.89 156.91 L 480.66 170.95000000000002 L 483.49 185.19 L 484.42 199.36 L 483.52 213.17000000000002 L 480.90000000000003 226.38 L 476.71000000000004 238.75 L 471.13 250.08 L 464.37 260.2 L 456.66 269.0 L 448.24 276.39 L 439.37 282.32 L 430.28000000000003 286.81 L 421.21000000000004 289.90000000000003 L 412.39 291.66 L 404.01 292.21 L 396.24 291.71 L 389.21000000000004 290.32 L 383.03000000000003 288.23 L 377.76 285.64 L 373.43 282.76 L 370.02 279.77 L 367.48 276.88 L 365.72 274.26 L 364.62 272.06 L 364.04 270.39 L 363.83 269.35 L 363.8 269.0 L 363.77 269.35 L 363.56 270.39 L 362.98 272.06 L 361.88 274.26 L 360.12 276.88 L 357.58 279.77 L 354.17 282.76 L 349.84000000000003 285.64 L 344.57 288.23 L 338.39 290.32 L 331.36 291.71 L 323.59000000000003 292.21 L 315.21 291.66 L 306.39 289.90000000000003 L 297.32 286.81 L 288.23 282.32 L 279.36 276.39 L 270.94 269.0 L 263.23 260.2 L 256.47 250.08 L 250.89000000000001 238.75 L 246.70000000000002 226.38 L 244.08 213.17000000000002 L 243.18 199.36 L 244.11 185.19 L 246.94 170.95000000000002 L 251.71 156.91 L 258.39 143.38 L 266.91 130.63 L 277.16 118.94 L 288.99 108.57000000000001 L 302.2 99.75 L 316.55 92.67 L 331.8 87.5 L 347.64 84.34 " stroke="#1f77b4" stroke-width="1.5" fill="none" /><path d="M 363.8 176.14000000000001 L 371.89 176.5 L 379.92 177.55 L 387.83 179.31 L 395.56 181.74 L 403.04 184.84 L 410.23 188.58 L 417.06 192.94 L 423.49 197.87 L 429.46000000000004 203.34 L 434.93 209.31 L 439.86 215.74 L 444.22 222.57 L 447.96000000000004 229.76 L 451.06 237.24 L 453.49 244.97 L 455.25 252.88 L 456.3 260.91 L 456.66 269.0 L 456.3 277.09000000000003 L 455.25 285.12 L 453.49 293.03000000000003 L 451.06 300.76 L 447.96000000000004 308.24 L 444.22 315.43 L 439.86 322.26 L 434.93 328.69 L 429.46000000000004 334.66 L 423.49 340.13 L 417.06 345.06 L 410.23 349.42 L 403.04 353.16 L 395.56 356.26 L 387.83 358.69 L 379.92 360.45 L 371.89 361.5 L 363.8 361.86 L 355.71 361.5 L 347.68 360.45 L 339.77 358.69 L 332.04 356.26 L 324.56 353.16 L 317.37 349.42 L 310.54 345.06 L 304.11 340.13 L 298.14 334.66 L 292.67 328.69 L 287.74 322.26 L 283.38 315.43 L 279.64 308.24 L 276.54 300.76 L 274.11 293.03000000000003 L 272.35 285.12 L 271.3 277.09000000000003 L 270.94 269.0 L 271.3 260.91 L 272.35 252.88 L 274.11 244.97 L 276.54 237.24 L 279.64 229.76 L 283.38 222.57 L 287.74 215.74 L 292.67 209.31 L 298.14 203.34 L 304.11 197.87 L 310.54 192.94 L 317.37 188.58 L 324.56 184.84 L 332.04 181.74 L 339.77 179.31 L 347.68 177.55 L 355.71 176.5 L 363.8 176.14000000000001 " stroke="#ff7f0e" stroke-width="1.5" fill="none" /><rect x="668.8000000000001" y="34" width="128.5" height="56" fill="#ffffff" /><rect x="668.8000000000001" y="34" width="128.5" height="56" fill="none" stroke="#000000" stroke-width="1" /><text x="698.8000000000001" y="53.2" font-size="12" text-anchor="start">Cardioid</text><circle cx="683.8000000000001" cy="49" r="5" fill="#1f77b4" /><text x="698.8000000000001" y="71.2" font-size="12" text-anchor="start">Unit circle</text><circle cx="683.8000000000001" cy="67" r="5" fill="#ff7f0e" /></svg>