<svg xmlns="http://www.w3.org/2000/svg" width="812.6" height="545" font-family="DejaVu Sans, Liberation Sans, Arial, sans-serif" fill="black"><rect width="100%" height="100%" fill="white" /><text x="406.3" y="27.400000000000002" font-size="18" text-anchor="middle">Polar Plot with custom theta ticks</text><path d="M 324.8,269 A 39,39,0,1,0,402.8,269 A 39,39,0,1,0,324.8,269 Z" stroke="#cccccc" stroke-width="1" fill="none" stroke-dasharray="4,4" /><path d="M 285.8,269 A 78,78,0,1,0,441.8,269 A 78,78,0,1,0,285.8,269 Z" stroke="#cccccc" stroke-width="1" fill="none" stroke-dasharray="4,4" /><path d="M 246.8,269 A 117,117,0,1,0,480.8,269 A 117,117,0,1,0,246.8,269 Z" stroke="#cccccc" stroke-width="1" fill="none" stroke-dasharray="4,4" /><path d="M 207.8,269 A 156,156,0,1,0,519.8,269 A 156,156,0,1,0,207.8,269 Z" stroke="#cccccc" stroke-width="1" fill="none" stroke-dasharray="4,4" /><path d="M 168.8,269 A 195,195,0,1,0,558.8000000000001,269 A 195,195,0,1,0,168.8,269 Z" stroke="#000000" stroke-width="1" fill="none" /><line x1="363.8" y1="269" x2="363.8" y2="74" stroke="#cccccc" stroke-width="1" /><line x1="363.8" y1="269" x2="501.69" y2="131.11" stroke="#cccccc" stroke-width="1" /><line x1="363.8" y1="269" x2="558.8000000000001" y2="269" stroke="#cccccc" stroke-width="1" /><line x1="363.8" y1="269" x2="501.69" y2="406.89" stroke="#cccccc" stroke-width="1" /><line x1="363.8" y1="269" x2="363.8" y2="464" stroke="#cccccc" stroke-width="1" /><line x1="363.8" y1="269" x2="225.91" y2="406.89" stroke="#cccccc" stroke-width="1" /><line x1="363.8" y1="269" x2="168.8" y2="269" stroke="#cccccc" stroke-width="1" /><line x1="363.8" y1="269" x2="225.91" y2="131.11" stroke="#cccccc" stroke-width="1" /><text x="380.72" y="230.97" font-size="12" text-anchor="start">1</text><text x="395.65000000000003" y="194.94" font-size="12" text-anchor="start">2</text><text x="410.57" y="158.91" font-size="12" text-anchor="start">3</text><text x="425.5" y="122.87" font-size="12" text-anchor="start">4</text><text x="440.42" y="86.84" font-size="12" text-anchor="start">5</text><text x="363.8" y="61.6" font-size="12" text-anchor="middle">eventful</text><text x="508.76" y="121.64" font-size="12" text-anchor="start">exciting</text><text x="568.8000000000001" y="273.2" font-size="12" text-anchor="start">pleasant</text><text x="508.76" y="423.56" font-size="12" text-anchor="start">calm</text><text x="363.8" y="483.6" font-size="12" text-anchor="middle">uneventful</text><text x="218.84" y="423.56" font-size="12" text-anchor="end">monotonous</text><text x="158.8" y="273.2" font-size="12" text-anchor="end">unpleasant</text><text x="218.84" y="121.64" font-size="12" text-anchor="end">chaotic</text><path d="M 363.8 81.8 L 452.05 180.75 L 473.0 269.0 L 396.89 302.09000000000003 L 363.8 288.5 L 325.19 307.61 L 254.6 269.0 L 250.73000000000002 155.93 L 363.8 81.8 " stroke="#4682b4" stroke-width="1.5" fill="none" /><path d="M 324.8,269 A 39,39,0,1,0,402.8,269 A 39,39,0,1,0,324.8,269 Z" stroke="#cccccc" stroke-width="1" fill="none" stroke-dasharray="4,4" /><path d="M 285.8,269 A 78,78,0,1,0,441.8,269 A 78,78,0,1,0,285.8,269 Z" stroke="#cccccc" stroke-width="1" fill="none" stroke-dasharray="4,4" /><path d="M 246.8,269 A 117,117,0,1,0,480.8,269 A 117,117,0,1,0,246.8,269 Z" stroke="#cccccc" stroke-width="1" fill="none" stroke-dasharray="4,4" /><path d="M 207.8,269 A 156,156,0,1,0,519.8,269 A 156,156,0,1,0,207.8,269 Z" stroke="#cccccc" stroke-width="1" fill="none" stroke-dasharray="4,4" /><path d="M 168.8,269 A 195,195,0,1,0,558.8000000000001,269 A 195,195,0,1,0,168.8,269 Z" stroke="#000000" stroke-width="1" fill="none" /><line x1="363.8" y1="269" x2="363.8" y2="74" stroke="#cccccc" stroke-width="1" /><line x1="363.8" y1="269" x2="501.69" y2="131.11" stroke="#cccccc" stroke-width="1" /><line x1="363.8" y1="269" x2="558.8000000000001" y2="269" stroke="#cccccc" stroke-width="1" /><line x1="363.8" y1="269" x2="501.69" y2="406.89" stroke="#cccccc" stroke-width="1" /><line x1="363.8" y1="269" x2="363.8" y2="464" stroke="#cccccc" stroke-width="1" /><line x1="363.8" y1="269" x2="225.91" y2="406.89" stroke="#cccccc" stroke-width="1" /><line x1="363.8" y1="269" x2="168.8" y2="269" stroke="#cccccc" stroke-width="1" /><line x1="363.8" y1="269" x2="225.91" y2="131.11" stroke="#cccccc" stroke-width="1" /><text x="380.72" y="230.97" font-size="12" text-anchor="start">1</text><text x="395.65000000000003" y="194.94" font-size="12" text-anchor="start">2</text><text x="410.57" y="158.91" font-size="12" text-anchor="start">3</text><text x="425.5" y="122.87" font-size="12" text-anchor="start">4</text><text x="440.42" y="86.84" font-size="12" text-anchor="start">5</text><text x="363.8" y="61.6" font-size="12" text-anchor="middle">eventful</text><text x="508.76" y="121.64" font-size="12" text-anchor="start">exciting</text><text x="568.8000000000001" y="273.2" font-size="12" text-anchor="start">pleasant</text><text x="508.76" y="423.56" font-size="12" text-anchor="start">calm</text><text x="363.8" y="483.6" font-size="12" text-anchor="middle">uneventful</text><text x="218.84" y="423.56" font-size="12" text-anchor="end">monotonous</text><text x="158.8" y="273.2" font-size="12" text-anchor="end">unpleasant</text><text x="218.84" y="121.64" font-size="12" text-anchor="end">chaotic</text><path d="M 363.8 198.8 L 424.47 208.33 L 512.0 269.0 L 479.62 384.82 L 363.8 444.5 L 270.04 362.76 L 278.0 269.0 L 333.47 238.67000000000002 L 363.8 198.8 " stroke="#ffa500" stroke-width="1.5" fill="none" /><rect x="668.8000000000001" y="34" width="120" height="56" fill="#ffffff" /><rect x="668.8000000000001" y="34" width="120" height="56" fill="none" stroke="#000000" stroke-width="1" /><text x="698.8000000000001" y="53.2" font-size="12" text-anchor="start">Location 1</text><circle cx="683.8000000000001" cy="49" r="5" fill="#4682b4" /><text x="698.8000000000001" y="71.2" font-size="12" text-anchor="start">Location 2</text><circle cx="683.8000000000001" cy="67" r="5" fill="#ffa500" /></svg>