<svg xmlns="http://www.w3.org/2000/svg" width="677.8000000000001" height="545" font-family="DejaVu Sans, Liberation Sans, Arial, sans-serif" fill="black"><rect width="100%" height="100%" fill="white" /><text x="363.8" y="22" font-size="18" text-anchor="middle">Antenna Radiation Pattern (dBi)</text><path d="M 315.05,269 A 48.75,48.75,0,1,0,412.55,269 A 48.75,48.75,0,1,0,315.05,269 Z" stroke="#cccccc" stroke-width="1" fill="none" stroke-dasharray="4,4" /><path d="M 266.3,269 A 97.5,97.5,0,1,0,461.3,269 A 97.5,97.5,0,1,0,266.3,269 Z" stroke="#cccccc" stroke-width="1" fill="none" stroke-dasharray="4,4" /><path d="M 217.55,269 A 146.25,146.25,0,1,0,510.05,269 A 146.25,146.25,0,1,0,217.55,269 Z" stroke="#cccccc" stroke-width="1" fill="none" stroke-dasharray="4,4" /><path d="M 168.8,269 A 195,195,0,1,0,558.8000000000001,269 A 195,195,0,1,0,168.8,269 Z" stroke="#000000" stroke-width="1" fill="none" /><line x1="363.8" y1="269" x2="363.8" y2="74" stroke="#cccccc" stroke-width="1" /><line x1="363.8" y1="269" x2="461.3" y2="100.13" stroke="#cccccc" stroke-width="1" /><line x1="363.8" y1="269" x2="532.67" y2="171.5" stroke="#cccccc" stroke-width="1" /><line x1="363.8" y1="269" x2="558.8000000000001" y2="269" stroke="#cccccc" stroke-width="1" /><line x1="363.8" y1="269" x2="532.67" y2="366.5" stroke="#cccccc" stroke-width="1" /><line x1="363.8" y1="269" x2="461.3" y2="437.87" stroke="#cccccc" stroke-width="1" /><line x1="363.8" y1="269" x2="363.8" y2="464" stroke="#cccccc" stroke-width="1" /><line x1="363.8" y1="269" x2="266.3" y2="437.87" stroke="#cccccc" stroke-width="1" /><line x1="363.8" y1="269" x2="194.93" y2="366.5" stroke="#cccccc" stroke-width="1" /><line x1="363.8" y1="269" x2="168.8" y2="269" stroke="#cccccc" stroke-width="1" /><line x1="363.8" y1="269" x2="194.93" y2="171.5" stroke="#cccccc" stroke-width="1" /><line x1="363.8" y1="269" x2="266.3" y2="100.13" stroke="#cccccc" stroke-width="1" /><text x="378.42" y="219.91" font-size="12" text-anchor="start">-15</text><text x="391.03000000000003" y="172.82" font-size="12" text-anchor="start">-10</text><text x="403.65000000000003" y="125.73" font-size="12" text-anchor="start">-5</text><text x="416.27" y="78.64" font-size="12" text-anchor="start">0</text><text x="367.8" y="267" font-size="12" text-anchor="start">-20</text><text x="363.8" y="61.6" font-size="12" text-anchor="middle">0°</text><text x="466.3" y="89.06" font-size="12" text-anchor="start">30°</text><text x="541.34" y="164.1" font-size="12" text-anchor="start">60°</text><text x="568.8000000000001" y="273.2" font-size="12" text-anchor="start">90°</text><text x="541.34" y="381.1" font-size="12" text-anchor="start">120°</text><text x="466.3" y="456.14" font-size="12" text-anchor="start">150°</text><text x="363.8" y="483.6" font-size="12" text-anchor="middle">180°</text><text x="261.3" y="456.14" font-size="12" text-anchor="end">210°</text><text x="186.26" y="381.1" font-size="12" text-anchor="end">240°</text><text x="158.8" y="273.2" font-size="12" text-anchor="end">270°</text><text x="186.26" y="164.1" font-size="12" text-anchor="end">300°</text><text x="261.3" y="89.06" font-size="12" text-anchor="end">330°</text><path d="M 363.8 74.0 L 367.2 74.03 L 370.61 74.12 L 374.01 74.27 L 377.40000000000003 74.48 L 380.8 74.74 L 384.18 75.07000000000001 L 387.56 75.45 L 390.94 75.9 L 394.3 76.4 L 397.66 76.96000000000001 L 401.01 77.58 L 404.34000000000003 78.26 L 407.67 79.0 L 410.97 79.79 L 414.27 80.64 L 417.55 81.55 L 420.81 82.52 L 424.06 83.54 L 427.29 84.62 L 430.49 85.76 L 433.68 86.95 L 436.85 88.2 L 439.99 89.5 L 443.11 90.86 L 446.21000000000004 92.27 L 449.28000000000003 93.74 L 452.33 95.25 L 455.35 96.83 L 457.7 99.59 L 459.64 102.99000000000001 L 461.47 106.45 L 463.18 109.96000000000001 L 464.77 113.52 L 466.24 117.13 L 467.59000000000003 120.77 L 468.83 124.44 L 469.94 128.15 L 470.93 131.87 L 471.81 135.62 L 472.57 139.38 L 473.21000000000004 143.14000000000001 L 473.73 146.91 L 474.13 150.68 L 474.42 154.45000000000002 L 474.6 158.20000000000002 L 474.66 161.94 L 474.62 165.66 L 474.46000000000004 169.36 L 474.2 173.03 L 473.84000000000003 176.66 L 473.38 180.27 L 472.82 183.83 L 472.16 187.35 L 471.41 190.82 L 470.56 194.24 L 469.64 197.61 L 468.63 200.93 L 467.53000000000003 204.18 L 466.37 207.37 L 465.12 210.5 L 463.81 213.56 L 462.44 216.55 L 461.0 219.47 L 459.5 222.32 L 457.95 225.1 L 456.35 227.79 L 454.7 230.41 L 453.01 232.96 L 451.28000000000003 235.42000000000002 L 449.52 237.8 L 447.72 240.1 L 445.90000000000003 242.32 L 444.06 244.46 L 442.19 246.52 L 440.31 248.5 L 438.42 250.4 L 436.52 252.21 L 434.61 253.95000000000002 L 432.7 255.61 L 430.8 257.19 L 428.90000000000003 258.69 L 427.01 260.12 L 425.13 261.47 L 423.27 262.75 L 421.42 263.96 L 419.59000000000003 265.1 L 417.79 266.17 L 416.02 267.18 L 414.27 268.12 L 412.55 269.0 L 410.86 269.82 L 409.21000000000004 270.59000000000003 L 407.6 271.3 L 406.03000000000003 271.95 L 404.49 272.56 L 402.99 273.12 L 401.54 273.63 L 400.13 274.11 L 398.77 274.54 L 397.45 274.93 L 396.18 275.29 L 394.95 275.62 L 393.78000000000003 275.92 L 392.64 276.19 L 391.56 276.44 L 390.52 276.66 L 389.54 276.87 L 388.59000000000003 277.06 L 387.7 277.23 L 386.85 277.39 L 386.04 277.54 L 385.28000000000003 277.68 L 384.57 277.82 L 383.90000000000003 277.95 L 383.26 278.08 L 382.67 278.2 L 382.12 278.34000000000003 L 381.61 278.47 L 381.13 278.61 L 380.69 278.75 L 380.28000000000003 278.90000000000003 L 379.90000000000003 279.06 L 379.55 279.23 L 379.24 279.41 L 378.94 279.6 L 378.68 279.81 L 378.43 280.03000000000003 L 378.21 280.26 L 378.01 280.51 L 377.82 280.77 L 377.65000000000003 281.04 L 377.5 281.33 L 377.36 281.64 L 377.22 281.96 L 377.1 282.3 L 376.98 282.65000000000003 L 376.87 283.02 L 376.76 283.39 L 376.65000000000003 283.79 L 376.55 284.19 L 376.44 284.61 L 376.33 285.04 L 376.22 285.48 L 376.1 285.93 L 375.97 286.38 L 375.84000000000003 286.85 L 375.7 287.32 L 375.54 287.79 L 375.38 288.27 L 375.21 288.76 L 375.02 289.24 L 374.82 289.72 L 374.61 290.21 L 374.38 290.69 L 374.13 291.16 L 373.88 291.63 L 373.6 292.1 L 373.32 292.55 L 373.01 293.0 L 372.69 293.44 L 372.36 293.86 L 372.01 294.27 L 371.65000000000003 294.67 L 371.27 295.05 L 370.88 295.42 L 370.47 295.76 L 370.05 296.09000000000003 L 369.62 296.40000000000003 L 369.18 296.68 L 368.73 296.95 L 368.26 297.19 L 367.79 297.41 L 367.31 297.6 L 366.82 297.77 L 366.33 297.92 L 365.83 298.04 L 365.33 298.13 L 364.82 298.2 L 364.31 298.24 L 363.8 298.25 L 363.29 298.24 L 362.78000000000003 298.2 L 362.27 298.13 L 361.77 298.04 L 361.27 297.92 L 360.78000000000003 297.77 L 360.29 297.6 L 359.81 297.41 L 359.34000000000003 297.19 L 358.87 296.95 L 358.42 296.68 L 357.98 296.40000000000003 L 357.55 296.09000000000003 L 357.13 295.76 L 356.72 295.42 L 356.33 295.05 L 355.95 294.67 L 355.59000000000003 294.27 L 355.24 293.86 L 354.91 293.44 L 354.59000000000003 293.0 L 354.28000000000003 292.55 L 354.0 292.1 L 353.72 291.63 L 353.47 291.16 L 353.22 290.69 L 352.99 290.21 L 352.78000000000003 289.72 L 352.58 289.24 L 352.39 288.76 L 352.22 288.27 L 352.06 287.79 L 351.90000000000003 287.32 L 351.76 286.85 L 351.63 286.38 L 351.5 285.93 L 351.38 285.48 L 351.27 285.04 L 351.16 284.61 L 351.05 284.19 L 350.95 283.79 L 350.84000000000003 283.39 L 350.73 283.02 L 350.62 282.65000000000003 L 350.5 282.3 L 350.38 281.96 L 350.24 281.64 L 350.1 281.33 L 349.95 281.04 L 349.78000000000003 280.77 L 349.59000000000003 280.51 L 349.39 280.26 L 349.17 280.03000000000003 L 348.92 279.81 L 348.66 279.6 L 348.36 279.41 L 348.05 279.23 L 347.7 279.06 L 347.32 278.90000000000003 L 346.91 278.75 L 346.47 278.61 L 345.99 278.47 L 345.48 278.34000000000003 L 344.93 278.2 L 344.34000000000003 278.08 L 343.7 277.95 L 343.03000000000003 277.82 L 342.32 277.68 L 341.56 277.54 L 340.75 277.39 L 339.90000000000003 277.23 L 339.01 277.06 L 338.06 276.87 L 337.08 276.66 L 336.04 276.44 L 334.96 276.19 L 333.82 275.92 L 332.65000000000003 275.62 L 331.42 275.29 L 330.15000000000003 274.93 L 328.83 274.54 L 327.47 274.11 L 326.06 273.63 L 324.61 273.12 L 323.11 272.56 L 321.57 271.95 L 320.0 271.3 L 318.39 270.59000000000003 L 316.74 269.82 L 315.05 269.0 L 313.33 268.12 L 311.58 267.18 L 309.81 266.17 L 308.01 265.1 L 306.18 263.96 L 304.33 262.75 L 302.47 261.47 L 300.59000000000003 260.12 L 298.7 258.69 L 296.8 257.19 L 294.90000000000003 255.61 L 292.99 253.95000000000002 L 291.08 252.21 L 289.18 250.4 L 287.29 248.5 L 285.41 246.52 L 283.54 244.46 L 281.7 242.32 L 279.88 240.1 L 278.08 237.8 L 276.32 235.42000000000002 L 274.59000000000003 232.96 L 272.9 230.41 L 271.25 227.79 L 269.65 225.1 L 268.1 222.32 L 266.6 219.47 L 265.16 216.55 L 263.79 213.56 L 262.48 210.5 L 261.23 207.37 L 260.07 204.18 L 258.97 200.93 L 257.96 197.61 L 257.04 194.24 L 256.19 190.82 L 255.44 187.35 L 254.78 183.83 L 254.22 180.27 L 253.76000000000002 176.66 L 253.4 173.03 L 253.14000000000001 169.36 L 252.98000000000002 165.66 L 252.94 161.94 L 253.0 158.20000000000002 L 253.18 154.45000000000002 L 253.47 150.68 L 253.87 146.91 L 254.39000000000001 143.14000000000001 L 255.03 139.38 L 255.79 135.62 L 256.67 131.87 L 257.66 128.15 L 258.77 124.44 L 260.01 120.77 L 261.36 117.13 L 262.83 113.52 L 264.42 109.96000000000001 L 266.13 106.45 L 267.96 102.99000000000001 L 269.9 99.59 L 272.25 96.83 L 275.27 95.25 L 278.32 93.74 L 281.39 92.27 L 284.49 90.86 L 287.61 89.5 L 290.75 88.2 L 293.92 86.95 L 297.11 85.76 L 300.31 84.62 L 303.54 83.54 L 306.79 82.52 L 310.05 81.55 L 313.33 80.64 L 316.63 79.79 L 319.93 79.0 L 323.26 78.26 L 326.59000000000003 77.58 L 329.94 76.96000000000001 L 333.3 76.4 L 336.66 75.9 L 340.04 75.45 L 343.42 75.07000000000001 L 346.8 74.74 L 350.2 74.48 L 353.59000000000003 74.27 L 356.99 74.12 L 360.40000000000003 74.03 L 363.8 74.0 " stroke="#2171b5" stroke-width="1.5" fill="none" /></svg>