<svg xmlns="http://www.w3.org/2000/svg" width="809" height="521" font-family="DejaVu Sans, Liberation Sans, Arial, sans-serif" fill="black"><rect width="100%" height="100%" fill="white" /><defs><clipPath id="kuva-clip-3"><rect x="59" y="44" width="600" height="450"/></clipPath></defs><line x1="59" y1="494" x2="659" y2="494" stroke="#000000" stroke-width="1" /><line x1="59" y1="44" x2="59" y2="494" stroke="#000000" stroke-width="1" /><line x1="54" y1="494" x2="59" y2="494" stroke="#000000" stroke-width="1" /><text x="51" y="498.2" font-size="12" text-anchor="end">0</text><line x1="54" y1="404" x2="59" y2="404" stroke="#000000" stroke-width="1" /><text x="51" y="408.2" font-size="12" text-anchor="end">2</text><line x1="54" y1="314" x2="59" y2="314" stroke="#000000" stroke-width="1" /><text x="51" y="318.2" font-size="12" text-anchor="end">4</text><line x1="54" y1="224" x2="59" y2="224" stroke="#000000" stroke-width="1" /><text x="51" y="228.20000000000002" font-size="12" text-anchor="end">6</text><line x1="54" y1="134" x2="59" y2="134" stroke="#000000" stroke-width="1" /><text x="51" y="138.20000000000002" font-size="12" text-anchor="end">8</text><line x1="54" y1="44" x2="59" y2="44" stroke="#000000" stroke-width="1" /><text x="51" y="48.2" font-size="12" text-anchor="end">10</text><text x="15" y="260.5" font-size="14" text-anchor="middle" transform="rotate(-90,15,260.5)">−log₁₀(p-value)</text><text x="404.5" y="27.400000000000002" font-size="18" text-anchor="middle">Manhattan — Custom Genome Build</text><g clip-path="url(#kuva-clip-3)"><line x1="59" y1="165.45000000000002" x2="659" y2="165.45000000000002" stroke="#cc3333" stroke-width="1" stroke-dasharray="4 4" /><line x1="59" y1="269" x2="659" y2="269" stroke="#888888" stroke-width="1" stroke-dasharray="4 4" /><line x1="239" y1="44" x2="239" y2="494" stroke="#cccccc" stroke-width="0.5" /><line x1="381.5" y1="44" x2="381.5" y2="494" stroke="#cccccc" stroke-width="0.5" /><line x1="501.5" y1="44" x2="501.5" y2="494" stroke="#cccccc" stroke-width="0.5" /><circle cx="60.5" cy="462.74" r="2.5" fill="#4477aa" /><circle cx="63.5" cy="473.14" r="2.5" fill="#4477aa" /><circle cx="66.5" cy="462.26" r="2.5" fill="#4477aa" /><circle cx="69.5" cy="474.6" r="2.5" fill="#4477aa" /><circle cx="72.5" cy="467.47" r="2.5" fill="#4477aa" /><circle cx="75.5" cy="461.23" r="2.5" fill="#4477aa" /><circle cx="78.5" cy="442.62" r="2.5" fill="#4477aa" /><circle cx="81.5" cy="470.71000000000004" r="2.5" fill="#4477aa" /><circle cx="84.5" cy="478.21000000000004" r="2.5" fill="#4477aa" /><circle cx="87.5" cy="465.55" r="2.5" fill="#4477aa" /><circle cx="90.5" cy="473.86" r="2.5" fill="#4477aa" /><circle cx="93.5" cy="463.14" r="2.5" fill="#4477aa" /><circle cx="96.5" cy="468.05" r="2.5" fill="#4477aa" /><circle cx="99.5" cy="466.25" r="2.5" fill="#4477aa" /><circle cx="102.5" cy="476.75" r="2.5" fill="#4477aa" /><circle cx="105.5" cy="467.13" r="2.5" fill="#4477aa" /><circle cx="108.5" cy="437.94" r="2.5" fill="#4477aa" /><circle cx="111.5" cy="474.14" r="2.5" fill="#4477aa" /><circle cx="114.5" cy="474.03000000000003" r="2.5" fill="#4477aa" /><circle cx="117.5" cy="469.66" r="2.5" fill="#4477aa" /><circle cx="120.5" cy="467.12" r="2.5" fill="#4477aa" /><circle cx="123.5" cy="475.7" r="2.5" fill="#4477aa" /><circle cx="126.5" cy="451.13" r="2.5" fill="#4477aa" /><circle cx="129.5" cy="473.33" r="2.5" fill="#4477aa" /><circle cx="132.5" cy="466.5" r="2.5" fill="#4477aa" /><circle cx="135.5" cy="451.63" r="2.5" fill="#4477aa" /><circle cx="138.5" cy="457.48" r="2.5" fill="#4477aa" /><circle cx="141.5" cy="461.81" r="2.5" fill="#4477aa" /><circle cx="144.5" cy="473.99" r="2.5" fill="#4477aa" /><circle cx="147.5" cy="477.06" r="2.5" fill="#4477aa" /><circle cx="150.5" cy="458.49" r="2.5" fill="#4477aa" /><circle cx="153.5" cy="468.08" r="2.5" fill="#4477aa" /><circle cx="156.5" cy="474.51" r="2.5" fill="#4477aa" /><circle cx="159.5" cy="472.67" r="2.5" fill="#4477aa" /><circle cx="162.5" cy="460.96000000000004" r="2.5" fill="#4477aa" /><circle cx="165.5" cy="440.92" r="2.5" fill="#4477aa" /><circle cx="168.5" cy="473.86" r="2.5" fill="#4477aa" /><circle cx="171.5" cy="472.85" r="2.5" fill="#4477aa" /><circle cx="174.5" cy="471.91" r="2.5" fill="#4477aa" /><circle cx="177.5" cy="447.22" r="2.5" fill="#4477aa" /><circle cx="180.5" cy="465.97" r="2.5" fill="#4477aa" /><circle cx="183.5" cy="443.15000000000003" r="2.5" fill="#4477aa" /><circle cx="186.5" cy="476.53000000000003" r="2.5" fill="#4477aa" /><circle cx="189.5" cy="475.54" r="2.5" fill="#4477aa" /><circle cx="192.5" cy="462.18" r="2.5" fill="#4477aa" /><circle cx="195.5" cy="462.87" r="2.5" fill="#4477aa" /><circle cx="198.5" cy="458.6" r="2.5" fill="#4477aa" /><circle cx="201.5" cy="473.01" r="2.5" fill="#4477aa" /><circle cx="204.5" cy="466.17" r="2.5" fill="#4477aa" /><circle cx="207.5" cy="468.86" r="2.5" fill="#4477aa" /><circle cx="210.5" cy="465.81" r="2.5" fill="#4477aa" /><circle cx="213.5" cy="454.82" r="2.5" fill="#4477aa" /><circle cx="216.5" cy="477.41" r="2.5" fill="#4477aa" /><circle cx="219.5" cy="473.59000000000003" r="2.5" fill="#4477aa" /><circle cx="222.5" cy="466.68" r="2.5" fill="#4477aa" /><circle cx="225.5" cy="436.08" r="2.5" fill="#4477aa" /><circle cx="228.5" cy="470.72" r="2.5" fill="#4477aa" /><circle cx="231.5" cy="475.96000000000004" r="2.5" fill="#4477aa" /><circle cx="234.5" cy="477.26" r="2.5" fill="#4477aa" /><circle cx="237.5" cy="473.55" r="2.5" fill="#4477aa" /><circle cx="240.19" cy="450.64" r="2.5" fill="#ee6677" /><circle cx="242.56" cy="458.19" r="2.5" fill="#ee6677" /><circle cx="244.94" cy="444.84000000000003" r="2.5" fill="#ee6677" /><circle cx="247.31" cy="478.35" r="2.5" fill="#ee6677" /><circle cx="249.69" cy="447.49" r="2.5" fill="#ee6677" /><circle cx="252.06" cy="472.19" r="2.5" fill="#ee6677" /><circle cx="254.44" cy="437.63" r="2.5" fill="#ee6677" /><circle cx="256.81" cy="474.26" r="2.5" fill="#ee6677" /><circle cx="259.19" cy="456" r="2.5" fill="#ee6677" /><circle cx="261.56" cy="477.83" r="2.5" fill="#ee6677" /><circle cx="263.94" cy="453.02" r="2.5" fill="#ee6677" /><circle cx="266.31" cy="475.12" r="2.5" fill="#ee6677" /><circle cx="268.69" cy="477.44" r="2.5" fill="#ee6677" /><circle cx="271.06" cy="473.72" r="2.5" fill="#ee6677" /><circle cx="273.44" cy="478.15000000000003" r="2.5" fill="#ee6677" /><circle cx="275.81" cy="471.66" r="2.5" fill="#ee6677" /><circle cx="278.19" cy="474.21000000000004" r="2.5" fill="#ee6677" /><circle cx="280.56" cy="453.28000000000003" r="2.5" fill="#ee6677" /><circle cx="282.94" cy="466.82" r="2.5" fill="#ee6677" /><circle cx="285.31" cy="442.51" r="2.5" fill="#ee6677" /><circle cx="287.69" cy="451.59000000000003" r="2.5" fill="#ee6677" /><circle cx="290.06" cy="458.97" r="2.5" fill="#ee6677" /><circle cx="292.44" cy="452.81" r="2.5" fill="#ee6677" /><circle cx="294.81" cy="459.59000000000003" r="2.5" fill="#ee6677" /><circle cx="297.19" cy="100.18" r="2.5" fill="#ee6677" /><circle cx="299.56" cy="91.99" r="2.5" fill="#ee6677" /><circle cx="301.94" cy="106.73" r="2.5" fill="#ee6677" /><circle cx="304.31" cy="98.19" r="2.5" fill="#ee6677" /><circle cx="306.69" cy="77.19" r="2.5" fill="#ee6677" /><circle cx="309.06" cy="90.62" r="2.5" fill="#ee6677" /><circle cx="311.44" cy="98.89" r="2.5" fill="#ee6677" /><circle cx="313.81" cy="101.09" r="2.5" fill="#ee6677" /><circle cx="316.19" cy="85.46000000000001" r="2.5" fill="#ee6677" /><circle cx="318.56" cy="461.42" r="2.5" fill="#ee6677" /><circle cx="320.94" cy="468.85" r="2.5" fill="#ee6677" /><circle cx="323.31" cy="460.97" r="2.5" fill="#ee6677" /><circle cx="325.69" cy="455.79" r="2.5" fill="#ee6677" /><circle cx="328.06" cy="439.13" r="2.5" fill="#ee6677" /><circle cx="330.44" cy="466.37" r="2.5" fill="#ee6677" /><circle cx="332.81" cy="457.55" r="2.5" fill="#ee6677" /><circle cx="335.19" cy="477.46000000000004" r="2.5" fill="#ee6677" /><circle cx="337.56" cy="477.64" r="2.5" fill="#ee6677" /><circle cx="339.94" cy="473.68" r="2.5" fill="#ee6677" /><circle cx="342.31" cy="456.62" r="2.5" fill="#ee6677" /><circle cx="344.69" cy="476.26" r="2.5" fill="#ee6677" /><circle cx="347.06" cy="476.33" r="2.5" fill="#ee6677" /><circle cx="349.44" cy="474.42" r="2.5" fill="#ee6677" /><circle cx="351.81" cy="443.88" r="2.5" fill="#ee6677" /><circle cx="354.19" cy="456.63" r="2.5" fill="#ee6677" /><circle cx="356.56" cy="441.31" r="2.5" fill="#ee6677" /><circle cx="358.94" cy="469.47" r="2.5" fill="#ee6677" /><circle cx="361.31" cy="453.99" r="2.5" fill="#ee6677" /><circle cx="363.69" cy="476.47" r="2.5" fill="#ee6677" /><circle cx="366.06" cy="476.75" r="2.5" fill="#ee6677" /><circle cx="368.44" cy="475.01" r="2.5" fill="#ee6677" /><circle cx="370.81" cy="439.41" r="2.5" fill="#ee6677" /><circle cx="373.19" cy="450.35" r="2.5" fill="#ee6677" /><circle cx="375.56" cy="477.17" r="2.5" fill="#ee6677" /><circle cx="377.94" cy="444.14" r="2.5" fill="#ee6677" /><circle cx="380.31" cy="452.21000000000004" r="2.5" fill="#ee6677" /><circle cx="382.5" cy="474.27" r="2.5" fill="#228833" /><circle cx="384.5" cy="458.27" r="2.5" fill="#228833" /><circle cx="386.5" cy="465.36" r="2.5" fill="#228833" /><circle cx="388.5" cy="465.68" r="2.5" fill="#228833" /><circle cx="390.5" cy="478.27" r="2.5" fill="#228833" /><circle cx="392.5" cy="444.67" r="2.5" fill="#228833" /><circle cx="394.5" cy="474.33" r="2.5" fill="#228833" /><circle cx="396.5" cy="455.8" r="2.5" fill="#228833" /><circle cx="398.5" cy="467.15000000000003" r="2.5" fill="#228833" /><circle cx="400.5" cy="471.40000000000003" r="2.5" fill="#228833" /><circle cx="402.5" cy="473.73" r="2.5" fill="#228833" /><circle cx="404.5" cy="477.74" r="2.5" fill="#228833" /><circle cx="406.5" cy="475.61" r="2.5" fill="#228833" /><circle cx="408.5" cy="477.77" r="2.5" fill="#228833" /><circle cx="410.5" cy="460.85" r="2.5" fill="#228833" /><circle cx="412.5" cy="469.94" r="2.5" fill="#228833" /><circle cx="414.5" cy="473.40000000000003" r="2.5" fill="#228833" /><circle cx="416.5" cy="471.03000000000003" r="2.5" fill="#228833" /><circle cx="418.5" cy="442.48" r="2.5" fill="#228833" /><circle cx="420.5" cy="475.89" r="2.5" fill="#228833" /><circle cx="422.5" cy="441.09000000000003" r="2.5" fill="#228833" /><circle cx="424.5" cy="477.40000000000003" r="2.5" fill="#228833" /><circle cx="426.5" cy="445.34000000000003" r="2.5" fill="#228833" /><circle cx="428.5" cy="476.21000000000004" r="2.5" fill="#228833" /><circle cx="430.5" cy="461.16" r="2.5" fill="#228833" /><circle cx="432.5" cy="457.66" r="2.5" fill="#228833" /><circle cx="434.5" cy="464.16" r="2.5" fill="#228833" /><circle cx="436.5" cy="457.61" r="2.5" fill="#228833" /><circle cx="438.5" cy="437.46000000000004" r="2.5" fill="#228833" /><circle cx="440.5" cy="463.87" r="2.5" fill="#228833" /><circle cx="442.5" cy="477.55" r="2.5" fill="#228833" /><circle cx="444.5" cy="466.89" r="2.5" fill="#228833" /><circle cx="446.5" cy="462.43" r="2.5" fill="#228833" /><circle cx="448.5" cy="449.13" r="2.5" fill="#228833" /><circle cx="450.5" cy="472.6" r="2.5" fill="#228833" /><circle cx="452.5" cy="467" r="2.5" fill="#228833" /><circle cx="454.5" cy="447.04" r="2.5" fill="#228833" /><circle cx="456.5" cy="456.24" r="2.5" fill="#228833" /><circle cx="458.5" cy="468.40000000000003" r="2.5" fill="#228833" /><circle cx="460.5" cy="469.94" r="2.5" fill="#228833" /><circle cx="462.5" cy="465.94" r="2.5" fill="#228833" /><circle cx="464.5" cy="470.98" r="2.5" fill="#228833" /><circle cx="466.5" cy="453.17" r="2.5" fill="#228833" /><circle cx="468.5" cy="477.23" r="2.5" fill="#228833" /><circle cx="470.5" cy="475.67" r="2.5" fill="#228833" /><circle cx="472.5" cy="474.87" r="2.5" fill="#228833" /><circle cx="474.5" cy="452.93" r="2.5" fill="#228833" /><circle cx="476.5" cy="455.13" r="2.5" fill="#228833" /><circle cx="478.5" cy="477.3" r="2.5" fill="#228833" /><circle cx="480.5" cy="467.40000000000003" r="2.5" fill="#228833" /><circle cx="482.5" cy="442.24" r="2.5" fill="#228833" /><circle cx="484.5" cy="435.82" r="2.5" fill="#228833" /><circle cx="486.5" cy="445.66" r="2.5" fill="#228833" /><circle cx="488.5" cy="477.75" r="2.5" fill="#228833" /><circle cx="490.5" cy="454.34000000000003" r="2.5" fill="#228833" /><circle cx="492.5" cy="476.89" r="2.5" fill="#228833" /><circle cx="494.5" cy="444.74" r="2.5" fill="#228833" /><circle cx="496.5" cy="442.7" r="2.5" fill="#228833" /><circle cx="498.5" cy="466.99" r="2.5" fill="#228833" /><circle cx="500.5" cy="464.45" r="2.5" fill="#228833" /><circle cx="502.19" cy="446.42" r="2.5" fill="#ccbb44" /><circle cx="503.56" cy="467.16" r="2.5" fill="#ccbb44" /><circle cx="504.94" cy="442.59000000000003" r="2.5" fill="#ccbb44" /><circle cx="506.31" cy="437.89" r="2.5" fill="#ccbb44" /><circle cx="507.69" cy="446.55" r="2.5" fill="#ccbb44" /><circle cx="509.06" cy="439.01" r="2.5" fill="#ccbb44" /><circle cx="510.44" cy="474.26" r="2.5" fill="#ccbb44" /><circle cx="511.81" cy="457.25" r="2.5" fill="#ccbb44" /><circle cx="513.19" cy="472.38" r="2.5" fill="#ccbb44" /><circle cx="514.5600000000001" cy="473.88" r="2.5" fill="#ccbb44" /><circle cx="515.94" cy="466.18" r="2.5" fill="#ccbb44" /><circle cx="517.3100000000001" cy="470.48" r="2.5" fill="#ccbb44" /><circle cx="518.69" cy="442.53000000000003" r="2.5" fill="#ccbb44" /><circle cx="520.0600000000001" cy="461.05" r="2.5" fill="#ccbb44" /><circle cx="521.44" cy="472.1" r="2.5" fill="#ccbb44" /><circle cx="522.8100000000001" cy="470.86" r="2.5" fill="#ccbb44" /><circle cx="524.19" cy="466.35" r="2.5" fill="#ccbb44" /><circle cx="525.5600000000001" cy="475.71000000000004" r="2.5" fill="#ccbb44" /><circle cx="526.94" cy="449.84000000000003" r="2.5" fill="#ccbb44" /><circle cx="528.3100000000001" cy="456.94" r="2.5" fill="#ccbb44" /><circle cx="529.69" cy="466.22" r="2.5" fill="#ccbb44" /><circle cx="531.0600000000001" cy="464.95" r="2.5" fill="#ccbb44" /><circle cx="532.44" cy="460.44" r="2.5" fill="#ccbb44" /><circle cx="533.8100000000001" cy="457.66" r="2.5" fill="#ccbb44" /><circle cx="535.19" cy="466.12" r="2.5" fill="#ccbb44" /><circle cx="536.5600000000001" cy="459.11" r="2.5" fill="#ccbb44" /><circle cx="537.94" cy="459.39" r="2.5" fill="#ccbb44" /><circle cx="539.3100000000001" cy="462.11" r="2.5" fill="#ccbb44" /><circle cx="540.69" cy="459.36" r="2.5" fill="#ccbb44" /><circle cx="542.0600000000001" cy="463.13" r="2.5" fill="#ccbb44" /><circle cx="543.44" cy="469.44" r="2.5" fill="#ccbb44" /><circle cx="544.8100000000001" cy="477.15000000000003" r="2.5" fill="#ccbb44" /><circle cx="546.19" cy="462.19" r="2.5" fill="#ccbb44" /><circle cx="547.5600000000001" cy="463.5" r="2.5" fill="#ccbb44" /><circle cx="548.94" cy="436.95" r="2.5" fill="#ccbb44" /><circle cx="550.3100000000001" cy="466.36" r="2.5" fill="#ccbb44" /><circle cx="551.69" cy="438.23" r="2.5" fill="#ccbb44" /><circle cx="553.0600000000001" cy="454.22" r="2.5" fill="#ccbb44" /><circle cx="554.44" cy="441.36" r="2.5" fill="#ccbb44" /><circle cx="555.8100000000001" cy="466.25" r="2.5" fill="#ccbb44" /><circle cx="557.19" cy="461.82" r="2.5" fill="#ccbb44" /><circle cx="558.5600000000001" cy="475.16" r="2.5" fill="#ccbb44" /><circle cx="559.94" cy="464.79" r="2.5" fill="#ccbb44" /><circle cx="561.3100000000001" cy="437.92" r="2.5" fill="#ccbb44" /><circle cx="562.69" cy="449.89" r="2.5" fill="#ccbb44" /><circle cx="564.0600000000001" cy="466.18" r="2.5" fill="#ccbb44" /><circle cx="565.44" cy="466.88" r="2.5" fill="#ccbb44" /><circle cx="566.8100000000001" cy="437.32" r="2.5" fill="#ccbb44" /><circle cx="568.19" cy="472.99" r="2.5" fill="#ccbb44" /><circle cx="569.5600000000001" cy="465.09000000000003" r="2.5" fill="#ccbb44" /><circle cx="570.94" cy="475.08" r="2.5" fill="#ccbb44" /><circle cx="572.3100000000001" cy="471.48" r="2.5" fill="#ccbb44" /><circle cx="573.69" cy="469.97" r="2.5" fill="#ccbb44" /><circle cx="575.0600000000001" cy="475.84000000000003" r="2.5" fill="#ccbb44" /><circle cx="576.44" cy="476.99" r="2.5" fill="#ccbb44" /><circle cx="577.8100000000001" cy="472.07" r="2.5" fill="#ccbb44" /><circle cx="579.19" cy="477.98" r="2.5" fill="#ccbb44" /><circle cx="580.5600000000001" cy="444.05" r="2.5" fill="#ccbb44" /><circle cx="581.94" cy="471.15000000000003" r="2.5" fill="#ccbb44" /><circle cx="583.3100000000001" cy="441.38" r="2.5" fill="#ccbb44" /><text x="299.56" y="87.49" font-size="12" text-anchor="middle">2</text><text x="304.31" y="73.49" font-size="12" text-anchor="middle">2</text><text x="306.69" y="59.49" font-size="12" text-anchor="middle">2</text><text x="309.06" y="86.12" font-size="12" text-anchor="middle">2</text><text x="311.44" y="72.12" font-size="12" text-anchor="middle">2</text><text x="316.19" y="58.120000000000005" font-size="12" text-anchor="middle">2</text></g><text x="149" y="511" font-size="12" text-anchor="middle">1</text><text x="310.25" y="511" font-size="12" text-anchor="middle">2</text><text x="441.5" y="511" font-size="12" text-anchor="middle">3</text><text x="542.75" y="511" font-size="12" text-anchor="middle">X</text><rect x="664" y="34" width="136" height="56" fill="#ffffff" /><rect x="664" y="34" width="136" height="56" fill="none" stroke="#000000" stroke-width="1" /><text x="694" y="53.2" font-size="12" text-anchor="start">Genome-wide</text><line x1="674" y1="49" x2="686" y2="49" stroke="#cc3333" stroke-width="2" stroke-dasharray="4 4" /><text x="694" y="71.2" font-size="12" text-anchor="start">Suggestive</text><line x1="674" y1="67" x2="686" y2="67" stroke="#888888" stroke-width="2" stroke-dasharray="4 4" /></svg>