<svg xmlns="http://www.w3.org/2000/svg" width="823.2" height="521" font-family="DejaVu Sans, Liberation Sans, Arial, sans-serif" fill="black"><rect width="100%" height="100%" fill="white" /><line x1="72.2" y1="494" x2="672.2" y2="494" stroke="#000000" stroke-width="1" /><line x1="72.2" y1="44" x2="72.2" y2="494" stroke="#000000" stroke-width="1" /><line x1="67.2" y1="494" x2="72.2" y2="494" stroke="#000000" stroke-width="1" /><text x="64.2" y="498.2" font-size="12" text-anchor="end">0</text><line x1="67.2" y1="404" x2="72.2" y2="404" stroke="#000000" stroke-width="1" /><text x="64.2" y="408.2" font-size="12" text-anchor="end">2</text><line x1="67.2" y1="314" x2="72.2" y2="314" stroke="#000000" stroke-width="1" /><text x="64.2" y="318.2" font-size="12" text-anchor="end">4</text><line x1="67.2" y1="224" x2="72.2" y2="224" stroke="#000000" stroke-width="1" /><text x="64.2" y="228.20000000000002" font-size="12" text-anchor="end">6</text><line x1="67.2" y1="134" x2="72.2" y2="134" stroke="#000000" stroke-width="1" /><text x="64.2" y="138.20000000000002" font-size="12" text-anchor="end">8</text><line x1="67.2" y1="44" x2="72.2" y2="44" stroke="#000000" stroke-width="1" /><text x="64.2" y="48.2" font-size="12" text-anchor="end">10</text><text x="7" y="260.5" font-size="14" text-anchor="middle" transform="rotate(-90,7,260.5)">−log₁₀(p-value)</text><text x="372.2" y="22" font-size="18" text-anchor="middle">Manhattan — Custom Genome Build</text><line x1="72.2" y1="165.45000000000002" x2="672.2" y2="165.45000000000002" stroke="#cc3333" stroke-width="1" stroke-dasharray="4 4" /><line x1="72.2" y1="269" x2="672.2" y2="269" stroke="#888888" stroke-width="1" stroke-dasharray="4 4" /><line x1="252.20000000000002" y1="44" x2="252.20000000000002" y2="494" stroke="#cccccc" stroke-width="0.5" /><line x1="394.7" y1="44" x2="394.7" y2="494" stroke="#cccccc" stroke-width="0.5" /><line x1="514.7" y1="44" x2="514.7" y2="494" stroke="#cccccc" stroke-width="0.5" /><circle cx="73.7" cy="462.74" r="2.5" fill="#4477aa" /><circle cx="76.7" cy="473.14" r="2.5" fill="#4477aa" /><circle cx="79.7" cy="462.26" r="2.5" fill="#4477aa" /><circle cx="82.7" cy="474.6" r="2.5" fill="#4477aa" /><circle cx="85.7" cy="467.47" r="2.5" fill="#4477aa" /><circle cx="88.7" cy="461.23" r="2.5" fill="#4477aa" /><circle cx="91.7" cy="442.62" r="2.5" fill="#4477aa" /><circle cx="94.7" cy="470.71000000000004" r="2.5" fill="#4477aa" /><circle cx="97.7" cy="478.21000000000004" r="2.5" fill="#4477aa" /><circle cx="100.7" cy="465.55" r="2.5" fill="#4477aa" /><circle cx="103.7" cy="473.86" r="2.5" fill="#4477aa" /><circle cx="106.7" cy="463.14" r="2.5" fill="#4477aa" /><circle cx="109.7" cy="468.05" r="2.5" fill="#4477aa" /><circle cx="112.7" cy="466.25" r="2.5" fill="#4477aa" /><circle cx="115.7" cy="476.75" r="2.5" fill="#4477aa" /><circle cx="118.7" cy="467.13" r="2.5" fill="#4477aa" /><circle cx="121.7" cy="437.94" r="2.5" fill="#4477aa" /><circle cx="124.7" cy="474.14" r="2.5" fill="#4477aa" /><circle cx="127.7" cy="474.03000000000003" r="2.5" fill="#4477aa" /><circle cx="130.7" cy="469.66" r="2.5" fill="#4477aa" /><circle cx="133.7" cy="467.12" r="2.5" fill="#4477aa" /><circle cx="136.70000000000002" cy="475.7" r="2.5" fill="#4477aa" /><circle cx="139.70000000000002" cy="451.13" r="2.5" fill="#4477aa" /><circle cx="142.70000000000002" cy="473.33" r="2.5" fill="#4477aa" /><circle cx="145.70000000000002" cy="466.5" r="2.5" fill="#4477aa" /><circle cx="148.70000000000002" cy="451.63" r="2.5" fill="#4477aa" /><circle cx="151.70000000000002" cy="457.48" r="2.5" fill="#4477aa" /><circle cx="154.70000000000002" cy="461.81" r="2.5" fill="#4477aa" /><circle cx="157.70000000000002" cy="473.99" r="2.5" fill="#4477aa" /><circle cx="160.70000000000002" cy="477.06" r="2.5" fill="#4477aa" /><circle cx="163.70000000000002" cy="458.49" r="2.5" fill="#4477aa" /><circle cx="166.70000000000002" cy="468.08" r="2.5" fill="#4477aa" /><circle cx="169.70000000000002" cy="474.51" r="2.5" fill="#4477aa" /><circle cx="172.70000000000002" cy="472.67" r="2.5" fill="#4477aa" /><circle cx="175.70000000000002" cy="460.96000000000004" r="2.5" fill="#4477aa" /><circle cx="178.70000000000002" cy="440.92" r="2.5" fill="#4477aa" /><circle cx="181.70000000000002" cy="473.86" r="2.5" fill="#4477aa" /><circle cx="184.70000000000002" cy="472.85" r="2.5" fill="#4477aa" /><circle cx="187.70000000000002" cy="471.91" r="2.5" fill="#4477aa" /><circle cx="190.70000000000002" cy="447.22" r="2.5" fill="#4477aa" /><circle cx="193.70000000000002" cy="465.97" r="2.5" fill="#4477aa" /><circle cx="196.70000000000002" cy="443.15000000000003" r="2.5" fill="#4477aa" /><circle cx="199.70000000000002" cy="476.53000000000003" r="2.5" fill="#4477aa" /><circle cx="202.70000000000002" cy="475.54" r="2.5" fill="#4477aa" /><circle cx="205.70000000000002" cy="462.18" r="2.5" fill="#4477aa" /><circle cx="208.70000000000002" cy="462.87" r="2.5" fill="#4477aa" /><circle cx="211.70000000000002" cy="458.6" r="2.5" fill="#4477aa" /><circle cx="214.70000000000002" cy="473.01" r="2.5" fill="#4477aa" /><circle cx="217.70000000000002" cy="466.17" r="2.5" fill="#4477aa" /><circle cx="220.70000000000002" cy="468.86" r="2.5" fill="#4477aa" /><circle cx="223.70000000000002" cy="465.81" r="2.5" fill="#4477aa" /><circle cx="226.70000000000002" cy="454.82" r="2.5" fill="#4477aa" /><circle cx="229.70000000000002" cy="477.41" r="2.5" fill="#4477aa" /><circle cx="232.70000000000002" cy="473.59000000000003" r="2.5" fill="#4477aa" /><circle cx="235.70000000000002" cy="466.68" r="2.5" fill="#4477aa" /><circle cx="238.70000000000002" cy="436.08" r="2.5" fill="#4477aa" /><circle cx="241.70000000000002" cy="470.72" r="2.5" fill="#4477aa" /><circle cx="244.70000000000002" cy="475.96000000000004" r="2.5" fill="#4477aa" /><circle cx="247.70000000000002" cy="477.26" r="2.5" fill="#4477aa" /><circle cx="250.70000000000002" cy="473.55" r="2.5" fill="#4477aa" /><circle cx="253.39000000000001" cy="450.64" r="2.5" fill="#ee6677" /><circle cx="255.76000000000002" cy="458.19" r="2.5" fill="#ee6677" /><circle cx="258.14" cy="444.84000000000003" r="2.5" fill="#ee6677" /><circle cx="260.51" cy="478.35" r="2.5" fill="#ee6677" /><circle cx="262.89" cy="447.49" r="2.5" fill="#ee6677" /><circle cx="265.26" cy="472.19" r="2.5" fill="#ee6677" /><circle cx="267.64" cy="437.63" r="2.5" fill="#ee6677" /><circle cx="270.01" cy="474.26" r="2.5" fill="#ee6677" /><circle cx="272.39" cy="456" r="2.5" fill="#ee6677" /><circle cx="274.76" cy="477.83" r="2.5" fill="#ee6677" /><circle cx="277.14" cy="453.02" r="2.5" fill="#ee6677" /><circle cx="279.51" cy="475.12" r="2.5" fill="#ee6677" /><circle cx="281.89" cy="477.44" r="2.5" fill="#ee6677" /><circle cx="284.26" cy="473.72" r="2.5" fill="#ee6677" /><circle cx="286.64" cy="478.15000000000003" r="2.5" fill="#ee6677" /><circle cx="289.01" cy="471.66" r="2.5" fill="#ee6677" /><circle cx="291.39" cy="474.21000000000004" r="2.5" fill="#ee6677" /><circle cx="293.76" cy="453.28000000000003" r="2.5" fill="#ee6677" /><circle cx="296.14" cy="466.82" r="2.5" fill="#ee6677" /><circle cx="298.51" cy="442.51" r="2.5" fill="#ee6677" /><circle cx="300.89" cy="451.59000000000003" r="2.5" fill="#ee6677" /><circle cx="303.26" cy="458.97" r="2.5" fill="#ee6677" /><circle cx="305.64" cy="452.81" r="2.5" fill="#ee6677" /><circle cx="308.01" cy="459.59000000000003" r="2.5" fill="#ee6677" /><circle cx="310.39" cy="100.18" r="2.5" fill="#ee6677" /><circle cx="312.76" cy="91.99" r="2.5" fill="#ee6677" /><circle cx="315.14" cy="106.73" r="2.5" fill="#ee6677" /><circle cx="317.51" cy="98.19" r="2.5" fill="#ee6677" /><circle cx="319.89" cy="77.19" r="2.5" fill="#ee6677" /><circle cx="322.26" cy="90.62" r="2.5" fill="#ee6677" /><circle cx="324.64" cy="98.89" r="2.5" fill="#ee6677" /><circle cx="327.01" cy="101.09" r="2.5" fill="#ee6677" /><circle cx="329.39" cy="85.46000000000001" r="2.5" fill="#ee6677" /><circle cx="331.76" cy="461.42" r="2.5" fill="#ee6677" /><circle cx="334.14" cy="468.85" r="2.5" fill="#ee6677" /><circle cx="336.51" cy="460.97" r="2.5" fill="#ee6677" /><circle cx="338.89" cy="455.79" r="2.5" fill="#ee6677" /><circle cx="341.26" cy="439.13" r="2.5" fill="#ee6677" /><circle cx="343.64" cy="466.37" r="2.5" fill="#ee6677" /><circle cx="346.01" cy="457.55" r="2.5" fill="#ee6677" /><circle cx="348.39" cy="477.46000000000004" r="2.5" fill="#ee6677" /><circle cx="350.76" cy="477.64" r="2.5" fill="#ee6677" /><circle cx="353.14" cy="473.68" r="2.5" fill="#ee6677" /><circle cx="355.51" cy="456.62" r="2.5" fill="#ee6677" /><circle cx="357.89" cy="476.26" r="2.5" fill="#ee6677" /><circle cx="360.26" cy="476.33" r="2.5" fill="#ee6677" /><circle cx="362.64" cy="474.42" r="2.5" fill="#ee6677" /><circle cx="365.01" cy="443.88" r="2.5" fill="#ee6677" /><circle cx="367.39" cy="456.63" r="2.5" fill="#ee6677" /><circle cx="369.76" cy="441.31" r="2.5" fill="#ee6677" /><circle cx="372.14" cy="469.47" r="2.5" fill="#ee6677" /><circle cx="374.51" cy="453.99" r="2.5" fill="#ee6677" /><circle cx="376.89" cy="476.47" r="2.5" fill="#ee6677" /><circle cx="379.26" cy="476.75" r="2.5" fill="#ee6677" /><circle cx="381.64" cy="475.01" r="2.5" fill="#ee6677" /><circle cx="384.01" cy="439.41" r="2.5" fill="#ee6677" /><circle cx="386.39" cy="450.35" r="2.5" fill="#ee6677" /><circle cx="388.76" cy="477.17" r="2.5" fill="#ee6677" /><circle cx="391.14" cy="444.14" r="2.5" fill="#ee6677" /><circle cx="393.51" cy="452.21000000000004" r="2.5" fill="#ee6677" /><circle cx="395.7" cy="474.27" r="2.5" fill="#228833" /><circle cx="397.7" cy="458.27" r="2.5" fill="#228833" /><circle cx="399.7" cy="465.36" r="2.5" fill="#228833" /><circle cx="401.7" cy="465.68" r="2.5" fill="#228833" /><circle cx="403.7" cy="478.27" r="2.5" fill="#228833" /><circle cx="405.7" cy="444.67" r="2.5" fill="#228833" /><circle cx="407.7" cy="474.33" r="2.5" fill="#228833" /><circle cx="409.7" cy="455.8" r="2.5" fill="#228833" /><circle cx="411.7" cy="467.15000000000003" r="2.5" fill="#228833" /><circle cx="413.7" cy="471.40000000000003" r="2.5" fill="#228833" /><circle cx="415.7" cy="473.73" r="2.5" fill="#228833" /><circle cx="417.7" cy="477.74" r="2.5" fill="#228833" /><circle cx="419.7" cy="475.61" r="2.5" fill="#228833" /><circle cx="421.7" cy="477.77" r="2.5" fill="#228833" /><circle cx="423.7" cy="460.85" r="2.5" fill="#228833" /><circle cx="425.7" cy="469.94" r="2.5" fill="#228833" /><circle cx="427.7" cy="473.40000000000003" r="2.5" fill="#228833" /><circle cx="429.7" cy="471.03000000000003" r="2.5" fill="#228833" /><circle cx="431.7" cy="442.48" r="2.5" fill="#228833" /><circle cx="433.7" cy="475.89" r="2.5" fill="#228833" /><circle cx="435.7" cy="441.09000000000003" r="2.5" fill="#228833" /><circle cx="437.7" cy="477.40000000000003" r="2.5" fill="#228833" /><circle cx="439.7" cy="445.34000000000003" r="2.5" fill="#228833" /><circle cx="441.7" cy="476.21000000000004" r="2.5" fill="#228833" /><circle cx="443.7" cy="461.16" r="2.5" fill="#228833" /><circle cx="445.7" cy="457.66" r="2.5" fill="#228833" /><circle cx="447.7" cy="464.16" r="2.5" fill="#228833" /><circle cx="449.7" cy="457.61" r="2.5" fill="#228833" /><circle cx="451.7" cy="437.46000000000004" r="2.5" fill="#228833" /><circle cx="453.7" cy="463.87" r="2.5" fill="#228833" /><circle cx="455.7" cy="477.55" r="2.5" fill="#228833" /><circle cx="457.7" cy="466.89" r="2.5" fill="#228833" /><circle cx="459.7" cy="462.43" r="2.5" fill="#228833" /><circle cx="461.7" cy="449.13" r="2.5" fill="#228833" /><circle cx="463.7" cy="472.6" r="2.5" fill="#228833" /><circle cx="465.7" cy="467" r="2.5" fill="#228833" /><circle cx="467.7" cy="447.04" r="2.5" fill="#228833" /><circle cx="469.7" cy="456.24" r="2.5" fill="#228833" /><circle cx="471.7" cy="468.40000000000003" r="2.5" fill="#228833" /><circle cx="473.7" cy="469.94" r="2.5" fill="#228833" /><circle cx="475.7" cy="465.94" r="2.5" fill="#228833" /><circle cx="477.7" cy="470.98" r="2.5" fill="#228833" /><circle cx="479.7" cy="453.17" r="2.5" fill="#228833" /><circle cx="481.7" cy="477.23" r="2.5" fill="#228833" /><circle cx="483.7" cy="475.67" r="2.5" fill="#228833" /><circle cx="485.7" cy="474.87" r="2.5" fill="#228833" /><circle cx="487.7" cy="452.93" r="2.5" fill="#228833" /><circle cx="489.7" cy="455.13" r="2.5" fill="#228833" /><circle cx="491.7" cy="477.3" r="2.5" fill="#228833" /><circle cx="493.7" cy="467.40000000000003" r="2.5" fill="#228833" /><circle cx="495.7" cy="442.24" r="2.5" fill="#228833" /><circle cx="497.7" cy="435.82" r="2.5" fill="#228833" /><circle cx="499.7" cy="445.66" r="2.5" fill="#228833" /><circle cx="501.7" cy="477.75" r="2.5" fill="#228833" /><circle cx="503.7" cy="454.34000000000003" r="2.5" fill="#228833" /><circle cx="505.7" cy="476.89" r="2.5" fill="#228833" /><circle cx="507.7" cy="444.74" r="2.5" fill="#228833" /><circle cx="509.7" cy="442.7" r="2.5" fill="#228833" /><circle cx="511.7" cy="466.99" r="2.5" fill="#228833" /><circle cx="513.7" cy="464.45" r="2.5" fill="#228833" /><circle cx="515.39" cy="446.42" r="2.5" fill="#ccbb44" /><circle cx="516.76" cy="467.16" r="2.5" fill="#ccbb44" /><circle cx="518.14" cy="442.59000000000003" r="2.5" fill="#ccbb44" /><circle cx="519.51" cy="437.89" r="2.5" fill="#ccbb44" /><circle cx="520.89" cy="446.55" r="2.5" fill="#ccbb44" /><circle cx="522.26" cy="439.01" r="2.5" fill="#ccbb44" /><circle cx="523.64" cy="474.26" r="2.5" fill="#ccbb44" /><circle cx="525.01" cy="457.25" r="2.5" fill="#ccbb44" /><circle cx="526.39" cy="472.38" r="2.5" fill="#ccbb44" /><circle cx="527.76" cy="473.88" r="2.5" fill="#ccbb44" /><circle cx="529.14" cy="466.18" r="2.5" fill="#ccbb44" /><circle cx="530.51" cy="470.48" r="2.5" fill="#ccbb44" /><circle cx="531.89" cy="442.53000000000003" r="2.5" fill="#ccbb44" /><circle cx="533.26" cy="461.05" r="2.5" fill="#ccbb44" /><circle cx="534.64" cy="472.1" r="2.5" fill="#ccbb44" /><circle cx="536.01" cy="470.86" r="2.5" fill="#ccbb44" /><circle cx="537.39" cy="466.35" r="2.5" fill="#ccbb44" /><circle cx="538.76" cy="475.71000000000004" r="2.5" fill="#ccbb44" /><circle cx="540.14" cy="449.84000000000003" r="2.5" fill="#ccbb44" /><circle cx="541.51" cy="456.94" r="2.5" fill="#ccbb44" /><circle cx="542.89" cy="466.22" r="2.5" fill="#ccbb44" /><circle cx="544.26" cy="464.95" r="2.5" fill="#ccbb44" /><circle cx="545.64" cy="460.44" r="2.5" fill="#ccbb44" /><circle cx="547.01" cy="457.66" r="2.5" fill="#ccbb44" /><circle cx="548.39" cy="466.12" r="2.5" fill="#ccbb44" /><circle cx="549.76" cy="459.11" r="2.5" fill="#ccbb44" /><circle cx="551.14" cy="459.39" r="2.5" fill="#ccbb44" /><circle cx="552.51" cy="462.11" r="2.5" fill="#ccbb44" /><circle cx="553.89" cy="459.36" r="2.5" fill="#ccbb44" /><circle cx="555.26" cy="463.13" r="2.5" fill="#ccbb44" /><circle cx="556.64" cy="469.44" r="2.5" fill="#ccbb44" /><circle cx="558.01" cy="477.15000000000003" r="2.5" fill="#ccbb44" /><circle cx="559.39" cy="462.19" r="2.5" fill="#ccbb44" /><circle cx="560.76" cy="463.5" r="2.5" fill="#ccbb44" /><circle cx="562.14" cy="436.95" r="2.5" fill="#ccbb44" /><circle cx="563.51" cy="466.36" r="2.5" fill="#ccbb44" /><circle cx="564.89" cy="438.23" r="2.5" fill="#ccbb44" /><circle cx="566.26" cy="454.22" r="2.5" fill="#ccbb44" /><circle cx="567.64" cy="441.36" r="2.5" fill="#ccbb44" /><circle cx="569.01" cy="466.25" r="2.5" fill="#ccbb44" /><circle cx="570.39" cy="461.82" r="2.5" fill="#ccbb44" /><circle cx="571.76" cy="475.16" r="2.5" fill="#ccbb44" /><circle cx="573.14" cy="464.79" r="2.5" fill="#ccbb44" /><circle cx="574.51" cy="437.92" r="2.5" fill="#ccbb44" /><circle cx="575.89" cy="449.89" r="2.5" fill="#ccbb44" /><circle cx="577.26" cy="466.18" r="2.5" fill="#ccbb44" /><circle cx="578.64" cy="466.88" r="2.5" fill="#ccbb44" /><circle cx="580.01" cy="437.32" r="2.5" fill="#ccbb44" /><circle cx="581.39" cy="472.99" r="2.5" fill="#ccbb44" /><circle cx="582.76" cy="465.09000000000003" r="2.5" fill="#ccbb44" /><circle cx="584.14" cy="475.08" r="2.5" fill="#ccbb44" /><circle cx="585.51" cy="471.48" r="2.5" fill="#ccbb44" /><circle cx="586.89" cy="469.97" r="2.5" fill="#ccbb44" /><circle cx="588.26" cy="475.84000000000003" r="2.5" fill="#ccbb44" /><circle cx="589.64" cy="476.99" r="2.5" fill="#ccbb44" /><circle cx="591.01" cy="472.07" r="2.5" fill="#ccbb44" /><circle cx="592.39" cy="477.98" r="2.5" fill="#ccbb44" /><circle cx="593.76" cy="444.05" r="2.5" fill="#ccbb44" /><circle cx="595.14" cy="471.15000000000003" r="2.5" fill="#ccbb44" /><circle cx="596.51" cy="441.38" r="2.5" fill="#ccbb44" /><text x="162.20000000000002" y="511" font-size="12" text-anchor="middle">1</text><text x="323.45" y="511" font-size="12" text-anchor="middle">2</text><text x="454.7" y="511" font-size="12" text-anchor="middle">3</text><text x="555.95" y="511" font-size="12" text-anchor="middle">X</text><text x="312.76" y="87.49" font-size="12" text-anchor="middle">2</text><text x="317.51" y="73.49" font-size="12" text-anchor="middle">2</text><text x="319.89" y="59.49" font-size="12" text-anchor="middle">2</text><text x="322.26" y="86.12" font-size="12" text-anchor="middle">2</text><text x="324.64" y="72.12" font-size="12" text-anchor="middle">2</text><text x="329.39" y="58.120000000000005" font-size="12" text-anchor="middle">2</text><rect x="677.2" y="34" width="137" height="56" fill="#ffffff" /><rect x="677.2" y="34" width="137" height="56" fill="none" stroke="#000000" stroke-width="1" /><text x="707.2" y="53.2" font-size="12" text-anchor="start">Genome-wide</text><line x1="687.2" y1="49" x2="699.2" y2="49" stroke="#cc3333" stroke-width="2" stroke-dasharray="4 4" /><text x="707.2" y="71.2" font-size="12" text-anchor="start">Suggestive</text><line x1="687.2" y1="67" x2="699.2" y2="67" stroke="#888888" stroke-width="2" stroke-dasharray="4 4" /></svg>