<svg xmlns="http://www.w3.org/2000/svg" width="686.2" height="521" font-family="DejaVu Sans, Liberation Sans, Arial, sans-serif" fill="black"><rect width="100%" height="100%" fill="white" /><line x1="72.2" y1="494" x2="672.2" y2="494" stroke="#000000" stroke-width="1" /><line x1="72.2" y1="44" x2="72.2" y2="494" stroke="#000000" stroke-width="1" /><line x1="67.2" y1="494" x2="72.2" y2="494" stroke="#000000" stroke-width="1" /><text x="64.2" y="498.2" font-size="12" text-anchor="end">0</text><line x1="67.2" y1="404" x2="72.2" y2="404" stroke="#000000" stroke-width="1" /><text x="64.2" y="408.2" font-size="12" text-anchor="end">2</text><line x1="67.2" y1="314" x2="72.2" y2="314" stroke="#000000" stroke-width="1" /><text x="64.2" y="318.2" font-size="12" text-anchor="end">4</text><line x1="67.2" y1="224" x2="72.2" y2="224" stroke="#000000" stroke-width="1" /><text x="64.2" y="228.20000000000002" font-size="12" text-anchor="end">6</text><line x1="67.2" y1="134" x2="72.2" y2="134" stroke="#000000" stroke-width="1" /><text x="64.2" y="138.20000000000002" font-size="12" text-anchor="end">8</text><line x1="67.2" y1="44" x2="72.2" y2="44" stroke="#000000" stroke-width="1" /><text x="64.2" y="48.2" font-size="12" text-anchor="end">10</text><text x="7" y="260.5" font-size="14" text-anchor="middle" transform="rotate(-90,7,260.5)">−log₁₀(p-value)</text><text x="372.2" y="22" font-size="18" text-anchor="middle">Manhattan — Gene-name Labels</text><line x1="72.2" y1="165.45000000000002" x2="672.2" y2="165.45000000000002" stroke="#cc3333" stroke-width="1" stroke-dasharray="4 4" /><line x1="72.2" y1="269" x2="672.2" y2="269" stroke="#888888" stroke-width="1" stroke-dasharray="4 4" /><line x1="312.2" y1="44" x2="312.2" y2="494" stroke="#cccccc" stroke-width="0.5" /><line x1="512.2" y1="44" x2="512.2" y2="494" stroke="#cccccc" stroke-width="0.5" /><circle cx="92.2" cy="477.05" r="2.5" fill="#4682b4" /><circle cx="112.2" cy="460.49" r="2.5" fill="#4682b4" /><circle cx="132.2" cy="484.34000000000003" r="2.5" fill="#4682b4" /><circle cx="152.20000000000002" cy="57.550000000000004" r="2.5" fill="#4682b4" /><circle cx="172.20000000000002" cy="155.47" r="2.5" fill="#4682b4" /><circle cx="192.20000000000002" cy="446.94" r="2.5" fill="#4682b4" /><circle cx="212.20000000000002" cy="482.32" r="2.5" fill="#4682b4" /><circle cx="232.20000000000002" cy="472.33" r="2.5" fill="#4682b4" /><circle cx="312.2" cy="487.31" r="2.5" fill="#5aadcb" /><circle cx="332.2" cy="466.91" r="2.5" fill="#5aadcb" /><circle cx="352.2" cy="120.45" r="2.5" fill="#5aadcb" /><circle cx="372.2" cy="161.09" r="2.5" fill="#5aadcb" /><circle cx="392.2" cy="454.13" r="2.5" fill="#5aadcb" /><circle cx="412.2" cy="479.66" r="2.5" fill="#5aadcb" /><circle cx="512.2" cy="484.66" r="2.5" fill="#4682b4" /><circle cx="532.2" cy="475.09000000000003" r="2.5" fill="#4682b4" /><circle cx="552.2" cy="155.47" r="2.5" fill="#4682b4" /><circle cx="572.2" cy="89" r="2.5" fill="#4682b4" /><circle cx="592.2" cy="442.03000000000003" r="2.5" fill="#4682b4" /><circle cx="612.2" cy="480.84000000000003" r="2.5" fill="#4682b4" /><text x="162.20000000000002" y="511" font-size="12" text-anchor="middle">1</text><text x="362.2" y="511" font-size="12" text-anchor="middle">2</text><text x="562.2" y="511" font-size="12" text-anchor="middle">3</text><line x1="162.20000000000002" y1="43.550000000000004" x2="155.4" y2="53.07" stroke="#666666" stroke-width="0.8" /><text x="162.20000000000002" y="43.550000000000004" font-size="12" text-anchor="start">BRCA2</text><line x1="582.2" y1="75" x2="575.4" y2="84.52" stroke="#666666" stroke-width="0.8" /><text x="582.2" y="75" font-size="12" text-anchor="start">EGFR</text><line x1="362.2" y1="106.45" x2="355.40000000000003" y2="115.98" stroke="#666666" stroke-width="0.8" /><text x="362.2" y="106.45" font-size="12" text-anchor="start">TP53</text><line x1="182.20000000000002" y1="141.47" x2="175.4" y2="150.99" stroke="#666666" stroke-width="0.8" /><text x="182.20000000000002" y="141.47" font-size="12" text-anchor="start">1</text><line x1="562.2" y1="141.47" x2="555.4" y2="150.99" stroke="#666666" stroke-width="0.8" /><text x="562.2" y="141.47" font-size="12" text-anchor="start">3</text></svg>