<svg xmlns="http://www.w3.org/2000/svg" width="673" height="521" font-family="DejaVu Sans, Liberation Sans, Arial, sans-serif" fill="black"><rect width="100%" height="100%" fill="white" /><defs><clipPath id="kuva-clip-2"><rect x="59" y="44" width="600" height="450"/></clipPath></defs><line x1="59" y1="494" x2="659" y2="494" stroke="#000000" stroke-width="1" /><line x1="59" y1="44" x2="59" y2="494" stroke="#000000" stroke-width="1" /><line x1="54" y1="494" x2="59" y2="494" stroke="#000000" stroke-width="1" /><text x="51" y="498.2" font-size="12" text-anchor="end">0</text><line x1="54" y1="404" x2="59" y2="404" stroke="#000000" stroke-width="1" /><text x="51" y="408.2" font-size="12" text-anchor="end">2</text><line x1="54" y1="314" x2="59" y2="314" stroke="#000000" stroke-width="1" /><text x="51" y="318.2" font-size="12" text-anchor="end">4</text><line x1="54" y1="224" x2="59" y2="224" stroke="#000000" stroke-width="1" /><text x="51" y="228.20000000000002" font-size="12" text-anchor="end">6</text><line x1="54" y1="134" x2="59" y2="134" stroke="#000000" stroke-width="1" /><text x="51" y="138.20000000000002" font-size="12" text-anchor="end">8</text><line x1="54" y1="44" x2="59" y2="44" stroke="#000000" stroke-width="1" /><text x="51" y="48.2" font-size="12" text-anchor="end">10</text><text x="15" y="260.5" font-size="14" text-anchor="middle" transform="rotate(-90,15,260.5)">−log₁₀(p-value)</text><text x="359" y="22" font-size="18" text-anchor="middle">Manhattan — Gene-name Labels</text><g clip-path="url(#kuva-clip-2)"><line x1="59" y1="165.45000000000002" x2="659" y2="165.45000000000002" stroke="#cc3333" stroke-width="1" stroke-dasharray="4 4" /><line x1="59" y1="269" x2="659" y2="269" stroke="#888888" stroke-width="1" stroke-dasharray="4 4" /><line x1="299" y1="44" x2="299" y2="494" stroke="#cccccc" stroke-width="0.5" /><line x1="499" y1="44" x2="499" y2="494" stroke="#cccccc" stroke-width="0.5" /><circle cx="79" cy="477.05" r="2.5" fill="#4682b4" /><circle cx="99" cy="460.49" r="2.5" fill="#4682b4" /><circle cx="119" cy="484.34000000000003" r="2.5" fill="#4682b4" /><circle cx="139" cy="57.550000000000004" r="2.5" fill="#4682b4" /><circle cx="159" cy="155.47" r="2.5" fill="#4682b4" /><circle cx="179" cy="446.94" r="2.5" fill="#4682b4" /><circle cx="199" cy="482.32" r="2.5" fill="#4682b4" /><circle cx="219" cy="472.33" r="2.5" fill="#4682b4" /><circle cx="299" cy="487.31" r="2.5" fill="#5aadcb" /><circle cx="319" cy="466.91" r="2.5" fill="#5aadcb" /><circle cx="339" cy="120.45" r="2.5" fill="#5aadcb" /><circle cx="359" cy="161.09" r="2.5" fill="#5aadcb" /><circle cx="379" cy="454.13" r="2.5" fill="#5aadcb" /><circle cx="399" cy="479.66" r="2.5" fill="#5aadcb" /><circle cx="499" cy="484.66" r="2.5" fill="#4682b4" /><circle cx="519" cy="475.09000000000003" r="2.5" fill="#4682b4" /><circle cx="539" cy="155.47" r="2.5" fill="#4682b4" /><circle cx="559" cy="89" r="2.5" fill="#4682b4" /><circle cx="579" cy="442.03000000000003" r="2.5" fill="#4682b4" /><circle cx="599" cy="480.84000000000003" r="2.5" fill="#4682b4" /><line x1="149" y1="43.550000000000004" x2="142.20000000000002" y2="53.07" stroke="#666666" stroke-width="0.8" /><text x="149" y="43.550000000000004" font-size="12" text-anchor="start">BRCA2</text><line x1="569" y1="75" x2="562.2" y2="84.52" stroke="#666666" stroke-width="0.8" /><text x="569" y="75" font-size="12" text-anchor="start">EGFR</text><line x1="349" y1="106.45" x2="342.2" y2="115.98" stroke="#666666" stroke-width="0.8" /><text x="349" y="106.45" font-size="12" text-anchor="start">TP53</text><line x1="169" y1="141.47" x2="162.20000000000002" y2="150.99" stroke="#666666" stroke-width="0.8" /><text x="169" y="141.47" font-size="12" text-anchor="start">1</text><line x1="549" y1="141.47" x2="542.2" y2="150.99" stroke="#666666" stroke-width="0.8" /><text x="549" y="141.47" font-size="12" text-anchor="start">3</text></g><text x="149" y="511" font-size="12" text-anchor="middle">1</text><text x="349" y="511" font-size="12" text-anchor="middle">2</text><text x="549" y="511" font-size="12" text-anchor="middle">3</text></svg>